<?xml version="1.0" encoding="utf-8" standalone="no"?>
<!DOCTYPE svg PUBLIC "-//W3C//DTD SVG 1.1//EN"
  "http://www.w3.org/Graphics/SVG/1.1/DTD/svg11.dtd">
<svg xmlns:xlink="http://www.w3.org/1999/xlink" width="648pt" height="648pt" viewBox="0 0 648 648" xmlns="http://www.w3.org/2000/svg" version="1.1">
 <metadata>
  <rdf:RDF xmlns:dc="http://purl.org/dc/elements/1.1/" xmlns:cc="http://creativecommons.org/ns#" xmlns:rdf="http://www.w3.org/1999/02/22-rdf-syntax-ns#">
   <cc:Work>
    <dc:type rdf:resource="http://purl.org/dc/dcmitype/StillImage"/>
    <dc:date>2025-04-11T22:04:06.673050</dc:date>
    <dc:format>image/svg+xml</dc:format>
    <dc:creator>
     <cc:Agent>
      <dc:title>Matplotlib v3.5.3, https://matplotlib.org/</dc:title>
     </cc:Agent>
    </dc:creator>
   </cc:Work>
  </rdf:RDF>
 </metadata>
 <defs>
  <style type="text/css">*{stroke-linejoin: round; stroke-linecap: butt}</style>
 </defs>
 <g id="figure_1">
  <g id="patch_1">
   <path d="M 0 648 
L 648 648 
L 648 0 
L 0 0 
z
" style="fill: #ffffff"/>
  </g>
  <g id="axes_1">
   <g id="patch_2">
    <path d="M 81 567 
L 583.2 567 
L 583.2 77.76 
L 81 77.76 
z
" style="fill: #ffffff"/>
   </g>
   <g id="matplotlib.axis_1">
    <g id="xtick_1">
     <g id="line2d_1">
      <path d="M -1 274.110208 
L 112.362846 77.76 
" clip-path="url(#p4eedd60bdb)" style="fill: none; stroke: #b0b0b0; stroke-width: 0.8; stroke-linecap: square"/>
     </g>
    </g>
    <g id="xtick_2">
     <g id="line2d_2">
      <path d="M -1 361.0938 
L 162.582846 77.76 
" clip-path="url(#p4eedd60bdb)" style="fill: none; stroke: #b0b0b0; stroke-width: 0.8; stroke-linecap: square"/>
     </g>
    </g>
    <g id="xtick_3">
     <g id="line2d_3">
      <path d="M -1 448.077392 
L 212.802846 77.76 
" clip-path="url(#p4eedd60bdb)" style="fill: none; stroke: #b0b0b0; stroke-width: 0.8; stroke-linecap: square"/>
     </g>
    </g>
    <g id="xtick_4">
     <g id="line2d_4">
      <path d="M -1 535.060983 
L 263.022846 77.76 
" clip-path="url(#p4eedd60bdb)" style="fill: none; stroke: #b0b0b0; stroke-width: 0.8; stroke-linecap: square"/>
     </g>
    </g>
    <g id="xtick_5">
     <g id="line2d_5">
      <path d="M 30.78 567 
L 313.242846 77.76 
" clip-path="url(#p4eedd60bdb)" style="fill: none; stroke: #b0b0b0; stroke-width: 0.8; stroke-linecap: square"/>
     </g>
    </g>
    <g id="xtick_6">
     <g id="line2d_6">
      <path d="M 81 567 
L 363.462846 77.76 
" clip-path="url(#p4eedd60bdb)" style="fill: none; stroke: #b0b0b0; stroke-width: 0.8; stroke-linecap: square"/>
     </g>
     <g id="line2d_7">
      <defs>
       <path id="m3d1206400f" d="M 0 0 
L 0 3.5 
" style="stroke: #000000; stroke-width: 0.8"/>
      </defs>
      <g>
       <use xlink:href="#m3d1206400f" x="81" y="567" style="stroke: #000000; stroke-width: 0.8"/>
      </g>
     </g>
     <g id="text_1">
      <!-- −50 -->
      <g transform="translate(70.447656 581.598438)scale(0.1 -0.1)">
       <defs>
        <path id="DejaVuSans-2212" d="M 678 2272 
L 4684 2272 
L 4684 1741 
L 678 1741 
L 678 2272 
z
" transform="scale(0.015625)"/>
        <path id="DejaVuSans-35" d="M 691 4666 
L 3169 4666 
L 3169 4134 
L 1269 4134 
L 1269 2991 
Q 1406 3038 1543 3061 
Q 1681 3084 1819 3084 
Q 2600 3084 3056 2656 
Q 3513 2228 3513 1497 
Q 3513 744 3044 326 
Q 2575 -91 1722 -91 
Q 1428 -91 1123 -41 
Q 819 9 494 109 
L 494 744 
Q 775 591 1075 516 
Q 1375 441 1709 441 
Q 2250 441 2565 725 
Q 2881 1009 2881 1497 
Q 2881 1984 2565 2268 
Q 2250 2553 1709 2553 
Q 1456 2553 1204 2497 
Q 953 2441 691 2322 
L 691 4666 
z
" transform="scale(0.015625)"/>
        <path id="DejaVuSans-30" d="M 2034 4250 
Q 1547 4250 1301 3770 
Q 1056 3291 1056 2328 
Q 1056 1369 1301 889 
Q 1547 409 2034 409 
Q 2525 409 2770 889 
Q 3016 1369 3016 2328 
Q 3016 3291 2770 3770 
Q 2525 4250 2034 4250 
z
M 2034 4750 
Q 2819 4750 3233 4129 
Q 3647 3509 3647 2328 
Q 3647 1150 3233 529 
Q 2819 -91 2034 -91 
Q 1250 -91 836 529 
Q 422 1150 422 2328 
Q 422 3509 836 4129 
Q 1250 4750 2034 4750 
z
" transform="scale(0.015625)"/>
       </defs>
       <use xlink:href="#DejaVuSans-2212"/>
       <use xlink:href="#DejaVuSans-35" x="83.789062"/>
       <use xlink:href="#DejaVuSans-30" x="147.412109"/>
      </g>
     </g>
    </g>
    <g id="xtick_7">
     <g id="line2d_8">
      <path d="M 131.22 567 
L 413.682846 77.76 
" clip-path="url(#p4eedd60bdb)" style="fill: none; stroke: #b0b0b0; stroke-width: 0.8; stroke-linecap: square"/>
     </g>
     <g id="line2d_9">
      <g>
       <use xlink:href="#m3d1206400f" x="131.22" y="567" style="stroke: #000000; stroke-width: 0.8"/>
      </g>
     </g>
     <g id="text_2">
      <!-- −40 -->
      <g transform="translate(120.667656 581.598438)scale(0.1 -0.1)">
       <defs>
        <path id="DejaVuSans-34" d="M 2419 4116 
L 825 1625 
L 2419 1625 
L 2419 4116 
z
M 2253 4666 
L 3047 4666 
L 3047 1625 
L 3713 1625 
L 3713 1100 
L 3047 1100 
L 3047 0 
L 2419 0 
L 2419 1100 
L 313 1100 
L 313 1709 
L 2253 4666 
z
" transform="scale(0.015625)"/>
       </defs>
       <use xlink:href="#DejaVuSans-2212"/>
       <use xlink:href="#DejaVuSans-34" x="83.789062"/>
       <use xlink:href="#DejaVuSans-30" x="147.412109"/>
      </g>
     </g>
    </g>
    <g id="xtick_8">
     <g id="line2d_10">
      <path d="M 181.44 567 
L 463.902846 77.76 
" clip-path="url(#p4eedd60bdb)" style="fill: none; stroke: #b0b0b0; stroke-width: 0.8; stroke-linecap: square"/>
     </g>
     <g id="line2d_11">
      <g>
       <use xlink:href="#m3d1206400f" x="181.44" y="567" style="stroke: #000000; stroke-width: 0.8"/>
      </g>
     </g>
     <g id="text_3">
      <!-- −30 -->
      <g transform="translate(170.887656 581.598438)scale(0.1 -0.1)">
       <defs>
        <path id="DejaVuSans-33" d="M 2597 2516 
Q 3050 2419 3304 2112 
Q 3559 1806 3559 1356 
Q 3559 666 3084 287 
Q 2609 -91 1734 -91 
Q 1441 -91 1130 -33 
Q 819 25 488 141 
L 488 750 
Q 750 597 1062 519 
Q 1375 441 1716 441 
Q 2309 441 2620 675 
Q 2931 909 2931 1356 
Q 2931 1769 2642 2001 
Q 2353 2234 1838 2234 
L 1294 2234 
L 1294 2753 
L 1863 2753 
Q 2328 2753 2575 2939 
Q 2822 3125 2822 3475 
Q 2822 3834 2567 4026 
Q 2313 4219 1838 4219 
Q 1578 4219 1281 4162 
Q 984 4106 628 3988 
L 628 4550 
Q 988 4650 1302 4700 
Q 1616 4750 1894 4750 
Q 2613 4750 3031 4423 
Q 3450 4097 3450 3541 
Q 3450 3153 3228 2886 
Q 3006 2619 2597 2516 
z
" transform="scale(0.015625)"/>
       </defs>
       <use xlink:href="#DejaVuSans-2212"/>
       <use xlink:href="#DejaVuSans-33" x="83.789062"/>
       <use xlink:href="#DejaVuSans-30" x="147.412109"/>
      </g>
     </g>
    </g>
    <g id="xtick_9">
     <g id="line2d_12">
      <path d="M 231.66 567 
L 514.122846 77.76 
" clip-path="url(#p4eedd60bdb)" style="fill: none; stroke: #b0b0b0; stroke-width: 0.8; stroke-linecap: square"/>
     </g>
     <g id="line2d_13">
      <g>
       <use xlink:href="#m3d1206400f" x="231.66" y="567" style="stroke: #000000; stroke-width: 0.8"/>
      </g>
     </g>
     <g id="text_4">
      <!-- −20 -->
      <g transform="translate(221.107656 581.598438)scale(0.1 -0.1)">
       <defs>
        <path id="DejaVuSans-32" d="M 1228 531 
L 3431 531 
L 3431 0 
L 469 0 
L 469 531 
Q 828 903 1448 1529 
Q 2069 2156 2228 2338 
Q 2531 2678 2651 2914 
Q 2772 3150 2772 3378 
Q 2772 3750 2511 3984 
Q 2250 4219 1831 4219 
Q 1534 4219 1204 4116 
Q 875 4013 500 3803 
L 500 4441 
Q 881 4594 1212 4672 
Q 1544 4750 1819 4750 
Q 2544 4750 2975 4387 
Q 3406 4025 3406 3419 
Q 3406 3131 3298 2873 
Q 3191 2616 2906 2266 
Q 2828 2175 2409 1742 
Q 1991 1309 1228 531 
z
" transform="scale(0.015625)"/>
       </defs>
       <use xlink:href="#DejaVuSans-2212"/>
       <use xlink:href="#DejaVuSans-32" x="83.789062"/>
       <use xlink:href="#DejaVuSans-30" x="147.412109"/>
      </g>
     </g>
    </g>
    <g id="xtick_10">
     <g id="line2d_14">
      <path d="M 281.88 567 
L 564.342846 77.76 
" clip-path="url(#p4eedd60bdb)" style="fill: none; stroke: #b0b0b0; stroke-width: 0.8; stroke-linecap: square"/>
     </g>
     <g id="line2d_15">
      <g>
       <use xlink:href="#m3d1206400f" x="281.88" y="567" style="stroke: #000000; stroke-width: 0.8"/>
      </g>
     </g>
     <g id="text_5">
      <!-- −10 -->
      <g transform="translate(271.327656 581.598438)scale(0.1 -0.1)">
       <defs>
        <path id="DejaVuSans-31" d="M 794 531 
L 1825 531 
L 1825 4091 
L 703 3866 
L 703 4441 
L 1819 4666 
L 2450 4666 
L 2450 531 
L 3481 531 
L 3481 0 
L 794 0 
L 794 531 
z
" transform="scale(0.015625)"/>
       </defs>
       <use xlink:href="#DejaVuSans-2212"/>
       <use xlink:href="#DejaVuSans-31" x="83.789062"/>
       <use xlink:href="#DejaVuSans-30" x="147.412109"/>
      </g>
     </g>
    </g>
    <g id="xtick_11">
     <g id="line2d_16">
      <path d="M 332.1 567 
L 614.562846 77.76 
" clip-path="url(#p4eedd60bdb)" style="fill: none; stroke: #b0b0b0; stroke-width: 0.8; stroke-linecap: square"/>
     </g>
     <g id="line2d_17">
      <g>
       <use xlink:href="#m3d1206400f" x="332.1" y="567" style="stroke: #000000; stroke-width: 0.8"/>
      </g>
     </g>
     <g id="text_6">
      <!-- 0 -->
      <g transform="translate(328.91875 581.598438)scale(0.1 -0.1)">
       <use xlink:href="#DejaVuSans-30"/>
      </g>
     </g>
    </g>
    <g id="xtick_12">
     <g id="line2d_18">
      <path d="M 382.32 567 
L 649 105.096691 
" clip-path="url(#p4eedd60bdb)" style="fill: none; stroke: #b0b0b0; stroke-width: 0.8; stroke-linecap: square"/>
     </g>
     <g id="line2d_19">
      <g>
       <use xlink:href="#m3d1206400f" x="382.32" y="567" style="stroke: #000000; stroke-width: 0.8"/>
      </g>
     </g>
     <g id="text_7">
      <!-- 10 -->
      <g transform="translate(375.9575 581.598438)scale(0.1 -0.1)">
       <use xlink:href="#DejaVuSans-31"/>
       <use xlink:href="#DejaVuSans-30" x="63.623047"/>
      </g>
     </g>
    </g>
    <g id="xtick_13">
     <g id="line2d_20">
      <path d="M 432.54 567 
L 649 192.080282 
" clip-path="url(#p4eedd60bdb)" style="fill: none; stroke: #b0b0b0; stroke-width: 0.8; stroke-linecap: square"/>
     </g>
     <g id="line2d_21">
      <g>
       <use xlink:href="#m3d1206400f" x="432.54" y="567" style="stroke: #000000; stroke-width: 0.8"/>
      </g>
     </g>
     <g id="text_8">
      <!-- 20 -->
      <g transform="translate(426.1775 581.598438)scale(0.1 -0.1)">
       <use xlink:href="#DejaVuSans-32"/>
       <use xlink:href="#DejaVuSans-30" x="63.623047"/>
      </g>
     </g>
    </g>
    <g id="xtick_14">
     <g id="line2d_22">
      <path d="M 482.76 567 
L 649 279.063874 
" clip-path="url(#p4eedd60bdb)" style="fill: none; stroke: #b0b0b0; stroke-width: 0.8; stroke-linecap: square"/>
     </g>
     <g id="line2d_23">
      <g>
       <use xlink:href="#m3d1206400f" x="482.76" y="567" style="stroke: #000000; stroke-width: 0.8"/>
      </g>
     </g>
     <g id="text_9">
      <!-- 30 -->
      <g transform="translate(476.3975 581.598438)scale(0.1 -0.1)">
       <use xlink:href="#DejaVuSans-33"/>
       <use xlink:href="#DejaVuSans-30" x="63.623047"/>
      </g>
     </g>
    </g>
    <g id="xtick_15">
     <g id="line2d_24">
      <path d="M 532.98 567 
L 649 366.047465 
" clip-path="url(#p4eedd60bdb)" style="fill: none; stroke: #b0b0b0; stroke-width: 0.8; stroke-linecap: square"/>
     </g>
     <g id="line2d_25">
      <g>
       <use xlink:href="#m3d1206400f" x="532.98" y="567" style="stroke: #000000; stroke-width: 0.8"/>
      </g>
     </g>
     <g id="text_10">
      <!-- 40 -->
      <g transform="translate(526.6175 581.598438)scale(0.1 -0.1)">
       <use xlink:href="#DejaVuSans-34"/>
       <use xlink:href="#DejaVuSans-30" x="63.623047"/>
      </g>
     </g>
    </g>
    <g id="xtick_16">
     <g id="line2d_26">
      <path d="M 583.2 567 
L 649 453.031057 
" clip-path="url(#p4eedd60bdb)" style="fill: none; stroke: #b0b0b0; stroke-width: 0.8; stroke-linecap: square"/>
     </g>
     <g id="line2d_27">
      <g>
       <use xlink:href="#m3d1206400f" x="583.2" y="567" style="stroke: #000000; stroke-width: 0.8"/>
      </g>
     </g>
     <g id="text_11">
      <!-- 50 -->
      <g transform="translate(576.8375 581.598438)scale(0.1 -0.1)">
       <use xlink:href="#DejaVuSans-35"/>
       <use xlink:href="#DejaVuSans-30" x="63.623047"/>
      </g>
     </g>
    </g>
    <g id="text_12">
     <!-- degree_Celsius -->
     <g transform="translate(294.354688 595.276562)scale(0.1 -0.1)">
      <defs>
       <path id="DejaVuSans-64" d="M 2906 2969 
L 2906 4863 
L 3481 4863 
L 3481 0 
L 2906 0 
L 2906 525 
Q 2725 213 2448 61 
Q 2172 -91 1784 -91 
Q 1150 -91 751 415 
Q 353 922 353 1747 
Q 353 2572 751 3078 
Q 1150 3584 1784 3584 
Q 2172 3584 2448 3432 
Q 2725 3281 2906 2969 
z
M 947 1747 
Q 947 1113 1208 752 
Q 1469 391 1925 391 
Q 2381 391 2643 752 
Q 2906 1113 2906 1747 
Q 2906 2381 2643 2742 
Q 2381 3103 1925 3103 
Q 1469 3103 1208 2742 
Q 947 2381 947 1747 
z
" transform="scale(0.015625)"/>
       <path id="DejaVuSans-65" d="M 3597 1894 
L 3597 1613 
L 953 1613 
Q 991 1019 1311 708 
Q 1631 397 2203 397 
Q 2534 397 2845 478 
Q 3156 559 3463 722 
L 3463 178 
Q 3153 47 2828 -22 
Q 2503 -91 2169 -91 
Q 1331 -91 842 396 
Q 353 884 353 1716 
Q 353 2575 817 3079 
Q 1281 3584 2069 3584 
Q 2775 3584 3186 3129 
Q 3597 2675 3597 1894 
z
M 3022 2063 
Q 3016 2534 2758 2815 
Q 2500 3097 2075 3097 
Q 1594 3097 1305 2825 
Q 1016 2553 972 2059 
L 3022 2063 
z
" transform="scale(0.015625)"/>
       <path id="DejaVuSans-67" d="M 2906 1791 
Q 2906 2416 2648 2759 
Q 2391 3103 1925 3103 
Q 1463 3103 1205 2759 
Q 947 2416 947 1791 
Q 947 1169 1205 825 
Q 1463 481 1925 481 
Q 2391 481 2648 825 
Q 2906 1169 2906 1791 
z
M 3481 434 
Q 3481 -459 3084 -895 
Q 2688 -1331 1869 -1331 
Q 1566 -1331 1297 -1286 
Q 1028 -1241 775 -1147 
L 775 -588 
Q 1028 -725 1275 -790 
Q 1522 -856 1778 -856 
Q 2344 -856 2625 -561 
Q 2906 -266 2906 331 
L 2906 616 
Q 2728 306 2450 153 
Q 2172 0 1784 0 
Q 1141 0 747 490 
Q 353 981 353 1791 
Q 353 2603 747 3093 
Q 1141 3584 1784 3584 
Q 2172 3584 2450 3431 
Q 2728 3278 2906 2969 
L 2906 3500 
L 3481 3500 
L 3481 434 
z
" transform="scale(0.015625)"/>
       <path id="DejaVuSans-72" d="M 2631 2963 
Q 2534 3019 2420 3045 
Q 2306 3072 2169 3072 
Q 1681 3072 1420 2755 
Q 1159 2438 1159 1844 
L 1159 0 
L 581 0 
L 581 3500 
L 1159 3500 
L 1159 2956 
Q 1341 3275 1631 3429 
Q 1922 3584 2338 3584 
Q 2397 3584 2469 3576 
Q 2541 3569 2628 3553 
L 2631 2963 
z
" transform="scale(0.015625)"/>
       <path id="DejaVuSans-5f" d="M 3263 -1063 
L 3263 -1509 
L -63 -1509 
L -63 -1063 
L 3263 -1063 
z
" transform="scale(0.015625)"/>
       <path id="DejaVuSans-43" d="M 4122 4306 
L 4122 3641 
Q 3803 3938 3442 4084 
Q 3081 4231 2675 4231 
Q 1875 4231 1450 3742 
Q 1025 3253 1025 2328 
Q 1025 1406 1450 917 
Q 1875 428 2675 428 
Q 3081 428 3442 575 
Q 3803 722 4122 1019 
L 4122 359 
Q 3791 134 3420 21 
Q 3050 -91 2638 -91 
Q 1578 -91 968 557 
Q 359 1206 359 2328 
Q 359 3453 968 4101 
Q 1578 4750 2638 4750 
Q 3056 4750 3426 4639 
Q 3797 4528 4122 4306 
z
" transform="scale(0.015625)"/>
       <path id="DejaVuSans-6c" d="M 603 4863 
L 1178 4863 
L 1178 0 
L 603 0 
L 603 4863 
z
" transform="scale(0.015625)"/>
       <path id="DejaVuSans-73" d="M 2834 3397 
L 2834 2853 
Q 2591 2978 2328 3040 
Q 2066 3103 1784 3103 
Q 1356 3103 1142 2972 
Q 928 2841 928 2578 
Q 928 2378 1081 2264 
Q 1234 2150 1697 2047 
L 1894 2003 
Q 2506 1872 2764 1633 
Q 3022 1394 3022 966 
Q 3022 478 2636 193 
Q 2250 -91 1575 -91 
Q 1294 -91 989 -36 
Q 684 19 347 128 
L 347 722 
Q 666 556 975 473 
Q 1284 391 1588 391 
Q 1994 391 2212 530 
Q 2431 669 2431 922 
Q 2431 1156 2273 1281 
Q 2116 1406 1581 1522 
L 1381 1569 
Q 847 1681 609 1914 
Q 372 2147 372 2553 
Q 372 3047 722 3315 
Q 1072 3584 1716 3584 
Q 2034 3584 2315 3537 
Q 2597 3491 2834 3397 
z
" transform="scale(0.015625)"/>
       <path id="DejaVuSans-69" d="M 603 3500 
L 1178 3500 
L 1178 0 
L 603 0 
L 603 3500 
z
M 603 4863 
L 1178 4863 
L 1178 4134 
L 603 4134 
L 603 4863 
z
" transform="scale(0.015625)"/>
       <path id="DejaVuSans-75" d="M 544 1381 
L 544 3500 
L 1119 3500 
L 1119 1403 
Q 1119 906 1312 657 
Q 1506 409 1894 409 
Q 2359 409 2629 706 
Q 2900 1003 2900 1516 
L 2900 3500 
L 3475 3500 
L 3475 0 
L 2900 0 
L 2900 538 
Q 2691 219 2414 64 
Q 2138 -91 1772 -91 
Q 1169 -91 856 284 
Q 544 659 544 1381 
z
M 1991 3584 
L 1991 3584 
z
" transform="scale(0.015625)"/>
      </defs>
      <use xlink:href="#DejaVuSans-64"/>
      <use xlink:href="#DejaVuSans-65" x="63.476562"/>
      <use xlink:href="#DejaVuSans-67" x="125"/>
      <use xlink:href="#DejaVuSans-72" x="188.476562"/>
      <use xlink:href="#DejaVuSans-65" x="227.339844"/>
      <use xlink:href="#DejaVuSans-65" x="288.863281"/>
      <use xlink:href="#DejaVuSans-5f" x="350.386719"/>
      <use xlink:href="#DejaVuSans-43" x="400.386719"/>
      <use xlink:href="#DejaVuSans-65" x="470.210938"/>
      <use xlink:href="#DejaVuSans-6c" x="531.734375"/>
      <use xlink:href="#DejaVuSans-73" x="559.517578"/>
      <use xlink:href="#DejaVuSans-69" x="611.617188"/>
      <use xlink:href="#DejaVuSans-75" x="639.400391"/>
      <use xlink:href="#DejaVuSans-73" x="702.779297"/>
     </g>
    </g>
   </g>
   <g id="matplotlib.axis_2">
    <g id="ytick_1">
     <g id="line2d_28">
      <path d="M 81 224.660415 
L 583.2 224.660415 
" clip-path="url(#p4eedd60bdb)" style="fill: none; stroke: #b0b0b0; stroke-width: 0.8; stroke-linecap: square"/>
     </g>
     <g id="line2d_29">
      <defs>
       <path id="m790e8f4898" d="M 0 0 
L -3.5 0 
" style="stroke: #000000; stroke-width: 0.8"/>
      </defs>
      <g>
       <use xlink:href="#m790e8f4898" x="81" y="224.660415" style="stroke: #000000; stroke-width: 0.8"/>
      </g>
     </g>
     <g id="text_13">
      <!-- 200 -->
      <g transform="translate(54.9125 228.459633)scale(0.1 -0.1)">
       <use xlink:href="#DejaVuSans-32"/>
       <use xlink:href="#DejaVuSans-30" x="63.623047"/>
       <use xlink:href="#DejaVuSans-30" x="127.246094"/>
      </g>
     </g>
    </g>
    <g id="ytick_2">
     <g id="line2d_30">
      <path d="M 81 310.905902 
L 583.2 310.905902 
" clip-path="url(#p4eedd60bdb)" style="fill: none; stroke: #b0b0b0; stroke-width: 0.8; stroke-linecap: square"/>
     </g>
     <g id="line2d_31">
      <g>
       <use xlink:href="#m790e8f4898" x="81" y="310.905902" style="stroke: #000000; stroke-width: 0.8"/>
      </g>
     </g>
     <g id="text_14">
      <!-- 300 -->
      <g transform="translate(54.9125 314.705121)scale(0.1 -0.1)">
       <use xlink:href="#DejaVuSans-33"/>
       <use xlink:href="#DejaVuSans-30" x="63.623047"/>
       <use xlink:href="#DejaVuSans-30" x="127.246094"/>
      </g>
     </g>
    </g>
    <g id="ytick_3">
     <g id="line2d_32">
      <path d="M 81 372.098049 
L 583.2 372.098049 
" clip-path="url(#p4eedd60bdb)" style="fill: none; stroke: #b0b0b0; stroke-width: 0.8; stroke-linecap: square"/>
     </g>
     <g id="line2d_33">
      <g>
       <use xlink:href="#m790e8f4898" x="81" y="372.098049" style="stroke: #000000; stroke-width: 0.8"/>
      </g>
     </g>
     <g id="text_15">
      <!-- 400 -->
      <g transform="translate(54.9125 375.897268)scale(0.1 -0.1)">
       <use xlink:href="#DejaVuSans-34"/>
       <use xlink:href="#DejaVuSans-30" x="63.623047"/>
       <use xlink:href="#DejaVuSans-30" x="127.246094"/>
      </g>
     </g>
    </g>
    <g id="ytick_4">
     <g id="line2d_34">
      <path d="M 81 419.562366 
L 583.2 419.562366 
" clip-path="url(#p4eedd60bdb)" style="fill: none; stroke: #b0b0b0; stroke-width: 0.8; stroke-linecap: square"/>
     </g>
     <g id="line2d_35">
      <g>
       <use xlink:href="#m790e8f4898" x="81" y="419.562366" style="stroke: #000000; stroke-width: 0.8"/>
      </g>
     </g>
     <g id="text_16">
      <!-- 500 -->
      <g transform="translate(54.9125 423.361584)scale(0.1 -0.1)">
       <use xlink:href="#DejaVuSans-35"/>
       <use xlink:href="#DejaVuSans-30" x="63.623047"/>
       <use xlink:href="#DejaVuSans-30" x="127.246094"/>
      </g>
     </g>
    </g>
    <g id="ytick_5">
     <g id="line2d_36">
      <path d="M 81 458.343536 
L 583.2 458.343536 
" clip-path="url(#p4eedd60bdb)" style="fill: none; stroke: #b0b0b0; stroke-width: 0.8; stroke-linecap: square"/>
     </g>
     <g id="line2d_37">
      <g>
       <use xlink:href="#m790e8f4898" x="81" y="458.343536" style="stroke: #000000; stroke-width: 0.8"/>
      </g>
     </g>
     <g id="text_17">
      <!-- 600 -->
      <g transform="translate(54.9125 462.142755)scale(0.1 -0.1)">
       <defs>
        <path id="DejaVuSans-36" d="M 2113 2584 
Q 1688 2584 1439 2293 
Q 1191 2003 1191 1497 
Q 1191 994 1439 701 
Q 1688 409 2113 409 
Q 2538 409 2786 701 
Q 3034 994 3034 1497 
Q 3034 2003 2786 2293 
Q 2538 2584 2113 2584 
z
M 3366 4563 
L 3366 3988 
Q 3128 4100 2886 4159 
Q 2644 4219 2406 4219 
Q 1781 4219 1451 3797 
Q 1122 3375 1075 2522 
Q 1259 2794 1537 2939 
Q 1816 3084 2150 3084 
Q 2853 3084 3261 2657 
Q 3669 2231 3669 1497 
Q 3669 778 3244 343 
Q 2819 -91 2113 -91 
Q 1303 -91 875 529 
Q 447 1150 447 2328 
Q 447 3434 972 4092 
Q 1497 4750 2381 4750 
Q 2619 4750 2861 4703 
Q 3103 4656 3366 4563 
z
" transform="scale(0.015625)"/>
       </defs>
       <use xlink:href="#DejaVuSans-36"/>
       <use xlink:href="#DejaVuSans-30" x="63.623047"/>
       <use xlink:href="#DejaVuSans-30" x="127.246094"/>
      </g>
     </g>
    </g>
    <g id="ytick_6">
     <g id="line2d_38">
      <path d="M 81 491.132549 
L 583.2 491.132549 
" clip-path="url(#p4eedd60bdb)" style="fill: none; stroke: #b0b0b0; stroke-width: 0.8; stroke-linecap: square"/>
     </g>
     <g id="line2d_39">
      <g>
       <use xlink:href="#m790e8f4898" x="81" y="491.132549" style="stroke: #000000; stroke-width: 0.8"/>
      </g>
     </g>
     <g id="text_18">
      <!-- 700 -->
      <g transform="translate(54.9125 494.931767)scale(0.1 -0.1)">
       <defs>
        <path id="DejaVuSans-37" d="M 525 4666 
L 3525 4666 
L 3525 4397 
L 1831 0 
L 1172 0 
L 2766 4134 
L 525 4134 
L 525 4666 
z
" transform="scale(0.015625)"/>
       </defs>
       <use xlink:href="#DejaVuSans-37"/>
       <use xlink:href="#DejaVuSans-30" x="63.623047"/>
       <use xlink:href="#DejaVuSans-30" x="127.246094"/>
      </g>
     </g>
    </g>
    <g id="ytick_7">
     <g id="line2d_40">
      <path d="M 81 519.535683 
L 583.2 519.535683 
" clip-path="url(#p4eedd60bdb)" style="fill: none; stroke: #b0b0b0; stroke-width: 0.8; stroke-linecap: square"/>
     </g>
     <g id="line2d_41">
      <g>
       <use xlink:href="#m790e8f4898" x="81" y="519.535683" style="stroke: #000000; stroke-width: 0.8"/>
      </g>
     </g>
     <g id="text_19">
      <!-- 800 -->
      <g transform="translate(54.9125 523.334902)scale(0.1 -0.1)">
       <defs>
        <path id="DejaVuSans-38" d="M 2034 2216 
Q 1584 2216 1326 1975 
Q 1069 1734 1069 1313 
Q 1069 891 1326 650 
Q 1584 409 2034 409 
Q 2484 409 2743 651 
Q 3003 894 3003 1313 
Q 3003 1734 2745 1975 
Q 2488 2216 2034 2216 
z
M 1403 2484 
Q 997 2584 770 2862 
Q 544 3141 544 3541 
Q 544 4100 942 4425 
Q 1341 4750 2034 4750 
Q 2731 4750 3128 4425 
Q 3525 4100 3525 3541 
Q 3525 3141 3298 2862 
Q 3072 2584 2669 2484 
Q 3125 2378 3379 2068 
Q 3634 1759 3634 1313 
Q 3634 634 3220 271 
Q 2806 -91 2034 -91 
Q 1263 -91 848 271 
Q 434 634 434 1313 
Q 434 1759 690 2068 
Q 947 2378 1403 2484 
z
M 1172 3481 
Q 1172 3119 1398 2916 
Q 1625 2713 2034 2713 
Q 2441 2713 2670 2916 
Q 2900 3119 2900 3481 
Q 2900 3844 2670 4047 
Q 2441 4250 2034 4250 
Q 1625 4250 1398 4047 
Q 1172 3844 1172 3481 
z
" transform="scale(0.015625)"/>
       </defs>
       <use xlink:href="#DejaVuSans-38"/>
       <use xlink:href="#DejaVuSans-30" x="63.623047"/>
       <use xlink:href="#DejaVuSans-30" x="127.246094"/>
      </g>
     </g>
    </g>
    <g id="ytick_8">
     <g id="line2d_42">
      <path d="M 81 544.589023 
L 583.2 544.589023 
" clip-path="url(#p4eedd60bdb)" style="fill: none; stroke: #b0b0b0; stroke-width: 0.8; stroke-linecap: square"/>
     </g>
     <g id="line2d_43">
      <g>
       <use xlink:href="#m790e8f4898" x="81" y="544.589023" style="stroke: #000000; stroke-width: 0.8"/>
      </g>
     </g>
     <g id="text_20">
      <!-- 900 -->
      <g transform="translate(54.9125 548.388242)scale(0.1 -0.1)">
       <defs>
        <path id="DejaVuSans-39" d="M 703 97 
L 703 672 
Q 941 559 1184 500 
Q 1428 441 1663 441 
Q 2288 441 2617 861 
Q 2947 1281 2994 2138 
Q 2813 1869 2534 1725 
Q 2256 1581 1919 1581 
Q 1219 1581 811 2004 
Q 403 2428 403 3163 
Q 403 3881 828 4315 
Q 1253 4750 1959 4750 
Q 2769 4750 3195 4129 
Q 3622 3509 3622 2328 
Q 3622 1225 3098 567 
Q 2575 -91 1691 -91 
Q 1453 -91 1209 -44 
Q 966 3 703 97 
z
M 1959 2075 
Q 2384 2075 2632 2365 
Q 2881 2656 2881 3163 
Q 2881 3666 2632 3958 
Q 2384 4250 1959 4250 
Q 1534 4250 1286 3958 
Q 1038 3666 1038 3163 
Q 1038 2656 1286 2365 
Q 1534 2075 1959 2075 
z
" transform="scale(0.015625)"/>
       </defs>
       <use xlink:href="#DejaVuSans-39"/>
       <use xlink:href="#DejaVuSans-30" x="63.623047"/>
       <use xlink:href="#DejaVuSans-30" x="127.246094"/>
      </g>
     </g>
    </g>
    <g id="ytick_9">
     <g id="line2d_44">
      <path d="M 81 567 
L 583.2 567 
" clip-path="url(#p4eedd60bdb)" style="fill: none; stroke: #b0b0b0; stroke-width: 0.8; stroke-linecap: square"/>
     </g>
     <g id="line2d_45">
      <g>
       <use xlink:href="#m790e8f4898" x="81" y="567" style="stroke: #000000; stroke-width: 0.8"/>
      </g>
     </g>
     <g id="text_21">
      <!-- 1000 -->
      <g transform="translate(48.55 570.799219)scale(0.1 -0.1)">
       <use xlink:href="#DejaVuSans-31"/>
       <use xlink:href="#DejaVuSans-30" x="63.623047"/>
       <use xlink:href="#DejaVuSans-30" x="127.246094"/>
       <use xlink:href="#DejaVuSans-30" x="190.869141"/>
      </g>
     </g>
    </g>
    <g id="text_22">
     <!-- hectopascal -->
     <g transform="translate(42.470312 352.439375)rotate(-90)scale(0.1 -0.1)">
      <defs>
       <path id="DejaVuSans-68" d="M 3513 2113 
L 3513 0 
L 2938 0 
L 2938 2094 
Q 2938 2591 2744 2837 
Q 2550 3084 2163 3084 
Q 1697 3084 1428 2787 
Q 1159 2491 1159 1978 
L 1159 0 
L 581 0 
L 581 4863 
L 1159 4863 
L 1159 2956 
Q 1366 3272 1645 3428 
Q 1925 3584 2291 3584 
Q 2894 3584 3203 3211 
Q 3513 2838 3513 2113 
z
" transform="scale(0.015625)"/>
       <path id="DejaVuSans-63" d="M 3122 3366 
L 3122 2828 
Q 2878 2963 2633 3030 
Q 2388 3097 2138 3097 
Q 1578 3097 1268 2742 
Q 959 2388 959 1747 
Q 959 1106 1268 751 
Q 1578 397 2138 397 
Q 2388 397 2633 464 
Q 2878 531 3122 666 
L 3122 134 
Q 2881 22 2623 -34 
Q 2366 -91 2075 -91 
Q 1284 -91 818 406 
Q 353 903 353 1747 
Q 353 2603 823 3093 
Q 1294 3584 2113 3584 
Q 2378 3584 2631 3529 
Q 2884 3475 3122 3366 
z
" transform="scale(0.015625)"/>
       <path id="DejaVuSans-74" d="M 1172 4494 
L 1172 3500 
L 2356 3500 
L 2356 3053 
L 1172 3053 
L 1172 1153 
Q 1172 725 1289 603 
Q 1406 481 1766 481 
L 2356 481 
L 2356 0 
L 1766 0 
Q 1100 0 847 248 
Q 594 497 594 1153 
L 594 3053 
L 172 3053 
L 172 3500 
L 594 3500 
L 594 4494 
L 1172 4494 
z
" transform="scale(0.015625)"/>
       <path id="DejaVuSans-6f" d="M 1959 3097 
Q 1497 3097 1228 2736 
Q 959 2375 959 1747 
Q 959 1119 1226 758 
Q 1494 397 1959 397 
Q 2419 397 2687 759 
Q 2956 1122 2956 1747 
Q 2956 2369 2687 2733 
Q 2419 3097 1959 3097 
z
M 1959 3584 
Q 2709 3584 3137 3096 
Q 3566 2609 3566 1747 
Q 3566 888 3137 398 
Q 2709 -91 1959 -91 
Q 1206 -91 779 398 
Q 353 888 353 1747 
Q 353 2609 779 3096 
Q 1206 3584 1959 3584 
z
" transform="scale(0.015625)"/>
       <path id="DejaVuSans-70" d="M 1159 525 
L 1159 -1331 
L 581 -1331 
L 581 3500 
L 1159 3500 
L 1159 2969 
Q 1341 3281 1617 3432 
Q 1894 3584 2278 3584 
Q 2916 3584 3314 3078 
Q 3713 2572 3713 1747 
Q 3713 922 3314 415 
Q 2916 -91 2278 -91 
Q 1894 -91 1617 61 
Q 1341 213 1159 525 
z
M 3116 1747 
Q 3116 2381 2855 2742 
Q 2594 3103 2138 3103 
Q 1681 3103 1420 2742 
Q 1159 2381 1159 1747 
Q 1159 1113 1420 752 
Q 1681 391 2138 391 
Q 2594 391 2855 752 
Q 3116 1113 3116 1747 
z
" transform="scale(0.015625)"/>
       <path id="DejaVuSans-61" d="M 2194 1759 
Q 1497 1759 1228 1600 
Q 959 1441 959 1056 
Q 959 750 1161 570 
Q 1363 391 1709 391 
Q 2188 391 2477 730 
Q 2766 1069 2766 1631 
L 2766 1759 
L 2194 1759 
z
M 3341 1997 
L 3341 0 
L 2766 0 
L 2766 531 
Q 2569 213 2275 61 
Q 1981 -91 1556 -91 
Q 1019 -91 701 211 
Q 384 513 384 1019 
Q 384 1609 779 1909 
Q 1175 2209 1959 2209 
L 2766 2209 
L 2766 2266 
Q 2766 2663 2505 2880 
Q 2244 3097 1772 3097 
Q 1472 3097 1187 3025 
Q 903 2953 641 2809 
L 641 3341 
Q 956 3463 1253 3523 
Q 1550 3584 1831 3584 
Q 2591 3584 2966 3190 
Q 3341 2797 3341 1997 
z
" transform="scale(0.015625)"/>
      </defs>
      <use xlink:href="#DejaVuSans-68"/>
      <use xlink:href="#DejaVuSans-65" x="63.378906"/>
      <use xlink:href="#DejaVuSans-63" x="124.902344"/>
      <use xlink:href="#DejaVuSans-74" x="179.882812"/>
      <use xlink:href="#DejaVuSans-6f" x="219.091797"/>
      <use xlink:href="#DejaVuSans-70" x="280.273438"/>
      <use xlink:href="#DejaVuSans-61" x="343.75"/>
      <use xlink:href="#DejaVuSans-73" x="405.029297"/>
      <use xlink:href="#DejaVuSans-63" x="457.128906"/>
      <use xlink:href="#DejaVuSans-61" x="512.109375"/>
      <use xlink:href="#DejaVuSans-6c" x="573.388672"/>
     </g>
    </g>
   </g>
   <g id="LineCollection_1">
    <path d="M 81 567 
L 77.357636 563.05792 
L 73.678638 559.0414 
L 69.962039 554.947575 
L 66.206833 550.773411 
L 62.411968 546.51569 
L 58.576346 542.171 
L 54.698819 537.735713 
L 50.778186 533.20597 
L 46.813188 528.57766 
L 42.802509 523.846399 
L 38.744765 519.007501 
L 34.638506 514.055955 
L 30.482208 508.986391 
L 26.27427 503.793046 
L 22.013005 498.469723 
L 17.696637 493.009748 
L 13.323294 487.405921 
L 8.891 481.650457 
L 4.397667 475.734918 
L -0.158914 469.650147 
L -1 468.510304 
" clip-path="url(#p4eedd60bdb)" style="fill: none; stroke-dasharray: 5.55,2.4; stroke-dashoffset: 0; stroke: #ff0000; stroke-opacity: 0.5; stroke-width: 1.5"/>
    <path d="M 131.22 567 
L 127.312419 563.05792 
L 123.364635 559.0414 
L 119.375566 554.947575 
L 115.344081 550.773411 
L 111.268999 546.51569 
L 107.149083 542.171 
L 102.983039 537.735713 
L 98.769514 533.20597 
L 94.507086 528.57766 
L 90.194266 523.846399 
L 85.829487 519.007501 
L 81.411105 514.055955 
L 76.937388 508.986391 
L 72.406514 503.793046 
L 67.81656 498.469723 
L 63.165499 493.009748 
L 58.451187 487.405921 
L 53.671359 481.650457 
L 48.823615 475.734918 
L 43.905412 469.650147 
L 38.914049 463.386175 
L 33.846656 456.932125 
L 28.700181 450.276099 
L 23.471368 443.405046 
L 18.156745 436.304609 
L 12.7526 428.958941 
L 7.254962 421.350495 
L 1.659574 413.459771 
L -1 409.634624 
" clip-path="url(#p4eedd60bdb)" style="fill: none; stroke-dasharray: 5.55,2.4; stroke-dashoffset: 0; stroke: #ff0000; stroke-opacity: 0.5; stroke-width: 1.5"/>
    <path d="M 181.44 567 
L 177.267202 563.05792 
L 173.050633 559.0414 
L 168.789094 554.947575 
L 164.48133 550.773411 
L 160.12603 546.51569 
L 155.721819 542.171 
L 151.26726 537.735713 
L 146.760843 533.20597 
L 142.200985 528.57766 
L 137.586023 523.846399 
L 132.91421 519.007501 
L 128.183704 514.055955 
L 123.392568 508.986391 
L 118.538757 503.793046 
L 113.620115 498.469723 
L 108.63436 493.009748 
L 103.57908 487.405921 
L 98.451718 481.650457 
L 93.249564 475.734918 
L 87.969737 469.650147 
L 82.609175 463.386175 
L 77.164616 456.932125 
L 71.632581 450.276099 
L 66.009351 443.405046 
L 60.290951 436.304609 
L 54.473117 428.958941 
L 48.551273 421.350495 
L 42.520496 413.459771 
L 36.375481 405.265012 
L 30.110502 396.741849 
L 23.719363 387.862855 
L 17.19535 378.597022 
L 10.53117 368.9091 
L 3.718886 358.758791 
L -1 351.541318 
" clip-path="url(#p4eedd60bdb)" style="fill: none; stroke-dasharray: 5.55,2.4; stroke-dashoffset: 0; stroke: #ff0000; stroke-opacity: 0.5; stroke-width: 1.5"/>
    <path d="M 231.66 567 
L 227.221984 563.05792 
L 222.736631 559.0414 
L 218.202622 554.947575 
L 213.618579 550.773411 
L 208.983061 546.51569 
L 204.294556 542.171 
L 199.55148 537.735713 
L 194.752171 533.20597 
L 189.894883 528.57766 
L 184.977781 523.846399 
L 179.998932 519.007501 
L 174.956303 514.055955 
L 169.847747 508.986391 
L 164.671001 503.793046 
L 159.42367 498.469723 
L 154.103222 493.009748 
L 148.706973 487.405921 
L 143.232078 481.650457 
L 137.675513 475.734918 
L 132.034063 469.650147 
L 126.304302 463.386175 
L 120.482576 456.932125 
L 114.564981 450.276099 
L 108.547335 443.405046 
L 102.425158 436.304609 
L 96.193634 428.958941 
L 89.847584 421.350495 
L 83.381417 413.459771 
L 76.789096 405.265012 
L 70.064078 396.741849 
L 63.199264 387.862855 
L 56.186925 378.597022 
L 49.018632 368.9091 
L 41.685165 358.758791 
L 34.176413 348.099735 
L 26.481259 336.878231 
L 18.587448 325.031598 
L 10.481433 312.486057 
L 2.148208 299.153942 
L -1 293.933059 
" clip-path="url(#p4eedd60bdb)" style="fill: none; stroke-dasharray: 5.55,2.4; stroke-dashoffset: 0; stroke: #ff0000; stroke-opacity: 0.5; stroke-width: 1.5"/>
    <path d="M 281.88 567 
L 277.176767 563.05792 
L 272.422628 559.0414 
L 267.616149 554.947575 
L 262.755828 550.773411 
L 257.840092 546.51569 
L 252.867292 542.171 
L 247.8357 537.735713 
L 242.743499 533.20597 
L 237.588781 528.57766 
L 232.369538 523.846399 
L 227.083655 519.007501 
L 221.728902 514.055955 
L 216.302927 508.986391 
L 210.803245 503.793046 
L 205.227225 498.469723 
L 199.572083 493.009748 
L 193.834866 487.405921 
L 188.012437 481.650457 
L 182.101462 475.734918 
L 176.098388 469.650147 
L 169.999429 463.386175 
L 163.800536 456.932125 
L 157.497381 450.276099 
L 151.085319 443.405046 
L 144.559364 436.304609 
L 137.914152 428.958941 
L 131.143894 421.350495 
L 124.242338 413.459771 
L 117.20271 405.265012 
L 110.017655 396.741849 
L 102.679165 387.862855 
L 95.1785 378.597022 
L 87.506094 368.9091 
L 79.651444 358.758791 
L 71.602982 348.099735 
L 63.347927 336.878231 
L 54.87211 325.031598 
L 46.159767 312.486057 
L 37.1933 299.153942 
L 27.952996 284.929984 
L 18.416703 269.686256 
L 8.559465 253.265166 
L -1 236.59738 
" clip-path="url(#p4eedd60bdb)" style="fill: none; stroke-dasharray: 5.55,2.4; stroke-dashoffset: 0; stroke: #ff0000; stroke-opacity: 0.5; stroke-width: 1.5"/>
    <path d="M 332.1 567 
L 327.13155 563.05792 
L 322.108626 559.0414 
L 317.029677 554.947575 
L 311.893077 550.773411 
L 306.697123 546.51569 
L 301.440029 542.171 
L 296.11992 537.735713 
L 290.734828 533.20597 
L 285.28268 528.57766 
L 279.761295 523.846399 
L 274.168377 519.007501 
L 268.501501 514.055955 
L 262.758107 508.986391 
L 256.935488 503.793046 
L 251.03078 498.469723 
L 245.040945 493.009748 
L 238.962759 487.405921 
L 232.792796 481.650457 
L 226.52741 475.734918 
L 220.162714 469.650147 
L 213.694555 463.386175 
L 207.118496 456.932125 
L 200.42978 450.276099 
L 193.623302 443.405046 
L 186.693571 436.304609 
L 179.634669 428.958941 
L 172.440205 421.350495 
L 165.10326 413.459771 
L 157.616325 405.265012 
L 149.971231 396.741849 
L 142.159065 387.862855 
L 134.170075 378.597022 
L 125.993556 368.9091 
L 117.617723 358.758791 
L 109.02955 348.099735 
L 100.214595 336.878231 
L 91.156772 325.031598 
L 81.838102 312.486057 
L 72.238393 299.153942 
L 62.334873 284.929984 
L 52.101743 269.686256 
L 41.50964 253.265166 
L 30.525017 235.469504 
L 19.109427 216.047951 
L 7.218774 194.67326 
L -1 178.942117 
" clip-path="url(#p4eedd60bdb)" style="fill: none; stroke-dasharray: 5.55,2.4; stroke-dashoffset: 0; stroke: #ff0000; stroke-opacity: 0.5; stroke-width: 1.5"/>
    <path d="M 382.32 567 
L 377.086332 563.05792 
L 371.794624 559.0414 
L 366.443204 554.947575 
L 361.030325 550.773411 
L 355.554154 546.51569 
L 350.012765 542.171 
L 344.404141 537.735713 
L 338.726156 533.20597 
L 332.976578 528.57766 
L 327.153053 523.846399 
L 321.253099 519.007501 
L 315.2741 514.055955 
L 309.213287 508.986391 
L 303.067732 503.793046 
L 296.834335 498.469723 
L 290.509806 493.009748 
L 284.090652 487.405921 
L 277.573156 481.650457 
L 270.953359 475.734918 
L 264.227039 469.650147 
L 257.389682 463.386175 
L 250.436457 456.932125 
L 243.36218 450.276099 
L 236.161286 443.405046 
L 228.827777 436.304609 
L 221.355186 428.958941 
L 213.736515 421.350495 
L 205.964181 413.459771 
L 198.02994 405.265012 
L 189.924808 396.741849 
L 181.638966 387.862855 
L 173.161649 378.597022 
L 164.481018 368.9091 
L 155.584001 358.758791 
L 146.456119 348.099735 
L 137.081262 336.878231 
L 127.441434 325.031598 
L 117.516436 312.486057 
L 107.283485 299.153942 
L 96.716751 284.929984 
L 85.786783 269.686256 
L 74.459816 253.265166 
L 62.696904 235.469504 
L 50.452882 216.047951 
L 37.675121 194.67326 
L 24.302148 170.908217 
L 10.262345 144.150081 
L -1 120.83518 
" clip-path="url(#p4eedd60bdb)" style="fill: none; stroke-dasharray: 5.55,2.4; stroke-dashoffset: 0; stroke: #ff0000; stroke-opacity: 0.5; stroke-width: 1.5"/>
    <path d="M 432.54 567 
L 427.041115 563.05792 
L 421.480621 559.0414 
L 415.856732 554.947575 
L 410.167574 550.773411 
L 404.411185 546.51569 
L 398.585502 542.171 
L 392.688361 537.735713 
L 386.717485 533.20597 
L 380.670476 528.57766 
L 374.54481 523.846399 
L 368.337822 519.007501 
L 362.046699 514.055955 
L 355.668466 508.986391 
L 349.199976 503.793046 
L 342.63789 498.469723 
L 335.978668 493.009748 
L 329.218545 487.405921 
L 322.353515 481.650457 
L 315.379308 475.734918 
L 308.291365 469.650147 
L 301.084809 463.386175 
L 293.754417 456.932125 
L 286.29458 450.276099 
L 278.699269 443.405046 
L 270.961984 436.304609 
L 263.075703 428.958941 
L 255.032826 421.350495 
L 246.825103 413.459771 
L 238.443555 405.265012 
L 229.878384 396.741849 
L 221.118867 387.862855 
L 212.153224 378.597022 
L 202.96848 368.9091 
L 193.55028 358.758791 
L 183.882688 348.099735 
L 173.94793 336.878231 
L 163.726097 325.031598 
L 153.194771 312.486057 
L 142.328578 299.153942 
L 131.098628 284.929984 
L 119.471824 269.686256 
L 107.409992 253.265166 
L 94.868791 235.469504 
L 81.796337 216.047951 
L 68.131469 194.67326 
L 53.801627 170.908217 
L 38.720375 144.150081 
L 22.785004 113.534796 
L 5.875886 77.76 
" clip-path="url(#p4eedd60bdb)" style="fill: none; stroke-dasharray: 5.55,2.4; stroke-dashoffset: 0; stroke: #ff0000; stroke-opacity: 0.5; stroke-width: 1.5"/>
    <path d="M 482.76 567 
L 476.995898 563.05792 
L 471.166619 559.0414 
L 465.27026 554.947575 
L 459.304823 550.773411 
L 453.268216 546.51569 
L 447.158238 542.171 
L 440.972581 537.735713 
L 434.708813 533.20597 
L 428.364374 528.57766 
L 421.936567 523.846399 
L 415.422544 519.007501 
L 408.819298 514.055955 
L 402.123646 508.986391 
L 395.33222 503.793046 
L 388.441445 498.469723 
L 381.447529 493.009748 
L 374.346438 487.405921 
L 367.133874 481.650457 
L 359.805257 475.734918 
L 352.35569 469.650147 
L 344.779936 463.386175 
L 337.072377 456.932125 
L 329.22698 450.276099 
L 321.237253 443.405046 
L 313.09619 436.304609 
L 304.79622 428.958941 
L 296.329137 421.350495 
L 287.686024 413.459771 
L 278.857169 405.265012 
L 269.831961 396.741849 
L 260.598767 387.862855 
L 251.144799 378.597022 
L 241.455942 368.9091 
L 231.516559 358.758791 
L 221.309256 348.099735 
L 210.814598 336.878231 
L 200.010759 325.031598 
L 188.873105 312.486057 
L 177.37367 299.153942 
L 165.480505 284.929984 
L 153.156864 269.686256 
L 140.360167 253.265166 
L 127.040678 235.469504 
L 113.139791 216.047951 
L 98.587816 194.67326 
L 83.301106 170.908217 
L 67.178405 144.150081 
L 50.096484 113.534796 
L 31.905984 77.76 
" clip-path="url(#p4eedd60bdb)" style="fill: none; stroke-dasharray: 5.55,2.4; stroke-dashoffset: 0; stroke: #ff0000; stroke-opacity: 0.5; stroke-width: 1.5"/>
    <path d="M 532.98 567 
L 526.95068 563.05792 
L 520.852617 559.0414 
L 514.683787 554.947575 
L 508.442072 550.773411 
L 502.125247 546.51569 
L 495.730975 542.171 
L 489.256801 537.735713 
L 482.700141 533.20597 
L 476.058273 528.57766 
L 469.328325 523.846399 
L 462.507267 519.007501 
L 455.591897 514.055955 
L 448.578826 508.986391 
L 441.464463 503.793046 
L 434.245 498.469723 
L 426.916391 493.009748 
L 419.474331 487.405921 
L 411.914234 481.650457 
L 404.231206 475.734918 
L 396.420016 469.650147 
L 388.475062 463.386175 
L 380.390337 456.932125 
L 372.15938 450.276099 
L 363.775237 443.405046 
L 355.230397 436.304609 
L 346.516737 428.958941 
L 337.625447 421.350495 
L 328.546945 413.459771 
L 319.270784 405.265012 
L 309.785537 396.741849 
L 300.078668 387.862855 
L 290.136374 378.597022 
L 279.943404 368.9091 
L 269.482838 358.758791 
L 258.735825 348.099735 
L 247.681266 336.878231 
L 236.295421 325.031598 
L 224.55144 312.486057 
L 212.418762 299.153942 
L 199.862382 284.929984 
L 186.841904 269.686256 
L 173.310343 253.265166 
L 159.212565 235.469504 
L 144.483246 216.047951 
L 129.044164 194.67326 
L 112.800585 170.908217 
L 95.636436 144.150081 
L 77.407964 113.534796 
L 57.936083 77.76 
" clip-path="url(#p4eedd60bdb)" style="fill: none; stroke-dasharray: 5.55,2.4; stroke-dashoffset: 0; stroke: #ff0000; stroke-opacity: 0.5; stroke-width: 1.5"/>
    <path d="M 583.2 567 
L 576.905463 563.05792 
L 570.538615 559.0414 
L 564.097315 554.947575 
L 557.579321 550.773411 
L 550.982277 546.51569 
L 544.303712 542.171 
L 537.541022 537.735713 
L 530.69147 533.20597 
L 523.752171 528.57766 
L 516.720082 523.846399 
L 509.591989 519.007501 
L 502.364496 514.055955 
L 495.034006 508.986391 
L 487.596707 503.793046 
L 480.048555 498.469723 
L 472.385252 493.009748 
L 464.602224 487.405921 
L 456.694593 481.650457 
L 448.657154 475.734918 
L 440.484341 469.650147 
L 432.170189 463.386175 
L 423.708297 456.932125 
L 415.09178 450.276099 
L 406.31322 443.405046 
L 397.364603 436.304609 
L 388.237255 428.958941 
L 378.921758 421.350495 
L 369.407867 413.459771 
L 359.684399 405.265012 
L 349.739114 396.741849 
L 339.558568 387.862855 
L 329.127949 378.597022 
L 318.430865 368.9091 
L 307.449116 358.758791 
L 296.162394 348.099735 
L 284.547933 336.878231 
L 272.580084 325.031598 
L 260.229774 312.486057 
L 247.463855 299.153942 
L 234.244259 284.929984 
L 220.526944 269.686256 
L 206.260519 253.265166 
L 191.384452 235.469504 
L 175.826701 216.047951 
L 159.500511 194.67326 
L 142.300064 170.908217 
L 124.094466 144.150081 
L 104.719445 113.534796 
L 83.966181 77.76 
" clip-path="url(#p4eedd60bdb)" style="fill: none; stroke-dasharray: 5.55,2.4; stroke-dashoffset: 0; stroke: #ff0000; stroke-opacity: 0.5; stroke-width: 1.5"/>
   </g>
   <g id="LineCollection_2">
    <path d="M 81 567 
L 77.408474 563.05792 
L 73.775573 559.0414 
L 70.100592 554.947575 
L 66.382813 550.773411 
L 62.62146 546.51569 
L 58.815698 542.171 
L 54.964632 537.735713 
L 51.067309 533.20597 
L 47.12271 528.57766 
L 43.129747 523.846399 
L 39.087258 519.007501 
L 34.993998 514.055955 
L 30.848647 508.986391 
L 26.649786 503.793046 
L 22.395906 498.469723 
L 18.085398 493.009748 
L 13.716545 487.405921 
L 9.287514 481.650457 
L 4.796352 475.734918 
L 0.240973 469.650147 
L -1 467.968251 
" clip-path="url(#p4eedd60bdb)" style="fill: none; stroke-dasharray: 5.55,2.4; stroke-dashoffset: 0; stroke: #0000ff; stroke-opacity: 0.5; stroke-width: 1.5"/>
    <path d="M 131.22 567 
L 127.454628 563.05792 
L 123.637183 559.0414 
L 119.76711 554.947575 
L 115.843845 550.773411 
L 111.866767 546.51569 
L 107.835196 542.171 
L 103.748387 537.735713 
L 99.605535 533.20597 
L 95.405759 528.57766 
L 91.148099 523.846399 
L 86.831507 519.007501 
L 82.454842 514.055955 
L 78.016865 508.986391 
L 73.51622 503.793046 
L 68.951437 498.469723 
L 64.320925 493.009748 
L 59.622952 487.405921 
L 54.855644 481.650457 
L 50.016969 475.734918 
L 45.104728 469.650147 
L 40.116544 463.386175 
L 35.049843 456.932125 
L 29.901846 450.276099 
L 24.669548 443.405046 
L 19.349702 436.304609 
L 13.938796 428.958941 
L 8.433038 421.350495 
L 2.828323 413.459771 
L -1 407.963696 
" clip-path="url(#p4eedd60bdb)" style="fill: none; stroke-dasharray: 5.55,2.4; stroke-dashoffset: 0; stroke: #0000ff; stroke-opacity: 0.5; stroke-width: 1.5"/>
    <path d="M 181.44 567 
L 177.619265 563.05792 
L 173.729689 559.0414 
L 169.770726 554.947575 
L 165.741867 550.773411 
L 161.642588 546.51569 
L 157.472345 542.171 
L 153.230569 537.735713 
L 148.916656 533.20597 
L 144.529956 528.57766 
L 140.069763 523.846399 
L 135.535301 519.007501 
L 130.92571 514.055955 
L 126.240042 508.986391 
L 121.477231 503.793046 
L 116.63609 498.469723 
L 111.715301 493.009748 
L 106.713388 487.405921 
L 101.628708 481.650457 
L 96.459432 475.734918 
L 91.203527 469.650147 
L 85.858739 463.386175 
L 80.422571 456.932125 
L 74.892263 450.276099 
L 69.26477 443.405046 
L 63.536737 436.304609 
L 57.704466 428.958941 
L 51.763897 421.350495 
L 45.710567 413.459771 
L 39.539576 405.265012 
L 33.245551 396.741849 
L 26.82259 387.862855 
L 20.264221 378.597022 
L 13.56334 368.9091 
L 6.712146 358.758791 
L -0.297929 348.099735 
L -1 347.002232 
" clip-path="url(#p4eedd60bdb)" style="fill: none; stroke-dasharray: 5.55,2.4; stroke-dashoffset: 0; stroke: #0000ff; stroke-opacity: 0.5; stroke-width: 1.5"/>
    <path d="M 231.66 567 
L 227.990189 563.05792 
L 224.230604 559.0414 
L 220.379843 554.947575 
L 216.436637 550.773411 
L 212.399781 546.51569 
L 208.26815 542.171 
L 204.040695 537.735713 
L 199.716434 533.20597 
L 195.294451 528.57766 
L 190.773878 523.846399 
L 186.153888 519.007501 
L 181.433674 514.055955 
L 176.612437 508.986391 
L 171.689355 503.793046 
L 166.663566 498.469723 
L 161.534149 493.009748 
L 156.300086 487.405921 
L 150.960237 481.650457 
L 145.513311 475.734918 
L 139.957825 469.650147 
L 134.292085 463.386175 
L 128.514133 456.932125 
L 122.621721 450.276099 
L 116.61227 443.405046 
L 110.482828 436.304609 
L 104.230023 428.958941 
L 97.850027 421.350495 
L 91.338499 413.459771 
L 84.690533 405.265012 
L 77.900611 396.741849 
L 70.96252 387.862855 
L 63.869299 378.597022 
L 56.613149 368.9091 
L 49.18535 358.758791 
L 41.576154 348.099735 
L 33.774665 336.878231 
L 25.768711 325.031598 
L 17.544687 312.486057 
L 9.08737 299.153942 
L 0.379735 284.929984 
L -1 282.587074 
" clip-path="url(#p4eedd60bdb)" style="fill: none; stroke-dasharray: 5.55,2.4; stroke-dashoffset: 0; stroke: #0000ff; stroke-opacity: 0.5; stroke-width: 1.5"/>
    <path d="M 281.88 567 
L 278.638042 563.05792 
L 275.292506 559.0414 
L 271.839866 554.947575 
L 268.276694 550.773411 
L 264.599579 546.51569 
L 260.805161 542.171 
L 256.890164 537.735713 
L 252.851419 533.20597 
L 248.685882 528.57766 
L 244.390655 523.846399 
L 239.963008 519.007501 
L 235.400392 514.055955 
L 230.70045 508.986391 
L 225.861026 503.793046 
L 220.88016 498.469723 
L 215.75608 493.009748 
L 210.487186 487.405921 
L 205.072027 481.650457 
L 199.509261 475.734918 
L 193.797613 469.650147 
L 187.935832 463.386175 
L 181.922613 456.932125 
L 175.756541 450.276099 
L 169.436014 443.405046 
L 162.959159 436.304609 
L 156.323739 428.958941 
L 149.527076 421.350495 
L 142.565945 413.459771 
L 135.436476 405.265012 
L 128.134057 396.741849 
L 120.653208 387.862855 
L 112.987481 378.597022 
L 105.12933 368.9091 
L 97.069971 358.758791 
L 88.799237 348.099735 
L 80.305402 336.878231 
L 71.574991 325.031598 
L 62.592563 312.486057 
L 53.340429 299.153942 
L 43.798364 284.929984 
L 33.943243 269.686256 
L 23.74861 253.265166 
L 13.184214 235.469504 
L 2.215501 216.047951 
L -1 210.025503 
" clip-path="url(#p4eedd60bdb)" style="fill: none; stroke-dasharray: 5.55,2.4; stroke-dashoffset: 0; stroke: #0000ff; stroke-opacity: 0.5; stroke-width: 1.5"/>
    <path d="M 332.1 567 
L 329.534963 563.05792 
L 326.874308 559.0414 
L 324.112884 554.947575 
L 321.245384 550.773411 
L 318.266215 546.51569 
L 315.169524 542.171 
L 311.949203 537.735713 
L 308.598917 533.20597 
L 305.112117 528.57766 
L 301.482057 523.846399 
L 297.701834 519.007501 
L 293.76443 514.055955 
L 289.662751 508.986391 
L 285.389705 503.793046 
L 280.938252 498.469723 
L 276.301483 493.009748 
L 271.472702 487.405921 
L 266.445502 481.650457 
L 261.213849 475.734918 
L 255.772147 469.650147 
L 250.115314 463.386175 
L 244.238804 456.932125 
L 238.138644 450.276099 
L 231.811417 443.405046 
L 225.254212 436.304609 
L 218.464533 428.958941 
L 211.440203 421.350495 
L 204.179177 413.459771 
L 196.679358 405.265012 
L 188.938376 396.741849 
L 180.953309 387.862855 
L 172.720435 378.597022 
L 164.234923 368.9091 
L 155.490536 358.758791 
L 146.479307 348.099735 
L 137.191206 336.878231 
L 127.613793 325.031598 
L 117.731835 312.486057 
L 107.526873 299.153942 
L 96.976753 284.929984 
L 86.055065 269.686256 
L 74.730451 253.265166 
L 62.965816 235.469504 
L 50.717329 216.047951 
L 37.933259 194.67326 
L 24.552674 170.908217 
L 10.504205 144.150081 
L -1 120.350095 
" clip-path="url(#p4eedd60bdb)" style="fill: none; stroke-dasharray: 5.55,2.4; stroke-dashoffset: 0; stroke: #0000ff; stroke-opacity: 0.5; stroke-width: 1.5"/>
    <path d="M 357.21 567 
L 355.031667 563.05792 
L 352.77018 559.0414 
L 350.420494 554.947575 
L 347.977312 550.773411 
L 345.434946 546.51569 
L 342.787314 542.171 
L 340.027914 537.735713 
L 337.149834 533.20597 
L 334.145717 528.57766 
L 331.007755 523.846399 
L 327.72768 519.007501 
L 324.296769 514.055955 
L 320.705853 508.986391 
L 316.945331 503.793046 
L 313.00522 498.469723 
L 308.875197 493.009748 
L 304.544674 487.405921 
L 300.002882 481.650457 
L 295.238989 475.734918 
L 290.242228 469.650147 
L 285.002042 463.386175 
L 279.508264 456.932125 
L 273.751266 450.276099 
L 267.722143 443.405046 
L 261.412847 436.304609 
L 254.816301 428.958941 
L 247.92647 421.350495 
L 240.738343 413.459771 
L 233.247854 405.265012 
L 225.451723 396.741849 
L 217.347146 387.862855 
L 208.931484 378.597022 
L 200.201811 368.9091 
L 191.154421 358.758791 
L 181.784275 348.099735 
L 172.084426 336.878231 
L 162.045411 325.031598 
L 151.654619 312.486057 
L 140.895626 299.153942 
L 129.747493 284.929984 
L 118.183993 269.686256 
L 106.172696 253.265166 
L 93.673931 235.469504 
L 80.639476 216.047951 
L 67.010968 194.67326 
L 52.717945 170.908217 
L 37.675572 144.150081 
L 21.782486 113.534796 
L 4.920445 77.76 
" clip-path="url(#p4eedd60bdb)" style="fill: none; stroke-dasharray: 5.55,2.4; stroke-dashoffset: 0; stroke: #0000ff; stroke-opacity: 0.5; stroke-width: 1.5"/>
    <path d="M 382.32 567 
L 380.527781 563.05792 
L 378.667914 559.0414 
L 376.736034 554.947575 
L 374.727507 550.773411 
L 372.637295 546.51569 
L 370.459936 542.171 
L 368.189504 537.735713 
L 365.819589 533.20597 
L 363.343241 528.57766 
L 360.752927 523.846399 
L 358.040484 519.007501 
L 355.197066 514.055955 
L 352.21311 508.986391 
L 349.078265 503.793046 
L 345.781372 498.469723 
L 342.310426 493.009748 
L 338.652545 487.405921 
L 334.793964 481.650457 
L 330.720042 475.734918 
L 326.415313 469.650147 
L 321.863542 463.386175 
L 317.047871 456.932125 
L 311.950961 450.276099 
L 306.555231 443.405046 
L 300.843142 436.304609 
L 294.797545 428.958941 
L 288.402034 421.350495 
L 281.641361 413.459771 
L 274.501807 405.265012 
L 266.971511 396.741849 
L 259.040645 387.862855 
L 250.701474 378.597022 
L 241.948162 368.9091 
L 232.77636 358.758791 
L 223.182536 348.099735 
L 213.163089 336.878231 
L 202.713285 325.031598 
L 191.826061 312.486057 
L 180.490717 299.153942 
L 168.691607 284.929984 
L 156.406748 269.686256 
L 143.606358 253.265166 
L 130.251288 235.469504 
L 116.291195 216.047951 
L 101.662339 194.67326 
L 86.284844 170.908217 
L 70.05919 144.150081 
L 52.862014 113.534796 
L 34.541973 77.76 
" clip-path="url(#p4eedd60bdb)" style="fill: none; stroke-dasharray: 5.55,2.4; stroke-dashoffset: 0; stroke: #0000ff; stroke-opacity: 0.5; stroke-width: 1.5"/>
    <path d="M 407.43 567 
L 406.001605 563.05792 
L 404.521601 559.0414 
L 402.986592 554.947575 
L 401.392963 550.773411 
L 399.736755 546.51569 
L 398.013648 542.171 
L 396.218916 537.735713 
L 394.347403 533.20597 
L 392.393463 528.57766 
L 390.350905 523.846399 
L 388.212931 519.007501 
L 385.972068 514.055955 
L 383.620101 508.986391 
L 381.14796 503.793046 
L 378.545654 498.469723 
L 375.802171 493.009748 
L 372.90535 487.405921 
L 369.841776 481.650457 
L 366.596648 475.734918 
L 363.153654 469.650147 
L 359.494854 463.386175 
L 355.600556 456.932125 
L 351.449234 450.276099 
L 347.017456 443.405046 
L 342.279899 436.304609 
L 337.209423 428.958941 
L 331.777247 421.350495 
L 325.953295 413.459771 
L 319.706685 405.265012 
L 313.006387 396.741849 
L 305.82215 387.862855 
L 298.125452 378.597022 
L 289.890588 368.9091 
L 281.095644 358.758791 
L 271.723188 348.099735 
L 261.760478 336.878231 
L 251.199024 325.031598 
L 240.033376 312.486057 
L 228.25912 299.153942 
L 215.870336 284.929984 
L 202.85655 269.686256 
L 189.199472 253.265166 
L 174.869662 235.469504 
L 159.823075 216.047951 
L 143.997399 194.67326 
L 127.307865 170.908217 
L 109.642057 144.150081 
L 90.853208 113.534796 
L 70.751648 77.76 
" clip-path="url(#p4eedd60bdb)" style="fill: none; stroke-dasharray: 5.55,2.4; stroke-dashoffset: 0; stroke: #0000ff; stroke-opacity: 0.5; stroke-width: 1.5"/>
    <path d="M 432.54 567 
L 431.437856 563.05792 
L 430.29875 559.0414 
L 429.120274 554.947575 
L 427.899867 550.773411 
L 426.634721 546.51569 
L 425.321766 542.171 
L 423.957631 537.735713 
L 422.53863 533.20597 
L 421.060713 528.57766 
L 419.519419 523.846399 
L 417.909829 519.007501 
L 416.226495 514.055955 
L 414.463398 508.986391 
L 412.61383 503.793046 
L 410.670331 498.469723 
L 408.624594 493.009748 
L 406.467316 487.405921 
L 404.188081 481.650457 
L 401.775189 475.734918 
L 399.215466 469.650147 
L 396.494073 463.386175 
L 393.594225 456.932125 
L 390.496952 450.276099 
L 387.180764 443.405046 
L 383.621305 436.304609 
L 379.790969 428.958941 
L 375.658527 421.350495 
L 371.188708 413.459771 
L 366.341854 405.265012 
L 361.073644 396.741849 
L 355.335012 387.862855 
L 349.072336 378.597022 
L 342.228068 368.9091 
L 334.741945 358.758791 
L 326.552943 348.099735 
L 317.601962 336.878231 
L 307.835086 325.031598 
L 297.206982 312.486057 
L 285.683545 299.153942 
L 273.24289 284.929984 
L 259.873715 269.686256 
L 245.570589 253.265166 
L 230.326679 235.469504 
L 214.124595 216.047951 
L 196.926552 194.67326 
L 178.664417 170.908217 
L 159.229507 144.150081 
L 138.461129 113.534796 
L 116.13207 77.76 
" clip-path="url(#p4eedd60bdb)" style="fill: none; stroke-dasharray: 5.55,2.4; stroke-dashoffset: 0; stroke: #0000ff; stroke-opacity: 0.5; stroke-width: 1.5"/>
    <path d="M 457.65 567 
L 456.828404 563.05792 
L 455.982084 559.0414 
L 455.109472 554.947575 
L 454.208911 550.773411 
L 453.278583 546.51569 
L 452.3165 542.171 
L 451.320483 537.735713 
L 450.288149 533.20597 
L 449.216881 528.57766 
L 448.103796 523.846399 
L 446.945716 519.007501 
L 445.739119 514.055955 
L 444.480109 508.986391 
L 443.164341 503.793046 
L 441.786972 498.469723 
L 440.342598 493.009748 
L 438.825147 487.405921 
L 437.227794 481.650457 
L 435.542833 475.734918 
L 433.761533 469.650147 
L 431.873982 463.386175 
L 429.868858 456.932125 
L 427.73321 450.276099 
L 425.452155 443.405046 
L 423.008512 436.304609 
L 420.382365 428.958941 
L 417.550571 421.350495 
L 414.486094 413.459771 
L 411.157249 405.265012 
L 407.526808 396.741849 
L 403.550836 387.862855 
L 399.177475 378.597022 
L 394.345449 368.9091 
L 388.982494 358.758791 
L 383.003794 348.099735 
L 376.310716 336.878231 
L 368.790343 325.031598 
L 360.316552 312.486057 
L 350.753789 299.153942 
L 339.964343 284.929984 
L 327.819701 269.686256 
L 314.214295 253.265166 
L 299.077196 235.469504 
L 282.375196 216.047951 
L 264.10165 194.67326 
L 244.250677 170.908217 
L 222.782079 144.150081 
L 199.584121 113.534796 
L 174.437093 77.76 
" clip-path="url(#p4eedd60bdb)" style="fill: none; stroke-dasharray: 5.55,2.4; stroke-dashoffset: 0; stroke: #0000ff; stroke-opacity: 0.5; stroke-width: 1.5"/>
    <path d="M 482.76 567 
L 482.171186 563.05792 
L 481.567241 559.0414 
L 480.947234 554.947575 
L 480.310197 550.773411 
L 479.655065 546.51569 
L 478.980673 542.171 
L 478.285748 537.735713 
L 477.568901 533.20597 
L 476.828608 528.57766 
L 476.063196 523.846399 
L 475.27082 519.007501 
L 474.449441 514.055955 
L 473.596809 508.986391 
L 472.710414 503.793046 
L 471.787466 498.469723 
L 470.824857 493.009748 
L 469.819097 487.405921 
L 468.76627 481.650457 
L 467.66196 475.734918 
L 466.501163 469.650147 
L 465.278205 463.386175 
L 463.9866 456.932125 
L 462.618927 450.276099 
L 461.166646 443.405046 
L 459.619877 436.304609 
L 457.967122 428.958941 
L 456.19496 421.350495 
L 454.2876 413.459771 
L 452.226359 405.265012 
L 449.989017 396.741849 
L 447.548891 387.862855 
L 444.873779 378.597022 
L 441.92449 368.9091 
L 438.652963 358.758791 
L 434.999772 348.099735 
L 430.890868 336.878231 
L 426.233335 325.031598 
L 420.909883 312.486057 
L 414.771868 299.153942 
L 407.631169 284.929984 
L 399.25163 269.686256 
L 389.343038 253.265166 
L 377.563592 235.469504 
L 363.541007 216.047951 
L 346.921995 194.67326 
L 327.444586 170.908217 
L 304.992393 144.150081 
L 279.567322 113.534796 
L 251.157793 77.76 
" clip-path="url(#p4eedd60bdb)" style="fill: none; stroke-dasharray: 5.55,2.4; stroke-dashoffset: 0; stroke: #0000ff; stroke-opacity: 0.5; stroke-width: 1.5"/>
    <path d="M 507.87 567 
L 507.468343 563.05792 
L 507.058731 559.0414 
L 506.640689 554.947575 
L 506.213732 550.773411 
L 505.777326 546.51569 
L 505.330886 542.171 
L 504.873775 537.735713 
L 504.405296 533.20597 
L 503.924688 528.57766 
L 503.431114 523.846399 
L 502.923655 519.007501 
L 502.401294 514.055955 
L 501.862913 508.986391 
L 501.307263 503.793046 
L 500.732959 498.469723 
L 500.138461 493.009748 
L 499.522042 487.405921 
L 498.881769 481.650457 
L 498.215461 475.734918 
L 497.520657 469.650147 
L 496.794566 463.386175 
L 496.034008 456.932125 
L 495.235348 450.276099 
L 494.394414 443.405046 
L 493.506387 436.304609 
L 492.565668 428.958941 
L 491.565737 421.350495 
L 490.498935 413.459771 
L 489.356211 405.265012 
L 488.126818 396.741849 
L 486.797851 387.862855 
L 485.353735 378.597022 
L 483.775485 368.9091 
L 482.039744 358.758791 
L 480.117462 348.099735 
L 477.972094 336.878231 
L 475.557098 325.031598 
L 472.81238 312.486057 
L 469.659105 299.153942 
L 465.992224 284.929984 
L 461.669245 269.686256 
L 456.493179 253.265166 
L 450.18685 235.469504 
L 442.354036 216.047951 
L 432.424141 194.67326 
L 419.5854 170.908217 
L 402.746167 144.150081 
L 380.644041 113.534796 
L 352.254229 77.76 
" clip-path="url(#p4eedd60bdb)" style="fill: none; stroke-dasharray: 5.55,2.4; stroke-dashoffset: 0; stroke: #0000ff; stroke-opacity: 0.5; stroke-width: 1.5"/>
    <path d="M 532.98 567 
L 532.724383 563.05792 
L 532.465996 559.0414 
L 532.204672 554.947575 
L 531.940253 550.773411 
L 531.672564 546.51569 
L 531.401408 542.171 
L 531.126571 537.735713 
L 530.847817 533.20597 
L 530.564889 528.57766 
L 530.277501 523.846399 
L 529.98534 519.007501 
L 529.688054 514.055955 
L 529.385259 508.986391 
L 529.076518 503.793046 
L 528.761348 498.469723 
L 528.439208 493.009748 
L 528.109488 487.405921 
L 527.771502 481.650457 
L 527.424473 475.734918 
L 527.067517 469.650147 
L 526.699631 463.386175 
L 526.319662 456.932125 
L 525.92629 450.276099 
L 525.51799 443.405046 
L 525.092996 436.304609 
L 524.649244 428.958941 
L 524.184324 421.350495 
L 523.695393 413.459771 
L 523.179081 405.265012 
L 522.631378 396.741849 
L 522.047448 387.862855 
L 521.421449 378.597022 
L 520.746243 368.9091 
L 520.013036 358.758791 
L 519.210879 348.099735 
L 518.325987 336.878231 
L 517.340797 325.031598 
L 516.232621 312.486057 
L 514.971664 299.153942 
L 513.51815 284.929984 
L 511.817896 269.686256 
L 509.795339 253.265166 
L 507.342338 235.469504 
L 504.299225 216.047951 
L 500.421555 194.67326 
L 495.31892 170.908217 
L 488.336358 144.150081 
L 478.315502 113.534796 
L 463.116719 77.76 
" clip-path="url(#p4eedd60bdb)" style="fill: none; stroke-dasharray: 5.55,2.4; stroke-dashoffset: 0; stroke: #0000ff; stroke-opacity: 0.5; stroke-width: 1.5"/>
    <path d="M 558.09 567 
L 557.944777 563.05792 
L 557.800422 559.0414 
L 557.65697 554.947575 
L 557.51448 550.773411 
L 557.37301 546.51569 
L 557.232617 542.171 
L 557.093359 537.735713 
L 556.955299 533.20597 
L 556.818503 528.57766 
L 556.683038 523.846399 
L 556.548975 519.007501 
L 556.416383 514.055955 
L 556.28534 508.986391 
L 556.155916 503.793046 
L 556.028188 498.469723 
L 555.902234 493.009748 
L 555.778127 487.405921 
L 555.655944 481.650457 
L 555.535755 475.734918 
L 555.417627 469.650147 
L 555.301621 463.386175 
L 555.187785 456.932125 
L 555.076156 450.276099 
L 554.966752 443.405046 
L 554.859566 436.304609 
L 554.754552 428.958941 
L 554.651626 421.350495 
L 554.550641 413.459771 
L 554.45137 405.265012 
L 554.353491 396.741849 
L 554.256532 387.862855 
L 554.159848 378.597022 
L 554.062544 368.9091 
L 553.963403 358.758791 
L 553.860756 348.099735 
L 553.752326 336.878231 
L 553.634995 325.031598 
L 553.504468 312.486057 
L 553.354757 299.153942 
L 553.177458 284.929984 
L 552.960591 269.686256 
L 552.686761 253.265166 
L 552.330214 235.469504 
L 551.851792 216.047951 
L 551.190049 194.67326 
L 550.244722 170.908217 
L 548.843824 144.150081 
L 546.672891 113.534796 
L 543.106152 77.76 
" clip-path="url(#p4eedd60bdb)" style="fill: none; stroke-dasharray: 5.55,2.4; stroke-dashoffset: 0; stroke: #0000ff; stroke-opacity: 0.5; stroke-width: 1.5"/>
    <path d="M 583.2 567 
L 583.135052 563.05792 
L 583.073451 559.0414 
L 583.015361 554.947575 
L 582.96098 550.773411 
L 582.910514 546.51569 
L 582.864182 542.171 
L 582.822217 537.735713 
L 582.784868 533.20597 
L 582.752406 528.57766 
L 582.725117 523.846399 
L 582.703313 519.007501 
L 582.687324 514.055955 
L 582.677513 508.986391 
L 582.674263 503.793046 
L 582.677991 498.469723 
L 582.689152 493.009748 
L 582.708234 487.405921 
L 582.735769 481.650457 
L 582.772337 475.734918 
L 582.818566 469.650147 
L 582.875145 463.386175 
L 582.942826 456.932125 
L 583.022435 450.276099 
L 583.114877 443.405046 
L 583.221152 436.304609 
L 583.342358 428.958941 
L 583.479716 421.350495 
L 583.634578 413.459771 
L 583.808448 405.265012 
L 584.00301 396.741849 
L 584.220141 387.862855 
L 584.461955 378.597022 
L 584.730834 368.9091 
L 585.029469 358.758791 
L 585.360918 348.099735 
L 585.728658 336.878231 
L 586.136666 325.031598 
L 586.589506 312.486057 
L 587.092414 299.153942 
L 587.651426 284.929984 
L 588.273499 269.686256 
L 588.966612 253.265166 
L 589.739853 235.469504 
L 590.603364 216.047951 
L 591.56796 194.67326 
L 592.643969 170.908217 
L 593.838074 144.150081 
L 595.145041 113.534796 
L 596.525068 77.76 
" clip-path="url(#p4eedd60bdb)" style="fill: none; stroke-dasharray: 5.55,2.4; stroke-dashoffset: 0; stroke: #0000ff; stroke-opacity: 0.5; stroke-width: 1.5"/>
   </g>
   <g id="LineCollection_3">
    <path d="M 229.468469 458.343536 
L 228.508742 461.218006 
L 227.562721 464.054149 
L 226.630034 466.852973 
L 225.710326 469.615447 
L 224.803253 472.342504 
L 223.908488 475.035041 
L 223.025713 477.69392 
L 222.154624 480.319972 
L 221.294928 482.913999 
L 220.446343 485.476771 
L 219.608596 488.009034 
L 218.781425 490.511504 
L 217.964578 492.984876 
L 217.157809 495.429817 
L 216.360883 497.846974 
L 215.573572 500.236972 
L 214.795657 502.600413 
L 214.026925 504.937882 
L 213.267171 507.249944 
L 212.516195 509.537143 
L 211.773806 511.800011 
L 211.039817 514.039058 
L 210.314049 516.254782 
L 209.596326 518.447663 
L 208.886479 520.618167 
L 208.184346 522.766746 
L 207.489766 524.893839 
L 206.802587 526.999872 
L 206.122658 529.085256 
L 205.449834 531.150394 
L 204.783974 533.195675 
L 204.124943 535.221477 
L 203.472607 537.228166 
L 202.826838 539.216102 
L 202.187509 541.18563 
L 201.5545 543.137089 
L 200.927692 545.070807 
L 200.306969 546.987105 
L 199.69222 548.886292 
L 199.083336 550.768672 
L 198.480211 552.634539 
L 197.882741 554.484182 
L 197.290827 556.317879 
L 196.704369 558.135903 
L 196.123273 559.93852 
L 195.547446 561.725989 
L 194.976798 563.498562 
L 194.411239 565.256486 
L 193.850684 567 
" clip-path="url(#p4eedd60bdb)" style="fill: none; stroke-dasharray: 5.55,2.4; stroke-dashoffset: 0; stroke: #008000; stroke-opacity: 0.8; stroke-width: 1.5"/>
    <path d="M 279.061743 458.343536 
L 278.169221 461.218006 
L 277.289642 464.054149 
L 276.422654 466.852973 
L 275.56792 469.615447 
L 274.725113 472.342504 
L 273.893921 475.035041 
L 273.074045 477.69392 
L 272.265195 480.319972 
L 271.467093 482.913999 
L 270.679471 485.476771 
L 269.902071 488.009034 
L 269.134644 490.511504 
L 268.37695 492.984876 
L 267.628757 495.429817 
L 266.889842 497.846974 
L 266.159989 500.236972 
L 265.438989 502.600413 
L 264.726642 504.937882 
L 264.022752 507.249944 
L 263.327131 509.537143 
L 262.639597 511.800011 
L 261.959973 514.039058 
L 261.288089 516.254782 
L 260.62378 518.447663 
L 259.966885 520.618167 
L 259.317249 522.766746 
L 258.674721 524.893839 
L 258.039157 526.999872 
L 257.410414 529.085256 
L 256.788355 531.150394 
L 256.172846 533.195675 
L 255.56376 535.221477 
L 254.960969 537.228166 
L 254.364352 539.216102 
L 253.773791 541.18563 
L 253.189169 543.137089 
L 252.610376 545.070807 
L 252.037303 546.987105 
L 251.469842 548.886292 
L 250.907892 550.768672 
L 250.351352 552.634539 
L 249.800125 554.484182 
L 249.254115 556.317879 
L 248.71323 558.135903 
L 248.177379 559.93852 
L 247.646476 561.725989 
L 247.120434 563.498562 
L 246.59917 565.256486 
L 246.082603 567 
" clip-path="url(#p4eedd60bdb)" style="fill: none; stroke-dasharray: 5.55,2.4; stroke-dashoffset: 0; stroke: #008000; stroke-opacity: 0.8; stroke-width: 1.5"/>
    <path d="M 319.728227 458.343536 
L 318.893114 461.218006 
L 318.070297 464.054149 
L 317.259441 466.852973 
L 316.460222 469.615447 
L 315.672331 472.342504 
L 314.895469 475.035041 
L 314.129349 477.69392 
L 313.373695 480.319972 
L 312.628242 482.913999 
L 311.892734 485.476771 
L 311.166925 488.009034 
L 310.450577 490.511504 
L 309.743462 492.984876 
L 309.045358 495.429817 
L 308.356052 497.846974 
L 307.675338 500.236972 
L 307.003018 502.600413 
L 306.338899 504.937882 
L 305.682796 507.249944 
L 305.034529 509.537143 
L 304.393925 511.800011 
L 303.760815 514.039058 
L 303.135037 516.254782 
L 302.516433 518.447663 
L 301.904851 520.618167 
L 301.300143 522.766746 
L 300.702165 524.893839 
L 300.110779 526.999872 
L 299.52585 529.085256 
L 298.947247 531.150394 
L 298.374843 533.195675 
L 297.808516 535.221477 
L 297.248145 537.228166 
L 296.693615 539.216102 
L 296.144813 541.18563 
L 295.601628 543.137089 
L 295.063955 545.070807 
L 294.53169 546.987105 
L 294.004732 548.886292 
L 293.482983 550.768672 
L 292.966348 552.634539 
L 292.454734 554.484182 
L 291.94805 556.317879 
L 291.446209 558.135903 
L 290.949124 559.93852 
L 290.456713 561.725989 
L 289.968894 563.498562 
L 289.485587 565.256486 
L 289.006716 567 
" clip-path="url(#p4eedd60bdb)" style="fill: none; stroke-dasharray: 5.55,2.4; stroke-dashoffset: 0; stroke: #008000; stroke-opacity: 0.8; stroke-width: 1.5"/>
    <path d="M 363.391365 458.343536 
L 362.620198 461.218006 
L 361.860612 464.054149 
L 361.11229 466.852973 
L 360.374925 469.615447 
L 359.648223 472.342504 
L 358.9319 475.035041 
L 358.225686 477.69392 
L 357.529319 480.319972 
L 356.842546 482.913999 
L 356.165127 485.476771 
L 355.496828 488.009034 
L 354.837424 490.511504 
L 354.186697 492.984876 
L 353.544439 495.429817 
L 352.910449 497.846974 
L 352.28453 500.236972 
L 351.666496 502.600413 
L 351.056164 504.937882 
L 350.453359 507.249944 
L 349.857911 509.537143 
L 349.269656 511.800011 
L 348.688434 514.039058 
L 348.114092 516.254782 
L 347.546481 518.447663 
L 346.985457 520.618167 
L 346.43088 522.766746 
L 345.882615 524.893839 
L 345.340531 526.999872 
L 344.804499 529.085256 
L 344.274397 531.150394 
L 343.750105 533.195675 
L 343.231506 535.221477 
L 342.718488 537.228166 
L 342.210941 539.216102 
L 341.708759 541.18563 
L 341.211837 543.137089 
L 340.720076 545.070807 
L 340.233378 546.987105 
L 339.751648 548.886292 
L 339.274792 550.768672 
L 338.802722 552.634539 
L 338.335349 554.484182 
L 337.872588 556.317879 
L 337.414357 558.135903 
L 336.960575 559.93852 
L 336.511162 561.725989 
L 336.066043 563.498562 
L 335.625142 565.256486 
L 335.188387 567 
" clip-path="url(#p4eedd60bdb)" style="fill: none; stroke-dasharray: 5.55,2.4; stroke-dashoffset: 0; stroke: #008000; stroke-opacity: 0.8; stroke-width: 1.5"/>
    <path d="M 400.989942 458.343536 
L 400.275755 461.218006 
L 399.572517 464.054149 
L 398.879924 466.852973 
L 398.197686 469.615447 
L 397.525522 472.342504 
L 396.863164 475.035041 
L 396.210353 477.69392 
L 395.56684 480.319972 
L 394.932386 482.913999 
L 394.306761 485.476771 
L 393.689743 488.009034 
L 393.081117 490.511504 
L 392.48068 492.984876 
L 391.88823 495.429817 
L 391.303577 497.846974 
L 390.726536 500.236972 
L 390.156928 502.600413 
L 389.594579 504.937882 
L 389.039325 507.249944 
L 388.491002 509.537143 
L 387.949456 511.800011 
L 387.414536 514.039058 
L 386.886095 516.254782 
L 386.363992 518.447663 
L 385.848091 520.618167 
L 385.338258 522.766746 
L 384.834366 524.893839 
L 384.33629 526.999872 
L 383.843909 529.085256 
L 383.357106 531.150394 
L 382.875767 533.195675 
L 382.399783 535.221477 
L 381.929047 537.228166 
L 381.463453 539.216102 
L 381.002902 541.18563 
L 380.547296 543.137089 
L 380.096539 545.070807 
L 379.650538 546.987105 
L 379.209204 548.886292 
L 378.772449 550.768672 
L 378.340187 552.634539 
L 377.912336 554.484182 
L 377.488816 556.317879 
L 377.069547 558.135903 
L 376.654454 559.93852 
L 376.243461 561.725989 
L 375.836496 563.498562 
L 375.433489 565.256486 
L 375.03437 567 
" clip-path="url(#p4eedd60bdb)" style="fill: none; stroke-dasharray: 5.55,2.4; stroke-dashoffset: 0; stroke: #008000; stroke-opacity: 0.8; stroke-width: 1.5"/>
    <path d="M 426.092748 458.343536 
L 425.41759 461.218006 
L 424.75295 464.054149 
L 424.098535 466.852973 
L 423.454064 469.615447 
L 422.819266 472.342504 
L 422.193882 475.035041 
L 421.577663 477.69392 
L 420.970368 480.319972 
L 420.371766 482.913999 
L 419.781636 485.476771 
L 419.199763 488.009034 
L 418.625942 490.511504 
L 418.059973 492.984876 
L 417.501665 495.429817 
L 416.950832 497.846974 
L 416.407297 500.236972 
L 415.870888 502.600413 
L 415.341437 504.937882 
L 414.818784 507.249944 
L 414.302774 509.537143 
L 413.793256 511.800011 
L 413.290086 514.039058 
L 412.793121 516.254782 
L 412.302227 518.447663 
L 411.817272 520.618167 
L 411.338127 522.766746 
L 410.86467 524.893839 
L 410.39678 526.999872 
L 409.93434 529.085256 
L 409.47724 531.150394 
L 409.025368 533.195675 
L 408.578618 535.221477 
L 408.136889 537.228166 
L 407.70008 539.216102 
L 407.268093 541.18563 
L 406.840835 543.137089 
L 406.418214 545.070807 
L 406.00014 546.987105 
L 405.586527 548.886292 
L 405.177291 550.768672 
L 404.77235 552.634539 
L 404.371624 554.484182 
L 403.975036 556.317879 
L 403.58251 558.135903 
L 403.193972 559.93852 
L 402.809351 561.725989 
L 402.428578 563.498562 
L 402.051584 565.256486 
L 401.678303 567 
" clip-path="url(#p4eedd60bdb)" style="fill: none; stroke-dasharray: 5.55,2.4; stroke-dashoffset: 0; stroke: #008000; stroke-opacity: 0.8; stroke-width: 1.5"/>
    <path d="M 460.536571 458.343536 
L 459.916251 461.218006 
L 459.305847 464.054149 
L 458.705079 466.852973 
L 458.113681 469.615447 
L 457.531396 472.342504 
L 456.957977 475.035041 
L 456.393188 477.69392 
L 455.8368 480.319972 
L 455.288594 482.913999 
L 454.748361 485.476771 
L 454.215895 488.009034 
L 453.691003 490.511504 
L 453.173495 492.984876 
L 452.66319 495.429817 
L 452.159911 497.846974 
L 451.663491 500.236972 
L 451.173766 502.600413 
L 450.690577 504.937882 
L 450.213774 507.249944 
L 449.743208 509.537143 
L 449.278737 511.800011 
L 448.820223 514.039058 
L 448.367534 516.254782 
L 447.92054 518.447663 
L 447.479117 520.618167 
L 447.043143 522.766746 
L 446.612502 524.893839 
L 446.187081 526.999872 
L 445.766768 529.085256 
L 445.351459 531.150394 
L 444.941048 533.195675 
L 444.535437 535.221477 
L 444.134527 537.228166 
L 443.738223 539.216102 
L 443.346436 541.18563 
L 442.959074 543.137089 
L 442.576051 545.070807 
L 442.197284 546.987105 
L 441.82269 548.886292 
L 441.452189 550.768672 
L 441.085705 552.634539 
L 440.723163 554.484182 
L 440.364488 556.317879 
L 440.00961 558.135903 
L 439.658459 559.93852 
L 439.310967 561.725989 
L 438.96707 563.498562 
L 438.626702 565.256486 
L 438.289802 567 
" clip-path="url(#p4eedd60bdb)" style="fill: none; stroke-dasharray: 5.55,2.4; stroke-dashoffset: 0; stroke: #008000; stroke-opacity: 0.8; stroke-width: 1.5"/>
    <path d="M 491.460374 458.343536 
L 490.890555 461.218006 
L 490.3301 464.054149 
L 489.778743 466.852973 
L 489.23623 469.615447 
L 488.702316 472.342504 
L 488.176766 475.035041 
L 487.659356 477.69392 
L 487.149869 480.319972 
L 486.648096 482.913999 
L 486.153837 485.476771 
L 485.666898 488.009034 
L 485.187093 490.511504 
L 484.714244 492.984876 
L 484.248178 495.429817 
L 483.788728 497.846974 
L 483.335733 500.236972 
L 482.889038 502.600413 
L 482.448494 504.937882 
L 482.013956 507.249944 
L 481.585284 509.537143 
L 481.162343 511.800011 
L 480.745002 514.039058 
L 480.333135 516.254782 
L 479.92662 518.447663 
L 479.525338 520.618167 
L 479.129175 522.766746 
L 478.738019 524.893839 
L 478.351764 526.999872 
L 477.970304 529.085256 
L 477.59354 531.150394 
L 477.221372 533.195675 
L 476.853706 535.221477 
L 476.49045 537.228166 
L 476.131513 539.216102 
L 475.77681 541.18563 
L 475.426255 543.137089 
L 475.079767 545.070807 
L 474.737265 546.987105 
L 474.398674 548.886292 
L 474.063916 550.768672 
L 473.732919 552.634539 
L 473.405612 554.484182 
L 473.081926 556.317879 
L 472.761792 558.135903 
L 472.445146 559.93852 
L 472.131924 561.725989 
L 471.822063 563.498562 
L 471.515503 565.256486 
L 471.212184 567 
" clip-path="url(#p4eedd60bdb)" style="fill: none; stroke-dasharray: 5.55,2.4; stroke-dashoffset: 0; stroke: #008000; stroke-opacity: 0.8; stroke-width: 1.5"/>
    <path d="M 514.027873 458.343536 
L 513.495666 461.218006 
L 512.972413 464.054149 
L 512.457859 466.852973 
L 511.951758 469.615447 
L 511.453877 472.342504 
L 510.963988 475.035041 
L 510.481874 477.69392 
L 510.007329 480.319972 
L 509.54015 482.913999 
L 509.080145 485.476771 
L 508.627129 488.009034 
L 508.180922 490.511504 
L 507.741352 492.984876 
L 507.308254 495.429817 
L 506.881466 497.846974 
L 506.460835 500.236972 
L 506.046212 502.600413 
L 505.637453 504.937882 
L 505.234418 507.249944 
L 504.836974 509.537143 
L 504.444991 511.800011 
L 504.058343 514.039058 
L 503.676909 516.254782 
L 503.300571 518.447663 
L 502.929217 520.618167 
L 502.562736 522.766746 
L 502.201021 524.893839 
L 501.84397 526.999872 
L 501.491481 529.085256 
L 501.14346 531.150394 
L 500.799811 533.195675 
L 500.460443 535.221477 
L 500.125268 537.228166 
L 499.794199 539.216102 
L 499.467155 541.18563 
L 499.144053 543.137089 
L 498.824815 545.070807 
L 498.509366 546.987105 
L 498.197629 548.886292 
L 497.889534 550.768672 
L 497.585011 552.634539 
L 497.28399 554.484182 
L 496.986407 556.317879 
L 496.692195 558.135903 
L 496.401293 559.93852 
L 496.11364 561.725989 
L 495.829175 563.498562 
L 495.54784 565.256486 
L 495.269581 567 
" clip-path="url(#p4eedd60bdb)" style="fill: none; stroke-dasharray: 5.55,2.4; stroke-dashoffset: 0; stroke: #008000; stroke-opacity: 0.8; stroke-width: 1.5"/>
   </g>
   <g id="line2d_46">
    <path d="M 473.371333 555.263804 
L 460.941354 555.251129 
L 445.369409 553.952862 
L 441.738147 551.204255 
L 436.959408 548.132632 
L 434.538004 545.327166 
L 429.249844 542.186505 
L 429.16625 539.137365 
L 424.907352 536.252648 
L 420.012134 533.518685 
L 420.807202 530.918379 
L 420.31544 528.304383 
L 415.688015 525.514327 
L 417.051359 522.813166 
L 417.306047 520.06153 
L 417.885391 517.35918 
L 417.870747 514.666306 
L 416.461366 511.942775 
L 412.93919 509.209092 
L 414.948245 506.408867 
L 414.541968 503.646805 
L 413.23494 500.813949 
L 410.851244 497.943171 
L 410.54866 495.001511 
L 407.899261 491.979339 
L 408.729233 488.842887 
L 406.321507 485.741906 
L 401.453846 482.688391 
L 400.216022 479.599758 
L 398.161645 476.498362 
L 394.807553 473.337636 
L 394.687207 470.216242 
L 391.046732 467.007898 
L 391.269621 463.971563 
L 387.984319 460.69169 
L 387.471055 457.435377 
L 382.516524 454.056632 
L 379.495595 450.658633 
L 375.402052 447.283644 
L 373.912735 444.019005 
L 371.626288 440.572052 
L 369.101026 437.266914 
L 367.117859 433.838311 
L 366.10608 430.494069 
L 361.001533 423.909407 
L 358.503973 420.556288 
L 357.901581 417.114571 
L 355.949025 413.768859 
L 353.558323 410.434525 
L 348.050757 407.130237 
L 349.827813 403.64455 
L 346.195005 400.219059 
L 343.820933 396.855921 
L 343.117008 393.454151 
L 337.740427 386.525196 
L 335.442047 383.09891 
L 336.119292 379.751298 
L 331.934609 376.262343 
L 327.154236 372.71786 
L 323.153843 369.181532 
L 319.908662 365.832168 
L 318.368158 362.316409 
L 318.389522 358.881608 
L 316.881407 355.309751 
L 316.033594 351.613555 
L 315.433386 347.896231 
L 313.30209 344.112591 
L 312.777668 340.399914 
L 315.168887 337.005716 
L 314.237332 333.658433 
L 313.474323 330.291044 
L 313.7289 326.995954 
L 317.407837 323.613909 
L 310.091494 319.569028 
L 310.659503 315.934926 
L 309.181886 311.90251 
L 303.727629 307.690418 
L 303.97765 303.995485 
L 303.721994 299.953202 
L 302.42951 295.396256 
L 301.801598 291.047358 
L 300.771183 287.12379 
L 300.550193 283.225333 
L 297.084709 279.17025 
L 293.866877 274.550309 
L 289.850243 270.090726 
L 289.579623 265.870494 
L 288.32154 261.593745 
L 288.383566 257.408956 
L 287.784443 253.07815 
L 286.441046 248.405521 
L 285.871933 244.022734 
L 289.373971 240.131616 
L 287.52125 235.797516 
L 302.375223 227.126618 
L 306.393069 223.361434 
L 312.206862 219.543594 
L 313.383465 215.874716 
L 315.21112 212.233433 
L 317.688941 208.349456 
L 317.489241 204.210255 
L 320.697605 200.08028 
L 318.201036 195.63815 
L 321.833829 191.180778 
L 324.033042 187.303673 
L 325.885301 183.415908 
L 328.908219 179.67509 
L 327.367993 175.547246 
L 332.61981 171.615484 
L 333.945287 167.756703 
L 333.300673 163.776514 
L 334.30529 159.725963 
L 331.803533 154.885083 
L 334.699497 149.937082 
L 339.313872 145.614372 
L 344.136142 140.727706 
L 344.528477 135.970806 
L 347.23652 130.668735 
L 345.616661 125.931306 
L 354.210347 121.64773 
L 359.696011 117.378887 
L 361.29039 113.530048 
L 360.709311 108.692295 
L 369.060472 103.945359 
L 367.241778 99.960056 
L 368.703547 95.389519 
L 369.231694 90.873078 
L 375.798708 86.498137 
L 377.639877 82.969359 
L 379.509705 77.76 
L 379.509705 77.76 
" clip-path="url(#p4eedd60bdb)" style="fill: none; stroke: #ff0000; stroke-width: 1.5; stroke-linecap: square"/>
   </g>
   <g id="line2d_47">
    <path d="M 347.501666 555.263804 
L 345.078086 555.251129 
L 340.488079 553.952862 
L 340.103343 551.204255 
L 339.420766 548.132632 
L 340.493601 545.327166 
L 339.225098 542.186505 
L 341.404699 539.137365 
L 338.807327 536.252648 
L 334.344072 533.518685 
L 326.893388 528.304383 
L 318.289932 525.514327 
L 307.840164 522.813166 
L 296.554627 520.06153 
L 247.840049 517.35918 
L 215.581408 514.666306 
L 198.428988 511.942775 
L 192.106479 509.209092 
L 200.543844 506.408867 
L 180.199648 503.646805 
L 171.283051 500.813949 
L 175.734691 497.943171 
L 184.088501 495.001511 
L 188.859891 491.979339 
L 260.944003 488.842887 
L 289.580835 485.741906 
L 297.196707 482.688391 
L 301.931969 479.599758 
L 300.408148 476.498362 
L 305.734201 473.337636 
L 292.083217 470.216242 
L 288.418181 467.007898 
L 276.276612 463.971563 
L 254.851884 460.69169 
L 256.019661 457.435377 
L 262.046279 454.056632 
L 274.392081 450.658633 
L 287.269439 447.283644 
L 294.492983 444.019005 
L 292.256091 440.572052 
L 284.998732 437.266914 
L 279.737998 433.838311 
L 266.50969 430.494069 
L 250.301319 427.263987 
L 239.995818 423.909407 
L 232.098766 420.556288 
L 226.58194 417.114571 
L 221.726751 413.768859 
L 217.655462 410.434525 
L 210.077535 407.130237 
L 235.028106 403.64455 
L 243.410979 400.219059 
L 254.994149 396.855921 
L 255.295898 393.454151 
L 248.053061 389.973754 
L 253.798291 386.525196 
L 257.621796 383.09891 
L 258.424977 379.751298 
L 252.205182 376.262343 
L 242.407866 372.71786 
L 234.594084 369.181532 
L 229.484499 365.832168 
L 227.399013 362.316409 
L 225.94122 358.881608 
L 221.618861 355.309751 
L 218.659479 351.613555 
L 214.650772 347.896231 
L 209.923364 344.112591 
L 206.405952 340.399914 
L 204.870576 337.005716 
L 200.9812 333.658433 
L 197.371892 330.291044 
L 194.795831 326.995954 
L 195.375792 323.613909 
L 187.326839 319.569028 
L 187.516123 315.934926 
L 184.04538 311.90251 
L 179.398782 307.690418 
L 177.841466 303.995485 
L 177.566386 299.953202 
L 175.231906 295.396256 
L 173.967896 291.047358 
L 173.484144 287.12379 
L 172.437536 283.225333 
L 169.427224 279.17025 
L 167.734757 274.550309 
L 163.511781 270.090726 
L 163.721793 265.870494 
L 163.336275 261.593745 
L 163.718248 257.408956 
L 163.995081 253.07815 
L 164.039765 244.022734 
L 167.623508 240.131616 
L 166.478066 235.797516 
L 173.552137 231.5087 
L 180.387749 227.126618 
L 184.12728 223.361434 
L 188.742617 219.543594 
L 189.69184 215.874716 
L 190.754251 212.233433 
L 192.173714 208.349456 
L 191.396021 204.210255 
L 194.167448 200.08028 
L 190.553906 195.63815 
L 192.980825 191.180778 
L 195.797623 187.303673 
L 195.160621 183.415908 
L 197.60032 179.67509 
L 195.318857 175.547246 
L 199.436864 171.615484 
L 200.987645 167.756703 
L 199.476855 163.776514 
L 199.255452 159.725963 
L 197.779908 154.885083 
L 198.923868 149.937082 
L 202.65636 145.614372 
L 207.747594 140.727706 
L 206.345484 135.970806 
L 208.067486 130.668735 
L 206.360603 125.931306 
L 213.463082 121.64773 
L 218.775038 117.378887 
L 219.013924 113.530048 
L 217.752589 108.692295 
L 226.316753 103.945359 
L 224.286517 99.960056 
L 223.584141 95.389519 
L 225.659678 90.873078 
L 231.685559 86.498137 
L 230.12848 82.969359 
L 232.761525 77.76 
L 232.761525 77.76 
" clip-path="url(#p4eedd60bdb)" style="fill: none; stroke: #008000; stroke-width: 1.5; stroke-linecap: square"/>
   </g>
   <g id="line2d_48">
    <path d="M 473.371333 555.263804 
L 459.137618 545.327166 
L 442.566594 533.518685 
L 427.861622 522.813166 
L 413.235272 511.942775 
L 398.575033 500.813949 
L 383.15443 488.842887 
L 367.625755 476.498362 
L 358.479981 460.69169 
L 352.311453 450.658633 
L 345.791336 440.572052 
L 338.953056 430.494069 
L 331.89378 420.556288 
L 324.388187 410.434525 
L 316.504675 400.219059 
L 308.309431 389.973754 
L 299.874367 379.751298 
L 288.041246 365.832168 
L 275.641137 351.613555 
L 253.779237 326.995954 
L 229.786433 299.953202 
L 215.217345 283.225333 
L 204.005826 270.090726 
L 193.405827 257.408956 
L 182.480201 244.022734 
L 172.525167 231.5087 
L 163.248516 219.543594 
L 154.787224 208.349456 
L 145.436095 195.63815 
L 136.702486 183.415908 
L 128.508888 171.615484 
L 120.488533 159.725963 
L 111.272027 145.614372 
L 101.864031 130.668735 
L 93.798584 117.378887 
L 85.928311 103.945359 
L 78.537647 90.873078 
L 71.384954 77.76 
L 71.384954 77.76 
" clip-path="url(#p4eedd60bdb)" style="fill: none; stroke: #000000; stroke-width: 1.5; stroke-linecap: square"/>
   </g>
   <g id="Barbs_1">
    <path d="M 583.2 551.588804 
L 582.064363 551.768672 
L 581.039889 552.290667 
L 580.226863 553.103694 
L 579.704867 554.128167 
L 579.525 555.263804 
L 579.704867 556.399442 
L 580.226863 557.423915 
L 581.039889 558.236942 
L 582.064363 558.758937 
L 583.2 558.938804 
L 584.335637 558.758937 
L 585.360111 558.236942 
L 586.173137 557.423915 
L 586.695133 556.399442 
L 586.875 555.263804 
L 586.695133 554.128167 
L 586.173137 553.103694 
L 585.360111 552.290667 
L 584.335637 551.768672 
L 583.2 551.588804 
L 583.2 551.588804 
L 584.335637 551.768672 
L 585.360111 552.290667 
L 586.173137 553.103694 
L 586.695133 554.128167 
L 586.875 555.263804 
L 586.695133 556.399442 
L 586.173137 557.423915 
L 585.360111 558.236942 
L 584.335637 558.758937 
L 583.2 558.938804 
L 582.064363 558.758937 
L 581.039889 558.236942 
L 580.226863 557.423915 
L 579.704867 556.399442 
L 579.525 555.263804 
L 579.704867 554.128167 
L 580.226863 553.103694 
L 581.039889 552.290667 
L 582.064363 551.768672 
L 583.2 551.588804 
z
" clip-path="url(#pcd63fae4bf)" style="stroke: #000000"/>
    <path d="M 583.2 544.457632 
L 582.064363 544.637499 
L 581.039889 545.159495 
L 580.226863 545.972521 
L 579.704867 546.996995 
L 579.525 548.132632 
L 579.704867 549.268269 
L 580.226863 550.292743 
L 581.039889 551.105769 
L 582.064363 551.627765 
L 583.2 551.807632 
L 584.335637 551.627765 
L 585.360111 551.105769 
L 586.173137 550.292743 
L 586.695133 549.268269 
L 586.875 548.132632 
L 586.695133 546.996995 
L 586.173137 545.972521 
L 585.360111 545.159495 
L 584.335637 544.637499 
L 583.2 544.457632 
L 583.2 544.457632 
L 584.335637 544.637499 
L 585.360111 545.159495 
L 586.173137 545.972521 
L 586.695133 546.996995 
L 586.875 548.132632 
L 586.695133 549.268269 
L 586.173137 550.292743 
L 585.360111 551.105769 
L 584.335637 551.627765 
L 583.2 551.807632 
L 582.064363 551.627765 
L 581.039889 551.105769 
L 580.226863 550.292743 
L 579.704867 549.268269 
L 579.525 548.132632 
L 579.704867 546.996995 
L 580.226863 545.972521 
L 581.039889 545.159495 
L 582.064363 544.637499 
L 583.2 544.457632 
z
" clip-path="url(#pcd63fae4bf)" style="stroke: #000000"/>
    <path d="M 583.2 529.843685 
L 582.064363 530.023552 
L 581.039889 530.545547 
L 580.226863 531.358574 
L 579.704867 532.383047 
L 579.525 533.518685 
L 579.704867 534.654322 
L 580.226863 535.678796 
L 581.039889 536.491822 
L 582.064363 537.013817 
L 583.2 537.193685 
L 584.335637 537.013817 
L 585.360111 536.491822 
L 586.173137 535.678796 
L 586.695133 534.654322 
L 586.875 533.518685 
L 586.695133 532.383047 
L 586.173137 531.358574 
L 585.360111 530.545547 
L 584.335637 530.023552 
L 583.2 529.843685 
L 583.2 529.843685 
L 584.335637 530.023552 
L 585.360111 530.545547 
L 586.173137 531.358574 
L 586.695133 532.383047 
L 586.875 533.518685 
L 586.695133 534.654322 
L 586.173137 535.678796 
L 585.360111 536.491822 
L 584.335637 537.013817 
L 583.2 537.193685 
L 582.064363 537.013817 
L 581.039889 536.491822 
L 580.226863 535.678796 
L 579.704867 534.654322 
L 579.525 533.518685 
L 579.704867 532.383047 
L 580.226863 531.358574 
L 581.039889 530.545547 
L 582.064363 530.023552 
L 583.2 529.843685 
z
" clip-path="url(#pcd63fae4bf)" style="stroke: #000000"/>
    <path d="M 583.2 520.06153 
L 568.448382 500.50035 
L 571.21431 504.168072 
L 574.20457 499.995174 
L 571.21431 504.168072 
z
" clip-path="url(#pcd63fae4bf)" style="stroke: #000000"/>
    <path d="M 583.2 506.408867 
L 559.305609 500.995174 
L 563.785807 502.010241 
L 563.375146 496.893007 
L 563.785807 502.010241 
z
" clip-path="url(#pcd63fae4bf)" style="stroke: #000000"/>
    <path d="M 583.2 491.979339 
L 561.871364 479.923664 
L 565.870483 482.184103 
L 566.948579 477.164896 
L 565.870483 482.184103 
z
" clip-path="url(#pcd63fae4bf)" style="stroke: #000000"/>
    <path d="M 583.2 476.498362 
L 559.919746 468.864244 
L 564.284793 470.295641 
L 564.356601 465.162458 
L 564.284793 470.295641 
z
" clip-path="url(#pcd63fae4bf)" style="stroke: #000000"/>
    <path d="M 583.2 460.69169 
L 558.719188 459.722227 
L 563.30934 459.904001 
L 561.973182 454.947248 
L 563.30934 459.904001 
z
" clip-path="url(#pcd63fae4bf)" style="stroke: #000000"/>
    <path d="M 583.2 444.019005 
L 558.707436 443.415433 
L 563.299792 443.528603 
L 561.889721 438.592366 
L 563.299792 443.528603 
z
" clip-path="url(#pcd63fae4bf)" style="stroke: #000000"/>
    <path d="M 583.2 427.263987 
L 559.132721 431.848318 
L 563.645336 430.988756 
L 561.224265 426.461821 
L 563.645336 430.988756 
z
" clip-path="url(#pcd63fae4bf)" style="stroke: #000000"/>
    <path d="M 583.2 410.434525 
L 559.080412 414.73516 
L 563.602835 413.928791 
L 561.235233 409.373663 
L 563.602835 413.928791 
z
" clip-path="url(#pcd63fae4bf)" style="stroke: #000000"/>
    <path d="M 583.2 393.454151 
L 558.707129 392.863163 
L 563.299542 392.973974 
L 561.886935 388.038463 
L 563.299542 392.973974 
z
" clip-path="url(#pcd63fae4bf)" style="stroke: #000000"/>
    <path d="M 583.2 376.262343 
L 559.217368 381.270671 
L 563.714111 380.33161 
L 561.213531 375.848104 
L 563.714111 380.33161 
z
" clip-path="url(#pcd63fae4bf)" style="stroke: #000000"/>
    <path d="M 583.2 358.881608 
L 558.755827 360.534612 
L 555.039104 350.963569 
L 558.755827 360.534612 
z
" clip-path="url(#pcd63fae4bf)" style="stroke: #000000"/>
    <path d="M 583.2 340.399914 
L 560.175458 348.773709 
L 553.947872 340.610617 
L 560.175458 348.773709 
z
" clip-path="url(#pcd63fae4bf)" style="stroke: #000000"/>
    <path d="M 583.2 323.613909 
L 560.215636 332.097364 
L 553.949208 323.96405 
L 560.215636 332.097364 
L 563.088681 331.036932 
L 559.955468 326.970275 
L 563.088681 331.036932 
z
" clip-path="url(#pcd63fae4bf)" style="stroke: #000000"/>
    <path d="M 583.2 303.995485 
L 560.787455 313.891334 
L 554.027547 306.163298 
L 560.787455 313.891334 
z
" clip-path="url(#pcd63fae4bf)" style="stroke: #000000"/>
    <path d="M 583.2 283.225333 
L 560.035817 291.20472 
L 553.948539 282.93647 
L 560.035817 291.20472 
z
" clip-path="url(#pcd63fae4bf)" style="stroke: #000000"/>
    <path d="M 583.2 261.593745 
L 560.246513 270.160391 
L 553.950668 262.049827 
L 560.246513 270.160391 
L 563.115699 269.08956 
L 559.967776 265.034278 
L 563.115699 269.08956 
z
" clip-path="url(#pcd63fae4bf)" style="stroke: #000000"/>
    <path d="M 583.2 240.131616 
L 559.201094 245.061376 
L 554.229327 236.078034 
L 559.201094 245.061376 
z
" clip-path="url(#pcd63fae4bf)" style="stroke: #000000"/>
    <path d="M 583.2 219.543594 
L 559.067576 223.771611 
L 554.359817 214.647143 
L 559.067576 223.771611 
z
" clip-path="url(#pcd63fae4bf)" style="stroke: #000000"/>
    <path d="M 583.2 200.08028 
L 559.13107 204.655933 
L 554.292192 195.600318 
L 559.13107 204.655933 
z
" clip-path="url(#pcd63fae4bf)" style="stroke: #000000"/>
    <path d="M 583.2 179.67509 
L 558.79429 181.822486 
L 554.884618 172.328627 
L 558.79429 181.822486 
z
" clip-path="url(#pcd63fae4bf)" style="stroke: #000000"/>
    <path d="M 583.2 159.725963 
L 558.709738 159.035249 
L 555.924741 149.152805 
L 558.709738 159.035249 
z
" clip-path="url(#pcd63fae4bf)" style="stroke: #000000"/>
    <path d="M 583.2 135.970806 
L 558.97201 132.330133 
L 557.399781 122.183853 
L 558.97201 132.330133 
z
" clip-path="url(#pcd63fae4bf)" style="stroke: #000000"/>
    <path d="M 583.2 113.530048 
L 558.700045 113.48308 
L 555.656338 103.677227 
L 558.700045 113.48308 
z
" clip-path="url(#pcd63fae4bf)" style="stroke: #000000"/>
    <path d="M 583.2 90.873078 
L 559.334767 85.332262 
L 563.809498 86.371165 
L 563.426084 81.251817 
L 563.809498 86.371165 
z
" clip-path="url(#pcd63fae4bf)" style="stroke: #000000"/>
   </g>
   <g id="patch_3">
    <path d="M 81 77.76 
L 583.2 77.76 
" style="fill: none; stroke: #000000; stroke-width: 0.8; stroke-linejoin: miter; stroke-linecap: square"/>
   </g>
   <g id="patch_4">
    <path d="M 81 567 
L 583.2 567 
" style="fill: none; stroke: #000000; stroke-width: 0.8; stroke-linejoin: miter; stroke-linecap: square"/>
   </g>
   <g id="patch_5">
    <path d="M 81 567 
L 81 77.76 
" style="fill: none; stroke: #000000; stroke-width: 0.8; stroke-linejoin: miter; stroke-linecap: square"/>
   </g>
   <g id="patch_6">
    <path d="M 583.2 567 
L 583.2 77.76 
" style="fill: none; stroke: #000000; stroke-width: 0.8; stroke-linejoin: miter; stroke-linecap: square"/>
   </g>
   <g id="legend_1">
    <g id="patch_7">
     <path d="M 420.330375 129.794375 
L 541.046 129.794375 
Q 543.046 129.794375 543.046 127.794375 
L 543.046 84.76 
Q 543.046 82.76 541.046 82.76 
L 420.330375 82.76 
Q 418.330375 82.76 418.330375 84.76 
L 418.330375 127.794375 
Q 418.330375 129.794375 420.330375 129.794375 
z
" style="fill: #ffffff; opacity: 0.8; stroke: #cccccc; stroke-linejoin: miter"/>
    </g>
    <g id="line2d_49">
     <path d="M 422.330375 90.858437 
L 432.330375 90.858437 
L 442.330375 90.858437 
" style="fill: none; stroke: #ff0000; stroke-width: 1.5; stroke-linecap: square"/>
    </g>
    <g id="text_23">
     <!-- Temperature -->
     <g transform="translate(450.330375 94.358437)scale(0.1 -0.1)">
      <defs>
       <path id="DejaVuSans-54" d="M -19 4666 
L 3928 4666 
L 3928 4134 
L 2272 4134 
L 2272 0 
L 1638 0 
L 1638 4134 
L -19 4134 
L -19 4666 
z
" transform="scale(0.015625)"/>
       <path id="DejaVuSans-6d" d="M 3328 2828 
Q 3544 3216 3844 3400 
Q 4144 3584 4550 3584 
Q 5097 3584 5394 3201 
Q 5691 2819 5691 2113 
L 5691 0 
L 5113 0 
L 5113 2094 
Q 5113 2597 4934 2840 
Q 4756 3084 4391 3084 
Q 3944 3084 3684 2787 
Q 3425 2491 3425 1978 
L 3425 0 
L 2847 0 
L 2847 2094 
Q 2847 2600 2669 2842 
Q 2491 3084 2119 3084 
Q 1678 3084 1418 2786 
Q 1159 2488 1159 1978 
L 1159 0 
L 581 0 
L 581 3500 
L 1159 3500 
L 1159 2956 
Q 1356 3278 1631 3431 
Q 1906 3584 2284 3584 
Q 2666 3584 2933 3390 
Q 3200 3197 3328 2828 
z
" transform="scale(0.015625)"/>
      </defs>
      <use xlink:href="#DejaVuSans-54"/>
      <use xlink:href="#DejaVuSans-65" x="44.083984"/>
      <use xlink:href="#DejaVuSans-6d" x="105.607422"/>
      <use xlink:href="#DejaVuSans-70" x="203.019531"/>
      <use xlink:href="#DejaVuSans-65" x="266.496094"/>
      <use xlink:href="#DejaVuSans-72" x="328.019531"/>
      <use xlink:href="#DejaVuSans-61" x="369.132812"/>
      <use xlink:href="#DejaVuSans-74" x="430.412109"/>
      <use xlink:href="#DejaVuSans-75" x="469.621094"/>
      <use xlink:href="#DejaVuSans-72" x="533"/>
      <use xlink:href="#DejaVuSans-65" x="571.863281"/>
     </g>
    </g>
    <g id="line2d_50">
     <path d="M 422.330375 105.536562 
L 432.330375 105.536562 
L 442.330375 105.536562 
" style="fill: none; stroke: #008000; stroke-width: 1.5; stroke-linecap: square"/>
    </g>
    <g id="text_24">
     <!-- Dew Point -->
     <g transform="translate(450.330375 109.036562)scale(0.1 -0.1)">
      <defs>
       <path id="DejaVuSans-44" d="M 1259 4147 
L 1259 519 
L 2022 519 
Q 2988 519 3436 956 
Q 3884 1394 3884 2338 
Q 3884 3275 3436 3711 
Q 2988 4147 2022 4147 
L 1259 4147 
z
M 628 4666 
L 1925 4666 
Q 3281 4666 3915 4102 
Q 4550 3538 4550 2338 
Q 4550 1131 3912 565 
Q 3275 0 1925 0 
L 628 0 
L 628 4666 
z
" transform="scale(0.015625)"/>
       <path id="DejaVuSans-77" d="M 269 3500 
L 844 3500 
L 1563 769 
L 2278 3500 
L 2956 3500 
L 3675 769 
L 4391 3500 
L 4966 3500 
L 4050 0 
L 3372 0 
L 2619 2869 
L 1863 0 
L 1184 0 
L 269 3500 
z
" transform="scale(0.015625)"/>
       <path id="DejaVuSans-20" transform="scale(0.015625)"/>
       <path id="DejaVuSans-50" d="M 1259 4147 
L 1259 2394 
L 2053 2394 
Q 2494 2394 2734 2622 
Q 2975 2850 2975 3272 
Q 2975 3691 2734 3919 
Q 2494 4147 2053 4147 
L 1259 4147 
z
M 628 4666 
L 2053 4666 
Q 2838 4666 3239 4311 
Q 3641 3956 3641 3272 
Q 3641 2581 3239 2228 
Q 2838 1875 2053 1875 
L 1259 1875 
L 1259 0 
L 628 0 
L 628 4666 
z
" transform="scale(0.015625)"/>
       <path id="DejaVuSans-6e" d="M 3513 2113 
L 3513 0 
L 2938 0 
L 2938 2094 
Q 2938 2591 2744 2837 
Q 2550 3084 2163 3084 
Q 1697 3084 1428 2787 
Q 1159 2491 1159 1978 
L 1159 0 
L 581 0 
L 581 3500 
L 1159 3500 
L 1159 2956 
Q 1366 3272 1645 3428 
Q 1925 3584 2291 3584 
Q 2894 3584 3203 3211 
Q 3513 2838 3513 2113 
z
" transform="scale(0.015625)"/>
      </defs>
      <use xlink:href="#DejaVuSans-44"/>
      <use xlink:href="#DejaVuSans-65" x="77.001953"/>
      <use xlink:href="#DejaVuSans-77" x="138.525391"/>
      <use xlink:href="#DejaVuSans-20" x="220.3125"/>
      <use xlink:href="#DejaVuSans-50" x="252.099609"/>
      <use xlink:href="#DejaVuSans-6f" x="308.777344"/>
      <use xlink:href="#DejaVuSans-69" x="369.958984"/>
      <use xlink:href="#DejaVuSans-6e" x="397.742188"/>
      <use xlink:href="#DejaVuSans-74" x="461.121094"/>
     </g>
    </g>
    <g id="line2d_51">
     <path d="M 422.330375 120.214687 
L 432.330375 120.214687 
L 442.330375 120.214687 
" style="fill: none; stroke: #000000; stroke-width: 1.5; stroke-linecap: square"/>
    </g>
    <g id="text_25">
     <!-- Parcel Lapse Rate -->
     <g transform="translate(450.330375 123.714687)scale(0.1 -0.1)">
      <defs>
       <path id="DejaVuSans-4c" d="M 628 4666 
L 1259 4666 
L 1259 531 
L 3531 531 
L 3531 0 
L 628 0 
L 628 4666 
z
" transform="scale(0.015625)"/>
       <path id="DejaVuSans-52" d="M 2841 2188 
Q 3044 2119 3236 1894 
Q 3428 1669 3622 1275 
L 4263 0 
L 3584 0 
L 2988 1197 
Q 2756 1666 2539 1819 
Q 2322 1972 1947 1972 
L 1259 1972 
L 1259 0 
L 628 0 
L 628 4666 
L 2053 4666 
Q 2853 4666 3247 4331 
Q 3641 3997 3641 3322 
Q 3641 2881 3436 2590 
Q 3231 2300 2841 2188 
z
M 1259 4147 
L 1259 2491 
L 2053 2491 
Q 2509 2491 2742 2702 
Q 2975 2913 2975 3322 
Q 2975 3731 2742 3939 
Q 2509 4147 2053 4147 
L 1259 4147 
z
" transform="scale(0.015625)"/>
      </defs>
      <use xlink:href="#DejaVuSans-50"/>
      <use xlink:href="#DejaVuSans-61" x="55.802734"/>
      <use xlink:href="#DejaVuSans-72" x="117.082031"/>
      <use xlink:href="#DejaVuSans-63" x="155.945312"/>
      <use xlink:href="#DejaVuSans-65" x="210.925781"/>
      <use xlink:href="#DejaVuSans-6c" x="272.449219"/>
      <use xlink:href="#DejaVuSans-20" x="300.232422"/>
      <use xlink:href="#DejaVuSans-4c" x="332.019531"/>
      <use xlink:href="#DejaVuSans-61" x="387.732422"/>
      <use xlink:href="#DejaVuSans-70" x="449.011719"/>
      <use xlink:href="#DejaVuSans-73" x="512.488281"/>
      <use xlink:href="#DejaVuSans-65" x="564.587891"/>
      <use xlink:href="#DejaVuSans-20" x="626.111328"/>
      <use xlink:href="#DejaVuSans-52" x="657.898438"/>
      <use xlink:href="#DejaVuSans-61" x="725.130859"/>
      <use xlink:href="#DejaVuSans-74" x="786.410156"/>
      <use xlink:href="#DejaVuSans-65" x="825.619141"/>
     </g>
    </g>
   </g>
  </g>
 </g>
 <defs>
  <clipPath id="p4eedd60bdb">
   <rect x="81" y="77.76" width="502.2" height="489.24"/>
  </clipPath>
  <clipPath id="pcd63fae4bf">
   <rect x="532.98" y="38.6208" width="100.44" height="567.5184"/>
  </clipPath>
 </defs>
</svg>
