<?xml version="1.0" encoding="UTF-8" standalone="no"?>
<!DOCTYPE svg PUBLIC "-//W3C//DTD SVG 1.1//EN"
 "http://www.w3.org/Graphics/SVG/1.1/DTD/svg11.dtd">
<!-- Generated by graphviz version 2.43.0 (0)
 -->
<!-- Title: AS7331Sensor.cpp Pages: 1 -->
<svg width="496pt" height="302pt"
 viewBox="0.00 0.00 495.50 302.00" xmlns="http://www.w3.org/2000/svg" xmlns:xlink="http://www.w3.org/1999/xlink">
<g id="graph0" class="graph" transform="scale(1 1) rotate(0) translate(4 298)">
<title>AS7331Sensor.cpp</title>
<!-- Node1 -->
<g id="Node000001" class="node">
<title>Node1</title>
<g id="a_Node000001"><a xlink:title=" ">
<polygon fill="#999999" stroke="#666666" points="193.5,-294 87.5,-294 87.5,-275 193.5,-275 193.5,-294"/>
<text text-anchor="middle" x="140.5" y="-282" font-family="Helvetica,sans-Serif" font-size="10.00">AS7331Sensor.cpp</text>
</a>
</g>
</g>
<!-- Node2 -->
<g id="Node000002" class="node">
<title>Node2</title>
<g id="a_Node000002"><a xlink:href="AS7331Sensor_8h.html" target="_top" xlink:title=" ">
<polygon fill="white" stroke="#666666" points="237,-239 142,-239 142,-220 237,-220 237,-239"/>
<text text-anchor="middle" x="189.5" y="-227" font-family="Helvetica,sans-Serif" font-size="10.00">AS7331Sensor.h</text>
</a>
</g>
</g>
<!-- Node1&#45;&gt;Node2 -->
<g id="edge1_Node000001_Node000002" class="edge">
<title>Node1&#45;&gt;Node2</title>
<g id="a_edge1_Node000001_Node000002"><a xlink:title=" ">
<path fill="none" stroke="#63b8ff" d="M148.59,-274.75C155.66,-267.11 166.09,-255.82 174.65,-246.56"/>
<polygon fill="#63b8ff" stroke="#63b8ff" points="177.34,-248.81 181.56,-239.09 172.2,-244.06 177.34,-248.81"/>
</a>
</g>
</g>
<!-- Node3 -->
<g id="Node000003" class="node">
<title>Node3</title>
<g id="a_Node000003"><a xlink:title=" ">
<polygon fill="#e0e0e0" stroke="#999999" points="113,-184 0,-184 0,-165 113,-165 113,-184"/>
<text text-anchor="middle" x="56.5" y="-172" font-family="Helvetica,sans-Serif" font-size="10.00">SparkFun_AS7331.h</text>
</a>
</g>
</g>
<!-- Node1&#45;&gt;Node3 -->
<g id="edge13_Node000001_Node000003" class="edge">
<title>Node1&#45;&gt;Node3</title>
<g id="a_edge13_Node000001_Node000003"><a xlink:title=" ">
<path fill="none" stroke="#63b8ff" d="M133.63,-274.66C119.59,-256.61 87.44,-215.28 69.39,-192.08"/>
<polygon fill="#63b8ff" stroke="#63b8ff" points="72.14,-189.9 63.23,-184.16 66.61,-194.2 72.14,-189.9"/>
</a>
</g>
</g>
<!-- Node2&#45;&gt;Node3 -->
<g id="edge2_Node000002_Node000003" class="edge">
<title>Node2&#45;&gt;Node3</title>
<g id="a_edge2_Node000002_Node000003"><a xlink:title=" ">
<path fill="none" stroke="#63b8ff" d="M168.13,-219.98C146.35,-211.3 112.34,-197.75 87.58,-187.88"/>
<polygon fill="#63b8ff" stroke="#63b8ff" points="88.84,-184.62 78.26,-184.17 86.25,-191.12 88.84,-184.62"/>
</a>
</g>
</g>
<!-- Node4 -->
<g id="Node000004" class="node">
<title>Node4</title>
<g id="a_Node000004"><a xlink:title=" ">
<polygon fill="#e0e0e0" stroke="#999999" points="179.5,-184 131.5,-184 131.5,-165 179.5,-165 179.5,-184"/>
<text text-anchor="middle" x="155.5" y="-172" font-family="Helvetica,sans-Serif" font-size="10.00">Wire.h</text>
</a>
</g>
</g>
<!-- Node2&#45;&gt;Node4 -->
<g id="edge3_Node000002_Node000004" class="edge">
<title>Node2&#45;&gt;Node4</title>
<g id="a_edge3_Node000002_Node000004"><a xlink:title=" ">
<path fill="none" stroke="#63b8ff" d="M183.89,-219.75C179.18,-212.42 172.33,-201.73 166.53,-192.7"/>
<polygon fill="#63b8ff" stroke="#63b8ff" points="169.36,-190.62 161.01,-184.09 163.46,-194.4 169.36,-190.62"/>
</a>
</g>
</g>
<!-- Node5 -->
<g id="Node000005" class="node">
<title>Node5</title>
<g id="a_Node000005"><a xlink:title=" ">
<polygon fill="#e0e0e0" stroke="#999999" points="251,-184 198,-184 198,-165 251,-165 251,-184"/>
<text text-anchor="middle" x="224.5" y="-172" font-family="Helvetica,sans-Serif" font-size="10.00">string.h</text>
</a>
</g>
</g>
<!-- Node2&#45;&gt;Node5 -->
<g id="edge4_Node000002_Node000005" class="edge">
<title>Node2&#45;&gt;Node5</title>
<g id="a_edge4_Node000002_Node000005"><a xlink:title=" ">
<path fill="none" stroke="#63b8ff" d="M195.28,-219.75C200.12,-212.42 207.18,-201.73 213.14,-192.7"/>
<polygon fill="#63b8ff" stroke="#63b8ff" points="216.24,-194.36 218.83,-184.09 210.4,-190.5 216.24,-194.36"/>
</a>
</g>
</g>
<!-- Node6 -->
<g id="Node000006" class="node">
<title>Node6</title>
<g id="a_Node000006"><a xlink:href="PayloadConfig_8h.html" target="_top" xlink:title="Central location for pinout and config defines.">
<polygon fill="white" stroke="#666666" points="364,-184 269,-184 269,-165 364,-165 364,-184"/>
<text text-anchor="middle" x="316.5" y="-172" font-family="Helvetica,sans-Serif" font-size="10.00">PayloadConfig.h</text>
</a>
</g>
</g>
<!-- Node2&#45;&gt;Node6 -->
<g id="edge5_Node000002_Node000006" class="edge">
<title>Node2&#45;&gt;Node6</title>
<g id="a_edge5_Node000002_Node000006"><a xlink:title=" ">
<path fill="none" stroke="#63b8ff" d="M209.9,-219.98C230.52,-211.38 262.61,-197.99 286.19,-188.15"/>
<polygon fill="#63b8ff" stroke="#63b8ff" points="287.84,-191.25 295.72,-184.17 285.15,-184.79 287.84,-191.25"/>
</a>
</g>
</g>
<!-- Node7 -->
<g id="Node000007" class="node">
<title>Node7</title>
<g id="a_Node000007"><a xlink:href="Sensor_8h.html" target="_top" xlink:title=" ">
<polygon fill="white" stroke="#666666" points="440.5,-184 382.5,-184 382.5,-165 440.5,-165 440.5,-184"/>
<text text-anchor="middle" x="411.5" y="-172" font-family="Helvetica,sans-Serif" font-size="10.00">Sensor.h</text>
</a>
</g>
</g>
<!-- Node2&#45;&gt;Node7 -->
<g id="edge6_Node000002_Node000007" class="edge">
<title>Node2&#45;&gt;Node7</title>
<g id="a_edge6_Node000002_Node000007"><a xlink:title=" ">
<path fill="none" stroke="#63b8ff" d="M225.17,-219.98C265.48,-210.36 330.88,-194.75 372.51,-184.81"/>
<polygon fill="#63b8ff" stroke="#63b8ff" points="373.39,-188.2 382.3,-182.47 371.76,-181.39 373.39,-188.2"/>
</a>
</g>
</g>
<!-- Node8 -->
<g id="Node000008" class="node">
<title>Node8</title>
<g id="a_Node000008"><a xlink:title=" ">
<polygon fill="#e0e0e0" stroke="#999999" points="433,-19 370,-19 370,0 433,0 433,-19"/>
<text text-anchor="middle" x="401.5" y="-7" font-family="Helvetica,sans-Serif" font-size="10.00">Arduino.h</text>
</a>
</g>
</g>
<!-- Node7&#45;&gt;Node8 -->
<g id="edge7_Node000007_Node000008" class="edge">
<title>Node7&#45;&gt;Node8</title>
<g id="a_edge7_Node000007_Node000008"><a xlink:title=" ">
<path fill="none" stroke="#63b8ff" d="M400.79,-164.93C391.57,-156.8 378.91,-143.68 373.5,-129 360.63,-94.12 378.66,-51.23 391.21,-27.81"/>
<polygon fill="#63b8ff" stroke="#63b8ff" points="394.29,-29.47 396.14,-19.04 388.19,-26.04 394.29,-29.47"/>
</a>
</g>
</g>
<!-- Node9 -->
<g id="Node000009" class="node">
<title>Node9</title>
<g id="a_Node000009"><a xlink:href="Device_8h.html" target="_top" xlink:title=" ">
<polygon fill="white" stroke="#666666" points="441,-129 382,-129 382,-110 441,-110 441,-129"/>
<text text-anchor="middle" x="411.5" y="-117" font-family="Helvetica,sans-Serif" font-size="10.00">Device.h</text>
</a>
</g>
</g>
<!-- Node7&#45;&gt;Node9 -->
<g id="edge8_Node000007_Node000009" class="edge">
<title>Node7&#45;&gt;Node9</title>
<g id="a_edge8_Node000007_Node000009"><a xlink:title=" ">
<path fill="none" stroke="#63b8ff" d="M411.5,-164.75C411.5,-157.8 411.5,-147.85 411.5,-139.13"/>
<polygon fill="#63b8ff" stroke="#63b8ff" points="415,-139.09 411.5,-129.09 408,-139.09 415,-139.09"/>
</a>
</g>
</g>
<!-- Node10 -->
<g id="Node000010" class="node">
<title>Node10</title>
<g id="a_Node000010"><a xlink:href="Logger_8h.html" target="_top" xlink:title=" ">
<polygon fill="white" stroke="#666666" points="487.5,-74 429.5,-74 429.5,-55 487.5,-55 487.5,-74"/>
<text text-anchor="middle" x="458.5" y="-62" font-family="Helvetica,sans-Serif" font-size="10.00">Logger.h</text>
</a>
</g>
</g>
<!-- Node7&#45;&gt;Node10 -->
<g id="edge12_Node000007_Node000010" class="edge">
<title>Node7&#45;&gt;Node10</title>
<g id="a_edge12_Node000007_Node000010"><a xlink:title=" ">
<path fill="none" stroke="#63b8ff" d="M422.05,-164.81C431.22,-156.6 444.01,-143.43 450.5,-129 456.84,-114.89 458.65,-97.35 458.98,-84.28"/>
<polygon fill="#63b8ff" stroke="#63b8ff" points="462.48,-84.14 458.97,-74.14 455.48,-84.15 462.48,-84.14"/>
</a>
</g>
</g>
<!-- Node9&#45;&gt;Node8 -->
<g id="edge9_Node000009_Node000008" class="edge">
<title>Node9&#45;&gt;Node8</title>
<g id="a_edge9_Node000009_Node000008"><a xlink:title=" ">
<path fill="none" stroke="#63b8ff" d="M410.68,-109.66C409.06,-92.17 405.42,-52.8 403.24,-29.27"/>
<polygon fill="#63b8ff" stroke="#63b8ff" points="406.71,-28.79 402.3,-19.16 399.74,-29.44 406.71,-28.79"/>
</a>
</g>
</g>
<!-- Node9&#45;&gt;Node10 -->
<g id="edge10_Node000009_Node000010" class="edge">
<title>Node9&#45;&gt;Node10</title>
<g id="a_edge10_Node000009_Node000010"><a xlink:title=" ">
<path fill="none" stroke="#63b8ff" d="M419.26,-109.75C425.97,-102.18 435.84,-91.05 444.01,-81.84"/>
<polygon fill="#63b8ff" stroke="#63b8ff" points="446.87,-83.89 450.88,-74.09 441.63,-79.25 446.87,-83.89"/>
</a>
</g>
</g>
<!-- Node10&#45;&gt;Node8 -->
<g id="edge11_Node000010_Node000008" class="edge">
<title>Node10&#45;&gt;Node8</title>
<g id="a_edge11_Node000010_Node000008"><a xlink:title=" ">
<path fill="none" stroke="#63b8ff" d="M449.34,-54.98C441,-47.23 428.47,-35.58 418.32,-26.14"/>
<polygon fill="#63b8ff" stroke="#63b8ff" points="420.53,-23.42 410.82,-19.17 415.76,-28.54 420.53,-23.42"/>
</a>
</g>
</g>
</g>
</svg>
