<?xml version="1.0" encoding="UTF-8" standalone="no"?>
<!DOCTYPE svg PUBLIC "-//W3C//DTD SVG 1.1//EN"
 "http://www.w3.org/Graphics/SVG/1.1/DTD/svg11.dtd">
<!-- Generated by graphviz version 2.43.0 (0)
 -->
<!-- Title: AS7331Sensor.cpp Pages: 1 -->
<svg width="383pt" height="302pt"
 viewBox="0.00 0.00 382.50 302.00" xmlns="http://www.w3.org/2000/svg" xmlns:xlink="http://www.w3.org/1999/xlink">
<g id="graph0" class="graph" transform="scale(1 1) rotate(0) translate(4 298)">
<title>AS7331Sensor.cpp</title>
<!-- Node1 -->
<g id="Node000001" class="node">
<title>Node1</title>
<g id="a_Node000001"><a xlink:title=" ">
<polygon fill="#999999" stroke="#666666" points="159.5,-294 53.5,-294 53.5,-275 159.5,-275 159.5,-294"/>
<text text-anchor="middle" x="106.5" y="-282" font-family="Helvetica,sans-Serif" font-size="10.00">AS7331Sensor.cpp</text>
</a>
</g>
</g>
<!-- Node2 -->
<g id="Node000002" class="node">
<title>Node2</title>
<g id="a_Node000002"><a xlink:href="AS7331Sensor_8h.html" target="_top" xlink:title=" ">
<polygon fill="white" stroke="#666666" points="203,-239 108,-239 108,-220 203,-220 203,-239"/>
<text text-anchor="middle" x="155.5" y="-227" font-family="Helvetica,sans-Serif" font-size="10.00">AS7331Sensor.h</text>
</a>
</g>
</g>
<!-- Node1&#45;&gt;Node2 -->
<g id="edge1_Node000001_Node000002" class="edge">
<title>Node1&#45;&gt;Node2</title>
<g id="a_edge1_Node000001_Node000002"><a xlink:title=" ">
<path fill="none" stroke="#63b8ff" d="M114.59,-274.75C121.66,-267.11 132.09,-255.82 140.65,-246.56"/>
<polygon fill="#63b8ff" stroke="#63b8ff" points="143.34,-248.81 147.56,-239.09 138.2,-244.06 143.34,-248.81"/>
</a>
</g>
</g>
<!-- Node3 -->
<g id="Node000003" class="node">
<title>Node3</title>
<g id="a_Node000003"><a xlink:title=" ">
<polygon fill="#e0e0e0" stroke="#999999" points="113,-184 0,-184 0,-165 113,-165 113,-184"/>
<text text-anchor="middle" x="56.5" y="-172" font-family="Helvetica,sans-Serif" font-size="10.00">SparkFun_AS7331.h</text>
</a>
</g>
</g>
<!-- Node1&#45;&gt;Node3 -->
<g id="edge12_Node000001_Node000003" class="edge">
<title>Node1&#45;&gt;Node3</title>
<g id="a_edge12_Node000001_Node000003"><a xlink:title=" ">
<path fill="none" stroke="#63b8ff" d="M102.41,-274.66C94.2,-256.93 75.59,-216.73 64.75,-193.32"/>
<polygon fill="#63b8ff" stroke="#63b8ff" points="67.89,-191.76 60.51,-184.16 61.53,-194.7 67.89,-191.76"/>
</a>
</g>
</g>
<!-- Node2&#45;&gt;Node3 -->
<g id="edge2_Node000002_Node000003" class="edge">
<title>Node2&#45;&gt;Node3</title>
<g id="a_edge2_Node000002_Node000003"><a xlink:title=" ">
<path fill="none" stroke="#63b8ff" d="M139.59,-219.98C123.95,-211.61 99.84,-198.7 81.62,-188.95"/>
<polygon fill="#63b8ff" stroke="#63b8ff" points="83.16,-185.8 72.7,-184.17 79.86,-191.98 83.16,-185.8"/>
</a>
</g>
</g>
<!-- Node4 -->
<g id="Node000004" class="node">
<title>Node4</title>
<g id="a_Node000004"><a xlink:title=" ">
<polygon fill="#e0e0e0" stroke="#999999" points="179.5,-184 131.5,-184 131.5,-165 179.5,-165 179.5,-184"/>
<text text-anchor="middle" x="155.5" y="-172" font-family="Helvetica,sans-Serif" font-size="10.00">Wire.h</text>
</a>
</g>
</g>
<!-- Node2&#45;&gt;Node4 -->
<g id="edge3_Node000002_Node000004" class="edge">
<title>Node2&#45;&gt;Node4</title>
<g id="a_edge3_Node000002_Node000004"><a xlink:title=" ">
<path fill="none" stroke="#63b8ff" d="M155.5,-219.75C155.5,-212.8 155.5,-202.85 155.5,-194.13"/>
<polygon fill="#63b8ff" stroke="#63b8ff" points="159,-194.09 155.5,-184.09 152,-194.09 159,-194.09"/>
</a>
</g>
</g>
<!-- Node5 -->
<g id="Node000005" class="node">
<title>Node5</title>
<g id="a_Node000005"><a xlink:title=" ">
<polygon fill="#e0e0e0" stroke="#999999" points="251,-184 198,-184 198,-165 251,-165 251,-184"/>
<text text-anchor="middle" x="224.5" y="-172" font-family="Helvetica,sans-Serif" font-size="10.00">string.h</text>
</a>
</g>
</g>
<!-- Node2&#45;&gt;Node5 -->
<g id="edge4_Node000002_Node000005" class="edge">
<title>Node2&#45;&gt;Node5</title>
<g id="a_edge4_Node000002_Node000005"><a xlink:title=" ">
<path fill="none" stroke="#63b8ff" d="M166.59,-219.98C176.99,-212 192.76,-199.88 205.22,-190.31"/>
<polygon fill="#63b8ff" stroke="#63b8ff" points="207.41,-193.04 213.21,-184.17 203.15,-187.49 207.41,-193.04"/>
</a>
</g>
</g>
<!-- Node6 -->
<g id="Node000006" class="node">
<title>Node6</title>
<g id="a_Node000006"><a xlink:href="Sensor_8h.html" target="_top" xlink:title=" ">
<polygon fill="white" stroke="#666666" points="327.5,-184 269.5,-184 269.5,-165 327.5,-165 327.5,-184"/>
<text text-anchor="middle" x="298.5" y="-172" font-family="Helvetica,sans-Serif" font-size="10.00">Sensor.h</text>
</a>
</g>
</g>
<!-- Node2&#45;&gt;Node6 -->
<g id="edge5_Node000002_Node000006" class="edge">
<title>Node2&#45;&gt;Node6</title>
<g id="a_edge5_Node000002_Node000006"><a xlink:title=" ">
<path fill="none" stroke="#63b8ff" d="M178.48,-219.98C202,-211.27 238.79,-197.63 265.44,-187.75"/>
<polygon fill="#63b8ff" stroke="#63b8ff" points="266.95,-190.93 275.11,-184.17 264.51,-184.36 266.95,-190.93"/>
</a>
</g>
</g>
<!-- Node7 -->
<g id="Node000007" class="node">
<title>Node7</title>
<g id="a_Node000007"><a xlink:title=" ">
<polygon fill="#e0e0e0" stroke="#999999" points="320,-19 257,-19 257,0 320,0 320,-19"/>
<text text-anchor="middle" x="288.5" y="-7" font-family="Helvetica,sans-Serif" font-size="10.00">Arduino.h</text>
</a>
</g>
</g>
<!-- Node6&#45;&gt;Node7 -->
<g id="edge6_Node000006_Node000007" class="edge">
<title>Node6&#45;&gt;Node7</title>
<g id="a_edge6_Node000006_Node000007"><a xlink:title=" ">
<path fill="none" stroke="#63b8ff" d="M287.79,-164.93C278.57,-156.8 265.91,-143.68 260.5,-129 247.63,-94.12 265.66,-51.23 278.21,-27.81"/>
<polygon fill="#63b8ff" stroke="#63b8ff" points="281.29,-29.47 283.14,-19.04 275.19,-26.04 281.29,-29.47"/>
</a>
</g>
</g>
<!-- Node8 -->
<g id="Node000008" class="node">
<title>Node8</title>
<g id="a_Node000008"><a xlink:href="Device_8h.html" target="_top" xlink:title=" ">
<polygon fill="white" stroke="#666666" points="328,-129 269,-129 269,-110 328,-110 328,-129"/>
<text text-anchor="middle" x="298.5" y="-117" font-family="Helvetica,sans-Serif" font-size="10.00">Device.h</text>
</a>
</g>
</g>
<!-- Node6&#45;&gt;Node8 -->
<g id="edge7_Node000006_Node000008" class="edge">
<title>Node6&#45;&gt;Node8</title>
<g id="a_edge7_Node000006_Node000008"><a xlink:title=" ">
<path fill="none" stroke="#63b8ff" d="M298.5,-164.75C298.5,-157.8 298.5,-147.85 298.5,-139.13"/>
<polygon fill="#63b8ff" stroke="#63b8ff" points="302,-139.09 298.5,-129.09 295,-139.09 302,-139.09"/>
</a>
</g>
</g>
<!-- Node9 -->
<g id="Node000009" class="node">
<title>Node9</title>
<g id="a_Node000009"><a xlink:href="Logger_8h.html" target="_top" xlink:title=" ">
<polygon fill="white" stroke="#666666" points="374.5,-74 316.5,-74 316.5,-55 374.5,-55 374.5,-74"/>
<text text-anchor="middle" x="345.5" y="-62" font-family="Helvetica,sans-Serif" font-size="10.00">Logger.h</text>
</a>
</g>
</g>
<!-- Node6&#45;&gt;Node9 -->
<g id="edge11_Node000006_Node000009" class="edge">
<title>Node6&#45;&gt;Node9</title>
<g id="a_edge11_Node000006_Node000009"><a xlink:title=" ">
<path fill="none" stroke="#63b8ff" d="M309.05,-164.81C318.22,-156.6 331.01,-143.43 337.5,-129 343.84,-114.89 345.65,-97.35 345.98,-84.28"/>
<polygon fill="#63b8ff" stroke="#63b8ff" points="349.48,-84.14 345.97,-74.14 342.48,-84.15 349.48,-84.14"/>
</a>
</g>
</g>
<!-- Node8&#45;&gt;Node7 -->
<g id="edge8_Node000008_Node000007" class="edge">
<title>Node8&#45;&gt;Node7</title>
<g id="a_edge8_Node000008_Node000007"><a xlink:title=" ">
<path fill="none" stroke="#63b8ff" d="M297.68,-109.66C296.06,-92.17 292.42,-52.8 290.24,-29.27"/>
<polygon fill="#63b8ff" stroke="#63b8ff" points="293.71,-28.79 289.3,-19.16 286.74,-29.44 293.71,-28.79"/>
</a>
</g>
</g>
<!-- Node8&#45;&gt;Node9 -->
<g id="edge9_Node000008_Node000009" class="edge">
<title>Node8&#45;&gt;Node9</title>
<g id="a_edge9_Node000008_Node000009"><a xlink:title=" ">
<path fill="none" stroke="#63b8ff" d="M306.26,-109.75C312.97,-102.18 322.84,-91.05 331.01,-81.84"/>
<polygon fill="#63b8ff" stroke="#63b8ff" points="333.87,-83.89 337.88,-74.09 328.63,-79.25 333.87,-83.89"/>
</a>
</g>
</g>
<!-- Node9&#45;&gt;Node7 -->
<g id="edge10_Node000009_Node000007" class="edge">
<title>Node9&#45;&gt;Node7</title>
<g id="a_edge10_Node000009_Node000007"><a xlink:title=" ">
<path fill="none" stroke="#63b8ff" d="M336.34,-54.98C328,-47.23 315.47,-35.58 305.32,-26.14"/>
<polygon fill="#63b8ff" stroke="#63b8ff" points="307.53,-23.42 297.82,-19.17 302.76,-28.54 307.53,-23.42"/>
</a>
</g>
</g>
</g>
</svg>
