<?xml version="1.0" encoding="UTF-8" standalone="no"?>
<!DOCTYPE svg PUBLIC "-//W3C//DTD SVG 1.1//EN"
 "http://www.w3.org/Graphics/SVG/1.1/DTD/svg11.dtd">
<!-- Generated by graphviz version 2.43.0 (0)
 -->
<!-- Title: AS7331Sensor.cpp Pages: 1 -->
<svg width="364pt" height="247pt"
 viewBox="0.00 0.00 363.50 247.00" xmlns="http://www.w3.org/2000/svg" xmlns:xlink="http://www.w3.org/1999/xlink">
<g id="graph0" class="graph" transform="scale(1 1) rotate(0) translate(4 243)">
<title>AS7331Sensor.cpp</title>
<!-- Node1 -->
<g id="Node000001" class="node">
<title>Node1</title>
<g id="a_Node000001"><a xlink:title=" ">
<polygon fill="#999999" stroke="#666666" points="159.5,-239 53.5,-239 53.5,-220 159.5,-220 159.5,-239"/>
<text text-anchor="middle" x="106.5" y="-227" font-family="Helvetica,sans-Serif" font-size="10.00">AS7331Sensor.cpp</text>
</a>
</g>
</g>
<!-- Node2 -->
<g id="Node000002" class="node">
<title>Node2</title>
<g id="a_Node000002"><a xlink:href="AS7331Sensor_8h.html" target="_top" xlink:title=" ">
<polygon fill="white" stroke="#666666" points="203,-184 108,-184 108,-165 203,-165 203,-184"/>
<text text-anchor="middle" x="155.5" y="-172" font-family="Helvetica,sans-Serif" font-size="10.00">AS7331Sensor.h</text>
</a>
</g>
</g>
<!-- Node1&#45;&gt;Node2 -->
<g id="edge1_Node000001_Node000002" class="edge">
<title>Node1&#45;&gt;Node2</title>
<g id="a_edge1_Node000001_Node000002"><a xlink:title=" ">
<path fill="none" stroke="#63b8ff" d="M114.59,-219.75C121.66,-212.11 132.09,-200.82 140.65,-191.56"/>
<polygon fill="#63b8ff" stroke="#63b8ff" points="143.34,-193.81 147.56,-184.09 138.2,-189.06 143.34,-193.81"/>
</a>
</g>
</g>
<!-- Node3 -->
<g id="Node000003" class="node">
<title>Node3</title>
<g id="a_Node000003"><a xlink:title=" ">
<polygon fill="#e0e0e0" stroke="#999999" points="113,-129 0,-129 0,-110 113,-110 113,-129"/>
<text text-anchor="middle" x="56.5" y="-117" font-family="Helvetica,sans-Serif" font-size="10.00">SparkFun_AS7331.h</text>
</a>
</g>
</g>
<!-- Node1&#45;&gt;Node3 -->
<g id="edge9_Node000001_Node000003" class="edge">
<title>Node1&#45;&gt;Node3</title>
<g id="a_edge9_Node000001_Node000003"><a xlink:title=" ">
<path fill="none" stroke="#63b8ff" d="M102.41,-219.66C94.2,-201.93 75.59,-161.73 64.75,-138.32"/>
<polygon fill="#63b8ff" stroke="#63b8ff" points="67.89,-136.76 60.51,-129.16 61.53,-139.7 67.89,-136.76"/>
</a>
</g>
</g>
<!-- Node2&#45;&gt;Node3 -->
<g id="edge2_Node000002_Node000003" class="edge">
<title>Node2&#45;&gt;Node3</title>
<g id="a_edge2_Node000002_Node000003"><a xlink:title=" ">
<path fill="none" stroke="#63b8ff" d="M139.59,-164.98C123.95,-156.61 99.84,-143.7 81.62,-133.95"/>
<polygon fill="#63b8ff" stroke="#63b8ff" points="83.16,-130.8 72.7,-129.17 79.86,-136.98 83.16,-130.8"/>
</a>
</g>
</g>
<!-- Node4 -->
<g id="Node000004" class="node">
<title>Node4</title>
<g id="a_Node000004"><a xlink:title=" ">
<polygon fill="#e0e0e0" stroke="#999999" points="179.5,-129 131.5,-129 131.5,-110 179.5,-110 179.5,-129"/>
<text text-anchor="middle" x="155.5" y="-117" font-family="Helvetica,sans-Serif" font-size="10.00">Wire.h</text>
</a>
</g>
</g>
<!-- Node2&#45;&gt;Node4 -->
<g id="edge3_Node000002_Node000004" class="edge">
<title>Node2&#45;&gt;Node4</title>
<g id="a_edge3_Node000002_Node000004"><a xlink:title=" ">
<path fill="none" stroke="#63b8ff" d="M155.5,-164.75C155.5,-157.8 155.5,-147.85 155.5,-139.13"/>
<polygon fill="#63b8ff" stroke="#63b8ff" points="159,-139.09 155.5,-129.09 152,-139.09 159,-139.09"/>
</a>
</g>
</g>
<!-- Node5 -->
<g id="Node000005" class="node">
<title>Node5</title>
<g id="a_Node000005"><a xlink:title=" ">
<polygon fill="#e0e0e0" stroke="#999999" points="251,-129 198,-129 198,-110 251,-110 251,-129"/>
<text text-anchor="middle" x="224.5" y="-117" font-family="Helvetica,sans-Serif" font-size="10.00">string.h</text>
</a>
</g>
</g>
<!-- Node2&#45;&gt;Node5 -->
<g id="edge4_Node000002_Node000005" class="edge">
<title>Node2&#45;&gt;Node5</title>
<g id="a_edge4_Node000002_Node000005"><a xlink:title=" ">
<path fill="none" stroke="#63b8ff" d="M166.59,-164.98C176.99,-157 192.76,-144.88 205.22,-135.31"/>
<polygon fill="#63b8ff" stroke="#63b8ff" points="207.41,-138.04 213.21,-129.17 203.15,-132.49 207.41,-138.04"/>
</a>
</g>
</g>
<!-- Node6 -->
<g id="Node000006" class="node">
<title>Node6</title>
<g id="a_Node000006"><a xlink:href="Sensor_8h.html" target="_top" xlink:title=" ">
<polygon fill="white" stroke="#666666" points="327.5,-129 269.5,-129 269.5,-110 327.5,-110 327.5,-129"/>
<text text-anchor="middle" x="298.5" y="-117" font-family="Helvetica,sans-Serif" font-size="10.00">Sensor.h</text>
</a>
</g>
</g>
<!-- Node2&#45;&gt;Node6 -->
<g id="edge5_Node000002_Node000006" class="edge">
<title>Node2&#45;&gt;Node6</title>
<g id="a_edge5_Node000002_Node000006"><a xlink:title=" ">
<path fill="none" stroke="#63b8ff" d="M178.48,-164.98C202,-156.27 238.79,-142.63 265.44,-132.75"/>
<polygon fill="#63b8ff" stroke="#63b8ff" points="266.95,-135.93 275.11,-129.17 264.51,-129.36 266.95,-135.93"/>
</a>
</g>
</g>
<!-- Node7 -->
<g id="Node000007" class="node">
<title>Node7</title>
<g id="a_Node000007"><a xlink:title=" ">
<polygon fill="#e0e0e0" stroke="#999999" points="329,-19 266,-19 266,0 329,0 329,-19"/>
<text text-anchor="middle" x="297.5" y="-7" font-family="Helvetica,sans-Serif" font-size="10.00">Arduino.h</text>
</a>
</g>
</g>
<!-- Node6&#45;&gt;Node7 -->
<g id="edge6_Node000006_Node000007" class="edge">
<title>Node6&#45;&gt;Node7</title>
<g id="a_edge6_Node000006_Node000007"><a xlink:title=" ">
<path fill="none" stroke="#63b8ff" d="M295.93,-109.73C293.45,-100.83 289.9,-86.59 288.5,-74 286.81,-58.76 289.54,-41.55 292.43,-28.89"/>
<polygon fill="#63b8ff" stroke="#63b8ff" points="295.84,-29.66 294.89,-19.11 289.05,-27.95 295.84,-29.66"/>
</a>
</g>
</g>
<!-- Node8 -->
<g id="Node000008" class="node">
<title>Node8</title>
<g id="a_Node000008"><a xlink:href="Logger_8h.html" target="_top" xlink:title=" ">
<polygon fill="white" stroke="#666666" points="355.5,-74 297.5,-74 297.5,-55 355.5,-55 355.5,-74"/>
<text text-anchor="middle" x="326.5" y="-62" font-family="Helvetica,sans-Serif" font-size="10.00">Logger.h</text>
</a>
</g>
</g>
<!-- Node6&#45;&gt;Node8 -->
<g id="edge7_Node000006_Node000008" class="edge">
<title>Node6&#45;&gt;Node8</title>
<g id="a_edge7_Node000006_Node000008"><a xlink:title=" ">
<path fill="none" stroke="#63b8ff" d="M303.12,-109.75C306.96,-102.49 312.52,-91.95 317.26,-82.98"/>
<polygon fill="#63b8ff" stroke="#63b8ff" points="320.39,-84.57 321.96,-74.09 314.2,-81.3 320.39,-84.57"/>
</a>
</g>
</g>
<!-- Node8&#45;&gt;Node7 -->
<g id="edge8_Node000008_Node000007" class="edge">
<title>Node8&#45;&gt;Node7</title>
<g id="a_edge8_Node000008_Node000007"><a xlink:title=" ">
<path fill="none" stroke="#63b8ff" d="M321.71,-54.75C317.74,-47.49 311.97,-36.95 307.07,-27.98"/>
<polygon fill="#63b8ff" stroke="#63b8ff" points="310.07,-26.18 302.2,-19.09 303.93,-29.54 310.07,-26.18"/>
</a>
</g>
</g>
</g>
</svg>
