<?xml version="1.0" encoding="UTF-8" standalone="no"?>
<!DOCTYPE svg PUBLIC "-//W3C//DTD SVG 1.1//EN"
 "http://www.w3.org/Graphics/SVG/1.1/DTD/svg11.dtd">
<!-- Generated by graphviz version 2.43.0 (0)
 -->
<!-- Title: BME280Sensor.h Pages: 1 -->
<svg width="208pt" height="247pt"
 viewBox="0.00 0.00 207.50 247.00" xmlns="http://www.w3.org/2000/svg" xmlns:xlink="http://www.w3.org/1999/xlink">
<g id="graph0" class="graph" transform="scale(1 1) rotate(0) translate(4 243)">
<title>BME280Sensor.h</title>
<!-- Node1 -->
<g id="Node000001" class="node">
<title>Node1</title>
<g id="a_Node000001"><a xlink:title=" ">
<polygon fill="#999999" stroke="#666666" points="142.5,-239 44.5,-239 44.5,-220 142.5,-220 142.5,-239"/>
<text text-anchor="middle" x="93.5" y="-227" font-family="Helvetica,sans-Serif" font-size="10.00">BME280Sensor.h</text>
</a>
</g>
</g>
<!-- Node2 -->
<g id="Node000002" class="node">
<title>Node2</title>
<g id="a_Node000002"><a xlink:href="Sensor_8h.html" target="_top" xlink:title=" ">
<polygon fill="white" stroke="#666666" points="71.5,-184 13.5,-184 13.5,-165 71.5,-165 71.5,-184"/>
<text text-anchor="middle" x="42.5" y="-172" font-family="Helvetica,sans-Serif" font-size="10.00">Sensor.h</text>
</a>
</g>
</g>
<!-- Node1&#45;&gt;Node2 -->
<g id="edge1_Node000001_Node000002" class="edge">
<title>Node1&#45;&gt;Node2</title>
<g id="a_edge1_Node000001_Node000002"><a xlink:title=" ">
<path fill="none" stroke="#63b8ff" d="M85.08,-219.75C77.73,-212.11 66.87,-200.82 57.96,-191.56"/>
<polygon fill="#63b8ff" stroke="#63b8ff" points="60.22,-188.87 50.77,-184.09 55.18,-193.72 60.22,-188.87"/>
</a>
</g>
</g>
<!-- Node6 -->
<g id="Node000006" class="node">
<title>Node6</title>
<g id="a_Node000006"><a xlink:title=" ">
<polygon fill="#e0e0e0" stroke="#999999" points="199.5,-184 89.5,-184 89.5,-165 199.5,-165 199.5,-184"/>
<text text-anchor="middle" x="144.5" y="-172" font-family="Helvetica,sans-Serif" font-size="10.00">SparkFunBME280.h</text>
</a>
</g>
</g>
<!-- Node1&#45;&gt;Node6 -->
<g id="edge8_Node000001_Node000006" class="edge">
<title>Node1&#45;&gt;Node6</title>
<g id="a_edge8_Node000001_Node000006"><a xlink:title=" ">
<path fill="none" stroke="#63b8ff" d="M101.92,-219.75C109.28,-212.11 120.13,-200.82 129.05,-191.56"/>
<polygon fill="#63b8ff" stroke="#63b8ff" points="131.83,-193.72 136.24,-184.09 126.78,-188.87 131.83,-193.72"/>
</a>
</g>
</g>
<!-- Node3 -->
<g id="Node000003" class="node">
<title>Node3</title>
<g id="a_Node000003"><a xlink:title=" ">
<polygon fill="#e0e0e0" stroke="#999999" points="64,-19 1,-19 1,0 64,0 64,-19"/>
<text text-anchor="middle" x="32.5" y="-7" font-family="Helvetica,sans-Serif" font-size="10.00">Arduino.h</text>
</a>
</g>
</g>
<!-- Node2&#45;&gt;Node3 -->
<g id="edge2_Node000002_Node000003" class="edge">
<title>Node2&#45;&gt;Node3</title>
<g id="a_edge2_Node000002_Node000003"><a xlink:title=" ">
<path fill="none" stroke="#63b8ff" d="M31.79,-164.93C22.57,-156.8 9.92,-143.68 4.5,-129 -8.36,-94.12 9.66,-51.23 22.21,-27.81"/>
<polygon fill="#63b8ff" stroke="#63b8ff" points="25.29,-29.47 27.14,-19.04 19.19,-26.04 25.29,-29.47"/>
</a>
</g>
</g>
<!-- Node4 -->
<g id="Node000004" class="node">
<title>Node4</title>
<g id="a_Node000004"><a xlink:href="Device_8h.html" target="_top" xlink:title=" ">
<polygon fill="white" stroke="#666666" points="72,-129 13,-129 13,-110 72,-110 72,-129"/>
<text text-anchor="middle" x="42.5" y="-117" font-family="Helvetica,sans-Serif" font-size="10.00">Device.h</text>
</a>
</g>
</g>
<!-- Node2&#45;&gt;Node4 -->
<g id="edge3_Node000002_Node000004" class="edge">
<title>Node2&#45;&gt;Node4</title>
<g id="a_edge3_Node000002_Node000004"><a xlink:title=" ">
<path fill="none" stroke="#63b8ff" d="M42.5,-164.75C42.5,-157.8 42.5,-147.85 42.5,-139.13"/>
<polygon fill="#63b8ff" stroke="#63b8ff" points="46,-139.09 42.5,-129.09 39,-139.09 46,-139.09"/>
</a>
</g>
</g>
<!-- Node5 -->
<g id="Node000005" class="node">
<title>Node5</title>
<g id="a_Node000005"><a xlink:href="Logger_8h.html" target="_top" xlink:title=" ">
<polygon fill="white" stroke="#666666" points="118.5,-74 60.5,-74 60.5,-55 118.5,-55 118.5,-74"/>
<text text-anchor="middle" x="89.5" y="-62" font-family="Helvetica,sans-Serif" font-size="10.00">Logger.h</text>
</a>
</g>
</g>
<!-- Node2&#45;&gt;Node5 -->
<g id="edge7_Node000002_Node000005" class="edge">
<title>Node2&#45;&gt;Node5</title>
<g id="a_edge7_Node000002_Node000005"><a xlink:title=" ">
<path fill="none" stroke="#63b8ff" d="M53.05,-164.81C62.22,-156.6 75.02,-143.43 81.5,-129 87.85,-114.89 89.66,-97.35 89.99,-84.28"/>
<polygon fill="#63b8ff" stroke="#63b8ff" points="93.49,-84.14 89.97,-74.14 86.49,-84.15 93.49,-84.14"/>
</a>
</g>
</g>
<!-- Node4&#45;&gt;Node3 -->
<g id="edge4_Node000004_Node000003" class="edge">
<title>Node4&#45;&gt;Node3</title>
<g id="a_edge4_Node000004_Node000003"><a xlink:title=" ">
<path fill="none" stroke="#63b8ff" d="M41.68,-109.66C40.06,-92.17 36.42,-52.8 34.24,-29.27"/>
<polygon fill="#63b8ff" stroke="#63b8ff" points="37.71,-28.79 33.3,-19.16 30.74,-29.44 37.71,-28.79"/>
</a>
</g>
</g>
<!-- Node4&#45;&gt;Node5 -->
<g id="edge5_Node000004_Node000005" class="edge">
<title>Node4&#45;&gt;Node5</title>
<g id="a_edge5_Node000004_Node000005"><a xlink:title=" ">
<path fill="none" stroke="#63b8ff" d="M50.26,-109.75C56.97,-102.18 66.84,-91.05 75.01,-81.84"/>
<polygon fill="#63b8ff" stroke="#63b8ff" points="77.87,-83.89 81.89,-74.09 72.63,-79.25 77.87,-83.89"/>
</a>
</g>
</g>
<!-- Node5&#45;&gt;Node3 -->
<g id="edge6_Node000005_Node000003" class="edge">
<title>Node5&#45;&gt;Node3</title>
<g id="a_edge6_Node000005_Node000003"><a xlink:title=" ">
<path fill="none" stroke="#63b8ff" d="M80.34,-54.98C72,-47.23 59.47,-35.58 49.33,-26.14"/>
<polygon fill="#63b8ff" stroke="#63b8ff" points="51.53,-23.42 41.83,-19.17 46.77,-28.54 51.53,-23.42"/>
</a>
</g>
</g>
</g>
</svg>
