<?xml version="1.0" encoding="UTF-8" standalone="no"?>
<!DOCTYPE svg PUBLIC "-//W3C//DTD SVG 1.1//EN"
 "http://www.w3.org/Graphics/SVG/1.1/DTD/svg11.dtd">
<!-- Generated by graphviz version 2.43.0 (0)
 -->
<!-- Title: BMP390Sensor.h Pages: 1 -->
<svg width="244pt" height="252pt"
 viewBox="0.00 0.00 244.00 252.00" xmlns="http://www.w3.org/2000/svg" xmlns:xlink="http://www.w3.org/1999/xlink">
<g id="graph0" class="graph" transform="scale(1 1) rotate(0) translate(4 248)">
<title>BMP390Sensor.h</title>
<!-- Node1 -->
<g id="node1" class="node">
<title>Node1</title>
<g id="a_node1"><a xlink:title=" ">
<polygon fill="#bfbfbf" stroke="black" points="57.5,-224.5 57.5,-243.5 155.5,-243.5 155.5,-224.5 57.5,-224.5"/>
<text text-anchor="middle" x="106.5" y="-231.5" font-family="Helvetica,sans-Serif" font-size="10.00">BMP390Sensor.h</text>
</a>
</g>
</g>
<!-- Node2 -->
<g id="node2" class="node">
<title>Node2</title>
<g id="a_node2"><a xlink:title=" ">
<polygon fill="none" stroke="#bfbfbf" points="0,-168.5 0,-187.5 111,-187.5 111,-168.5 0,-168.5"/>
<text text-anchor="middle" x="55.5" y="-175.5" font-family="Helvetica,sans-Serif" font-size="10.00">Adafruit_BMP3XX.h</text>
</a>
</g>
</g>
<!-- Node1&#45;&gt;Node2 -->
<g id="edge1" class="edge">
<title>Node1&#45;&gt;Node2</title>
<path fill="none" stroke="midnightblue" d="M98.08,-224.08C90.65,-216.22 79.65,-204.57 70.69,-195.08"/>
<polygon fill="midnightblue" stroke="midnightblue" points="73.18,-192.62 63.76,-187.75 68.09,-197.42 73.18,-192.62"/>
</g>
<!-- Node3 -->
<g id="node3" class="node">
<title>Node3</title>
<g id="a_node3"><a xlink:href="Sensor_8h.html" target="_top" xlink:title=" ">
<polygon fill="none" stroke="black" points="129,-168.5 129,-187.5 188,-187.5 188,-168.5 129,-168.5"/>
<text text-anchor="middle" x="158.5" y="-175.5" font-family="Helvetica,sans-Serif" font-size="10.00">Sensor.h</text>
</a>
</g>
</g>
<!-- Node1&#45;&gt;Node3 -->
<g id="edge2" class="edge">
<title>Node1&#45;&gt;Node3</title>
<path fill="none" stroke="midnightblue" d="M115.09,-224.08C122.66,-216.22 133.88,-204.57 143.01,-195.08"/>
<polygon fill="midnightblue" stroke="midnightblue" points="145.66,-197.38 150.07,-187.75 140.62,-192.53 145.66,-197.38"/>
</g>
<!-- Node4 -->
<g id="node4" class="node">
<title>Node4</title>
<g id="a_node4"><a xlink:title=" ">
<polygon fill="none" stroke="#bfbfbf" points="117,-0.5 117,-19.5 180,-19.5 180,-0.5 117,-0.5"/>
<text text-anchor="middle" x="148.5" y="-7.5" font-family="Helvetica,sans-Serif" font-size="10.00">Arduino.h</text>
</a>
</g>
</g>
<!-- Node3&#45;&gt;Node4 -->
<g id="edge3" class="edge">
<title>Node3&#45;&gt;Node4</title>
<path fill="none" stroke="midnightblue" d="M147.79,-168.3C138.56,-160.07 125.91,-146.79 120.5,-132 107.47,-96.39 125.56,-52.6 138.16,-28.67"/>
<polygon fill="midnightblue" stroke="midnightblue" points="141.34,-30.16 143.12,-19.72 135.21,-26.77 141.34,-30.16"/>
</g>
<!-- Node5 -->
<g id="node5" class="node">
<title>Node5</title>
<g id="a_node5"><a xlink:href="Device_8h.html" target="_top" xlink:title=" ">
<polygon fill="none" stroke="black" points="129,-112.5 129,-131.5 188,-131.5 188,-112.5 129,-112.5"/>
<text text-anchor="middle" x="158.5" y="-119.5" font-family="Helvetica,sans-Serif" font-size="10.00">Device.h</text>
</a>
</g>
</g>
<!-- Node3&#45;&gt;Node5 -->
<g id="edge4" class="edge">
<title>Node3&#45;&gt;Node5</title>
<path fill="none" stroke="midnightblue" d="M158.5,-168.08C158.5,-161.01 158.5,-150.86 158.5,-141.99"/>
<polygon fill="midnightblue" stroke="midnightblue" points="162,-141.75 158.5,-131.75 155,-141.75 162,-141.75"/>
</g>
<!-- Node6 -->
<g id="node6" class="node">
<title>Node6</title>
<g id="a_node6"><a xlink:href="Logger_8h.html" target="_top" xlink:title=" ">
<polygon fill="none" stroke="black" points="177,-56.5 177,-75.5 236,-75.5 236,-56.5 177,-56.5"/>
<text text-anchor="middle" x="206.5" y="-63.5" font-family="Helvetica,sans-Serif" font-size="10.00">Logger.h</text>
</a>
</g>
</g>
<!-- Node3&#45;&gt;Node6 -->
<g id="edge8" class="edge">
<title>Node3&#45;&gt;Node6</title>
<path fill="none" stroke="midnightblue" d="M168.65,-168.49C177.81,-160.18 190.84,-146.69 197.5,-132 204.05,-117.56 206.14,-99.6 206.68,-86.22"/>
<polygon fill="midnightblue" stroke="midnightblue" points="210.19,-85.9 206.83,-75.85 203.19,-85.8 210.19,-85.9"/>
</g>
<!-- Node5&#45;&gt;Node4 -->
<g id="edge5" class="edge">
<title>Node5&#45;&gt;Node4</title>
<path fill="none" stroke="midnightblue" d="M157.72,-112.37C156.1,-94.62 152.38,-53.67 150.19,-29.6"/>
<polygon fill="midnightblue" stroke="midnightblue" points="153.67,-29.23 149.28,-19.59 146.7,-29.87 153.67,-29.23"/>
</g>
<!-- Node5&#45;&gt;Node6 -->
<g id="edge6" class="edge">
<title>Node5&#45;&gt;Node6</title>
<path fill="none" stroke="midnightblue" d="M166.43,-112.08C173.35,-104.3 183.57,-92.8 191.95,-83.37"/>
<polygon fill="midnightblue" stroke="midnightblue" points="194.69,-85.55 198.72,-75.75 189.46,-80.9 194.69,-85.55"/>
</g>
<!-- Node6&#45;&gt;Node4 -->
<g id="edge7" class="edge">
<title>Node6&#45;&gt;Node4</title>
<path fill="none" stroke="midnightblue" d="M197.18,-56.32C188.61,-48.34 175.69,-36.31 165.31,-26.65"/>
<polygon fill="midnightblue" stroke="midnightblue" points="167.69,-24.09 157.99,-19.83 162.92,-29.21 167.69,-24.09"/>
</g>
</g>
</svg>
