<?xml version="1.0" encoding="UTF-8" standalone="no"?>
<!DOCTYPE svg PUBLIC "-//W3C//DTD SVG 1.1//EN"
 "http://www.w3.org/Graphics/SVG/1.1/DTD/svg11.dtd">
<!-- Generated by graphviz version 2.43.0 (0)
 -->
<!-- Title: Storage Pages: 1 -->
<svg width="377pt" height="415pt"
 viewBox="0.00 0.00 376.50 415.00" xmlns="http://www.w3.org/2000/svg" xmlns:xlink="http://www.w3.org/1999/xlink">
<g id="graph0" class="graph" transform="scale(1 1) rotate(0) translate(4 411)">
<title>Storage</title>
<!-- Node1 -->
<g id="Node000001" class="node">
<title>Node1</title>
<g id="a_Node000001"><a xlink:title="Parent class for all data storage devices (sd card, radio, etc)">
<polygon fill="#999999" stroke="transparent" points="222,-94 155,-94 155,0 222,0 222,-94"/>
<text text-anchor="start" x="170" y="-82" font-family="Helvetica,sans-Serif" font-size="10.00">Storage</text>
<text text-anchor="start" x="187" y="-67" font-family="Helvetica,sans-Serif" font-size="10.00"> </text>
<text text-anchor="start" x="159.5" y="-52" font-family="Helvetica,sans-Serif" font-size="10.00">+</text>
<text text-anchor="start" x="172.5" y="-52" font-family="Helvetica,sans-Serif" font-size="10.00">Storage()</text>
<text text-anchor="start" x="159.5" y="-37" font-family="Helvetica,sans-Serif" font-size="10.00">+</text>
<text text-anchor="start" x="172.5" y="-37" font-family="Helvetica,sans-Serif" font-size="10.00">verify()</text>
<text text-anchor="start" x="159.5" y="-22" font-family="Helvetica,sans-Serif" font-size="10.00">+</text>
<text text-anchor="start" x="172.5" y="-22" font-family="Helvetica,sans-Serif" font-size="10.00">store()</text>
<text text-anchor="start" x="159.5" y="-7" font-family="Helvetica,sans-Serif" font-size="10.00">+</text>
<text text-anchor="start" x="172.5" y="-7" font-family="Helvetica,sans-Serif" font-size="10.00">store()</text>
<polygon fill="#666666" stroke="#666666" points="155.5,-77 155.5,-77 222.5,-77 222.5,-77 155.5,-77"/>
<polygon fill="#666666" stroke="#666666" points="155.5,-62 155.5,-62 222.5,-62 222.5,-62 155.5,-62"/>
<polygon fill="none" stroke="#666666" points="155,0 155,-94 222,-94 222,0 155,0"/>
</a>
</g>
</g>
<!-- Node2 -->
<g id="Node000002" class="node">
<title>Node2</title>
<g id="a_Node000002"><a xlink:href="classDevice.html" target="_top" xlink:title="Implements the recovery system for Sensor and Storage objects.">
<polygon fill="white" stroke="transparent" points="250,-300 127,-300 127,-131 250,-131 250,-300"/>
<text text-anchor="start" x="172" y="-287.5" font-family="Helvetica,sans-Serif" font-size="10.00">Device</text>
<text text-anchor="start" x="187" y="-272.5" font-family="Helvetica,sans-Serif" font-size="10.00"> </text>
<text text-anchor="start" x="131.5" y="-257.5" font-family="Helvetica,sans-Serif" font-size="10.00">+</text>
<text text-anchor="start" x="144.5" y="-257.5" font-family="Helvetica,sans-Serif" font-size="10.00">Device()</text>
<text text-anchor="start" x="131.5" y="-242.5" font-family="Helvetica,sans-Serif" font-size="10.00">+</text>
<text text-anchor="start" x="144.5" y="-242.5" font-family="Helvetica,sans-Serif" font-size="10.00">Device()</text>
<text text-anchor="start" x="131.5" y="-227.5" font-family="Helvetica,sans-Serif" font-size="10.00">+</text>
<text text-anchor="start" x="144.5" y="-227.5" font-family="Helvetica,sans-Serif" font-size="10.00">getDeviceName()</text>
<text text-anchor="start" x="131.5" y="-212.5" font-family="Helvetica,sans-Serif" font-size="10.00">+</text>
<text text-anchor="start" x="144.5" y="-212.5" font-family="Helvetica,sans-Serif" font-size="10.00">verify()</text>
<text text-anchor="start" x="131.5" y="-197.5" font-family="Helvetica,sans-Serif" font-size="10.00">+</text>
<text text-anchor="start" x="144.5" y="-197.5" font-family="Helvetica,sans-Serif" font-size="10.00">getVerified()</text>
<text text-anchor="start" x="131.5" y="-182.5" font-family="Helvetica,sans-Serif" font-size="10.00">+</text>
<text text-anchor="start" x="144.5" y="-182.5" font-family="Helvetica,sans-Serif" font-size="10.00">recoveryConfig()</text>
<text text-anchor="start" x="131.5" y="-167.5" font-family="Helvetica,sans-Serif" font-size="10.00">+</text>
<text text-anchor="start" x="144.5" y="-167.5" font-family="Helvetica,sans-Serif" font-size="10.00">setWaitFactor()</text>
<text text-anchor="start" x="131.5" y="-152.5" font-family="Helvetica,sans-Serif" font-size="10.00">+</text>
<text text-anchor="start" x="144.5" y="-152.5" font-family="Helvetica,sans-Serif" font-size="10.00">setMaxAttempts()</text>
<text text-anchor="start" x="131.5" y="-137.5" font-family="Helvetica,sans-Serif" font-size="10.00">+</text>
<text text-anchor="start" x="144.5" y="-137.5" font-family="Helvetica,sans-Serif" font-size="10.00">attemptConnection()</text>
<polygon fill="#666666" stroke="#666666" points="127.5,-282.5 127.5,-282.5 250.5,-282.5 250.5,-282.5 127.5,-282.5"/>
<polygon fill="#666666" stroke="#666666" points="127.5,-267.5 127.5,-267.5 250.5,-267.5 250.5,-267.5 127.5,-267.5"/>
<polygon fill="none" stroke="#666666" points="127,-131 127,-300 250,-300 250,-131 127,-131"/>
</a>
</g>
</g>
<!-- Node2&#45;&gt;Node1 -->
<g id="edge1_Node000001_Node000002" class="edge">
<title>Node2&#45;&gt;Node1</title>
<g id="a_edge1_Node000001_Node000002"><a xlink:title=" ">
<path fill="none" stroke="#63b8ff" d="M188.5,-120.72C188.5,-111.51 188.5,-102.47 188.5,-94.07"/>
<polygon fill="none" stroke="#63b8ff" points="185,-120.76 188.5,-130.76 192,-120.76 185,-120.76"/>
</a>
</g>
</g>
<!-- Node3 -->
<g id="Node000003" class="node">
<title>Node3</title>
<g id="a_Node000003"><a xlink:title=" ">
<polygon fill="white" stroke="transparent" points="79,-407 0,-407 0,-358 79,-358 79,-407"/>
<text text-anchor="start" x="5.5" y="-394.5" font-family="Helvetica,sans-Serif" font-size="10.00">unsigned long</text>
<text text-anchor="start" x="38" y="-379.5" font-family="Helvetica,sans-Serif" font-size="10.00"> </text>
<text text-anchor="start" x="38" y="-364.5" font-family="Helvetica,sans-Serif" font-size="10.00"> </text>
<polygon fill="#666666" stroke="#666666" points="0.5,-389.5 0.5,-389.5 79.5,-389.5 79.5,-389.5 0.5,-389.5"/>
<polygon fill="#666666" stroke="#666666" points="0.5,-374.5 0.5,-374.5 79.5,-374.5 79.5,-374.5 0.5,-374.5"/>
<polygon fill="none" stroke="#666666" points="0,-358 0,-407 79,-407 79,-358 0,-358"/>
</a>
</g>
</g>
<!-- Node3&#45;&gt;Node2 -->
<g id="edge2_Node000002_Node000003" class="edge">
<title>Node3&#45;&gt;Node2</title>
<g id="a_edge2_Node000002_Node000003"><a xlink:title=" ">
<path fill="none" stroke="#63b8ff" d="M42.08,-357.96C44.34,-345.28 48.58,-329.87 56.5,-318 72.01,-294.75 94.64,-274.58 116.79,-258.49"/>
<polygon fill="none" stroke="#63b8ff" points="117.09,-258.28 119.7,-251.56 126.91,-251.38 124.3,-258.1 117.09,-258.28"/>
</a>
</g>
<text text-anchor="middle" x="91.5" y="-332" font-family="Helvetica,sans-Serif" font-size="10.00" fill="grey"> &#45;last_attempt</text>
<text text-anchor="middle" x="91.5" y="-321" font-family="Helvetica,sans-Serif" font-size="10.00" fill="grey">&#45;wait_factor</text>
</g>
<!-- Node4 -->
<g id="Node000004" class="node">
<title>Node4</title>
<g id="a_Node000004"><a xlink:title=" ">
<polygon fill="white" stroke="transparent" points="144,-407 121,-407 121,-358 144,-358 144,-407"/>
<text text-anchor="start" x="126.5" y="-394.5" font-family="Helvetica,sans-Serif" font-size="10.00">int</text>
<text text-anchor="start" x="131" y="-379.5" font-family="Helvetica,sans-Serif" font-size="10.00"> </text>
<text text-anchor="start" x="131" y="-364.5" font-family="Helvetica,sans-Serif" font-size="10.00"> </text>
<polygon fill="#666666" stroke="#666666" points="121.5,-389.5 121.5,-389.5 144.5,-389.5 144.5,-389.5 121.5,-389.5"/>
<polygon fill="#666666" stroke="#666666" points="121.5,-374.5 121.5,-374.5 144.5,-374.5 144.5,-374.5 121.5,-374.5"/>
<polygon fill="none" stroke="#666666" points="121,-358 121,-407 144,-407 144,-358 121,-358"/>
</a>
</g>
</g>
<!-- Node4&#45;&gt;Node2 -->
<g id="edge3_Node000002_Node000004" class="edge">
<title>Node4&#45;&gt;Node2</title>
<g id="a_edge3_Node000002_Node000004"><a xlink:title=" ">
<path fill="none" stroke="#63b8ff" d="M130.22,-357.92C129.71,-345.8 130.12,-330.91 133.5,-318 134.06,-315.87 134.67,-313.75 135.32,-311.62"/>
<polygon fill="none" stroke="#63b8ff" points="135.33,-311.59 133.52,-304.62 139.26,-300.26 141.08,-307.24 135.33,-311.59"/>
</a>
</g>
<text text-anchor="middle" x="178" y="-332" font-family="Helvetica,sans-Serif" font-size="10.00" fill="grey"> &#45;attempt_number</text>
<text text-anchor="middle" x="178" y="-321" font-family="Helvetica,sans-Serif" font-size="10.00" fill="grey">&#45;max_attempts</text>
</g>
<!-- Node5 -->
<g id="Node000005" class="node">
<title>Node5</title>
<g id="a_Node000005"><a xlink:title=" ">
<polygon fill="white" stroke="transparent" points="264,-407 225,-407 225,-358 264,-358 264,-407"/>
<text text-anchor="start" x="230.5" y="-394.5" font-family="Helvetica,sans-Serif" font-size="10.00">String</text>
<text text-anchor="start" x="243" y="-379.5" font-family="Helvetica,sans-Serif" font-size="10.00"> </text>
<text text-anchor="start" x="243" y="-364.5" font-family="Helvetica,sans-Serif" font-size="10.00"> </text>
<polygon fill="#666666" stroke="#666666" points="225.5,-389.5 225.5,-389.5 264.5,-389.5 264.5,-389.5 225.5,-389.5"/>
<polygon fill="#666666" stroke="#666666" points="225.5,-374.5 225.5,-374.5 264.5,-374.5 264.5,-374.5 225.5,-374.5"/>
<polygon fill="none" stroke="#666666" points="225,-358 225,-407 264,-407 264,-358 225,-358"/>
</a>
</g>
</g>
<!-- Node5&#45;&gt;Node2 -->
<g id="edge4_Node000002_Node000005" class="edge">
<title>Node5&#45;&gt;Node2</title>
<g id="a_edge4_Node000002_Node000005"><a xlink:title=" ">
<path fill="none" stroke="#63b8ff" d="M236.48,-357.86C232.18,-345.21 226.59,-328.72 220.73,-311.48"/>
<polygon fill="none" stroke="#63b8ff" points="220.72,-311.44 215.01,-307.04 216.86,-300.07 222.58,-304.47 220.72,-311.44"/>
</a>
</g>
<text text-anchor="middle" x="265" y="-326.5" font-family="Helvetica,sans-Serif" font-size="10.00" fill="grey"> &#45;device_name</text>
</g>
<!-- Node6 -->
<g id="Node000006" class="node">
<title>Node6</title>
<g id="a_Node000006"><a xlink:title=" ">
<polygon fill="white" stroke="transparent" points="356.5,-407 324.5,-407 324.5,-358 356.5,-358 356.5,-407"/>
<text text-anchor="start" x="329.5" y="-394.5" font-family="Helvetica,sans-Serif" font-size="10.00">bool</text>
<text text-anchor="start" x="338.5" y="-379.5" font-family="Helvetica,sans-Serif" font-size="10.00"> </text>
<text text-anchor="start" x="338.5" y="-364.5" font-family="Helvetica,sans-Serif" font-size="10.00"> </text>
<polygon fill="#666666" stroke="#666666" points="324.5,-389.5 324.5,-389.5 356.5,-389.5 356.5,-389.5 324.5,-389.5"/>
<polygon fill="#666666" stroke="#666666" points="324.5,-374.5 324.5,-374.5 356.5,-374.5 356.5,-374.5 324.5,-374.5"/>
<polygon fill="none" stroke="#666666" points="324.5,-358 324.5,-407 356.5,-407 356.5,-358 324.5,-358"/>
</a>
</g>
</g>
<!-- Node6&#45;&gt;Node2 -->
<g id="edge5_Node000002_Node000006" class="edge">
<title>Node6&#45;&gt;Node2</title>
<g id="a_edge5_Node000002_Node000006"><a xlink:title=" ">
<path fill="none" stroke="#63b8ff" d="M330.01,-357.94C323.83,-345.41 315.31,-330.14 305.5,-318 292.07,-301.39 275.72,-285.32 259.54,-271.05"/>
<polygon fill="none" stroke="#63b8ff" points="259.15,-270.71 251.99,-269.82 250.06,-262.87 257.22,-263.76 259.15,-270.71"/>
</a>
</g>
<text text-anchor="middle" x="344" y="-326.5" font-family="Helvetica,sans-Serif" font-size="10.00" fill="grey"> #verified</text>
</g>
</g>
</svg>
