<?xml version="1.0" encoding="UTF-8" standalone="no"?>
<!DOCTYPE svg PUBLIC "-//W3C//DTD SVG 1.1//EN"
 "http://www.w3.org/Graphics/SVG/1.1/DTD/svg11.dtd">
<!-- Generated by graphviz version 2.43.0 (0)
 -->
<!-- Title: SDStorage Pages: 1 -->
<svg width="502pt" height="566pt"
 viewBox="0.00 0.00 502.00 566.00" xmlns="http://www.w3.org/2000/svg" xmlns:xlink="http://www.w3.org/1999/xlink">
<g id="graph0" class="graph" transform="scale(1 1) rotate(0) translate(4 562)">
<title>SDStorage</title>
<!-- Node1 -->
<g id="Node000001" class="node">
<title>Node1</title>
<g id="a_Node000001"><a xlink:title="Implementation of a Storage device to interface with an SD card.">
<polygon fill="#999999" stroke="transparent" points="419,-94 334,-94 334,0 419,0 419,-94"/>
<text text-anchor="start" x="351" y="-82" font-family="Helvetica,sans-Serif" font-size="10.00">SDStorage</text>
<text text-anchor="start" x="375" y="-67" font-family="Helvetica,sans-Serif" font-size="10.00"> </text>
<text text-anchor="start" x="338.5" y="-52" font-family="Helvetica,sans-Serif" font-size="10.00">+</text>
<text text-anchor="start" x="351.5" y="-52" font-family="Helvetica,sans-Serif" font-size="10.00">SDStorage()</text>
<text text-anchor="start" x="338.5" y="-37" font-family="Helvetica,sans-Serif" font-size="10.00">+</text>
<text text-anchor="start" x="351.5" y="-37" font-family="Helvetica,sans-Serif" font-size="10.00">verify()</text>
<text text-anchor="start" x="338.5" y="-22" font-family="Helvetica,sans-Serif" font-size="10.00">+</text>
<text text-anchor="start" x="351.5" y="-22" font-family="Helvetica,sans-Serif" font-size="10.00">store()</text>
<text text-anchor="start" x="338.5" y="-7" font-family="Helvetica,sans-Serif" font-size="10.00">+</text>
<text text-anchor="start" x="351.5" y="-7" font-family="Helvetica,sans-Serif" font-size="10.00">storePacket()</text>
<polygon fill="#666666" stroke="#666666" points="334.5,-77 334.5,-77 419.5,-77 419.5,-77 334.5,-77"/>
<polygon fill="#666666" stroke="#666666" points="334.5,-62 334.5,-62 419.5,-62 419.5,-62 334.5,-62"/>
<polygon fill="none" stroke="#666666" points="334,0 334,-94 419,-94 419,0 334,0"/>
</a>
</g>
</g>
<!-- Node2 -->
<g id="Node000002" class="node">
<title>Node2</title>
<g id="a_Node000002"><a xlink:href="classStorage.html" target="_top" xlink:title="Parent class for all data storage devices (sd card, radio, etc)">
<polygon fill="white" stroke="transparent" points="326,-235 241,-235 241,-141 326,-141 326,-235"/>
<text text-anchor="start" x="265" y="-223" font-family="Helvetica,sans-Serif" font-size="10.00">Storage</text>
<text text-anchor="start" x="282" y="-208" font-family="Helvetica,sans-Serif" font-size="10.00"> </text>
<text text-anchor="start" x="245.5" y="-193" font-family="Helvetica,sans-Serif" font-size="10.00">+</text>
<text text-anchor="start" x="258.5" y="-193" font-family="Helvetica,sans-Serif" font-size="10.00">Storage()</text>
<text text-anchor="start" x="245.5" y="-178" font-family="Helvetica,sans-Serif" font-size="10.00">+</text>
<text text-anchor="start" x="258.5" y="-178" font-family="Helvetica,sans-Serif" font-size="10.00">verify()</text>
<text text-anchor="start" x="245.5" y="-163" font-family="Helvetica,sans-Serif" font-size="10.00">+</text>
<text text-anchor="start" x="258.5" y="-163" font-family="Helvetica,sans-Serif" font-size="10.00">store()</text>
<text text-anchor="start" x="245.5" y="-148" font-family="Helvetica,sans-Serif" font-size="10.00">+</text>
<text text-anchor="start" x="258.5" y="-148" font-family="Helvetica,sans-Serif" font-size="10.00">storePacket()</text>
<polygon fill="#666666" stroke="#666666" points="241.5,-218 241.5,-218 326.5,-218 326.5,-218 241.5,-218"/>
<polygon fill="#666666" stroke="#666666" points="241.5,-203 241.5,-203 326.5,-203 326.5,-203 241.5,-203"/>
<polygon fill="none" stroke="#666666" points="241,-141 241,-235 326,-235 326,-141 241,-141"/>
</a>
</g>
</g>
<!-- Node2&#45;&gt;Node1 -->
<g id="edge1_Node000001_Node000002" class="edge">
<title>Node2&#45;&gt;Node1</title>
<g id="a_edge1_Node000001_Node000002"><a xlink:title=" ">
<path fill="none" stroke="#63b8ff" d="M320.22,-132.12C328.64,-119.53 337.52,-106.26 345.67,-94.08"/>
<polygon fill="none" stroke="#63b8ff" points="317.12,-130.46 314.47,-140.72 322.94,-134.35 317.12,-130.46"/>
</a>
</g>
</g>
<!-- Node3 -->
<g id="Node000003" class="node">
<title>Node3</title>
<g id="a_Node000003"><a xlink:href="classDevice.html" target="_top" xlink:title="Implements the recovery system for Sensor and Storage objects.">
<polygon fill="white" stroke="transparent" points="278,-451 155,-451 155,-282 278,-282 278,-451"/>
<text text-anchor="start" x="200" y="-438.5" font-family="Helvetica,sans-Serif" font-size="10.00">Device</text>
<text text-anchor="start" x="215" y="-423.5" font-family="Helvetica,sans-Serif" font-size="10.00"> </text>
<text text-anchor="start" x="159.5" y="-408.5" font-family="Helvetica,sans-Serif" font-size="10.00">+</text>
<text text-anchor="start" x="172.5" y="-408.5" font-family="Helvetica,sans-Serif" font-size="10.00">Device()</text>
<text text-anchor="start" x="159.5" y="-393.5" font-family="Helvetica,sans-Serif" font-size="10.00">+</text>
<text text-anchor="start" x="172.5" y="-393.5" font-family="Helvetica,sans-Serif" font-size="10.00">Device()</text>
<text text-anchor="start" x="159.5" y="-378.5" font-family="Helvetica,sans-Serif" font-size="10.00">+</text>
<text text-anchor="start" x="172.5" y="-378.5" font-family="Helvetica,sans-Serif" font-size="10.00">getDeviceName()</text>
<text text-anchor="start" x="159.5" y="-363.5" font-family="Helvetica,sans-Serif" font-size="10.00">+</text>
<text text-anchor="start" x="172.5" y="-363.5" font-family="Helvetica,sans-Serif" font-size="10.00">verify()</text>
<text text-anchor="start" x="159.5" y="-348.5" font-family="Helvetica,sans-Serif" font-size="10.00">+</text>
<text text-anchor="start" x="172.5" y="-348.5" font-family="Helvetica,sans-Serif" font-size="10.00">getVerified()</text>
<text text-anchor="start" x="159.5" y="-333.5" font-family="Helvetica,sans-Serif" font-size="10.00">+</text>
<text text-anchor="start" x="172.5" y="-333.5" font-family="Helvetica,sans-Serif" font-size="10.00">recoveryConfig()</text>
<text text-anchor="start" x="159.5" y="-318.5" font-family="Helvetica,sans-Serif" font-size="10.00">+</text>
<text text-anchor="start" x="172.5" y="-318.5" font-family="Helvetica,sans-Serif" font-size="10.00">setWaitFactor()</text>
<text text-anchor="start" x="159.5" y="-303.5" font-family="Helvetica,sans-Serif" font-size="10.00">+</text>
<text text-anchor="start" x="172.5" y="-303.5" font-family="Helvetica,sans-Serif" font-size="10.00">setMaxAttempts()</text>
<text text-anchor="start" x="159.5" y="-288.5" font-family="Helvetica,sans-Serif" font-size="10.00">+</text>
<text text-anchor="start" x="172.5" y="-288.5" font-family="Helvetica,sans-Serif" font-size="10.00">attemptConnection()</text>
<polygon fill="#666666" stroke="#666666" points="155.5,-433.5 155.5,-433.5 278.5,-433.5 278.5,-433.5 155.5,-433.5"/>
<polygon fill="#666666" stroke="#666666" points="155.5,-418.5 155.5,-418.5 278.5,-418.5 278.5,-418.5 155.5,-418.5"/>
<polygon fill="none" stroke="#666666" points="155,-282 155,-451 278,-451 278,-282 155,-282"/>
</a>
</g>
</g>
<!-- Node3&#45;&gt;Node2 -->
<g id="edge2_Node000002_Node000003" class="edge">
<title>Node3&#45;&gt;Node2</title>
<g id="a_edge2_Node000002_Node000003"><a xlink:title=" ">
<path fill="none" stroke="#63b8ff" d="M251.8,-272.5C256.7,-259.59 261.55,-246.82 265.93,-235.3"/>
<polygon fill="none" stroke="#63b8ff" points="248.51,-271.31 248.23,-281.9 255.06,-273.79 248.51,-271.31"/>
</a>
</g>
</g>
<!-- Node4 -->
<g id="Node000004" class="node">
<title>Node4</title>
<g id="a_Node000004"><a xlink:title=" ">
<polygon fill="white" stroke="transparent" points="163,-558 84,-558 84,-509 163,-509 163,-558"/>
<text text-anchor="start" x="89.5" y="-545.5" font-family="Helvetica,sans-Serif" font-size="10.00">unsigned long</text>
<text text-anchor="start" x="122" y="-530.5" font-family="Helvetica,sans-Serif" font-size="10.00"> </text>
<text text-anchor="start" x="122" y="-515.5" font-family="Helvetica,sans-Serif" font-size="10.00"> </text>
<polygon fill="#666666" stroke="#666666" points="84.5,-540.5 84.5,-540.5 163.5,-540.5 163.5,-540.5 84.5,-540.5"/>
<polygon fill="#666666" stroke="#666666" points="84.5,-525.5 84.5,-525.5 163.5,-525.5 163.5,-525.5 84.5,-525.5"/>
<polygon fill="none" stroke="#666666" points="84,-509 84,-558 163,-558 163,-509 84,-509"/>
</a>
</g>
</g>
<!-- Node4&#45;&gt;Node3 -->
<g id="edge3_Node000003_Node000004" class="edge">
<title>Node4&#45;&gt;Node3</title>
<g id="a_edge3_Node000003_Node000004"><a xlink:title=" ">
<path fill="none" stroke="#63b8ff" d="M128.54,-508.86C131.66,-496.59 136.26,-481.58 142.5,-469 144.46,-465.06 146.56,-461.1 148.79,-457.17"/>
<polygon fill="none" stroke="#63b8ff" points="148.81,-457.13 148.42,-449.93 154.92,-446.8 155.3,-454 148.81,-457.13"/>
</a>
</g>
<text text-anchor="middle" x="177.5" y="-483" font-family="Helvetica,sans-Serif" font-size="10.00" fill="grey"> &#45;last_attempt</text>
<text text-anchor="middle" x="177.5" y="-472" font-family="Helvetica,sans-Serif" font-size="10.00" fill="grey">&#45;wait_factor</text>
</g>
<!-- Node5 -->
<g id="Node000005" class="node">
<title>Node5</title>
<g id="a_Node000005"><a xlink:title=" ">
<polygon fill="white" stroke="transparent" points="23,-558 0,-558 0,-509 23,-509 23,-558"/>
<text text-anchor="start" x="5.5" y="-545.5" font-family="Helvetica,sans-Serif" font-size="10.00">int</text>
<text text-anchor="start" x="10" y="-530.5" font-family="Helvetica,sans-Serif" font-size="10.00"> </text>
<text text-anchor="start" x="10" y="-515.5" font-family="Helvetica,sans-Serif" font-size="10.00"> </text>
<polygon fill="#666666" stroke="#666666" points="0.5,-540.5 0.5,-540.5 23.5,-540.5 23.5,-540.5 0.5,-540.5"/>
<polygon fill="#666666" stroke="#666666" points="0.5,-525.5 0.5,-525.5 23.5,-525.5 23.5,-525.5 0.5,-525.5"/>
<polygon fill="none" stroke="#666666" points="0,-509 0,-558 23,-558 23,-509 0,-509"/>
</a>
</g>
</g>
<!-- Node5&#45;&gt;Node3 -->
<g id="edge4_Node000003_Node000005" class="edge">
<title>Node5&#45;&gt;Node3</title>
<g id="a_edge4_Node000003_Node000005"><a xlink:title=" ">
<path fill="none" stroke="#63b8ff" d="M18.81,-508.76C23.67,-495.87 31.1,-480.31 41.5,-469 69.7,-438.32 109.36,-414.27 143.79,-397.3"/>
<polygon fill="none" stroke="#63b8ff" points="143.94,-397.23 147.62,-391.03 154.76,-392.04 151.08,-398.24 143.94,-397.23"/>
</a>
</g>
<text text-anchor="middle" x="86" y="-483" font-family="Helvetica,sans-Serif" font-size="10.00" fill="grey"> &#45;attempt_number</text>
<text text-anchor="middle" x="86" y="-472" font-family="Helvetica,sans-Serif" font-size="10.00" fill="grey">&#45;max_attempts</text>
</g>
<!-- Node6 -->
<g id="Node000006" class="node">
<title>Node6</title>
<g id="a_Node000006"><a xlink:title=" ">
<polygon fill="white" stroke="transparent" points="352,-558 313,-558 313,-509 352,-509 352,-558"/>
<text text-anchor="start" x="318.5" y="-545.5" font-family="Helvetica,sans-Serif" font-size="10.00">String</text>
<text text-anchor="start" x="331" y="-530.5" font-family="Helvetica,sans-Serif" font-size="10.00"> </text>
<text text-anchor="start" x="331" y="-515.5" font-family="Helvetica,sans-Serif" font-size="10.00"> </text>
<polygon fill="#666666" stroke="#666666" points="313.5,-540.5 313.5,-540.5 352.5,-540.5 352.5,-540.5 313.5,-540.5"/>
<polygon fill="#666666" stroke="#666666" points="313.5,-525.5 313.5,-525.5 352.5,-525.5 352.5,-525.5 313.5,-525.5"/>
<polygon fill="none" stroke="#666666" points="313,-509 313,-558 352,-558 352,-509 313,-509"/>
</a>
</g>
</g>
<!-- Node6&#45;&gt;Node1 -->
<g id="edge7_Node000001_Node000006" class="edge">
<title>Node6&#45;&gt;Node1</title>
<g id="a_edge7_Node000001_Node000006"><a xlink:title=" ">
<path fill="none" stroke="#63b8ff" d="M352.29,-510.17C356.41,-504.31 360.2,-497.73 362.5,-491 407.42,-359.33 395.87,-192.68 385.21,-106.13"/>
<polygon fill="none" stroke="#63b8ff" points="385.21,-106.11 380.48,-100.67 383.69,-94.21 388.42,-99.65 385.21,-106.11"/>
</a>
</g>
<text text-anchor="middle" x="422" y="-256" font-family="Helvetica,sans-Serif" font-size="10.00" fill="grey"> &#45;file_name</text>
</g>
<!-- Node6&#45;&gt;Node3 -->
<g id="edge5_Node000003_Node000006" class="edge">
<title>Node6&#45;&gt;Node3</title>
<g id="a_edge5_Node000003_Node000006"><a xlink:title=" ">
<path fill="none" stroke="#63b8ff" d="M312.97,-515.74C305.18,-508.55 296.44,-499.79 289.5,-491 282.21,-481.76 275.12,-471.73 268.41,-461.51"/>
<polygon fill="none" stroke="#63b8ff" points="268.31,-461.35 261.7,-458.46 261.83,-451.25 268.44,-454.14 268.31,-461.35"/>
</a>
</g>
<text text-anchor="middle" x="326" y="-477.5" font-family="Helvetica,sans-Serif" font-size="10.00" fill="grey"> &#45;device_name</text>
</g>
<!-- Node7 -->
<g id="Node000007" class="node">
<title>Node7</title>
<g id="a_Node000007"><a xlink:title=" ">
<polygon fill="white" stroke="transparent" points="232.5,-558 200.5,-558 200.5,-509 232.5,-509 232.5,-558"/>
<text text-anchor="start" x="205.5" y="-545.5" font-family="Helvetica,sans-Serif" font-size="10.00">bool</text>
<text text-anchor="start" x="214.5" y="-530.5" font-family="Helvetica,sans-Serif" font-size="10.00"> </text>
<text text-anchor="start" x="214.5" y="-515.5" font-family="Helvetica,sans-Serif" font-size="10.00"> </text>
<polygon fill="#666666" stroke="#666666" points="200.5,-540.5 200.5,-540.5 232.5,-540.5 232.5,-540.5 200.5,-540.5"/>
<polygon fill="#666666" stroke="#666666" points="200.5,-525.5 200.5,-525.5 232.5,-525.5 232.5,-525.5 200.5,-525.5"/>
<polygon fill="none" stroke="#666666" points="200.5,-509 200.5,-558 232.5,-558 232.5,-509 200.5,-509"/>
</a>
</g>
</g>
<!-- Node7&#45;&gt;Node3 -->
<g id="edge6_Node000003_Node000007" class="edge">
<title>Node7&#45;&gt;Node3</title>
<g id="a_edge6_Node000003_Node000007"><a xlink:title=" ">
<path fill="none" stroke="#63b8ff" d="M216.5,-508.86C216.5,-496.45 216.5,-480.34 216.5,-463.46"/>
<polygon fill="none" stroke="#63b8ff" points="216.5,-463.07 212.5,-457.07 216.5,-451.07 220.5,-457.07 216.5,-463.07"/>
</a>
</g>
<text text-anchor="middle" x="241" y="-477.5" font-family="Helvetica,sans-Serif" font-size="10.00" fill="grey"> #verified</text>
</g>
<!-- Node8 -->
<g id="Node000008" class="node">
<title>Node8</title>
<g id="a_Node000008"><a xlink:title=" ">
<polygon fill="white" stroke="transparent" points="494,-212.5 405,-212.5 405,-163.5 494,-163.5 494,-212.5"/>
<text text-anchor="start" x="410.5" y="-200" font-family="Helvetica,sans-Serif" font-size="10.00">SPIClassRP2040</text>
<text text-anchor="start" x="448" y="-185" font-family="Helvetica,sans-Serif" font-size="10.00"> </text>
<text text-anchor="start" x="448" y="-170" font-family="Helvetica,sans-Serif" font-size="10.00"> </text>
<polygon fill="#666666" stroke="#666666" points="405.5,-195 405.5,-195 494.5,-195 494.5,-195 405.5,-195"/>
<polygon fill="#666666" stroke="#666666" points="405.5,-180 405.5,-180 494.5,-180 494.5,-180 405.5,-180"/>
<polygon fill="none" stroke="#666666" points="405,-163.5 405,-212.5 494,-212.5 494,-163.5 405,-163.5"/>
</a>
</g>
</g>
<!-- Node8&#45;&gt;Node1 -->
<g id="edge8_Node000001_Node000008" class="edge">
<title>Node8&#45;&gt;Node1</title>
<g id="a_edge8_Node000001_Node000008"><a xlink:title=" ">
<path fill="none" stroke="#63b8ff" d="M437.12,-163.42C428.7,-147.4 417.2,-125.49 406.47,-105.06"/>
<polygon fill="none" stroke="#63b8ff" points="406.36,-104.85 400.03,-101.4 400.78,-94.23 407.11,-97.68 406.36,-104.85"/>
</a>
</g>
<text text-anchor="middle" x="439" y="-115" font-family="Helvetica,sans-Serif" font-size="10.00" fill="grey"> &#45;sd_spi_1</text>
</g>
</g>
</svg>
