<?xml version="1.0" encoding="UTF-8" standalone="no"?>
<!DOCTYPE svg PUBLIC "-//W3C//DTD SVG 1.1//EN"
 "http://www.w3.org/Graphics/SVG/1.1/DTD/svg11.dtd">
<!-- Generated by graphviz version 2.43.0 (0)
 -->
<!-- Title: RadioStorage Pages: 1 -->
<svg width="419pt" height="556pt"
 viewBox="0.00 0.00 418.50 556.00" xmlns="http://www.w3.org/2000/svg" xmlns:xlink="http://www.w3.org/1999/xlink">
<g id="graph0" class="graph" transform="scale(1 1) rotate(0) translate(4 552)">
<title>RadioStorage</title>
<!-- Node1 -->
<g id="Node000001" class="node">
<title>Node1</title>
<g id="a_Node000001"><a xlink:title="Implementation of a Storage device to interface with an SD card.">
<polygon fill="#999999" stroke="transparent" points="392.5,-94 298.5,-94 298.5,0 392.5,0 392.5,-94"/>
<text text-anchor="start" x="312.5" y="-82" font-family="Helvetica,sans-Serif" font-size="10.00">RadioStorage</text>
<text text-anchor="start" x="343.5" y="-67" font-family="Helvetica,sans-Serif" font-size="10.00"> </text>
<text text-anchor="start" x="302.5" y="-52" font-family="Helvetica,sans-Serif" font-size="10.00">+</text>
<text text-anchor="start" x="315.5" y="-52" font-family="Helvetica,sans-Serif" font-size="10.00">RadioStorage()</text>
<text text-anchor="start" x="302.5" y="-37" font-family="Helvetica,sans-Serif" font-size="10.00">+</text>
<text text-anchor="start" x="315.5" y="-37" font-family="Helvetica,sans-Serif" font-size="10.00">verify()</text>
<text text-anchor="start" x="302.5" y="-22" font-family="Helvetica,sans-Serif" font-size="10.00">+</text>
<text text-anchor="start" x="315.5" y="-22" font-family="Helvetica,sans-Serif" font-size="10.00">store()</text>
<text text-anchor="start" x="302.5" y="-7" font-family="Helvetica,sans-Serif" font-size="10.00">+</text>
<text text-anchor="start" x="315.5" y="-7" font-family="Helvetica,sans-Serif" font-size="10.00">store()</text>
<polygon fill="#666666" stroke="#666666" points="298.5,-77 298.5,-77 392.5,-77 392.5,-77 298.5,-77"/>
<polygon fill="#666666" stroke="#666666" points="298.5,-62 298.5,-62 392.5,-62 392.5,-62 298.5,-62"/>
<polygon fill="none" stroke="#666666" points="298.5,0 298.5,-94 392.5,-94 392.5,0 298.5,0"/>
</a>
</g>
</g>
<!-- Node2 -->
<g id="Node000002" class="node">
<title>Node2</title>
<g id="a_Node000002"><a xlink:href="classStorage.html" target="_top" xlink:title="Parent class for all data storage devices (sd card, radio, etc)">
<polygon fill="white" stroke="transparent" points="324,-225 257,-225 257,-131 324,-131 324,-225"/>
<text text-anchor="start" x="272" y="-213" font-family="Helvetica,sans-Serif" font-size="10.00">Storage</text>
<text text-anchor="start" x="289" y="-198" font-family="Helvetica,sans-Serif" font-size="10.00"> </text>
<text text-anchor="start" x="261.5" y="-183" font-family="Helvetica,sans-Serif" font-size="10.00">+</text>
<text text-anchor="start" x="274.5" y="-183" font-family="Helvetica,sans-Serif" font-size="10.00">Storage()</text>
<text text-anchor="start" x="261.5" y="-168" font-family="Helvetica,sans-Serif" font-size="10.00">+</text>
<text text-anchor="start" x="274.5" y="-168" font-family="Helvetica,sans-Serif" font-size="10.00">verify()</text>
<text text-anchor="start" x="261.5" y="-153" font-family="Helvetica,sans-Serif" font-size="10.00">+</text>
<text text-anchor="start" x="274.5" y="-153" font-family="Helvetica,sans-Serif" font-size="10.00">store()</text>
<text text-anchor="start" x="261.5" y="-138" font-family="Helvetica,sans-Serif" font-size="10.00">+</text>
<text text-anchor="start" x="274.5" y="-138" font-family="Helvetica,sans-Serif" font-size="10.00">store()</text>
<polygon fill="#666666" stroke="#666666" points="257.5,-208 257.5,-208 324.5,-208 324.5,-208 257.5,-208"/>
<polygon fill="#666666" stroke="#666666" points="257.5,-193 257.5,-193 324.5,-193 324.5,-193 257.5,-193"/>
<polygon fill="none" stroke="#666666" points="257,-131 257,-225 324,-225 324,-131 257,-131"/>
</a>
</g>
</g>
<!-- Node2&#45;&gt;Node1 -->
<g id="edge1_Node000001_Node000002" class="edge">
<title>Node2&#45;&gt;Node1</title>
<g id="a_edge1_Node000001_Node000002"><a xlink:title=" ">
<path fill="none" stroke="#63b8ff" d="M314.17,-121.47C318.03,-112.42 322,-103.12 325.75,-94.32"/>
<polygon fill="none" stroke="#63b8ff" points="310.9,-120.22 310.2,-130.79 317.34,-122.97 310.9,-120.22"/>
</a>
</g>
</g>
<!-- Node3 -->
<g id="Node000003" class="node">
<title>Node3</title>
<g id="a_Node000003"><a xlink:href="classDevice.html" target="_top" xlink:title="Implements the recovery system for Sensor and Storage objects.">
<polygon fill="white" stroke="transparent" points="278,-441 155,-441 155,-272 278,-272 278,-441"/>
<text text-anchor="start" x="200" y="-428.5" font-family="Helvetica,sans-Serif" font-size="10.00">Device</text>
<text text-anchor="start" x="215" y="-413.5" font-family="Helvetica,sans-Serif" font-size="10.00"> </text>
<text text-anchor="start" x="159.5" y="-398.5" font-family="Helvetica,sans-Serif" font-size="10.00">+</text>
<text text-anchor="start" x="172.5" y="-398.5" font-family="Helvetica,sans-Serif" font-size="10.00">Device()</text>
<text text-anchor="start" x="159.5" y="-383.5" font-family="Helvetica,sans-Serif" font-size="10.00">+</text>
<text text-anchor="start" x="172.5" y="-383.5" font-family="Helvetica,sans-Serif" font-size="10.00">Device()</text>
<text text-anchor="start" x="159.5" y="-368.5" font-family="Helvetica,sans-Serif" font-size="10.00">+</text>
<text text-anchor="start" x="172.5" y="-368.5" font-family="Helvetica,sans-Serif" font-size="10.00">getDeviceName()</text>
<text text-anchor="start" x="159.5" y="-353.5" font-family="Helvetica,sans-Serif" font-size="10.00">+</text>
<text text-anchor="start" x="172.5" y="-353.5" font-family="Helvetica,sans-Serif" font-size="10.00">verify()</text>
<text text-anchor="start" x="159.5" y="-338.5" font-family="Helvetica,sans-Serif" font-size="10.00">+</text>
<text text-anchor="start" x="172.5" y="-338.5" font-family="Helvetica,sans-Serif" font-size="10.00">getVerified()</text>
<text text-anchor="start" x="159.5" y="-323.5" font-family="Helvetica,sans-Serif" font-size="10.00">+</text>
<text text-anchor="start" x="172.5" y="-323.5" font-family="Helvetica,sans-Serif" font-size="10.00">recoveryConfig()</text>
<text text-anchor="start" x="159.5" y="-308.5" font-family="Helvetica,sans-Serif" font-size="10.00">+</text>
<text text-anchor="start" x="172.5" y="-308.5" font-family="Helvetica,sans-Serif" font-size="10.00">setWaitFactor()</text>
<text text-anchor="start" x="159.5" y="-293.5" font-family="Helvetica,sans-Serif" font-size="10.00">+</text>
<text text-anchor="start" x="172.5" y="-293.5" font-family="Helvetica,sans-Serif" font-size="10.00">setMaxAttempts()</text>
<text text-anchor="start" x="159.5" y="-278.5" font-family="Helvetica,sans-Serif" font-size="10.00">+</text>
<text text-anchor="start" x="172.5" y="-278.5" font-family="Helvetica,sans-Serif" font-size="10.00">attemptConnection()</text>
<polygon fill="#666666" stroke="#666666" points="155.5,-423.5 155.5,-423.5 278.5,-423.5 278.5,-423.5 155.5,-423.5"/>
<polygon fill="#666666" stroke="#666666" points="155.5,-408.5 155.5,-408.5 278.5,-408.5 278.5,-408.5 155.5,-408.5"/>
<polygon fill="none" stroke="#666666" points="155,-272 155,-441 278,-441 278,-272 155,-272"/>
</a>
</g>
</g>
<!-- Node3&#45;&gt;Node2 -->
<g id="edge2_Node000002_Node000003" class="edge">
<title>Node3&#45;&gt;Node2</title>
<g id="a_edge2_Node000002_Node000003"><a xlink:title=" ">
<path fill="none" stroke="#63b8ff" d="M255.49,-262.5C260.9,-249.59 266.26,-236.82 271.09,-225.3"/>
<polygon fill="none" stroke="#63b8ff" points="252.19,-261.33 251.55,-271.9 258.64,-264.03 252.19,-261.33"/>
</a>
</g>
</g>
<!-- Node4 -->
<g id="Node000004" class="node">
<title>Node4</title>
<g id="a_Node000004"><a xlink:title=" ">
<polygon fill="white" stroke="transparent" points="163,-548 84,-548 84,-499 163,-499 163,-548"/>
<text text-anchor="start" x="89.5" y="-535.5" font-family="Helvetica,sans-Serif" font-size="10.00">unsigned long</text>
<text text-anchor="start" x="122" y="-520.5" font-family="Helvetica,sans-Serif" font-size="10.00"> </text>
<text text-anchor="start" x="122" y="-505.5" font-family="Helvetica,sans-Serif" font-size="10.00"> </text>
<polygon fill="#666666" stroke="#666666" points="84.5,-530.5 84.5,-530.5 163.5,-530.5 163.5,-530.5 84.5,-530.5"/>
<polygon fill="#666666" stroke="#666666" points="84.5,-515.5 84.5,-515.5 163.5,-515.5 163.5,-515.5 84.5,-515.5"/>
<polygon fill="none" stroke="#666666" points="84,-499 84,-548 163,-548 163,-499 84,-499"/>
</a>
</g>
</g>
<!-- Node4&#45;&gt;Node3 -->
<g id="edge3_Node000003_Node000004" class="edge">
<title>Node4&#45;&gt;Node3</title>
<g id="a_edge3_Node000003_Node000004"><a xlink:title=" ">
<path fill="none" stroke="#63b8ff" d="M128.54,-498.86C131.66,-486.59 136.26,-471.58 142.5,-459 144.46,-455.06 146.56,-451.1 148.79,-447.17"/>
<polygon fill="none" stroke="#63b8ff" points="148.81,-447.13 148.42,-439.93 154.92,-436.8 155.3,-444 148.81,-447.13"/>
</a>
</g>
<text text-anchor="middle" x="177.5" y="-473" font-family="Helvetica,sans-Serif" font-size="10.00" fill="grey"> &#45;last_attempt</text>
<text text-anchor="middle" x="177.5" y="-462" font-family="Helvetica,sans-Serif" font-size="10.00" fill="grey">&#45;wait_factor</text>
</g>
<!-- Node5 -->
<g id="Node000005" class="node">
<title>Node5</title>
<g id="a_Node000005"><a xlink:title=" ">
<polygon fill="white" stroke="transparent" points="23,-548 0,-548 0,-499 23,-499 23,-548"/>
<text text-anchor="start" x="5.5" y="-535.5" font-family="Helvetica,sans-Serif" font-size="10.00">int</text>
<text text-anchor="start" x="10" y="-520.5" font-family="Helvetica,sans-Serif" font-size="10.00"> </text>
<text text-anchor="start" x="10" y="-505.5" font-family="Helvetica,sans-Serif" font-size="10.00"> </text>
<polygon fill="#666666" stroke="#666666" points="0.5,-530.5 0.5,-530.5 23.5,-530.5 23.5,-530.5 0.5,-530.5"/>
<polygon fill="#666666" stroke="#666666" points="0.5,-515.5 0.5,-515.5 23.5,-515.5 23.5,-515.5 0.5,-515.5"/>
<polygon fill="none" stroke="#666666" points="0,-499 0,-548 23,-548 23,-499 0,-499"/>
</a>
</g>
</g>
<!-- Node5&#45;&gt;Node3 -->
<g id="edge4_Node000003_Node000005" class="edge">
<title>Node5&#45;&gt;Node3</title>
<g id="a_edge4_Node000003_Node000005"><a xlink:title=" ">
<path fill="none" stroke="#63b8ff" d="M18.39,-498.75C23.04,-485.86 30.23,-470.3 40.5,-459 68.77,-427.92 108.83,-403.79 143.59,-386.87"/>
<polygon fill="none" stroke="#63b8ff" points="143.83,-386.76 147.54,-380.58 154.67,-381.63 150.96,-387.81 143.83,-386.76"/>
</a>
</g>
<text text-anchor="middle" x="85" y="-473" font-family="Helvetica,sans-Serif" font-size="10.00" fill="grey"> &#45;attempt_number</text>
<text text-anchor="middle" x="85" y="-462" font-family="Helvetica,sans-Serif" font-size="10.00" fill="grey">&#45;max_attempts</text>
</g>
<!-- Node6 -->
<g id="Node000006" class="node">
<title>Node6</title>
<g id="a_Node000006"><a xlink:title=" ">
<polygon fill="white" stroke="transparent" points="352,-548 313,-548 313,-499 352,-499 352,-548"/>
<text text-anchor="start" x="318.5" y="-535.5" font-family="Helvetica,sans-Serif" font-size="10.00">String</text>
<text text-anchor="start" x="331" y="-520.5" font-family="Helvetica,sans-Serif" font-size="10.00"> </text>
<text text-anchor="start" x="331" y="-505.5" font-family="Helvetica,sans-Serif" font-size="10.00"> </text>
<polygon fill="#666666" stroke="#666666" points="313.5,-530.5 313.5,-530.5 352.5,-530.5 352.5,-530.5 313.5,-530.5"/>
<polygon fill="#666666" stroke="#666666" points="313.5,-515.5 313.5,-515.5 352.5,-515.5 352.5,-515.5 313.5,-515.5"/>
<polygon fill="none" stroke="#666666" points="313,-499 313,-548 352,-548 352,-499 313,-499"/>
</a>
</g>
</g>
<!-- Node6&#45;&gt;Node1 -->
<g id="edge7_Node000001_Node000006" class="edge">
<title>Node6&#45;&gt;Node1</title>
<g id="a_edge7_Node000001_Node000006"><a xlink:title=" ">
<path fill="none" stroke="#63b8ff" d="M352.13,-500.66C356.37,-494.69 360.26,-487.94 362.5,-481 365.51,-471.7 362.7,-468.78 362.5,-459 359.9,-333.28 352.83,-186.06 348.68,-106.4"/>
<polygon fill="none" stroke="#63b8ff" points="348.67,-106.19 344.36,-100.41 348.03,-94.21 352.34,-99.99 348.67,-106.19"/>
</a>
</g>
<text text-anchor="middle" x="383" y="-246" font-family="Helvetica,sans-Serif" font-size="10.00" fill="grey"> &#45;file_name</text>
</g>
<!-- Node6&#45;&gt;Node3 -->
<g id="edge5_Node000003_Node000006" class="edge">
<title>Node6&#45;&gt;Node3</title>
<g id="a_edge5_Node000003_Node000006"><a xlink:title=" ">
<path fill="none" stroke="#63b8ff" d="M312.97,-505.74C305.18,-498.55 296.44,-489.79 289.5,-481 282.21,-471.76 275.12,-461.73 268.41,-451.51"/>
<polygon fill="none" stroke="#63b8ff" points="268.31,-451.35 261.7,-448.46 261.83,-441.25 268.44,-444.14 268.31,-451.35"/>
</a>
</g>
<text text-anchor="middle" x="326" y="-467.5" font-family="Helvetica,sans-Serif" font-size="10.00" fill="grey"> &#45;device_name</text>
</g>
<!-- Node7 -->
<g id="Node000007" class="node">
<title>Node7</title>
<g id="a_Node000007"><a xlink:title=" ">
<polygon fill="white" stroke="transparent" points="232.5,-548 200.5,-548 200.5,-499 232.5,-499 232.5,-548"/>
<text text-anchor="start" x="205.5" y="-535.5" font-family="Helvetica,sans-Serif" font-size="10.00">bool</text>
<text text-anchor="start" x="214.5" y="-520.5" font-family="Helvetica,sans-Serif" font-size="10.00"> </text>
<text text-anchor="start" x="214.5" y="-505.5" font-family="Helvetica,sans-Serif" font-size="10.00"> </text>
<polygon fill="#666666" stroke="#666666" points="200.5,-530.5 200.5,-530.5 232.5,-530.5 232.5,-530.5 200.5,-530.5"/>
<polygon fill="#666666" stroke="#666666" points="200.5,-515.5 200.5,-515.5 232.5,-515.5 232.5,-515.5 200.5,-515.5"/>
<polygon fill="none" stroke="#666666" points="200.5,-499 200.5,-548 232.5,-548 232.5,-499 200.5,-499"/>
</a>
</g>
</g>
<!-- Node7&#45;&gt;Node3 -->
<g id="edge6_Node000003_Node000007" class="edge">
<title>Node7&#45;&gt;Node3</title>
<g id="a_edge6_Node000003_Node000007"><a xlink:title=" ">
<path fill="none" stroke="#63b8ff" d="M216.5,-498.86C216.5,-486.45 216.5,-470.34 216.5,-453.46"/>
<polygon fill="none" stroke="#63b8ff" points="216.5,-453.07 212.5,-447.07 216.5,-441.07 220.5,-447.07 216.5,-453.07"/>
</a>
</g>
<text text-anchor="middle" x="241" y="-467.5" font-family="Helvetica,sans-Serif" font-size="10.00" fill="grey"> #verified</text>
</g>
</g>
</svg>
