<?xml version="1.0" encoding="UTF-8" standalone="no"?>
<!DOCTYPE svg PUBLIC "-//W3C//DTD SVG 1.1//EN"
 "http://www.w3.org/Graphics/SVG/1.1/DTD/svg11.dtd">
<!-- Generated by graphviz version 2.43.0 (0)
 -->
<!-- Title: RadioStorage Pages: 1 -->
<svg width="394pt" height="536pt"
 viewBox="0.00 0.00 393.50 536.00" xmlns="http://www.w3.org/2000/svg" xmlns:xlink="http://www.w3.org/1999/xlink">
<g id="graph0" class="graph" transform="scale(1 1) rotate(0) translate(4 532)">
<title>RadioStorage</title>
<!-- Node1 -->
<g id="node1" class="node">
<title>Node1</title>
<g id="a_node1"><a xlink:title="Implementation of a Storage device to interface with an SD card.">
<polygon fill="#bfbfbf" stroke="black" points="0,-0.5 0,-90.5 101,-90.5 101,-0.5 0,-0.5"/>
<text text-anchor="middle" x="50.5" y="-78.5" font-family="Helvetica,sans-Serif" font-size="10.00">RadioStorage</text>
<polyline fill="none" stroke="black" points="0,-71.5 101,-71.5 "/>
<text text-anchor="middle" x="50.5" y="-59.5" font-family="Helvetica,sans-Serif" font-size="10.00"> </text>
<polyline fill="none" stroke="black" points="0,-52.5 101,-52.5 "/>
<text text-anchor="start" x="8" y="-40.5" font-family="Helvetica,sans-Serif" font-size="10.00">+ RadioStorage()</text>
<text text-anchor="start" x="8" y="-29.5" font-family="Helvetica,sans-Serif" font-size="10.00">+ verify()</text>
<text text-anchor="start" x="8" y="-18.5" font-family="Helvetica,sans-Serif" font-size="10.00">+ store()</text>
<text text-anchor="start" x="8" y="-7.5" font-family="Helvetica,sans-Serif" font-size="10.00">+ storePacket()</text>
</a>
</g>
</g>
<!-- Node2 -->
<g id="node2" class="node">
<title>Node2</title>
<g id="a_node2"><a xlink:href="classStorage.html" target="_top" xlink:title="Parent class for all data storage devices (sd card, radio, etc)">
<polygon fill="none" stroke="black" points="74.5,-128.5 74.5,-218.5 166.5,-218.5 166.5,-128.5 74.5,-128.5"/>
<text text-anchor="middle" x="120.5" y="-206.5" font-family="Helvetica,sans-Serif" font-size="10.00">Storage</text>
<polyline fill="none" stroke="black" points="74.5,-199.5 166.5,-199.5 "/>
<text text-anchor="middle" x="120.5" y="-187.5" font-family="Helvetica,sans-Serif" font-size="10.00"> </text>
<polyline fill="none" stroke="black" points="74.5,-180.5 166.5,-180.5 "/>
<text text-anchor="start" x="82.5" y="-168.5" font-family="Helvetica,sans-Serif" font-size="10.00">+ Storage()</text>
<text text-anchor="start" x="82.5" y="-157.5" font-family="Helvetica,sans-Serif" font-size="10.00">+ verify()</text>
<text text-anchor="start" x="82.5" y="-146.5" font-family="Helvetica,sans-Serif" font-size="10.00">+ store()</text>
<text text-anchor="start" x="82.5" y="-135.5" font-family="Helvetica,sans-Serif" font-size="10.00">+ storePacket()</text>
</a>
</g>
</g>
<!-- Node2&#45;&gt;Node1 -->
<g id="edge1" class="edge">
<title>Node2&#45;&gt;Node1</title>
<path fill="none" stroke="midnightblue" d="M91,-119.41C85.7,-109.87 80.23,-100.01 75.09,-90.76"/>
<polygon fill="none" stroke="midnightblue" points="88.1,-121.39 96.02,-128.43 94.22,-117.99 88.1,-121.39"/>
</g>
<!-- Node3 -->
<g id="node3" class="node">
<title>Node3</title>
<g id="a_node3"><a xlink:href="classDevice.html" target="_top" xlink:title="Implements the recovery system for Sensor and Storage objects.">
<polygon fill="none" stroke="black" points="84,-266.5 84,-411.5 213,-411.5 213,-266.5 84,-266.5"/>
<text text-anchor="middle" x="148.5" y="-399.5" font-family="Helvetica,sans-Serif" font-size="10.00">Device</text>
<polyline fill="none" stroke="black" points="84,-392.5 213,-392.5 "/>
<text text-anchor="middle" x="148.5" y="-380.5" font-family="Helvetica,sans-Serif" font-size="10.00"> </text>
<polyline fill="none" stroke="black" points="84,-373.5 213,-373.5 "/>
<text text-anchor="start" x="92" y="-361.5" font-family="Helvetica,sans-Serif" font-size="10.00">+ Device()</text>
<text text-anchor="start" x="92" y="-350.5" font-family="Helvetica,sans-Serif" font-size="10.00">+ Device()</text>
<text text-anchor="start" x="92" y="-339.5" font-family="Helvetica,sans-Serif" font-size="10.00">+ getDeviceName()</text>
<text text-anchor="start" x="92" y="-328.5" font-family="Helvetica,sans-Serif" font-size="10.00">+ verify()</text>
<text text-anchor="start" x="92" y="-317.5" font-family="Helvetica,sans-Serif" font-size="10.00">+ getVerified()</text>
<text text-anchor="start" x="92" y="-306.5" font-family="Helvetica,sans-Serif" font-size="10.00">+ recoveryConfig()</text>
<text text-anchor="start" x="92" y="-295.5" font-family="Helvetica,sans-Serif" font-size="10.00">+ setWaitFactor()</text>
<text text-anchor="start" x="92" y="-284.5" font-family="Helvetica,sans-Serif" font-size="10.00">+ setMaxAttempts()</text>
<text text-anchor="start" x="92" y="-273.5" font-family="Helvetica,sans-Serif" font-size="10.00">+ attemptConnection()</text>
</a>
</g>
</g>
<!-- Node3&#45;&gt;Node2 -->
<g id="edge2" class="edge">
<title>Node3&#45;&gt;Node2</title>
<path fill="none" stroke="midnightblue" d="M134.53,-256.41C132.31,-243.47 130.09,-230.52 128.1,-218.87"/>
<polygon fill="none" stroke="midnightblue" points="131.08,-257.02 136.22,-266.29 137.98,-255.84 131.08,-257.02"/>
</g>
<!-- Node4 -->
<g id="node4" class="node">
<title>Node4</title>
<g id="a_node4"><a xlink:title=" ">
<polygon fill="none" stroke="#bfbfbf" points="14,-470.5 14,-527.5 59,-527.5 59,-470.5 14,-470.5"/>
<text text-anchor="middle" x="36.5" y="-515.5" font-family="Helvetica,sans-Serif" font-size="10.00">String</text>
<polyline fill="none" stroke="#bfbfbf" points="14,-508.5 59,-508.5 "/>
<text text-anchor="middle" x="36.5" y="-496.5" font-family="Helvetica,sans-Serif" font-size="10.00"> </text>
<polyline fill="none" stroke="#bfbfbf" points="14,-489.5 59,-489.5 "/>
<text text-anchor="middle" x="36.5" y="-477.5" font-family="Helvetica,sans-Serif" font-size="10.00"> </text>
</a>
</g>
</g>
<!-- Node4&#45;&gt;Node1 -->
<g id="edge7" class="edge">
<title>Node4&#45;&gt;Node1</title>
<path fill="none" stroke="#404040" d="M37.35,-470.44C39.6,-397.89 45.72,-200.56 48.75,-102.85"/>
<polygon fill="none" stroke="#404040" points="48.76,-102.59 44.95,-96.47 49.13,-90.6 52.94,-96.72 48.76,-102.59"/>
<text text-anchor="middle" x="73.5" y="-240" font-family="Helvetica,sans-Serif" font-size="10.00"> &#45;file_name</text>
</g>
<!-- Node4&#45;&gt;Node3 -->
<g id="edge3" class="edge">
<title>Node4&#45;&gt;Node3</title>
<path fill="none" stroke="#404040" d="M48.91,-470.37C55.06,-457.68 62.99,-442.67 71.5,-430 73.43,-427.12 75.45,-424.23 77.52,-421.34"/>
<polygon fill="none" stroke="#404040" points="77.64,-421.19 78,-413.98 84.79,-411.55 84.42,-418.75 77.64,-421.19"/>
<text text-anchor="middle" x="108" y="-438.5" font-family="Helvetica,sans-Serif" font-size="10.00"> &#45;device_name</text>
</g>
<!-- Node5 -->
<g id="node5" class="node">
<title>Node5</title>
<g id="a_node5"><a xlink:title=" ">
<polygon fill="none" stroke="#bfbfbf" points="106,-470.5 106,-527.5 191,-527.5 191,-470.5 106,-470.5"/>
<text text-anchor="middle" x="148.5" y="-515.5" font-family="Helvetica,sans-Serif" font-size="10.00">unsigned long</text>
<polyline fill="none" stroke="#bfbfbf" points="106,-508.5 191,-508.5 "/>
<text text-anchor="middle" x="148.5" y="-496.5" font-family="Helvetica,sans-Serif" font-size="10.00"> </text>
<polyline fill="none" stroke="#bfbfbf" points="106,-489.5 191,-489.5 "/>
<text text-anchor="middle" x="148.5" y="-477.5" font-family="Helvetica,sans-Serif" font-size="10.00"> </text>
</a>
</g>
</g>
<!-- Node5&#45;&gt;Node3 -->
<g id="edge4" class="edge">
<title>Node5&#45;&gt;Node3</title>
<path fill="none" stroke="#404040" d="M148.5,-470.48C148.5,-457.32 148.5,-440.78 148.5,-423.94"/>
<polygon fill="none" stroke="#404040" points="148.5,-423.67 144.5,-417.67 148.5,-411.67 152.5,-417.67 148.5,-423.67"/>
<text text-anchor="middle" x="183.5" y="-444" font-family="Helvetica,sans-Serif" font-size="10.00"> &#45;last_attempt</text>
<text text-anchor="middle" x="183.5" y="-433" font-family="Helvetica,sans-Serif" font-size="10.00">&#45;wait_factor</text>
</g>
<!-- Node6 -->
<g id="node6" class="node">
<title>Node6</title>
<g id="a_node6"><a xlink:title=" ">
<polygon fill="none" stroke="#bfbfbf" points="227,-470.5 227,-527.5 256,-527.5 256,-470.5 227,-470.5"/>
<text text-anchor="middle" x="241.5" y="-515.5" font-family="Helvetica,sans-Serif" font-size="10.00">int</text>
<polyline fill="none" stroke="#bfbfbf" points="227,-508.5 256,-508.5 "/>
<text text-anchor="middle" x="241.5" y="-496.5" font-family="Helvetica,sans-Serif" font-size="10.00"> </text>
<polyline fill="none" stroke="#bfbfbf" points="227,-489.5 256,-489.5 "/>
<text text-anchor="middle" x="241.5" y="-477.5" font-family="Helvetica,sans-Serif" font-size="10.00"> </text>
</a>
</g>
</g>
<!-- Node6&#45;&gt;Node3 -->
<g id="edge5" class="edge">
<title>Node6&#45;&gt;Node3</title>
<path fill="none" stroke="#404040" d="M234.95,-470.29C231.34,-457.59 226.22,-442.59 219.5,-430 218.06,-427.31 216.55,-424.62 214.96,-421.94"/>
<polygon fill="none" stroke="#404040" points="214.9,-421.85 208.33,-418.88 208.55,-411.68 215.12,-414.64 214.9,-421.85"/>
<text text-anchor="middle" x="274" y="-444" font-family="Helvetica,sans-Serif" font-size="10.00"> &#45;attempt_number</text>
<text text-anchor="middle" x="274" y="-433" font-family="Helvetica,sans-Serif" font-size="10.00">&#45;max_attempts</text>
</g>
<!-- Node7 -->
<g id="node7" class="node">
<title>Node7</title>
<g id="a_node7"><a xlink:title=" ">
<polygon fill="none" stroke="#bfbfbf" points="334.5,-470.5 334.5,-527.5 372.5,-527.5 372.5,-470.5 334.5,-470.5"/>
<text text-anchor="middle" x="353.5" y="-515.5" font-family="Helvetica,sans-Serif" font-size="10.00">bool</text>
<polyline fill="none" stroke="#bfbfbf" points="334.5,-508.5 372.5,-508.5 "/>
<text text-anchor="middle" x="353.5" y="-496.5" font-family="Helvetica,sans-Serif" font-size="10.00"> </text>
<polyline fill="none" stroke="#bfbfbf" points="334.5,-489.5 372.5,-489.5 "/>
<text text-anchor="middle" x="353.5" y="-477.5" font-family="Helvetica,sans-Serif" font-size="10.00"> </text>
</a>
</g>
</g>
<!-- Node7&#45;&gt;Node3 -->
<g id="edge6" class="edge">
<title>Node7&#45;&gt;Node3</title>
<path fill="none" stroke="#404040" d="M345.64,-470.37C340.72,-456.93 333.23,-441.28 322.5,-430 295.64,-401.78 257.98,-380.79 224.56,-366.22"/>
<polygon fill="none" stroke="#404040" points="224.47,-366.18 217.39,-367.54 213.42,-361.52 220.5,-360.16 224.47,-366.18"/>
<text text-anchor="middle" x="361" y="-438.5" font-family="Helvetica,sans-Serif" font-size="10.00"> #verified</text>
</g>
</g>
</svg>
