<?xml version="1.0" encoding="UTF-8" standalone="no"?>
<!DOCTYPE svg PUBLIC "-//W3C//DTD SVG 1.1//EN"
 "http://www.w3.org/Graphics/SVG/1.1/DTD/svg11.dtd">
<!-- Generated by graphviz version 2.43.0 (0)
 -->
<!-- Title: FlashStorage::reinitFlash Pages: 1 -->
<svg width="522pt" height="101pt"
 viewBox="0.00 0.00 522.00 101.00" xmlns="http://www.w3.org/2000/svg" xmlns:xlink="http://www.w3.org/1999/xlink">
<g id="graph0" class="graph" transform="scale(1 1) rotate(0) translate(4 97)">
<title>FlashStorage::reinitFlash</title>
<!-- Node1 -->
<g id="Node000001" class="node">
<title>Node1</title>
<g id="a_Node000001"><a xlink:title=" ">
<polygon fill="#999999" stroke="#666666" points="138,-56 0,-56 0,-37 138,-37 138,-56"/>
<text text-anchor="middle" x="69" y="-44" font-family="Helvetica,sans-Serif" font-size="10.00">FlashStorage::reinitFlash</text>
</a>
</g>
</g>
<!-- Node2 -->
<g id="Node000002" class="node">
<title>Node2</title>
<g id="a_Node000002"><a xlink:href="classFlashStorage.html#a959ed7240cf70430f05686720e1ead5a" target="_top" xlink:title="Locates the next available file block &amp; tracks existing files.">
<polygon fill="white" stroke="#666666" points="314,-56 174,-56 174,-37 314,-37 314,-56"/>
<text text-anchor="middle" x="244" y="-44" font-family="Helvetica,sans-Serif" font-size="10.00">FlashStorage::indexFlash</text>
</a>
</g>
</g>
<!-- Node1&#45;&gt;Node2 -->
<g id="edge1_Node000001_Node000002" class="edge">
<title>Node1&#45;&gt;Node2</title>
<g id="a_edge1_Node000001_Node000002"><a xlink:title=" ">
<path fill="none" stroke="#63b8ff" d="M138.37,-46.5C146.7,-46.5 155.26,-46.5 163.73,-46.5"/>
<polygon fill="#63b8ff" stroke="#63b8ff" points="163.99,-50 173.99,-46.5 163.99,-43 163.99,-50"/>
</a>
</g>
</g>
<!-- Node3 -->
<g id="Node000003" class="node">
<title>Node3</title>
<g id="a_Node000003"><a xlink:href="classFlashStorage.html#a97b10db97f42549e197feeff3f3f9abb" target="_top" xlink:title="Determines if the current sector is empty.">
<polygon fill="white" stroke="#666666" points="510.5,-93 353.5,-93 353.5,-74 510.5,-74 510.5,-93"/>
<text text-anchor="middle" x="432" y="-81" font-family="Helvetica,sans-Serif" font-size="10.00">FlashStorage::isSectorEmpty</text>
</a>
</g>
</g>
<!-- Node2&#45;&gt;Node3 -->
<g id="edge2_Node000002_Node000003" class="edge">
<title>Node2&#45;&gt;Node3</title>
<g id="a_edge2_Node000002_Node000003"><a xlink:title=" ">
<path fill="none" stroke="#63b8ff" d="M292.9,-56.03C317.32,-60.89 347.22,-66.83 372.94,-71.95"/>
<polygon fill="#63b8ff" stroke="#63b8ff" points="372.45,-75.42 382.94,-73.94 373.81,-68.56 372.45,-75.42"/>
</a>
</g>
</g>
<!-- Node4 -->
<g id="Node000004" class="node">
<title>Node4</title>
<g id="a_Node000004"><a xlink:href="classFlashStorage.html#aa64883a0b4aa2c9124d0be9b4722d729" target="_top" xlink:title="Determines if the first 4 bytes of a sector are a file header.">
<polygon fill="white" stroke="#666666" points="512.5,-56 351.5,-56 351.5,-37 512.5,-37 512.5,-56"/>
<text text-anchor="middle" x="432" y="-44" font-family="Helvetica,sans-Serif" font-size="10.00">FlashStorage::readFileHeader</text>
</a>
</g>
</g>
<!-- Node2&#45;&gt;Node4 -->
<g id="edge3_Node000002_Node000004" class="edge">
<title>Node2&#45;&gt;Node4</title>
<g id="a_edge3_Node000002_Node000004"><a xlink:title=" ">
<path fill="none" stroke="#63b8ff" d="M314.26,-46.5C323.04,-46.5 332.12,-46.5 341.17,-46.5"/>
<polygon fill="#63b8ff" stroke="#63b8ff" points="341.34,-50 351.34,-46.5 341.34,-43 341.34,-50"/>
</a>
</g>
</g>
<!-- Node5 -->
<g id="Node000005" class="node">
<title>Node5</title>
<g id="a_Node000005"><a xlink:href="classFlashStorage.html#a3f4de49bad97284528ebd5279abf3985" target="_top" xlink:title="Writes the file header to the start of a new sector.">
<polygon fill="white" stroke="#666666" points="514,-19 350,-19 350,0 514,0 514,-19"/>
<text text-anchor="middle" x="432" y="-7" font-family="Helvetica,sans-Serif" font-size="10.00">FlashStorage::writeFileHeader</text>
</a>
</g>
</g>
<!-- Node2&#45;&gt;Node5 -->
<g id="edge4_Node000002_Node000005" class="edge">
<title>Node2&#45;&gt;Node5</title>
<g id="a_edge4_Node000002_Node000005"><a xlink:title=" ">
<path fill="none" stroke="#63b8ff" d="M292.9,-36.97C317.32,-32.11 347.22,-26.17 372.94,-21.05"/>
<polygon fill="#63b8ff" stroke="#63b8ff" points="373.81,-24.44 382.94,-19.06 372.45,-17.58 373.81,-24.44"/>
</a>
</g>
</g>
</g>
</svg>
