<?xml version="1.0" encoding="UTF-8" standalone="no"?>
<!DOCTYPE svg PUBLIC "-//W3C//DTD SVG 1.1//EN"
 "http://www.w3.org/Graphics/SVG/1.1/DTD/svg11.dtd">
<!-- Generated by graphviz version 2.43.0 (0)
 -->
<!-- Title: Device Pages: 1 -->
<svg width="2579pt" height="815pt"
 viewBox="0.00 0.00 2578.50 815.00" xmlns="http://www.w3.org/2000/svg" xmlns:xlink="http://www.w3.org/1999/xlink">
<g id="graph0" class="graph" transform="scale(1 1) rotate(0) translate(4 811)">
<title>Device</title>
<!-- Node1 -->
<g id="node1" class="node">
<title>Node1</title>
<g id="a_node1"><a xlink:title="Implements the recovery system for Sensor and Storage objects.">
<polygon fill="#bfbfbf" stroke="black" points="1634,-606.5 1634,-806.5 1763,-806.5 1763,-606.5 1634,-606.5"/>
<text text-anchor="middle" x="1698.5" y="-794.5" font-family="Helvetica,sans-Serif" font-size="10.00">Device</text>
<polyline fill="none" stroke="black" points="1634,-787.5 1763,-787.5 "/>
<text text-anchor="start" x="1642" y="-775.5" font-family="Helvetica,sans-Serif" font-size="10.00"># verified</text>
<text text-anchor="start" x="1642" y="-764.5" font-family="Helvetica,sans-Serif" font-size="10.00">&#45; last_attempt</text>
<text text-anchor="start" x="1642" y="-753.5" font-family="Helvetica,sans-Serif" font-size="10.00">&#45; max_attempts</text>
<text text-anchor="start" x="1642" y="-742.5" font-family="Helvetica,sans-Serif" font-size="10.00">&#45; attempt_number</text>
<text text-anchor="start" x="1642" y="-731.5" font-family="Helvetica,sans-Serif" font-size="10.00">&#45; wait_factor</text>
<text text-anchor="start" x="1642" y="-720.5" font-family="Helvetica,sans-Serif" font-size="10.00">&#45; device_name</text>
<polyline fill="none" stroke="black" points="1634,-713.5 1763,-713.5 "/>
<text text-anchor="start" x="1642" y="-701.5" font-family="Helvetica,sans-Serif" font-size="10.00">+ Device()</text>
<text text-anchor="start" x="1642" y="-690.5" font-family="Helvetica,sans-Serif" font-size="10.00">+ Device()</text>
<text text-anchor="start" x="1642" y="-679.5" font-family="Helvetica,sans-Serif" font-size="10.00">+ getDeviceName()</text>
<text text-anchor="start" x="1642" y="-668.5" font-family="Helvetica,sans-Serif" font-size="10.00">+ verify()</text>
<text text-anchor="start" x="1642" y="-657.5" font-family="Helvetica,sans-Serif" font-size="10.00">+ getVerified()</text>
<text text-anchor="start" x="1642" y="-646.5" font-family="Helvetica,sans-Serif" font-size="10.00">+ recoveryConfig()</text>
<text text-anchor="start" x="1642" y="-635.5" font-family="Helvetica,sans-Serif" font-size="10.00">+ setWaitFactor()</text>
<text text-anchor="start" x="1642" y="-624.5" font-family="Helvetica,sans-Serif" font-size="10.00">+ setMaxAttempts()</text>
<text text-anchor="start" x="1642" y="-613.5" font-family="Helvetica,sans-Serif" font-size="10.00">+ attemptConnection()</text>
</a>
</g>
</g>
<!-- Node2 -->
<g id="node2" class="node">
<title>Node2</title>
<g id="a_node2"><a xlink:href="classSensor.html" target="_top" xlink:title="Parent class for sensor objects.">
<polygon fill="none" stroke="black" points="1106,-303.5 1106,-569.5 1245,-569.5 1245,-303.5 1106,-303.5"/>
<text text-anchor="middle" x="1175.5" y="-557.5" font-family="Helvetica,sans-Serif" font-size="10.00">Sensor</text>
<polyline fill="none" stroke="black" points="1106,-550.5 1245,-550.5 "/>
<text text-anchor="start" x="1114" y="-538.5" font-family="Helvetica,sans-Serif" font-size="10.00"># num_fields</text>
<text text-anchor="start" x="1114" y="-527.5" font-family="Helvetica,sans-Serif" font-size="10.00">&#45; minimum_period</text>
<text text-anchor="start" x="1114" y="-516.5" font-family="Helvetica,sans-Serif" font-size="10.00">&#45; last_execution</text>
<text text-anchor="start" x="1114" y="-505.5" font-family="Helvetica,sans-Serif" font-size="10.00">&#45; csv_header</text>
<text text-anchor="start" x="1114" y="-494.5" font-family="Helvetica,sans-Serif" font-size="10.00">&#45; empty_csv</text>
<polyline fill="none" stroke="black" points="1106,-487.5 1245,-487.5 "/>
<text text-anchor="start" x="1114" y="-475.5" font-family="Helvetica,sans-Serif" font-size="10.00">+ Sensor()</text>
<text text-anchor="start" x="1114" y="-464.5" font-family="Helvetica,sans-Serif" font-size="10.00">+ Sensor()</text>
<text text-anchor="start" x="1114" y="-453.5" font-family="Helvetica,sans-Serif" font-size="10.00">+ Sensor()</text>
<text text-anchor="start" x="1114" y="-442.5" font-family="Helvetica,sans-Serif" font-size="10.00">+ Sensor()</text>
<text text-anchor="start" x="1114" y="-431.5" font-family="Helvetica,sans-Serif" font-size="10.00">+ getPeriod()</text>
<text text-anchor="start" x="1114" y="-420.5" font-family="Helvetica,sans-Serif" font-size="10.00">+ setPeriod()</text>
<text text-anchor="start" x="1114" y="-409.5" font-family="Helvetica,sans-Serif" font-size="10.00">+ getLastExecution()</text>
<text text-anchor="start" x="1114" y="-398.5" font-family="Helvetica,sans-Serif" font-size="10.00">+ setLastExecution()</text>
<text text-anchor="start" x="1114" y="-387.5" font-family="Helvetica,sans-Serif" font-size="10.00">+ getSensorCSVHeader()</text>
<text text-anchor="start" x="1114" y="-376.5" font-family="Helvetica,sans-Serif" font-size="10.00">+ verify()</text>
<text text-anchor="start" x="1114" y="-365.5" font-family="Helvetica,sans-Serif" font-size="10.00">+ readData()</text>
<text text-anchor="start" x="1114" y="-354.5" font-family="Helvetica,sans-Serif" font-size="10.00">+ readDataPacket()</text>
<text text-anchor="start" x="1114" y="-343.5" font-family="Helvetica,sans-Serif" font-size="10.00">+ decodeToCSV()</text>
<text text-anchor="start" x="1114" y="-332.5" font-family="Helvetica,sans-Serif" font-size="10.00">+ getDataPacket()</text>
<text text-anchor="start" x="1114" y="-321.5" font-family="Helvetica,sans-Serif" font-size="10.00">+ readEmpty()</text>
<text text-anchor="start" x="1114" y="-310.5" font-family="Helvetica,sans-Serif" font-size="10.00">+ getDataCSV()</text>
</a>
</g>
</g>
<!-- Node1&#45;&gt;Node2 -->
<g id="edge1" class="edge">
<title>Node1&#45;&gt;Node2</title>
<path fill="none" stroke="midnightblue" d="M1624.94,-667.8C1524.12,-616.14 1344.29,-523.99 1245.42,-473.33"/>
<polygon fill="none" stroke="midnightblue" points="1623.35,-670.92 1633.85,-672.37 1626.54,-664.69 1623.35,-670.92"/>
</g>
<!-- Node20 -->
<g id="node20" class="node">
<title>Node20</title>
<g id="a_node20"><a xlink:href="classStorage.html" target="_top" xlink:title="Parent class for all data storage devices (sd card, radio, etc)">
<polygon fill="none" stroke="black" points="2302.5,-391.5 2302.5,-481.5 2394.5,-481.5 2394.5,-391.5 2302.5,-391.5"/>
<text text-anchor="middle" x="2348.5" y="-469.5" font-family="Helvetica,sans-Serif" font-size="10.00">Storage</text>
<polyline fill="none" stroke="black" points="2302.5,-462.5 2394.5,-462.5 "/>
<text text-anchor="middle" x="2348.5" y="-450.5" font-family="Helvetica,sans-Serif" font-size="10.00"> </text>
<polyline fill="none" stroke="black" points="2302.5,-443.5 2394.5,-443.5 "/>
<text text-anchor="start" x="2310.5" y="-431.5" font-family="Helvetica,sans-Serif" font-size="10.00">+ Storage()</text>
<text text-anchor="start" x="2310.5" y="-420.5" font-family="Helvetica,sans-Serif" font-size="10.00">+ verify()</text>
<text text-anchor="start" x="2310.5" y="-409.5" font-family="Helvetica,sans-Serif" font-size="10.00">+ store()</text>
<text text-anchor="start" x="2310.5" y="-398.5" font-family="Helvetica,sans-Serif" font-size="10.00">+ storePacket()</text>
</a>
</g>
</g>
<!-- Node1&#45;&gt;Node20 -->
<g id="edge19" class="edge">
<title>Node1&#45;&gt;Node20</title>
<path fill="none" stroke="midnightblue" d="M1772.69,-674.91C1908.08,-619.09 2191.48,-502.24 2302.5,-456.47"/>
<polygon fill="none" stroke="midnightblue" points="1771.11,-671.78 1763.2,-678.82 1773.78,-678.25 1771.11,-671.78"/>
</g>
<!-- Node3 -->
<g id="node3" class="node">
<title>Node3</title>
<g id="a_node3"><a xlink:href="classAS7331Sensor.html" target="_top" xlink:title="Implementation of a Sensor for UVA/B/C sensor.">
<polygon fill="none" stroke="black" points="0,-72 0,-195 113,-195 113,-72 0,-72"/>
<text text-anchor="middle" x="56.5" y="-183" font-family="Helvetica,sans-Serif" font-size="10.00">AS7331Sensor</text>
<polyline fill="none" stroke="black" points="0,-176 113,-176 "/>
<text text-anchor="start" x="8" y="-164" font-family="Helvetica,sans-Serif" font-size="10.00">&#45; myUVSensor</text>
<text text-anchor="start" x="8" y="-153" font-family="Helvetica,sans-Serif" font-size="10.00">&#45; i2c_addr</text>
<polyline fill="none" stroke="black" points="0,-146 113,-146 "/>
<text text-anchor="start" x="8" y="-134" font-family="Helvetica,sans-Serif" font-size="10.00">+ AS7331Sensor()</text>
<text text-anchor="start" x="8" y="-123" font-family="Helvetica,sans-Serif" font-size="10.00">+ AS7331Sensor()</text>
<text text-anchor="start" x="8" y="-112" font-family="Helvetica,sans-Serif" font-size="10.00">+ verify()</text>
<text text-anchor="start" x="8" y="-101" font-family="Helvetica,sans-Serif" font-size="10.00">+ readDataPacket()</text>
<text text-anchor="start" x="8" y="-90" font-family="Helvetica,sans-Serif" font-size="10.00">+ decodeToCSV()</text>
<text text-anchor="start" x="8" y="-79" font-family="Helvetica,sans-Serif" font-size="10.00">+ readData()</text>
</a>
</g>
</g>
<!-- Node2&#45;&gt;Node3 -->
<g id="edge2" class="edge">
<title>Node2&#45;&gt;Node3</title>
<path fill="none" stroke="midnightblue" d="M1095.58,-432.08C877.25,-421.32 276.71,-381.75 121.5,-267 97.91,-249.56 82.42,-221.21 72.5,-195.21"/>
<polygon fill="none" stroke="midnightblue" points="1095.53,-435.58 1105.68,-432.57 1095.87,-428.59 1095.53,-435.58"/>
</g>
<!-- Node4 -->
<g id="node4" class="node">
<title>Node4</title>
<g id="a_node4"><a xlink:href="classBME280Sensor.html" target="_top" xlink:title="Implementation of a Sensor for the BME280.">
<polygon fill="none" stroke="black" points="131,-77.5 131,-189.5 244,-189.5 244,-77.5 131,-77.5"/>
<text text-anchor="middle" x="187.5" y="-177.5" font-family="Helvetica,sans-Serif" font-size="10.00">BME280Sensor</text>
<polyline fill="none" stroke="black" points="131,-170.5 244,-170.5 "/>
<text text-anchor="start" x="139" y="-158.5" font-family="Helvetica,sans-Serif" font-size="10.00">&#45; bme</text>
<polyline fill="none" stroke="black" points="131,-151.5 244,-151.5 "/>
<text text-anchor="start" x="139" y="-139.5" font-family="Helvetica,sans-Serif" font-size="10.00">+ BME280Sensor()</text>
<text text-anchor="start" x="139" y="-128.5" font-family="Helvetica,sans-Serif" font-size="10.00">+ BME280Sensor()</text>
<text text-anchor="start" x="139" y="-117.5" font-family="Helvetica,sans-Serif" font-size="10.00">+ verify()</text>
<text text-anchor="start" x="139" y="-106.5" font-family="Helvetica,sans-Serif" font-size="10.00">+ readData()</text>
<text text-anchor="start" x="139" y="-95.5" font-family="Helvetica,sans-Serif" font-size="10.00">+ readDataPacket()</text>
<text text-anchor="start" x="139" y="-84.5" font-family="Helvetica,sans-Serif" font-size="10.00">+ decodeToCSV()</text>
</a>
</g>
</g>
<!-- Node2&#45;&gt;Node4 -->
<g id="edge3" class="edge">
<title>Node2&#45;&gt;Node4</title>
<path fill="none" stroke="midnightblue" d="M1095.87,-430.08C897.11,-415.16 385.61,-367.7 252.5,-267 227.47,-248.06 211.51,-216.91 201.67,-189.57"/>
<polygon fill="none" stroke="midnightblue" points="1095.72,-433.58 1105.95,-430.83 1096.24,-426.6 1095.72,-433.58"/>
</g>
<!-- Node5 -->
<g id="node5" class="node">
<title>Node5</title>
<g id="a_node5"><a xlink:href="classBME680Sensor.html" target="_top" xlink:title="A class to interface with the Adafruit BME680 sensor for environmental data collection.">
<polygon fill="none" stroke="black" points="262,-77.5 262,-189.5 375,-189.5 375,-77.5 262,-77.5"/>
<text text-anchor="middle" x="318.5" y="-177.5" font-family="Helvetica,sans-Serif" font-size="10.00">BME680Sensor</text>
<polyline fill="none" stroke="black" points="262,-170.5 375,-170.5 "/>
<text text-anchor="start" x="270" y="-158.5" font-family="Helvetica,sans-Serif" font-size="10.00">&#45; bme</text>
<polyline fill="none" stroke="black" points="262,-151.5 375,-151.5 "/>
<text text-anchor="start" x="270" y="-139.5" font-family="Helvetica,sans-Serif" font-size="10.00">+ BME680Sensor()</text>
<text text-anchor="start" x="270" y="-128.5" font-family="Helvetica,sans-Serif" font-size="10.00">+ BME680Sensor()</text>
<text text-anchor="start" x="270" y="-117.5" font-family="Helvetica,sans-Serif" font-size="10.00">+ verify()</text>
<text text-anchor="start" x="270" y="-106.5" font-family="Helvetica,sans-Serif" font-size="10.00">+ readData()</text>
<text text-anchor="start" x="270" y="-95.5" font-family="Helvetica,sans-Serif" font-size="10.00">+ readDataPacket()</text>
<text text-anchor="start" x="270" y="-84.5" font-family="Helvetica,sans-Serif" font-size="10.00">+ decodeToCSV()</text>
</a>
</g>
</g>
<!-- Node2&#45;&gt;Node5 -->
<g id="edge4" class="edge">
<title>Node2&#45;&gt;Node5</title>
<path fill="none" stroke="midnightblue" d="M1095.59,-427.39C917.44,-407.92 494.64,-353.64 383.5,-267 358.85,-247.78 342.93,-216.79 333.02,-189.61"/>
<polygon fill="none" stroke="midnightblue" points="1095.37,-430.88 1105.69,-428.48 1096.12,-423.92 1095.37,-430.88"/>
</g>
<!-- Node6 -->
<g id="node6" class="node">
<title>Node6</title>
<g id="a_node6"><a xlink:href="classBMP390Sensor.html" target="_top" xlink:title="Implementation of a Sensor for BMP384 Pressure and Temperature sensor.">
<polygon fill="none" stroke="black" points="393,-77.5 393,-189.5 506,-189.5 506,-77.5 393,-77.5"/>
<text text-anchor="middle" x="449.5" y="-177.5" font-family="Helvetica,sans-Serif" font-size="10.00">BMP390Sensor</text>
<polyline fill="none" stroke="black" points="393,-170.5 506,-170.5 "/>
<text text-anchor="start" x="401" y="-158.5" font-family="Helvetica,sans-Serif" font-size="10.00">&#45; bmp</text>
<polyline fill="none" stroke="black" points="393,-151.5 506,-151.5 "/>
<text text-anchor="start" x="401" y="-139.5" font-family="Helvetica,sans-Serif" font-size="10.00">+ BMP390Sensor()</text>
<text text-anchor="start" x="401" y="-128.5" font-family="Helvetica,sans-Serif" font-size="10.00">+ BMP390Sensor()</text>
<text text-anchor="start" x="401" y="-117.5" font-family="Helvetica,sans-Serif" font-size="10.00">+ verify()</text>
<text text-anchor="start" x="401" y="-106.5" font-family="Helvetica,sans-Serif" font-size="10.00">+ readData()</text>
<text text-anchor="start" x="401" y="-95.5" font-family="Helvetica,sans-Serif" font-size="10.00">+ readDataPacket()</text>
<text text-anchor="start" x="401" y="-84.5" font-family="Helvetica,sans-Serif" font-size="10.00">+ decodeToCSV()</text>
</a>
</g>
</g>
<!-- Node2&#45;&gt;Node6 -->
<g id="edge5" class="edge">
<title>Node2&#45;&gt;Node6</title>
<path fill="none" stroke="midnightblue" d="M1095.59,-435.83C960.94,-432.28 686.74,-406.9 514.5,-267 490.34,-247.37 474.47,-216.53 464.46,-189.54"/>
<polygon fill="none" stroke="midnightblue" points="1095.74,-439.33 1105.82,-436.06 1095.9,-432.33 1095.74,-439.33"/>
</g>
<!-- Node7 -->
<g id="node7" class="node">
<title>Node7</title>
<g id="a_node7"><a xlink:href="classDS3231Sensor.html" target="_top" xlink:title="Implementation of a Sensor for the DS3231 Real Time Clock.">
<polygon fill="none" stroke="black" points="524,-72 524,-195 637,-195 637,-72 524,-72"/>
<text text-anchor="middle" x="580.5" y="-183" font-family="Helvetica,sans-Serif" font-size="10.00">DS3231Sensor</text>
<polyline fill="none" stroke="black" points="524,-176 637,-176 "/>
<text text-anchor="start" x="532" y="-164" font-family="Helvetica,sans-Serif" font-size="10.00">&#45; rtc</text>
<polyline fill="none" stroke="black" points="524,-157 637,-157 "/>
<text text-anchor="start" x="532" y="-145" font-family="Helvetica,sans-Serif" font-size="10.00">+ DS3231Sensor()</text>
<text text-anchor="start" x="532" y="-134" font-family="Helvetica,sans-Serif" font-size="10.00">+ DS3231Sensor()</text>
<text text-anchor="start" x="532" y="-123" font-family="Helvetica,sans-Serif" font-size="10.00">+ verify()</text>
<text text-anchor="start" x="532" y="-112" font-family="Helvetica,sans-Serif" font-size="10.00">+ readData()</text>
<text text-anchor="start" x="532" y="-101" font-family="Helvetica,sans-Serif" font-size="10.00">+ readDataPacket()</text>
<text text-anchor="start" x="532" y="-90" font-family="Helvetica,sans-Serif" font-size="10.00">+ decodeToCSV()</text>
<text text-anchor="start" x="532" y="-79" font-family="Helvetica,sans-Serif" font-size="10.00">+ setTime()</text>
</a>
</g>
</g>
<!-- Node2&#45;&gt;Node7 -->
<g id="edge6" class="edge">
<title>Node2&#45;&gt;Node7</title>
<path fill="none" stroke="midnightblue" d="M1095.41,-429.49C982.62,-417.11 776.18,-379.62 645.5,-267 623.76,-248.27 608.6,-220.56 598.43,-195.33"/>
<polygon fill="none" stroke="midnightblue" points="1095.38,-433.01 1105.7,-430.58 1096.12,-426.05 1095.38,-433.01"/>
</g>
<!-- Node8 -->
<g id="node8" class="node">
<title>Node8</title>
<g id="a_node8"><a xlink:href="classENS160Sensor.html" target="_top" xlink:title="Implementation of a Sensor for the ENS160.">
<polygon fill="none" stroke="black" points="655,-77.5 655,-189.5 768,-189.5 768,-77.5 655,-77.5"/>
<text text-anchor="middle" x="711.5" y="-177.5" font-family="Helvetica,sans-Serif" font-size="10.00">ENS160Sensor</text>
<polyline fill="none" stroke="black" points="655,-170.5 768,-170.5 "/>
<text text-anchor="start" x="663" y="-158.5" font-family="Helvetica,sans-Serif" font-size="10.00">&#45; ens</text>
<polyline fill="none" stroke="black" points="655,-151.5 768,-151.5 "/>
<text text-anchor="start" x="663" y="-139.5" font-family="Helvetica,sans-Serif" font-size="10.00">+ ENS160Sensor()</text>
<text text-anchor="start" x="663" y="-128.5" font-family="Helvetica,sans-Serif" font-size="10.00">+ ENS160Sensor()</text>
<text text-anchor="start" x="663" y="-117.5" font-family="Helvetica,sans-Serif" font-size="10.00">+ verify()</text>
<text text-anchor="start" x="663" y="-106.5" font-family="Helvetica,sans-Serif" font-size="10.00">+ readData()</text>
<text text-anchor="start" x="663" y="-95.5" font-family="Helvetica,sans-Serif" font-size="10.00">+ readDataPacket()</text>
<text text-anchor="start" x="663" y="-84.5" font-family="Helvetica,sans-Serif" font-size="10.00">+ decodeToCSV()</text>
</a>
</g>
</g>
<!-- Node2&#45;&gt;Node8 -->
<g id="edge7" class="edge">
<title>Node2&#45;&gt;Node8</title>
<path fill="none" stroke="midnightblue" d="M1096.02,-419.49C1008.22,-398.19 867.27,-352.79 776.5,-267 754.34,-246.06 738.74,-215.95 728.38,-189.73"/>
<polygon fill="none" stroke="midnightblue" points="1095.39,-422.94 1105.93,-421.85 1097.01,-416.13 1095.39,-422.94"/>
</g>
<!-- Node9 -->
<g id="node9" class="node">
<title>Node9</title>
<g id="a_node9"><a xlink:href="classICM20948Sensor.html" target="_top" xlink:title="Implementation of the Sensor class for the Adafruit ICM20948 (9&#45;axis IMU)">
<polygon fill="none" stroke="black" points="786,-55.5 786,-211.5 903,-211.5 903,-55.5 786,-55.5"/>
<text text-anchor="middle" x="844.5" y="-199.5" font-family="Helvetica,sans-Serif" font-size="10.00">ICM20948Sensor</text>
<polyline fill="none" stroke="black" points="786,-192.5 903,-192.5 "/>
<text text-anchor="start" x="794" y="-180.5" font-family="Helvetica,sans-Serif" font-size="10.00">&#45; icm</text>
<text text-anchor="start" x="794" y="-169.5" font-family="Helvetica,sans-Serif" font-size="10.00">&#45; icm_accel</text>
<text text-anchor="start" x="794" y="-158.5" font-family="Helvetica,sans-Serif" font-size="10.00">&#45; icm_gyro</text>
<text text-anchor="start" x="794" y="-147.5" font-family="Helvetica,sans-Serif" font-size="10.00">&#45; icm_mag</text>
<text text-anchor="start" x="794" y="-136.5" font-family="Helvetica,sans-Serif" font-size="10.00">&#45; icm_temp</text>
<polyline fill="none" stroke="black" points="786,-129.5 903,-129.5 "/>
<text text-anchor="start" x="794" y="-117.5" font-family="Helvetica,sans-Serif" font-size="10.00">+ ICM20948Sensor()</text>
<text text-anchor="start" x="794" y="-106.5" font-family="Helvetica,sans-Serif" font-size="10.00">+ ICM20948Sensor()</text>
<text text-anchor="start" x="794" y="-95.5" font-family="Helvetica,sans-Serif" font-size="10.00">+ verify()</text>
<text text-anchor="start" x="794" y="-84.5" font-family="Helvetica,sans-Serif" font-size="10.00">+ readData()</text>
<text text-anchor="start" x="794" y="-73.5" font-family="Helvetica,sans-Serif" font-size="10.00">+ readDataPacket()</text>
<text text-anchor="start" x="794" y="-62.5" font-family="Helvetica,sans-Serif" font-size="10.00">+ decodeToCSV()</text>
</a>
</g>
</g>
<!-- Node2&#45;&gt;Node9 -->
<g id="edge8" class="edge">
<title>Node2&#45;&gt;Node9</title>
<path fill="none" stroke="midnightblue" d="M1096.92,-399.61C1039.78,-370.39 963.61,-324.6 911.5,-267 896.97,-250.94 884.77,-231.16 874.92,-211.82"/>
<polygon fill="none" stroke="midnightblue" points="1095.42,-402.77 1105.92,-404.15 1098.57,-396.52 1095.42,-402.77"/>
</g>
<!-- Node10 -->
<g id="node10" class="node">
<title>Node10</title>
<g id="a_node10"><a xlink:href="classINA260Sensor.html" target="_top" xlink:title="A class to interface with the Adafruit INA260 sensor for current, voltage, and power measurements.">
<polygon fill="none" stroke="black" points="921,-77.5 921,-189.5 1034,-189.5 1034,-77.5 921,-77.5"/>
<text text-anchor="middle" x="977.5" y="-177.5" font-family="Helvetica,sans-Serif" font-size="10.00">INA260Sensor</text>
<polyline fill="none" stroke="black" points="921,-170.5 1034,-170.5 "/>
<text text-anchor="start" x="929" y="-158.5" font-family="Helvetica,sans-Serif" font-size="10.00">&#45; ina260</text>
<polyline fill="none" stroke="black" points="921,-151.5 1034,-151.5 "/>
<text text-anchor="start" x="929" y="-139.5" font-family="Helvetica,sans-Serif" font-size="10.00">+ INA260Sensor()</text>
<text text-anchor="start" x="929" y="-128.5" font-family="Helvetica,sans-Serif" font-size="10.00">+ INA260Sensor()</text>
<text text-anchor="start" x="929" y="-117.5" font-family="Helvetica,sans-Serif" font-size="10.00">+ readDataPacket()</text>
<text text-anchor="start" x="929" y="-106.5" font-family="Helvetica,sans-Serif" font-size="10.00">+ decodeToCSV()</text>
<text text-anchor="start" x="929" y="-95.5" font-family="Helvetica,sans-Serif" font-size="10.00">+ verify()</text>
<text text-anchor="start" x="929" y="-84.5" font-family="Helvetica,sans-Serif" font-size="10.00">+ readData()</text>
</a>
</g>
</g>
<!-- Node2&#45;&gt;Node10 -->
<g id="edge9" class="edge">
<title>Node2&#45;&gt;Node10</title>
<path fill="none" stroke="midnightblue" d="M1099.64,-345.59C1080.29,-320.85 1060.24,-293.51 1043.5,-267 1028.06,-242.56 1013.45,-214.01 1001.91,-189.68"/>
<polygon fill="none" stroke="midnightblue" points="1096.95,-347.83 1105.89,-353.52 1102.45,-343.5 1096.95,-347.83"/>
</g>
<!-- Node11 -->
<g id="node11" class="node">
<title>Node11</title>
<g id="a_node11"><a xlink:href="classLSM9DS1Sensor.html" target="_top" xlink:title="Implementation of the Sensor class for the LSM9DS1 (9&#45;axis IMU)">
<polygon fill="none" stroke="black" points="1052.5,-50 1052.5,-217 1166.5,-217 1166.5,-50 1052.5,-50"/>
<text text-anchor="middle" x="1109.5" y="-205" font-family="Helvetica,sans-Serif" font-size="10.00">LSM9DS1Sensor</text>
<polyline fill="none" stroke="black" points="1052.5,-198 1166.5,-198 "/>
<text text-anchor="start" x="1060.5" y="-186" font-family="Helvetica,sans-Serif" font-size="10.00">&#45; lsm</text>
<text text-anchor="start" x="1060.5" y="-175" font-family="Helvetica,sans-Serif" font-size="10.00">&#45; accel_offsets</text>
<text text-anchor="start" x="1060.5" y="-164" font-family="Helvetica,sans-Serif" font-size="10.00">&#45; gyro_offsets</text>
<text text-anchor="start" x="1060.5" y="-153" font-family="Helvetica,sans-Serif" font-size="10.00">&#45; mag_offsets</text>
<polyline fill="none" stroke="black" points="1052.5,-146 1166.5,-146 "/>
<text text-anchor="start" x="1060.5" y="-134" font-family="Helvetica,sans-Serif" font-size="10.00">+ LSM9DS1Sensor()</text>
<text text-anchor="start" x="1060.5" y="-123" font-family="Helvetica,sans-Serif" font-size="10.00">+ LSM9DS1Sensor()</text>
<text text-anchor="start" x="1060.5" y="-112" font-family="Helvetica,sans-Serif" font-size="10.00">+ verify()</text>
<text text-anchor="start" x="1060.5" y="-101" font-family="Helvetica,sans-Serif" font-size="10.00">+ readData()</text>
<text text-anchor="start" x="1060.5" y="-90" font-family="Helvetica,sans-Serif" font-size="10.00">+ calibrate()</text>
<text text-anchor="start" x="1060.5" y="-79" font-family="Helvetica,sans-Serif" font-size="10.00">+ readDataPacket()</text>
<text text-anchor="start" x="1060.5" y="-68" font-family="Helvetica,sans-Serif" font-size="10.00">+ decodeToCSV()</text>
<text text-anchor="start" x="1060.5" y="-57" font-family="Helvetica,sans-Serif" font-size="10.00">&#45; setupSensor()</text>
</a>
</g>
</g>
<!-- Node2&#45;&gt;Node11 -->
<g id="edge10" class="edge">
<title>Node2&#45;&gt;Node11</title>
<path fill="none" stroke="midnightblue" d="M1144.36,-293.46C1138.61,-267.27 1132.79,-240.74 1127.6,-217.05"/>
<polygon fill="none" stroke="midnightblue" points="1140.99,-294.46 1146.55,-303.48 1147.83,-292.96 1140.99,-294.46"/>
</g>
<!-- Node12 -->
<g id="node12" class="node">
<title>Node12</title>
<g id="a_node12"><a xlink:href="classMTK3339Sensor.html" target="_top" xlink:title="Implementation of the Adafruit MTK3339 GPS sensor.">
<polygon fill="none" stroke="black" points="1184.5,-77.5 1184.5,-189.5 1298.5,-189.5 1298.5,-77.5 1184.5,-77.5"/>
<text text-anchor="middle" x="1241.5" y="-177.5" font-family="Helvetica,sans-Serif" font-size="10.00">MTK3339Sensor</text>
<polyline fill="none" stroke="black" points="1184.5,-170.5 1298.5,-170.5 "/>
<text text-anchor="start" x="1192.5" y="-158.5" font-family="Helvetica,sans-Serif" font-size="10.00">&#45; GPS</text>
<polyline fill="none" stroke="black" points="1184.5,-151.5 1298.5,-151.5 "/>
<text text-anchor="start" x="1192.5" y="-139.5" font-family="Helvetica,sans-Serif" font-size="10.00">+ MTK3339Sensor()</text>
<text text-anchor="start" x="1192.5" y="-128.5" font-family="Helvetica,sans-Serif" font-size="10.00">+ MTK3339Sensor()</text>
<text text-anchor="start" x="1192.5" y="-117.5" font-family="Helvetica,sans-Serif" font-size="10.00">+ verify()</text>
<text text-anchor="start" x="1192.5" y="-106.5" font-family="Helvetica,sans-Serif" font-size="10.00">+ readData()</text>
<text text-anchor="start" x="1192.5" y="-95.5" font-family="Helvetica,sans-Serif" font-size="10.00">+ readDataPacket()</text>
<text text-anchor="start" x="1192.5" y="-84.5" font-family="Helvetica,sans-Serif" font-size="10.00">+ decodeToCSV()</text>
</a>
</g>
</g>
<!-- Node2&#45;&gt;Node12 -->
<g id="edge11" class="edge">
<title>Node2&#45;&gt;Node12</title>
<path fill="none" stroke="midnightblue" d="M1206.61,-293.61C1214.7,-256.73 1222.94,-219.16 1229.38,-189.79"/>
<polygon fill="none" stroke="midnightblue" points="1203.17,-292.96 1204.45,-303.48 1210.01,-294.46 1203.17,-292.96"/>
</g>
<!-- Node13 -->
<g id="node13" class="node">
<title>Node13</title>
<g id="a_node13"><a xlink:href="classOzoneSensor.html" target="_top" xlink:title="Implementation of a Sensor for the onboard temperature sensor.">
<polygon fill="none" stroke="black" points="1317,-77.5 1317,-189.5 1430,-189.5 1430,-77.5 1317,-77.5"/>
<text text-anchor="middle" x="1373.5" y="-177.5" font-family="Helvetica,sans-Serif" font-size="10.00">OzoneSensor</text>
<polyline fill="none" stroke="black" points="1317,-170.5 1430,-170.5 "/>
<text text-anchor="start" x="1325" y="-158.5" font-family="Helvetica,sans-Serif" font-size="10.00">&#45; ozone</text>
<polyline fill="none" stroke="black" points="1317,-151.5 1430,-151.5 "/>
<text text-anchor="start" x="1325" y="-139.5" font-family="Helvetica,sans-Serif" font-size="10.00">+ OzoneSensor()</text>
<text text-anchor="start" x="1325" y="-128.5" font-family="Helvetica,sans-Serif" font-size="10.00">+ OzoneSensor()</text>
<text text-anchor="start" x="1325" y="-117.5" font-family="Helvetica,sans-Serif" font-size="10.00">+ verify()</text>
<text text-anchor="start" x="1325" y="-106.5" font-family="Helvetica,sans-Serif" font-size="10.00">+ readData()</text>
<text text-anchor="start" x="1325" y="-95.5" font-family="Helvetica,sans-Serif" font-size="10.00">+ readDataPacket()</text>
<text text-anchor="start" x="1325" y="-84.5" font-family="Helvetica,sans-Serif" font-size="10.00">+ decodeToCSV()</text>
</a>
</g>
</g>
<!-- Node2&#45;&gt;Node13 -->
<g id="edge12" class="edge">
<title>Node2&#45;&gt;Node13</title>
<path fill="none" stroke="midnightblue" d="M1251.36,-345.59C1270.71,-320.85 1290.76,-293.51 1307.5,-267 1322.94,-242.56 1337.55,-214.01 1349.09,-189.68"/>
<polygon fill="none" stroke="midnightblue" points="1248.55,-343.5 1245.11,-353.52 1254.05,-347.83 1248.55,-343.5"/>
</g>
<!-- Node14 -->
<g id="node14" class="node">
<title>Node14</title>
<g id="a_node14"><a xlink:href="classPCF8523Sensor.html" target="_top" xlink:title="Implementation of the PCF8523 sensor.">
<polygon fill="none" stroke="black" points="1448,-72 1448,-195 1561,-195 1561,-72 1448,-72"/>
<text text-anchor="middle" x="1504.5" y="-183" font-family="Helvetica,sans-Serif" font-size="10.00">PCF8523Sensor</text>
<polyline fill="none" stroke="black" points="1448,-176 1561,-176 "/>
<text text-anchor="start" x="1456" y="-164" font-family="Helvetica,sans-Serif" font-size="10.00">&#45; rtc</text>
<polyline fill="none" stroke="black" points="1448,-157 1561,-157 "/>
<text text-anchor="start" x="1456" y="-145" font-family="Helvetica,sans-Serif" font-size="10.00">+ PCF8523Sensor()</text>
<text text-anchor="start" x="1456" y="-134" font-family="Helvetica,sans-Serif" font-size="10.00">+ PCF8523Sensor()</text>
<text text-anchor="start" x="1456" y="-123" font-family="Helvetica,sans-Serif" font-size="10.00">+ verify()</text>
<text text-anchor="start" x="1456" y="-112" font-family="Helvetica,sans-Serif" font-size="10.00">+ decodeToCSV()</text>
<text text-anchor="start" x="1456" y="-101" font-family="Helvetica,sans-Serif" font-size="10.00">+ readDataPacket()</text>
<text text-anchor="start" x="1456" y="-90" font-family="Helvetica,sans-Serif" font-size="10.00">+ readData()</text>
<text text-anchor="start" x="1456" y="-79" font-family="Helvetica,sans-Serif" font-size="10.00">+ calibrate()</text>
</a>
</g>
</g>
<!-- Node2&#45;&gt;Node14 -->
<g id="edge13" class="edge">
<title>Node2&#45;&gt;Node14</title>
<path fill="none" stroke="midnightblue" d="M1254.17,-399.49C1311.11,-370.27 1386.83,-324.55 1438.5,-267 1457.13,-246.25 1471.82,-219.29 1482.57,-195.11"/>
<polygon fill="none" stroke="midnightblue" points="1252.53,-396.39 1245.19,-404.03 1255.7,-402.64 1252.53,-396.39"/>
</g>
<!-- Node15 -->
<g id="node15" class="node">
<title>Node15</title>
<g id="a_node15"><a xlink:href="classSCD40Sensor.html" target="_top" xlink:title="A class to interface with the Sensirion SCD40 sensor for CO2 data collection.">
<polygon fill="none" stroke="black" points="1579,-77.5 1579,-189.5 1692,-189.5 1692,-77.5 1579,-77.5"/>
<text text-anchor="middle" x="1635.5" y="-177.5" font-family="Helvetica,sans-Serif" font-size="10.00">SCD40Sensor</text>
<polyline fill="none" stroke="black" points="1579,-170.5 1692,-170.5 "/>
<text text-anchor="start" x="1587" y="-158.5" font-family="Helvetica,sans-Serif" font-size="10.00">&#45; scd</text>
<polyline fill="none" stroke="black" points="1579,-151.5 1692,-151.5 "/>
<text text-anchor="start" x="1587" y="-139.5" font-family="Helvetica,sans-Serif" font-size="10.00">+ SCD40Sensor()</text>
<text text-anchor="start" x="1587" y="-128.5" font-family="Helvetica,sans-Serif" font-size="10.00">+ SCD40Sensor()</text>
<text text-anchor="start" x="1587" y="-117.5" font-family="Helvetica,sans-Serif" font-size="10.00">+ verify()</text>
<text text-anchor="start" x="1587" y="-106.5" font-family="Helvetica,sans-Serif" font-size="10.00">+ readData()</text>
<text text-anchor="start" x="1587" y="-95.5" font-family="Helvetica,sans-Serif" font-size="10.00">+ readDataPacket()</text>
<text text-anchor="start" x="1587" y="-84.5" font-family="Helvetica,sans-Serif" font-size="10.00">+ decodeToCSV()</text>
</a>
</g>
</g>
<!-- Node2&#45;&gt;Node15 -->
<g id="edge14" class="edge">
<title>Node2&#45;&gt;Node15</title>
<path fill="none" stroke="midnightblue" d="M1255.02,-418.85C1341.72,-397.1 1480.02,-351.44 1569.5,-267 1591.74,-246.01 1607.57,-215.91 1618.14,-189.69"/>
<polygon fill="none" stroke="midnightblue" points="1254.11,-415.47 1245.24,-421.26 1255.78,-422.26 1254.11,-415.47"/>
</g>
<!-- Node16 -->
<g id="node16" class="node">
<title>Node16</title>
<g id="a_node16"><a xlink:href="classSGP30Sensor.html" target="_top" xlink:title="Implementation of a Sensor for the SGP Air Quality sensor.">
<polygon fill="none" stroke="black" points="1710,-77.5 1710,-189.5 1823,-189.5 1823,-77.5 1710,-77.5"/>
<text text-anchor="middle" x="1766.5" y="-177.5" font-family="Helvetica,sans-Serif" font-size="10.00">SGP30Sensor</text>
<polyline fill="none" stroke="black" points="1710,-170.5 1823,-170.5 "/>
<text text-anchor="start" x="1718" y="-158.5" font-family="Helvetica,sans-Serif" font-size="10.00">&#45; sgp</text>
<polyline fill="none" stroke="black" points="1710,-151.5 1823,-151.5 "/>
<text text-anchor="start" x="1718" y="-139.5" font-family="Helvetica,sans-Serif" font-size="10.00">+ SGP30Sensor()</text>
<text text-anchor="start" x="1718" y="-128.5" font-family="Helvetica,sans-Serif" font-size="10.00">+ SGP30Sensor()</text>
<text text-anchor="start" x="1718" y="-117.5" font-family="Helvetica,sans-Serif" font-size="10.00">+ verify()</text>
<text text-anchor="start" x="1718" y="-106.5" font-family="Helvetica,sans-Serif" font-size="10.00">+ readData()</text>
<text text-anchor="start" x="1718" y="-95.5" font-family="Helvetica,sans-Serif" font-size="10.00">+ readDataPacket()</text>
<text text-anchor="start" x="1718" y="-84.5" font-family="Helvetica,sans-Serif" font-size="10.00">+ decodeToCSV()</text>
</a>
</g>
</g>
<!-- Node2&#45;&gt;Node16 -->
<g id="edge15" class="edge">
<title>Node2&#45;&gt;Node16</title>
<path fill="none" stroke="midnightblue" d="M1255.21,-429.12C1366.93,-416.3 1570.93,-378.28 1700.5,-267 1723.99,-246.82 1739.99,-216.28 1750.35,-189.61"/>
<polygon fill="none" stroke="midnightblue" points="1254.57,-425.66 1245.02,-430.24 1255.34,-432.62 1254.57,-425.66"/>
</g>
<!-- Node17 -->
<g id="node17" class="node">
<title>Node17</title>
<g id="a_node17"><a xlink:href="classSHTC3Sensor.html" target="_top" xlink:title="Implementation of a Sensor for the SHTC3.">
<polygon fill="none" stroke="black" points="1841,-77.5 1841,-189.5 1954,-189.5 1954,-77.5 1841,-77.5"/>
<text text-anchor="middle" x="1897.5" y="-177.5" font-family="Helvetica,sans-Serif" font-size="10.00">SHTC3Sensor</text>
<polyline fill="none" stroke="black" points="1841,-170.5 1954,-170.5 "/>
<text text-anchor="start" x="1849" y="-158.5" font-family="Helvetica,sans-Serif" font-size="10.00">&#45; shtc3</text>
<polyline fill="none" stroke="black" points="1841,-151.5 1954,-151.5 "/>
<text text-anchor="start" x="1849" y="-139.5" font-family="Helvetica,sans-Serif" font-size="10.00">+ SHTC3Sensor()</text>
<text text-anchor="start" x="1849" y="-128.5" font-family="Helvetica,sans-Serif" font-size="10.00">+ SHTC3Sensor()</text>
<text text-anchor="start" x="1849" y="-117.5" font-family="Helvetica,sans-Serif" font-size="10.00">+ verify()</text>
<text text-anchor="start" x="1849" y="-106.5" font-family="Helvetica,sans-Serif" font-size="10.00">+ readData()</text>
<text text-anchor="start" x="1849" y="-95.5" font-family="Helvetica,sans-Serif" font-size="10.00">+ readDataPacket()</text>
<text text-anchor="start" x="1849" y="-84.5" font-family="Helvetica,sans-Serif" font-size="10.00">+ decodeToCSV()</text>
</a>
</g>
</g>
<!-- Node2&#45;&gt;Node17 -->
<g id="edge16" class="edge">
<title>Node2&#45;&gt;Node17</title>
<path fill="none" stroke="midnightblue" d="M1255.25,-435.52C1388.94,-431.48 1660.41,-405.36 1831.5,-267 1855.78,-247.37 1871.88,-216.52 1882.09,-189.53"/>
<polygon fill="none" stroke="midnightblue" points="1254.99,-432.02 1245.09,-435.79 1255.18,-439.02 1254.99,-432.02"/>
</g>
<!-- Node18 -->
<g id="node18" class="node">
<title>Node18</title>
<g id="a_node18"><a xlink:href="classTempSensor.html" target="_top" xlink:title="Implementation of a Sensor for the onboard temperature sensor.">
<polygon fill="none" stroke="black" points="1972,-77.5 1972,-189.5 2085,-189.5 2085,-77.5 1972,-77.5"/>
<text text-anchor="middle" x="2028.5" y="-177.5" font-family="Helvetica,sans-Serif" font-size="10.00">TempSensor</text>
<polyline fill="none" stroke="black" points="1972,-170.5 2085,-170.5 "/>
<text text-anchor="middle" x="2028.5" y="-158.5" font-family="Helvetica,sans-Serif" font-size="10.00"> </text>
<polyline fill="none" stroke="black" points="1972,-151.5 2085,-151.5 "/>
<text text-anchor="start" x="1980" y="-139.5" font-family="Helvetica,sans-Serif" font-size="10.00">+ TempSensor()</text>
<text text-anchor="start" x="1980" y="-128.5" font-family="Helvetica,sans-Serif" font-size="10.00">+ TempSensor()</text>
<text text-anchor="start" x="1980" y="-117.5" font-family="Helvetica,sans-Serif" font-size="10.00">+ verify()</text>
<text text-anchor="start" x="1980" y="-106.5" font-family="Helvetica,sans-Serif" font-size="10.00">+ readData()</text>
<text text-anchor="start" x="1980" y="-95.5" font-family="Helvetica,sans-Serif" font-size="10.00">+ readDataPacket()</text>
<text text-anchor="start" x="1980" y="-84.5" font-family="Helvetica,sans-Serif" font-size="10.00">+ decodeToCSV()</text>
</a>
</g>
</g>
<!-- Node2&#45;&gt;Node18 -->
<g id="edge17" class="edge">
<title>Node2&#45;&gt;Node18</title>
<path fill="none" stroke="midnightblue" d="M1255.19,-427.24C1432.34,-407.51 1851.9,-352.8 1962.5,-267 1987.27,-247.78 2003.42,-216.79 2013.54,-189.61"/>
<polygon fill="none" stroke="midnightblue" points="1254.71,-423.77 1245.16,-428.35 1255.48,-430.73 1254.71,-423.77"/>
</g>
<!-- Node19 -->
<g id="node19" class="node">
<title>Node19</title>
<g id="a_node19"><a xlink:href="classTMP117Sensor.html" target="_top" xlink:title="Implementation of a Sensor for the TMP117.">
<polygon fill="none" stroke="black" points="2103,-77.5 2103,-189.5 2216,-189.5 2216,-77.5 2103,-77.5"/>
<text text-anchor="middle" x="2159.5" y="-177.5" font-family="Helvetica,sans-Serif" font-size="10.00">TMP117Sensor</text>
<polyline fill="none" stroke="black" points="2103,-170.5 2216,-170.5 "/>
<text text-anchor="start" x="2111" y="-158.5" font-family="Helvetica,sans-Serif" font-size="10.00">&#45; tmp</text>
<polyline fill="none" stroke="black" points="2103,-151.5 2216,-151.5 "/>
<text text-anchor="start" x="2111" y="-139.5" font-family="Helvetica,sans-Serif" font-size="10.00">+ TMP117Sensor()</text>
<text text-anchor="start" x="2111" y="-128.5" font-family="Helvetica,sans-Serif" font-size="10.00">+ TMP117Sensor()</text>
<text text-anchor="start" x="2111" y="-117.5" font-family="Helvetica,sans-Serif" font-size="10.00">+ verify()</text>
<text text-anchor="start" x="2111" y="-106.5" font-family="Helvetica,sans-Serif" font-size="10.00">+ readData()</text>
<text text-anchor="start" x="2111" y="-95.5" font-family="Helvetica,sans-Serif" font-size="10.00">+ readDataPacket()</text>
<text text-anchor="start" x="2111" y="-84.5" font-family="Helvetica,sans-Serif" font-size="10.00">+ decodeToCSV()</text>
</a>
</g>
</g>
<!-- Node2&#45;&gt;Node19 -->
<g id="edge18" class="edge">
<title>Node2&#45;&gt;Node19</title>
<path fill="none" stroke="midnightblue" d="M1255.38,-429.92C1453.49,-414.7 1960.99,-366.71 2093.5,-267 2118.66,-248.07 2134.85,-216.92 2144.9,-189.57"/>
<polygon fill="none" stroke="midnightblue" points="1255.03,-426.44 1245.33,-430.69 1255.57,-433.42 1255.03,-426.44"/>
</g>
<!-- Node21 -->
<g id="node21" class="node">
<title>Node21</title>
<g id="a_node21"><a xlink:href="classFlashStorage.html" target="_top" xlink:title=" ">
<polygon fill="none" stroke="black" points="2234,-0.5 2234,-266.5 2341,-266.5 2341,-0.5 2234,-0.5"/>
<text text-anchor="middle" x="2287.5" y="-254.5" font-family="Helvetica,sans-Serif" font-size="10.00">FlashStorage</text>
<polyline fill="none" stroke="black" points="2234,-247.5 2341,-247.5 "/>
<text text-anchor="start" x="2242" y="-235.5" font-family="Helvetica,sans-Serif" font-size="10.00">&#45; file_data</text>
<text text-anchor="start" x="2242" y="-224.5" font-family="Helvetica,sans-Serif" font-size="10.00">&#45; flash</text>
<text text-anchor="start" x="2242" y="-213.5" font-family="Helvetica,sans-Serif" font-size="10.00">&#45; address</text>
<text text-anchor="start" x="2242" y="-202.5" font-family="Helvetica,sans-Serif" font-size="10.00">&#45; active_file</text>
<text text-anchor="start" x="2242" y="-191.5" font-family="Helvetica,sans-Serif" font-size="10.00">&#45; FILE_HEADER</text>
<text text-anchor="start" x="2242" y="-180.5" font-family="Helvetica,sans-Serif" font-size="10.00">&#45; MAX_SIZE</text>
<text text-anchor="start" x="2242" y="-169.5" font-family="Helvetica,sans-Serif" font-size="10.00">&#45; SECTOR_SIZE</text>
<text text-anchor="start" x="2242" y="-158.5" font-family="Helvetica,sans-Serif" font-size="10.00">&#45; START_ADDRESS</text>
<polyline fill="none" stroke="black" points="2234,-151.5 2341,-151.5 "/>
<text text-anchor="start" x="2242" y="-139.5" font-family="Helvetica,sans-Serif" font-size="10.00">+ FlashStorage()</text>
<text text-anchor="start" x="2242" y="-128.5" font-family="Helvetica,sans-Serif" font-size="10.00">+ verify()</text>
<text text-anchor="start" x="2242" y="-117.5" font-family="Helvetica,sans-Serif" font-size="10.00">+ store()</text>
<text text-anchor="start" x="2242" y="-106.5" font-family="Helvetica,sans-Serif" font-size="10.00">+ storePacket()</text>
<text text-anchor="start" x="2242" y="-95.5" font-family="Helvetica,sans-Serif" font-size="10.00">+ dump()</text>
<text text-anchor="start" x="2242" y="-84.5" font-family="Helvetica,sans-Serif" font-size="10.00">+ erase()</text>
<text text-anchor="start" x="2242" y="-73.5" font-family="Helvetica,sans-Serif" font-size="10.00">+ download()</text>
<text text-anchor="start" x="2242" y="-62.5" font-family="Helvetica,sans-Serif" font-size="10.00">+ getStatus()</text>
<text text-anchor="start" x="2242" y="-51.5" font-family="Helvetica,sans-Serif" font-size="10.00">&#45; indexFlash()</text>
<text text-anchor="start" x="2242" y="-40.5" font-family="Helvetica,sans-Serif" font-size="10.00">&#45; loadAddress()</text>
<text text-anchor="start" x="2242" y="-29.5" font-family="Helvetica,sans-Serif" font-size="10.00">&#45; isSectorEmpty()</text>
<text text-anchor="start" x="2242" y="-18.5" font-family="Helvetica,sans-Serif" font-size="10.00">&#45; readFileHeader()</text>
<text text-anchor="start" x="2242" y="-7.5" font-family="Helvetica,sans-Serif" font-size="10.00">&#45; writeFileHeader()</text>
</a>
</g>
</g>
<!-- Node20&#45;&gt;Node21 -->
<g id="edge20" class="edge">
<title>Node20&#45;&gt;Node21</title>
<path fill="none" stroke="midnightblue" d="M2337.53,-381.36C2331.03,-349.28 2322.48,-307.11 2314.3,-266.72"/>
<polygon fill="none" stroke="midnightblue" points="2334.15,-382.3 2339.56,-391.41 2341.01,-380.91 2334.15,-382.3"/>
</g>
<!-- Node22 -->
<g id="node22" class="node">
<title>Node22</title>
<g id="a_node22"><a xlink:href="classRadioStorage.html" target="_top" xlink:title="Implementation of a Storage device to interface with an SD card.">
<polygon fill="none" stroke="black" points="2359,-88.5 2359,-178.5 2460,-178.5 2460,-88.5 2359,-88.5"/>
<text text-anchor="middle" x="2409.5" y="-166.5" font-family="Helvetica,sans-Serif" font-size="10.00">RadioStorage</text>
<polyline fill="none" stroke="black" points="2359,-159.5 2460,-159.5 "/>
<text text-anchor="start" x="2367" y="-147.5" font-family="Helvetica,sans-Serif" font-size="10.00">&#45; file_name</text>
<polyline fill="none" stroke="black" points="2359,-140.5 2460,-140.5 "/>
<text text-anchor="start" x="2367" y="-128.5" font-family="Helvetica,sans-Serif" font-size="10.00">+ RadioStorage()</text>
<text text-anchor="start" x="2367" y="-117.5" font-family="Helvetica,sans-Serif" font-size="10.00">+ verify()</text>
<text text-anchor="start" x="2367" y="-106.5" font-family="Helvetica,sans-Serif" font-size="10.00">+ store()</text>
<text text-anchor="start" x="2367" y="-95.5" font-family="Helvetica,sans-Serif" font-size="10.00">+ storePacket()</text>
</a>
</g>
</g>
<!-- Node20&#45;&gt;Node22 -->
<g id="edge21" class="edge">
<title>Node20&#45;&gt;Node22</title>
<path fill="none" stroke="midnightblue" d="M2359.48,-381.34C2371.22,-323.38 2389.63,-232.52 2400.54,-178.71"/>
<polygon fill="none" stroke="midnightblue" points="2355.99,-380.91 2357.44,-391.41 2362.85,-382.3 2355.99,-380.91"/>
</g>
<!-- Node23 -->
<g id="node23" class="node">
<title>Node23</title>
<g id="a_node23"><a xlink:href="classSDStorage.html" target="_top" xlink:title="Implementation of a Storage device to interface with an SD card.">
<polygon fill="none" stroke="black" points="2478.5,-83 2478.5,-184 2570.5,-184 2570.5,-83 2478.5,-83"/>
<text text-anchor="middle" x="2524.5" y="-172" font-family="Helvetica,sans-Serif" font-size="10.00">SDStorage</text>
<polyline fill="none" stroke="black" points="2478.5,-165 2570.5,-165 "/>
<text text-anchor="start" x="2486.5" y="-153" font-family="Helvetica,sans-Serif" font-size="10.00">&#45; file_name</text>
<text text-anchor="start" x="2486.5" y="-142" font-family="Helvetica,sans-Serif" font-size="10.00">&#45; sd_spi_1</text>
<polyline fill="none" stroke="black" points="2478.5,-135 2570.5,-135 "/>
<text text-anchor="start" x="2486.5" y="-123" font-family="Helvetica,sans-Serif" font-size="10.00">+ SDStorage()</text>
<text text-anchor="start" x="2486.5" y="-112" font-family="Helvetica,sans-Serif" font-size="10.00">+ verify()</text>
<text text-anchor="start" x="2486.5" y="-101" font-family="Helvetica,sans-Serif" font-size="10.00">+ store()</text>
<text text-anchor="start" x="2486.5" y="-90" font-family="Helvetica,sans-Serif" font-size="10.00">+ storePacket()</text>
</a>
</g>
</g>
<!-- Node20&#45;&gt;Node23 -->
<g id="edge22" class="edge">
<title>Node20&#45;&gt;Node23</title>
<path fill="none" stroke="midnightblue" d="M2390.77,-383.28C2415.66,-351.01 2446.64,-308.04 2469.5,-267 2484.16,-240.67 2497.25,-209.63 2506.98,-184.21"/>
<polygon fill="none" stroke="midnightblue" points="2387.95,-381.2 2384.58,-391.25 2393.48,-385.5 2387.95,-381.2"/>
</g>
</g>
</svg>
