<?xml version="1.0" encoding="UTF-8" standalone="no"?>
<!DOCTYPE svg PUBLIC "-//W3C//DTD SVG 1.1//EN"
 "http://www.w3.org/Graphics/SVG/1.1/DTD/svg11.dtd">
<!-- Generated by graphviz version 2.43.0 (0)
 -->
<!-- Title: MTK3339Sensor Pages: 1 -->
<svg width="501pt" height="766pt"
 viewBox="0.00 0.00 500.50 766.00" xmlns="http://www.w3.org/2000/svg" xmlns:xlink="http://www.w3.org/1999/xlink">
<g id="graph0" class="graph" transform="scale(1 1) rotate(0) translate(4 762)">
<title>MTK3339Sensor</title>
<!-- Node1 -->
<g id="Node000001" class="node">
<title>Node1</title>
<g id="a_Node000001"><a xlink:title="Implementation of the Adafruit MTK3339 GPS sensor.">
<polygon fill="#999999" stroke="transparent" points="408.5,-124 300.5,-124 300.5,0 408.5,0 408.5,-124"/>
<text text-anchor="start" x="315" y="-112" font-family="Helvetica,sans-Serif" font-size="10.00">MTK3339Sensor</text>
<text text-anchor="start" x="352.5" y="-97" font-family="Helvetica,sans-Serif" font-size="10.00"> </text>
<text text-anchor="start" x="304.5" y="-82" font-family="Helvetica,sans-Serif" font-size="10.00">+</text>
<text text-anchor="start" x="317.5" y="-82" font-family="Helvetica,sans-Serif" font-size="10.00">MTK3339Sensor()</text>
<text text-anchor="start" x="304.5" y="-67" font-family="Helvetica,sans-Serif" font-size="10.00">+</text>
<text text-anchor="start" x="317.5" y="-67" font-family="Helvetica,sans-Serif" font-size="10.00">MTK3339Sensor()</text>
<text text-anchor="start" x="304.5" y="-52" font-family="Helvetica,sans-Serif" font-size="10.00">+</text>
<text text-anchor="start" x="317.5" y="-52" font-family="Helvetica,sans-Serif" font-size="10.00">verify()</text>
<text text-anchor="start" x="304.5" y="-37" font-family="Helvetica,sans-Serif" font-size="10.00">+</text>
<text text-anchor="start" x="317.5" y="-37" font-family="Helvetica,sans-Serif" font-size="10.00">readData()</text>
<text text-anchor="start" x="304.5" y="-22" font-family="Helvetica,sans-Serif" font-size="10.00">+</text>
<text text-anchor="start" x="317.5" y="-22" font-family="Helvetica,sans-Serif" font-size="10.00">readDataPacket()</text>
<text text-anchor="start" x="304.5" y="-7" font-family="Helvetica,sans-Serif" font-size="10.00">+</text>
<text text-anchor="start" x="317.5" y="-7" font-family="Helvetica,sans-Serif" font-size="10.00">decodeToCSV()</text>
<polygon fill="#666666" stroke="#666666" points="300.5,-107 300.5,-107 408.5,-107 408.5,-107 300.5,-107"/>
<polygon fill="#666666" stroke="#666666" points="300.5,-92 300.5,-92 408.5,-92 408.5,-92 300.5,-92"/>
<polygon fill="none" stroke="#666666" points="300.5,0 300.5,-124 408.5,-124 408.5,0 300.5,0"/>
</a>
</g>
</g>
<!-- Node2 -->
<g id="Node000002" class="node">
<title>Node2</title>
<g id="a_Node000002"><a xlink:href="classSensor.html" target="_top" xlink:title="Parent class for sensor objects.">
<polygon fill="white" stroke="transparent" points="354,-445 221,-445 221,-171 354,-171 354,-445"/>
<text text-anchor="start" x="271" y="-433" font-family="Helvetica,sans-Serif" font-size="10.00">Sensor</text>
<text text-anchor="start" x="286" y="-418" font-family="Helvetica,sans-Serif" font-size="10.00"> </text>
<text text-anchor="start" x="225.5" y="-403" font-family="Helvetica,sans-Serif" font-size="10.00">+</text>
<text text-anchor="start" x="238.5" y="-403" font-family="Helvetica,sans-Serif" font-size="10.00">Sensor()</text>
<text text-anchor="start" x="225.5" y="-388" font-family="Helvetica,sans-Serif" font-size="10.00">+</text>
<text text-anchor="start" x="238.5" y="-388" font-family="Helvetica,sans-Serif" font-size="10.00">Sensor()</text>
<text text-anchor="start" x="225.5" y="-373" font-family="Helvetica,sans-Serif" font-size="10.00">+</text>
<text text-anchor="start" x="238.5" y="-373" font-family="Helvetica,sans-Serif" font-size="10.00">Sensor()</text>
<text text-anchor="start" x="225.5" y="-358" font-family="Helvetica,sans-Serif" font-size="10.00">+</text>
<text text-anchor="start" x="238.5" y="-358" font-family="Helvetica,sans-Serif" font-size="10.00">Sensor()</text>
<text text-anchor="start" x="225.5" y="-343" font-family="Helvetica,sans-Serif" font-size="10.00">+</text>
<text text-anchor="start" x="238.5" y="-343" font-family="Helvetica,sans-Serif" font-size="10.00">getPeriod()</text>
<text text-anchor="start" x="225.5" y="-328" font-family="Helvetica,sans-Serif" font-size="10.00">+</text>
<text text-anchor="start" x="238.5" y="-328" font-family="Helvetica,sans-Serif" font-size="10.00">setPeriod()</text>
<text text-anchor="start" x="225.5" y="-313" font-family="Helvetica,sans-Serif" font-size="10.00">+</text>
<text text-anchor="start" x="238.5" y="-313" font-family="Helvetica,sans-Serif" font-size="10.00">getLastExecution()</text>
<text text-anchor="start" x="225.5" y="-298" font-family="Helvetica,sans-Serif" font-size="10.00">+</text>
<text text-anchor="start" x="238.5" y="-298" font-family="Helvetica,sans-Serif" font-size="10.00">setLastExecution()</text>
<text text-anchor="start" x="225.5" y="-283" font-family="Helvetica,sans-Serif" font-size="10.00">+</text>
<text text-anchor="start" x="238.5" y="-283" font-family="Helvetica,sans-Serif" font-size="10.00">getSensorCSVHeader()</text>
<text text-anchor="start" x="225.5" y="-268" font-family="Helvetica,sans-Serif" font-size="10.00">+</text>
<text text-anchor="start" x="238.5" y="-268" font-family="Helvetica,sans-Serif" font-size="10.00">verify()</text>
<text text-anchor="start" x="225.5" y="-253" font-family="Helvetica,sans-Serif" font-size="10.00">+</text>
<text text-anchor="start" x="238.5" y="-253" font-family="Helvetica,sans-Serif" font-size="10.00">readData()</text>
<text text-anchor="start" x="225.5" y="-238" font-family="Helvetica,sans-Serif" font-size="10.00">+</text>
<text text-anchor="start" x="238.5" y="-238" font-family="Helvetica,sans-Serif" font-size="10.00">readDataPacket()</text>
<text text-anchor="start" x="225.5" y="-223" font-family="Helvetica,sans-Serif" font-size="10.00">+</text>
<text text-anchor="start" x="238.5" y="-223" font-family="Helvetica,sans-Serif" font-size="10.00">decodeToCSV()</text>
<text text-anchor="start" x="225.5" y="-208" font-family="Helvetica,sans-Serif" font-size="10.00">+</text>
<text text-anchor="start" x="238.5" y="-208" font-family="Helvetica,sans-Serif" font-size="10.00">getDataPacket()</text>
<text text-anchor="start" x="225.5" y="-193" font-family="Helvetica,sans-Serif" font-size="10.00">+</text>
<text text-anchor="start" x="238.5" y="-193" font-family="Helvetica,sans-Serif" font-size="10.00">readEmpty()</text>
<text text-anchor="start" x="225.5" y="-178" font-family="Helvetica,sans-Serif" font-size="10.00">+</text>
<text text-anchor="start" x="238.5" y="-178" font-family="Helvetica,sans-Serif" font-size="10.00">getDataCSV()</text>
<polygon fill="#666666" stroke="#666666" points="221.5,-428 221.5,-428 354.5,-428 354.5,-428 221.5,-428"/>
<polygon fill="#666666" stroke="#666666" points="221.5,-413 221.5,-413 354.5,-413 354.5,-413 221.5,-413"/>
<polygon fill="none" stroke="#666666" points="221,-171 221,-445 354,-445 354,-171 221,-171"/>
</a>
</g>
</g>
<!-- Node2&#45;&gt;Node1 -->
<g id="edge1_Node000001_Node000002" class="edge">
<title>Node2&#45;&gt;Node1</title>
<g id="a_edge1_Node000001_Node000002"><a xlink:title=" ">
<path fill="none" stroke="#63b8ff" d="M327.63,-160.87C331.14,-148.06 334.56,-135.62 337.71,-124.14"/>
<polygon fill="none" stroke="#63b8ff" points="324.19,-160.16 324.92,-170.73 330.94,-162.02 324.19,-160.16"/>
</a>
</g>
</g>
<!-- Node3 -->
<g id="Node000003" class="node">
<title>Node3</title>
<g id="a_Node000003"><a xlink:href="classDevice.html" target="_top" xlink:title="Implements the recovery system for Sensor and Storage objects.">
<polygon fill="white" stroke="transparent" points="276,-651 153,-651 153,-482 276,-482 276,-651"/>
<text text-anchor="start" x="198" y="-638.5" font-family="Helvetica,sans-Serif" font-size="10.00">Device</text>
<text text-anchor="start" x="213" y="-623.5" font-family="Helvetica,sans-Serif" font-size="10.00"> </text>
<text text-anchor="start" x="157.5" y="-608.5" font-family="Helvetica,sans-Serif" font-size="10.00">+</text>
<text text-anchor="start" x="170.5" y="-608.5" font-family="Helvetica,sans-Serif" font-size="10.00">Device()</text>
<text text-anchor="start" x="157.5" y="-593.5" font-family="Helvetica,sans-Serif" font-size="10.00">+</text>
<text text-anchor="start" x="170.5" y="-593.5" font-family="Helvetica,sans-Serif" font-size="10.00">Device()</text>
<text text-anchor="start" x="157.5" y="-578.5" font-family="Helvetica,sans-Serif" font-size="10.00">+</text>
<text text-anchor="start" x="170.5" y="-578.5" font-family="Helvetica,sans-Serif" font-size="10.00">getDeviceName()</text>
<text text-anchor="start" x="157.5" y="-563.5" font-family="Helvetica,sans-Serif" font-size="10.00">+</text>
<text text-anchor="start" x="170.5" y="-563.5" font-family="Helvetica,sans-Serif" font-size="10.00">verify()</text>
<text text-anchor="start" x="157.5" y="-548.5" font-family="Helvetica,sans-Serif" font-size="10.00">+</text>
<text text-anchor="start" x="170.5" y="-548.5" font-family="Helvetica,sans-Serif" font-size="10.00">getVerified()</text>
<text text-anchor="start" x="157.5" y="-533.5" font-family="Helvetica,sans-Serif" font-size="10.00">+</text>
<text text-anchor="start" x="170.5" y="-533.5" font-family="Helvetica,sans-Serif" font-size="10.00">recoveryConfig()</text>
<text text-anchor="start" x="157.5" y="-518.5" font-family="Helvetica,sans-Serif" font-size="10.00">+</text>
<text text-anchor="start" x="170.5" y="-518.5" font-family="Helvetica,sans-Serif" font-size="10.00">setWaitFactor()</text>
<text text-anchor="start" x="157.5" y="-503.5" font-family="Helvetica,sans-Serif" font-size="10.00">+</text>
<text text-anchor="start" x="170.5" y="-503.5" font-family="Helvetica,sans-Serif" font-size="10.00">setMaxAttempts()</text>
<text text-anchor="start" x="157.5" y="-488.5" font-family="Helvetica,sans-Serif" font-size="10.00">+</text>
<text text-anchor="start" x="170.5" y="-488.5" font-family="Helvetica,sans-Serif" font-size="10.00">attemptConnection()</text>
<polygon fill="#666666" stroke="#666666" points="153.5,-633.5 153.5,-633.5 276.5,-633.5 276.5,-633.5 153.5,-633.5"/>
<polygon fill="#666666" stroke="#666666" points="153.5,-618.5 153.5,-618.5 276.5,-618.5 276.5,-618.5 153.5,-618.5"/>
<polygon fill="none" stroke="#666666" points="153,-482 153,-651 276,-651 276,-482 153,-482"/>
</a>
</g>
</g>
<!-- Node3&#45;&gt;Node2 -->
<g id="edge2_Node000002_Node000003" class="edge">
<title>Node3&#45;&gt;Node2</title>
<g id="a_edge2_Node000002_Node000003"><a xlink:title=" ">
<path fill="none" stroke="#63b8ff" d="M241.1,-472.03C243.61,-463.22 246.18,-454.18 248.77,-445.08"/>
<polygon fill="none" stroke="#63b8ff" points="237.67,-471.29 238.3,-481.87 244.41,-473.21 237.67,-471.29"/>
</a>
</g>
</g>
<!-- Node4 -->
<g id="Node000004" class="node">
<title>Node4</title>
<g id="a_Node000004"><a xlink:title=" ">
<polygon fill="white" stroke="transparent" points="79,-758 0,-758 0,-709 79,-709 79,-758"/>
<text text-anchor="start" x="5.5" y="-745.5" font-family="Helvetica,sans-Serif" font-size="10.00">unsigned long</text>
<text text-anchor="start" x="38" y="-730.5" font-family="Helvetica,sans-Serif" font-size="10.00"> </text>
<text text-anchor="start" x="38" y="-715.5" font-family="Helvetica,sans-Serif" font-size="10.00"> </text>
<polygon fill="#666666" stroke="#666666" points="0.5,-740.5 0.5,-740.5 79.5,-740.5 79.5,-740.5 0.5,-740.5"/>
<polygon fill="#666666" stroke="#666666" points="0.5,-725.5 0.5,-725.5 79.5,-725.5 79.5,-725.5 0.5,-725.5"/>
<polygon fill="none" stroke="#666666" points="0,-709 0,-758 79,-758 79,-709 0,-709"/>
</a>
</g>
</g>
<!-- Node4&#45;&gt;Node2 -->
<g id="edge7_Node000002_Node000004" class="edge">
<title>Node4&#45;&gt;Node2</title>
<g id="a_edge7_Node000002_Node000004"><a xlink:title=" ">
<path fill="none" stroke="#63b8ff" d="M34.83,-708.98C26.85,-662.4 15.09,-556.51 55.5,-482 89.39,-419.5 156.7,-373.24 210.13,-344.36"/>
<polygon fill="none" stroke="#63b8ff" points="210.34,-344.24 213.78,-337.9 220.95,-338.64 217.52,-344.98 210.34,-344.24"/>
</a>
</g>
<text text-anchor="middle" x="99.5" y="-569.5" font-family="Helvetica,sans-Serif" font-size="10.00" fill="grey"> &#45;last_execution</text>
<text text-anchor="middle" x="99.5" y="-558.5" font-family="Helvetica,sans-Serif" font-size="10.00" fill="grey">&#45;minimum_period</text>
</g>
<!-- Node4&#45;&gt;Node3 -->
<g id="edge3_Node000003_Node000004" class="edge">
<title>Node4&#45;&gt;Node3</title>
<g id="a_edge3_Node000003_Node000004"><a xlink:title=" ">
<path fill="none" stroke="#63b8ff" d="M51.95,-708.79C59.55,-695.92 70.16,-680.36 82.5,-669 94.51,-657.95 101.07,-660.27 114.5,-651 124.13,-644.35 133.96,-636.98 143.5,-629.45"/>
<polygon fill="none" stroke="#63b8ff" points="143.58,-629.39 145.76,-622.52 152.94,-621.88 150.76,-628.76 143.58,-629.39"/>
</a>
</g>
<text text-anchor="middle" x="117.5" y="-683" font-family="Helvetica,sans-Serif" font-size="10.00" fill="grey"> &#45;last_attempt</text>
<text text-anchor="middle" x="117.5" y="-672" font-family="Helvetica,sans-Serif" font-size="10.00" fill="grey">&#45;wait_factor</text>
</g>
<!-- Node5 -->
<g id="Node000005" class="node">
<title>Node5</title>
<g id="a_Node000005"><a xlink:title=" ">
<polygon fill="white" stroke="transparent" points="409,-758 386,-758 386,-709 409,-709 409,-758"/>
<text text-anchor="start" x="391.5" y="-745.5" font-family="Helvetica,sans-Serif" font-size="10.00">int</text>
<text text-anchor="start" x="396" y="-730.5" font-family="Helvetica,sans-Serif" font-size="10.00"> </text>
<text text-anchor="start" x="396" y="-715.5" font-family="Helvetica,sans-Serif" font-size="10.00"> </text>
<polygon fill="#666666" stroke="#666666" points="386.5,-740.5 386.5,-740.5 409.5,-740.5 409.5,-740.5 386.5,-740.5"/>
<polygon fill="#666666" stroke="#666666" points="386.5,-725.5 386.5,-725.5 409.5,-725.5 409.5,-725.5 386.5,-725.5"/>
<polygon fill="none" stroke="#666666" points="386,-709 386,-758 409,-758 409,-709 386,-709"/>
</a>
</g>
</g>
<!-- Node5&#45;&gt;Node2 -->
<g id="edge9_Node000002_Node000005" class="edge">
<title>Node5&#45;&gt;Node2</title>
<g id="a_edge9_Node000002_Node000005"><a xlink:title=" ">
<path fill="none" stroke="#63b8ff" d="M409.06,-722.94C417.35,-715.29 427.84,-703.75 432.5,-691 435.86,-681.82 434.17,-678.63 432.5,-669 419.28,-592.91 388.83,-512.79 359.23,-447.5"/>
<polygon fill="none" stroke="#63b8ff" points="359.11,-447.23 352.97,-443.44 354.11,-436.32 360.24,-440.11 359.11,-447.23"/>
</a>
</g>
<text text-anchor="middle" x="460" y="-564" font-family="Helvetica,sans-Serif" font-size="10.00" fill="grey"> #num_fields</text>
</g>
<!-- Node5&#45;&gt;Node3 -->
<g id="edge4_Node000003_Node000005" class="edge">
<title>Node5&#45;&gt;Node3</title>
<g id="a_edge4_Node000003_Node000005"><a xlink:title=" ">
<path fill="none" stroke="#63b8ff" d="M385.71,-724.58C365.4,-710.71 322.87,-680.66 290.5,-651 288.71,-649.36 286.92,-647.69 285.12,-645.98"/>
<polygon fill="none" stroke="#63b8ff" points="284.77,-645.63 277.68,-644.3 276.18,-637.25 283.27,-638.58 284.77,-645.63"/>
</a>
</g>
<text text-anchor="middle" x="384" y="-683" font-family="Helvetica,sans-Serif" font-size="10.00" fill="grey"> &#45;attempt_number</text>
<text text-anchor="middle" x="384" y="-672" font-family="Helvetica,sans-Serif" font-size="10.00" fill="grey">&#45;max_attempts</text>
</g>
<!-- Node6 -->
<g id="Node000006" class="node">
<title>Node6</title>
<g id="a_Node000006"><a xlink:title=" ">
<polygon fill="white" stroke="transparent" points="164.5,-758 132.5,-758 132.5,-709 164.5,-709 164.5,-758"/>
<text text-anchor="start" x="137.5" y="-745.5" font-family="Helvetica,sans-Serif" font-size="10.00">bool</text>
<text text-anchor="start" x="146.5" y="-730.5" font-family="Helvetica,sans-Serif" font-size="10.00"> </text>
<text text-anchor="start" x="146.5" y="-715.5" font-family="Helvetica,sans-Serif" font-size="10.00"> </text>
<polygon fill="#666666" stroke="#666666" points="132.5,-740.5 132.5,-740.5 164.5,-740.5 164.5,-740.5 132.5,-740.5"/>
<polygon fill="#666666" stroke="#666666" points="132.5,-725.5 132.5,-725.5 164.5,-725.5 164.5,-725.5 132.5,-725.5"/>
<polygon fill="none" stroke="#666666" points="132.5,-709 132.5,-758 164.5,-758 164.5,-709 132.5,-709"/>
</a>
</g>
</g>
<!-- Node6&#45;&gt;Node3 -->
<g id="edge5_Node000003_Node000006" class="edge">
<title>Node6&#45;&gt;Node3</title>
<g id="a_edge5_Node000003_Node000006"><a xlink:title=" ">
<path fill="none" stroke="#63b8ff" d="M152.22,-708.87C154.5,-696.74 157.88,-681.85 162.5,-669 163.29,-666.8 164.12,-664.59 164.98,-662.36"/>
<polygon fill="none" stroke="#63b8ff" points="164.99,-662.33 163.56,-655.27 169.54,-651.23 170.97,-658.3 164.99,-662.33"/>
</a>
</g>
<text text-anchor="middle" x="187" y="-677.5" font-family="Helvetica,sans-Serif" font-size="10.00" fill="grey"> #verified</text>
</g>
<!-- Node7 -->
<g id="Node000007" class="node">
<title>Node7</title>
<g id="a_Node000007"><a xlink:title=" ">
<polygon fill="white" stroke="transparent" points="286,-758 247,-758 247,-709 286,-709 286,-758"/>
<text text-anchor="start" x="252.5" y="-745.5" font-family="Helvetica,sans-Serif" font-size="10.00">String</text>
<text text-anchor="start" x="265" y="-730.5" font-family="Helvetica,sans-Serif" font-size="10.00"> </text>
<text text-anchor="start" x="265" y="-715.5" font-family="Helvetica,sans-Serif" font-size="10.00"> </text>
<polygon fill="#666666" stroke="#666666" points="247.5,-740.5 247.5,-740.5 286.5,-740.5 286.5,-740.5 247.5,-740.5"/>
<polygon fill="#666666" stroke="#666666" points="247.5,-725.5 247.5,-725.5 286.5,-725.5 286.5,-725.5 247.5,-725.5"/>
<polygon fill="none" stroke="#666666" points="247,-709 247,-758 286,-758 286,-709 247,-709"/>
</a>
</g>
</g>
<!-- Node7&#45;&gt;Node2 -->
<g id="edge8_Node000002_Node000007" class="edge">
<title>Node7&#45;&gt;Node2</title>
<g id="a_edge8_Node000002_Node000007"><a xlink:title=" ">
<path fill="none" stroke="#63b8ff" d="M286.08,-712.56C291.12,-706.18 295.86,-698.75 298.5,-691 301.65,-681.74 298.65,-678.78 298.5,-669 297.44,-599.54 295.23,-522.58 293.06,-457.7"/>
<polygon fill="none" stroke="#63b8ff" points="293.05,-457.3 288.85,-451.44 292.65,-445.31 296.85,-451.17 293.05,-457.3"/>
</a>
</g>
<text text-anchor="middle" x="330" y="-569.5" font-family="Helvetica,sans-Serif" font-size="10.00" fill="grey"> &#45;csv_header</text>
<text text-anchor="middle" x="330" y="-558.5" font-family="Helvetica,sans-Serif" font-size="10.00" fill="grey">&#45;empty_csv</text>
</g>
<!-- Node7&#45;&gt;Node3 -->
<g id="edge6_Node000003_Node000007" class="edge">
<title>Node7&#45;&gt;Node3</title>
<g id="a_edge6_Node000003_Node000007"><a xlink:title=" ">
<path fill="none" stroke="#63b8ff" d="M246.97,-719.93C237.52,-712.7 227.04,-702.72 221.5,-691 217.36,-682.23 214.46,-672.72 212.5,-662.99"/>
<polygon fill="none" stroke="#63b8ff" points="212.48,-662.9 207.57,-657.62 210.54,-651.06 215.46,-656.33 212.48,-662.9"/>
</a>
</g>
<text text-anchor="middle" x="260" y="-677.5" font-family="Helvetica,sans-Serif" font-size="10.00" fill="grey"> #device_name</text>
</g>
<!-- Node8 -->
<g id="Node000008" class="node">
<title>Node8</title>
<g id="a_Node000008"><a xlink:title=" ">
<polygon fill="white" stroke="transparent" points="472.5,-332.5 372.5,-332.5 372.5,-283.5 472.5,-283.5 472.5,-332.5"/>
<text text-anchor="start" x="377.5" y="-320" font-family="Helvetica,sans-Serif" font-size="10.00">SFE_UBLOX_GNSS</text>
<text text-anchor="start" x="420.5" y="-305" font-family="Helvetica,sans-Serif" font-size="10.00"> </text>
<text text-anchor="start" x="420.5" y="-290" font-family="Helvetica,sans-Serif" font-size="10.00"> </text>
<polygon fill="#666666" stroke="#666666" points="372.5,-315 372.5,-315 472.5,-315 472.5,-315 372.5,-315"/>
<polygon fill="#666666" stroke="#666666" points="372.5,-300 372.5,-300 472.5,-300 472.5,-300 372.5,-300"/>
<polygon fill="none" stroke="#666666" points="372.5,-283.5 372.5,-332.5 472.5,-332.5 472.5,-283.5 372.5,-283.5"/>
</a>
</g>
</g>
<!-- Node8&#45;&gt;Node1 -->
<g id="edge10_Node000001_Node000008" class="edge">
<title>Node8&#45;&gt;Node1</title>
<g id="a_edge10_Node000001_Node000008"><a xlink:title=" ">
<path fill="none" stroke="#63b8ff" d="M415.86,-283.16C406.44,-249.36 388.79,-186.04 374.83,-135.95"/>
<polygon fill="none" stroke="#63b8ff" points="374.77,-135.74 369.31,-131.03 371.55,-124.18 377.01,-128.89 374.77,-135.74"/>
</a>
</g>
<text text-anchor="middle" x="392" y="-145" font-family="Helvetica,sans-Serif" font-size="10.00" fill="grey"> &#45;GPS</text>
</g>
</g>
</svg>
