<?xml version="1.0" encoding="UTF-8" standalone="no"?>
<!DOCTYPE svg PUBLIC "-//W3C//DTD SVG 1.1//EN"
 "http://www.w3.org/Graphics/SVG/1.1/DTD/svg11.dtd">
<!-- Generated by graphviz version 2.43.0 (0)
 -->
<!-- Title: Sensor Pages: 1 -->
<svg width="1461pt" height="502pt"
 viewBox="0.00 0.00 1461.00 502.00" xmlns="http://www.w3.org/2000/svg" xmlns:xlink="http://www.w3.org/1999/xlink">
<g id="graph0" class="graph" transform="scale(1 1) rotate(0) translate(4 498)">
<title>Sensor</title>
<!-- Node1 -->
<g id="Node000001" class="node">
<title>Node1</title>
<g id="a_Node000001"><a xlink:title="Parent class for sensor objects.">
<polygon fill="#999999" stroke="transparent" points="797.5,-494 664.5,-494 664.5,-235 797.5,-235 797.5,-494"/>
<text text-anchor="start" x="714.5" y="-481.5" font-family="Helvetica,sans-Serif" font-size="10.00">Sensor</text>
<text text-anchor="start" x="671.5" y="-466.5" font-family="Helvetica,sans-Serif" font-size="10.00">&#45;</text>
<text text-anchor="start" x="682" y="-466.5" font-family="Helvetica,sans-Serif" font-size="10.00">minimum_period</text>
<text text-anchor="start" x="671.5" y="-451.5" font-family="Helvetica,sans-Serif" font-size="10.00">&#45;</text>
<text text-anchor="start" x="682" y="-451.5" font-family="Helvetica,sans-Serif" font-size="10.00">last_execution</text>
<text text-anchor="start" x="671.5" y="-436.5" font-family="Helvetica,sans-Serif" font-size="10.00">&#45;</text>
<text text-anchor="start" x="682" y="-436.5" font-family="Helvetica,sans-Serif" font-size="10.00">sensor_name</text>
<text text-anchor="start" x="671.5" y="-421.5" font-family="Helvetica,sans-Serif" font-size="10.00">&#45;</text>
<text text-anchor="start" x="682" y="-421.5" font-family="Helvetica,sans-Serif" font-size="10.00">csv_header</text>
<text text-anchor="start" x="671.5" y="-406.5" font-family="Helvetica,sans-Serif" font-size="10.00">&#45;</text>
<text text-anchor="start" x="682" y="-406.5" font-family="Helvetica,sans-Serif" font-size="10.00">empty_csv</text>
<text text-anchor="start" x="669" y="-391.5" font-family="Helvetica,sans-Serif" font-size="10.00">+</text>
<text text-anchor="start" x="682" y="-391.5" font-family="Helvetica,sans-Serif" font-size="10.00">Sensor()</text>
<text text-anchor="start" x="669" y="-376.5" font-family="Helvetica,sans-Serif" font-size="10.00">+</text>
<text text-anchor="start" x="682" y="-376.5" font-family="Helvetica,sans-Serif" font-size="10.00">Sensor()</text>
<text text-anchor="start" x="669" y="-361.5" font-family="Helvetica,sans-Serif" font-size="10.00">+</text>
<text text-anchor="start" x="682" y="-361.5" font-family="Helvetica,sans-Serif" font-size="10.00">Sensor()</text>
<text text-anchor="start" x="669" y="-346.5" font-family="Helvetica,sans-Serif" font-size="10.00">+</text>
<text text-anchor="start" x="682" y="-346.5" font-family="Helvetica,sans-Serif" font-size="10.00">Sensor()</text>
<text text-anchor="start" x="669" y="-331.5" font-family="Helvetica,sans-Serif" font-size="10.00">+</text>
<text text-anchor="start" x="682" y="-331.5" font-family="Helvetica,sans-Serif" font-size="10.00">getPeriod()</text>
<text text-anchor="start" x="669" y="-316.5" font-family="Helvetica,sans-Serif" font-size="10.00">+</text>
<text text-anchor="start" x="682" y="-316.5" font-family="Helvetica,sans-Serif" font-size="10.00">setPeriod()</text>
<text text-anchor="start" x="669" y="-301.5" font-family="Helvetica,sans-Serif" font-size="10.00">+</text>
<text text-anchor="start" x="682" y="-301.5" font-family="Helvetica,sans-Serif" font-size="10.00">getLastExecution()</text>
<text text-anchor="start" x="669" y="-286.5" font-family="Helvetica,sans-Serif" font-size="10.00">+</text>
<text text-anchor="start" x="682" y="-286.5" font-family="Helvetica,sans-Serif" font-size="10.00">setLastExecution()</text>
<text text-anchor="start" x="669" y="-271.5" font-family="Helvetica,sans-Serif" font-size="10.00">+</text>
<text text-anchor="start" x="682" y="-271.5" font-family="Helvetica,sans-Serif" font-size="10.00">getSensorName()</text>
<text text-anchor="start" x="669" y="-256.5" font-family="Helvetica,sans-Serif" font-size="10.00">+</text>
<text text-anchor="start" x="682" y="-256.5" font-family="Helvetica,sans-Serif" font-size="10.00">getSensorCSVHeader()</text>
<text text-anchor="start" x="682" y="-241.5" font-family="Helvetica,sans-Serif" font-size="10.00">and 7 more...</text>
<polygon fill="#666666" stroke="#666666" points="665,-476.5 665,-476.5 798,-476.5 798,-476.5 665,-476.5"/>
<polygon fill="#666666" stroke="#666666" points="665,-401.5 665,-401.5 680,-401.5 680,-401.5 665,-401.5"/>
<polygon fill="#666666" stroke="#666666" points="680,-401.5 680,-401.5 798,-401.5 798,-401.5 680,-401.5"/>
<polygon fill="none" stroke="#666666" points="664.5,-235 664.5,-494 797.5,-494 797.5,-235 664.5,-235"/>
</a>
</g>
</g>
<!-- Node2 -->
<g id="Node000002" class="node">
<title>Node2</title>
<g id="a_Node000002"><a xlink:href="classAS7331Sensor.html" target="_top" xlink:title="Implementation of a Sensor for UVA/B/C sensor.">
<polygon fill="white" stroke="transparent" points="106,-169 0,-169 0,-30 106,-30 106,-169"/>
<text text-anchor="start" x="18" y="-156.5" font-family="Helvetica,sans-Serif" font-size="10.00">AS7331Sensor</text>
<text text-anchor="start" x="6.5" y="-141.5" font-family="Helvetica,sans-Serif" font-size="10.00">&#45;</text>
<text text-anchor="start" x="17" y="-141.5" font-family="Helvetica,sans-Serif" font-size="10.00">myUVSensor</text>
<text text-anchor="start" x="6.5" y="-126.5" font-family="Helvetica,sans-Serif" font-size="10.00">&#45;</text>
<text text-anchor="start" x="17" y="-126.5" font-family="Helvetica,sans-Serif" font-size="10.00">i2c_addr</text>
<text text-anchor="start" x="4" y="-111.5" font-family="Helvetica,sans-Serif" font-size="10.00">+</text>
<text text-anchor="start" x="17" y="-111.5" font-family="Helvetica,sans-Serif" font-size="10.00">AS7331Sensor()</text>
<text text-anchor="start" x="4" y="-96.5" font-family="Helvetica,sans-Serif" font-size="10.00">+</text>
<text text-anchor="start" x="17" y="-96.5" font-family="Helvetica,sans-Serif" font-size="10.00">AS7331Sensor()</text>
<text text-anchor="start" x="4" y="-81.5" font-family="Helvetica,sans-Serif" font-size="10.00">+</text>
<text text-anchor="start" x="17" y="-81.5" font-family="Helvetica,sans-Serif" font-size="10.00">verify()</text>
<text text-anchor="start" x="4" y="-66.5" font-family="Helvetica,sans-Serif" font-size="10.00">+</text>
<text text-anchor="start" x="17" y="-66.5" font-family="Helvetica,sans-Serif" font-size="10.00">readDataPacket()</text>
<text text-anchor="start" x="4" y="-51.5" font-family="Helvetica,sans-Serif" font-size="10.00">+</text>
<text text-anchor="start" x="17" y="-51.5" font-family="Helvetica,sans-Serif" font-size="10.00">decodeToCSV()</text>
<text text-anchor="start" x="4" y="-36.5" font-family="Helvetica,sans-Serif" font-size="10.00">+</text>
<text text-anchor="start" x="17" y="-36.5" font-family="Helvetica,sans-Serif" font-size="10.00">readData()</text>
<polygon fill="#666666" stroke="#666666" points="0,-151.5 0,-151.5 106,-151.5 106,-151.5 0,-151.5"/>
<polygon fill="#666666" stroke="#666666" points="0,-121.5 0,-121.5 15,-121.5 15,-121.5 0,-121.5"/>
<polygon fill="#666666" stroke="#666666" points="15,-121.5 15,-121.5 106,-121.5 106,-121.5 15,-121.5"/>
<polygon fill="none" stroke="#666666" points="0,-30 0,-169 106,-169 106,-30 0,-30"/>
</a>
</g>
</g>
<!-- Node1&#45;&gt;Node2 -->
<g id="edge1_Node000001_Node000002" class="edge">
<title>Node1&#45;&gt;Node2</title>
<g id="a_edge1_Node000001_Node000002"><a xlink:title=" ">
<path fill="none" stroke="#63b8ff" d="M654.26,-360.66C529.58,-352.47 280.34,-320.82 115,-199 104.1,-190.97 94.66,-180.4 86.66,-169.16"/>
<polygon fill="none" stroke="#63b8ff" points="654.28,-364.17 664.47,-361.3 654.71,-357.18 654.28,-364.17"/>
</a>
</g>
</g>
<!-- Node3 -->
<g id="Node000003" class="node">
<title>Node3</title>
<g id="a_Node000003"><a xlink:href="classBME280Sensor.html" target="_top" xlink:title="Implementation of a Sensor for the BME280.">
<polygon fill="white" stroke="transparent" points="230,-161.5 124,-161.5 124,-37.5 230,-37.5 230,-161.5"/>
<text text-anchor="start" x="140.5" y="-149.5" font-family="Helvetica,sans-Serif" font-size="10.00">BME280Sensor</text>
<text text-anchor="start" x="130.5" y="-134.5" font-family="Helvetica,sans-Serif" font-size="10.00">&#45;</text>
<text text-anchor="start" x="141" y="-134.5" font-family="Helvetica,sans-Serif" font-size="10.00">bme</text>
<text text-anchor="start" x="128" y="-119.5" font-family="Helvetica,sans-Serif" font-size="10.00">+</text>
<text text-anchor="start" x="141" y="-119.5" font-family="Helvetica,sans-Serif" font-size="10.00">BME280Sensor()</text>
<text text-anchor="start" x="128" y="-104.5" font-family="Helvetica,sans-Serif" font-size="10.00">+</text>
<text text-anchor="start" x="141" y="-104.5" font-family="Helvetica,sans-Serif" font-size="10.00">BME280Sensor()</text>
<text text-anchor="start" x="128" y="-89.5" font-family="Helvetica,sans-Serif" font-size="10.00">+</text>
<text text-anchor="start" x="141" y="-89.5" font-family="Helvetica,sans-Serif" font-size="10.00">verify()</text>
<text text-anchor="start" x="128" y="-74.5" font-family="Helvetica,sans-Serif" font-size="10.00">+</text>
<text text-anchor="start" x="141" y="-74.5" font-family="Helvetica,sans-Serif" font-size="10.00">readData()</text>
<text text-anchor="start" x="128" y="-59.5" font-family="Helvetica,sans-Serif" font-size="10.00">+</text>
<text text-anchor="start" x="141" y="-59.5" font-family="Helvetica,sans-Serif" font-size="10.00">readDataPacket()</text>
<text text-anchor="start" x="128" y="-44.5" font-family="Helvetica,sans-Serif" font-size="10.00">+</text>
<text text-anchor="start" x="141" y="-44.5" font-family="Helvetica,sans-Serif" font-size="10.00">decodeToCSV()</text>
<polygon fill="#666666" stroke="#666666" points="124,-144.5 124,-144.5 230,-144.5 230,-144.5 124,-144.5"/>
<polygon fill="#666666" stroke="#666666" points="124,-129.5 124,-129.5 139,-129.5 139,-129.5 124,-129.5"/>
<polygon fill="#666666" stroke="#666666" points="139,-129.5 139,-129.5 230,-129.5 230,-129.5 139,-129.5"/>
<polygon fill="none" stroke="#666666" points="124,-37.5 124,-161.5 230,-161.5 230,-37.5 124,-37.5"/>
</a>
</g>
</g>
<!-- Node1&#45;&gt;Node3 -->
<g id="edge2_Node000001_Node000003" class="edge">
<title>Node1&#45;&gt;Node3</title>
<g id="a_edge2_Node000001_Node000003"><a xlink:title=" ">
<path fill="none" stroke="#63b8ff" d="M654.08,-354.14C550.25,-338.13 363.92,-297.13 239,-199 226.21,-188.95 215.33,-175.48 206.43,-161.74"/>
<polygon fill="none" stroke="#63b8ff" points="653.76,-357.63 664.17,-355.65 654.8,-350.71 653.76,-357.63"/>
</a>
</g>
</g>
<!-- Node4 -->
<g id="Node000004" class="node">
<title>Node4</title>
<g id="a_Node000004"><a xlink:href="classBME680Sensor.html" target="_top" xlink:title="A class to interface with the Adafruit BME680 sensor for environmental data collection.">
<polygon fill="white" stroke="transparent" points="354,-161.5 248,-161.5 248,-37.5 354,-37.5 354,-161.5"/>
<text text-anchor="start" x="264.5" y="-149.5" font-family="Helvetica,sans-Serif" font-size="10.00">BME680Sensor</text>
<text text-anchor="start" x="254.5" y="-134.5" font-family="Helvetica,sans-Serif" font-size="10.00">&#45;</text>
<text text-anchor="start" x="265" y="-134.5" font-family="Helvetica,sans-Serif" font-size="10.00">bme</text>
<text text-anchor="start" x="252" y="-119.5" font-family="Helvetica,sans-Serif" font-size="10.00">+</text>
<text text-anchor="start" x="265" y="-119.5" font-family="Helvetica,sans-Serif" font-size="10.00">BME680Sensor()</text>
<text text-anchor="start" x="252" y="-104.5" font-family="Helvetica,sans-Serif" font-size="10.00">+</text>
<text text-anchor="start" x="265" y="-104.5" font-family="Helvetica,sans-Serif" font-size="10.00">BME680Sensor()</text>
<text text-anchor="start" x="252" y="-89.5" font-family="Helvetica,sans-Serif" font-size="10.00">+</text>
<text text-anchor="start" x="265" y="-89.5" font-family="Helvetica,sans-Serif" font-size="10.00">verify()</text>
<text text-anchor="start" x="252" y="-74.5" font-family="Helvetica,sans-Serif" font-size="10.00">+</text>
<text text-anchor="start" x="265" y="-74.5" font-family="Helvetica,sans-Serif" font-size="10.00">readData()</text>
<text text-anchor="start" x="252" y="-59.5" font-family="Helvetica,sans-Serif" font-size="10.00">+</text>
<text text-anchor="start" x="265" y="-59.5" font-family="Helvetica,sans-Serif" font-size="10.00">readDataPacket()</text>
<text text-anchor="start" x="252" y="-44.5" font-family="Helvetica,sans-Serif" font-size="10.00">+</text>
<text text-anchor="start" x="265" y="-44.5" font-family="Helvetica,sans-Serif" font-size="10.00">decodeToCSV()</text>
<polygon fill="#666666" stroke="#666666" points="248,-144.5 248,-144.5 354,-144.5 354,-144.5 248,-144.5"/>
<polygon fill="#666666" stroke="#666666" points="248,-129.5 248,-129.5 263,-129.5 263,-129.5 248,-129.5"/>
<polygon fill="#666666" stroke="#666666" points="263,-129.5 263,-129.5 354,-129.5 354,-129.5 263,-129.5"/>
<polygon fill="none" stroke="#666666" points="248,-37.5 248,-161.5 354,-161.5 354,-37.5 248,-37.5"/>
</a>
</g>
</g>
<!-- Node1&#45;&gt;Node4 -->
<g id="edge3_Node000001_Node000004" class="edge">
<title>Node1&#45;&gt;Node4</title>
<g id="a_edge3_Node000001_Node000004"><a xlink:title=" ">
<path fill="none" stroke="#63b8ff" d="M654.39,-343.65C574.46,-319.89 449.04,-273.66 363,-199 350.94,-188.54 340.42,-175.15 331.64,-161.65"/>
<polygon fill="none" stroke="#63b8ff" points="653.8,-347.13 664.39,-346.58 655.77,-340.41 653.8,-347.13"/>
</a>
</g>
</g>
<!-- Node5 -->
<g id="Node000005" class="node">
<title>Node5</title>
<g id="a_Node000005"><a xlink:href="classDS3231Sensor.html" target="_top" xlink:title="Implementation of a Sensor for the DS3231 Real Time Clock.">
<polygon fill="white" stroke="transparent" points="478,-169 372,-169 372,-30 478,-30 478,-169"/>
<text text-anchor="start" x="389.5" y="-156.5" font-family="Helvetica,sans-Serif" font-size="10.00">DS3231Sensor</text>
<text text-anchor="start" x="378.5" y="-141.5" font-family="Helvetica,sans-Serif" font-size="10.00">&#45;</text>
<text text-anchor="start" x="389" y="-141.5" font-family="Helvetica,sans-Serif" font-size="10.00">rtc</text>
<text text-anchor="start" x="376" y="-126.5" font-family="Helvetica,sans-Serif" font-size="10.00">+</text>
<text text-anchor="start" x="389" y="-126.5" font-family="Helvetica,sans-Serif" font-size="10.00">DS3231Sensor()</text>
<text text-anchor="start" x="376" y="-111.5" font-family="Helvetica,sans-Serif" font-size="10.00">+</text>
<text text-anchor="start" x="389" y="-111.5" font-family="Helvetica,sans-Serif" font-size="10.00">DS3231Sensor()</text>
<text text-anchor="start" x="376" y="-96.5" font-family="Helvetica,sans-Serif" font-size="10.00">+</text>
<text text-anchor="start" x="389" y="-96.5" font-family="Helvetica,sans-Serif" font-size="10.00">verify()</text>
<text text-anchor="start" x="376" y="-81.5" font-family="Helvetica,sans-Serif" font-size="10.00">+</text>
<text text-anchor="start" x="389" y="-81.5" font-family="Helvetica,sans-Serif" font-size="10.00">readData()</text>
<text text-anchor="start" x="376" y="-66.5" font-family="Helvetica,sans-Serif" font-size="10.00">+</text>
<text text-anchor="start" x="389" y="-66.5" font-family="Helvetica,sans-Serif" font-size="10.00">readDataPacket()</text>
<text text-anchor="start" x="376" y="-51.5" font-family="Helvetica,sans-Serif" font-size="10.00">+</text>
<text text-anchor="start" x="389" y="-51.5" font-family="Helvetica,sans-Serif" font-size="10.00">decodeToCSV()</text>
<text text-anchor="start" x="376" y="-36.5" font-family="Helvetica,sans-Serif" font-size="10.00">+</text>
<text text-anchor="start" x="389" y="-36.5" font-family="Helvetica,sans-Serif" font-size="10.00">setTime()</text>
<polygon fill="#666666" stroke="#666666" points="372,-151.5 372,-151.5 478,-151.5 478,-151.5 372,-151.5"/>
<polygon fill="#666666" stroke="#666666" points="372,-136.5 372,-136.5 387,-136.5 387,-136.5 372,-136.5"/>
<polygon fill="#666666" stroke="#666666" points="387,-136.5 387,-136.5 478,-136.5 478,-136.5 387,-136.5"/>
<polygon fill="none" stroke="#666666" points="372,-30 372,-169 478,-169 478,-30 372,-30"/>
</a>
</g>
</g>
<!-- Node1&#45;&gt;Node5 -->
<g id="edge4_Node000001_Node000005" class="edge">
<title>Node1&#45;&gt;Node5</title>
<g id="a_edge4_Node000001_Node000005"><a xlink:title=" ">
<path fill="none" stroke="#63b8ff" d="M655.61,-323.76C604.07,-294.09 536.41,-249.98 487,-199 478.35,-190.08 470.28,-179.76 463.01,-169.22"/>
<polygon fill="none" stroke="#63b8ff" points="653.97,-326.85 664.39,-328.76 657.44,-320.77 653.97,-326.85"/>
</a>
</g>
</g>
<!-- Node6 -->
<g id="Node000006" class="node">
<title>Node6</title>
<g id="a_Node000006"><a xlink:href="classENS160Sensor.html" target="_top" xlink:title="Implementation of a Sensor for the ENS160.">
<polygon fill="white" stroke="transparent" points="596,-146.5 496,-146.5 496,-52.5 596,-52.5 596,-146.5"/>
<text text-anchor="start" x="510.5" y="-134.5" font-family="Helvetica,sans-Serif" font-size="10.00">ENS160Sensor</text>
<text text-anchor="start" x="502.5" y="-119.5" font-family="Helvetica,sans-Serif" font-size="10.00">&#45;</text>
<text text-anchor="start" x="513" y="-119.5" font-family="Helvetica,sans-Serif" font-size="10.00">ens</text>
<text text-anchor="start" x="500" y="-104.5" font-family="Helvetica,sans-Serif" font-size="10.00">+</text>
<text text-anchor="start" x="513" y="-104.5" font-family="Helvetica,sans-Serif" font-size="10.00">ENS160Sensor()</text>
<text text-anchor="start" x="500" y="-89.5" font-family="Helvetica,sans-Serif" font-size="10.00">+</text>
<text text-anchor="start" x="513" y="-89.5" font-family="Helvetica,sans-Serif" font-size="10.00">ENS160Sensor()</text>
<text text-anchor="start" x="500" y="-74.5" font-family="Helvetica,sans-Serif" font-size="10.00">+</text>
<text text-anchor="start" x="513" y="-74.5" font-family="Helvetica,sans-Serif" font-size="10.00">verify()</text>
<text text-anchor="start" x="500" y="-59.5" font-family="Helvetica,sans-Serif" font-size="10.00">+</text>
<text text-anchor="start" x="513" y="-59.5" font-family="Helvetica,sans-Serif" font-size="10.00">readData()</text>
<polygon fill="#666666" stroke="#666666" points="496,-129.5 496,-129.5 596,-129.5 596,-129.5 496,-129.5"/>
<polygon fill="#666666" stroke="#666666" points="496,-114.5 496,-114.5 511,-114.5 511,-114.5 496,-114.5"/>
<polygon fill="#666666" stroke="#666666" points="511,-114.5 511,-114.5 596,-114.5 596,-114.5 511,-114.5"/>
<polygon fill="none" stroke="#666666" points="496,-52.5 496,-146.5 596,-146.5 596,-52.5 496,-52.5"/>
</a>
</g>
</g>
<!-- Node1&#45;&gt;Node6 -->
<g id="edge5_Node000001_Node000006" class="edge">
<title>Node1&#45;&gt;Node6</title>
<g id="a_edge5_Node000001_Node000006"><a xlink:title=" ">
<path fill="none" stroke="#63b8ff" d="M658.08,-272.12C640.18,-248.68 621.45,-223.22 605,-199 593.69,-182.35 582.12,-163.5 572.25,-146.79"/>
<polygon fill="none" stroke="#63b8ff" points="655.51,-274.52 664.37,-280.33 661.06,-270.26 655.51,-274.52"/>
</a>
</g>
</g>
<!-- Node7 -->
<g id="Node000007" class="node">
<title>Node7</title>
<g id="a_Node000007"><a xlink:href="classICM20948Sensor.html" target="_top" xlink:title="Implementation of the Sensor class for the Adafruit ICM20948 (9&#45;axis IMU)">
<polygon fill="white" stroke="transparent" points="725.5,-191.5 614.5,-191.5 614.5,-7.5 725.5,-7.5 725.5,-191.5"/>
<text text-anchor="start" x="629.5" y="-179.5" font-family="Helvetica,sans-Serif" font-size="10.00">ICM20948Sensor</text>
<text text-anchor="start" x="621.5" y="-164.5" font-family="Helvetica,sans-Serif" font-size="10.00">&#45;</text>
<text text-anchor="start" x="632" y="-164.5" font-family="Helvetica,sans-Serif" font-size="10.00">icm</text>
<text text-anchor="start" x="621.5" y="-149.5" font-family="Helvetica,sans-Serif" font-size="10.00">&#45;</text>
<text text-anchor="start" x="632" y="-149.5" font-family="Helvetica,sans-Serif" font-size="10.00">icm_accel</text>
<text text-anchor="start" x="621.5" y="-134.5" font-family="Helvetica,sans-Serif" font-size="10.00">&#45;</text>
<text text-anchor="start" x="632" y="-134.5" font-family="Helvetica,sans-Serif" font-size="10.00">icm_gyro</text>
<text text-anchor="start" x="621.5" y="-119.5" font-family="Helvetica,sans-Serif" font-size="10.00">&#45;</text>
<text text-anchor="start" x="632" y="-119.5" font-family="Helvetica,sans-Serif" font-size="10.00">icm_mag</text>
<text text-anchor="start" x="621.5" y="-104.5" font-family="Helvetica,sans-Serif" font-size="10.00">&#45;</text>
<text text-anchor="start" x="632" y="-104.5" font-family="Helvetica,sans-Serif" font-size="10.00">icm_temp</text>
<text text-anchor="start" x="619" y="-89.5" font-family="Helvetica,sans-Serif" font-size="10.00">+</text>
<text text-anchor="start" x="632" y="-89.5" font-family="Helvetica,sans-Serif" font-size="10.00">ICM20948Sensor()</text>
<text text-anchor="start" x="619" y="-74.5" font-family="Helvetica,sans-Serif" font-size="10.00">+</text>
<text text-anchor="start" x="632" y="-74.5" font-family="Helvetica,sans-Serif" font-size="10.00">ICM20948Sensor()</text>
<text text-anchor="start" x="619" y="-59.5" font-family="Helvetica,sans-Serif" font-size="10.00">+</text>
<text text-anchor="start" x="632" y="-59.5" font-family="Helvetica,sans-Serif" font-size="10.00">verify()</text>
<text text-anchor="start" x="619" y="-44.5" font-family="Helvetica,sans-Serif" font-size="10.00">+</text>
<text text-anchor="start" x="632" y="-44.5" font-family="Helvetica,sans-Serif" font-size="10.00">readData()</text>
<text text-anchor="start" x="619" y="-29.5" font-family="Helvetica,sans-Serif" font-size="10.00">+</text>
<text text-anchor="start" x="632" y="-29.5" font-family="Helvetica,sans-Serif" font-size="10.00">readDataPacket()</text>
<text text-anchor="start" x="619" y="-14.5" font-family="Helvetica,sans-Serif" font-size="10.00">+</text>
<text text-anchor="start" x="632" y="-14.5" font-family="Helvetica,sans-Serif" font-size="10.00">decodeToCSV()</text>
<polygon fill="#666666" stroke="#666666" points="615,-174.5 615,-174.5 726,-174.5 726,-174.5 615,-174.5"/>
<polygon fill="#666666" stroke="#666666" points="615,-99.5 615,-99.5 630,-99.5 630,-99.5 615,-99.5"/>
<polygon fill="#666666" stroke="#666666" points="630,-99.5 630,-99.5 726,-99.5 726,-99.5 630,-99.5"/>
<polygon fill="none" stroke="#666666" points="614.5,-7.5 614.5,-191.5 725.5,-191.5 725.5,-7.5 614.5,-7.5"/>
</a>
</g>
</g>
<!-- Node1&#45;&gt;Node7 -->
<g id="edge6_Node000001_Node000007" class="edge">
<title>Node1&#45;&gt;Node7</title>
<g id="a_edge6_Node000001_Node000007"><a xlink:title=" ">
<path fill="none" stroke="#63b8ff" d="M698.83,-224.79C696.22,-213.53 693.62,-202.34 691.12,-191.55"/>
<polygon fill="none" stroke="#63b8ff" points="695.46,-225.75 701.13,-234.7 702.28,-224.16 695.46,-225.75"/>
</a>
</g>
</g>
<!-- Node8 -->
<g id="Node000008" class="node">
<title>Node8</title>
<g id="a_Node000008"><a xlink:href="classINA260Sensor.html" target="_top" xlink:title="A class to interface with the Adafruit INA260 sensor for current, voltage, and power measurements.">
<polygon fill="white" stroke="transparent" points="840.5,-146.5 743.5,-146.5 743.5,-52.5 840.5,-52.5 840.5,-146.5"/>
<text text-anchor="start" x="758" y="-134.5" font-family="Helvetica,sans-Serif" font-size="10.00">INA260Sensor</text>
<text text-anchor="start" x="750.5" y="-119.5" font-family="Helvetica,sans-Serif" font-size="10.00">&#45;</text>
<text text-anchor="start" x="761" y="-119.5" font-family="Helvetica,sans-Serif" font-size="10.00">ina260</text>
<text text-anchor="start" x="748" y="-104.5" font-family="Helvetica,sans-Serif" font-size="10.00">+</text>
<text text-anchor="start" x="761" y="-104.5" font-family="Helvetica,sans-Serif" font-size="10.00">INA260Sensor()</text>
<text text-anchor="start" x="748" y="-89.5" font-family="Helvetica,sans-Serif" font-size="10.00">+</text>
<text text-anchor="start" x="761" y="-89.5" font-family="Helvetica,sans-Serif" font-size="10.00">INA260Sensor()</text>
<text text-anchor="start" x="748" y="-74.5" font-family="Helvetica,sans-Serif" font-size="10.00">+</text>
<text text-anchor="start" x="761" y="-74.5" font-family="Helvetica,sans-Serif" font-size="10.00">verify()</text>
<text text-anchor="start" x="748" y="-59.5" font-family="Helvetica,sans-Serif" font-size="10.00">+</text>
<text text-anchor="start" x="761" y="-59.5" font-family="Helvetica,sans-Serif" font-size="10.00">readData()</text>
<polygon fill="#666666" stroke="#666666" points="744,-129.5 744,-129.5 841,-129.5 841,-129.5 744,-129.5"/>
<polygon fill="#666666" stroke="#666666" points="744,-114.5 744,-114.5 759,-114.5 759,-114.5 744,-114.5"/>
<polygon fill="#666666" stroke="#666666" points="759,-114.5 759,-114.5 841,-114.5 841,-114.5 759,-114.5"/>
<polygon fill="none" stroke="#666666" points="743.5,-52.5 743.5,-146.5 840.5,-146.5 840.5,-52.5 743.5,-52.5"/>
</a>
</g>
</g>
<!-- Node1&#45;&gt;Node8 -->
<g id="edge7_Node000001_Node000008" class="edge">
<title>Node1&#45;&gt;Node8</title>
<g id="a_edge7_Node000001_Node000008"><a xlink:title=" ">
<path fill="none" stroke="#63b8ff" d="M763.2,-224.69C769.75,-196.43 776.2,-168.63 781.33,-146.51"/>
<polygon fill="none" stroke="#63b8ff" points="759.72,-224.16 760.87,-234.7 766.54,-225.75 759.72,-224.16"/>
</a>
</g>
</g>
<!-- Node9 -->
<g id="Node000009" class="node">
<title>Node9</title>
<g id="a_Node000009"><a xlink:href="classLSM9DS1Sensor.html" target="_top" xlink:title="Implementation of the Sensor class for the LSM9DS1 (9&#45;axis IMU)">
<polygon fill="white" stroke="transparent" points="967,-199 859,-199 859,0 967,0 967,-199"/>
<text text-anchor="start" x="873.5" y="-186.5" font-family="Helvetica,sans-Serif" font-size="10.00">LSM9DS1Sensor</text>
<text text-anchor="start" x="865.5" y="-171.5" font-family="Helvetica,sans-Serif" font-size="10.00">&#45;</text>
<text text-anchor="start" x="876" y="-171.5" font-family="Helvetica,sans-Serif" font-size="10.00">lsm</text>
<text text-anchor="start" x="865.5" y="-156.5" font-family="Helvetica,sans-Serif" font-size="10.00">&#45;</text>
<text text-anchor="start" x="876" y="-156.5" font-family="Helvetica,sans-Serif" font-size="10.00">accel_offsets</text>
<text text-anchor="start" x="865.5" y="-141.5" font-family="Helvetica,sans-Serif" font-size="10.00">&#45;</text>
<text text-anchor="start" x="876" y="-141.5" font-family="Helvetica,sans-Serif" font-size="10.00">gyro_offsets</text>
<text text-anchor="start" x="865.5" y="-126.5" font-family="Helvetica,sans-Serif" font-size="10.00">&#45;</text>
<text text-anchor="start" x="876" y="-126.5" font-family="Helvetica,sans-Serif" font-size="10.00">mag_offsets</text>
<text text-anchor="start" x="863" y="-111.5" font-family="Helvetica,sans-Serif" font-size="10.00">+</text>
<text text-anchor="start" x="876" y="-111.5" font-family="Helvetica,sans-Serif" font-size="10.00">LSM9DS1Sensor()</text>
<text text-anchor="start" x="863" y="-96.5" font-family="Helvetica,sans-Serif" font-size="10.00">+</text>
<text text-anchor="start" x="876" y="-96.5" font-family="Helvetica,sans-Serif" font-size="10.00">LSM9DS1Sensor()</text>
<text text-anchor="start" x="863" y="-81.5" font-family="Helvetica,sans-Serif" font-size="10.00">+</text>
<text text-anchor="start" x="876" y="-81.5" font-family="Helvetica,sans-Serif" font-size="10.00">verify()</text>
<text text-anchor="start" x="863" y="-66.5" font-family="Helvetica,sans-Serif" font-size="10.00">+</text>
<text text-anchor="start" x="876" y="-66.5" font-family="Helvetica,sans-Serif" font-size="10.00">readData()</text>
<text text-anchor="start" x="863" y="-51.5" font-family="Helvetica,sans-Serif" font-size="10.00">+</text>
<text text-anchor="start" x="876" y="-51.5" font-family="Helvetica,sans-Serif" font-size="10.00">calibrate()</text>
<text text-anchor="start" x="863" y="-36.5" font-family="Helvetica,sans-Serif" font-size="10.00">+</text>
<text text-anchor="start" x="876" y="-36.5" font-family="Helvetica,sans-Serif" font-size="10.00">readDataPacket()</text>
<text text-anchor="start" x="863" y="-21.5" font-family="Helvetica,sans-Serif" font-size="10.00">+</text>
<text text-anchor="start" x="876" y="-21.5" font-family="Helvetica,sans-Serif" font-size="10.00">decodeToCSV()</text>
<text text-anchor="start" x="865.5" y="-6.5" font-family="Helvetica,sans-Serif" font-size="10.00">&#45;</text>
<text text-anchor="start" x="876" y="-6.5" font-family="Helvetica,sans-Serif" font-size="10.00">setupSensor()</text>
<polygon fill="#666666" stroke="#666666" points="859,-181.5 859,-181.5 967,-181.5 967,-181.5 859,-181.5"/>
<polygon fill="#666666" stroke="#666666" points="859,-121.5 859,-121.5 874,-121.5 874,-121.5 859,-121.5"/>
<polygon fill="#666666" stroke="#666666" points="874,-121.5 874,-121.5 967,-121.5 967,-121.5 874,-121.5"/>
<polygon fill="none" stroke="#666666" points="859,0 859,-199 967,-199 967,0 859,0"/>
</a>
</g>
</g>
<!-- Node1&#45;&gt;Node9 -->
<g id="edge8_Node000001_Node000009" class="edge">
<title>Node1&#45;&gt;Node9</title>
<g id="a_edge8_Node000001_Node000009"><a xlink:title=" ">
<path fill="none" stroke="#63b8ff" d="M803.64,-265.02C819.17,-243.43 835.31,-220.57 850,-199 852.91,-194.72 855.87,-190.32 858.83,-185.86"/>
<polygon fill="none" stroke="#63b8ff" points="800.73,-263.07 797.72,-273.23 806.41,-267.16 800.73,-263.07"/>
</a>
</g>
</g>
<!-- Node10 -->
<g id="Node000010" class="node">
<title>Node10</title>
<g id="a_Node000010"><a xlink:href="classMTK3339Sensor.html" target="_top" xlink:title="Implementation of the Adafruit MTK3339 GPS sensor.">
<polygon fill="white" stroke="transparent" points="1093,-161.5 985,-161.5 985,-37.5 1093,-37.5 1093,-161.5"/>
<text text-anchor="start" x="999.5" y="-149.5" font-family="Helvetica,sans-Serif" font-size="10.00">MTK3339Sensor</text>
<text text-anchor="start" x="991.5" y="-134.5" font-family="Helvetica,sans-Serif" font-size="10.00">&#45;</text>
<text text-anchor="start" x="1002" y="-134.5" font-family="Helvetica,sans-Serif" font-size="10.00">GPS</text>
<text text-anchor="start" x="989" y="-119.5" font-family="Helvetica,sans-Serif" font-size="10.00">+</text>
<text text-anchor="start" x="1002" y="-119.5" font-family="Helvetica,sans-Serif" font-size="10.00">MTK3339Sensor()</text>
<text text-anchor="start" x="989" y="-104.5" font-family="Helvetica,sans-Serif" font-size="10.00">+</text>
<text text-anchor="start" x="1002" y="-104.5" font-family="Helvetica,sans-Serif" font-size="10.00">MTK3339Sensor()</text>
<text text-anchor="start" x="989" y="-89.5" font-family="Helvetica,sans-Serif" font-size="10.00">+</text>
<text text-anchor="start" x="1002" y="-89.5" font-family="Helvetica,sans-Serif" font-size="10.00">verify()</text>
<text text-anchor="start" x="989" y="-74.5" font-family="Helvetica,sans-Serif" font-size="10.00">+</text>
<text text-anchor="start" x="1002" y="-74.5" font-family="Helvetica,sans-Serif" font-size="10.00">readData()</text>
<text text-anchor="start" x="989" y="-59.5" font-family="Helvetica,sans-Serif" font-size="10.00">+</text>
<text text-anchor="start" x="1002" y="-59.5" font-family="Helvetica,sans-Serif" font-size="10.00">readDataPacket()</text>
<text text-anchor="start" x="989" y="-44.5" font-family="Helvetica,sans-Serif" font-size="10.00">+</text>
<text text-anchor="start" x="1002" y="-44.5" font-family="Helvetica,sans-Serif" font-size="10.00">decodeToCSV()</text>
<polygon fill="#666666" stroke="#666666" points="985,-144.5 985,-144.5 1093,-144.5 1093,-144.5 985,-144.5"/>
<polygon fill="#666666" stroke="#666666" points="985,-129.5 985,-129.5 1000,-129.5 1000,-129.5 985,-129.5"/>
<polygon fill="#666666" stroke="#666666" points="1000,-129.5 1000,-129.5 1093,-129.5 1093,-129.5 1000,-129.5"/>
<polygon fill="none" stroke="#666666" points="985,-37.5 985,-161.5 1093,-161.5 1093,-37.5 985,-37.5"/>
</a>
</g>
</g>
<!-- Node1&#45;&gt;Node10 -->
<g id="edge9_Node000001_Node000010" class="edge">
<title>Node1&#45;&gt;Node10</title>
<g id="a_edge9_Node000001_Node000010"><a xlink:title=" ">
<path fill="none" stroke="#63b8ff" d="M806.33,-323.86C858.06,-294.16 926.14,-249.99 976,-199 986.79,-187.97 996.72,-174.81 1005.36,-161.75"/>
<polygon fill="none" stroke="#63b8ff" points="804.48,-320.88 797.52,-328.86 807.94,-326.96 804.48,-320.88"/>
</a>
</g>
</g>
<!-- Node11 -->
<g id="Node000011" class="node">
<title>Node11</title>
<g id="a_Node000011"><a xlink:href="classPCF8523Sensor.html" target="_top" xlink:title="Implementation of the PCF8523 sensor.">
<polygon fill="white" stroke="transparent" points="1217,-169 1111,-169 1111,-30 1217,-30 1217,-169"/>
<text text-anchor="start" x="1126" y="-156.5" font-family="Helvetica,sans-Serif" font-size="10.00">PCF8523Sensor</text>
<text text-anchor="start" x="1117.5" y="-141.5" font-family="Helvetica,sans-Serif" font-size="10.00">&#45;</text>
<text text-anchor="start" x="1128" y="-141.5" font-family="Helvetica,sans-Serif" font-size="10.00">rtc</text>
<text text-anchor="start" x="1115" y="-126.5" font-family="Helvetica,sans-Serif" font-size="10.00">+</text>
<text text-anchor="start" x="1128" y="-126.5" font-family="Helvetica,sans-Serif" font-size="10.00">PCF8523Sensor()</text>
<text text-anchor="start" x="1115" y="-111.5" font-family="Helvetica,sans-Serif" font-size="10.00">+</text>
<text text-anchor="start" x="1128" y="-111.5" font-family="Helvetica,sans-Serif" font-size="10.00">PCF8523Sensor()</text>
<text text-anchor="start" x="1115" y="-96.5" font-family="Helvetica,sans-Serif" font-size="10.00">+</text>
<text text-anchor="start" x="1128" y="-96.5" font-family="Helvetica,sans-Serif" font-size="10.00">verify()</text>
<text text-anchor="start" x="1115" y="-81.5" font-family="Helvetica,sans-Serif" font-size="10.00">+</text>
<text text-anchor="start" x="1128" y="-81.5" font-family="Helvetica,sans-Serif" font-size="10.00">decodeToCSV()</text>
<text text-anchor="start" x="1115" y="-66.5" font-family="Helvetica,sans-Serif" font-size="10.00">+</text>
<text text-anchor="start" x="1128" y="-66.5" font-family="Helvetica,sans-Serif" font-size="10.00">readDataPacket()</text>
<text text-anchor="start" x="1115" y="-51.5" font-family="Helvetica,sans-Serif" font-size="10.00">+</text>
<text text-anchor="start" x="1128" y="-51.5" font-family="Helvetica,sans-Serif" font-size="10.00">readData()</text>
<text text-anchor="start" x="1115" y="-36.5" font-family="Helvetica,sans-Serif" font-size="10.00">+</text>
<text text-anchor="start" x="1128" y="-36.5" font-family="Helvetica,sans-Serif" font-size="10.00">calibrate()</text>
<polygon fill="#666666" stroke="#666666" points="1111,-151.5 1111,-151.5 1217,-151.5 1217,-151.5 1111,-151.5"/>
<polygon fill="#666666" stroke="#666666" points="1111,-136.5 1111,-136.5 1126,-136.5 1126,-136.5 1111,-136.5"/>
<polygon fill="#666666" stroke="#666666" points="1126,-136.5 1126,-136.5 1217,-136.5 1217,-136.5 1126,-136.5"/>
<polygon fill="none" stroke="#666666" points="1111,-30 1111,-169 1217,-169 1217,-30 1111,-30"/>
</a>
</g>
</g>
<!-- Node1&#45;&gt;Node11 -->
<g id="edge10_Node000001_Node000011" class="edge">
<title>Node1&#45;&gt;Node11</title>
<g id="a_edge10_Node000001_Node000011"><a xlink:title=" ">
<path fill="none" stroke="#63b8ff" d="M807.88,-343.9C888.44,-320.3 1015.13,-274.15 1102,-199 1111.86,-190.47 1120.68,-179.99 1128.37,-169.08"/>
<polygon fill="none" stroke="#63b8ff" points="806.45,-340.68 797.81,-346.81 808.39,-347.4 806.45,-340.68"/>
</a>
</g>
</g>
<!-- Node12 -->
<g id="Node000012" class="node">
<title>Node12</title>
<g id="a_Node000012"><a xlink:href="classSGP30Sensor.html" target="_top" xlink:title="Implementation of a Sensor for the SGP Air Quality sensor.">
<polygon fill="white" stroke="transparent" points="1329,-146.5 1235,-146.5 1235,-52.5 1329,-52.5 1329,-146.5"/>
<text text-anchor="start" x="1249.5" y="-134.5" font-family="Helvetica,sans-Serif" font-size="10.00">SGP30Sensor</text>
<text text-anchor="start" x="1241.5" y="-119.5" font-family="Helvetica,sans-Serif" font-size="10.00">&#45;</text>
<text text-anchor="start" x="1252" y="-119.5" font-family="Helvetica,sans-Serif" font-size="10.00">sgp</text>
<text text-anchor="start" x="1239" y="-104.5" font-family="Helvetica,sans-Serif" font-size="10.00">+</text>
<text text-anchor="start" x="1252" y="-104.5" font-family="Helvetica,sans-Serif" font-size="10.00">SGP30Sensor()</text>
<text text-anchor="start" x="1239" y="-89.5" font-family="Helvetica,sans-Serif" font-size="10.00">+</text>
<text text-anchor="start" x="1252" y="-89.5" font-family="Helvetica,sans-Serif" font-size="10.00">SGP30Sensor()</text>
<text text-anchor="start" x="1239" y="-74.5" font-family="Helvetica,sans-Serif" font-size="10.00">+</text>
<text text-anchor="start" x="1252" y="-74.5" font-family="Helvetica,sans-Serif" font-size="10.00">verify()</text>
<text text-anchor="start" x="1239" y="-59.5" font-family="Helvetica,sans-Serif" font-size="10.00">+</text>
<text text-anchor="start" x="1252" y="-59.5" font-family="Helvetica,sans-Serif" font-size="10.00">readData()</text>
<polygon fill="#666666" stroke="#666666" points="1235,-129.5 1235,-129.5 1329,-129.5 1329,-129.5 1235,-129.5"/>
<polygon fill="#666666" stroke="#666666" points="1235,-114.5 1235,-114.5 1250,-114.5 1250,-114.5 1235,-114.5"/>
<polygon fill="#666666" stroke="#666666" points="1250,-114.5 1250,-114.5 1329,-114.5 1329,-114.5 1250,-114.5"/>
<polygon fill="none" stroke="#666666" points="1235,-52.5 1235,-146.5 1329,-146.5 1329,-52.5 1235,-52.5"/>
</a>
</g>
</g>
<!-- Node1&#45;&gt;Node12 -->
<g id="edge11_Node000001_Node000012" class="edge">
<title>Node1&#45;&gt;Node12</title>
<g id="a_edge11_Node000001_Node000012"><a xlink:title=" ">
<path fill="none" stroke="#63b8ff" d="M807.75,-355.25C912.68,-340.45 1102.04,-300.76 1226,-199 1242.73,-185.27 1255.42,-165.15 1264.45,-146.67"/>
<polygon fill="none" stroke="#63b8ff" points="806.98,-351.83 797.55,-356.65 807.93,-358.76 806.98,-351.83"/>
</a>
</g>
</g>
<!-- Node13 -->
<g id="Node000013" class="node">
<title>Node13</title>
<g id="a_Node000013"><a xlink:href="classTempSensor.html" target="_top" xlink:title="Implementation of a Sensor for the onboard temperature sensor.">
<polygon fill="white" stroke="transparent" points="1453,-161.5 1347,-161.5 1347,-37.5 1453,-37.5 1453,-161.5"/>
<text text-anchor="start" x="1370" y="-149.5" font-family="Helvetica,sans-Serif" font-size="10.00">TempSensor</text>
<text text-anchor="start" x="1398" y="-134.5" font-family="Helvetica,sans-Serif" font-size="10.00"> </text>
<text text-anchor="start" x="1351" y="-119.5" font-family="Helvetica,sans-Serif" font-size="10.00">+</text>
<text text-anchor="start" x="1364" y="-119.5" font-family="Helvetica,sans-Serif" font-size="10.00">TempSensor()</text>
<text text-anchor="start" x="1351" y="-104.5" font-family="Helvetica,sans-Serif" font-size="10.00">+</text>
<text text-anchor="start" x="1364" y="-104.5" font-family="Helvetica,sans-Serif" font-size="10.00">TempSensor()</text>
<text text-anchor="start" x="1351" y="-89.5" font-family="Helvetica,sans-Serif" font-size="10.00">+</text>
<text text-anchor="start" x="1364" y="-89.5" font-family="Helvetica,sans-Serif" font-size="10.00">verify()</text>
<text text-anchor="start" x="1351" y="-74.5" font-family="Helvetica,sans-Serif" font-size="10.00">+</text>
<text text-anchor="start" x="1364" y="-74.5" font-family="Helvetica,sans-Serif" font-size="10.00">readData()</text>
<text text-anchor="start" x="1351" y="-59.5" font-family="Helvetica,sans-Serif" font-size="10.00">+</text>
<text text-anchor="start" x="1364" y="-59.5" font-family="Helvetica,sans-Serif" font-size="10.00">readDataPacket()</text>
<text text-anchor="start" x="1351" y="-44.5" font-family="Helvetica,sans-Serif" font-size="10.00">+</text>
<text text-anchor="start" x="1364" y="-44.5" font-family="Helvetica,sans-Serif" font-size="10.00">decodeToCSV()</text>
<polygon fill="#666666" stroke="#666666" points="1347,-144.5 1347,-144.5 1453,-144.5 1453,-144.5 1347,-144.5"/>
<polygon fill="#666666" stroke="#666666" points="1347,-129.5 1347,-129.5 1453,-129.5 1453,-129.5 1347,-129.5"/>
<polygon fill="none" stroke="#666666" points="1347,-37.5 1347,-161.5 1453,-161.5 1453,-37.5 1347,-37.5"/>
</a>
</g>
</g>
<!-- Node1&#45;&gt;Node13 -->
<g id="edge12_Node000001_Node000013" class="edge">
<title>Node1&#45;&gt;Node13</title>
<g id="a_edge12_Node000001_Node000013"><a xlink:title=" ">
<path fill="none" stroke="#63b8ff" d="M807.6,-360.28C930.8,-351.55 1175.56,-319.14 1338,-199 1351.32,-189.15 1362.47,-175.5 1371.47,-161.5"/>
<polygon fill="none" stroke="#63b8ff" points="807.25,-356.8 797.5,-360.96 807.72,-363.78 807.25,-356.8"/>
</a>
</g>
</g>
</g>
</svg>
