<?xml version="1.0" encoding="UTF-8" standalone="no"?>
<!DOCTYPE svg PUBLIC "-//W3C//DTD SVG 1.1//EN"
 "http://www.w3.org/Graphics/SVG/1.1/DTD/svg11.dtd">
<!-- Generated by graphviz version 2.43.0 (0)
 -->
<!-- Title: FlashStorage::indexFlash Pages: 1 -->
<svg width="344pt" height="66pt"
 viewBox="0.00 0.00 344.00 66.00" xmlns="http://www.w3.org/2000/svg" xmlns:xlink="http://www.w3.org/1999/xlink">
<g id="graph0" class="graph" transform="scale(1 1) rotate(0) translate(4 62)">
<title>FlashStorage::indexFlash</title>
<!-- Node1 -->
<g id="node1" class="node">
<title>Node1</title>
<g id="a_node1"><a xlink:title="Locates the next available file block &amp; tracks existing files.">
<polygon fill="#bfbfbf" stroke="black" points="0,-19.5 0,-38.5 140,-38.5 140,-19.5 0,-19.5"/>
<text text-anchor="middle" x="70" y="-26.5" font-family="Helvetica,sans-Serif" font-size="10.00">FlashStorage::indexFlash</text>
</a>
</g>
</g>
<!-- Node2 -->
<g id="node2" class="node">
<title>Node2</title>
<g id="a_node2"><a xlink:href="classFlashStorage.html#a97b10db97f42549e197feeff3f3f9abb" target="_top" xlink:title="Determines if the current sector is empty.">
<polygon fill="none" stroke="black" points="177.5,-38.5 177.5,-57.5 334.5,-57.5 334.5,-38.5 177.5,-38.5"/>
<text text-anchor="middle" x="256" y="-45.5" font-family="Helvetica,sans-Serif" font-size="10.00">FlashStorage::isSectorEmpty</text>
</a>
</g>
</g>
<!-- Node1&#45;&gt;Node2 -->
<g id="edge1" class="edge">
<title>Node1&#45;&gt;Node2</title>
<path fill="none" stroke="midnightblue" d="M140.04,-36.13C148.86,-37.04 157.97,-37.98 167.04,-38.92"/>
<polygon fill="midnightblue" stroke="midnightblue" points="166.92,-42.42 177.23,-39.97 167.64,-35.46 166.92,-42.42"/>
</g>
<!-- Node3 -->
<g id="node3" class="node">
<title>Node3</title>
<g id="a_node3"><a xlink:href="classFlashStorage.html#aa64883a0b4aa2c9124d0be9b4722d729" target="_top" xlink:title="Determines if the first 4 bytes of a sector are a file header.">
<polygon fill="none" stroke="black" points="176,-0.5 176,-19.5 336,-19.5 336,-0.5 176,-0.5"/>
<text text-anchor="middle" x="256" y="-7.5" font-family="Helvetica,sans-Serif" font-size="10.00">FlashStorage::readFileHeader</text>
</a>
</g>
</g>
<!-- Node1&#45;&gt;Node3 -->
<g id="edge2" class="edge">
<title>Node1&#45;&gt;Node3</title>
<path fill="none" stroke="midnightblue" d="M140.04,-21.87C148.47,-21 157.17,-20.1 165.84,-19.21"/>
<polygon fill="midnightblue" stroke="midnightblue" points="166.4,-22.67 175.98,-18.16 165.68,-15.7 166.4,-22.67"/>
</g>
</g>
</svg>
