<?xml version="1.0" encoding="UTF-8" standalone="no"?>
<!DOCTYPE svg PUBLIC "-//W3C//DTD SVG 1.1//EN"
 "http://www.w3.org/Graphics/SVG/1.1/DTD/svg11.dtd">
<!-- Generated by graphviz version 2.43.0 (0)
 -->
<!-- Title: FlashStorage Pages: 1 -->
<svg width="447pt" height="410pt"
 viewBox="0.00 0.00 447.00 410.00" xmlns="http://www.w3.org/2000/svg" xmlns:xlink="http://www.w3.org/1999/xlink">
<g id="graph0" class="graph" transform="scale(1 1) rotate(0) translate(4 406)">
<title>FlashStorage</title>
<!-- Node1 -->
<g id="Node000001" class="node">
<title>Node1</title>
<g id="a_Node000001"><a xlink:title=" ">
<polygon fill="#999999" stroke="transparent" points="302.5,-139 209.5,-139 209.5,0 302.5,0 302.5,-139"/>
<text text-anchor="start" x="224.5" y="-126.5" font-family="Helvetica,sans-Serif" font-size="10.00">FlashStorage</text>
<text text-anchor="start" x="254.5" y="-111.5" font-family="Helvetica,sans-Serif" font-size="10.00"> </text>
<text text-anchor="start" x="214" y="-96.5" font-family="Helvetica,sans-Serif" font-size="10.00">+</text>
<text text-anchor="start" x="227" y="-96.5" font-family="Helvetica,sans-Serif" font-size="10.00">FlashStorage()</text>
<text text-anchor="start" x="214" y="-81.5" font-family="Helvetica,sans-Serif" font-size="10.00">+</text>
<text text-anchor="start" x="227" y="-81.5" font-family="Helvetica,sans-Serif" font-size="10.00">verify()</text>
<text text-anchor="start" x="214" y="-66.5" font-family="Helvetica,sans-Serif" font-size="10.00">+</text>
<text text-anchor="start" x="227" y="-66.5" font-family="Helvetica,sans-Serif" font-size="10.00">store()</text>
<text text-anchor="start" x="214" y="-51.5" font-family="Helvetica,sans-Serif" font-size="10.00">+</text>
<text text-anchor="start" x="227" y="-51.5" font-family="Helvetica,sans-Serif" font-size="10.00">store()</text>
<text text-anchor="start" x="214" y="-36.5" font-family="Helvetica,sans-Serif" font-size="10.00">+</text>
<text text-anchor="start" x="227" y="-36.5" font-family="Helvetica,sans-Serif" font-size="10.00">dump()</text>
<text text-anchor="start" x="214" y="-21.5" font-family="Helvetica,sans-Serif" font-size="10.00">+</text>
<text text-anchor="start" x="227" y="-21.5" font-family="Helvetica,sans-Serif" font-size="10.00">erase()</text>
<text text-anchor="start" x="216.5" y="-6.5" font-family="Helvetica,sans-Serif" font-size="10.00">&#45;</text>
<text text-anchor="start" x="227" y="-6.5" font-family="Helvetica,sans-Serif" font-size="10.00">loadPosition()</text>
<polygon fill="#666666" stroke="#666666" points="210,-121.5 210,-121.5 303,-121.5 303,-121.5 210,-121.5"/>
<polygon fill="#666666" stroke="#666666" points="210,-106.5 210,-106.5 303,-106.5 303,-106.5 210,-106.5"/>
<polygon fill="none" stroke="#666666" points="209.5,0 209.5,-139 302.5,-139 302.5,0 209.5,0"/>
</a>
</g>
</g>
<!-- Node2 -->
<g id="Node000002" class="node">
<title>Node2</title>
<g id="a_Node000002"><a xlink:href="classStorage.html" target="_top" xlink:title="Parent class for all data storage devices (sd card, radio, etc)">
<polygon fill="white" stroke="transparent" points="112,-306 0,-306 0,-197 112,-197 112,-306"/>
<text text-anchor="start" x="37" y="-293.5" font-family="Helvetica,sans-Serif" font-size="10.00">Storage</text>
<text text-anchor="start" x="54" y="-278.5" font-family="Helvetica,sans-Serif" font-size="10.00"> </text>
<text text-anchor="start" x="4" y="-263.5" font-family="Helvetica,sans-Serif" font-size="10.00">+</text>
<text text-anchor="start" x="17" y="-263.5" font-family="Helvetica,sans-Serif" font-size="10.00">Storage()</text>
<text text-anchor="start" x="4" y="-248.5" font-family="Helvetica,sans-Serif" font-size="10.00">+</text>
<text text-anchor="start" x="17" y="-248.5" font-family="Helvetica,sans-Serif" font-size="10.00">getStorageName()</text>
<text text-anchor="start" x="4" y="-233.5" font-family="Helvetica,sans-Serif" font-size="10.00">+</text>
<text text-anchor="start" x="17" y="-233.5" font-family="Helvetica,sans-Serif" font-size="10.00">verify()</text>
<text text-anchor="start" x="4" y="-218.5" font-family="Helvetica,sans-Serif" font-size="10.00">+</text>
<text text-anchor="start" x="17" y="-218.5" font-family="Helvetica,sans-Serif" font-size="10.00">store()</text>
<text text-anchor="start" x="4" y="-203.5" font-family="Helvetica,sans-Serif" font-size="10.00">+</text>
<text text-anchor="start" x="17" y="-203.5" font-family="Helvetica,sans-Serif" font-size="10.00">store()</text>
<polygon fill="#666666" stroke="#666666" points="0,-288.5 0,-288.5 112,-288.5 112,-288.5 0,-288.5"/>
<polygon fill="#666666" stroke="#666666" points="0,-273.5 0,-273.5 112,-273.5 112,-273.5 0,-273.5"/>
<polygon fill="none" stroke="#666666" points="0,-197 0,-306 112,-306 112,-197 0,-197"/>
</a>
</g>
</g>
<!-- Node2&#45;&gt;Node1 -->
<g id="edge1_Node000001_Node000002" class="edge">
<title>Node2&#45;&gt;Node1</title>
<g id="a_edge1_Node000001_Node000002"><a xlink:title=" ">
<path fill="none" stroke="#63b8ff" d="M119.91,-192.98C148.95,-166.85 182.67,-136.49 209.29,-112.54"/>
<polygon fill="none" stroke="#63b8ff" points="117.33,-190.59 112.24,-199.88 122.02,-195.79 117.33,-190.59"/>
</a>
</g>
</g>
<!-- Node3 -->
<g id="Node000003" class="node">
<title>Node3</title>
<g id="a_Node000003"><a xlink:title=" ">
<polygon fill="white" stroke="transparent" points="75.5,-402 36.5,-402 36.5,-353 75.5,-353 75.5,-402"/>
<text text-anchor="start" x="42" y="-389.5" font-family="Helvetica,sans-Serif" font-size="10.00">String</text>
<text text-anchor="start" x="54.5" y="-374.5" font-family="Helvetica,sans-Serif" font-size="10.00"> </text>
<text text-anchor="start" x="54.5" y="-359.5" font-family="Helvetica,sans-Serif" font-size="10.00"> </text>
<polygon fill="#666666" stroke="#666666" points="37,-384.5 37,-384.5 76,-384.5 76,-384.5 37,-384.5"/>
<polygon fill="#666666" stroke="#666666" points="37,-369.5 37,-369.5 76,-369.5 76,-369.5 37,-369.5"/>
<polygon fill="none" stroke="#666666" points="36.5,-353 36.5,-402 75.5,-402 75.5,-353 36.5,-353"/>
</a>
</g>
</g>
<!-- Node3&#45;&gt;Node2 -->
<g id="edge2_Node000002_Node000003" class="edge">
<title>Node3&#45;&gt;Node2</title>
<g id="a_edge2_Node000002_Node000003"><a xlink:title=" ">
<path fill="none" stroke="#63b8ff" d="M56,-352.88C56,-342.92 56,-330.78 56,-318.44"/>
<polygon fill="none" stroke="#63b8ff" points="56,-318.09 52,-312.09 56,-306.09 60,-312.09 56,-318.09"/>
</a>
</g>
<text text-anchor="middle" x="94.5" y="-327" font-family="Helvetica,sans-Serif" font-size="10.00" fill="grey"> &#45;storage_name</text>
</g>
<!-- Node4 -->
<g id="Node000004" class="node">
<title>Node4</title>
<g id="a_Node000004"><a xlink:title=" ">
<polygon fill="white" stroke="transparent" points="240,-276 130,-276 130,-227 240,-227 240,-276"/>
<text text-anchor="start" x="135" y="-263.5" font-family="Helvetica,sans-Serif" font-size="10.00">static const uint32_t</text>
<text text-anchor="start" x="183" y="-248.5" font-family="Helvetica,sans-Serif" font-size="10.00"> </text>
<text text-anchor="start" x="183" y="-233.5" font-family="Helvetica,sans-Serif" font-size="10.00"> </text>
<polygon fill="#666666" stroke="#666666" points="130,-258.5 130,-258.5 240,-258.5 240,-258.5 130,-258.5"/>
<polygon fill="#666666" stroke="#666666" points="130,-243.5 130,-243.5 240,-243.5 240,-243.5 130,-243.5"/>
<polygon fill="none" stroke="#666666" points="130,-227 130,-276 240,-276 240,-227 130,-227"/>
</a>
</g>
</g>
<!-- Node4&#45;&gt;Node1 -->
<g id="edge3_Node000001_Node000004" class="edge">
<title>Node4&#45;&gt;Node1</title>
<g id="a_edge3_Node000001_Node000004"><a xlink:title=" ">
<path fill="none" stroke="#63b8ff" d="M181.04,-226.69C178.8,-207.32 177.86,-179.61 186,-157 189.84,-146.34 195.59,-136.03 202.17,-126.46"/>
<polygon fill="none" stroke="#63b8ff" points="202.19,-126.44 202.52,-119.24 209.3,-116.78 208.96,-123.98 202.19,-126.44"/>
</a>
</g>
<text text-anchor="middle" x="246" y="-171" font-family="Helvetica,sans-Serif" font-size="10.00" fill="grey"> &#45;DATA_START_POSITION</text>
<text text-anchor="middle" x="246" y="-160" font-family="Helvetica,sans-Serif" font-size="10.00" fill="grey">&#45;MAX_SIZE</text>
</g>
<!-- Node5 -->
<g id="Node000005" class="node">
<title>Node5</title>
<g id="a_Node000005"><a xlink:title=" ">
<polygon fill="white" stroke="transparent" points="371,-276 285,-276 285,-227 371,-227 371,-276"/>
<text text-anchor="start" x="290" y="-263.5" font-family="Helvetica,sans-Serif" font-size="10.00">SFE_SPI_FLASH</text>
<text text-anchor="start" x="326" y="-248.5" font-family="Helvetica,sans-Serif" font-size="10.00"> </text>
<text text-anchor="start" x="326" y="-233.5" font-family="Helvetica,sans-Serif" font-size="10.00"> </text>
<polygon fill="#666666" stroke="#666666" points="285,-258.5 285,-258.5 371,-258.5 371,-258.5 285,-258.5"/>
<polygon fill="#666666" stroke="#666666" points="285,-243.5 285,-243.5 371,-243.5 371,-243.5 285,-243.5"/>
<polygon fill="none" stroke="#666666" points="285,-227 285,-276 371,-276 371,-227 285,-227"/>
</a>
</g>
</g>
<!-- Node5&#45;&gt;Node1 -->
<g id="edge4_Node000001_Node000005" class="edge">
<title>Node5&#45;&gt;Node1</title>
<g id="a_edge4_Node000001_Node000005"><a xlink:title=" ">
<path fill="none" stroke="#63b8ff" d="M324.42,-226.87C321.03,-207.61 315.1,-179.94 306,-157 305.08,-154.67 304.1,-152.33 303.07,-149.98"/>
<polygon fill="none" stroke="#63b8ff" points="303.03,-149.89 296.87,-146.13 297.97,-139 304.13,-142.76 303.03,-149.89"/>
</a>
</g>
<text text-anchor="middle" x="327.5" y="-165.5" font-family="Helvetica,sans-Serif" font-size="10.00" fill="grey"> &#45;flash</text>
</g>
<!-- Node6 -->
<g id="Node000006" class="node">
<title>Node6</title>
<g id="a_Node000006"><a xlink:title=" ">
<polygon fill="white" stroke="transparent" points="439,-276 389,-276 389,-227 439,-227 439,-276"/>
<text text-anchor="start" x="394" y="-263.5" font-family="Helvetica,sans-Serif" font-size="10.00">uint32_t</text>
<text text-anchor="start" x="412" y="-248.5" font-family="Helvetica,sans-Serif" font-size="10.00"> </text>
<text text-anchor="start" x="412" y="-233.5" font-family="Helvetica,sans-Serif" font-size="10.00"> </text>
<polygon fill="#666666" stroke="#666666" points="389,-258.5 389,-258.5 439,-258.5 439,-258.5 389,-258.5"/>
<polygon fill="#666666" stroke="#666666" points="389,-243.5 389,-243.5 439,-243.5 439,-243.5 389,-243.5"/>
<polygon fill="none" stroke="#666666" points="389,-227 389,-276 439,-276 439,-227 389,-227"/>
</a>
</g>
</g>
<!-- Node6&#45;&gt;Node1 -->
<g id="edge5_Node000001_Node000006" class="edge">
<title>Node6&#45;&gt;Node1</title>
<g id="a_edge5_Node000001_Node000006"><a xlink:title=" ">
<path fill="none" stroke="#63b8ff" d="M399.88,-226.91C393.99,-217.44 386.92,-206.53 380,-197 360.14,-169.65 334.48,-142.46 311.66,-120.35"/>
<polygon fill="none" stroke="#63b8ff" points="311.41,-120.11 304.31,-118.86 302.74,-111.82 309.84,-113.07 311.41,-120.11"/>
</a>
</g>
<text text-anchor="middle" x="388" y="-165.5" font-family="Helvetica,sans-Serif" font-size="10.00" fill="grey"> &#45;position</text>
</g>
</g>
</svg>
