<?xml version="1.0" encoding="UTF-8" standalone="no"?>
<!DOCTYPE svg PUBLIC "-//W3C//DTD SVG 1.1//EN"
 "http://www.w3.org/Graphics/SVG/1.1/DTD/svg11.dtd">
<!-- Generated by graphviz version 2.43.0 (0)
 -->
<!-- Title: ENS160Sensor Pages: 1 -->
<!--zoomable 766 -->

<svg id="main" version="1.1" xmlns="http://www.w3.org/2000/svg" xmlns:xlink="http://www.w3.org/1999/xlink" xml:space="preserve" onload="init(evt)">
<style type="text/css"><![CDATA[
.node, .edge {opacity: 0.7;}
.node.selected, .edge.selected {opacity: 1;}
.edge:hover path { stroke: red; }
.edge:hover polygon { stroke: red; fill: red; }
]]></style>

<defs>
  <circle id="rim" cx="0" cy="0" r="7"/>
  <circle id="rim2" cx="0" cy="0" r="3.5"/>
  <g id="zoomPlus">
    <use xlink:href="#rim" fill="#404040"><set attributeName="fill" to="#808080" begin="zoomplus.mouseover" end="zoomplus.mouseout"/></use>
    <path d="M-4,0h8M0,-4v8" fill="none" stroke="white" stroke-width="1.5" pointer-events="none"/>
  </g>
  <g id="zoomMin">
    <use xlink:href="#rim" fill="#404040"><set attributeName="fill" to="#808080" begin="zoomminus.mouseover" end="zoomminus.mouseout"/></use>
    <path d="M-4,0h8" fill="none" stroke="white" stroke-width="1.5" pointer-events="none"/>
  </g>
  <g id="arrowUp" transform="translate(30 24)">
    <use xlink:href="#rim"/>
    <path pointer-events="none" fill="none" stroke="white" stroke-width="1.5" d="M0,-3.0v7 M-2.5,-0.5L0,-3.0L2.5,-0.5"/>
  </g>
  <g id="arrowRight" transform="rotate(90) translate(36 -43)">
    <use xlink:href="#rim"/>
    <path pointer-events="none" fill="none" stroke="white" stroke-width="1.5" d="M0,-3.0v7 M-2.5,-0.5L0,-3.0L2.5,-0.5"/>
  </g>
  <g id="arrowDown" transform="rotate(180) translate(-30 -48)">
    <use xlink:href="#rim"/>
    <path pointer-events="none" fill="none" stroke="white" stroke-width="1.5" d="M0,-3.0v7 M-2.5,-0.5L0,-3.0L2.5,-0.5"/>
  </g>
  <g id="arrowLeft" transform="rotate(270) translate(-36 17)">
    <use xlink:href="#rim"/>
    <path pointer-events="none" fill="none" stroke="white" stroke-width="1.5" d="M0,-3.0v7 M-2.5,-0.5L0,-3.0L2.5,-0.5"/>
  </g>
  <g id="resetDef">
    <use xlink:href="#rim2" fill="#404040"><set attributeName="fill" to="#808080" begin="reset.mouseover" end="reset.mouseout"/></use>
  </g>
</defs>
<script type="application/ecmascript">
var viewWidth = 557;
var viewHeight = 766;
var sectionId = 'dynsection-1';
</script>
<script type="application/ecmascript" xlink:href="svg.min.js"/>
<svg id="graph" class="graph">
<g id="viewport">
<title>ENS160Sensor</title>
<!-- Node1 -->
<g id="Node000001" class="node">
<title>Node1</title>
<g id="a_Node000001"><a xlink:title="Implementation of a Sensor for the ENS160.">
<polygon fill="#999999" stroke="transparent" points="474.5,-124 368.5,-124 368.5,0 474.5,0 474.5,-124"/>
<text text-anchor="start" x="386" y="-112" font-family="Helvetica,sans-Serif" font-size="10.00">ENS160Sensor</text>
<text text-anchor="start" x="419.5" y="-97" font-family="Helvetica,sans-Serif" font-size="10.00"> </text>
<text text-anchor="start" x="372.5" y="-82" font-family="Helvetica,sans-Serif" font-size="10.00">+</text>
<text text-anchor="start" x="385.5" y="-82" font-family="Helvetica,sans-Serif" font-size="10.00">ENS160Sensor()</text>
<text text-anchor="start" x="372.5" y="-67" font-family="Helvetica,sans-Serif" font-size="10.00">+</text>
<text text-anchor="start" x="385.5" y="-67" font-family="Helvetica,sans-Serif" font-size="10.00">ENS160Sensor()</text>
<text text-anchor="start" x="372.5" y="-52" font-family="Helvetica,sans-Serif" font-size="10.00">+</text>
<text text-anchor="start" x="385.5" y="-52" font-family="Helvetica,sans-Serif" font-size="10.00">verify()</text>
<text text-anchor="start" x="372.5" y="-37" font-family="Helvetica,sans-Serif" font-size="10.00">+</text>
<text text-anchor="start" x="385.5" y="-37" font-family="Helvetica,sans-Serif" font-size="10.00">readData()</text>
<text text-anchor="start" x="372.5" y="-22" font-family="Helvetica,sans-Serif" font-size="10.00">+</text>
<text text-anchor="start" x="385.5" y="-22" font-family="Helvetica,sans-Serif" font-size="10.00">readDataPacket()</text>
<text text-anchor="start" x="372.5" y="-7" font-family="Helvetica,sans-Serif" font-size="10.00">+</text>
<text text-anchor="start" x="385.5" y="-7" font-family="Helvetica,sans-Serif" font-size="10.00">decodeToCSV()</text>
<polygon fill="#666666" stroke="#666666" points="368.5,-107 368.5,-107 474.5,-107 474.5,-107 368.5,-107"/>
<polygon fill="#666666" stroke="#666666" points="368.5,-92 368.5,-92 474.5,-92 474.5,-92 368.5,-92"/>
<polygon fill="none" stroke="#666666" points="368.5,0 368.5,-124 474.5,-124 474.5,0 368.5,0"/>
</a>
</g>
</g>
<!-- Node2 -->
<g id="Node000002" class="node">
<title>Node2</title>
<g id="a_Node000002"><a xlink:href="classSensor.html" target="_top" xlink:title="Parent class for sensor objects.">
<polygon fill="white" stroke="transparent" points="354,-445 221,-445 221,-171 354,-171 354,-445"/>
<text text-anchor="start" x="271" y="-433" font-family="Helvetica,sans-Serif" font-size="10.00">Sensor</text>
<text text-anchor="start" x="286" y="-418" font-family="Helvetica,sans-Serif" font-size="10.00"> </text>
<text text-anchor="start" x="225.5" y="-403" font-family="Helvetica,sans-Serif" font-size="10.00">+</text>
<text text-anchor="start" x="238.5" y="-403" font-family="Helvetica,sans-Serif" font-size="10.00">Sensor()</text>
<text text-anchor="start" x="225.5" y="-388" font-family="Helvetica,sans-Serif" font-size="10.00">+</text>
<text text-anchor="start" x="238.5" y="-388" font-family="Helvetica,sans-Serif" font-size="10.00">Sensor()</text>
<text text-anchor="start" x="225.5" y="-373" font-family="Helvetica,sans-Serif" font-size="10.00">+</text>
<text text-anchor="start" x="238.5" y="-373" font-family="Helvetica,sans-Serif" font-size="10.00">Sensor()</text>
<text text-anchor="start" x="225.5" y="-358" font-family="Helvetica,sans-Serif" font-size="10.00">+</text>
<text text-anchor="start" x="238.5" y="-358" font-family="Helvetica,sans-Serif" font-size="10.00">Sensor()</text>
<text text-anchor="start" x="225.5" y="-343" font-family="Helvetica,sans-Serif" font-size="10.00">+</text>
<text text-anchor="start" x="238.5" y="-343" font-family="Helvetica,sans-Serif" font-size="10.00">getPeriod()</text>
<text text-anchor="start" x="225.5" y="-328" font-family="Helvetica,sans-Serif" font-size="10.00">+</text>
<text text-anchor="start" x="238.5" y="-328" font-family="Helvetica,sans-Serif" font-size="10.00">setPeriod()</text>
<text text-anchor="start" x="225.5" y="-313" font-family="Helvetica,sans-Serif" font-size="10.00">+</text>
<text text-anchor="start" x="238.5" y="-313" font-family="Helvetica,sans-Serif" font-size="10.00">getLastExecution()</text>
<text text-anchor="start" x="225.5" y="-298" font-family="Helvetica,sans-Serif" font-size="10.00">+</text>
<text text-anchor="start" x="238.5" y="-298" font-family="Helvetica,sans-Serif" font-size="10.00">setLastExecution()</text>
<text text-anchor="start" x="225.5" y="-283" font-family="Helvetica,sans-Serif" font-size="10.00">+</text>
<text text-anchor="start" x="238.5" y="-283" font-family="Helvetica,sans-Serif" font-size="10.00">getSensorCSVHeader()</text>
<text text-anchor="start" x="225.5" y="-268" font-family="Helvetica,sans-Serif" font-size="10.00">+</text>
<text text-anchor="start" x="238.5" y="-268" font-family="Helvetica,sans-Serif" font-size="10.00">verify()</text>
<text text-anchor="start" x="225.5" y="-253" font-family="Helvetica,sans-Serif" font-size="10.00">+</text>
<text text-anchor="start" x="238.5" y="-253" font-family="Helvetica,sans-Serif" font-size="10.00">readData()</text>
<text text-anchor="start" x="225.5" y="-238" font-family="Helvetica,sans-Serif" font-size="10.00">+</text>
<text text-anchor="start" x="238.5" y="-238" font-family="Helvetica,sans-Serif" font-size="10.00">readDataPacket()</text>
<text text-anchor="start" x="225.5" y="-223" font-family="Helvetica,sans-Serif" font-size="10.00">+</text>
<text text-anchor="start" x="238.5" y="-223" font-family="Helvetica,sans-Serif" font-size="10.00">decodeToCSV()</text>
<text text-anchor="start" x="225.5" y="-208" font-family="Helvetica,sans-Serif" font-size="10.00">+</text>
<text text-anchor="start" x="238.5" y="-208" font-family="Helvetica,sans-Serif" font-size="10.00">getDataPacket()</text>
<text text-anchor="start" x="225.5" y="-193" font-family="Helvetica,sans-Serif" font-size="10.00">+</text>
<text text-anchor="start" x="238.5" y="-193" font-family="Helvetica,sans-Serif" font-size="10.00">readEmpty()</text>
<text text-anchor="start" x="225.5" y="-178" font-family="Helvetica,sans-Serif" font-size="10.00">+</text>
<text text-anchor="start" x="238.5" y="-178" font-family="Helvetica,sans-Serif" font-size="10.00">getDataCSV()</text>
<polygon fill="#666666" stroke="#666666" points="221.5,-428 221.5,-428 354.5,-428 354.5,-428 221.5,-428"/>
<polygon fill="#666666" stroke="#666666" points="221.5,-413 221.5,-413 354.5,-413 354.5,-413 221.5,-413"/>
<polygon fill="none" stroke="#666666" points="221,-171 221,-445 354,-445 354,-171 221,-171"/>
</a>
</g>
</g>
<!-- Node2&#45;&gt;Node1 -->
<g id="edge1_Node000001_Node000002" class="edge">
<title>Node2&#45;&gt;Node1</title>
<g id="a_edge1_Node000001_Node000002"><a xlink:title=" ">
<path fill="none" stroke="#63b8ff" d="M358.93,-176.94C369.06,-158.49 379.05,-140.29 387.98,-124.04"/>
<polygon fill="none" stroke="#63b8ff" points="355.85,-175.26 354.11,-185.71 361.99,-178.63 355.85,-175.26"/>
</a>
</g>
</g>
<!-- Node3 -->
<g id="Node000003" class="node">
<title>Node3</title>
<g id="a_Node000003"><a xlink:href="classDevice.html" target="_top" xlink:title="Implements the recovery system for Sensor and Storage objects.">
<polygon fill="white" stroke="transparent" points="276,-651 153,-651 153,-482 276,-482 276,-651"/>
<text text-anchor="start" x="198" y="-638.5" font-family="Helvetica,sans-Serif" font-size="10.00">Device</text>
<text text-anchor="start" x="213" y="-623.5" font-family="Helvetica,sans-Serif" font-size="10.00"> </text>
<text text-anchor="start" x="157.5" y="-608.5" font-family="Helvetica,sans-Serif" font-size="10.00">+</text>
<text text-anchor="start" x="170.5" y="-608.5" font-family="Helvetica,sans-Serif" font-size="10.00">Device()</text>
<text text-anchor="start" x="157.5" y="-593.5" font-family="Helvetica,sans-Serif" font-size="10.00">+</text>
<text text-anchor="start" x="170.5" y="-593.5" font-family="Helvetica,sans-Serif" font-size="10.00">Device()</text>
<text text-anchor="start" x="157.5" y="-578.5" font-family="Helvetica,sans-Serif" font-size="10.00">+</text>
<text text-anchor="start" x="170.5" y="-578.5" font-family="Helvetica,sans-Serif" font-size="10.00">getDeviceName()</text>
<text text-anchor="start" x="157.5" y="-563.5" font-family="Helvetica,sans-Serif" font-size="10.00">+</text>
<text text-anchor="start" x="170.5" y="-563.5" font-family="Helvetica,sans-Serif" font-size="10.00">verify()</text>
<text text-anchor="start" x="157.5" y="-548.5" font-family="Helvetica,sans-Serif" font-size="10.00">+</text>
<text text-anchor="start" x="170.5" y="-548.5" font-family="Helvetica,sans-Serif" font-size="10.00">getVerified()</text>
<text text-anchor="start" x="157.5" y="-533.5" font-family="Helvetica,sans-Serif" font-size="10.00">+</text>
<text text-anchor="start" x="170.5" y="-533.5" font-family="Helvetica,sans-Serif" font-size="10.00">recoveryConfig()</text>
<text text-anchor="start" x="157.5" y="-518.5" font-family="Helvetica,sans-Serif" font-size="10.00">+</text>
<text text-anchor="start" x="170.5" y="-518.5" font-family="Helvetica,sans-Serif" font-size="10.00">setWaitFactor()</text>
<text text-anchor="start" x="157.5" y="-503.5" font-family="Helvetica,sans-Serif" font-size="10.00">+</text>
<text text-anchor="start" x="170.5" y="-503.5" font-family="Helvetica,sans-Serif" font-size="10.00">setMaxAttempts()</text>
<text text-anchor="start" x="157.5" y="-488.5" font-family="Helvetica,sans-Serif" font-size="10.00">+</text>
<text text-anchor="start" x="170.5" y="-488.5" font-family="Helvetica,sans-Serif" font-size="10.00">attemptConnection()</text>
<polygon fill="#666666" stroke="#666666" points="153.5,-633.5 153.5,-633.5 276.5,-633.5 276.5,-633.5 153.5,-633.5"/>
<polygon fill="#666666" stroke="#666666" points="153.5,-618.5 153.5,-618.5 276.5,-618.5 276.5,-618.5 153.5,-618.5"/>
<polygon fill="none" stroke="#666666" points="153,-482 153,-651 276,-651 276,-482 153,-482"/>
</a>
</g>
</g>
<!-- Node3&#45;&gt;Node2 -->
<g id="edge2_Node000002_Node000003" class="edge">
<title>Node3&#45;&gt;Node2</title>
<g id="a_edge2_Node000002_Node000003"><a xlink:title=" ">
<path fill="none" stroke="#63b8ff" d="M241.1,-472.03C243.61,-463.22 246.18,-454.18 248.77,-445.08"/>
<polygon fill="none" stroke="#63b8ff" points="237.67,-471.29 238.3,-481.87 244.41,-473.21 237.67,-471.29"/>
</a>
</g>
</g>
<!-- Node4 -->
<g id="Node000004" class="node">
<title>Node4</title>
<g id="a_Node000004"><a xlink:title=" ">
<polygon fill="white" stroke="transparent" points="79,-758 0,-758 0,-709 79,-709 79,-758"/>
<text text-anchor="start" x="5.5" y="-745.5" font-family="Helvetica,sans-Serif" font-size="10.00">unsigned long</text>
<text text-anchor="start" x="38" y="-730.5" font-family="Helvetica,sans-Serif" font-size="10.00"> </text>
<text text-anchor="start" x="38" y="-715.5" font-family="Helvetica,sans-Serif" font-size="10.00"> </text>
<polygon fill="#666666" stroke="#666666" points="0.5,-740.5 0.5,-740.5 79.5,-740.5 79.5,-740.5 0.5,-740.5"/>
<polygon fill="#666666" stroke="#666666" points="0.5,-725.5 0.5,-725.5 79.5,-725.5 79.5,-725.5 0.5,-725.5"/>
<polygon fill="none" stroke="#666666" points="0,-709 0,-758 79,-758 79,-709 0,-709"/>
</a>
</g>
</g>
<!-- Node4&#45;&gt;Node2 -->
<g id="edge7_Node000002_Node000004" class="edge">
<title>Node4&#45;&gt;Node2</title>
<g id="a_edge7_Node000002_Node000004"><a xlink:title=" ">
<path fill="none" stroke="#63b8ff" d="M34.83,-708.98C26.85,-662.4 15.09,-556.51 55.5,-482 89.39,-419.5 156.7,-373.24 210.13,-344.36"/>
<polygon fill="none" stroke="#63b8ff" points="210.34,-344.24 213.78,-337.9 220.95,-338.64 217.52,-344.98 210.34,-344.24"/>
</a>
</g>
<text text-anchor="middle" x="99.5" y="-569.5" font-family="Helvetica,sans-Serif" font-size="10.00" fill="grey"> &#45;last_execution</text>
<text text-anchor="middle" x="99.5" y="-558.5" font-family="Helvetica,sans-Serif" font-size="10.00" fill="grey">&#45;minimum_period</text>
</g>
<!-- Node4&#45;&gt;Node3 -->
<g id="edge3_Node000003_Node000004" class="edge">
<title>Node4&#45;&gt;Node3</title>
<g id="a_edge3_Node000003_Node000004"><a xlink:title=" ">
<path fill="none" stroke="#63b8ff" d="M51.95,-708.79C59.55,-695.92 70.16,-680.36 82.5,-669 94.51,-657.95 101.07,-660.27 114.5,-651 124.13,-644.35 133.96,-636.98 143.5,-629.45"/>
<polygon fill="none" stroke="#63b8ff" points="143.58,-629.39 145.76,-622.52 152.94,-621.88 150.76,-628.76 143.58,-629.39"/>
</a>
</g>
<text text-anchor="middle" x="117.5" y="-683" font-family="Helvetica,sans-Serif" font-size="10.00" fill="grey"> &#45;last_attempt</text>
<text text-anchor="middle" x="117.5" y="-672" font-family="Helvetica,sans-Serif" font-size="10.00" fill="grey">&#45;wait_factor</text>
</g>
<!-- Node5 -->
<g id="Node000005" class="node">
<title>Node5</title>
<g id="a_Node000005"><a xlink:title=" ">
<polygon fill="white" stroke="transparent" points="409,-758 386,-758 386,-709 409,-709 409,-758"/>
<text text-anchor="start" x="391.5" y="-745.5" font-family="Helvetica,sans-Serif" font-size="10.00">int</text>
<text text-anchor="start" x="396" y="-730.5" font-family="Helvetica,sans-Serif" font-size="10.00"> </text>
<text text-anchor="start" x="396" y="-715.5" font-family="Helvetica,sans-Serif" font-size="10.00"> </text>
<polygon fill="#666666" stroke="#666666" points="386.5,-740.5 386.5,-740.5 409.5,-740.5 409.5,-740.5 386.5,-740.5"/>
<polygon fill="#666666" stroke="#666666" points="386.5,-725.5 386.5,-725.5 409.5,-725.5 409.5,-725.5 386.5,-725.5"/>
<polygon fill="none" stroke="#666666" points="386,-709 386,-758 409,-758 409,-709 386,-709"/>
</a>
</g>
</g>
<!-- Node5&#45;&gt;Node2 -->
<g id="edge9_Node000002_Node000005" class="edge">
<title>Node5&#45;&gt;Node2</title>
<g id="a_edge9_Node000002_Node000005"><a xlink:title=" ">
<path fill="none" stroke="#63b8ff" d="M409.06,-722.94C417.35,-715.29 427.84,-703.75 432.5,-691 435.86,-681.82 434.17,-678.63 432.5,-669 419.28,-592.91 388.83,-512.79 359.23,-447.5"/>
<polygon fill="none" stroke="#63b8ff" points="359.11,-447.23 352.97,-443.44 354.11,-436.32 360.24,-440.11 359.11,-447.23"/>
</a>
</g>
<text text-anchor="middle" x="461" y="-564" font-family="Helvetica,sans-Serif" font-size="10.00" fill="grey"> #num_fields</text>
</g>
<!-- Node5&#45;&gt;Node3 -->
<g id="edge4_Node000003_Node000005" class="edge">
<title>Node5&#45;&gt;Node3</title>
<g id="a_edge4_Node000003_Node000005"><a xlink:title=" ">
<path fill="none" stroke="#63b8ff" d="M385.71,-724.58C365.4,-710.71 322.87,-680.66 290.5,-651 288.71,-649.36 286.92,-647.69 285.12,-645.98"/>
<polygon fill="none" stroke="#63b8ff" points="284.77,-645.63 277.68,-644.3 276.18,-637.25 283.27,-638.58 284.77,-645.63"/>
</a>
</g>
<text text-anchor="middle" x="384" y="-683" font-family="Helvetica,sans-Serif" font-size="10.00" fill="grey"> &#45;attempt_number</text>
<text text-anchor="middle" x="384" y="-672" font-family="Helvetica,sans-Serif" font-size="10.00" fill="grey">&#45;max_attempts</text>
</g>
<!-- Node6 -->
<g id="Node000006" class="node">
<title>Node6</title>
<g id="a_Node000006"><a xlink:title=" ">
<polygon fill="white" stroke="transparent" points="164.5,-758 132.5,-758 132.5,-709 164.5,-709 164.5,-758"/>
<text text-anchor="start" x="137.5" y="-745.5" font-family="Helvetica,sans-Serif" font-size="10.00">bool</text>
<text text-anchor="start" x="146.5" y="-730.5" font-family="Helvetica,sans-Serif" font-size="10.00"> </text>
<text text-anchor="start" x="146.5" y="-715.5" font-family="Helvetica,sans-Serif" font-size="10.00"> </text>
<polygon fill="#666666" stroke="#666666" points="132.5,-740.5 132.5,-740.5 164.5,-740.5 164.5,-740.5 132.5,-740.5"/>
<polygon fill="#666666" stroke="#666666" points="132.5,-725.5 132.5,-725.5 164.5,-725.5 164.5,-725.5 132.5,-725.5"/>
<polygon fill="none" stroke="#666666" points="132.5,-709 132.5,-758 164.5,-758 164.5,-709 132.5,-709"/>
</a>
</g>
</g>
<!-- Node6&#45;&gt;Node3 -->
<g id="edge5_Node000003_Node000006" class="edge">
<title>Node6&#45;&gt;Node3</title>
<g id="a_edge5_Node000003_Node000006"><a xlink:title=" ">
<path fill="none" stroke="#63b8ff" d="M152.22,-708.87C154.5,-696.74 157.88,-681.85 162.5,-669 163.29,-666.8 164.12,-664.59 164.98,-662.36"/>
<polygon fill="none" stroke="#63b8ff" points="164.99,-662.33 163.56,-655.27 169.54,-651.23 170.97,-658.3 164.99,-662.33"/>
</a>
</g>
<text text-anchor="middle" x="187" y="-677.5" font-family="Helvetica,sans-Serif" font-size="10.00" fill="grey"> #verified</text>
</g>
<!-- Node7 -->
<g id="Node000007" class="node">
<title>Node7</title>
<g id="a_Node000007"><a xlink:title=" ">
<polygon fill="white" stroke="transparent" points="286,-758 247,-758 247,-709 286,-709 286,-758"/>
<text text-anchor="start" x="252.5" y="-745.5" font-family="Helvetica,sans-Serif" font-size="10.00">String</text>
<text text-anchor="start" x="265" y="-730.5" font-family="Helvetica,sans-Serif" font-size="10.00"> </text>
<text text-anchor="start" x="265" y="-715.5" font-family="Helvetica,sans-Serif" font-size="10.00"> </text>
<polygon fill="#666666" stroke="#666666" points="247.5,-740.5 247.5,-740.5 286.5,-740.5 286.5,-740.5 247.5,-740.5"/>
<polygon fill="#666666" stroke="#666666" points="247.5,-725.5 247.5,-725.5 286.5,-725.5 286.5,-725.5 247.5,-725.5"/>
<polygon fill="none" stroke="#666666" points="247,-709 247,-758 286,-758 286,-709 247,-709"/>
</a>
</g>
</g>
<!-- Node7&#45;&gt;Node2 -->
<g id="edge8_Node000002_Node000007" class="edge">
<title>Node7&#45;&gt;Node2</title>
<g id="a_edge8_Node000002_Node000007"><a xlink:title=" ">
<path fill="none" stroke="#63b8ff" d="M286.08,-712.56C291.12,-706.18 295.86,-698.75 298.5,-691 301.65,-681.74 298.65,-678.78 298.5,-669 297.44,-599.54 295.23,-522.58 293.06,-457.7"/>
<polygon fill="none" stroke="#63b8ff" points="293.05,-457.3 288.85,-451.44 292.65,-445.31 296.85,-451.17 293.05,-457.3"/>
</a>
</g>
<text text-anchor="middle" x="330" y="-569.5" font-family="Helvetica,sans-Serif" font-size="10.00" fill="grey"> &#45;csv_header</text>
<text text-anchor="middle" x="330" y="-558.5" font-family="Helvetica,sans-Serif" font-size="10.00" fill="grey">&#45;empty_csv</text>
</g>
<!-- Node7&#45;&gt;Node3 -->
<g id="edge6_Node000003_Node000007" class="edge">
<title>Node7&#45;&gt;Node3</title>
<g id="a_edge6_Node000003_Node000007"><a xlink:title=" ">
<path fill="none" stroke="#63b8ff" d="M246.97,-719.93C237.52,-712.7 227.04,-702.72 221.5,-691 217.36,-682.23 214.46,-672.72 212.5,-662.99"/>
<polygon fill="none" stroke="#63b8ff" points="212.48,-662.9 207.57,-657.62 210.54,-651.06 215.46,-656.33 212.48,-662.9"/>
</a>
</g>
<text text-anchor="middle" x="260" y="-677.5" font-family="Helvetica,sans-Serif" font-size="10.00" fill="grey"> #device_name</text>
</g>
<!-- Node8 -->
<g id="Node000008" class="node">
<title>Node8</title>
<g id="a_Node000008"><a xlink:title=" ">
<polygon fill="white" stroke="transparent" points="470.5,-332.5 372.5,-332.5 372.5,-283.5 470.5,-283.5 470.5,-332.5"/>
<text text-anchor="start" x="377.5" y="-320" font-family="Helvetica,sans-Serif" font-size="10.00">SparkFun_ENS160</text>
<text text-anchor="start" x="419.5" y="-305" font-family="Helvetica,sans-Serif" font-size="10.00"> </text>
<text text-anchor="start" x="419.5" y="-290" font-family="Helvetica,sans-Serif" font-size="10.00"> </text>
<polygon fill="#666666" stroke="#666666" points="372.5,-315 372.5,-315 470.5,-315 470.5,-315 372.5,-315"/>
<polygon fill="#666666" stroke="#666666" points="372.5,-300 372.5,-300 470.5,-300 470.5,-300 372.5,-300"/>
<polygon fill="none" stroke="#666666" points="372.5,-283.5 372.5,-332.5 470.5,-332.5 470.5,-283.5 372.5,-283.5"/>
</a>
</g>
</g>
<!-- Node8&#45;&gt;Node1 -->
<g id="edge10_Node000001_Node000008" class="edge">
<title>Node8&#45;&gt;Node1</title>
<g id="a_edge10_Node000001_Node000008"><a xlink:title=" ">
<path fill="none" stroke="#63b8ff" d="M421.5,-283.16C421.5,-249.43 421.5,-186.3 421.5,-136.27"/>
<polygon fill="none" stroke="#63b8ff" points="421.5,-136.18 417.5,-130.18 421.5,-124.18 425.5,-130.18 421.5,-136.18"/>
</a>
</g>
<text text-anchor="middle" x="434" y="-145" font-family="Helvetica,sans-Serif" font-size="10.00" fill="grey"> &#45;ens</text>
</g>
<!-- Node9 -->
<g id="Node000009" class="node">
<title>Node9</title>
<g id="a_Node000009"><a xlink:title=" ">
<polygon fill="white" stroke="transparent" points="548.5,-332.5 488.5,-332.5 488.5,-283.5 548.5,-283.5 548.5,-332.5"/>
<text text-anchor="start" x="493.5" y="-320" font-family="Helvetica,sans-Serif" font-size="10.00">TwoWire *</text>
<text text-anchor="start" x="516.5" y="-305" font-family="Helvetica,sans-Serif" font-size="10.00"> </text>
<text text-anchor="start" x="516.5" y="-290" font-family="Helvetica,sans-Serif" font-size="10.00"> </text>
<polygon fill="#666666" stroke="#666666" points="488.5,-315 488.5,-315 548.5,-315 548.5,-315 488.5,-315"/>
<polygon fill="#666666" stroke="#666666" points="488.5,-300 488.5,-300 548.5,-300 548.5,-300 488.5,-300"/>
<polygon fill="none" stroke="#666666" points="488.5,-283.5 488.5,-332.5 548.5,-332.5 548.5,-283.5 488.5,-283.5"/>
</a>
</g>
</g>
<!-- Node9&#45;&gt;Node1 -->
<g id="edge11_Node000001_Node000009" class="edge">
<title>Node9&#45;&gt;Node1</title>
<g id="a_edge11_Node000001_Node000009"><a xlink:title=" ">
<path fill="none" stroke="#63b8ff" d="M513.35,-283.39C506.98,-255.85 495.04,-209.23 479.5,-171 474.65,-159.07 468.86,-146.76 462.84,-134.89"/>
<polygon fill="none" stroke="#63b8ff" points="462.79,-134.81 456.47,-131.32 457.26,-124.16 463.57,-127.64 462.79,-134.81"/>
</a>
</g>
<text text-anchor="middle" x="492.5" y="-145" font-family="Helvetica,sans-Serif" font-size="10.00" fill="grey"> &#45;i2c_bus</text>
</g>
</g>
</svg>

<g id="navigator" transform="translate(0 0)" fill="#404254">
  <rect fill="#f2f5e9" fill-opacity="0.5" stroke="#606060" stroke-width=".5" x="0" y="0" width="60" height="60"/>
  <use id="zoomplus" xlink:href="#zoomPlus" x="17" y="9" onmousedown="handleZoom(evt,'in')"/>
  <use id="zoomminus" xlink:href="#zoomMin" x="42" y="9" onmousedown="handleZoom(evt,'out')"/>
  <use id="reset" xlink:href="#resetDef" x="30" y="36" onmousedown="handleReset()"/>
   <use id="arrowup" xlink:href="#arrowUp" x="0" y="0" onmousedown="handlePan(0,-1)"/>
  <use id="arrowright" xlink:href="#arrowRight" x="0" y="0" onmousedown="handlePan(1,0)"/>
  <use id="arrowdown" xlink:href="#arrowDown" x="0" y="0" onmousedown="handlePan(0,1)"/>
  <use id="arrowleft" xlink:href="#arrowLeft" x="0" y="0" onmousedown="handlePan(-1,0)"/>
</g>
<svg viewBox="0 0 15 15" width="100%" height="30px" preserveAspectRatio="xMaxYMin meet">
 <g id="arrow_out" transform="scale(0.3 0.3)">
  <a xlink:href="classENS160Sensor__coll__graph_org.svg" target="_base">
   <rect id="button" ry="5" rx="5" y="6" x="6" height="38" width="38"
        fill="#f2f5e9" fill-opacity="0.5" stroke="#606060" stroke-width="1.0"/>
   <path id="arrow"
     d="M 11.500037,31.436501 C 11.940474,20.09759 22.043105,11.32322 32.158766,21.979434 L 37.068811,17.246167 C 37.068811,17.246167 37.088388,32 37.088388,32 L 22.160133,31.978069 C 22.160133,31.978069 26.997745,27.140456 26.997745,27.140456 C 18.528582,18.264221 13.291696,25.230495 11.500037,31.436501 z"
     style="fill:#404040;"/>
  </a>
 </g>
</svg>

<style type='text/css'>
<![CDATA[
[data-mouse-over-selected='false'] { opacity: 0.7; }
[data-mouse-over-selected='true']  { opacity: 1.0; }
]]>
</style>
<script type="application/ecmascript"><![CDATA[
document.addEventListener('DOMContentLoaded', (event) => {
  highlightEdges();
  highlightAdjacentNodes();
});
]]></script>
</svg>
