<?xml version="1.0" encoding="UTF-8" standalone="no"?>
<!DOCTYPE svg PUBLIC "-//W3C//DTD SVG 1.1//EN"
 "http://www.w3.org/Graphics/SVG/1.1/DTD/svg11.dtd">
<!-- Generated by graphviz version 2.43.0 (0)
 -->
<!-- Title: LSM9DS1Sensor Pages: 1 -->
<svg width="472pt" height="743pt"
 viewBox="0.00 0.00 471.50 743.00" xmlns="http://www.w3.org/2000/svg" xmlns:xlink="http://www.w3.org/1999/xlink">
<g id="graph0" class="graph" transform="scale(1 1) rotate(0) translate(4 739)">
<title>LSM9DS1Sensor</title>
<!-- Node1 -->
<g id="Node000001" class="node">
<title>Node1</title>
<g id="a_Node000001"><a xlink:title="Implementation of the Sensor class for the LSM9DS1 (9&#45;axis IMU)">
<polygon fill="#999999" stroke="transparent" points="394.5,-154 286.5,-154 286.5,0 394.5,0 394.5,-154"/>
<text text-anchor="start" x="301" y="-142" font-family="Helvetica,sans-Serif" font-size="10.00">LSM9DS1Sensor</text>
<text text-anchor="start" x="338.5" y="-127" font-family="Helvetica,sans-Serif" font-size="10.00"> </text>
<text text-anchor="start" x="290.5" y="-112" font-family="Helvetica,sans-Serif" font-size="10.00">+</text>
<text text-anchor="start" x="303.5" y="-112" font-family="Helvetica,sans-Serif" font-size="10.00">LSM9DS1Sensor()</text>
<text text-anchor="start" x="290.5" y="-97" font-family="Helvetica,sans-Serif" font-size="10.00">+</text>
<text text-anchor="start" x="303.5" y="-97" font-family="Helvetica,sans-Serif" font-size="10.00">LSM9DS1Sensor()</text>
<text text-anchor="start" x="290.5" y="-82" font-family="Helvetica,sans-Serif" font-size="10.00">+</text>
<text text-anchor="start" x="303.5" y="-82" font-family="Helvetica,sans-Serif" font-size="10.00">verify()</text>
<text text-anchor="start" x="290.5" y="-67" font-family="Helvetica,sans-Serif" font-size="10.00">+</text>
<text text-anchor="start" x="303.5" y="-67" font-family="Helvetica,sans-Serif" font-size="10.00">readData()</text>
<text text-anchor="start" x="290.5" y="-52" font-family="Helvetica,sans-Serif" font-size="10.00">+</text>
<text text-anchor="start" x="303.5" y="-52" font-family="Helvetica,sans-Serif" font-size="10.00">calibrate()</text>
<text text-anchor="start" x="290.5" y="-37" font-family="Helvetica,sans-Serif" font-size="10.00">+</text>
<text text-anchor="start" x="303.5" y="-37" font-family="Helvetica,sans-Serif" font-size="10.00">readDataPacket()</text>
<text text-anchor="start" x="290.5" y="-22" font-family="Helvetica,sans-Serif" font-size="10.00">+</text>
<text text-anchor="start" x="303.5" y="-22" font-family="Helvetica,sans-Serif" font-size="10.00">decodeToCSV()</text>
<text text-anchor="start" x="293" y="-7" font-family="Helvetica,sans-Serif" font-size="10.00">&#45;</text>
<text text-anchor="start" x="303.5" y="-7" font-family="Helvetica,sans-Serif" font-size="10.00">setupSensor()</text>
<polygon fill="#666666" stroke="#666666" points="286.5,-137 286.5,-137 394.5,-137 394.5,-137 286.5,-137"/>
<polygon fill="#666666" stroke="#666666" points="286.5,-122 286.5,-122 394.5,-122 394.5,-122 286.5,-122"/>
<polygon fill="none" stroke="#666666" points="286.5,0 286.5,-154 394.5,-154 394.5,0 286.5,0"/>
</a>
</g>
</g>
<!-- Node2 -->
<g id="Node000002" class="node">
<title>Node2</title>
<g id="a_Node000002"><a xlink:href="classSensor.html" target="_top" xlink:title="Parent class for sensor objects.">
<polygon fill="white" stroke="transparent" points="272,-422 139,-422 139,-223 272,-223 272,-422"/>
<text text-anchor="start" x="189" y="-409.5" font-family="Helvetica,sans-Serif" font-size="10.00">Sensor</text>
<text text-anchor="start" x="204" y="-394.5" font-family="Helvetica,sans-Serif" font-size="10.00"> </text>
<text text-anchor="start" x="143.5" y="-379.5" font-family="Helvetica,sans-Serif" font-size="10.00">+</text>
<text text-anchor="start" x="156.5" y="-379.5" font-family="Helvetica,sans-Serif" font-size="10.00">Sensor()</text>
<text text-anchor="start" x="143.5" y="-364.5" font-family="Helvetica,sans-Serif" font-size="10.00">+</text>
<text text-anchor="start" x="156.5" y="-364.5" font-family="Helvetica,sans-Serif" font-size="10.00">Sensor()</text>
<text text-anchor="start" x="143.5" y="-349.5" font-family="Helvetica,sans-Serif" font-size="10.00">+</text>
<text text-anchor="start" x="156.5" y="-349.5" font-family="Helvetica,sans-Serif" font-size="10.00">Sensor()</text>
<text text-anchor="start" x="143.5" y="-334.5" font-family="Helvetica,sans-Serif" font-size="10.00">+</text>
<text text-anchor="start" x="156.5" y="-334.5" font-family="Helvetica,sans-Serif" font-size="10.00">Sensor()</text>
<text text-anchor="start" x="143.5" y="-319.5" font-family="Helvetica,sans-Serif" font-size="10.00">+</text>
<text text-anchor="start" x="156.5" y="-319.5" font-family="Helvetica,sans-Serif" font-size="10.00">getPeriod()</text>
<text text-anchor="start" x="143.5" y="-304.5" font-family="Helvetica,sans-Serif" font-size="10.00">+</text>
<text text-anchor="start" x="156.5" y="-304.5" font-family="Helvetica,sans-Serif" font-size="10.00">setPeriod()</text>
<text text-anchor="start" x="143.5" y="-289.5" font-family="Helvetica,sans-Serif" font-size="10.00">+</text>
<text text-anchor="start" x="156.5" y="-289.5" font-family="Helvetica,sans-Serif" font-size="10.00">getLastExecution()</text>
<text text-anchor="start" x="143.5" y="-274.5" font-family="Helvetica,sans-Serif" font-size="10.00">+</text>
<text text-anchor="start" x="156.5" y="-274.5" font-family="Helvetica,sans-Serif" font-size="10.00">setLastExecution()</text>
<text text-anchor="start" x="143.5" y="-259.5" font-family="Helvetica,sans-Serif" font-size="10.00">+</text>
<text text-anchor="start" x="156.5" y="-259.5" font-family="Helvetica,sans-Serif" font-size="10.00">getSensorCSVHeader()</text>
<text text-anchor="start" x="143.5" y="-244.5" font-family="Helvetica,sans-Serif" font-size="10.00">+</text>
<text text-anchor="start" x="156.5" y="-244.5" font-family="Helvetica,sans-Serif" font-size="10.00">verify()</text>
<text text-anchor="start" x="156.5" y="-229.5" font-family="Helvetica,sans-Serif" font-size="10.00">and 6 more...</text>
<polygon fill="#666666" stroke="#666666" points="139.5,-404.5 139.5,-404.5 272.5,-404.5 272.5,-404.5 139.5,-404.5"/>
<polygon fill="#666666" stroke="#666666" points="139.5,-389.5 139.5,-389.5 272.5,-389.5 272.5,-389.5 139.5,-389.5"/>
<polygon fill="none" stroke="#666666" points="139,-223 139,-422 272,-422 272,-223 139,-223"/>
</a>
</g>
</g>
<!-- Node2&#45;&gt;Node1 -->
<g id="edge1_Node000001_Node000002" class="edge">
<title>Node2&#45;&gt;Node1</title>
<g id="a_edge1_Node000001_Node000002"><a xlink:title=" ">
<path fill="none" stroke="#63b8ff" d="M265.16,-213.89C276.35,-193.7 287.84,-172.99 298.36,-154.01"/>
<polygon fill="none" stroke="#63b8ff" points="262,-212.37 260.22,-222.81 268.12,-215.76 262,-212.37"/>
</a>
</g>
</g>
<!-- Node3 -->
<g id="Node000003" class="node">
<title>Node3</title>
<g id="a_Node000003"><a xlink:href="classDevice.html" target="_top" xlink:title="Implements the recovery system for Sensor and Storage objects.">
<polygon fill="white" stroke="transparent" points="267,-628 144,-628 144,-459 267,-459 267,-628"/>
<text text-anchor="start" x="189" y="-615.5" font-family="Helvetica,sans-Serif" font-size="10.00">Device</text>
<text text-anchor="start" x="204" y="-600.5" font-family="Helvetica,sans-Serif" font-size="10.00"> </text>
<text text-anchor="start" x="148.5" y="-585.5" font-family="Helvetica,sans-Serif" font-size="10.00">+</text>
<text text-anchor="start" x="161.5" y="-585.5" font-family="Helvetica,sans-Serif" font-size="10.00">Device()</text>
<text text-anchor="start" x="148.5" y="-570.5" font-family="Helvetica,sans-Serif" font-size="10.00">+</text>
<text text-anchor="start" x="161.5" y="-570.5" font-family="Helvetica,sans-Serif" font-size="10.00">Device()</text>
<text text-anchor="start" x="148.5" y="-555.5" font-family="Helvetica,sans-Serif" font-size="10.00">+</text>
<text text-anchor="start" x="161.5" y="-555.5" font-family="Helvetica,sans-Serif" font-size="10.00">getDeviceName()</text>
<text text-anchor="start" x="148.5" y="-540.5" font-family="Helvetica,sans-Serif" font-size="10.00">+</text>
<text text-anchor="start" x="161.5" y="-540.5" font-family="Helvetica,sans-Serif" font-size="10.00">verify()</text>
<text text-anchor="start" x="148.5" y="-525.5" font-family="Helvetica,sans-Serif" font-size="10.00">+</text>
<text text-anchor="start" x="161.5" y="-525.5" font-family="Helvetica,sans-Serif" font-size="10.00">getVerified()</text>
<text text-anchor="start" x="148.5" y="-510.5" font-family="Helvetica,sans-Serif" font-size="10.00">+</text>
<text text-anchor="start" x="161.5" y="-510.5" font-family="Helvetica,sans-Serif" font-size="10.00">recoveryConfig()</text>
<text text-anchor="start" x="148.5" y="-495.5" font-family="Helvetica,sans-Serif" font-size="10.00">+</text>
<text text-anchor="start" x="161.5" y="-495.5" font-family="Helvetica,sans-Serif" font-size="10.00">setWaitFactor()</text>
<text text-anchor="start" x="148.5" y="-480.5" font-family="Helvetica,sans-Serif" font-size="10.00">+</text>
<text text-anchor="start" x="161.5" y="-480.5" font-family="Helvetica,sans-Serif" font-size="10.00">setMaxAttempts()</text>
<text text-anchor="start" x="148.5" y="-465.5" font-family="Helvetica,sans-Serif" font-size="10.00">+</text>
<text text-anchor="start" x="161.5" y="-465.5" font-family="Helvetica,sans-Serif" font-size="10.00">attemptConnection()</text>
<polygon fill="#666666" stroke="#666666" points="144.5,-610.5 144.5,-610.5 267.5,-610.5 267.5,-610.5 144.5,-610.5"/>
<polygon fill="#666666" stroke="#666666" points="144.5,-595.5 144.5,-595.5 267.5,-595.5 267.5,-595.5 144.5,-595.5"/>
<polygon fill="none" stroke="#666666" points="144,-459 144,-628 267,-628 267,-459 144,-459"/>
</a>
</g>
</g>
<!-- Node3&#45;&gt;Node2 -->
<g id="edge2_Node000002_Node000003" class="edge">
<title>Node3&#45;&gt;Node2</title>
<g id="a_edge2_Node000002_Node000003"><a xlink:title=" ">
<path fill="none" stroke="#63b8ff" d="M205.5,-448.59C205.5,-439.86 205.5,-430.99 205.5,-422.22"/>
<polygon fill="none" stroke="#63b8ff" points="202,-448.77 205.5,-458.77 209,-448.77 202,-448.77"/>
</a>
</g>
</g>
<!-- Node4 -->
<g id="Node000004" class="node">
<title>Node4</title>
<g id="a_Node000004"><a xlink:title=" ">
<polygon fill="white" stroke="transparent" points="79,-735 0,-735 0,-686 79,-686 79,-735"/>
<text text-anchor="start" x="5.5" y="-722.5" font-family="Helvetica,sans-Serif" font-size="10.00">unsigned long</text>
<text text-anchor="start" x="38" y="-707.5" font-family="Helvetica,sans-Serif" font-size="10.00"> </text>
<text text-anchor="start" x="38" y="-692.5" font-family="Helvetica,sans-Serif" font-size="10.00"> </text>
<polygon fill="#666666" stroke="#666666" points="0.5,-717.5 0.5,-717.5 79.5,-717.5 79.5,-717.5 0.5,-717.5"/>
<polygon fill="#666666" stroke="#666666" points="0.5,-702.5 0.5,-702.5 79.5,-702.5 79.5,-702.5 0.5,-702.5"/>
<polygon fill="none" stroke="#666666" points="0,-686 0,-735 79,-735 79,-686 0,-686"/>
</a>
</g>
</g>
<!-- Node4&#45;&gt;Node2 -->
<g id="edge7_Node000002_Node000004" class="edge">
<title>Node4&#45;&gt;Node2</title>
<g id="a_edge7_Node000002_Node000004"><a xlink:title=" ">
<path fill="none" stroke="#63b8ff" d="M34.12,-685.93C24.83,-639.73 10.06,-535.13 46.5,-459 64.23,-421.95 97.39,-391.17 128.86,-368.35"/>
<polygon fill="none" stroke="#63b8ff" points="129.18,-368.13 131.78,-361.41 138.99,-361.23 136.39,-367.95 129.18,-368.13"/>
</a>
</g>
<text text-anchor="middle" x="90.5" y="-546.5" font-family="Helvetica,sans-Serif" font-size="10.00" fill="grey"> &#45;last_execution</text>
<text text-anchor="middle" x="90.5" y="-535.5" font-family="Helvetica,sans-Serif" font-size="10.00" fill="grey">&#45;minimum_period</text>
</g>
<!-- Node4&#45;&gt;Node3 -->
<g id="edge3_Node000003_Node000004" class="edge">
<title>Node4&#45;&gt;Node3</title>
<g id="a_edge3_Node000003_Node000004"><a xlink:title=" ">
<path fill="none" stroke="#63b8ff" d="M52.41,-685.87C60.23,-673.02 71.08,-657.46 83.5,-646 95.21,-635.19 101.67,-637.44 114.5,-628 121.11,-623.13 127.79,-617.86 134.35,-612.4"/>
<polygon fill="none" stroke="#63b8ff" points="134.73,-612.07 136.71,-605.14 143.87,-604.3 141.89,-611.23 134.73,-612.07"/>
</a>
</g>
<text text-anchor="middle" x="118.5" y="-660" font-family="Helvetica,sans-Serif" font-size="10.00" fill="grey"> &#45;last_attempt</text>
<text text-anchor="middle" x="118.5" y="-649" font-family="Helvetica,sans-Serif" font-size="10.00" fill="grey">&#45;wait_factor</text>
</g>
<!-- Node5 -->
<g id="Node000005" class="node">
<title>Node5</title>
<g id="a_Node000005"><a xlink:title=" ">
<polygon fill="white" stroke="transparent" points="232,-735 209,-735 209,-686 232,-686 232,-735"/>
<text text-anchor="start" x="214.5" y="-722.5" font-family="Helvetica,sans-Serif" font-size="10.00">int</text>
<text text-anchor="start" x="219" y="-707.5" font-family="Helvetica,sans-Serif" font-size="10.00"> </text>
<text text-anchor="start" x="219" y="-692.5" font-family="Helvetica,sans-Serif" font-size="10.00"> </text>
<polygon fill="#666666" stroke="#666666" points="209.5,-717.5 209.5,-717.5 232.5,-717.5 232.5,-717.5 209.5,-717.5"/>
<polygon fill="#666666" stroke="#666666" points="209.5,-702.5 209.5,-702.5 232.5,-702.5 232.5,-702.5 209.5,-702.5"/>
<polygon fill="none" stroke="#666666" points="209,-686 209,-735 232,-735 232,-686 209,-686"/>
</a>
</g>
</g>
<!-- Node5&#45;&gt;Node3 -->
<g id="edge4_Node000003_Node000005" class="edge">
<title>Node5&#45;&gt;Node3</title>
<g id="a_edge4_Node000003_Node000005"><a xlink:title=" ">
<path fill="none" stroke="#63b8ff" d="M218.35,-685.86C217.22,-673.45 215.76,-657.34 214.22,-640.46"/>
<polygon fill="none" stroke="#63b8ff" points="214.18,-640.03 209.66,-634.41 213.1,-628.07 217.62,-633.69 214.18,-640.03"/>
</a>
</g>
<text text-anchor="middle" x="261" y="-660" font-family="Helvetica,sans-Serif" font-size="10.00" fill="grey"> &#45;attempt_number</text>
<text text-anchor="middle" x="261" y="-649" font-family="Helvetica,sans-Serif" font-size="10.00" fill="grey">&#45;max_attempts</text>
</g>
<!-- Node6 -->
<g id="Node000006" class="node">
<title>Node6</title>
<g id="a_Node000006"><a xlink:title=" ">
<polygon fill="white" stroke="transparent" points="396,-735 357,-735 357,-686 396,-686 396,-735"/>
<text text-anchor="start" x="362.5" y="-722.5" font-family="Helvetica,sans-Serif" font-size="10.00">String</text>
<text text-anchor="start" x="375" y="-707.5" font-family="Helvetica,sans-Serif" font-size="10.00"> </text>
<text text-anchor="start" x="375" y="-692.5" font-family="Helvetica,sans-Serif" font-size="10.00"> </text>
<polygon fill="#666666" stroke="#666666" points="357.5,-717.5 357.5,-717.5 396.5,-717.5 396.5,-717.5 357.5,-717.5"/>
<polygon fill="#666666" stroke="#666666" points="357.5,-702.5 357.5,-702.5 396.5,-702.5 396.5,-702.5 357.5,-702.5"/>
<polygon fill="none" stroke="#666666" points="357,-686 357,-735 396,-735 396,-686 357,-686"/>
</a>
</g>
</g>
<!-- Node6&#45;&gt;Node2 -->
<g id="edge8_Node000002_Node000006" class="edge">
<title>Node6&#45;&gt;Node2</title>
<g id="a_edge8_Node000002_Node000006"><a xlink:title=" ">
<path fill="none" stroke="#63b8ff" d="M396.13,-687.66C400.37,-681.69 404.26,-674.94 406.5,-668 409.51,-658.7 409.19,-655.4 406.5,-646 393.37,-600.09 330.82,-502.99 278.94,-427.27"/>
<polygon fill="none" stroke="#63b8ff" points="278.82,-427.09 272.13,-424.42 272.03,-417.21 278.72,-419.88 278.82,-427.09"/>
</a>
</g>
<text text-anchor="middle" x="431" y="-546.5" font-family="Helvetica,sans-Serif" font-size="10.00" fill="grey"> &#45;csv_header</text>
<text text-anchor="middle" x="431" y="-535.5" font-family="Helvetica,sans-Serif" font-size="10.00" fill="grey">&#45;empty_csv</text>
</g>
<!-- Node6&#45;&gt;Node3 -->
<g id="edge5_Node000003_Node000006" class="edge">
<title>Node6&#45;&gt;Node3</title>
<g id="a_edge5_Node000003_Node000006"><a xlink:title=" ">
<path fill="none" stroke="#63b8ff" d="M356.88,-690.57C337.09,-671.47 305.34,-640.83 276.01,-612.54"/>
<polygon fill="none" stroke="#63b8ff" points="275.64,-612.18 268.54,-610.89 267,-603.85 274.1,-605.13 275.64,-612.18"/>
</a>
</g>
<text text-anchor="middle" x="368" y="-654.5" font-family="Helvetica,sans-Serif" font-size="10.00" fill="grey"> &#45;device_name</text>
</g>
<!-- Node7 -->
<g id="Node000007" class="node">
<title>Node7</title>
<g id="a_Node000007"><a xlink:title=" ">
<polygon fill="white" stroke="transparent" points="164.5,-735 132.5,-735 132.5,-686 164.5,-686 164.5,-735"/>
<text text-anchor="start" x="137.5" y="-722.5" font-family="Helvetica,sans-Serif" font-size="10.00">bool</text>
<text text-anchor="start" x="146.5" y="-707.5" font-family="Helvetica,sans-Serif" font-size="10.00"> </text>
<text text-anchor="start" x="146.5" y="-692.5" font-family="Helvetica,sans-Serif" font-size="10.00"> </text>
<polygon fill="#666666" stroke="#666666" points="132.5,-717.5 132.5,-717.5 164.5,-717.5 164.5,-717.5 132.5,-717.5"/>
<polygon fill="#666666" stroke="#666666" points="132.5,-702.5 132.5,-702.5 164.5,-702.5 164.5,-702.5 132.5,-702.5"/>
<polygon fill="none" stroke="#666666" points="132.5,-686 132.5,-735 164.5,-735 164.5,-686 132.5,-686"/>
</a>
</g>
</g>
<!-- Node7&#45;&gt;Node3 -->
<g id="edge6_Node000003_Node000007" class="edge">
<title>Node7&#45;&gt;Node3</title>
<g id="a_edge6_Node000003_Node000007"><a xlink:title=" ">
<path fill="none" stroke="#63b8ff" d="M152.67,-685.7C155.05,-673.67 158.38,-658.91 162.5,-646 163.17,-643.9 163.86,-641.79 164.58,-639.67"/>
<polygon fill="none" stroke="#63b8ff" points="164.62,-639.55 162.85,-632.56 168.62,-628.24 170.39,-635.23 164.62,-639.55"/>
</a>
</g>
<text text-anchor="middle" x="187" y="-654.5" font-family="Helvetica,sans-Serif" font-size="10.00" fill="grey"> #verified</text>
</g>
<!-- Node8 -->
<g id="Node000008" class="node">
<title>Node8</title>
<g id="a_Node000008"><a xlink:title=" ">
<polygon fill="white" stroke="transparent" points="391,-347 290,-347 290,-298 391,-298 391,-347"/>
<text text-anchor="start" x="295.5" y="-334.5" font-family="Helvetica,sans-Serif" font-size="10.00">Adafruit_LSM9DS1</text>
<text text-anchor="start" x="339" y="-319.5" font-family="Helvetica,sans-Serif" font-size="10.00"> </text>
<text text-anchor="start" x="339" y="-304.5" font-family="Helvetica,sans-Serif" font-size="10.00"> </text>
<polygon fill="#666666" stroke="#666666" points="290.5,-329.5 290.5,-329.5 391.5,-329.5 391.5,-329.5 290.5,-329.5"/>
<polygon fill="#666666" stroke="#666666" points="290.5,-314.5 290.5,-314.5 391.5,-314.5 391.5,-314.5 290.5,-314.5"/>
<polygon fill="none" stroke="#666666" points="290,-298 290,-347 391,-347 391,-298 290,-298"/>
</a>
</g>
</g>
<!-- Node8&#45;&gt;Node1 -->
<g id="edge9_Node000001_Node000008" class="edge">
<title>Node8&#45;&gt;Node1</title>
<g id="a_edge9_Node000001_Node000008"><a xlink:title=" ">
<path fill="none" stroke="#63b8ff" d="M340.5,-297.71C340.5,-267.38 340.5,-213.24 340.5,-166.3"/>
<polygon fill="none" stroke="#63b8ff" points="340.5,-166.22 336.5,-160.22 340.5,-154.22 344.5,-160.22 340.5,-166.22"/>
</a>
</g>
<text text-anchor="middle" x="353" y="-186" font-family="Helvetica,sans-Serif" font-size="10.00" fill="grey"> &#45;lsm</text>
</g>
<!-- Node9 -->
<g id="Node000009" class="node">
<title>Node9</title>
<g id="a_Node000009"><a xlink:title=" ">
<polygon fill="white" stroke="transparent" points="441.5,-347 409.5,-347 409.5,-298 441.5,-298 441.5,-347"/>
<text text-anchor="start" x="414.5" y="-334.5" font-family="Helvetica,sans-Serif" font-size="10.00">float</text>
<text text-anchor="start" x="423.5" y="-319.5" font-family="Helvetica,sans-Serif" font-size="10.00"> </text>
<text text-anchor="start" x="423.5" y="-304.5" font-family="Helvetica,sans-Serif" font-size="10.00"> </text>
<polygon fill="#666666" stroke="#666666" points="409.5,-329.5 409.5,-329.5 441.5,-329.5 441.5,-329.5 409.5,-329.5"/>
<polygon fill="#666666" stroke="#666666" points="409.5,-314.5 409.5,-314.5 441.5,-314.5 441.5,-314.5 409.5,-314.5"/>
<polygon fill="none" stroke="#666666" points="409.5,-298 409.5,-347 441.5,-347 441.5,-298 409.5,-298"/>
</a>
</g>
</g>
<!-- Node9&#45;&gt;Node1 -->
<g id="edge10_Node000001_Node000009" class="edge">
<title>Node9&#45;&gt;Node1</title>
<g id="a_edge10_Node000001_Node000009"><a xlink:title=" ">
<path fill="none" stroke="#63b8ff" d="M420.48,-297.74C415.99,-277.62 408.84,-248.12 400.5,-223 394.25,-204.18 386.71,-184.33 379.1,-165.57"/>
<polygon fill="none" stroke="#63b8ff" points="379.06,-165.46 373.08,-161.42 374.5,-154.36 380.48,-158.39 379.06,-165.46"/>
</a>
</g>
<text text-anchor="middle" x="428" y="-197" font-family="Helvetica,sans-Serif" font-size="10.00" fill="grey"> &#45;accel_offsets</text>
<text text-anchor="middle" x="428" y="-186" font-family="Helvetica,sans-Serif" font-size="10.00" fill="grey">&#45;gyro_offsets</text>
<text text-anchor="middle" x="428" y="-175" font-family="Helvetica,sans-Serif" font-size="10.00" fill="grey">&#45;mag_offsets</text>
</g>
</g>
</svg>
