<?xml version="1.0" encoding="UTF-8" standalone="no"?>
<!DOCTYPE svg PUBLIC "-//W3C//DTD SVG 1.1//EN"
 "http://www.w3.org/Graphics/SVG/1.1/DTD/svg11.dtd">
<!-- Generated by graphviz version 2.43.0 (0)
 -->
<!-- Title: Sensor Pages: 1 -->
<svg width="1461pt" height="487pt"
 viewBox="0.00 0.00 1461.00 487.00" xmlns="http://www.w3.org/2000/svg" xmlns:xlink="http://www.w3.org/1999/xlink">
<g id="graph0" class="graph" transform="scale(1 1) rotate(0) translate(4 483)">
<title>Sensor</title>
<!-- Node1 -->
<g id="Node000001" class="node">
<title>Node1</title>
<g id="a_Node000001"><a xlink:title="Parent class for sensor objects.">
<polygon fill="#999999" stroke="transparent" points="797.5,-479 664.5,-479 664.5,-220 797.5,-220 797.5,-479"/>
<text text-anchor="start" x="714.5" y="-466.5" font-family="Helvetica,sans-Serif" font-size="10.00">Sensor</text>
<text text-anchor="start" x="671.5" y="-451.5" font-family="Helvetica,sans-Serif" font-size="10.00">&#45;</text>
<text text-anchor="start" x="682" y="-451.5" font-family="Helvetica,sans-Serif" font-size="10.00">minimum_period</text>
<text text-anchor="start" x="671.5" y="-436.5" font-family="Helvetica,sans-Serif" font-size="10.00">&#45;</text>
<text text-anchor="start" x="682" y="-436.5" font-family="Helvetica,sans-Serif" font-size="10.00">last_execution</text>
<text text-anchor="start" x="671.5" y="-421.5" font-family="Helvetica,sans-Serif" font-size="10.00">&#45;</text>
<text text-anchor="start" x="682" y="-421.5" font-family="Helvetica,sans-Serif" font-size="10.00">sensor_name</text>
<text text-anchor="start" x="671.5" y="-406.5" font-family="Helvetica,sans-Serif" font-size="10.00">&#45;</text>
<text text-anchor="start" x="682" y="-406.5" font-family="Helvetica,sans-Serif" font-size="10.00">csv_header</text>
<text text-anchor="start" x="671.5" y="-391.5" font-family="Helvetica,sans-Serif" font-size="10.00">&#45;</text>
<text text-anchor="start" x="682" y="-391.5" font-family="Helvetica,sans-Serif" font-size="10.00">empty_csv</text>
<text text-anchor="start" x="669" y="-376.5" font-family="Helvetica,sans-Serif" font-size="10.00">+</text>
<text text-anchor="start" x="682" y="-376.5" font-family="Helvetica,sans-Serif" font-size="10.00">Sensor()</text>
<text text-anchor="start" x="669" y="-361.5" font-family="Helvetica,sans-Serif" font-size="10.00">+</text>
<text text-anchor="start" x="682" y="-361.5" font-family="Helvetica,sans-Serif" font-size="10.00">Sensor()</text>
<text text-anchor="start" x="669" y="-346.5" font-family="Helvetica,sans-Serif" font-size="10.00">+</text>
<text text-anchor="start" x="682" y="-346.5" font-family="Helvetica,sans-Serif" font-size="10.00">Sensor()</text>
<text text-anchor="start" x="669" y="-331.5" font-family="Helvetica,sans-Serif" font-size="10.00">+</text>
<text text-anchor="start" x="682" y="-331.5" font-family="Helvetica,sans-Serif" font-size="10.00">Sensor()</text>
<text text-anchor="start" x="669" y="-316.5" font-family="Helvetica,sans-Serif" font-size="10.00">+</text>
<text text-anchor="start" x="682" y="-316.5" font-family="Helvetica,sans-Serif" font-size="10.00">getPeriod()</text>
<text text-anchor="start" x="669" y="-301.5" font-family="Helvetica,sans-Serif" font-size="10.00">+</text>
<text text-anchor="start" x="682" y="-301.5" font-family="Helvetica,sans-Serif" font-size="10.00">setPeriod()</text>
<text text-anchor="start" x="669" y="-286.5" font-family="Helvetica,sans-Serif" font-size="10.00">+</text>
<text text-anchor="start" x="682" y="-286.5" font-family="Helvetica,sans-Serif" font-size="10.00">getLastExecution()</text>
<text text-anchor="start" x="669" y="-271.5" font-family="Helvetica,sans-Serif" font-size="10.00">+</text>
<text text-anchor="start" x="682" y="-271.5" font-family="Helvetica,sans-Serif" font-size="10.00">setLastExecution()</text>
<text text-anchor="start" x="669" y="-256.5" font-family="Helvetica,sans-Serif" font-size="10.00">+</text>
<text text-anchor="start" x="682" y="-256.5" font-family="Helvetica,sans-Serif" font-size="10.00">getSensorName()</text>
<text text-anchor="start" x="669" y="-241.5" font-family="Helvetica,sans-Serif" font-size="10.00">+</text>
<text text-anchor="start" x="682" y="-241.5" font-family="Helvetica,sans-Serif" font-size="10.00">getSensorCSVHeader()</text>
<text text-anchor="start" x="682" y="-226.5" font-family="Helvetica,sans-Serif" font-size="10.00">and 7 more...</text>
<polygon fill="#666666" stroke="#666666" points="665,-461.5 665,-461.5 798,-461.5 798,-461.5 665,-461.5"/>
<polygon fill="#666666" stroke="#666666" points="665,-386.5 665,-386.5 680,-386.5 680,-386.5 665,-386.5"/>
<polygon fill="#666666" stroke="#666666" points="680,-386.5 680,-386.5 798,-386.5 798,-386.5 680,-386.5"/>
<polygon fill="none" stroke="#666666" points="664.5,-220 664.5,-479 797.5,-479 797.5,-220 664.5,-220"/>
</a>
</g>
</g>
<!-- Node2 -->
<g id="Node000002" class="node">
<title>Node2</title>
<g id="a_Node000002"><a xlink:href="classAS7331Sensor.html" target="_top" xlink:title="Implementation of a Sensor for UVA/B/C sensor.">
<polygon fill="white" stroke="transparent" points="106,-161.5 0,-161.5 0,-22.5 106,-22.5 106,-161.5"/>
<text text-anchor="start" x="18" y="-149" font-family="Helvetica,sans-Serif" font-size="10.00">AS7331Sensor</text>
<text text-anchor="start" x="6.5" y="-134" font-family="Helvetica,sans-Serif" font-size="10.00">&#45;</text>
<text text-anchor="start" x="17" y="-134" font-family="Helvetica,sans-Serif" font-size="10.00">myUVSensor</text>
<text text-anchor="start" x="6.5" y="-119" font-family="Helvetica,sans-Serif" font-size="10.00">&#45;</text>
<text text-anchor="start" x="17" y="-119" font-family="Helvetica,sans-Serif" font-size="10.00">i2c_addr</text>
<text text-anchor="start" x="4" y="-104" font-family="Helvetica,sans-Serif" font-size="10.00">+</text>
<text text-anchor="start" x="17" y="-104" font-family="Helvetica,sans-Serif" font-size="10.00">AS7331Sensor()</text>
<text text-anchor="start" x="4" y="-89" font-family="Helvetica,sans-Serif" font-size="10.00">+</text>
<text text-anchor="start" x="17" y="-89" font-family="Helvetica,sans-Serif" font-size="10.00">AS7331Sensor()</text>
<text text-anchor="start" x="4" y="-74" font-family="Helvetica,sans-Serif" font-size="10.00">+</text>
<text text-anchor="start" x="17" y="-74" font-family="Helvetica,sans-Serif" font-size="10.00">verify()</text>
<text text-anchor="start" x="4" y="-59" font-family="Helvetica,sans-Serif" font-size="10.00">+</text>
<text text-anchor="start" x="17" y="-59" font-family="Helvetica,sans-Serif" font-size="10.00">readDataPacket()</text>
<text text-anchor="start" x="4" y="-44" font-family="Helvetica,sans-Serif" font-size="10.00">+</text>
<text text-anchor="start" x="17" y="-44" font-family="Helvetica,sans-Serif" font-size="10.00">decodeToCSV()</text>
<text text-anchor="start" x="4" y="-29" font-family="Helvetica,sans-Serif" font-size="10.00">+</text>
<text text-anchor="start" x="17" y="-29" font-family="Helvetica,sans-Serif" font-size="10.00">readData()</text>
<polygon fill="#666666" stroke="#666666" points="0,-144 0,-144 106,-144 106,-144 0,-144"/>
<polygon fill="#666666" stroke="#666666" points="0,-114 0,-114 15,-114 15,-114 0,-114"/>
<polygon fill="#666666" stroke="#666666" points="15,-114 15,-114 106,-114 106,-114 15,-114"/>
<polygon fill="none" stroke="#666666" points="0,-22.5 0,-161.5 106,-161.5 106,-22.5 0,-22.5"/>
</a>
</g>
</g>
<!-- Node1&#45;&gt;Node2 -->
<g id="edge1_Node000001_Node000002" class="edge">
<title>Node1&#45;&gt;Node2</title>
<g id="a_edge1_Node000001_Node000002"><a xlink:title=" ">
<path fill="none" stroke="#63b8ff" d="M654.27,-344.94C530.13,-335.72 282.3,-302.64 115,-184 106.27,-177.81 98.39,-169.97 91.41,-161.5"/>
<polygon fill="none" stroke="#63b8ff" points="654.22,-348.44 664.44,-345.66 654.71,-341.46 654.22,-348.44"/>
</a>
</g>
</g>
<!-- Node3 -->
<g id="Node000003" class="node">
<title>Node3</title>
<g id="a_Node000003"><a xlink:href="classBME280Sensor.html" target="_top" xlink:title="Implementation of a Sensor for the BME280.">
<polygon fill="white" stroke="transparent" points="230,-146.5 124,-146.5 124,-37.5 230,-37.5 230,-146.5"/>
<text text-anchor="start" x="140.5" y="-134" font-family="Helvetica,sans-Serif" font-size="10.00">BME280Sensor</text>
<text text-anchor="start" x="130.5" y="-119" font-family="Helvetica,sans-Serif" font-size="10.00">&#45;</text>
<text text-anchor="start" x="141" y="-119" font-family="Helvetica,sans-Serif" font-size="10.00">bme</text>
<text text-anchor="start" x="128" y="-104" font-family="Helvetica,sans-Serif" font-size="10.00">+</text>
<text text-anchor="start" x="141" y="-104" font-family="Helvetica,sans-Serif" font-size="10.00">BME280Sensor()</text>
<text text-anchor="start" x="128" y="-89" font-family="Helvetica,sans-Serif" font-size="10.00">+</text>
<text text-anchor="start" x="141" y="-89" font-family="Helvetica,sans-Serif" font-size="10.00">BME280Sensor()</text>
<text text-anchor="start" x="128" y="-74" font-family="Helvetica,sans-Serif" font-size="10.00">+</text>
<text text-anchor="start" x="141" y="-74" font-family="Helvetica,sans-Serif" font-size="10.00">verify()</text>
<text text-anchor="start" x="128" y="-59" font-family="Helvetica,sans-Serif" font-size="10.00">+</text>
<text text-anchor="start" x="141" y="-59" font-family="Helvetica,sans-Serif" font-size="10.00">readData()</text>
<text text-anchor="start" x="128" y="-44" font-family="Helvetica,sans-Serif" font-size="10.00">+</text>
<text text-anchor="start" x="141" y="-44" font-family="Helvetica,sans-Serif" font-size="10.00">readDataPacket()</text>
<polygon fill="#666666" stroke="#666666" points="124,-129 124,-129 230,-129 230,-129 124,-129"/>
<polygon fill="#666666" stroke="#666666" points="124,-114 124,-114 139,-114 139,-114 124,-114"/>
<polygon fill="#666666" stroke="#666666" points="139,-114 139,-114 230,-114 230,-114 139,-114"/>
<polygon fill="none" stroke="#666666" points="124,-37.5 124,-146.5 230,-146.5 230,-37.5 124,-37.5"/>
</a>
</g>
</g>
<!-- Node1&#45;&gt;Node3 -->
<g id="edge2_Node000001_Node000003" class="edge">
<title>Node1&#45;&gt;Node3</title>
<g id="a_edge2_Node000001_Node000003"><a xlink:title=" ">
<path fill="none" stroke="#63b8ff" d="M654.16,-338.4C550.84,-321.59 365.51,-279.71 239,-184 225.89,-174.08 214.59,-160.56 205.37,-146.97"/>
<polygon fill="none" stroke="#63b8ff" points="653.78,-341.89 664.2,-340 654.88,-334.97 653.78,-341.89"/>
</a>
</g>
</g>
<!-- Node4 -->
<g id="Node000004" class="node">
<title>Node4</title>
<g id="a_Node000004"><a xlink:href="classBME680Sensor.html" target="_top" xlink:title="A class to interface with the Adafruit BME680 sensor for environmental data collection.">
<polygon fill="white" stroke="transparent" points="354,-154 248,-154 248,-30 354,-30 354,-154"/>
<text text-anchor="start" x="264.5" y="-142" font-family="Helvetica,sans-Serif" font-size="10.00">BME680Sensor</text>
<text text-anchor="start" x="254.5" y="-127" font-family="Helvetica,sans-Serif" font-size="10.00">&#45;</text>
<text text-anchor="start" x="265" y="-127" font-family="Helvetica,sans-Serif" font-size="10.00">bme</text>
<text text-anchor="start" x="252" y="-112" font-family="Helvetica,sans-Serif" font-size="10.00">+</text>
<text text-anchor="start" x="265" y="-112" font-family="Helvetica,sans-Serif" font-size="10.00">BME680Sensor()</text>
<text text-anchor="start" x="252" y="-97" font-family="Helvetica,sans-Serif" font-size="10.00">+</text>
<text text-anchor="start" x="265" y="-97" font-family="Helvetica,sans-Serif" font-size="10.00">BME680Sensor()</text>
<text text-anchor="start" x="252" y="-82" font-family="Helvetica,sans-Serif" font-size="10.00">+</text>
<text text-anchor="start" x="265" y="-82" font-family="Helvetica,sans-Serif" font-size="10.00">verify()</text>
<text text-anchor="start" x="252" y="-67" font-family="Helvetica,sans-Serif" font-size="10.00">+</text>
<text text-anchor="start" x="265" y="-67" font-family="Helvetica,sans-Serif" font-size="10.00">readData()</text>
<text text-anchor="start" x="252" y="-52" font-family="Helvetica,sans-Serif" font-size="10.00">+</text>
<text text-anchor="start" x="265" y="-52" font-family="Helvetica,sans-Serif" font-size="10.00">readDataPacket()</text>
<text text-anchor="start" x="252" y="-37" font-family="Helvetica,sans-Serif" font-size="10.00">+</text>
<text text-anchor="start" x="265" y="-37" font-family="Helvetica,sans-Serif" font-size="10.00">decodeToCSV()</text>
<polygon fill="#666666" stroke="#666666" points="248,-137 248,-137 354,-137 354,-137 248,-137"/>
<polygon fill="#666666" stroke="#666666" points="248,-122 248,-122 263,-122 263,-122 248,-122"/>
<polygon fill="#666666" stroke="#666666" points="263,-122 263,-122 354,-122 354,-122 263,-122"/>
<polygon fill="none" stroke="#666666" points="248,-30 248,-154 354,-154 354,-30 248,-30"/>
</a>
</g>
</g>
<!-- Node1&#45;&gt;Node4 -->
<g id="edge3_Node000001_Node000004" class="edge">
<title>Node1&#45;&gt;Node4</title>
<g id="a_edge3_Node000001_Node000004"><a xlink:title=" ">
<path fill="none" stroke="#63b8ff" d="M654.22,-327.81C574.7,-303.47 450.13,-256.87 363,-184 352.88,-175.54 343.71,-165.03 335.72,-154.18"/>
<polygon fill="none" stroke="#63b8ff" points="653.58,-331.27 664.16,-330.81 655.6,-324.57 653.58,-331.27"/>
</a>
</g>
</g>
<!-- Node5 -->
<g id="Node000005" class="node">
<title>Node5</title>
<g id="a_Node000005"><a xlink:href="classDS3231Sensor.html" target="_top" xlink:title="Implementation of a Sensor for the DS3231 Real Time Clock.">
<polygon fill="white" stroke="transparent" points="478,-161.5 372,-161.5 372,-22.5 478,-22.5 478,-161.5"/>
<text text-anchor="start" x="389.5" y="-149" font-family="Helvetica,sans-Serif" font-size="10.00">DS3231Sensor</text>
<text text-anchor="start" x="378.5" y="-134" font-family="Helvetica,sans-Serif" font-size="10.00">&#45;</text>
<text text-anchor="start" x="389" y="-134" font-family="Helvetica,sans-Serif" font-size="10.00">rtc</text>
<text text-anchor="start" x="376" y="-119" font-family="Helvetica,sans-Serif" font-size="10.00">+</text>
<text text-anchor="start" x="389" y="-119" font-family="Helvetica,sans-Serif" font-size="10.00">DS3231Sensor()</text>
<text text-anchor="start" x="376" y="-104" font-family="Helvetica,sans-Serif" font-size="10.00">+</text>
<text text-anchor="start" x="389" y="-104" font-family="Helvetica,sans-Serif" font-size="10.00">DS3231Sensor()</text>
<text text-anchor="start" x="376" y="-89" font-family="Helvetica,sans-Serif" font-size="10.00">+</text>
<text text-anchor="start" x="389" y="-89" font-family="Helvetica,sans-Serif" font-size="10.00">verify()</text>
<text text-anchor="start" x="376" y="-74" font-family="Helvetica,sans-Serif" font-size="10.00">+</text>
<text text-anchor="start" x="389" y="-74" font-family="Helvetica,sans-Serif" font-size="10.00">readData()</text>
<text text-anchor="start" x="376" y="-59" font-family="Helvetica,sans-Serif" font-size="10.00">+</text>
<text text-anchor="start" x="389" y="-59" font-family="Helvetica,sans-Serif" font-size="10.00">readDataPacket()</text>
<text text-anchor="start" x="376" y="-44" font-family="Helvetica,sans-Serif" font-size="10.00">+</text>
<text text-anchor="start" x="389" y="-44" font-family="Helvetica,sans-Serif" font-size="10.00">decodeToCSV()</text>
<text text-anchor="start" x="376" y="-29" font-family="Helvetica,sans-Serif" font-size="10.00">+</text>
<text text-anchor="start" x="389" y="-29" font-family="Helvetica,sans-Serif" font-size="10.00">setTime()</text>
<polygon fill="#666666" stroke="#666666" points="372,-144 372,-144 478,-144 478,-144 372,-144"/>
<polygon fill="#666666" stroke="#666666" points="372,-129 372,-129 387,-129 387,-129 372,-129"/>
<polygon fill="#666666" stroke="#666666" points="387,-129 387,-129 478,-129 478,-129 387,-129"/>
<polygon fill="none" stroke="#666666" points="372,-22.5 372,-161.5 478,-161.5 478,-22.5 372,-22.5"/>
</a>
</g>
</g>
<!-- Node1&#45;&gt;Node5 -->
<g id="edge4_Node000001_Node000005" class="edge">
<title>Node1&#45;&gt;Node5</title>
<g id="a_edge4_Node000001_Node000005"><a xlink:title=" ">
<path fill="none" stroke="#63b8ff" d="M655.66,-307.88C604.45,-277.96 537.15,-233.91 487,-184 480.22,-177.26 473.73,-169.68 467.67,-161.84"/>
<polygon fill="none" stroke="#63b8ff" points="653.98,-310.95 664.38,-312.93 657.48,-304.89 653.98,-310.95"/>
</a>
</g>
</g>
<!-- Node6 -->
<g id="Node000006" class="node">
<title>Node6</title>
<g id="a_Node000006"><a xlink:href="classENS160Sensor.html" target="_top" xlink:title="Implementation of a Sensor for the ENS160.">
<polygon fill="white" stroke="transparent" points="596,-139 496,-139 496,-45 596,-45 596,-139"/>
<text text-anchor="start" x="510.5" y="-127" font-family="Helvetica,sans-Serif" font-size="10.00">ENS160Sensor</text>
<text text-anchor="start" x="502.5" y="-112" font-family="Helvetica,sans-Serif" font-size="10.00">&#45;</text>
<text text-anchor="start" x="513" y="-112" font-family="Helvetica,sans-Serif" font-size="10.00">ens</text>
<text text-anchor="start" x="500" y="-97" font-family="Helvetica,sans-Serif" font-size="10.00">+</text>
<text text-anchor="start" x="513" y="-97" font-family="Helvetica,sans-Serif" font-size="10.00">ENS160Sensor()</text>
<text text-anchor="start" x="500" y="-82" font-family="Helvetica,sans-Serif" font-size="10.00">+</text>
<text text-anchor="start" x="513" y="-82" font-family="Helvetica,sans-Serif" font-size="10.00">ENS160Sensor()</text>
<text text-anchor="start" x="500" y="-67" font-family="Helvetica,sans-Serif" font-size="10.00">+</text>
<text text-anchor="start" x="513" y="-67" font-family="Helvetica,sans-Serif" font-size="10.00">verify()</text>
<text text-anchor="start" x="500" y="-52" font-family="Helvetica,sans-Serif" font-size="10.00">+</text>
<text text-anchor="start" x="513" y="-52" font-family="Helvetica,sans-Serif" font-size="10.00">readData()</text>
<polygon fill="#666666" stroke="#666666" points="496,-122 496,-122 596,-122 596,-122 496,-122"/>
<polygon fill="#666666" stroke="#666666" points="496,-107 496,-107 511,-107 511,-107 496,-107"/>
<polygon fill="#666666" stroke="#666666" points="511,-107 511,-107 596,-107 596,-107 511,-107"/>
<polygon fill="none" stroke="#666666" points="496,-45 496,-139 596,-139 596,-45 496,-45"/>
</a>
</g>
</g>
<!-- Node1&#45;&gt;Node6 -->
<g id="edge5_Node000001_Node000006" class="edge">
<title>Node1&#45;&gt;Node6</title>
<g id="a_edge5_Node000001_Node000006"><a xlink:title=" ">
<path fill="none" stroke="#63b8ff" d="M658.08,-255.94C640.35,-232.71 621.7,-207.66 605,-184 594.91,-169.69 584.36,-153.77 575.02,-139.3"/>
<polygon fill="none" stroke="#63b8ff" points="655.45,-258.26 664.31,-264.07 661.01,-254 655.45,-258.26"/>
</a>
</g>
</g>
<!-- Node7 -->
<g id="Node000007" class="node">
<title>Node7</title>
<g id="a_Node000007"><a xlink:href="classICM20948Sensor.html" target="_top" xlink:title="Implementation of the Sensor class for the Adafruit ICM20948 (9&#45;axis IMU)">
<polygon fill="white" stroke="transparent" points="725.5,-184 614.5,-184 614.5,0 725.5,0 725.5,-184"/>
<text text-anchor="start" x="629.5" y="-172" font-family="Helvetica,sans-Serif" font-size="10.00">ICM20948Sensor</text>
<text text-anchor="start" x="621.5" y="-157" font-family="Helvetica,sans-Serif" font-size="10.00">&#45;</text>
<text text-anchor="start" x="632" y="-157" font-family="Helvetica,sans-Serif" font-size="10.00">icm</text>
<text text-anchor="start" x="621.5" y="-142" font-family="Helvetica,sans-Serif" font-size="10.00">&#45;</text>
<text text-anchor="start" x="632" y="-142" font-family="Helvetica,sans-Serif" font-size="10.00">icm_accel</text>
<text text-anchor="start" x="621.5" y="-127" font-family="Helvetica,sans-Serif" font-size="10.00">&#45;</text>
<text text-anchor="start" x="632" y="-127" font-family="Helvetica,sans-Serif" font-size="10.00">icm_gyro</text>
<text text-anchor="start" x="621.5" y="-112" font-family="Helvetica,sans-Serif" font-size="10.00">&#45;</text>
<text text-anchor="start" x="632" y="-112" font-family="Helvetica,sans-Serif" font-size="10.00">icm_mag</text>
<text text-anchor="start" x="621.5" y="-97" font-family="Helvetica,sans-Serif" font-size="10.00">&#45;</text>
<text text-anchor="start" x="632" y="-97" font-family="Helvetica,sans-Serif" font-size="10.00">icm_temp</text>
<text text-anchor="start" x="619" y="-82" font-family="Helvetica,sans-Serif" font-size="10.00">+</text>
<text text-anchor="start" x="632" y="-82" font-family="Helvetica,sans-Serif" font-size="10.00">ICM20948Sensor()</text>
<text text-anchor="start" x="619" y="-67" font-family="Helvetica,sans-Serif" font-size="10.00">+</text>
<text text-anchor="start" x="632" y="-67" font-family="Helvetica,sans-Serif" font-size="10.00">ICM20948Sensor()</text>
<text text-anchor="start" x="619" y="-52" font-family="Helvetica,sans-Serif" font-size="10.00">+</text>
<text text-anchor="start" x="632" y="-52" font-family="Helvetica,sans-Serif" font-size="10.00">verify()</text>
<text text-anchor="start" x="619" y="-37" font-family="Helvetica,sans-Serif" font-size="10.00">+</text>
<text text-anchor="start" x="632" y="-37" font-family="Helvetica,sans-Serif" font-size="10.00">readData()</text>
<text text-anchor="start" x="619" y="-22" font-family="Helvetica,sans-Serif" font-size="10.00">+</text>
<text text-anchor="start" x="632" y="-22" font-family="Helvetica,sans-Serif" font-size="10.00">readDataPacket()</text>
<text text-anchor="start" x="619" y="-7" font-family="Helvetica,sans-Serif" font-size="10.00">+</text>
<text text-anchor="start" x="632" y="-7" font-family="Helvetica,sans-Serif" font-size="10.00">decodeToCSV()</text>
<polygon fill="#666666" stroke="#666666" points="615,-167 615,-167 726,-167 726,-167 615,-167"/>
<polygon fill="#666666" stroke="#666666" points="615,-92 615,-92 630,-92 630,-92 615,-92"/>
<polygon fill="#666666" stroke="#666666" points="630,-92 630,-92 726,-92 726,-92 630,-92"/>
<polygon fill="none" stroke="#666666" points="614.5,0 614.5,-184 725.5,-184 725.5,0 614.5,0"/>
</a>
</g>
</g>
<!-- Node1&#45;&gt;Node7 -->
<g id="edge6_Node000001_Node000007" class="edge">
<title>Node1&#45;&gt;Node7</title>
<g id="a_edge6_Node000001_Node000007"><a xlink:title=" ">
<path fill="none" stroke="#63b8ff" d="M697.88,-209.77C695.8,-201.06 693.74,-192.41 691.73,-184"/>
<polygon fill="none" stroke="#63b8ff" points="694.51,-210.71 700.23,-219.63 701.31,-209.09 694.51,-210.71"/>
</a>
</g>
</g>
<!-- Node8 -->
<g id="Node000008" class="node">
<title>Node8</title>
<g id="a_Node000008"><a xlink:href="classINA260Sensor.html" target="_top" xlink:title="A class to interface with the Adafruit INA260 sensor for current, voltage, and power measurements.">
<polygon fill="white" stroke="transparent" points="840.5,-139 743.5,-139 743.5,-45 840.5,-45 840.5,-139"/>
<text text-anchor="start" x="758" y="-127" font-family="Helvetica,sans-Serif" font-size="10.00">INA260Sensor</text>
<text text-anchor="start" x="750.5" y="-112" font-family="Helvetica,sans-Serif" font-size="10.00">&#45;</text>
<text text-anchor="start" x="761" y="-112" font-family="Helvetica,sans-Serif" font-size="10.00">ina260</text>
<text text-anchor="start" x="748" y="-97" font-family="Helvetica,sans-Serif" font-size="10.00">+</text>
<text text-anchor="start" x="761" y="-97" font-family="Helvetica,sans-Serif" font-size="10.00">INA260Sensor()</text>
<text text-anchor="start" x="748" y="-82" font-family="Helvetica,sans-Serif" font-size="10.00">+</text>
<text text-anchor="start" x="761" y="-82" font-family="Helvetica,sans-Serif" font-size="10.00">INA260Sensor()</text>
<text text-anchor="start" x="748" y="-67" font-family="Helvetica,sans-Serif" font-size="10.00">+</text>
<text text-anchor="start" x="761" y="-67" font-family="Helvetica,sans-Serif" font-size="10.00">verify()</text>
<text text-anchor="start" x="748" y="-52" font-family="Helvetica,sans-Serif" font-size="10.00">+</text>
<text text-anchor="start" x="761" y="-52" font-family="Helvetica,sans-Serif" font-size="10.00">readData()</text>
<polygon fill="#666666" stroke="#666666" points="744,-122 744,-122 841,-122 841,-122 744,-122"/>
<polygon fill="#666666" stroke="#666666" points="744,-107 744,-107 759,-107 759,-107 744,-107"/>
<polygon fill="#666666" stroke="#666666" points="759,-107 759,-107 841,-107 841,-107 759,-107"/>
<polygon fill="none" stroke="#666666" points="743.5,-45 743.5,-139 840.5,-139 840.5,-45 743.5,-45"/>
</a>
</g>
</g>
<!-- Node1&#45;&gt;Node8 -->
<g id="edge7_Node000001_Node000008" class="edge">
<title>Node1&#45;&gt;Node8</title>
<g id="a_edge7_Node000001_Node000008"><a xlink:title=" ">
<path fill="none" stroke="#63b8ff" d="M764.11,-209.82C770.21,-184.28 776.17,-159.32 781,-139.08"/>
<polygon fill="none" stroke="#63b8ff" points="760.69,-209.09 761.77,-219.63 767.49,-210.71 760.69,-209.09"/>
</a>
</g>
</g>
<!-- Node9 -->
<g id="Node000009" class="node">
<title>Node9</title>
<g id="a_Node000009"><a xlink:href="classLSM9DS1Sensor.html" target="_top" xlink:title="Implementation of the Sensor class for the LSM9DS1 (9&#45;axis IMU)">
<polygon fill="white" stroke="transparent" points="967,-176.5 859,-176.5 859,-7.5 967,-7.5 967,-176.5"/>
<text text-anchor="start" x="873.5" y="-164" font-family="Helvetica,sans-Serif" font-size="10.00">LSM9DS1Sensor</text>
<text text-anchor="start" x="865.5" y="-149" font-family="Helvetica,sans-Serif" font-size="10.00">&#45;</text>
<text text-anchor="start" x="876" y="-149" font-family="Helvetica,sans-Serif" font-size="10.00">lsm</text>
<text text-anchor="start" x="865.5" y="-134" font-family="Helvetica,sans-Serif" font-size="10.00">&#45;</text>
<text text-anchor="start" x="876" y="-134" font-family="Helvetica,sans-Serif" font-size="10.00">accel_offsets</text>
<text text-anchor="start" x="865.5" y="-119" font-family="Helvetica,sans-Serif" font-size="10.00">&#45;</text>
<text text-anchor="start" x="876" y="-119" font-family="Helvetica,sans-Serif" font-size="10.00">gyro_offsets</text>
<text text-anchor="start" x="865.5" y="-104" font-family="Helvetica,sans-Serif" font-size="10.00">&#45;</text>
<text text-anchor="start" x="876" y="-104" font-family="Helvetica,sans-Serif" font-size="10.00">mag_offsets</text>
<text text-anchor="start" x="863" y="-89" font-family="Helvetica,sans-Serif" font-size="10.00">+</text>
<text text-anchor="start" x="876" y="-89" font-family="Helvetica,sans-Serif" font-size="10.00">LSM9DS1Sensor()</text>
<text text-anchor="start" x="863" y="-74" font-family="Helvetica,sans-Serif" font-size="10.00">+</text>
<text text-anchor="start" x="876" y="-74" font-family="Helvetica,sans-Serif" font-size="10.00">LSM9DS1Sensor()</text>
<text text-anchor="start" x="863" y="-59" font-family="Helvetica,sans-Serif" font-size="10.00">+</text>
<text text-anchor="start" x="876" y="-59" font-family="Helvetica,sans-Serif" font-size="10.00">verify()</text>
<text text-anchor="start" x="863" y="-44" font-family="Helvetica,sans-Serif" font-size="10.00">+</text>
<text text-anchor="start" x="876" y="-44" font-family="Helvetica,sans-Serif" font-size="10.00">readData()</text>
<text text-anchor="start" x="863" y="-29" font-family="Helvetica,sans-Serif" font-size="10.00">+</text>
<text text-anchor="start" x="876" y="-29" font-family="Helvetica,sans-Serif" font-size="10.00">calibrate()</text>
<text text-anchor="start" x="865.5" y="-14" font-family="Helvetica,sans-Serif" font-size="10.00">&#45;</text>
<text text-anchor="start" x="876" y="-14" font-family="Helvetica,sans-Serif" font-size="10.00">setupSensor()</text>
<polygon fill="#666666" stroke="#666666" points="859,-159 859,-159 967,-159 967,-159 859,-159"/>
<polygon fill="#666666" stroke="#666666" points="859,-99 859,-99 874,-99 874,-99 859,-99"/>
<polygon fill="#666666" stroke="#666666" points="874,-99 874,-99 967,-99 967,-99 874,-99"/>
<polygon fill="none" stroke="#666666" points="859,-7.5 859,-176.5 967,-176.5 967,-7.5 859,-7.5"/>
</a>
</g>
</g>
<!-- Node1&#45;&gt;Node9 -->
<g id="edge8_Node000001_Node000009" class="edge">
<title>Node1&#45;&gt;Node9</title>
<g id="a_edge8_Node000001_Node000009"><a xlink:title=" ">
<path fill="none" stroke="#63b8ff" d="M803.6,-248.83C819,-227.5 835.1,-205.05 850,-184 852.89,-179.92 855.84,-175.73 858.81,-171.5"/>
<polygon fill="none" stroke="#63b8ff" points="800.76,-246.79 797.74,-256.95 806.43,-250.89 800.76,-246.79"/>
</a>
</g>
</g>
<!-- Node10 -->
<g id="Node000010" class="node">
<title>Node10</title>
<g id="a_Node000010"><a xlink:href="classMTK3339Sensor.html" target="_top" xlink:title="Implementation of the Adafruit MTK3339 GPS sensor.">
<polygon fill="white" stroke="transparent" points="1093,-154 985,-154 985,-30 1093,-30 1093,-154"/>
<text text-anchor="start" x="999.5" y="-142" font-family="Helvetica,sans-Serif" font-size="10.00">MTK3339Sensor</text>
<text text-anchor="start" x="991.5" y="-127" font-family="Helvetica,sans-Serif" font-size="10.00">&#45;</text>
<text text-anchor="start" x="1002" y="-127" font-family="Helvetica,sans-Serif" font-size="10.00">GPS</text>
<text text-anchor="start" x="989" y="-112" font-family="Helvetica,sans-Serif" font-size="10.00">+</text>
<text text-anchor="start" x="1002" y="-112" font-family="Helvetica,sans-Serif" font-size="10.00">MTK3339Sensor()</text>
<text text-anchor="start" x="989" y="-97" font-family="Helvetica,sans-Serif" font-size="10.00">+</text>
<text text-anchor="start" x="1002" y="-97" font-family="Helvetica,sans-Serif" font-size="10.00">MTK3339Sensor()</text>
<text text-anchor="start" x="989" y="-82" font-family="Helvetica,sans-Serif" font-size="10.00">+</text>
<text text-anchor="start" x="1002" y="-82" font-family="Helvetica,sans-Serif" font-size="10.00">verify()</text>
<text text-anchor="start" x="989" y="-67" font-family="Helvetica,sans-Serif" font-size="10.00">+</text>
<text text-anchor="start" x="1002" y="-67" font-family="Helvetica,sans-Serif" font-size="10.00">readData()</text>
<text text-anchor="start" x="989" y="-52" font-family="Helvetica,sans-Serif" font-size="10.00">+</text>
<text text-anchor="start" x="1002" y="-52" font-family="Helvetica,sans-Serif" font-size="10.00">readDataPacket()</text>
<text text-anchor="start" x="989" y="-37" font-family="Helvetica,sans-Serif" font-size="10.00">+</text>
<text text-anchor="start" x="1002" y="-37" font-family="Helvetica,sans-Serif" font-size="10.00">decodeToCSV()</text>
<polygon fill="#666666" stroke="#666666" points="985,-137 985,-137 1093,-137 1093,-137 985,-137"/>
<polygon fill="#666666" stroke="#666666" points="985,-122 985,-122 1000,-122 1000,-122 985,-122"/>
<polygon fill="#666666" stroke="#666666" points="1000,-122 1000,-122 1093,-122 1093,-122 1000,-122"/>
<polygon fill="none" stroke="#666666" points="985,-30 985,-154 1093,-154 1093,-30 985,-30"/>
</a>
</g>
</g>
<!-- Node1&#45;&gt;Node10 -->
<g id="edge9_Node000001_Node000010" class="edge">
<title>Node1&#45;&gt;Node10</title>
<g id="a_edge9_Node000001_Node000010"><a xlink:title=" ">
<path fill="none" stroke="#63b8ff" d="M806.28,-307.98C857.68,-278.02 925.39,-233.9 976,-184 985.03,-175.1 993.59,-164.74 1001.33,-154.26"/>
<polygon fill="none" stroke="#63b8ff" points="804.43,-305 797.52,-313.03 807.93,-311.06 804.43,-305"/>
</a>
</g>
</g>
<!-- Node11 -->
<g id="Node000011" class="node">
<title>Node11</title>
<g id="a_Node000011"><a xlink:href="classPCF8523Sensor.html" target="_top" xlink:title="Implementation of the PCF8523 sensor.">
<polygon fill="white" stroke="transparent" points="1217,-161.5 1111,-161.5 1111,-22.5 1217,-22.5 1217,-161.5"/>
<text text-anchor="start" x="1126" y="-149" font-family="Helvetica,sans-Serif" font-size="10.00">PCF8523Sensor</text>
<text text-anchor="start" x="1117.5" y="-134" font-family="Helvetica,sans-Serif" font-size="10.00">&#45;</text>
<text text-anchor="start" x="1128" y="-134" font-family="Helvetica,sans-Serif" font-size="10.00">rtc</text>
<text text-anchor="start" x="1115" y="-119" font-family="Helvetica,sans-Serif" font-size="10.00">+</text>
<text text-anchor="start" x="1128" y="-119" font-family="Helvetica,sans-Serif" font-size="10.00">PCF8523Sensor()</text>
<text text-anchor="start" x="1115" y="-104" font-family="Helvetica,sans-Serif" font-size="10.00">+</text>
<text text-anchor="start" x="1128" y="-104" font-family="Helvetica,sans-Serif" font-size="10.00">PCF8523Sensor()</text>
<text text-anchor="start" x="1115" y="-89" font-family="Helvetica,sans-Serif" font-size="10.00">+</text>
<text text-anchor="start" x="1128" y="-89" font-family="Helvetica,sans-Serif" font-size="10.00">verify()</text>
<text text-anchor="start" x="1115" y="-74" font-family="Helvetica,sans-Serif" font-size="10.00">+</text>
<text text-anchor="start" x="1128" y="-74" font-family="Helvetica,sans-Serif" font-size="10.00">decodeToCSV()</text>
<text text-anchor="start" x="1115" y="-59" font-family="Helvetica,sans-Serif" font-size="10.00">+</text>
<text text-anchor="start" x="1128" y="-59" font-family="Helvetica,sans-Serif" font-size="10.00">readDataPacket()</text>
<text text-anchor="start" x="1115" y="-44" font-family="Helvetica,sans-Serif" font-size="10.00">+</text>
<text text-anchor="start" x="1128" y="-44" font-family="Helvetica,sans-Serif" font-size="10.00">readData()</text>
<text text-anchor="start" x="1115" y="-29" font-family="Helvetica,sans-Serif" font-size="10.00">+</text>
<text text-anchor="start" x="1128" y="-29" font-family="Helvetica,sans-Serif" font-size="10.00">calibrate()</text>
<polygon fill="#666666" stroke="#666666" points="1111,-144 1111,-144 1217,-144 1217,-144 1111,-144"/>
<polygon fill="#666666" stroke="#666666" points="1111,-129 1111,-129 1126,-129 1126,-129 1111,-129"/>
<polygon fill="#666666" stroke="#666666" points="1126,-129 1126,-129 1217,-129 1217,-129 1126,-129"/>
<polygon fill="none" stroke="#666666" points="1111,-22.5 1111,-161.5 1217,-161.5 1217,-22.5 1111,-22.5"/>
</a>
</g>
</g>
<!-- Node1&#45;&gt;Node11 -->
<g id="edge10_Node000001_Node000011" class="edge">
<title>Node1&#45;&gt;Node11</title>
<g id="a_edge10_Node000001_Node000011"><a xlink:title=" ">
<path fill="none" stroke="#63b8ff" d="M807.7,-328.17C887.84,-304.01 1013.91,-257.45 1102,-184 1109.78,-177.51 1117,-169.81 1123.55,-161.67"/>
<polygon fill="none" stroke="#63b8ff" points="806.27,-324.94 797.68,-331.15 808.26,-331.65 806.27,-324.94"/>
</a>
</g>
</g>
<!-- Node12 -->
<g id="Node000012" class="node">
<title>Node12</title>
<g id="a_Node000012"><a xlink:href="classSGP30Sensor.html" target="_top" xlink:title="Implementation of a Sensor for the SGP Air Quality sensor.">
<polygon fill="white" stroke="transparent" points="1329,-139 1235,-139 1235,-45 1329,-45 1329,-139"/>
<text text-anchor="start" x="1249.5" y="-127" font-family="Helvetica,sans-Serif" font-size="10.00">SGP30Sensor</text>
<text text-anchor="start" x="1241.5" y="-112" font-family="Helvetica,sans-Serif" font-size="10.00">&#45;</text>
<text text-anchor="start" x="1252" y="-112" font-family="Helvetica,sans-Serif" font-size="10.00">sgp</text>
<text text-anchor="start" x="1239" y="-97" font-family="Helvetica,sans-Serif" font-size="10.00">+</text>
<text text-anchor="start" x="1252" y="-97" font-family="Helvetica,sans-Serif" font-size="10.00">SGP30Sensor()</text>
<text text-anchor="start" x="1239" y="-82" font-family="Helvetica,sans-Serif" font-size="10.00">+</text>
<text text-anchor="start" x="1252" y="-82" font-family="Helvetica,sans-Serif" font-size="10.00">SGP30Sensor()</text>
<text text-anchor="start" x="1239" y="-67" font-family="Helvetica,sans-Serif" font-size="10.00">+</text>
<text text-anchor="start" x="1252" y="-67" font-family="Helvetica,sans-Serif" font-size="10.00">verify()</text>
<text text-anchor="start" x="1239" y="-52" font-family="Helvetica,sans-Serif" font-size="10.00">+</text>
<text text-anchor="start" x="1252" y="-52" font-family="Helvetica,sans-Serif" font-size="10.00">readData()</text>
<polygon fill="#666666" stroke="#666666" points="1235,-122 1235,-122 1329,-122 1329,-122 1235,-122"/>
<polygon fill="#666666" stroke="#666666" points="1235,-107 1235,-107 1250,-107 1250,-107 1235,-107"/>
<polygon fill="#666666" stroke="#666666" points="1250,-107 1250,-107 1329,-107 1329,-107 1250,-107"/>
<polygon fill="none" stroke="#666666" points="1235,-45 1235,-139 1329,-139 1329,-45 1235,-45"/>
</a>
</g>
</g>
<!-- Node1&#45;&gt;Node12 -->
<g id="edge11_Node000001_Node000012" class="edge">
<title>Node1&#45;&gt;Node12</title>
<g id="a_edge11_Node000001_Node000012"><a xlink:title=" ">
<path fill="none" stroke="#63b8ff" d="M807.68,-339.57C912.12,-324.01 1100.46,-283.46 1226,-184 1240.83,-172.25 1252.73,-155.42 1261.69,-139.42"/>
<polygon fill="none" stroke="#63b8ff" points="806.92,-336.15 797.53,-341.05 807.93,-343.07 806.92,-336.15"/>
</a>
</g>
</g>
<!-- Node13 -->
<g id="Node000013" class="node">
<title>Node13</title>
<g id="a_Node000013"><a xlink:href="classTempSensor.html" target="_top" xlink:title="Implementation of a Sensor for the onboard temperature sensor.">
<polygon fill="white" stroke="transparent" points="1453,-154 1347,-154 1347,-30 1453,-30 1453,-154"/>
<text text-anchor="start" x="1370" y="-142" font-family="Helvetica,sans-Serif" font-size="10.00">TempSensor</text>
<text text-anchor="start" x="1398" y="-127" font-family="Helvetica,sans-Serif" font-size="10.00"> </text>
<text text-anchor="start" x="1351" y="-112" font-family="Helvetica,sans-Serif" font-size="10.00">+</text>
<text text-anchor="start" x="1364" y="-112" font-family="Helvetica,sans-Serif" font-size="10.00">TempSensor()</text>
<text text-anchor="start" x="1351" y="-97" font-family="Helvetica,sans-Serif" font-size="10.00">+</text>
<text text-anchor="start" x="1364" y="-97" font-family="Helvetica,sans-Serif" font-size="10.00">TempSensor()</text>
<text text-anchor="start" x="1351" y="-82" font-family="Helvetica,sans-Serif" font-size="10.00">+</text>
<text text-anchor="start" x="1364" y="-82" font-family="Helvetica,sans-Serif" font-size="10.00">verify()</text>
<text text-anchor="start" x="1351" y="-67" font-family="Helvetica,sans-Serif" font-size="10.00">+</text>
<text text-anchor="start" x="1364" y="-67" font-family="Helvetica,sans-Serif" font-size="10.00">readData()</text>
<text text-anchor="start" x="1351" y="-52" font-family="Helvetica,sans-Serif" font-size="10.00">+</text>
<text text-anchor="start" x="1364" y="-52" font-family="Helvetica,sans-Serif" font-size="10.00">readDataPacket()</text>
<text text-anchor="start" x="1351" y="-37" font-family="Helvetica,sans-Serif" font-size="10.00">+</text>
<text text-anchor="start" x="1364" y="-37" font-family="Helvetica,sans-Serif" font-size="10.00">decodeToCSV()</text>
<polygon fill="#666666" stroke="#666666" points="1347,-137 1347,-137 1453,-137 1453,-137 1347,-137"/>
<polygon fill="#666666" stroke="#666666" points="1347,-122 1347,-122 1453,-122 1453,-122 1347,-122"/>
<polygon fill="none" stroke="#666666" points="1347,-30 1347,-154 1453,-154 1453,-30 1347,-30"/>
</a>
</g>
</g>
<!-- Node1&#45;&gt;Node13 -->
<g id="edge12_Node000001_Node000013" class="edge">
<title>Node1&#45;&gt;Node13</title>
<g id="a_edge12_Node000001_Node000013"><a xlink:title=" ">
<path fill="none" stroke="#63b8ff" d="M807.59,-344.56C930.25,-334.82 1173.62,-301.02 1338,-184 1349.21,-176.02 1359.02,-165.33 1367.33,-154.08"/>
<polygon fill="none" stroke="#63b8ff" points="807.24,-341.08 797.54,-345.33 807.77,-348.06 807.24,-341.08"/>
</a>
</g>
</g>
</g>
</svg>
