<?xml version="1.0" encoding="UTF-8" standalone="no"?>
<!DOCTYPE svg PUBLIC "-//W3C//DTD SVG 1.1//EN"
 "http://www.w3.org/Graphics/SVG/1.1/DTD/svg11.dtd">
<!-- Generated by graphviz version 2.43.0 (0)
 -->
<!-- Title: SGP30Sensor Pages: 1 -->
<svg width="471pt" height="661pt"
 viewBox="0.00 0.00 470.50 661.00" xmlns="http://www.w3.org/2000/svg" xmlns:xlink="http://www.w3.org/1999/xlink">
<g id="graph0" class="graph" transform="scale(1 1) rotate(0) translate(4 657)">
<title>SGP30Sensor</title>
<!-- Node1 -->
<g id="Node000001" class="node">
<title>Node1</title>
<g id="a_Node000001"><a xlink:title="Implementation of a Sensor for the SGP Air Quality sensor.">
<polygon fill="#999999" stroke="transparent" points="316.5,-94 222.5,-94 222.5,0 316.5,0 316.5,-94"/>
<text text-anchor="start" x="237" y="-82" font-family="Helvetica,sans-Serif" font-size="10.00">SGP30Sensor</text>
<text text-anchor="start" x="267.5" y="-67" font-family="Helvetica,sans-Serif" font-size="10.00"> </text>
<text text-anchor="start" x="226.5" y="-52" font-family="Helvetica,sans-Serif" font-size="10.00">+</text>
<text text-anchor="start" x="239.5" y="-52" font-family="Helvetica,sans-Serif" font-size="10.00">SGP30Sensor()</text>
<text text-anchor="start" x="226.5" y="-37" font-family="Helvetica,sans-Serif" font-size="10.00">+</text>
<text text-anchor="start" x="239.5" y="-37" font-family="Helvetica,sans-Serif" font-size="10.00">SGP30Sensor()</text>
<text text-anchor="start" x="226.5" y="-22" font-family="Helvetica,sans-Serif" font-size="10.00">+</text>
<text text-anchor="start" x="239.5" y="-22" font-family="Helvetica,sans-Serif" font-size="10.00">verify()</text>
<text text-anchor="start" x="226.5" y="-7" font-family="Helvetica,sans-Serif" font-size="10.00">+</text>
<text text-anchor="start" x="239.5" y="-7" font-family="Helvetica,sans-Serif" font-size="10.00">readData()</text>
<polygon fill="#666666" stroke="#666666" points="222.5,-77 222.5,-77 316.5,-77 316.5,-77 222.5,-77"/>
<polygon fill="#666666" stroke="#666666" points="222.5,-62 222.5,-62 316.5,-62 316.5,-62 222.5,-62"/>
<polygon fill="none" stroke="#666666" points="222.5,0 222.5,-94 316.5,-94 316.5,0 222.5,0"/>
</a>
</g>
</g>
<!-- Node2 -->
<g id="Node000002" class="node">
<title>Node2</title>
<g id="a_Node000002"><a xlink:href="classSensor.html" target="_top" xlink:title="Parent class for sensor objects.">
<polygon fill="white" stroke="transparent" points="272,-340 139,-340 139,-141 272,-141 272,-340"/>
<text text-anchor="start" x="189" y="-327.5" font-family="Helvetica,sans-Serif" font-size="10.00">Sensor</text>
<text text-anchor="start" x="204" y="-312.5" font-family="Helvetica,sans-Serif" font-size="10.00"> </text>
<text text-anchor="start" x="143.5" y="-297.5" font-family="Helvetica,sans-Serif" font-size="10.00">+</text>
<text text-anchor="start" x="156.5" y="-297.5" font-family="Helvetica,sans-Serif" font-size="10.00">Sensor()</text>
<text text-anchor="start" x="143.5" y="-282.5" font-family="Helvetica,sans-Serif" font-size="10.00">+</text>
<text text-anchor="start" x="156.5" y="-282.5" font-family="Helvetica,sans-Serif" font-size="10.00">Sensor()</text>
<text text-anchor="start" x="143.5" y="-267.5" font-family="Helvetica,sans-Serif" font-size="10.00">+</text>
<text text-anchor="start" x="156.5" y="-267.5" font-family="Helvetica,sans-Serif" font-size="10.00">Sensor()</text>
<text text-anchor="start" x="143.5" y="-252.5" font-family="Helvetica,sans-Serif" font-size="10.00">+</text>
<text text-anchor="start" x="156.5" y="-252.5" font-family="Helvetica,sans-Serif" font-size="10.00">Sensor()</text>
<text text-anchor="start" x="143.5" y="-237.5" font-family="Helvetica,sans-Serif" font-size="10.00">+</text>
<text text-anchor="start" x="156.5" y="-237.5" font-family="Helvetica,sans-Serif" font-size="10.00">getPeriod()</text>
<text text-anchor="start" x="143.5" y="-222.5" font-family="Helvetica,sans-Serif" font-size="10.00">+</text>
<text text-anchor="start" x="156.5" y="-222.5" font-family="Helvetica,sans-Serif" font-size="10.00">setPeriod()</text>
<text text-anchor="start" x="143.5" y="-207.5" font-family="Helvetica,sans-Serif" font-size="10.00">+</text>
<text text-anchor="start" x="156.5" y="-207.5" font-family="Helvetica,sans-Serif" font-size="10.00">getLastExecution()</text>
<text text-anchor="start" x="143.5" y="-192.5" font-family="Helvetica,sans-Serif" font-size="10.00">+</text>
<text text-anchor="start" x="156.5" y="-192.5" font-family="Helvetica,sans-Serif" font-size="10.00">setLastExecution()</text>
<text text-anchor="start" x="143.5" y="-177.5" font-family="Helvetica,sans-Serif" font-size="10.00">+</text>
<text text-anchor="start" x="156.5" y="-177.5" font-family="Helvetica,sans-Serif" font-size="10.00">getSensorCSVHeader()</text>
<text text-anchor="start" x="143.5" y="-162.5" font-family="Helvetica,sans-Serif" font-size="10.00">+</text>
<text text-anchor="start" x="156.5" y="-162.5" font-family="Helvetica,sans-Serif" font-size="10.00">verify()</text>
<text text-anchor="start" x="156.5" y="-147.5" font-family="Helvetica,sans-Serif" font-size="10.00">and 6 more...</text>
<polygon fill="#666666" stroke="#666666" points="139.5,-322.5 139.5,-322.5 272.5,-322.5 272.5,-322.5 139.5,-322.5"/>
<polygon fill="#666666" stroke="#666666" points="139.5,-307.5 139.5,-307.5 272.5,-307.5 272.5,-307.5 139.5,-307.5"/>
<polygon fill="none" stroke="#666666" points="139,-141 139,-340 272,-340 272,-141 139,-141"/>
</a>
</g>
</g>
<!-- Node2&#45;&gt;Node1 -->
<g id="edge1_Node000001_Node000002" class="edge">
<title>Node2&#45;&gt;Node1</title>
<g id="a_edge1_Node000001_Node000002"><a xlink:title=" ">
<path fill="none" stroke="#63b8ff" d="M241.62,-131.41C245.98,-118.38 250.23,-105.66 254.05,-94.23"/>
<polygon fill="none" stroke="#63b8ff" points="238.29,-130.35 238.44,-140.95 244.93,-132.57 238.29,-130.35"/>
</a>
</g>
</g>
<!-- Node3 -->
<g id="Node000003" class="node">
<title>Node3</title>
<g id="a_Node000003"><a xlink:href="classDevice.html" target="_top" xlink:title="Implements the recovery system for Sensor and Storage objects.">
<polygon fill="white" stroke="transparent" points="267,-546 144,-546 144,-377 267,-377 267,-546"/>
<text text-anchor="start" x="189" y="-533.5" font-family="Helvetica,sans-Serif" font-size="10.00">Device</text>
<text text-anchor="start" x="204" y="-518.5" font-family="Helvetica,sans-Serif" font-size="10.00"> </text>
<text text-anchor="start" x="148.5" y="-503.5" font-family="Helvetica,sans-Serif" font-size="10.00">+</text>
<text text-anchor="start" x="161.5" y="-503.5" font-family="Helvetica,sans-Serif" font-size="10.00">Device()</text>
<text text-anchor="start" x="148.5" y="-488.5" font-family="Helvetica,sans-Serif" font-size="10.00">+</text>
<text text-anchor="start" x="161.5" y="-488.5" font-family="Helvetica,sans-Serif" font-size="10.00">Device()</text>
<text text-anchor="start" x="148.5" y="-473.5" font-family="Helvetica,sans-Serif" font-size="10.00">+</text>
<text text-anchor="start" x="161.5" y="-473.5" font-family="Helvetica,sans-Serif" font-size="10.00">getDeviceName()</text>
<text text-anchor="start" x="148.5" y="-458.5" font-family="Helvetica,sans-Serif" font-size="10.00">+</text>
<text text-anchor="start" x="161.5" y="-458.5" font-family="Helvetica,sans-Serif" font-size="10.00">verify()</text>
<text text-anchor="start" x="148.5" y="-443.5" font-family="Helvetica,sans-Serif" font-size="10.00">+</text>
<text text-anchor="start" x="161.5" y="-443.5" font-family="Helvetica,sans-Serif" font-size="10.00">getVerified()</text>
<text text-anchor="start" x="148.5" y="-428.5" font-family="Helvetica,sans-Serif" font-size="10.00">+</text>
<text text-anchor="start" x="161.5" y="-428.5" font-family="Helvetica,sans-Serif" font-size="10.00">recoveryConfig()</text>
<text text-anchor="start" x="148.5" y="-413.5" font-family="Helvetica,sans-Serif" font-size="10.00">+</text>
<text text-anchor="start" x="161.5" y="-413.5" font-family="Helvetica,sans-Serif" font-size="10.00">setWaitFactor()</text>
<text text-anchor="start" x="148.5" y="-398.5" font-family="Helvetica,sans-Serif" font-size="10.00">+</text>
<text text-anchor="start" x="161.5" y="-398.5" font-family="Helvetica,sans-Serif" font-size="10.00">setMaxAttempts()</text>
<text text-anchor="start" x="148.5" y="-383.5" font-family="Helvetica,sans-Serif" font-size="10.00">+</text>
<text text-anchor="start" x="161.5" y="-383.5" font-family="Helvetica,sans-Serif" font-size="10.00">attemptConnection()</text>
<polygon fill="#666666" stroke="#666666" points="144.5,-528.5 144.5,-528.5 267.5,-528.5 267.5,-528.5 144.5,-528.5"/>
<polygon fill="#666666" stroke="#666666" points="144.5,-513.5 144.5,-513.5 267.5,-513.5 267.5,-513.5 144.5,-513.5"/>
<polygon fill="none" stroke="#666666" points="144,-377 144,-546 267,-546 267,-377 144,-377"/>
</a>
</g>
</g>
<!-- Node3&#45;&gt;Node2 -->
<g id="edge2_Node000002_Node000003" class="edge">
<title>Node3&#45;&gt;Node2</title>
<g id="a_edge2_Node000002_Node000003"><a xlink:title=" ">
<path fill="none" stroke="#63b8ff" d="M205.5,-366.59C205.5,-357.86 205.5,-348.99 205.5,-340.22"/>
<polygon fill="none" stroke="#63b8ff" points="202,-366.77 205.5,-376.77 209,-366.77 202,-366.77"/>
</a>
</g>
</g>
<!-- Node4 -->
<g id="Node000004" class="node">
<title>Node4</title>
<g id="a_Node000004"><a xlink:title=" ">
<polygon fill="white" stroke="transparent" points="79,-653 0,-653 0,-604 79,-604 79,-653"/>
<text text-anchor="start" x="5.5" y="-640.5" font-family="Helvetica,sans-Serif" font-size="10.00">unsigned long</text>
<text text-anchor="start" x="38" y="-625.5" font-family="Helvetica,sans-Serif" font-size="10.00"> </text>
<text text-anchor="start" x="38" y="-610.5" font-family="Helvetica,sans-Serif" font-size="10.00"> </text>
<polygon fill="#666666" stroke="#666666" points="0.5,-635.5 0.5,-635.5 79.5,-635.5 79.5,-635.5 0.5,-635.5"/>
<polygon fill="#666666" stroke="#666666" points="0.5,-620.5 0.5,-620.5 79.5,-620.5 79.5,-620.5 0.5,-620.5"/>
<polygon fill="none" stroke="#666666" points="0,-604 0,-653 79,-653 79,-604 0,-604"/>
</a>
</g>
</g>
<!-- Node4&#45;&gt;Node2 -->
<g id="edge7_Node000002_Node000004" class="edge">
<title>Node4&#45;&gt;Node2</title>
<g id="a_edge7_Node000002_Node000004"><a xlink:title=" ">
<path fill="none" stroke="#63b8ff" d="M34.12,-603.93C24.83,-557.73 10.06,-453.13 46.5,-377 64.23,-339.95 97.39,-309.17 128.86,-286.35"/>
<polygon fill="none" stroke="#63b8ff" points="129.18,-286.13 131.78,-279.41 138.99,-279.23 136.39,-285.95 129.18,-286.13"/>
</a>
</g>
<text text-anchor="middle" x="90.5" y="-464.5" font-family="Helvetica,sans-Serif" font-size="10.00" fill="grey"> &#45;last_execution</text>
<text text-anchor="middle" x="90.5" y="-453.5" font-family="Helvetica,sans-Serif" font-size="10.00" fill="grey">&#45;minimum_period</text>
</g>
<!-- Node4&#45;&gt;Node3 -->
<g id="edge3_Node000003_Node000004" class="edge">
<title>Node4&#45;&gt;Node3</title>
<g id="a_edge3_Node000003_Node000004"><a xlink:title=" ">
<path fill="none" stroke="#63b8ff" d="M52.41,-603.87C60.23,-591.02 71.08,-575.46 83.5,-564 95.21,-553.19 101.67,-555.44 114.5,-546 121.11,-541.13 127.79,-535.86 134.35,-530.4"/>
<polygon fill="none" stroke="#63b8ff" points="134.73,-530.07 136.71,-523.14 143.87,-522.3 141.89,-529.23 134.73,-530.07"/>
</a>
</g>
<text text-anchor="middle" x="118.5" y="-578" font-family="Helvetica,sans-Serif" font-size="10.00" fill="grey"> &#45;last_attempt</text>
<text text-anchor="middle" x="118.5" y="-567" font-family="Helvetica,sans-Serif" font-size="10.00" fill="grey">&#45;wait_factor</text>
</g>
<!-- Node5 -->
<g id="Node000005" class="node">
<title>Node5</title>
<g id="a_Node000005"><a xlink:title=" ">
<polygon fill="white" stroke="transparent" points="232,-653 209,-653 209,-604 232,-604 232,-653"/>
<text text-anchor="start" x="214.5" y="-640.5" font-family="Helvetica,sans-Serif" font-size="10.00">int</text>
<text text-anchor="start" x="219" y="-625.5" font-family="Helvetica,sans-Serif" font-size="10.00"> </text>
<text text-anchor="start" x="219" y="-610.5" font-family="Helvetica,sans-Serif" font-size="10.00"> </text>
<polygon fill="#666666" stroke="#666666" points="209.5,-635.5 209.5,-635.5 232.5,-635.5 232.5,-635.5 209.5,-635.5"/>
<polygon fill="#666666" stroke="#666666" points="209.5,-620.5 209.5,-620.5 232.5,-620.5 232.5,-620.5 209.5,-620.5"/>
<polygon fill="none" stroke="#666666" points="209,-604 209,-653 232,-653 232,-604 209,-604"/>
</a>
</g>
</g>
<!-- Node5&#45;&gt;Node3 -->
<g id="edge4_Node000003_Node000005" class="edge">
<title>Node5&#45;&gt;Node3</title>
<g id="a_edge4_Node000003_Node000005"><a xlink:title=" ">
<path fill="none" stroke="#63b8ff" d="M218.35,-603.86C217.22,-591.45 215.76,-575.34 214.22,-558.46"/>
<polygon fill="none" stroke="#63b8ff" points="214.18,-558.03 209.66,-552.41 213.1,-546.07 217.62,-551.69 214.18,-558.03"/>
</a>
</g>
<text text-anchor="middle" x="261" y="-578" font-family="Helvetica,sans-Serif" font-size="10.00" fill="grey"> &#45;attempt_number</text>
<text text-anchor="middle" x="261" y="-567" font-family="Helvetica,sans-Serif" font-size="10.00" fill="grey">&#45;max_attempts</text>
</g>
<!-- Node6 -->
<g id="Node000006" class="node">
<title>Node6</title>
<g id="a_Node000006"><a xlink:title=" ">
<polygon fill="white" stroke="transparent" points="396,-653 357,-653 357,-604 396,-604 396,-653"/>
<text text-anchor="start" x="362.5" y="-640.5" font-family="Helvetica,sans-Serif" font-size="10.00">String</text>
<text text-anchor="start" x="375" y="-625.5" font-family="Helvetica,sans-Serif" font-size="10.00"> </text>
<text text-anchor="start" x="375" y="-610.5" font-family="Helvetica,sans-Serif" font-size="10.00"> </text>
<polygon fill="#666666" stroke="#666666" points="357.5,-635.5 357.5,-635.5 396.5,-635.5 396.5,-635.5 357.5,-635.5"/>
<polygon fill="#666666" stroke="#666666" points="357.5,-620.5 357.5,-620.5 396.5,-620.5 396.5,-620.5 357.5,-620.5"/>
<polygon fill="none" stroke="#666666" points="357,-604 357,-653 396,-653 396,-604 357,-604"/>
</a>
</g>
</g>
<!-- Node6&#45;&gt;Node2 -->
<g id="edge8_Node000002_Node000006" class="edge">
<title>Node6&#45;&gt;Node2</title>
<g id="a_edge8_Node000002_Node000006"><a xlink:title=" ">
<path fill="none" stroke="#63b8ff" d="M396.13,-605.66C400.37,-599.69 404.26,-592.94 406.5,-586 409.51,-576.7 409.19,-573.4 406.5,-564 393.37,-518.09 330.82,-420.99 278.94,-345.27"/>
<polygon fill="none" stroke="#63b8ff" points="278.82,-345.09 272.13,-342.42 272.03,-335.21 278.72,-337.88 278.82,-345.09"/>
</a>
</g>
<text text-anchor="middle" x="431" y="-464.5" font-family="Helvetica,sans-Serif" font-size="10.00" fill="grey"> &#45;csv_header</text>
<text text-anchor="middle" x="431" y="-453.5" font-family="Helvetica,sans-Serif" font-size="10.00" fill="grey">&#45;empty_csv</text>
</g>
<!-- Node6&#45;&gt;Node3 -->
<g id="edge5_Node000003_Node000006" class="edge">
<title>Node6&#45;&gt;Node3</title>
<g id="a_edge5_Node000003_Node000006"><a xlink:title=" ">
<path fill="none" stroke="#63b8ff" d="M356.88,-608.57C337.09,-589.47 305.34,-558.83 276.01,-530.54"/>
<polygon fill="none" stroke="#63b8ff" points="275.64,-530.18 268.54,-528.89 267,-521.85 274.1,-523.13 275.64,-530.18"/>
</a>
</g>
<text text-anchor="middle" x="367" y="-572.5" font-family="Helvetica,sans-Serif" font-size="10.00" fill="grey"> &#45;device_name</text>
</g>
<!-- Node7 -->
<g id="Node000007" class="node">
<title>Node7</title>
<g id="a_Node000007"><a xlink:title=" ">
<polygon fill="white" stroke="transparent" points="164.5,-653 132.5,-653 132.5,-604 164.5,-604 164.5,-653"/>
<text text-anchor="start" x="137.5" y="-640.5" font-family="Helvetica,sans-Serif" font-size="10.00">bool</text>
<text text-anchor="start" x="146.5" y="-625.5" font-family="Helvetica,sans-Serif" font-size="10.00"> </text>
<text text-anchor="start" x="146.5" y="-610.5" font-family="Helvetica,sans-Serif" font-size="10.00"> </text>
<polygon fill="#666666" stroke="#666666" points="132.5,-635.5 132.5,-635.5 164.5,-635.5 164.5,-635.5 132.5,-635.5"/>
<polygon fill="#666666" stroke="#666666" points="132.5,-620.5 132.5,-620.5 164.5,-620.5 164.5,-620.5 132.5,-620.5"/>
<polygon fill="none" stroke="#666666" points="132.5,-604 132.5,-653 164.5,-653 164.5,-604 132.5,-604"/>
</a>
</g>
</g>
<!-- Node7&#45;&gt;Node3 -->
<g id="edge6_Node000003_Node000007" class="edge">
<title>Node7&#45;&gt;Node3</title>
<g id="a_edge6_Node000003_Node000007"><a xlink:title=" ">
<path fill="none" stroke="#63b8ff" d="M152.67,-603.7C155.05,-591.67 158.38,-576.91 162.5,-564 163.17,-561.9 163.86,-559.79 164.58,-557.67"/>
<polygon fill="none" stroke="#63b8ff" points="164.62,-557.55 162.85,-550.56 168.62,-546.24 170.39,-553.23 164.62,-557.55"/>
</a>
</g>
<text text-anchor="middle" x="187" y="-572.5" font-family="Helvetica,sans-Serif" font-size="10.00" fill="grey"> #verified</text>
</g>
<!-- Node8 -->
<g id="Node000008" class="node">
<title>Node8</title>
<g id="a_Node000008"><a xlink:title=" ">
<polygon fill="white" stroke="transparent" points="376.5,-265 290.5,-265 290.5,-216 376.5,-216 376.5,-265"/>
<text text-anchor="start" x="295.5" y="-252.5" font-family="Helvetica,sans-Serif" font-size="10.00">Adafruit_SGP30</text>
<text text-anchor="start" x="331.5" y="-237.5" font-family="Helvetica,sans-Serif" font-size="10.00"> </text>
<text text-anchor="start" x="331.5" y="-222.5" font-family="Helvetica,sans-Serif" font-size="10.00"> </text>
<polygon fill="#666666" stroke="#666666" points="290.5,-247.5 290.5,-247.5 376.5,-247.5 376.5,-247.5 290.5,-247.5"/>
<polygon fill="#666666" stroke="#666666" points="290.5,-232.5 290.5,-232.5 376.5,-232.5 376.5,-232.5 290.5,-232.5"/>
<polygon fill="none" stroke="#666666" points="290.5,-216 290.5,-265 376.5,-265 376.5,-216 290.5,-216"/>
</a>
</g>
</g>
<!-- Node8&#45;&gt;Node1 -->
<g id="edge9_Node000001_Node000008" class="edge">
<title>Node8&#45;&gt;Node1</title>
<g id="a_edge9_Node000001_Node000008"><a xlink:title=" ">
<path fill="none" stroke="#63b8ff" d="M325.52,-215.63C316.39,-188.31 301.11,-142.59 288.81,-105.79"/>
<polygon fill="none" stroke="#63b8ff" points="288.74,-105.57 283.04,-101.15 284.94,-94.19 290.63,-98.61 288.74,-105.57"/>
</a>
</g>
<text text-anchor="middle" x="307" y="-115" font-family="Helvetica,sans-Serif" font-size="10.00" fill="grey"> &#45;sgp</text>
</g>
</g>
</svg>
