<?xml version="1.0" encoding="UTF-8" standalone="no"?>
<!DOCTYPE svg PUBLIC "-//W3C//DTD SVG 1.1//EN"
 "http://www.w3.org/Graphics/SVG/1.1/DTD/svg11.dtd">
<!-- Generated by graphviz version 2.43.0 (0)
 -->
<!-- Title: Device::setMaxAttempts Pages: 1 -->
<svg width="507pt" height="64pt"
 viewBox="0.00 0.00 507.00 64.00" xmlns="http://www.w3.org/2000/svg" xmlns:xlink="http://www.w3.org/1999/xlink">
<g id="graph0" class="graph" transform="scale(1 1) rotate(0) translate(4 60)">
<title>Device::setMaxAttempts</title>
<!-- Node1 -->
<g id="Node000001" class="node">
<title>Node1</title>
<g id="a_Node000001"><a xlink:title="Set max_attempts.">
<polygon fill="#999999" stroke="#666666" points="499,-37 362,-37 362,-18 499,-18 499,-37"/>
<text text-anchor="middle" x="430.5" y="-25" font-family="Helvetica,sans-Serif" font-size="10.00">Device::setMaxAttempts</text>
</a>
</g>
</g>
<!-- Node2 -->
<g id="Node000002" class="node">
<title>Node2</title>
<g id="a_Node000002"><a xlink:href="classDevice.html#af64c14c9b8d2c9001f81c1ce6776a565" target="_top" xlink:title="Set recovery config (used keep default constructor)">
<polygon fill="white" stroke="#666666" points="326,-37 196,-37 196,-18 326,-18 326,-37"/>
<text text-anchor="middle" x="261" y="-25" font-family="Helvetica,sans-Serif" font-size="10.00">Device::recoveryConfig</text>
</a>
</g>
</g>
<!-- Node1&#45;&gt;Node2 -->
<g id="edge1_Node000001_Node000002" class="edge">
<title>Node1&#45;&gt;Node2</title>
<g id="a_edge1_Node000001_Node000002"><a xlink:title=" ">
<path fill="none" stroke="#63b8ff" d="M351.81,-27.5C343.2,-27.5 334.51,-27.5 326.1,-27.5"/>
<polygon fill="#63b8ff" stroke="#63b8ff" points="351.85,-31 361.85,-27.5 351.85,-24 351.85,-31"/>
</a>
</g>
</g>
<!-- Node3 -->
<g id="Node000003" class="node">
<title>Node3</title>
<g id="a_Node000003"><a xlink:href="main1_8cpp.html#a335f1df8d0b267769cb9842c12616214" target="_top" xlink:title="Setup for core 1.">
<polygon fill="white" stroke="#666666" points="160,-56 86,-56 86,-37 160,-37 160,-56"/>
<text text-anchor="middle" x="123" y="-44" font-family="Helvetica,sans-Serif" font-size="10.00">real_setup1</text>
</a>
</g>
</g>
<!-- Node2&#45;&gt;Node3 -->
<g id="edge2_Node000002_Node000003" class="edge">
<title>Node2&#45;&gt;Node3</title>
<g id="a_edge2_Node000002_Node000003"><a xlink:title=" ">
<path fill="none" stroke="#63b8ff" d="M185.92,-37.85C177.02,-39.09 168.27,-40.31 160.28,-41.43"/>
<polygon fill="#63b8ff" stroke="#63b8ff" points="186.56,-41.29 195.98,-36.44 185.59,-34.36 186.56,-41.29"/>
</a>
</g>
</g>
<!-- Node5 -->
<g id="Node000005" class="node">
<title>Node5</title>
<g id="a_Node000005"><a xlink:href="main_8cpp.html#a4fc01d736fe50cf5b977f755b675f11d" target="_top" xlink:title="Setup for core 0.">
<polygon fill="white" stroke="#666666" points="145,-19 101,-19 101,0 145,0 145,-19"/>
<text text-anchor="middle" x="123" y="-7" font-family="Helvetica,sans-Serif" font-size="10.00">setup</text>
</a>
</g>
</g>
<!-- Node2&#45;&gt;Node5 -->
<g id="edge4_Node000002_Node000005" class="edge">
<title>Node2&#45;&gt;Node5</title>
<g id="a_edge4_Node000002_Node000005"><a xlink:title=" ">
<path fill="none" stroke="#63b8ff" d="M185.67,-17.66C170.81,-15.7 156.36,-13.78 145.19,-12.3"/>
<polygon fill="#63b8ff" stroke="#63b8ff" points="185.61,-21.18 195.98,-19.03 186.53,-14.25 185.61,-21.18"/>
</a>
</g>
</g>
<!-- Node4 -->
<g id="Node000004" class="node">
<title>Node4</title>
<g id="a_Node000004"><a xlink:href="main_8cpp.html#ac764ee28e2916a7de10b22927e02d1a4" target="_top" xlink:title=" ">
<polygon fill="white" stroke="#666666" points="50,-56 0,-56 0,-37 50,-37 50,-56"/>
<text text-anchor="middle" x="25" y="-44" font-family="Helvetica,sans-Serif" font-size="10.00">setup1</text>
</a>
</g>
</g>
<!-- Node3&#45;&gt;Node4 -->
<g id="edge3_Node000003_Node000004" class="edge">
<title>Node3&#45;&gt;Node4</title>
<g id="a_edge3_Node000003_Node000004"><a xlink:title=" ">
<path fill="none" stroke="#63b8ff" d="M75.75,-46.5C66.94,-46.5 58.05,-46.5 50.27,-46.5"/>
<polygon fill="#63b8ff" stroke="#63b8ff" points="75.98,-50 85.98,-46.5 75.98,-43 75.98,-50"/>
</a>
</g>
</g>
</g>
</svg>
