<?xml version="1.0" encoding="UTF-8" standalone="no"?>
<!DOCTYPE svg PUBLIC "-//W3C//DTD SVG 1.1//EN"
 "http://www.w3.org/Graphics/SVG/1.1/DTD/svg11.dtd">
<!-- Generated by graphviz version 2.43.0 (0)
 -->
<!-- Title: BME280Sensor Pages: 1 -->
<svg width="238pt" height="481pt"
 viewBox="0.00 0.00 237.50 481.00" xmlns="http://www.w3.org/2000/svg" xmlns:xlink="http://www.w3.org/1999/xlink">
<g id="graph0" class="graph" transform="scale(1 1) rotate(0) translate(4 477)">
<title>BME280Sensor</title>
<!-- Node1 -->
<g id="Node000001" class="node">
<title>Node1</title>
<g id="a_Node000001"><a xlink:title="Implementation of a Sensor for the BME280.">
<polygon fill="#999999" stroke="transparent" points="202.5,-109 96.5,-109 96.5,0 202.5,0 202.5,-109"/>
<text text-anchor="start" x="113" y="-96.5" font-family="Helvetica,sans-Serif" font-size="10.00">BME280Sensor</text>
<text text-anchor="start" x="147.5" y="-81.5" font-family="Helvetica,sans-Serif" font-size="10.00"> </text>
<text text-anchor="start" x="100.5" y="-66.5" font-family="Helvetica,sans-Serif" font-size="10.00">+</text>
<text text-anchor="start" x="113.5" y="-66.5" font-family="Helvetica,sans-Serif" font-size="10.00">BME280Sensor()</text>
<text text-anchor="start" x="100.5" y="-51.5" font-family="Helvetica,sans-Serif" font-size="10.00">+</text>
<text text-anchor="start" x="113.5" y="-51.5" font-family="Helvetica,sans-Serif" font-size="10.00">BME280Sensor()</text>
<text text-anchor="start" x="100.5" y="-36.5" font-family="Helvetica,sans-Serif" font-size="10.00">+</text>
<text text-anchor="start" x="113.5" y="-36.5" font-family="Helvetica,sans-Serif" font-size="10.00">verify()</text>
<text text-anchor="start" x="100.5" y="-21.5" font-family="Helvetica,sans-Serif" font-size="10.00">+</text>
<text text-anchor="start" x="113.5" y="-21.5" font-family="Helvetica,sans-Serif" font-size="10.00">readData()</text>
<text text-anchor="start" x="100.5" y="-6.5" font-family="Helvetica,sans-Serif" font-size="10.00">+</text>
<text text-anchor="start" x="113.5" y="-6.5" font-family="Helvetica,sans-Serif" font-size="10.00">readDataPacket()</text>
<polygon fill="#666666" stroke="#666666" points="96.5,-91.5 96.5,-91.5 202.5,-91.5 202.5,-91.5 96.5,-91.5"/>
<polygon fill="#666666" stroke="#666666" points="96.5,-76.5 96.5,-76.5 202.5,-76.5 202.5,-76.5 96.5,-76.5"/>
<polygon fill="none" stroke="#666666" points="96.5,0 96.5,-109 202.5,-109 202.5,0 96.5,0"/>
</a>
</g>
</g>
<!-- Node2 -->
<g id="Node000002" class="node">
<title>Node2</title>
<g id="a_Node000002"><a xlink:href="classSensor.html" target="_top" xlink:title="Parent class for sensor objects.">
<polygon fill="white" stroke="transparent" points="161,-355 28,-355 28,-156 161,-156 161,-355"/>
<text text-anchor="start" x="78" y="-342.5" font-family="Helvetica,sans-Serif" font-size="10.00">Sensor</text>
<text text-anchor="start" x="93" y="-327.5" font-family="Helvetica,sans-Serif" font-size="10.00"> </text>
<text text-anchor="start" x="32.5" y="-312.5" font-family="Helvetica,sans-Serif" font-size="10.00">+</text>
<text text-anchor="start" x="45.5" y="-312.5" font-family="Helvetica,sans-Serif" font-size="10.00">Sensor()</text>
<text text-anchor="start" x="32.5" y="-297.5" font-family="Helvetica,sans-Serif" font-size="10.00">+</text>
<text text-anchor="start" x="45.5" y="-297.5" font-family="Helvetica,sans-Serif" font-size="10.00">Sensor()</text>
<text text-anchor="start" x="32.5" y="-282.5" font-family="Helvetica,sans-Serif" font-size="10.00">+</text>
<text text-anchor="start" x="45.5" y="-282.5" font-family="Helvetica,sans-Serif" font-size="10.00">Sensor()</text>
<text text-anchor="start" x="32.5" y="-267.5" font-family="Helvetica,sans-Serif" font-size="10.00">+</text>
<text text-anchor="start" x="45.5" y="-267.5" font-family="Helvetica,sans-Serif" font-size="10.00">Sensor()</text>
<text text-anchor="start" x="32.5" y="-252.5" font-family="Helvetica,sans-Serif" font-size="10.00">+</text>
<text text-anchor="start" x="45.5" y="-252.5" font-family="Helvetica,sans-Serif" font-size="10.00">getPeriod()</text>
<text text-anchor="start" x="32.5" y="-237.5" font-family="Helvetica,sans-Serif" font-size="10.00">+</text>
<text text-anchor="start" x="45.5" y="-237.5" font-family="Helvetica,sans-Serif" font-size="10.00">setPeriod()</text>
<text text-anchor="start" x="32.5" y="-222.5" font-family="Helvetica,sans-Serif" font-size="10.00">+</text>
<text text-anchor="start" x="45.5" y="-222.5" font-family="Helvetica,sans-Serif" font-size="10.00">getLastExecution()</text>
<text text-anchor="start" x="32.5" y="-207.5" font-family="Helvetica,sans-Serif" font-size="10.00">+</text>
<text text-anchor="start" x="45.5" y="-207.5" font-family="Helvetica,sans-Serif" font-size="10.00">setLastExecution()</text>
<text text-anchor="start" x="32.5" y="-192.5" font-family="Helvetica,sans-Serif" font-size="10.00">+</text>
<text text-anchor="start" x="45.5" y="-192.5" font-family="Helvetica,sans-Serif" font-size="10.00">getSensorName()</text>
<text text-anchor="start" x="32.5" y="-177.5" font-family="Helvetica,sans-Serif" font-size="10.00">+</text>
<text text-anchor="start" x="45.5" y="-177.5" font-family="Helvetica,sans-Serif" font-size="10.00">getSensorCSVHeader()</text>
<text text-anchor="start" x="45.5" y="-162.5" font-family="Helvetica,sans-Serif" font-size="10.00">and 7 more...</text>
<polygon fill="#666666" stroke="#666666" points="28.5,-337.5 28.5,-337.5 161.5,-337.5 161.5,-337.5 28.5,-337.5"/>
<polygon fill="#666666" stroke="#666666" points="28.5,-322.5 28.5,-322.5 161.5,-322.5 161.5,-322.5 28.5,-322.5"/>
<polygon fill="none" stroke="#666666" points="28,-156 28,-355 161,-355 161,-156 28,-156"/>
</a>
</g>
</g>
<!-- Node2&#45;&gt;Node1 -->
<g id="edge1_Node000001_Node000002" class="edge">
<title>Node2&#45;&gt;Node1</title>
<g id="a_edge1_Node000001_Node000002"><a xlink:title=" ">
<path fill="none" stroke="#63b8ff" d="M124.47,-146.06C128.01,-133.25 131.49,-120.65 134.69,-109.1"/>
<polygon fill="none" stroke="#63b8ff" points="121.05,-145.3 121.76,-155.87 127.8,-147.17 121.05,-145.3"/>
</a>
</g>
</g>
<!-- Node3 -->
<g id="Node000003" class="node">
<title>Node3</title>
<g id="a_Node000003"><a xlink:title=" ">
<polygon fill="white" stroke="transparent" points="79,-473 0,-473 0,-424 79,-424 79,-473"/>
<text text-anchor="start" x="5.5" y="-460.5" font-family="Helvetica,sans-Serif" font-size="10.00">unsigned long</text>
<text text-anchor="start" x="38" y="-445.5" font-family="Helvetica,sans-Serif" font-size="10.00"> </text>
<text text-anchor="start" x="38" y="-430.5" font-family="Helvetica,sans-Serif" font-size="10.00"> </text>
<polygon fill="#666666" stroke="#666666" points="0.5,-455.5 0.5,-455.5 79.5,-455.5 79.5,-455.5 0.5,-455.5"/>
<polygon fill="#666666" stroke="#666666" points="0.5,-440.5 0.5,-440.5 79.5,-440.5 79.5,-440.5 0.5,-440.5"/>
<polygon fill="none" stroke="#666666" points="0,-424 0,-473 79,-473 79,-424 0,-424"/>
</a>
</g>
</g>
<!-- Node3&#45;&gt;Node2 -->
<g id="edge2_Node000002_Node000003" class="edge">
<title>Node3&#45;&gt;Node2</title>
<g id="a_edge2_Node000002_Node000003"><a xlink:title=" ">
<path fill="none" stroke="#63b8ff" d="M37.31,-423.71C36.56,-408.94 36.71,-389.65 40.5,-373 40.96,-370.98 41.46,-368.96 41.99,-366.93"/>
<polygon fill="none" stroke="#63b8ff" points="42.02,-366.82 39.86,-359.94 45.38,-355.3 47.54,-362.18 42.02,-366.82"/>
</a>
</g>
<text text-anchor="middle" x="84.5" y="-392.5" font-family="Helvetica,sans-Serif" font-size="10.00" fill="grey"> &#45;last_execution</text>
<text text-anchor="middle" x="84.5" y="-381.5" font-family="Helvetica,sans-Serif" font-size="10.00" fill="grey">&#45;minimum_period</text>
</g>
<!-- Node4 -->
<g id="Node000004" class="node">
<title>Node4</title>
<g id="a_Node000004"><a xlink:title=" ">
<polygon fill="white" stroke="transparent" points="170,-473 131,-473 131,-424 170,-424 170,-473"/>
<text text-anchor="start" x="136.5" y="-460.5" font-family="Helvetica,sans-Serif" font-size="10.00">String</text>
<text text-anchor="start" x="149" y="-445.5" font-family="Helvetica,sans-Serif" font-size="10.00"> </text>
<text text-anchor="start" x="149" y="-430.5" font-family="Helvetica,sans-Serif" font-size="10.00"> </text>
<polygon fill="#666666" stroke="#666666" points="131.5,-455.5 131.5,-455.5 170.5,-455.5 170.5,-455.5 131.5,-455.5"/>
<polygon fill="#666666" stroke="#666666" points="131.5,-440.5 131.5,-440.5 170.5,-440.5 170.5,-440.5 131.5,-440.5"/>
<polygon fill="none" stroke="#666666" points="131,-424 131,-473 170,-473 170,-424 131,-424"/>
</a>
</g>
</g>
<!-- Node4&#45;&gt;Node2 -->
<g id="edge3_Node000002_Node000004" class="edge">
<title>Node4&#45;&gt;Node2</title>
<g id="a_edge3_Node000002_Node000004"><a xlink:title=" ">
<path fill="none" stroke="#63b8ff" d="M143.52,-423.7C139.15,-408.78 133.16,-388.36 126.87,-366.91"/>
<polygon fill="none" stroke="#63b8ff" points="126.83,-366.78 121.31,-362.15 123.46,-355.27 128.99,-359.9 126.83,-366.78"/>
</a>
</g>
<text text-anchor="middle" x="172.5" y="-398" font-family="Helvetica,sans-Serif" font-size="10.00" fill="grey"> &#45;csv_header</text>
<text text-anchor="middle" x="172.5" y="-387" font-family="Helvetica,sans-Serif" font-size="10.00" fill="grey">&#45;empty_csv</text>
<text text-anchor="middle" x="172.5" y="-376" font-family="Helvetica,sans-Serif" font-size="10.00" fill="grey">&#45;sensor_name</text>
</g>
<!-- Node5 -->
<g id="Node000005" class="node">
<title>Node5</title>
<g id="a_Node000005"><a xlink:title=" ">
<polygon fill="white" stroke="transparent" points="229.5,-280 179.5,-280 179.5,-231 229.5,-231 229.5,-280"/>
<text text-anchor="start" x="184.5" y="-267.5" font-family="Helvetica,sans-Serif" font-size="10.00">BME280</text>
<text text-anchor="start" x="202.5" y="-252.5" font-family="Helvetica,sans-Serif" font-size="10.00"> </text>
<text text-anchor="start" x="202.5" y="-237.5" font-family="Helvetica,sans-Serif" font-size="10.00"> </text>
<polygon fill="#666666" stroke="#666666" points="179.5,-262.5 179.5,-262.5 229.5,-262.5 229.5,-262.5 179.5,-262.5"/>
<polygon fill="#666666" stroke="#666666" points="179.5,-247.5 179.5,-247.5 229.5,-247.5 229.5,-247.5 179.5,-247.5"/>
<polygon fill="none" stroke="#666666" points="179.5,-231 179.5,-280 229.5,-280 229.5,-231 179.5,-231"/>
</a>
</g>
</g>
<!-- Node5&#45;&gt;Node1 -->
<g id="edge4_Node000001_Node000005" class="edge">
<title>Node5&#45;&gt;Node1</title>
<g id="a_edge4_Node000001_Node000005"><a xlink:title=" ">
<path fill="none" stroke="#63b8ff" d="M197.97,-230.89C190.55,-204.04 178.12,-159.04 167.7,-121.35"/>
<polygon fill="none" stroke="#63b8ff" points="167.59,-120.97 162.14,-116.25 164.4,-109.4 169.85,-114.12 167.59,-120.97"/>
</a>
</g>
<text text-anchor="middle" x="186" y="-130" font-family="Helvetica,sans-Serif" font-size="10.00" fill="grey"> &#45;bme</text>
</g>
</g>
</svg>
