<?xml version="1.0" encoding="UTF-8" standalone="no"?>
<!DOCTYPE svg PUBLIC "-//W3C//DTD SVG 1.1//EN"
 "http://www.w3.org/Graphics/SVG/1.1/DTD/svg11.dtd">
<!-- Generated by graphviz version 2.43.0 (0)
 -->
<!-- Title: FlashStorage::writeFileHeader Pages: 1 -->
<svg width="889pt" height="82pt"
 viewBox="0.00 0.00 889.00 82.00" xmlns="http://www.w3.org/2000/svg" xmlns:xlink="http://www.w3.org/1999/xlink">
<g id="graph0" class="graph" transform="scale(1 1) rotate(0) translate(4 78)">
<title>FlashStorage::writeFileHeader</title>
<!-- Node1 -->
<g id="Node000001" class="node">
<title>Node1</title>
<g id="a_Node000001"><a xlink:title="Writes the file header to the start of a new sector.">
<polygon fill="#999999" stroke="#666666" points="881,-55 717,-55 717,-36 881,-36 881,-55"/>
<text text-anchor="middle" x="799" y="-43" font-family="Helvetica,sans-Serif" font-size="10.00">FlashStorage::writeFileHeader</text>
</a>
</g>
</g>
<!-- Node2 -->
<g id="Node000002" class="node">
<title>Node2</title>
<g id="a_Node000002"><a xlink:href="classFlashStorage.html#a7354ff496fb0a6c4148d1328b4048d46" target="_top" xlink:title="Writes a string to flash atomically.">
<polygon fill="white" stroke="#666666" points="681,-74 535,-74 535,-55 681,-55 681,-74"/>
<text text-anchor="middle" x="608" y="-62" font-family="Helvetica,sans-Serif" font-size="10.00">FlashStorage::atomicStore</text>
</a>
</g>
</g>
<!-- Node1&#45;&gt;Node2 -->
<g id="edge1_Node000001_Node000002" class="edge">
<title>Node1&#45;&gt;Node2</title>
<g id="a_edge1_Node000001_Node000002"><a xlink:title=" ">
<path fill="none" stroke="#63b8ff" d="M706.74,-54.67C698.18,-55.53 689.59,-56.4 681.24,-57.24"/>
<polygon fill="#63b8ff" stroke="#63b8ff" points="707.15,-58.15 716.75,-53.67 706.45,-51.19 707.15,-58.15"/>
</a>
</g>
</g>
<!-- Node3 -->
<g id="Node000003" class="node">
<title>Node3</title>
<g id="a_Node000003"><a xlink:href="classFlashStorage.html#a959ed7240cf70430f05686720e1ead5a" target="_top" xlink:title="Locates the next available file block &amp; tracks existing files.">
<polygon fill="white" stroke="#666666" points="678,-37 538,-37 538,-18 678,-18 678,-37"/>
<text text-anchor="middle" x="608" y="-25" font-family="Helvetica,sans-Serif" font-size="10.00">FlashStorage::indexFlash</text>
</a>
</g>
</g>
<!-- Node1&#45;&gt;Node3 -->
<g id="edge2_Node000001_Node000003" class="edge">
<title>Node1&#45;&gt;Node3</title>
<g id="a_edge2_Node000001_Node000003"><a xlink:title=" ">
<path fill="none" stroke="#63b8ff" d="M706.72,-36.81C697.06,-35.89 687.35,-34.96 678.01,-34.07"/>
<polygon fill="#63b8ff" stroke="#63b8ff" points="706.46,-40.3 716.75,-37.76 707.13,-33.33 706.46,-40.3"/>
</a>
</g>
</g>
<!-- Node4 -->
<g id="Node000004" class="node">
<title>Node4</title>
<g id="a_Node000004"><a xlink:href="classFlashStorage.html#ad024a499e7eb8774a26f46369f50ad05" target="_top" xlink:title=" ">
<polygon fill="white" stroke="#666666" points="499,-56 361,-56 361,-37 499,-37 499,-56"/>
<text text-anchor="middle" x="430" y="-44" font-family="Helvetica,sans-Serif" font-size="10.00">FlashStorage::reinitFlash</text>
</a>
</g>
</g>
<!-- Node3&#45;&gt;Node4 -->
<g id="edge3_Node000003_Node000004" class="edge">
<title>Node3&#45;&gt;Node4</title>
<g id="a_edge3_Node000003_Node000004"><a xlink:title=" ">
<path fill="none" stroke="#63b8ff" d="M527.72,-36.06C518.23,-37.08 508.6,-38.12 499.28,-39.13"/>
<polygon fill="#63b8ff" stroke="#63b8ff" points="528.38,-39.51 537.95,-34.95 527.63,-32.55 528.38,-39.51"/>
</a>
</g>
</g>
<!-- Node8 -->
<g id="Node000008" class="node">
<title>Node8</title>
<g id="a_Node000008"><a xlink:href="classFlashStorage.html#addf2a0a14a0a92ccce2d55eac60282e4" target="_top" xlink:title="Verifies the flash connection and prepares for data storage.">
<polygon fill="white" stroke="#666666" points="487,-19 373,-19 373,0 487,0 487,-19"/>
<text text-anchor="middle" x="430" y="-7" font-family="Helvetica,sans-Serif" font-size="10.00">FlashStorage::verify</text>
</a>
</g>
</g>
<!-- Node3&#45;&gt;Node8 -->
<g id="edge8_Node000003_Node000008" class="edge">
<title>Node3&#45;&gt;Node8</title>
<g id="a_edge8_Node000003_Node000008"><a xlink:title=" ">
<path fill="none" stroke="#63b8ff" d="M527.98,-19.42C514.19,-18.01 500.11,-16.57 487.1,-15.24"/>
<polygon fill="#63b8ff" stroke="#63b8ff" points="527.64,-22.9 537.95,-20.44 528.35,-15.94 527.64,-22.9"/>
</a>
</g>
</g>
<!-- Node5 -->
<g id="Node000005" class="node">
<title>Node5</title>
<g id="a_Node000005"><a xlink:href="main1_8cpp.html#a5d5c43a90af6e8b0e11c818a7e1681e7" target="_top" xlink:title="Loop for core 1.">
<polygon fill="white" stroke="#666666" points="148,-56 80,-56 80,-37 148,-37 148,-56"/>
<text text-anchor="middle" x="114" y="-44" font-family="Helvetica,sans-Serif" font-size="10.00">real_loop1</text>
</a>
</g>
</g>
<!-- Node4&#45;&gt;Node5 -->
<g id="edge4_Node000004_Node000005" class="edge">
<title>Node4&#45;&gt;Node5</title>
<g id="a_edge4_Node000004_Node000005"><a xlink:title=" ">
<path fill="none" stroke="#63b8ff" d="M350.64,-46.5C285.52,-46.5 196.08,-46.5 148.3,-46.5"/>
<polygon fill="#63b8ff" stroke="#63b8ff" points="350.87,-50 360.87,-46.5 350.87,-43 350.87,-50"/>
</a>
</g>
</g>
<!-- Node7 -->
<g id="Node000007" class="node">
<title>Node7</title>
<g id="a_Node000007"><a xlink:href="classFlashStorage.html#ad8daa31feba03cb7d02efb3124962f20" target="_top" xlink:title="Deletes a file by erasing the sectors it occupies.">
<polygon fill="white" stroke="#666666" points="325,-37 184,-37 184,-18 325,-18 325,-37"/>
<text text-anchor="middle" x="254.5" y="-25" font-family="Helvetica,sans-Serif" font-size="10.00">FlashStorage::removeFile</text>
</a>
</g>
</g>
<!-- Node4&#45;&gt;Node7 -->
<g id="edge6_Node000004_Node000007" class="edge">
<title>Node4&#45;&gt;Node7</title>
<g id="a_edge6_Node000004_Node000007"><a xlink:title=" ">
<path fill="none" stroke="#63b8ff" d="M350.9,-37.95C342.3,-37.01 333.58,-36.05 325.09,-35.12"/>
<polygon fill="#63b8ff" stroke="#63b8ff" points="350.6,-41.44 360.93,-39.05 351.37,-34.48 350.6,-41.44"/>
</a>
</g>
</g>
<!-- Node6 -->
<g id="Node000006" class="node">
<title>Node6</title>
<g id="a_Node000006"><a xlink:href="main_8cpp.html#a39ceba300a80e348e278539f57e0ca79" target="_top" xlink:title=" ">
<polygon fill="white" stroke="#666666" points="44,-56 0,-56 0,-37 44,-37 44,-56"/>
<text text-anchor="middle" x="22" y="-44" font-family="Helvetica,sans-Serif" font-size="10.00">loop1</text>
</a>
</g>
</g>
<!-- Node5&#45;&gt;Node6 -->
<g id="edge5_Node000005_Node000006" class="edge">
<title>Node5&#45;&gt;Node6</title>
<g id="a_edge5_Node000005_Node000006"><a xlink:title=" ">
<path fill="none" stroke="#63b8ff" d="M69.72,-46.5C60.86,-46.5 51.9,-46.5 44.24,-46.5"/>
<polygon fill="#63b8ff" stroke="#63b8ff" points="70,-50 80,-46.5 70,-43 70,-50"/>
</a>
</g>
</g>
<!-- Node7&#45;&gt;Node5 -->
<g id="edge7_Node000007_Node000005" class="edge">
<title>Node7&#45;&gt;Node5</title>
<g id="a_edge7_Node000007_Node000005"><a xlink:title=" ">
<path fill="none" stroke="#63b8ff" d="M173.71,-38.45C164.8,-39.67 156.13,-40.86 148.3,-41.93"/>
<polygon fill="#63b8ff" stroke="#63b8ff" points="174.41,-41.88 183.84,-37.06 173.46,-34.95 174.41,-41.88"/>
</a>
</g>
</g>
</g>
</svg>
