<?xml version="1.0" encoding="UTF-8" standalone="no"?>
<!DOCTYPE svg PUBLIC "-//W3C//DTD SVG 1.1//EN"
 "http://www.w3.org/Graphics/SVG/1.1/DTD/svg11.dtd">
<!-- Generated by graphviz version 2.43.0 (0)
 -->
<!-- Title: Sensor::readEmpty Pages: 1 -->
<svg width="430pt" height="180pt"
 viewBox="0.00 0.00 430.00 180.00" xmlns="http://www.w3.org/2000/svg" xmlns:xlink="http://www.w3.org/1999/xlink">
<g id="graph0" class="graph" transform="scale(1 1) rotate(0) translate(4 176)">
<title>Sensor::readEmpty</title>
<!-- Node1 -->
<g id="node1" class="node">
<title>Node1</title>
<g id="a_node1"><a xlink:title="Returns CSV line in the same format as readData() but with &quot;&#45;&quot; instead of data.">
<polygon fill="#bfbfbf" stroke="black" points="313,-76.5 313,-95.5 422,-95.5 422,-76.5 313,-76.5"/>
<text text-anchor="middle" x="367.5" y="-83.5" font-family="Helvetica,sans-Serif" font-size="10.00">Sensor::readEmpty</text>
</a>
</g>
</g>
<!-- Node2 -->
<g id="node2" class="node">
<title>Node2</title>
<g id="a_node2"><a xlink:href="main_8cpp.html#a9163644b089001958496a71b73b9091a" target="_top" xlink:title="Decodes the packet to a CSV row.">
<polygon fill="none" stroke="black" points="162,-152.5 162,-171.5 246,-171.5 246,-152.5 162,-152.5"/>
<text text-anchor="middle" x="204" y="-159.5" font-family="Helvetica,sans-Serif" font-size="10.00">decodePacket</text>
</a>
</g>
</g>
<!-- Node1&#45;&gt;Node2 -->
<g id="edge1" class="edge">
<title>Node1&#45;&gt;Node2</title>
<path fill="none" stroke="midnightblue" d="M345.85,-101.78C328.35,-114.49 302.15,-131.99 277,-143 267.29,-147.25 256.41,-150.73 246.11,-153.49"/>
<polygon fill="midnightblue" stroke="midnightblue" points="348.2,-104.39 354.16,-95.63 344.04,-98.76 348.2,-104.39"/>
</g>
<!-- Node3 -->
<g id="node3" class="node">
<title>Node3</title>
<g id="a_node3"><a xlink:href="classSensor.html#a2d5ecda6a046ddba40d0e37921226d2f" target="_top" xlink:title="Uses readData and readEmpty to get the data&#45;filled or empty&#45;celled CSV line for the sensor.">
<polygon fill="none" stroke="black" points="147,-114.5 147,-133.5 261,-133.5 261,-114.5 147,-114.5"/>
<text text-anchor="middle" x="204" y="-121.5" font-family="Helvetica,sans-Serif" font-size="10.00">Sensor::getDataCSV</text>
</a>
</g>
</g>
<!-- Node1&#45;&gt;Node3 -->
<g id="edge2" class="edge">
<title>Node1&#45;&gt;Node3</title>
<path fill="none" stroke="midnightblue" d="M315.94,-97.9C293.24,-103.24 266.82,-109.45 245.46,-114.48"/>
<polygon fill="midnightblue" stroke="midnightblue" points="316.81,-101.29 325.75,-95.59 315.21,-94.47 316.81,-101.29"/>
</g>
<!-- Node5 -->
<g id="node5" class="node">
<title>Node5</title>
<g id="a_node5"><a xlink:href="classBMP390Sensor.html#ae0499577320b347c8fccf855193c57ac" target="_top" xlink:title="Reads data to a csv stub.">
<polygon fill="none" stroke="black" points="134,-76.5 134,-95.5 274,-95.5 274,-76.5 134,-76.5"/>
<text text-anchor="middle" x="204" y="-83.5" font-family="Helvetica,sans-Serif" font-size="10.00">BMP390Sensor::readData</text>
</a>
</g>
</g>
<!-- Node1&#45;&gt;Node5 -->
<g id="edge4" class="edge">
<title>Node1&#45;&gt;Node5</title>
<path fill="none" stroke="midnightblue" d="M302.67,-86C293.28,-86 283.56,-86 274.06,-86"/>
<polygon fill="midnightblue" stroke="midnightblue" points="302.72,-89.5 312.72,-86 302.72,-82.5 302.72,-89.5"/>
</g>
<!-- Node6 -->
<g id="node6" class="node">
<title>Node6</title>
<g id="a_node6"><a xlink:href="classENS160Sensor.html#aac8ea849d26c4a6a567924805d378990" target="_top" xlink:title="Reads Air Quality Index, TVOC (ppb), and ECOS (ppm)">
<polygon fill="none" stroke="black" points="135,-38.5 135,-57.5 273,-57.5 273,-38.5 135,-38.5"/>
<text text-anchor="middle" x="204" y="-45.5" font-family="Helvetica,sans-Serif" font-size="10.00">ENS160Sensor::readData</text>
</a>
</g>
</g>
<!-- Node1&#45;&gt;Node6 -->
<g id="edge5" class="edge">
<title>Node1&#45;&gt;Node6</title>
<path fill="none" stroke="midnightblue" d="M315.94,-74.1C293.24,-68.76 266.82,-62.55 245.46,-57.52"/>
<polygon fill="midnightblue" stroke="midnightblue" points="315.21,-77.53 325.75,-76.41 316.81,-70.71 315.21,-77.53"/>
</g>
<!-- Node7 -->
<g id="node7" class="node">
<title>Node7</title>
<g id="a_node7"><a xlink:href="classMTK3339Sensor.html#a632c895115930d476540fed7d6537635" target="_top" xlink:title="Reads and returns data from the MTK3339 GPS corresponding to the CSV header.">
<polygon fill="none" stroke="black" points="131,-0.5 131,-19.5 277,-19.5 277,-0.5 131,-0.5"/>
<text text-anchor="middle" x="204" y="-7.5" font-family="Helvetica,sans-Serif" font-size="10.00">MTK3339Sensor::readData</text>
</a>
</g>
</g>
<!-- Node1&#45;&gt;Node7 -->
<g id="edge6" class="edge">
<title>Node1&#45;&gt;Node7</title>
<path fill="none" stroke="midnightblue" d="M345.85,-70.22C328.35,-57.51 302.15,-40.01 277,-29 268.47,-25.27 259.05,-22.13 249.9,-19.55"/>
<polygon fill="midnightblue" stroke="midnightblue" points="344.04,-73.24 354.16,-76.37 348.2,-67.61 344.04,-73.24"/>
</g>
<!-- Node4 -->
<g id="node4" class="node">
<title>Node4</title>
<g id="a_node4"><a xlink:href="main_8cpp.html#a9db5e6113d9a0bd03a1b044059ae787b" target="_top" xlink:title="Read data from each verified Sensor.">
<polygon fill="none" stroke="black" points="0,-114.5 0,-133.5 95,-133.5 95,-114.5 0,-114.5"/>
<text text-anchor="middle" x="47.5" y="-121.5" font-family="Helvetica,sans-Serif" font-size="10.00">readSensorData</text>
</a>
</g>
</g>
<!-- Node3&#45;&gt;Node4 -->
<g id="edge3" class="edge">
<title>Node3&#45;&gt;Node4</title>
<path fill="none" stroke="midnightblue" d="M136.74,-124C122.78,-124 108.34,-124 95.28,-124"/>
<polygon fill="midnightblue" stroke="midnightblue" points="136.78,-127.5 146.78,-124 136.78,-120.5 136.78,-127.5"/>
</g>
</g>
</svg>
