<?xml version="1.0" encoding="UTF-8" standalone="no"?>
<!DOCTYPE svg PUBLIC "-//W3C//DTD SVG 1.1//EN"
 "http://www.w3.org/Graphics/SVG/1.1/DTD/svg11.dtd">
<!-- Generated by graphviz version 2.43.0 (0)
 -->
<!-- Title: ErrorDisplay::addCode Pages: 1 -->
<svg width="385pt" height="175pt"
 viewBox="0.00 0.00 385.00 175.00" xmlns="http://www.w3.org/2000/svg" xmlns:xlink="http://www.w3.org/1999/xlink">
<g id="graph0" class="graph" transform="scale(1 1) rotate(0) translate(4 171)">
<title>ErrorDisplay::addCode</title>
<!-- Node1 -->
<g id="Node000001" class="node">
<title>Node1</title>
<g id="a_Node000001"><a xlink:title="Sets the error code to the given value if the given error is of a higher priority then the current er...">
<polygon fill="#999999" stroke="#666666" points="377,-93 252,-93 252,-74 377,-74 377,-93"/>
<text text-anchor="middle" x="314.5" y="-81" font-family="Helvetica,sans-Serif" font-size="10.00">ErrorDisplay::addCode</text>
</a>
</g>
</g>
<!-- Node2 -->
<g id="Node000002" class="node">
<title>Node2</title>
<g id="a_Node000002"><a xlink:href="main1_8cpp.html#a335f1df8d0b267769cb9842c12616214" target="_top" xlink:title="Setup for core 1.">
<polygon fill="white" stroke="#666666" points="188,-167 114,-167 114,-148 188,-148 188,-167"/>
<text text-anchor="middle" x="151" y="-155" font-family="Helvetica,sans-Serif" font-size="10.00">real_setup1</text>
</a>
</g>
</g>
<!-- Node1&#45;&gt;Node2 -->
<g id="edge1_Node000001_Node000002" class="edge">
<title>Node1&#45;&gt;Node2</title>
<g id="a_edge1_Node000001_Node000002"><a xlink:title=" ">
<path fill="none" stroke="#63b8ff" d="M290.9,-98.63C271.65,-110.99 242.91,-128.19 216,-139.5 207.17,-143.21 197.34,-146.41 188.08,-149.03"/>
<polygon fill="#63b8ff" stroke="#63b8ff" points="293.07,-101.4 299.54,-93.01 289.25,-95.53 293.07,-101.4"/>
</a>
</g>
</g>
<!-- Node4 -->
<g id="Node000004" class="node">
<title>Node4</title>
<g id="a_Node000004"><a xlink:href="main_8cpp.html#a4fc01d736fe50cf5b977f755b675f11d" target="_top" xlink:title="Setup for core 0.">
<polygon fill="white" stroke="#666666" points="173,-130 129,-130 129,-111 173,-111 173,-130"/>
<text text-anchor="middle" x="151" y="-118" font-family="Helvetica,sans-Serif" font-size="10.00">setup</text>
</a>
</g>
</g>
<!-- Node1&#45;&gt;Node4 -->
<g id="edge3_Node000001_Node000004" class="edge">
<title>Node1&#45;&gt;Node4</title>
<g id="a_edge3_Node000001_Node000004"><a xlink:title=" ">
<path fill="none" stroke="#63b8ff" d="M261.99,-95.3C231.94,-102.19 195.64,-110.5 173.19,-115.65"/>
<polygon fill="#63b8ff" stroke="#63b8ff" points="262.94,-98.67 271.91,-93.03 261.38,-91.85 262.94,-98.67"/>
</a>
</g>
</g>
<!-- Node5 -->
<g id="Node000005" class="node">
<title>Node5</title>
<g id="a_Node000005"><a xlink:href="classSDStorage.html#a731b7e40012d3ab63bbf2ae0afe2d800" target="_top" xlink:title="Store data on the SD card, ending with newline.">
<polygon fill="white" stroke="#666666" points="200,-93 102,-93 102,-74 200,-74 200,-93"/>
<text text-anchor="middle" x="151" y="-81" font-family="Helvetica,sans-Serif" font-size="10.00">SDStorage::store</text>
</a>
</g>
</g>
<!-- Node1&#45;&gt;Node5 -->
<g id="edge4_Node000001_Node000005" class="edge">
<title>Node1&#45;&gt;Node5</title>
<g id="a_edge4_Node000001_Node000005"><a xlink:title=" ">
<path fill="none" stroke="#63b8ff" d="M241.79,-83.5C227.66,-83.5 213.15,-83.5 200.04,-83.5"/>
<polygon fill="#63b8ff" stroke="#63b8ff" points="241.98,-87 251.98,-83.5 241.98,-80 241.98,-87"/>
</a>
</g>
</g>
<!-- Node6 -->
<g id="Node000006" class="node">
<title>Node6</title>
<g id="a_Node000006"><a xlink:href="classSDStorage.html#a2f5cfea215ba9e388fcc37b2376e47b0" target="_top" xlink:title="Store data on the SD card.">
<polygon fill="white" stroke="#666666" points="216,-56 86,-56 86,-37 216,-37 216,-56"/>
<text text-anchor="middle" x="151" y="-44" font-family="Helvetica,sans-Serif" font-size="10.00">SDStorage::storePacket</text>
</a>
</g>
</g>
<!-- Node1&#45;&gt;Node6 -->
<g id="edge5_Node000001_Node000006" class="edge">
<title>Node1&#45;&gt;Node6</title>
<g id="a_edge5_Node000001_Node000006"><a xlink:title=" ">
<path fill="none" stroke="#63b8ff" d="M262.05,-71.71C240,-66.66 214.58,-60.84 193.73,-56.06"/>
<polygon fill="#63b8ff" stroke="#63b8ff" points="261.38,-75.15 271.91,-73.97 262.94,-68.33 261.38,-75.15"/>
</a>
</g>
</g>
<!-- Node7 -->
<g id="Node000007" class="node">
<title>Node7</title>
<g id="a_Node000007"><a xlink:href="classSDStorage.html#af3c32c732ded4f54f72ec81ab22531d2" target="_top" xlink:title="Verify SD card connection and create a new, unique file.">
<polygon fill="white" stroke="#666666" points="201.5,-19 100.5,-19 100.5,0 201.5,0 201.5,-19"/>
<text text-anchor="middle" x="151" y="-7" font-family="Helvetica,sans-Serif" font-size="10.00">SDStorage::verify</text>
</a>
</g>
</g>
<!-- Node1&#45;&gt;Node7 -->
<g id="edge6_Node000001_Node000007" class="edge">
<title>Node1&#45;&gt;Node7</title>
<g id="a_edge6_Node000001_Node000007"><a xlink:title=" ">
<path fill="none" stroke="#63b8ff" d="M290.15,-68.34C270.86,-56.32 242.45,-39.72 216,-28.5 207.57,-24.93 198.25,-21.75 189.39,-19.06"/>
<polygon fill="#63b8ff" stroke="#63b8ff" points="288.51,-71.45 298.84,-73.84 292.25,-65.53 288.51,-71.45"/>
</a>
</g>
</g>
<!-- Node3 -->
<g id="Node000003" class="node">
<title>Node3</title>
<g id="a_Node000003"><a xlink:href="main_8cpp.html#ac764ee28e2916a7de10b22927e02d1a4" target="_top" xlink:title=" ">
<polygon fill="white" stroke="#666666" points="50,-167 0,-167 0,-148 50,-148 50,-167"/>
<text text-anchor="middle" x="25" y="-155" font-family="Helvetica,sans-Serif" font-size="10.00">setup1</text>
</a>
</g>
</g>
<!-- Node2&#45;&gt;Node3 -->
<g id="edge2_Node000002_Node000003" class="edge">
<title>Node2&#45;&gt;Node3</title>
<g id="a_edge2_Node000002_Node000003"><a xlink:title=" ">
<path fill="none" stroke="#63b8ff" d="M103.67,-157.5C85.53,-157.5 65.46,-157.5 50.27,-157.5"/>
<polygon fill="#63b8ff" stroke="#63b8ff" points="103.8,-161 113.8,-157.5 103.8,-154 103.8,-161"/>
</a>
</g>
</g>
</g>
</svg>
