<?xml version="1.0" encoding="UTF-8" standalone="no"?>
<!DOCTYPE svg PUBLIC "-//W3C//DTD SVG 1.1//EN"
 "http://www.w3.org/Graphics/SVG/1.1/DTD/svg11.dtd">
<!-- Generated by graphviz version 2.43.0 (0)
 -->
<!-- Title: INA260Sensor Pages: 1 -->
<svg width="278pt" height="466pt"
 viewBox="0.00 0.00 277.50 466.00" xmlns="http://www.w3.org/2000/svg" xmlns:xlink="http://www.w3.org/1999/xlink">
<g id="graph0" class="graph" transform="scale(1 1) rotate(0) translate(4 462)">
<title>INA260Sensor</title>
<!-- Node1 -->
<g id="Node000001" class="node">
<title>Node1</title>
<g id="a_Node000001"><a xlink:title="A class to interface with the Adafruit INA260 sensor for current, voltage, and power measurements.">
<polygon fill="#999999" stroke="transparent" points="208,-94 111,-94 111,0 208,0 208,-94"/>
<text text-anchor="start" x="125.5" y="-82" font-family="Helvetica,sans-Serif" font-size="10.00">INA260Sensor</text>
<text text-anchor="start" x="158" y="-67" font-family="Helvetica,sans-Serif" font-size="10.00"> </text>
<text text-anchor="start" x="115.5" y="-52" font-family="Helvetica,sans-Serif" font-size="10.00">+</text>
<text text-anchor="start" x="128.5" y="-52" font-family="Helvetica,sans-Serif" font-size="10.00">INA260Sensor()</text>
<text text-anchor="start" x="115.5" y="-37" font-family="Helvetica,sans-Serif" font-size="10.00">+</text>
<text text-anchor="start" x="128.5" y="-37" font-family="Helvetica,sans-Serif" font-size="10.00">INA260Sensor()</text>
<text text-anchor="start" x="115.5" y="-22" font-family="Helvetica,sans-Serif" font-size="10.00">+</text>
<text text-anchor="start" x="128.5" y="-22" font-family="Helvetica,sans-Serif" font-size="10.00">verify()</text>
<text text-anchor="start" x="115.5" y="-7" font-family="Helvetica,sans-Serif" font-size="10.00">+</text>
<text text-anchor="start" x="128.5" y="-7" font-family="Helvetica,sans-Serif" font-size="10.00">readData()</text>
<polygon fill="#666666" stroke="#666666" points="111.5,-77 111.5,-77 208.5,-77 208.5,-77 111.5,-77"/>
<polygon fill="#666666" stroke="#666666" points="111.5,-62 111.5,-62 208.5,-62 208.5,-62 111.5,-62"/>
<polygon fill="none" stroke="#666666" points="111,0 111,-94 208,-94 208,0 111,0"/>
</a>
</g>
</g>
<!-- Node2 -->
<g id="Node000002" class="node">
<title>Node2</title>
<g id="a_Node000002"><a xlink:href="classSensor.html" target="_top" xlink:title="Parent class for sensor objects.">
<polygon fill="white" stroke="transparent" points="161,-340 28,-340 28,-141 161,-141 161,-340"/>
<text text-anchor="start" x="78" y="-327.5" font-family="Helvetica,sans-Serif" font-size="10.00">Sensor</text>
<text text-anchor="start" x="93" y="-312.5" font-family="Helvetica,sans-Serif" font-size="10.00"> </text>
<text text-anchor="start" x="32.5" y="-297.5" font-family="Helvetica,sans-Serif" font-size="10.00">+</text>
<text text-anchor="start" x="45.5" y="-297.5" font-family="Helvetica,sans-Serif" font-size="10.00">Sensor()</text>
<text text-anchor="start" x="32.5" y="-282.5" font-family="Helvetica,sans-Serif" font-size="10.00">+</text>
<text text-anchor="start" x="45.5" y="-282.5" font-family="Helvetica,sans-Serif" font-size="10.00">Sensor()</text>
<text text-anchor="start" x="32.5" y="-267.5" font-family="Helvetica,sans-Serif" font-size="10.00">+</text>
<text text-anchor="start" x="45.5" y="-267.5" font-family="Helvetica,sans-Serif" font-size="10.00">Sensor()</text>
<text text-anchor="start" x="32.5" y="-252.5" font-family="Helvetica,sans-Serif" font-size="10.00">+</text>
<text text-anchor="start" x="45.5" y="-252.5" font-family="Helvetica,sans-Serif" font-size="10.00">Sensor()</text>
<text text-anchor="start" x="32.5" y="-237.5" font-family="Helvetica,sans-Serif" font-size="10.00">+</text>
<text text-anchor="start" x="45.5" y="-237.5" font-family="Helvetica,sans-Serif" font-size="10.00">getPeriod()</text>
<text text-anchor="start" x="32.5" y="-222.5" font-family="Helvetica,sans-Serif" font-size="10.00">+</text>
<text text-anchor="start" x="45.5" y="-222.5" font-family="Helvetica,sans-Serif" font-size="10.00">setPeriod()</text>
<text text-anchor="start" x="32.5" y="-207.5" font-family="Helvetica,sans-Serif" font-size="10.00">+</text>
<text text-anchor="start" x="45.5" y="-207.5" font-family="Helvetica,sans-Serif" font-size="10.00">getLastExecution()</text>
<text text-anchor="start" x="32.5" y="-192.5" font-family="Helvetica,sans-Serif" font-size="10.00">+</text>
<text text-anchor="start" x="45.5" y="-192.5" font-family="Helvetica,sans-Serif" font-size="10.00">setLastExecution()</text>
<text text-anchor="start" x="32.5" y="-177.5" font-family="Helvetica,sans-Serif" font-size="10.00">+</text>
<text text-anchor="start" x="45.5" y="-177.5" font-family="Helvetica,sans-Serif" font-size="10.00">getSensorName()</text>
<text text-anchor="start" x="32.5" y="-162.5" font-family="Helvetica,sans-Serif" font-size="10.00">+</text>
<text text-anchor="start" x="45.5" y="-162.5" font-family="Helvetica,sans-Serif" font-size="10.00">getSensorCSVHeader()</text>
<text text-anchor="start" x="45.5" y="-147.5" font-family="Helvetica,sans-Serif" font-size="10.00">and 7 more...</text>
<polygon fill="#666666" stroke="#666666" points="28.5,-322.5 28.5,-322.5 161.5,-322.5 161.5,-322.5 28.5,-322.5"/>
<polygon fill="#666666" stroke="#666666" points="28.5,-307.5 28.5,-307.5 161.5,-307.5 161.5,-307.5 28.5,-307.5"/>
<polygon fill="none" stroke="#666666" points="28,-141 28,-340 161,-340 161,-141 28,-141"/>
</a>
</g>
</g>
<!-- Node2&#45;&gt;Node1 -->
<g id="edge1_Node000001_Node000002" class="edge">
<title>Node2&#45;&gt;Node1</title>
<g id="a_edge1_Node000001_Node000002"><a xlink:title=" ">
<path fill="none" stroke="#63b8ff" d="M131.19,-131.41C135.61,-118.38 139.93,-105.66 143.81,-94.23"/>
<polygon fill="none" stroke="#63b8ff" points="127.85,-130.35 127.95,-140.95 134.48,-132.6 127.85,-130.35"/>
</a>
</g>
</g>
<!-- Node3 -->
<g id="Node000003" class="node">
<title>Node3</title>
<g id="a_Node000003"><a xlink:title=" ">
<polygon fill="white" stroke="transparent" points="79,-458 0,-458 0,-409 79,-409 79,-458"/>
<text text-anchor="start" x="5.5" y="-445.5" font-family="Helvetica,sans-Serif" font-size="10.00">unsigned long</text>
<text text-anchor="start" x="38" y="-430.5" font-family="Helvetica,sans-Serif" font-size="10.00"> </text>
<text text-anchor="start" x="38" y="-415.5" font-family="Helvetica,sans-Serif" font-size="10.00"> </text>
<polygon fill="#666666" stroke="#666666" points="0.5,-440.5 0.5,-440.5 79.5,-440.5 79.5,-440.5 0.5,-440.5"/>
<polygon fill="#666666" stroke="#666666" points="0.5,-425.5 0.5,-425.5 79.5,-425.5 79.5,-425.5 0.5,-425.5"/>
<polygon fill="none" stroke="#666666" points="0,-409 0,-458 79,-458 79,-409 0,-409"/>
</a>
</g>
</g>
<!-- Node3&#45;&gt;Node2 -->
<g id="edge2_Node000002_Node000003" class="edge">
<title>Node3&#45;&gt;Node2</title>
<g id="a_edge2_Node000002_Node000003"><a xlink:title=" ">
<path fill="none" stroke="#63b8ff" d="M37.31,-408.71C36.56,-393.94 36.71,-374.65 40.5,-358 40.96,-355.98 41.46,-353.96 41.99,-351.93"/>
<polygon fill="none" stroke="#63b8ff" points="42.02,-351.82 39.86,-344.94 45.38,-340.3 47.54,-347.18 42.02,-351.82"/>
</a>
</g>
<text text-anchor="middle" x="84.5" y="-377.5" font-family="Helvetica,sans-Serif" font-size="10.00" fill="grey"> &#45;last_execution</text>
<text text-anchor="middle" x="84.5" y="-366.5" font-family="Helvetica,sans-Serif" font-size="10.00" fill="grey">&#45;minimum_period</text>
</g>
<!-- Node4 -->
<g id="Node000004" class="node">
<title>Node4</title>
<g id="a_Node000004"><a xlink:title=" ">
<polygon fill="white" stroke="transparent" points="170,-458 131,-458 131,-409 170,-409 170,-458"/>
<text text-anchor="start" x="136.5" y="-445.5" font-family="Helvetica,sans-Serif" font-size="10.00">String</text>
<text text-anchor="start" x="149" y="-430.5" font-family="Helvetica,sans-Serif" font-size="10.00"> </text>
<text text-anchor="start" x="149" y="-415.5" font-family="Helvetica,sans-Serif" font-size="10.00"> </text>
<polygon fill="#666666" stroke="#666666" points="131.5,-440.5 131.5,-440.5 170.5,-440.5 170.5,-440.5 131.5,-440.5"/>
<polygon fill="#666666" stroke="#666666" points="131.5,-425.5 131.5,-425.5 170.5,-425.5 170.5,-425.5 131.5,-425.5"/>
<polygon fill="none" stroke="#666666" points="131,-409 131,-458 170,-458 170,-409 131,-409"/>
</a>
</g>
</g>
<!-- Node4&#45;&gt;Node2 -->
<g id="edge3_Node000002_Node000004" class="edge">
<title>Node4&#45;&gt;Node2</title>
<g id="a_edge3_Node000002_Node000004"><a xlink:title=" ">
<path fill="none" stroke="#63b8ff" d="M143.52,-408.7C139.15,-393.78 133.16,-373.36 126.87,-351.91"/>
<polygon fill="none" stroke="#63b8ff" points="126.83,-351.78 121.31,-347.15 123.46,-340.27 128.99,-344.9 126.83,-351.78"/>
</a>
</g>
<text text-anchor="middle" x="172.5" y="-383" font-family="Helvetica,sans-Serif" font-size="10.00" fill="grey"> &#45;csv_header</text>
<text text-anchor="middle" x="172.5" y="-372" font-family="Helvetica,sans-Serif" font-size="10.00" fill="grey">&#45;empty_csv</text>
<text text-anchor="middle" x="172.5" y="-361" font-family="Helvetica,sans-Serif" font-size="10.00" fill="grey">&#45;sensor_name</text>
</g>
<!-- Node5 -->
<g id="Node000005" class="node">
<title>Node5</title>
<g id="a_Node000005"><a xlink:title=" ">
<polygon fill="white" stroke="transparent" points="269.5,-265 179.5,-265 179.5,-216 269.5,-216 269.5,-265"/>
<text text-anchor="start" x="184.5" y="-252.5" font-family="Helvetica,sans-Serif" font-size="10.00">Adafruit_INA260</text>
<text text-anchor="start" x="222.5" y="-237.5" font-family="Helvetica,sans-Serif" font-size="10.00"> </text>
<text text-anchor="start" x="222.5" y="-222.5" font-family="Helvetica,sans-Serif" font-size="10.00"> </text>
<polygon fill="#666666" stroke="#666666" points="179.5,-247.5 179.5,-247.5 269.5,-247.5 269.5,-247.5 179.5,-247.5"/>
<polygon fill="#666666" stroke="#666666" points="179.5,-232.5 179.5,-232.5 269.5,-232.5 269.5,-232.5 179.5,-232.5"/>
<polygon fill="none" stroke="#666666" points="179.5,-216 179.5,-265 269.5,-265 269.5,-216 179.5,-216"/>
</a>
</g>
</g>
<!-- Node5&#45;&gt;Node1 -->
<g id="edge4_Node000001_Node000005" class="edge">
<title>Node5&#45;&gt;Node1</title>
<g id="a_edge4_Node000001_Node000005"><a xlink:title=" ">
<path fill="none" stroke="#63b8ff" d="M216.4,-215.63C207.13,-188.31 191.6,-142.59 179.11,-105.79"/>
<polygon fill="none" stroke="#63b8ff" points="179.03,-105.55 173.32,-101.15 175.18,-94.19 180.89,-98.58 179.03,-105.55"/>
</a>
</g>
<text text-anchor="middle" x="204.5" y="-115" font-family="Helvetica,sans-Serif" font-size="10.00" fill="grey"> &#45;ina260</text>
</g>
</g>
</svg>
