<?xml version="1.0" encoding="UTF-8" standalone="no"?>
<!DOCTYPE svg PUBLIC "-//W3C//DTD SVG 1.1//EN"
 "http://www.w3.org/Graphics/SVG/1.1/DTD/svg11.dtd">
<!-- Generated by graphviz version 2.43.0 (0)
 -->
<!-- Title: FlashStorage Pages: 1 -->
<svg width="567pt" height="612pt"
 viewBox="0.00 0.00 566.50 612.00" xmlns="http://www.w3.org/2000/svg" xmlns:xlink="http://www.w3.org/1999/xlink">
<g id="graph0" class="graph" transform="scale(1 1) rotate(0) translate(4 608)">
<title>FlashStorage</title>
<!-- Node1 -->
<g id="Node000001" class="node">
<title>Node1</title>
<g id="a_Node000001"><a xlink:title=" ">
<polygon fill="#999999" stroke="transparent" points="422,-139 329,-139 329,0 422,0 422,-139"/>
<text text-anchor="start" x="344" y="-126.5" font-family="Helvetica,sans-Serif" font-size="10.00">FlashStorage</text>
<text text-anchor="start" x="374" y="-111.5" font-family="Helvetica,sans-Serif" font-size="10.00"> </text>
<text text-anchor="start" x="333.5" y="-96.5" font-family="Helvetica,sans-Serif" font-size="10.00">+</text>
<text text-anchor="start" x="346.5" y="-96.5" font-family="Helvetica,sans-Serif" font-size="10.00">FlashStorage()</text>
<text text-anchor="start" x="333.5" y="-81.5" font-family="Helvetica,sans-Serif" font-size="10.00">+</text>
<text text-anchor="start" x="346.5" y="-81.5" font-family="Helvetica,sans-Serif" font-size="10.00">verify()</text>
<text text-anchor="start" x="333.5" y="-66.5" font-family="Helvetica,sans-Serif" font-size="10.00">+</text>
<text text-anchor="start" x="346.5" y="-66.5" font-family="Helvetica,sans-Serif" font-size="10.00">store()</text>
<text text-anchor="start" x="333.5" y="-51.5" font-family="Helvetica,sans-Serif" font-size="10.00">+</text>
<text text-anchor="start" x="346.5" y="-51.5" font-family="Helvetica,sans-Serif" font-size="10.00">storePacket()</text>
<text text-anchor="start" x="333.5" y="-36.5" font-family="Helvetica,sans-Serif" font-size="10.00">+</text>
<text text-anchor="start" x="346.5" y="-36.5" font-family="Helvetica,sans-Serif" font-size="10.00">dump()</text>
<text text-anchor="start" x="333.5" y="-21.5" font-family="Helvetica,sans-Serif" font-size="10.00">+</text>
<text text-anchor="start" x="346.5" y="-21.5" font-family="Helvetica,sans-Serif" font-size="10.00">erase()</text>
<text text-anchor="start" x="336" y="-6.5" font-family="Helvetica,sans-Serif" font-size="10.00">&#45;</text>
<text text-anchor="start" x="346.5" y="-6.5" font-family="Helvetica,sans-Serif" font-size="10.00">loadPosition()</text>
<polygon fill="#666666" stroke="#666666" points="329.5,-121.5 329.5,-121.5 422.5,-121.5 422.5,-121.5 329.5,-121.5"/>
<polygon fill="#666666" stroke="#666666" points="329.5,-106.5 329.5,-106.5 422.5,-106.5 422.5,-106.5 329.5,-106.5"/>
<polygon fill="none" stroke="#666666" points="329,0 329,-139 422,-139 422,0 329,0"/>
</a>
</g>
</g>
<!-- Node2 -->
<g id="Node000002" class="node">
<title>Node2</title>
<g id="a_Node000002"><a xlink:href="classStorage.html" target="_top" xlink:title="Parent class for all data storage devices (sd card, radio, etc)">
<polygon fill="white" stroke="transparent" points="231,-291 146,-291 146,-197 231,-197 231,-291"/>
<text text-anchor="start" x="170" y="-279" font-family="Helvetica,sans-Serif" font-size="10.00">Storage</text>
<text text-anchor="start" x="187" y="-264" font-family="Helvetica,sans-Serif" font-size="10.00"> </text>
<text text-anchor="start" x="150.5" y="-249" font-family="Helvetica,sans-Serif" font-size="10.00">+</text>
<text text-anchor="start" x="163.5" y="-249" font-family="Helvetica,sans-Serif" font-size="10.00">Storage()</text>
<text text-anchor="start" x="150.5" y="-234" font-family="Helvetica,sans-Serif" font-size="10.00">+</text>
<text text-anchor="start" x="163.5" y="-234" font-family="Helvetica,sans-Serif" font-size="10.00">verify()</text>
<text text-anchor="start" x="150.5" y="-219" font-family="Helvetica,sans-Serif" font-size="10.00">+</text>
<text text-anchor="start" x="163.5" y="-219" font-family="Helvetica,sans-Serif" font-size="10.00">store()</text>
<text text-anchor="start" x="150.5" y="-204" font-family="Helvetica,sans-Serif" font-size="10.00">+</text>
<text text-anchor="start" x="163.5" y="-204" font-family="Helvetica,sans-Serif" font-size="10.00">storePacket()</text>
<polygon fill="#666666" stroke="#666666" points="146.5,-274 146.5,-274 231.5,-274 231.5,-274 146.5,-274"/>
<polygon fill="#666666" stroke="#666666" points="146.5,-259 146.5,-259 231.5,-259 231.5,-259 146.5,-259"/>
<polygon fill="none" stroke="#666666" points="146,-197 146,-291 231,-291 231,-197 146,-197"/>
</a>
</g>
</g>
<!-- Node2&#45;&gt;Node1 -->
<g id="edge1_Node000001_Node000002" class="edge">
<title>Node2&#45;&gt;Node1</title>
<g id="a_edge1_Node000001_Node000002"><a xlink:title=" ">
<path fill="none" stroke="#63b8ff" d="M239.1,-196.32C267.07,-170.53 301.56,-138.7 328.87,-113.52"/>
<polygon fill="none" stroke="#63b8ff" points="236.38,-194.07 231.4,-203.43 241.13,-199.22 236.38,-194.07"/>
</a>
</g>
</g>
<!-- Node3 -->
<g id="Node000003" class="node">
<title>Node3</title>
<g id="a_Node000003"><a xlink:href="classDevice.html" target="_top" xlink:title="Implements the recovery system for Sensor and Storage objects.">
<polygon fill="white" stroke="transparent" points="250,-497 127,-497 127,-328 250,-328 250,-497"/>
<text text-anchor="start" x="172" y="-484.5" font-family="Helvetica,sans-Serif" font-size="10.00">Device</text>
<text text-anchor="start" x="187" y="-469.5" font-family="Helvetica,sans-Serif" font-size="10.00"> </text>
<text text-anchor="start" x="131.5" y="-454.5" font-family="Helvetica,sans-Serif" font-size="10.00">+</text>
<text text-anchor="start" x="144.5" y="-454.5" font-family="Helvetica,sans-Serif" font-size="10.00">Device()</text>
<text text-anchor="start" x="131.5" y="-439.5" font-family="Helvetica,sans-Serif" font-size="10.00">+</text>
<text text-anchor="start" x="144.5" y="-439.5" font-family="Helvetica,sans-Serif" font-size="10.00">Device()</text>
<text text-anchor="start" x="131.5" y="-424.5" font-family="Helvetica,sans-Serif" font-size="10.00">+</text>
<text text-anchor="start" x="144.5" y="-424.5" font-family="Helvetica,sans-Serif" font-size="10.00">getDeviceName()</text>
<text text-anchor="start" x="131.5" y="-409.5" font-family="Helvetica,sans-Serif" font-size="10.00">+</text>
<text text-anchor="start" x="144.5" y="-409.5" font-family="Helvetica,sans-Serif" font-size="10.00">verify()</text>
<text text-anchor="start" x="131.5" y="-394.5" font-family="Helvetica,sans-Serif" font-size="10.00">+</text>
<text text-anchor="start" x="144.5" y="-394.5" font-family="Helvetica,sans-Serif" font-size="10.00">getVerified()</text>
<text text-anchor="start" x="131.5" y="-379.5" font-family="Helvetica,sans-Serif" font-size="10.00">+</text>
<text text-anchor="start" x="144.5" y="-379.5" font-family="Helvetica,sans-Serif" font-size="10.00">recoveryConfig()</text>
<text text-anchor="start" x="131.5" y="-364.5" font-family="Helvetica,sans-Serif" font-size="10.00">+</text>
<text text-anchor="start" x="144.5" y="-364.5" font-family="Helvetica,sans-Serif" font-size="10.00">setWaitFactor()</text>
<text text-anchor="start" x="131.5" y="-349.5" font-family="Helvetica,sans-Serif" font-size="10.00">+</text>
<text text-anchor="start" x="144.5" y="-349.5" font-family="Helvetica,sans-Serif" font-size="10.00">setMaxAttempts()</text>
<text text-anchor="start" x="131.5" y="-334.5" font-family="Helvetica,sans-Serif" font-size="10.00">+</text>
<text text-anchor="start" x="144.5" y="-334.5" font-family="Helvetica,sans-Serif" font-size="10.00">attemptConnection()</text>
<polygon fill="#666666" stroke="#666666" points="127.5,-479.5 127.5,-479.5 250.5,-479.5 250.5,-479.5 127.5,-479.5"/>
<polygon fill="#666666" stroke="#666666" points="127.5,-464.5 127.5,-464.5 250.5,-464.5 250.5,-464.5 127.5,-464.5"/>
<polygon fill="none" stroke="#666666" points="127,-328 127,-497 250,-497 250,-328 127,-328"/>
</a>
</g>
</g>
<!-- Node3&#45;&gt;Node2 -->
<g id="edge2_Node000002_Node000003" class="edge">
<title>Node3&#45;&gt;Node2</title>
<g id="a_edge2_Node000002_Node000003"><a xlink:title=" ">
<path fill="none" stroke="#63b8ff" d="M188.5,-317.72C188.5,-308.51 188.5,-299.47 188.5,-291.07"/>
<polygon fill="none" stroke="#63b8ff" points="185,-317.76 188.5,-327.76 192,-317.76 185,-317.76"/>
</a>
</g>
</g>
<!-- Node4 -->
<g id="Node000004" class="node">
<title>Node4</title>
<g id="a_Node000004"><a xlink:title=" ">
<polygon fill="white" stroke="transparent" points="79,-604 0,-604 0,-555 79,-555 79,-604"/>
<text text-anchor="start" x="5.5" y="-591.5" font-family="Helvetica,sans-Serif" font-size="10.00">unsigned long</text>
<text text-anchor="start" x="38" y="-576.5" font-family="Helvetica,sans-Serif" font-size="10.00"> </text>
<text text-anchor="start" x="38" y="-561.5" font-family="Helvetica,sans-Serif" font-size="10.00"> </text>
<polygon fill="#666666" stroke="#666666" points="0.5,-586.5 0.5,-586.5 79.5,-586.5 79.5,-586.5 0.5,-586.5"/>
<polygon fill="#666666" stroke="#666666" points="0.5,-571.5 0.5,-571.5 79.5,-571.5 79.5,-571.5 0.5,-571.5"/>
<polygon fill="none" stroke="#666666" points="0,-555 0,-604 79,-604 79,-555 0,-555"/>
</a>
</g>
</g>
<!-- Node4&#45;&gt;Node3 -->
<g id="edge3_Node000003_Node000004" class="edge">
<title>Node4&#45;&gt;Node3</title>
<g id="a_edge3_Node000003_Node000004"><a xlink:title=" ">
<path fill="none" stroke="#63b8ff" d="M42.08,-554.96C44.34,-542.28 48.58,-526.87 56.5,-515 72.01,-491.75 94.64,-471.58 116.79,-455.49"/>
<polygon fill="none" stroke="#63b8ff" points="117.09,-455.28 119.7,-448.56 126.91,-448.38 124.3,-455.1 117.09,-455.28"/>
</a>
</g>
<text text-anchor="middle" x="91.5" y="-529" font-family="Helvetica,sans-Serif" font-size="10.00" fill="grey"> &#45;last_attempt</text>
<text text-anchor="middle" x="91.5" y="-518" font-family="Helvetica,sans-Serif" font-size="10.00" fill="grey">&#45;wait_factor</text>
</g>
<!-- Node5 -->
<g id="Node000005" class="node">
<title>Node5</title>
<g id="a_Node000005"><a xlink:title=" ">
<polygon fill="white" stroke="transparent" points="144,-604 121,-604 121,-555 144,-555 144,-604"/>
<text text-anchor="start" x="126.5" y="-591.5" font-family="Helvetica,sans-Serif" font-size="10.00">int</text>
<text text-anchor="start" x="131" y="-576.5" font-family="Helvetica,sans-Serif" font-size="10.00"> </text>
<text text-anchor="start" x="131" y="-561.5" font-family="Helvetica,sans-Serif" font-size="10.00"> </text>
<polygon fill="#666666" stroke="#666666" points="121.5,-586.5 121.5,-586.5 144.5,-586.5 144.5,-586.5 121.5,-586.5"/>
<polygon fill="#666666" stroke="#666666" points="121.5,-571.5 121.5,-571.5 144.5,-571.5 144.5,-571.5 121.5,-571.5"/>
<polygon fill="none" stroke="#666666" points="121,-555 121,-604 144,-604 144,-555 121,-555"/>
</a>
</g>
</g>
<!-- Node5&#45;&gt;Node3 -->
<g id="edge4_Node000003_Node000005" class="edge">
<title>Node5&#45;&gt;Node3</title>
<g id="a_edge4_Node000003_Node000005"><a xlink:title=" ">
<path fill="none" stroke="#63b8ff" d="M130.22,-554.92C129.71,-542.8 130.12,-527.91 133.5,-515 134.06,-512.87 134.67,-510.75 135.32,-508.62"/>
<polygon fill="none" stroke="#63b8ff" points="135.33,-508.59 133.52,-501.62 139.26,-497.26 141.08,-504.24 135.33,-508.59"/>
</a>
</g>
<text text-anchor="middle" x="178" y="-529" font-family="Helvetica,sans-Serif" font-size="10.00" fill="grey"> &#45;attempt_number</text>
<text text-anchor="middle" x="178" y="-518" font-family="Helvetica,sans-Serif" font-size="10.00" fill="grey">&#45;max_attempts</text>
</g>
<!-- Node6 -->
<g id="Node000006" class="node">
<title>Node6</title>
<g id="a_Node000006"><a xlink:title=" ">
<polygon fill="white" stroke="transparent" points="264,-604 225,-604 225,-555 264,-555 264,-604"/>
<text text-anchor="start" x="230.5" y="-591.5" font-family="Helvetica,sans-Serif" font-size="10.00">String</text>
<text text-anchor="start" x="243" y="-576.5" font-family="Helvetica,sans-Serif" font-size="10.00"> </text>
<text text-anchor="start" x="243" y="-561.5" font-family="Helvetica,sans-Serif" font-size="10.00"> </text>
<polygon fill="#666666" stroke="#666666" points="225.5,-586.5 225.5,-586.5 264.5,-586.5 264.5,-586.5 225.5,-586.5"/>
<polygon fill="#666666" stroke="#666666" points="225.5,-571.5 225.5,-571.5 264.5,-571.5 264.5,-571.5 225.5,-571.5"/>
<polygon fill="none" stroke="#666666" points="225,-555 225,-604 264,-604 264,-555 225,-555"/>
</a>
</g>
</g>
<!-- Node6&#45;&gt;Node3 -->
<g id="edge5_Node000003_Node000006" class="edge">
<title>Node6&#45;&gt;Node3</title>
<g id="a_edge5_Node000003_Node000006"><a xlink:title=" ">
<path fill="none" stroke="#63b8ff" d="M236.48,-554.86C232.18,-542.21 226.59,-525.72 220.73,-508.48"/>
<polygon fill="none" stroke="#63b8ff" points="220.72,-508.44 215.01,-504.04 216.86,-497.07 222.58,-501.47 220.72,-508.44"/>
</a>
</g>
<text text-anchor="middle" x="266" y="-523.5" font-family="Helvetica,sans-Serif" font-size="10.00" fill="grey"> &#45;device_name</text>
</g>
<!-- Node7 -->
<g id="Node000007" class="node">
<title>Node7</title>
<g id="a_Node000007"><a xlink:title=" ">
<polygon fill="white" stroke="transparent" points="356.5,-604 324.5,-604 324.5,-555 356.5,-555 356.5,-604"/>
<text text-anchor="start" x="329.5" y="-591.5" font-family="Helvetica,sans-Serif" font-size="10.00">bool</text>
<text text-anchor="start" x="338.5" y="-576.5" font-family="Helvetica,sans-Serif" font-size="10.00"> </text>
<text text-anchor="start" x="338.5" y="-561.5" font-family="Helvetica,sans-Serif" font-size="10.00"> </text>
<polygon fill="#666666" stroke="#666666" points="324.5,-586.5 324.5,-586.5 356.5,-586.5 356.5,-586.5 324.5,-586.5"/>
<polygon fill="#666666" stroke="#666666" points="324.5,-571.5 324.5,-571.5 356.5,-571.5 356.5,-571.5 324.5,-571.5"/>
<polygon fill="none" stroke="#666666" points="324.5,-555 324.5,-604 356.5,-604 356.5,-555 324.5,-555"/>
</a>
</g>
</g>
<!-- Node7&#45;&gt;Node3 -->
<g id="edge6_Node000003_Node000007" class="edge">
<title>Node7&#45;&gt;Node3</title>
<g id="a_edge6_Node000003_Node000007"><a xlink:title=" ">
<path fill="none" stroke="#63b8ff" d="M330.44,-554.91C324.48,-542.37 316.2,-527.1 306.5,-515 292.81,-497.93 275.96,-481.49 259.34,-467.01"/>
<polygon fill="none" stroke="#63b8ff" points="259.27,-466.96 252.11,-466.11 250.14,-459.17 257.3,-460.02 259.27,-466.96"/>
</a>
</g>
<text text-anchor="middle" x="345" y="-523.5" font-family="Helvetica,sans-Serif" font-size="10.00" fill="grey"> #verified</text>
</g>
<!-- Node8 -->
<g id="Node000008" class="node">
<title>Node8</title>
<g id="a_Node000008"><a xlink:title=" ">
<polygon fill="white" stroke="transparent" points="359.5,-268.5 249.5,-268.5 249.5,-219.5 359.5,-219.5 359.5,-268.5"/>
<text text-anchor="start" x="254.5" y="-256" font-family="Helvetica,sans-Serif" font-size="10.00">static const uint32_t</text>
<text text-anchor="start" x="302.5" y="-241" font-family="Helvetica,sans-Serif" font-size="10.00"> </text>
<text text-anchor="start" x="302.5" y="-226" font-family="Helvetica,sans-Serif" font-size="10.00"> </text>
<polygon fill="#666666" stroke="#666666" points="249.5,-251 249.5,-251 359.5,-251 359.5,-251 249.5,-251"/>
<polygon fill="#666666" stroke="#666666" points="249.5,-236 249.5,-236 359.5,-236 359.5,-236 249.5,-236"/>
<polygon fill="none" stroke="#666666" points="249.5,-219.5 249.5,-268.5 359.5,-268.5 359.5,-219.5 249.5,-219.5"/>
</a>
</g>
</g>
<!-- Node8&#45;&gt;Node1 -->
<g id="edge7_Node000001_Node000008" class="edge">
<title>Node8&#45;&gt;Node1</title>
<g id="a_edge7_Node000001_Node000008"><a xlink:title=" ">
<path fill="none" stroke="#63b8ff" d="M300.68,-219.27C298.8,-201.57 298.26,-177.09 305.5,-157 309.34,-146.34 315.1,-136.03 321.68,-126.46"/>
<polygon fill="none" stroke="#63b8ff" points="321.7,-126.45 322.03,-119.24 328.81,-116.78 328.47,-123.98 321.7,-126.45"/>
</a>
</g>
<text text-anchor="middle" x="365.5" y="-171" font-family="Helvetica,sans-Serif" font-size="10.00" fill="grey"> &#45;DATA_START_POSITION</text>
<text text-anchor="middle" x="365.5" y="-160" font-family="Helvetica,sans-Serif" font-size="10.00" fill="grey">&#45;MAX_SIZE</text>
</g>
<!-- Node9 -->
<g id="Node000009" class="node">
<title>Node9</title>
<g id="a_Node000009"><a xlink:title=" ">
<polygon fill="white" stroke="transparent" points="490.5,-268.5 404.5,-268.5 404.5,-219.5 490.5,-219.5 490.5,-268.5"/>
<text text-anchor="start" x="409.5" y="-256" font-family="Helvetica,sans-Serif" font-size="10.00">SFE_SPI_FLASH</text>
<text text-anchor="start" x="445.5" y="-241" font-family="Helvetica,sans-Serif" font-size="10.00"> </text>
<text text-anchor="start" x="445.5" y="-226" font-family="Helvetica,sans-Serif" font-size="10.00"> </text>
<polygon fill="#666666" stroke="#666666" points="404.5,-251 404.5,-251 490.5,-251 490.5,-251 404.5,-251"/>
<polygon fill="#666666" stroke="#666666" points="404.5,-236 404.5,-236 490.5,-236 490.5,-236 404.5,-236"/>
<polygon fill="none" stroke="#666666" points="404.5,-219.5 404.5,-268.5 490.5,-268.5 490.5,-219.5 404.5,-219.5"/>
</a>
</g>
</g>
<!-- Node9&#45;&gt;Node1 -->
<g id="edge8_Node000001_Node000009" class="edge">
<title>Node9&#45;&gt;Node1</title>
<g id="a_edge8_Node000001_Node000009"><a xlink:title=" ">
<path fill="none" stroke="#63b8ff" d="M443.29,-219.45C439.71,-201.85 433.82,-177.41 425.5,-157 424.55,-154.68 423.55,-152.34 422.51,-150"/>
<polygon fill="none" stroke="#63b8ff" points="422.47,-149.91 416.29,-146.19 417.35,-139.05 423.52,-142.78 422.47,-149.91"/>
</a>
</g>
<text text-anchor="middle" x="448" y="-165.5" font-family="Helvetica,sans-Serif" font-size="10.00" fill="grey"> &#45;flash</text>
</g>
<!-- Node10 -->
<g id="Node000010" class="node">
<title>Node10</title>
<g id="a_Node000010"><a xlink:title=" ">
<polygon fill="white" stroke="transparent" points="558.5,-268.5 508.5,-268.5 508.5,-219.5 558.5,-219.5 558.5,-268.5"/>
<text text-anchor="start" x="513.5" y="-256" font-family="Helvetica,sans-Serif" font-size="10.00">uint32_t</text>
<text text-anchor="start" x="531.5" y="-241" font-family="Helvetica,sans-Serif" font-size="10.00"> </text>
<text text-anchor="start" x="531.5" y="-226" font-family="Helvetica,sans-Serif" font-size="10.00"> </text>
<polygon fill="#666666" stroke="#666666" points="508.5,-251 508.5,-251 558.5,-251 558.5,-251 508.5,-251"/>
<polygon fill="#666666" stroke="#666666" points="508.5,-236 508.5,-236 558.5,-236 558.5,-236 508.5,-236"/>
<polygon fill="none" stroke="#666666" points="508.5,-219.5 508.5,-268.5 558.5,-268.5 558.5,-219.5 508.5,-219.5"/>
</a>
</g>
</g>
<!-- Node10&#45;&gt;Node1 -->
<g id="edge9_Node000001_Node000010" class="edge">
<title>Node10&#45;&gt;Node1</title>
<g id="a_edge9_Node000001_Node000010"><a xlink:title=" ">
<path fill="none" stroke="#63b8ff" d="M516.38,-219.47C511.03,-212.22 505.07,-204.24 499.5,-197 485.62,-178.95 482.94,-173.73 467.5,-157 456.13,-144.69 443.35,-132.01 431.01,-120.29"/>
<polygon fill="none" stroke="#63b8ff" points="430.88,-120.17 423.76,-118.97 422.13,-111.95 429.24,-113.14 430.88,-120.17"/>
</a>
</g>
<text text-anchor="middle" x="508.5" y="-165.5" font-family="Helvetica,sans-Serif" font-size="10.00" fill="grey"> &#45;position</text>
</g>
</g>
</svg>
