<?xml version="1.0" encoding="UTF-8" standalone="no"?>
<!DOCTYPE svg PUBLIC "-//W3C//DTD SVG 1.1//EN"
 "http://www.w3.org/Graphics/SVG/1.1/DTD/svg11.dtd">
<!-- Generated by graphviz version 2.43.0 (0)
 -->
<!-- Title: SHTC3Sensor Pages: 1 -->
<svg width="646pt" height="781pt"
 viewBox="0.00 0.00 645.50 781.00" xmlns="http://www.w3.org/2000/svg" xmlns:xlink="http://www.w3.org/1999/xlink">
<g id="graph0" class="graph" transform="scale(1 1) rotate(0) translate(4 777)">
<title>SHTC3Sensor</title>
<!-- Node1 -->
<g id="Node000001" class="node">
<title>Node1</title>
<g id="a_Node000001"><a xlink:title="Implementation of a Sensor for the SHTC3.">
<polygon fill="#999999" stroke="transparent" points="551.5,-139 445.5,-139 445.5,0 551.5,0 551.5,-139"/>
<text text-anchor="start" x="466" y="-126.5" font-family="Helvetica,sans-Serif" font-size="10.00">SHTC3Sensor</text>
<text text-anchor="start" x="496.5" y="-111.5" font-family="Helvetica,sans-Serif" font-size="10.00"> </text>
<text text-anchor="start" x="449.5" y="-96.5" font-family="Helvetica,sans-Serif" font-size="10.00">+</text>
<text text-anchor="start" x="462.5" y="-96.5" font-family="Helvetica,sans-Serif" font-size="10.00">SHTC3Sensor()</text>
<text text-anchor="start" x="449.5" y="-81.5" font-family="Helvetica,sans-Serif" font-size="10.00">+</text>
<text text-anchor="start" x="462.5" y="-81.5" font-family="Helvetica,sans-Serif" font-size="10.00">SHTC3Sensor()</text>
<text text-anchor="start" x="449.5" y="-66.5" font-family="Helvetica,sans-Serif" font-size="10.00">+</text>
<text text-anchor="start" x="462.5" y="-66.5" font-family="Helvetica,sans-Serif" font-size="10.00">verify()</text>
<text text-anchor="start" x="449.5" y="-51.5" font-family="Helvetica,sans-Serif" font-size="10.00">+</text>
<text text-anchor="start" x="462.5" y="-51.5" font-family="Helvetica,sans-Serif" font-size="10.00">readData()</text>
<text text-anchor="start" x="449.5" y="-36.5" font-family="Helvetica,sans-Serif" font-size="10.00">+</text>
<text text-anchor="start" x="462.5" y="-36.5" font-family="Helvetica,sans-Serif" font-size="10.00">readDataPacket()</text>
<text text-anchor="start" x="449.5" y="-21.5" font-family="Helvetica,sans-Serif" font-size="10.00">+</text>
<text text-anchor="start" x="462.5" y="-21.5" font-family="Helvetica,sans-Serif" font-size="10.00">decodeToCSV()</text>
<text text-anchor="start" x="449.5" y="-6.5" font-family="Helvetica,sans-Serif" font-size="10.00">+</text>
<text text-anchor="start" x="462.5" y="-6.5" font-family="Helvetica,sans-Serif" font-size="10.00">getRelHum()</text>
<polygon fill="#666666" stroke="#666666" points="445.5,-121.5 445.5,-121.5 551.5,-121.5 551.5,-121.5 445.5,-121.5"/>
<polygon fill="#666666" stroke="#666666" points="445.5,-106.5 445.5,-106.5 551.5,-106.5 551.5,-106.5 445.5,-106.5"/>
<polygon fill="none" stroke="#666666" points="445.5,0 445.5,-139 551.5,-139 551.5,0 445.5,0"/>
</a>
</g>
</g>
<!-- Node2 -->
<g id="Node000002" class="node">
<title>Node2</title>
<g id="a_Node000002"><a xlink:href="classSensor.html" target="_top" xlink:title="Parent class for sensor objects.">
<polygon fill="white" stroke="transparent" points="437,-460 304,-460 304,-186 437,-186 437,-460"/>
<text text-anchor="start" x="354" y="-448" font-family="Helvetica,sans-Serif" font-size="10.00">Sensor</text>
<text text-anchor="start" x="369" y="-433" font-family="Helvetica,sans-Serif" font-size="10.00"> </text>
<text text-anchor="start" x="308.5" y="-418" font-family="Helvetica,sans-Serif" font-size="10.00">+</text>
<text text-anchor="start" x="321.5" y="-418" font-family="Helvetica,sans-Serif" font-size="10.00">Sensor()</text>
<text text-anchor="start" x="308.5" y="-403" font-family="Helvetica,sans-Serif" font-size="10.00">+</text>
<text text-anchor="start" x="321.5" y="-403" font-family="Helvetica,sans-Serif" font-size="10.00">Sensor()</text>
<text text-anchor="start" x="308.5" y="-388" font-family="Helvetica,sans-Serif" font-size="10.00">+</text>
<text text-anchor="start" x="321.5" y="-388" font-family="Helvetica,sans-Serif" font-size="10.00">Sensor()</text>
<text text-anchor="start" x="308.5" y="-373" font-family="Helvetica,sans-Serif" font-size="10.00">+</text>
<text text-anchor="start" x="321.5" y="-373" font-family="Helvetica,sans-Serif" font-size="10.00">Sensor()</text>
<text text-anchor="start" x="308.5" y="-358" font-family="Helvetica,sans-Serif" font-size="10.00">+</text>
<text text-anchor="start" x="321.5" y="-358" font-family="Helvetica,sans-Serif" font-size="10.00">getPeriod()</text>
<text text-anchor="start" x="308.5" y="-343" font-family="Helvetica,sans-Serif" font-size="10.00">+</text>
<text text-anchor="start" x="321.5" y="-343" font-family="Helvetica,sans-Serif" font-size="10.00">setPeriod()</text>
<text text-anchor="start" x="308.5" y="-328" font-family="Helvetica,sans-Serif" font-size="10.00">+</text>
<text text-anchor="start" x="321.5" y="-328" font-family="Helvetica,sans-Serif" font-size="10.00">getLastExecution()</text>
<text text-anchor="start" x="308.5" y="-313" font-family="Helvetica,sans-Serif" font-size="10.00">+</text>
<text text-anchor="start" x="321.5" y="-313" font-family="Helvetica,sans-Serif" font-size="10.00">setLastExecution()</text>
<text text-anchor="start" x="308.5" y="-298" font-family="Helvetica,sans-Serif" font-size="10.00">+</text>
<text text-anchor="start" x="321.5" y="-298" font-family="Helvetica,sans-Serif" font-size="10.00">getSensorCSVHeader()</text>
<text text-anchor="start" x="308.5" y="-283" font-family="Helvetica,sans-Serif" font-size="10.00">+</text>
<text text-anchor="start" x="321.5" y="-283" font-family="Helvetica,sans-Serif" font-size="10.00">verify()</text>
<text text-anchor="start" x="308.5" y="-268" font-family="Helvetica,sans-Serif" font-size="10.00">+</text>
<text text-anchor="start" x="321.5" y="-268" font-family="Helvetica,sans-Serif" font-size="10.00">readData()</text>
<text text-anchor="start" x="308.5" y="-253" font-family="Helvetica,sans-Serif" font-size="10.00">+</text>
<text text-anchor="start" x="321.5" y="-253" font-family="Helvetica,sans-Serif" font-size="10.00">readDataPacket()</text>
<text text-anchor="start" x="308.5" y="-238" font-family="Helvetica,sans-Serif" font-size="10.00">+</text>
<text text-anchor="start" x="321.5" y="-238" font-family="Helvetica,sans-Serif" font-size="10.00">decodeToCSV()</text>
<text text-anchor="start" x="308.5" y="-223" font-family="Helvetica,sans-Serif" font-size="10.00">+</text>
<text text-anchor="start" x="321.5" y="-223" font-family="Helvetica,sans-Serif" font-size="10.00">getDataPacket()</text>
<text text-anchor="start" x="308.5" y="-208" font-family="Helvetica,sans-Serif" font-size="10.00">+</text>
<text text-anchor="start" x="321.5" y="-208" font-family="Helvetica,sans-Serif" font-size="10.00">readEmpty()</text>
<text text-anchor="start" x="308.5" y="-193" font-family="Helvetica,sans-Serif" font-size="10.00">+</text>
<text text-anchor="start" x="321.5" y="-193" font-family="Helvetica,sans-Serif" font-size="10.00">getDataCSV()</text>
<polygon fill="#666666" stroke="#666666" points="304.5,-443 304.5,-443 437.5,-443 437.5,-443 304.5,-443"/>
<polygon fill="#666666" stroke="#666666" points="304.5,-428 304.5,-428 437.5,-428 437.5,-428 304.5,-428"/>
<polygon fill="none" stroke="#666666" points="304,-186 304,-460 437,-460 437,-186 304,-186"/>
</a>
</g>
</g>
<!-- Node2&#45;&gt;Node1 -->
<g id="edge1_Node000001_Node000002" class="edge">
<title>Node2&#45;&gt;Node1</title>
<g id="a_edge1_Node000001_Node000002"><a xlink:title=" ">
<path fill="none" stroke="#63b8ff" d="M441.81,-181.88C449.32,-167.13 456.69,-152.65 463.51,-139.26"/>
<polygon fill="none" stroke="#63b8ff" points="438.54,-180.59 437.12,-191.09 444.78,-183.77 438.54,-180.59"/>
</a>
</g>
</g>
<!-- Node3 -->
<g id="Node000003" class="node">
<title>Node3</title>
<g id="a_Node000003"><a xlink:href="classDevice.html" target="_top" xlink:title="Implements the recovery system for Sensor and Storage objects.">
<polygon fill="white" stroke="transparent" points="282,-666 159,-666 159,-497 282,-497 282,-666"/>
<text text-anchor="start" x="204" y="-653.5" font-family="Helvetica,sans-Serif" font-size="10.00">Device</text>
<text text-anchor="start" x="219" y="-638.5" font-family="Helvetica,sans-Serif" font-size="10.00"> </text>
<text text-anchor="start" x="163.5" y="-623.5" font-family="Helvetica,sans-Serif" font-size="10.00">+</text>
<text text-anchor="start" x="176.5" y="-623.5" font-family="Helvetica,sans-Serif" font-size="10.00">Device()</text>
<text text-anchor="start" x="163.5" y="-608.5" font-family="Helvetica,sans-Serif" font-size="10.00">+</text>
<text text-anchor="start" x="176.5" y="-608.5" font-family="Helvetica,sans-Serif" font-size="10.00">Device()</text>
<text text-anchor="start" x="163.5" y="-593.5" font-family="Helvetica,sans-Serif" font-size="10.00">+</text>
<text text-anchor="start" x="176.5" y="-593.5" font-family="Helvetica,sans-Serif" font-size="10.00">getDeviceName()</text>
<text text-anchor="start" x="163.5" y="-578.5" font-family="Helvetica,sans-Serif" font-size="10.00">+</text>
<text text-anchor="start" x="176.5" y="-578.5" font-family="Helvetica,sans-Serif" font-size="10.00">verify()</text>
<text text-anchor="start" x="163.5" y="-563.5" font-family="Helvetica,sans-Serif" font-size="10.00">+</text>
<text text-anchor="start" x="176.5" y="-563.5" font-family="Helvetica,sans-Serif" font-size="10.00">getVerified()</text>
<text text-anchor="start" x="163.5" y="-548.5" font-family="Helvetica,sans-Serif" font-size="10.00">+</text>
<text text-anchor="start" x="176.5" y="-548.5" font-family="Helvetica,sans-Serif" font-size="10.00">recoveryConfig()</text>
<text text-anchor="start" x="163.5" y="-533.5" font-family="Helvetica,sans-Serif" font-size="10.00">+</text>
<text text-anchor="start" x="176.5" y="-533.5" font-family="Helvetica,sans-Serif" font-size="10.00">setWaitFactor()</text>
<text text-anchor="start" x="163.5" y="-518.5" font-family="Helvetica,sans-Serif" font-size="10.00">+</text>
<text text-anchor="start" x="176.5" y="-518.5" font-family="Helvetica,sans-Serif" font-size="10.00">setMaxAttempts()</text>
<text text-anchor="start" x="163.5" y="-503.5" font-family="Helvetica,sans-Serif" font-size="10.00">+</text>
<text text-anchor="start" x="176.5" y="-503.5" font-family="Helvetica,sans-Serif" font-size="10.00">attemptConnection()</text>
<polygon fill="#666666" stroke="#666666" points="159.5,-648.5 159.5,-648.5 282.5,-648.5 282.5,-648.5 159.5,-648.5"/>
<polygon fill="#666666" stroke="#666666" points="159.5,-633.5 159.5,-633.5 282.5,-633.5 282.5,-633.5 159.5,-633.5"/>
<polygon fill="none" stroke="#666666" points="159,-497 159,-666 282,-666 282,-497 159,-497"/>
</a>
</g>
</g>
<!-- Node3&#45;&gt;Node2 -->
<g id="edge2_Node000002_Node000003" class="edge">
<title>Node3&#45;&gt;Node2</title>
<g id="a_edge2_Node000002_Node000003"><a xlink:title=" ">
<path fill="none" stroke="#63b8ff" d="M274.64,-487.93C284.15,-471.67 294.14,-454.58 303.94,-437.82"/>
<polygon fill="none" stroke="#63b8ff" points="271.43,-486.47 269.41,-496.87 277.48,-490 271.43,-486.47"/>
</a>
</g>
</g>
<!-- Node4 -->
<g id="Node000004" class="node">
<title>Node4</title>
<g id="a_Node000004"><a xlink:title=" ">
<polygon fill="white" stroke="transparent" points="79,-773 0,-773 0,-724 79,-724 79,-773"/>
<text text-anchor="start" x="5.5" y="-760.5" font-family="Helvetica,sans-Serif" font-size="10.00">unsigned long</text>
<text text-anchor="start" x="38" y="-745.5" font-family="Helvetica,sans-Serif" font-size="10.00"> </text>
<text text-anchor="start" x="38" y="-730.5" font-family="Helvetica,sans-Serif" font-size="10.00"> </text>
<polygon fill="#666666" stroke="#666666" points="0.5,-755.5 0.5,-755.5 79.5,-755.5 79.5,-755.5 0.5,-755.5"/>
<polygon fill="#666666" stroke="#666666" points="0.5,-740.5 0.5,-740.5 79.5,-740.5 79.5,-740.5 0.5,-740.5"/>
<polygon fill="none" stroke="#666666" points="0,-724 0,-773 79,-773 79,-724 0,-724"/>
</a>
</g>
</g>
<!-- Node4&#45;&gt;Node2 -->
<g id="edge7_Node000002_Node000004" class="edge">
<title>Node4&#45;&gt;Node2</title>
<g id="a_edge7_Node000002_Node000004"><a xlink:title=" ">
<path fill="none" stroke="#63b8ff" d="M34.78,-723.79C26.71,-676.41 15.27,-568.49 61.5,-497 114.15,-415.57 219.22,-368.81 292.12,-344.91"/>
<polygon fill="none" stroke="#63b8ff" points="292.55,-344.77 297.05,-339.14 303.99,-341.13 299.48,-346.76 292.55,-344.77"/>
</a>
</g>
<text text-anchor="middle" x="105.5" y="-584.5" font-family="Helvetica,sans-Serif" font-size="10.00" fill="grey"> &#45;last_execution</text>
<text text-anchor="middle" x="105.5" y="-573.5" font-family="Helvetica,sans-Serif" font-size="10.00" fill="grey">&#45;minimum_period</text>
</g>
<!-- Node4&#45;&gt;Node3 -->
<g id="edge3_Node000003_Node000004" class="edge">
<title>Node4&#45;&gt;Node3</title>
<g id="a_edge3_Node000003_Node000004"><a xlink:title=" ">
<path fill="none" stroke="#63b8ff" d="M52.87,-723.96C60.92,-711.14 72.01,-695.57 84.5,-684 95.91,-673.43 101.7,-674.83 114.5,-666 126.03,-658.05 137.95,-649.26 149.45,-640.46"/>
<polygon fill="none" stroke="#63b8ff" points="149.5,-640.42 151.8,-633.58 159,-633.08 156.7,-639.91 149.5,-640.42"/>
</a>
</g>
<text text-anchor="middle" x="119.5" y="-698" font-family="Helvetica,sans-Serif" font-size="10.00" fill="grey"> &#45;last_attempt</text>
<text text-anchor="middle" x="119.5" y="-687" font-family="Helvetica,sans-Serif" font-size="10.00" fill="grey">&#45;wait_factor</text>
</g>
<!-- Node5 -->
<g id="Node000005" class="node">
<title>Node5</title>
<g id="a_Node000005"><a xlink:title=" ">
<polygon fill="white" stroke="transparent" points="263,-773 240,-773 240,-724 263,-724 263,-773"/>
<text text-anchor="start" x="245.5" y="-760.5" font-family="Helvetica,sans-Serif" font-size="10.00">int</text>
<text text-anchor="start" x="250" y="-745.5" font-family="Helvetica,sans-Serif" font-size="10.00"> </text>
<text text-anchor="start" x="250" y="-730.5" font-family="Helvetica,sans-Serif" font-size="10.00"> </text>
<polygon fill="#666666" stroke="#666666" points="240.5,-755.5 240.5,-755.5 263.5,-755.5 263.5,-755.5 240.5,-755.5"/>
<polygon fill="#666666" stroke="#666666" points="240.5,-740.5 240.5,-740.5 263.5,-740.5 263.5,-740.5 240.5,-740.5"/>
<polygon fill="none" stroke="#666666" points="240,-724 240,-773 263,-773 263,-724 240,-724"/>
</a>
</g>
</g>
<!-- Node5&#45;&gt;Node2 -->
<g id="edge9_Node000002_Node000005" class="edge">
<title>Node5&#45;&gt;Node2</title>
<g id="a_edge9_Node000002_Node000005"><a xlink:title=" ">
<path fill="none" stroke="#63b8ff" d="M263.46,-746.15C296.68,-742.14 388.78,-729.09 406.5,-706 420.92,-687.21 408.21,-571.4 394.06,-472.17"/>
<polygon fill="none" stroke="#63b8ff" points="394.04,-472.04 389.22,-466.67 392.33,-460.16 397.14,-465.53 394.04,-472.04"/>
</a>
</g>
<text text-anchor="middle" x="446" y="-579" font-family="Helvetica,sans-Serif" font-size="10.00" fill="grey"> #num_fields</text>
</g>
<!-- Node5&#45;&gt;Node3 -->
<g id="edge4_Node000003_Node000005" class="edge">
<title>Node5&#45;&gt;Node3</title>
<g id="a_edge4_Node000003_Node000005"><a xlink:title=" ">
<path fill="none" stroke="#63b8ff" d="M239.78,-735.57C233.02,-727.84 225.16,-717.15 221.5,-706 218.59,-697.12 216.64,-687.68 215.41,-678.13"/>
<polygon fill="none" stroke="#63b8ff" points="215.39,-677.96 210.82,-672.38 214.21,-666.02 218.78,-671.59 215.39,-677.96"/>
</a>
</g>
<text text-anchor="middle" x="266" y="-698" font-family="Helvetica,sans-Serif" font-size="10.00" fill="grey"> &#45;attempt_number</text>
<text text-anchor="middle" x="266" y="-687" font-family="Helvetica,sans-Serif" font-size="10.00" fill="grey">&#45;max_attempts</text>
</g>
<!-- Node6 -->
<g id="Node000006" class="node">
<title>Node6</title>
<g id="a_Node000006"><a xlink:title=" ">
<polygon fill="white" stroke="transparent" points="446,-773 407,-773 407,-724 446,-724 446,-773"/>
<text text-anchor="start" x="412.5" y="-760.5" font-family="Helvetica,sans-Serif" font-size="10.00">String</text>
<text text-anchor="start" x="425" y="-745.5" font-family="Helvetica,sans-Serif" font-size="10.00"> </text>
<text text-anchor="start" x="425" y="-730.5" font-family="Helvetica,sans-Serif" font-size="10.00"> </text>
<polygon fill="#666666" stroke="#666666" points="407.5,-755.5 407.5,-755.5 446.5,-755.5 446.5,-755.5 407.5,-755.5"/>
<polygon fill="#666666" stroke="#666666" points="407.5,-740.5 407.5,-740.5 446.5,-740.5 446.5,-740.5 407.5,-740.5"/>
<polygon fill="none" stroke="#666666" points="407,-724 407,-773 446,-773 446,-724 407,-724"/>
</a>
</g>
</g>
<!-- Node6&#45;&gt;Node2 -->
<g id="edge8_Node000002_Node000006" class="edge">
<title>Node6&#45;&gt;Node2</title>
<g id="a_edge8_Node000002_Node000006"><a xlink:title=" ">
<path fill="none" stroke="#63b8ff" d="M446.11,-729.6C461.23,-714.37 480.95,-691.05 489.5,-666 513.77,-594.92 520.82,-565.27 489.5,-497 478.99,-474.08 462.45,-479.53 446.5,-460 445.91,-459.27 445.32,-458.54 444.73,-457.8"/>
<polygon fill="none" stroke="#63b8ff" points="444.49,-457.49 437.66,-455.16 437.19,-447.97 444.02,-450.3 444.49,-457.49"/>
</a>
</g>
<text text-anchor="middle" x="541" y="-584.5" font-family="Helvetica,sans-Serif" font-size="10.00" fill="grey"> &#45;csv_header</text>
<text text-anchor="middle" x="541" y="-573.5" font-family="Helvetica,sans-Serif" font-size="10.00" fill="grey">&#45;empty_csv</text>
</g>
<!-- Node6&#45;&gt;Node3 -->
<g id="edge5_Node000003_Node000006" class="edge">
<title>Node6&#45;&gt;Node3</title>
<g id="a_edge5_Node000003_Node000006"><a xlink:title=" ">
<path fill="none" stroke="#63b8ff" d="M406.75,-731.68C380.46,-710.62 332.55,-672.25 291.91,-639.7"/>
<polygon fill="none" stroke="#63b8ff" points="291.66,-639.5 284.48,-638.87 282.29,-631.99 289.48,-632.62 291.66,-639.5"/>
</a>
</g>
<text text-anchor="middle" x="408" y="-692.5" font-family="Helvetica,sans-Serif" font-size="10.00" fill="grey"> &#45;device_name</text>
</g>
<!-- Node7 -->
<g id="Node000007" class="node">
<title>Node7</title>
<g id="a_Node000007"><a xlink:title=" ">
<polygon fill="white" stroke="transparent" points="164.5,-773 132.5,-773 132.5,-724 164.5,-724 164.5,-773"/>
<text text-anchor="start" x="137.5" y="-760.5" font-family="Helvetica,sans-Serif" font-size="10.00">bool</text>
<text text-anchor="start" x="146.5" y="-745.5" font-family="Helvetica,sans-Serif" font-size="10.00"> </text>
<text text-anchor="start" x="146.5" y="-730.5" font-family="Helvetica,sans-Serif" font-size="10.00"> </text>
<polygon fill="#666666" stroke="#666666" points="132.5,-755.5 132.5,-755.5 164.5,-755.5 164.5,-755.5 132.5,-755.5"/>
<polygon fill="#666666" stroke="#666666" points="132.5,-740.5 132.5,-740.5 164.5,-740.5 164.5,-740.5 132.5,-740.5"/>
<polygon fill="none" stroke="#666666" points="132.5,-724 132.5,-773 164.5,-773 164.5,-724 132.5,-724"/>
</a>
</g>
</g>
<!-- Node7&#45;&gt;Node3 -->
<g id="edge6_Node000003_Node000007" class="edge">
<title>Node7&#45;&gt;Node3</title>
<g id="a_edge6_Node000003_Node000007"><a xlink:title=" ">
<path fill="none" stroke="#63b8ff" d="M152.95,-723.83C155.6,-711.68 159.46,-696.8 164.5,-684 165.37,-681.79 166.28,-679.56 167.23,-677.33"/>
<polygon fill="none" stroke="#63b8ff" points="167.32,-677.12 166.11,-670.02 172.2,-666.16 173.41,-673.27 167.32,-677.12"/>
</a>
</g>
<text text-anchor="middle" x="189" y="-692.5" font-family="Helvetica,sans-Serif" font-size="10.00" fill="grey"> #verified</text>
</g>
<!-- Node8 -->
<g id="Node000008" class="node">
<title>Node8</title>
<g id="a_Node000008"><a xlink:title=" ">
<polygon fill="white" stroke="transparent" points="541.5,-347.5 455.5,-347.5 455.5,-298.5 541.5,-298.5 541.5,-347.5"/>
<text text-anchor="start" x="460.5" y="-335" font-family="Helvetica,sans-Serif" font-size="10.00">Adafruit_SHTC3</text>
<text text-anchor="start" x="496.5" y="-320" font-family="Helvetica,sans-Serif" font-size="10.00"> </text>
<text text-anchor="start" x="496.5" y="-305" font-family="Helvetica,sans-Serif" font-size="10.00"> </text>
<polygon fill="#666666" stroke="#666666" points="455.5,-330 455.5,-330 541.5,-330 541.5,-330 455.5,-330"/>
<polygon fill="#666666" stroke="#666666" points="455.5,-315 455.5,-315 541.5,-315 541.5,-315 455.5,-315"/>
<polygon fill="none" stroke="#666666" points="455.5,-298.5 455.5,-347.5 541.5,-347.5 541.5,-298.5 455.5,-298.5"/>
</a>
</g>
</g>
<!-- Node8&#45;&gt;Node1 -->
<g id="edge10_Node000001_Node000008" class="edge">
<title>Node8&#45;&gt;Node1</title>
<g id="a_edge10_Node000001_Node000008"><a xlink:title=" ">
<path fill="none" stroke="#63b8ff" d="M498.5,-298.34C498.5,-264.94 498.5,-202.35 498.5,-151.21"/>
<polygon fill="none" stroke="#63b8ff" points="498.5,-151.15 494.5,-145.15 498.5,-139.15 502.5,-145.15 498.5,-151.15"/>
</a>
</g>
<text text-anchor="middle" x="515.5" y="-160" font-family="Helvetica,sans-Serif" font-size="10.00" fill="grey"> &#45;shtc3</text>
</g>
<!-- Node9 -->
<g id="Node000009" class="node">
<title>Node9</title>
<g id="a_Node000009"><a xlink:title=" ">
<polygon fill="white" stroke="transparent" points="591.5,-347.5 559.5,-347.5 559.5,-298.5 591.5,-298.5 591.5,-347.5"/>
<text text-anchor="start" x="564.5" y="-335" font-family="Helvetica,sans-Serif" font-size="10.00">float</text>
<text text-anchor="start" x="573.5" y="-320" font-family="Helvetica,sans-Serif" font-size="10.00"> </text>
<text text-anchor="start" x="573.5" y="-305" font-family="Helvetica,sans-Serif" font-size="10.00"> </text>
<polygon fill="#666666" stroke="#666666" points="559.5,-330 559.5,-330 591.5,-330 591.5,-330 559.5,-330"/>
<polygon fill="#666666" stroke="#666666" points="559.5,-315 559.5,-315 591.5,-315 591.5,-315 559.5,-315"/>
<polygon fill="none" stroke="#666666" points="559.5,-298.5 559.5,-347.5 591.5,-347.5 591.5,-298.5 559.5,-298.5"/>
</a>
</g>
</g>
<!-- Node9&#45;&gt;Node1 -->
<g id="edge11_Node000001_Node000009" class="edge">
<title>Node9&#45;&gt;Node1</title>
<g id="a_edge11_Node000001_Node000009"><a xlink:title=" ">
<path fill="none" stroke="#63b8ff" d="M572.93,-298.49C569.52,-271.04 562.51,-224.5 550.5,-186 546.83,-174.23 542.27,-162.07 537.39,-150.26"/>
<polygon fill="none" stroke="#63b8ff" points="537.32,-150.11 531.3,-146.16 532.63,-139.07 538.66,-143.03 537.32,-150.11"/>
</a>
</g>
<text text-anchor="middle" x="590.5" y="-160" font-family="Helvetica,sans-Serif" font-size="10.00" fill="grey"> &#45;relative_humidity</text>
</g>
</g>
</svg>
