<?xml version="1.0" encoding="UTF-8" standalone="no"?>
<!DOCTYPE svg PUBLIC "-//W3C//DTD SVG 1.1//EN"
 "http://www.w3.org/Graphics/SVG/1.1/DTD/svg11.dtd">
<!-- Generated by graphviz version 2.43.0 (0)
 -->
<!-- Title: DS3231Sensor Pages: 1 -->
<svg width="258pt" height="511pt"
 viewBox="0.00 0.00 258.00 511.00" xmlns="http://www.w3.org/2000/svg" xmlns:xlink="http://www.w3.org/1999/xlink">
<g id="graph0" class="graph" transform="scale(1 1) rotate(0) translate(4 507)">
<title>DS3231Sensor</title>
<!-- Node1 -->
<g id="Node000001" class="node">
<title>Node1</title>
<g id="a_Node000001"><a xlink:title="Implementation of a Sensor for the DS3231 Real Time Clock.">
<polygon fill="#999999" stroke="transparent" points="237.5,-139 131.5,-139 131.5,0 237.5,0 237.5,-139"/>
<text text-anchor="start" x="149" y="-126.5" font-family="Helvetica,sans-Serif" font-size="10.00">DS3231Sensor</text>
<text text-anchor="start" x="182.5" y="-111.5" font-family="Helvetica,sans-Serif" font-size="10.00"> </text>
<text text-anchor="start" x="135.5" y="-96.5" font-family="Helvetica,sans-Serif" font-size="10.00">+</text>
<text text-anchor="start" x="148.5" y="-96.5" font-family="Helvetica,sans-Serif" font-size="10.00">DS3231Sensor()</text>
<text text-anchor="start" x="135.5" y="-81.5" font-family="Helvetica,sans-Serif" font-size="10.00">+</text>
<text text-anchor="start" x="148.5" y="-81.5" font-family="Helvetica,sans-Serif" font-size="10.00">DS3231Sensor()</text>
<text text-anchor="start" x="135.5" y="-66.5" font-family="Helvetica,sans-Serif" font-size="10.00">+</text>
<text text-anchor="start" x="148.5" y="-66.5" font-family="Helvetica,sans-Serif" font-size="10.00">verify()</text>
<text text-anchor="start" x="135.5" y="-51.5" font-family="Helvetica,sans-Serif" font-size="10.00">+</text>
<text text-anchor="start" x="148.5" y="-51.5" font-family="Helvetica,sans-Serif" font-size="10.00">readDataPacket()</text>
<text text-anchor="start" x="135.5" y="-36.5" font-family="Helvetica,sans-Serif" font-size="10.00">+</text>
<text text-anchor="start" x="148.5" y="-36.5" font-family="Helvetica,sans-Serif" font-size="10.00">decodeToCSV()</text>
<text text-anchor="start" x="135.5" y="-21.5" font-family="Helvetica,sans-Serif" font-size="10.00">+</text>
<text text-anchor="start" x="148.5" y="-21.5" font-family="Helvetica,sans-Serif" font-size="10.00">readData()</text>
<text text-anchor="start" x="135.5" y="-6.5" font-family="Helvetica,sans-Serif" font-size="10.00">+</text>
<text text-anchor="start" x="148.5" y="-6.5" font-family="Helvetica,sans-Serif" font-size="10.00">setTime()</text>
<polygon fill="#666666" stroke="#666666" points="131.5,-121.5 131.5,-121.5 237.5,-121.5 237.5,-121.5 131.5,-121.5"/>
<polygon fill="#666666" stroke="#666666" points="131.5,-106.5 131.5,-106.5 237.5,-106.5 237.5,-106.5 131.5,-106.5"/>
<polygon fill="none" stroke="#666666" points="131.5,0 131.5,-139 237.5,-139 237.5,0 131.5,0"/>
</a>
</g>
</g>
<!-- Node2 -->
<g id="Node000002" class="node">
<title>Node2</title>
<g id="a_Node000002"><a xlink:href="classSensor.html" target="_top" xlink:title="Parent class for sensor objects.">
<polygon fill="white" stroke="transparent" points="161,-385 28,-385 28,-186 161,-186 161,-385"/>
<text text-anchor="start" x="78" y="-372.5" font-family="Helvetica,sans-Serif" font-size="10.00">Sensor</text>
<text text-anchor="start" x="93" y="-357.5" font-family="Helvetica,sans-Serif" font-size="10.00"> </text>
<text text-anchor="start" x="32.5" y="-342.5" font-family="Helvetica,sans-Serif" font-size="10.00">+</text>
<text text-anchor="start" x="45.5" y="-342.5" font-family="Helvetica,sans-Serif" font-size="10.00">Sensor()</text>
<text text-anchor="start" x="32.5" y="-327.5" font-family="Helvetica,sans-Serif" font-size="10.00">+</text>
<text text-anchor="start" x="45.5" y="-327.5" font-family="Helvetica,sans-Serif" font-size="10.00">Sensor()</text>
<text text-anchor="start" x="32.5" y="-312.5" font-family="Helvetica,sans-Serif" font-size="10.00">+</text>
<text text-anchor="start" x="45.5" y="-312.5" font-family="Helvetica,sans-Serif" font-size="10.00">Sensor()</text>
<text text-anchor="start" x="32.5" y="-297.5" font-family="Helvetica,sans-Serif" font-size="10.00">+</text>
<text text-anchor="start" x="45.5" y="-297.5" font-family="Helvetica,sans-Serif" font-size="10.00">Sensor()</text>
<text text-anchor="start" x="32.5" y="-282.5" font-family="Helvetica,sans-Serif" font-size="10.00">+</text>
<text text-anchor="start" x="45.5" y="-282.5" font-family="Helvetica,sans-Serif" font-size="10.00">getPeriod()</text>
<text text-anchor="start" x="32.5" y="-267.5" font-family="Helvetica,sans-Serif" font-size="10.00">+</text>
<text text-anchor="start" x="45.5" y="-267.5" font-family="Helvetica,sans-Serif" font-size="10.00">setPeriod()</text>
<text text-anchor="start" x="32.5" y="-252.5" font-family="Helvetica,sans-Serif" font-size="10.00">+</text>
<text text-anchor="start" x="45.5" y="-252.5" font-family="Helvetica,sans-Serif" font-size="10.00">getLastExecution()</text>
<text text-anchor="start" x="32.5" y="-237.5" font-family="Helvetica,sans-Serif" font-size="10.00">+</text>
<text text-anchor="start" x="45.5" y="-237.5" font-family="Helvetica,sans-Serif" font-size="10.00">setLastExecution()</text>
<text text-anchor="start" x="32.5" y="-222.5" font-family="Helvetica,sans-Serif" font-size="10.00">+</text>
<text text-anchor="start" x="45.5" y="-222.5" font-family="Helvetica,sans-Serif" font-size="10.00">getSensorName()</text>
<text text-anchor="start" x="32.5" y="-207.5" font-family="Helvetica,sans-Serif" font-size="10.00">+</text>
<text text-anchor="start" x="45.5" y="-207.5" font-family="Helvetica,sans-Serif" font-size="10.00">getSensorCSVHeader()</text>
<text text-anchor="start" x="45.5" y="-192.5" font-family="Helvetica,sans-Serif" font-size="10.00">and 7 more...</text>
<polygon fill="#666666" stroke="#666666" points="28.5,-367.5 28.5,-367.5 161.5,-367.5 161.5,-367.5 28.5,-367.5"/>
<polygon fill="#666666" stroke="#666666" points="28.5,-352.5 28.5,-352.5 161.5,-352.5 161.5,-352.5 28.5,-352.5"/>
<polygon fill="none" stroke="#666666" points="28,-186 28,-385 161,-385 161,-186 28,-186"/>
</a>
</g>
</g>
<!-- Node2&#45;&gt;Node1 -->
<g id="edge1_Node000001_Node000002" class="edge">
<title>Node2&#45;&gt;Node1</title>
<g id="a_edge1_Node000001_Node000002"><a xlink:title=" ">
<path fill="none" stroke="#63b8ff" d="M139.84,-176.68C145.2,-163.94 150.56,-151.21 155.6,-139.21"/>
<polygon fill="none" stroke="#63b8ff" points="136.59,-175.38 135.94,-185.96 143.05,-178.09 136.59,-175.38"/>
</a>
</g>
</g>
<!-- Node3 -->
<g id="Node000003" class="node">
<title>Node3</title>
<g id="a_Node000003"><a xlink:title=" ">
<polygon fill="white" stroke="transparent" points="79,-503 0,-503 0,-454 79,-454 79,-503"/>
<text text-anchor="start" x="5.5" y="-490.5" font-family="Helvetica,sans-Serif" font-size="10.00">unsigned long</text>
<text text-anchor="start" x="38" y="-475.5" font-family="Helvetica,sans-Serif" font-size="10.00"> </text>
<text text-anchor="start" x="38" y="-460.5" font-family="Helvetica,sans-Serif" font-size="10.00"> </text>
<polygon fill="#666666" stroke="#666666" points="0.5,-485.5 0.5,-485.5 79.5,-485.5 79.5,-485.5 0.5,-485.5"/>
<polygon fill="#666666" stroke="#666666" points="0.5,-470.5 0.5,-470.5 79.5,-470.5 79.5,-470.5 0.5,-470.5"/>
<polygon fill="none" stroke="#666666" points="0,-454 0,-503 79,-503 79,-454 0,-454"/>
</a>
</g>
</g>
<!-- Node3&#45;&gt;Node2 -->
<g id="edge2_Node000002_Node000003" class="edge">
<title>Node3&#45;&gt;Node2</title>
<g id="a_edge2_Node000002_Node000003"><a xlink:title=" ">
<path fill="none" stroke="#63b8ff" d="M37.31,-453.71C36.56,-438.94 36.71,-419.65 40.5,-403 40.96,-400.98 41.46,-398.96 41.99,-396.93"/>
<polygon fill="none" stroke="#63b8ff" points="42.02,-396.82 39.86,-389.94 45.38,-385.3 47.54,-392.18 42.02,-396.82"/>
</a>
</g>
<text text-anchor="middle" x="84.5" y="-422.5" font-family="Helvetica,sans-Serif" font-size="10.00" fill="grey"> &#45;last_execution</text>
<text text-anchor="middle" x="84.5" y="-411.5" font-family="Helvetica,sans-Serif" font-size="10.00" fill="grey">&#45;minimum_period</text>
</g>
<!-- Node4 -->
<g id="Node000004" class="node">
<title>Node4</title>
<g id="a_Node000004"><a xlink:title=" ">
<polygon fill="white" stroke="transparent" points="170,-503 131,-503 131,-454 170,-454 170,-503"/>
<text text-anchor="start" x="136.5" y="-490.5" font-family="Helvetica,sans-Serif" font-size="10.00">String</text>
<text text-anchor="start" x="149" y="-475.5" font-family="Helvetica,sans-Serif" font-size="10.00"> </text>
<text text-anchor="start" x="149" y="-460.5" font-family="Helvetica,sans-Serif" font-size="10.00"> </text>
<polygon fill="#666666" stroke="#666666" points="131.5,-485.5 131.5,-485.5 170.5,-485.5 170.5,-485.5 131.5,-485.5"/>
<polygon fill="#666666" stroke="#666666" points="131.5,-470.5 131.5,-470.5 170.5,-470.5 170.5,-470.5 131.5,-470.5"/>
<polygon fill="none" stroke="#666666" points="131,-454 131,-503 170,-503 170,-454 131,-454"/>
</a>
</g>
</g>
<!-- Node4&#45;&gt;Node2 -->
<g id="edge3_Node000002_Node000004" class="edge">
<title>Node4&#45;&gt;Node2</title>
<g id="a_edge3_Node000002_Node000004"><a xlink:title=" ">
<path fill="none" stroke="#63b8ff" d="M143.52,-453.7C139.15,-438.78 133.16,-418.36 126.87,-396.91"/>
<polygon fill="none" stroke="#63b8ff" points="126.83,-396.78 121.31,-392.15 123.46,-385.27 128.99,-389.9 126.83,-396.78"/>
</a>
</g>
<text text-anchor="middle" x="172.5" y="-428" font-family="Helvetica,sans-Serif" font-size="10.00" fill="grey"> &#45;csv_header</text>
<text text-anchor="middle" x="172.5" y="-417" font-family="Helvetica,sans-Serif" font-size="10.00" fill="grey">&#45;empty_csv</text>
<text text-anchor="middle" x="172.5" y="-406" font-family="Helvetica,sans-Serif" font-size="10.00" fill="grey">&#45;sensor_name</text>
</g>
<!-- Node5 -->
<g id="Node000005" class="node">
<title>Node5</title>
<g id="a_Node000005"><a xlink:title=" ">
<polygon fill="white" stroke="transparent" points="250,-310 179,-310 179,-261 250,-261 250,-310"/>
<text text-anchor="start" x="184.5" y="-297.5" font-family="Helvetica,sans-Serif" font-size="10.00">RTC_DS3231</text>
<text text-anchor="start" x="213" y="-282.5" font-family="Helvetica,sans-Serif" font-size="10.00"> </text>
<text text-anchor="start" x="213" y="-267.5" font-family="Helvetica,sans-Serif" font-size="10.00"> </text>
<polygon fill="#666666" stroke="#666666" points="179.5,-292.5 179.5,-292.5 250.5,-292.5 250.5,-292.5 179.5,-292.5"/>
<polygon fill="#666666" stroke="#666666" points="179.5,-277.5 179.5,-277.5 250.5,-277.5 250.5,-277.5 179.5,-277.5"/>
<polygon fill="none" stroke="#666666" points="179,-261 179,-310 250,-310 250,-261 179,-261"/>
</a>
</g>
</g>
<!-- Node5&#45;&gt;Node1 -->
<g id="edge4_Node000001_Node000005" class="edge">
<title>Node5&#45;&gt;Node1</title>
<g id="a_edge4_Node000001_Node000005"><a xlink:title=" ">
<path fill="none" stroke="#63b8ff" d="M211.17,-260.78C207.47,-234.35 201.28,-190.18 195.79,-151.04"/>
<polygon fill="none" stroke="#63b8ff" points="195.78,-150.97 190.99,-145.58 194.11,-139.08 198.91,-144.47 195.78,-150.97"/>
</a>
</g>
<text text-anchor="middle" x="207.5" y="-160" font-family="Helvetica,sans-Serif" font-size="10.00" fill="grey"> &#45;rtc</text>
</g>
</g>
</svg>
