<?xml version="1.0" encoding="UTF-8" standalone="no"?>
<!DOCTYPE svg PUBLIC "-//W3C//DTD SVG 1.1//EN"
 "http://www.w3.org/Graphics/SVG/1.1/DTD/svg11.dtd">
<!-- Generated by graphviz version 2.43.0 (0)
 -->
<!-- Title: ICM20948Sensor Pages: 1 -->
<svg width="517pt" height="724pt"
 viewBox="0.00 0.00 516.50 724.00" xmlns="http://www.w3.org/2000/svg" xmlns:xlink="http://www.w3.org/1999/xlink">
<g id="graph0" class="graph" transform="scale(1 1) rotate(0) translate(4 720)">
<title>ICM20948Sensor</title>
<!-- Node1 -->
<g id="Node000001" class="node">
<title>Node1</title>
<g id="a_Node000001"><a xlink:title="Implementation of the Sensor class for the Adafruit ICM20948 (9&#45;axis IMU)">
<polygon fill="#999999" stroke="transparent" points="398,-124 287,-124 287,0 398,0 398,-124"/>
<text text-anchor="start" x="302" y="-112" font-family="Helvetica,sans-Serif" font-size="10.00">ICM20948Sensor</text>
<text text-anchor="start" x="341" y="-97" font-family="Helvetica,sans-Serif" font-size="10.00"> </text>
<text text-anchor="start" x="291.5" y="-82" font-family="Helvetica,sans-Serif" font-size="10.00">+</text>
<text text-anchor="start" x="304.5" y="-82" font-family="Helvetica,sans-Serif" font-size="10.00">ICM20948Sensor()</text>
<text text-anchor="start" x="291.5" y="-67" font-family="Helvetica,sans-Serif" font-size="10.00">+</text>
<text text-anchor="start" x="304.5" y="-67" font-family="Helvetica,sans-Serif" font-size="10.00">ICM20948Sensor()</text>
<text text-anchor="start" x="291.5" y="-52" font-family="Helvetica,sans-Serif" font-size="10.00">+</text>
<text text-anchor="start" x="304.5" y="-52" font-family="Helvetica,sans-Serif" font-size="10.00">verify()</text>
<text text-anchor="start" x="291.5" y="-37" font-family="Helvetica,sans-Serif" font-size="10.00">+</text>
<text text-anchor="start" x="304.5" y="-37" font-family="Helvetica,sans-Serif" font-size="10.00">readData()</text>
<text text-anchor="start" x="291.5" y="-22" font-family="Helvetica,sans-Serif" font-size="10.00">+</text>
<text text-anchor="start" x="304.5" y="-22" font-family="Helvetica,sans-Serif" font-size="10.00">readDataPacket()</text>
<text text-anchor="start" x="291.5" y="-7" font-family="Helvetica,sans-Serif" font-size="10.00">+</text>
<text text-anchor="start" x="304.5" y="-7" font-family="Helvetica,sans-Serif" font-size="10.00">decodeToCSV()</text>
<polygon fill="#666666" stroke="#666666" points="287.5,-107 287.5,-107 398.5,-107 398.5,-107 287.5,-107"/>
<polygon fill="#666666" stroke="#666666" points="287.5,-92 287.5,-92 398.5,-92 398.5,-92 287.5,-92"/>
<polygon fill="none" stroke="#666666" points="287,0 287,-124 398,-124 398,0 287,0"/>
</a>
</g>
</g>
<!-- Node2 -->
<g id="Node000002" class="node">
<title>Node2</title>
<g id="a_Node000002"><a xlink:href="classSensor.html" target="_top" xlink:title="Parent class for sensor objects.">
<polygon fill="white" stroke="transparent" points="272,-403 139,-403 139,-204 272,-204 272,-403"/>
<text text-anchor="start" x="189" y="-390.5" font-family="Helvetica,sans-Serif" font-size="10.00">Sensor</text>
<text text-anchor="start" x="204" y="-375.5" font-family="Helvetica,sans-Serif" font-size="10.00"> </text>
<text text-anchor="start" x="143.5" y="-360.5" font-family="Helvetica,sans-Serif" font-size="10.00">+</text>
<text text-anchor="start" x="156.5" y="-360.5" font-family="Helvetica,sans-Serif" font-size="10.00">Sensor()</text>
<text text-anchor="start" x="143.5" y="-345.5" font-family="Helvetica,sans-Serif" font-size="10.00">+</text>
<text text-anchor="start" x="156.5" y="-345.5" font-family="Helvetica,sans-Serif" font-size="10.00">Sensor()</text>
<text text-anchor="start" x="143.5" y="-330.5" font-family="Helvetica,sans-Serif" font-size="10.00">+</text>
<text text-anchor="start" x="156.5" y="-330.5" font-family="Helvetica,sans-Serif" font-size="10.00">Sensor()</text>
<text text-anchor="start" x="143.5" y="-315.5" font-family="Helvetica,sans-Serif" font-size="10.00">+</text>
<text text-anchor="start" x="156.5" y="-315.5" font-family="Helvetica,sans-Serif" font-size="10.00">Sensor()</text>
<text text-anchor="start" x="143.5" y="-300.5" font-family="Helvetica,sans-Serif" font-size="10.00">+</text>
<text text-anchor="start" x="156.5" y="-300.5" font-family="Helvetica,sans-Serif" font-size="10.00">getPeriod()</text>
<text text-anchor="start" x="143.5" y="-285.5" font-family="Helvetica,sans-Serif" font-size="10.00">+</text>
<text text-anchor="start" x="156.5" y="-285.5" font-family="Helvetica,sans-Serif" font-size="10.00">setPeriod()</text>
<text text-anchor="start" x="143.5" y="-270.5" font-family="Helvetica,sans-Serif" font-size="10.00">+</text>
<text text-anchor="start" x="156.5" y="-270.5" font-family="Helvetica,sans-Serif" font-size="10.00">getLastExecution()</text>
<text text-anchor="start" x="143.5" y="-255.5" font-family="Helvetica,sans-Serif" font-size="10.00">+</text>
<text text-anchor="start" x="156.5" y="-255.5" font-family="Helvetica,sans-Serif" font-size="10.00">setLastExecution()</text>
<text text-anchor="start" x="143.5" y="-240.5" font-family="Helvetica,sans-Serif" font-size="10.00">+</text>
<text text-anchor="start" x="156.5" y="-240.5" font-family="Helvetica,sans-Serif" font-size="10.00">getSensorCSVHeader()</text>
<text text-anchor="start" x="143.5" y="-225.5" font-family="Helvetica,sans-Serif" font-size="10.00">+</text>
<text text-anchor="start" x="156.5" y="-225.5" font-family="Helvetica,sans-Serif" font-size="10.00">verify()</text>
<text text-anchor="start" x="156.5" y="-210.5" font-family="Helvetica,sans-Serif" font-size="10.00">and 6 more...</text>
<polygon fill="#666666" stroke="#666666" points="139.5,-385.5 139.5,-385.5 272.5,-385.5 272.5,-385.5 139.5,-385.5"/>
<polygon fill="#666666" stroke="#666666" points="139.5,-370.5 139.5,-370.5 272.5,-370.5 272.5,-370.5 139.5,-370.5"/>
<polygon fill="none" stroke="#666666" points="139,-204 139,-403 272,-403 272,-204 139,-204"/>
</a>
</g>
</g>
<!-- Node2&#45;&gt;Node1 -->
<g id="edge1_Node000001_Node000002" class="edge">
<title>Node2&#45;&gt;Node1</title>
<g id="a_edge1_Node000001_Node000002"><a xlink:title=" ">
<path fill="none" stroke="#63b8ff" d="M267.09,-194.82C280.94,-170.61 295.17,-145.74 307.48,-124.21"/>
<polygon fill="none" stroke="#63b8ff" points="263.94,-193.29 262.01,-203.7 270.02,-196.76 263.94,-193.29"/>
</a>
</g>
</g>
<!-- Node3 -->
<g id="Node000003" class="node">
<title>Node3</title>
<g id="a_Node000003"><a xlink:href="classDevice.html" target="_top" xlink:title="Implements the recovery system for Sensor and Storage objects.">
<polygon fill="white" stroke="transparent" points="267,-609 144,-609 144,-440 267,-440 267,-609"/>
<text text-anchor="start" x="189" y="-596.5" font-family="Helvetica,sans-Serif" font-size="10.00">Device</text>
<text text-anchor="start" x="204" y="-581.5" font-family="Helvetica,sans-Serif" font-size="10.00"> </text>
<text text-anchor="start" x="148.5" y="-566.5" font-family="Helvetica,sans-Serif" font-size="10.00">+</text>
<text text-anchor="start" x="161.5" y="-566.5" font-family="Helvetica,sans-Serif" font-size="10.00">Device()</text>
<text text-anchor="start" x="148.5" y="-551.5" font-family="Helvetica,sans-Serif" font-size="10.00">+</text>
<text text-anchor="start" x="161.5" y="-551.5" font-family="Helvetica,sans-Serif" font-size="10.00">Device()</text>
<text text-anchor="start" x="148.5" y="-536.5" font-family="Helvetica,sans-Serif" font-size="10.00">+</text>
<text text-anchor="start" x="161.5" y="-536.5" font-family="Helvetica,sans-Serif" font-size="10.00">getDeviceName()</text>
<text text-anchor="start" x="148.5" y="-521.5" font-family="Helvetica,sans-Serif" font-size="10.00">+</text>
<text text-anchor="start" x="161.5" y="-521.5" font-family="Helvetica,sans-Serif" font-size="10.00">verify()</text>
<text text-anchor="start" x="148.5" y="-506.5" font-family="Helvetica,sans-Serif" font-size="10.00">+</text>
<text text-anchor="start" x="161.5" y="-506.5" font-family="Helvetica,sans-Serif" font-size="10.00">getVerified()</text>
<text text-anchor="start" x="148.5" y="-491.5" font-family="Helvetica,sans-Serif" font-size="10.00">+</text>
<text text-anchor="start" x="161.5" y="-491.5" font-family="Helvetica,sans-Serif" font-size="10.00">recoveryConfig()</text>
<text text-anchor="start" x="148.5" y="-476.5" font-family="Helvetica,sans-Serif" font-size="10.00">+</text>
<text text-anchor="start" x="161.5" y="-476.5" font-family="Helvetica,sans-Serif" font-size="10.00">setWaitFactor()</text>
<text text-anchor="start" x="148.5" y="-461.5" font-family="Helvetica,sans-Serif" font-size="10.00">+</text>
<text text-anchor="start" x="161.5" y="-461.5" font-family="Helvetica,sans-Serif" font-size="10.00">setMaxAttempts()</text>
<text text-anchor="start" x="148.5" y="-446.5" font-family="Helvetica,sans-Serif" font-size="10.00">+</text>
<text text-anchor="start" x="161.5" y="-446.5" font-family="Helvetica,sans-Serif" font-size="10.00">attemptConnection()</text>
<polygon fill="#666666" stroke="#666666" points="144.5,-591.5 144.5,-591.5 267.5,-591.5 267.5,-591.5 144.5,-591.5"/>
<polygon fill="#666666" stroke="#666666" points="144.5,-576.5 144.5,-576.5 267.5,-576.5 267.5,-576.5 144.5,-576.5"/>
<polygon fill="none" stroke="#666666" points="144,-440 144,-609 267,-609 267,-440 144,-440"/>
</a>
</g>
</g>
<!-- Node3&#45;&gt;Node2 -->
<g id="edge2_Node000002_Node000003" class="edge">
<title>Node3&#45;&gt;Node2</title>
<g id="a_edge2_Node000002_Node000003"><a xlink:title=" ">
<path fill="none" stroke="#63b8ff" d="M205.5,-429.59C205.5,-420.86 205.5,-411.99 205.5,-403.22"/>
<polygon fill="none" stroke="#63b8ff" points="202,-429.77 205.5,-439.77 209,-429.77 202,-429.77"/>
</a>
</g>
</g>
<!-- Node4 -->
<g id="Node000004" class="node">
<title>Node4</title>
<g id="a_Node000004"><a xlink:title=" ">
<polygon fill="white" stroke="transparent" points="79,-716 0,-716 0,-667 79,-667 79,-716"/>
<text text-anchor="start" x="5.5" y="-703.5" font-family="Helvetica,sans-Serif" font-size="10.00">unsigned long</text>
<text text-anchor="start" x="38" y="-688.5" font-family="Helvetica,sans-Serif" font-size="10.00"> </text>
<text text-anchor="start" x="38" y="-673.5" font-family="Helvetica,sans-Serif" font-size="10.00"> </text>
<polygon fill="#666666" stroke="#666666" points="0.5,-698.5 0.5,-698.5 79.5,-698.5 79.5,-698.5 0.5,-698.5"/>
<polygon fill="#666666" stroke="#666666" points="0.5,-683.5 0.5,-683.5 79.5,-683.5 79.5,-683.5 0.5,-683.5"/>
<polygon fill="none" stroke="#666666" points="0,-667 0,-716 79,-716 79,-667 0,-667"/>
</a>
</g>
</g>
<!-- Node4&#45;&gt;Node2 -->
<g id="edge7_Node000002_Node000004" class="edge">
<title>Node4&#45;&gt;Node2</title>
<g id="a_edge7_Node000002_Node000004"><a xlink:title=" ">
<path fill="none" stroke="#63b8ff" d="M34.12,-666.93C24.83,-620.73 10.06,-516.13 46.5,-440 64.23,-402.95 97.39,-372.17 128.86,-349.35"/>
<polygon fill="none" stroke="#63b8ff" points="129.18,-349.13 131.78,-342.41 138.99,-342.23 136.39,-348.95 129.18,-349.13"/>
</a>
</g>
<text text-anchor="middle" x="90.5" y="-527.5" font-family="Helvetica,sans-Serif" font-size="10.00" fill="grey"> &#45;last_execution</text>
<text text-anchor="middle" x="90.5" y="-516.5" font-family="Helvetica,sans-Serif" font-size="10.00" fill="grey">&#45;minimum_period</text>
</g>
<!-- Node4&#45;&gt;Node3 -->
<g id="edge3_Node000003_Node000004" class="edge">
<title>Node4&#45;&gt;Node3</title>
<g id="a_edge3_Node000003_Node000004"><a xlink:title=" ">
<path fill="none" stroke="#63b8ff" d="M52.41,-666.87C60.23,-654.02 71.08,-638.46 83.5,-627 95.21,-616.19 101.67,-618.44 114.5,-609 121.11,-604.13 127.79,-598.86 134.35,-593.4"/>
<polygon fill="none" stroke="#63b8ff" points="134.73,-593.07 136.71,-586.14 143.87,-585.3 141.89,-592.23 134.73,-593.07"/>
</a>
</g>
<text text-anchor="middle" x="118.5" y="-641" font-family="Helvetica,sans-Serif" font-size="10.00" fill="grey"> &#45;last_attempt</text>
<text text-anchor="middle" x="118.5" y="-630" font-family="Helvetica,sans-Serif" font-size="10.00" fill="grey">&#45;wait_factor</text>
</g>
<!-- Node5 -->
<g id="Node000005" class="node">
<title>Node5</title>
<g id="a_Node000005"><a xlink:title=" ">
<polygon fill="white" stroke="transparent" points="232,-716 209,-716 209,-667 232,-667 232,-716"/>
<text text-anchor="start" x="214.5" y="-703.5" font-family="Helvetica,sans-Serif" font-size="10.00">int</text>
<text text-anchor="start" x="219" y="-688.5" font-family="Helvetica,sans-Serif" font-size="10.00"> </text>
<text text-anchor="start" x="219" y="-673.5" font-family="Helvetica,sans-Serif" font-size="10.00"> </text>
<polygon fill="#666666" stroke="#666666" points="209.5,-698.5 209.5,-698.5 232.5,-698.5 232.5,-698.5 209.5,-698.5"/>
<polygon fill="#666666" stroke="#666666" points="209.5,-683.5 209.5,-683.5 232.5,-683.5 232.5,-683.5 209.5,-683.5"/>
<polygon fill="none" stroke="#666666" points="209,-667 209,-716 232,-716 232,-667 209,-667"/>
</a>
</g>
</g>
<!-- Node5&#45;&gt;Node3 -->
<g id="edge4_Node000003_Node000005" class="edge">
<title>Node5&#45;&gt;Node3</title>
<g id="a_edge4_Node000003_Node000005"><a xlink:title=" ">
<path fill="none" stroke="#63b8ff" d="M218.35,-666.86C217.22,-654.45 215.76,-638.34 214.22,-621.46"/>
<polygon fill="none" stroke="#63b8ff" points="214.18,-621.03 209.66,-615.41 213.1,-609.07 217.62,-614.69 214.18,-621.03"/>
</a>
</g>
<text text-anchor="middle" x="261" y="-641" font-family="Helvetica,sans-Serif" font-size="10.00" fill="grey"> &#45;attempt_number</text>
<text text-anchor="middle" x="261" y="-630" font-family="Helvetica,sans-Serif" font-size="10.00" fill="grey">&#45;max_attempts</text>
</g>
<!-- Node6 -->
<g id="Node000006" class="node">
<title>Node6</title>
<g id="a_Node000006"><a xlink:title=" ">
<polygon fill="white" stroke="transparent" points="396,-716 357,-716 357,-667 396,-667 396,-716"/>
<text text-anchor="start" x="362.5" y="-703.5" font-family="Helvetica,sans-Serif" font-size="10.00">String</text>
<text text-anchor="start" x="375" y="-688.5" font-family="Helvetica,sans-Serif" font-size="10.00"> </text>
<text text-anchor="start" x="375" y="-673.5" font-family="Helvetica,sans-Serif" font-size="10.00"> </text>
<polygon fill="#666666" stroke="#666666" points="357.5,-698.5 357.5,-698.5 396.5,-698.5 396.5,-698.5 357.5,-698.5"/>
<polygon fill="#666666" stroke="#666666" points="357.5,-683.5 357.5,-683.5 396.5,-683.5 396.5,-683.5 357.5,-683.5"/>
<polygon fill="none" stroke="#666666" points="357,-667 357,-716 396,-716 396,-667 357,-667"/>
</a>
</g>
</g>
<!-- Node6&#45;&gt;Node2 -->
<g id="edge8_Node000002_Node000006" class="edge">
<title>Node6&#45;&gt;Node2</title>
<g id="a_edge8_Node000002_Node000006"><a xlink:title=" ">
<path fill="none" stroke="#63b8ff" d="M396.13,-668.66C400.37,-662.69 404.26,-655.94 406.5,-649 409.51,-639.7 409.19,-636.4 406.5,-627 393.37,-581.09 330.82,-483.99 278.94,-408.27"/>
<polygon fill="none" stroke="#63b8ff" points="278.82,-408.09 272.13,-405.42 272.03,-398.21 278.72,-400.88 278.82,-408.09"/>
</a>
</g>
<text text-anchor="middle" x="431" y="-527.5" font-family="Helvetica,sans-Serif" font-size="10.00" fill="grey"> &#45;csv_header</text>
<text text-anchor="middle" x="431" y="-516.5" font-family="Helvetica,sans-Serif" font-size="10.00" fill="grey">&#45;empty_csv</text>
</g>
<!-- Node6&#45;&gt;Node3 -->
<g id="edge5_Node000003_Node000006" class="edge">
<title>Node6&#45;&gt;Node3</title>
<g id="a_edge5_Node000003_Node000006"><a xlink:title=" ">
<path fill="none" stroke="#63b8ff" d="M356.88,-671.57C337.09,-652.47 305.34,-621.83 276.01,-593.54"/>
<polygon fill="none" stroke="#63b8ff" points="275.64,-593.18 268.54,-591.89 267,-584.85 274.1,-586.13 275.64,-593.18"/>
</a>
</g>
<text text-anchor="middle" x="368" y="-635.5" font-family="Helvetica,sans-Serif" font-size="10.00" fill="grey"> &#45;device_name</text>
</g>
<!-- Node7 -->
<g id="Node000007" class="node">
<title>Node7</title>
<g id="a_Node000007"><a xlink:title=" ">
<polygon fill="white" stroke="transparent" points="164.5,-716 132.5,-716 132.5,-667 164.5,-667 164.5,-716"/>
<text text-anchor="start" x="137.5" y="-703.5" font-family="Helvetica,sans-Serif" font-size="10.00">bool</text>
<text text-anchor="start" x="146.5" y="-688.5" font-family="Helvetica,sans-Serif" font-size="10.00"> </text>
<text text-anchor="start" x="146.5" y="-673.5" font-family="Helvetica,sans-Serif" font-size="10.00"> </text>
<polygon fill="#666666" stroke="#666666" points="132.5,-698.5 132.5,-698.5 164.5,-698.5 164.5,-698.5 132.5,-698.5"/>
<polygon fill="#666666" stroke="#666666" points="132.5,-683.5 132.5,-683.5 164.5,-683.5 164.5,-683.5 132.5,-683.5"/>
<polygon fill="none" stroke="#666666" points="132.5,-667 132.5,-716 164.5,-716 164.5,-667 132.5,-667"/>
</a>
</g>
</g>
<!-- Node7&#45;&gt;Node3 -->
<g id="edge6_Node000003_Node000007" class="edge">
<title>Node7&#45;&gt;Node3</title>
<g id="a_edge6_Node000003_Node000007"><a xlink:title=" ">
<path fill="none" stroke="#63b8ff" d="M152.67,-666.7C155.05,-654.67 158.38,-639.91 162.5,-627 163.17,-624.9 163.86,-622.79 164.58,-620.67"/>
<polygon fill="none" stroke="#63b8ff" points="164.62,-620.55 162.85,-613.56 168.62,-609.24 170.39,-616.23 164.62,-620.55"/>
</a>
</g>
<text text-anchor="middle" x="187" y="-635.5" font-family="Helvetica,sans-Serif" font-size="10.00" fill="grey"> #verified</text>
</g>
<!-- Node8 -->
<g id="Node000008" class="node">
<title>Node8</title>
<g id="a_Node000008"><a xlink:title=" ">
<polygon fill="white" stroke="transparent" points="394.5,-328 290.5,-328 290.5,-279 394.5,-279 394.5,-328"/>
<text text-anchor="start" x="295.5" y="-315.5" font-family="Helvetica,sans-Serif" font-size="10.00">Adafruit_ICM20948</text>
<text text-anchor="start" x="340.5" y="-300.5" font-family="Helvetica,sans-Serif" font-size="10.00"> </text>
<text text-anchor="start" x="340.5" y="-285.5" font-family="Helvetica,sans-Serif" font-size="10.00"> </text>
<polygon fill="#666666" stroke="#666666" points="290.5,-310.5 290.5,-310.5 394.5,-310.5 394.5,-310.5 290.5,-310.5"/>
<polygon fill="#666666" stroke="#666666" points="290.5,-295.5 290.5,-295.5 394.5,-295.5 394.5,-295.5 290.5,-295.5"/>
<polygon fill="none" stroke="#666666" points="290.5,-279 290.5,-328 394.5,-328 394.5,-279 290.5,-279"/>
</a>
</g>
</g>
<!-- Node8&#45;&gt;Node1 -->
<g id="edge9_Node000001_Node000008" class="edge">
<title>Node8&#45;&gt;Node1</title>
<g id="a_edge9_Node000001_Node000008"><a xlink:title=" ">
<path fill="none" stroke="#63b8ff" d="M342.5,-278.66C342.5,-245.72 342.5,-184.84 342.5,-136.14"/>
<polygon fill="none" stroke="#63b8ff" points="342.5,-136.05 338.5,-130.05 342.5,-124.05 346.5,-130.05 342.5,-136.05"/>
</a>
</g>
<text text-anchor="middle" x="355" y="-161.5" font-family="Helvetica,sans-Serif" font-size="10.00" fill="grey"> &#45;icm</text>
</g>
<!-- Node9 -->
<g id="Node000009" class="node">
<title>Node9</title>
<g id="a_Node000009"><a xlink:title=" ">
<polygon fill="white" stroke="transparent" points="508.5,-328 412.5,-328 412.5,-279 508.5,-279 508.5,-328"/>
<text text-anchor="start" x="417.5" y="-315.5" font-family="Helvetica,sans-Serif" font-size="10.00">Adafruit_Sensor *</text>
<text text-anchor="start" x="458.5" y="-300.5" font-family="Helvetica,sans-Serif" font-size="10.00"> </text>
<text text-anchor="start" x="458.5" y="-285.5" font-family="Helvetica,sans-Serif" font-size="10.00"> </text>
<polygon fill="#666666" stroke="#666666" points="412.5,-310.5 412.5,-310.5 508.5,-310.5 508.5,-310.5 412.5,-310.5"/>
<polygon fill="#666666" stroke="#666666" points="412.5,-295.5 412.5,-295.5 508.5,-295.5 508.5,-295.5 412.5,-295.5"/>
<polygon fill="none" stroke="#666666" points="412.5,-279 412.5,-328 508.5,-328 508.5,-279 412.5,-279"/>
</a>
</g>
</g>
<!-- Node9&#45;&gt;Node1 -->
<g id="edge10_Node000001_Node000009" class="edge">
<title>Node9&#45;&gt;Node1</title>
<g id="a_edge10_Node000001_Node000009"><a xlink:title=" ">
<path fill="none" stroke="#63b8ff" d="M448.75,-278.66C432.39,-245.44 402.02,-183.8 377.93,-134.9"/>
<polygon fill="none" stroke="#63b8ff" points="377.88,-134.81 371.64,-131.2 372.58,-124.05 378.82,-127.66 377.88,-134.81"/>
</a>
</g>
<text text-anchor="middle" x="429.5" y="-178" font-family="Helvetica,sans-Serif" font-size="10.00" fill="grey"> &#45;icm_accel</text>
<text text-anchor="middle" x="429.5" y="-167" font-family="Helvetica,sans-Serif" font-size="10.00" fill="grey">&#45;icm_gyro</text>
<text text-anchor="middle" x="429.5" y="-156" font-family="Helvetica,sans-Serif" font-size="10.00" fill="grey">&#45;icm_mag</text>
<text text-anchor="middle" x="429.5" y="-145" font-family="Helvetica,sans-Serif" font-size="10.00" fill="grey">&#45;icm_temp</text>
</g>
</g>
</svg>
