<?xml version="1.0" encoding="UTF-8" standalone="no"?>
<!DOCTYPE svg PUBLIC "-//W3C//DTD SVG 1.1//EN"
 "http://www.w3.org/Graphics/SVG/1.1/DTD/svg11.dtd">
<!-- Generated by graphviz version 2.43.0 (0)
 -->
<!-- Title: ErrorDisplay::instance Pages: 1 -->
<svg width="383pt" height="212pt"
 viewBox="0.00 0.00 383.00 212.00" xmlns="http://www.w3.org/2000/svg" xmlns:xlink="http://www.w3.org/1999/xlink">
<g id="graph0" class="graph" transform="scale(1 1) rotate(0) translate(4 208)">
<title>ErrorDisplay::instance</title>
<!-- Node1 -->
<g id="Node000001" class="node">
<title>Node1</title>
<g id="a_Node000001"><a xlink:title="Accesses the only instance of ErrorDisplay (Singleton)">
<polygon fill="#999999" stroke="#666666" points="375,-111 252,-111 252,-92 375,-92 375,-111"/>
<text text-anchor="middle" x="313.5" y="-99" font-family="Helvetica,sans-Serif" font-size="10.00">ErrorDisplay::instance</text>
</a>
</g>
</g>
<!-- Node2 -->
<g id="Node000002" class="node">
<title>Node2</title>
<g id="a_Node000002"><a xlink:href="main_8cpp.html#afe461d27b9c48d5921c00d521181f12f" target="_top" xlink:title="Loop for core 0, handling sensor reads.">
<polygon fill="white" stroke="#666666" points="170,-204 132,-204 132,-185 170,-185 170,-204"/>
<text text-anchor="middle" x="151" y="-192" font-family="Helvetica,sans-Serif" font-size="10.00">loop</text>
</a>
</g>
</g>
<!-- Node1&#45;&gt;Node2 -->
<g id="edge1_Node000001_Node000002" class="edge">
<title>Node1&#45;&gt;Node2</title>
<g id="a_edge1_Node000001_Node000002"><a xlink:title=" ">
<path fill="none" stroke="#63b8ff" d="M295.49,-118.09C277.24,-135.04 246.72,-161 216,-176.5 201.37,-183.89 183.28,-188.62 170.07,-191.36"/>
<polygon fill="#63b8ff" stroke="#63b8ff" points="298.11,-120.43 302.97,-111.01 293.3,-115.35 298.11,-120.43"/>
</a>
</g>
</g>
<!-- Node3 -->
<g id="Node000003" class="node">
<title>Node3</title>
<g id="a_Node000003"><a xlink:href="main1_8cpp.html#a335f1df8d0b267769cb9842c12616214" target="_top" xlink:title="Setup for core 1.">
<polygon fill="white" stroke="#666666" points="188,-167 114,-167 114,-148 188,-148 188,-167"/>
<text text-anchor="middle" x="151" y="-155" font-family="Helvetica,sans-Serif" font-size="10.00">real_setup1</text>
</a>
</g>
</g>
<!-- Node1&#45;&gt;Node3 -->
<g id="edge2_Node000001_Node000003" class="edge">
<title>Node1&#45;&gt;Node3</title>
<g id="a_edge2_Node000001_Node000003"><a xlink:title=" ">
<path fill="none" stroke="#63b8ff" d="M280.63,-114.99C261.97,-122.65 237.84,-132.15 216,-139.5 207.03,-142.52 197.24,-145.45 188.08,-148.04"/>
<polygon fill="#63b8ff" stroke="#63b8ff" points="282.22,-118.12 290.12,-111.06 279.54,-111.65 282.22,-118.12"/>
</a>
</g>
</g>
<!-- Node5 -->
<g id="Node000005" class="node">
<title>Node5</title>
<g id="a_Node000005"><a xlink:href="main_8cpp.html#a4fc01d736fe50cf5b977f755b675f11d" target="_top" xlink:title="Setup for core 0.">
<polygon fill="white" stroke="#666666" points="173,-130 129,-130 129,-111 173,-111 173,-130"/>
<text text-anchor="middle" x="151" y="-118" font-family="Helvetica,sans-Serif" font-size="10.00">setup</text>
</a>
</g>
</g>
<!-- Node1&#45;&gt;Node5 -->
<g id="edge4_Node000001_Node000005" class="edge">
<title>Node1&#45;&gt;Node5</title>
<g id="a_edge4_Node000001_Node000005"><a xlink:title=" ">
<path fill="none" stroke="#63b8ff" d="M241.64,-109.89C216.78,-112.83 190.69,-115.92 173.12,-118"/>
<polygon fill="#63b8ff" stroke="#63b8ff" points="242.3,-113.33 251.82,-108.68 241.48,-106.38 242.3,-113.33"/>
</a>
</g>
</g>
<!-- Node6 -->
<g id="Node000006" class="node">
<title>Node6</title>
<g id="a_Node000006"><a xlink:href="classSDStorage.html#a731b7e40012d3ab63bbf2ae0afe2d800" target="_top" xlink:title="Store data on the SD card, ending with newline.">
<polygon fill="white" stroke="#666666" points="200,-93 102,-93 102,-74 200,-74 200,-93"/>
<text text-anchor="middle" x="151" y="-81" font-family="Helvetica,sans-Serif" font-size="10.00">SDStorage::store</text>
</a>
</g>
</g>
<!-- Node1&#45;&gt;Node6 -->
<g id="edge5_Node000001_Node000006" class="edge">
<title>Node1&#45;&gt;Node6</title>
<g id="a_edge5_Node000001_Node000006"><a xlink:title=" ">
<path fill="none" stroke="#63b8ff" d="M241.66,-93.56C227.58,-91.98 213.11,-90.35 200.01,-88.88"/>
<polygon fill="#63b8ff" stroke="#63b8ff" points="241.49,-97.06 251.82,-94.69 242.27,-90.1 241.49,-97.06"/>
</a>
</g>
</g>
<!-- Node7 -->
<g id="Node000007" class="node">
<title>Node7</title>
<g id="a_Node000007"><a xlink:href="classSDStorage.html#a2f5cfea215ba9e388fcc37b2376e47b0" target="_top" xlink:title="Store data on the SD card.">
<polygon fill="white" stroke="#666666" points="216,-56 86,-56 86,-37 216,-37 216,-56"/>
<text text-anchor="middle" x="151" y="-44" font-family="Helvetica,sans-Serif" font-size="10.00">SDStorage::storePacket</text>
</a>
</g>
</g>
<!-- Node1&#45;&gt;Node7 -->
<g id="edge6_Node000001_Node000007" class="edge">
<title>Node1&#45;&gt;Node7</title>
<g id="a_edge6_Node000001_Node000007"><a xlink:title=" ">
<path fill="none" stroke="#63b8ff" d="M278.65,-88.23C260.23,-81.17 236.99,-72.52 216,-65.5 206.22,-62.23 195.5,-58.93 185.68,-56.03"/>
<polygon fill="#63b8ff" stroke="#63b8ff" points="277.48,-91.53 288.07,-91.86 280,-85 277.48,-91.53"/>
</a>
</g>
</g>
<!-- Node8 -->
<g id="Node000008" class="node">
<title>Node8</title>
<g id="a_Node000008"><a xlink:href="classSDStorage.html#af3c32c732ded4f54f72ec81ab22531d2" target="_top" xlink:title="Verify SD card connection and create a new, unique file.">
<polygon fill="white" stroke="#666666" points="201.5,-19 100.5,-19 100.5,0 201.5,0 201.5,-19"/>
<text text-anchor="middle" x="151" y="-7" font-family="Helvetica,sans-Serif" font-size="10.00">SDStorage::verify</text>
</a>
</g>
</g>
<!-- Node1&#45;&gt;Node8 -->
<g id="edge7_Node000001_Node000008" class="edge">
<title>Node1&#45;&gt;Node8</title>
<g id="a_edge7_Node000001_Node000008"><a xlink:title=" ">
<path fill="none" stroke="#63b8ff" d="M294.77,-84.93C276.35,-68.52 246.08,-43.71 216,-28.5 208.55,-24.73 200.23,-21.58 192.12,-19"/>
<polygon fill="#63b8ff" stroke="#63b8ff" points="292.6,-87.69 302.35,-91.82 297.3,-82.5 292.6,-87.69"/>
</a>
</g>
</g>
<!-- Node4 -->
<g id="Node000004" class="node">
<title>Node4</title>
<g id="a_Node000004"><a xlink:href="main_8cpp.html#ac764ee28e2916a7de10b22927e02d1a4" target="_top" xlink:title=" ">
<polygon fill="white" stroke="#666666" points="50,-167 0,-167 0,-148 50,-148 50,-167"/>
<text text-anchor="middle" x="25" y="-155" font-family="Helvetica,sans-Serif" font-size="10.00">setup1</text>
</a>
</g>
</g>
<!-- Node3&#45;&gt;Node4 -->
<g id="edge3_Node000003_Node000004" class="edge">
<title>Node3&#45;&gt;Node4</title>
<g id="a_edge3_Node000003_Node000004"><a xlink:title=" ">
<path fill="none" stroke="#63b8ff" d="M103.67,-157.5C85.53,-157.5 65.46,-157.5 50.27,-157.5"/>
<polygon fill="#63b8ff" stroke="#63b8ff" points="103.8,-161 113.8,-157.5 103.8,-154 103.8,-161"/>
</a>
</g>
</g>
</g>
</svg>
