<?xml version="1.0" encoding="UTF-8" standalone="no"?>
<!DOCTYPE svg PUBLIC "-//W3C//DTD SVG 1.1//EN"
 "http://www.w3.org/Graphics/SVG/1.1/DTD/svg11.dtd">
<!-- Generated by graphviz version 2.43.0 (0)
 -->
<!-- Title: PCF8523Sensor Pages: 1 -->
<svg width="501pt" height="781pt"
 viewBox="0.00 0.00 500.50 781.00" xmlns="http://www.w3.org/2000/svg" xmlns:xlink="http://www.w3.org/1999/xlink">
<g id="graph0" class="graph" transform="scale(1 1) rotate(0) translate(4 777)">
<title>PCF8523Sensor</title>
<!-- Node1 -->
<g id="Node000001" class="node">
<title>Node1</title>
<g id="a_Node000001"><a xlink:title="Implementation of the PCF8523 sensor.">
<polygon fill="#999999" stroke="transparent" points="401.5,-139 295.5,-139 295.5,0 401.5,0 401.5,-139"/>
<text text-anchor="start" x="310.5" y="-126.5" font-family="Helvetica,sans-Serif" font-size="10.00">PCF8523Sensor</text>
<text text-anchor="start" x="346.5" y="-111.5" font-family="Helvetica,sans-Serif" font-size="10.00"> </text>
<text text-anchor="start" x="299.5" y="-96.5" font-family="Helvetica,sans-Serif" font-size="10.00">+</text>
<text text-anchor="start" x="312.5" y="-96.5" font-family="Helvetica,sans-Serif" font-size="10.00">PCF8523Sensor()</text>
<text text-anchor="start" x="299.5" y="-81.5" font-family="Helvetica,sans-Serif" font-size="10.00">+</text>
<text text-anchor="start" x="312.5" y="-81.5" font-family="Helvetica,sans-Serif" font-size="10.00">PCF8523Sensor()</text>
<text text-anchor="start" x="299.5" y="-66.5" font-family="Helvetica,sans-Serif" font-size="10.00">+</text>
<text text-anchor="start" x="312.5" y="-66.5" font-family="Helvetica,sans-Serif" font-size="10.00">verify()</text>
<text text-anchor="start" x="299.5" y="-51.5" font-family="Helvetica,sans-Serif" font-size="10.00">+</text>
<text text-anchor="start" x="312.5" y="-51.5" font-family="Helvetica,sans-Serif" font-size="10.00">decodeToCSV()</text>
<text text-anchor="start" x="299.5" y="-36.5" font-family="Helvetica,sans-Serif" font-size="10.00">+</text>
<text text-anchor="start" x="312.5" y="-36.5" font-family="Helvetica,sans-Serif" font-size="10.00">readDataPacket()</text>
<text text-anchor="start" x="299.5" y="-21.5" font-family="Helvetica,sans-Serif" font-size="10.00">+</text>
<text text-anchor="start" x="312.5" y="-21.5" font-family="Helvetica,sans-Serif" font-size="10.00">readData()</text>
<text text-anchor="start" x="299.5" y="-6.5" font-family="Helvetica,sans-Serif" font-size="10.00">+</text>
<text text-anchor="start" x="312.5" y="-6.5" font-family="Helvetica,sans-Serif" font-size="10.00">calibrate()</text>
<polygon fill="#666666" stroke="#666666" points="295.5,-121.5 295.5,-121.5 401.5,-121.5 401.5,-121.5 295.5,-121.5"/>
<polygon fill="#666666" stroke="#666666" points="295.5,-106.5 295.5,-106.5 401.5,-106.5 401.5,-106.5 295.5,-106.5"/>
<polygon fill="none" stroke="#666666" points="295.5,0 295.5,-139 401.5,-139 401.5,0 295.5,0"/>
</a>
</g>
</g>
<!-- Node2 -->
<g id="Node000002" class="node">
<title>Node2</title>
<g id="a_Node000002"><a xlink:href="classSensor.html" target="_top" xlink:title="Parent class for sensor objects.">
<polygon fill="white" stroke="transparent" points="354,-460 221,-460 221,-186 354,-186 354,-460"/>
<text text-anchor="start" x="271" y="-448" font-family="Helvetica,sans-Serif" font-size="10.00">Sensor</text>
<text text-anchor="start" x="286" y="-433" font-family="Helvetica,sans-Serif" font-size="10.00"> </text>
<text text-anchor="start" x="225.5" y="-418" font-family="Helvetica,sans-Serif" font-size="10.00">+</text>
<text text-anchor="start" x="238.5" y="-418" font-family="Helvetica,sans-Serif" font-size="10.00">Sensor()</text>
<text text-anchor="start" x="225.5" y="-403" font-family="Helvetica,sans-Serif" font-size="10.00">+</text>
<text text-anchor="start" x="238.5" y="-403" font-family="Helvetica,sans-Serif" font-size="10.00">Sensor()</text>
<text text-anchor="start" x="225.5" y="-388" font-family="Helvetica,sans-Serif" font-size="10.00">+</text>
<text text-anchor="start" x="238.5" y="-388" font-family="Helvetica,sans-Serif" font-size="10.00">Sensor()</text>
<text text-anchor="start" x="225.5" y="-373" font-family="Helvetica,sans-Serif" font-size="10.00">+</text>
<text text-anchor="start" x="238.5" y="-373" font-family="Helvetica,sans-Serif" font-size="10.00">Sensor()</text>
<text text-anchor="start" x="225.5" y="-358" font-family="Helvetica,sans-Serif" font-size="10.00">+</text>
<text text-anchor="start" x="238.5" y="-358" font-family="Helvetica,sans-Serif" font-size="10.00">getPeriod()</text>
<text text-anchor="start" x="225.5" y="-343" font-family="Helvetica,sans-Serif" font-size="10.00">+</text>
<text text-anchor="start" x="238.5" y="-343" font-family="Helvetica,sans-Serif" font-size="10.00">setPeriod()</text>
<text text-anchor="start" x="225.5" y="-328" font-family="Helvetica,sans-Serif" font-size="10.00">+</text>
<text text-anchor="start" x="238.5" y="-328" font-family="Helvetica,sans-Serif" font-size="10.00">getLastExecution()</text>
<text text-anchor="start" x="225.5" y="-313" font-family="Helvetica,sans-Serif" font-size="10.00">+</text>
<text text-anchor="start" x="238.5" y="-313" font-family="Helvetica,sans-Serif" font-size="10.00">setLastExecution()</text>
<text text-anchor="start" x="225.5" y="-298" font-family="Helvetica,sans-Serif" font-size="10.00">+</text>
<text text-anchor="start" x="238.5" y="-298" font-family="Helvetica,sans-Serif" font-size="10.00">getSensorCSVHeader()</text>
<text text-anchor="start" x="225.5" y="-283" font-family="Helvetica,sans-Serif" font-size="10.00">+</text>
<text text-anchor="start" x="238.5" y="-283" font-family="Helvetica,sans-Serif" font-size="10.00">verify()</text>
<text text-anchor="start" x="225.5" y="-268" font-family="Helvetica,sans-Serif" font-size="10.00">+</text>
<text text-anchor="start" x="238.5" y="-268" font-family="Helvetica,sans-Serif" font-size="10.00">readData()</text>
<text text-anchor="start" x="225.5" y="-253" font-family="Helvetica,sans-Serif" font-size="10.00">+</text>
<text text-anchor="start" x="238.5" y="-253" font-family="Helvetica,sans-Serif" font-size="10.00">readDataPacket()</text>
<text text-anchor="start" x="225.5" y="-238" font-family="Helvetica,sans-Serif" font-size="10.00">+</text>
<text text-anchor="start" x="238.5" y="-238" font-family="Helvetica,sans-Serif" font-size="10.00">decodeToCSV()</text>
<text text-anchor="start" x="225.5" y="-223" font-family="Helvetica,sans-Serif" font-size="10.00">+</text>
<text text-anchor="start" x="238.5" y="-223" font-family="Helvetica,sans-Serif" font-size="10.00">getDataPacket()</text>
<text text-anchor="start" x="225.5" y="-208" font-family="Helvetica,sans-Serif" font-size="10.00">+</text>
<text text-anchor="start" x="238.5" y="-208" font-family="Helvetica,sans-Serif" font-size="10.00">readEmpty()</text>
<text text-anchor="start" x="225.5" y="-193" font-family="Helvetica,sans-Serif" font-size="10.00">+</text>
<text text-anchor="start" x="238.5" y="-193" font-family="Helvetica,sans-Serif" font-size="10.00">getDataCSV()</text>
<polygon fill="#666666" stroke="#666666" points="221.5,-443 221.5,-443 354.5,-443 354.5,-443 221.5,-443"/>
<polygon fill="#666666" stroke="#666666" points="221.5,-428 221.5,-428 354.5,-428 354.5,-428 221.5,-428"/>
<polygon fill="none" stroke="#666666" points="221,-186 221,-460 354,-460 354,-186 221,-186"/>
</a>
</g>
</g>
<!-- Node2&#45;&gt;Node1 -->
<g id="edge1_Node000001_Node000002" class="edge">
<title>Node2&#45;&gt;Node1</title>
<g id="a_edge1_Node000001_Node000002"><a xlink:title=" ">
<path fill="none" stroke="#63b8ff" d="M322.89,-176.11C325.99,-163.31 329.03,-150.79 331.86,-139.11"/>
<polygon fill="none" stroke="#63b8ff" points="319.46,-175.4 320.5,-185.94 326.26,-177.05 319.46,-175.4"/>
</a>
</g>
</g>
<!-- Node3 -->
<g id="Node000003" class="node">
<title>Node3</title>
<g id="a_Node000003"><a xlink:href="classDevice.html" target="_top" xlink:title="Implements the recovery system for Sensor and Storage objects.">
<polygon fill="white" stroke="transparent" points="276,-666 153,-666 153,-497 276,-497 276,-666"/>
<text text-anchor="start" x="198" y="-653.5" font-family="Helvetica,sans-Serif" font-size="10.00">Device</text>
<text text-anchor="start" x="213" y="-638.5" font-family="Helvetica,sans-Serif" font-size="10.00"> </text>
<text text-anchor="start" x="157.5" y="-623.5" font-family="Helvetica,sans-Serif" font-size="10.00">+</text>
<text text-anchor="start" x="170.5" y="-623.5" font-family="Helvetica,sans-Serif" font-size="10.00">Device()</text>
<text text-anchor="start" x="157.5" y="-608.5" font-family="Helvetica,sans-Serif" font-size="10.00">+</text>
<text text-anchor="start" x="170.5" y="-608.5" font-family="Helvetica,sans-Serif" font-size="10.00">Device()</text>
<text text-anchor="start" x="157.5" y="-593.5" font-family="Helvetica,sans-Serif" font-size="10.00">+</text>
<text text-anchor="start" x="170.5" y="-593.5" font-family="Helvetica,sans-Serif" font-size="10.00">getDeviceName()</text>
<text text-anchor="start" x="157.5" y="-578.5" font-family="Helvetica,sans-Serif" font-size="10.00">+</text>
<text text-anchor="start" x="170.5" y="-578.5" font-family="Helvetica,sans-Serif" font-size="10.00">verify()</text>
<text text-anchor="start" x="157.5" y="-563.5" font-family="Helvetica,sans-Serif" font-size="10.00">+</text>
<text text-anchor="start" x="170.5" y="-563.5" font-family="Helvetica,sans-Serif" font-size="10.00">getVerified()</text>
<text text-anchor="start" x="157.5" y="-548.5" font-family="Helvetica,sans-Serif" font-size="10.00">+</text>
<text text-anchor="start" x="170.5" y="-548.5" font-family="Helvetica,sans-Serif" font-size="10.00">recoveryConfig()</text>
<text text-anchor="start" x="157.5" y="-533.5" font-family="Helvetica,sans-Serif" font-size="10.00">+</text>
<text text-anchor="start" x="170.5" y="-533.5" font-family="Helvetica,sans-Serif" font-size="10.00">setWaitFactor()</text>
<text text-anchor="start" x="157.5" y="-518.5" font-family="Helvetica,sans-Serif" font-size="10.00">+</text>
<text text-anchor="start" x="170.5" y="-518.5" font-family="Helvetica,sans-Serif" font-size="10.00">setMaxAttempts()</text>
<text text-anchor="start" x="157.5" y="-503.5" font-family="Helvetica,sans-Serif" font-size="10.00">+</text>
<text text-anchor="start" x="170.5" y="-503.5" font-family="Helvetica,sans-Serif" font-size="10.00">attemptConnection()</text>
<polygon fill="#666666" stroke="#666666" points="153.5,-648.5 153.5,-648.5 276.5,-648.5 276.5,-648.5 153.5,-648.5"/>
<polygon fill="#666666" stroke="#666666" points="153.5,-633.5 153.5,-633.5 276.5,-633.5 276.5,-633.5 153.5,-633.5"/>
<polygon fill="none" stroke="#666666" points="153,-497 153,-666 276,-666 276,-497 153,-497"/>
</a>
</g>
</g>
<!-- Node3&#45;&gt;Node2 -->
<g id="edge2_Node000002_Node000003" class="edge">
<title>Node3&#45;&gt;Node2</title>
<g id="a_edge2_Node000002_Node000003"><a xlink:title=" ">
<path fill="none" stroke="#63b8ff" d="M241.1,-487.03C243.61,-478.22 246.18,-469.18 248.77,-460.08"/>
<polygon fill="none" stroke="#63b8ff" points="237.67,-486.29 238.3,-496.87 244.41,-488.21 237.67,-486.29"/>
</a>
</g>
</g>
<!-- Node4 -->
<g id="Node000004" class="node">
<title>Node4</title>
<g id="a_Node000004"><a xlink:title=" ">
<polygon fill="white" stroke="transparent" points="79,-773 0,-773 0,-724 79,-724 79,-773"/>
<text text-anchor="start" x="5.5" y="-760.5" font-family="Helvetica,sans-Serif" font-size="10.00">unsigned long</text>
<text text-anchor="start" x="38" y="-745.5" font-family="Helvetica,sans-Serif" font-size="10.00"> </text>
<text text-anchor="start" x="38" y="-730.5" font-family="Helvetica,sans-Serif" font-size="10.00"> </text>
<polygon fill="#666666" stroke="#666666" points="0.5,-755.5 0.5,-755.5 79.5,-755.5 79.5,-755.5 0.5,-755.5"/>
<polygon fill="#666666" stroke="#666666" points="0.5,-740.5 0.5,-740.5 79.5,-740.5 79.5,-740.5 0.5,-740.5"/>
<polygon fill="none" stroke="#666666" points="0,-724 0,-773 79,-773 79,-724 0,-724"/>
</a>
</g>
</g>
<!-- Node4&#45;&gt;Node2 -->
<g id="edge7_Node000002_Node000004" class="edge">
<title>Node4&#45;&gt;Node2</title>
<g id="a_edge7_Node000002_Node000004"><a xlink:title=" ">
<path fill="none" stroke="#63b8ff" d="M34.83,-723.98C26.85,-677.4 15.09,-571.51 55.5,-497 89.39,-434.5 156.7,-388.24 210.13,-359.36"/>
<polygon fill="none" stroke="#63b8ff" points="210.34,-359.24 213.78,-352.9 220.95,-353.64 217.52,-359.98 210.34,-359.24"/>
</a>
</g>
<text text-anchor="middle" x="99.5" y="-584.5" font-family="Helvetica,sans-Serif" font-size="10.00" fill="grey"> &#45;last_execution</text>
<text text-anchor="middle" x="99.5" y="-573.5" font-family="Helvetica,sans-Serif" font-size="10.00" fill="grey">&#45;minimum_period</text>
</g>
<!-- Node4&#45;&gt;Node3 -->
<g id="edge3_Node000003_Node000004" class="edge">
<title>Node4&#45;&gt;Node3</title>
<g id="a_edge3_Node000003_Node000004"><a xlink:title=" ">
<path fill="none" stroke="#63b8ff" d="M51.95,-723.79C59.55,-710.92 70.16,-695.36 82.5,-684 94.51,-672.95 101.07,-675.27 114.5,-666 124.13,-659.35 133.96,-651.98 143.5,-644.45"/>
<polygon fill="none" stroke="#63b8ff" points="143.58,-644.39 145.76,-637.52 152.94,-636.88 150.76,-643.76 143.58,-644.39"/>
</a>
</g>
<text text-anchor="middle" x="117.5" y="-698" font-family="Helvetica,sans-Serif" font-size="10.00" fill="grey"> &#45;last_attempt</text>
<text text-anchor="middle" x="117.5" y="-687" font-family="Helvetica,sans-Serif" font-size="10.00" fill="grey">&#45;wait_factor</text>
</g>
<!-- Node5 -->
<g id="Node000005" class="node">
<title>Node5</title>
<g id="a_Node000005"><a xlink:title=" ">
<polygon fill="white" stroke="transparent" points="409,-773 386,-773 386,-724 409,-724 409,-773"/>
<text text-anchor="start" x="391.5" y="-760.5" font-family="Helvetica,sans-Serif" font-size="10.00">int</text>
<text text-anchor="start" x="396" y="-745.5" font-family="Helvetica,sans-Serif" font-size="10.00"> </text>
<text text-anchor="start" x="396" y="-730.5" font-family="Helvetica,sans-Serif" font-size="10.00"> </text>
<polygon fill="#666666" stroke="#666666" points="386.5,-755.5 386.5,-755.5 409.5,-755.5 409.5,-755.5 386.5,-755.5"/>
<polygon fill="#666666" stroke="#666666" points="386.5,-740.5 386.5,-740.5 409.5,-740.5 409.5,-740.5 386.5,-740.5"/>
<polygon fill="none" stroke="#666666" points="386,-724 386,-773 409,-773 409,-724 386,-724"/>
</a>
</g>
</g>
<!-- Node5&#45;&gt;Node2 -->
<g id="edge9_Node000002_Node000005" class="edge">
<title>Node5&#45;&gt;Node2</title>
<g id="a_edge9_Node000002_Node000005"><a xlink:title=" ">
<path fill="none" stroke="#63b8ff" d="M409.06,-737.94C417.35,-730.29 427.84,-718.75 432.5,-706 435.86,-696.82 434.17,-693.63 432.5,-684 419.28,-607.91 388.83,-527.79 359.23,-462.5"/>
<polygon fill="none" stroke="#63b8ff" points="359.11,-462.23 352.97,-458.44 354.11,-451.32 360.24,-455.11 359.11,-462.23"/>
</a>
</g>
<text text-anchor="middle" x="460" y="-579" font-family="Helvetica,sans-Serif" font-size="10.00" fill="grey"> #num_fields</text>
</g>
<!-- Node5&#45;&gt;Node3 -->
<g id="edge4_Node000003_Node000005" class="edge">
<title>Node5&#45;&gt;Node3</title>
<g id="a_edge4_Node000003_Node000005"><a xlink:title=" ">
<path fill="none" stroke="#63b8ff" d="M385.71,-739.58C365.4,-725.71 322.87,-695.66 290.5,-666 288.71,-664.36 286.92,-662.69 285.12,-660.98"/>
<polygon fill="none" stroke="#63b8ff" points="284.77,-660.63 277.68,-659.3 276.18,-652.25 283.27,-653.58 284.77,-660.63"/>
</a>
</g>
<text text-anchor="middle" x="384" y="-698" font-family="Helvetica,sans-Serif" font-size="10.00" fill="grey"> &#45;attempt_number</text>
<text text-anchor="middle" x="384" y="-687" font-family="Helvetica,sans-Serif" font-size="10.00" fill="grey">&#45;max_attempts</text>
</g>
<!-- Node6 -->
<g id="Node000006" class="node">
<title>Node6</title>
<g id="a_Node000006"><a xlink:title=" ">
<polygon fill="white" stroke="transparent" points="164.5,-773 132.5,-773 132.5,-724 164.5,-724 164.5,-773"/>
<text text-anchor="start" x="137.5" y="-760.5" font-family="Helvetica,sans-Serif" font-size="10.00">bool</text>
<text text-anchor="start" x="146.5" y="-745.5" font-family="Helvetica,sans-Serif" font-size="10.00"> </text>
<text text-anchor="start" x="146.5" y="-730.5" font-family="Helvetica,sans-Serif" font-size="10.00"> </text>
<polygon fill="#666666" stroke="#666666" points="132.5,-755.5 132.5,-755.5 164.5,-755.5 164.5,-755.5 132.5,-755.5"/>
<polygon fill="#666666" stroke="#666666" points="132.5,-740.5 132.5,-740.5 164.5,-740.5 164.5,-740.5 132.5,-740.5"/>
<polygon fill="none" stroke="#666666" points="132.5,-724 132.5,-773 164.5,-773 164.5,-724 132.5,-724"/>
</a>
</g>
</g>
<!-- Node6&#45;&gt;Node3 -->
<g id="edge5_Node000003_Node000006" class="edge">
<title>Node6&#45;&gt;Node3</title>
<g id="a_edge5_Node000003_Node000006"><a xlink:title=" ">
<path fill="none" stroke="#63b8ff" d="M152.22,-723.87C154.5,-711.74 157.88,-696.85 162.5,-684 163.29,-681.8 164.12,-679.59 164.98,-677.36"/>
<polygon fill="none" stroke="#63b8ff" points="164.99,-677.33 163.56,-670.27 169.54,-666.23 170.97,-673.3 164.99,-677.33"/>
</a>
</g>
<text text-anchor="middle" x="187" y="-692.5" font-family="Helvetica,sans-Serif" font-size="10.00" fill="grey"> #verified</text>
</g>
<!-- Node7 -->
<g id="Node000007" class="node">
<title>Node7</title>
<g id="a_Node000007"><a xlink:title=" ">
<polygon fill="white" stroke="transparent" points="286,-773 247,-773 247,-724 286,-724 286,-773"/>
<text text-anchor="start" x="252.5" y="-760.5" font-family="Helvetica,sans-Serif" font-size="10.00">String</text>
<text text-anchor="start" x="265" y="-745.5" font-family="Helvetica,sans-Serif" font-size="10.00"> </text>
<text text-anchor="start" x="265" y="-730.5" font-family="Helvetica,sans-Serif" font-size="10.00"> </text>
<polygon fill="#666666" stroke="#666666" points="247.5,-755.5 247.5,-755.5 286.5,-755.5 286.5,-755.5 247.5,-755.5"/>
<polygon fill="#666666" stroke="#666666" points="247.5,-740.5 247.5,-740.5 286.5,-740.5 286.5,-740.5 247.5,-740.5"/>
<polygon fill="none" stroke="#666666" points="247,-724 247,-773 286,-773 286,-724 247,-724"/>
</a>
</g>
</g>
<!-- Node7&#45;&gt;Node2 -->
<g id="edge8_Node000002_Node000007" class="edge">
<title>Node7&#45;&gt;Node2</title>
<g id="a_edge8_Node000002_Node000007"><a xlink:title=" ">
<path fill="none" stroke="#63b8ff" d="M286.08,-727.56C291.12,-721.18 295.86,-713.75 298.5,-706 301.65,-696.74 298.65,-693.78 298.5,-684 297.44,-614.54 295.23,-537.58 293.06,-472.7"/>
<polygon fill="none" stroke="#63b8ff" points="293.05,-472.3 288.85,-466.44 292.65,-460.31 296.85,-466.17 293.05,-472.3"/>
</a>
</g>
<text text-anchor="middle" x="330" y="-584.5" font-family="Helvetica,sans-Serif" font-size="10.00" fill="grey"> &#45;csv_header</text>
<text text-anchor="middle" x="330" y="-573.5" font-family="Helvetica,sans-Serif" font-size="10.00" fill="grey">&#45;empty_csv</text>
</g>
<!-- Node7&#45;&gt;Node3 -->
<g id="edge6_Node000003_Node000007" class="edge">
<title>Node7&#45;&gt;Node3</title>
<g id="a_edge6_Node000003_Node000007"><a xlink:title=" ">
<path fill="none" stroke="#63b8ff" d="M246.97,-734.93C237.52,-727.7 227.04,-717.72 221.5,-706 217.36,-697.23 214.46,-687.72 212.5,-677.99"/>
<polygon fill="none" stroke="#63b8ff" points="212.48,-677.9 207.57,-672.62 210.54,-666.06 215.46,-671.33 212.48,-677.9"/>
</a>
</g>
<text text-anchor="middle" x="260" y="-692.5" font-family="Helvetica,sans-Serif" font-size="10.00" fill="grey"> #device_name</text>
</g>
<!-- Node8 -->
<g id="Node000008" class="node">
<title>Node8</title>
<g id="a_Node000008"><a xlink:title=" ">
<polygon fill="white" stroke="transparent" points="449,-347.5 372,-347.5 372,-298.5 449,-298.5 449,-347.5"/>
<text text-anchor="start" x="377.5" y="-335" font-family="Helvetica,sans-Serif" font-size="10.00">RTC_PCF8523</text>
<text text-anchor="start" x="409" y="-320" font-family="Helvetica,sans-Serif" font-size="10.00"> </text>
<text text-anchor="start" x="409" y="-305" font-family="Helvetica,sans-Serif" font-size="10.00"> </text>
<polygon fill="#666666" stroke="#666666" points="372.5,-330 372.5,-330 449.5,-330 449.5,-330 372.5,-330"/>
<polygon fill="#666666" stroke="#666666" points="372.5,-315 372.5,-315 449.5,-315 449.5,-315 372.5,-315"/>
<polygon fill="none" stroke="#666666" points="372,-298.5 372,-347.5 449,-347.5 449,-298.5 372,-298.5"/>
</a>
</g>
</g>
<!-- Node8&#45;&gt;Node1 -->
<g id="edge10_Node000001_Node000008" class="edge">
<title>Node8&#45;&gt;Node1</title>
<g id="a_edge10_Node000001_Node000008"><a xlink:title=" ">
<path fill="none" stroke="#63b8ff" d="M404.67,-298.34C396.42,-264.87 380.94,-202.09 368.32,-150.88"/>
<polygon fill="none" stroke="#63b8ff" points="368.3,-150.8 362.98,-145.93 365.42,-139.15 370.74,-144.02 368.3,-150.8"/>
</a>
</g>
<text text-anchor="middle" x="382.5" y="-160" font-family="Helvetica,sans-Serif" font-size="10.00" fill="grey"> &#45;rtc</text>
</g>
</g>
</svg>
