<?xml version="1.0" encoding="UTF-8" standalone="no"?>
<!DOCTYPE svg PUBLIC "-//W3C//DTD SVG 1.1//EN"
 "http://www.w3.org/Graphics/SVG/1.1/DTD/svg11.dtd">
<!-- Generated by graphviz version 2.43.0 (0)
 -->
<!-- Title: Device Pages: 1 -->
<svg width="377pt" height="284pt"
 viewBox="0.00 0.00 376.50 284.00" xmlns="http://www.w3.org/2000/svg" xmlns:xlink="http://www.w3.org/1999/xlink">
<g id="graph0" class="graph" transform="scale(1 1) rotate(0) translate(4 280)">
<title>Device</title>
<!-- Node1 -->
<g id="Node000001" class="node">
<title>Node1</title>
<g id="a_Node000001"><a xlink:title="Implements the recovery system for Sensor and Storage objects.">
<polygon fill="#999999" stroke="transparent" points="250,-169 127,-169 127,0 250,0 250,-169"/>
<text text-anchor="start" x="172" y="-156.5" font-family="Helvetica,sans-Serif" font-size="10.00">Device</text>
<text text-anchor="start" x="187" y="-141.5" font-family="Helvetica,sans-Serif" font-size="10.00"> </text>
<text text-anchor="start" x="131.5" y="-126.5" font-family="Helvetica,sans-Serif" font-size="10.00">+</text>
<text text-anchor="start" x="144.5" y="-126.5" font-family="Helvetica,sans-Serif" font-size="10.00">Device()</text>
<text text-anchor="start" x="131.5" y="-111.5" font-family="Helvetica,sans-Serif" font-size="10.00">+</text>
<text text-anchor="start" x="144.5" y="-111.5" font-family="Helvetica,sans-Serif" font-size="10.00">Device()</text>
<text text-anchor="start" x="131.5" y="-96.5" font-family="Helvetica,sans-Serif" font-size="10.00">+</text>
<text text-anchor="start" x="144.5" y="-96.5" font-family="Helvetica,sans-Serif" font-size="10.00">getDeviceName()</text>
<text text-anchor="start" x="131.5" y="-81.5" font-family="Helvetica,sans-Serif" font-size="10.00">+</text>
<text text-anchor="start" x="144.5" y="-81.5" font-family="Helvetica,sans-Serif" font-size="10.00">verify()</text>
<text text-anchor="start" x="131.5" y="-66.5" font-family="Helvetica,sans-Serif" font-size="10.00">+</text>
<text text-anchor="start" x="144.5" y="-66.5" font-family="Helvetica,sans-Serif" font-size="10.00">getVerified()</text>
<text text-anchor="start" x="131.5" y="-51.5" font-family="Helvetica,sans-Serif" font-size="10.00">+</text>
<text text-anchor="start" x="144.5" y="-51.5" font-family="Helvetica,sans-Serif" font-size="10.00">recoveryConfig()</text>
<text text-anchor="start" x="131.5" y="-36.5" font-family="Helvetica,sans-Serif" font-size="10.00">+</text>
<text text-anchor="start" x="144.5" y="-36.5" font-family="Helvetica,sans-Serif" font-size="10.00">setWaitFactor()</text>
<text text-anchor="start" x="131.5" y="-21.5" font-family="Helvetica,sans-Serif" font-size="10.00">+</text>
<text text-anchor="start" x="144.5" y="-21.5" font-family="Helvetica,sans-Serif" font-size="10.00">setMaxAttempts()</text>
<text text-anchor="start" x="131.5" y="-6.5" font-family="Helvetica,sans-Serif" font-size="10.00">+</text>
<text text-anchor="start" x="144.5" y="-6.5" font-family="Helvetica,sans-Serif" font-size="10.00">attemptConnection()</text>
<polygon fill="#666666" stroke="#666666" points="127.5,-151.5 127.5,-151.5 250.5,-151.5 250.5,-151.5 127.5,-151.5"/>
<polygon fill="#666666" stroke="#666666" points="127.5,-136.5 127.5,-136.5 250.5,-136.5 250.5,-136.5 127.5,-136.5"/>
<polygon fill="none" stroke="#666666" points="127,0 127,-169 250,-169 250,0 127,0"/>
</a>
</g>
</g>
<!-- Node2 -->
<g id="Node000002" class="node">
<title>Node2</title>
<g id="a_Node000002"><a xlink:title=" ">
<polygon fill="white" stroke="transparent" points="79,-276 0,-276 0,-227 79,-227 79,-276"/>
<text text-anchor="start" x="5.5" y="-263.5" font-family="Helvetica,sans-Serif" font-size="10.00">unsigned long</text>
<text text-anchor="start" x="38" y="-248.5" font-family="Helvetica,sans-Serif" font-size="10.00"> </text>
<text text-anchor="start" x="38" y="-233.5" font-family="Helvetica,sans-Serif" font-size="10.00"> </text>
<polygon fill="#666666" stroke="#666666" points="0.5,-258.5 0.5,-258.5 79.5,-258.5 79.5,-258.5 0.5,-258.5"/>
<polygon fill="#666666" stroke="#666666" points="0.5,-243.5 0.5,-243.5 79.5,-243.5 79.5,-243.5 0.5,-243.5"/>
<polygon fill="none" stroke="#666666" points="0,-227 0,-276 79,-276 79,-227 0,-227"/>
</a>
</g>
</g>
<!-- Node2&#45;&gt;Node1 -->
<g id="edge1_Node000001_Node000002" class="edge">
<title>Node2&#45;&gt;Node1</title>
<g id="a_edge1_Node000001_Node000002"><a xlink:title=" ">
<path fill="none" stroke="#63b8ff" d="M42.08,-226.96C44.34,-214.28 48.58,-198.87 56.5,-187 72.01,-163.75 94.64,-143.58 116.79,-127.49"/>
<polygon fill="none" stroke="#63b8ff" points="117.09,-127.28 119.7,-120.56 126.91,-120.38 124.3,-127.1 117.09,-127.28"/>
</a>
</g>
<text text-anchor="middle" x="91.5" y="-201" font-family="Helvetica,sans-Serif" font-size="10.00" fill="grey"> &#45;last_attempt</text>
<text text-anchor="middle" x="91.5" y="-190" font-family="Helvetica,sans-Serif" font-size="10.00" fill="grey">&#45;wait_factor</text>
</g>
<!-- Node3 -->
<g id="Node000003" class="node">
<title>Node3</title>
<g id="a_Node000003"><a xlink:title=" ">
<polygon fill="white" stroke="transparent" points="144,-276 121,-276 121,-227 144,-227 144,-276"/>
<text text-anchor="start" x="126.5" y="-263.5" font-family="Helvetica,sans-Serif" font-size="10.00">int</text>
<text text-anchor="start" x="131" y="-248.5" font-family="Helvetica,sans-Serif" font-size="10.00"> </text>
<text text-anchor="start" x="131" y="-233.5" font-family="Helvetica,sans-Serif" font-size="10.00"> </text>
<polygon fill="#666666" stroke="#666666" points="121.5,-258.5 121.5,-258.5 144.5,-258.5 144.5,-258.5 121.5,-258.5"/>
<polygon fill="#666666" stroke="#666666" points="121.5,-243.5 121.5,-243.5 144.5,-243.5 144.5,-243.5 121.5,-243.5"/>
<polygon fill="none" stroke="#666666" points="121,-227 121,-276 144,-276 144,-227 121,-227"/>
</a>
</g>
</g>
<!-- Node3&#45;&gt;Node1 -->
<g id="edge2_Node000001_Node000003" class="edge">
<title>Node3&#45;&gt;Node1</title>
<g id="a_edge2_Node000001_Node000003"><a xlink:title=" ">
<path fill="none" stroke="#63b8ff" d="M130.22,-226.92C129.71,-214.8 130.12,-199.91 133.5,-187 134.06,-184.87 134.67,-182.75 135.32,-180.62"/>
<polygon fill="none" stroke="#63b8ff" points="135.33,-180.59 133.52,-173.62 139.26,-169.26 141.08,-176.24 135.33,-180.59"/>
</a>
</g>
<text text-anchor="middle" x="178" y="-201" font-family="Helvetica,sans-Serif" font-size="10.00" fill="grey"> &#45;attempt_number</text>
<text text-anchor="middle" x="178" y="-190" font-family="Helvetica,sans-Serif" font-size="10.00" fill="grey">&#45;max_attempts</text>
</g>
<!-- Node4 -->
<g id="Node000004" class="node">
<title>Node4</title>
<g id="a_Node000004"><a xlink:title=" ">
<polygon fill="white" stroke="transparent" points="264,-276 225,-276 225,-227 264,-227 264,-276"/>
<text text-anchor="start" x="230.5" y="-263.5" font-family="Helvetica,sans-Serif" font-size="10.00">String</text>
<text text-anchor="start" x="243" y="-248.5" font-family="Helvetica,sans-Serif" font-size="10.00"> </text>
<text text-anchor="start" x="243" y="-233.5" font-family="Helvetica,sans-Serif" font-size="10.00"> </text>
<polygon fill="#666666" stroke="#666666" points="225.5,-258.5 225.5,-258.5 264.5,-258.5 264.5,-258.5 225.5,-258.5"/>
<polygon fill="#666666" stroke="#666666" points="225.5,-243.5 225.5,-243.5 264.5,-243.5 264.5,-243.5 225.5,-243.5"/>
<polygon fill="none" stroke="#666666" points="225,-227 225,-276 264,-276 264,-227 225,-227"/>
</a>
</g>
</g>
<!-- Node4&#45;&gt;Node1 -->
<g id="edge3_Node000001_Node000004" class="edge">
<title>Node4&#45;&gt;Node1</title>
<g id="a_edge3_Node000001_Node000004"><a xlink:title=" ">
<path fill="none" stroke="#63b8ff" d="M236.48,-226.86C232.18,-214.21 226.59,-197.72 220.73,-180.48"/>
<polygon fill="none" stroke="#63b8ff" points="220.72,-180.44 215.01,-176.04 216.86,-169.07 222.58,-173.47 220.72,-180.44"/>
</a>
</g>
<text text-anchor="middle" x="265" y="-195.5" font-family="Helvetica,sans-Serif" font-size="10.00" fill="grey"> &#45;device_name</text>
</g>
<!-- Node5 -->
<g id="Node000005" class="node">
<title>Node5</title>
<g id="a_Node000005"><a xlink:title=" ">
<polygon fill="white" stroke="transparent" points="356.5,-276 324.5,-276 324.5,-227 356.5,-227 356.5,-276"/>
<text text-anchor="start" x="329.5" y="-263.5" font-family="Helvetica,sans-Serif" font-size="10.00">bool</text>
<text text-anchor="start" x="338.5" y="-248.5" font-family="Helvetica,sans-Serif" font-size="10.00"> </text>
<text text-anchor="start" x="338.5" y="-233.5" font-family="Helvetica,sans-Serif" font-size="10.00"> </text>
<polygon fill="#666666" stroke="#666666" points="324.5,-258.5 324.5,-258.5 356.5,-258.5 356.5,-258.5 324.5,-258.5"/>
<polygon fill="#666666" stroke="#666666" points="324.5,-243.5 324.5,-243.5 356.5,-243.5 356.5,-243.5 324.5,-243.5"/>
<polygon fill="none" stroke="#666666" points="324.5,-227 324.5,-276 356.5,-276 356.5,-227 324.5,-227"/>
</a>
</g>
</g>
<!-- Node5&#45;&gt;Node1 -->
<g id="edge4_Node000001_Node000005" class="edge">
<title>Node5&#45;&gt;Node1</title>
<g id="a_edge4_Node000001_Node000005"><a xlink:title=" ">
<path fill="none" stroke="#63b8ff" d="M330.01,-226.94C323.83,-214.41 315.31,-199.14 305.5,-187 292.07,-170.39 275.72,-154.32 259.54,-140.05"/>
<polygon fill="none" stroke="#63b8ff" points="259.15,-139.71 251.99,-138.82 250.06,-131.87 257.22,-132.76 259.15,-139.71"/>
</a>
</g>
<text text-anchor="middle" x="344" y="-195.5" font-family="Helvetica,sans-Serif" font-size="10.00" fill="grey"> #verified</text>
</g>
</g>
</svg>
