<?xml version="1.0" encoding="UTF-8" standalone="no"?>
<!DOCTYPE svg PUBLIC "-//W3C//DTD SVG 1.1//EN"
 "http://www.w3.org/Graphics/SVG/1.1/DTD/svg11.dtd">
<!-- Generated by graphviz version 2.43.0 (0)
 -->
<!-- Title: SCD40Sensor Pages: 1 -->
<svg width="592pt" height="690pt"
 viewBox="0.00 0.00 591.50 690.00" xmlns="http://www.w3.org/2000/svg" xmlns:xlink="http://www.w3.org/1999/xlink">
<g id="graph0" class="graph" transform="scale(1 1) rotate(0) translate(4 686)">
<title>SCD40Sensor</title>
<!-- Node1 -->
<g id="node1" class="node">
<title>Node1</title>
<g id="a_node1"><a xlink:title="A class to interface with the Sensirion SCD40 sensor for CO2 data collection.">
<polygon fill="#bfbfbf" stroke="black" points="367,-0.5 367,-112.5 480,-112.5 480,-0.5 367,-0.5"/>
<text text-anchor="middle" x="423.5" y="-100.5" font-family="Helvetica,sans-Serif" font-size="10.00">SCD40Sensor</text>
<polyline fill="none" stroke="black" points="367,-93.5 480,-93.5 "/>
<text text-anchor="middle" x="423.5" y="-81.5" font-family="Helvetica,sans-Serif" font-size="10.00"> </text>
<polyline fill="none" stroke="black" points="367,-74.5 480,-74.5 "/>
<text text-anchor="start" x="375" y="-62.5" font-family="Helvetica,sans-Serif" font-size="10.00">+ SCD40Sensor()</text>
<text text-anchor="start" x="375" y="-51.5" font-family="Helvetica,sans-Serif" font-size="10.00">+ SCD40Sensor()</text>
<text text-anchor="start" x="375" y="-40.5" font-family="Helvetica,sans-Serif" font-size="10.00">+ verify()</text>
<text text-anchor="start" x="375" y="-29.5" font-family="Helvetica,sans-Serif" font-size="10.00">+ readData()</text>
<text text-anchor="start" x="375" y="-18.5" font-family="Helvetica,sans-Serif" font-size="10.00">+ readDataPacket()</text>
<text text-anchor="start" x="375" y="-7.5" font-family="Helvetica,sans-Serif" font-size="10.00">+ decodeToCSV()</text>
</a>
</g>
</g>
<!-- Node2 -->
<g id="node2" class="node">
<title>Node2</title>
<g id="a_node2"><a xlink:href="classSensor.html" target="_top" xlink:title="Parent class for sensor objects.">
<polygon fill="none" stroke="black" points="284,-160.5 284,-382.5 423,-382.5 423,-160.5 284,-160.5"/>
<text text-anchor="middle" x="353.5" y="-370.5" font-family="Helvetica,sans-Serif" font-size="10.00">Sensor</text>
<polyline fill="none" stroke="black" points="284,-363.5 423,-363.5 "/>
<text text-anchor="middle" x="353.5" y="-351.5" font-family="Helvetica,sans-Serif" font-size="10.00"> </text>
<polyline fill="none" stroke="black" points="284,-344.5 423,-344.5 "/>
<text text-anchor="start" x="292" y="-332.5" font-family="Helvetica,sans-Serif" font-size="10.00">+ Sensor()</text>
<text text-anchor="start" x="292" y="-321.5" font-family="Helvetica,sans-Serif" font-size="10.00">+ Sensor()</text>
<text text-anchor="start" x="292" y="-310.5" font-family="Helvetica,sans-Serif" font-size="10.00">+ Sensor()</text>
<text text-anchor="start" x="292" y="-299.5" font-family="Helvetica,sans-Serif" font-size="10.00">+ Sensor()</text>
<text text-anchor="start" x="292" y="-288.5" font-family="Helvetica,sans-Serif" font-size="10.00">+ getPeriod()</text>
<text text-anchor="start" x="292" y="-277.5" font-family="Helvetica,sans-Serif" font-size="10.00">+ setPeriod()</text>
<text text-anchor="start" x="292" y="-266.5" font-family="Helvetica,sans-Serif" font-size="10.00">+ getLastExecution()</text>
<text text-anchor="start" x="292" y="-255.5" font-family="Helvetica,sans-Serif" font-size="10.00">+ setLastExecution()</text>
<text text-anchor="start" x="292" y="-244.5" font-family="Helvetica,sans-Serif" font-size="10.00">+ getSensorCSVHeader()</text>
<text text-anchor="start" x="292" y="-233.5" font-family="Helvetica,sans-Serif" font-size="10.00">+ verify()</text>
<text text-anchor="start" x="292" y="-222.5" font-family="Helvetica,sans-Serif" font-size="10.00">+ readData()</text>
<text text-anchor="start" x="292" y="-211.5" font-family="Helvetica,sans-Serif" font-size="10.00">+ readDataPacket()</text>
<text text-anchor="start" x="292" y="-200.5" font-family="Helvetica,sans-Serif" font-size="10.00">+ decodeToCSV()</text>
<text text-anchor="start" x="292" y="-189.5" font-family="Helvetica,sans-Serif" font-size="10.00">+ getDataPacket()</text>
<text text-anchor="start" x="292" y="-178.5" font-family="Helvetica,sans-Serif" font-size="10.00">+ readEmpty()</text>
<text text-anchor="start" x="292" y="-167.5" font-family="Helvetica,sans-Serif" font-size="10.00">+ getDataCSV()</text>
</a>
</g>
</g>
<!-- Node2&#45;&gt;Node1 -->
<g id="edge1" class="edge">
<title>Node2&#45;&gt;Node1</title>
<path fill="none" stroke="midnightblue" d="M392.91,-150.59C397.26,-137.36 401.51,-124.41 405.4,-112.58"/>
<polygon fill="none" stroke="midnightblue" points="389.53,-149.66 389.73,-160.26 396.18,-151.85 389.53,-149.66"/>
</g>
<!-- Node3 -->
<g id="node3" class="node">
<title>Node3</title>
<g id="a_node3"><a xlink:href="classDevice.html" target="_top" xlink:title="Implements the recovery system for Sensor and Storage objects.">
<polygon fill="none" stroke="black" points="142,-420.5 142,-565.5 271,-565.5 271,-420.5 142,-420.5"/>
<text text-anchor="middle" x="206.5" y="-553.5" font-family="Helvetica,sans-Serif" font-size="10.00">Device</text>
<polyline fill="none" stroke="black" points="142,-546.5 271,-546.5 "/>
<text text-anchor="middle" x="206.5" y="-534.5" font-family="Helvetica,sans-Serif" font-size="10.00"> </text>
<polyline fill="none" stroke="black" points="142,-527.5 271,-527.5 "/>
<text text-anchor="start" x="150" y="-515.5" font-family="Helvetica,sans-Serif" font-size="10.00">+ Device()</text>
<text text-anchor="start" x="150" y="-504.5" font-family="Helvetica,sans-Serif" font-size="10.00">+ Device()</text>
<text text-anchor="start" x="150" y="-493.5" font-family="Helvetica,sans-Serif" font-size="10.00">+ getDeviceName()</text>
<text text-anchor="start" x="150" y="-482.5" font-family="Helvetica,sans-Serif" font-size="10.00">+ verify()</text>
<text text-anchor="start" x="150" y="-471.5" font-family="Helvetica,sans-Serif" font-size="10.00">+ getVerified()</text>
<text text-anchor="start" x="150" y="-460.5" font-family="Helvetica,sans-Serif" font-size="10.00">+ recoveryConfig()</text>
<text text-anchor="start" x="150" y="-449.5" font-family="Helvetica,sans-Serif" font-size="10.00">+ setWaitFactor()</text>
<text text-anchor="start" x="150" y="-438.5" font-family="Helvetica,sans-Serif" font-size="10.00">+ setMaxAttempts()</text>
<text text-anchor="start" x="150" y="-427.5" font-family="Helvetica,sans-Serif" font-size="10.00">+ attemptConnection()</text>
</a>
</g>
</g>
<!-- Node3&#45;&gt;Node2 -->
<g id="edge2" class="edge">
<title>Node3&#45;&gt;Node2</title>
<path fill="none" stroke="midnightblue" d="M260,-412.12C267.72,-400.58 275.77,-388.56 283.76,-376.64"/>
<polygon fill="none" stroke="midnightblue" points="257.09,-410.17 254.43,-420.43 262.9,-414.07 257.09,-410.17"/>
</g>
<!-- Node4 -->
<g id="node4" class="node">
<title>Node4</title>
<g id="a_node4"><a xlink:title=" ">
<polygon fill="none" stroke="#bfbfbf" points="0,-624.5 0,-681.5 45,-681.5 45,-624.5 0,-624.5"/>
<text text-anchor="middle" x="22.5" y="-669.5" font-family="Helvetica,sans-Serif" font-size="10.00">String</text>
<polyline fill="none" stroke="#bfbfbf" points="0,-662.5 45,-662.5 "/>
<text text-anchor="middle" x="22.5" y="-650.5" font-family="Helvetica,sans-Serif" font-size="10.00"> </text>
<polyline fill="none" stroke="#bfbfbf" points="0,-643.5 45,-643.5 "/>
<text text-anchor="middle" x="22.5" y="-631.5" font-family="Helvetica,sans-Serif" font-size="10.00"> </text>
</a>
</g>
</g>
<!-- Node4&#45;&gt;Node2 -->
<g id="edge7" class="edge">
<title>Node4&#45;&gt;Node2</title>
<path fill="none" stroke="#404040" d="M21.12,-624.26C20.23,-577.35 24.81,-481.47 71.5,-420 121.05,-354.76 207.8,-315.61 272.04,-294.22"/>
<polygon fill="none" stroke="#404040" points="272.34,-294.12 276.82,-288.47 283.76,-290.43 279.28,-296.08 272.34,-294.12"/>
<text text-anchor="middle" x="102" y="-496" font-family="Helvetica,sans-Serif" font-size="10.00"> &#45;empty_csv</text>
<text text-anchor="middle" x="102" y="-485" font-family="Helvetica,sans-Serif" font-size="10.00">&#45;csv_header</text>
</g>
<!-- Node4&#45;&gt;Node3 -->
<g id="edge3" class="edge">
<title>Node4&#45;&gt;Node3</title>
<path fill="none" stroke="#404040" d="M31.21,-624.29C36.4,-610.99 44.05,-595.49 54.5,-584 75.63,-560.77 104.17,-541.72 130.82,-527.23"/>
<polygon fill="none" stroke="#404040" points="131.08,-527.09 134.53,-520.76 141.7,-521.5 138.25,-527.84 131.08,-527.09"/>
<text text-anchor="middle" x="91" y="-592.5" font-family="Helvetica,sans-Serif" font-size="10.00"> &#45;device_name</text>
</g>
<!-- Node5 -->
<g id="node5" class="node">
<title>Node5</title>
<g id="a_node5"><a xlink:title=" ">
<polygon fill="none" stroke="#bfbfbf" points="269,-624.5 269,-681.5 354,-681.5 354,-624.5 269,-624.5"/>
<text text-anchor="middle" x="311.5" y="-669.5" font-family="Helvetica,sans-Serif" font-size="10.00">unsigned long</text>
<polyline fill="none" stroke="#bfbfbf" points="269,-662.5 354,-662.5 "/>
<text text-anchor="middle" x="311.5" y="-650.5" font-family="Helvetica,sans-Serif" font-size="10.00"> </text>
<polyline fill="none" stroke="#bfbfbf" points="269,-643.5 354,-643.5 "/>
<text text-anchor="middle" x="311.5" y="-631.5" font-family="Helvetica,sans-Serif" font-size="10.00"> </text>
</a>
</g>
</g>
<!-- Node5&#45;&gt;Node2 -->
<g id="edge8" class="edge">
<title>Node5&#45;&gt;Node2</title>
<path fill="none" stroke="#404040" d="M354.38,-629.08C371.29,-619.61 387.26,-609.92 389.5,-606 409.66,-570.71 397.13,-474.75 381.57,-394.78"/>
<polygon fill="none" stroke="#404040" points="381.49,-394.37 376.4,-389.26 379.15,-382.6 384.24,-387.71 381.49,-394.37"/>
<text text-anchor="middle" x="444.5" y="-496" font-family="Helvetica,sans-Serif" font-size="10.00"> &#45;last_execution</text>
<text text-anchor="middle" x="444.5" y="-485" font-family="Helvetica,sans-Serif" font-size="10.00">&#45;minimum_period</text>
</g>
<!-- Node5&#45;&gt;Node3 -->
<g id="edge4" class="edge">
<title>Node5&#45;&gt;Node3</title>
<path fill="none" stroke="#404040" d="M268.85,-644.54C246.57,-638.25 221.17,-626.79 207.5,-606 201.89,-597.48 198.55,-587.74 196.76,-577.65"/>
<polygon fill="none" stroke="#404040" points="196.76,-577.61 192.08,-572.12 195.35,-565.69 200.02,-571.18 196.76,-577.61"/>
<text text-anchor="middle" x="242.5" y="-598" font-family="Helvetica,sans-Serif" font-size="10.00"> &#45;last_attempt</text>
<text text-anchor="middle" x="242.5" y="-587" font-family="Helvetica,sans-Serif" font-size="10.00">&#45;wait_factor</text>
</g>
<!-- Node6 -->
<g id="node6" class="node">
<title>Node6</title>
<g id="a_node6"><a xlink:title=" ">
<polygon fill="none" stroke="#bfbfbf" points="377,-624.5 377,-681.5 406,-681.5 406,-624.5 377,-624.5"/>
<text text-anchor="middle" x="391.5" y="-669.5" font-family="Helvetica,sans-Serif" font-size="10.00">int</text>
<polyline fill="none" stroke="#bfbfbf" points="377,-662.5 406,-662.5 "/>
<text text-anchor="middle" x="391.5" y="-650.5" font-family="Helvetica,sans-Serif" font-size="10.00"> </text>
<polyline fill="none" stroke="#bfbfbf" points="377,-643.5 406,-643.5 "/>
<text text-anchor="middle" x="391.5" y="-631.5" font-family="Helvetica,sans-Serif" font-size="10.00"> </text>
</a>
</g>
</g>
<!-- Node6&#45;&gt;Node2 -->
<g id="edge9" class="edge">
<title>Node6&#45;&gt;Node2</title>
<path fill="none" stroke="#404040" d="M406.03,-645.26C429.95,-633.26 476.84,-605.64 495.5,-566 523.13,-507.29 527.93,-476.2 495.5,-420 480.68,-394.32 460.25,-402.9 432.37,-382.53"/>
<polygon fill="none" stroke="#404040" points="432.3,-382.47 425.13,-381.73 423.06,-374.82 430.23,-375.57 432.3,-382.47"/>
<text text-anchor="middle" x="550.5" y="-490.5" font-family="Helvetica,sans-Serif" font-size="10.00"> #num_fields</text>
</g>
<!-- Node6&#45;&gt;Node3 -->
<g id="edge5" class="edge">
<title>Node6&#45;&gt;Node3</title>
<path fill="none" stroke="#404040" d="M376.94,-637.54C372.39,-633.13 367.29,-628.3 362.5,-624 336.33,-600.51 306.86,-575.59 280.65,-553.92"/>
<polygon fill="none" stroke="#404040" points="280.41,-553.73 273.24,-553 271.15,-546.09 278.33,-546.82 280.41,-553.73"/>
<text text-anchor="middle" x="387" y="-598" font-family="Helvetica,sans-Serif" font-size="10.00"> &#45;attempt_number</text>
<text text-anchor="middle" x="387" y="-587" font-family="Helvetica,sans-Serif" font-size="10.00">&#45;max_attempts</text>
</g>
<!-- Node7 -->
<g id="node7" class="node">
<title>Node7</title>
<g id="a_node7"><a xlink:title=" ">
<polygon fill="none" stroke="#bfbfbf" points="115.5,-624.5 115.5,-681.5 153.5,-681.5 153.5,-624.5 115.5,-624.5"/>
<text text-anchor="middle" x="134.5" y="-669.5" font-family="Helvetica,sans-Serif" font-size="10.00">bool</text>
<polyline fill="none" stroke="#bfbfbf" points="115.5,-662.5 153.5,-662.5 "/>
<text text-anchor="middle" x="134.5" y="-650.5" font-family="Helvetica,sans-Serif" font-size="10.00"> </text>
<polyline fill="none" stroke="#bfbfbf" points="115.5,-643.5 153.5,-643.5 "/>
<text text-anchor="middle" x="134.5" y="-631.5" font-family="Helvetica,sans-Serif" font-size="10.00"> </text>
</a>
</g>
</g>
<!-- Node7&#45;&gt;Node3 -->
<g id="edge6" class="edge">
<title>Node7&#45;&gt;Node3</title>
<path fill="none" stroke="#404040" d="M130.94,-624.48C130.29,-611.82 130.96,-596.79 135.5,-584 136.41,-581.45 137.42,-578.91 138.52,-576.4"/>
<polygon fill="none" stroke="#404040" points="138.57,-576.3 137.64,-569.15 143.89,-565.54 144.81,-572.69 138.57,-576.3"/>
<text text-anchor="middle" x="160" y="-592.5" font-family="Helvetica,sans-Serif" font-size="10.00"> #verified</text>
</g>
<!-- Node8 -->
<g id="node8" class="node">
<title>Node8</title>
<g id="a_node8"><a xlink:title=" ">
<polygon fill="none" stroke="#bfbfbf" points="441,-243 441,-300 546,-300 546,-243 441,-243"/>
<text text-anchor="middle" x="493.5" y="-288" font-family="Helvetica,sans-Serif" font-size="10.00">SensirionI2cScd4x</text>
<polyline fill="none" stroke="#bfbfbf" points="441,-281 546,-281 "/>
<text text-anchor="middle" x="493.5" y="-269" font-family="Helvetica,sans-Serif" font-size="10.00"> </text>
<polyline fill="none" stroke="#bfbfbf" points="441,-262 546,-262 "/>
<text text-anchor="middle" x="493.5" y="-250" font-family="Helvetica,sans-Serif" font-size="10.00"> </text>
</a>
</g>
</g>
<!-- Node8&#45;&gt;Node1 -->
<g id="edge10" class="edge">
<title>Node8&#45;&gt;Node1</title>
<path fill="none" stroke="#404040" d="M484.35,-242.65C474.53,-212.79 458.59,-164.27 445.49,-124.4"/>
<polygon fill="none" stroke="#404040" points="445.44,-124.27 439.77,-119.82 441.7,-112.87 447.37,-117.32 445.44,-124.27"/>
<text text-anchor="middle" x="462.5" y="-134" font-family="Helvetica,sans-Serif" font-size="10.00"> &#45;scd</text>
</g>
</g>
</svg>
