<?xml version="1.0" encoding="UTF-8" standalone="no"?>
<!DOCTYPE svg PUBLIC "-//W3C//DTD SVG 1.1//EN"
 "http://www.w3.org/Graphics/SVG/1.1/DTD/svg11.dtd">
<!-- Generated by graphviz version 2.43.0 (0)
 -->
<!-- Title: LSM9DS1Sensor Pages: 1 -->
<svg width="637pt" height="743pt"
 viewBox="0.00 0.00 636.50 743.00" xmlns="http://www.w3.org/2000/svg" xmlns:xlink="http://www.w3.org/1999/xlink">
<g id="graph0" class="graph" transform="scale(1 1) rotate(0) translate(4 739)">
<title>LSM9DS1Sensor</title>
<!-- Node1 -->
<g id="Node000001" class="node">
<title>Node1</title>
<g id="a_Node000001"><a xlink:title="Implementation of the Sensor class for the LSM9DS1 (9&#45;axis IMU)">
<polygon fill="#999999" stroke="transparent" points="559.5,-154 451.5,-154 451.5,0 559.5,0 559.5,-154"/>
<text text-anchor="start" x="466" y="-142" font-family="Helvetica,sans-Serif" font-size="10.00">LSM9DS1Sensor</text>
<text text-anchor="start" x="503.5" y="-127" font-family="Helvetica,sans-Serif" font-size="10.00"> </text>
<text text-anchor="start" x="455.5" y="-112" font-family="Helvetica,sans-Serif" font-size="10.00">+</text>
<text text-anchor="start" x="468.5" y="-112" font-family="Helvetica,sans-Serif" font-size="10.00">LSM9DS1Sensor()</text>
<text text-anchor="start" x="455.5" y="-97" font-family="Helvetica,sans-Serif" font-size="10.00">+</text>
<text text-anchor="start" x="468.5" y="-97" font-family="Helvetica,sans-Serif" font-size="10.00">LSM9DS1Sensor()</text>
<text text-anchor="start" x="455.5" y="-82" font-family="Helvetica,sans-Serif" font-size="10.00">+</text>
<text text-anchor="start" x="468.5" y="-82" font-family="Helvetica,sans-Serif" font-size="10.00">verify()</text>
<text text-anchor="start" x="455.5" y="-67" font-family="Helvetica,sans-Serif" font-size="10.00">+</text>
<text text-anchor="start" x="468.5" y="-67" font-family="Helvetica,sans-Serif" font-size="10.00">readData()</text>
<text text-anchor="start" x="455.5" y="-52" font-family="Helvetica,sans-Serif" font-size="10.00">+</text>
<text text-anchor="start" x="468.5" y="-52" font-family="Helvetica,sans-Serif" font-size="10.00">calibrate()</text>
<text text-anchor="start" x="455.5" y="-37" font-family="Helvetica,sans-Serif" font-size="10.00">+</text>
<text text-anchor="start" x="468.5" y="-37" font-family="Helvetica,sans-Serif" font-size="10.00">readDataPacket()</text>
<text text-anchor="start" x="455.5" y="-22" font-family="Helvetica,sans-Serif" font-size="10.00">+</text>
<text text-anchor="start" x="468.5" y="-22" font-family="Helvetica,sans-Serif" font-size="10.00">decodeToCSV()</text>
<text text-anchor="start" x="458" y="-7" font-family="Helvetica,sans-Serif" font-size="10.00">&#45;</text>
<text text-anchor="start" x="468.5" y="-7" font-family="Helvetica,sans-Serif" font-size="10.00">setupSensor()</text>
<polygon fill="#666666" stroke="#666666" points="451.5,-137 451.5,-137 559.5,-137 559.5,-137 451.5,-137"/>
<polygon fill="#666666" stroke="#666666" points="451.5,-122 451.5,-122 559.5,-122 559.5,-122 451.5,-122"/>
<polygon fill="none" stroke="#666666" points="451.5,0 451.5,-154 559.5,-154 559.5,0 451.5,0"/>
</a>
</g>
</g>
<!-- Node2 -->
<g id="Node000002" class="node">
<title>Node2</title>
<g id="a_Node000002"><a xlink:href="classSensor.html" target="_top" xlink:title="Parent class for sensor objects.">
<polygon fill="white" stroke="transparent" points="437,-422 304,-422 304,-223 437,-223 437,-422"/>
<text text-anchor="start" x="354" y="-409.5" font-family="Helvetica,sans-Serif" font-size="10.00">Sensor</text>
<text text-anchor="start" x="369" y="-394.5" font-family="Helvetica,sans-Serif" font-size="10.00"> </text>
<text text-anchor="start" x="308.5" y="-379.5" font-family="Helvetica,sans-Serif" font-size="10.00">+</text>
<text text-anchor="start" x="321.5" y="-379.5" font-family="Helvetica,sans-Serif" font-size="10.00">Sensor()</text>
<text text-anchor="start" x="308.5" y="-364.5" font-family="Helvetica,sans-Serif" font-size="10.00">+</text>
<text text-anchor="start" x="321.5" y="-364.5" font-family="Helvetica,sans-Serif" font-size="10.00">Sensor()</text>
<text text-anchor="start" x="308.5" y="-349.5" font-family="Helvetica,sans-Serif" font-size="10.00">+</text>
<text text-anchor="start" x="321.5" y="-349.5" font-family="Helvetica,sans-Serif" font-size="10.00">Sensor()</text>
<text text-anchor="start" x="308.5" y="-334.5" font-family="Helvetica,sans-Serif" font-size="10.00">+</text>
<text text-anchor="start" x="321.5" y="-334.5" font-family="Helvetica,sans-Serif" font-size="10.00">Sensor()</text>
<text text-anchor="start" x="308.5" y="-319.5" font-family="Helvetica,sans-Serif" font-size="10.00">+</text>
<text text-anchor="start" x="321.5" y="-319.5" font-family="Helvetica,sans-Serif" font-size="10.00">getPeriod()</text>
<text text-anchor="start" x="308.5" y="-304.5" font-family="Helvetica,sans-Serif" font-size="10.00">+</text>
<text text-anchor="start" x="321.5" y="-304.5" font-family="Helvetica,sans-Serif" font-size="10.00">setPeriod()</text>
<text text-anchor="start" x="308.5" y="-289.5" font-family="Helvetica,sans-Serif" font-size="10.00">+</text>
<text text-anchor="start" x="321.5" y="-289.5" font-family="Helvetica,sans-Serif" font-size="10.00">getLastExecution()</text>
<text text-anchor="start" x="308.5" y="-274.5" font-family="Helvetica,sans-Serif" font-size="10.00">+</text>
<text text-anchor="start" x="321.5" y="-274.5" font-family="Helvetica,sans-Serif" font-size="10.00">setLastExecution()</text>
<text text-anchor="start" x="308.5" y="-259.5" font-family="Helvetica,sans-Serif" font-size="10.00">+</text>
<text text-anchor="start" x="321.5" y="-259.5" font-family="Helvetica,sans-Serif" font-size="10.00">getSensorCSVHeader()</text>
<text text-anchor="start" x="308.5" y="-244.5" font-family="Helvetica,sans-Serif" font-size="10.00">+</text>
<text text-anchor="start" x="321.5" y="-244.5" font-family="Helvetica,sans-Serif" font-size="10.00">verify()</text>
<text text-anchor="start" x="321.5" y="-229.5" font-family="Helvetica,sans-Serif" font-size="10.00">and 6 more...</text>
<polygon fill="#666666" stroke="#666666" points="304.5,-404.5 304.5,-404.5 437.5,-404.5 437.5,-404.5 304.5,-404.5"/>
<polygon fill="#666666" stroke="#666666" points="304.5,-389.5 304.5,-389.5 437.5,-389.5 437.5,-389.5 304.5,-389.5"/>
<polygon fill="none" stroke="#666666" points="304,-223 304,-422 437,-422 437,-223 304,-223"/>
</a>
</g>
</g>
<!-- Node2&#45;&gt;Node1 -->
<g id="edge1_Node000001_Node000002" class="edge">
<title>Node2&#45;&gt;Node1</title>
<g id="a_edge1_Node000001_Node000002"><a xlink:title=" ">
<path fill="none" stroke="#63b8ff" d="M430.16,-213.89C441.35,-193.7 452.84,-172.99 463.36,-154.01"/>
<polygon fill="none" stroke="#63b8ff" points="427,-212.37 425.22,-222.81 433.12,-215.76 427,-212.37"/>
</a>
</g>
</g>
<!-- Node3 -->
<g id="Node000003" class="node">
<title>Node3</title>
<g id="a_Node000003"><a xlink:href="classDevice.html" target="_top" xlink:title="Implements the recovery system for Sensor and Storage objects.">
<polygon fill="white" stroke="transparent" points="282,-628 159,-628 159,-459 282,-459 282,-628"/>
<text text-anchor="start" x="204" y="-615.5" font-family="Helvetica,sans-Serif" font-size="10.00">Device</text>
<text text-anchor="start" x="219" y="-600.5" font-family="Helvetica,sans-Serif" font-size="10.00"> </text>
<text text-anchor="start" x="163.5" y="-585.5" font-family="Helvetica,sans-Serif" font-size="10.00">+</text>
<text text-anchor="start" x="176.5" y="-585.5" font-family="Helvetica,sans-Serif" font-size="10.00">Device()</text>
<text text-anchor="start" x="163.5" y="-570.5" font-family="Helvetica,sans-Serif" font-size="10.00">+</text>
<text text-anchor="start" x="176.5" y="-570.5" font-family="Helvetica,sans-Serif" font-size="10.00">Device()</text>
<text text-anchor="start" x="163.5" y="-555.5" font-family="Helvetica,sans-Serif" font-size="10.00">+</text>
<text text-anchor="start" x="176.5" y="-555.5" font-family="Helvetica,sans-Serif" font-size="10.00">getDeviceName()</text>
<text text-anchor="start" x="163.5" y="-540.5" font-family="Helvetica,sans-Serif" font-size="10.00">+</text>
<text text-anchor="start" x="176.5" y="-540.5" font-family="Helvetica,sans-Serif" font-size="10.00">verify()</text>
<text text-anchor="start" x="163.5" y="-525.5" font-family="Helvetica,sans-Serif" font-size="10.00">+</text>
<text text-anchor="start" x="176.5" y="-525.5" font-family="Helvetica,sans-Serif" font-size="10.00">getVerified()</text>
<text text-anchor="start" x="163.5" y="-510.5" font-family="Helvetica,sans-Serif" font-size="10.00">+</text>
<text text-anchor="start" x="176.5" y="-510.5" font-family="Helvetica,sans-Serif" font-size="10.00">recoveryConfig()</text>
<text text-anchor="start" x="163.5" y="-495.5" font-family="Helvetica,sans-Serif" font-size="10.00">+</text>
<text text-anchor="start" x="176.5" y="-495.5" font-family="Helvetica,sans-Serif" font-size="10.00">setWaitFactor()</text>
<text text-anchor="start" x="163.5" y="-480.5" font-family="Helvetica,sans-Serif" font-size="10.00">+</text>
<text text-anchor="start" x="176.5" y="-480.5" font-family="Helvetica,sans-Serif" font-size="10.00">setMaxAttempts()</text>
<text text-anchor="start" x="163.5" y="-465.5" font-family="Helvetica,sans-Serif" font-size="10.00">+</text>
<text text-anchor="start" x="176.5" y="-465.5" font-family="Helvetica,sans-Serif" font-size="10.00">attemptConnection()</text>
<polygon fill="#666666" stroke="#666666" points="159.5,-610.5 159.5,-610.5 282.5,-610.5 282.5,-610.5 159.5,-610.5"/>
<polygon fill="#666666" stroke="#666666" points="159.5,-595.5 159.5,-595.5 282.5,-595.5 282.5,-595.5 159.5,-595.5"/>
<polygon fill="none" stroke="#666666" points="159,-459 159,-628 282,-628 282,-459 159,-459"/>
</a>
</g>
</g>
<!-- Node3&#45;&gt;Node2 -->
<g id="edge2_Node000002_Node000003" class="edge">
<title>Node3&#45;&gt;Node2</title>
<g id="a_edge2_Node000002_Node000003"><a xlink:title=" ">
<path fill="none" stroke="#63b8ff" d="M283.68,-450.25C290.37,-440.49 297.18,-430.55 303.9,-420.74"/>
<polygon fill="none" stroke="#63b8ff" points="280.61,-448.54 277.85,-458.77 286.39,-452.5 280.61,-448.54"/>
</a>
</g>
</g>
<!-- Node4 -->
<g id="Node000004" class="node">
<title>Node4</title>
<g id="a_Node000004"><a xlink:title=" ">
<polygon fill="white" stroke="transparent" points="79,-735 0,-735 0,-686 79,-686 79,-735"/>
<text text-anchor="start" x="5.5" y="-722.5" font-family="Helvetica,sans-Serif" font-size="10.00">unsigned long</text>
<text text-anchor="start" x="38" y="-707.5" font-family="Helvetica,sans-Serif" font-size="10.00"> </text>
<text text-anchor="start" x="38" y="-692.5" font-family="Helvetica,sans-Serif" font-size="10.00"> </text>
<polygon fill="#666666" stroke="#666666" points="0.5,-717.5 0.5,-717.5 79.5,-717.5 79.5,-717.5 0.5,-717.5"/>
<polygon fill="#666666" stroke="#666666" points="0.5,-702.5 0.5,-702.5 79.5,-702.5 79.5,-702.5 0.5,-702.5"/>
<polygon fill="none" stroke="#666666" points="0,-686 0,-735 79,-735 79,-686 0,-686"/>
</a>
</g>
</g>
<!-- Node4&#45;&gt;Node2 -->
<g id="edge7_Node000002_Node000004" class="edge">
<title>Node4&#45;&gt;Node2</title>
<g id="a_edge7_Node000002_Node000004"><a xlink:title=" ">
<path fill="none" stroke="#63b8ff" d="M34.27,-685.76C25.15,-637.86 11.73,-528.34 61.5,-459 115.21,-384.17 219.52,-350.15 292.01,-335.03"/>
<polygon fill="none" stroke="#63b8ff" points="292.04,-335.02 297.14,-329.93 303.8,-332.68 298.7,-337.77 292.04,-335.02"/>
</a>
</g>
<text text-anchor="middle" x="105.5" y="-546.5" font-family="Helvetica,sans-Serif" font-size="10.00" fill="grey"> &#45;last_execution</text>
<text text-anchor="middle" x="105.5" y="-535.5" font-family="Helvetica,sans-Serif" font-size="10.00" fill="grey">&#45;minimum_period</text>
</g>
<!-- Node4&#45;&gt;Node3 -->
<g id="edge3_Node000003_Node000004" class="edge">
<title>Node4&#45;&gt;Node3</title>
<g id="a_edge3_Node000003_Node000004"><a xlink:title=" ">
<path fill="none" stroke="#63b8ff" d="M52.87,-685.96C60.92,-673.14 72.01,-657.57 84.5,-646 95.91,-635.43 101.7,-636.83 114.5,-628 126.03,-620.05 137.95,-611.26 149.45,-602.46"/>
<polygon fill="none" stroke="#63b8ff" points="149.5,-602.42 151.8,-595.58 159,-595.08 156.7,-601.91 149.5,-602.42"/>
</a>
</g>
<text text-anchor="middle" x="119.5" y="-660" font-family="Helvetica,sans-Serif" font-size="10.00" fill="grey"> &#45;last_attempt</text>
<text text-anchor="middle" x="119.5" y="-649" font-family="Helvetica,sans-Serif" font-size="10.00" fill="grey">&#45;wait_factor</text>
</g>
<!-- Node5 -->
<g id="Node000005" class="node">
<title>Node5</title>
<g id="a_Node000005"><a xlink:title=" ">
<polygon fill="white" stroke="transparent" points="263,-735 240,-735 240,-686 263,-686 263,-735"/>
<text text-anchor="start" x="245.5" y="-722.5" font-family="Helvetica,sans-Serif" font-size="10.00">int</text>
<text text-anchor="start" x="250" y="-707.5" font-family="Helvetica,sans-Serif" font-size="10.00"> </text>
<text text-anchor="start" x="250" y="-692.5" font-family="Helvetica,sans-Serif" font-size="10.00"> </text>
<polygon fill="#666666" stroke="#666666" points="240.5,-717.5 240.5,-717.5 263.5,-717.5 263.5,-717.5 240.5,-717.5"/>
<polygon fill="#666666" stroke="#666666" points="240.5,-702.5 240.5,-702.5 263.5,-702.5 263.5,-702.5 240.5,-702.5"/>
<polygon fill="none" stroke="#666666" points="240,-686 240,-735 263,-735 263,-686 240,-686"/>
</a>
</g>
</g>
<!-- Node5&#45;&gt;Node2 -->
<g id="edge9_Node000002_Node000005" class="edge">
<title>Node5&#45;&gt;Node2</title>
<g id="a_edge9_Node000002_Node000005"><a xlink:title=" ">
<path fill="none" stroke="#63b8ff" d="M263.46,-708.15C296.68,-704.14 388.78,-691.09 406.5,-668 420.64,-649.58 404.61,-527.94 389.67,-434.37"/>
<polygon fill="none" stroke="#63b8ff" points="389.62,-434.09 384.72,-428.8 387.71,-422.24 392.61,-427.53 389.62,-434.09"/>
</a>
</g>
<text text-anchor="middle" x="445" y="-541" font-family="Helvetica,sans-Serif" font-size="10.00" fill="grey"> #num_fields</text>
</g>
<!-- Node5&#45;&gt;Node3 -->
<g id="edge4_Node000003_Node000005" class="edge">
<title>Node5&#45;&gt;Node3</title>
<g id="a_edge4_Node000003_Node000005"><a xlink:title=" ">
<path fill="none" stroke="#63b8ff" d="M239.78,-697.57C233.02,-689.84 225.16,-679.15 221.5,-668 218.59,-659.12 216.64,-649.68 215.41,-640.13"/>
<polygon fill="none" stroke="#63b8ff" points="215.39,-639.96 210.82,-634.38 214.21,-628.02 218.78,-633.59 215.39,-639.96"/>
</a>
</g>
<text text-anchor="middle" x="266" y="-660" font-family="Helvetica,sans-Serif" font-size="10.00" fill="grey"> &#45;attempt_number</text>
<text text-anchor="middle" x="266" y="-649" font-family="Helvetica,sans-Serif" font-size="10.00" fill="grey">&#45;max_attempts</text>
</g>
<!-- Node6 -->
<g id="Node000006" class="node">
<title>Node6</title>
<g id="a_Node000006"><a xlink:title=" ">
<polygon fill="white" stroke="transparent" points="446,-735 407,-735 407,-686 446,-686 446,-735"/>
<text text-anchor="start" x="412.5" y="-722.5" font-family="Helvetica,sans-Serif" font-size="10.00">String</text>
<text text-anchor="start" x="425" y="-707.5" font-family="Helvetica,sans-Serif" font-size="10.00"> </text>
<text text-anchor="start" x="425" y="-692.5" font-family="Helvetica,sans-Serif" font-size="10.00"> </text>
<polygon fill="#666666" stroke="#666666" points="407.5,-717.5 407.5,-717.5 446.5,-717.5 446.5,-717.5 407.5,-717.5"/>
<polygon fill="#666666" stroke="#666666" points="407.5,-702.5 407.5,-702.5 446.5,-702.5 446.5,-702.5 407.5,-702.5"/>
<polygon fill="none" stroke="#666666" points="407,-686 407,-735 446,-735 446,-686 407,-686"/>
</a>
</g>
</g>
<!-- Node6&#45;&gt;Node2 -->
<g id="edge8_Node000002_Node000006" class="edge">
<title>Node6&#45;&gt;Node2</title>
<g id="a_edge8_Node000002_Node000006"><a xlink:title=" ">
<path fill="none" stroke="#63b8ff" d="M446.11,-691.6C461.23,-676.37 480.95,-653.05 489.5,-628 513.77,-556.92 521.21,-527.09 489.5,-459 478.71,-435.84 463.12,-440.5 445.5,-422 445.41,-421.91 445.32,-421.82 445.24,-421.72"/>
<polygon fill="none" stroke="#63b8ff" points="445.2,-421.68 438.2,-419.97 437.08,-412.85 444.08,-414.56 445.2,-421.68"/>
</a>
</g>
<text text-anchor="middle" x="542" y="-546.5" font-family="Helvetica,sans-Serif" font-size="10.00" fill="grey"> &#45;csv_header</text>
<text text-anchor="middle" x="542" y="-535.5" font-family="Helvetica,sans-Serif" font-size="10.00" fill="grey">&#45;empty_csv</text>
</g>
<!-- Node6&#45;&gt;Node3 -->
<g id="edge5_Node000003_Node000006" class="edge">
<title>Node6&#45;&gt;Node3</title>
<g id="a_edge5_Node000003_Node000006"><a xlink:title=" ">
<path fill="none" stroke="#63b8ff" d="M406.75,-693.68C380.46,-672.62 332.55,-634.25 291.91,-601.7"/>
<polygon fill="none" stroke="#63b8ff" points="291.66,-601.5 284.48,-600.87 282.29,-593.99 289.48,-594.62 291.66,-601.5"/>
</a>
</g>
<text text-anchor="middle" x="408" y="-654.5" font-family="Helvetica,sans-Serif" font-size="10.00" fill="grey"> &#45;device_name</text>
</g>
<!-- Node7 -->
<g id="Node000007" class="node">
<title>Node7</title>
<g id="a_Node000007"><a xlink:title=" ">
<polygon fill="white" stroke="transparent" points="164.5,-735 132.5,-735 132.5,-686 164.5,-686 164.5,-735"/>
<text text-anchor="start" x="137.5" y="-722.5" font-family="Helvetica,sans-Serif" font-size="10.00">bool</text>
<text text-anchor="start" x="146.5" y="-707.5" font-family="Helvetica,sans-Serif" font-size="10.00"> </text>
<text text-anchor="start" x="146.5" y="-692.5" font-family="Helvetica,sans-Serif" font-size="10.00"> </text>
<polygon fill="#666666" stroke="#666666" points="132.5,-717.5 132.5,-717.5 164.5,-717.5 164.5,-717.5 132.5,-717.5"/>
<polygon fill="#666666" stroke="#666666" points="132.5,-702.5 132.5,-702.5 164.5,-702.5 164.5,-702.5 132.5,-702.5"/>
<polygon fill="none" stroke="#666666" points="132.5,-686 132.5,-735 164.5,-735 164.5,-686 132.5,-686"/>
</a>
</g>
</g>
<!-- Node7&#45;&gt;Node3 -->
<g id="edge6_Node000003_Node000007" class="edge">
<title>Node7&#45;&gt;Node3</title>
<g id="a_edge6_Node000003_Node000007"><a xlink:title=" ">
<path fill="none" stroke="#63b8ff" d="M152.95,-685.83C155.6,-673.68 159.46,-658.8 164.5,-646 165.37,-643.79 166.28,-641.56 167.23,-639.33"/>
<polygon fill="none" stroke="#63b8ff" points="167.32,-639.12 166.11,-632.02 172.2,-628.16 173.41,-635.27 167.32,-639.12"/>
</a>
</g>
<text text-anchor="middle" x="189" y="-654.5" font-family="Helvetica,sans-Serif" font-size="10.00" fill="grey"> #verified</text>
</g>
<!-- Node8 -->
<g id="Node000008" class="node">
<title>Node8</title>
<g id="a_Node000008"><a xlink:title=" ">
<polygon fill="white" stroke="transparent" points="556,-347 455,-347 455,-298 556,-298 556,-347"/>
<text text-anchor="start" x="460.5" y="-334.5" font-family="Helvetica,sans-Serif" font-size="10.00">Adafruit_LSM9DS1</text>
<text text-anchor="start" x="504" y="-319.5" font-family="Helvetica,sans-Serif" font-size="10.00"> </text>
<text text-anchor="start" x="504" y="-304.5" font-family="Helvetica,sans-Serif" font-size="10.00"> </text>
<polygon fill="#666666" stroke="#666666" points="455.5,-329.5 455.5,-329.5 556.5,-329.5 556.5,-329.5 455.5,-329.5"/>
<polygon fill="#666666" stroke="#666666" points="455.5,-314.5 455.5,-314.5 556.5,-314.5 556.5,-314.5 455.5,-314.5"/>
<polygon fill="none" stroke="#666666" points="455,-298 455,-347 556,-347 556,-298 455,-298"/>
</a>
</g>
</g>
<!-- Node8&#45;&gt;Node1 -->
<g id="edge10_Node000001_Node000008" class="edge">
<title>Node8&#45;&gt;Node1</title>
<g id="a_edge10_Node000001_Node000008"><a xlink:title=" ">
<path fill="none" stroke="#63b8ff" d="M505.5,-297.71C505.5,-267.38 505.5,-213.24 505.5,-166.3"/>
<polygon fill="none" stroke="#63b8ff" points="505.5,-166.22 501.5,-160.22 505.5,-154.22 509.5,-160.22 505.5,-166.22"/>
</a>
</g>
<text text-anchor="middle" x="518" y="-186" font-family="Helvetica,sans-Serif" font-size="10.00" fill="grey"> &#45;lsm</text>
</g>
<!-- Node9 -->
<g id="Node000009" class="node">
<title>Node9</title>
<g id="a_Node000009"><a xlink:title=" ">
<polygon fill="white" stroke="transparent" points="606.5,-347 574.5,-347 574.5,-298 606.5,-298 606.5,-347"/>
<text text-anchor="start" x="579.5" y="-334.5" font-family="Helvetica,sans-Serif" font-size="10.00">float</text>
<text text-anchor="start" x="588.5" y="-319.5" font-family="Helvetica,sans-Serif" font-size="10.00"> </text>
<text text-anchor="start" x="588.5" y="-304.5" font-family="Helvetica,sans-Serif" font-size="10.00"> </text>
<polygon fill="#666666" stroke="#666666" points="574.5,-329.5 574.5,-329.5 606.5,-329.5 606.5,-329.5 574.5,-329.5"/>
<polygon fill="#666666" stroke="#666666" points="574.5,-314.5 574.5,-314.5 606.5,-314.5 606.5,-314.5 574.5,-314.5"/>
<polygon fill="none" stroke="#666666" points="574.5,-298 574.5,-347 606.5,-347 606.5,-298 574.5,-298"/>
</a>
</g>
</g>
<!-- Node9&#45;&gt;Node1 -->
<g id="edge11_Node000001_Node000009" class="edge">
<title>Node9&#45;&gt;Node1</title>
<g id="a_edge11_Node000001_Node000009"><a xlink:title=" ">
<path fill="none" stroke="#63b8ff" d="M585.48,-297.74C580.99,-277.62 573.84,-248.12 565.5,-223 559.25,-204.18 551.71,-184.33 544.1,-165.57"/>
<polygon fill="none" stroke="#63b8ff" points="544.06,-165.46 538.08,-161.42 539.5,-154.36 545.48,-158.39 544.06,-165.46"/>
</a>
</g>
<text text-anchor="middle" x="593" y="-197" font-family="Helvetica,sans-Serif" font-size="10.00" fill="grey"> &#45;accel_offsets</text>
<text text-anchor="middle" x="593" y="-186" font-family="Helvetica,sans-Serif" font-size="10.00" fill="grey">&#45;gyro_offsets</text>
<text text-anchor="middle" x="593" y="-175" font-family="Helvetica,sans-Serif" font-size="10.00" fill="grey">&#45;mag_offsets</text>
</g>
</g>
</svg>
