<?xml version="1.0" encoding="UTF-8" standalone="no"?>
<!DOCTYPE svg PUBLIC "-//W3C//DTD SVG 1.1//EN"
 "http://www.w3.org/Graphics/SVG/1.1/DTD/svg11.dtd">
<!-- Generated by graphviz version 2.43.0 (0)
 -->
<!-- Title: Device::getDeviceName Pages: 1 -->
<svg width="493pt" height="64pt"
 viewBox="0.00 0.00 493.00 64.00" xmlns="http://www.w3.org/2000/svg" xmlns:xlink="http://www.w3.org/1999/xlink">
<g id="graph0" class="graph" transform="scale(1 1) rotate(0) translate(4 60)">
<title>Device::getDeviceName</title>
<!-- Node1 -->
<g id="Node000001" class="node">
<title>Node1</title>
<g id="a_Node000001"><a xlink:title=" ">
<polygon fill="#999999" stroke="#666666" points="485,-37 350,-37 350,-18 485,-18 485,-37"/>
<text text-anchor="middle" x="417.5" y="-25" font-family="Helvetica,sans-Serif" font-size="10.00">Device::getDeviceName</text>
</a>
</g>
</g>
<!-- Node2 -->
<g id="Node000002" class="node">
<title>Node2</title>
<g id="a_Node000002"><a xlink:href="classSensor.html#ab344e7fbc9acdc5dcc7ae59d0a3fb5f6" target="_top" xlink:title="Used for onboard decoding of packets.">
<polygon fill="white" stroke="#666666" points="314,-56 193,-56 193,-37 314,-37 314,-56"/>
<text text-anchor="middle" x="253.5" y="-44" font-family="Helvetica,sans-Serif" font-size="10.00">Sensor::decodeToCSV</text>
</a>
</g>
</g>
<!-- Node1&#45;&gt;Node2 -->
<g id="edge1_Node000001_Node000002" class="edge">
<title>Node1&#45;&gt;Node2</title>
<g id="a_edge1_Node000001_Node000002"><a xlink:title=" ">
<path fill="none" stroke="#63b8ff" d="M339.67,-36.51C331.11,-37.52 322.48,-38.53 314.17,-39.5"/>
<polygon fill="#63b8ff" stroke="#63b8ff" points="340.15,-39.98 349.67,-35.34 339.33,-33.03 340.15,-39.98"/>
</a>
</g>
</g>
<!-- Node5 -->
<g id="Node000005" class="node">
<title>Node5</title>
<g id="a_Node000005"><a xlink:href="main_8cpp.html#a4fc01d736fe50cf5b977f755b675f11d" target="_top" xlink:title="Setup for core 0.">
<polygon fill="white" stroke="#666666" points="275.5,-19 231.5,-19 231.5,0 275.5,0 275.5,-19"/>
<text text-anchor="middle" x="253.5" y="-7" font-family="Helvetica,sans-Serif" font-size="10.00">setup</text>
</a>
</g>
</g>
<!-- Node1&#45;&gt;Node5 -->
<g id="edge4_Node000001_Node000005" class="edge">
<title>Node1&#45;&gt;Node5</title>
<g id="a_edge4_Node000001_Node000005"><a xlink:title=" ">
<path fill="none" stroke="#63b8ff" d="M339.66,-18.96C316.18,-16.35 292.24,-13.69 275.74,-11.86"/>
<polygon fill="#63b8ff" stroke="#63b8ff" points="339.35,-22.45 349.67,-20.07 340.12,-15.49 339.35,-22.45"/>
</a>
</g>
</g>
<!-- Node3 -->
<g id="Node000003" class="node">
<title>Node3</title>
<g id="a_Node000003"><a xlink:href="main_8cpp.html#a9163644b089001958496a71b73b9091a" target="_top" xlink:title="Decodes the packet to a CSV row.">
<polygon fill="white" stroke="#666666" points="157,-56 74,-56 74,-37 157,-37 157,-56"/>
<text text-anchor="middle" x="115.5" y="-44" font-family="Helvetica,sans-Serif" font-size="10.00">decodePacket</text>
</a>
</g>
</g>
<!-- Node2&#45;&gt;Node3 -->
<g id="edge2_Node000002_Node000003" class="edge">
<title>Node2&#45;&gt;Node3</title>
<g id="a_edge2_Node000002_Node000003"><a xlink:title=" ">
<path fill="none" stroke="#63b8ff" d="M182.68,-46.5C174.01,-46.5 165.37,-46.5 157.34,-46.5"/>
<polygon fill="#63b8ff" stroke="#63b8ff" points="182.85,-50 192.85,-46.5 182.85,-43 182.85,-50"/>
</a>
</g>
</g>
<!-- Node4 -->
<g id="Node000004" class="node">
<title>Node4</title>
<g id="a_Node000004"><a xlink:href="main_8cpp.html#afe461d27b9c48d5921c00d521181f12f" target="_top" xlink:title="Loop for core 0, handling sensor reads.">
<polygon fill="white" stroke="#666666" points="38,-56 0,-56 0,-37 38,-37 38,-56"/>
<text text-anchor="middle" x="19" y="-44" font-family="Helvetica,sans-Serif" font-size="10.00">loop</text>
</a>
</g>
</g>
<!-- Node3&#45;&gt;Node4 -->
<g id="edge3_Node000003_Node000004" class="edge">
<title>Node3&#45;&gt;Node4</title>
<g id="a_edge3_Node000003_Node000004"><a xlink:title=" ">
<path fill="none" stroke="#63b8ff" d="M63.63,-46.5C54.56,-46.5 45.67,-46.5 38.3,-46.5"/>
<polygon fill="#63b8ff" stroke="#63b8ff" points="63.88,-50 73.88,-46.5 63.88,-43 63.88,-50"/>
</a>
</g>
</g>
</g>
</svg>
