<?xml version="1.0" encoding="UTF-8" standalone="no"?>
<!DOCTYPE svg PUBLIC "-//W3C//DTD SVG 1.1//EN"
 "http://www.w3.org/Graphics/SVG/1.1/DTD/svg11.dtd">
<!-- Generated by graphviz version 2.43.0 (0)
 -->
<!-- Title: PCF8523Sensor Pages: 1 -->
<svg width="592pt" height="701pt"
 viewBox="0.00 0.00 591.50 701.00" xmlns="http://www.w3.org/2000/svg" xmlns:xlink="http://www.w3.org/1999/xlink">
<g id="graph0" class="graph" transform="scale(1 1) rotate(0) translate(4 697)">
<title>PCF8523Sensor</title>
<!-- Node1 -->
<g id="node1" class="node">
<title>Node1</title>
<g id="a_node1"><a xlink:title="Implementation of the PCF8523 sensor.">
<polygon fill="#bfbfbf" stroke="black" points="361,-0.5 361,-123.5 474,-123.5 474,-0.5 361,-0.5"/>
<text text-anchor="middle" x="417.5" y="-111.5" font-family="Helvetica,sans-Serif" font-size="10.00">PCF8523Sensor</text>
<polyline fill="none" stroke="black" points="361,-104.5 474,-104.5 "/>
<text text-anchor="middle" x="417.5" y="-92.5" font-family="Helvetica,sans-Serif" font-size="10.00"> </text>
<polyline fill="none" stroke="black" points="361,-85.5 474,-85.5 "/>
<text text-anchor="start" x="369" y="-73.5" font-family="Helvetica,sans-Serif" font-size="10.00">+ PCF8523Sensor()</text>
<text text-anchor="start" x="369" y="-62.5" font-family="Helvetica,sans-Serif" font-size="10.00">+ PCF8523Sensor()</text>
<text text-anchor="start" x="369" y="-51.5" font-family="Helvetica,sans-Serif" font-size="10.00">+ verify()</text>
<text text-anchor="start" x="369" y="-40.5" font-family="Helvetica,sans-Serif" font-size="10.00">+ decodeToCSV()</text>
<text text-anchor="start" x="369" y="-29.5" font-family="Helvetica,sans-Serif" font-size="10.00">+ readDataPacket()</text>
<text text-anchor="start" x="369" y="-18.5" font-family="Helvetica,sans-Serif" font-size="10.00">+ readData()</text>
<text text-anchor="start" x="369" y="-7.5" font-family="Helvetica,sans-Serif" font-size="10.00">+ calibrate()</text>
</a>
</g>
</g>
<!-- Node2 -->
<g id="node2" class="node">
<title>Node2</title>
<g id="a_node2"><a xlink:href="classSensor.html" target="_top" xlink:title="Parent class for sensor objects.">
<polygon fill="none" stroke="black" points="284,-171.5 284,-393.5 423,-393.5 423,-171.5 284,-171.5"/>
<text text-anchor="middle" x="353.5" y="-381.5" font-family="Helvetica,sans-Serif" font-size="10.00">Sensor</text>
<polyline fill="none" stroke="black" points="284,-374.5 423,-374.5 "/>
<text text-anchor="middle" x="353.5" y="-362.5" font-family="Helvetica,sans-Serif" font-size="10.00"> </text>
<polyline fill="none" stroke="black" points="284,-355.5 423,-355.5 "/>
<text text-anchor="start" x="292" y="-343.5" font-family="Helvetica,sans-Serif" font-size="10.00">+ Sensor()</text>
<text text-anchor="start" x="292" y="-332.5" font-family="Helvetica,sans-Serif" font-size="10.00">+ Sensor()</text>
<text text-anchor="start" x="292" y="-321.5" font-family="Helvetica,sans-Serif" font-size="10.00">+ Sensor()</text>
<text text-anchor="start" x="292" y="-310.5" font-family="Helvetica,sans-Serif" font-size="10.00">+ Sensor()</text>
<text text-anchor="start" x="292" y="-299.5" font-family="Helvetica,sans-Serif" font-size="10.00">+ getPeriod()</text>
<text text-anchor="start" x="292" y="-288.5" font-family="Helvetica,sans-Serif" font-size="10.00">+ setPeriod()</text>
<text text-anchor="start" x="292" y="-277.5" font-family="Helvetica,sans-Serif" font-size="10.00">+ getLastExecution()</text>
<text text-anchor="start" x="292" y="-266.5" font-family="Helvetica,sans-Serif" font-size="10.00">+ setLastExecution()</text>
<text text-anchor="start" x="292" y="-255.5" font-family="Helvetica,sans-Serif" font-size="10.00">+ getSensorCSVHeader()</text>
<text text-anchor="start" x="292" y="-244.5" font-family="Helvetica,sans-Serif" font-size="10.00">+ verify()</text>
<text text-anchor="start" x="292" y="-233.5" font-family="Helvetica,sans-Serif" font-size="10.00">+ readData()</text>
<text text-anchor="start" x="292" y="-222.5" font-family="Helvetica,sans-Serif" font-size="10.00">+ readDataPacket()</text>
<text text-anchor="start" x="292" y="-211.5" font-family="Helvetica,sans-Serif" font-size="10.00">+ decodeToCSV()</text>
<text text-anchor="start" x="292" y="-200.5" font-family="Helvetica,sans-Serif" font-size="10.00">+ getDataPacket()</text>
<text text-anchor="start" x="292" y="-189.5" font-family="Helvetica,sans-Serif" font-size="10.00">+ readEmpty()</text>
<text text-anchor="start" x="292" y="-178.5" font-family="Helvetica,sans-Serif" font-size="10.00">+ getDataCSV()</text>
</a>
</g>
</g>
<!-- Node2&#45;&gt;Node1 -->
<g id="edge1" class="edge">
<title>Node2&#45;&gt;Node1</title>
<path fill="none" stroke="midnightblue" d="M388.6,-161.67C392.46,-148.5 396.26,-135.53 399.77,-123.55"/>
<polygon fill="none" stroke="midnightblue" points="385.23,-160.71 385.78,-171.29 391.95,-162.68 385.23,-160.71"/>
</g>
<!-- Node3 -->
<g id="node3" class="node">
<title>Node3</title>
<g id="a_node3"><a xlink:href="classDevice.html" target="_top" xlink:title="Implements the recovery system for Sensor and Storage objects.">
<polygon fill="none" stroke="black" points="142,-431.5 142,-576.5 271,-576.5 271,-431.5 142,-431.5"/>
<text text-anchor="middle" x="206.5" y="-564.5" font-family="Helvetica,sans-Serif" font-size="10.00">Device</text>
<polyline fill="none" stroke="black" points="142,-557.5 271,-557.5 "/>
<text text-anchor="middle" x="206.5" y="-545.5" font-family="Helvetica,sans-Serif" font-size="10.00"> </text>
<polyline fill="none" stroke="black" points="142,-538.5 271,-538.5 "/>
<text text-anchor="start" x="150" y="-526.5" font-family="Helvetica,sans-Serif" font-size="10.00">+ Device()</text>
<text text-anchor="start" x="150" y="-515.5" font-family="Helvetica,sans-Serif" font-size="10.00">+ Device()</text>
<text text-anchor="start" x="150" y="-504.5" font-family="Helvetica,sans-Serif" font-size="10.00">+ getDeviceName()</text>
<text text-anchor="start" x="150" y="-493.5" font-family="Helvetica,sans-Serif" font-size="10.00">+ verify()</text>
<text text-anchor="start" x="150" y="-482.5" font-family="Helvetica,sans-Serif" font-size="10.00">+ getVerified()</text>
<text text-anchor="start" x="150" y="-471.5" font-family="Helvetica,sans-Serif" font-size="10.00">+ recoveryConfig()</text>
<text text-anchor="start" x="150" y="-460.5" font-family="Helvetica,sans-Serif" font-size="10.00">+ setWaitFactor()</text>
<text text-anchor="start" x="150" y="-449.5" font-family="Helvetica,sans-Serif" font-size="10.00">+ setMaxAttempts()</text>
<text text-anchor="start" x="150" y="-438.5" font-family="Helvetica,sans-Serif" font-size="10.00">+ attemptConnection()</text>
</a>
</g>
</g>
<!-- Node3&#45;&gt;Node2 -->
<g id="edge2" class="edge">
<title>Node3&#45;&gt;Node2</title>
<path fill="none" stroke="midnightblue" d="M260,-423.12C267.72,-411.58 275.77,-399.56 283.76,-387.64"/>
<polygon fill="none" stroke="midnightblue" points="257.09,-421.17 254.43,-431.43 262.9,-425.07 257.09,-421.17"/>
</g>
<!-- Node4 -->
<g id="node4" class="node">
<title>Node4</title>
<g id="a_node4"><a xlink:title=" ">
<polygon fill="none" stroke="#bfbfbf" points="0,-635.5 0,-692.5 45,-692.5 45,-635.5 0,-635.5"/>
<text text-anchor="middle" x="22.5" y="-680.5" font-family="Helvetica,sans-Serif" font-size="10.00">String</text>
<polyline fill="none" stroke="#bfbfbf" points="0,-673.5 45,-673.5 "/>
<text text-anchor="middle" x="22.5" y="-661.5" font-family="Helvetica,sans-Serif" font-size="10.00"> </text>
<polyline fill="none" stroke="#bfbfbf" points="0,-654.5 45,-654.5 "/>
<text text-anchor="middle" x="22.5" y="-642.5" font-family="Helvetica,sans-Serif" font-size="10.00"> </text>
</a>
</g>
</g>
<!-- Node4&#45;&gt;Node2 -->
<g id="edge7" class="edge">
<title>Node4&#45;&gt;Node2</title>
<path fill="none" stroke="#404040" d="M21.12,-635.26C20.23,-588.35 24.81,-492.47 71.5,-431 121.05,-365.76 207.8,-326.61 272.04,-305.22"/>
<polygon fill="none" stroke="#404040" points="272.34,-305.12 276.82,-299.47 283.76,-301.43 279.28,-307.08 272.34,-305.12"/>
<text text-anchor="middle" x="102" y="-507" font-family="Helvetica,sans-Serif" font-size="10.00"> &#45;empty_csv</text>
<text text-anchor="middle" x="102" y="-496" font-family="Helvetica,sans-Serif" font-size="10.00">&#45;csv_header</text>
</g>
<!-- Node4&#45;&gt;Node3 -->
<g id="edge3" class="edge">
<title>Node4&#45;&gt;Node3</title>
<path fill="none" stroke="#404040" d="M31.21,-635.29C36.4,-621.99 44.05,-606.49 54.5,-595 75.63,-571.77 104.17,-552.72 130.82,-538.23"/>
<polygon fill="none" stroke="#404040" points="131.08,-538.09 134.53,-531.76 141.7,-532.5 138.25,-538.84 131.08,-538.09"/>
<text text-anchor="middle" x="91" y="-603.5" font-family="Helvetica,sans-Serif" font-size="10.00"> &#45;device_name</text>
</g>
<!-- Node5 -->
<g id="node5" class="node">
<title>Node5</title>
<g id="a_node5"><a xlink:title=" ">
<polygon fill="none" stroke="#bfbfbf" points="269,-635.5 269,-692.5 354,-692.5 354,-635.5 269,-635.5"/>
<text text-anchor="middle" x="311.5" y="-680.5" font-family="Helvetica,sans-Serif" font-size="10.00">unsigned long</text>
<polyline fill="none" stroke="#bfbfbf" points="269,-673.5 354,-673.5 "/>
<text text-anchor="middle" x="311.5" y="-661.5" font-family="Helvetica,sans-Serif" font-size="10.00"> </text>
<polyline fill="none" stroke="#bfbfbf" points="269,-654.5 354,-654.5 "/>
<text text-anchor="middle" x="311.5" y="-642.5" font-family="Helvetica,sans-Serif" font-size="10.00"> </text>
</a>
</g>
</g>
<!-- Node5&#45;&gt;Node2 -->
<g id="edge8" class="edge">
<title>Node5&#45;&gt;Node2</title>
<path fill="none" stroke="#404040" d="M354.38,-640.08C371.29,-630.61 387.26,-620.92 389.5,-617 409.66,-581.71 397.13,-485.75 381.57,-405.78"/>
<polygon fill="none" stroke="#404040" points="381.49,-405.37 376.4,-400.26 379.15,-393.6 384.24,-398.71 381.49,-405.37"/>
<text text-anchor="middle" x="444.5" y="-507" font-family="Helvetica,sans-Serif" font-size="10.00"> &#45;last_execution</text>
<text text-anchor="middle" x="444.5" y="-496" font-family="Helvetica,sans-Serif" font-size="10.00">&#45;minimum_period</text>
</g>
<!-- Node5&#45;&gt;Node3 -->
<g id="edge4" class="edge">
<title>Node5&#45;&gt;Node3</title>
<path fill="none" stroke="#404040" d="M268.85,-655.54C246.57,-649.25 221.17,-637.79 207.5,-617 201.89,-608.48 198.55,-598.74 196.76,-588.65"/>
<polygon fill="none" stroke="#404040" points="196.76,-588.61 192.08,-583.12 195.35,-576.69 200.02,-582.18 196.76,-588.61"/>
<text text-anchor="middle" x="242.5" y="-609" font-family="Helvetica,sans-Serif" font-size="10.00"> &#45;last_attempt</text>
<text text-anchor="middle" x="242.5" y="-598" font-family="Helvetica,sans-Serif" font-size="10.00">&#45;wait_factor</text>
</g>
<!-- Node6 -->
<g id="node6" class="node">
<title>Node6</title>
<g id="a_node6"><a xlink:title=" ">
<polygon fill="none" stroke="#bfbfbf" points="377,-635.5 377,-692.5 406,-692.5 406,-635.5 377,-635.5"/>
<text text-anchor="middle" x="391.5" y="-680.5" font-family="Helvetica,sans-Serif" font-size="10.00">int</text>
<polyline fill="none" stroke="#bfbfbf" points="377,-673.5 406,-673.5 "/>
<text text-anchor="middle" x="391.5" y="-661.5" font-family="Helvetica,sans-Serif" font-size="10.00"> </text>
<polyline fill="none" stroke="#bfbfbf" points="377,-654.5 406,-654.5 "/>
<text text-anchor="middle" x="391.5" y="-642.5" font-family="Helvetica,sans-Serif" font-size="10.00"> </text>
</a>
</g>
</g>
<!-- Node6&#45;&gt;Node2 -->
<g id="edge9" class="edge">
<title>Node6&#45;&gt;Node2</title>
<path fill="none" stroke="#404040" d="M406.03,-656.26C429.95,-644.26 476.84,-616.64 495.5,-577 523.13,-518.29 527.93,-487.2 495.5,-431 480.68,-405.32 460.25,-413.9 432.37,-393.53"/>
<polygon fill="none" stroke="#404040" points="432.3,-393.47 425.13,-392.73 423.06,-385.82 430.23,-386.57 432.3,-393.47"/>
<text text-anchor="middle" x="550.5" y="-501.5" font-family="Helvetica,sans-Serif" font-size="10.00"> #num_fields</text>
</g>
<!-- Node6&#45;&gt;Node3 -->
<g id="edge5" class="edge">
<title>Node6&#45;&gt;Node3</title>
<path fill="none" stroke="#404040" d="M376.94,-648.54C372.39,-644.13 367.29,-639.3 362.5,-635 336.33,-611.51 306.86,-586.59 280.65,-564.92"/>
<polygon fill="none" stroke="#404040" points="280.41,-564.73 273.24,-564 271.15,-557.09 278.33,-557.82 280.41,-564.73"/>
<text text-anchor="middle" x="387" y="-609" font-family="Helvetica,sans-Serif" font-size="10.00"> &#45;attempt_number</text>
<text text-anchor="middle" x="387" y="-598" font-family="Helvetica,sans-Serif" font-size="10.00">&#45;max_attempts</text>
</g>
<!-- Node7 -->
<g id="node7" class="node">
<title>Node7</title>
<g id="a_node7"><a xlink:title=" ">
<polygon fill="none" stroke="#bfbfbf" points="115.5,-635.5 115.5,-692.5 153.5,-692.5 153.5,-635.5 115.5,-635.5"/>
<text text-anchor="middle" x="134.5" y="-680.5" font-family="Helvetica,sans-Serif" font-size="10.00">bool</text>
<polyline fill="none" stroke="#bfbfbf" points="115.5,-673.5 153.5,-673.5 "/>
<text text-anchor="middle" x="134.5" y="-661.5" font-family="Helvetica,sans-Serif" font-size="10.00"> </text>
<polyline fill="none" stroke="#bfbfbf" points="115.5,-654.5 153.5,-654.5 "/>
<text text-anchor="middle" x="134.5" y="-642.5" font-family="Helvetica,sans-Serif" font-size="10.00"> </text>
</a>
</g>
</g>
<!-- Node7&#45;&gt;Node3 -->
<g id="edge6" class="edge">
<title>Node7&#45;&gt;Node3</title>
<path fill="none" stroke="#404040" d="M130.94,-635.48C130.29,-622.82 130.96,-607.79 135.5,-595 136.41,-592.45 137.42,-589.91 138.52,-587.4"/>
<polygon fill="none" stroke="#404040" points="138.57,-587.3 137.64,-580.15 143.89,-576.54 144.81,-583.69 138.57,-587.3"/>
<text text-anchor="middle" x="160" y="-603.5" font-family="Helvetica,sans-Serif" font-size="10.00"> #verified</text>
</g>
<!-- Node8 -->
<g id="node8" class="node">
<title>Node8</title>
<g id="a_node8"><a xlink:title=" ">
<polygon fill="none" stroke="#bfbfbf" points="441,-254 441,-311 524,-311 524,-254 441,-254"/>
<text text-anchor="middle" x="482.5" y="-299" font-family="Helvetica,sans-Serif" font-size="10.00">RTC_PCF8523</text>
<polyline fill="none" stroke="#bfbfbf" points="441,-292 524,-292 "/>
<text text-anchor="middle" x="482.5" y="-280" font-family="Helvetica,sans-Serif" font-size="10.00"> </text>
<polyline fill="none" stroke="#bfbfbf" points="441,-273 524,-273 "/>
<text text-anchor="middle" x="482.5" y="-261" font-family="Helvetica,sans-Serif" font-size="10.00"> </text>
</a>
</g>
</g>
<!-- Node8&#45;&gt;Node1 -->
<g id="edge10" class="edge">
<title>Node8&#45;&gt;Node1</title>
<path fill="none" stroke="#404040" d="M474.27,-253.83C465.47,-224.25 451.16,-176.14 439.1,-135.62"/>
<polygon fill="none" stroke="#404040" points="439.03,-135.37 433.49,-130.76 435.61,-123.87 441.15,-128.48 439.03,-135.37"/>
<text text-anchor="middle" x="454.5" y="-145" font-family="Helvetica,sans-Serif" font-size="10.00"> &#45;rtc</text>
</g>
</g>
</svg>
