<?xml version="1.0" encoding="UTF-8" standalone="no"?>
<!DOCTYPE svg PUBLIC "-//W3C//DTD SVG 1.1//EN"
 "http://www.w3.org/Graphics/SVG/1.1/DTD/svg11.dtd">
<!-- Generated by graphviz version 2.43.0 (0)
 -->
<!-- Title: LSM9DS1Sensor Pages: 1 -->
<svg width="617pt" height="734pt"
 viewBox="0.00 0.00 617.00 734.00" xmlns="http://www.w3.org/2000/svg" xmlns:xlink="http://www.w3.org/1999/xlink">
<g id="graph0" class="graph" transform="scale(1 1) rotate(0) translate(4 730)">
<title>LSM9DS1Sensor</title>
<!-- Node1 -->
<g id="node1" class="node">
<title>Node1</title>
<g id="a_node1"><a xlink:title="Implementation of the Sensor class for the LSM9DS1 (9&#45;axis IMU)">
<polygon fill="#bfbfbf" stroke="black" points="403.5,-0.5 403.5,-134.5 517.5,-134.5 517.5,-0.5 403.5,-0.5"/>
<text text-anchor="middle" x="460.5" y="-122.5" font-family="Helvetica,sans-Serif" font-size="10.00">LSM9DS1Sensor</text>
<polyline fill="none" stroke="black" points="403.5,-115.5 517.5,-115.5 "/>
<text text-anchor="middle" x="460.5" y="-103.5" font-family="Helvetica,sans-Serif" font-size="10.00"> </text>
<polyline fill="none" stroke="black" points="403.5,-96.5 517.5,-96.5 "/>
<text text-anchor="start" x="411.5" y="-84.5" font-family="Helvetica,sans-Serif" font-size="10.00">+ LSM9DS1Sensor()</text>
<text text-anchor="start" x="411.5" y="-73.5" font-family="Helvetica,sans-Serif" font-size="10.00">+ LSM9DS1Sensor()</text>
<text text-anchor="start" x="411.5" y="-62.5" font-family="Helvetica,sans-Serif" font-size="10.00">+ verify()</text>
<text text-anchor="start" x="411.5" y="-51.5" font-family="Helvetica,sans-Serif" font-size="10.00">+ readData()</text>
<text text-anchor="start" x="411.5" y="-40.5" font-family="Helvetica,sans-Serif" font-size="10.00">+ calibrate()</text>
<text text-anchor="start" x="411.5" y="-29.5" font-family="Helvetica,sans-Serif" font-size="10.00">+ readDataPacket()</text>
<text text-anchor="start" x="411.5" y="-18.5" font-family="Helvetica,sans-Serif" font-size="10.00">+ decodeToCSV()</text>
<text text-anchor="start" x="411.5" y="-7.5" font-family="Helvetica,sans-Serif" font-size="10.00">&#45; setupSensor()</text>
</a>
</g>
</g>
<!-- Node2 -->
<g id="node2" class="node">
<title>Node2</title>
<g id="a_node2"><a xlink:href="classSensor.html" target="_top" xlink:title="Parent class for sensor objects.">
<polygon fill="none" stroke="black" points="284,-204.5 284,-426.5 423,-426.5 423,-204.5 284,-204.5"/>
<text text-anchor="middle" x="353.5" y="-414.5" font-family="Helvetica,sans-Serif" font-size="10.00">Sensor</text>
<polyline fill="none" stroke="black" points="284,-407.5 423,-407.5 "/>
<text text-anchor="middle" x="353.5" y="-395.5" font-family="Helvetica,sans-Serif" font-size="10.00"> </text>
<polyline fill="none" stroke="black" points="284,-388.5 423,-388.5 "/>
<text text-anchor="start" x="292" y="-376.5" font-family="Helvetica,sans-Serif" font-size="10.00">+ Sensor()</text>
<text text-anchor="start" x="292" y="-365.5" font-family="Helvetica,sans-Serif" font-size="10.00">+ Sensor()</text>
<text text-anchor="start" x="292" y="-354.5" font-family="Helvetica,sans-Serif" font-size="10.00">+ Sensor()</text>
<text text-anchor="start" x="292" y="-343.5" font-family="Helvetica,sans-Serif" font-size="10.00">+ Sensor()</text>
<text text-anchor="start" x="292" y="-332.5" font-family="Helvetica,sans-Serif" font-size="10.00">+ getPeriod()</text>
<text text-anchor="start" x="292" y="-321.5" font-family="Helvetica,sans-Serif" font-size="10.00">+ setPeriod()</text>
<text text-anchor="start" x="292" y="-310.5" font-family="Helvetica,sans-Serif" font-size="10.00">+ getLastExecution()</text>
<text text-anchor="start" x="292" y="-299.5" font-family="Helvetica,sans-Serif" font-size="10.00">+ setLastExecution()</text>
<text text-anchor="start" x="292" y="-288.5" font-family="Helvetica,sans-Serif" font-size="10.00">+ getSensorCSVHeader()</text>
<text text-anchor="start" x="292" y="-277.5" font-family="Helvetica,sans-Serif" font-size="10.00">+ verify()</text>
<text text-anchor="start" x="292" y="-266.5" font-family="Helvetica,sans-Serif" font-size="10.00">+ readData()</text>
<text text-anchor="start" x="292" y="-255.5" font-family="Helvetica,sans-Serif" font-size="10.00">+ readDataPacket()</text>
<text text-anchor="start" x="292" y="-244.5" font-family="Helvetica,sans-Serif" font-size="10.00">+ decodeToCSV()</text>
<text text-anchor="start" x="292" y="-233.5" font-family="Helvetica,sans-Serif" font-size="10.00">+ getDataPacket()</text>
<text text-anchor="start" x="292" y="-222.5" font-family="Helvetica,sans-Serif" font-size="10.00">+ readEmpty()</text>
<text text-anchor="start" x="292" y="-211.5" font-family="Helvetica,sans-Serif" font-size="10.00">+ getDataCSV()</text>
</a>
</g>
</g>
<!-- Node2&#45;&gt;Node1 -->
<g id="edge1" class="edge">
<title>Node2&#45;&gt;Node1</title>
<path fill="none" stroke="midnightblue" d="M405.38,-195.22C414.44,-174.4 423.56,-153.44 431.7,-134.72"/>
<polygon fill="none" stroke="midnightblue" points="402.15,-193.89 401.37,-204.45 408.56,-196.68 402.15,-193.89"/>
</g>
<!-- Node3 -->
<g id="node3" class="node">
<title>Node3</title>
<g id="a_node3"><a xlink:href="classDevice.html" target="_top" xlink:title="Implements the recovery system for Sensor and Storage objects.">
<polygon fill="none" stroke="black" points="142,-464.5 142,-609.5 271,-609.5 271,-464.5 142,-464.5"/>
<text text-anchor="middle" x="206.5" y="-597.5" font-family="Helvetica,sans-Serif" font-size="10.00">Device</text>
<polyline fill="none" stroke="black" points="142,-590.5 271,-590.5 "/>
<text text-anchor="middle" x="206.5" y="-578.5" font-family="Helvetica,sans-Serif" font-size="10.00"> </text>
<polyline fill="none" stroke="black" points="142,-571.5 271,-571.5 "/>
<text text-anchor="start" x="150" y="-559.5" font-family="Helvetica,sans-Serif" font-size="10.00">+ Device()</text>
<text text-anchor="start" x="150" y="-548.5" font-family="Helvetica,sans-Serif" font-size="10.00">+ Device()</text>
<text text-anchor="start" x="150" y="-537.5" font-family="Helvetica,sans-Serif" font-size="10.00">+ getDeviceName()</text>
<text text-anchor="start" x="150" y="-526.5" font-family="Helvetica,sans-Serif" font-size="10.00">+ verify()</text>
<text text-anchor="start" x="150" y="-515.5" font-family="Helvetica,sans-Serif" font-size="10.00">+ getVerified()</text>
<text text-anchor="start" x="150" y="-504.5" font-family="Helvetica,sans-Serif" font-size="10.00">+ recoveryConfig()</text>
<text text-anchor="start" x="150" y="-493.5" font-family="Helvetica,sans-Serif" font-size="10.00">+ setWaitFactor()</text>
<text text-anchor="start" x="150" y="-482.5" font-family="Helvetica,sans-Serif" font-size="10.00">+ setMaxAttempts()</text>
<text text-anchor="start" x="150" y="-471.5" font-family="Helvetica,sans-Serif" font-size="10.00">+ attemptConnection()</text>
</a>
</g>
</g>
<!-- Node3&#45;&gt;Node2 -->
<g id="edge2" class="edge">
<title>Node3&#45;&gt;Node2</title>
<path fill="none" stroke="midnightblue" d="M260,-456.12C267.72,-444.58 275.77,-432.56 283.76,-420.64"/>
<polygon fill="none" stroke="midnightblue" points="257.09,-454.17 254.43,-464.43 262.9,-458.07 257.09,-454.17"/>
</g>
<!-- Node4 -->
<g id="node4" class="node">
<title>Node4</title>
<g id="a_node4"><a xlink:title=" ">
<polygon fill="none" stroke="#bfbfbf" points="0,-668.5 0,-725.5 45,-725.5 45,-668.5 0,-668.5"/>
<text text-anchor="middle" x="22.5" y="-713.5" font-family="Helvetica,sans-Serif" font-size="10.00">String</text>
<polyline fill="none" stroke="#bfbfbf" points="0,-706.5 45,-706.5 "/>
<text text-anchor="middle" x="22.5" y="-694.5" font-family="Helvetica,sans-Serif" font-size="10.00"> </text>
<polyline fill="none" stroke="#bfbfbf" points="0,-687.5 45,-687.5 "/>
<text text-anchor="middle" x="22.5" y="-675.5" font-family="Helvetica,sans-Serif" font-size="10.00"> </text>
</a>
</g>
</g>
<!-- Node4&#45;&gt;Node2 -->
<g id="edge7" class="edge">
<title>Node4&#45;&gt;Node2</title>
<path fill="none" stroke="#404040" d="M21.12,-668.26C20.23,-621.35 24.81,-525.47 71.5,-464 121.05,-398.76 207.8,-359.61 272.04,-338.22"/>
<polygon fill="none" stroke="#404040" points="272.34,-338.12 276.82,-332.47 283.76,-334.43 279.28,-340.08 272.34,-338.12"/>
<text text-anchor="middle" x="102" y="-540" font-family="Helvetica,sans-Serif" font-size="10.00"> &#45;empty_csv</text>
<text text-anchor="middle" x="102" y="-529" font-family="Helvetica,sans-Serif" font-size="10.00">&#45;csv_header</text>
</g>
<!-- Node4&#45;&gt;Node3 -->
<g id="edge3" class="edge">
<title>Node4&#45;&gt;Node3</title>
<path fill="none" stroke="#404040" d="M31.21,-668.29C36.4,-654.99 44.05,-639.49 54.5,-628 75.63,-604.77 104.17,-585.72 130.82,-571.23"/>
<polygon fill="none" stroke="#404040" points="131.08,-571.09 134.53,-564.76 141.7,-565.5 138.25,-571.84 131.08,-571.09"/>
<text text-anchor="middle" x="91" y="-636.5" font-family="Helvetica,sans-Serif" font-size="10.00"> &#45;device_name</text>
</g>
<!-- Node5 -->
<g id="node5" class="node">
<title>Node5</title>
<g id="a_node5"><a xlink:title=" ">
<polygon fill="none" stroke="#bfbfbf" points="269,-668.5 269,-725.5 354,-725.5 354,-668.5 269,-668.5"/>
<text text-anchor="middle" x="311.5" y="-713.5" font-family="Helvetica,sans-Serif" font-size="10.00">unsigned long</text>
<polyline fill="none" stroke="#bfbfbf" points="269,-706.5 354,-706.5 "/>
<text text-anchor="middle" x="311.5" y="-694.5" font-family="Helvetica,sans-Serif" font-size="10.00"> </text>
<polyline fill="none" stroke="#bfbfbf" points="269,-687.5 354,-687.5 "/>
<text text-anchor="middle" x="311.5" y="-675.5" font-family="Helvetica,sans-Serif" font-size="10.00"> </text>
</a>
</g>
</g>
<!-- Node5&#45;&gt;Node2 -->
<g id="edge8" class="edge">
<title>Node5&#45;&gt;Node2</title>
<path fill="none" stroke="#404040" d="M354.38,-673.08C371.29,-663.61 387.26,-653.92 389.5,-650 409.66,-614.71 397.13,-518.75 381.57,-438.78"/>
<polygon fill="none" stroke="#404040" points="381.49,-438.37 376.4,-433.26 379.15,-426.6 384.24,-431.71 381.49,-438.37"/>
<text text-anchor="middle" x="444.5" y="-540" font-family="Helvetica,sans-Serif" font-size="10.00"> &#45;last_execution</text>
<text text-anchor="middle" x="444.5" y="-529" font-family="Helvetica,sans-Serif" font-size="10.00">&#45;minimum_period</text>
</g>
<!-- Node5&#45;&gt;Node3 -->
<g id="edge4" class="edge">
<title>Node5&#45;&gt;Node3</title>
<path fill="none" stroke="#404040" d="M268.85,-688.54C246.57,-682.25 221.17,-670.79 207.5,-650 201.89,-641.48 198.55,-631.74 196.76,-621.65"/>
<polygon fill="none" stroke="#404040" points="196.76,-621.61 192.08,-616.12 195.35,-609.69 200.02,-615.18 196.76,-621.61"/>
<text text-anchor="middle" x="242.5" y="-642" font-family="Helvetica,sans-Serif" font-size="10.00"> &#45;last_attempt</text>
<text text-anchor="middle" x="242.5" y="-631" font-family="Helvetica,sans-Serif" font-size="10.00">&#45;wait_factor</text>
</g>
<!-- Node6 -->
<g id="node6" class="node">
<title>Node6</title>
<g id="a_node6"><a xlink:title=" ">
<polygon fill="none" stroke="#bfbfbf" points="377,-668.5 377,-725.5 406,-725.5 406,-668.5 377,-668.5"/>
<text text-anchor="middle" x="391.5" y="-713.5" font-family="Helvetica,sans-Serif" font-size="10.00">int</text>
<polyline fill="none" stroke="#bfbfbf" points="377,-706.5 406,-706.5 "/>
<text text-anchor="middle" x="391.5" y="-694.5" font-family="Helvetica,sans-Serif" font-size="10.00"> </text>
<polyline fill="none" stroke="#bfbfbf" points="377,-687.5 406,-687.5 "/>
<text text-anchor="middle" x="391.5" y="-675.5" font-family="Helvetica,sans-Serif" font-size="10.00"> </text>
</a>
</g>
</g>
<!-- Node6&#45;&gt;Node2 -->
<g id="edge9" class="edge">
<title>Node6&#45;&gt;Node2</title>
<path fill="none" stroke="#404040" d="M406.03,-689.26C429.95,-677.26 476.84,-649.64 495.5,-610 523.13,-551.29 527.74,-520.32 495.5,-464 479.37,-435.82 456.47,-448.91 432.5,-427 432.2,-426.72 431.9,-426.45 431.6,-426.17"/>
<polygon fill="none" stroke="#404040" points="431.58,-426.15 424.49,-424.81 423.01,-417.75 430.09,-419.09 431.58,-426.15"/>
<text text-anchor="middle" x="550.5" y="-534.5" font-family="Helvetica,sans-Serif" font-size="10.00"> #num_fields</text>
</g>
<!-- Node6&#45;&gt;Node3 -->
<g id="edge5" class="edge">
<title>Node6&#45;&gt;Node3</title>
<path fill="none" stroke="#404040" d="M376.94,-681.54C372.39,-677.13 367.29,-672.3 362.5,-668 336.33,-644.51 306.86,-619.59 280.65,-597.92"/>
<polygon fill="none" stroke="#404040" points="280.41,-597.73 273.24,-597 271.15,-590.09 278.33,-590.82 280.41,-597.73"/>
<text text-anchor="middle" x="387" y="-642" font-family="Helvetica,sans-Serif" font-size="10.00"> &#45;attempt_number</text>
<text text-anchor="middle" x="387" y="-631" font-family="Helvetica,sans-Serif" font-size="10.00">&#45;max_attempts</text>
</g>
<!-- Node7 -->
<g id="node7" class="node">
<title>Node7</title>
<g id="a_node7"><a xlink:title=" ">
<polygon fill="none" stroke="#bfbfbf" points="115.5,-668.5 115.5,-725.5 153.5,-725.5 153.5,-668.5 115.5,-668.5"/>
<text text-anchor="middle" x="134.5" y="-713.5" font-family="Helvetica,sans-Serif" font-size="10.00">bool</text>
<polyline fill="none" stroke="#bfbfbf" points="115.5,-706.5 153.5,-706.5 "/>
<text text-anchor="middle" x="134.5" y="-694.5" font-family="Helvetica,sans-Serif" font-size="10.00"> </text>
<polyline fill="none" stroke="#bfbfbf" points="115.5,-687.5 153.5,-687.5 "/>
<text text-anchor="middle" x="134.5" y="-675.5" font-family="Helvetica,sans-Serif" font-size="10.00"> </text>
</a>
</g>
</g>
<!-- Node7&#45;&gt;Node3 -->
<g id="edge6" class="edge">
<title>Node7&#45;&gt;Node3</title>
<path fill="none" stroke="#404040" d="M130.94,-668.48C130.29,-655.82 130.96,-640.79 135.5,-628 136.41,-625.45 137.42,-622.91 138.52,-620.4"/>
<polygon fill="none" stroke="#404040" points="138.57,-620.3 137.64,-613.15 143.89,-609.54 144.81,-616.69 138.57,-620.3"/>
<text text-anchor="middle" x="160" y="-636.5" font-family="Helvetica,sans-Serif" font-size="10.00"> #verified</text>
</g>
<!-- Node8 -->
<g id="node8" class="node">
<title>Node8</title>
<g id="a_node8"><a xlink:title=" ">
<polygon fill="none" stroke="#bfbfbf" points="441,-287 441,-344 480,-344 480,-287 441,-287"/>
<text text-anchor="middle" x="460.5" y="-332" font-family="Helvetica,sans-Serif" font-size="10.00">float</text>
<polyline fill="none" stroke="#bfbfbf" points="441,-325 480,-325 "/>
<text text-anchor="middle" x="460.5" y="-313" font-family="Helvetica,sans-Serif" font-size="10.00"> </text>
<polyline fill="none" stroke="#bfbfbf" points="441,-306 480,-306 "/>
<text text-anchor="middle" x="460.5" y="-294" font-family="Helvetica,sans-Serif" font-size="10.00"> </text>
</a>
</g>
</g>
<!-- Node8&#45;&gt;Node1 -->
<g id="edge10" class="edge">
<title>Node8&#45;&gt;Node1</title>
<path fill="none" stroke="#404040" d="M460.5,-286.76C460.5,-253.06 460.5,-194.79 460.5,-146.93"/>
<polygon fill="none" stroke="#404040" points="460.5,-146.69 456.5,-140.69 460.5,-134.69 464.5,-140.69 460.5,-146.69"/>
<text text-anchor="middle" x="496.5" y="-178" font-family="Helvetica,sans-Serif" font-size="10.00"> &#45;accel_offsets</text>
<text text-anchor="middle" x="496.5" y="-167" font-family="Helvetica,sans-Serif" font-size="10.00">&#45;mag_offsets</text>
<text text-anchor="middle" x="496.5" y="-156" font-family="Helvetica,sans-Serif" font-size="10.00">&#45;gyro_offsets</text>
</g>
<!-- Node9 -->
<g id="node9" class="node">
<title>Node9</title>
<g id="a_node9"><a xlink:title=" ">
<polygon fill="none" stroke="#bfbfbf" points="502,-287 502,-344 609,-344 609,-287 502,-287"/>
<text text-anchor="middle" x="555.5" y="-332" font-family="Helvetica,sans-Serif" font-size="10.00">Adafruit_LSM9DS1</text>
<polyline fill="none" stroke="#bfbfbf" points="502,-325 609,-325 "/>
<text text-anchor="middle" x="555.5" y="-313" font-family="Helvetica,sans-Serif" font-size="10.00"> </text>
<polyline fill="none" stroke="#bfbfbf" points="502,-306 609,-306 "/>
<text text-anchor="middle" x="555.5" y="-294" font-family="Helvetica,sans-Serif" font-size="10.00"> </text>
</a>
</g>
</g>
<!-- Node9&#45;&gt;Node1 -->
<g id="edge11" class="edge">
<title>Node9&#45;&gt;Node1</title>
<path fill="none" stroke="#404040" d="M556.42,-286.91C556.5,-253.68 553.29,-196.85 533.5,-153 530.97,-147.4 527.95,-141.89 524.6,-136.54"/>
<polygon fill="none" stroke="#404040" points="524.5,-136.4 517.83,-133.66 517.79,-126.45 524.46,-129.19 524.5,-136.4"/>
<text text-anchor="middle" x="556" y="-167" font-family="Helvetica,sans-Serif" font-size="10.00"> &#45;lsm</text>
</g>
</g>
</svg>
