<?xml version="1.0" encoding="UTF-8" standalone="no"?>
<!DOCTYPE svg PUBLIC "-//W3C//DTD SVG 1.1//EN"
 "http://www.w3.org/Graphics/SVG/1.1/DTD/svg11.dtd">
<!-- Generated by graphviz version 2.43.0 (0)
 -->
<!-- Title: TMP117Sensor::getTempC Pages: 1 -->
<svg width="357pt" height="64pt"
 viewBox="0.00 0.00 357.00 64.00" xmlns="http://www.w3.org/2000/svg" xmlns:xlink="http://www.w3.org/1999/xlink">
<g id="graph0" class="graph" transform="scale(1 1) rotate(0) translate(4 60)">
<title>TMP117Sensor::getTempC</title>
<!-- Node1 -->
<g id="Node000001" class="node">
<title>Node1</title>
<g id="a_Node000001"><a xlink:title="Getter for tempC.">
<polygon fill="#999999" stroke="#666666" points="349,-37 206,-37 206,-18 349,-18 349,-37"/>
<text text-anchor="middle" x="277.5" y="-25" font-family="Helvetica,sans-Serif" font-size="10.00">TMP117Sensor::getTempC</text>
</a>
</g>
</g>
<!-- Node2 -->
<g id="Node000002" class="node">
<title>Node2</title>
<g id="a_Node000002"><a xlink:href="classENS160Sensor.html#aac8ea849d26c4a6a567924805d378990" target="_top" xlink:title="Reads Air Quality Index, TVOC (ppb), and ECOS (ppm)">
<polygon fill="white" stroke="#666666" points="154,-56 16,-56 16,-37 154,-37 154,-56"/>
<text text-anchor="middle" x="85" y="-44" font-family="Helvetica,sans-Serif" font-size="10.00">ENS160Sensor::readData</text>
</a>
</g>
</g>
<!-- Node1&#45;&gt;Node2 -->
<g id="edge1_Node000001_Node000002" class="edge">
<title>Node1&#45;&gt;Node2</title>
<g id="a_edge1_Node000001_Node000002"><a xlink:title=" ">
<path fill="none" stroke="#63b8ff" d="M195.8,-35.55C181.89,-36.94 167.55,-38.37 154.02,-39.72"/>
<polygon fill="#63b8ff" stroke="#63b8ff" points="196.23,-39.02 205.84,-34.55 195.54,-32.06 196.23,-39.02"/>
</a>
</g>
</g>
<!-- Node3 -->
<g id="Node000003" class="node">
<title>Node3</title>
<g id="a_Node000003"><a xlink:href="classENS160Sensor.html#a967adb086f27d1ce5ea911bcd6d4f948" target="_top" xlink:title="Used for creating packets, reads data from the sensor and appends it to the passed uint8_t array poin...">
<polygon fill="white" stroke="#666666" points="170,-19 0,-19 0,0 170,0 170,-19"/>
<text text-anchor="middle" x="85" y="-7" font-family="Helvetica,sans-Serif" font-size="10.00">ENS160Sensor::readDataPacket</text>
</a>
</g>
</g>
<!-- Node1&#45;&gt;Node3 -->
<g id="edge2_Node000001_Node000003" class="edge">
<title>Node1&#45;&gt;Node3</title>
<g id="a_edge2_Node000001_Node000003"><a xlink:title=" ">
<path fill="none" stroke="#63b8ff" d="M195.62,-19.86C187.17,-19.06 178.56,-18.25 170.08,-17.44"/>
<polygon fill="#63b8ff" stroke="#63b8ff" points="195.55,-23.37 205.84,-20.82 196.21,-16.4 195.55,-23.37"/>
</a>
</g>
</g>
</g>
</svg>
