<?xml version="1.0" encoding="UTF-8" standalone="no"?>
<!DOCTYPE svg PUBLIC "-//W3C//DTD SVG 1.1//EN"
 "http://www.w3.org/Graphics/SVG/1.1/DTD/svg11.dtd">
<!-- Generated by graphviz version 2.43.0 (0)
 -->
<!-- Title: ErrorDisplay::addCode Pages: 1 -->
<svg width="404pt" height="122pt"
 viewBox="0.00 0.00 404.00 122.00" xmlns="http://www.w3.org/2000/svg" xmlns:xlink="http://www.w3.org/1999/xlink">

<svg id="main" version="1.1" xmlns="http://www.w3.org/2000/svg" xmlns:xlink="http://www.w3.org/1999/xlink" xml:space="preserve" onload="init(evt)">
<style type="text/css"><![CDATA[
.node, .edge {opacity: 0.7;}
.node.selected, .edge.selected {opacity: 1;}
.edge:hover path { stroke: red; }
.edge:hover polygon { stroke: red; fill: red; }
]]></style>
<script type="application/ecmascript" xlink:href="svg.min.js"/>
<svg id="graph" class="graph">
<g id="graph0" class="graph" transform="scale(1 1) rotate(0) translate(4 118)">
<title>ErrorDisplay::addCode</title>
<!-- Node1 -->
<g id="Node000001" class="node">
<title>Node1</title>
<g id="a_Node000001"><a xlink:title="Sets the error code to the given value if the given error is of a higher priority then the current er...">
<polygon fill="#999999" stroke="#666666" points="396,-57 271,-57 271,-38 396,-38 396,-57"/>
<text text-anchor="middle" x="333.5" y="-45" font-family="Helvetica,sans-Serif" font-size="10.00">ErrorDisplay::addCode</text>
</a>
</g>
</g>
<!-- Node2 -->
<g id="Node000002" class="node">
<title>Node2</title>
<g id="a_Node000002"><a xlink:href="main_8cpp.html#a4fc01d736fe50cf5b977f755b675f11d" target="_top" xlink:title="Setup for core 0.">
<polygon fill="white" stroke="#666666" points="206.5,-114 162.5,-114 162.5,-95 206.5,-95 206.5,-114"/>
<text text-anchor="middle" x="184.5" y="-102" font-family="Helvetica,sans-Serif" font-size="10.00">setup</text>
</a>
</g>
</g>
<!-- Node1&#45;&gt;Node2 -->
<g id="edge1_Node000001_Node000002" class="edge">
<title>Node1&#45;&gt;Node2</title>
<g id="a_edge1_Node000001_Node000002"><a xlink:title=" ">
<path fill="none" stroke="#63b8ff" d="M298.4,-60.72C270.14,-71.68 230.83,-86.92 206.84,-96.23"/>
<polygon fill="#63b8ff" stroke="#63b8ff" points="299.84,-63.92 307.9,-57.04 297.31,-57.39 299.84,-63.92"/>
</a>
</g>
</g>
<!-- Node3 -->
<g id="Node000003" class="node">
<title>Node3</title>
<g id="a_Node000003"><a xlink:href="classSDStorage.html#a9450318396c536da92d44d9ebad33ec1" target="_top" xlink:title="Store data on the SD card, ending with newline.">
<polygon fill="white" stroke="#666666" points="98,-56 0,-56 0,-37 98,-37 98,-56"/>
<text text-anchor="middle" x="49" y="-44" font-family="Helvetica,sans-Serif" font-size="10.00">SDStorage::store</text>
</a>
</g>
</g>
<!-- Node1&#45;&gt;Node3 -->
<g id="edge2_Node000001_Node000003" class="edge">
<title>Node1&#45;&gt;Node3</title>
<g id="a_edge2_Node000001_Node000003"><a xlink:title=" ">
<path fill="none" stroke="#63b8ff" d="M260.43,-47.71C222.76,-47.76 175.89,-47.75 134,-47.5 122.48,-47.43 110.07,-47.31 98.42,-47.17"/>
<polygon fill="#63b8ff" stroke="#63b8ff" points="260.81,-51.21 270.8,-47.69 260.8,-44.21 260.81,-51.21"/>
</a>
</g>
</g>
<!-- Node4 -->
<g id="Node000004" class="node">
<title>Node4</title>
<g id="a_Node000004"><a xlink:href="classSDStorage.html#ab8111600087beeaf8519cfd3248d4426" target="_top" xlink:title="Store data on the SD card.">
<polygon fill="white" stroke="#666666" points="98,-19 0,-19 0,0 98,0 98,-19"/>
<text text-anchor="middle" x="49" y="-7" font-family="Helvetica,sans-Serif" font-size="10.00">SDStorage::store</text>
</a>
</g>
</g>
<!-- Node1&#45;&gt;Node4 -->
<g id="edge3_Node000001_Node000004" class="edge">
<title>Node1&#45;&gt;Node4</title>
<g id="a_edge3_Node000001_Node000004"><a xlink:title=" ">
<path fill="none" stroke="#63b8ff" d="M304.78,-33.5C285.7,-24.67 259.48,-14.1 235,-9.5 189.23,-0.9 135.96,-2.04 98.37,-4.65"/>
<polygon fill="#63b8ff" stroke="#63b8ff" points="303.53,-36.78 314.06,-37.92 306.54,-30.46 303.53,-36.78"/>
</a>
</g>
</g>
<!-- Node5 -->
<g id="Node000005" class="node">
<title>Node5</title>
<g id="a_Node000005"><a xlink:href="classSDStorage.html#a2a08793ce2cb22bc0675f5cf4916155a" target="_top" xlink:title="Verify SD card connection and create a new, unique file.">
<polygon fill="white" stroke="#666666" points="235,-38 134,-38 134,-19 235,-19 235,-38"/>
<text text-anchor="middle" x="184.5" y="-26" font-family="Helvetica,sans-Serif" font-size="10.00">SDStorage::verify</text>
</a>
</g>
</g>
<!-- Node1&#45;&gt;Node5 -->
<g id="edge4_Node000001_Node000005" class="edge">
<title>Node1&#45;&gt;Node5</title>
<g id="a_edge4_Node000001_Node000005"><a xlink:title=" ">
<path fill="none" stroke="#63b8ff" d="M260.59,-38.2C252.03,-37.1 243.45,-35.99 235.3,-34.94"/>
<polygon fill="#63b8ff" stroke="#63b8ff" points="260.22,-41.69 270.58,-39.5 261.12,-34.74 260.22,-41.69"/>
</a>
</g>
</g>
<!-- Node5&#45;&gt;Node3 -->
<g id="edge5_Node000005_Node000003" class="edge">
<title>Node5&#45;&gt;Node3</title>
<g id="a_edge5_Node000005_Node000003"><a xlink:title=" ">
<path fill="none" stroke="#63b8ff" d="M123.61,-36.57C115.18,-37.71 106.6,-38.87 98.42,-39.97"/>
<polygon fill="#63b8ff" stroke="#63b8ff" points="124.35,-40.01 133.79,-35.2 123.41,-33.07 124.35,-40.01"/>
</a>
</g>
</g>
<!-- Node5&#45;&gt;Node4 -->
<g id="edge6_Node000005_Node000004" class="edge">
<title>Node5&#45;&gt;Node4</title>
<g id="a_edge6_Node000005_Node000004"><a xlink:title=" ">
<path fill="none" stroke="#63b8ff" d="M123.61,-19.98C115.18,-18.78 106.6,-17.56 98.42,-16.39"/>
<polygon fill="#63b8ff" stroke="#63b8ff" points="123.4,-23.48 133.79,-21.43 124.38,-16.55 123.4,-23.48"/>
</a>
</g>
</g>
</g>
</svg>
</svg>

<style type='text/css'>
<![CDATA[
[data-mouse-over-selected='false'] { opacity: 0.7; }
[data-mouse-over-selected='true']  { opacity: 1.0; }
]]>
</style>
<script type="application/ecmascript"><![CDATA[
document.addEventListener('DOMContentLoaded', (event) => {
  highlightEdges();
  highlightAdjacentNodes();
});
]]></script>
</svg>
