<?xml version="1.0" encoding="UTF-8" standalone="no"?>
<!DOCTYPE svg PUBLIC "-//W3C//DTD SVG 1.1//EN"
 "http://www.w3.org/Graphics/SVG/1.1/DTD/svg11.dtd">
<!-- Generated by graphviz version 2.43.0 (0)
 -->
<!-- Title: FlashStorage Pages: 1 -->
<svg width="733pt" height="745pt"
 viewBox="0.00 0.00 732.50 745.00" xmlns="http://www.w3.org/2000/svg" xmlns:xlink="http://www.w3.org/1999/xlink">
<g id="graph0" class="graph" transform="scale(1 1) rotate(0) translate(4 741)">
<title>FlashStorage</title>
<!-- Node1 -->
<g id="Node000001" class="node">
<title>Node1</title>
<g id="a_Node000001"><a xlink:title=" ">
<polygon fill="#999999" stroke="transparent" points="506.5,-229 400.5,-229 400.5,0 506.5,0 506.5,-229"/>
<text text-anchor="start" x="421.5" y="-216.5" font-family="Helvetica,sans-Serif" font-size="10.00">FlashStorage</text>
<text text-anchor="start" x="451.5" y="-201.5" font-family="Helvetica,sans-Serif" font-size="10.00"> </text>
<text text-anchor="start" x="404.5" y="-186.5" font-family="Helvetica,sans-Serif" font-size="10.00">+</text>
<text text-anchor="start" x="417.5" y="-186.5" font-family="Helvetica,sans-Serif" font-size="10.00">FlashStorage()</text>
<text text-anchor="start" x="404.5" y="-171.5" font-family="Helvetica,sans-Serif" font-size="10.00">+</text>
<text text-anchor="start" x="417.5" y="-171.5" font-family="Helvetica,sans-Serif" font-size="10.00">verify()</text>
<text text-anchor="start" x="404.5" y="-156.5" font-family="Helvetica,sans-Serif" font-size="10.00">+</text>
<text text-anchor="start" x="417.5" y="-156.5" font-family="Helvetica,sans-Serif" font-size="10.00">store()</text>
<text text-anchor="start" x="404.5" y="-141.5" font-family="Helvetica,sans-Serif" font-size="10.00">+</text>
<text text-anchor="start" x="417.5" y="-141.5" font-family="Helvetica,sans-Serif" font-size="10.00">storePacket()</text>
<text text-anchor="start" x="404.5" y="-126.5" font-family="Helvetica,sans-Serif" font-size="10.00">+</text>
<text text-anchor="start" x="417.5" y="-126.5" font-family="Helvetica,sans-Serif" font-size="10.00">dump()</text>
<text text-anchor="start" x="404.5" y="-111.5" font-family="Helvetica,sans-Serif" font-size="10.00">+</text>
<text text-anchor="start" x="417.5" y="-111.5" font-family="Helvetica,sans-Serif" font-size="10.00">erase()</text>
<text text-anchor="start" x="404.5" y="-96.5" font-family="Helvetica,sans-Serif" font-size="10.00">+</text>
<text text-anchor="start" x="417.5" y="-96.5" font-family="Helvetica,sans-Serif" font-size="10.00">downloadFile()</text>
<text text-anchor="start" x="404.5" y="-81.5" font-family="Helvetica,sans-Serif" font-size="10.00">+</text>
<text text-anchor="start" x="417.5" y="-81.5" font-family="Helvetica,sans-Serif" font-size="10.00">getStatus()</text>
<text text-anchor="start" x="407" y="-66.5" font-family="Helvetica,sans-Serif" font-size="10.00">&#45;</text>
<text text-anchor="start" x="417.5" y="-66.5" font-family="Helvetica,sans-Serif" font-size="10.00">indexFlash()</text>
<text text-anchor="start" x="407" y="-51.5" font-family="Helvetica,sans-Serif" font-size="10.00">&#45;</text>
<text text-anchor="start" x="417.5" y="-51.5" font-family="Helvetica,sans-Serif" font-size="10.00">loadAddress()</text>
<text text-anchor="start" x="407" y="-36.5" font-family="Helvetica,sans-Serif" font-size="10.00">&#45;</text>
<text text-anchor="start" x="417.5" y="-36.5" font-family="Helvetica,sans-Serif" font-size="10.00">isSectorEmpty()</text>
<text text-anchor="start" x="407" y="-21.5" font-family="Helvetica,sans-Serif" font-size="10.00">&#45;</text>
<text text-anchor="start" x="417.5" y="-21.5" font-family="Helvetica,sans-Serif" font-size="10.00">readFileHeader()</text>
<text text-anchor="start" x="407" y="-6.5" font-family="Helvetica,sans-Serif" font-size="10.00">&#45;</text>
<text text-anchor="start" x="417.5" y="-6.5" font-family="Helvetica,sans-Serif" font-size="10.00">writeFileHeader()</text>
<polygon fill="#666666" stroke="#666666" points="400.5,-211.5 400.5,-211.5 506.5,-211.5 506.5,-211.5 400.5,-211.5"/>
<polygon fill="#666666" stroke="#666666" points="400.5,-196.5 400.5,-196.5 506.5,-196.5 506.5,-196.5 400.5,-196.5"/>
<polygon fill="none" stroke="#666666" points="400.5,0 400.5,-229 506.5,-229 506.5,0 400.5,0"/>
</a>
</g>
</g>
<!-- Node2 -->
<g id="Node000002" class="node">
<title>Node2</title>
<g id="a_Node000002"><a xlink:href="classStorage.html" target="_top" xlink:title="Parent class for all data storage devices (sd card, radio, etc)">
<polygon fill="white" stroke="transparent" points="354,-414 269,-414 269,-320 354,-320 354,-414"/>
<text text-anchor="start" x="293" y="-402" font-family="Helvetica,sans-Serif" font-size="10.00">Storage</text>
<text text-anchor="start" x="310" y="-387" font-family="Helvetica,sans-Serif" font-size="10.00"> </text>
<text text-anchor="start" x="273.5" y="-372" font-family="Helvetica,sans-Serif" font-size="10.00">+</text>
<text text-anchor="start" x="286.5" y="-372" font-family="Helvetica,sans-Serif" font-size="10.00">Storage()</text>
<text text-anchor="start" x="273.5" y="-357" font-family="Helvetica,sans-Serif" font-size="10.00">+</text>
<text text-anchor="start" x="286.5" y="-357" font-family="Helvetica,sans-Serif" font-size="10.00">verify()</text>
<text text-anchor="start" x="273.5" y="-342" font-family="Helvetica,sans-Serif" font-size="10.00">+</text>
<text text-anchor="start" x="286.5" y="-342" font-family="Helvetica,sans-Serif" font-size="10.00">store()</text>
<text text-anchor="start" x="273.5" y="-327" font-family="Helvetica,sans-Serif" font-size="10.00">+</text>
<text text-anchor="start" x="286.5" y="-327" font-family="Helvetica,sans-Serif" font-size="10.00">storePacket()</text>
<polygon fill="#666666" stroke="#666666" points="269.5,-397 269.5,-397 354.5,-397 354.5,-397 269.5,-397"/>
<polygon fill="#666666" stroke="#666666" points="269.5,-382 269.5,-382 354.5,-382 354.5,-382 269.5,-382"/>
<polygon fill="none" stroke="#666666" points="269,-320 269,-414 354,-414 354,-320 269,-320"/>
</a>
</g>
</g>
<!-- Node2&#45;&gt;Node1 -->
<g id="edge1_Node000001_Node000002" class="edge">
<title>Node2&#45;&gt;Node1</title>
<g id="a_edge1_Node000001_Node000002"><a xlink:title=" ">
<path fill="none" stroke="#63b8ff" d="M342.8,-310.78C359.69,-280.99 380.99,-243.42 400.38,-209.2"/>
<polygon fill="none" stroke="#63b8ff" points="339.6,-309.34 337.71,-319.76 345.69,-312.79 339.6,-309.34"/>
</a>
</g>
</g>
<!-- Node3 -->
<g id="Node000003" class="node">
<title>Node3</title>
<g id="a_Node000003"><a xlink:href="classDevice.html" target="_top" xlink:title="Implements the recovery system for Sensor and Storage objects.">
<polygon fill="white" stroke="transparent" points="306,-630 183,-630 183,-461 306,-461 306,-630"/>
<text text-anchor="start" x="228" y="-617.5" font-family="Helvetica,sans-Serif" font-size="10.00">Device</text>
<text text-anchor="start" x="243" y="-602.5" font-family="Helvetica,sans-Serif" font-size="10.00"> </text>
<text text-anchor="start" x="187.5" y="-587.5" font-family="Helvetica,sans-Serif" font-size="10.00">+</text>
<text text-anchor="start" x="200.5" y="-587.5" font-family="Helvetica,sans-Serif" font-size="10.00">Device()</text>
<text text-anchor="start" x="187.5" y="-572.5" font-family="Helvetica,sans-Serif" font-size="10.00">+</text>
<text text-anchor="start" x="200.5" y="-572.5" font-family="Helvetica,sans-Serif" font-size="10.00">Device()</text>
<text text-anchor="start" x="187.5" y="-557.5" font-family="Helvetica,sans-Serif" font-size="10.00">+</text>
<text text-anchor="start" x="200.5" y="-557.5" font-family="Helvetica,sans-Serif" font-size="10.00">getDeviceName()</text>
<text text-anchor="start" x="187.5" y="-542.5" font-family="Helvetica,sans-Serif" font-size="10.00">+</text>
<text text-anchor="start" x="200.5" y="-542.5" font-family="Helvetica,sans-Serif" font-size="10.00">verify()</text>
<text text-anchor="start" x="187.5" y="-527.5" font-family="Helvetica,sans-Serif" font-size="10.00">+</text>
<text text-anchor="start" x="200.5" y="-527.5" font-family="Helvetica,sans-Serif" font-size="10.00">getVerified()</text>
<text text-anchor="start" x="187.5" y="-512.5" font-family="Helvetica,sans-Serif" font-size="10.00">+</text>
<text text-anchor="start" x="200.5" y="-512.5" font-family="Helvetica,sans-Serif" font-size="10.00">recoveryConfig()</text>
<text text-anchor="start" x="187.5" y="-497.5" font-family="Helvetica,sans-Serif" font-size="10.00">+</text>
<text text-anchor="start" x="200.5" y="-497.5" font-family="Helvetica,sans-Serif" font-size="10.00">setWaitFactor()</text>
<text text-anchor="start" x="187.5" y="-482.5" font-family="Helvetica,sans-Serif" font-size="10.00">+</text>
<text text-anchor="start" x="200.5" y="-482.5" font-family="Helvetica,sans-Serif" font-size="10.00">setMaxAttempts()</text>
<text text-anchor="start" x="187.5" y="-467.5" font-family="Helvetica,sans-Serif" font-size="10.00">+</text>
<text text-anchor="start" x="200.5" y="-467.5" font-family="Helvetica,sans-Serif" font-size="10.00">attemptConnection()</text>
<polygon fill="#666666" stroke="#666666" points="183.5,-612.5 183.5,-612.5 306.5,-612.5 306.5,-612.5 183.5,-612.5"/>
<polygon fill="#666666" stroke="#666666" points="183.5,-597.5 183.5,-597.5 306.5,-597.5 306.5,-597.5 183.5,-597.5"/>
<polygon fill="none" stroke="#666666" points="183,-461 183,-630 306,-630 306,-461 183,-461"/>
</a>
</g>
</g>
<!-- Node3&#45;&gt;Node2 -->
<g id="edge2_Node000002_Node000003" class="edge">
<title>Node3&#45;&gt;Node2</title>
<g id="a_edge2_Node000002_Node000003"><a xlink:title=" ">
<path fill="none" stroke="#63b8ff" d="M279.8,-451.5C284.7,-438.59 289.55,-425.82 293.93,-414.3"/>
<polygon fill="none" stroke="#63b8ff" points="276.51,-450.31 276.23,-460.9 283.06,-452.79 276.51,-450.31"/>
</a>
</g>
</g>
<!-- Node4 -->
<g id="Node000004" class="node">
<title>Node4</title>
<g id="a_Node000004"><a xlink:title=" ">
<polygon fill="white" stroke="transparent" points="79,-737 0,-737 0,-688 79,-688 79,-737"/>
<text text-anchor="start" x="5.5" y="-724.5" font-family="Helvetica,sans-Serif" font-size="10.00">unsigned long</text>
<text text-anchor="start" x="38" y="-709.5" font-family="Helvetica,sans-Serif" font-size="10.00"> </text>
<text text-anchor="start" x="38" y="-694.5" font-family="Helvetica,sans-Serif" font-size="10.00"> </text>
<polygon fill="#666666" stroke="#666666" points="0.5,-719.5 0.5,-719.5 79.5,-719.5 79.5,-719.5 0.5,-719.5"/>
<polygon fill="#666666" stroke="#666666" points="0.5,-704.5 0.5,-704.5 79.5,-704.5 79.5,-704.5 0.5,-704.5"/>
<polygon fill="none" stroke="#666666" points="0,-688 0,-737 79,-737 79,-688 0,-688"/>
</a>
</g>
</g>
<!-- Node4&#45;&gt;Node3 -->
<g id="edge3_Node000003_Node000004" class="edge">
<title>Node4&#45;&gt;Node3</title>
<g id="a_edge3_Node000003_Node000004"><a xlink:title=" ">
<path fill="none" stroke="#63b8ff" d="M46.39,-687.75C51.04,-674.86 58.23,-659.3 68.5,-648 96.77,-616.92 136.83,-592.79 171.59,-575.87"/>
<polygon fill="none" stroke="#63b8ff" points="171.83,-575.76 175.54,-569.58 182.67,-570.63 178.96,-576.81 171.83,-575.76"/>
</a>
</g>
<text text-anchor="middle" x="103.5" y="-662" font-family="Helvetica,sans-Serif" font-size="10.00" fill="grey"> &#45;last_attempt</text>
<text text-anchor="middle" x="103.5" y="-651" font-family="Helvetica,sans-Serif" font-size="10.00" fill="grey">&#45;wait_factor</text>
</g>
<!-- Node5 -->
<g id="Node000005" class="node">
<title>Node5</title>
<g id="a_Node000005"><a xlink:title=" ">
<polygon fill="white" stroke="transparent" points="144,-737 121,-737 121,-688 144,-688 144,-737"/>
<text text-anchor="start" x="126.5" y="-724.5" font-family="Helvetica,sans-Serif" font-size="10.00">int</text>
<text text-anchor="start" x="131" y="-709.5" font-family="Helvetica,sans-Serif" font-size="10.00"> </text>
<text text-anchor="start" x="131" y="-694.5" font-family="Helvetica,sans-Serif" font-size="10.00"> </text>
<polygon fill="#666666" stroke="#666666" points="121.5,-719.5 121.5,-719.5 144.5,-719.5 144.5,-719.5 121.5,-719.5"/>
<polygon fill="#666666" stroke="#666666" points="121.5,-704.5 121.5,-704.5 144.5,-704.5 144.5,-704.5 121.5,-704.5"/>
<polygon fill="none" stroke="#666666" points="121,-688 121,-737 144,-737 144,-688 121,-688"/>
</a>
</g>
</g>
<!-- Node5&#45;&gt;Node3 -->
<g id="edge4_Node000003_Node000005" class="edge">
<title>Node5&#45;&gt;Node3</title>
<g id="a_edge4_Node000003_Node000005"><a xlink:title=" ">
<path fill="none" stroke="#63b8ff" d="M136.9,-687.86C139.85,-675.45 144.51,-660.31 151.5,-648 158.12,-636.34 166.29,-624.93 175.03,-614.2"/>
<polygon fill="none" stroke="#63b8ff" points="175.09,-614.13 175.91,-606.96 182.84,-604.96 182.02,-612.13 175.09,-614.13"/>
</a>
</g>
<text text-anchor="middle" x="196" y="-662" font-family="Helvetica,sans-Serif" font-size="10.00" fill="grey"> &#45;attempt_number</text>
<text text-anchor="middle" x="196" y="-651" font-family="Helvetica,sans-Serif" font-size="10.00" fill="grey">&#45;max_attempts</text>
</g>
<!-- Node6 -->
<g id="Node000006" class="node">
<title>Node6</title>
<g id="a_Node000006"><a xlink:title=" ">
<polygon fill="white" stroke="transparent" points="264,-737 225,-737 225,-688 264,-688 264,-737"/>
<text text-anchor="start" x="230.5" y="-724.5" font-family="Helvetica,sans-Serif" font-size="10.00">String</text>
<text text-anchor="start" x="243" y="-709.5" font-family="Helvetica,sans-Serif" font-size="10.00"> </text>
<text text-anchor="start" x="243" y="-694.5" font-family="Helvetica,sans-Serif" font-size="10.00"> </text>
<polygon fill="#666666" stroke="#666666" points="225.5,-719.5 225.5,-719.5 264.5,-719.5 264.5,-719.5 225.5,-719.5"/>
<polygon fill="#666666" stroke="#666666" points="225.5,-704.5 225.5,-704.5 264.5,-704.5 264.5,-704.5 225.5,-704.5"/>
<polygon fill="none" stroke="#666666" points="225,-688 225,-737 264,-737 264,-688 225,-688"/>
</a>
</g>
</g>
<!-- Node6&#45;&gt;Node3 -->
<g id="edge5_Node000003_Node000006" class="edge">
<title>Node6&#45;&gt;Node3</title>
<g id="a_edge5_Node000003_Node000006"><a xlink:title=" ">
<path fill="none" stroke="#63b8ff" d="M244.5,-687.86C244.5,-675.45 244.5,-659.34 244.5,-642.46"/>
<polygon fill="none" stroke="#63b8ff" points="244.5,-642.07 240.5,-636.07 244.5,-630.07 248.5,-636.07 244.5,-642.07"/>
</a>
</g>
<text text-anchor="middle" x="281" y="-656.5" font-family="Helvetica,sans-Serif" font-size="10.00" fill="grey"> &#45;device_name</text>
</g>
<!-- Node7 -->
<g id="Node000007" class="node">
<title>Node7</title>
<g id="a_Node000007"><a xlink:title=" ">
<polygon fill="white" stroke="transparent" points="388.5,-737 356.5,-737 356.5,-688 388.5,-688 388.5,-737"/>
<text text-anchor="start" x="361.5" y="-724.5" font-family="Helvetica,sans-Serif" font-size="10.00">bool</text>
<text text-anchor="start" x="370.5" y="-709.5" font-family="Helvetica,sans-Serif" font-size="10.00"> </text>
<text text-anchor="start" x="370.5" y="-694.5" font-family="Helvetica,sans-Serif" font-size="10.00"> </text>
<polygon fill="#666666" stroke="#666666" points="356.5,-719.5 356.5,-719.5 388.5,-719.5 388.5,-719.5 356.5,-719.5"/>
<polygon fill="#666666" stroke="#666666" points="356.5,-704.5 356.5,-704.5 388.5,-704.5 388.5,-704.5 356.5,-704.5"/>
<polygon fill="none" stroke="#666666" points="356.5,-688 356.5,-737 388.5,-737 388.5,-688 356.5,-688"/>
</a>
</g>
</g>
<!-- Node7&#45;&gt;Node1 -->
<g id="edge10_Node000001_Node000007" class="edge">
<title>Node7&#45;&gt;Node1</title>
<g id="a_edge10_Node000001_Node000007"><a xlink:title=" ">
<path fill="none" stroke="#63b8ff" d="M384.29,-687.81C386.71,-682.1 388.97,-675.93 390.5,-670 429.4,-518.67 404.82,-475.12 423.5,-320 426.56,-294.55 430.25,-267.38 433.98,-241.43"/>
<polygon fill="none" stroke="#63b8ff" points="434.03,-241.08 430.94,-234.57 435.75,-229.21 438.85,-235.72 434.03,-241.08"/>
</a>
</g>
<text text-anchor="middle" x="445.5" y="-435" font-family="Helvetica,sans-Serif" font-size="10.00" fill="grey"> &#45;active_file</text>
</g>
<!-- Node7&#45;&gt;Node3 -->
<g id="edge6_Node000003_Node000007" class="edge">
<title>Node7&#45;&gt;Node3</title>
<g id="a_edge6_Node000003_Node000007"><a xlink:title=" ">
<path fill="none" stroke="#63b8ff" d="M356.29,-690.6C345.15,-676.24 329.51,-656.09 313.46,-635.4"/>
<polygon fill="none" stroke="#63b8ff" points="313.43,-635.35 306.59,-633.06 306.07,-625.87 312.91,-628.16 313.43,-635.35"/>
</a>
</g>
<text text-anchor="middle" x="363" y="-656.5" font-family="Helvetica,sans-Serif" font-size="10.00" fill="grey"> #verified</text>
</g>
<!-- Node8 -->
<g id="Node000008" class="node">
<title>Node8</title>
<g id="a_Node000008"><a xlink:title=" ">
<polygon fill="white" stroke="transparent" points="482.5,-391.5 432.5,-391.5 432.5,-342.5 482.5,-342.5 482.5,-391.5"/>
<text text-anchor="start" x="437.5" y="-379" font-family="Helvetica,sans-Serif" font-size="10.00">uint32_t</text>
<text text-anchor="start" x="455.5" y="-364" font-family="Helvetica,sans-Serif" font-size="10.00"> </text>
<text text-anchor="start" x="455.5" y="-349" font-family="Helvetica,sans-Serif" font-size="10.00"> </text>
<polygon fill="#666666" stroke="#666666" points="432.5,-374 432.5,-374 482.5,-374 482.5,-374 432.5,-374"/>
<polygon fill="#666666" stroke="#666666" points="432.5,-359 432.5,-359 482.5,-359 482.5,-359 432.5,-359"/>
<polygon fill="none" stroke="#666666" points="432.5,-342.5 432.5,-391.5 482.5,-391.5 482.5,-342.5 432.5,-342.5"/>
</a>
</g>
</g>
<!-- Node8&#45;&gt;Node1 -->
<g id="edge7_Node000001_Node000008" class="edge">
<title>Node8&#45;&gt;Node1</title>
<g id="a_edge7_Node000001_Node000008"><a xlink:title=" ">
<path fill="none" stroke="#63b8ff" d="M456.15,-342.3C455.53,-330.24 454.85,-315.34 454.5,-302 453.99,-282.47 453.67,-261.8 453.47,-241.59"/>
<polygon fill="none" stroke="#63b8ff" points="453.46,-241.43 449.41,-235.46 453.36,-229.43 457.41,-235.39 453.46,-241.43"/>
</a>
</g>
<text text-anchor="middle" x="497.5" y="-294" font-family="Helvetica,sans-Serif" font-size="10.00" fill="grey"> &#45;FILE_HEADER</text>
<text text-anchor="middle" x="497.5" y="-283" font-family="Helvetica,sans-Serif" font-size="10.00" fill="grey">&#45;MAX_SIZE</text>
<text text-anchor="middle" x="497.5" y="-272" font-family="Helvetica,sans-Serif" font-size="10.00" fill="grey">&#45;SECTOR_SIZE</text>
<text text-anchor="middle" x="497.5" y="-261" font-family="Helvetica,sans-Serif" font-size="10.00" fill="grey">&#45;START_ADDRESS</text>
<text text-anchor="middle" x="497.5" y="-250" font-family="Helvetica,sans-Serif" font-size="10.00" fill="grey">&#45;address</text>
</g>
<!-- Node9 -->
<g id="Node000009" class="node">
<title>Node9</title>
<g id="a_Node000009"><a xlink:title=" ">
<polygon fill="white" stroke="transparent" points="620.5,-391.5 504.5,-391.5 504.5,-342.5 620.5,-342.5 620.5,-391.5"/>
<text text-anchor="start" x="509.5" y="-379" font-family="Helvetica,sans-Serif" font-size="10.00">vector&lt; FileHeader &gt;</text>
<text text-anchor="start" x="560.5" y="-364" font-family="Helvetica,sans-Serif" font-size="10.00"> </text>
<text text-anchor="start" x="560.5" y="-349" font-family="Helvetica,sans-Serif" font-size="10.00"> </text>
<polygon fill="#666666" stroke="#666666" points="504.5,-374 504.5,-374 620.5,-374 620.5,-374 504.5,-374"/>
<polygon fill="#666666" stroke="#666666" points="504.5,-359 504.5,-359 620.5,-359 620.5,-359 504.5,-359"/>
<polygon fill="none" stroke="#666666" points="504.5,-342.5 504.5,-391.5 620.5,-391.5 620.5,-342.5 504.5,-342.5"/>
</a>
</g>
</g>
<!-- Node9&#45;&gt;Node1 -->
<g id="edge8_Node000001_Node000009" class="edge">
<title>Node9&#45;&gt;Node1</title>
<g id="a_edge8_Node000001_Node000009"><a xlink:title=" ">
<path fill="none" stroke="#63b8ff" d="M560.93,-342.42C558.67,-317.83 553.24,-278.56 540.5,-247 533.33,-229.24 523.58,-211.36 513.19,-194.76"/>
<polygon fill="none" stroke="#63b8ff" points="513.15,-194.69 506.54,-191.81 506.66,-184.6 513.27,-187.48 513.15,-194.69"/>
</a>
</g>
<text text-anchor="middle" x="579" y="-272" font-family="Helvetica,sans-Serif" font-size="10.00" fill="grey"> &#45;file_data</text>
</g>
<!-- Node10 -->
<g id="Node000010" class="node">
<title>Node10</title>
<g id="a_Node000010"><a xlink:title=" ">
<polygon fill="white" stroke="transparent" points="724.5,-391.5 638.5,-391.5 638.5,-342.5 724.5,-342.5 724.5,-391.5"/>
<text text-anchor="start" x="643.5" y="-379" font-family="Helvetica,sans-Serif" font-size="10.00">SFE_SPI_FLASH</text>
<text text-anchor="start" x="679.5" y="-364" font-family="Helvetica,sans-Serif" font-size="10.00"> </text>
<text text-anchor="start" x="679.5" y="-349" font-family="Helvetica,sans-Serif" font-size="10.00"> </text>
<polygon fill="#666666" stroke="#666666" points="638.5,-374 638.5,-374 724.5,-374 724.5,-374 638.5,-374"/>
<polygon fill="#666666" stroke="#666666" points="638.5,-359 638.5,-359 724.5,-359 724.5,-359 638.5,-359"/>
<polygon fill="none" stroke="#666666" points="638.5,-342.5 638.5,-391.5 724.5,-391.5 724.5,-342.5 638.5,-342.5"/>
</a>
</g>
</g>
<!-- Node10&#45;&gt;Node1 -->
<g id="edge9_Node000001_Node000010" class="edge">
<title>Node10&#45;&gt;Node1</title>
<g id="a_edge9_Node000001_Node000010"><a xlink:title=" ">
<path fill="none" stroke="#63b8ff" d="M669.53,-342.2C656.29,-317.09 633.35,-277.07 607.5,-247 580.51,-215.61 545.76,-185.27 516.11,-161.66"/>
<polygon fill="none" stroke="#63b8ff" points="516.11,-161.66 508.92,-161.1 506.68,-154.24 513.87,-154.81 516.11,-161.66"/>
</a>
</g>
<text text-anchor="middle" x="660" y="-272" font-family="Helvetica,sans-Serif" font-size="10.00" fill="grey"> &#45;flash</text>
</g>
</g>
</svg>
