<?xml version="1.0" encoding="UTF-8" standalone="no"?>
<!DOCTYPE svg PUBLIC "-//W3C//DTD SVG 1.1//EN"
 "http://www.w3.org/Graphics/SVG/1.1/DTD/svg11.dtd">
<!-- Generated by graphviz version 2.43.0 (0)
 -->
<!-- Title: ICM20948Sensor Pages: 1 -->
<svg width="682pt" height="799pt"
 viewBox="0.00 0.00 681.50 799.00" xmlns="http://www.w3.org/2000/svg" xmlns:xlink="http://www.w3.org/1999/xlink">
<g id="graph0" class="graph" transform="scale(1 1) rotate(0) translate(4 795)">
<title>ICM20948Sensor</title>
<!-- Node1 -->
<g id="Node000001" class="node">
<title>Node1</title>
<g id="a_Node000001"><a xlink:title="Implementation of the Sensor class for the Adafruit ICM20948 (9&#45;axis IMU)">
<polygon fill="#999999" stroke="transparent" points="563,-124 452,-124 452,0 563,0 563,-124"/>
<text text-anchor="start" x="467" y="-112" font-family="Helvetica,sans-Serif" font-size="10.00">ICM20948Sensor</text>
<text text-anchor="start" x="506" y="-97" font-family="Helvetica,sans-Serif" font-size="10.00"> </text>
<text text-anchor="start" x="456.5" y="-82" font-family="Helvetica,sans-Serif" font-size="10.00">+</text>
<text text-anchor="start" x="469.5" y="-82" font-family="Helvetica,sans-Serif" font-size="10.00">ICM20948Sensor()</text>
<text text-anchor="start" x="456.5" y="-67" font-family="Helvetica,sans-Serif" font-size="10.00">+</text>
<text text-anchor="start" x="469.5" y="-67" font-family="Helvetica,sans-Serif" font-size="10.00">ICM20948Sensor()</text>
<text text-anchor="start" x="456.5" y="-52" font-family="Helvetica,sans-Serif" font-size="10.00">+</text>
<text text-anchor="start" x="469.5" y="-52" font-family="Helvetica,sans-Serif" font-size="10.00">verify()</text>
<text text-anchor="start" x="456.5" y="-37" font-family="Helvetica,sans-Serif" font-size="10.00">+</text>
<text text-anchor="start" x="469.5" y="-37" font-family="Helvetica,sans-Serif" font-size="10.00">readData()</text>
<text text-anchor="start" x="456.5" y="-22" font-family="Helvetica,sans-Serif" font-size="10.00">+</text>
<text text-anchor="start" x="469.5" y="-22" font-family="Helvetica,sans-Serif" font-size="10.00">readDataPacket()</text>
<text text-anchor="start" x="456.5" y="-7" font-family="Helvetica,sans-Serif" font-size="10.00">+</text>
<text text-anchor="start" x="469.5" y="-7" font-family="Helvetica,sans-Serif" font-size="10.00">decodeToCSV()</text>
<polygon fill="#666666" stroke="#666666" points="452.5,-107 452.5,-107 563.5,-107 563.5,-107 452.5,-107"/>
<polygon fill="#666666" stroke="#666666" points="452.5,-92 452.5,-92 563.5,-92 563.5,-92 452.5,-92"/>
<polygon fill="none" stroke="#666666" points="452,0 452,-124 563,-124 563,0 452,0"/>
</a>
</g>
</g>
<!-- Node2 -->
<g id="Node000002" class="node">
<title>Node2</title>
<g id="a_Node000002"><a xlink:href="classSensor.html" target="_top" xlink:title="Parent class for sensor objects.">
<polygon fill="white" stroke="transparent" points="437,-478 304,-478 304,-204 437,-204 437,-478"/>
<text text-anchor="start" x="354" y="-466" font-family="Helvetica,sans-Serif" font-size="10.00">Sensor</text>
<text text-anchor="start" x="369" y="-451" font-family="Helvetica,sans-Serif" font-size="10.00"> </text>
<text text-anchor="start" x="308.5" y="-436" font-family="Helvetica,sans-Serif" font-size="10.00">+</text>
<text text-anchor="start" x="321.5" y="-436" font-family="Helvetica,sans-Serif" font-size="10.00">Sensor()</text>
<text text-anchor="start" x="308.5" y="-421" font-family="Helvetica,sans-Serif" font-size="10.00">+</text>
<text text-anchor="start" x="321.5" y="-421" font-family="Helvetica,sans-Serif" font-size="10.00">Sensor()</text>
<text text-anchor="start" x="308.5" y="-406" font-family="Helvetica,sans-Serif" font-size="10.00">+</text>
<text text-anchor="start" x="321.5" y="-406" font-family="Helvetica,sans-Serif" font-size="10.00">Sensor()</text>
<text text-anchor="start" x="308.5" y="-391" font-family="Helvetica,sans-Serif" font-size="10.00">+</text>
<text text-anchor="start" x="321.5" y="-391" font-family="Helvetica,sans-Serif" font-size="10.00">Sensor()</text>
<text text-anchor="start" x="308.5" y="-376" font-family="Helvetica,sans-Serif" font-size="10.00">+</text>
<text text-anchor="start" x="321.5" y="-376" font-family="Helvetica,sans-Serif" font-size="10.00">getPeriod()</text>
<text text-anchor="start" x="308.5" y="-361" font-family="Helvetica,sans-Serif" font-size="10.00">+</text>
<text text-anchor="start" x="321.5" y="-361" font-family="Helvetica,sans-Serif" font-size="10.00">setPeriod()</text>
<text text-anchor="start" x="308.5" y="-346" font-family="Helvetica,sans-Serif" font-size="10.00">+</text>
<text text-anchor="start" x="321.5" y="-346" font-family="Helvetica,sans-Serif" font-size="10.00">getLastExecution()</text>
<text text-anchor="start" x="308.5" y="-331" font-family="Helvetica,sans-Serif" font-size="10.00">+</text>
<text text-anchor="start" x="321.5" y="-331" font-family="Helvetica,sans-Serif" font-size="10.00">setLastExecution()</text>
<text text-anchor="start" x="308.5" y="-316" font-family="Helvetica,sans-Serif" font-size="10.00">+</text>
<text text-anchor="start" x="321.5" y="-316" font-family="Helvetica,sans-Serif" font-size="10.00">getSensorCSVHeader()</text>
<text text-anchor="start" x="308.5" y="-301" font-family="Helvetica,sans-Serif" font-size="10.00">+</text>
<text text-anchor="start" x="321.5" y="-301" font-family="Helvetica,sans-Serif" font-size="10.00">verify()</text>
<text text-anchor="start" x="308.5" y="-286" font-family="Helvetica,sans-Serif" font-size="10.00">+</text>
<text text-anchor="start" x="321.5" y="-286" font-family="Helvetica,sans-Serif" font-size="10.00">readData()</text>
<text text-anchor="start" x="308.5" y="-271" font-family="Helvetica,sans-Serif" font-size="10.00">+</text>
<text text-anchor="start" x="321.5" y="-271" font-family="Helvetica,sans-Serif" font-size="10.00">readDataPacket()</text>
<text text-anchor="start" x="308.5" y="-256" font-family="Helvetica,sans-Serif" font-size="10.00">+</text>
<text text-anchor="start" x="321.5" y="-256" font-family="Helvetica,sans-Serif" font-size="10.00">decodeToCSV()</text>
<text text-anchor="start" x="308.5" y="-241" font-family="Helvetica,sans-Serif" font-size="10.00">+</text>
<text text-anchor="start" x="321.5" y="-241" font-family="Helvetica,sans-Serif" font-size="10.00">getDataPacket()</text>
<text text-anchor="start" x="308.5" y="-226" font-family="Helvetica,sans-Serif" font-size="10.00">+</text>
<text text-anchor="start" x="321.5" y="-226" font-family="Helvetica,sans-Serif" font-size="10.00">readEmpty()</text>
<text text-anchor="start" x="308.5" y="-211" font-family="Helvetica,sans-Serif" font-size="10.00">+</text>
<text text-anchor="start" x="321.5" y="-211" font-family="Helvetica,sans-Serif" font-size="10.00">getDataCSV()</text>
<polygon fill="#666666" stroke="#666666" points="304.5,-461 304.5,-461 437.5,-461 437.5,-461 304.5,-461"/>
<polygon fill="#666666" stroke="#666666" points="304.5,-446 304.5,-446 437.5,-446 437.5,-446 304.5,-446"/>
<polygon fill="none" stroke="#666666" points="304,-204 304,-478 437,-478 437,-204 304,-204"/>
</a>
</g>
</g>
<!-- Node2&#45;&gt;Node1 -->
<g id="edge1_Node000001_Node000002" class="edge">
<title>Node2&#45;&gt;Node1</title>
<g id="a_edge1_Node000001_Node000002"><a xlink:title=" ">
<path fill="none" stroke="#63b8ff" d="M441.63,-196.18C454.17,-170.84 466.58,-145.73 477.2,-124.26"/>
<polygon fill="none" stroke="#63b8ff" points="438.49,-194.64 437.19,-205.15 444.76,-197.74 438.49,-194.64"/>
</a>
</g>
</g>
<!-- Node3 -->
<g id="Node000003" class="node">
<title>Node3</title>
<g id="a_Node000003"><a xlink:href="classDevice.html" target="_top" xlink:title="Implements the recovery system for Sensor and Storage objects.">
<polygon fill="white" stroke="transparent" points="282,-684 159,-684 159,-515 282,-515 282,-684"/>
<text text-anchor="start" x="204" y="-671.5" font-family="Helvetica,sans-Serif" font-size="10.00">Device</text>
<text text-anchor="start" x="219" y="-656.5" font-family="Helvetica,sans-Serif" font-size="10.00"> </text>
<text text-anchor="start" x="163.5" y="-641.5" font-family="Helvetica,sans-Serif" font-size="10.00">+</text>
<text text-anchor="start" x="176.5" y="-641.5" font-family="Helvetica,sans-Serif" font-size="10.00">Device()</text>
<text text-anchor="start" x="163.5" y="-626.5" font-family="Helvetica,sans-Serif" font-size="10.00">+</text>
<text text-anchor="start" x="176.5" y="-626.5" font-family="Helvetica,sans-Serif" font-size="10.00">Device()</text>
<text text-anchor="start" x="163.5" y="-611.5" font-family="Helvetica,sans-Serif" font-size="10.00">+</text>
<text text-anchor="start" x="176.5" y="-611.5" font-family="Helvetica,sans-Serif" font-size="10.00">getDeviceName()</text>
<text text-anchor="start" x="163.5" y="-596.5" font-family="Helvetica,sans-Serif" font-size="10.00">+</text>
<text text-anchor="start" x="176.5" y="-596.5" font-family="Helvetica,sans-Serif" font-size="10.00">verify()</text>
<text text-anchor="start" x="163.5" y="-581.5" font-family="Helvetica,sans-Serif" font-size="10.00">+</text>
<text text-anchor="start" x="176.5" y="-581.5" font-family="Helvetica,sans-Serif" font-size="10.00">getVerified()</text>
<text text-anchor="start" x="163.5" y="-566.5" font-family="Helvetica,sans-Serif" font-size="10.00">+</text>
<text text-anchor="start" x="176.5" y="-566.5" font-family="Helvetica,sans-Serif" font-size="10.00">recoveryConfig()</text>
<text text-anchor="start" x="163.5" y="-551.5" font-family="Helvetica,sans-Serif" font-size="10.00">+</text>
<text text-anchor="start" x="176.5" y="-551.5" font-family="Helvetica,sans-Serif" font-size="10.00">setWaitFactor()</text>
<text text-anchor="start" x="163.5" y="-536.5" font-family="Helvetica,sans-Serif" font-size="10.00">+</text>
<text text-anchor="start" x="176.5" y="-536.5" font-family="Helvetica,sans-Serif" font-size="10.00">setMaxAttempts()</text>
<text text-anchor="start" x="163.5" y="-521.5" font-family="Helvetica,sans-Serif" font-size="10.00">+</text>
<text text-anchor="start" x="176.5" y="-521.5" font-family="Helvetica,sans-Serif" font-size="10.00">attemptConnection()</text>
<polygon fill="#666666" stroke="#666666" points="159.5,-666.5 159.5,-666.5 282.5,-666.5 282.5,-666.5 159.5,-666.5"/>
<polygon fill="#666666" stroke="#666666" points="159.5,-651.5 159.5,-651.5 282.5,-651.5 282.5,-651.5 159.5,-651.5"/>
<polygon fill="none" stroke="#666666" points="159,-515 159,-684 282,-684 282,-515 159,-515"/>
</a>
</g>
</g>
<!-- Node3&#45;&gt;Node2 -->
<g id="edge2_Node000002_Node000003" class="edge">
<title>Node3&#45;&gt;Node2</title>
<g id="a_edge2_Node000002_Node000003"><a xlink:title=" ">
<path fill="none" stroke="#63b8ff" d="M274.64,-505.93C284.15,-489.67 294.14,-472.58 303.94,-455.82"/>
<polygon fill="none" stroke="#63b8ff" points="271.43,-504.47 269.41,-514.87 277.48,-508 271.43,-504.47"/>
</a>
</g>
</g>
<!-- Node4 -->
<g id="Node000004" class="node">
<title>Node4</title>
<g id="a_Node000004"><a xlink:title=" ">
<polygon fill="white" stroke="transparent" points="79,-791 0,-791 0,-742 79,-742 79,-791"/>
<text text-anchor="start" x="5.5" y="-778.5" font-family="Helvetica,sans-Serif" font-size="10.00">unsigned long</text>
<text text-anchor="start" x="38" y="-763.5" font-family="Helvetica,sans-Serif" font-size="10.00"> </text>
<text text-anchor="start" x="38" y="-748.5" font-family="Helvetica,sans-Serif" font-size="10.00"> </text>
<polygon fill="#666666" stroke="#666666" points="0.5,-773.5 0.5,-773.5 79.5,-773.5 79.5,-773.5 0.5,-773.5"/>
<polygon fill="#666666" stroke="#666666" points="0.5,-758.5 0.5,-758.5 79.5,-758.5 79.5,-758.5 0.5,-758.5"/>
<polygon fill="none" stroke="#666666" points="0,-742 0,-791 79,-791 79,-742 0,-742"/>
</a>
</g>
</g>
<!-- Node4&#45;&gt;Node2 -->
<g id="edge7_Node000002_Node000004" class="edge">
<title>Node4&#45;&gt;Node2</title>
<g id="a_edge7_Node000002_Node000004"><a xlink:title=" ">
<path fill="none" stroke="#63b8ff" d="M34.78,-741.79C26.71,-694.41 15.27,-586.49 61.5,-515 114.15,-433.57 219.22,-386.81 292.12,-362.91"/>
<polygon fill="none" stroke="#63b8ff" points="292.55,-362.77 297.05,-357.14 303.99,-359.13 299.48,-364.76 292.55,-362.77"/>
</a>
</g>
<text text-anchor="middle" x="105.5" y="-602.5" font-family="Helvetica,sans-Serif" font-size="10.00" fill="grey"> &#45;last_execution</text>
<text text-anchor="middle" x="105.5" y="-591.5" font-family="Helvetica,sans-Serif" font-size="10.00" fill="grey">&#45;minimum_period</text>
</g>
<!-- Node4&#45;&gt;Node3 -->
<g id="edge3_Node000003_Node000004" class="edge">
<title>Node4&#45;&gt;Node3</title>
<g id="a_edge3_Node000003_Node000004"><a xlink:title=" ">
<path fill="none" stroke="#63b8ff" d="M52.87,-741.96C60.92,-729.14 72.01,-713.57 84.5,-702 95.91,-691.43 101.7,-692.83 114.5,-684 126.03,-676.05 137.95,-667.26 149.45,-658.46"/>
<polygon fill="none" stroke="#63b8ff" points="149.5,-658.42 151.8,-651.58 159,-651.08 156.7,-657.91 149.5,-658.42"/>
</a>
</g>
<text text-anchor="middle" x="119.5" y="-716" font-family="Helvetica,sans-Serif" font-size="10.00" fill="grey"> &#45;last_attempt</text>
<text text-anchor="middle" x="119.5" y="-705" font-family="Helvetica,sans-Serif" font-size="10.00" fill="grey">&#45;wait_factor</text>
</g>
<!-- Node5 -->
<g id="Node000005" class="node">
<title>Node5</title>
<g id="a_Node000005"><a xlink:title=" ">
<polygon fill="white" stroke="transparent" points="263,-791 240,-791 240,-742 263,-742 263,-791"/>
<text text-anchor="start" x="245.5" y="-778.5" font-family="Helvetica,sans-Serif" font-size="10.00">int</text>
<text text-anchor="start" x="250" y="-763.5" font-family="Helvetica,sans-Serif" font-size="10.00"> </text>
<text text-anchor="start" x="250" y="-748.5" font-family="Helvetica,sans-Serif" font-size="10.00"> </text>
<polygon fill="#666666" stroke="#666666" points="240.5,-773.5 240.5,-773.5 263.5,-773.5 263.5,-773.5 240.5,-773.5"/>
<polygon fill="#666666" stroke="#666666" points="240.5,-758.5 240.5,-758.5 263.5,-758.5 263.5,-758.5 240.5,-758.5"/>
<polygon fill="none" stroke="#666666" points="240,-742 240,-791 263,-791 263,-742 240,-742"/>
</a>
</g>
</g>
<!-- Node5&#45;&gt;Node2 -->
<g id="edge9_Node000002_Node000005" class="edge">
<title>Node5&#45;&gt;Node2</title>
<g id="a_edge9_Node000002_Node000005"><a xlink:title=" ">
<path fill="none" stroke="#63b8ff" d="M263.46,-764.15C296.68,-760.14 388.78,-747.09 406.5,-724 420.92,-705.21 408.21,-589.4 394.06,-490.17"/>
<polygon fill="none" stroke="#63b8ff" points="394.04,-490.04 389.22,-484.67 392.33,-478.16 397.14,-483.53 394.04,-490.04"/>
</a>
</g>
<text text-anchor="middle" x="446" y="-597" font-family="Helvetica,sans-Serif" font-size="10.00" fill="grey"> #num_fields</text>
</g>
<!-- Node5&#45;&gt;Node3 -->
<g id="edge4_Node000003_Node000005" class="edge">
<title>Node5&#45;&gt;Node3</title>
<g id="a_edge4_Node000003_Node000005"><a xlink:title=" ">
<path fill="none" stroke="#63b8ff" d="M239.78,-753.57C233.02,-745.84 225.16,-735.15 221.5,-724 218.59,-715.12 216.64,-705.68 215.41,-696.13"/>
<polygon fill="none" stroke="#63b8ff" points="215.39,-695.96 210.82,-690.38 214.21,-684.02 218.78,-689.59 215.39,-695.96"/>
</a>
</g>
<text text-anchor="middle" x="266" y="-716" font-family="Helvetica,sans-Serif" font-size="10.00" fill="grey"> &#45;attempt_number</text>
<text text-anchor="middle" x="266" y="-705" font-family="Helvetica,sans-Serif" font-size="10.00" fill="grey">&#45;max_attempts</text>
</g>
<!-- Node6 -->
<g id="Node000006" class="node">
<title>Node6</title>
<g id="a_Node000006"><a xlink:title=" ">
<polygon fill="white" stroke="transparent" points="446,-791 407,-791 407,-742 446,-742 446,-791"/>
<text text-anchor="start" x="412.5" y="-778.5" font-family="Helvetica,sans-Serif" font-size="10.00">String</text>
<text text-anchor="start" x="425" y="-763.5" font-family="Helvetica,sans-Serif" font-size="10.00"> </text>
<text text-anchor="start" x="425" y="-748.5" font-family="Helvetica,sans-Serif" font-size="10.00"> </text>
<polygon fill="#666666" stroke="#666666" points="407.5,-773.5 407.5,-773.5 446.5,-773.5 446.5,-773.5 407.5,-773.5"/>
<polygon fill="#666666" stroke="#666666" points="407.5,-758.5 407.5,-758.5 446.5,-758.5 446.5,-758.5 407.5,-758.5"/>
<polygon fill="none" stroke="#666666" points="407,-742 407,-791 446,-791 446,-742 407,-742"/>
</a>
</g>
</g>
<!-- Node6&#45;&gt;Node2 -->
<g id="edge8_Node000002_Node000006" class="edge">
<title>Node6&#45;&gt;Node2</title>
<g id="a_edge8_Node000002_Node000006"><a xlink:title=" ">
<path fill="none" stroke="#63b8ff" d="M446.11,-747.6C461.23,-732.37 480.95,-709.05 489.5,-684 513.77,-612.92 520.82,-583.27 489.5,-515 478.99,-492.08 462.45,-497.53 446.5,-478 445.91,-477.27 445.32,-476.54 444.73,-475.8"/>
<polygon fill="none" stroke="#63b8ff" points="444.49,-475.49 437.66,-473.16 437.19,-465.97 444.02,-468.3 444.49,-475.49"/>
</a>
</g>
<text text-anchor="middle" x="542" y="-602.5" font-family="Helvetica,sans-Serif" font-size="10.00" fill="grey"> &#45;csv_header</text>
<text text-anchor="middle" x="542" y="-591.5" font-family="Helvetica,sans-Serif" font-size="10.00" fill="grey">&#45;empty_csv</text>
</g>
<!-- Node6&#45;&gt;Node3 -->
<g id="edge5_Node000003_Node000006" class="edge">
<title>Node6&#45;&gt;Node3</title>
<g id="a_edge5_Node000003_Node000006"><a xlink:title=" ">
<path fill="none" stroke="#63b8ff" d="M406.75,-749.68C380.46,-728.62 332.55,-690.25 291.91,-657.7"/>
<polygon fill="none" stroke="#63b8ff" points="291.66,-657.5 284.48,-656.87 282.29,-649.99 289.48,-650.62 291.66,-657.5"/>
</a>
</g>
<text text-anchor="middle" x="408" y="-710.5" font-family="Helvetica,sans-Serif" font-size="10.00" fill="grey"> &#45;device_name</text>
</g>
<!-- Node7 -->
<g id="Node000007" class="node">
<title>Node7</title>
<g id="a_Node000007"><a xlink:title=" ">
<polygon fill="white" stroke="transparent" points="164.5,-791 132.5,-791 132.5,-742 164.5,-742 164.5,-791"/>
<text text-anchor="start" x="137.5" y="-778.5" font-family="Helvetica,sans-Serif" font-size="10.00">bool</text>
<text text-anchor="start" x="146.5" y="-763.5" font-family="Helvetica,sans-Serif" font-size="10.00"> </text>
<text text-anchor="start" x="146.5" y="-748.5" font-family="Helvetica,sans-Serif" font-size="10.00"> </text>
<polygon fill="#666666" stroke="#666666" points="132.5,-773.5 132.5,-773.5 164.5,-773.5 164.5,-773.5 132.5,-773.5"/>
<polygon fill="#666666" stroke="#666666" points="132.5,-758.5 132.5,-758.5 164.5,-758.5 164.5,-758.5 132.5,-758.5"/>
<polygon fill="none" stroke="#666666" points="132.5,-742 132.5,-791 164.5,-791 164.5,-742 132.5,-742"/>
</a>
</g>
</g>
<!-- Node7&#45;&gt;Node3 -->
<g id="edge6_Node000003_Node000007" class="edge">
<title>Node7&#45;&gt;Node3</title>
<g id="a_edge6_Node000003_Node000007"><a xlink:title=" ">
<path fill="none" stroke="#63b8ff" d="M152.95,-741.83C155.6,-729.68 159.46,-714.8 164.5,-702 165.37,-699.79 166.28,-697.56 167.23,-695.33"/>
<polygon fill="none" stroke="#63b8ff" points="167.32,-695.12 166.11,-688.02 172.2,-684.16 173.41,-691.27 167.32,-695.12"/>
</a>
</g>
<text text-anchor="middle" x="189" y="-710.5" font-family="Helvetica,sans-Serif" font-size="10.00" fill="grey"> #verified</text>
</g>
<!-- Node8 -->
<g id="Node000008" class="node">
<title>Node8</title>
<g id="a_Node000008"><a xlink:title=" ">
<polygon fill="white" stroke="transparent" points="559.5,-365.5 455.5,-365.5 455.5,-316.5 559.5,-316.5 559.5,-365.5"/>
<text text-anchor="start" x="460.5" y="-353" font-family="Helvetica,sans-Serif" font-size="10.00">Adafruit_ICM20948</text>
<text text-anchor="start" x="505.5" y="-338" font-family="Helvetica,sans-Serif" font-size="10.00"> </text>
<text text-anchor="start" x="505.5" y="-323" font-family="Helvetica,sans-Serif" font-size="10.00"> </text>
<polygon fill="#666666" stroke="#666666" points="455.5,-348 455.5,-348 559.5,-348 559.5,-348 455.5,-348"/>
<polygon fill="#666666" stroke="#666666" points="455.5,-333 455.5,-333 559.5,-333 559.5,-333 455.5,-333"/>
<polygon fill="none" stroke="#666666" points="455.5,-316.5 455.5,-365.5 559.5,-365.5 559.5,-316.5 455.5,-316.5"/>
</a>
</g>
</g>
<!-- Node8&#45;&gt;Node1 -->
<g id="edge10_Node000001_Node000008" class="edge">
<title>Node8&#45;&gt;Node1</title>
<g id="a_edge10_Node000001_Node000008"><a xlink:title=" ">
<path fill="none" stroke="#63b8ff" d="M507.5,-316.38C507.5,-276.91 507.5,-195.97 507.5,-136.14"/>
<polygon fill="none" stroke="#63b8ff" points="507.5,-136.1 503.5,-130.1 507.5,-124.1 511.5,-130.1 507.5,-136.1"/>
</a>
</g>
<text text-anchor="middle" x="520" y="-161.5" font-family="Helvetica,sans-Serif" font-size="10.00" fill="grey"> &#45;icm</text>
</g>
<!-- Node9 -->
<g id="Node000009" class="node">
<title>Node9</title>
<g id="a_Node000009"><a xlink:title=" ">
<polygon fill="white" stroke="transparent" points="673.5,-365.5 577.5,-365.5 577.5,-316.5 673.5,-316.5 673.5,-365.5"/>
<text text-anchor="start" x="582.5" y="-353" font-family="Helvetica,sans-Serif" font-size="10.00">Adafruit_Sensor *</text>
<text text-anchor="start" x="623.5" y="-338" font-family="Helvetica,sans-Serif" font-size="10.00"> </text>
<text text-anchor="start" x="623.5" y="-323" font-family="Helvetica,sans-Serif" font-size="10.00"> </text>
<polygon fill="#666666" stroke="#666666" points="577.5,-348 577.5,-348 673.5,-348 673.5,-348 577.5,-348"/>
<polygon fill="#666666" stroke="#666666" points="577.5,-333 577.5,-333 673.5,-333 673.5,-333 577.5,-333"/>
<polygon fill="none" stroke="#666666" points="577.5,-316.5 577.5,-365.5 673.5,-365.5 673.5,-316.5 577.5,-316.5"/>
</a>
</g>
</g>
<!-- Node9&#45;&gt;Node1 -->
<g id="edge11_Node000001_Node000009" class="edge">
<title>Node9&#45;&gt;Node1</title>
<g id="a_edge11_Node000001_Node000009"><a xlink:title=" ">
<path fill="none" stroke="#63b8ff" d="M615.7,-316.38C604.4,-289.23 585.25,-243.34 568.5,-204 558.98,-181.64 548.51,-157.34 538.97,-135.3"/>
<polygon fill="none" stroke="#63b8ff" points="538.85,-135.02 532.79,-131.11 534.07,-124.01 540.13,-127.92 538.85,-135.02"/>
</a>
</g>
<text text-anchor="middle" x="587.5" y="-178" font-family="Helvetica,sans-Serif" font-size="10.00" fill="grey"> &#45;icm_accel</text>
<text text-anchor="middle" x="587.5" y="-167" font-family="Helvetica,sans-Serif" font-size="10.00" fill="grey">&#45;icm_gyro</text>
<text text-anchor="middle" x="587.5" y="-156" font-family="Helvetica,sans-Serif" font-size="10.00" fill="grey">&#45;icm_mag</text>
<text text-anchor="middle" x="587.5" y="-145" font-family="Helvetica,sans-Serif" font-size="10.00" fill="grey">&#45;icm_temp</text>
</g>
</g>
</svg>
