<?xml version="1.0" encoding="UTF-8" standalone="no"?>
<!DOCTYPE svg PUBLIC "-//W3C//DTD SVG 1.1//EN"
 "http://www.w3.org/Graphics/SVG/1.1/DTD/svg11.dtd">
<!-- Generated by graphviz version 2.43.0 (0)
 -->
<!-- Title: ICM20948Sensor Pages: 1 -->
<svg width="682pt" height="724pt"
 viewBox="0.00 0.00 681.50 724.00" xmlns="http://www.w3.org/2000/svg" xmlns:xlink="http://www.w3.org/1999/xlink">
<g id="graph0" class="graph" transform="scale(1 1) rotate(0) translate(4 720)">
<title>ICM20948Sensor</title>
<!-- Node1 -->
<g id="Node000001" class="node">
<title>Node1</title>
<g id="a_Node000001"><a xlink:title="Implementation of the Sensor class for the Adafruit ICM20948 (9&#45;axis IMU)">
<polygon fill="#999999" stroke="transparent" points="563,-124 452,-124 452,0 563,0 563,-124"/>
<text text-anchor="start" x="467" y="-112" font-family="Helvetica,sans-Serif" font-size="10.00">ICM20948Sensor</text>
<text text-anchor="start" x="506" y="-97" font-family="Helvetica,sans-Serif" font-size="10.00"> </text>
<text text-anchor="start" x="456.5" y="-82" font-family="Helvetica,sans-Serif" font-size="10.00">+</text>
<text text-anchor="start" x="469.5" y="-82" font-family="Helvetica,sans-Serif" font-size="10.00">ICM20948Sensor()</text>
<text text-anchor="start" x="456.5" y="-67" font-family="Helvetica,sans-Serif" font-size="10.00">+</text>
<text text-anchor="start" x="469.5" y="-67" font-family="Helvetica,sans-Serif" font-size="10.00">ICM20948Sensor()</text>
<text text-anchor="start" x="456.5" y="-52" font-family="Helvetica,sans-Serif" font-size="10.00">+</text>
<text text-anchor="start" x="469.5" y="-52" font-family="Helvetica,sans-Serif" font-size="10.00">verify()</text>
<text text-anchor="start" x="456.5" y="-37" font-family="Helvetica,sans-Serif" font-size="10.00">+</text>
<text text-anchor="start" x="469.5" y="-37" font-family="Helvetica,sans-Serif" font-size="10.00">readData()</text>
<text text-anchor="start" x="456.5" y="-22" font-family="Helvetica,sans-Serif" font-size="10.00">+</text>
<text text-anchor="start" x="469.5" y="-22" font-family="Helvetica,sans-Serif" font-size="10.00">readDataPacket()</text>
<text text-anchor="start" x="456.5" y="-7" font-family="Helvetica,sans-Serif" font-size="10.00">+</text>
<text text-anchor="start" x="469.5" y="-7" font-family="Helvetica,sans-Serif" font-size="10.00">decodeToCSV()</text>
<polygon fill="#666666" stroke="#666666" points="452.5,-107 452.5,-107 563.5,-107 563.5,-107 452.5,-107"/>
<polygon fill="#666666" stroke="#666666" points="452.5,-92 452.5,-92 563.5,-92 563.5,-92 452.5,-92"/>
<polygon fill="none" stroke="#666666" points="452,0 452,-124 563,-124 563,0 452,0"/>
</a>
</g>
</g>
<!-- Node2 -->
<g id="Node000002" class="node">
<title>Node2</title>
<g id="a_Node000002"><a xlink:href="classSensor.html" target="_top" xlink:title="Parent class for sensor objects.">
<polygon fill="white" stroke="transparent" points="437,-403 304,-403 304,-204 437,-204 437,-403"/>
<text text-anchor="start" x="354" y="-390.5" font-family="Helvetica,sans-Serif" font-size="10.00">Sensor</text>
<text text-anchor="start" x="369" y="-375.5" font-family="Helvetica,sans-Serif" font-size="10.00"> </text>
<text text-anchor="start" x="308.5" y="-360.5" font-family="Helvetica,sans-Serif" font-size="10.00">+</text>
<text text-anchor="start" x="321.5" y="-360.5" font-family="Helvetica,sans-Serif" font-size="10.00">Sensor()</text>
<text text-anchor="start" x="308.5" y="-345.5" font-family="Helvetica,sans-Serif" font-size="10.00">+</text>
<text text-anchor="start" x="321.5" y="-345.5" font-family="Helvetica,sans-Serif" font-size="10.00">Sensor()</text>
<text text-anchor="start" x="308.5" y="-330.5" font-family="Helvetica,sans-Serif" font-size="10.00">+</text>
<text text-anchor="start" x="321.5" y="-330.5" font-family="Helvetica,sans-Serif" font-size="10.00">Sensor()</text>
<text text-anchor="start" x="308.5" y="-315.5" font-family="Helvetica,sans-Serif" font-size="10.00">+</text>
<text text-anchor="start" x="321.5" y="-315.5" font-family="Helvetica,sans-Serif" font-size="10.00">Sensor()</text>
<text text-anchor="start" x="308.5" y="-300.5" font-family="Helvetica,sans-Serif" font-size="10.00">+</text>
<text text-anchor="start" x="321.5" y="-300.5" font-family="Helvetica,sans-Serif" font-size="10.00">getPeriod()</text>
<text text-anchor="start" x="308.5" y="-285.5" font-family="Helvetica,sans-Serif" font-size="10.00">+</text>
<text text-anchor="start" x="321.5" y="-285.5" font-family="Helvetica,sans-Serif" font-size="10.00">setPeriod()</text>
<text text-anchor="start" x="308.5" y="-270.5" font-family="Helvetica,sans-Serif" font-size="10.00">+</text>
<text text-anchor="start" x="321.5" y="-270.5" font-family="Helvetica,sans-Serif" font-size="10.00">getLastExecution()</text>
<text text-anchor="start" x="308.5" y="-255.5" font-family="Helvetica,sans-Serif" font-size="10.00">+</text>
<text text-anchor="start" x="321.5" y="-255.5" font-family="Helvetica,sans-Serif" font-size="10.00">setLastExecution()</text>
<text text-anchor="start" x="308.5" y="-240.5" font-family="Helvetica,sans-Serif" font-size="10.00">+</text>
<text text-anchor="start" x="321.5" y="-240.5" font-family="Helvetica,sans-Serif" font-size="10.00">getSensorCSVHeader()</text>
<text text-anchor="start" x="308.5" y="-225.5" font-family="Helvetica,sans-Serif" font-size="10.00">+</text>
<text text-anchor="start" x="321.5" y="-225.5" font-family="Helvetica,sans-Serif" font-size="10.00">verify()</text>
<text text-anchor="start" x="321.5" y="-210.5" font-family="Helvetica,sans-Serif" font-size="10.00">and 6 more...</text>
<polygon fill="#666666" stroke="#666666" points="304.5,-385.5 304.5,-385.5 437.5,-385.5 437.5,-385.5 304.5,-385.5"/>
<polygon fill="#666666" stroke="#666666" points="304.5,-370.5 304.5,-370.5 437.5,-370.5 437.5,-370.5 304.5,-370.5"/>
<polygon fill="none" stroke="#666666" points="304,-204 304,-403 437,-403 437,-204 304,-204"/>
</a>
</g>
</g>
<!-- Node2&#45;&gt;Node1 -->
<g id="edge1_Node000001_Node000002" class="edge">
<title>Node2&#45;&gt;Node1</title>
<g id="a_edge1_Node000001_Node000002"><a xlink:title=" ">
<path fill="none" stroke="#63b8ff" d="M432.09,-194.82C445.94,-170.61 460.17,-145.74 472.48,-124.21"/>
<polygon fill="none" stroke="#63b8ff" points="428.94,-193.29 427.01,-203.7 435.02,-196.76 428.94,-193.29"/>
</a>
</g>
</g>
<!-- Node3 -->
<g id="Node000003" class="node">
<title>Node3</title>
<g id="a_Node000003"><a xlink:href="classDevice.html" target="_top" xlink:title="Implements the recovery system for Sensor and Storage objects.">
<polygon fill="white" stroke="transparent" points="282,-609 159,-609 159,-440 282,-440 282,-609"/>
<text text-anchor="start" x="204" y="-596.5" font-family="Helvetica,sans-Serif" font-size="10.00">Device</text>
<text text-anchor="start" x="219" y="-581.5" font-family="Helvetica,sans-Serif" font-size="10.00"> </text>
<text text-anchor="start" x="163.5" y="-566.5" font-family="Helvetica,sans-Serif" font-size="10.00">+</text>
<text text-anchor="start" x="176.5" y="-566.5" font-family="Helvetica,sans-Serif" font-size="10.00">Device()</text>
<text text-anchor="start" x="163.5" y="-551.5" font-family="Helvetica,sans-Serif" font-size="10.00">+</text>
<text text-anchor="start" x="176.5" y="-551.5" font-family="Helvetica,sans-Serif" font-size="10.00">Device()</text>
<text text-anchor="start" x="163.5" y="-536.5" font-family="Helvetica,sans-Serif" font-size="10.00">+</text>
<text text-anchor="start" x="176.5" y="-536.5" font-family="Helvetica,sans-Serif" font-size="10.00">getDeviceName()</text>
<text text-anchor="start" x="163.5" y="-521.5" font-family="Helvetica,sans-Serif" font-size="10.00">+</text>
<text text-anchor="start" x="176.5" y="-521.5" font-family="Helvetica,sans-Serif" font-size="10.00">verify()</text>
<text text-anchor="start" x="163.5" y="-506.5" font-family="Helvetica,sans-Serif" font-size="10.00">+</text>
<text text-anchor="start" x="176.5" y="-506.5" font-family="Helvetica,sans-Serif" font-size="10.00">getVerified()</text>
<text text-anchor="start" x="163.5" y="-491.5" font-family="Helvetica,sans-Serif" font-size="10.00">+</text>
<text text-anchor="start" x="176.5" y="-491.5" font-family="Helvetica,sans-Serif" font-size="10.00">recoveryConfig()</text>
<text text-anchor="start" x="163.5" y="-476.5" font-family="Helvetica,sans-Serif" font-size="10.00">+</text>
<text text-anchor="start" x="176.5" y="-476.5" font-family="Helvetica,sans-Serif" font-size="10.00">setWaitFactor()</text>
<text text-anchor="start" x="163.5" y="-461.5" font-family="Helvetica,sans-Serif" font-size="10.00">+</text>
<text text-anchor="start" x="176.5" y="-461.5" font-family="Helvetica,sans-Serif" font-size="10.00">setMaxAttempts()</text>
<text text-anchor="start" x="163.5" y="-446.5" font-family="Helvetica,sans-Serif" font-size="10.00">+</text>
<text text-anchor="start" x="176.5" y="-446.5" font-family="Helvetica,sans-Serif" font-size="10.00">attemptConnection()</text>
<polygon fill="#666666" stroke="#666666" points="159.5,-591.5 159.5,-591.5 282.5,-591.5 282.5,-591.5 159.5,-591.5"/>
<polygon fill="#666666" stroke="#666666" points="159.5,-576.5 159.5,-576.5 282.5,-576.5 282.5,-576.5 159.5,-576.5"/>
<polygon fill="none" stroke="#666666" points="159,-440 159,-609 282,-609 282,-440 159,-440"/>
</a>
</g>
</g>
<!-- Node3&#45;&gt;Node2 -->
<g id="edge2_Node000002_Node000003" class="edge">
<title>Node3&#45;&gt;Node2</title>
<g id="a_edge2_Node000002_Node000003"><a xlink:title=" ">
<path fill="none" stroke="#63b8ff" d="M283.68,-431.25C290.37,-421.49 297.18,-411.55 303.9,-401.74"/>
<polygon fill="none" stroke="#63b8ff" points="280.61,-429.54 277.85,-439.77 286.39,-433.5 280.61,-429.54"/>
</a>
</g>
</g>
<!-- Node4 -->
<g id="Node000004" class="node">
<title>Node4</title>
<g id="a_Node000004"><a xlink:title=" ">
<polygon fill="white" stroke="transparent" points="79,-716 0,-716 0,-667 79,-667 79,-716"/>
<text text-anchor="start" x="5.5" y="-703.5" font-family="Helvetica,sans-Serif" font-size="10.00">unsigned long</text>
<text text-anchor="start" x="38" y="-688.5" font-family="Helvetica,sans-Serif" font-size="10.00"> </text>
<text text-anchor="start" x="38" y="-673.5" font-family="Helvetica,sans-Serif" font-size="10.00"> </text>
<polygon fill="#666666" stroke="#666666" points="0.5,-698.5 0.5,-698.5 79.5,-698.5 79.5,-698.5 0.5,-698.5"/>
<polygon fill="#666666" stroke="#666666" points="0.5,-683.5 0.5,-683.5 79.5,-683.5 79.5,-683.5 0.5,-683.5"/>
<polygon fill="none" stroke="#666666" points="0,-667 0,-716 79,-716 79,-667 0,-667"/>
</a>
</g>
</g>
<!-- Node4&#45;&gt;Node2 -->
<g id="edge7_Node000002_Node000004" class="edge">
<title>Node4&#45;&gt;Node2</title>
<g id="a_edge7_Node000002_Node000004"><a xlink:title=" ">
<path fill="none" stroke="#63b8ff" d="M34.27,-666.76C25.15,-618.86 11.73,-509.34 61.5,-440 115.21,-365.17 219.52,-331.15 292.01,-316.03"/>
<polygon fill="none" stroke="#63b8ff" points="292.04,-316.02 297.14,-310.93 303.8,-313.68 298.7,-318.77 292.04,-316.02"/>
</a>
</g>
<text text-anchor="middle" x="105.5" y="-527.5" font-family="Helvetica,sans-Serif" font-size="10.00" fill="grey"> &#45;last_execution</text>
<text text-anchor="middle" x="105.5" y="-516.5" font-family="Helvetica,sans-Serif" font-size="10.00" fill="grey">&#45;minimum_period</text>
</g>
<!-- Node4&#45;&gt;Node3 -->
<g id="edge3_Node000003_Node000004" class="edge">
<title>Node4&#45;&gt;Node3</title>
<g id="a_edge3_Node000003_Node000004"><a xlink:title=" ">
<path fill="none" stroke="#63b8ff" d="M52.87,-666.96C60.92,-654.14 72.01,-638.57 84.5,-627 95.91,-616.43 101.7,-617.83 114.5,-609 126.03,-601.05 137.95,-592.26 149.45,-583.46"/>
<polygon fill="none" stroke="#63b8ff" points="149.5,-583.42 151.8,-576.58 159,-576.08 156.7,-582.91 149.5,-583.42"/>
</a>
</g>
<text text-anchor="middle" x="119.5" y="-641" font-family="Helvetica,sans-Serif" font-size="10.00" fill="grey"> &#45;last_attempt</text>
<text text-anchor="middle" x="119.5" y="-630" font-family="Helvetica,sans-Serif" font-size="10.00" fill="grey">&#45;wait_factor</text>
</g>
<!-- Node5 -->
<g id="Node000005" class="node">
<title>Node5</title>
<g id="a_Node000005"><a xlink:title=" ">
<polygon fill="white" stroke="transparent" points="263,-716 240,-716 240,-667 263,-667 263,-716"/>
<text text-anchor="start" x="245.5" y="-703.5" font-family="Helvetica,sans-Serif" font-size="10.00">int</text>
<text text-anchor="start" x="250" y="-688.5" font-family="Helvetica,sans-Serif" font-size="10.00"> </text>
<text text-anchor="start" x="250" y="-673.5" font-family="Helvetica,sans-Serif" font-size="10.00"> </text>
<polygon fill="#666666" stroke="#666666" points="240.5,-698.5 240.5,-698.5 263.5,-698.5 263.5,-698.5 240.5,-698.5"/>
<polygon fill="#666666" stroke="#666666" points="240.5,-683.5 240.5,-683.5 263.5,-683.5 263.5,-683.5 240.5,-683.5"/>
<polygon fill="none" stroke="#666666" points="240,-667 240,-716 263,-716 263,-667 240,-667"/>
</a>
</g>
</g>
<!-- Node5&#45;&gt;Node2 -->
<g id="edge9_Node000002_Node000005" class="edge">
<title>Node5&#45;&gt;Node2</title>
<g id="a_edge9_Node000002_Node000005"><a xlink:title=" ">
<path fill="none" stroke="#63b8ff" d="M263.46,-689.15C296.68,-685.14 388.78,-672.09 406.5,-649 420.64,-630.58 404.61,-508.94 389.67,-415.37"/>
<polygon fill="none" stroke="#63b8ff" points="389.62,-415.09 384.72,-409.8 387.71,-403.24 392.61,-408.53 389.62,-415.09"/>
</a>
</g>
<text text-anchor="middle" x="445" y="-522" font-family="Helvetica,sans-Serif" font-size="10.00" fill="grey"> #num_fields</text>
</g>
<!-- Node5&#45;&gt;Node3 -->
<g id="edge4_Node000003_Node000005" class="edge">
<title>Node5&#45;&gt;Node3</title>
<g id="a_edge4_Node000003_Node000005"><a xlink:title=" ">
<path fill="none" stroke="#63b8ff" d="M239.78,-678.57C233.02,-670.84 225.16,-660.15 221.5,-649 218.59,-640.12 216.64,-630.68 215.41,-621.13"/>
<polygon fill="none" stroke="#63b8ff" points="215.39,-620.96 210.82,-615.38 214.21,-609.02 218.78,-614.59 215.39,-620.96"/>
</a>
</g>
<text text-anchor="middle" x="266" y="-641" font-family="Helvetica,sans-Serif" font-size="10.00" fill="grey"> &#45;attempt_number</text>
<text text-anchor="middle" x="266" y="-630" font-family="Helvetica,sans-Serif" font-size="10.00" fill="grey">&#45;max_attempts</text>
</g>
<!-- Node6 -->
<g id="Node000006" class="node">
<title>Node6</title>
<g id="a_Node000006"><a xlink:title=" ">
<polygon fill="white" stroke="transparent" points="446,-716 407,-716 407,-667 446,-667 446,-716"/>
<text text-anchor="start" x="412.5" y="-703.5" font-family="Helvetica,sans-Serif" font-size="10.00">String</text>
<text text-anchor="start" x="425" y="-688.5" font-family="Helvetica,sans-Serif" font-size="10.00"> </text>
<text text-anchor="start" x="425" y="-673.5" font-family="Helvetica,sans-Serif" font-size="10.00"> </text>
<polygon fill="#666666" stroke="#666666" points="407.5,-698.5 407.5,-698.5 446.5,-698.5 446.5,-698.5 407.5,-698.5"/>
<polygon fill="#666666" stroke="#666666" points="407.5,-683.5 407.5,-683.5 446.5,-683.5 446.5,-683.5 407.5,-683.5"/>
<polygon fill="none" stroke="#666666" points="407,-667 407,-716 446,-716 446,-667 407,-667"/>
</a>
</g>
</g>
<!-- Node6&#45;&gt;Node2 -->
<g id="edge8_Node000002_Node000006" class="edge">
<title>Node6&#45;&gt;Node2</title>
<g id="a_edge8_Node000002_Node000006"><a xlink:title=" ">
<path fill="none" stroke="#63b8ff" d="M446.11,-672.6C461.23,-657.37 480.95,-634.05 489.5,-609 513.77,-537.92 520.82,-508.27 489.5,-440 478.99,-417.08 463.85,-421.3 446.5,-403 446.11,-402.59 445.72,-402.18 445.33,-401.76"/>
<polygon fill="none" stroke="#63b8ff" points="445.25,-401.67 438.25,-399.93 437.16,-392.8 444.16,-394.54 445.25,-401.67"/>
</a>
</g>
<text text-anchor="middle" x="542" y="-527.5" font-family="Helvetica,sans-Serif" font-size="10.00" fill="grey"> &#45;csv_header</text>
<text text-anchor="middle" x="542" y="-516.5" font-family="Helvetica,sans-Serif" font-size="10.00" fill="grey">&#45;empty_csv</text>
</g>
<!-- Node6&#45;&gt;Node3 -->
<g id="edge5_Node000003_Node000006" class="edge">
<title>Node6&#45;&gt;Node3</title>
<g id="a_edge5_Node000003_Node000006"><a xlink:title=" ">
<path fill="none" stroke="#63b8ff" d="M406.75,-674.68C380.46,-653.62 332.55,-615.25 291.91,-582.7"/>
<polygon fill="none" stroke="#63b8ff" points="291.66,-582.5 284.48,-581.87 282.29,-574.99 289.48,-575.62 291.66,-582.5"/>
</a>
</g>
<text text-anchor="middle" x="408" y="-635.5" font-family="Helvetica,sans-Serif" font-size="10.00" fill="grey"> &#45;device_name</text>
</g>
<!-- Node7 -->
<g id="Node000007" class="node">
<title>Node7</title>
<g id="a_Node000007"><a xlink:title=" ">
<polygon fill="white" stroke="transparent" points="164.5,-716 132.5,-716 132.5,-667 164.5,-667 164.5,-716"/>
<text text-anchor="start" x="137.5" y="-703.5" font-family="Helvetica,sans-Serif" font-size="10.00">bool</text>
<text text-anchor="start" x="146.5" y="-688.5" font-family="Helvetica,sans-Serif" font-size="10.00"> </text>
<text text-anchor="start" x="146.5" y="-673.5" font-family="Helvetica,sans-Serif" font-size="10.00"> </text>
<polygon fill="#666666" stroke="#666666" points="132.5,-698.5 132.5,-698.5 164.5,-698.5 164.5,-698.5 132.5,-698.5"/>
<polygon fill="#666666" stroke="#666666" points="132.5,-683.5 132.5,-683.5 164.5,-683.5 164.5,-683.5 132.5,-683.5"/>
<polygon fill="none" stroke="#666666" points="132.5,-667 132.5,-716 164.5,-716 164.5,-667 132.5,-667"/>
</a>
</g>
</g>
<!-- Node7&#45;&gt;Node3 -->
<g id="edge6_Node000003_Node000007" class="edge">
<title>Node7&#45;&gt;Node3</title>
<g id="a_edge6_Node000003_Node000007"><a xlink:title=" ">
<path fill="none" stroke="#63b8ff" d="M152.95,-666.83C155.6,-654.68 159.46,-639.8 164.5,-627 165.37,-624.79 166.28,-622.56 167.23,-620.33"/>
<polygon fill="none" stroke="#63b8ff" points="167.32,-620.12 166.11,-613.02 172.2,-609.16 173.41,-616.27 167.32,-620.12"/>
</a>
</g>
<text text-anchor="middle" x="189" y="-635.5" font-family="Helvetica,sans-Serif" font-size="10.00" fill="grey"> #verified</text>
</g>
<!-- Node8 -->
<g id="Node000008" class="node">
<title>Node8</title>
<g id="a_Node000008"><a xlink:title=" ">
<polygon fill="white" stroke="transparent" points="559.5,-328 455.5,-328 455.5,-279 559.5,-279 559.5,-328"/>
<text text-anchor="start" x="460.5" y="-315.5" font-family="Helvetica,sans-Serif" font-size="10.00">Adafruit_ICM20948</text>
<text text-anchor="start" x="505.5" y="-300.5" font-family="Helvetica,sans-Serif" font-size="10.00"> </text>
<text text-anchor="start" x="505.5" y="-285.5" font-family="Helvetica,sans-Serif" font-size="10.00"> </text>
<polygon fill="#666666" stroke="#666666" points="455.5,-310.5 455.5,-310.5 559.5,-310.5 559.5,-310.5 455.5,-310.5"/>
<polygon fill="#666666" stroke="#666666" points="455.5,-295.5 455.5,-295.5 559.5,-295.5 559.5,-295.5 455.5,-295.5"/>
<polygon fill="none" stroke="#666666" points="455.5,-279 455.5,-328 559.5,-328 559.5,-279 455.5,-279"/>
</a>
</g>
</g>
<!-- Node8&#45;&gt;Node1 -->
<g id="edge10_Node000001_Node000008" class="edge">
<title>Node8&#45;&gt;Node1</title>
<g id="a_edge10_Node000001_Node000008"><a xlink:title=" ">
<path fill="none" stroke="#63b8ff" d="M507.5,-278.66C507.5,-245.72 507.5,-184.84 507.5,-136.14"/>
<polygon fill="none" stroke="#63b8ff" points="507.5,-136.05 503.5,-130.05 507.5,-124.05 511.5,-130.05 507.5,-136.05"/>
</a>
</g>
<text text-anchor="middle" x="520" y="-161.5" font-family="Helvetica,sans-Serif" font-size="10.00" fill="grey"> &#45;icm</text>
</g>
<!-- Node9 -->
<g id="Node000009" class="node">
<title>Node9</title>
<g id="a_Node000009"><a xlink:title=" ">
<polygon fill="white" stroke="transparent" points="673.5,-328 577.5,-328 577.5,-279 673.5,-279 673.5,-328"/>
<text text-anchor="start" x="582.5" y="-315.5" font-family="Helvetica,sans-Serif" font-size="10.00">Adafruit_Sensor *</text>
<text text-anchor="start" x="623.5" y="-300.5" font-family="Helvetica,sans-Serif" font-size="10.00"> </text>
<text text-anchor="start" x="623.5" y="-285.5" font-family="Helvetica,sans-Serif" font-size="10.00"> </text>
<polygon fill="#666666" stroke="#666666" points="577.5,-310.5 577.5,-310.5 673.5,-310.5 673.5,-310.5 577.5,-310.5"/>
<polygon fill="#666666" stroke="#666666" points="577.5,-295.5 577.5,-295.5 673.5,-295.5 673.5,-295.5 577.5,-295.5"/>
<polygon fill="none" stroke="#666666" points="577.5,-279 577.5,-328 673.5,-328 673.5,-279 577.5,-279"/>
</a>
</g>
</g>
<!-- Node9&#45;&gt;Node1 -->
<g id="edge11_Node000001_Node000009" class="edge">
<title>Node9&#45;&gt;Node1</title>
<g id="a_edge11_Node000001_Node000009"><a xlink:title=" ">
<path fill="none" stroke="#63b8ff" d="M613.75,-278.66C597.39,-245.44 567.02,-183.8 542.93,-134.9"/>
<polygon fill="none" stroke="#63b8ff" points="542.88,-134.81 536.64,-131.2 537.58,-124.05 543.82,-127.66 542.88,-134.81"/>
</a>
</g>
<text text-anchor="middle" x="594.5" y="-178" font-family="Helvetica,sans-Serif" font-size="10.00" fill="grey"> &#45;icm_accel</text>
<text text-anchor="middle" x="594.5" y="-167" font-family="Helvetica,sans-Serif" font-size="10.00" fill="grey">&#45;icm_gyro</text>
<text text-anchor="middle" x="594.5" y="-156" font-family="Helvetica,sans-Serif" font-size="10.00" fill="grey">&#45;icm_mag</text>
<text text-anchor="middle" x="594.5" y="-145" font-family="Helvetica,sans-Serif" font-size="10.00" fill="grey">&#45;icm_temp</text>
</g>
</g>
</svg>
