<?xml version="1.0" encoding="UTF-8" standalone="no"?>
<!DOCTYPE svg PUBLIC "-//W3C//DTD SVG 1.1//EN"
 "http://www.w3.org/Graphics/SVG/1.1/DTD/svg11.dtd">
<!-- Generated by graphviz version 2.43.0 (0)
 -->
<!-- Title: FlashStorage::verify Pages: 1 -->
<svg width="498pt" height="101pt"
 viewBox="0.00 0.00 498.00 101.00" xmlns="http://www.w3.org/2000/svg" xmlns:xlink="http://www.w3.org/1999/xlink">

<svg id="main" version="1.1" xmlns="http://www.w3.org/2000/svg" xmlns:xlink="http://www.w3.org/1999/xlink" xml:space="preserve" onload="init(evt)">
<style type="text/css"><![CDATA[
.node, .edge {opacity: 0.7;}
.node.selected, .edge.selected {opacity: 1;}
.edge:hover path { stroke: red; }
.edge:hover polygon { stroke: red; fill: red; }
]]></style>
<script type="application/ecmascript" xlink:href="svg.min.js"/>
<svg id="graph" class="graph">
<g id="graph0" class="graph" transform="scale(1 1) rotate(0) translate(4 97)">
<title>FlashStorage::verify</title>
<!-- Node1 -->
<g id="Node000001" class="node">
<title>Node1</title>
<g id="a_Node000001"><a xlink:title="Verifies the flash connection and prepares for data storage.">
<polygon fill="#999999" stroke="#666666" points="114,-56 0,-56 0,-37 114,-37 114,-56"/>
<text text-anchor="middle" x="57" y="-44" font-family="Helvetica,sans-Serif" font-size="10.00">FlashStorage::verify</text>
</a>
</g>
</g>
<!-- Node2 -->
<g id="Node000002" class="node">
<title>Node2</title>
<g id="a_Node000002"><a xlink:href="classFlashStorage.html#a959ed7240cf70430f05686720e1ead5a" target="_top" xlink:title="Locates the next available file block &amp; tracks existing files.">
<polygon fill="white" stroke="#666666" points="290,-56 150,-56 150,-37 290,-37 290,-56"/>
<text text-anchor="middle" x="220" y="-44" font-family="Helvetica,sans-Serif" font-size="10.00">FlashStorage::indexFlash</text>
</a>
</g>
</g>
<!-- Node1&#45;&gt;Node2 -->
<g id="edge1_Node000001_Node000002" class="edge">
<title>Node1&#45;&gt;Node2</title>
<g id="a_edge1_Node000001_Node000002"><a xlink:title=" ">
<path fill="none" stroke="#63b8ff" d="M114.31,-46.5C122.59,-46.5 131.24,-46.5 139.87,-46.5"/>
<polygon fill="#63b8ff" stroke="#63b8ff" points="139.97,-50 149.97,-46.5 139.97,-43 139.97,-50"/>
</a>
</g>
</g>
<!-- Node3 -->
<g id="Node000003" class="node">
<title>Node3</title>
<g id="a_Node000003"><a xlink:href="classFlashStorage.html#a97b10db97f42549e197feeff3f3f9abb" target="_top" xlink:title="Determines if the current sector is empty.">
<polygon fill="white" stroke="#666666" points="486.5,-93 329.5,-93 329.5,-74 486.5,-74 486.5,-93"/>
<text text-anchor="middle" x="408" y="-81" font-family="Helvetica,sans-Serif" font-size="10.00">FlashStorage::isSectorEmpty</text>
</a>
</g>
</g>
<!-- Node2&#45;&gt;Node3 -->
<g id="edge2_Node000002_Node000003" class="edge">
<title>Node2&#45;&gt;Node3</title>
<g id="a_edge2_Node000002_Node000003"><a xlink:title=" ">
<path fill="none" stroke="#63b8ff" d="M268.9,-56.03C293.32,-60.89 323.22,-66.83 348.94,-71.95"/>
<polygon fill="#63b8ff" stroke="#63b8ff" points="348.45,-75.42 358.94,-73.94 349.81,-68.56 348.45,-75.42"/>
</a>
</g>
</g>
<!-- Node4 -->
<g id="Node000004" class="node">
<title>Node4</title>
<g id="a_Node000004"><a xlink:href="classFlashStorage.html#aa64883a0b4aa2c9124d0be9b4722d729" target="_top" xlink:title="Determines if the first 4 bytes of a sector are a file header.">
<polygon fill="white" stroke="#666666" points="488.5,-56 327.5,-56 327.5,-37 488.5,-37 488.5,-56"/>
<text text-anchor="middle" x="408" y="-44" font-family="Helvetica,sans-Serif" font-size="10.00">FlashStorage::readFileHeader</text>
</a>
</g>
</g>
<!-- Node2&#45;&gt;Node4 -->
<g id="edge3_Node000002_Node000004" class="edge">
<title>Node2&#45;&gt;Node4</title>
<g id="a_edge3_Node000002_Node000004"><a xlink:title=" ">
<path fill="none" stroke="#63b8ff" d="M290.26,-46.5C299.04,-46.5 308.12,-46.5 317.17,-46.5"/>
<polygon fill="#63b8ff" stroke="#63b8ff" points="317.34,-50 327.34,-46.5 317.34,-43 317.34,-50"/>
</a>
</g>
</g>
<!-- Node5 -->
<g id="Node000005" class="node">
<title>Node5</title>
<g id="a_Node000005"><a xlink:href="classFlashStorage.html#a3f4de49bad97284528ebd5279abf3985" target="_top" xlink:title="Writes the file header to the start of a new sector.">
<polygon fill="white" stroke="#666666" points="490,-19 326,-19 326,0 490,0 490,-19"/>
<text text-anchor="middle" x="408" y="-7" font-family="Helvetica,sans-Serif" font-size="10.00">FlashStorage::writeFileHeader</text>
</a>
</g>
</g>
<!-- Node2&#45;&gt;Node5 -->
<g id="edge4_Node000002_Node000005" class="edge">
<title>Node2&#45;&gt;Node5</title>
<g id="a_edge4_Node000002_Node000005"><a xlink:title=" ">
<path fill="none" stroke="#63b8ff" d="M268.9,-36.97C293.32,-32.11 323.22,-26.17 348.94,-21.05"/>
<polygon fill="#63b8ff" stroke="#63b8ff" points="349.81,-24.44 358.94,-19.06 348.45,-17.58 349.81,-24.44"/>
</a>
</g>
</g>
</g>
</svg>
</svg>

<style type='text/css'>
<![CDATA[
[data-mouse-over-selected='false'] { opacity: 0.7; }
[data-mouse-over-selected='true']  { opacity: 1.0; }
]]>
</style>
<script type="application/ecmascript"><![CDATA[
document.addEventListener('DOMContentLoaded', (event) => {
  highlightEdges();
  highlightAdjacentNodes();
});
]]></script>
</svg>
