<?xml version="1.0" encoding="UTF-8" standalone="no"?>
<!DOCTYPE svg PUBLIC "-//W3C//DTD SVG 1.1//EN"
 "http://www.w3.org/Graphics/SVG/1.1/DTD/svg11.dtd">
<!-- Generated by graphviz version 2.43.0 (0)
 -->
<!-- Title: PCF8523Sensor Pages: 1 -->
<svg width="264pt" height="481pt"
 viewBox="0.00 0.00 264.00 481.00" xmlns="http://www.w3.org/2000/svg" xmlns:xlink="http://www.w3.org/1999/xlink">
<g id="graph0" class="graph" transform="scale(1 1) rotate(0) translate(4 477)">
<title>PCF8523Sensor</title>
<!-- Node1 -->
<g id="Node000001" class="node">
<title>Node1</title>
<g id="a_Node000001"><a xlink:title=" ">
<polygon fill="#999999" stroke="transparent" points="239,-109 134,-109 134,0 239,0 239,-109"/>
<text text-anchor="start" x="149" y="-96.5" font-family="Helvetica,sans-Serif" font-size="10.00">PCF8523Sensor</text>
<text text-anchor="start" x="185" y="-81.5" font-family="Helvetica,sans-Serif" font-size="10.00"> </text>
<text text-anchor="start" x="138.5" y="-66.5" font-family="Helvetica,sans-Serif" font-size="10.00">+</text>
<text text-anchor="start" x="151.5" y="-66.5" font-family="Helvetica,sans-Serif" font-size="10.00">PCF8523Sensor()</text>
<text text-anchor="start" x="138.5" y="-51.5" font-family="Helvetica,sans-Serif" font-size="10.00">+</text>
<text text-anchor="start" x="151.5" y="-51.5" font-family="Helvetica,sans-Serif" font-size="10.00">PCF8523Sensor()</text>
<text text-anchor="start" x="138.5" y="-36.5" font-family="Helvetica,sans-Serif" font-size="10.00">+</text>
<text text-anchor="start" x="151.5" y="-36.5" font-family="Helvetica,sans-Serif" font-size="10.00">verify()</text>
<text text-anchor="start" x="138.5" y="-21.5" font-family="Helvetica,sans-Serif" font-size="10.00">+</text>
<text text-anchor="start" x="151.5" y="-21.5" font-family="Helvetica,sans-Serif" font-size="10.00">readData()</text>
<text text-anchor="start" x="138.5" y="-6.5" font-family="Helvetica,sans-Serif" font-size="10.00">+</text>
<text text-anchor="start" x="151.5" y="-6.5" font-family="Helvetica,sans-Serif" font-size="10.00">calibrate()</text>
<polygon fill="#666666" stroke="#666666" points="134.5,-91.5 134.5,-91.5 239.5,-91.5 239.5,-91.5 134.5,-91.5"/>
<polygon fill="#666666" stroke="#666666" points="134.5,-76.5 134.5,-76.5 239.5,-76.5 239.5,-76.5 134.5,-76.5"/>
<polygon fill="none" stroke="#666666" points="134,0 134,-109 239,-109 239,0 134,0"/>
</a>
</g>
</g>
<!-- Node2 -->
<g id="Node000002" class="node">
<title>Node2</title>
<g id="a_Node000002"><a xlink:href="classSensor.html" target="_top" xlink:title="Parent class for sensor objects.">
<polygon fill="white" stroke="transparent" points="161,-355 28,-355 28,-156 161,-156 161,-355"/>
<text text-anchor="start" x="78" y="-342.5" font-family="Helvetica,sans-Serif" font-size="10.00">Sensor</text>
<text text-anchor="start" x="93" y="-327.5" font-family="Helvetica,sans-Serif" font-size="10.00"> </text>
<text text-anchor="start" x="32.5" y="-312.5" font-family="Helvetica,sans-Serif" font-size="10.00">+</text>
<text text-anchor="start" x="45.5" y="-312.5" font-family="Helvetica,sans-Serif" font-size="10.00">Sensor()</text>
<text text-anchor="start" x="32.5" y="-297.5" font-family="Helvetica,sans-Serif" font-size="10.00">+</text>
<text text-anchor="start" x="45.5" y="-297.5" font-family="Helvetica,sans-Serif" font-size="10.00">Sensor()</text>
<text text-anchor="start" x="32.5" y="-282.5" font-family="Helvetica,sans-Serif" font-size="10.00">+</text>
<text text-anchor="start" x="45.5" y="-282.5" font-family="Helvetica,sans-Serif" font-size="10.00">Sensor()</text>
<text text-anchor="start" x="32.5" y="-267.5" font-family="Helvetica,sans-Serif" font-size="10.00">+</text>
<text text-anchor="start" x="45.5" y="-267.5" font-family="Helvetica,sans-Serif" font-size="10.00">Sensor()</text>
<text text-anchor="start" x="32.5" y="-252.5" font-family="Helvetica,sans-Serif" font-size="10.00">+</text>
<text text-anchor="start" x="45.5" y="-252.5" font-family="Helvetica,sans-Serif" font-size="10.00">getPeriod()</text>
<text text-anchor="start" x="32.5" y="-237.5" font-family="Helvetica,sans-Serif" font-size="10.00">+</text>
<text text-anchor="start" x="45.5" y="-237.5" font-family="Helvetica,sans-Serif" font-size="10.00">setPeriod()</text>
<text text-anchor="start" x="32.5" y="-222.5" font-family="Helvetica,sans-Serif" font-size="10.00">+</text>
<text text-anchor="start" x="45.5" y="-222.5" font-family="Helvetica,sans-Serif" font-size="10.00">getLastExecution()</text>
<text text-anchor="start" x="32.5" y="-207.5" font-family="Helvetica,sans-Serif" font-size="10.00">+</text>
<text text-anchor="start" x="45.5" y="-207.5" font-family="Helvetica,sans-Serif" font-size="10.00">setLastExecution()</text>
<text text-anchor="start" x="32.5" y="-192.5" font-family="Helvetica,sans-Serif" font-size="10.00">+</text>
<text text-anchor="start" x="45.5" y="-192.5" font-family="Helvetica,sans-Serif" font-size="10.00">getSensorName()</text>
<text text-anchor="start" x="32.5" y="-177.5" font-family="Helvetica,sans-Serif" font-size="10.00">+</text>
<text text-anchor="start" x="45.5" y="-177.5" font-family="Helvetica,sans-Serif" font-size="10.00">getSensorCSVHeader()</text>
<text text-anchor="start" x="45.5" y="-162.5" font-family="Helvetica,sans-Serif" font-size="10.00">and 7 more...</text>
<polygon fill="#666666" stroke="#666666" points="28.5,-337.5 28.5,-337.5 161.5,-337.5 161.5,-337.5 28.5,-337.5"/>
<polygon fill="#666666" stroke="#666666" points="28.5,-322.5 28.5,-322.5 161.5,-322.5 161.5,-322.5 28.5,-322.5"/>
<polygon fill="none" stroke="#666666" points="28,-156 28,-355 161,-355 161,-156 28,-156"/>
</a>
</g>
</g>
<!-- Node2&#45;&gt;Node1 -->
<g id="edge1_Node000001_Node000002" class="edge">
<title>Node2&#45;&gt;Node1</title>
<g id="a_edge1_Node000001_Node000002"><a xlink:title=" ">
<path fill="none" stroke="#63b8ff" d="M144.46,-146.43C150.44,-133.5 156.33,-120.76 161.72,-109.1"/>
<polygon fill="none" stroke="#63b8ff" points="141.12,-145.33 140.1,-155.87 147.47,-148.27 141.12,-145.33"/>
</a>
</g>
</g>
<!-- Node3 -->
<g id="Node000003" class="node">
<title>Node3</title>
<g id="a_Node000003"><a xlink:title=" ">
<polygon fill="white" stroke="transparent" points="79,-473 0,-473 0,-424 79,-424 79,-473"/>
<text text-anchor="start" x="5.5" y="-460.5" font-family="Helvetica,sans-Serif" font-size="10.00">unsigned long</text>
<text text-anchor="start" x="38" y="-445.5" font-family="Helvetica,sans-Serif" font-size="10.00"> </text>
<text text-anchor="start" x="38" y="-430.5" font-family="Helvetica,sans-Serif" font-size="10.00"> </text>
<polygon fill="#666666" stroke="#666666" points="0.5,-455.5 0.5,-455.5 79.5,-455.5 79.5,-455.5 0.5,-455.5"/>
<polygon fill="#666666" stroke="#666666" points="0.5,-440.5 0.5,-440.5 79.5,-440.5 79.5,-440.5 0.5,-440.5"/>
<polygon fill="none" stroke="#666666" points="0,-424 0,-473 79,-473 79,-424 0,-424"/>
</a>
</g>
</g>
<!-- Node3&#45;&gt;Node2 -->
<g id="edge2_Node000002_Node000003" class="edge">
<title>Node3&#45;&gt;Node2</title>
<g id="a_edge2_Node000002_Node000003"><a xlink:title=" ">
<path fill="none" stroke="#63b8ff" d="M37.31,-423.71C36.56,-408.94 36.71,-389.65 40.5,-373 40.96,-370.98 41.46,-368.96 41.99,-366.93"/>
<polygon fill="none" stroke="#63b8ff" points="42.02,-366.82 39.86,-359.94 45.38,-355.3 47.54,-362.18 42.02,-366.82"/>
</a>
</g>
<text text-anchor="middle" x="84.5" y="-392.5" font-family="Helvetica,sans-Serif" font-size="10.00" fill="grey"> &#45;last_execution</text>
<text text-anchor="middle" x="84.5" y="-381.5" font-family="Helvetica,sans-Serif" font-size="10.00" fill="grey">&#45;minimum_period</text>
</g>
<!-- Node4 -->
<g id="Node000004" class="node">
<title>Node4</title>
<g id="a_Node000004"><a xlink:title=" ">
<polygon fill="white" stroke="transparent" points="170,-473 131,-473 131,-424 170,-424 170,-473"/>
<text text-anchor="start" x="136.5" y="-460.5" font-family="Helvetica,sans-Serif" font-size="10.00">String</text>
<text text-anchor="start" x="149" y="-445.5" font-family="Helvetica,sans-Serif" font-size="10.00"> </text>
<text text-anchor="start" x="149" y="-430.5" font-family="Helvetica,sans-Serif" font-size="10.00"> </text>
<polygon fill="#666666" stroke="#666666" points="131.5,-455.5 131.5,-455.5 170.5,-455.5 170.5,-455.5 131.5,-455.5"/>
<polygon fill="#666666" stroke="#666666" points="131.5,-440.5 131.5,-440.5 170.5,-440.5 170.5,-440.5 131.5,-440.5"/>
<polygon fill="none" stroke="#666666" points="131,-424 131,-473 170,-473 170,-424 131,-424"/>
</a>
</g>
</g>
<!-- Node4&#45;&gt;Node2 -->
<g id="edge3_Node000002_Node000004" class="edge">
<title>Node4&#45;&gt;Node2</title>
<g id="a_edge3_Node000002_Node000004"><a xlink:title=" ">
<path fill="none" stroke="#63b8ff" d="M143.52,-423.7C139.15,-408.78 133.16,-388.36 126.87,-366.91"/>
<polygon fill="none" stroke="#63b8ff" points="126.83,-366.78 121.31,-362.15 123.46,-355.27 128.99,-359.9 126.83,-366.78"/>
</a>
</g>
<text text-anchor="middle" x="172.5" y="-398" font-family="Helvetica,sans-Serif" font-size="10.00" fill="grey"> &#45;csv_header</text>
<text text-anchor="middle" x="172.5" y="-387" font-family="Helvetica,sans-Serif" font-size="10.00" fill="grey">&#45;empty_csv</text>
<text text-anchor="middle" x="172.5" y="-376" font-family="Helvetica,sans-Serif" font-size="10.00" fill="grey">&#45;sensor_name</text>
</g>
<!-- Node5 -->
<g id="Node000005" class="node">
<title>Node5</title>
<g id="a_Node000005"><a xlink:title=" ">
<polygon fill="white" stroke="transparent" points="256,-280 179,-280 179,-231 256,-231 256,-280"/>
<text text-anchor="start" x="184.5" y="-267.5" font-family="Helvetica,sans-Serif" font-size="10.00">RTC_PCF8523</text>
<text text-anchor="start" x="216" y="-252.5" font-family="Helvetica,sans-Serif" font-size="10.00"> </text>
<text text-anchor="start" x="216" y="-237.5" font-family="Helvetica,sans-Serif" font-size="10.00"> </text>
<polygon fill="#666666" stroke="#666666" points="179.5,-262.5 179.5,-262.5 256.5,-262.5 256.5,-262.5 179.5,-262.5"/>
<polygon fill="#666666" stroke="#666666" points="179.5,-247.5 179.5,-247.5 256.5,-247.5 256.5,-247.5 179.5,-247.5"/>
<polygon fill="none" stroke="#666666" points="179,-231 179,-280 256,-280 256,-231 179,-231"/>
</a>
</g>
</g>
<!-- Node5&#45;&gt;Node1 -->
<g id="edge4_Node000001_Node000005" class="edge">
<title>Node5&#45;&gt;Node1</title>
<g id="a_edge4_Node000001_Node000005"><a xlink:title=" ">
<path fill="none" stroke="#63b8ff" d="M213.82,-230.89C209.64,-204.04 202.63,-159.04 196.76,-121.35"/>
<polygon fill="none" stroke="#63b8ff" points="196.74,-121.26 191.87,-115.94 194.9,-109.4 199.77,-114.71 196.74,-121.26"/>
</a>
</g>
<text text-anchor="middle" x="208.5" y="-130" font-family="Helvetica,sans-Serif" font-size="10.00" fill="grey"> &#45;rtc</text>
</g>
</g>
</svg>
