<?xml version="1.0" encoding="UTF-8" standalone="no"?>
<!DOCTYPE svg PUBLIC "-//W3C//DTD SVG 1.1//EN"
 "http://www.w3.org/Graphics/SVG/1.1/DTD/svg11.dtd">
<!-- Generated by graphviz version 2.43.0 (0)
 -->
<!-- Title: SCD40Sensor Pages: 1 -->
<svg width="641pt" height="766pt"
 viewBox="0.00 0.00 640.50 766.00" xmlns="http://www.w3.org/2000/svg" xmlns:xlink="http://www.w3.org/1999/xlink">
<g id="graph0" class="graph" transform="scale(1 1) rotate(0) translate(4 762)">
<title>SCD40Sensor</title>
<!-- Node1 -->
<g id="Node000001" class="node">
<title>Node1</title>
<g id="a_Node000001"><a xlink:title="A class to interface with the Sensirion SCD40 sensor for CO2 data collection.">
<polygon fill="#999999" stroke="transparent" points="557.5,-124 451.5,-124 451.5,0 557.5,0 557.5,-124"/>
<text text-anchor="start" x="471.5" y="-112" font-family="Helvetica,sans-Serif" font-size="10.00">SCD40Sensor</text>
<text text-anchor="start" x="502.5" y="-97" font-family="Helvetica,sans-Serif" font-size="10.00"> </text>
<text text-anchor="start" x="455.5" y="-82" font-family="Helvetica,sans-Serif" font-size="10.00">+</text>
<text text-anchor="start" x="468.5" y="-82" font-family="Helvetica,sans-Serif" font-size="10.00">SCD40Sensor()</text>
<text text-anchor="start" x="455.5" y="-67" font-family="Helvetica,sans-Serif" font-size="10.00">+</text>
<text text-anchor="start" x="468.5" y="-67" font-family="Helvetica,sans-Serif" font-size="10.00">SCD40Sensor()</text>
<text text-anchor="start" x="455.5" y="-52" font-family="Helvetica,sans-Serif" font-size="10.00">+</text>
<text text-anchor="start" x="468.5" y="-52" font-family="Helvetica,sans-Serif" font-size="10.00">verify()</text>
<text text-anchor="start" x="455.5" y="-37" font-family="Helvetica,sans-Serif" font-size="10.00">+</text>
<text text-anchor="start" x="468.5" y="-37" font-family="Helvetica,sans-Serif" font-size="10.00">readData()</text>
<text text-anchor="start" x="455.5" y="-22" font-family="Helvetica,sans-Serif" font-size="10.00">+</text>
<text text-anchor="start" x="468.5" y="-22" font-family="Helvetica,sans-Serif" font-size="10.00">readDataPacket()</text>
<text text-anchor="start" x="455.5" y="-7" font-family="Helvetica,sans-Serif" font-size="10.00">+</text>
<text text-anchor="start" x="468.5" y="-7" font-family="Helvetica,sans-Serif" font-size="10.00">decodeToCSV()</text>
<polygon fill="#666666" stroke="#666666" points="451.5,-107 451.5,-107 557.5,-107 557.5,-107 451.5,-107"/>
<polygon fill="#666666" stroke="#666666" points="451.5,-92 451.5,-92 557.5,-92 557.5,-92 451.5,-92"/>
<polygon fill="none" stroke="#666666" points="451.5,0 451.5,-124 557.5,-124 557.5,0 451.5,0"/>
</a>
</g>
</g>
<!-- Node2 -->
<g id="Node000002" class="node">
<title>Node2</title>
<g id="a_Node000002"><a xlink:href="classSensor.html" target="_top" xlink:title="Parent class for sensor objects.">
<polygon fill="white" stroke="transparent" points="437,-445 304,-445 304,-171 437,-171 437,-445"/>
<text text-anchor="start" x="354" y="-433" font-family="Helvetica,sans-Serif" font-size="10.00">Sensor</text>
<text text-anchor="start" x="369" y="-418" font-family="Helvetica,sans-Serif" font-size="10.00"> </text>
<text text-anchor="start" x="308.5" y="-403" font-family="Helvetica,sans-Serif" font-size="10.00">+</text>
<text text-anchor="start" x="321.5" y="-403" font-family="Helvetica,sans-Serif" font-size="10.00">Sensor()</text>
<text text-anchor="start" x="308.5" y="-388" font-family="Helvetica,sans-Serif" font-size="10.00">+</text>
<text text-anchor="start" x="321.5" y="-388" font-family="Helvetica,sans-Serif" font-size="10.00">Sensor()</text>
<text text-anchor="start" x="308.5" y="-373" font-family="Helvetica,sans-Serif" font-size="10.00">+</text>
<text text-anchor="start" x="321.5" y="-373" font-family="Helvetica,sans-Serif" font-size="10.00">Sensor()</text>
<text text-anchor="start" x="308.5" y="-358" font-family="Helvetica,sans-Serif" font-size="10.00">+</text>
<text text-anchor="start" x="321.5" y="-358" font-family="Helvetica,sans-Serif" font-size="10.00">Sensor()</text>
<text text-anchor="start" x="308.5" y="-343" font-family="Helvetica,sans-Serif" font-size="10.00">+</text>
<text text-anchor="start" x="321.5" y="-343" font-family="Helvetica,sans-Serif" font-size="10.00">getPeriod()</text>
<text text-anchor="start" x="308.5" y="-328" font-family="Helvetica,sans-Serif" font-size="10.00">+</text>
<text text-anchor="start" x="321.5" y="-328" font-family="Helvetica,sans-Serif" font-size="10.00">setPeriod()</text>
<text text-anchor="start" x="308.5" y="-313" font-family="Helvetica,sans-Serif" font-size="10.00">+</text>
<text text-anchor="start" x="321.5" y="-313" font-family="Helvetica,sans-Serif" font-size="10.00">getLastExecution()</text>
<text text-anchor="start" x="308.5" y="-298" font-family="Helvetica,sans-Serif" font-size="10.00">+</text>
<text text-anchor="start" x="321.5" y="-298" font-family="Helvetica,sans-Serif" font-size="10.00">setLastExecution()</text>
<text text-anchor="start" x="308.5" y="-283" font-family="Helvetica,sans-Serif" font-size="10.00">+</text>
<text text-anchor="start" x="321.5" y="-283" font-family="Helvetica,sans-Serif" font-size="10.00">getSensorCSVHeader()</text>
<text text-anchor="start" x="308.5" y="-268" font-family="Helvetica,sans-Serif" font-size="10.00">+</text>
<text text-anchor="start" x="321.5" y="-268" font-family="Helvetica,sans-Serif" font-size="10.00">verify()</text>
<text text-anchor="start" x="308.5" y="-253" font-family="Helvetica,sans-Serif" font-size="10.00">+</text>
<text text-anchor="start" x="321.5" y="-253" font-family="Helvetica,sans-Serif" font-size="10.00">readData()</text>
<text text-anchor="start" x="308.5" y="-238" font-family="Helvetica,sans-Serif" font-size="10.00">+</text>
<text text-anchor="start" x="321.5" y="-238" font-family="Helvetica,sans-Serif" font-size="10.00">readDataPacket()</text>
<text text-anchor="start" x="308.5" y="-223" font-family="Helvetica,sans-Serif" font-size="10.00">+</text>
<text text-anchor="start" x="321.5" y="-223" font-family="Helvetica,sans-Serif" font-size="10.00">decodeToCSV()</text>
<text text-anchor="start" x="308.5" y="-208" font-family="Helvetica,sans-Serif" font-size="10.00">+</text>
<text text-anchor="start" x="321.5" y="-208" font-family="Helvetica,sans-Serif" font-size="10.00">getDataPacket()</text>
<text text-anchor="start" x="308.5" y="-193" font-family="Helvetica,sans-Serif" font-size="10.00">+</text>
<text text-anchor="start" x="321.5" y="-193" font-family="Helvetica,sans-Serif" font-size="10.00">readEmpty()</text>
<text text-anchor="start" x="308.5" y="-178" font-family="Helvetica,sans-Serif" font-size="10.00">+</text>
<text text-anchor="start" x="321.5" y="-178" font-family="Helvetica,sans-Serif" font-size="10.00">getDataCSV()</text>
<polygon fill="#666666" stroke="#666666" points="304.5,-428 304.5,-428 437.5,-428 437.5,-428 304.5,-428"/>
<polygon fill="#666666" stroke="#666666" points="304.5,-413 304.5,-413 437.5,-413 437.5,-413 304.5,-413"/>
<polygon fill="none" stroke="#666666" points="304,-171 304,-445 437,-445 437,-171 304,-171"/>
</a>
</g>
</g>
<!-- Node2&#45;&gt;Node1 -->
<g id="edge1_Node000001_Node000002" class="edge">
<title>Node2&#45;&gt;Node1</title>
<g id="a_edge1_Node000001_Node000002"><a xlink:title=" ">
<path fill="none" stroke="#63b8ff" d="M441.93,-176.94C452.06,-158.49 462.05,-140.29 470.98,-124.04"/>
<polygon fill="none" stroke="#63b8ff" points="438.85,-175.26 437.11,-185.71 444.99,-178.63 438.85,-175.26"/>
</a>
</g>
</g>
<!-- Node3 -->
<g id="Node000003" class="node">
<title>Node3</title>
<g id="a_Node000003"><a xlink:href="classDevice.html" target="_top" xlink:title="Implements the recovery system for Sensor and Storage objects.">
<polygon fill="white" stroke="transparent" points="282,-651 159,-651 159,-482 282,-482 282,-651"/>
<text text-anchor="start" x="204" y="-638.5" font-family="Helvetica,sans-Serif" font-size="10.00">Device</text>
<text text-anchor="start" x="219" y="-623.5" font-family="Helvetica,sans-Serif" font-size="10.00"> </text>
<text text-anchor="start" x="163.5" y="-608.5" font-family="Helvetica,sans-Serif" font-size="10.00">+</text>
<text text-anchor="start" x="176.5" y="-608.5" font-family="Helvetica,sans-Serif" font-size="10.00">Device()</text>
<text text-anchor="start" x="163.5" y="-593.5" font-family="Helvetica,sans-Serif" font-size="10.00">+</text>
<text text-anchor="start" x="176.5" y="-593.5" font-family="Helvetica,sans-Serif" font-size="10.00">Device()</text>
<text text-anchor="start" x="163.5" y="-578.5" font-family="Helvetica,sans-Serif" font-size="10.00">+</text>
<text text-anchor="start" x="176.5" y="-578.5" font-family="Helvetica,sans-Serif" font-size="10.00">getDeviceName()</text>
<text text-anchor="start" x="163.5" y="-563.5" font-family="Helvetica,sans-Serif" font-size="10.00">+</text>
<text text-anchor="start" x="176.5" y="-563.5" font-family="Helvetica,sans-Serif" font-size="10.00">verify()</text>
<text text-anchor="start" x="163.5" y="-548.5" font-family="Helvetica,sans-Serif" font-size="10.00">+</text>
<text text-anchor="start" x="176.5" y="-548.5" font-family="Helvetica,sans-Serif" font-size="10.00">getVerified()</text>
<text text-anchor="start" x="163.5" y="-533.5" font-family="Helvetica,sans-Serif" font-size="10.00">+</text>
<text text-anchor="start" x="176.5" y="-533.5" font-family="Helvetica,sans-Serif" font-size="10.00">recoveryConfig()</text>
<text text-anchor="start" x="163.5" y="-518.5" font-family="Helvetica,sans-Serif" font-size="10.00">+</text>
<text text-anchor="start" x="176.5" y="-518.5" font-family="Helvetica,sans-Serif" font-size="10.00">setWaitFactor()</text>
<text text-anchor="start" x="163.5" y="-503.5" font-family="Helvetica,sans-Serif" font-size="10.00">+</text>
<text text-anchor="start" x="176.5" y="-503.5" font-family="Helvetica,sans-Serif" font-size="10.00">setMaxAttempts()</text>
<text text-anchor="start" x="163.5" y="-488.5" font-family="Helvetica,sans-Serif" font-size="10.00">+</text>
<text text-anchor="start" x="176.5" y="-488.5" font-family="Helvetica,sans-Serif" font-size="10.00">attemptConnection()</text>
<polygon fill="#666666" stroke="#666666" points="159.5,-633.5 159.5,-633.5 282.5,-633.5 282.5,-633.5 159.5,-633.5"/>
<polygon fill="#666666" stroke="#666666" points="159.5,-618.5 159.5,-618.5 282.5,-618.5 282.5,-618.5 159.5,-618.5"/>
<polygon fill="none" stroke="#666666" points="159,-482 159,-651 282,-651 282,-482 159,-482"/>
</a>
</g>
</g>
<!-- Node3&#45;&gt;Node2 -->
<g id="edge2_Node000002_Node000003" class="edge">
<title>Node3&#45;&gt;Node2</title>
<g id="a_edge2_Node000002_Node000003"><a xlink:title=" ">
<path fill="none" stroke="#63b8ff" d="M274.64,-472.93C284.15,-456.67 294.14,-439.58 303.94,-422.82"/>
<polygon fill="none" stroke="#63b8ff" points="271.43,-471.47 269.41,-481.87 277.48,-475 271.43,-471.47"/>
</a>
</g>
</g>
<!-- Node4 -->
<g id="Node000004" class="node">
<title>Node4</title>
<g id="a_Node000004"><a xlink:title=" ">
<polygon fill="white" stroke="transparent" points="79,-758 0,-758 0,-709 79,-709 79,-758"/>
<text text-anchor="start" x="5.5" y="-745.5" font-family="Helvetica,sans-Serif" font-size="10.00">unsigned long</text>
<text text-anchor="start" x="38" y="-730.5" font-family="Helvetica,sans-Serif" font-size="10.00"> </text>
<text text-anchor="start" x="38" y="-715.5" font-family="Helvetica,sans-Serif" font-size="10.00"> </text>
<polygon fill="#666666" stroke="#666666" points="0.5,-740.5 0.5,-740.5 79.5,-740.5 79.5,-740.5 0.5,-740.5"/>
<polygon fill="#666666" stroke="#666666" points="0.5,-725.5 0.5,-725.5 79.5,-725.5 79.5,-725.5 0.5,-725.5"/>
<polygon fill="none" stroke="#666666" points="0,-709 0,-758 79,-758 79,-709 0,-709"/>
</a>
</g>
</g>
<!-- Node4&#45;&gt;Node2 -->
<g id="edge7_Node000002_Node000004" class="edge">
<title>Node4&#45;&gt;Node2</title>
<g id="a_edge7_Node000002_Node000004"><a xlink:title=" ">
<path fill="none" stroke="#63b8ff" d="M34.78,-708.79C26.71,-661.41 15.27,-553.49 61.5,-482 114.15,-400.57 219.22,-353.81 292.12,-329.91"/>
<polygon fill="none" stroke="#63b8ff" points="292.55,-329.77 297.05,-324.14 303.99,-326.13 299.48,-331.76 292.55,-329.77"/>
</a>
</g>
<text text-anchor="middle" x="105.5" y="-569.5" font-family="Helvetica,sans-Serif" font-size="10.00" fill="grey"> &#45;last_execution</text>
<text text-anchor="middle" x="105.5" y="-558.5" font-family="Helvetica,sans-Serif" font-size="10.00" fill="grey">&#45;minimum_period</text>
</g>
<!-- Node4&#45;&gt;Node3 -->
<g id="edge3_Node000003_Node000004" class="edge">
<title>Node4&#45;&gt;Node3</title>
<g id="a_edge3_Node000003_Node000004"><a xlink:title=" ">
<path fill="none" stroke="#63b8ff" d="M52.87,-708.96C60.92,-696.14 72.01,-680.57 84.5,-669 95.91,-658.43 101.7,-659.83 114.5,-651 126.03,-643.05 137.95,-634.26 149.45,-625.46"/>
<polygon fill="none" stroke="#63b8ff" points="149.5,-625.42 151.8,-618.58 159,-618.08 156.7,-624.91 149.5,-625.42"/>
</a>
</g>
<text text-anchor="middle" x="119.5" y="-683" font-family="Helvetica,sans-Serif" font-size="10.00" fill="grey"> &#45;last_attempt</text>
<text text-anchor="middle" x="119.5" y="-672" font-family="Helvetica,sans-Serif" font-size="10.00" fill="grey">&#45;wait_factor</text>
</g>
<!-- Node5 -->
<g id="Node000005" class="node">
<title>Node5</title>
<g id="a_Node000005"><a xlink:title=" ">
<polygon fill="white" stroke="transparent" points="263,-758 240,-758 240,-709 263,-709 263,-758"/>
<text text-anchor="start" x="245.5" y="-745.5" font-family="Helvetica,sans-Serif" font-size="10.00">int</text>
<text text-anchor="start" x="250" y="-730.5" font-family="Helvetica,sans-Serif" font-size="10.00"> </text>
<text text-anchor="start" x="250" y="-715.5" font-family="Helvetica,sans-Serif" font-size="10.00"> </text>
<polygon fill="#666666" stroke="#666666" points="240.5,-740.5 240.5,-740.5 263.5,-740.5 263.5,-740.5 240.5,-740.5"/>
<polygon fill="#666666" stroke="#666666" points="240.5,-725.5 240.5,-725.5 263.5,-725.5 263.5,-725.5 240.5,-725.5"/>
<polygon fill="none" stroke="#666666" points="240,-709 240,-758 263,-758 263,-709 240,-709"/>
</a>
</g>
</g>
<!-- Node5&#45;&gt;Node2 -->
<g id="edge9_Node000002_Node000005" class="edge">
<title>Node5&#45;&gt;Node2</title>
<g id="a_edge9_Node000002_Node000005"><a xlink:title=" ">
<path fill="none" stroke="#63b8ff" d="M263.46,-731.15C296.68,-727.14 388.78,-714.09 406.5,-691 420.92,-672.21 408.21,-556.4 394.06,-457.17"/>
<polygon fill="none" stroke="#63b8ff" points="394.04,-457.04 389.22,-451.67 392.33,-445.16 397.14,-450.53 394.04,-457.04"/>
</a>
</g>
<text text-anchor="middle" x="446" y="-564" font-family="Helvetica,sans-Serif" font-size="10.00" fill="grey"> #num_fields</text>
</g>
<!-- Node5&#45;&gt;Node3 -->
<g id="edge4_Node000003_Node000005" class="edge">
<title>Node5&#45;&gt;Node3</title>
<g id="a_edge4_Node000003_Node000005"><a xlink:title=" ">
<path fill="none" stroke="#63b8ff" d="M239.78,-720.57C233.02,-712.84 225.16,-702.15 221.5,-691 218.59,-682.12 216.64,-672.68 215.41,-663.13"/>
<polygon fill="none" stroke="#63b8ff" points="215.39,-662.96 210.82,-657.38 214.21,-651.02 218.78,-656.59 215.39,-662.96"/>
</a>
</g>
<text text-anchor="middle" x="266" y="-683" font-family="Helvetica,sans-Serif" font-size="10.00" fill="grey"> &#45;attempt_number</text>
<text text-anchor="middle" x="266" y="-672" font-family="Helvetica,sans-Serif" font-size="10.00" fill="grey">&#45;max_attempts</text>
</g>
<!-- Node6 -->
<g id="Node000006" class="node">
<title>Node6</title>
<g id="a_Node000006"><a xlink:title=" ">
<polygon fill="white" stroke="transparent" points="446,-758 407,-758 407,-709 446,-709 446,-758"/>
<text text-anchor="start" x="412.5" y="-745.5" font-family="Helvetica,sans-Serif" font-size="10.00">String</text>
<text text-anchor="start" x="425" y="-730.5" font-family="Helvetica,sans-Serif" font-size="10.00"> </text>
<text text-anchor="start" x="425" y="-715.5" font-family="Helvetica,sans-Serif" font-size="10.00"> </text>
<polygon fill="#666666" stroke="#666666" points="407.5,-740.5 407.5,-740.5 446.5,-740.5 446.5,-740.5 407.5,-740.5"/>
<polygon fill="#666666" stroke="#666666" points="407.5,-725.5 407.5,-725.5 446.5,-725.5 446.5,-725.5 407.5,-725.5"/>
<polygon fill="none" stroke="#666666" points="407,-709 407,-758 446,-758 446,-709 407,-709"/>
</a>
</g>
</g>
<!-- Node6&#45;&gt;Node2 -->
<g id="edge8_Node000002_Node000006" class="edge">
<title>Node6&#45;&gt;Node2</title>
<g id="a_edge8_Node000002_Node000006"><a xlink:title=" ">
<path fill="none" stroke="#63b8ff" d="M446.11,-714.6C461.23,-699.37 480.95,-676.05 489.5,-651 513.77,-579.92 521.21,-550.09 489.5,-482 478.71,-458.84 461.72,-464.74 445.5,-445 445.24,-444.68 444.97,-444.35 444.71,-444.03"/>
<polygon fill="none" stroke="#63b8ff" points="444.55,-443.83 437.71,-441.54 437.19,-434.35 444.03,-436.64 444.55,-443.83"/>
</a>
</g>
<text text-anchor="middle" x="543" y="-569.5" font-family="Helvetica,sans-Serif" font-size="10.00" fill="grey"> &#45;csv_header</text>
<text text-anchor="middle" x="543" y="-558.5" font-family="Helvetica,sans-Serif" font-size="10.00" fill="grey">&#45;empty_csv</text>
</g>
<!-- Node6&#45;&gt;Node3 -->
<g id="edge5_Node000003_Node000006" class="edge">
<title>Node6&#45;&gt;Node3</title>
<g id="a_edge5_Node000003_Node000006"><a xlink:title=" ">
<path fill="none" stroke="#63b8ff" d="M406.75,-716.68C380.46,-695.62 332.55,-657.25 291.91,-624.7"/>
<polygon fill="none" stroke="#63b8ff" points="291.66,-624.5 284.48,-623.87 282.29,-616.99 289.48,-617.62 291.66,-624.5"/>
</a>
</g>
<text text-anchor="middle" x="408" y="-677.5" font-family="Helvetica,sans-Serif" font-size="10.00" fill="grey"> &#45;device_name</text>
</g>
<!-- Node7 -->
<g id="Node000007" class="node">
<title>Node7</title>
<g id="a_Node000007"><a xlink:title=" ">
<polygon fill="white" stroke="transparent" points="164.5,-758 132.5,-758 132.5,-709 164.5,-709 164.5,-758"/>
<text text-anchor="start" x="137.5" y="-745.5" font-family="Helvetica,sans-Serif" font-size="10.00">bool</text>
<text text-anchor="start" x="146.5" y="-730.5" font-family="Helvetica,sans-Serif" font-size="10.00"> </text>
<text text-anchor="start" x="146.5" y="-715.5" font-family="Helvetica,sans-Serif" font-size="10.00"> </text>
<polygon fill="#666666" stroke="#666666" points="132.5,-740.5 132.5,-740.5 164.5,-740.5 164.5,-740.5 132.5,-740.5"/>
<polygon fill="#666666" stroke="#666666" points="132.5,-725.5 132.5,-725.5 164.5,-725.5 164.5,-725.5 132.5,-725.5"/>
<polygon fill="none" stroke="#666666" points="132.5,-709 132.5,-758 164.5,-758 164.5,-709 132.5,-709"/>
</a>
</g>
</g>
<!-- Node7&#45;&gt;Node3 -->
<g id="edge6_Node000003_Node000007" class="edge">
<title>Node7&#45;&gt;Node3</title>
<g id="a_edge6_Node000003_Node000007"><a xlink:title=" ">
<path fill="none" stroke="#63b8ff" d="M152.95,-708.83C155.6,-696.68 159.46,-681.8 164.5,-669 165.37,-666.79 166.28,-664.56 167.23,-662.33"/>
<polygon fill="none" stroke="#63b8ff" points="167.32,-662.12 166.11,-655.02 172.2,-651.16 173.41,-658.27 167.32,-662.12"/>
</a>
</g>
<text text-anchor="middle" x="189" y="-677.5" font-family="Helvetica,sans-Serif" font-size="10.00" fill="grey"> #verified</text>
</g>
<!-- Node8 -->
<g id="Node000008" class="node">
<title>Node8</title>
<g id="a_Node000008"><a xlink:title=" ">
<polygon fill="white" stroke="transparent" points="554,-332.5 455,-332.5 455,-283.5 554,-283.5 554,-332.5"/>
<text text-anchor="start" x="460.5" y="-320" font-family="Helvetica,sans-Serif" font-size="10.00">SensirionI2cScd4x</text>
<text text-anchor="start" x="503" y="-305" font-family="Helvetica,sans-Serif" font-size="10.00"> </text>
<text text-anchor="start" x="503" y="-290" font-family="Helvetica,sans-Serif" font-size="10.00"> </text>
<polygon fill="#666666" stroke="#666666" points="455.5,-315 455.5,-315 554.5,-315 554.5,-315 455.5,-315"/>
<polygon fill="#666666" stroke="#666666" points="455.5,-300 455.5,-300 554.5,-300 554.5,-300 455.5,-300"/>
<polygon fill="none" stroke="#666666" points="455,-283.5 455,-332.5 554,-332.5 554,-283.5 455,-283.5"/>
</a>
</g>
</g>
<!-- Node8&#45;&gt;Node1 -->
<g id="edge10_Node000001_Node000008" class="edge">
<title>Node8&#45;&gt;Node1</title>
<g id="a_edge10_Node000001_Node000008"><a xlink:title=" ">
<path fill="none" stroke="#63b8ff" d="M504.5,-283.16C504.5,-249.43 504.5,-186.3 504.5,-136.27"/>
<polygon fill="none" stroke="#63b8ff" points="504.5,-136.18 500.5,-130.18 504.5,-124.18 508.5,-130.18 504.5,-136.18"/>
</a>
</g>
<text text-anchor="middle" x="516.5" y="-145" font-family="Helvetica,sans-Serif" font-size="10.00" fill="grey"> &#45;scd</text>
</g>
<!-- Node9 -->
<g id="Node000009" class="node">
<title>Node9</title>
<g id="a_Node000009"><a xlink:title=" ">
<polygon fill="white" stroke="transparent" points="632.5,-332.5 572.5,-332.5 572.5,-283.5 632.5,-283.5 632.5,-332.5"/>
<text text-anchor="start" x="577.5" y="-320" font-family="Helvetica,sans-Serif" font-size="10.00">TwoWire *</text>
<text text-anchor="start" x="600.5" y="-305" font-family="Helvetica,sans-Serif" font-size="10.00"> </text>
<text text-anchor="start" x="600.5" y="-290" font-family="Helvetica,sans-Serif" font-size="10.00"> </text>
<polygon fill="#666666" stroke="#666666" points="572.5,-315 572.5,-315 632.5,-315 632.5,-315 572.5,-315"/>
<polygon fill="#666666" stroke="#666666" points="572.5,-300 572.5,-300 632.5,-300 632.5,-300 572.5,-300"/>
<polygon fill="none" stroke="#666666" points="572.5,-283.5 572.5,-332.5 632.5,-332.5 632.5,-283.5 572.5,-283.5"/>
</a>
</g>
</g>
<!-- Node9&#45;&gt;Node1 -->
<g id="edge11_Node000001_Node000009" class="edge">
<title>Node9&#45;&gt;Node1</title>
<g id="a_edge11_Node000001_Node000009"><a xlink:title=" ">
<path fill="none" stroke="#63b8ff" d="M597.4,-283.37C591.07,-255.81 579.17,-209.17 563.5,-171 558.59,-159.05 552.71,-146.71 546.59,-134.84"/>
<polygon fill="none" stroke="#63b8ff" points="546.52,-134.71 540.18,-131.27 540.92,-124.1 547.26,-127.54 546.52,-134.71"/>
</a>
</g>
<text text-anchor="middle" x="576.5" y="-145" font-family="Helvetica,sans-Serif" font-size="10.00" fill="grey"> &#45;i2c_bus</text>
</g>
</g>
</svg>
