<?xml version="1.0" encoding="UTF-8" standalone="no"?>
<!DOCTYPE svg PUBLIC "-//W3C//DTD SVG 1.1//EN"
 "http://www.w3.org/Graphics/SVG/1.1/DTD/svg11.dtd">
<!-- Generated by graphviz version 2.43.0 (0)
 -->
<!-- Title: LSM9DS1Sensor Pages: 1 -->
<svg width="555pt" height="818pt"
 viewBox="0.00 0.00 554.50 818.00" xmlns="http://www.w3.org/2000/svg" xmlns:xlink="http://www.w3.org/1999/xlink">
<g id="graph0" class="graph" transform="scale(1 1) rotate(0) translate(4 814)">
<title>LSM9DS1Sensor</title>
<!-- Node1 -->
<g id="Node000001" class="node">
<title>Node1</title>
<g id="a_Node000001"><a xlink:title="Implementation of the Sensor class for the LSM9DS1 (9&#45;axis IMU)">
<polygon fill="#999999" stroke="transparent" points="476.5,-154 368.5,-154 368.5,0 476.5,0 476.5,-154"/>
<text text-anchor="start" x="383" y="-142" font-family="Helvetica,sans-Serif" font-size="10.00">LSM9DS1Sensor</text>
<text text-anchor="start" x="420.5" y="-127" font-family="Helvetica,sans-Serif" font-size="10.00"> </text>
<text text-anchor="start" x="372.5" y="-112" font-family="Helvetica,sans-Serif" font-size="10.00">+</text>
<text text-anchor="start" x="385.5" y="-112" font-family="Helvetica,sans-Serif" font-size="10.00">LSM9DS1Sensor()</text>
<text text-anchor="start" x="372.5" y="-97" font-family="Helvetica,sans-Serif" font-size="10.00">+</text>
<text text-anchor="start" x="385.5" y="-97" font-family="Helvetica,sans-Serif" font-size="10.00">LSM9DS1Sensor()</text>
<text text-anchor="start" x="372.5" y="-82" font-family="Helvetica,sans-Serif" font-size="10.00">+</text>
<text text-anchor="start" x="385.5" y="-82" font-family="Helvetica,sans-Serif" font-size="10.00">verify()</text>
<text text-anchor="start" x="372.5" y="-67" font-family="Helvetica,sans-Serif" font-size="10.00">+</text>
<text text-anchor="start" x="385.5" y="-67" font-family="Helvetica,sans-Serif" font-size="10.00">readData()</text>
<text text-anchor="start" x="372.5" y="-52" font-family="Helvetica,sans-Serif" font-size="10.00">+</text>
<text text-anchor="start" x="385.5" y="-52" font-family="Helvetica,sans-Serif" font-size="10.00">calibrate()</text>
<text text-anchor="start" x="372.5" y="-37" font-family="Helvetica,sans-Serif" font-size="10.00">+</text>
<text text-anchor="start" x="385.5" y="-37" font-family="Helvetica,sans-Serif" font-size="10.00">readDataPacket()</text>
<text text-anchor="start" x="372.5" y="-22" font-family="Helvetica,sans-Serif" font-size="10.00">+</text>
<text text-anchor="start" x="385.5" y="-22" font-family="Helvetica,sans-Serif" font-size="10.00">decodeToCSV()</text>
<text text-anchor="start" x="375" y="-7" font-family="Helvetica,sans-Serif" font-size="10.00">&#45;</text>
<text text-anchor="start" x="385.5" y="-7" font-family="Helvetica,sans-Serif" font-size="10.00">setupSensor()</text>
<polygon fill="#666666" stroke="#666666" points="368.5,-137 368.5,-137 476.5,-137 476.5,-137 368.5,-137"/>
<polygon fill="#666666" stroke="#666666" points="368.5,-122 368.5,-122 476.5,-122 476.5,-122 368.5,-122"/>
<polygon fill="none" stroke="#666666" points="368.5,0 368.5,-154 476.5,-154 476.5,0 368.5,0"/>
</a>
</g>
</g>
<!-- Node2 -->
<g id="Node000002" class="node">
<title>Node2</title>
<g id="a_Node000002"><a xlink:href="classSensor.html" target="_top" xlink:title="Parent class for sensor objects.">
<polygon fill="white" stroke="transparent" points="354,-497 221,-497 221,-223 354,-223 354,-497"/>
<text text-anchor="start" x="271" y="-485" font-family="Helvetica,sans-Serif" font-size="10.00">Sensor</text>
<text text-anchor="start" x="286" y="-470" font-family="Helvetica,sans-Serif" font-size="10.00"> </text>
<text text-anchor="start" x="225.5" y="-455" font-family="Helvetica,sans-Serif" font-size="10.00">+</text>
<text text-anchor="start" x="238.5" y="-455" font-family="Helvetica,sans-Serif" font-size="10.00">Sensor()</text>
<text text-anchor="start" x="225.5" y="-440" font-family="Helvetica,sans-Serif" font-size="10.00">+</text>
<text text-anchor="start" x="238.5" y="-440" font-family="Helvetica,sans-Serif" font-size="10.00">Sensor()</text>
<text text-anchor="start" x="225.5" y="-425" font-family="Helvetica,sans-Serif" font-size="10.00">+</text>
<text text-anchor="start" x="238.5" y="-425" font-family="Helvetica,sans-Serif" font-size="10.00">Sensor()</text>
<text text-anchor="start" x="225.5" y="-410" font-family="Helvetica,sans-Serif" font-size="10.00">+</text>
<text text-anchor="start" x="238.5" y="-410" font-family="Helvetica,sans-Serif" font-size="10.00">Sensor()</text>
<text text-anchor="start" x="225.5" y="-395" font-family="Helvetica,sans-Serif" font-size="10.00">+</text>
<text text-anchor="start" x="238.5" y="-395" font-family="Helvetica,sans-Serif" font-size="10.00">getPeriod()</text>
<text text-anchor="start" x="225.5" y="-380" font-family="Helvetica,sans-Serif" font-size="10.00">+</text>
<text text-anchor="start" x="238.5" y="-380" font-family="Helvetica,sans-Serif" font-size="10.00">setPeriod()</text>
<text text-anchor="start" x="225.5" y="-365" font-family="Helvetica,sans-Serif" font-size="10.00">+</text>
<text text-anchor="start" x="238.5" y="-365" font-family="Helvetica,sans-Serif" font-size="10.00">getLastExecution()</text>
<text text-anchor="start" x="225.5" y="-350" font-family="Helvetica,sans-Serif" font-size="10.00">+</text>
<text text-anchor="start" x="238.5" y="-350" font-family="Helvetica,sans-Serif" font-size="10.00">setLastExecution()</text>
<text text-anchor="start" x="225.5" y="-335" font-family="Helvetica,sans-Serif" font-size="10.00">+</text>
<text text-anchor="start" x="238.5" y="-335" font-family="Helvetica,sans-Serif" font-size="10.00">getSensorCSVHeader()</text>
<text text-anchor="start" x="225.5" y="-320" font-family="Helvetica,sans-Serif" font-size="10.00">+</text>
<text text-anchor="start" x="238.5" y="-320" font-family="Helvetica,sans-Serif" font-size="10.00">verify()</text>
<text text-anchor="start" x="225.5" y="-305" font-family="Helvetica,sans-Serif" font-size="10.00">+</text>
<text text-anchor="start" x="238.5" y="-305" font-family="Helvetica,sans-Serif" font-size="10.00">readData()</text>
<text text-anchor="start" x="225.5" y="-290" font-family="Helvetica,sans-Serif" font-size="10.00">+</text>
<text text-anchor="start" x="238.5" y="-290" font-family="Helvetica,sans-Serif" font-size="10.00">readDataPacket()</text>
<text text-anchor="start" x="225.5" y="-275" font-family="Helvetica,sans-Serif" font-size="10.00">+</text>
<text text-anchor="start" x="238.5" y="-275" font-family="Helvetica,sans-Serif" font-size="10.00">decodeToCSV()</text>
<text text-anchor="start" x="225.5" y="-260" font-family="Helvetica,sans-Serif" font-size="10.00">+</text>
<text text-anchor="start" x="238.5" y="-260" font-family="Helvetica,sans-Serif" font-size="10.00">getDataPacket()</text>
<text text-anchor="start" x="225.5" y="-245" font-family="Helvetica,sans-Serif" font-size="10.00">+</text>
<text text-anchor="start" x="238.5" y="-245" font-family="Helvetica,sans-Serif" font-size="10.00">readEmpty()</text>
<text text-anchor="start" x="225.5" y="-230" font-family="Helvetica,sans-Serif" font-size="10.00">+</text>
<text text-anchor="start" x="238.5" y="-230" font-family="Helvetica,sans-Serif" font-size="10.00">getDataCSV()</text>
<polygon fill="#666666" stroke="#666666" points="221.5,-480 221.5,-480 354.5,-480 354.5,-480 221.5,-480"/>
<polygon fill="#666666" stroke="#666666" points="221.5,-465 221.5,-465 354.5,-465 354.5,-465 221.5,-465"/>
<polygon fill="none" stroke="#666666" points="221,-223 221,-497 354,-497 354,-223 221,-223"/>
</a>
</g>
</g>
<!-- Node2&#45;&gt;Node1 -->
<g id="edge1_Node000001_Node000002" class="edge">
<title>Node2&#45;&gt;Node1</title>
<g id="a_edge1_Node000001_Node000002"><a xlink:title=" ">
<path fill="none" stroke="#63b8ff" d="M357.39,-213.53C367.22,-193.07 376.98,-172.75 385.84,-154.31"/>
<polygon fill="none" stroke="#63b8ff" points="354.2,-212.09 353.02,-222.62 360.51,-215.12 354.2,-212.09"/>
</a>
</g>
</g>
<!-- Node3 -->
<g id="Node000003" class="node">
<title>Node3</title>
<g id="a_Node000003"><a xlink:href="classDevice.html" target="_top" xlink:title="Implements the recovery system for Sensor and Storage objects.">
<polygon fill="white" stroke="transparent" points="276,-703 153,-703 153,-534 276,-534 276,-703"/>
<text text-anchor="start" x="198" y="-690.5" font-family="Helvetica,sans-Serif" font-size="10.00">Device</text>
<text text-anchor="start" x="213" y="-675.5" font-family="Helvetica,sans-Serif" font-size="10.00"> </text>
<text text-anchor="start" x="157.5" y="-660.5" font-family="Helvetica,sans-Serif" font-size="10.00">+</text>
<text text-anchor="start" x="170.5" y="-660.5" font-family="Helvetica,sans-Serif" font-size="10.00">Device()</text>
<text text-anchor="start" x="157.5" y="-645.5" font-family="Helvetica,sans-Serif" font-size="10.00">+</text>
<text text-anchor="start" x="170.5" y="-645.5" font-family="Helvetica,sans-Serif" font-size="10.00">Device()</text>
<text text-anchor="start" x="157.5" y="-630.5" font-family="Helvetica,sans-Serif" font-size="10.00">+</text>
<text text-anchor="start" x="170.5" y="-630.5" font-family="Helvetica,sans-Serif" font-size="10.00">getDeviceName()</text>
<text text-anchor="start" x="157.5" y="-615.5" font-family="Helvetica,sans-Serif" font-size="10.00">+</text>
<text text-anchor="start" x="170.5" y="-615.5" font-family="Helvetica,sans-Serif" font-size="10.00">verify()</text>
<text text-anchor="start" x="157.5" y="-600.5" font-family="Helvetica,sans-Serif" font-size="10.00">+</text>
<text text-anchor="start" x="170.5" y="-600.5" font-family="Helvetica,sans-Serif" font-size="10.00">getVerified()</text>
<text text-anchor="start" x="157.5" y="-585.5" font-family="Helvetica,sans-Serif" font-size="10.00">+</text>
<text text-anchor="start" x="170.5" y="-585.5" font-family="Helvetica,sans-Serif" font-size="10.00">recoveryConfig()</text>
<text text-anchor="start" x="157.5" y="-570.5" font-family="Helvetica,sans-Serif" font-size="10.00">+</text>
<text text-anchor="start" x="170.5" y="-570.5" font-family="Helvetica,sans-Serif" font-size="10.00">setWaitFactor()</text>
<text text-anchor="start" x="157.5" y="-555.5" font-family="Helvetica,sans-Serif" font-size="10.00">+</text>
<text text-anchor="start" x="170.5" y="-555.5" font-family="Helvetica,sans-Serif" font-size="10.00">setMaxAttempts()</text>
<text text-anchor="start" x="157.5" y="-540.5" font-family="Helvetica,sans-Serif" font-size="10.00">+</text>
<text text-anchor="start" x="170.5" y="-540.5" font-family="Helvetica,sans-Serif" font-size="10.00">attemptConnection()</text>
<polygon fill="#666666" stroke="#666666" points="153.5,-685.5 153.5,-685.5 276.5,-685.5 276.5,-685.5 153.5,-685.5"/>
<polygon fill="#666666" stroke="#666666" points="153.5,-670.5 153.5,-670.5 276.5,-670.5 276.5,-670.5 153.5,-670.5"/>
<polygon fill="none" stroke="#666666" points="153,-534 153,-703 276,-703 276,-534 153,-534"/>
</a>
</g>
</g>
<!-- Node3&#45;&gt;Node2 -->
<g id="edge2_Node000002_Node000003" class="edge">
<title>Node3&#45;&gt;Node2</title>
<g id="a_edge2_Node000002_Node000003"><a xlink:title=" ">
<path fill="none" stroke="#63b8ff" d="M241.1,-524.03C243.61,-515.22 246.18,-506.18 248.77,-497.08"/>
<polygon fill="none" stroke="#63b8ff" points="237.67,-523.29 238.3,-533.87 244.41,-525.21 237.67,-523.29"/>
</a>
</g>
</g>
<!-- Node4 -->
<g id="Node000004" class="node">
<title>Node4</title>
<g id="a_Node000004"><a xlink:title=" ">
<polygon fill="white" stroke="transparent" points="79,-810 0,-810 0,-761 79,-761 79,-810"/>
<text text-anchor="start" x="5.5" y="-797.5" font-family="Helvetica,sans-Serif" font-size="10.00">unsigned long</text>
<text text-anchor="start" x="38" y="-782.5" font-family="Helvetica,sans-Serif" font-size="10.00"> </text>
<text text-anchor="start" x="38" y="-767.5" font-family="Helvetica,sans-Serif" font-size="10.00"> </text>
<polygon fill="#666666" stroke="#666666" points="0.5,-792.5 0.5,-792.5 79.5,-792.5 79.5,-792.5 0.5,-792.5"/>
<polygon fill="#666666" stroke="#666666" points="0.5,-777.5 0.5,-777.5 79.5,-777.5 79.5,-777.5 0.5,-777.5"/>
<polygon fill="none" stroke="#666666" points="0,-761 0,-810 79,-810 79,-761 0,-761"/>
</a>
</g>
</g>
<!-- Node4&#45;&gt;Node2 -->
<g id="edge7_Node000002_Node000004" class="edge">
<title>Node4&#45;&gt;Node2</title>
<g id="a_edge7_Node000002_Node000004"><a xlink:title=" ">
<path fill="none" stroke="#63b8ff" d="M34.83,-760.98C26.85,-714.4 15.09,-608.51 55.5,-534 89.39,-471.5 156.7,-425.24 210.13,-396.36"/>
<polygon fill="none" stroke="#63b8ff" points="210.34,-396.24 213.78,-389.9 220.95,-390.64 217.52,-396.98 210.34,-396.24"/>
</a>
</g>
<text text-anchor="middle" x="99.5" y="-621.5" font-family="Helvetica,sans-Serif" font-size="10.00" fill="grey"> &#45;last_execution</text>
<text text-anchor="middle" x="99.5" y="-610.5" font-family="Helvetica,sans-Serif" font-size="10.00" fill="grey">&#45;minimum_period</text>
</g>
<!-- Node4&#45;&gt;Node3 -->
<g id="edge3_Node000003_Node000004" class="edge">
<title>Node4&#45;&gt;Node3</title>
<g id="a_edge3_Node000003_Node000004"><a xlink:title=" ">
<path fill="none" stroke="#63b8ff" d="M51.95,-760.79C59.55,-747.92 70.16,-732.36 82.5,-721 94.51,-709.95 101.07,-712.27 114.5,-703 124.13,-696.35 133.96,-688.98 143.5,-681.45"/>
<polygon fill="none" stroke="#63b8ff" points="143.58,-681.39 145.76,-674.52 152.94,-673.88 150.76,-680.76 143.58,-681.39"/>
</a>
</g>
<text text-anchor="middle" x="117.5" y="-735" font-family="Helvetica,sans-Serif" font-size="10.00" fill="grey"> &#45;last_attempt</text>
<text text-anchor="middle" x="117.5" y="-724" font-family="Helvetica,sans-Serif" font-size="10.00" fill="grey">&#45;wait_factor</text>
</g>
<!-- Node5 -->
<g id="Node000005" class="node">
<title>Node5</title>
<g id="a_Node000005"><a xlink:title=" ">
<polygon fill="white" stroke="transparent" points="409,-810 386,-810 386,-761 409,-761 409,-810"/>
<text text-anchor="start" x="391.5" y="-797.5" font-family="Helvetica,sans-Serif" font-size="10.00">int</text>
<text text-anchor="start" x="396" y="-782.5" font-family="Helvetica,sans-Serif" font-size="10.00"> </text>
<text text-anchor="start" x="396" y="-767.5" font-family="Helvetica,sans-Serif" font-size="10.00"> </text>
<polygon fill="#666666" stroke="#666666" points="386.5,-792.5 386.5,-792.5 409.5,-792.5 409.5,-792.5 386.5,-792.5"/>
<polygon fill="#666666" stroke="#666666" points="386.5,-777.5 386.5,-777.5 409.5,-777.5 409.5,-777.5 386.5,-777.5"/>
<polygon fill="none" stroke="#666666" points="386,-761 386,-810 409,-810 409,-761 386,-761"/>
</a>
</g>
</g>
<!-- Node5&#45;&gt;Node2 -->
<g id="edge9_Node000002_Node000005" class="edge">
<title>Node5&#45;&gt;Node2</title>
<g id="a_edge9_Node000002_Node000005"><a xlink:title=" ">
<path fill="none" stroke="#63b8ff" d="M409.06,-774.94C417.35,-767.29 427.84,-755.75 432.5,-743 435.86,-733.82 434.17,-730.63 432.5,-721 419.28,-644.91 388.83,-564.79 359.23,-499.5"/>
<polygon fill="none" stroke="#63b8ff" points="359.11,-499.23 352.97,-495.44 354.11,-488.32 360.24,-492.11 359.11,-499.23"/>
</a>
</g>
<text text-anchor="middle" x="460" y="-616" font-family="Helvetica,sans-Serif" font-size="10.00" fill="grey"> #num_fields</text>
</g>
<!-- Node5&#45;&gt;Node3 -->
<g id="edge4_Node000003_Node000005" class="edge">
<title>Node5&#45;&gt;Node3</title>
<g id="a_edge4_Node000003_Node000005"><a xlink:title=" ">
<path fill="none" stroke="#63b8ff" d="M385.71,-776.58C365.4,-762.71 322.87,-732.66 290.5,-703 288.71,-701.36 286.92,-699.69 285.12,-697.98"/>
<polygon fill="none" stroke="#63b8ff" points="284.77,-697.63 277.68,-696.3 276.18,-689.25 283.27,-690.58 284.77,-697.63"/>
</a>
</g>
<text text-anchor="middle" x="384" y="-735" font-family="Helvetica,sans-Serif" font-size="10.00" fill="grey"> &#45;attempt_number</text>
<text text-anchor="middle" x="384" y="-724" font-family="Helvetica,sans-Serif" font-size="10.00" fill="grey">&#45;max_attempts</text>
</g>
<!-- Node6 -->
<g id="Node000006" class="node">
<title>Node6</title>
<g id="a_Node000006"><a xlink:title=" ">
<polygon fill="white" stroke="transparent" points="164.5,-810 132.5,-810 132.5,-761 164.5,-761 164.5,-810"/>
<text text-anchor="start" x="137.5" y="-797.5" font-family="Helvetica,sans-Serif" font-size="10.00">bool</text>
<text text-anchor="start" x="146.5" y="-782.5" font-family="Helvetica,sans-Serif" font-size="10.00"> </text>
<text text-anchor="start" x="146.5" y="-767.5" font-family="Helvetica,sans-Serif" font-size="10.00"> </text>
<polygon fill="#666666" stroke="#666666" points="132.5,-792.5 132.5,-792.5 164.5,-792.5 164.5,-792.5 132.5,-792.5"/>
<polygon fill="#666666" stroke="#666666" points="132.5,-777.5 132.5,-777.5 164.5,-777.5 164.5,-777.5 132.5,-777.5"/>
<polygon fill="none" stroke="#666666" points="132.5,-761 132.5,-810 164.5,-810 164.5,-761 132.5,-761"/>
</a>
</g>
</g>
<!-- Node6&#45;&gt;Node3 -->
<g id="edge5_Node000003_Node000006" class="edge">
<title>Node6&#45;&gt;Node3</title>
<g id="a_edge5_Node000003_Node000006"><a xlink:title=" ">
<path fill="none" stroke="#63b8ff" d="M152.22,-760.87C154.5,-748.74 157.88,-733.85 162.5,-721 163.29,-718.8 164.12,-716.59 164.98,-714.36"/>
<polygon fill="none" stroke="#63b8ff" points="164.99,-714.33 163.56,-707.27 169.54,-703.23 170.97,-710.3 164.99,-714.33"/>
</a>
</g>
<text text-anchor="middle" x="187" y="-729.5" font-family="Helvetica,sans-Serif" font-size="10.00" fill="grey"> #verified</text>
</g>
<!-- Node7 -->
<g id="Node000007" class="node">
<title>Node7</title>
<g id="a_Node000007"><a xlink:title=" ">
<polygon fill="white" stroke="transparent" points="286,-810 247,-810 247,-761 286,-761 286,-810"/>
<text text-anchor="start" x="252.5" y="-797.5" font-family="Helvetica,sans-Serif" font-size="10.00">String</text>
<text text-anchor="start" x="265" y="-782.5" font-family="Helvetica,sans-Serif" font-size="10.00"> </text>
<text text-anchor="start" x="265" y="-767.5" font-family="Helvetica,sans-Serif" font-size="10.00"> </text>
<polygon fill="#666666" stroke="#666666" points="247.5,-792.5 247.5,-792.5 286.5,-792.5 286.5,-792.5 247.5,-792.5"/>
<polygon fill="#666666" stroke="#666666" points="247.5,-777.5 247.5,-777.5 286.5,-777.5 286.5,-777.5 247.5,-777.5"/>
<polygon fill="none" stroke="#666666" points="247,-761 247,-810 286,-810 286,-761 247,-761"/>
</a>
</g>
</g>
<!-- Node7&#45;&gt;Node2 -->
<g id="edge8_Node000002_Node000007" class="edge">
<title>Node7&#45;&gt;Node2</title>
<g id="a_edge8_Node000002_Node000007"><a xlink:title=" ">
<path fill="none" stroke="#63b8ff" d="M286.08,-764.56C291.12,-758.18 295.86,-750.75 298.5,-743 301.65,-733.74 298.65,-730.78 298.5,-721 297.44,-651.54 295.23,-574.58 293.06,-509.7"/>
<polygon fill="none" stroke="#63b8ff" points="293.05,-509.3 288.85,-503.44 292.65,-497.31 296.85,-503.17 293.05,-509.3"/>
</a>
</g>
<text text-anchor="middle" x="330" y="-621.5" font-family="Helvetica,sans-Serif" font-size="10.00" fill="grey"> &#45;csv_header</text>
<text text-anchor="middle" x="330" y="-610.5" font-family="Helvetica,sans-Serif" font-size="10.00" fill="grey">&#45;empty_csv</text>
</g>
<!-- Node7&#45;&gt;Node3 -->
<g id="edge6_Node000003_Node000007" class="edge">
<title>Node7&#45;&gt;Node3</title>
<g id="a_edge6_Node000003_Node000007"><a xlink:title=" ">
<path fill="none" stroke="#63b8ff" d="M246.97,-771.93C237.52,-764.7 227.04,-754.72 221.5,-743 217.36,-734.23 214.46,-724.72 212.5,-714.99"/>
<polygon fill="none" stroke="#63b8ff" points="212.48,-714.9 207.57,-709.62 210.54,-703.06 215.46,-708.33 212.48,-714.9"/>
</a>
</g>
<text text-anchor="middle" x="260" y="-729.5" font-family="Helvetica,sans-Serif" font-size="10.00" fill="grey"> #device_name</text>
</g>
<!-- Node8 -->
<g id="Node000008" class="node">
<title>Node8</title>
<g id="a_Node000008"><a xlink:title=" ">
<polygon fill="white" stroke="transparent" points="473,-384.5 372,-384.5 372,-335.5 473,-335.5 473,-384.5"/>
<text text-anchor="start" x="377.5" y="-372" font-family="Helvetica,sans-Serif" font-size="10.00">Adafruit_LSM9DS1</text>
<text text-anchor="start" x="421" y="-357" font-family="Helvetica,sans-Serif" font-size="10.00"> </text>
<text text-anchor="start" x="421" y="-342" font-family="Helvetica,sans-Serif" font-size="10.00"> </text>
<polygon fill="#666666" stroke="#666666" points="372.5,-367 372.5,-367 473.5,-367 473.5,-367 372.5,-367"/>
<polygon fill="#666666" stroke="#666666" points="372.5,-352 372.5,-352 473.5,-352 473.5,-352 372.5,-352"/>
<polygon fill="none" stroke="#666666" points="372,-335.5 372,-384.5 473,-384.5 473,-335.5 372,-335.5"/>
</a>
</g>
</g>
<!-- Node8&#45;&gt;Node1 -->
<g id="edge10_Node000001_Node000008" class="edge">
<title>Node8&#45;&gt;Node1</title>
<g id="a_edge10_Node000001_Node000008"><a xlink:title=" ">
<path fill="none" stroke="#63b8ff" d="M422.5,-335.04C422.5,-298.06 422.5,-225.18 422.5,-166.45"/>
<polygon fill="none" stroke="#63b8ff" points="422.5,-166.14 418.5,-160.14 422.5,-154.14 426.5,-160.14 422.5,-166.14"/>
</a>
</g>
<text text-anchor="middle" x="435" y="-186" font-family="Helvetica,sans-Serif" font-size="10.00" fill="grey"> &#45;lsm</text>
</g>
<!-- Node9 -->
<g id="Node000009" class="node">
<title>Node9</title>
<g id="a_Node000009"><a xlink:title=" ">
<polygon fill="white" stroke="transparent" points="523.5,-384.5 491.5,-384.5 491.5,-335.5 523.5,-335.5 523.5,-384.5"/>
<text text-anchor="start" x="496.5" y="-372" font-family="Helvetica,sans-Serif" font-size="10.00">float</text>
<text text-anchor="start" x="505.5" y="-357" font-family="Helvetica,sans-Serif" font-size="10.00"> </text>
<text text-anchor="start" x="505.5" y="-342" font-family="Helvetica,sans-Serif" font-size="10.00"> </text>
<polygon fill="#666666" stroke="#666666" points="491.5,-367 491.5,-367 523.5,-367 523.5,-367 491.5,-367"/>
<polygon fill="#666666" stroke="#666666" points="491.5,-352 491.5,-352 523.5,-352 523.5,-352 491.5,-352"/>
<polygon fill="none" stroke="#666666" points="491.5,-335.5 491.5,-384.5 523.5,-384.5 523.5,-335.5 491.5,-335.5"/>
</a>
</g>
</g>
<!-- Node9&#45;&gt;Node1 -->
<g id="edge11_Node000001_Node000009" class="edge">
<title>Node9&#45;&gt;Node1</title>
<g id="a_edge11_Node000001_Node000009"><a xlink:title=" ">
<path fill="none" stroke="#63b8ff" d="M504.65,-335.06C501.03,-307.61 493.85,-261.45 482.5,-223 476.88,-203.98 469.61,-184.05 462.07,-165.26"/>
<polygon fill="none" stroke="#63b8ff" points="462.03,-165.15 456.06,-161.11 457.49,-154.05 463.46,-158.09 462.03,-165.15"/>
</a>
</g>
<text text-anchor="middle" x="511" y="-197" font-family="Helvetica,sans-Serif" font-size="10.00" fill="grey"> &#45;accel_offsets</text>
<text text-anchor="middle" x="511" y="-186" font-family="Helvetica,sans-Serif" font-size="10.00" fill="grey">&#45;gyro_offsets</text>
<text text-anchor="middle" x="511" y="-175" font-family="Helvetica,sans-Serif" font-size="10.00" fill="grey">&#45;mag_offsets</text>
</g>
</g>
</svg>
