<?xml version="1.0" encoding="UTF-8" standalone="no"?>
<!DOCTYPE svg PUBLIC "-//W3C//DTD SVG 1.1//EN"
 "http://www.w3.org/Graphics/SVG/1.1/DTD/svg11.dtd">
<!-- Generated by graphviz version 2.43.0 (0)
 -->
<!-- Title: ENS160Sensor::readData Pages: 1 -->
<svg width="325pt" height="138pt"
 viewBox="0.00 0.00 325.00 138.00" xmlns="http://www.w3.org/2000/svg" xmlns:xlink="http://www.w3.org/1999/xlink">
<g id="graph0" class="graph" transform="scale(1 1) rotate(0) translate(4 134)">
<title>ENS160Sensor::readData</title>
<!-- Node1 -->
<g id="Node000001" class="node">
<title>Node1</title>
<g id="a_Node000001"><a xlink:title="Reads Air Quality Index, TVOC (ppb), and ECOS (ppm)">
<polygon fill="#999999" stroke="#666666" points="138,-74 0,-74 0,-55 138,-55 138,-74"/>
<text text-anchor="middle" x="69" y="-62" font-family="Helvetica,sans-Serif" font-size="10.00">ENS160Sensor::readData</text>
</a>
</g>
</g>
<!-- Node2 -->
<g id="Node000002" class="node">
<title>Node2</title>
<g id="a_Node000002"><a xlink:href="classSHTC3Sensor.html#ae7355733a5c84c5812b69a88285610b8" target="_top" xlink:title="Getter for relative humidity.">
<polygon fill="white" stroke="#666666" points="316.5,-130 174.5,-130 174.5,-111 316.5,-111 316.5,-130"/>
<text text-anchor="middle" x="245.5" y="-118" font-family="Helvetica,sans-Serif" font-size="10.00">SHTC3Sensor::getRelHum</text>
</a>
</g>
</g>
<!-- Node1&#45;&gt;Node2 -->
<g id="edge1_Node000001_Node000002" class="edge">
<title>Node1&#45;&gt;Node2</title>
<g id="a_edge1_Node000001_Node000002"><a xlink:title=" ">
<path fill="none" stroke="#63b8ff" d="M94.14,-74.1C115.07,-82.24 146.27,-93.92 174,-102.5 180.49,-104.51 187.36,-106.47 194.16,-108.31"/>
<polygon fill="#63b8ff" stroke="#63b8ff" points="193.48,-111.75 204.04,-110.91 195.26,-104.98 193.48,-111.75"/>
</a>
</g>
</g>
<!-- Node3 -->
<g id="Node000003" class="node">
<title>Node3</title>
<g id="a_Node000003"><a xlink:href="classTMP117Sensor.html#a8fcbf5633c60d32b43ea87d89e781e39" target="_top" xlink:title="Getter for tempC.">
<polygon fill="white" stroke="#666666" points="317,-93 174,-93 174,-74 317,-74 317,-93"/>
<text text-anchor="middle" x="245.5" y="-81" font-family="Helvetica,sans-Serif" font-size="10.00">TMP117Sensor::getTempC</text>
</a>
</g>
</g>
<!-- Node1&#45;&gt;Node3 -->
<g id="edge2_Node000001_Node000003" class="edge">
<title>Node1&#45;&gt;Node3</title>
<g id="a_edge2_Node000001_Node000003"><a xlink:title=" ">
<path fill="none" stroke="#63b8ff" d="M138.22,-71.93C146.6,-72.84 155.23,-73.78 163.77,-74.71"/>
<polygon fill="#63b8ff" stroke="#63b8ff" points="163.42,-78.19 173.74,-75.8 164.18,-71.23 163.42,-78.19"/>
</a>
</g>
</g>
<!-- Node4 -->
<g id="Node000004" class="node">
<title>Node4</title>
<g id="a_Node000004"><a xlink:href="classDevice.html#a030b016bedb9a917634091199a946c94" target="_top" xlink:title="Get if the Device is Verified.">
<polygon fill="white" stroke="#666666" points="300,-56 191,-56 191,-37 300,-37 300,-56"/>
<text text-anchor="middle" x="245.5" y="-44" font-family="Helvetica,sans-Serif" font-size="10.00">Device::getVerified</text>
</a>
</g>
</g>
<!-- Node1&#45;&gt;Node4 -->
<g id="edge3_Node000001_Node000004" class="edge">
<title>Node1&#45;&gt;Node4</title>
<g id="a_edge3_Node000001_Node000004"><a xlink:title=" ">
<path fill="none" stroke="#63b8ff" d="M138.22,-57.46C152.16,-56.03 166.78,-54.52 180.56,-53.1"/>
<polygon fill="#63b8ff" stroke="#63b8ff" points="181.32,-56.54 190.91,-52.03 180.61,-49.57 181.32,-56.54"/>
</a>
</g>
</g>
<!-- Node5 -->
<g id="Node000005" class="node">
<title>Node5</title>
<g id="a_Node000005"><a xlink:href="classSensor.html#a62d72a2f81422ac2d2fa8ae86ba08571" target="_top" xlink:title="Returns CSV line in the same format as readData() but with &quot;&#45;&quot; instead of data.">
<polygon fill="white" stroke="#666666" points="300,-19 191,-19 191,0 300,0 300,-19"/>
<text text-anchor="middle" x="245.5" y="-7" font-family="Helvetica,sans-Serif" font-size="10.00">Sensor::readEmpty</text>
</a>
</g>
</g>
<!-- Node1&#45;&gt;Node5 -->
<g id="edge4_Node000001_Node000005" class="edge">
<title>Node1&#45;&gt;Node5</title>
<g id="a_edge4_Node000001_Node000005"><a xlink:title=" ">
<path fill="none" stroke="#63b8ff" d="M95.91,-54.97C116.85,-47.4 147.15,-36.75 174,-28.5 181.5,-26.2 189.49,-23.89 197.3,-21.73"/>
<polygon fill="#63b8ff" stroke="#63b8ff" points="198.31,-25.08 207.04,-19.07 196.47,-18.33 198.31,-25.08"/>
</a>
</g>
</g>
</g>
</svg>
