<?xml version="1.0" encoding="UTF-8" standalone="no"?>
<!DOCTYPE svg PUBLIC "-//W3C//DTD SVG 1.1//EN"
 "http://www.w3.org/Graphics/SVG/1.1/DTD/svg11.dtd">
<!-- Generated by graphviz version 2.43.0 (0)
 -->
<!-- Title: SDStorage Pages: 1 -->
<svg width="120pt" height="277pt"
 viewBox="0.00 0.00 120.00 277.00" xmlns="http://www.w3.org/2000/svg" xmlns:xlink="http://www.w3.org/1999/xlink">
<g id="graph0" class="graph" transform="scale(1 1) rotate(0) translate(4 273)">
<title>SDStorage</title>
<!-- Node1 -->
<g id="Node000001" class="node">
<title>Node1</title>
<g id="a_Node000001"><a xlink:title="Implementation of a Storage device to interface with an SD card.">
<polygon fill="#999999" stroke="transparent" points="101,-124 11,-124 11,0 101,0 101,-124"/>
<text text-anchor="start" x="30" y="-112" font-family="Helvetica,sans-Serif" font-size="10.00">SDStorage</text>
<text text-anchor="start" x="17.5" y="-97" font-family="Helvetica,sans-Serif" font-size="10.00">&#45;</text>
<text text-anchor="start" x="28" y="-97" font-family="Helvetica,sans-Serif" font-size="10.00">file_name</text>
<text text-anchor="start" x="17.5" y="-82" font-family="Helvetica,sans-Serif" font-size="10.00">&#45;</text>
<text text-anchor="start" x="28" y="-82" font-family="Helvetica,sans-Serif" font-size="10.00">bin_file_name</text>
<text text-anchor="start" x="17.5" y="-67" font-family="Helvetica,sans-Serif" font-size="10.00">&#45;</text>
<text text-anchor="start" x="28" y="-67" font-family="Helvetica,sans-Serif" font-size="10.00">sd_spi_1</text>
<text text-anchor="start" x="15" y="-52" font-family="Helvetica,sans-Serif" font-size="10.00">+</text>
<text text-anchor="start" x="28" y="-52" font-family="Helvetica,sans-Serif" font-size="10.00">SDStorage()</text>
<text text-anchor="start" x="15" y="-37" font-family="Helvetica,sans-Serif" font-size="10.00">+</text>
<text text-anchor="start" x="28" y="-37" font-family="Helvetica,sans-Serif" font-size="10.00">verify()</text>
<text text-anchor="start" x="15" y="-22" font-family="Helvetica,sans-Serif" font-size="10.00">+</text>
<text text-anchor="start" x="28" y="-22" font-family="Helvetica,sans-Serif" font-size="10.00">store()</text>
<text text-anchor="start" x="15" y="-7" font-family="Helvetica,sans-Serif" font-size="10.00">+</text>
<text text-anchor="start" x="28" y="-7" font-family="Helvetica,sans-Serif" font-size="10.00">store()</text>
<polygon fill="#666666" stroke="#666666" points="11,-107 11,-107 101,-107 101,-107 11,-107"/>
<polygon fill="#666666" stroke="#666666" points="11,-62 11,-62 26,-62 26,-62 11,-62"/>
<polygon fill="#666666" stroke="#666666" points="26,-62 26,-62 101,-62 101,-62 26,-62"/>
<polygon fill="none" stroke="#666666" points="11,0 11,-124 101,-124 101,0 11,0"/>
</a>
</g>
</g>
<!-- Node2 -->
<g id="Node000002" class="node">
<title>Node2</title>
<g id="a_Node000002"><a xlink:href="classStorage.html" target="_top" xlink:title="Parent class for all data storage devices (sd card, radio, etc)">
<polygon fill="white" stroke="transparent" points="112,-269 0,-269 0,-160 112,-160 112,-269"/>
<text text-anchor="start" x="37" y="-256.5" font-family="Helvetica,sans-Serif" font-size="10.00">Storage</text>
<text text-anchor="start" x="6.5" y="-241.5" font-family="Helvetica,sans-Serif" font-size="10.00">&#45;</text>
<text text-anchor="start" x="17" y="-241.5" font-family="Helvetica,sans-Serif" font-size="10.00">storage_name</text>
<text text-anchor="start" x="4" y="-226.5" font-family="Helvetica,sans-Serif" font-size="10.00">+</text>
<text text-anchor="start" x="17" y="-226.5" font-family="Helvetica,sans-Serif" font-size="10.00">Storage()</text>
<text text-anchor="start" x="4" y="-211.5" font-family="Helvetica,sans-Serif" font-size="10.00">+</text>
<text text-anchor="start" x="17" y="-211.5" font-family="Helvetica,sans-Serif" font-size="10.00">getStorageName()</text>
<text text-anchor="start" x="4" y="-196.5" font-family="Helvetica,sans-Serif" font-size="10.00">+</text>
<text text-anchor="start" x="17" y="-196.5" font-family="Helvetica,sans-Serif" font-size="10.00">verify()</text>
<text text-anchor="start" x="4" y="-181.5" font-family="Helvetica,sans-Serif" font-size="10.00">+</text>
<text text-anchor="start" x="17" y="-181.5" font-family="Helvetica,sans-Serif" font-size="10.00">store()</text>
<text text-anchor="start" x="4" y="-166.5" font-family="Helvetica,sans-Serif" font-size="10.00">+</text>
<text text-anchor="start" x="17" y="-166.5" font-family="Helvetica,sans-Serif" font-size="10.00">store()</text>
<polygon fill="#666666" stroke="#666666" points="0,-251.5 0,-251.5 112,-251.5 112,-251.5 0,-251.5"/>
<polygon fill="#666666" stroke="#666666" points="0,-236.5 0,-236.5 15,-236.5 15,-236.5 0,-236.5"/>
<polygon fill="#666666" stroke="#666666" points="15,-236.5 15,-236.5 112,-236.5 112,-236.5 15,-236.5"/>
<polygon fill="none" stroke="#666666" points="0,-160 0,-269 112,-269 112,-160 0,-160"/>
</a>
</g>
</g>
<!-- Node2&#45;&gt;Node1 -->
<g id="edge1_Node000001_Node000002" class="edge">
<title>Node2&#45;&gt;Node1</title>
<g id="a_edge1_Node000001_Node000002"><a xlink:title=" ">
<path fill="none" stroke="#63b8ff" d="M56,-149.49C56,-141.11 56,-132.54 56,-124.21"/>
<polygon fill="none" stroke="#63b8ff" points="52.5,-149.59 56,-159.59 59.5,-149.59 52.5,-149.59"/>
</a>
</g>
</g>
</g>
</svg>
