<?xml version="1.0" encoding="UTF-8" standalone="no"?>
<!DOCTYPE svg PUBLIC "-//W3C//DTD SVG 1.1//EN"
 "http://www.w3.org/Graphics/SVG/1.1/DTD/svg11.dtd">
<!-- Generated by graphviz version 2.43.0 (0)
 -->
<!-- Title: SDStorage Pages: 1 -->
<svg width="307pt" height="339pt"
 viewBox="0.00 0.00 306.53 339.00" xmlns="http://www.w3.org/2000/svg" xmlns:xlink="http://www.w3.org/1999/xlink">

<svg id="main" version="1.1" xmlns="http://www.w3.org/2000/svg" xmlns:xlink="http://www.w3.org/1999/xlink" xml:space="preserve" onload="init(evt)">
<style type="text/css"><![CDATA[
.node, .edge {opacity: 0.7;}
.node.selected, .edge.selected {opacity: 1;}
.edge:hover path { stroke: red; }
.edge:hover polygon { stroke: red; fill: red; }
]]></style>
<script type="application/ecmascript" xlink:href="svg.min.js"/>
<svg id="graph" class="graph">
<g id="graph0" class="graph" transform="scale(1 1) rotate(0) translate(4 335)">
<title>SDStorage</title>
<!-- Node1 -->
<g id="Node000001" class="node">
<title>Node1</title>
<g id="a_Node000001"><a xlink:title="Implementation of a Storage device to interface with an SD card.">
<polygon fill="#999999" stroke="transparent" points="175.03,-79 95.03,-79 95.03,0 175.03,0 175.03,-79"/>
<text text-anchor="start" x="109.03" y="-66.5" font-family="Helvetica,sans-Serif" font-size="10.00">SDStorage</text>
<text text-anchor="start" x="133.03" y="-51.5" font-family="Helvetica,sans-Serif" font-size="10.00"> </text>
<text text-anchor="start" x="99.03" y="-36.5" font-family="Helvetica,sans-Serif" font-size="10.00">+</text>
<text text-anchor="start" x="112.03" y="-36.5" font-family="Helvetica,sans-Serif" font-size="10.00">SDStorage()</text>
<text text-anchor="start" x="99.03" y="-21.5" font-family="Helvetica,sans-Serif" font-size="10.00">+</text>
<text text-anchor="start" x="112.03" y="-21.5" font-family="Helvetica,sans-Serif" font-size="10.00">verify()</text>
<text text-anchor="start" x="99.03" y="-6.5" font-family="Helvetica,sans-Serif" font-size="10.00">+</text>
<text text-anchor="start" x="112.03" y="-6.5" font-family="Helvetica,sans-Serif" font-size="10.00">store()</text>
<polygon fill="#666666" stroke="#666666" points="95.03,-61.5 95.03,-61.5 175.03,-61.5 175.03,-61.5 95.03,-61.5"/>
<polygon fill="#666666" stroke="#666666" points="95.03,-46.5 95.03,-46.5 175.03,-46.5 175.03,-46.5 95.03,-46.5"/>
<polygon fill="none" stroke="#666666" points="95.03,0 95.03,-79 175.03,-79 175.03,0 95.03,0"/>
</a>
</g>
</g>
<!-- Node2 -->
<g id="Node000002" class="node">
<title>Node2</title>
<g id="a_Node000002"><a xlink:href="classStorage.html" target="_top" xlink:title="Parent class for all data storage devices (sd card, radio, etc)">
<polygon fill="white" stroke="transparent" points="191.03,-235 79.03,-235 79.03,-126 191.03,-126 191.03,-235"/>
<text text-anchor="start" x="116.03" y="-222.5" font-family="Helvetica,sans-Serif" font-size="10.00">Storage</text>
<text text-anchor="start" x="133.03" y="-207.5" font-family="Helvetica,sans-Serif" font-size="10.00"> </text>
<text text-anchor="start" x="83.03" y="-192.5" font-family="Helvetica,sans-Serif" font-size="10.00">+</text>
<text text-anchor="start" x="96.03" y="-192.5" font-family="Helvetica,sans-Serif" font-size="10.00">Storage()</text>
<text text-anchor="start" x="83.03" y="-177.5" font-family="Helvetica,sans-Serif" font-size="10.00">+</text>
<text text-anchor="start" x="96.03" y="-177.5" font-family="Helvetica,sans-Serif" font-size="10.00">getStorageName()</text>
<text text-anchor="start" x="83.03" y="-162.5" font-family="Helvetica,sans-Serif" font-size="10.00">+</text>
<text text-anchor="start" x="96.03" y="-162.5" font-family="Helvetica,sans-Serif" font-size="10.00">verify()</text>
<text text-anchor="start" x="83.03" y="-147.5" font-family="Helvetica,sans-Serif" font-size="10.00">+</text>
<text text-anchor="start" x="96.03" y="-147.5" font-family="Helvetica,sans-Serif" font-size="10.00">store()</text>
<text text-anchor="start" x="83.03" y="-132.5" font-family="Helvetica,sans-Serif" font-size="10.00">+</text>
<text text-anchor="start" x="96.03" y="-132.5" font-family="Helvetica,sans-Serif" font-size="10.00">store()</text>
<polygon fill="#666666" stroke="#666666" points="79.03,-217.5 79.03,-217.5 191.03,-217.5 191.03,-217.5 79.03,-217.5"/>
<polygon fill="#666666" stroke="#666666" points="79.03,-202.5 79.03,-202.5 191.03,-202.5 191.03,-202.5 79.03,-202.5"/>
<polygon fill="none" stroke="#666666" points="79.03,-126 79.03,-235 191.03,-235 191.03,-126 79.03,-126"/>
</a>
</g>
</g>
<!-- Node2&#45;&gt;Node1 -->
<g id="edge1_Node000001_Node000002" class="edge">
<title>Node2&#45;&gt;Node1</title>
<g id="a_edge1_Node000001_Node000002"><a xlink:title=" ">
<path fill="none" stroke="#63b8ff" d="M135.03,-115.41C135.03,-102.98 135.03,-90.31 135.03,-79.02"/>
<polygon fill="none" stroke="#63b8ff" points="131.53,-115.76 135.03,-125.76 138.53,-115.76 131.53,-115.76"/>
</a>
</g>
</g>
<!-- Node3 -->
<g id="Node000003" class="node">
<title>Node3</title>
<g id="a_Node000003"><a xlink:title=" ">
<polygon fill="white" stroke="transparent" points="41.53,-331 2.53,-331 2.53,-282 41.53,-282 41.53,-331"/>
<text text-anchor="start" x="8.03" y="-318.5" font-family="Helvetica,sans-Serif" font-size="10.00">String</text>
<text text-anchor="start" x="20.53" y="-303.5" font-family="Helvetica,sans-Serif" font-size="10.00"> </text>
<text text-anchor="start" x="20.53" y="-288.5" font-family="Helvetica,sans-Serif" font-size="10.00"> </text>
<polygon fill="#666666" stroke="#666666" points="3.03,-313.5 3.03,-313.5 42.03,-313.5 42.03,-313.5 3.03,-313.5"/>
<polygon fill="#666666" stroke="#666666" points="3.03,-298.5 3.03,-298.5 42.03,-298.5 42.03,-298.5 3.03,-298.5"/>
<polygon fill="none" stroke="#666666" points="2.53,-282 2.53,-331 41.53,-331 41.53,-282 2.53,-282"/>
</a>
</g>
</g>
<!-- Node3&#45;&gt;Node1 -->
<g id="edge3_Node000001_Node000003" class="edge">
<title>Node3&#45;&gt;Node1</title>
<g id="a_edge3_Node000001_Node000003"><a xlink:title=" ">
<path fill="none" stroke="#63b8ff" d="M14.09,-281.82C3.53,-245.89 -10.98,-176.45 15.03,-126 29.64,-97.65 58.48,-76.63 84.23,-62.53"/>
<polygon fill="none" stroke="#63b8ff" points="84.38,-62.45 87.86,-56.13 95.03,-56.91 91.55,-63.23 84.38,-62.45"/>
</a>
</g>
<text text-anchor="middle" x="42.53" y="-178" font-family="Helvetica,sans-Serif" font-size="10.00" fill="grey"> &#45;file_name</text>
</g>
<!-- Node3&#45;&gt;Node2 -->
<g id="edge2_Node000002_Node000003" class="edge">
<title>Node3&#45;&gt;Node2</title>
<g id="a_edge2_Node000002_Node000003"><a xlink:title=" ">
<path fill="none" stroke="#63b8ff" d="M41.71,-283.9C51.92,-272.7 64.97,-258.37 78.06,-244.01"/>
<polygon fill="none" stroke="#63b8ff" points="78.1,-243.96 79.19,-236.83 86.19,-235.09 85.1,-242.22 78.1,-243.96"/>
</a>
</g>
<text text-anchor="middle" x="107.53" y="-256" font-family="Helvetica,sans-Serif" font-size="10.00" fill="grey"> &#45;storage_name</text>
</g>
<!-- Node4 -->
<g id="Node000004" class="node">
<title>Node4</title>
<g id="a_Node000004"><a xlink:title=" ">
<polygon fill="white" stroke="transparent" points="298.53,-205 209.53,-205 209.53,-156 298.53,-156 298.53,-205"/>
<text text-anchor="start" x="215.03" y="-192.5" font-family="Helvetica,sans-Serif" font-size="10.00">SPIClassRP2040</text>
<text text-anchor="start" x="252.53" y="-177.5" font-family="Helvetica,sans-Serif" font-size="10.00"> </text>
<text text-anchor="start" x="252.53" y="-162.5" font-family="Helvetica,sans-Serif" font-size="10.00"> </text>
<polygon fill="#666666" stroke="#666666" points="210.03,-187.5 210.03,-187.5 299.03,-187.5 299.03,-187.5 210.03,-187.5"/>
<polygon fill="#666666" stroke="#666666" points="210.03,-172.5 210.03,-172.5 299.03,-172.5 299.03,-172.5 210.03,-172.5"/>
<polygon fill="none" stroke="#666666" points="209.53,-156 209.53,-205 298.53,-205 298.53,-156 209.53,-156"/>
</a>
</g>
</g>
<!-- Node4&#45;&gt;Node1 -->
<g id="edge4_Node000001_Node000004" class="edge">
<title>Node4&#45;&gt;Node1</title>
<g id="a_edge4_Node000001_Node000004"><a xlink:title=" ">
<path fill="none" stroke="#63b8ff" d="M233.84,-155.92C218.05,-137.47 195.56,-111.21 176.03,-88.4"/>
<polygon fill="none" stroke="#63b8ff" points="175.96,-88.31 169.01,-86.35 168.15,-79.19 175.09,-81.15 175.96,-88.31"/>
</a>
</g>
<text text-anchor="middle" x="215.53" y="-100" font-family="Helvetica,sans-Serif" font-size="10.00" fill="grey"> &#45;sd_spi_1</text>
</g>
</g>
</svg>
</svg>

<style type='text/css'>
<![CDATA[
[data-mouse-over-selected='false'] { opacity: 0.7; }
[data-mouse-over-selected='true']  { opacity: 1.0; }
]]>
</style>
<script type="application/ecmascript"><![CDATA[
document.addEventListener('DOMContentLoaded', (event) => {
  highlightEdges();
  highlightAdjacentNodes();
});
]]></script>
</svg>
