<?xml version="1.0" encoding="UTF-8" standalone="no"?>
<!DOCTYPE svg PUBLIC "-//W3C//DTD SVG 1.1//EN"
 "http://www.w3.org/Graphics/SVG/1.1/DTD/svg11.dtd">
<!-- Generated by graphviz version 2.43.0 (0)
 -->
<!-- Title: FlashStorage::writeFileHeader Pages: 1 -->
<svg width="504pt" height="64pt"
 viewBox="0.00 0.00 504.00 64.00" xmlns="http://www.w3.org/2000/svg" xmlns:xlink="http://www.w3.org/1999/xlink">
<g id="graph0" class="graph" transform="scale(1 1) rotate(0) translate(4 60)">
<title>FlashStorage::writeFileHeader</title>
<!-- Node1 -->
<g id="Node000001" class="node">
<title>Node1</title>
<g id="a_Node000001"><a xlink:title="Writes the file header to the start of a new sector.">
<polygon fill="#999999" stroke="#666666" points="496,-37 332,-37 332,-18 496,-18 496,-37"/>
<text text-anchor="middle" x="414" y="-25" font-family="Helvetica,sans-Serif" font-size="10.00">FlashStorage::writeFileHeader</text>
</a>
</g>
</g>
<!-- Node2 -->
<g id="Node000002" class="node">
<title>Node2</title>
<g id="a_Node000002"><a xlink:href="classFlashStorage.html#a7354ff496fb0a6c4148d1328b4048d46" target="_top" xlink:title="Writes a string to flash atomically.">
<polygon fill="white" stroke="#666666" points="296,-56 150,-56 150,-37 296,-37 296,-56"/>
<text text-anchor="middle" x="223" y="-44" font-family="Helvetica,sans-Serif" font-size="10.00">FlashStorage::atomicStore</text>
</a>
</g>
</g>
<!-- Node1&#45;&gt;Node2 -->
<g id="edge1_Node000001_Node000002" class="edge">
<title>Node1&#45;&gt;Node2</title>
<g id="a_edge1_Node000001_Node000002"><a xlink:title=" ">
<path fill="none" stroke="#63b8ff" d="M321.74,-36.67C313.18,-37.53 304.59,-38.4 296.24,-39.24"/>
<polygon fill="#63b8ff" stroke="#63b8ff" points="322.15,-40.15 331.75,-35.67 321.45,-33.19 322.15,-40.15"/>
</a>
</g>
</g>
<!-- Node3 -->
<g id="Node000003" class="node">
<title>Node3</title>
<g id="a_Node000003"><a xlink:href="classFlashStorage.html#a959ed7240cf70430f05686720e1ead5a" target="_top" xlink:title="Locates the next available file block &amp; tracks existing files.">
<polygon fill="white" stroke="#666666" points="293,-19 153,-19 153,0 293,0 293,-19"/>
<text text-anchor="middle" x="223" y="-7" font-family="Helvetica,sans-Serif" font-size="10.00">FlashStorage::indexFlash</text>
</a>
</g>
</g>
<!-- Node1&#45;&gt;Node3 -->
<g id="edge2_Node000001_Node000003" class="edge">
<title>Node1&#45;&gt;Node3</title>
<g id="a_edge2_Node000001_Node000003"><a xlink:title=" ">
<path fill="none" stroke="#63b8ff" d="M321.72,-18.81C312.06,-17.89 302.35,-16.96 293.01,-16.07"/>
<polygon fill="#63b8ff" stroke="#63b8ff" points="321.46,-22.3 331.75,-19.76 322.13,-15.33 321.46,-22.3"/>
</a>
</g>
</g>
<!-- Node4 -->
<g id="Node000004" class="node">
<title>Node4</title>
<g id="a_Node000004"><a xlink:href="classFlashStorage.html#addf2a0a14a0a92ccce2d55eac60282e4" target="_top" xlink:title="Verifies the flash connection and prepares for data storage.">
<polygon fill="white" stroke="#666666" points="114,-19 0,-19 0,0 114,0 114,-19"/>
<text text-anchor="middle" x="57" y="-7" font-family="Helvetica,sans-Serif" font-size="10.00">FlashStorage::verify</text>
</a>
</g>
</g>
<!-- Node3&#45;&gt;Node4 -->
<g id="edge3_Node000003_Node000004" class="edge">
<title>Node3&#45;&gt;Node4</title>
<g id="a_edge3_Node000003_Node000004"><a xlink:title=" ">
<path fill="none" stroke="#63b8ff" d="M142.84,-9.5C133.12,-9.5 123.35,-9.5 114.07,-9.5"/>
<polygon fill="#63b8ff" stroke="#63b8ff" points="142.92,-13 152.92,-9.5 142.92,-6 142.92,-13"/>
</a>
</g>
</g>
</g>
</svg>
