<?xml version="1.0" encoding="UTF-8" standalone="no"?>
<!DOCTYPE svg PUBLIC "-//W3C//DTD SVG 1.1//EN"
 "http://www.w3.org/Graphics/SVG/1.1/DTD/svg11.dtd">
<!-- Generated by graphviz version 2.43.0 (0)
 -->
<!-- Title: Sensor Pages: 1 -->
<svg width="471pt" height="520pt"
 viewBox="0.00 0.00 470.50 520.00" xmlns="http://www.w3.org/2000/svg" xmlns:xlink="http://www.w3.org/1999/xlink">
<g id="graph0" class="graph" transform="scale(1 1) rotate(0) translate(4 516)">
<title>Sensor</title>
<!-- Node1 -->
<g id="Node000001" class="node">
<title>Node1</title>
<g id="a_Node000001"><a xlink:title="Parent class for sensor objects.">
<polygon fill="#999999" stroke="transparent" points="272,-199 139,-199 139,0 272,0 272,-199"/>
<text text-anchor="start" x="189" y="-186.5" font-family="Helvetica,sans-Serif" font-size="10.00">Sensor</text>
<text text-anchor="start" x="204" y="-171.5" font-family="Helvetica,sans-Serif" font-size="10.00"> </text>
<text text-anchor="start" x="143.5" y="-156.5" font-family="Helvetica,sans-Serif" font-size="10.00">+</text>
<text text-anchor="start" x="156.5" y="-156.5" font-family="Helvetica,sans-Serif" font-size="10.00">Sensor()</text>
<text text-anchor="start" x="143.5" y="-141.5" font-family="Helvetica,sans-Serif" font-size="10.00">+</text>
<text text-anchor="start" x="156.5" y="-141.5" font-family="Helvetica,sans-Serif" font-size="10.00">Sensor()</text>
<text text-anchor="start" x="143.5" y="-126.5" font-family="Helvetica,sans-Serif" font-size="10.00">+</text>
<text text-anchor="start" x="156.5" y="-126.5" font-family="Helvetica,sans-Serif" font-size="10.00">Sensor()</text>
<text text-anchor="start" x="143.5" y="-111.5" font-family="Helvetica,sans-Serif" font-size="10.00">+</text>
<text text-anchor="start" x="156.5" y="-111.5" font-family="Helvetica,sans-Serif" font-size="10.00">Sensor()</text>
<text text-anchor="start" x="143.5" y="-96.5" font-family="Helvetica,sans-Serif" font-size="10.00">+</text>
<text text-anchor="start" x="156.5" y="-96.5" font-family="Helvetica,sans-Serif" font-size="10.00">getPeriod()</text>
<text text-anchor="start" x="143.5" y="-81.5" font-family="Helvetica,sans-Serif" font-size="10.00">+</text>
<text text-anchor="start" x="156.5" y="-81.5" font-family="Helvetica,sans-Serif" font-size="10.00">setPeriod()</text>
<text text-anchor="start" x="143.5" y="-66.5" font-family="Helvetica,sans-Serif" font-size="10.00">+</text>
<text text-anchor="start" x="156.5" y="-66.5" font-family="Helvetica,sans-Serif" font-size="10.00">getLastExecution()</text>
<text text-anchor="start" x="143.5" y="-51.5" font-family="Helvetica,sans-Serif" font-size="10.00">+</text>
<text text-anchor="start" x="156.5" y="-51.5" font-family="Helvetica,sans-Serif" font-size="10.00">setLastExecution()</text>
<text text-anchor="start" x="143.5" y="-36.5" font-family="Helvetica,sans-Serif" font-size="10.00">+</text>
<text text-anchor="start" x="156.5" y="-36.5" font-family="Helvetica,sans-Serif" font-size="10.00">getSensorCSVHeader()</text>
<text text-anchor="start" x="143.5" y="-21.5" font-family="Helvetica,sans-Serif" font-size="10.00">+</text>
<text text-anchor="start" x="156.5" y="-21.5" font-family="Helvetica,sans-Serif" font-size="10.00">verify()</text>
<text text-anchor="start" x="156.5" y="-6.5" font-family="Helvetica,sans-Serif" font-size="10.00">and 6 more...</text>
<polygon fill="#666666" stroke="#666666" points="139.5,-181.5 139.5,-181.5 272.5,-181.5 272.5,-181.5 139.5,-181.5"/>
<polygon fill="#666666" stroke="#666666" points="139.5,-166.5 139.5,-166.5 272.5,-166.5 272.5,-166.5 139.5,-166.5"/>
<polygon fill="none" stroke="#666666" points="139,0 139,-199 272,-199 272,0 139,0"/>
</a>
</g>
</g>
<!-- Node2 -->
<g id="Node000002" class="node">
<title>Node2</title>
<g id="a_Node000002"><a xlink:href="classDevice.html" target="_top" xlink:title="Implements the recovery system for Sensor and Storage objects.">
<polygon fill="white" stroke="transparent" points="267,-405 144,-405 144,-236 267,-236 267,-405"/>
<text text-anchor="start" x="189" y="-392.5" font-family="Helvetica,sans-Serif" font-size="10.00">Device</text>
<text text-anchor="start" x="204" y="-377.5" font-family="Helvetica,sans-Serif" font-size="10.00"> </text>
<text text-anchor="start" x="148.5" y="-362.5" font-family="Helvetica,sans-Serif" font-size="10.00">+</text>
<text text-anchor="start" x="161.5" y="-362.5" font-family="Helvetica,sans-Serif" font-size="10.00">Device()</text>
<text text-anchor="start" x="148.5" y="-347.5" font-family="Helvetica,sans-Serif" font-size="10.00">+</text>
<text text-anchor="start" x="161.5" y="-347.5" font-family="Helvetica,sans-Serif" font-size="10.00">Device()</text>
<text text-anchor="start" x="148.5" y="-332.5" font-family="Helvetica,sans-Serif" font-size="10.00">+</text>
<text text-anchor="start" x="161.5" y="-332.5" font-family="Helvetica,sans-Serif" font-size="10.00">getDeviceName()</text>
<text text-anchor="start" x="148.5" y="-317.5" font-family="Helvetica,sans-Serif" font-size="10.00">+</text>
<text text-anchor="start" x="161.5" y="-317.5" font-family="Helvetica,sans-Serif" font-size="10.00">verify()</text>
<text text-anchor="start" x="148.5" y="-302.5" font-family="Helvetica,sans-Serif" font-size="10.00">+</text>
<text text-anchor="start" x="161.5" y="-302.5" font-family="Helvetica,sans-Serif" font-size="10.00">getVerified()</text>
<text text-anchor="start" x="148.5" y="-287.5" font-family="Helvetica,sans-Serif" font-size="10.00">+</text>
<text text-anchor="start" x="161.5" y="-287.5" font-family="Helvetica,sans-Serif" font-size="10.00">recoveryConfig()</text>
<text text-anchor="start" x="148.5" y="-272.5" font-family="Helvetica,sans-Serif" font-size="10.00">+</text>
<text text-anchor="start" x="161.5" y="-272.5" font-family="Helvetica,sans-Serif" font-size="10.00">setWaitFactor()</text>
<text text-anchor="start" x="148.5" y="-257.5" font-family="Helvetica,sans-Serif" font-size="10.00">+</text>
<text text-anchor="start" x="161.5" y="-257.5" font-family="Helvetica,sans-Serif" font-size="10.00">setMaxAttempts()</text>
<text text-anchor="start" x="148.5" y="-242.5" font-family="Helvetica,sans-Serif" font-size="10.00">+</text>
<text text-anchor="start" x="161.5" y="-242.5" font-family="Helvetica,sans-Serif" font-size="10.00">attemptConnection()</text>
<polygon fill="#666666" stroke="#666666" points="144.5,-387.5 144.5,-387.5 267.5,-387.5 267.5,-387.5 144.5,-387.5"/>
<polygon fill="#666666" stroke="#666666" points="144.5,-372.5 144.5,-372.5 267.5,-372.5 267.5,-372.5 144.5,-372.5"/>
<polygon fill="none" stroke="#666666" points="144,-236 144,-405 267,-405 267,-236 144,-236"/>
</a>
</g>
</g>
<!-- Node2&#45;&gt;Node1 -->
<g id="edge1_Node000001_Node000002" class="edge">
<title>Node2&#45;&gt;Node1</title>
<g id="a_edge1_Node000001_Node000002"><a xlink:title=" ">
<path fill="none" stroke="#63b8ff" d="M205.5,-225.59C205.5,-216.86 205.5,-207.99 205.5,-199.22"/>
<polygon fill="none" stroke="#63b8ff" points="202,-225.77 205.5,-235.77 209,-225.77 202,-225.77"/>
</a>
</g>
</g>
<!-- Node3 -->
<g id="Node000003" class="node">
<title>Node3</title>
<g id="a_Node000003"><a xlink:title=" ">
<polygon fill="white" stroke="transparent" points="79,-512 0,-512 0,-463 79,-463 79,-512"/>
<text text-anchor="start" x="5.5" y="-499.5" font-family="Helvetica,sans-Serif" font-size="10.00">unsigned long</text>
<text text-anchor="start" x="38" y="-484.5" font-family="Helvetica,sans-Serif" font-size="10.00"> </text>
<text text-anchor="start" x="38" y="-469.5" font-family="Helvetica,sans-Serif" font-size="10.00"> </text>
<polygon fill="#666666" stroke="#666666" points="0.5,-494.5 0.5,-494.5 79.5,-494.5 79.5,-494.5 0.5,-494.5"/>
<polygon fill="#666666" stroke="#666666" points="0.5,-479.5 0.5,-479.5 79.5,-479.5 79.5,-479.5 0.5,-479.5"/>
<polygon fill="none" stroke="#666666" points="0,-463 0,-512 79,-512 79,-463 0,-463"/>
</a>
</g>
</g>
<!-- Node3&#45;&gt;Node1 -->
<g id="edge6_Node000001_Node000003" class="edge">
<title>Node3&#45;&gt;Node1</title>
<g id="a_edge6_Node000001_Node000003"><a xlink:title=" ">
<path fill="none" stroke="#63b8ff" d="M34.12,-462.93C24.83,-416.73 10.06,-312.13 46.5,-236 64.23,-198.95 97.39,-168.17 128.86,-145.35"/>
<polygon fill="none" stroke="#63b8ff" points="129.18,-145.13 131.78,-138.41 138.99,-138.23 136.39,-144.95 129.18,-145.13"/>
</a>
</g>
<text text-anchor="middle" x="90.5" y="-323.5" font-family="Helvetica,sans-Serif" font-size="10.00" fill="grey"> &#45;last_execution</text>
<text text-anchor="middle" x="90.5" y="-312.5" font-family="Helvetica,sans-Serif" font-size="10.00" fill="grey">&#45;minimum_period</text>
</g>
<!-- Node3&#45;&gt;Node2 -->
<g id="edge2_Node000002_Node000003" class="edge">
<title>Node3&#45;&gt;Node2</title>
<g id="a_edge2_Node000002_Node000003"><a xlink:title=" ">
<path fill="none" stroke="#63b8ff" d="M51.95,-462.79C59.55,-449.92 70.16,-434.36 82.5,-423 94.51,-411.95 101.29,-414.58 114.5,-405 121.15,-400.18 127.84,-394.93 134.42,-389.49"/>
<polygon fill="none" stroke="#63b8ff" points="134.8,-389.17 136.8,-382.24 143.96,-381.42 141.97,-388.35 134.8,-389.17"/>
</a>
</g>
<text text-anchor="middle" x="117.5" y="-437" font-family="Helvetica,sans-Serif" font-size="10.00" fill="grey"> &#45;last_attempt</text>
<text text-anchor="middle" x="117.5" y="-426" font-family="Helvetica,sans-Serif" font-size="10.00" fill="grey">&#45;wait_factor</text>
</g>
<!-- Node4 -->
<g id="Node000004" class="node">
<title>Node4</title>
<g id="a_Node000004"><a xlink:title=" ">
<polygon fill="white" stroke="transparent" points="232,-512 209,-512 209,-463 232,-463 232,-512"/>
<text text-anchor="start" x="214.5" y="-499.5" font-family="Helvetica,sans-Serif" font-size="10.00">int</text>
<text text-anchor="start" x="219" y="-484.5" font-family="Helvetica,sans-Serif" font-size="10.00"> </text>
<text text-anchor="start" x="219" y="-469.5" font-family="Helvetica,sans-Serif" font-size="10.00"> </text>
<polygon fill="#666666" stroke="#666666" points="209.5,-494.5 209.5,-494.5 232.5,-494.5 232.5,-494.5 209.5,-494.5"/>
<polygon fill="#666666" stroke="#666666" points="209.5,-479.5 209.5,-479.5 232.5,-479.5 232.5,-479.5 209.5,-479.5"/>
<polygon fill="none" stroke="#666666" points="209,-463 209,-512 232,-512 232,-463 209,-463"/>
</a>
</g>
</g>
<!-- Node4&#45;&gt;Node2 -->
<g id="edge3_Node000002_Node000004" class="edge">
<title>Node4&#45;&gt;Node2</title>
<g id="a_edge3_Node000002_Node000004"><a xlink:title=" ">
<path fill="none" stroke="#63b8ff" d="M218.35,-462.86C217.22,-450.45 215.76,-434.34 214.22,-417.46"/>
<polygon fill="none" stroke="#63b8ff" points="214.18,-417.03 209.66,-411.41 213.1,-405.07 217.62,-410.69 214.18,-417.03"/>
</a>
</g>
<text text-anchor="middle" x="260" y="-437" font-family="Helvetica,sans-Serif" font-size="10.00" fill="grey"> &#45;attempt_number</text>
<text text-anchor="middle" x="260" y="-426" font-family="Helvetica,sans-Serif" font-size="10.00" fill="grey">&#45;max_attempts</text>
</g>
<!-- Node5 -->
<g id="Node000005" class="node">
<title>Node5</title>
<g id="a_Node000005"><a xlink:title=" ">
<polygon fill="white" stroke="transparent" points="396,-512 357,-512 357,-463 396,-463 396,-512"/>
<text text-anchor="start" x="362.5" y="-499.5" font-family="Helvetica,sans-Serif" font-size="10.00">String</text>
<text text-anchor="start" x="375" y="-484.5" font-family="Helvetica,sans-Serif" font-size="10.00"> </text>
<text text-anchor="start" x="375" y="-469.5" font-family="Helvetica,sans-Serif" font-size="10.00"> </text>
<polygon fill="#666666" stroke="#666666" points="357.5,-494.5 357.5,-494.5 396.5,-494.5 396.5,-494.5 357.5,-494.5"/>
<polygon fill="#666666" stroke="#666666" points="357.5,-479.5 357.5,-479.5 396.5,-479.5 396.5,-479.5 357.5,-479.5"/>
<polygon fill="none" stroke="#666666" points="357,-463 357,-512 396,-512 396,-463 357,-463"/>
</a>
</g>
</g>
<!-- Node5&#45;&gt;Node1 -->
<g id="edge7_Node000001_Node000005" class="edge">
<title>Node5&#45;&gt;Node1</title>
<g id="a_edge7_Node000001_Node000005"><a xlink:title=" ">
<path fill="none" stroke="#63b8ff" d="M396.13,-464.66C400.37,-458.69 404.26,-451.94 406.5,-445 409.51,-435.7 409.19,-432.4 406.5,-423 381.69,-336.3 326.07,-250.24 279.62,-188.86"/>
<polygon fill="none" stroke="#63b8ff" points="279.54,-188.76 272.72,-186.42 272.25,-179.23 279.07,-181.56 279.54,-188.76"/>
</a>
</g>
<text text-anchor="middle" x="431" y="-323.5" font-family="Helvetica,sans-Serif" font-size="10.00" fill="grey"> &#45;csv_header</text>
<text text-anchor="middle" x="431" y="-312.5" font-family="Helvetica,sans-Serif" font-size="10.00" fill="grey">&#45;empty_csv</text>
</g>
<!-- Node5&#45;&gt;Node2 -->
<g id="edge4_Node000002_Node000005" class="edge">
<title>Node5&#45;&gt;Node2</title>
<g id="a_edge4_Node000002_Node000005"><a xlink:title=" ">
<path fill="none" stroke="#63b8ff" d="M356.88,-467.57C337.09,-448.47 305.34,-417.83 276.01,-389.54"/>
<polygon fill="none" stroke="#63b8ff" points="275.64,-389.18 268.54,-387.89 267,-380.85 274.1,-382.13 275.64,-389.18"/>
</a>
</g>
<text text-anchor="middle" x="367" y="-431.5" font-family="Helvetica,sans-Serif" font-size="10.00" fill="grey"> &#45;device_name</text>
</g>
<!-- Node6 -->
<g id="Node000006" class="node">
<title>Node6</title>
<g id="a_Node000006"><a xlink:title=" ">
<polygon fill="white" stroke="transparent" points="164.5,-512 132.5,-512 132.5,-463 164.5,-463 164.5,-512"/>
<text text-anchor="start" x="137.5" y="-499.5" font-family="Helvetica,sans-Serif" font-size="10.00">bool</text>
<text text-anchor="start" x="146.5" y="-484.5" font-family="Helvetica,sans-Serif" font-size="10.00"> </text>
<text text-anchor="start" x="146.5" y="-469.5" font-family="Helvetica,sans-Serif" font-size="10.00"> </text>
<polygon fill="#666666" stroke="#666666" points="132.5,-494.5 132.5,-494.5 164.5,-494.5 164.5,-494.5 132.5,-494.5"/>
<polygon fill="#666666" stroke="#666666" points="132.5,-479.5 132.5,-479.5 164.5,-479.5 164.5,-479.5 132.5,-479.5"/>
<polygon fill="none" stroke="#666666" points="132.5,-463 132.5,-512 164.5,-512 164.5,-463 132.5,-463"/>
</a>
</g>
</g>
<!-- Node6&#45;&gt;Node2 -->
<g id="edge5_Node000002_Node000006" class="edge">
<title>Node6&#45;&gt;Node2</title>
<g id="a_edge5_Node000002_Node000006"><a xlink:title=" ">
<path fill="none" stroke="#63b8ff" d="M152.12,-462.98C154.28,-450.88 157.4,-435.99 161.5,-423 162.16,-420.89 162.86,-418.77 163.58,-416.64"/>
<polygon fill="none" stroke="#63b8ff" points="163.63,-416.49 161.86,-409.5 167.64,-405.18 169.4,-412.17 163.63,-416.49"/>
</a>
</g>
<text text-anchor="middle" x="186" y="-431.5" font-family="Helvetica,sans-Serif" font-size="10.00" fill="grey"> #verified</text>
</g>
</g>
</svg>
