<?xml version="1.0" encoding="UTF-8" standalone="no"?>
<!DOCTYPE svg PUBLIC "-//W3C//DTD SVG 1.1//EN"
 "http://www.w3.org/Graphics/SVG/1.1/DTD/svg11.dtd">
<!-- Generated by graphviz version 2.43.0 (0)
 -->
<!-- Title: Storage Pages: 1 -->
<svg width="361pt" height="398pt"
 viewBox="0.00 0.00 360.50 398.00" xmlns="http://www.w3.org/2000/svg" xmlns:xlink="http://www.w3.org/1999/xlink">
<g id="graph0" class="graph" transform="scale(1 1) rotate(0) translate(4 394)">
<title>Storage</title>
<!-- Node1 -->
<g id="node1" class="node">
<title>Node1</title>
<g id="a_node1"><a xlink:title="Parent class for all data storage devices (sd card, radio, etc)">
<polygon fill="#bfbfbf" stroke="black" points="118.5,-0.5 118.5,-90.5 210.5,-90.5 210.5,-0.5 118.5,-0.5"/>
<text text-anchor="middle" x="164.5" y="-78.5" font-family="Helvetica,sans-Serif" font-size="10.00">Storage</text>
<polyline fill="none" stroke="black" points="118.5,-71.5 210.5,-71.5 "/>
<text text-anchor="middle" x="164.5" y="-59.5" font-family="Helvetica,sans-Serif" font-size="10.00"> </text>
<polyline fill="none" stroke="black" points="118.5,-52.5 210.5,-52.5 "/>
<text text-anchor="start" x="126.5" y="-40.5" font-family="Helvetica,sans-Serif" font-size="10.00">+ Storage()</text>
<text text-anchor="start" x="126.5" y="-29.5" font-family="Helvetica,sans-Serif" font-size="10.00">+ verify()</text>
<text text-anchor="start" x="126.5" y="-18.5" font-family="Helvetica,sans-Serif" font-size="10.00">+ store()</text>
<text text-anchor="start" x="126.5" y="-7.5" font-family="Helvetica,sans-Serif" font-size="10.00">+ storePacket()</text>
</a>
</g>
</g>
<!-- Node2 -->
<g id="node2" class="node">
<title>Node2</title>
<g id="a_node2"><a xlink:href="classDevice.html" target="_top" xlink:title="Implements the recovery system for Sensor and Storage objects.">
<polygon fill="none" stroke="black" points="100,-128.5 100,-273.5 229,-273.5 229,-128.5 100,-128.5"/>
<text text-anchor="middle" x="164.5" y="-261.5" font-family="Helvetica,sans-Serif" font-size="10.00">Device</text>
<polyline fill="none" stroke="black" points="100,-254.5 229,-254.5 "/>
<text text-anchor="middle" x="164.5" y="-242.5" font-family="Helvetica,sans-Serif" font-size="10.00"> </text>
<polyline fill="none" stroke="black" points="100,-235.5 229,-235.5 "/>
<text text-anchor="start" x="108" y="-223.5" font-family="Helvetica,sans-Serif" font-size="10.00">+ Device()</text>
<text text-anchor="start" x="108" y="-212.5" font-family="Helvetica,sans-Serif" font-size="10.00">+ Device()</text>
<text text-anchor="start" x="108" y="-201.5" font-family="Helvetica,sans-Serif" font-size="10.00">+ getDeviceName()</text>
<text text-anchor="start" x="108" y="-190.5" font-family="Helvetica,sans-Serif" font-size="10.00">+ verify()</text>
<text text-anchor="start" x="108" y="-179.5" font-family="Helvetica,sans-Serif" font-size="10.00">+ getVerified()</text>
<text text-anchor="start" x="108" y="-168.5" font-family="Helvetica,sans-Serif" font-size="10.00">+ recoveryConfig()</text>
<text text-anchor="start" x="108" y="-157.5" font-family="Helvetica,sans-Serif" font-size="10.00">+ setWaitFactor()</text>
<text text-anchor="start" x="108" y="-146.5" font-family="Helvetica,sans-Serif" font-size="10.00">+ setMaxAttempts()</text>
<text text-anchor="start" x="108" y="-135.5" font-family="Helvetica,sans-Serif" font-size="10.00">+ attemptConnection()</text>
</a>
</g>
</g>
<!-- Node2&#45;&gt;Node1 -->
<g id="edge1" class="edge">
<title>Node2&#45;&gt;Node1</title>
<path fill="none" stroke="midnightblue" d="M164.5,-117.98C164.5,-108.59 164.5,-99.3 164.5,-90.68"/>
<polygon fill="none" stroke="midnightblue" points="161,-118.19 164.5,-128.19 168,-118.19 161,-118.19"/>
</g>
<!-- Node3 -->
<g id="node3" class="node">
<title>Node3</title>
<g id="a_node3"><a xlink:title=" ">
<polygon fill="none" stroke="#bfbfbf" points="0,-332.5 0,-389.5 45,-389.5 45,-332.5 0,-332.5"/>
<text text-anchor="middle" x="22.5" y="-377.5" font-family="Helvetica,sans-Serif" font-size="10.00">String</text>
<polyline fill="none" stroke="#bfbfbf" points="0,-370.5 45,-370.5 "/>
<text text-anchor="middle" x="22.5" y="-358.5" font-family="Helvetica,sans-Serif" font-size="10.00"> </text>
<polyline fill="none" stroke="#bfbfbf" points="0,-351.5 45,-351.5 "/>
<text text-anchor="middle" x="22.5" y="-339.5" font-family="Helvetica,sans-Serif" font-size="10.00"> </text>
</a>
</g>
</g>
<!-- Node3&#45;&gt;Node2 -->
<g id="edge2" class="edge">
<title>Node3&#45;&gt;Node2</title>
<path fill="none" stroke="#404040" d="M24.97,-332.38C27.2,-319.26 31.44,-303.88 39.5,-292 52.48,-272.86 70.95,-256.39 89.72,-242.96"/>
<polygon fill="none" stroke="#404040" points="89.94,-242.8 92.63,-236.11 99.84,-236.01 97.15,-242.71 89.94,-242.8"/>
<text text-anchor="middle" x="76" y="-300.5" font-family="Helvetica,sans-Serif" font-size="10.00"> &#45;device_name</text>
</g>
<!-- Node4 -->
<g id="node4" class="node">
<title>Node4</title>
<g id="a_node4"><a xlink:title=" ">
<polygon fill="none" stroke="#bfbfbf" points="76,-332.5 76,-389.5 161,-389.5 161,-332.5 76,-332.5"/>
<text text-anchor="middle" x="118.5" y="-377.5" font-family="Helvetica,sans-Serif" font-size="10.00">unsigned long</text>
<polyline fill="none" stroke="#bfbfbf" points="76,-370.5 161,-370.5 "/>
<text text-anchor="middle" x="118.5" y="-358.5" font-family="Helvetica,sans-Serif" font-size="10.00"> </text>
<polyline fill="none" stroke="#bfbfbf" points="76,-351.5 161,-351.5 "/>
<text text-anchor="middle" x="118.5" y="-339.5" font-family="Helvetica,sans-Serif" font-size="10.00"> </text>
</a>
</g>
</g>
<!-- Node4&#45;&gt;Node2 -->
<g id="edge3" class="edge">
<title>Node4&#45;&gt;Node2</title>
<path fill="none" stroke="#404040" d="M116.13,-332.18C115.77,-319.73 116.34,-304.96 119.5,-292 120.06,-289.71 120.68,-287.41 121.37,-285.11"/>
<polygon fill="none" stroke="#404040" points="121.4,-285 119.52,-278.04 125.22,-273.62 127.1,-280.59 121.4,-285"/>
<text text-anchor="middle" x="154.5" y="-306" font-family="Helvetica,sans-Serif" font-size="10.00"> &#45;last_attempt</text>
<text text-anchor="middle" x="154.5" y="-295" font-family="Helvetica,sans-Serif" font-size="10.00">&#45;wait_factor</text>
</g>
<!-- Node5 -->
<g id="node5" class="node">
<title>Node5</title>
<g id="a_node5"><a xlink:title=" ">
<polygon fill="none" stroke="#bfbfbf" points="197,-332.5 197,-389.5 226,-389.5 226,-332.5 197,-332.5"/>
<text text-anchor="middle" x="211.5" y="-377.5" font-family="Helvetica,sans-Serif" font-size="10.00">int</text>
<polyline fill="none" stroke="#bfbfbf" points="197,-370.5 226,-370.5 "/>
<text text-anchor="middle" x="211.5" y="-358.5" font-family="Helvetica,sans-Serif" font-size="10.00"> </text>
<polyline fill="none" stroke="#bfbfbf" points="197,-351.5 226,-351.5 "/>
<text text-anchor="middle" x="211.5" y="-339.5" font-family="Helvetica,sans-Serif" font-size="10.00"> </text>
</a>
</g>
</g>
<!-- Node5&#45;&gt;Node2 -->
<g id="edge4" class="edge">
<title>Node5&#45;&gt;Node2</title>
<path fill="none" stroke="#404040" d="M203.31,-332.48C199.36,-319.19 194.38,-302.46 189.32,-285.45"/>
<polygon fill="none" stroke="#404040" points="189.24,-285.17 183.7,-280.56 185.82,-273.67 191.36,-278.28 189.24,-285.17"/>
<text text-anchor="middle" x="242" y="-306" font-family="Helvetica,sans-Serif" font-size="10.00"> &#45;attempt_number</text>
<text text-anchor="middle" x="242" y="-295" font-family="Helvetica,sans-Serif" font-size="10.00">&#45;max_attempts</text>
</g>
<!-- Node6 -->
<g id="node6" class="node">
<title>Node6</title>
<g id="a_node6"><a xlink:title=" ">
<polygon fill="none" stroke="#bfbfbf" points="304.5,-332.5 304.5,-389.5 342.5,-389.5 342.5,-332.5 304.5,-332.5"/>
<text text-anchor="middle" x="323.5" y="-377.5" font-family="Helvetica,sans-Serif" font-size="10.00">bool</text>
<polyline fill="none" stroke="#bfbfbf" points="304.5,-370.5 342.5,-370.5 "/>
<text text-anchor="middle" x="323.5" y="-358.5" font-family="Helvetica,sans-Serif" font-size="10.00"> </text>
<polyline fill="none" stroke="#bfbfbf" points="304.5,-351.5 342.5,-351.5 "/>
<text text-anchor="middle" x="323.5" y="-339.5" font-family="Helvetica,sans-Serif" font-size="10.00"> </text>
</a>
</g>
</g>
<!-- Node6&#45;&gt;Node2 -->
<g id="edge5" class="edge">
<title>Node6&#45;&gt;Node2</title>
<path fill="none" stroke="#404040" d="M313.78,-332.34C308.28,-319.2 300.49,-303.83 290.5,-292 275.95,-274.76 257.4,-259.16 239.03,-245.96"/>
<polygon fill="none" stroke="#404040" points="239.01,-245.95 231.8,-245.8 229.17,-239.09 236.38,-239.24 239.01,-245.95"/>
<text text-anchor="middle" x="328" y="-300.5" font-family="Helvetica,sans-Serif" font-size="10.00"> #verified</text>
</g>
</g>
</svg>
