<?xml version="1.0" encoding="UTF-8" standalone="no"?>
<!DOCTYPE svg PUBLIC "-//W3C//DTD SVG 1.1//EN"
 "http://www.w3.org/Graphics/SVG/1.1/DTD/svg11.dtd">
<!-- Generated by graphviz version 2.43.0 (0)
 -->
<!-- Title: FlashStorage Pages: 1 -->
<svg width="709pt" height="745pt"
 viewBox="0.00 0.00 708.50 745.00" xmlns="http://www.w3.org/2000/svg" xmlns:xlink="http://www.w3.org/1999/xlink">
<g id="graph0" class="graph" transform="scale(1 1) rotate(0) translate(4 741)">
<title>FlashStorage</title>
<!-- Node1 -->
<g id="Node000001" class="node">
<title>Node1</title>
<g id="a_Node000001"><a xlink:title=" ">
<polygon fill="#999999" stroke="transparent" points="482.5,-229 376.5,-229 376.5,0 482.5,0 482.5,-229"/>
<text text-anchor="start" x="397.5" y="-216.5" font-family="Helvetica,sans-Serif" font-size="10.00">FlashStorage</text>
<text text-anchor="start" x="427.5" y="-201.5" font-family="Helvetica,sans-Serif" font-size="10.00"> </text>
<text text-anchor="start" x="380.5" y="-186.5" font-family="Helvetica,sans-Serif" font-size="10.00">+</text>
<text text-anchor="start" x="393.5" y="-186.5" font-family="Helvetica,sans-Serif" font-size="10.00">FlashStorage()</text>
<text text-anchor="start" x="380.5" y="-171.5" font-family="Helvetica,sans-Serif" font-size="10.00">+</text>
<text text-anchor="start" x="393.5" y="-171.5" font-family="Helvetica,sans-Serif" font-size="10.00">verify()</text>
<text text-anchor="start" x="380.5" y="-156.5" font-family="Helvetica,sans-Serif" font-size="10.00">+</text>
<text text-anchor="start" x="393.5" y="-156.5" font-family="Helvetica,sans-Serif" font-size="10.00">store()</text>
<text text-anchor="start" x="380.5" y="-141.5" font-family="Helvetica,sans-Serif" font-size="10.00">+</text>
<text text-anchor="start" x="393.5" y="-141.5" font-family="Helvetica,sans-Serif" font-size="10.00">storePacket()</text>
<text text-anchor="start" x="380.5" y="-126.5" font-family="Helvetica,sans-Serif" font-size="10.00">+</text>
<text text-anchor="start" x="393.5" y="-126.5" font-family="Helvetica,sans-Serif" font-size="10.00">dump()</text>
<text text-anchor="start" x="380.5" y="-111.5" font-family="Helvetica,sans-Serif" font-size="10.00">+</text>
<text text-anchor="start" x="393.5" y="-111.5" font-family="Helvetica,sans-Serif" font-size="10.00">erase()</text>
<text text-anchor="start" x="380.5" y="-96.5" font-family="Helvetica,sans-Serif" font-size="10.00">+</text>
<text text-anchor="start" x="393.5" y="-96.5" font-family="Helvetica,sans-Serif" font-size="10.00">downloadFile()</text>
<text text-anchor="start" x="380.5" y="-81.5" font-family="Helvetica,sans-Serif" font-size="10.00">+</text>
<text text-anchor="start" x="393.5" y="-81.5" font-family="Helvetica,sans-Serif" font-size="10.00">getStatus()</text>
<text text-anchor="start" x="383" y="-66.5" font-family="Helvetica,sans-Serif" font-size="10.00">&#45;</text>
<text text-anchor="start" x="393.5" y="-66.5" font-family="Helvetica,sans-Serif" font-size="10.00">indexFlash()</text>
<text text-anchor="start" x="383" y="-51.5" font-family="Helvetica,sans-Serif" font-size="10.00">&#45;</text>
<text text-anchor="start" x="393.5" y="-51.5" font-family="Helvetica,sans-Serif" font-size="10.00">loadAddress()</text>
<text text-anchor="start" x="383" y="-36.5" font-family="Helvetica,sans-Serif" font-size="10.00">&#45;</text>
<text text-anchor="start" x="393.5" y="-36.5" font-family="Helvetica,sans-Serif" font-size="10.00">isSectorEmpty()</text>
<text text-anchor="start" x="383" y="-21.5" font-family="Helvetica,sans-Serif" font-size="10.00">&#45;</text>
<text text-anchor="start" x="393.5" y="-21.5" font-family="Helvetica,sans-Serif" font-size="10.00">readFileHeader()</text>
<text text-anchor="start" x="383" y="-6.5" font-family="Helvetica,sans-Serif" font-size="10.00">&#45;</text>
<text text-anchor="start" x="393.5" y="-6.5" font-family="Helvetica,sans-Serif" font-size="10.00">writeFileHeader()</text>
<polygon fill="#666666" stroke="#666666" points="376.5,-211.5 376.5,-211.5 482.5,-211.5 482.5,-211.5 376.5,-211.5"/>
<polygon fill="#666666" stroke="#666666" points="376.5,-196.5 376.5,-196.5 482.5,-196.5 482.5,-196.5 376.5,-196.5"/>
<polygon fill="none" stroke="#666666" points="376.5,0 376.5,-229 482.5,-229 482.5,0 376.5,0"/>
</a>
</g>
</g>
<!-- Node2 -->
<g id="Node000002" class="node">
<title>Node2</title>
<g id="a_Node000002"><a xlink:href="classStorage.html" target="_top" xlink:title="Parent class for all data storage devices (sd card, radio, etc)">
<polygon fill="white" stroke="transparent" points="329,-414 244,-414 244,-320 329,-320 329,-414"/>
<text text-anchor="start" x="268" y="-402" font-family="Helvetica,sans-Serif" font-size="10.00">Storage</text>
<text text-anchor="start" x="285" y="-387" font-family="Helvetica,sans-Serif" font-size="10.00"> </text>
<text text-anchor="start" x="248.5" y="-372" font-family="Helvetica,sans-Serif" font-size="10.00">+</text>
<text text-anchor="start" x="261.5" y="-372" font-family="Helvetica,sans-Serif" font-size="10.00">Storage()</text>
<text text-anchor="start" x="248.5" y="-357" font-family="Helvetica,sans-Serif" font-size="10.00">+</text>
<text text-anchor="start" x="261.5" y="-357" font-family="Helvetica,sans-Serif" font-size="10.00">verify()</text>
<text text-anchor="start" x="248.5" y="-342" font-family="Helvetica,sans-Serif" font-size="10.00">+</text>
<text text-anchor="start" x="261.5" y="-342" font-family="Helvetica,sans-Serif" font-size="10.00">store()</text>
<text text-anchor="start" x="248.5" y="-327" font-family="Helvetica,sans-Serif" font-size="10.00">+</text>
<text text-anchor="start" x="261.5" y="-327" font-family="Helvetica,sans-Serif" font-size="10.00">storePacket()</text>
<polygon fill="#666666" stroke="#666666" points="244.5,-397 244.5,-397 329.5,-397 329.5,-397 244.5,-397"/>
<polygon fill="#666666" stroke="#666666" points="244.5,-382 244.5,-382 329.5,-382 329.5,-382 244.5,-382"/>
<polygon fill="none" stroke="#666666" points="244,-320 244,-414 329,-414 329,-320 244,-320"/>
</a>
</g>
</g>
<!-- Node2&#45;&gt;Node1 -->
<g id="edge1_Node000001_Node000002" class="edge">
<title>Node2&#45;&gt;Node1</title>
<g id="a_edge1_Node000001_Node000002"><a xlink:title=" ">
<path fill="none" stroke="#63b8ff" d="M318.06,-310.72C335.19,-280.71 356.82,-242.82 376.45,-208.43"/>
<polygon fill="none" stroke="#63b8ff" points="314.81,-309.34 312.9,-319.76 320.89,-312.81 314.81,-309.34"/>
</a>
</g>
</g>
<!-- Node3 -->
<g id="Node000003" class="node">
<title>Node3</title>
<g id="a_Node000003"><a xlink:href="classDevice.html" target="_top" xlink:title="Implements the recovery system for Sensor and Storage objects.">
<polygon fill="white" stroke="transparent" points="278,-630 155,-630 155,-461 278,-461 278,-630"/>
<text text-anchor="start" x="200" y="-617.5" font-family="Helvetica,sans-Serif" font-size="10.00">Device</text>
<text text-anchor="start" x="215" y="-602.5" font-family="Helvetica,sans-Serif" font-size="10.00"> </text>
<text text-anchor="start" x="159.5" y="-587.5" font-family="Helvetica,sans-Serif" font-size="10.00">+</text>
<text text-anchor="start" x="172.5" y="-587.5" font-family="Helvetica,sans-Serif" font-size="10.00">Device()</text>
<text text-anchor="start" x="159.5" y="-572.5" font-family="Helvetica,sans-Serif" font-size="10.00">+</text>
<text text-anchor="start" x="172.5" y="-572.5" font-family="Helvetica,sans-Serif" font-size="10.00">Device()</text>
<text text-anchor="start" x="159.5" y="-557.5" font-family="Helvetica,sans-Serif" font-size="10.00">+</text>
<text text-anchor="start" x="172.5" y="-557.5" font-family="Helvetica,sans-Serif" font-size="10.00">getDeviceName()</text>
<text text-anchor="start" x="159.5" y="-542.5" font-family="Helvetica,sans-Serif" font-size="10.00">+</text>
<text text-anchor="start" x="172.5" y="-542.5" font-family="Helvetica,sans-Serif" font-size="10.00">verify()</text>
<text text-anchor="start" x="159.5" y="-527.5" font-family="Helvetica,sans-Serif" font-size="10.00">+</text>
<text text-anchor="start" x="172.5" y="-527.5" font-family="Helvetica,sans-Serif" font-size="10.00">getVerified()</text>
<text text-anchor="start" x="159.5" y="-512.5" font-family="Helvetica,sans-Serif" font-size="10.00">+</text>
<text text-anchor="start" x="172.5" y="-512.5" font-family="Helvetica,sans-Serif" font-size="10.00">recoveryConfig()</text>
<text text-anchor="start" x="159.5" y="-497.5" font-family="Helvetica,sans-Serif" font-size="10.00">+</text>
<text text-anchor="start" x="172.5" y="-497.5" font-family="Helvetica,sans-Serif" font-size="10.00">setWaitFactor()</text>
<text text-anchor="start" x="159.5" y="-482.5" font-family="Helvetica,sans-Serif" font-size="10.00">+</text>
<text text-anchor="start" x="172.5" y="-482.5" font-family="Helvetica,sans-Serif" font-size="10.00">setMaxAttempts()</text>
<text text-anchor="start" x="159.5" y="-467.5" font-family="Helvetica,sans-Serif" font-size="10.00">+</text>
<text text-anchor="start" x="172.5" y="-467.5" font-family="Helvetica,sans-Serif" font-size="10.00">attemptConnection()</text>
<polygon fill="#666666" stroke="#666666" points="155.5,-612.5 155.5,-612.5 278.5,-612.5 278.5,-612.5 155.5,-612.5"/>
<polygon fill="#666666" stroke="#666666" points="155.5,-597.5 155.5,-597.5 278.5,-597.5 278.5,-597.5 155.5,-597.5"/>
<polygon fill="none" stroke="#666666" points="155,-461 155,-630 278,-630 278,-461 155,-461"/>
</a>
</g>
</g>
<!-- Node3&#45;&gt;Node2 -->
<g id="edge2_Node000002_Node000003" class="edge">
<title>Node3&#45;&gt;Node2</title>
<g id="a_edge2_Node000002_Node000003"><a xlink:title=" ">
<path fill="none" stroke="#63b8ff" d="M253.39,-451.5C258.5,-438.59 263.57,-425.82 268.14,-414.3"/>
<polygon fill="none" stroke="#63b8ff" points="250.09,-450.32 249.66,-460.9 256.6,-452.9 250.09,-450.32"/>
</a>
</g>
</g>
<!-- Node4 -->
<g id="Node000004" class="node">
<title>Node4</title>
<g id="a_Node000004"><a xlink:title=" ">
<polygon fill="white" stroke="transparent" points="163,-737 84,-737 84,-688 163,-688 163,-737"/>
<text text-anchor="start" x="89.5" y="-724.5" font-family="Helvetica,sans-Serif" font-size="10.00">unsigned long</text>
<text text-anchor="start" x="122" y="-709.5" font-family="Helvetica,sans-Serif" font-size="10.00"> </text>
<text text-anchor="start" x="122" y="-694.5" font-family="Helvetica,sans-Serif" font-size="10.00"> </text>
<polygon fill="#666666" stroke="#666666" points="84.5,-719.5 84.5,-719.5 163.5,-719.5 163.5,-719.5 84.5,-719.5"/>
<polygon fill="#666666" stroke="#666666" points="84.5,-704.5 84.5,-704.5 163.5,-704.5 163.5,-704.5 84.5,-704.5"/>
<polygon fill="none" stroke="#666666" points="84,-688 84,-737 163,-737 163,-688 84,-688"/>
</a>
</g>
</g>
<!-- Node4&#45;&gt;Node3 -->
<g id="edge3_Node000003_Node000004" class="edge">
<title>Node4&#45;&gt;Node3</title>
<g id="a_edge3_Node000003_Node000004"><a xlink:title=" ">
<path fill="none" stroke="#63b8ff" d="M128.54,-687.86C131.66,-675.59 136.26,-660.58 142.5,-648 144.46,-644.06 146.56,-640.1 148.79,-636.17"/>
<polygon fill="none" stroke="#63b8ff" points="148.81,-636.13 148.42,-628.93 154.92,-625.8 155.3,-633 148.81,-636.13"/>
</a>
</g>
<text text-anchor="middle" x="177.5" y="-662" font-family="Helvetica,sans-Serif" font-size="10.00" fill="grey"> &#45;last_attempt</text>
<text text-anchor="middle" x="177.5" y="-651" font-family="Helvetica,sans-Serif" font-size="10.00" fill="grey">&#45;wait_factor</text>
</g>
<!-- Node5 -->
<g id="Node000005" class="node">
<title>Node5</title>
<g id="a_Node000005"><a xlink:title=" ">
<polygon fill="white" stroke="transparent" points="23,-737 0,-737 0,-688 23,-688 23,-737"/>
<text text-anchor="start" x="5.5" y="-724.5" font-family="Helvetica,sans-Serif" font-size="10.00">int</text>
<text text-anchor="start" x="10" y="-709.5" font-family="Helvetica,sans-Serif" font-size="10.00"> </text>
<text text-anchor="start" x="10" y="-694.5" font-family="Helvetica,sans-Serif" font-size="10.00"> </text>
<polygon fill="#666666" stroke="#666666" points="0.5,-719.5 0.5,-719.5 23.5,-719.5 23.5,-719.5 0.5,-719.5"/>
<polygon fill="#666666" stroke="#666666" points="0.5,-704.5 0.5,-704.5 23.5,-704.5 23.5,-704.5 0.5,-704.5"/>
<polygon fill="none" stroke="#666666" points="0,-688 0,-737 23,-737 23,-688 0,-688"/>
</a>
</g>
</g>
<!-- Node5&#45;&gt;Node3 -->
<g id="edge4_Node000003_Node000005" class="edge">
<title>Node5&#45;&gt;Node3</title>
<g id="a_edge4_Node000003_Node000005"><a xlink:title=" ">
<path fill="none" stroke="#63b8ff" d="M18.81,-687.76C23.67,-674.87 31.1,-659.31 41.5,-648 69.7,-617.32 109.36,-593.27 143.79,-576.3"/>
<polygon fill="none" stroke="#63b8ff" points="143.94,-576.23 147.62,-570.03 154.76,-571.04 151.08,-577.24 143.94,-576.23"/>
</a>
</g>
<text text-anchor="middle" x="86" y="-662" font-family="Helvetica,sans-Serif" font-size="10.00" fill="grey"> &#45;attempt_number</text>
<text text-anchor="middle" x="86" y="-651" font-family="Helvetica,sans-Serif" font-size="10.00" fill="grey">&#45;max_attempts</text>
</g>
<!-- Node6 -->
<g id="Node000006" class="node">
<title>Node6</title>
<g id="a_Node000006"><a xlink:title=" ">
<polygon fill="white" stroke="transparent" points="364.5,-737 332.5,-737 332.5,-688 364.5,-688 364.5,-737"/>
<text text-anchor="start" x="337.5" y="-724.5" font-family="Helvetica,sans-Serif" font-size="10.00">bool</text>
<text text-anchor="start" x="346.5" y="-709.5" font-family="Helvetica,sans-Serif" font-size="10.00"> </text>
<text text-anchor="start" x="346.5" y="-694.5" font-family="Helvetica,sans-Serif" font-size="10.00"> </text>
<polygon fill="#666666" stroke="#666666" points="332.5,-719.5 332.5,-719.5 364.5,-719.5 364.5,-719.5 332.5,-719.5"/>
<polygon fill="#666666" stroke="#666666" points="332.5,-704.5 332.5,-704.5 364.5,-704.5 364.5,-704.5 332.5,-704.5"/>
<polygon fill="none" stroke="#666666" points="332.5,-688 332.5,-737 364.5,-737 364.5,-688 332.5,-688"/>
</a>
</g>
</g>
<!-- Node6&#45;&gt;Node1 -->
<g id="edge10_Node000001_Node000006" class="edge">
<title>Node6&#45;&gt;Node1</title>
<g id="a_edge10_Node000001_Node000006"><a xlink:title=" ">
<path fill="none" stroke="#63b8ff" d="M360.29,-687.81C362.71,-682.1 364.97,-675.93 366.5,-670 405.4,-518.67 380.82,-475.12 399.5,-320 402.56,-294.55 406.25,-267.38 409.98,-241.43"/>
<polygon fill="none" stroke="#63b8ff" points="410.03,-241.08 406.94,-234.57 411.75,-229.21 414.85,-235.72 410.03,-241.08"/>
</a>
</g>
<text text-anchor="middle" x="421.5" y="-435" font-family="Helvetica,sans-Serif" font-size="10.00" fill="grey"> &#45;active_file</text>
</g>
<!-- Node6&#45;&gt;Node3 -->
<g id="edge5_Node000003_Node000006" class="edge">
<title>Node6&#45;&gt;Node3</title>
<g id="a_edge5_Node000003_Node000006"><a xlink:title=" ">
<path fill="none" stroke="#63b8ff" d="M332.31,-691.27C320.33,-676.28 303.1,-654.75 285.58,-632.85"/>
<polygon fill="none" stroke="#63b8ff" points="285.56,-632.83 278.69,-630.64 278.07,-623.46 284.94,-625.65 285.56,-632.83"/>
</a>
</g>
<text text-anchor="middle" x="338" y="-656.5" font-family="Helvetica,sans-Serif" font-size="10.00" fill="grey"> #verified</text>
</g>
<!-- Node7 -->
<g id="Node000007" class="node">
<title>Node7</title>
<g id="a_Node000007"><a xlink:title=" ">
<polygon fill="white" stroke="transparent" points="236,-737 197,-737 197,-688 236,-688 236,-737"/>
<text text-anchor="start" x="202.5" y="-724.5" font-family="Helvetica,sans-Serif" font-size="10.00">String</text>
<text text-anchor="start" x="215" y="-709.5" font-family="Helvetica,sans-Serif" font-size="10.00"> </text>
<text text-anchor="start" x="215" y="-694.5" font-family="Helvetica,sans-Serif" font-size="10.00"> </text>
<polygon fill="#666666" stroke="#666666" points="197.5,-719.5 197.5,-719.5 236.5,-719.5 236.5,-719.5 197.5,-719.5"/>
<polygon fill="#666666" stroke="#666666" points="197.5,-704.5 197.5,-704.5 236.5,-704.5 236.5,-704.5 197.5,-704.5"/>
<polygon fill="none" stroke="#666666" points="197,-688 197,-737 236,-737 236,-688 197,-688"/>
</a>
</g>
</g>
<!-- Node7&#45;&gt;Node3 -->
<g id="edge6_Node000003_Node000007" class="edge">
<title>Node7&#45;&gt;Node3</title>
<g id="a_edge6_Node000003_Node000007"><a xlink:title=" ">
<path fill="none" stroke="#63b8ff" d="M216.5,-687.86C216.5,-675.45 216.5,-659.34 216.5,-642.46"/>
<polygon fill="none" stroke="#63b8ff" points="216.5,-642.07 212.5,-636.07 216.5,-630.07 220.5,-636.07 216.5,-642.07"/>
</a>
</g>
<text text-anchor="middle" x="255" y="-656.5" font-family="Helvetica,sans-Serif" font-size="10.00" fill="grey"> #device_name</text>
</g>
<!-- Node8 -->
<g id="Node000008" class="node">
<title>Node8</title>
<g id="a_Node000008"><a xlink:title=" ">
<polygon fill="white" stroke="transparent" points="458.5,-391.5 408.5,-391.5 408.5,-342.5 458.5,-342.5 458.5,-391.5"/>
<text text-anchor="start" x="413.5" y="-379" font-family="Helvetica,sans-Serif" font-size="10.00">uint32_t</text>
<text text-anchor="start" x="431.5" y="-364" font-family="Helvetica,sans-Serif" font-size="10.00"> </text>
<text text-anchor="start" x="431.5" y="-349" font-family="Helvetica,sans-Serif" font-size="10.00"> </text>
<polygon fill="#666666" stroke="#666666" points="408.5,-374 408.5,-374 458.5,-374 458.5,-374 408.5,-374"/>
<polygon fill="#666666" stroke="#666666" points="408.5,-359 408.5,-359 458.5,-359 458.5,-359 408.5,-359"/>
<polygon fill="none" stroke="#666666" points="408.5,-342.5 408.5,-391.5 458.5,-391.5 458.5,-342.5 408.5,-342.5"/>
</a>
</g>
</g>
<!-- Node8&#45;&gt;Node1 -->
<g id="edge7_Node000001_Node000008" class="edge">
<title>Node8&#45;&gt;Node1</title>
<g id="a_edge7_Node000001_Node000008"><a xlink:title=" ">
<path fill="none" stroke="#63b8ff" d="M432.15,-342.3C431.53,-330.24 430.85,-315.34 430.5,-302 429.99,-282.47 429.67,-261.8 429.47,-241.59"/>
<polygon fill="none" stroke="#63b8ff" points="429.46,-241.43 425.41,-235.46 429.36,-229.43 433.41,-235.39 429.46,-241.43"/>
</a>
</g>
<text text-anchor="middle" x="473.5" y="-294" font-family="Helvetica,sans-Serif" font-size="10.00" fill="grey"> &#45;FILE_HEADER</text>
<text text-anchor="middle" x="473.5" y="-283" font-family="Helvetica,sans-Serif" font-size="10.00" fill="grey">&#45;MAX_SIZE</text>
<text text-anchor="middle" x="473.5" y="-272" font-family="Helvetica,sans-Serif" font-size="10.00" fill="grey">&#45;SECTOR_SIZE</text>
<text text-anchor="middle" x="473.5" y="-261" font-family="Helvetica,sans-Serif" font-size="10.00" fill="grey">&#45;START_ADDRESS</text>
<text text-anchor="middle" x="473.5" y="-250" font-family="Helvetica,sans-Serif" font-size="10.00" fill="grey">&#45;address</text>
</g>
<!-- Node9 -->
<g id="Node000009" class="node">
<title>Node9</title>
<g id="a_Node000009"><a xlink:title=" ">
<polygon fill="white" stroke="transparent" points="596.5,-391.5 480.5,-391.5 480.5,-342.5 596.5,-342.5 596.5,-391.5"/>
<text text-anchor="start" x="485.5" y="-379" font-family="Helvetica,sans-Serif" font-size="10.00">vector&lt; FileHeader &gt;</text>
<text text-anchor="start" x="536.5" y="-364" font-family="Helvetica,sans-Serif" font-size="10.00"> </text>
<text text-anchor="start" x="536.5" y="-349" font-family="Helvetica,sans-Serif" font-size="10.00"> </text>
<polygon fill="#666666" stroke="#666666" points="480.5,-374 480.5,-374 596.5,-374 596.5,-374 480.5,-374"/>
<polygon fill="#666666" stroke="#666666" points="480.5,-359 480.5,-359 596.5,-359 596.5,-359 480.5,-359"/>
<polygon fill="none" stroke="#666666" points="480.5,-342.5 480.5,-391.5 596.5,-391.5 596.5,-342.5 480.5,-342.5"/>
</a>
</g>
</g>
<!-- Node9&#45;&gt;Node1 -->
<g id="edge8_Node000001_Node000009" class="edge">
<title>Node9&#45;&gt;Node1</title>
<g id="a_edge8_Node000001_Node000009"><a xlink:title=" ">
<path fill="none" stroke="#63b8ff" d="M536.93,-342.42C534.67,-317.83 529.24,-278.56 516.5,-247 509.33,-229.24 499.58,-211.36 489.19,-194.76"/>
<polygon fill="none" stroke="#63b8ff" points="489.15,-194.69 482.54,-191.81 482.66,-184.6 489.27,-187.48 489.15,-194.69"/>
</a>
</g>
<text text-anchor="middle" x="555" y="-272" font-family="Helvetica,sans-Serif" font-size="10.00" fill="grey"> &#45;file_data</text>
</g>
<!-- Node10 -->
<g id="Node000010" class="node">
<title>Node10</title>
<g id="a_Node000010"><a xlink:title=" ">
<polygon fill="white" stroke="transparent" points="700.5,-391.5 614.5,-391.5 614.5,-342.5 700.5,-342.5 700.5,-391.5"/>
<text text-anchor="start" x="619.5" y="-379" font-family="Helvetica,sans-Serif" font-size="10.00">SFE_SPI_FLASH</text>
<text text-anchor="start" x="655.5" y="-364" font-family="Helvetica,sans-Serif" font-size="10.00"> </text>
<text text-anchor="start" x="655.5" y="-349" font-family="Helvetica,sans-Serif" font-size="10.00"> </text>
<polygon fill="#666666" stroke="#666666" points="614.5,-374 614.5,-374 700.5,-374 700.5,-374 614.5,-374"/>
<polygon fill="#666666" stroke="#666666" points="614.5,-359 614.5,-359 700.5,-359 700.5,-359 614.5,-359"/>
<polygon fill="none" stroke="#666666" points="614.5,-342.5 614.5,-391.5 700.5,-391.5 700.5,-342.5 614.5,-342.5"/>
</a>
</g>
</g>
<!-- Node10&#45;&gt;Node1 -->
<g id="edge9_Node000001_Node000010" class="edge">
<title>Node10&#45;&gt;Node1</title>
<g id="a_edge9_Node000001_Node000010"><a xlink:title=" ">
<path fill="none" stroke="#63b8ff" d="M645.53,-342.2C632.29,-317.09 609.35,-277.07 583.5,-247 556.51,-215.61 521.76,-185.27 492.11,-161.66"/>
<polygon fill="none" stroke="#63b8ff" points="492.11,-161.66 484.92,-161.1 482.68,-154.24 489.87,-154.81 492.11,-161.66"/>
</a>
</g>
<text text-anchor="middle" x="636" y="-272" font-family="Helvetica,sans-Serif" font-size="10.00" fill="grey"> &#45;flash</text>
</g>
</g>
</svg>
