<?xml version="1.0" encoding="UTF-8" standalone="no"?>
<!DOCTYPE svg PUBLIC "-//W3C//DTD SVG 1.1//EN"
 "http://www.w3.org/Graphics/SVG/1.1/DTD/svg11.dtd">
<!-- Generated by graphviz version 2.43.0 (0)
 -->
<!-- Title: LSM9DS1Sensor Pages: 1 -->
<svg width="361pt" height="548pt"
 viewBox="0.00 0.00 360.50 548.00" xmlns="http://www.w3.org/2000/svg" xmlns:xlink="http://www.w3.org/1999/xlink">
<g id="graph0" class="graph" transform="scale(1 1) rotate(0) translate(4 544)">
<title>LSM9DS1Sensor</title>
<!-- Node1 -->
<g id="Node000001" class="node">
<title>Node1</title>
<g id="a_Node000001"><a xlink:title="Implementation of the Sensor class for the LSM9DS1 (9&#45;axis IMU)">
<polygon fill="#999999" stroke="transparent" points="283.5,-154 175.5,-154 175.5,0 283.5,0 283.5,-154"/>
<text text-anchor="start" x="190" y="-142" font-family="Helvetica,sans-Serif" font-size="10.00">LSM9DS1Sensor</text>
<text text-anchor="start" x="227.5" y="-127" font-family="Helvetica,sans-Serif" font-size="10.00"> </text>
<text text-anchor="start" x="179.5" y="-112" font-family="Helvetica,sans-Serif" font-size="10.00">+</text>
<text text-anchor="start" x="192.5" y="-112" font-family="Helvetica,sans-Serif" font-size="10.00">LSM9DS1Sensor()</text>
<text text-anchor="start" x="179.5" y="-97" font-family="Helvetica,sans-Serif" font-size="10.00">+</text>
<text text-anchor="start" x="192.5" y="-97" font-family="Helvetica,sans-Serif" font-size="10.00">LSM9DS1Sensor()</text>
<text text-anchor="start" x="179.5" y="-82" font-family="Helvetica,sans-Serif" font-size="10.00">+</text>
<text text-anchor="start" x="192.5" y="-82" font-family="Helvetica,sans-Serif" font-size="10.00">verify()</text>
<text text-anchor="start" x="179.5" y="-67" font-family="Helvetica,sans-Serif" font-size="10.00">+</text>
<text text-anchor="start" x="192.5" y="-67" font-family="Helvetica,sans-Serif" font-size="10.00">readData()</text>
<text text-anchor="start" x="179.5" y="-52" font-family="Helvetica,sans-Serif" font-size="10.00">+</text>
<text text-anchor="start" x="192.5" y="-52" font-family="Helvetica,sans-Serif" font-size="10.00">calibrate()</text>
<text text-anchor="start" x="179.5" y="-37" font-family="Helvetica,sans-Serif" font-size="10.00">+</text>
<text text-anchor="start" x="192.5" y="-37" font-family="Helvetica,sans-Serif" font-size="10.00">readDataPacket()</text>
<text text-anchor="start" x="179.5" y="-22" font-family="Helvetica,sans-Serif" font-size="10.00">+</text>
<text text-anchor="start" x="192.5" y="-22" font-family="Helvetica,sans-Serif" font-size="10.00">decodeToCSV()</text>
<text text-anchor="start" x="182" y="-7" font-family="Helvetica,sans-Serif" font-size="10.00">&#45;</text>
<text text-anchor="start" x="192.5" y="-7" font-family="Helvetica,sans-Serif" font-size="10.00">setupSensor()</text>
<polygon fill="#666666" stroke="#666666" points="175.5,-137 175.5,-137 283.5,-137 283.5,-137 175.5,-137"/>
<polygon fill="#666666" stroke="#666666" points="175.5,-122 175.5,-122 283.5,-122 283.5,-122 175.5,-122"/>
<polygon fill="none" stroke="#666666" points="175.5,0 175.5,-154 283.5,-154 283.5,0 175.5,0"/>
</a>
</g>
</g>
<!-- Node2 -->
<g id="Node000002" class="node">
<title>Node2</title>
<g id="a_Node000002"><a xlink:href="classSensor.html" target="_top" xlink:title="Parent class for sensor objects.">
<polygon fill="white" stroke="transparent" points="161,-422 28,-422 28,-223 161,-223 161,-422"/>
<text text-anchor="start" x="78" y="-409.5" font-family="Helvetica,sans-Serif" font-size="10.00">Sensor</text>
<text text-anchor="start" x="93" y="-394.5" font-family="Helvetica,sans-Serif" font-size="10.00"> </text>
<text text-anchor="start" x="32.5" y="-379.5" font-family="Helvetica,sans-Serif" font-size="10.00">+</text>
<text text-anchor="start" x="45.5" y="-379.5" font-family="Helvetica,sans-Serif" font-size="10.00">Sensor()</text>
<text text-anchor="start" x="32.5" y="-364.5" font-family="Helvetica,sans-Serif" font-size="10.00">+</text>
<text text-anchor="start" x="45.5" y="-364.5" font-family="Helvetica,sans-Serif" font-size="10.00">Sensor()</text>
<text text-anchor="start" x="32.5" y="-349.5" font-family="Helvetica,sans-Serif" font-size="10.00">+</text>
<text text-anchor="start" x="45.5" y="-349.5" font-family="Helvetica,sans-Serif" font-size="10.00">Sensor()</text>
<text text-anchor="start" x="32.5" y="-334.5" font-family="Helvetica,sans-Serif" font-size="10.00">+</text>
<text text-anchor="start" x="45.5" y="-334.5" font-family="Helvetica,sans-Serif" font-size="10.00">Sensor()</text>
<text text-anchor="start" x="32.5" y="-319.5" font-family="Helvetica,sans-Serif" font-size="10.00">+</text>
<text text-anchor="start" x="45.5" y="-319.5" font-family="Helvetica,sans-Serif" font-size="10.00">getPeriod()</text>
<text text-anchor="start" x="32.5" y="-304.5" font-family="Helvetica,sans-Serif" font-size="10.00">+</text>
<text text-anchor="start" x="45.5" y="-304.5" font-family="Helvetica,sans-Serif" font-size="10.00">setPeriod()</text>
<text text-anchor="start" x="32.5" y="-289.5" font-family="Helvetica,sans-Serif" font-size="10.00">+</text>
<text text-anchor="start" x="45.5" y="-289.5" font-family="Helvetica,sans-Serif" font-size="10.00">getLastExecution()</text>
<text text-anchor="start" x="32.5" y="-274.5" font-family="Helvetica,sans-Serif" font-size="10.00">+</text>
<text text-anchor="start" x="45.5" y="-274.5" font-family="Helvetica,sans-Serif" font-size="10.00">setLastExecution()</text>
<text text-anchor="start" x="32.5" y="-259.5" font-family="Helvetica,sans-Serif" font-size="10.00">+</text>
<text text-anchor="start" x="45.5" y="-259.5" font-family="Helvetica,sans-Serif" font-size="10.00">getSensorName()</text>
<text text-anchor="start" x="32.5" y="-244.5" font-family="Helvetica,sans-Serif" font-size="10.00">+</text>
<text text-anchor="start" x="45.5" y="-244.5" font-family="Helvetica,sans-Serif" font-size="10.00">getSensorCSVHeader()</text>
<text text-anchor="start" x="45.5" y="-229.5" font-family="Helvetica,sans-Serif" font-size="10.00">and 7 more...</text>
<polygon fill="#666666" stroke="#666666" points="28.5,-404.5 28.5,-404.5 161.5,-404.5 161.5,-404.5 28.5,-404.5"/>
<polygon fill="#666666" stroke="#666666" points="28.5,-389.5 28.5,-389.5 161.5,-389.5 161.5,-389.5 28.5,-389.5"/>
<polygon fill="none" stroke="#666666" points="28,-223 28,-422 161,-422 161,-223 28,-223"/>
</a>
</g>
</g>
<!-- Node2&#45;&gt;Node1 -->
<g id="edge1_Node000001_Node000002" class="edge">
<title>Node2&#45;&gt;Node1</title>
<g id="a_edge1_Node000001_Node000002"><a xlink:title=" ">
<path fill="none" stroke="#63b8ff" d="M154.16,-213.89C165.35,-193.7 176.84,-172.99 187.36,-154.01"/>
<polygon fill="none" stroke="#63b8ff" points="151,-212.37 149.22,-222.81 157.12,-215.76 151,-212.37"/>
</a>
</g>
</g>
<!-- Node3 -->
<g id="Node000003" class="node">
<title>Node3</title>
<g id="a_Node000003"><a xlink:title=" ">
<polygon fill="white" stroke="transparent" points="79,-540 0,-540 0,-491 79,-491 79,-540"/>
<text text-anchor="start" x="5.5" y="-527.5" font-family="Helvetica,sans-Serif" font-size="10.00">unsigned long</text>
<text text-anchor="start" x="38" y="-512.5" font-family="Helvetica,sans-Serif" font-size="10.00"> </text>
<text text-anchor="start" x="38" y="-497.5" font-family="Helvetica,sans-Serif" font-size="10.00"> </text>
<polygon fill="#666666" stroke="#666666" points="0.5,-522.5 0.5,-522.5 79.5,-522.5 79.5,-522.5 0.5,-522.5"/>
<polygon fill="#666666" stroke="#666666" points="0.5,-507.5 0.5,-507.5 79.5,-507.5 79.5,-507.5 0.5,-507.5"/>
<polygon fill="none" stroke="#666666" points="0,-491 0,-540 79,-540 79,-491 0,-491"/>
</a>
</g>
</g>
<!-- Node3&#45;&gt;Node2 -->
<g id="edge2_Node000002_Node000003" class="edge">
<title>Node3&#45;&gt;Node2</title>
<g id="a_edge2_Node000002_Node000003"><a xlink:title=" ">
<path fill="none" stroke="#63b8ff" d="M37.31,-490.71C36.56,-475.94 36.71,-456.65 40.5,-440 40.96,-437.98 41.46,-435.96 41.99,-433.93"/>
<polygon fill="none" stroke="#63b8ff" points="42.02,-433.82 39.86,-426.94 45.38,-422.3 47.54,-429.18 42.02,-433.82"/>
</a>
</g>
<text text-anchor="middle" x="84.5" y="-459.5" font-family="Helvetica,sans-Serif" font-size="10.00" fill="grey"> &#45;last_execution</text>
<text text-anchor="middle" x="84.5" y="-448.5" font-family="Helvetica,sans-Serif" font-size="10.00" fill="grey">&#45;minimum_period</text>
</g>
<!-- Node4 -->
<g id="Node000004" class="node">
<title>Node4</title>
<g id="a_Node000004"><a xlink:title=" ">
<polygon fill="white" stroke="transparent" points="170,-540 131,-540 131,-491 170,-491 170,-540"/>
<text text-anchor="start" x="136.5" y="-527.5" font-family="Helvetica,sans-Serif" font-size="10.00">String</text>
<text text-anchor="start" x="149" y="-512.5" font-family="Helvetica,sans-Serif" font-size="10.00"> </text>
<text text-anchor="start" x="149" y="-497.5" font-family="Helvetica,sans-Serif" font-size="10.00"> </text>
<polygon fill="#666666" stroke="#666666" points="131.5,-522.5 131.5,-522.5 170.5,-522.5 170.5,-522.5 131.5,-522.5"/>
<polygon fill="#666666" stroke="#666666" points="131.5,-507.5 131.5,-507.5 170.5,-507.5 170.5,-507.5 131.5,-507.5"/>
<polygon fill="none" stroke="#666666" points="131,-491 131,-540 170,-540 170,-491 131,-491"/>
</a>
</g>
</g>
<!-- Node4&#45;&gt;Node2 -->
<g id="edge3_Node000002_Node000004" class="edge">
<title>Node4&#45;&gt;Node2</title>
<g id="a_edge3_Node000002_Node000004"><a xlink:title=" ">
<path fill="none" stroke="#63b8ff" d="M143.52,-490.7C139.15,-475.78 133.16,-455.36 126.87,-433.91"/>
<polygon fill="none" stroke="#63b8ff" points="126.83,-433.78 121.31,-429.15 123.46,-422.27 128.99,-426.9 126.83,-433.78"/>
</a>
</g>
<text text-anchor="middle" x="172.5" y="-465" font-family="Helvetica,sans-Serif" font-size="10.00" fill="grey"> &#45;csv_header</text>
<text text-anchor="middle" x="172.5" y="-454" font-family="Helvetica,sans-Serif" font-size="10.00" fill="grey">&#45;empty_csv</text>
<text text-anchor="middle" x="172.5" y="-443" font-family="Helvetica,sans-Serif" font-size="10.00" fill="grey">&#45;sensor_name</text>
</g>
<!-- Node5 -->
<g id="Node000005" class="node">
<title>Node5</title>
<g id="a_Node000005"><a xlink:title=" ">
<polygon fill="white" stroke="transparent" points="280,-347 179,-347 179,-298 280,-298 280,-347"/>
<text text-anchor="start" x="184.5" y="-334.5" font-family="Helvetica,sans-Serif" font-size="10.00">Adafruit_LSM9DS1</text>
<text text-anchor="start" x="228" y="-319.5" font-family="Helvetica,sans-Serif" font-size="10.00"> </text>
<text text-anchor="start" x="228" y="-304.5" font-family="Helvetica,sans-Serif" font-size="10.00"> </text>
<polygon fill="#666666" stroke="#666666" points="179.5,-329.5 179.5,-329.5 280.5,-329.5 280.5,-329.5 179.5,-329.5"/>
<polygon fill="#666666" stroke="#666666" points="179.5,-314.5 179.5,-314.5 280.5,-314.5 280.5,-314.5 179.5,-314.5"/>
<polygon fill="none" stroke="#666666" points="179,-298 179,-347 280,-347 280,-298 179,-298"/>
</a>
</g>
</g>
<!-- Node5&#45;&gt;Node1 -->
<g id="edge4_Node000001_Node000005" class="edge">
<title>Node5&#45;&gt;Node1</title>
<g id="a_edge4_Node000001_Node000005"><a xlink:title=" ">
<path fill="none" stroke="#63b8ff" d="M229.5,-297.71C229.5,-267.38 229.5,-213.24 229.5,-166.3"/>
<polygon fill="none" stroke="#63b8ff" points="229.5,-166.22 225.5,-160.22 229.5,-154.22 233.5,-160.22 229.5,-166.22"/>
</a>
</g>
<text text-anchor="middle" x="242" y="-186" font-family="Helvetica,sans-Serif" font-size="10.00" fill="grey"> &#45;lsm</text>
</g>
<!-- Node6 -->
<g id="Node000006" class="node">
<title>Node6</title>
<g id="a_Node000006"><a xlink:title=" ">
<polygon fill="white" stroke="transparent" points="330.5,-347 298.5,-347 298.5,-298 330.5,-298 330.5,-347"/>
<text text-anchor="start" x="303.5" y="-334.5" font-family="Helvetica,sans-Serif" font-size="10.00">float</text>
<text text-anchor="start" x="312.5" y="-319.5" font-family="Helvetica,sans-Serif" font-size="10.00"> </text>
<text text-anchor="start" x="312.5" y="-304.5" font-family="Helvetica,sans-Serif" font-size="10.00"> </text>
<polygon fill="#666666" stroke="#666666" points="298.5,-329.5 298.5,-329.5 330.5,-329.5 330.5,-329.5 298.5,-329.5"/>
<polygon fill="#666666" stroke="#666666" points="298.5,-314.5 298.5,-314.5 330.5,-314.5 330.5,-314.5 298.5,-314.5"/>
<polygon fill="none" stroke="#666666" points="298.5,-298 298.5,-347 330.5,-347 330.5,-298 298.5,-298"/>
</a>
</g>
</g>
<!-- Node6&#45;&gt;Node1 -->
<g id="edge5_Node000001_Node000006" class="edge">
<title>Node6&#45;&gt;Node1</title>
<g id="a_edge5_Node000001_Node000006"><a xlink:title=" ">
<path fill="none" stroke="#63b8ff" d="M309.48,-297.74C304.99,-277.62 297.84,-248.12 289.5,-223 283.25,-204.18 275.71,-184.33 268.1,-165.57"/>
<polygon fill="none" stroke="#63b8ff" points="268.06,-165.46 262.08,-161.42 263.5,-154.36 269.48,-158.39 268.06,-165.46"/>
</a>
</g>
<text text-anchor="middle" x="317" y="-197" font-family="Helvetica,sans-Serif" font-size="10.00" fill="grey"> &#45;accel_offsets</text>
<text text-anchor="middle" x="317" y="-186" font-family="Helvetica,sans-Serif" font-size="10.00" fill="grey">&#45;gyro_offsets</text>
<text text-anchor="middle" x="317" y="-175" font-family="Helvetica,sans-Serif" font-size="10.00" fill="grey">&#45;mag_offsets</text>
</g>
</g>
</svg>
