<?xml version="1.0" encoding="UTF-8" standalone="no"?>
<!DOCTYPE svg PUBLIC "-//W3C//DTD SVG 1.1//EN"
 "http://www.w3.org/Graphics/SVG/1.1/DTD/svg11.dtd">
<!-- Generated by graphviz version 2.43.0 (0)
 -->
<!-- Title: Storage Pages: 1 -->
<svg width="352pt" height="322pt"
 viewBox="0.00 0.00 352.00 322.00" xmlns="http://www.w3.org/2000/svg" xmlns:xlink="http://www.w3.org/1999/xlink">

<svg id="main" version="1.1" xmlns="http://www.w3.org/2000/svg" xmlns:xlink="http://www.w3.org/1999/xlink" xml:space="preserve" onload="init(evt)">
<style type="text/css"><![CDATA[
.node, .edge {opacity: 0.7;}
.node.selected, .edge.selected {opacity: 1;}
.edge:hover path { stroke: red; }
.edge:hover polygon { stroke: red; fill: red; }
]]></style>
<script type="application/ecmascript" xlink:href="svg.min.js"/>
<svg id="graph" class="graph">
<g id="graph0" class="graph" transform="scale(1 1) rotate(0) translate(4 318)">
<title>Storage</title>
<!-- Node1 -->
<g id="Node000001" class="node">
<title>Node1</title>
<g id="a_Node000001"><a xlink:title="Parent class for all data storage devices (sd card, radio, etc)">
<polygon fill="#999999" stroke="transparent" points="255,-314 143,-314 143,-205 255,-205 255,-314"/>
<text text-anchor="start" x="180" y="-301.5" font-family="Helvetica,sans-Serif" font-size="10.00">Storage</text>
<text text-anchor="start" x="149.5" y="-286.5" font-family="Helvetica,sans-Serif" font-size="10.00">&#45;</text>
<text text-anchor="start" x="160" y="-286.5" font-family="Helvetica,sans-Serif" font-size="10.00">storage_name</text>
<text text-anchor="start" x="147" y="-271.5" font-family="Helvetica,sans-Serif" font-size="10.00">+</text>
<text text-anchor="start" x="160" y="-271.5" font-family="Helvetica,sans-Serif" font-size="10.00">Storage()</text>
<text text-anchor="start" x="147" y="-256.5" font-family="Helvetica,sans-Serif" font-size="10.00">+</text>
<text text-anchor="start" x="160" y="-256.5" font-family="Helvetica,sans-Serif" font-size="10.00">getStorageName()</text>
<text text-anchor="start" x="147" y="-241.5" font-family="Helvetica,sans-Serif" font-size="10.00">+</text>
<text text-anchor="start" x="160" y="-241.5" font-family="Helvetica,sans-Serif" font-size="10.00">verify()</text>
<text text-anchor="start" x="147" y="-226.5" font-family="Helvetica,sans-Serif" font-size="10.00">+</text>
<text text-anchor="start" x="160" y="-226.5" font-family="Helvetica,sans-Serif" font-size="10.00">store()</text>
<text text-anchor="start" x="147" y="-211.5" font-family="Helvetica,sans-Serif" font-size="10.00">+</text>
<text text-anchor="start" x="160" y="-211.5" font-family="Helvetica,sans-Serif" font-size="10.00">store()</text>
<polygon fill="#666666" stroke="#666666" points="143,-296.5 143,-296.5 255,-296.5 255,-296.5 143,-296.5"/>
<polygon fill="#666666" stroke="#666666" points="143,-281.5 143,-281.5 158,-281.5 158,-281.5 143,-281.5"/>
<polygon fill="#666666" stroke="#666666" points="158,-281.5 158,-281.5 255,-281.5 255,-281.5 158,-281.5"/>
<polygon fill="none" stroke="#666666" points="143,-205 143,-314 255,-314 255,-205 143,-205"/>
</a>
</g>
</g>
<!-- Node2 -->
<g id="Node000002" class="node">
<title>Node2</title>
<g id="a_Node000002"><a xlink:href="classFlashStorage.html" target="_top" xlink:title=" ">
<polygon fill="white" stroke="transparent" points="134,-169 0,-169 0,0 134,0 134,-169"/>
<text text-anchor="start" x="35" y="-156.5" font-family="Helvetica,sans-Serif" font-size="10.00">FlashStorage</text>
<text text-anchor="start" x="6.5" y="-141.5" font-family="Helvetica,sans-Serif" font-size="10.00">&#45;</text>
<text text-anchor="start" x="17" y="-141.5" font-family="Helvetica,sans-Serif" font-size="10.00">flash</text>
<text text-anchor="start" x="6.5" y="-126.5" font-family="Helvetica,sans-Serif" font-size="10.00">&#45;</text>
<text text-anchor="start" x="17" y="-126.5" font-family="Helvetica,sans-Serif" font-size="10.00">position</text>
<text text-anchor="start" x="6.5" y="-111.5" font-family="Helvetica,sans-Serif" font-size="10.00">&#45;</text>
<text text-anchor="start" x="17" y="-111.5" font-family="Helvetica,sans-Serif" font-size="10.00">DATA_START_POSITION</text>
<text text-anchor="start" x="6.5" y="-96.5" font-family="Helvetica,sans-Serif" font-size="10.00">&#45;</text>
<text text-anchor="start" x="17" y="-96.5" font-family="Helvetica,sans-Serif" font-size="10.00">MAX_SIZE</text>
<text text-anchor="start" x="4" y="-81.5" font-family="Helvetica,sans-Serif" font-size="10.00">+</text>
<text text-anchor="start" x="17" y="-81.5" font-family="Helvetica,sans-Serif" font-size="10.00">FlashStorage()</text>
<text text-anchor="start" x="4" y="-66.5" font-family="Helvetica,sans-Serif" font-size="10.00">+</text>
<text text-anchor="start" x="17" y="-66.5" font-family="Helvetica,sans-Serif" font-size="10.00">verify()</text>
<text text-anchor="start" x="4" y="-51.5" font-family="Helvetica,sans-Serif" font-size="10.00">+</text>
<text text-anchor="start" x="17" y="-51.5" font-family="Helvetica,sans-Serif" font-size="10.00">store()</text>
<text text-anchor="start" x="4" y="-36.5" font-family="Helvetica,sans-Serif" font-size="10.00">+</text>
<text text-anchor="start" x="17" y="-36.5" font-family="Helvetica,sans-Serif" font-size="10.00">dump()</text>
<text text-anchor="start" x="4" y="-21.5" font-family="Helvetica,sans-Serif" font-size="10.00">+</text>
<text text-anchor="start" x="17" y="-21.5" font-family="Helvetica,sans-Serif" font-size="10.00">erase()</text>
<text text-anchor="start" x="6.5" y="-6.5" font-family="Helvetica,sans-Serif" font-size="10.00">&#45;</text>
<text text-anchor="start" x="17" y="-6.5" font-family="Helvetica,sans-Serif" font-size="10.00">loadPosition()</text>
<polygon fill="#666666" stroke="#666666" points="0,-151.5 0,-151.5 134,-151.5 134,-151.5 0,-151.5"/>
<polygon fill="#666666" stroke="#666666" points="0,-91.5 0,-91.5 15,-91.5 15,-91.5 0,-91.5"/>
<polygon fill="#666666" stroke="#666666" points="15,-91.5 15,-91.5 134,-91.5 134,-91.5 15,-91.5"/>
<polygon fill="none" stroke="#666666" points="0,0 0,-169 134,-169 134,0 0,0"/>
</a>
</g>
</g>
<!-- Node1&#45;&gt;Node2 -->
<g id="edge1_Node000001_Node000002" class="edge">
<title>Node1&#45;&gt;Node2</title>
<g id="a_edge1_Node000001_Node000002"><a xlink:title=" ">
<path fill="none" stroke="#63b8ff" d="M151.79,-196.63C144.98,-187.7 137.87,-178.38 130.8,-169.11"/>
<polygon fill="none" stroke="#63b8ff" points="149.11,-198.88 157.96,-204.71 154.67,-194.64 149.11,-198.88"/>
</a>
</g>
</g>
<!-- Node3 -->
<g id="Node000003" class="node">
<title>Node3</title>
<g id="a_Node000003"><a xlink:href="classRadioStorage.html" target="_top" xlink:title="Implementation of a Storage device to interface with an SD card.">
<polygon fill="white" stroke="transparent" points="246,-124 152,-124 152,-45 246,-45 246,-124"/>
<text text-anchor="start" x="166" y="-111.5" font-family="Helvetica,sans-Serif" font-size="10.00">RadioStorage</text>
<text text-anchor="start" x="158.5" y="-96.5" font-family="Helvetica,sans-Serif" font-size="10.00">&#45;</text>
<text text-anchor="start" x="169" y="-96.5" font-family="Helvetica,sans-Serif" font-size="10.00">file_name</text>
<text text-anchor="start" x="156" y="-81.5" font-family="Helvetica,sans-Serif" font-size="10.00">+</text>
<text text-anchor="start" x="169" y="-81.5" font-family="Helvetica,sans-Serif" font-size="10.00">RadioStorage()</text>
<text text-anchor="start" x="156" y="-66.5" font-family="Helvetica,sans-Serif" font-size="10.00">+</text>
<text text-anchor="start" x="169" y="-66.5" font-family="Helvetica,sans-Serif" font-size="10.00">verify()</text>
<text text-anchor="start" x="156" y="-51.5" font-family="Helvetica,sans-Serif" font-size="10.00">+</text>
<text text-anchor="start" x="169" y="-51.5" font-family="Helvetica,sans-Serif" font-size="10.00">store()</text>
<polygon fill="#666666" stroke="#666666" points="152,-106.5 152,-106.5 246,-106.5 246,-106.5 152,-106.5"/>
<polygon fill="#666666" stroke="#666666" points="152,-91.5 152,-91.5 167,-91.5 167,-91.5 152,-91.5"/>
<polygon fill="#666666" stroke="#666666" points="167,-91.5 167,-91.5 246,-91.5 246,-91.5 167,-91.5"/>
<polygon fill="none" stroke="#666666" points="152,-45 152,-124 246,-124 246,-45 152,-45"/>
</a>
</g>
</g>
<!-- Node1&#45;&gt;Node3 -->
<g id="edge2_Node000001_Node000003" class="edge">
<title>Node1&#45;&gt;Node3</title>
<g id="a_edge2_Node000001_Node000003"><a xlink:title=" ">
<path fill="none" stroke="#63b8ff" d="M199,-194.41C199,-170.81 199,-144.82 199,-124.15"/>
<polygon fill="none" stroke="#63b8ff" points="195.5,-194.71 199,-204.71 202.5,-194.71 195.5,-194.71"/>
</a>
</g>
</g>
<!-- Node4 -->
<g id="Node000004" class="node">
<title>Node4</title>
<g id="a_Node000004"><a xlink:href="classSDStorage.html" target="_top" xlink:title="Implementation of a Storage device to interface with an SD card.">
<polygon fill="white" stroke="transparent" points="344,-131.5 264,-131.5 264,-37.5 344,-37.5 344,-131.5"/>
<text text-anchor="start" x="278" y="-119.5" font-family="Helvetica,sans-Serif" font-size="10.00">SDStorage</text>
<text text-anchor="start" x="270.5" y="-104.5" font-family="Helvetica,sans-Serif" font-size="10.00">&#45;</text>
<text text-anchor="start" x="281" y="-104.5" font-family="Helvetica,sans-Serif" font-size="10.00">file_name</text>
<text text-anchor="start" x="270.5" y="-89.5" font-family="Helvetica,sans-Serif" font-size="10.00">&#45;</text>
<text text-anchor="start" x="281" y="-89.5" font-family="Helvetica,sans-Serif" font-size="10.00">sd_spi_1</text>
<text text-anchor="start" x="268" y="-74.5" font-family="Helvetica,sans-Serif" font-size="10.00">+</text>
<text text-anchor="start" x="281" y="-74.5" font-family="Helvetica,sans-Serif" font-size="10.00">SDStorage()</text>
<text text-anchor="start" x="268" y="-59.5" font-family="Helvetica,sans-Serif" font-size="10.00">+</text>
<text text-anchor="start" x="281" y="-59.5" font-family="Helvetica,sans-Serif" font-size="10.00">verify()</text>
<text text-anchor="start" x="268" y="-44.5" font-family="Helvetica,sans-Serif" font-size="10.00">+</text>
<text text-anchor="start" x="281" y="-44.5" font-family="Helvetica,sans-Serif" font-size="10.00">store()</text>
<polygon fill="#666666" stroke="#666666" points="264,-114.5 264,-114.5 344,-114.5 344,-114.5 264,-114.5"/>
<polygon fill="#666666" stroke="#666666" points="264,-84.5 264,-84.5 279,-84.5 279,-84.5 264,-84.5"/>
<polygon fill="#666666" stroke="#666666" points="279,-84.5 279,-84.5 344,-84.5 344,-84.5 279,-84.5"/>
<polygon fill="none" stroke="#666666" points="264,-37.5 264,-131.5 344,-131.5 344,-37.5 264,-37.5"/>
</a>
</g>
</g>
<!-- Node1&#45;&gt;Node4 -->
<g id="edge3_Node000001_Node000004" class="edge">
<title>Node1&#45;&gt;Node4</title>
<g id="a_edge3_Node000001_Node000004"><a xlink:title=" ">
<path fill="none" stroke="#63b8ff" d="M238.37,-196.09C243.99,-187.02 249.67,-177.79 255,-169 262.32,-156.93 270.11,-143.79 277.28,-131.58"/>
<polygon fill="none" stroke="#63b8ff" points="235.32,-194.36 233.01,-204.7 241.26,-198.06 235.32,-194.36"/>
</a>
</g>
</g>
</g>
</svg>
</svg>

<style type='text/css'>
<![CDATA[
[data-mouse-over-selected='false'] { opacity: 0.7; }
[data-mouse-over-selected='true']  { opacity: 1.0; }
]]>
</style>
<script type="application/ecmascript"><![CDATA[
document.addEventListener('DOMContentLoaded', (event) => {
  highlightEdges();
  highlightAdjacentNodes();
});
]]></script>
</svg>
