<?xml version="1.0" encoding="UTF-8" standalone="no"?>
<!DOCTYPE svg PUBLIC "-//W3C//DTD SVG 1.1//EN"
 "http://www.w3.org/Graphics/SVG/1.1/DTD/svg11.dtd">
<!-- Generated by graphviz version 2.43.0 (0)
 -->
<!-- Title: ICM20948Sensor Pages: 1 -->
<svg width="406pt" height="499pt"
 viewBox="0.00 0.00 405.50 499.00" xmlns="http://www.w3.org/2000/svg" xmlns:xlink="http://www.w3.org/1999/xlink">
<g id="graph0" class="graph" transform="scale(1 1) rotate(0) translate(4 495)">
<title>ICM20948Sensor</title>
<!-- Node1 -->
<g id="Node000001" class="node">
<title>Node1</title>
<g id="a_Node000001"><a xlink:title="Implementation of the Sensor class for the Adafruit ICM20948 (9&#45;axis IMU)">
<polygon fill="#999999" stroke="transparent" points="287,-94 176,-94 176,0 287,0 287,-94"/>
<text text-anchor="start" x="191" y="-82" font-family="Helvetica,sans-Serif" font-size="10.00">ICM20948Sensor</text>
<text text-anchor="start" x="230" y="-67" font-family="Helvetica,sans-Serif" font-size="10.00"> </text>
<text text-anchor="start" x="180.5" y="-52" font-family="Helvetica,sans-Serif" font-size="10.00">+</text>
<text text-anchor="start" x="193.5" y="-52" font-family="Helvetica,sans-Serif" font-size="10.00">ICM20948Sensor()</text>
<text text-anchor="start" x="180.5" y="-37" font-family="Helvetica,sans-Serif" font-size="10.00">+</text>
<text text-anchor="start" x="193.5" y="-37" font-family="Helvetica,sans-Serif" font-size="10.00">ICM20948Sensor()</text>
<text text-anchor="start" x="180.5" y="-22" font-family="Helvetica,sans-Serif" font-size="10.00">+</text>
<text text-anchor="start" x="193.5" y="-22" font-family="Helvetica,sans-Serif" font-size="10.00">verify()</text>
<text text-anchor="start" x="180.5" y="-7" font-family="Helvetica,sans-Serif" font-size="10.00">+</text>
<text text-anchor="start" x="193.5" y="-7" font-family="Helvetica,sans-Serif" font-size="10.00">readData()</text>
<polygon fill="#666666" stroke="#666666" points="176.5,-77 176.5,-77 287.5,-77 287.5,-77 176.5,-77"/>
<polygon fill="#666666" stroke="#666666" points="176.5,-62 176.5,-62 287.5,-62 287.5,-62 176.5,-62"/>
<polygon fill="none" stroke="#666666" points="176,0 176,-94 287,-94 287,0 176,0"/>
</a>
</g>
</g>
<!-- Node2 -->
<g id="Node000002" class="node">
<title>Node2</title>
<g id="a_Node000002"><a xlink:href="classSensor.html" target="_top" xlink:title="Parent class for sensor objects.">
<polygon fill="white" stroke="transparent" points="161,-373 28,-373 28,-174 161,-174 161,-373"/>
<text text-anchor="start" x="78" y="-360.5" font-family="Helvetica,sans-Serif" font-size="10.00">Sensor</text>
<text text-anchor="start" x="93" y="-345.5" font-family="Helvetica,sans-Serif" font-size="10.00"> </text>
<text text-anchor="start" x="32.5" y="-330.5" font-family="Helvetica,sans-Serif" font-size="10.00">+</text>
<text text-anchor="start" x="45.5" y="-330.5" font-family="Helvetica,sans-Serif" font-size="10.00">Sensor()</text>
<text text-anchor="start" x="32.5" y="-315.5" font-family="Helvetica,sans-Serif" font-size="10.00">+</text>
<text text-anchor="start" x="45.5" y="-315.5" font-family="Helvetica,sans-Serif" font-size="10.00">Sensor()</text>
<text text-anchor="start" x="32.5" y="-300.5" font-family="Helvetica,sans-Serif" font-size="10.00">+</text>
<text text-anchor="start" x="45.5" y="-300.5" font-family="Helvetica,sans-Serif" font-size="10.00">Sensor()</text>
<text text-anchor="start" x="32.5" y="-285.5" font-family="Helvetica,sans-Serif" font-size="10.00">+</text>
<text text-anchor="start" x="45.5" y="-285.5" font-family="Helvetica,sans-Serif" font-size="10.00">Sensor()</text>
<text text-anchor="start" x="32.5" y="-270.5" font-family="Helvetica,sans-Serif" font-size="10.00">+</text>
<text text-anchor="start" x="45.5" y="-270.5" font-family="Helvetica,sans-Serif" font-size="10.00">getPeriod()</text>
<text text-anchor="start" x="32.5" y="-255.5" font-family="Helvetica,sans-Serif" font-size="10.00">+</text>
<text text-anchor="start" x="45.5" y="-255.5" font-family="Helvetica,sans-Serif" font-size="10.00">setPeriod()</text>
<text text-anchor="start" x="32.5" y="-240.5" font-family="Helvetica,sans-Serif" font-size="10.00">+</text>
<text text-anchor="start" x="45.5" y="-240.5" font-family="Helvetica,sans-Serif" font-size="10.00">getLastExecution()</text>
<text text-anchor="start" x="32.5" y="-225.5" font-family="Helvetica,sans-Serif" font-size="10.00">+</text>
<text text-anchor="start" x="45.5" y="-225.5" font-family="Helvetica,sans-Serif" font-size="10.00">setLastExecution()</text>
<text text-anchor="start" x="32.5" y="-210.5" font-family="Helvetica,sans-Serif" font-size="10.00">+</text>
<text text-anchor="start" x="45.5" y="-210.5" font-family="Helvetica,sans-Serif" font-size="10.00">getSensorName()</text>
<text text-anchor="start" x="32.5" y="-195.5" font-family="Helvetica,sans-Serif" font-size="10.00">+</text>
<text text-anchor="start" x="45.5" y="-195.5" font-family="Helvetica,sans-Serif" font-size="10.00">getSensorCSVHeader()</text>
<text text-anchor="start" x="45.5" y="-180.5" font-family="Helvetica,sans-Serif" font-size="10.00">and 7 more...</text>
<polygon fill="#666666" stroke="#666666" points="28.5,-355.5 28.5,-355.5 161.5,-355.5 161.5,-355.5 28.5,-355.5"/>
<polygon fill="#666666" stroke="#666666" points="28.5,-340.5 28.5,-340.5 161.5,-340.5 161.5,-340.5 28.5,-340.5"/>
<polygon fill="none" stroke="#666666" points="28,-174 28,-373 161,-373 161,-174 28,-174"/>
</a>
</g>
</g>
<!-- Node2&#45;&gt;Node1 -->
<g id="edge1_Node000001_Node000002" class="edge">
<title>Node2&#45;&gt;Node1</title>
<g id="a_edge1_Node000001_Node000002"><a xlink:title=" ">
<path fill="none" stroke="#63b8ff" d="M160.17,-164.89C175.41,-139.92 190.84,-114.63 203.43,-94"/>
<polygon fill="none" stroke="#63b8ff" points="157.01,-163.35 154.79,-173.7 162.99,-166.99 157.01,-163.35"/>
</a>
</g>
</g>
<!-- Node3 -->
<g id="Node000003" class="node">
<title>Node3</title>
<g id="a_Node000003"><a xlink:title=" ">
<polygon fill="white" stroke="transparent" points="79,-491 0,-491 0,-442 79,-442 79,-491"/>
<text text-anchor="start" x="5.5" y="-478.5" font-family="Helvetica,sans-Serif" font-size="10.00">unsigned long</text>
<text text-anchor="start" x="38" y="-463.5" font-family="Helvetica,sans-Serif" font-size="10.00"> </text>
<text text-anchor="start" x="38" y="-448.5" font-family="Helvetica,sans-Serif" font-size="10.00"> </text>
<polygon fill="#666666" stroke="#666666" points="0.5,-473.5 0.5,-473.5 79.5,-473.5 79.5,-473.5 0.5,-473.5"/>
<polygon fill="#666666" stroke="#666666" points="0.5,-458.5 0.5,-458.5 79.5,-458.5 79.5,-458.5 0.5,-458.5"/>
<polygon fill="none" stroke="#666666" points="0,-442 0,-491 79,-491 79,-442 0,-442"/>
</a>
</g>
</g>
<!-- Node3&#45;&gt;Node2 -->
<g id="edge2_Node000002_Node000003" class="edge">
<title>Node3&#45;&gt;Node2</title>
<g id="a_edge2_Node000002_Node000003"><a xlink:title=" ">
<path fill="none" stroke="#63b8ff" d="M37.31,-441.71C36.56,-426.94 36.71,-407.65 40.5,-391 40.96,-388.98 41.46,-386.96 41.99,-384.93"/>
<polygon fill="none" stroke="#63b8ff" points="42.02,-384.82 39.86,-377.94 45.38,-373.3 47.54,-380.18 42.02,-384.82"/>
</a>
</g>
<text text-anchor="middle" x="84.5" y="-410.5" font-family="Helvetica,sans-Serif" font-size="10.00" fill="grey"> &#45;last_execution</text>
<text text-anchor="middle" x="84.5" y="-399.5" font-family="Helvetica,sans-Serif" font-size="10.00" fill="grey">&#45;minimum_period</text>
</g>
<!-- Node4 -->
<g id="Node000004" class="node">
<title>Node4</title>
<g id="a_Node000004"><a xlink:title=" ">
<polygon fill="white" stroke="transparent" points="170,-491 131,-491 131,-442 170,-442 170,-491"/>
<text text-anchor="start" x="136.5" y="-478.5" font-family="Helvetica,sans-Serif" font-size="10.00">String</text>
<text text-anchor="start" x="149" y="-463.5" font-family="Helvetica,sans-Serif" font-size="10.00"> </text>
<text text-anchor="start" x="149" y="-448.5" font-family="Helvetica,sans-Serif" font-size="10.00"> </text>
<polygon fill="#666666" stroke="#666666" points="131.5,-473.5 131.5,-473.5 170.5,-473.5 170.5,-473.5 131.5,-473.5"/>
<polygon fill="#666666" stroke="#666666" points="131.5,-458.5 131.5,-458.5 170.5,-458.5 170.5,-458.5 131.5,-458.5"/>
<polygon fill="none" stroke="#666666" points="131,-442 131,-491 170,-491 170,-442 131,-442"/>
</a>
</g>
</g>
<!-- Node4&#45;&gt;Node2 -->
<g id="edge3_Node000002_Node000004" class="edge">
<title>Node4&#45;&gt;Node2</title>
<g id="a_edge3_Node000002_Node000004"><a xlink:title=" ">
<path fill="none" stroke="#63b8ff" d="M143.52,-441.7C139.15,-426.78 133.16,-406.36 126.87,-384.91"/>
<polygon fill="none" stroke="#63b8ff" points="126.83,-384.78 121.31,-380.15 123.46,-373.27 128.99,-377.9 126.83,-384.78"/>
</a>
</g>
<text text-anchor="middle" x="172.5" y="-416" font-family="Helvetica,sans-Serif" font-size="10.00" fill="grey"> &#45;csv_header</text>
<text text-anchor="middle" x="172.5" y="-405" font-family="Helvetica,sans-Serif" font-size="10.00" fill="grey">&#45;empty_csv</text>
<text text-anchor="middle" x="172.5" y="-394" font-family="Helvetica,sans-Serif" font-size="10.00" fill="grey">&#45;sensor_name</text>
</g>
<!-- Node5 -->
<g id="Node000005" class="node">
<title>Node5</title>
<g id="a_Node000005"><a xlink:title=" ">
<polygon fill="white" stroke="transparent" points="283.5,-298 179.5,-298 179.5,-249 283.5,-249 283.5,-298"/>
<text text-anchor="start" x="184.5" y="-285.5" font-family="Helvetica,sans-Serif" font-size="10.00">Adafruit_ICM20948</text>
<text text-anchor="start" x="229.5" y="-270.5" font-family="Helvetica,sans-Serif" font-size="10.00"> </text>
<text text-anchor="start" x="229.5" y="-255.5" font-family="Helvetica,sans-Serif" font-size="10.00"> </text>
<polygon fill="#666666" stroke="#666666" points="179.5,-280.5 179.5,-280.5 283.5,-280.5 283.5,-280.5 179.5,-280.5"/>
<polygon fill="#666666" stroke="#666666" points="179.5,-265.5 179.5,-265.5 283.5,-265.5 283.5,-265.5 179.5,-265.5"/>
<polygon fill="none" stroke="#666666" points="179.5,-249 179.5,-298 283.5,-298 283.5,-249 179.5,-249"/>
</a>
</g>
</g>
<!-- Node5&#45;&gt;Node1 -->
<g id="edge4_Node000001_Node000005" class="edge">
<title>Node5&#45;&gt;Node1</title>
<g id="a_edge4_Node000001_Node000005"><a xlink:title=" ">
<path fill="none" stroke="#63b8ff" d="M231.5,-248.9C231.5,-215.31 231.5,-152.66 231.5,-106.21"/>
<polygon fill="none" stroke="#63b8ff" points="231.5,-106.18 227.5,-100.18 231.5,-94.18 235.5,-100.18 231.5,-106.18"/>
</a>
</g>
<text text-anchor="middle" x="244" y="-131.5" font-family="Helvetica,sans-Serif" font-size="10.00" fill="grey"> &#45;icm</text>
</g>
<!-- Node6 -->
<g id="Node000006" class="node">
<title>Node6</title>
<g id="a_Node000006"><a xlink:title=" ">
<polygon fill="white" stroke="transparent" points="397.5,-298 301.5,-298 301.5,-249 397.5,-249 397.5,-298"/>
<text text-anchor="start" x="306.5" y="-285.5" font-family="Helvetica,sans-Serif" font-size="10.00">Adafruit_Sensor *</text>
<text text-anchor="start" x="347.5" y="-270.5" font-family="Helvetica,sans-Serif" font-size="10.00"> </text>
<text text-anchor="start" x="347.5" y="-255.5" font-family="Helvetica,sans-Serif" font-size="10.00"> </text>
<polygon fill="#666666" stroke="#666666" points="301.5,-280.5 301.5,-280.5 397.5,-280.5 397.5,-280.5 301.5,-280.5"/>
<polygon fill="#666666" stroke="#666666" points="301.5,-265.5 301.5,-265.5 397.5,-265.5 397.5,-265.5 301.5,-265.5"/>
<polygon fill="none" stroke="#666666" points="301.5,-249 301.5,-298 397.5,-298 397.5,-249 301.5,-249"/>
</a>
</g>
</g>
<!-- Node6&#45;&gt;Node1 -->
<g id="edge5_Node000001_Node000006" class="edge">
<title>Node6&#45;&gt;Node1</title>
<g id="a_edge5_Node000001_Node000006"><a xlink:title=" ">
<path fill="none" stroke="#63b8ff" d="M337.09,-248.9C319.29,-215.03 285.95,-151.59 261.47,-105.03"/>
<polygon fill="none" stroke="#63b8ff" points="261.36,-104.8 255.02,-101.35 255.77,-94.18 262.1,-97.63 261.36,-104.8"/>
</a>
</g>
<text text-anchor="middle" x="314.5" y="-148" font-family="Helvetica,sans-Serif" font-size="10.00" fill="grey"> &#45;icm_accel</text>
<text text-anchor="middle" x="314.5" y="-137" font-family="Helvetica,sans-Serif" font-size="10.00" fill="grey">&#45;icm_gyro</text>
<text text-anchor="middle" x="314.5" y="-126" font-family="Helvetica,sans-Serif" font-size="10.00" fill="grey">&#45;icm_mag</text>
<text text-anchor="middle" x="314.5" y="-115" font-family="Helvetica,sans-Serif" font-size="10.00" fill="grey">&#45;icm_temp</text>
</g>
</g>
</svg>
