<?xml version="1.0" encoding="UTF-8" standalone="no"?>
<!DOCTYPE svg PUBLIC "-//W3C//DTD SVG 1.1//EN"
 "http://www.w3.org/Graphics/SVG/1.1/DTD/svg11.dtd">
<!-- Generated by graphviz version 2.43.0 (0)
 -->
<!-- Title: ENS160Sensor Pages: 1 -->
<svg width="286pt" height="496pt"
 viewBox="0.00 0.00 285.50 496.00" xmlns="http://www.w3.org/2000/svg" xmlns:xlink="http://www.w3.org/1999/xlink">
<g id="graph0" class="graph" transform="scale(1 1) rotate(0) translate(4 492)">
<title>ENS160Sensor</title>
<!-- Node1 -->
<g id="Node000001" class="node">
<title>Node1</title>
<g id="a_Node000001"><a xlink:title="Implementation of a Sensor for the ENS160.">
<polygon fill="#999999" stroke="transparent" points="214.5,-124 108.5,-124 108.5,0 214.5,0 214.5,-124"/>
<text text-anchor="start" x="126" y="-112" font-family="Helvetica,sans-Serif" font-size="10.00">ENS160Sensor</text>
<text text-anchor="start" x="159.5" y="-97" font-family="Helvetica,sans-Serif" font-size="10.00"> </text>
<text text-anchor="start" x="112.5" y="-82" font-family="Helvetica,sans-Serif" font-size="10.00">+</text>
<text text-anchor="start" x="125.5" y="-82" font-family="Helvetica,sans-Serif" font-size="10.00">ENS160Sensor()</text>
<text text-anchor="start" x="112.5" y="-67" font-family="Helvetica,sans-Serif" font-size="10.00">+</text>
<text text-anchor="start" x="125.5" y="-67" font-family="Helvetica,sans-Serif" font-size="10.00">ENS160Sensor()</text>
<text text-anchor="start" x="112.5" y="-52" font-family="Helvetica,sans-Serif" font-size="10.00">+</text>
<text text-anchor="start" x="125.5" y="-52" font-family="Helvetica,sans-Serif" font-size="10.00">verify()</text>
<text text-anchor="start" x="112.5" y="-37" font-family="Helvetica,sans-Serif" font-size="10.00">+</text>
<text text-anchor="start" x="125.5" y="-37" font-family="Helvetica,sans-Serif" font-size="10.00">readData()</text>
<text text-anchor="start" x="112.5" y="-22" font-family="Helvetica,sans-Serif" font-size="10.00">+</text>
<text text-anchor="start" x="125.5" y="-22" font-family="Helvetica,sans-Serif" font-size="10.00">readDataPacket()</text>
<text text-anchor="start" x="112.5" y="-7" font-family="Helvetica,sans-Serif" font-size="10.00">+</text>
<text text-anchor="start" x="125.5" y="-7" font-family="Helvetica,sans-Serif" font-size="10.00">decodeToCSV()</text>
<polygon fill="#666666" stroke="#666666" points="108.5,-107 108.5,-107 214.5,-107 214.5,-107 108.5,-107"/>
<polygon fill="#666666" stroke="#666666" points="108.5,-92 108.5,-92 214.5,-92 214.5,-92 108.5,-92"/>
<polygon fill="none" stroke="#666666" points="108.5,0 108.5,-124 214.5,-124 214.5,0 108.5,0"/>
</a>
</g>
</g>
<!-- Node2 -->
<g id="Node000002" class="node">
<title>Node2</title>
<g id="a_Node000002"><a xlink:href="classSensor.html" target="_top" xlink:title="Parent class for sensor objects.">
<polygon fill="white" stroke="transparent" points="161,-370 28,-370 28,-171 161,-171 161,-370"/>
<text text-anchor="start" x="78" y="-357.5" font-family="Helvetica,sans-Serif" font-size="10.00">Sensor</text>
<text text-anchor="start" x="93" y="-342.5" font-family="Helvetica,sans-Serif" font-size="10.00"> </text>
<text text-anchor="start" x="32.5" y="-327.5" font-family="Helvetica,sans-Serif" font-size="10.00">+</text>
<text text-anchor="start" x="45.5" y="-327.5" font-family="Helvetica,sans-Serif" font-size="10.00">Sensor()</text>
<text text-anchor="start" x="32.5" y="-312.5" font-family="Helvetica,sans-Serif" font-size="10.00">+</text>
<text text-anchor="start" x="45.5" y="-312.5" font-family="Helvetica,sans-Serif" font-size="10.00">Sensor()</text>
<text text-anchor="start" x="32.5" y="-297.5" font-family="Helvetica,sans-Serif" font-size="10.00">+</text>
<text text-anchor="start" x="45.5" y="-297.5" font-family="Helvetica,sans-Serif" font-size="10.00">Sensor()</text>
<text text-anchor="start" x="32.5" y="-282.5" font-family="Helvetica,sans-Serif" font-size="10.00">+</text>
<text text-anchor="start" x="45.5" y="-282.5" font-family="Helvetica,sans-Serif" font-size="10.00">Sensor()</text>
<text text-anchor="start" x="32.5" y="-267.5" font-family="Helvetica,sans-Serif" font-size="10.00">+</text>
<text text-anchor="start" x="45.5" y="-267.5" font-family="Helvetica,sans-Serif" font-size="10.00">getPeriod()</text>
<text text-anchor="start" x="32.5" y="-252.5" font-family="Helvetica,sans-Serif" font-size="10.00">+</text>
<text text-anchor="start" x="45.5" y="-252.5" font-family="Helvetica,sans-Serif" font-size="10.00">setPeriod()</text>
<text text-anchor="start" x="32.5" y="-237.5" font-family="Helvetica,sans-Serif" font-size="10.00">+</text>
<text text-anchor="start" x="45.5" y="-237.5" font-family="Helvetica,sans-Serif" font-size="10.00">getLastExecution()</text>
<text text-anchor="start" x="32.5" y="-222.5" font-family="Helvetica,sans-Serif" font-size="10.00">+</text>
<text text-anchor="start" x="45.5" y="-222.5" font-family="Helvetica,sans-Serif" font-size="10.00">setLastExecution()</text>
<text text-anchor="start" x="32.5" y="-207.5" font-family="Helvetica,sans-Serif" font-size="10.00">+</text>
<text text-anchor="start" x="45.5" y="-207.5" font-family="Helvetica,sans-Serif" font-size="10.00">getSensorName()</text>
<text text-anchor="start" x="32.5" y="-192.5" font-family="Helvetica,sans-Serif" font-size="10.00">+</text>
<text text-anchor="start" x="45.5" y="-192.5" font-family="Helvetica,sans-Serif" font-size="10.00">getSensorCSVHeader()</text>
<text text-anchor="start" x="45.5" y="-177.5" font-family="Helvetica,sans-Serif" font-size="10.00">and 7 more...</text>
<polygon fill="#666666" stroke="#666666" points="28.5,-352.5 28.5,-352.5 161.5,-352.5 161.5,-352.5 28.5,-352.5"/>
<polygon fill="#666666" stroke="#666666" points="28.5,-337.5 28.5,-337.5 161.5,-337.5 161.5,-337.5 28.5,-337.5"/>
<polygon fill="none" stroke="#666666" points="28,-171 28,-370 161,-370 161,-171 28,-171"/>
</a>
</g>
</g>
<!-- Node2&#45;&gt;Node1 -->
<g id="edge1_Node000001_Node000002" class="edge">
<title>Node2&#45;&gt;Node1</title>
<g id="a_edge1_Node000001_Node000002"><a xlink:title=" ">
<path fill="none" stroke="#63b8ff" d="M129.67,-161.11C133.77,-148.47 137.84,-135.94 141.62,-124.26"/>
<polygon fill="none" stroke="#63b8ff" points="126.29,-160.19 126.53,-170.79 132.94,-162.35 126.29,-160.19"/>
</a>
</g>
</g>
<!-- Node3 -->
<g id="Node000003" class="node">
<title>Node3</title>
<g id="a_Node000003"><a xlink:title=" ">
<polygon fill="white" stroke="transparent" points="79,-488 0,-488 0,-439 79,-439 79,-488"/>
<text text-anchor="start" x="5.5" y="-475.5" font-family="Helvetica,sans-Serif" font-size="10.00">unsigned long</text>
<text text-anchor="start" x="38" y="-460.5" font-family="Helvetica,sans-Serif" font-size="10.00"> </text>
<text text-anchor="start" x="38" y="-445.5" font-family="Helvetica,sans-Serif" font-size="10.00"> </text>
<polygon fill="#666666" stroke="#666666" points="0.5,-470.5 0.5,-470.5 79.5,-470.5 79.5,-470.5 0.5,-470.5"/>
<polygon fill="#666666" stroke="#666666" points="0.5,-455.5 0.5,-455.5 79.5,-455.5 79.5,-455.5 0.5,-455.5"/>
<polygon fill="none" stroke="#666666" points="0,-439 0,-488 79,-488 79,-439 0,-439"/>
</a>
</g>
</g>
<!-- Node3&#45;&gt;Node2 -->
<g id="edge2_Node000002_Node000003" class="edge">
<title>Node3&#45;&gt;Node2</title>
<g id="a_edge2_Node000002_Node000003"><a xlink:title=" ">
<path fill="none" stroke="#63b8ff" d="M37.31,-438.71C36.56,-423.94 36.71,-404.65 40.5,-388 40.96,-385.98 41.46,-383.96 41.99,-381.93"/>
<polygon fill="none" stroke="#63b8ff" points="42.02,-381.82 39.86,-374.94 45.38,-370.3 47.54,-377.18 42.02,-381.82"/>
</a>
</g>
<text text-anchor="middle" x="84.5" y="-407.5" font-family="Helvetica,sans-Serif" font-size="10.00" fill="grey"> &#45;last_execution</text>
<text text-anchor="middle" x="84.5" y="-396.5" font-family="Helvetica,sans-Serif" font-size="10.00" fill="grey">&#45;minimum_period</text>
</g>
<!-- Node4 -->
<g id="Node000004" class="node">
<title>Node4</title>
<g id="a_Node000004"><a xlink:title=" ">
<polygon fill="white" stroke="transparent" points="170,-488 131,-488 131,-439 170,-439 170,-488"/>
<text text-anchor="start" x="136.5" y="-475.5" font-family="Helvetica,sans-Serif" font-size="10.00">String</text>
<text text-anchor="start" x="149" y="-460.5" font-family="Helvetica,sans-Serif" font-size="10.00"> </text>
<text text-anchor="start" x="149" y="-445.5" font-family="Helvetica,sans-Serif" font-size="10.00"> </text>
<polygon fill="#666666" stroke="#666666" points="131.5,-470.5 131.5,-470.5 170.5,-470.5 170.5,-470.5 131.5,-470.5"/>
<polygon fill="#666666" stroke="#666666" points="131.5,-455.5 131.5,-455.5 170.5,-455.5 170.5,-455.5 131.5,-455.5"/>
<polygon fill="none" stroke="#666666" points="131,-439 131,-488 170,-488 170,-439 131,-439"/>
</a>
</g>
</g>
<!-- Node4&#45;&gt;Node2 -->
<g id="edge3_Node000002_Node000004" class="edge">
<title>Node4&#45;&gt;Node2</title>
<g id="a_edge3_Node000002_Node000004"><a xlink:title=" ">
<path fill="none" stroke="#63b8ff" d="M143.52,-438.7C139.15,-423.78 133.16,-403.36 126.87,-381.91"/>
<polygon fill="none" stroke="#63b8ff" points="126.83,-381.78 121.31,-377.15 123.46,-370.27 128.99,-374.9 126.83,-381.78"/>
</a>
</g>
<text text-anchor="middle" x="172.5" y="-413" font-family="Helvetica,sans-Serif" font-size="10.00" fill="grey"> &#45;csv_header</text>
<text text-anchor="middle" x="172.5" y="-402" font-family="Helvetica,sans-Serif" font-size="10.00" fill="grey">&#45;empty_csv</text>
<text text-anchor="middle" x="172.5" y="-391" font-family="Helvetica,sans-Serif" font-size="10.00" fill="grey">&#45;sensor_name</text>
</g>
<!-- Node5 -->
<g id="Node000005" class="node">
<title>Node5</title>
<g id="a_Node000005"><a xlink:title=" ">
<polygon fill="white" stroke="transparent" points="277.5,-295 179.5,-295 179.5,-246 277.5,-246 277.5,-295"/>
<text text-anchor="start" x="184.5" y="-282.5" font-family="Helvetica,sans-Serif" font-size="10.00">SparkFun_ENS160</text>
<text text-anchor="start" x="226.5" y="-267.5" font-family="Helvetica,sans-Serif" font-size="10.00"> </text>
<text text-anchor="start" x="226.5" y="-252.5" font-family="Helvetica,sans-Serif" font-size="10.00"> </text>
<polygon fill="#666666" stroke="#666666" points="179.5,-277.5 179.5,-277.5 277.5,-277.5 277.5,-277.5 179.5,-277.5"/>
<polygon fill="#666666" stroke="#666666" points="179.5,-262.5 179.5,-262.5 277.5,-262.5 277.5,-262.5 179.5,-262.5"/>
<polygon fill="none" stroke="#666666" points="179.5,-246 179.5,-295 277.5,-295 277.5,-246 179.5,-246"/>
</a>
</g>
</g>
<!-- Node5&#45;&gt;Node1 -->
<g id="edge4_Node000001_Node000005" class="edge">
<title>Node5&#45;&gt;Node1</title>
<g id="a_edge4_Node000001_Node000005"><a xlink:title=" ">
<path fill="none" stroke="#63b8ff" d="M220.81,-245.81C212.15,-219.12 197.66,-174.43 185.16,-135.92"/>
<polygon fill="none" stroke="#63b8ff" points="185.06,-135.61 179.4,-131.14 181.36,-124.2 187.01,-128.67 185.06,-135.61"/>
</a>
</g>
<text text-anchor="middle" x="202" y="-145" font-family="Helvetica,sans-Serif" font-size="10.00" fill="grey"> &#45;ens</text>
</g>
</g>
</svg>
