<?xml version="1.0" encoding="UTF-8" standalone="no"?>
<!DOCTYPE svg PUBLIC "-//W3C//DTD SVG 1.1//EN"
 "http://www.w3.org/Graphics/SVG/1.1/DTD/svg11.dtd">
<!-- Generated by graphviz version 2.43.0 (0)
 -->
<!-- Title: TempSensor Pages: 1 -->
<!--zoomable 756 -->

<svg id="main" version="1.1" xmlns="http://www.w3.org/2000/svg" xmlns:xlink="http://www.w3.org/1999/xlink" xml:space="preserve" onload="init(evt)">
<style type="text/css"><![CDATA[
.node, .edge {opacity: 0.7;}
.node.selected, .edge.selected {opacity: 1;}
.edge:hover path { stroke: red; }
.edge:hover polygon { stroke: red; fill: red; }
]]></style>

<defs>
  <circle id="rim" cx="0" cy="0" r="7"/>
  <circle id="rim2" cx="0" cy="0" r="3.5"/>
  <g id="zoomPlus">
    <use xlink:href="#rim" fill="#404040"><set attributeName="fill" to="#808080" begin="zoomplus.mouseover" end="zoomplus.mouseout"/></use>
    <path d="M-4,0h8M0,-4v8" fill="none" stroke="white" stroke-width="1.5" pointer-events="none"/>
  </g>
  <g id="zoomMin">
    <use xlink:href="#rim" fill="#404040"><set attributeName="fill" to="#808080" begin="zoomminus.mouseover" end="zoomminus.mouseout"/></use>
    <path d="M-4,0h8" fill="none" stroke="white" stroke-width="1.5" pointer-events="none"/>
  </g>
  <g id="arrowUp" transform="translate(30 24)">
    <use xlink:href="#rim"/>
    <path pointer-events="none" fill="none" stroke="white" stroke-width="1.5" d="M0,-3.0v7 M-2.5,-0.5L0,-3.0L2.5,-0.5"/>
  </g>
  <g id="arrowRight" transform="rotate(90) translate(36 -43)">
    <use xlink:href="#rim"/>
    <path pointer-events="none" fill="none" stroke="white" stroke-width="1.5" d="M0,-3.0v7 M-2.5,-0.5L0,-3.0L2.5,-0.5"/>
  </g>
  <g id="arrowDown" transform="rotate(180) translate(-30 -48)">
    <use xlink:href="#rim"/>
    <path pointer-events="none" fill="none" stroke="white" stroke-width="1.5" d="M0,-3.0v7 M-2.5,-0.5L0,-3.0L2.5,-0.5"/>
  </g>
  <g id="arrowLeft" transform="rotate(270) translate(-36 17)">
    <use xlink:href="#rim"/>
    <path pointer-events="none" fill="none" stroke="white" stroke-width="1.5" d="M0,-3.0v7 M-2.5,-0.5L0,-3.0L2.5,-0.5"/>
  </g>
  <g id="resetDef">
    <use xlink:href="#rim2" fill="#404040"><set attributeName="fill" to="#808080" begin="reset.mouseover" end="reset.mouseout"/></use>
  </g>
</defs>
<script type="application/ecmascript">
var viewWidth = 500;
var viewHeight = 756;
var sectionId = 'dynsection-1';
</script>
<script type="application/ecmascript" xlink:href="svg.min.js"/>
<svg id="graph" class="graph">
<g id="viewport">
<title>TempSensor</title>
<!-- Node1 -->
<g id="Node000001" class="node">
<title>Node1</title>
<g id="a_Node000001"><a xlink:title="Implementation of a Sensor for the onboard temperature sensor.">
<polygon fill="#999999" stroke="transparent" points="340.5,-124 234.5,-124 234.5,0 340.5,0 340.5,-124"/>
<text text-anchor="start" x="257.5" y="-112" font-family="Helvetica,sans-Serif" font-size="10.00">TempSensor</text>
<text text-anchor="start" x="285.5" y="-97" font-family="Helvetica,sans-Serif" font-size="10.00"> </text>
<text text-anchor="start" x="238.5" y="-82" font-family="Helvetica,sans-Serif" font-size="10.00">+</text>
<text text-anchor="start" x="251.5" y="-82" font-family="Helvetica,sans-Serif" font-size="10.00">TempSensor()</text>
<text text-anchor="start" x="238.5" y="-67" font-family="Helvetica,sans-Serif" font-size="10.00">+</text>
<text text-anchor="start" x="251.5" y="-67" font-family="Helvetica,sans-Serif" font-size="10.00">TempSensor()</text>
<text text-anchor="start" x="238.5" y="-52" font-family="Helvetica,sans-Serif" font-size="10.00">+</text>
<text text-anchor="start" x="251.5" y="-52" font-family="Helvetica,sans-Serif" font-size="10.00">verify()</text>
<text text-anchor="start" x="238.5" y="-37" font-family="Helvetica,sans-Serif" font-size="10.00">+</text>
<text text-anchor="start" x="251.5" y="-37" font-family="Helvetica,sans-Serif" font-size="10.00">readData()</text>
<text text-anchor="start" x="238.5" y="-22" font-family="Helvetica,sans-Serif" font-size="10.00">+</text>
<text text-anchor="start" x="251.5" y="-22" font-family="Helvetica,sans-Serif" font-size="10.00">readDataPacket()</text>
<text text-anchor="start" x="238.5" y="-7" font-family="Helvetica,sans-Serif" font-size="10.00">+</text>
<text text-anchor="start" x="251.5" y="-7" font-family="Helvetica,sans-Serif" font-size="10.00">decodeToCSV()</text>
<polygon fill="#666666" stroke="#666666" points="234.5,-107 234.5,-107 340.5,-107 340.5,-107 234.5,-107"/>
<polygon fill="#666666" stroke="#666666" points="234.5,-92 234.5,-92 340.5,-92 340.5,-92 234.5,-92"/>
<polygon fill="none" stroke="#666666" points="234.5,0 234.5,-124 340.5,-124 340.5,0 234.5,0"/>
</a>
</g>
</g>
<!-- Node2 -->
<g id="Node000002" class="node">
<title>Node2</title>
<g id="a_Node000002"><a xlink:href="classSensor.html" target="_top" xlink:title="Parent class for sensor objects.">
<polygon fill="white" stroke="transparent" points="354,-435 221,-435 221,-161 354,-161 354,-435"/>
<text text-anchor="start" x="271" y="-423" font-family="Helvetica,sans-Serif" font-size="10.00">Sensor</text>
<text text-anchor="start" x="286" y="-408" font-family="Helvetica,sans-Serif" font-size="10.00"> </text>
<text text-anchor="start" x="225.5" y="-393" font-family="Helvetica,sans-Serif" font-size="10.00">+</text>
<text text-anchor="start" x="238.5" y="-393" font-family="Helvetica,sans-Serif" font-size="10.00">Sensor()</text>
<text text-anchor="start" x="225.5" y="-378" font-family="Helvetica,sans-Serif" font-size="10.00">+</text>
<text text-anchor="start" x="238.5" y="-378" font-family="Helvetica,sans-Serif" font-size="10.00">Sensor()</text>
<text text-anchor="start" x="225.5" y="-363" font-family="Helvetica,sans-Serif" font-size="10.00">+</text>
<text text-anchor="start" x="238.5" y="-363" font-family="Helvetica,sans-Serif" font-size="10.00">Sensor()</text>
<text text-anchor="start" x="225.5" y="-348" font-family="Helvetica,sans-Serif" font-size="10.00">+</text>
<text text-anchor="start" x="238.5" y="-348" font-family="Helvetica,sans-Serif" font-size="10.00">Sensor()</text>
<text text-anchor="start" x="225.5" y="-333" font-family="Helvetica,sans-Serif" font-size="10.00">+</text>
<text text-anchor="start" x="238.5" y="-333" font-family="Helvetica,sans-Serif" font-size="10.00">getPeriod()</text>
<text text-anchor="start" x="225.5" y="-318" font-family="Helvetica,sans-Serif" font-size="10.00">+</text>
<text text-anchor="start" x="238.5" y="-318" font-family="Helvetica,sans-Serif" font-size="10.00">setPeriod()</text>
<text text-anchor="start" x="225.5" y="-303" font-family="Helvetica,sans-Serif" font-size="10.00">+</text>
<text text-anchor="start" x="238.5" y="-303" font-family="Helvetica,sans-Serif" font-size="10.00">getLastExecution()</text>
<text text-anchor="start" x="225.5" y="-288" font-family="Helvetica,sans-Serif" font-size="10.00">+</text>
<text text-anchor="start" x="238.5" y="-288" font-family="Helvetica,sans-Serif" font-size="10.00">setLastExecution()</text>
<text text-anchor="start" x="225.5" y="-273" font-family="Helvetica,sans-Serif" font-size="10.00">+</text>
<text text-anchor="start" x="238.5" y="-273" font-family="Helvetica,sans-Serif" font-size="10.00">getSensorCSVHeader()</text>
<text text-anchor="start" x="225.5" y="-258" font-family="Helvetica,sans-Serif" font-size="10.00">+</text>
<text text-anchor="start" x="238.5" y="-258" font-family="Helvetica,sans-Serif" font-size="10.00">verify()</text>
<text text-anchor="start" x="225.5" y="-243" font-family="Helvetica,sans-Serif" font-size="10.00">+</text>
<text text-anchor="start" x="238.5" y="-243" font-family="Helvetica,sans-Serif" font-size="10.00">readData()</text>
<text text-anchor="start" x="225.5" y="-228" font-family="Helvetica,sans-Serif" font-size="10.00">+</text>
<text text-anchor="start" x="238.5" y="-228" font-family="Helvetica,sans-Serif" font-size="10.00">readDataPacket()</text>
<text text-anchor="start" x="225.5" y="-213" font-family="Helvetica,sans-Serif" font-size="10.00">+</text>
<text text-anchor="start" x="238.5" y="-213" font-family="Helvetica,sans-Serif" font-size="10.00">decodeToCSV()</text>
<text text-anchor="start" x="225.5" y="-198" font-family="Helvetica,sans-Serif" font-size="10.00">+</text>
<text text-anchor="start" x="238.5" y="-198" font-family="Helvetica,sans-Serif" font-size="10.00">getDataPacket()</text>
<text text-anchor="start" x="225.5" y="-183" font-family="Helvetica,sans-Serif" font-size="10.00">+</text>
<text text-anchor="start" x="238.5" y="-183" font-family="Helvetica,sans-Serif" font-size="10.00">readEmpty()</text>
<text text-anchor="start" x="225.5" y="-168" font-family="Helvetica,sans-Serif" font-size="10.00">+</text>
<text text-anchor="start" x="238.5" y="-168" font-family="Helvetica,sans-Serif" font-size="10.00">getDataCSV()</text>
<polygon fill="#666666" stroke="#666666" points="221.5,-418 221.5,-418 354.5,-418 354.5,-418 221.5,-418"/>
<polygon fill="#666666" stroke="#666666" points="221.5,-403 221.5,-403 354.5,-403 354.5,-403 221.5,-403"/>
<polygon fill="none" stroke="#666666" points="221,-161 221,-435 354,-435 354,-161 221,-161"/>
</a>
</g>
</g>
<!-- Node2&#45;&gt;Node1 -->
<g id="edge1_Node000001_Node000002" class="edge">
<title>Node2&#45;&gt;Node1</title>
<g id="a_edge1_Node000001_Node000002"><a xlink:title=" ">
<path fill="none" stroke="#63b8ff" d="M287.5,-150.78C287.5,-141.56 287.5,-132.6 287.5,-124.14"/>
<polygon fill="none" stroke="#63b8ff" points="284,-150.88 287.5,-160.88 291,-150.88 284,-150.88"/>
</a>
</g>
</g>
<!-- Node3 -->
<g id="Node000003" class="node">
<title>Node3</title>
<g id="a_Node000003"><a xlink:href="classDevice.html" target="_top" xlink:title="Implements the recovery system for Sensor and Storage objects.">
<polygon fill="white" stroke="transparent" points="276,-641 153,-641 153,-472 276,-472 276,-641"/>
<text text-anchor="start" x="198" y="-628.5" font-family="Helvetica,sans-Serif" font-size="10.00">Device</text>
<text text-anchor="start" x="213" y="-613.5" font-family="Helvetica,sans-Serif" font-size="10.00"> </text>
<text text-anchor="start" x="157.5" y="-598.5" font-family="Helvetica,sans-Serif" font-size="10.00">+</text>
<text text-anchor="start" x="170.5" y="-598.5" font-family="Helvetica,sans-Serif" font-size="10.00">Device()</text>
<text text-anchor="start" x="157.5" y="-583.5" font-family="Helvetica,sans-Serif" font-size="10.00">+</text>
<text text-anchor="start" x="170.5" y="-583.5" font-family="Helvetica,sans-Serif" font-size="10.00">Device()</text>
<text text-anchor="start" x="157.5" y="-568.5" font-family="Helvetica,sans-Serif" font-size="10.00">+</text>
<text text-anchor="start" x="170.5" y="-568.5" font-family="Helvetica,sans-Serif" font-size="10.00">getDeviceName()</text>
<text text-anchor="start" x="157.5" y="-553.5" font-family="Helvetica,sans-Serif" font-size="10.00">+</text>
<text text-anchor="start" x="170.5" y="-553.5" font-family="Helvetica,sans-Serif" font-size="10.00">verify()</text>
<text text-anchor="start" x="157.5" y="-538.5" font-family="Helvetica,sans-Serif" font-size="10.00">+</text>
<text text-anchor="start" x="170.5" y="-538.5" font-family="Helvetica,sans-Serif" font-size="10.00">getVerified()</text>
<text text-anchor="start" x="157.5" y="-523.5" font-family="Helvetica,sans-Serif" font-size="10.00">+</text>
<text text-anchor="start" x="170.5" y="-523.5" font-family="Helvetica,sans-Serif" font-size="10.00">recoveryConfig()</text>
<text text-anchor="start" x="157.5" y="-508.5" font-family="Helvetica,sans-Serif" font-size="10.00">+</text>
<text text-anchor="start" x="170.5" y="-508.5" font-family="Helvetica,sans-Serif" font-size="10.00">setWaitFactor()</text>
<text text-anchor="start" x="157.5" y="-493.5" font-family="Helvetica,sans-Serif" font-size="10.00">+</text>
<text text-anchor="start" x="170.5" y="-493.5" font-family="Helvetica,sans-Serif" font-size="10.00">setMaxAttempts()</text>
<text text-anchor="start" x="157.5" y="-478.5" font-family="Helvetica,sans-Serif" font-size="10.00">+</text>
<text text-anchor="start" x="170.5" y="-478.5" font-family="Helvetica,sans-Serif" font-size="10.00">attemptConnection()</text>
<polygon fill="#666666" stroke="#666666" points="153.5,-623.5 153.5,-623.5 276.5,-623.5 276.5,-623.5 153.5,-623.5"/>
<polygon fill="#666666" stroke="#666666" points="153.5,-608.5 153.5,-608.5 276.5,-608.5 276.5,-608.5 153.5,-608.5"/>
<polygon fill="none" stroke="#666666" points="153,-472 153,-641 276,-641 276,-472 153,-472"/>
</a>
</g>
</g>
<!-- Node3&#45;&gt;Node2 -->
<g id="edge2_Node000002_Node000003" class="edge">
<title>Node3&#45;&gt;Node2</title>
<g id="a_edge2_Node000002_Node000003"><a xlink:title=" ">
<path fill="none" stroke="#63b8ff" d="M241.1,-462.03C243.61,-453.22 246.18,-444.18 248.77,-435.08"/>
<polygon fill="none" stroke="#63b8ff" points="237.67,-461.29 238.3,-471.87 244.41,-463.21 237.67,-461.29"/>
</a>
</g>
</g>
<!-- Node4 -->
<g id="Node000004" class="node">
<title>Node4</title>
<g id="a_Node000004"><a xlink:title=" ">
<polygon fill="white" stroke="transparent" points="79,-748 0,-748 0,-699 79,-699 79,-748"/>
<text text-anchor="start" x="5.5" y="-735.5" font-family="Helvetica,sans-Serif" font-size="10.00">unsigned long</text>
<text text-anchor="start" x="38" y="-720.5" font-family="Helvetica,sans-Serif" font-size="10.00"> </text>
<text text-anchor="start" x="38" y="-705.5" font-family="Helvetica,sans-Serif" font-size="10.00"> </text>
<polygon fill="#666666" stroke="#666666" points="0.5,-730.5 0.5,-730.5 79.5,-730.5 79.5,-730.5 0.5,-730.5"/>
<polygon fill="#666666" stroke="#666666" points="0.5,-715.5 0.5,-715.5 79.5,-715.5 79.5,-715.5 0.5,-715.5"/>
<polygon fill="none" stroke="#666666" points="0,-699 0,-748 79,-748 79,-699 0,-699"/>
</a>
</g>
</g>
<!-- Node4&#45;&gt;Node2 -->
<g id="edge7_Node000002_Node000004" class="edge">
<title>Node4&#45;&gt;Node2</title>
<g id="a_edge7_Node000002_Node000004"><a xlink:title=" ">
<path fill="none" stroke="#63b8ff" d="M34.83,-698.98C26.85,-652.4 15.09,-546.51 55.5,-472 89.39,-409.5 156.7,-363.24 210.13,-334.36"/>
<polygon fill="none" stroke="#63b8ff" points="210.34,-334.24 213.78,-327.9 220.95,-328.64 217.52,-334.98 210.34,-334.24"/>
</a>
</g>
<text text-anchor="middle" x="99.5" y="-559.5" font-family="Helvetica,sans-Serif" font-size="10.00" fill="grey"> &#45;last_execution</text>
<text text-anchor="middle" x="99.5" y="-548.5" font-family="Helvetica,sans-Serif" font-size="10.00" fill="grey">&#45;minimum_period</text>
</g>
<!-- Node4&#45;&gt;Node3 -->
<g id="edge3_Node000003_Node000004" class="edge">
<title>Node4&#45;&gt;Node3</title>
<g id="a_edge3_Node000003_Node000004"><a xlink:title=" ">
<path fill="none" stroke="#63b8ff" d="M51.95,-698.79C59.55,-685.92 70.16,-670.36 82.5,-659 94.51,-647.95 101.07,-650.27 114.5,-641 124.13,-634.35 133.96,-626.98 143.5,-619.45"/>
<polygon fill="none" stroke="#63b8ff" points="143.58,-619.39 145.76,-612.52 152.94,-611.88 150.76,-618.76 143.58,-619.39"/>
</a>
</g>
<text text-anchor="middle" x="117.5" y="-673" font-family="Helvetica,sans-Serif" font-size="10.00" fill="grey"> &#45;last_attempt</text>
<text text-anchor="middle" x="117.5" y="-662" font-family="Helvetica,sans-Serif" font-size="10.00" fill="grey">&#45;wait_factor</text>
</g>
<!-- Node5 -->
<g id="Node000005" class="node">
<title>Node5</title>
<g id="a_Node000005"><a xlink:title=" ">
<polygon fill="white" stroke="transparent" points="409,-748 386,-748 386,-699 409,-699 409,-748"/>
<text text-anchor="start" x="391.5" y="-735.5" font-family="Helvetica,sans-Serif" font-size="10.00">int</text>
<text text-anchor="start" x="396" y="-720.5" font-family="Helvetica,sans-Serif" font-size="10.00"> </text>
<text text-anchor="start" x="396" y="-705.5" font-family="Helvetica,sans-Serif" font-size="10.00"> </text>
<polygon fill="#666666" stroke="#666666" points="386.5,-730.5 386.5,-730.5 409.5,-730.5 409.5,-730.5 386.5,-730.5"/>
<polygon fill="#666666" stroke="#666666" points="386.5,-715.5 386.5,-715.5 409.5,-715.5 409.5,-715.5 386.5,-715.5"/>
<polygon fill="none" stroke="#666666" points="386,-699 386,-748 409,-748 409,-699 386,-699"/>
</a>
</g>
</g>
<!-- Node5&#45;&gt;Node2 -->
<g id="edge9_Node000002_Node000005" class="edge">
<title>Node5&#45;&gt;Node2</title>
<g id="a_edge9_Node000002_Node000005"><a xlink:title=" ">
<path fill="none" stroke="#63b8ff" d="M409.07,-712.55C417.08,-704.86 427.05,-693.45 431.5,-681 434.79,-671.79 433.15,-668.64 431.5,-659 418.53,-583.27 388.49,-503.5 359.19,-438.35"/>
<polygon fill="none" stroke="#63b8ff" points="359.09,-438.11 352.96,-434.31 354.12,-427.19 360.24,-431 359.09,-438.11"/>
</a>
</g>
<text text-anchor="middle" x="459" y="-554" font-family="Helvetica,sans-Serif" font-size="10.00" fill="grey"> #num_fields</text>
</g>
<!-- Node5&#45;&gt;Node3 -->
<g id="edge4_Node000003_Node000005" class="edge">
<title>Node5&#45;&gt;Node3</title>
<g id="a_edge4_Node000003_Node000005"><a xlink:title=" ">
<path fill="none" stroke="#63b8ff" d="M385.71,-714.58C365.4,-700.71 322.87,-670.66 290.5,-641 288.71,-639.36 286.92,-637.69 285.12,-635.98"/>
<polygon fill="none" stroke="#63b8ff" points="284.77,-635.63 277.68,-634.3 276.18,-627.25 283.27,-628.58 284.77,-635.63"/>
</a>
</g>
<text text-anchor="middle" x="383" y="-673" font-family="Helvetica,sans-Serif" font-size="10.00" fill="grey"> &#45;attempt_number</text>
<text text-anchor="middle" x="383" y="-662" font-family="Helvetica,sans-Serif" font-size="10.00" fill="grey">&#45;max_attempts</text>
</g>
<!-- Node6 -->
<g id="Node000006" class="node">
<title>Node6</title>
<g id="a_Node000006"><a xlink:title=" ">
<polygon fill="white" stroke="transparent" points="164.5,-748 132.5,-748 132.5,-699 164.5,-699 164.5,-748"/>
<text text-anchor="start" x="137.5" y="-735.5" font-family="Helvetica,sans-Serif" font-size="10.00">bool</text>
<text text-anchor="start" x="146.5" y="-720.5" font-family="Helvetica,sans-Serif" font-size="10.00"> </text>
<text text-anchor="start" x="146.5" y="-705.5" font-family="Helvetica,sans-Serif" font-size="10.00"> </text>
<polygon fill="#666666" stroke="#666666" points="132.5,-730.5 132.5,-730.5 164.5,-730.5 164.5,-730.5 132.5,-730.5"/>
<polygon fill="#666666" stroke="#666666" points="132.5,-715.5 132.5,-715.5 164.5,-715.5 164.5,-715.5 132.5,-715.5"/>
<polygon fill="none" stroke="#666666" points="132.5,-699 132.5,-748 164.5,-748 164.5,-699 132.5,-699"/>
</a>
</g>
</g>
<!-- Node6&#45;&gt;Node3 -->
<g id="edge5_Node000003_Node000006" class="edge">
<title>Node6&#45;&gt;Node3</title>
<g id="a_edge5_Node000003_Node000006"><a xlink:title=" ">
<path fill="none" stroke="#63b8ff" d="M152.22,-698.87C154.5,-686.74 157.88,-671.85 162.5,-659 163.29,-656.8 164.12,-654.59 164.98,-652.36"/>
<polygon fill="none" stroke="#63b8ff" points="164.99,-652.33 163.56,-645.27 169.54,-641.23 170.97,-648.3 164.99,-652.33"/>
</a>
</g>
<text text-anchor="middle" x="187" y="-667.5" font-family="Helvetica,sans-Serif" font-size="10.00" fill="grey"> #verified</text>
</g>
<!-- Node7 -->
<g id="Node000007" class="node">
<title>Node7</title>
<g id="a_Node000007"><a xlink:title=" ">
<polygon fill="white" stroke="transparent" points="286,-748 247,-748 247,-699 286,-699 286,-748"/>
<text text-anchor="start" x="252.5" y="-735.5" font-family="Helvetica,sans-Serif" font-size="10.00">String</text>
<text text-anchor="start" x="265" y="-720.5" font-family="Helvetica,sans-Serif" font-size="10.00"> </text>
<text text-anchor="start" x="265" y="-705.5" font-family="Helvetica,sans-Serif" font-size="10.00"> </text>
<polygon fill="#666666" stroke="#666666" points="247.5,-730.5 247.5,-730.5 286.5,-730.5 286.5,-730.5 247.5,-730.5"/>
<polygon fill="#666666" stroke="#666666" points="247.5,-715.5 247.5,-715.5 286.5,-715.5 286.5,-715.5 247.5,-715.5"/>
<polygon fill="none" stroke="#666666" points="247,-699 247,-748 286,-748 286,-699 247,-699"/>
</a>
</g>
</g>
<!-- Node7&#45;&gt;Node2 -->
<g id="edge8_Node000002_Node000007" class="edge">
<title>Node7&#45;&gt;Node2</title>
<g id="a_edge8_Node000002_Node000007"><a xlink:title=" ">
<path fill="none" stroke="#63b8ff" d="M286.08,-702.56C291.12,-696.18 295.86,-688.75 298.5,-681 301.65,-671.74 298.65,-668.78 298.5,-659 297.44,-589.54 295.23,-512.58 293.06,-447.7"/>
<polygon fill="none" stroke="#63b8ff" points="293.05,-447.3 288.85,-441.44 292.65,-435.31 296.85,-441.17 293.05,-447.3"/>
</a>
</g>
<text text-anchor="middle" x="330" y="-559.5" font-family="Helvetica,sans-Serif" font-size="10.00" fill="grey"> &#45;csv_header</text>
<text text-anchor="middle" x="330" y="-548.5" font-family="Helvetica,sans-Serif" font-size="10.00" fill="grey">&#45;empty_csv</text>
</g>
<!-- Node7&#45;&gt;Node3 -->
<g id="edge6_Node000003_Node000007" class="edge">
<title>Node7&#45;&gt;Node3</title>
<g id="a_edge6_Node000003_Node000007"><a xlink:title=" ">
<path fill="none" stroke="#63b8ff" d="M246.97,-709.93C237.52,-702.7 227.04,-692.72 221.5,-681 217.36,-672.23 214.46,-662.72 212.5,-652.99"/>
<polygon fill="none" stroke="#63b8ff" points="212.48,-652.9 207.57,-647.62 210.54,-641.06 215.46,-646.33 212.48,-652.9"/>
</a>
</g>
<text text-anchor="middle" x="260" y="-667.5" font-family="Helvetica,sans-Serif" font-size="10.00" fill="grey"> #device_name</text>
</g>
</g>
</svg>

<g id="navigator" transform="translate(0 0)" fill="#404254">
  <rect fill="#f2f5e9" fill-opacity="0.5" stroke="#606060" stroke-width=".5" x="0" y="0" width="60" height="60"/>
  <use id="zoomplus" xlink:href="#zoomPlus" x="17" y="9" onmousedown="handleZoom(evt,'in')"/>
  <use id="zoomminus" xlink:href="#zoomMin" x="42" y="9" onmousedown="handleZoom(evt,'out')"/>
  <use id="reset" xlink:href="#resetDef" x="30" y="36" onmousedown="handleReset()"/>
   <use id="arrowup" xlink:href="#arrowUp" x="0" y="0" onmousedown="handlePan(0,-1)"/>
  <use id="arrowright" xlink:href="#arrowRight" x="0" y="0" onmousedown="handlePan(1,0)"/>
  <use id="arrowdown" xlink:href="#arrowDown" x="0" y="0" onmousedown="handlePan(0,1)"/>
  <use id="arrowleft" xlink:href="#arrowLeft" x="0" y="0" onmousedown="handlePan(-1,0)"/>
</g>
<svg viewBox="0 0 15 15" width="100%" height="30px" preserveAspectRatio="xMaxYMin meet">
 <g id="arrow_out" transform="scale(0.3 0.3)">
  <a xlink:href="classTempSensor__coll__graph_org.svg" target="_base">
   <rect id="button" ry="5" rx="5" y="6" x="6" height="38" width="38"
        fill="#f2f5e9" fill-opacity="0.5" stroke="#606060" stroke-width="1.0"/>
   <path id="arrow"
     d="M 11.500037,31.436501 C 11.940474,20.09759 22.043105,11.32322 32.158766,21.979434 L 37.068811,17.246167 C 37.068811,17.246167 37.088388,32 37.088388,32 L 22.160133,31.978069 C 22.160133,31.978069 26.997745,27.140456 26.997745,27.140456 C 18.528582,18.264221 13.291696,25.230495 11.500037,31.436501 z"
     style="fill:#404040;"/>
  </a>
 </g>
</svg>

<style type='text/css'>
<![CDATA[
[data-mouse-over-selected='false'] { opacity: 0.7; }
[data-mouse-over-selected='true']  { opacity: 1.0; }
]]>
</style>
<script type="application/ecmascript"><![CDATA[
document.addEventListener('DOMContentLoaded', (event) => {
  highlightEdges();
  highlightAdjacentNodes();
});
]]></script>
</svg>
