<?xml version="1.0" encoding="UTF-8" standalone="no"?>
<!DOCTYPE svg PUBLIC "-//W3C//DTD SVG 1.1//EN"
 "http://www.w3.org/Graphics/SVG/1.1/DTD/svg11.dtd">
<!-- Generated by graphviz version 2.43.0 (0)
 -->
<!-- Title: SDStorage Pages: 1 -->
<svg width="380pt" height="546pt"
 viewBox="0.00 0.00 379.50 546.00" xmlns="http://www.w3.org/2000/svg" xmlns:xlink="http://www.w3.org/1999/xlink">
<g id="graph0" class="graph" transform="scale(1 1) rotate(0) translate(4 542)">
<title>SDStorage</title>
<!-- Node1 -->
<g id="node1" class="node">
<title>Node1</title>
<g id="a_node1"><a xlink:title="Implementation of a Storage device to interface with an SD card.">
<polygon fill="#bfbfbf" stroke="black" points="60.5,-0.5 60.5,-90.5 152.5,-90.5 152.5,-0.5 60.5,-0.5"/>
<text text-anchor="middle" x="106.5" y="-78.5" font-family="Helvetica,sans-Serif" font-size="10.00">SDStorage</text>
<polyline fill="none" stroke="black" points="60.5,-71.5 152.5,-71.5 "/>
<text text-anchor="middle" x="106.5" y="-59.5" font-family="Helvetica,sans-Serif" font-size="10.00"> </text>
<polyline fill="none" stroke="black" points="60.5,-52.5 152.5,-52.5 "/>
<text text-anchor="start" x="68.5" y="-40.5" font-family="Helvetica,sans-Serif" font-size="10.00">+ SDStorage()</text>
<text text-anchor="start" x="68.5" y="-29.5" font-family="Helvetica,sans-Serif" font-size="10.00">+ verify()</text>
<text text-anchor="start" x="68.5" y="-18.5" font-family="Helvetica,sans-Serif" font-size="10.00">+ store()</text>
<text text-anchor="start" x="68.5" y="-7.5" font-family="Helvetica,sans-Serif" font-size="10.00">+ storePacket()</text>
</a>
</g>
</g>
<!-- Node2 -->
<g id="node2" class="node">
<title>Node2</title>
<g id="a_node2"><a xlink:href="classStorage.html" target="_top" xlink:title="Parent class for all data storage devices (sd card, radio, etc)">
<polygon fill="none" stroke="black" points="60.5,-138.5 60.5,-228.5 152.5,-228.5 152.5,-138.5 60.5,-138.5"/>
<text text-anchor="middle" x="106.5" y="-216.5" font-family="Helvetica,sans-Serif" font-size="10.00">Storage</text>
<polyline fill="none" stroke="black" points="60.5,-209.5 152.5,-209.5 "/>
<text text-anchor="middle" x="106.5" y="-197.5" font-family="Helvetica,sans-Serif" font-size="10.00"> </text>
<polyline fill="none" stroke="black" points="60.5,-190.5 152.5,-190.5 "/>
<text text-anchor="start" x="68.5" y="-178.5" font-family="Helvetica,sans-Serif" font-size="10.00">+ Storage()</text>
<text text-anchor="start" x="68.5" y="-167.5" font-family="Helvetica,sans-Serif" font-size="10.00">+ verify()</text>
<text text-anchor="start" x="68.5" y="-156.5" font-family="Helvetica,sans-Serif" font-size="10.00">+ store()</text>
<text text-anchor="start" x="68.5" y="-145.5" font-family="Helvetica,sans-Serif" font-size="10.00">+ storePacket()</text>
</a>
</g>
</g>
<!-- Node2&#45;&gt;Node1 -->
<g id="edge1" class="edge">
<title>Node2&#45;&gt;Node1</title>
<path fill="none" stroke="midnightblue" d="M106.5,-128.15C106.5,-115.78 106.5,-102.79 106.5,-90.9"/>
<polygon fill="none" stroke="midnightblue" points="103,-128.34 106.5,-138.34 110,-128.34 103,-128.34"/>
</g>
<!-- Node3 -->
<g id="node3" class="node">
<title>Node3</title>
<g id="a_node3"><a xlink:href="classDevice.html" target="_top" xlink:title="Implements the recovery system for Sensor and Storage objects.">
<polygon fill="none" stroke="black" points="70,-276.5 70,-421.5 199,-421.5 199,-276.5 70,-276.5"/>
<text text-anchor="middle" x="134.5" y="-409.5" font-family="Helvetica,sans-Serif" font-size="10.00">Device</text>
<polyline fill="none" stroke="black" points="70,-402.5 199,-402.5 "/>
<text text-anchor="middle" x="134.5" y="-390.5" font-family="Helvetica,sans-Serif" font-size="10.00"> </text>
<polyline fill="none" stroke="black" points="70,-383.5 199,-383.5 "/>
<text text-anchor="start" x="78" y="-371.5" font-family="Helvetica,sans-Serif" font-size="10.00">+ Device()</text>
<text text-anchor="start" x="78" y="-360.5" font-family="Helvetica,sans-Serif" font-size="10.00">+ Device()</text>
<text text-anchor="start" x="78" y="-349.5" font-family="Helvetica,sans-Serif" font-size="10.00">+ getDeviceName()</text>
<text text-anchor="start" x="78" y="-338.5" font-family="Helvetica,sans-Serif" font-size="10.00">+ verify()</text>
<text text-anchor="start" x="78" y="-327.5" font-family="Helvetica,sans-Serif" font-size="10.00">+ getVerified()</text>
<text text-anchor="start" x="78" y="-316.5" font-family="Helvetica,sans-Serif" font-size="10.00">+ recoveryConfig()</text>
<text text-anchor="start" x="78" y="-305.5" font-family="Helvetica,sans-Serif" font-size="10.00">+ setWaitFactor()</text>
<text text-anchor="start" x="78" y="-294.5" font-family="Helvetica,sans-Serif" font-size="10.00">+ setMaxAttempts()</text>
<text text-anchor="start" x="78" y="-283.5" font-family="Helvetica,sans-Serif" font-size="10.00">+ attemptConnection()</text>
</a>
</g>
</g>
<!-- Node3&#45;&gt;Node2 -->
<g id="edge2" class="edge">
<title>Node3&#45;&gt;Node2</title>
<path fill="none" stroke="midnightblue" d="M120.53,-266.41C118.31,-253.47 116.09,-240.52 114.1,-228.87"/>
<polygon fill="none" stroke="midnightblue" points="117.08,-267.02 122.22,-276.29 123.98,-265.84 117.08,-267.02"/>
</g>
<!-- Node4 -->
<g id="node4" class="node">
<title>Node4</title>
<g id="a_node4"><a xlink:title=" ">
<polygon fill="none" stroke="#bfbfbf" points="0,-480.5 0,-537.5 45,-537.5 45,-480.5 0,-480.5"/>
<text text-anchor="middle" x="22.5" y="-525.5" font-family="Helvetica,sans-Serif" font-size="10.00">String</text>
<polyline fill="none" stroke="#bfbfbf" points="0,-518.5 45,-518.5 "/>
<text text-anchor="middle" x="22.5" y="-506.5" font-family="Helvetica,sans-Serif" font-size="10.00"> </text>
<polyline fill="none" stroke="#bfbfbf" points="0,-499.5 45,-499.5 "/>
<text text-anchor="middle" x="22.5" y="-487.5" font-family="Helvetica,sans-Serif" font-size="10.00"> </text>
</a>
</g>
</g>
<!-- Node4&#45;&gt;Node1 -->
<g id="edge7" class="edge">
<title>Node4&#45;&gt;Node1</title>
<path fill="none" stroke="#404040" d="M20.42,-480.25C16.62,-417.53 12.22,-260.73 51.5,-138 55.52,-125.43 61.56,-112.78 68.19,-101.05"/>
<polygon fill="none" stroke="#404040" points="68.27,-100.9 67.89,-93.7 74.39,-90.58 74.77,-97.78 68.27,-100.9"/>
<text text-anchor="middle" x="56.5" y="-250" font-family="Helvetica,sans-Serif" font-size="10.00"> &#45;file_name</text>
</g>
<!-- Node4&#45;&gt;Node3 -->
<g id="edge3" class="edge">
<title>Node4&#45;&gt;Node3</title>
<path fill="none" stroke="#404040" d="M34.91,-480.37C41.06,-467.68 48.99,-452.67 57.5,-440 59.43,-437.12 61.45,-434.23 63.52,-431.34"/>
<polygon fill="none" stroke="#404040" points="63.64,-431.19 64,-423.98 70.79,-421.55 70.42,-428.75 63.64,-431.19"/>
<text text-anchor="middle" x="94" y="-448.5" font-family="Helvetica,sans-Serif" font-size="10.00"> &#45;device_name</text>
</g>
<!-- Node5 -->
<g id="node5" class="node">
<title>Node5</title>
<g id="a_node5"><a xlink:title=" ">
<polygon fill="none" stroke="#bfbfbf" points="92,-480.5 92,-537.5 177,-537.5 177,-480.5 92,-480.5"/>
<text text-anchor="middle" x="134.5" y="-525.5" font-family="Helvetica,sans-Serif" font-size="10.00">unsigned long</text>
<polyline fill="none" stroke="#bfbfbf" points="92,-518.5 177,-518.5 "/>
<text text-anchor="middle" x="134.5" y="-506.5" font-family="Helvetica,sans-Serif" font-size="10.00"> </text>
<polyline fill="none" stroke="#bfbfbf" points="92,-499.5 177,-499.5 "/>
<text text-anchor="middle" x="134.5" y="-487.5" font-family="Helvetica,sans-Serif" font-size="10.00"> </text>
</a>
</g>
</g>
<!-- Node5&#45;&gt;Node3 -->
<g id="edge4" class="edge">
<title>Node5&#45;&gt;Node3</title>
<path fill="none" stroke="#404040" d="M134.5,-480.48C134.5,-467.32 134.5,-450.78 134.5,-433.94"/>
<polygon fill="none" stroke="#404040" points="134.5,-433.67 130.5,-427.67 134.5,-421.67 138.5,-427.67 134.5,-433.67"/>
<text text-anchor="middle" x="169.5" y="-454" font-family="Helvetica,sans-Serif" font-size="10.00"> &#45;last_attempt</text>
<text text-anchor="middle" x="169.5" y="-443" font-family="Helvetica,sans-Serif" font-size="10.00">&#45;wait_factor</text>
</g>
<!-- Node6 -->
<g id="node6" class="node">
<title>Node6</title>
<g id="a_node6"><a xlink:title=" ">
<polygon fill="none" stroke="#bfbfbf" points="213,-480.5 213,-537.5 242,-537.5 242,-480.5 213,-480.5"/>
<text text-anchor="middle" x="227.5" y="-525.5" font-family="Helvetica,sans-Serif" font-size="10.00">int</text>
<polyline fill="none" stroke="#bfbfbf" points="213,-518.5 242,-518.5 "/>
<text text-anchor="middle" x="227.5" y="-506.5" font-family="Helvetica,sans-Serif" font-size="10.00"> </text>
<polyline fill="none" stroke="#bfbfbf" points="213,-499.5 242,-499.5 "/>
<text text-anchor="middle" x="227.5" y="-487.5" font-family="Helvetica,sans-Serif" font-size="10.00"> </text>
</a>
</g>
</g>
<!-- Node6&#45;&gt;Node3 -->
<g id="edge5" class="edge">
<title>Node6&#45;&gt;Node3</title>
<path fill="none" stroke="#404040" d="M220.95,-480.29C217.34,-467.59 212.22,-452.59 205.5,-440 204.06,-437.31 202.55,-434.62 200.96,-431.94"/>
<polygon fill="none" stroke="#404040" points="200.9,-431.85 194.33,-428.88 194.55,-421.68 201.12,-424.64 200.9,-431.85"/>
<text text-anchor="middle" x="259" y="-454" font-family="Helvetica,sans-Serif" font-size="10.00"> &#45;attempt_number</text>
<text text-anchor="middle" x="259" y="-443" font-family="Helvetica,sans-Serif" font-size="10.00">&#45;max_attempts</text>
</g>
<!-- Node7 -->
<g id="node7" class="node">
<title>Node7</title>
<g id="a_node7"><a xlink:title=" ">
<polygon fill="none" stroke="#bfbfbf" points="320.5,-480.5 320.5,-537.5 358.5,-537.5 358.5,-480.5 320.5,-480.5"/>
<text text-anchor="middle" x="339.5" y="-525.5" font-family="Helvetica,sans-Serif" font-size="10.00">bool</text>
<polyline fill="none" stroke="#bfbfbf" points="320.5,-518.5 358.5,-518.5 "/>
<text text-anchor="middle" x="339.5" y="-506.5" font-family="Helvetica,sans-Serif" font-size="10.00"> </text>
<polyline fill="none" stroke="#bfbfbf" points="320.5,-499.5 358.5,-499.5 "/>
<text text-anchor="middle" x="339.5" y="-487.5" font-family="Helvetica,sans-Serif" font-size="10.00"> </text>
</a>
</g>
</g>
<!-- Node7&#45;&gt;Node3 -->
<g id="edge6" class="edge">
<title>Node7&#45;&gt;Node3</title>
<path fill="none" stroke="#404040" d="M331.19,-480.38C326.06,-466.94 318.35,-451.29 307.5,-440 280.73,-412.15 243.46,-391.24 210.36,-376.63"/>
<polygon fill="none" stroke="#404040" points="210.36,-376.62 203.27,-377.95 199.32,-371.91 206.41,-370.59 210.36,-376.62"/>
<text text-anchor="middle" x="347" y="-448.5" font-family="Helvetica,sans-Serif" font-size="10.00"> #verified</text>
</g>
<!-- Node8 -->
<g id="node8" class="node">
<title>Node8</title>
<g id="a_node8"><a xlink:title=" ">
<polygon fill="none" stroke="#bfbfbf" points="171,-155 171,-212 266,-212 266,-155 171,-155"/>
<text text-anchor="middle" x="218.5" y="-200" font-family="Helvetica,sans-Serif" font-size="10.00">SPIClassRP2040</text>
<polyline fill="none" stroke="#bfbfbf" points="171,-193 266,-193 "/>
<text text-anchor="middle" x="218.5" y="-181" font-family="Helvetica,sans-Serif" font-size="10.00"> </text>
<polyline fill="none" stroke="#bfbfbf" points="171,-174 266,-174 "/>
<text text-anchor="middle" x="218.5" y="-162" font-family="Helvetica,sans-Serif" font-size="10.00"> </text>
</a>
</g>
</g>
<!-- Node8&#45;&gt;Node1 -->
<g id="edge8" class="edge">
<title>Node8&#45;&gt;Node1</title>
<path fill="none" stroke="#404040" d="M195.84,-154.98C182.82,-139.18 166.03,-118.79 150.52,-99.96"/>
<polygon fill="none" stroke="#404040" points="150.43,-99.84 143.53,-97.75 142.8,-90.58 149.7,-92.67 150.43,-99.84"/>
<text text-anchor="middle" x="190" y="-112" font-family="Helvetica,sans-Serif" font-size="10.00"> &#45;sd_spi_1</text>
</g>
</g>
</svg>
