<?xml version="1.0" encoding="UTF-8" standalone="no"?>
<!DOCTYPE svg PUBLIC "-//W3C//DTD SVG 1.1//EN"
 "http://www.w3.org/Graphics/SVG/1.1/DTD/svg11.dtd">
<!-- Generated by graphviz version 2.43.0 (0)
 -->
<!-- Title: Device Pages: 1 -->
<svg width="361pt" height="270pt"
 viewBox="0.00 0.00 360.50 270.00" xmlns="http://www.w3.org/2000/svg" xmlns:xlink="http://www.w3.org/1999/xlink">
<g id="graph0" class="graph" transform="scale(1 1) rotate(0) translate(4 266)">
<title>Device</title>
<!-- Node1 -->
<g id="node1" class="node">
<title>Node1</title>
<g id="a_node1"><a xlink:title="Implements the recovery system for Sensor and Storage objects.">
<polygon fill="#bfbfbf" stroke="black" points="100,-0.5 100,-145.5 229,-145.5 229,-0.5 100,-0.5"/>
<text text-anchor="middle" x="164.5" y="-133.5" font-family="Helvetica,sans-Serif" font-size="10.00">Device</text>
<polyline fill="none" stroke="black" points="100,-126.5 229,-126.5 "/>
<text text-anchor="middle" x="164.5" y="-114.5" font-family="Helvetica,sans-Serif" font-size="10.00"> </text>
<polyline fill="none" stroke="black" points="100,-107.5 229,-107.5 "/>
<text text-anchor="start" x="108" y="-95.5" font-family="Helvetica,sans-Serif" font-size="10.00">+ Device()</text>
<text text-anchor="start" x="108" y="-84.5" font-family="Helvetica,sans-Serif" font-size="10.00">+ Device()</text>
<text text-anchor="start" x="108" y="-73.5" font-family="Helvetica,sans-Serif" font-size="10.00">+ getDeviceName()</text>
<text text-anchor="start" x="108" y="-62.5" font-family="Helvetica,sans-Serif" font-size="10.00">+ verify()</text>
<text text-anchor="start" x="108" y="-51.5" font-family="Helvetica,sans-Serif" font-size="10.00">+ getVerified()</text>
<text text-anchor="start" x="108" y="-40.5" font-family="Helvetica,sans-Serif" font-size="10.00">+ recoveryConfig()</text>
<text text-anchor="start" x="108" y="-29.5" font-family="Helvetica,sans-Serif" font-size="10.00">+ setWaitFactor()</text>
<text text-anchor="start" x="108" y="-18.5" font-family="Helvetica,sans-Serif" font-size="10.00">+ setMaxAttempts()</text>
<text text-anchor="start" x="108" y="-7.5" font-family="Helvetica,sans-Serif" font-size="10.00">+ attemptConnection()</text>
</a>
</g>
</g>
<!-- Node2 -->
<g id="node2" class="node">
<title>Node2</title>
<g id="a_node2"><a xlink:title=" ">
<polygon fill="none" stroke="#bfbfbf" points="0,-204.5 0,-261.5 45,-261.5 45,-204.5 0,-204.5"/>
<text text-anchor="middle" x="22.5" y="-249.5" font-family="Helvetica,sans-Serif" font-size="10.00">String</text>
<polyline fill="none" stroke="#bfbfbf" points="0,-242.5 45,-242.5 "/>
<text text-anchor="middle" x="22.5" y="-230.5" font-family="Helvetica,sans-Serif" font-size="10.00"> </text>
<polyline fill="none" stroke="#bfbfbf" points="0,-223.5 45,-223.5 "/>
<text text-anchor="middle" x="22.5" y="-211.5" font-family="Helvetica,sans-Serif" font-size="10.00"> </text>
</a>
</g>
</g>
<!-- Node2&#45;&gt;Node1 -->
<g id="edge1" class="edge">
<title>Node2&#45;&gt;Node1</title>
<path fill="none" stroke="#404040" d="M24.97,-204.38C27.2,-191.26 31.44,-175.88 39.5,-164 52.48,-144.86 70.95,-128.39 89.72,-114.96"/>
<polygon fill="none" stroke="#404040" points="89.94,-114.8 92.63,-108.11 99.84,-108.01 97.15,-114.71 89.94,-114.8"/>
<text text-anchor="middle" x="76" y="-172.5" font-family="Helvetica,sans-Serif" font-size="10.00"> &#45;device_name</text>
</g>
<!-- Node3 -->
<g id="node3" class="node">
<title>Node3</title>
<g id="a_node3"><a xlink:title=" ">
<polygon fill="none" stroke="#bfbfbf" points="76,-204.5 76,-261.5 161,-261.5 161,-204.5 76,-204.5"/>
<text text-anchor="middle" x="118.5" y="-249.5" font-family="Helvetica,sans-Serif" font-size="10.00">unsigned long</text>
<polyline fill="none" stroke="#bfbfbf" points="76,-242.5 161,-242.5 "/>
<text text-anchor="middle" x="118.5" y="-230.5" font-family="Helvetica,sans-Serif" font-size="10.00"> </text>
<polyline fill="none" stroke="#bfbfbf" points="76,-223.5 161,-223.5 "/>
<text text-anchor="middle" x="118.5" y="-211.5" font-family="Helvetica,sans-Serif" font-size="10.00"> </text>
</a>
</g>
</g>
<!-- Node3&#45;&gt;Node1 -->
<g id="edge2" class="edge">
<title>Node3&#45;&gt;Node1</title>
<path fill="none" stroke="#404040" d="M116.13,-204.18C115.77,-191.73 116.34,-176.96 119.5,-164 120.06,-161.71 120.68,-159.41 121.37,-157.11"/>
<polygon fill="none" stroke="#404040" points="121.4,-157 119.52,-150.04 125.22,-145.62 127.1,-152.59 121.4,-157"/>
<text text-anchor="middle" x="154.5" y="-178" font-family="Helvetica,sans-Serif" font-size="10.00"> &#45;last_attempt</text>
<text text-anchor="middle" x="154.5" y="-167" font-family="Helvetica,sans-Serif" font-size="10.00">&#45;wait_factor</text>
</g>
<!-- Node4 -->
<g id="node4" class="node">
<title>Node4</title>
<g id="a_node4"><a xlink:title=" ">
<polygon fill="none" stroke="#bfbfbf" points="197,-204.5 197,-261.5 226,-261.5 226,-204.5 197,-204.5"/>
<text text-anchor="middle" x="211.5" y="-249.5" font-family="Helvetica,sans-Serif" font-size="10.00">int</text>
<polyline fill="none" stroke="#bfbfbf" points="197,-242.5 226,-242.5 "/>
<text text-anchor="middle" x="211.5" y="-230.5" font-family="Helvetica,sans-Serif" font-size="10.00"> </text>
<polyline fill="none" stroke="#bfbfbf" points="197,-223.5 226,-223.5 "/>
<text text-anchor="middle" x="211.5" y="-211.5" font-family="Helvetica,sans-Serif" font-size="10.00"> </text>
</a>
</g>
</g>
<!-- Node4&#45;&gt;Node1 -->
<g id="edge3" class="edge">
<title>Node4&#45;&gt;Node1</title>
<path fill="none" stroke="#404040" d="M203.31,-204.48C199.36,-191.19 194.38,-174.46 189.32,-157.45"/>
<polygon fill="none" stroke="#404040" points="189.24,-157.17 183.7,-152.56 185.82,-145.67 191.36,-150.28 189.24,-157.17"/>
<text text-anchor="middle" x="242" y="-178" font-family="Helvetica,sans-Serif" font-size="10.00"> &#45;attempt_number</text>
<text text-anchor="middle" x="242" y="-167" font-family="Helvetica,sans-Serif" font-size="10.00">&#45;max_attempts</text>
</g>
<!-- Node5 -->
<g id="node5" class="node">
<title>Node5</title>
<g id="a_node5"><a xlink:title=" ">
<polygon fill="none" stroke="#bfbfbf" points="304.5,-204.5 304.5,-261.5 342.5,-261.5 342.5,-204.5 304.5,-204.5"/>
<text text-anchor="middle" x="323.5" y="-249.5" font-family="Helvetica,sans-Serif" font-size="10.00">bool</text>
<polyline fill="none" stroke="#bfbfbf" points="304.5,-242.5 342.5,-242.5 "/>
<text text-anchor="middle" x="323.5" y="-230.5" font-family="Helvetica,sans-Serif" font-size="10.00"> </text>
<polyline fill="none" stroke="#bfbfbf" points="304.5,-223.5 342.5,-223.5 "/>
<text text-anchor="middle" x="323.5" y="-211.5" font-family="Helvetica,sans-Serif" font-size="10.00"> </text>
</a>
</g>
</g>
<!-- Node5&#45;&gt;Node1 -->
<g id="edge4" class="edge">
<title>Node5&#45;&gt;Node1</title>
<path fill="none" stroke="#404040" d="M313.78,-204.34C308.28,-191.2 300.49,-175.83 290.5,-164 275.95,-146.76 257.4,-131.16 239.03,-117.96"/>
<polygon fill="none" stroke="#404040" points="239.01,-117.95 231.8,-117.8 229.17,-111.09 236.38,-111.24 239.01,-117.95"/>
<text text-anchor="middle" x="328" y="-172.5" font-family="Helvetica,sans-Serif" font-size="10.00"> #verified</text>
</g>
</g>
</svg>
