<?xml version="1.0" encoding="UTF-8" standalone="no"?>
<!DOCTYPE svg PUBLIC "-//W3C//DTD SVG 1.1//EN"
 "http://www.w3.org/Graphics/SVG/1.1/DTD/svg11.dtd">
<!-- Generated by graphviz version 2.43.0 (0)
 -->
<!-- Title: Sensor::readEmpty Pages: 1 -->
<svg width="504pt" height="138pt"
 viewBox="0.00 0.00 504.00 138.00" xmlns="http://www.w3.org/2000/svg" xmlns:xlink="http://www.w3.org/1999/xlink">
<g id="graph0" class="graph" transform="scale(1 1) rotate(0) translate(4 134)">
<title>Sensor::readEmpty</title>
<!-- Node1 -->
<g id="Node000001" class="node">
<title>Node1</title>
<g id="a_Node000001"><a xlink:title="Returns CSV line in the same format as readData() but with &quot;&#45;&quot; instead of data.">
<polygon fill="#999999" stroke="#666666" points="496,-74 387,-74 387,-55 496,-55 496,-74"/>
<text text-anchor="middle" x="441.5" y="-62" font-family="Helvetica,sans-Serif" font-size="10.00">Sensor::readEmpty</text>
</a>
</g>
</g>
<!-- Node2 -->
<g id="Node000002" class="node">
<title>Node2</title>
<g id="a_Node000002"><a xlink:href="main_8cpp.html#a9163644b089001958496a71b73b9091a" target="_top" xlink:title="Decodes the packet to a CSV row.">
<polygon fill="white" stroke="#666666" points="163,-130 80,-130 80,-111 163,-111 163,-130"/>
<text text-anchor="middle" x="121.5" y="-118" font-family="Helvetica,sans-Serif" font-size="10.00">decodePacket</text>
</a>
</g>
</g>
<!-- Node1&#45;&gt;Node2 -->
<g id="edge1_Node000001_Node000002" class="edge">
<title>Node1&#45;&gt;Node2</title>
<g id="a_edge1_Node000001_Node000002"><a xlink:title=" ">
<path fill="none" stroke="#63b8ff" d="M412.73,-78.6C395.43,-86.72 372.45,-96.31 351,-101.5 286.58,-117.09 209.3,-120.44 163.14,-120.87"/>
<polygon fill="#63b8ff" stroke="#63b8ff" points="414.72,-81.53 422.21,-74.03 411.68,-75.22 414.72,-81.53"/>
</a>
</g>
</g>
<!-- Node4 -->
<g id="Node000004" class="node">
<title>Node4</title>
<g id="a_Node000004"><a xlink:href="classSensor.html#a2d5ecda6a046ddba40d0e37921226d2f" target="_top" xlink:title="Uses readData and readEmpty to get the data&#45;filled or empty&#45;celled CSV line for the sensor.">
<polygon fill="white" stroke="#666666" points="335,-93 221,-93 221,-74 335,-74 335,-93"/>
<text text-anchor="middle" x="278" y="-81" font-family="Helvetica,sans-Serif" font-size="10.00">Sensor::getDataCSV</text>
</a>
</g>
</g>
<!-- Node1&#45;&gt;Node4 -->
<g id="edge3_Node000001_Node000004" class="edge">
<title>Node1&#45;&gt;Node4</title>
<g id="a_edge3_Node000001_Node000004"><a xlink:title=" ">
<path fill="none" stroke="#63b8ff" d="M376.42,-72.04C362.73,-73.65 348.38,-75.34 335.03,-76.91"/>
<polygon fill="#63b8ff" stroke="#63b8ff" points="377.2,-75.47 386.72,-70.83 376.38,-68.52 377.2,-75.47"/>
</a>
</g>
</g>
<!-- Node6 -->
<g id="Node000006" class="node">
<title>Node6</title>
<g id="a_Node000006"><a xlink:href="classENS160Sensor.html#aac8ea849d26c4a6a567924805d378990" target="_top" xlink:title="Reads Air Quality Index, TVOC (ppb), and ECOS (ppm)">
<polygon fill="white" stroke="#666666" points="347,-56 209,-56 209,-37 347,-37 347,-56"/>
<text text-anchor="middle" x="278" y="-44" font-family="Helvetica,sans-Serif" font-size="10.00">ENS160Sensor::readData</text>
</a>
</g>
</g>
<!-- Node1&#45;&gt;Node6 -->
<g id="edge6_Node000001_Node000006" class="edge">
<title>Node1&#45;&gt;Node6</title>
<g id="a_edge6_Node000001_Node000006"><a xlink:title=" ">
<path fill="none" stroke="#63b8ff" d="M376.75,-57.4C367.05,-56.31 356.99,-55.19 347.19,-54.1"/>
<polygon fill="#63b8ff" stroke="#63b8ff" points="376.4,-60.88 386.72,-58.51 377.17,-53.92 376.4,-60.88"/>
</a>
</g>
</g>
<!-- Node7 -->
<g id="Node000007" class="node">
<title>Node7</title>
<g id="a_Node000007"><a xlink:href="classMTK3339Sensor.html#a632c895115930d476540fed7d6537635" target="_top" xlink:title="Reads and returns data from the MTK3339 GPS corresponding to the CSV header.">
<polygon fill="white" stroke="#666666" points="351,-19 205,-19 205,0 351,0 351,-19"/>
<text text-anchor="middle" x="278" y="-7" font-family="Helvetica,sans-Serif" font-size="10.00">MTK3339Sensor::readData</text>
</a>
</g>
</g>
<!-- Node1&#45;&gt;Node7 -->
<g id="edge7_Node000001_Node000007" class="edge">
<title>Node1&#45;&gt;Node7</title>
<g id="a_edge7_Node000001_Node000007"><a xlink:title=" ">
<path fill="none" stroke="#63b8ff" d="M410.36,-50.74C393.19,-43.23 371.16,-34.15 351,-27.5 341.58,-24.39 331.31,-21.53 321.56,-19.04"/>
<polygon fill="#63b8ff" stroke="#63b8ff" points="409.29,-54.09 419.85,-54.94 412.13,-47.69 409.29,-54.09"/>
</a>
</g>
</g>
<!-- Node3 -->
<g id="Node000003" class="node">
<title>Node3</title>
<g id="a_Node000003"><a xlink:href="main_8cpp.html#afe461d27b9c48d5921c00d521181f12f" target="_top" xlink:title="Loop for core 0, handling sensor reads.">
<polygon fill="white" stroke="#666666" points="38,-111 0,-111 0,-92 38,-92 38,-111"/>
<text text-anchor="middle" x="19" y="-99" font-family="Helvetica,sans-Serif" font-size="10.00">loop</text>
</a>
</g>
</g>
<!-- Node2&#45;&gt;Node3 -->
<g id="edge2_Node000002_Node000003" class="edge">
<title>Node2&#45;&gt;Node3</title>
<g id="a_edge2_Node000002_Node000003"><a xlink:title=" ">
<path fill="none" stroke="#63b8ff" d="M69.95,-110.94C58.55,-108.79 47.18,-106.64 38.17,-104.93"/>
<polygon fill="#63b8ff" stroke="#63b8ff" points="69.44,-114.41 79.91,-112.83 70.74,-107.53 69.44,-114.41"/>
</a>
</g>
</g>
<!-- Node5 -->
<g id="Node000005" class="node">
<title>Node5</title>
<g id="a_Node000005"><a xlink:href="main_8cpp.html#a9db5e6113d9a0bd03a1b044059ae787b" target="_top" xlink:title="Read data from each verified Sensor.">
<polygon fill="white" stroke="#666666" points="169,-93 74,-93 74,-74 169,-74 169,-93"/>
<text text-anchor="middle" x="121.5" y="-81" font-family="Helvetica,sans-Serif" font-size="10.00">readSensorData</text>
</a>
</g>
</g>
<!-- Node4&#45;&gt;Node5 -->
<g id="edge4_Node000004_Node000005" class="edge">
<title>Node4&#45;&gt;Node5</title>
<g id="a_edge4_Node000004_Node000005"><a xlink:title=" ">
<path fill="none" stroke="#63b8ff" d="M210.74,-83.5C196.78,-83.5 182.34,-83.5 169.28,-83.5"/>
<polygon fill="#63b8ff" stroke="#63b8ff" points="210.78,-87 220.78,-83.5 210.78,-80 210.78,-87"/>
</a>
</g>
</g>
<!-- Node5&#45;&gt;Node3 -->
<g id="edge5_Node000005_Node000003" class="edge">
<title>Node5&#45;&gt;Node3</title>
<g id="a_edge5_Node000005_Node000003"><a xlink:title=" ">
<path fill="none" stroke="#63b8ff" d="M63.65,-93.68C54.36,-95.35 45.39,-96.95 38.01,-98.27"/>
<polygon fill="#63b8ff" stroke="#63b8ff" points="64.55,-97.08 73.78,-91.87 63.32,-90.19 64.55,-97.08"/>
</a>
</g>
</g>
</g>
</svg>
