<?xml version="1.0" encoding="UTF-8" standalone="no"?>
<!DOCTYPE svg PUBLIC "-//W3C//DTD SVG 1.1//EN"
 "http://www.w3.org/Graphics/SVG/1.1/DTD/svg11.dtd">
<!-- Generated by graphviz version 2.43.0 (0)
 -->
<!-- Title: Sensor Pages: 1 -->
<!--zoomable 530 -->
<svg id="main" version="1.1" xmlns="http://www.w3.org/2000/svg" xmlns:xlink="http://www.w3.org/1999/xlink" xml:space="preserve" onload="init(evt)">
<style type="text/css"><![CDATA[
.edge:hover path { stroke: red; }
.edge:hover polygon { stroke: red; fill: red; }
]]></style>
<script type="text/javascript"><![CDATA[
var edges = document.getElementsByTagName('g');
if (edges && edges.length) {
  for (var i=0;i<edges.length;i++) {
    if (edges[i].id.substr(0,4)=='edge') {
      edges[i].setAttribute('class','edge');
    }
  }
}
]]></script>
        <defs>
                <circle id="rim" cx="0" cy="0" r="7"/>
                <circle id="rim2" cx="0" cy="0" r="3.5"/>
                <g id="zoomPlus">
                        <use xlink:href="#rim" fill="#404040">
                                <set attributeName="fill" to="#808080" begin="zoomplus.mouseover" end="zoomplus.mouseout"/>
                        </use>
                        <path d="M-4,0h8M0,-4v8" fill="none" stroke="white" stroke-width="1.5" pointer-events="none"/>
                </g>
                <g id="zoomMin">
                        <use xlink:href="#rim" fill="#404040">
                                <set attributeName="fill" to="#808080" begin="zoomminus.mouseover" end="zoomminus.mouseout"/>
                        </use>
                        <path d="M-4,0h8" fill="none" stroke="white" stroke-width="1.5" pointer-events="none"/>
                </g>
                <g id="dirArrow">
                        <path fill="none" stroke="white" stroke-width="1.5" d="M0,-3.0v7 M-2.5,-0.5L0,-3.0L2.5,-0.5"/>
                </g>
               <g id="resetDef">
                       <use xlink:href="#rim2" fill="#404040">
                               <set attributeName="fill" to="#808080" begin="reset.mouseover" end="reset.mouseout"/>
                       </use>
               </g>
        </defs>

<script type="text/javascript">
var viewWidth = 589;
var viewHeight = 530;
var sectionId = 'dynsection-1';
</script>
<script xlink:href="svgpan.js"/>
<svg id="graph" class="graph">
<g id="viewport">
<title>Sensor</title>
<!-- Node1 -->
<g id="node1" class="node">
<title>Node1</title>
<g id="a_node1"><a xlink:title="Parent class for sensor objects.">
<polygon fill="#bfbfbf" stroke="black" points="284,-0.5 284,-222.5 423,-222.5 423,-0.5 284,-0.5"/>
<text text-anchor="middle" x="353.5" y="-210.5" font-family="Helvetica,sans-Serif" font-size="10.00">Sensor</text>
<polyline fill="none" stroke="black" points="284,-203.5 423,-203.5 "/>
<text text-anchor="middle" x="353.5" y="-191.5" font-family="Helvetica,sans-Serif" font-size="10.00"> </text>
<polyline fill="none" stroke="black" points="284,-184.5 423,-184.5 "/>
<text text-anchor="start" x="292" y="-172.5" font-family="Helvetica,sans-Serif" font-size="10.00">+ Sensor()</text>
<text text-anchor="start" x="292" y="-161.5" font-family="Helvetica,sans-Serif" font-size="10.00">+ Sensor()</text>
<text text-anchor="start" x="292" y="-150.5" font-family="Helvetica,sans-Serif" font-size="10.00">+ Sensor()</text>
<text text-anchor="start" x="292" y="-139.5" font-family="Helvetica,sans-Serif" font-size="10.00">+ Sensor()</text>
<text text-anchor="start" x="292" y="-128.5" font-family="Helvetica,sans-Serif" font-size="10.00">+ getPeriod()</text>
<text text-anchor="start" x="292" y="-117.5" font-family="Helvetica,sans-Serif" font-size="10.00">+ setPeriod()</text>
<text text-anchor="start" x="292" y="-106.5" font-family="Helvetica,sans-Serif" font-size="10.00">+ getLastExecution()</text>
<text text-anchor="start" x="292" y="-95.5" font-family="Helvetica,sans-Serif" font-size="10.00">+ setLastExecution()</text>
<text text-anchor="start" x="292" y="-84.5" font-family="Helvetica,sans-Serif" font-size="10.00">+ getSensorCSVHeader()</text>
<text text-anchor="start" x="292" y="-73.5" font-family="Helvetica,sans-Serif" font-size="10.00">+ verify()</text>
<text text-anchor="start" x="292" y="-62.5" font-family="Helvetica,sans-Serif" font-size="10.00">+ readData()</text>
<text text-anchor="start" x="292" y="-51.5" font-family="Helvetica,sans-Serif" font-size="10.00">+ readDataPacket()</text>
<text text-anchor="start" x="292" y="-40.5" font-family="Helvetica,sans-Serif" font-size="10.00">+ decodeToCSV()</text>
<text text-anchor="start" x="292" y="-29.5" font-family="Helvetica,sans-Serif" font-size="10.00">+ getDataPacket()</text>
<text text-anchor="start" x="292" y="-18.5" font-family="Helvetica,sans-Serif" font-size="10.00">+ readEmpty()</text>
<text text-anchor="start" x="292" y="-7.5" font-family="Helvetica,sans-Serif" font-size="10.00">+ getDataCSV()</text>
</a>
</g>
</g>
<!-- Node2 -->
<g id="node2" class="node">
<title>Node2</title>
<g id="a_node2"><a xlink:href="classDevice.html" target="_top" xlink:title="Implements the recovery system for Sensor and Storage objects.">
<polygon fill="none" stroke="black" points="142,-260.5 142,-405.5 271,-405.5 271,-260.5 142,-260.5"/>
<text text-anchor="middle" x="206.5" y="-393.5" font-family="Helvetica,sans-Serif" font-size="10.00">Device</text>
<polyline fill="none" stroke="black" points="142,-386.5 271,-386.5 "/>
<text text-anchor="middle" x="206.5" y="-374.5" font-family="Helvetica,sans-Serif" font-size="10.00"> </text>
<polyline fill="none" stroke="black" points="142,-367.5 271,-367.5 "/>
<text text-anchor="start" x="150" y="-355.5" font-family="Helvetica,sans-Serif" font-size="10.00">+ Device()</text>
<text text-anchor="start" x="150" y="-344.5" font-family="Helvetica,sans-Serif" font-size="10.00">+ Device()</text>
<text text-anchor="start" x="150" y="-333.5" font-family="Helvetica,sans-Serif" font-size="10.00">+ getDeviceName()</text>
<text text-anchor="start" x="150" y="-322.5" font-family="Helvetica,sans-Serif" font-size="10.00">+ verify()</text>
<text text-anchor="start" x="150" y="-311.5" font-family="Helvetica,sans-Serif" font-size="10.00">+ getVerified()</text>
<text text-anchor="start" x="150" y="-300.5" font-family="Helvetica,sans-Serif" font-size="10.00">+ recoveryConfig()</text>
<text text-anchor="start" x="150" y="-289.5" font-family="Helvetica,sans-Serif" font-size="10.00">+ setWaitFactor()</text>
<text text-anchor="start" x="150" y="-278.5" font-family="Helvetica,sans-Serif" font-size="10.00">+ setMaxAttempts()</text>
<text text-anchor="start" x="150" y="-267.5" font-family="Helvetica,sans-Serif" font-size="10.00">+ attemptConnection()</text>
</a>
</g>
</g>
<!-- Node2&#45;&gt;Node1 -->
<g id="edge1" class="edge">
<title>Node2&#45;&gt;Node1</title>
<path fill="none" stroke="midnightblue" d="M260,-252.12C267.72,-240.58 275.77,-228.56 283.76,-216.64"/>
<polygon fill="none" stroke="midnightblue" points="257.09,-250.17 254.43,-260.43 262.9,-254.07 257.09,-250.17"/>
</g>
<!-- Node3 -->
<g id="node3" class="node">
<title>Node3</title>
<g id="a_node3"><a xlink:title=" ">
<polygon fill="none" stroke="#bfbfbf" points="0,-464.5 0,-521.5 45,-521.5 45,-464.5 0,-464.5"/>
<text text-anchor="middle" x="22.5" y="-509.5" font-family="Helvetica,sans-Serif" font-size="10.00">String</text>
<polyline fill="none" stroke="#bfbfbf" points="0,-502.5 45,-502.5 "/>
<text text-anchor="middle" x="22.5" y="-490.5" font-family="Helvetica,sans-Serif" font-size="10.00"> </text>
<polyline fill="none" stroke="#bfbfbf" points="0,-483.5 45,-483.5 "/>
<text text-anchor="middle" x="22.5" y="-471.5" font-family="Helvetica,sans-Serif" font-size="10.00"> </text>
</a>
</g>
</g>
<!-- Node3&#45;&gt;Node1 -->
<g id="edge6" class="edge">
<title>Node3&#45;&gt;Node1</title>
<path fill="none" stroke="#404040" d="M21.12,-464.26C20.23,-417.35 24.81,-321.47 71.5,-260 121.05,-194.76 207.8,-155.61 272.04,-134.22"/>
<polygon fill="none" stroke="#404040" points="272.34,-134.12 276.82,-128.47 283.76,-130.43 279.28,-136.08 272.34,-134.12"/>
<text text-anchor="middle" x="102" y="-336" font-family="Helvetica,sans-Serif" font-size="10.00"> &#45;empty_csv</text>
<text text-anchor="middle" x="102" y="-325" font-family="Helvetica,sans-Serif" font-size="10.00">&#45;csv_header</text>
</g>
<!-- Node3&#45;&gt;Node2 -->
<g id="edge2" class="edge">
<title>Node3&#45;&gt;Node2</title>
<path fill="none" stroke="#404040" d="M31.21,-464.29C36.4,-450.99 44.05,-435.49 54.5,-424 75.63,-400.77 104.17,-381.72 130.82,-367.23"/>
<polygon fill="none" stroke="#404040" points="131.08,-367.09 134.53,-360.76 141.7,-361.5 138.25,-367.84 131.08,-367.09"/>
<text text-anchor="middle" x="91" y="-432.5" font-family="Helvetica,sans-Serif" font-size="10.00"> &#45;device_name</text>
</g>
<!-- Node4 -->
<g id="node4" class="node">
<title>Node4</title>
<g id="a_node4"><a xlink:title=" ">
<polygon fill="none" stroke="#bfbfbf" points="269,-464.5 269,-521.5 354,-521.5 354,-464.5 269,-464.5"/>
<text text-anchor="middle" x="311.5" y="-509.5" font-family="Helvetica,sans-Serif" font-size="10.00">unsigned long</text>
<polyline fill="none" stroke="#bfbfbf" points="269,-502.5 354,-502.5 "/>
<text text-anchor="middle" x="311.5" y="-490.5" font-family="Helvetica,sans-Serif" font-size="10.00"> </text>
<polyline fill="none" stroke="#bfbfbf" points="269,-483.5 354,-483.5 "/>
<text text-anchor="middle" x="311.5" y="-471.5" font-family="Helvetica,sans-Serif" font-size="10.00"> </text>
</a>
</g>
</g>
<!-- Node4&#45;&gt;Node1 -->
<g id="edge7" class="edge">
<title>Node4&#45;&gt;Node1</title>
<path fill="none" stroke="#404040" d="M354.06,-471.74C369.93,-463.23 385.17,-453.58 389.5,-446 409.66,-410.71 397.13,-314.75 381.57,-234.78"/>
<polygon fill="none" stroke="#404040" points="381.49,-234.37 376.4,-229.26 379.15,-222.6 384.24,-227.71 381.49,-234.37"/>
<text text-anchor="middle" x="443.5" y="-336" font-family="Helvetica,sans-Serif" font-size="10.00"> &#45;last_execution</text>
<text text-anchor="middle" x="443.5" y="-325" font-family="Helvetica,sans-Serif" font-size="10.00">&#45;minimum_period</text>
</g>
<!-- Node4&#45;&gt;Node2 -->
<g id="edge3" class="edge">
<title>Node4&#45;&gt;Node2</title>
<path fill="none" stroke="#404040" d="M268.85,-484.54C246.57,-478.25 221.17,-466.79 207.5,-446 201.89,-437.48 198.55,-427.74 196.76,-417.65"/>
<polygon fill="none" stroke="#404040" points="196.76,-417.61 192.08,-412.12 195.35,-405.69 200.02,-411.18 196.76,-417.61"/>
<text text-anchor="middle" x="242.5" y="-438" font-family="Helvetica,sans-Serif" font-size="10.00"> &#45;last_attempt</text>
<text text-anchor="middle" x="242.5" y="-427" font-family="Helvetica,sans-Serif" font-size="10.00">&#45;wait_factor</text>
</g>
<!-- Node5 -->
<g id="node5" class="node">
<title>Node5</title>
<g id="a_node5"><a xlink:title=" ">
<polygon fill="none" stroke="#bfbfbf" points="377,-464.5 377,-521.5 406,-521.5 406,-464.5 377,-464.5"/>
<text text-anchor="middle" x="391.5" y="-509.5" font-family="Helvetica,sans-Serif" font-size="10.00">int</text>
<polyline fill="none" stroke="#bfbfbf" points="377,-502.5 406,-502.5 "/>
<text text-anchor="middle" x="391.5" y="-490.5" font-family="Helvetica,sans-Serif" font-size="10.00"> </text>
<polyline fill="none" stroke="#bfbfbf" points="377,-483.5 406,-483.5 "/>
<text text-anchor="middle" x="391.5" y="-471.5" font-family="Helvetica,sans-Serif" font-size="10.00"> </text>
</a>
</g>
</g>
<!-- Node5&#45;&gt;Node1 -->
<g id="edge8" class="edge">
<title>Node5&#45;&gt;Node1</title>
<path fill="none" stroke="#404040" d="M406.03,-485.26C429.95,-473.26 476.84,-445.64 495.5,-406 523.13,-347.29 519.76,-320.18 495.5,-260 482.13,-226.82 457.32,-196.94 432.14,-172.88"/>
<polygon fill="none" stroke="#404040" points="432.04,-172.78 424.92,-171.63 423.24,-164.62 430.36,-165.77 432.04,-172.78"/>
<text text-anchor="middle" x="547.5" y="-330.5" font-family="Helvetica,sans-Serif" font-size="10.00"> #num_fields</text>
</g>
<!-- Node5&#45;&gt;Node2 -->
<g id="edge4" class="edge">
<title>Node5&#45;&gt;Node2</title>
<path fill="none" stroke="#404040" d="M376.93,-476.91C372.68,-472.65 367.97,-468.07 363.5,-464 337.16,-440.02 307.27,-414.81 280.69,-393.03"/>
<polygon fill="none" stroke="#404040" points="280.35,-392.76 273.18,-392.07 271.06,-385.17 278.23,-385.87 280.35,-392.76"/>
<text text-anchor="middle" x="387" y="-438" font-family="Helvetica,sans-Serif" font-size="10.00"> &#45;attempt_number</text>
<text text-anchor="middle" x="387" y="-427" font-family="Helvetica,sans-Serif" font-size="10.00">&#45;max_attempts</text>
</g>
<!-- Node6 -->
<g id="node6" class="node">
<title>Node6</title>
<g id="a_node6"><a xlink:title=" ">
<polygon fill="none" stroke="#bfbfbf" points="115.5,-464.5 115.5,-521.5 153.5,-521.5 153.5,-464.5 115.5,-464.5"/>
<text text-anchor="middle" x="134.5" y="-509.5" font-family="Helvetica,sans-Serif" font-size="10.00">bool</text>
<polyline fill="none" stroke="#bfbfbf" points="115.5,-502.5 153.5,-502.5 "/>
<text text-anchor="middle" x="134.5" y="-490.5" font-family="Helvetica,sans-Serif" font-size="10.00"> </text>
<polyline fill="none" stroke="#bfbfbf" points="115.5,-483.5 153.5,-483.5 "/>
<text text-anchor="middle" x="134.5" y="-471.5" font-family="Helvetica,sans-Serif" font-size="10.00"> </text>
</a>
</g>
</g>
<!-- Node6&#45;&gt;Node2 -->
<g id="edge5" class="edge">
<title>Node6&#45;&gt;Node2</title>
<path fill="none" stroke="#404040" d="M130.94,-464.48C130.29,-451.82 130.96,-436.79 135.5,-424 136.41,-421.45 137.42,-418.91 138.52,-416.4"/>
<polygon fill="none" stroke="#404040" points="138.57,-416.3 137.64,-409.15 143.89,-405.54 144.81,-412.69 138.57,-416.3"/>
<text text-anchor="middle" x="160" y="-432.5" font-family="Helvetica,sans-Serif" font-size="10.00"> #verified</text>
</g>
</g>
</svg>
        <g id="navigator" transform="translate(0 0)" fill="#404254">
                <rect fill="#f2f5e9" fill-opacity="0.5" stroke="#606060" stroke-width=".5" x="0" y="0" width="60" height="60"/>
                <use id="zoomplus" xlink:href="#zoomPlus" x="17" y="9" onmousedown="handleZoom(evt,'in')"/>
                <use id="zoomminus" xlink:href="#zoomMin" x="42" y="9" onmousedown="handleZoom(evt,'out')"/>
                <use id="reset" xlink:href="#resetDef" x="30" y="36" onmousedown="handleReset()"/>
                <g id="arrowUp" xlink:href="#dirArrow" transform="translate(30 24)" onmousedown="handlePan(0,-1)">
                  <use xlink:href="#rim" fill="#404040">
                        <set attributeName="fill" to="#808080" begin="arrowUp.mouseover" end="arrowUp.mouseout"/>
                  </use>
                  <path fill="none" stroke="white" stroke-width="1.5" d="M0,-3.0v7 M-2.5,-0.5L0,-3.0L2.5,-0.5"/>
                </g>
                <g id="arrowRight" xlink:href="#dirArrow" transform="rotate(90) translate(36 -43)" onmousedown="handlePan(1,0)">
                  <use xlink:href="#rim" fill="#404040">
                        <set attributeName="fill" to="#808080" begin="arrowRight.mouseover" end="arrowRight.mouseout"/>
                  </use>
                  <path fill="none" stroke="white" stroke-width="1.5" d="M0,-3.0v7 M-2.5,-0.5L0,-3.0L2.5,-0.5"/>
                </g>
                <g id="arrowDown" xlink:href="#dirArrow" transform="rotate(180) translate(-30 -48)" onmousedown="handlePan(0,1)">
                  <use xlink:href="#rim" fill="#404040">
                        <set attributeName="fill" to="#808080" begin="arrowDown.mouseover" end="arrowDown.mouseout"/>
                  </use>
                  <path fill="none" stroke="white" stroke-width="1.5" d="M0,-3.0v7 M-2.5,-0.5L0,-3.0L2.5,-0.5"/>
                </g>
                <g id="arrowLeft" xlink:href="#dirArrow" transform="rotate(270) translate(-36 17)" onmousedown="handlePan(-1,0)">
                  <use xlink:href="#rim" fill="#404040">
                        <set attributeName="fill" to="#808080" begin="arrowLeft.mouseover" end="arrowLeft.mouseout"/>
                  </use>
                  <path fill="none" stroke="white" stroke-width="1.5" d="M0,-3.0v7 M-2.5,-0.5L0,-3.0L2.5,-0.5"/>
                </g>
        </g>
        <svg viewBox="0 0 15 15" width="100%" height="30px" preserveAspectRatio="xMaxYMin meet">
         <g id="arrow_out" transform="scale(0.3 0.3)">
          <a xlink:href="classSensor__coll__graph_org.svg" target="_base">
           <rect id="button" ry="5" rx="5" y="6" x="6" height="38" width="38"
                fill="#f2f5e9" fill-opacity="0.5" stroke="#606060" stroke-width="1.0"/>
           <path id="arrow"
             d="M 11.500037,31.436501 C 11.940474,20.09759 22.043105,11.32322 32.158766,21.979434 L 37.068811,17.246167 C 37.068811,17.246167 37.088388,32 37.088388,32 L 22.160133,31.978069 C 22.160133,31.978069 26.997745,27.140456 26.997745,27.140456 C 18.528582,18.264221 13.291696,25.230495 11.500037,31.436501 z"
             style="fill:#404040;"/>
          </a>
         </g>
        </svg>
</svg>
