<?xml version="1.0" encoding="UTF-8" standalone="no"?>
<!DOCTYPE svg PUBLIC "-//W3C//DTD SVG 1.1//EN"
 "http://www.w3.org/Graphics/SVG/1.1/DTD/svg11.dtd">
<!-- Generated by graphviz version 2.43.0 (0)
 -->
<!-- Title: Sensor Pages: 1 -->
<!--zoomable 502 -->

<svg id="main" version="1.1" xmlns="http://www.w3.org/2000/svg" xmlns:xlink="http://www.w3.org/1999/xlink" xml:space="preserve" onload="init(evt)">
<style type="text/css"><![CDATA[
.node, .edge {opacity: 0.7;}
.node.selected, .edge.selected {opacity: 1;}
.edge:hover path { stroke: red; }
.edge:hover polygon { stroke: red; fill: red; }
]]></style>

<defs>
  <circle id="rim" cx="0" cy="0" r="7"/>
  <circle id="rim2" cx="0" cy="0" r="3.5"/>
  <g id="zoomPlus">
    <use xlink:href="#rim" fill="#404040"><set attributeName="fill" to="#808080" begin="zoomplus.mouseover" end="zoomplus.mouseout"/></use>
    <path d="M-4,0h8M0,-4v8" fill="none" stroke="white" stroke-width="1.5" pointer-events="none"/>
  </g>
  <g id="zoomMin">
    <use xlink:href="#rim" fill="#404040"><set attributeName="fill" to="#808080" begin="zoomminus.mouseover" end="zoomminus.mouseout"/></use>
    <path d="M-4,0h8" fill="none" stroke="white" stroke-width="1.5" pointer-events="none"/>
  </g>
  <g id="arrowUp" transform="translate(30 24)">
    <use xlink:href="#rim"/>
    <path pointer-events="none" fill="none" stroke="white" stroke-width="1.5" d="M0,-3.0v7 M-2.5,-0.5L0,-3.0L2.5,-0.5"/>
  </g>
  <g id="arrowRight" transform="rotate(90) translate(36 -43)">
    <use xlink:href="#rim"/>
    <path pointer-events="none" fill="none" stroke="white" stroke-width="1.5" d="M0,-3.0v7 M-2.5,-0.5L0,-3.0L2.5,-0.5"/>
  </g>
  <g id="arrowDown" transform="rotate(180) translate(-30 -48)">
    <use xlink:href="#rim"/>
    <path pointer-events="none" fill="none" stroke="white" stroke-width="1.5" d="M0,-3.0v7 M-2.5,-0.5L0,-3.0L2.5,-0.5"/>
  </g>
  <g id="arrowLeft" transform="rotate(270) translate(-36 17)">
    <use xlink:href="#rim"/>
    <path pointer-events="none" fill="none" stroke="white" stroke-width="1.5" d="M0,-3.0v7 M-2.5,-0.5L0,-3.0L2.5,-0.5"/>
  </g>
  <g id="resetDef">
    <use xlink:href="#rim2" fill="#404040"><set attributeName="fill" to="#808080" begin="reset.mouseover" end="reset.mouseout"/></use>
  </g>
</defs>
<script type="application/ecmascript">
var viewWidth = 1467;
var viewHeight = 502;
var sectionId = 'dynsection-0';
</script>
<script type="application/ecmascript" xlink:href="svg.min.js"/>
<svg id="graph" class="graph">
<g id="viewport">
<title>Sensor</title>
<!-- Node1 -->
<g id="Node000001" class="node">
<title>Node1</title>
<g id="a_Node000001"><a xlink:title="Parent class for sensor objects.">
<polygon fill="#999999" stroke="transparent" points="803.5,-494 670.5,-494 670.5,-235 803.5,-235 803.5,-494"/>
<text text-anchor="start" x="720.5" y="-481.5" font-family="Helvetica,sans-Serif" font-size="10.00">Sensor</text>
<text text-anchor="start" x="677.5" y="-466.5" font-family="Helvetica,sans-Serif" font-size="10.00">&#45;</text>
<text text-anchor="start" x="688" y="-466.5" font-family="Helvetica,sans-Serif" font-size="10.00">minimum_period</text>
<text text-anchor="start" x="677.5" y="-451.5" font-family="Helvetica,sans-Serif" font-size="10.00">&#45;</text>
<text text-anchor="start" x="688" y="-451.5" font-family="Helvetica,sans-Serif" font-size="10.00">last_execution</text>
<text text-anchor="start" x="677.5" y="-436.5" font-family="Helvetica,sans-Serif" font-size="10.00">&#45;</text>
<text text-anchor="start" x="688" y="-436.5" font-family="Helvetica,sans-Serif" font-size="10.00">sensor_name</text>
<text text-anchor="start" x="677.5" y="-421.5" font-family="Helvetica,sans-Serif" font-size="10.00">&#45;</text>
<text text-anchor="start" x="688" y="-421.5" font-family="Helvetica,sans-Serif" font-size="10.00">csv_header</text>
<text text-anchor="start" x="677.5" y="-406.5" font-family="Helvetica,sans-Serif" font-size="10.00">&#45;</text>
<text text-anchor="start" x="688" y="-406.5" font-family="Helvetica,sans-Serif" font-size="10.00">empty_csv</text>
<text text-anchor="start" x="675" y="-391.5" font-family="Helvetica,sans-Serif" font-size="10.00">+</text>
<text text-anchor="start" x="688" y="-391.5" font-family="Helvetica,sans-Serif" font-size="10.00">Sensor()</text>
<text text-anchor="start" x="675" y="-376.5" font-family="Helvetica,sans-Serif" font-size="10.00">+</text>
<text text-anchor="start" x="688" y="-376.5" font-family="Helvetica,sans-Serif" font-size="10.00">Sensor()</text>
<text text-anchor="start" x="675" y="-361.5" font-family="Helvetica,sans-Serif" font-size="10.00">+</text>
<text text-anchor="start" x="688" y="-361.5" font-family="Helvetica,sans-Serif" font-size="10.00">Sensor()</text>
<text text-anchor="start" x="675" y="-346.5" font-family="Helvetica,sans-Serif" font-size="10.00">+</text>
<text text-anchor="start" x="688" y="-346.5" font-family="Helvetica,sans-Serif" font-size="10.00">Sensor()</text>
<text text-anchor="start" x="675" y="-331.5" font-family="Helvetica,sans-Serif" font-size="10.00">+</text>
<text text-anchor="start" x="688" y="-331.5" font-family="Helvetica,sans-Serif" font-size="10.00">getPeriod()</text>
<text text-anchor="start" x="675" y="-316.5" font-family="Helvetica,sans-Serif" font-size="10.00">+</text>
<text text-anchor="start" x="688" y="-316.5" font-family="Helvetica,sans-Serif" font-size="10.00">setPeriod()</text>
<text text-anchor="start" x="675" y="-301.5" font-family="Helvetica,sans-Serif" font-size="10.00">+</text>
<text text-anchor="start" x="688" y="-301.5" font-family="Helvetica,sans-Serif" font-size="10.00">getLastExecution()</text>
<text text-anchor="start" x="675" y="-286.5" font-family="Helvetica,sans-Serif" font-size="10.00">+</text>
<text text-anchor="start" x="688" y="-286.5" font-family="Helvetica,sans-Serif" font-size="10.00">setLastExecution()</text>
<text text-anchor="start" x="675" y="-271.5" font-family="Helvetica,sans-Serif" font-size="10.00">+</text>
<text text-anchor="start" x="688" y="-271.5" font-family="Helvetica,sans-Serif" font-size="10.00">getSensorName()</text>
<text text-anchor="start" x="675" y="-256.5" font-family="Helvetica,sans-Serif" font-size="10.00">+</text>
<text text-anchor="start" x="688" y="-256.5" font-family="Helvetica,sans-Serif" font-size="10.00">getSensorCSVHeader()</text>
<text text-anchor="start" x="688" y="-241.5" font-family="Helvetica,sans-Serif" font-size="10.00">and 7 more...</text>
<polygon fill="#666666" stroke="#666666" points="671,-476.5 671,-476.5 804,-476.5 804,-476.5 671,-476.5"/>
<polygon fill="#666666" stroke="#666666" points="671,-401.5 671,-401.5 686,-401.5 686,-401.5 671,-401.5"/>
<polygon fill="#666666" stroke="#666666" points="686,-401.5 686,-401.5 804,-401.5 804,-401.5 686,-401.5"/>
<polygon fill="none" stroke="#666666" points="670.5,-235 670.5,-494 803.5,-494 803.5,-235 670.5,-235"/>
</a>
</g>
</g>
<!-- Node2 -->
<g id="Node000002" class="node">
<title>Node2</title>
<g id="a_Node000002"><a xlink:href="classAS7331Sensor.html" target="_top" xlink:title="Implementation of a Sensor for UVA/B/C sensor.">
<polygon fill="white" stroke="transparent" points="106,-169 0,-169 0,-30 106,-30 106,-169"/>
<text text-anchor="start" x="18" y="-156.5" font-family="Helvetica,sans-Serif" font-size="10.00">AS7331Sensor</text>
<text text-anchor="start" x="6.5" y="-141.5" font-family="Helvetica,sans-Serif" font-size="10.00">&#45;</text>
<text text-anchor="start" x="17" y="-141.5" font-family="Helvetica,sans-Serif" font-size="10.00">myUVSensor</text>
<text text-anchor="start" x="6.5" y="-126.5" font-family="Helvetica,sans-Serif" font-size="10.00">&#45;</text>
<text text-anchor="start" x="17" y="-126.5" font-family="Helvetica,sans-Serif" font-size="10.00">i2c_addr</text>
<text text-anchor="start" x="4" y="-111.5" font-family="Helvetica,sans-Serif" font-size="10.00">+</text>
<text text-anchor="start" x="17" y="-111.5" font-family="Helvetica,sans-Serif" font-size="10.00">AS7331Sensor()</text>
<text text-anchor="start" x="4" y="-96.5" font-family="Helvetica,sans-Serif" font-size="10.00">+</text>
<text text-anchor="start" x="17" y="-96.5" font-family="Helvetica,sans-Serif" font-size="10.00">AS7331Sensor()</text>
<text text-anchor="start" x="4" y="-81.5" font-family="Helvetica,sans-Serif" font-size="10.00">+</text>
<text text-anchor="start" x="17" y="-81.5" font-family="Helvetica,sans-Serif" font-size="10.00">verify()</text>
<text text-anchor="start" x="4" y="-66.5" font-family="Helvetica,sans-Serif" font-size="10.00">+</text>
<text text-anchor="start" x="17" y="-66.5" font-family="Helvetica,sans-Serif" font-size="10.00">readDataPacket()</text>
<text text-anchor="start" x="4" y="-51.5" font-family="Helvetica,sans-Serif" font-size="10.00">+</text>
<text text-anchor="start" x="17" y="-51.5" font-family="Helvetica,sans-Serif" font-size="10.00">decodeToCSV()</text>
<text text-anchor="start" x="4" y="-36.5" font-family="Helvetica,sans-Serif" font-size="10.00">+</text>
<text text-anchor="start" x="17" y="-36.5" font-family="Helvetica,sans-Serif" font-size="10.00">readData()</text>
<polygon fill="#666666" stroke="#666666" points="0,-151.5 0,-151.5 106,-151.5 106,-151.5 0,-151.5"/>
<polygon fill="#666666" stroke="#666666" points="0,-121.5 0,-121.5 15,-121.5 15,-121.5 0,-121.5"/>
<polygon fill="#666666" stroke="#666666" points="15,-121.5 15,-121.5 106,-121.5 106,-121.5 15,-121.5"/>
<polygon fill="none" stroke="#666666" points="0,-30 0,-169 106,-169 106,-30 0,-30"/>
</a>
</g>
</g>
<!-- Node1&#45;&gt;Node2 -->
<g id="edge1_Node000001_Node000002" class="edge">
<title>Node1&#45;&gt;Node2</title>
<g id="a_edge1_Node000001_Node000002"><a xlink:title=" ">
<path fill="none" stroke="#63b8ff" d="M660.02,-360.9C534.3,-353.05 282.21,-321.89 115,-199 104.09,-190.98 94.65,-180.42 86.64,-169.18"/>
<polygon fill="none" stroke="#63b8ff" points="660.12,-364.41 670.31,-361.51 660.54,-357.42 660.12,-364.41"/>
</a>
</g>
</g>
<!-- Node3 -->
<g id="Node000003" class="node">
<title>Node3</title>
<g id="a_Node000003"><a xlink:href="classBME280Sensor.html" target="_top" xlink:title="Implementation of a Sensor for the BME280.">
<polygon fill="white" stroke="transparent" points="230,-161.5 124,-161.5 124,-37.5 230,-37.5 230,-161.5"/>
<text text-anchor="start" x="140.5" y="-149.5" font-family="Helvetica,sans-Serif" font-size="10.00">BME280Sensor</text>
<text text-anchor="start" x="130.5" y="-134.5" font-family="Helvetica,sans-Serif" font-size="10.00">&#45;</text>
<text text-anchor="start" x="141" y="-134.5" font-family="Helvetica,sans-Serif" font-size="10.00">bme</text>
<text text-anchor="start" x="128" y="-119.5" font-family="Helvetica,sans-Serif" font-size="10.00">+</text>
<text text-anchor="start" x="141" y="-119.5" font-family="Helvetica,sans-Serif" font-size="10.00">BME280Sensor()</text>
<text text-anchor="start" x="128" y="-104.5" font-family="Helvetica,sans-Serif" font-size="10.00">+</text>
<text text-anchor="start" x="141" y="-104.5" font-family="Helvetica,sans-Serif" font-size="10.00">BME280Sensor()</text>
<text text-anchor="start" x="128" y="-89.5" font-family="Helvetica,sans-Serif" font-size="10.00">+</text>
<text text-anchor="start" x="141" y="-89.5" font-family="Helvetica,sans-Serif" font-size="10.00">verify()</text>
<text text-anchor="start" x="128" y="-74.5" font-family="Helvetica,sans-Serif" font-size="10.00">+</text>
<text text-anchor="start" x="141" y="-74.5" font-family="Helvetica,sans-Serif" font-size="10.00">readData()</text>
<text text-anchor="start" x="128" y="-59.5" font-family="Helvetica,sans-Serif" font-size="10.00">+</text>
<text text-anchor="start" x="141" y="-59.5" font-family="Helvetica,sans-Serif" font-size="10.00">readDataPacket()</text>
<text text-anchor="start" x="128" y="-44.5" font-family="Helvetica,sans-Serif" font-size="10.00">+</text>
<text text-anchor="start" x="141" y="-44.5" font-family="Helvetica,sans-Serif" font-size="10.00">decodeToCSV()</text>
<polygon fill="#666666" stroke="#666666" points="124,-144.5 124,-144.5 230,-144.5 230,-144.5 124,-144.5"/>
<polygon fill="#666666" stroke="#666666" points="124,-129.5 124,-129.5 139,-129.5 139,-129.5 124,-129.5"/>
<polygon fill="#666666" stroke="#666666" points="139,-129.5 139,-129.5 230,-129.5 230,-129.5 139,-129.5"/>
<polygon fill="none" stroke="#666666" points="124,-37.5 124,-161.5 230,-161.5 230,-37.5 124,-37.5"/>
</a>
</g>
</g>
<!-- Node1&#45;&gt;Node3 -->
<g id="edge2_Node000001_Node000003" class="edge">
<title>Node1&#45;&gt;Node3</title>
<g id="a_edge2_Node000001_Node000003"><a xlink:title=" ">
<path fill="none" stroke="#63b8ff" d="M660.01,-354.51C555.1,-338.88 365.82,-298.25 239,-199 226.11,-188.91 215.17,-175.35 206.24,-161.52"/>
<polygon fill="none" stroke="#63b8ff" points="659.8,-358.02 670.2,-355.99 660.81,-351.09 659.8,-358.02"/>
</a>
</g>
</g>
<!-- Node4 -->
<g id="Node000004" class="node">
<title>Node4</title>
<g id="a_Node000004"><a xlink:href="classBME680Sensor.html" target="_top" xlink:title="A class to interface with the Adafruit BME680 sensor for environmental data collection.">
<polygon fill="white" stroke="transparent" points="354,-161.5 248,-161.5 248,-37.5 354,-37.5 354,-161.5"/>
<text text-anchor="start" x="264.5" y="-149.5" font-family="Helvetica,sans-Serif" font-size="10.00">BME680Sensor</text>
<text text-anchor="start" x="254.5" y="-134.5" font-family="Helvetica,sans-Serif" font-size="10.00">&#45;</text>
<text text-anchor="start" x="265" y="-134.5" font-family="Helvetica,sans-Serif" font-size="10.00">bme</text>
<text text-anchor="start" x="252" y="-119.5" font-family="Helvetica,sans-Serif" font-size="10.00">+</text>
<text text-anchor="start" x="265" y="-119.5" font-family="Helvetica,sans-Serif" font-size="10.00">BME680Sensor()</text>
<text text-anchor="start" x="252" y="-104.5" font-family="Helvetica,sans-Serif" font-size="10.00">+</text>
<text text-anchor="start" x="265" y="-104.5" font-family="Helvetica,sans-Serif" font-size="10.00">BME680Sensor()</text>
<text text-anchor="start" x="252" y="-89.5" font-family="Helvetica,sans-Serif" font-size="10.00">+</text>
<text text-anchor="start" x="265" y="-89.5" font-family="Helvetica,sans-Serif" font-size="10.00">verify()</text>
<text text-anchor="start" x="252" y="-74.5" font-family="Helvetica,sans-Serif" font-size="10.00">+</text>
<text text-anchor="start" x="265" y="-74.5" font-family="Helvetica,sans-Serif" font-size="10.00">readData()</text>
<text text-anchor="start" x="252" y="-59.5" font-family="Helvetica,sans-Serif" font-size="10.00">+</text>
<text text-anchor="start" x="265" y="-59.5" font-family="Helvetica,sans-Serif" font-size="10.00">readDataPacket()</text>
<text text-anchor="start" x="252" y="-44.5" font-family="Helvetica,sans-Serif" font-size="10.00">+</text>
<text text-anchor="start" x="265" y="-44.5" font-family="Helvetica,sans-Serif" font-size="10.00">decodeToCSV()</text>
<polygon fill="#666666" stroke="#666666" points="248,-144.5 248,-144.5 354,-144.5 354,-144.5 248,-144.5"/>
<polygon fill="#666666" stroke="#666666" points="248,-129.5 248,-129.5 263,-129.5 263,-129.5 248,-129.5"/>
<polygon fill="#666666" stroke="#666666" points="263,-129.5 263,-129.5 354,-129.5 354,-129.5 263,-129.5"/>
<polygon fill="none" stroke="#666666" points="248,-37.5 248,-161.5 354,-161.5 354,-37.5 248,-37.5"/>
</a>
</g>
</g>
<!-- Node1&#45;&gt;Node4 -->
<g id="edge3_Node000001_Node000004" class="edge">
<title>Node1&#45;&gt;Node4</title>
<g id="a_edge3_Node000001_Node000004"><a xlink:title=" ">
<path fill="none" stroke="#63b8ff" d="M660.7,-344.4C579.56,-321.03 451.01,-274.9 363,-199 350.91,-188.57 340.38,-175.2 331.6,-161.7"/>
<polygon fill="none" stroke="#63b8ff" points="659.78,-347.78 670.36,-347.14 661.69,-341.05 659.78,-347.78"/>
</a>
</g>
</g>
<!-- Node5 -->
<g id="Node000005" class="node">
<title>Node5</title>
<g id="a_Node000005"><a xlink:href="classDS3231Sensor.html" target="_top" xlink:title="Implementation of a Sensor for the DS3231 Real Time Clock.">
<polygon fill="white" stroke="transparent" points="478,-169 372,-169 372,-30 478,-30 478,-169"/>
<text text-anchor="start" x="389.5" y="-156.5" font-family="Helvetica,sans-Serif" font-size="10.00">DS3231Sensor</text>
<text text-anchor="start" x="378.5" y="-141.5" font-family="Helvetica,sans-Serif" font-size="10.00">&#45;</text>
<text text-anchor="start" x="389" y="-141.5" font-family="Helvetica,sans-Serif" font-size="10.00">rtc</text>
<text text-anchor="start" x="376" y="-126.5" font-family="Helvetica,sans-Serif" font-size="10.00">+</text>
<text text-anchor="start" x="389" y="-126.5" font-family="Helvetica,sans-Serif" font-size="10.00">DS3231Sensor()</text>
<text text-anchor="start" x="376" y="-111.5" font-family="Helvetica,sans-Serif" font-size="10.00">+</text>
<text text-anchor="start" x="389" y="-111.5" font-family="Helvetica,sans-Serif" font-size="10.00">DS3231Sensor()</text>
<text text-anchor="start" x="376" y="-96.5" font-family="Helvetica,sans-Serif" font-size="10.00">+</text>
<text text-anchor="start" x="389" y="-96.5" font-family="Helvetica,sans-Serif" font-size="10.00">verify()</text>
<text text-anchor="start" x="376" y="-81.5" font-family="Helvetica,sans-Serif" font-size="10.00">+</text>
<text text-anchor="start" x="389" y="-81.5" font-family="Helvetica,sans-Serif" font-size="10.00">readData()</text>
<text text-anchor="start" x="376" y="-66.5" font-family="Helvetica,sans-Serif" font-size="10.00">+</text>
<text text-anchor="start" x="389" y="-66.5" font-family="Helvetica,sans-Serif" font-size="10.00">readDataPacket()</text>
<text text-anchor="start" x="376" y="-51.5" font-family="Helvetica,sans-Serif" font-size="10.00">+</text>
<text text-anchor="start" x="389" y="-51.5" font-family="Helvetica,sans-Serif" font-size="10.00">decodeToCSV()</text>
<text text-anchor="start" x="376" y="-36.5" font-family="Helvetica,sans-Serif" font-size="10.00">+</text>
<text text-anchor="start" x="389" y="-36.5" font-family="Helvetica,sans-Serif" font-size="10.00">setTime()</text>
<polygon fill="#666666" stroke="#666666" points="372,-151.5 372,-151.5 478,-151.5 478,-151.5 372,-151.5"/>
<polygon fill="#666666" stroke="#666666" points="372,-136.5 372,-136.5 387,-136.5 387,-136.5 372,-136.5"/>
<polygon fill="#666666" stroke="#666666" points="387,-136.5 387,-136.5 478,-136.5 478,-136.5 387,-136.5"/>
<polygon fill="none" stroke="#666666" points="372,-30 372,-169 478,-169 478,-30 372,-30"/>
</a>
</g>
</g>
<!-- Node1&#45;&gt;Node5 -->
<g id="edge4_Node000001_Node000005" class="edge">
<title>Node1&#45;&gt;Node5</title>
<g id="a_edge4_Node000001_Node000005"><a xlink:title=" ">
<path fill="none" stroke="#63b8ff" d="M661.32,-325.02C608.29,-295.52 538.05,-251.09 487,-199 478.23,-190.05 470.07,-179.66 462.74,-169.05"/>
<polygon fill="none" stroke="#63b8ff" points="659.89,-328.23 670.34,-329.99 663.27,-322.1 659.89,-328.23"/>
</a>
</g>
</g>
<!-- Node6 -->
<g id="Node000006" class="node">
<title>Node6</title>
<g id="a_Node000006"><a xlink:href="classENS160Sensor.html" target="_top" xlink:title="Implementation of a Sensor for the ENS160.">
<polygon fill="white" stroke="transparent" points="602,-161.5 496,-161.5 496,-37.5 602,-37.5 602,-161.5"/>
<text text-anchor="start" x="513.5" y="-149.5" font-family="Helvetica,sans-Serif" font-size="10.00">ENS160Sensor</text>
<text text-anchor="start" x="502.5" y="-134.5" font-family="Helvetica,sans-Serif" font-size="10.00">&#45;</text>
<text text-anchor="start" x="513" y="-134.5" font-family="Helvetica,sans-Serif" font-size="10.00">ens</text>
<text text-anchor="start" x="500" y="-119.5" font-family="Helvetica,sans-Serif" font-size="10.00">+</text>
<text text-anchor="start" x="513" y="-119.5" font-family="Helvetica,sans-Serif" font-size="10.00">ENS160Sensor()</text>
<text text-anchor="start" x="500" y="-104.5" font-family="Helvetica,sans-Serif" font-size="10.00">+</text>
<text text-anchor="start" x="513" y="-104.5" font-family="Helvetica,sans-Serif" font-size="10.00">ENS160Sensor()</text>
<text text-anchor="start" x="500" y="-89.5" font-family="Helvetica,sans-Serif" font-size="10.00">+</text>
<text text-anchor="start" x="513" y="-89.5" font-family="Helvetica,sans-Serif" font-size="10.00">verify()</text>
<text text-anchor="start" x="500" y="-74.5" font-family="Helvetica,sans-Serif" font-size="10.00">+</text>
<text text-anchor="start" x="513" y="-74.5" font-family="Helvetica,sans-Serif" font-size="10.00">readData()</text>
<text text-anchor="start" x="500" y="-59.5" font-family="Helvetica,sans-Serif" font-size="10.00">+</text>
<text text-anchor="start" x="513" y="-59.5" font-family="Helvetica,sans-Serif" font-size="10.00">readDataPacket()</text>
<text text-anchor="start" x="500" y="-44.5" font-family="Helvetica,sans-Serif" font-size="10.00">+</text>
<text text-anchor="start" x="513" y="-44.5" font-family="Helvetica,sans-Serif" font-size="10.00">decodeToCSV()</text>
<polygon fill="#666666" stroke="#666666" points="496,-144.5 496,-144.5 602,-144.5 602,-144.5 496,-144.5"/>
<polygon fill="#666666" stroke="#666666" points="496,-129.5 496,-129.5 511,-129.5 511,-129.5 496,-129.5"/>
<polygon fill="#666666" stroke="#666666" points="511,-129.5 511,-129.5 602,-129.5 602,-129.5 511,-129.5"/>
<polygon fill="none" stroke="#666666" points="496,-37.5 496,-161.5 602,-161.5 602,-37.5 496,-37.5"/>
</a>
</g>
</g>
<!-- Node1&#45;&gt;Node6 -->
<g id="edge5_Node000001_Node000006" class="edge">
<title>Node1&#45;&gt;Node6</title>
<g id="a_edge5_Node000001_Node000006"><a xlink:title=" ">
<path fill="none" stroke="#63b8ff" d="M664.16,-271.48C646.34,-248.15 627.63,-222.91 611,-199 602.75,-187.14 594.27,-174.22 586.34,-161.76"/>
<polygon fill="none" stroke="#63b8ff" points="661.55,-273.84 670.41,-279.65 667.11,-269.58 661.55,-273.84"/>
</a>
</g>
</g>
<!-- Node7 -->
<g id="Node000007" class="node">
<title>Node7</title>
<g id="a_Node000007"><a xlink:href="classICM20948Sensor.html" target="_top" xlink:title="Implementation of the Sensor class for the Adafruit ICM20948 (9&#45;axis IMU)">
<polygon fill="white" stroke="transparent" points="731.5,-191.5 620.5,-191.5 620.5,-7.5 731.5,-7.5 731.5,-191.5"/>
<text text-anchor="start" x="635.5" y="-179.5" font-family="Helvetica,sans-Serif" font-size="10.00">ICM20948Sensor</text>
<text text-anchor="start" x="627.5" y="-164.5" font-family="Helvetica,sans-Serif" font-size="10.00">&#45;</text>
<text text-anchor="start" x="638" y="-164.5" font-family="Helvetica,sans-Serif" font-size="10.00">icm</text>
<text text-anchor="start" x="627.5" y="-149.5" font-family="Helvetica,sans-Serif" font-size="10.00">&#45;</text>
<text text-anchor="start" x="638" y="-149.5" font-family="Helvetica,sans-Serif" font-size="10.00">icm_accel</text>
<text text-anchor="start" x="627.5" y="-134.5" font-family="Helvetica,sans-Serif" font-size="10.00">&#45;</text>
<text text-anchor="start" x="638" y="-134.5" font-family="Helvetica,sans-Serif" font-size="10.00">icm_gyro</text>
<text text-anchor="start" x="627.5" y="-119.5" font-family="Helvetica,sans-Serif" font-size="10.00">&#45;</text>
<text text-anchor="start" x="638" y="-119.5" font-family="Helvetica,sans-Serif" font-size="10.00">icm_mag</text>
<text text-anchor="start" x="627.5" y="-104.5" font-family="Helvetica,sans-Serif" font-size="10.00">&#45;</text>
<text text-anchor="start" x="638" y="-104.5" font-family="Helvetica,sans-Serif" font-size="10.00">icm_temp</text>
<text text-anchor="start" x="625" y="-89.5" font-family="Helvetica,sans-Serif" font-size="10.00">+</text>
<text text-anchor="start" x="638" y="-89.5" font-family="Helvetica,sans-Serif" font-size="10.00">ICM20948Sensor()</text>
<text text-anchor="start" x="625" y="-74.5" font-family="Helvetica,sans-Serif" font-size="10.00">+</text>
<text text-anchor="start" x="638" y="-74.5" font-family="Helvetica,sans-Serif" font-size="10.00">ICM20948Sensor()</text>
<text text-anchor="start" x="625" y="-59.5" font-family="Helvetica,sans-Serif" font-size="10.00">+</text>
<text text-anchor="start" x="638" y="-59.5" font-family="Helvetica,sans-Serif" font-size="10.00">verify()</text>
<text text-anchor="start" x="625" y="-44.5" font-family="Helvetica,sans-Serif" font-size="10.00">+</text>
<text text-anchor="start" x="638" y="-44.5" font-family="Helvetica,sans-Serif" font-size="10.00">readData()</text>
<text text-anchor="start" x="625" y="-29.5" font-family="Helvetica,sans-Serif" font-size="10.00">+</text>
<text text-anchor="start" x="638" y="-29.5" font-family="Helvetica,sans-Serif" font-size="10.00">readDataPacket()</text>
<text text-anchor="start" x="625" y="-14.5" font-family="Helvetica,sans-Serif" font-size="10.00">+</text>
<text text-anchor="start" x="638" y="-14.5" font-family="Helvetica,sans-Serif" font-size="10.00">decodeToCSV()</text>
<polygon fill="#666666" stroke="#666666" points="621,-174.5 621,-174.5 732,-174.5 732,-174.5 621,-174.5"/>
<polygon fill="#666666" stroke="#666666" points="621,-99.5 621,-99.5 636,-99.5 636,-99.5 621,-99.5"/>
<polygon fill="#666666" stroke="#666666" points="636,-99.5 636,-99.5 732,-99.5 732,-99.5 636,-99.5"/>
<polygon fill="none" stroke="#666666" points="620.5,-7.5 620.5,-191.5 731.5,-191.5 731.5,-7.5 620.5,-7.5"/>
</a>
</g>
</g>
<!-- Node1&#45;&gt;Node7 -->
<g id="edge6_Node000001_Node000007" class="edge">
<title>Node1&#45;&gt;Node7</title>
<g id="a_edge6_Node000001_Node000007"><a xlink:title=" ">
<path fill="none" stroke="#63b8ff" d="M704.83,-224.79C702.22,-213.53 699.62,-202.34 697.12,-191.55"/>
<polygon fill="none" stroke="#63b8ff" points="701.46,-225.75 707.13,-234.7 708.28,-224.16 701.46,-225.75"/>
</a>
</g>
</g>
<!-- Node8 -->
<g id="Node000008" class="node">
<title>Node8</title>
<g id="a_Node000008"><a xlink:href="classINA260Sensor.html" target="_top" xlink:title="A class to interface with the Adafruit INA260 sensor for current, voltage, and power measurements.">
<polygon fill="white" stroke="transparent" points="846.5,-146.5 749.5,-146.5 749.5,-52.5 846.5,-52.5 846.5,-146.5"/>
<text text-anchor="start" x="764" y="-134.5" font-family="Helvetica,sans-Serif" font-size="10.00">INA260Sensor</text>
<text text-anchor="start" x="756.5" y="-119.5" font-family="Helvetica,sans-Serif" font-size="10.00">&#45;</text>
<text text-anchor="start" x="767" y="-119.5" font-family="Helvetica,sans-Serif" font-size="10.00">ina260</text>
<text text-anchor="start" x="754" y="-104.5" font-family="Helvetica,sans-Serif" font-size="10.00">+</text>
<text text-anchor="start" x="767" y="-104.5" font-family="Helvetica,sans-Serif" font-size="10.00">INA260Sensor()</text>
<text text-anchor="start" x="754" y="-89.5" font-family="Helvetica,sans-Serif" font-size="10.00">+</text>
<text text-anchor="start" x="767" y="-89.5" font-family="Helvetica,sans-Serif" font-size="10.00">INA260Sensor()</text>
<text text-anchor="start" x="754" y="-74.5" font-family="Helvetica,sans-Serif" font-size="10.00">+</text>
<text text-anchor="start" x="767" y="-74.5" font-family="Helvetica,sans-Serif" font-size="10.00">verify()</text>
<text text-anchor="start" x="754" y="-59.5" font-family="Helvetica,sans-Serif" font-size="10.00">+</text>
<text text-anchor="start" x="767" y="-59.5" font-family="Helvetica,sans-Serif" font-size="10.00">readData()</text>
<polygon fill="#666666" stroke="#666666" points="750,-129.5 750,-129.5 847,-129.5 847,-129.5 750,-129.5"/>
<polygon fill="#666666" stroke="#666666" points="750,-114.5 750,-114.5 765,-114.5 765,-114.5 750,-114.5"/>
<polygon fill="#666666" stroke="#666666" points="765,-114.5 765,-114.5 847,-114.5 847,-114.5 765,-114.5"/>
<polygon fill="none" stroke="#666666" points="749.5,-52.5 749.5,-146.5 846.5,-146.5 846.5,-52.5 749.5,-52.5"/>
</a>
</g>
</g>
<!-- Node1&#45;&gt;Node8 -->
<g id="edge7_Node000001_Node000008" class="edge">
<title>Node1&#45;&gt;Node8</title>
<g id="a_edge7_Node000001_Node000008"><a xlink:title=" ">
<path fill="none" stroke="#63b8ff" d="M769.2,-224.69C775.75,-196.43 782.2,-168.63 787.33,-146.51"/>
<polygon fill="none" stroke="#63b8ff" points="765.72,-224.16 766.87,-234.7 772.54,-225.75 765.72,-224.16"/>
</a>
</g>
</g>
<!-- Node9 -->
<g id="Node000009" class="node">
<title>Node9</title>
<g id="a_Node000009"><a xlink:href="classLSM9DS1Sensor.html" target="_top" xlink:title="Implementation of the Sensor class for the LSM9DS1 (9&#45;axis IMU)">
<polygon fill="white" stroke="transparent" points="973,-199 865,-199 865,0 973,0 973,-199"/>
<text text-anchor="start" x="879.5" y="-186.5" font-family="Helvetica,sans-Serif" font-size="10.00">LSM9DS1Sensor</text>
<text text-anchor="start" x="871.5" y="-171.5" font-family="Helvetica,sans-Serif" font-size="10.00">&#45;</text>
<text text-anchor="start" x="882" y="-171.5" font-family="Helvetica,sans-Serif" font-size="10.00">lsm</text>
<text text-anchor="start" x="871.5" y="-156.5" font-family="Helvetica,sans-Serif" font-size="10.00">&#45;</text>
<text text-anchor="start" x="882" y="-156.5" font-family="Helvetica,sans-Serif" font-size="10.00">accel_offsets</text>
<text text-anchor="start" x="871.5" y="-141.5" font-family="Helvetica,sans-Serif" font-size="10.00">&#45;</text>
<text text-anchor="start" x="882" y="-141.5" font-family="Helvetica,sans-Serif" font-size="10.00">gyro_offsets</text>
<text text-anchor="start" x="871.5" y="-126.5" font-family="Helvetica,sans-Serif" font-size="10.00">&#45;</text>
<text text-anchor="start" x="882" y="-126.5" font-family="Helvetica,sans-Serif" font-size="10.00">mag_offsets</text>
<text text-anchor="start" x="869" y="-111.5" font-family="Helvetica,sans-Serif" font-size="10.00">+</text>
<text text-anchor="start" x="882" y="-111.5" font-family="Helvetica,sans-Serif" font-size="10.00">LSM9DS1Sensor()</text>
<text text-anchor="start" x="869" y="-96.5" font-family="Helvetica,sans-Serif" font-size="10.00">+</text>
<text text-anchor="start" x="882" y="-96.5" font-family="Helvetica,sans-Serif" font-size="10.00">LSM9DS1Sensor()</text>
<text text-anchor="start" x="869" y="-81.5" font-family="Helvetica,sans-Serif" font-size="10.00">+</text>
<text text-anchor="start" x="882" y="-81.5" font-family="Helvetica,sans-Serif" font-size="10.00">verify()</text>
<text text-anchor="start" x="869" y="-66.5" font-family="Helvetica,sans-Serif" font-size="10.00">+</text>
<text text-anchor="start" x="882" y="-66.5" font-family="Helvetica,sans-Serif" font-size="10.00">readData()</text>
<text text-anchor="start" x="869" y="-51.5" font-family="Helvetica,sans-Serif" font-size="10.00">+</text>
<text text-anchor="start" x="882" y="-51.5" font-family="Helvetica,sans-Serif" font-size="10.00">calibrate()</text>
<text text-anchor="start" x="869" y="-36.5" font-family="Helvetica,sans-Serif" font-size="10.00">+</text>
<text text-anchor="start" x="882" y="-36.5" font-family="Helvetica,sans-Serif" font-size="10.00">readDataPacket()</text>
<text text-anchor="start" x="869" y="-21.5" font-family="Helvetica,sans-Serif" font-size="10.00">+</text>
<text text-anchor="start" x="882" y="-21.5" font-family="Helvetica,sans-Serif" font-size="10.00">decodeToCSV()</text>
<text text-anchor="start" x="871.5" y="-6.5" font-family="Helvetica,sans-Serif" font-size="10.00">&#45;</text>
<text text-anchor="start" x="882" y="-6.5" font-family="Helvetica,sans-Serif" font-size="10.00">setupSensor()</text>
<polygon fill="#666666" stroke="#666666" points="865,-181.5 865,-181.5 973,-181.5 973,-181.5 865,-181.5"/>
<polygon fill="#666666" stroke="#666666" points="865,-121.5 865,-121.5 880,-121.5 880,-121.5 865,-121.5"/>
<polygon fill="#666666" stroke="#666666" points="880,-121.5 880,-121.5 973,-121.5 973,-121.5 880,-121.5"/>
<polygon fill="none" stroke="#666666" points="865,0 865,-199 973,-199 973,0 865,0"/>
</a>
</g>
</g>
<!-- Node1&#45;&gt;Node9 -->
<g id="edge8_Node000001_Node000009" class="edge">
<title>Node1&#45;&gt;Node9</title>
<g id="a_edge8_Node000001_Node000009"><a xlink:title=" ">
<path fill="none" stroke="#63b8ff" d="M809.64,-265.02C825.17,-243.43 841.31,-220.57 856,-199 858.91,-194.72 861.87,-190.32 864.83,-185.86"/>
<polygon fill="none" stroke="#63b8ff" points="806.73,-263.07 803.72,-273.23 812.41,-267.16 806.73,-263.07"/>
</a>
</g>
</g>
<!-- Node10 -->
<g id="Node000010" class="node">
<title>Node10</title>
<g id="a_Node000010"><a xlink:href="classMTK3339Sensor.html" target="_top" xlink:title="Implementation of the Adafruit MTK3339 GPS sensor.">
<polygon fill="white" stroke="transparent" points="1099,-161.5 991,-161.5 991,-37.5 1099,-37.5 1099,-161.5"/>
<text text-anchor="start" x="1005.5" y="-149.5" font-family="Helvetica,sans-Serif" font-size="10.00">MTK3339Sensor</text>
<text text-anchor="start" x="997.5" y="-134.5" font-family="Helvetica,sans-Serif" font-size="10.00">&#45;</text>
<text text-anchor="start" x="1008" y="-134.5" font-family="Helvetica,sans-Serif" font-size="10.00">GPS</text>
<text text-anchor="start" x="995" y="-119.5" font-family="Helvetica,sans-Serif" font-size="10.00">+</text>
<text text-anchor="start" x="1008" y="-119.5" font-family="Helvetica,sans-Serif" font-size="10.00">MTK3339Sensor()</text>
<text text-anchor="start" x="995" y="-104.5" font-family="Helvetica,sans-Serif" font-size="10.00">+</text>
<text text-anchor="start" x="1008" y="-104.5" font-family="Helvetica,sans-Serif" font-size="10.00">MTK3339Sensor()</text>
<text text-anchor="start" x="995" y="-89.5" font-family="Helvetica,sans-Serif" font-size="10.00">+</text>
<text text-anchor="start" x="1008" y="-89.5" font-family="Helvetica,sans-Serif" font-size="10.00">verify()</text>
<text text-anchor="start" x="995" y="-74.5" font-family="Helvetica,sans-Serif" font-size="10.00">+</text>
<text text-anchor="start" x="1008" y="-74.5" font-family="Helvetica,sans-Serif" font-size="10.00">readData()</text>
<text text-anchor="start" x="995" y="-59.5" font-family="Helvetica,sans-Serif" font-size="10.00">+</text>
<text text-anchor="start" x="1008" y="-59.5" font-family="Helvetica,sans-Serif" font-size="10.00">readDataPacket()</text>
<text text-anchor="start" x="995" y="-44.5" font-family="Helvetica,sans-Serif" font-size="10.00">+</text>
<text text-anchor="start" x="1008" y="-44.5" font-family="Helvetica,sans-Serif" font-size="10.00">decodeToCSV()</text>
<polygon fill="#666666" stroke="#666666" points="991,-144.5 991,-144.5 1099,-144.5 1099,-144.5 991,-144.5"/>
<polygon fill="#666666" stroke="#666666" points="991,-129.5 991,-129.5 1006,-129.5 1006,-129.5 991,-129.5"/>
<polygon fill="#666666" stroke="#666666" points="1006,-129.5 1006,-129.5 1099,-129.5 1099,-129.5 1006,-129.5"/>
<polygon fill="none" stroke="#666666" points="991,-37.5 991,-161.5 1099,-161.5 1099,-37.5 991,-37.5"/>
</a>
</g>
</g>
<!-- Node1&#45;&gt;Node10 -->
<g id="edge9_Node000001_Node000010" class="edge">
<title>Node1&#45;&gt;Node10</title>
<g id="a_edge9_Node000001_Node000010"><a xlink:title=" ">
<path fill="none" stroke="#63b8ff" d="M812.33,-323.86C864.06,-294.16 932.14,-249.99 982,-199 992.79,-187.97 1002.72,-174.81 1011.36,-161.75"/>
<polygon fill="none" stroke="#63b8ff" points="810.48,-320.88 803.52,-328.86 813.94,-326.96 810.48,-320.88"/>
</a>
</g>
</g>
<!-- Node11 -->
<g id="Node000011" class="node">
<title>Node11</title>
<g id="a_Node000011"><a xlink:href="classPCF8523Sensor.html" target="_top" xlink:title="Implementation of the PCF8523 sensor.">
<polygon fill="white" stroke="transparent" points="1223,-169 1117,-169 1117,-30 1223,-30 1223,-169"/>
<text text-anchor="start" x="1132" y="-156.5" font-family="Helvetica,sans-Serif" font-size="10.00">PCF8523Sensor</text>
<text text-anchor="start" x="1123.5" y="-141.5" font-family="Helvetica,sans-Serif" font-size="10.00">&#45;</text>
<text text-anchor="start" x="1134" y="-141.5" font-family="Helvetica,sans-Serif" font-size="10.00">rtc</text>
<text text-anchor="start" x="1121" y="-126.5" font-family="Helvetica,sans-Serif" font-size="10.00">+</text>
<text text-anchor="start" x="1134" y="-126.5" font-family="Helvetica,sans-Serif" font-size="10.00">PCF8523Sensor()</text>
<text text-anchor="start" x="1121" y="-111.5" font-family="Helvetica,sans-Serif" font-size="10.00">+</text>
<text text-anchor="start" x="1134" y="-111.5" font-family="Helvetica,sans-Serif" font-size="10.00">PCF8523Sensor()</text>
<text text-anchor="start" x="1121" y="-96.5" font-family="Helvetica,sans-Serif" font-size="10.00">+</text>
<text text-anchor="start" x="1134" y="-96.5" font-family="Helvetica,sans-Serif" font-size="10.00">verify()</text>
<text text-anchor="start" x="1121" y="-81.5" font-family="Helvetica,sans-Serif" font-size="10.00">+</text>
<text text-anchor="start" x="1134" y="-81.5" font-family="Helvetica,sans-Serif" font-size="10.00">decodeToCSV()</text>
<text text-anchor="start" x="1121" y="-66.5" font-family="Helvetica,sans-Serif" font-size="10.00">+</text>
<text text-anchor="start" x="1134" y="-66.5" font-family="Helvetica,sans-Serif" font-size="10.00">readDataPacket()</text>
<text text-anchor="start" x="1121" y="-51.5" font-family="Helvetica,sans-Serif" font-size="10.00">+</text>
<text text-anchor="start" x="1134" y="-51.5" font-family="Helvetica,sans-Serif" font-size="10.00">readData()</text>
<text text-anchor="start" x="1121" y="-36.5" font-family="Helvetica,sans-Serif" font-size="10.00">+</text>
<text text-anchor="start" x="1134" y="-36.5" font-family="Helvetica,sans-Serif" font-size="10.00">calibrate()</text>
<polygon fill="#666666" stroke="#666666" points="1117,-151.5 1117,-151.5 1223,-151.5 1223,-151.5 1117,-151.5"/>
<polygon fill="#666666" stroke="#666666" points="1117,-136.5 1117,-136.5 1132,-136.5 1132,-136.5 1117,-136.5"/>
<polygon fill="#666666" stroke="#666666" points="1132,-136.5 1132,-136.5 1223,-136.5 1223,-136.5 1132,-136.5"/>
<polygon fill="none" stroke="#666666" points="1117,-30 1117,-169 1223,-169 1223,-30 1117,-30"/>
</a>
</g>
</g>
<!-- Node1&#45;&gt;Node11 -->
<g id="edge10_Node000001_Node000011" class="edge">
<title>Node1&#45;&gt;Node11</title>
<g id="a_edge10_Node000001_Node000011"><a xlink:title=" ">
<path fill="none" stroke="#63b8ff" d="M813.88,-343.9C894.44,-320.3 1021.13,-274.15 1108,-199 1117.86,-190.47 1126.68,-179.99 1134.37,-169.08"/>
<polygon fill="none" stroke="#63b8ff" points="812.45,-340.68 803.81,-346.81 814.39,-347.4 812.45,-340.68"/>
</a>
</g>
</g>
<!-- Node12 -->
<g id="Node000012" class="node">
<title>Node12</title>
<g id="a_Node000012"><a xlink:href="classSGP30Sensor.html" target="_top" xlink:title="Implementation of a Sensor for the SGP Air Quality sensor.">
<polygon fill="white" stroke="transparent" points="1335,-146.5 1241,-146.5 1241,-52.5 1335,-52.5 1335,-146.5"/>
<text text-anchor="start" x="1255.5" y="-134.5" font-family="Helvetica,sans-Serif" font-size="10.00">SGP30Sensor</text>
<text text-anchor="start" x="1247.5" y="-119.5" font-family="Helvetica,sans-Serif" font-size="10.00">&#45;</text>
<text text-anchor="start" x="1258" y="-119.5" font-family="Helvetica,sans-Serif" font-size="10.00">sgp</text>
<text text-anchor="start" x="1245" y="-104.5" font-family="Helvetica,sans-Serif" font-size="10.00">+</text>
<text text-anchor="start" x="1258" y="-104.5" font-family="Helvetica,sans-Serif" font-size="10.00">SGP30Sensor()</text>
<text text-anchor="start" x="1245" y="-89.5" font-family="Helvetica,sans-Serif" font-size="10.00">+</text>
<text text-anchor="start" x="1258" y="-89.5" font-family="Helvetica,sans-Serif" font-size="10.00">SGP30Sensor()</text>
<text text-anchor="start" x="1245" y="-74.5" font-family="Helvetica,sans-Serif" font-size="10.00">+</text>
<text text-anchor="start" x="1258" y="-74.5" font-family="Helvetica,sans-Serif" font-size="10.00">verify()</text>
<text text-anchor="start" x="1245" y="-59.5" font-family="Helvetica,sans-Serif" font-size="10.00">+</text>
<text text-anchor="start" x="1258" y="-59.5" font-family="Helvetica,sans-Serif" font-size="10.00">readData()</text>
<polygon fill="#666666" stroke="#666666" points="1241,-129.5 1241,-129.5 1335,-129.5 1335,-129.5 1241,-129.5"/>
<polygon fill="#666666" stroke="#666666" points="1241,-114.5 1241,-114.5 1256,-114.5 1256,-114.5 1241,-114.5"/>
<polygon fill="#666666" stroke="#666666" points="1256,-114.5 1256,-114.5 1335,-114.5 1335,-114.5 1256,-114.5"/>
<polygon fill="none" stroke="#666666" points="1241,-52.5 1241,-146.5 1335,-146.5 1335,-52.5 1241,-52.5"/>
</a>
</g>
</g>
<!-- Node1&#45;&gt;Node12 -->
<g id="edge11_Node000001_Node000012" class="edge">
<title>Node1&#45;&gt;Node12</title>
<g id="a_edge11_Node000001_Node000012"><a xlink:title=" ">
<path fill="none" stroke="#63b8ff" d="M813.75,-355.25C918.68,-340.45 1108.04,-300.76 1232,-199 1248.73,-185.27 1261.42,-165.15 1270.45,-146.67"/>
<polygon fill="none" stroke="#63b8ff" points="812.98,-351.83 803.55,-356.65 813.93,-358.76 812.98,-351.83"/>
</a>
</g>
</g>
<!-- Node13 -->
<g id="Node000013" class="node">
<title>Node13</title>
<g id="a_Node000013"><a xlink:href="classTempSensor.html" target="_top" xlink:title="Implementation of a Sensor for the onboard temperature sensor.">
<polygon fill="white" stroke="transparent" points="1459,-161.5 1353,-161.5 1353,-37.5 1459,-37.5 1459,-161.5"/>
<text text-anchor="start" x="1376" y="-149.5" font-family="Helvetica,sans-Serif" font-size="10.00">TempSensor</text>
<text text-anchor="start" x="1404" y="-134.5" font-family="Helvetica,sans-Serif" font-size="10.00"> </text>
<text text-anchor="start" x="1357" y="-119.5" font-family="Helvetica,sans-Serif" font-size="10.00">+</text>
<text text-anchor="start" x="1370" y="-119.5" font-family="Helvetica,sans-Serif" font-size="10.00">TempSensor()</text>
<text text-anchor="start" x="1357" y="-104.5" font-family="Helvetica,sans-Serif" font-size="10.00">+</text>
<text text-anchor="start" x="1370" y="-104.5" font-family="Helvetica,sans-Serif" font-size="10.00">TempSensor()</text>
<text text-anchor="start" x="1357" y="-89.5" font-family="Helvetica,sans-Serif" font-size="10.00">+</text>
<text text-anchor="start" x="1370" y="-89.5" font-family="Helvetica,sans-Serif" font-size="10.00">verify()</text>
<text text-anchor="start" x="1357" y="-74.5" font-family="Helvetica,sans-Serif" font-size="10.00">+</text>
<text text-anchor="start" x="1370" y="-74.5" font-family="Helvetica,sans-Serif" font-size="10.00">readData()</text>
<text text-anchor="start" x="1357" y="-59.5" font-family="Helvetica,sans-Serif" font-size="10.00">+</text>
<text text-anchor="start" x="1370" y="-59.5" font-family="Helvetica,sans-Serif" font-size="10.00">readDataPacket()</text>
<text text-anchor="start" x="1357" y="-44.5" font-family="Helvetica,sans-Serif" font-size="10.00">+</text>
<text text-anchor="start" x="1370" y="-44.5" font-family="Helvetica,sans-Serif" font-size="10.00">decodeToCSV()</text>
<polygon fill="#666666" stroke="#666666" points="1353,-144.5 1353,-144.5 1459,-144.5 1459,-144.5 1353,-144.5"/>
<polygon fill="#666666" stroke="#666666" points="1353,-129.5 1353,-129.5 1459,-129.5 1459,-129.5 1353,-129.5"/>
<polygon fill="none" stroke="#666666" points="1353,-37.5 1353,-161.5 1459,-161.5 1459,-37.5 1353,-37.5"/>
</a>
</g>
</g>
<!-- Node1&#45;&gt;Node13 -->
<g id="edge12_Node000001_Node000013" class="edge">
<title>Node1&#45;&gt;Node13</title>
<g id="a_edge12_Node000001_Node000013"><a xlink:title=" ">
<path fill="none" stroke="#63b8ff" d="M813.6,-360.28C936.8,-351.55 1181.56,-319.14 1344,-199 1357.32,-189.15 1368.47,-175.5 1377.47,-161.5"/>
<polygon fill="none" stroke="#63b8ff" points="813.25,-356.8 803.5,-360.96 813.72,-363.78 813.25,-356.8"/>
</a>
</g>
</g>
</g>
</svg>

<g id="navigator" transform="translate(0 0)" fill="#404254">
  <rect fill="#f2f5e9" fill-opacity="0.5" stroke="#606060" stroke-width=".5" x="0" y="0" width="60" height="60"/>
  <use id="zoomplus" xlink:href="#zoomPlus" x="17" y="9" onmousedown="handleZoom(evt,'in')"/>
  <use id="zoomminus" xlink:href="#zoomMin" x="42" y="9" onmousedown="handleZoom(evt,'out')"/>
  <use id="reset" xlink:href="#resetDef" x="30" y="36" onmousedown="handleReset()"/>
   <use id="arrowup" xlink:href="#arrowUp" x="0" y="0" onmousedown="handlePan(0,-1)"/>
  <use id="arrowright" xlink:href="#arrowRight" x="0" y="0" onmousedown="handlePan(1,0)"/>
  <use id="arrowdown" xlink:href="#arrowDown" x="0" y="0" onmousedown="handlePan(0,1)"/>
  <use id="arrowleft" xlink:href="#arrowLeft" x="0" y="0" onmousedown="handlePan(-1,0)"/>
</g>
<svg viewBox="0 0 15 15" width="100%" height="30px" preserveAspectRatio="xMaxYMin meet">
 <g id="arrow_out" transform="scale(0.3 0.3)">
  <a xlink:href="classSensor__inherit__graph_org.svg" target="_base">
   <rect id="button" ry="5" rx="5" y="6" x="6" height="38" width="38"
        fill="#f2f5e9" fill-opacity="0.5" stroke="#606060" stroke-width="1.0"/>
   <path id="arrow"
     d="M 11.500037,31.436501 C 11.940474,20.09759 22.043105,11.32322 32.158766,21.979434 L 37.068811,17.246167 C 37.068811,17.246167 37.088388,32 37.088388,32 L 22.160133,31.978069 C 22.160133,31.978069 26.997745,27.140456 26.997745,27.140456 C 18.528582,18.264221 13.291696,25.230495 11.500037,31.436501 z"
     style="fill:#404040;"/>
  </a>
 </g>
</svg>

<style type='text/css'>
<![CDATA[
[data-mouse-over-selected='false'] { opacity: 0.7; }
[data-mouse-over-selected='true']  { opacity: 1.0; }
]]>
</style>
<script type="application/ecmascript"><![CDATA[
document.addEventListener('DOMContentLoaded', (event) => {
  highlightEdges();
  highlightAdjacentNodes();
});
]]></script>
</svg>
