<?xml version="1.0" encoding="UTF-8" standalone="no"?>
<!DOCTYPE svg PUBLIC "-//W3C//DTD SVG 1.1//EN"
 "http://www.w3.org/Graphics/SVG/1.1/DTD/svg11.dtd">
<!-- Generated by graphviz version 2.43.0 (0)
 -->
<!-- Title: FlashStorage Pages: 1 -->
<svg width="733pt" height="715pt"
 viewBox="0.00 0.00 732.50 715.00" xmlns="http://www.w3.org/2000/svg" xmlns:xlink="http://www.w3.org/1999/xlink">
<g id="graph0" class="graph" transform="scale(1 1) rotate(0) translate(4 711)">
<title>FlashStorage</title>
<!-- Node1 -->
<g id="Node000001" class="node">
<title>Node1</title>
<g id="a_Node000001"><a xlink:title=" ">
<polygon fill="#999999" stroke="transparent" points="506.5,-199 400.5,-199 400.5,0 506.5,0 506.5,-199"/>
<text text-anchor="start" x="421.5" y="-186.5" font-family="Helvetica,sans-Serif" font-size="10.00">FlashStorage</text>
<text text-anchor="start" x="451.5" y="-171.5" font-family="Helvetica,sans-Serif" font-size="10.00"> </text>
<text text-anchor="start" x="404.5" y="-156.5" font-family="Helvetica,sans-Serif" font-size="10.00">+</text>
<text text-anchor="start" x="417.5" y="-156.5" font-family="Helvetica,sans-Serif" font-size="10.00">FlashStorage()</text>
<text text-anchor="start" x="404.5" y="-141.5" font-family="Helvetica,sans-Serif" font-size="10.00">+</text>
<text text-anchor="start" x="417.5" y="-141.5" font-family="Helvetica,sans-Serif" font-size="10.00">verify()</text>
<text text-anchor="start" x="404.5" y="-126.5" font-family="Helvetica,sans-Serif" font-size="10.00">+</text>
<text text-anchor="start" x="417.5" y="-126.5" font-family="Helvetica,sans-Serif" font-size="10.00">store()</text>
<text text-anchor="start" x="404.5" y="-111.5" font-family="Helvetica,sans-Serif" font-size="10.00">+</text>
<text text-anchor="start" x="417.5" y="-111.5" font-family="Helvetica,sans-Serif" font-size="10.00">storePacket()</text>
<text text-anchor="start" x="404.5" y="-96.5" font-family="Helvetica,sans-Serif" font-size="10.00">+</text>
<text text-anchor="start" x="417.5" y="-96.5" font-family="Helvetica,sans-Serif" font-size="10.00">dump()</text>
<text text-anchor="start" x="404.5" y="-81.5" font-family="Helvetica,sans-Serif" font-size="10.00">+</text>
<text text-anchor="start" x="417.5" y="-81.5" font-family="Helvetica,sans-Serif" font-size="10.00">erase()</text>
<text text-anchor="start" x="407" y="-66.5" font-family="Helvetica,sans-Serif" font-size="10.00">&#45;</text>
<text text-anchor="start" x="417.5" y="-66.5" font-family="Helvetica,sans-Serif" font-size="10.00">indexFlash()</text>
<text text-anchor="start" x="407" y="-51.5" font-family="Helvetica,sans-Serif" font-size="10.00">&#45;</text>
<text text-anchor="start" x="417.5" y="-51.5" font-family="Helvetica,sans-Serif" font-size="10.00">loadAddress()</text>
<text text-anchor="start" x="407" y="-36.5" font-family="Helvetica,sans-Serif" font-size="10.00">&#45;</text>
<text text-anchor="start" x="417.5" y="-36.5" font-family="Helvetica,sans-Serif" font-size="10.00">isSectorEmpty()</text>
<text text-anchor="start" x="407" y="-21.5" font-family="Helvetica,sans-Serif" font-size="10.00">&#45;</text>
<text text-anchor="start" x="417.5" y="-21.5" font-family="Helvetica,sans-Serif" font-size="10.00">readFileHeader()</text>
<text text-anchor="start" x="407" y="-6.5" font-family="Helvetica,sans-Serif" font-size="10.00">&#45;</text>
<text text-anchor="start" x="417.5" y="-6.5" font-family="Helvetica,sans-Serif" font-size="10.00">writeFileHeader()</text>
<polygon fill="#666666" stroke="#666666" points="400.5,-181.5 400.5,-181.5 506.5,-181.5 506.5,-181.5 400.5,-181.5"/>
<polygon fill="#666666" stroke="#666666" points="400.5,-166.5 400.5,-166.5 506.5,-166.5 506.5,-166.5 400.5,-166.5"/>
<polygon fill="none" stroke="#666666" points="400.5,0 400.5,-199 506.5,-199 506.5,0 400.5,0"/>
</a>
</g>
</g>
<!-- Node2 -->
<g id="Node000002" class="node">
<title>Node2</title>
<g id="a_Node000002"><a xlink:href="classStorage.html" target="_top" xlink:title="Parent class for all data storage devices (sd card, radio, etc)">
<polygon fill="white" stroke="transparent" points="354,-384 269,-384 269,-290 354,-290 354,-384"/>
<text text-anchor="start" x="293" y="-372" font-family="Helvetica,sans-Serif" font-size="10.00">Storage</text>
<text text-anchor="start" x="310" y="-357" font-family="Helvetica,sans-Serif" font-size="10.00"> </text>
<text text-anchor="start" x="273.5" y="-342" font-family="Helvetica,sans-Serif" font-size="10.00">+</text>
<text text-anchor="start" x="286.5" y="-342" font-family="Helvetica,sans-Serif" font-size="10.00">Storage()</text>
<text text-anchor="start" x="273.5" y="-327" font-family="Helvetica,sans-Serif" font-size="10.00">+</text>
<text text-anchor="start" x="286.5" y="-327" font-family="Helvetica,sans-Serif" font-size="10.00">verify()</text>
<text text-anchor="start" x="273.5" y="-312" font-family="Helvetica,sans-Serif" font-size="10.00">+</text>
<text text-anchor="start" x="286.5" y="-312" font-family="Helvetica,sans-Serif" font-size="10.00">store()</text>
<text text-anchor="start" x="273.5" y="-297" font-family="Helvetica,sans-Serif" font-size="10.00">+</text>
<text text-anchor="start" x="286.5" y="-297" font-family="Helvetica,sans-Serif" font-size="10.00">storePacket()</text>
<polygon fill="#666666" stroke="#666666" points="269.5,-367 269.5,-367 354.5,-367 354.5,-367 269.5,-367"/>
<polygon fill="#666666" stroke="#666666" points="269.5,-352 269.5,-352 354.5,-352 354.5,-352 269.5,-352"/>
<polygon fill="none" stroke="#666666" points="269,-290 269,-384 354,-384 354,-290 269,-290"/>
</a>
</g>
</g>
<!-- Node2&#45;&gt;Node1 -->
<g id="edge1_Node000001_Node000002" class="edge">
<title>Node2&#45;&gt;Node1</title>
<g id="a_edge1_Node000001_Node000002"><a xlink:title=" ">
<path fill="none" stroke="#63b8ff" d="M344.62,-281.07C361.2,-253.57 381.68,-219.61 400.38,-188.59"/>
<polygon fill="none" stroke="#63b8ff" points="341.55,-279.38 339.39,-289.75 347.55,-283 341.55,-279.38"/>
</a>
</g>
</g>
<!-- Node3 -->
<g id="Node000003" class="node">
<title>Node3</title>
<g id="a_Node000003"><a xlink:href="classDevice.html" target="_top" xlink:title="Implements the recovery system for Sensor and Storage objects.">
<polygon fill="white" stroke="transparent" points="306,-600 183,-600 183,-431 306,-431 306,-600"/>
<text text-anchor="start" x="228" y="-587.5" font-family="Helvetica,sans-Serif" font-size="10.00">Device</text>
<text text-anchor="start" x="243" y="-572.5" font-family="Helvetica,sans-Serif" font-size="10.00"> </text>
<text text-anchor="start" x="187.5" y="-557.5" font-family="Helvetica,sans-Serif" font-size="10.00">+</text>
<text text-anchor="start" x="200.5" y="-557.5" font-family="Helvetica,sans-Serif" font-size="10.00">Device()</text>
<text text-anchor="start" x="187.5" y="-542.5" font-family="Helvetica,sans-Serif" font-size="10.00">+</text>
<text text-anchor="start" x="200.5" y="-542.5" font-family="Helvetica,sans-Serif" font-size="10.00">Device()</text>
<text text-anchor="start" x="187.5" y="-527.5" font-family="Helvetica,sans-Serif" font-size="10.00">+</text>
<text text-anchor="start" x="200.5" y="-527.5" font-family="Helvetica,sans-Serif" font-size="10.00">getDeviceName()</text>
<text text-anchor="start" x="187.5" y="-512.5" font-family="Helvetica,sans-Serif" font-size="10.00">+</text>
<text text-anchor="start" x="200.5" y="-512.5" font-family="Helvetica,sans-Serif" font-size="10.00">verify()</text>
<text text-anchor="start" x="187.5" y="-497.5" font-family="Helvetica,sans-Serif" font-size="10.00">+</text>
<text text-anchor="start" x="200.5" y="-497.5" font-family="Helvetica,sans-Serif" font-size="10.00">getVerified()</text>
<text text-anchor="start" x="187.5" y="-482.5" font-family="Helvetica,sans-Serif" font-size="10.00">+</text>
<text text-anchor="start" x="200.5" y="-482.5" font-family="Helvetica,sans-Serif" font-size="10.00">recoveryConfig()</text>
<text text-anchor="start" x="187.5" y="-467.5" font-family="Helvetica,sans-Serif" font-size="10.00">+</text>
<text text-anchor="start" x="200.5" y="-467.5" font-family="Helvetica,sans-Serif" font-size="10.00">setWaitFactor()</text>
<text text-anchor="start" x="187.5" y="-452.5" font-family="Helvetica,sans-Serif" font-size="10.00">+</text>
<text text-anchor="start" x="200.5" y="-452.5" font-family="Helvetica,sans-Serif" font-size="10.00">setMaxAttempts()</text>
<text text-anchor="start" x="187.5" y="-437.5" font-family="Helvetica,sans-Serif" font-size="10.00">+</text>
<text text-anchor="start" x="200.5" y="-437.5" font-family="Helvetica,sans-Serif" font-size="10.00">attemptConnection()</text>
<polygon fill="#666666" stroke="#666666" points="183.5,-582.5 183.5,-582.5 306.5,-582.5 306.5,-582.5 183.5,-582.5"/>
<polygon fill="#666666" stroke="#666666" points="183.5,-567.5 183.5,-567.5 306.5,-567.5 306.5,-567.5 183.5,-567.5"/>
<polygon fill="none" stroke="#666666" points="183,-431 183,-600 306,-600 306,-431 183,-431"/>
</a>
</g>
</g>
<!-- Node3&#45;&gt;Node2 -->
<g id="edge2_Node000002_Node000003" class="edge">
<title>Node3&#45;&gt;Node2</title>
<g id="a_edge2_Node000002_Node000003"><a xlink:title=" ">
<path fill="none" stroke="#63b8ff" d="M279.8,-421.5C284.7,-408.59 289.55,-395.82 293.93,-384.3"/>
<polygon fill="none" stroke="#63b8ff" points="276.51,-420.31 276.23,-430.9 283.06,-422.79 276.51,-420.31"/>
</a>
</g>
</g>
<!-- Node4 -->
<g id="Node000004" class="node">
<title>Node4</title>
<g id="a_Node000004"><a xlink:title=" ">
<polygon fill="white" stroke="transparent" points="79,-707 0,-707 0,-658 79,-658 79,-707"/>
<text text-anchor="start" x="5.5" y="-694.5" font-family="Helvetica,sans-Serif" font-size="10.00">unsigned long</text>
<text text-anchor="start" x="38" y="-679.5" font-family="Helvetica,sans-Serif" font-size="10.00"> </text>
<text text-anchor="start" x="38" y="-664.5" font-family="Helvetica,sans-Serif" font-size="10.00"> </text>
<polygon fill="#666666" stroke="#666666" points="0.5,-689.5 0.5,-689.5 79.5,-689.5 79.5,-689.5 0.5,-689.5"/>
<polygon fill="#666666" stroke="#666666" points="0.5,-674.5 0.5,-674.5 79.5,-674.5 79.5,-674.5 0.5,-674.5"/>
<polygon fill="none" stroke="#666666" points="0,-658 0,-707 79,-707 79,-658 0,-658"/>
</a>
</g>
</g>
<!-- Node4&#45;&gt;Node3 -->
<g id="edge3_Node000003_Node000004" class="edge">
<title>Node4&#45;&gt;Node3</title>
<g id="a_edge3_Node000003_Node000004"><a xlink:title=" ">
<path fill="none" stroke="#63b8ff" d="M46.39,-657.75C51.04,-644.86 58.23,-629.3 68.5,-618 96.77,-586.92 136.83,-562.79 171.59,-545.87"/>
<polygon fill="none" stroke="#63b8ff" points="171.83,-545.76 175.54,-539.58 182.67,-540.63 178.96,-546.81 171.83,-545.76"/>
</a>
</g>
<text text-anchor="middle" x="103.5" y="-632" font-family="Helvetica,sans-Serif" font-size="10.00" fill="grey"> &#45;last_attempt</text>
<text text-anchor="middle" x="103.5" y="-621" font-family="Helvetica,sans-Serif" font-size="10.00" fill="grey">&#45;wait_factor</text>
</g>
<!-- Node5 -->
<g id="Node000005" class="node">
<title>Node5</title>
<g id="a_Node000005"><a xlink:title=" ">
<polygon fill="white" stroke="transparent" points="144,-707 121,-707 121,-658 144,-658 144,-707"/>
<text text-anchor="start" x="126.5" y="-694.5" font-family="Helvetica,sans-Serif" font-size="10.00">int</text>
<text text-anchor="start" x="131" y="-679.5" font-family="Helvetica,sans-Serif" font-size="10.00"> </text>
<text text-anchor="start" x="131" y="-664.5" font-family="Helvetica,sans-Serif" font-size="10.00"> </text>
<polygon fill="#666666" stroke="#666666" points="121.5,-689.5 121.5,-689.5 144.5,-689.5 144.5,-689.5 121.5,-689.5"/>
<polygon fill="#666666" stroke="#666666" points="121.5,-674.5 121.5,-674.5 144.5,-674.5 144.5,-674.5 121.5,-674.5"/>
<polygon fill="none" stroke="#666666" points="121,-658 121,-707 144,-707 144,-658 121,-658"/>
</a>
</g>
</g>
<!-- Node5&#45;&gt;Node3 -->
<g id="edge4_Node000003_Node000005" class="edge">
<title>Node5&#45;&gt;Node3</title>
<g id="a_edge4_Node000003_Node000005"><a xlink:title=" ">
<path fill="none" stroke="#63b8ff" d="M136.9,-657.86C139.85,-645.45 144.51,-630.31 151.5,-618 158.12,-606.34 166.29,-594.93 175.03,-584.2"/>
<polygon fill="none" stroke="#63b8ff" points="175.09,-584.13 175.91,-576.96 182.84,-574.96 182.02,-582.13 175.09,-584.13"/>
</a>
</g>
<text text-anchor="middle" x="196" y="-632" font-family="Helvetica,sans-Serif" font-size="10.00" fill="grey"> &#45;attempt_number</text>
<text text-anchor="middle" x="196" y="-621" font-family="Helvetica,sans-Serif" font-size="10.00" fill="grey">&#45;max_attempts</text>
</g>
<!-- Node6 -->
<g id="Node000006" class="node">
<title>Node6</title>
<g id="a_Node000006"><a xlink:title=" ">
<polygon fill="white" stroke="transparent" points="264,-707 225,-707 225,-658 264,-658 264,-707"/>
<text text-anchor="start" x="230.5" y="-694.5" font-family="Helvetica,sans-Serif" font-size="10.00">String</text>
<text text-anchor="start" x="243" y="-679.5" font-family="Helvetica,sans-Serif" font-size="10.00"> </text>
<text text-anchor="start" x="243" y="-664.5" font-family="Helvetica,sans-Serif" font-size="10.00"> </text>
<polygon fill="#666666" stroke="#666666" points="225.5,-689.5 225.5,-689.5 264.5,-689.5 264.5,-689.5 225.5,-689.5"/>
<polygon fill="#666666" stroke="#666666" points="225.5,-674.5 225.5,-674.5 264.5,-674.5 264.5,-674.5 225.5,-674.5"/>
<polygon fill="none" stroke="#666666" points="225,-658 225,-707 264,-707 264,-658 225,-658"/>
</a>
</g>
</g>
<!-- Node6&#45;&gt;Node3 -->
<g id="edge5_Node000003_Node000006" class="edge">
<title>Node6&#45;&gt;Node3</title>
<g id="a_edge5_Node000003_Node000006"><a xlink:title=" ">
<path fill="none" stroke="#63b8ff" d="M244.5,-657.86C244.5,-645.45 244.5,-629.34 244.5,-612.46"/>
<polygon fill="none" stroke="#63b8ff" points="244.5,-612.07 240.5,-606.07 244.5,-600.07 248.5,-606.07 244.5,-612.07"/>
</a>
</g>
<text text-anchor="middle" x="281" y="-626.5" font-family="Helvetica,sans-Serif" font-size="10.00" fill="grey"> &#45;device_name</text>
</g>
<!-- Node7 -->
<g id="Node000007" class="node">
<title>Node7</title>
<g id="a_Node000007"><a xlink:title=" ">
<polygon fill="white" stroke="transparent" points="388.5,-707 356.5,-707 356.5,-658 388.5,-658 388.5,-707"/>
<text text-anchor="start" x="361.5" y="-694.5" font-family="Helvetica,sans-Serif" font-size="10.00">bool</text>
<text text-anchor="start" x="370.5" y="-679.5" font-family="Helvetica,sans-Serif" font-size="10.00"> </text>
<text text-anchor="start" x="370.5" y="-664.5" font-family="Helvetica,sans-Serif" font-size="10.00"> </text>
<polygon fill="#666666" stroke="#666666" points="356.5,-689.5 356.5,-689.5 388.5,-689.5 388.5,-689.5 356.5,-689.5"/>
<polygon fill="#666666" stroke="#666666" points="356.5,-674.5 356.5,-674.5 388.5,-674.5 388.5,-674.5 356.5,-674.5"/>
<polygon fill="none" stroke="#666666" points="356.5,-658 356.5,-707 388.5,-707 388.5,-658 356.5,-658"/>
</a>
</g>
</g>
<!-- Node7&#45;&gt;Node1 -->
<g id="edge10_Node000001_Node000007" class="edge">
<title>Node7&#45;&gt;Node1</title>
<g id="a_edge10_Node000001_Node000007"><a xlink:title=" ">
<path fill="none" stroke="#63b8ff" d="M384.29,-657.81C386.71,-652.1 388.97,-645.93 390.5,-640 429.4,-488.67 403.94,-445.02 423.5,-290 426.72,-264.47 430.73,-237.08 434.76,-211.29"/>
<polygon fill="none" stroke="#63b8ff" points="434.8,-211.03 431.79,-204.48 436.67,-199.18 439.69,-205.73 434.8,-211.03"/>
</a>
</g>
<text text-anchor="middle" x="444.5" y="-405" font-family="Helvetica,sans-Serif" font-size="10.00" fill="grey"> &#45;active_file</text>
</g>
<!-- Node7&#45;&gt;Node3 -->
<g id="edge6_Node000003_Node000007" class="edge">
<title>Node7&#45;&gt;Node3</title>
<g id="a_edge6_Node000003_Node000007"><a xlink:title=" ">
<path fill="none" stroke="#63b8ff" d="M356.29,-660.6C345.15,-646.24 329.51,-626.09 313.46,-605.4"/>
<polygon fill="none" stroke="#63b8ff" points="313.43,-605.35 306.59,-603.06 306.07,-595.87 312.91,-598.16 313.43,-605.35"/>
</a>
</g>
<text text-anchor="middle" x="363" y="-626.5" font-family="Helvetica,sans-Serif" font-size="10.00" fill="grey"> #verified</text>
</g>
<!-- Node8 -->
<g id="Node000008" class="node">
<title>Node8</title>
<g id="a_Node000008"><a xlink:title=" ">
<polygon fill="white" stroke="transparent" points="482.5,-361.5 432.5,-361.5 432.5,-312.5 482.5,-312.5 482.5,-361.5"/>
<text text-anchor="start" x="437.5" y="-349" font-family="Helvetica,sans-Serif" font-size="10.00">uint32_t</text>
<text text-anchor="start" x="455.5" y="-334" font-family="Helvetica,sans-Serif" font-size="10.00"> </text>
<text text-anchor="start" x="455.5" y="-319" font-family="Helvetica,sans-Serif" font-size="10.00"> </text>
<polygon fill="#666666" stroke="#666666" points="432.5,-344 432.5,-344 482.5,-344 482.5,-344 432.5,-344"/>
<polygon fill="#666666" stroke="#666666" points="432.5,-329 432.5,-329 482.5,-329 482.5,-329 432.5,-329"/>
<polygon fill="none" stroke="#666666" points="432.5,-312.5 432.5,-361.5 482.5,-361.5 482.5,-312.5 432.5,-312.5"/>
</a>
</g>
</g>
<!-- Node8&#45;&gt;Node1 -->
<g id="edge7_Node000001_Node000008" class="edge">
<title>Node8&#45;&gt;Node1</title>
<g id="a_edge7_Node000001_Node000008"><a xlink:title=" ">
<path fill="none" stroke="#63b8ff" d="M456.16,-312.3C455.53,-300.24 454.85,-285.34 454.5,-272 453.98,-252.44 453.67,-231.61 453.48,-211.46"/>
<polygon fill="none" stroke="#63b8ff" points="453.48,-211.36 449.43,-205.39 453.38,-199.36 457.43,-205.33 453.48,-211.36"/>
</a>
</g>
<text text-anchor="middle" x="497.5" y="-264" font-family="Helvetica,sans-Serif" font-size="10.00" fill="grey"> &#45;FILE_HEADER</text>
<text text-anchor="middle" x="497.5" y="-253" font-family="Helvetica,sans-Serif" font-size="10.00" fill="grey">&#45;MAX_SIZE</text>
<text text-anchor="middle" x="497.5" y="-242" font-family="Helvetica,sans-Serif" font-size="10.00" fill="grey">&#45;SECTOR_SIZE</text>
<text text-anchor="middle" x="497.5" y="-231" font-family="Helvetica,sans-Serif" font-size="10.00" fill="grey">&#45;START_ADDRESS</text>
<text text-anchor="middle" x="497.5" y="-220" font-family="Helvetica,sans-Serif" font-size="10.00" fill="grey">&#45;address</text>
</g>
<!-- Node9 -->
<g id="Node000009" class="node">
<title>Node9</title>
<g id="a_Node000009"><a xlink:title=" ">
<polygon fill="white" stroke="transparent" points="620.5,-361.5 504.5,-361.5 504.5,-312.5 620.5,-312.5 620.5,-361.5"/>
<text text-anchor="start" x="509.5" y="-349" font-family="Helvetica,sans-Serif" font-size="10.00">vector&lt; FileHeader &gt;</text>
<text text-anchor="start" x="560.5" y="-334" font-family="Helvetica,sans-Serif" font-size="10.00"> </text>
<text text-anchor="start" x="560.5" y="-319" font-family="Helvetica,sans-Serif" font-size="10.00"> </text>
<polygon fill="#666666" stroke="#666666" points="504.5,-344 504.5,-344 620.5,-344 620.5,-344 504.5,-344"/>
<polygon fill="#666666" stroke="#666666" points="504.5,-329 504.5,-329 620.5,-329 620.5,-329 504.5,-329"/>
<polygon fill="none" stroke="#666666" points="504.5,-312.5 504.5,-361.5 620.5,-361.5 620.5,-312.5 504.5,-312.5"/>
</a>
</g>
</g>
<!-- Node9&#45;&gt;Node1 -->
<g id="edge8_Node000001_Node000009" class="edge">
<title>Node9&#45;&gt;Node1</title>
<g id="a_edge8_Node000001_Node000009"><a xlink:title=" ">
<path fill="none" stroke="#63b8ff" d="M561.29,-312.26C559.32,-287.56 554.13,-248.19 540.5,-217 533.52,-201.03 523.97,-185.19 513.75,-170.59"/>
<polygon fill="none" stroke="#63b8ff" points="513.62,-170.41 506.86,-167.89 506.59,-160.68 513.35,-163.2 513.62,-170.41"/>
</a>
</g>
<text text-anchor="middle" x="580" y="-242" font-family="Helvetica,sans-Serif" font-size="10.00" fill="grey"> &#45;file_data</text>
</g>
<!-- Node10 -->
<g id="Node000010" class="node">
<title>Node10</title>
<g id="a_Node000010"><a xlink:title=" ">
<polygon fill="white" stroke="transparent" points="724.5,-361.5 638.5,-361.5 638.5,-312.5 724.5,-312.5 724.5,-361.5"/>
<text text-anchor="start" x="643.5" y="-349" font-family="Helvetica,sans-Serif" font-size="10.00">SFE_SPI_FLASH</text>
<text text-anchor="start" x="679.5" y="-334" font-family="Helvetica,sans-Serif" font-size="10.00"> </text>
<text text-anchor="start" x="679.5" y="-319" font-family="Helvetica,sans-Serif" font-size="10.00"> </text>
<polygon fill="#666666" stroke="#666666" points="638.5,-344 638.5,-344 724.5,-344 724.5,-344 638.5,-344"/>
<polygon fill="#666666" stroke="#666666" points="638.5,-329 638.5,-329 724.5,-329 724.5,-329 638.5,-329"/>
<polygon fill="none" stroke="#666666" points="638.5,-312.5 638.5,-361.5 724.5,-361.5 724.5,-312.5 638.5,-312.5"/>
</a>
</g>
</g>
<!-- Node10&#45;&gt;Node1 -->
<g id="edge9_Node000001_Node000010" class="edge">
<title>Node10&#45;&gt;Node1</title>
<g id="a_edge9_Node000001_Node000010"><a xlink:title=" ">
<path fill="none" stroke="#63b8ff" d="M670.36,-312.33C657.69,-286.97 635.25,-246.4 608.5,-217 581.73,-187.58 546.66,-160.51 516.65,-139.87"/>
<polygon fill="none" stroke="#63b8ff" points="516.62,-139.86 509.41,-139.81 506.68,-133.13 513.89,-133.18 516.62,-139.86"/>
</a>
</g>
<text text-anchor="middle" x="662" y="-242" font-family="Helvetica,sans-Serif" font-size="10.00" fill="grey"> &#45;flash</text>
</g>
</g>
</svg>
