<?xml version="1.0" encoding="UTF-8" standalone="no"?>
<!DOCTYPE svg PUBLIC "-//W3C//DTD SVG 1.1//EN"
 "http://www.w3.org/Graphics/SVG/1.1/DTD/svg11.dtd">
<!-- Generated by graphviz version 2.43.0 (0)
 -->
<!-- Title: AS7331Sensor Pages: 1 -->
<svg width="635pt" height="691pt"
 viewBox="0.00 0.00 634.50 691.00" xmlns="http://www.w3.org/2000/svg" xmlns:xlink="http://www.w3.org/1999/xlink">
<g id="graph0" class="graph" transform="scale(1 1) rotate(0) translate(4 687)">
<title>AS7331Sensor</title>
<!-- Node1 -->
<g id="Node000001" class="node">
<title>Node1</title>
<g id="a_Node000001"><a xlink:title="Implementation of a Sensor for UVA/B/C sensor.">
<polygon fill="#999999" stroke="transparent" points="555.5,-124 449.5,-124 449.5,0 555.5,0 555.5,-124"/>
<text text-anchor="start" x="467.5" y="-112" font-family="Helvetica,sans-Serif" font-size="10.00">AS7331Sensor</text>
<text text-anchor="start" x="500.5" y="-97" font-family="Helvetica,sans-Serif" font-size="10.00"> </text>
<text text-anchor="start" x="453.5" y="-82" font-family="Helvetica,sans-Serif" font-size="10.00">+</text>
<text text-anchor="start" x="466.5" y="-82" font-family="Helvetica,sans-Serif" font-size="10.00">AS7331Sensor()</text>
<text text-anchor="start" x="453.5" y="-67" font-family="Helvetica,sans-Serif" font-size="10.00">+</text>
<text text-anchor="start" x="466.5" y="-67" font-family="Helvetica,sans-Serif" font-size="10.00">AS7331Sensor()</text>
<text text-anchor="start" x="453.5" y="-52" font-family="Helvetica,sans-Serif" font-size="10.00">+</text>
<text text-anchor="start" x="466.5" y="-52" font-family="Helvetica,sans-Serif" font-size="10.00">verify()</text>
<text text-anchor="start" x="453.5" y="-37" font-family="Helvetica,sans-Serif" font-size="10.00">+</text>
<text text-anchor="start" x="466.5" y="-37" font-family="Helvetica,sans-Serif" font-size="10.00">readDataPacket()</text>
<text text-anchor="start" x="453.5" y="-22" font-family="Helvetica,sans-Serif" font-size="10.00">+</text>
<text text-anchor="start" x="466.5" y="-22" font-family="Helvetica,sans-Serif" font-size="10.00">decodeToCSV()</text>
<text text-anchor="start" x="453.5" y="-7" font-family="Helvetica,sans-Serif" font-size="10.00">+</text>
<text text-anchor="start" x="466.5" y="-7" font-family="Helvetica,sans-Serif" font-size="10.00">readData()</text>
<polygon fill="#666666" stroke="#666666" points="449.5,-107 449.5,-107 555.5,-107 555.5,-107 449.5,-107"/>
<polygon fill="#666666" stroke="#666666" points="449.5,-92 449.5,-92 555.5,-92 555.5,-92 449.5,-92"/>
<polygon fill="none" stroke="#666666" points="449.5,0 449.5,-124 555.5,-124 555.5,0 449.5,0"/>
</a>
</g>
</g>
<!-- Node2 -->
<g id="Node000002" class="node">
<title>Node2</title>
<g id="a_Node000002"><a xlink:href="classSensor.html" target="_top" xlink:title="Parent class for sensor objects.">
<polygon fill="white" stroke="transparent" points="437,-370 304,-370 304,-171 437,-171 437,-370"/>
<text text-anchor="start" x="354" y="-357.5" font-family="Helvetica,sans-Serif" font-size="10.00">Sensor</text>
<text text-anchor="start" x="369" y="-342.5" font-family="Helvetica,sans-Serif" font-size="10.00"> </text>
<text text-anchor="start" x="308.5" y="-327.5" font-family="Helvetica,sans-Serif" font-size="10.00">+</text>
<text text-anchor="start" x="321.5" y="-327.5" font-family="Helvetica,sans-Serif" font-size="10.00">Sensor()</text>
<text text-anchor="start" x="308.5" y="-312.5" font-family="Helvetica,sans-Serif" font-size="10.00">+</text>
<text text-anchor="start" x="321.5" y="-312.5" font-family="Helvetica,sans-Serif" font-size="10.00">Sensor()</text>
<text text-anchor="start" x="308.5" y="-297.5" font-family="Helvetica,sans-Serif" font-size="10.00">+</text>
<text text-anchor="start" x="321.5" y="-297.5" font-family="Helvetica,sans-Serif" font-size="10.00">Sensor()</text>
<text text-anchor="start" x="308.5" y="-282.5" font-family="Helvetica,sans-Serif" font-size="10.00">+</text>
<text text-anchor="start" x="321.5" y="-282.5" font-family="Helvetica,sans-Serif" font-size="10.00">Sensor()</text>
<text text-anchor="start" x="308.5" y="-267.5" font-family="Helvetica,sans-Serif" font-size="10.00">+</text>
<text text-anchor="start" x="321.5" y="-267.5" font-family="Helvetica,sans-Serif" font-size="10.00">getPeriod()</text>
<text text-anchor="start" x="308.5" y="-252.5" font-family="Helvetica,sans-Serif" font-size="10.00">+</text>
<text text-anchor="start" x="321.5" y="-252.5" font-family="Helvetica,sans-Serif" font-size="10.00">setPeriod()</text>
<text text-anchor="start" x="308.5" y="-237.5" font-family="Helvetica,sans-Serif" font-size="10.00">+</text>
<text text-anchor="start" x="321.5" y="-237.5" font-family="Helvetica,sans-Serif" font-size="10.00">getLastExecution()</text>
<text text-anchor="start" x="308.5" y="-222.5" font-family="Helvetica,sans-Serif" font-size="10.00">+</text>
<text text-anchor="start" x="321.5" y="-222.5" font-family="Helvetica,sans-Serif" font-size="10.00">setLastExecution()</text>
<text text-anchor="start" x="308.5" y="-207.5" font-family="Helvetica,sans-Serif" font-size="10.00">+</text>
<text text-anchor="start" x="321.5" y="-207.5" font-family="Helvetica,sans-Serif" font-size="10.00">getSensorCSVHeader()</text>
<text text-anchor="start" x="308.5" y="-192.5" font-family="Helvetica,sans-Serif" font-size="10.00">+</text>
<text text-anchor="start" x="321.5" y="-192.5" font-family="Helvetica,sans-Serif" font-size="10.00">verify()</text>
<text text-anchor="start" x="321.5" y="-177.5" font-family="Helvetica,sans-Serif" font-size="10.00">and 6 more...</text>
<polygon fill="#666666" stroke="#666666" points="304.5,-352.5 304.5,-352.5 437.5,-352.5 437.5,-352.5 304.5,-352.5"/>
<polygon fill="#666666" stroke="#666666" points="304.5,-337.5 304.5,-337.5 437.5,-337.5 437.5,-337.5 304.5,-337.5"/>
<polygon fill="none" stroke="#666666" points="304,-171 304,-370 437,-370 437,-171 304,-171"/>
</a>
</g>
</g>
<!-- Node2&#45;&gt;Node1 -->
<g id="edge1_Node000001_Node000002" class="edge">
<title>Node2&#45;&gt;Node1</title>
<g id="a_edge1_Node000001_Node000002"><a xlink:title=" ">
<path fill="none" stroke="#63b8ff" d="M439.07,-162.23C447.39,-149.21 455.66,-136.28 463.34,-124.26"/>
<polygon fill="none" stroke="#63b8ff" points="436.04,-160.48 433.6,-170.79 441.94,-164.25 436.04,-160.48"/>
</a>
</g>
</g>
<!-- Node3 -->
<g id="Node000003" class="node">
<title>Node3</title>
<g id="a_Node000003"><a xlink:href="classDevice.html" target="_top" xlink:title="Implements the recovery system for Sensor and Storage objects.">
<polygon fill="white" stroke="transparent" points="282,-576 159,-576 159,-407 282,-407 282,-576"/>
<text text-anchor="start" x="204" y="-563.5" font-family="Helvetica,sans-Serif" font-size="10.00">Device</text>
<text text-anchor="start" x="219" y="-548.5" font-family="Helvetica,sans-Serif" font-size="10.00"> </text>
<text text-anchor="start" x="163.5" y="-533.5" font-family="Helvetica,sans-Serif" font-size="10.00">+</text>
<text text-anchor="start" x="176.5" y="-533.5" font-family="Helvetica,sans-Serif" font-size="10.00">Device()</text>
<text text-anchor="start" x="163.5" y="-518.5" font-family="Helvetica,sans-Serif" font-size="10.00">+</text>
<text text-anchor="start" x="176.5" y="-518.5" font-family="Helvetica,sans-Serif" font-size="10.00">Device()</text>
<text text-anchor="start" x="163.5" y="-503.5" font-family="Helvetica,sans-Serif" font-size="10.00">+</text>
<text text-anchor="start" x="176.5" y="-503.5" font-family="Helvetica,sans-Serif" font-size="10.00">getDeviceName()</text>
<text text-anchor="start" x="163.5" y="-488.5" font-family="Helvetica,sans-Serif" font-size="10.00">+</text>
<text text-anchor="start" x="176.5" y="-488.5" font-family="Helvetica,sans-Serif" font-size="10.00">verify()</text>
<text text-anchor="start" x="163.5" y="-473.5" font-family="Helvetica,sans-Serif" font-size="10.00">+</text>
<text text-anchor="start" x="176.5" y="-473.5" font-family="Helvetica,sans-Serif" font-size="10.00">getVerified()</text>
<text text-anchor="start" x="163.5" y="-458.5" font-family="Helvetica,sans-Serif" font-size="10.00">+</text>
<text text-anchor="start" x="176.5" y="-458.5" font-family="Helvetica,sans-Serif" font-size="10.00">recoveryConfig()</text>
<text text-anchor="start" x="163.5" y="-443.5" font-family="Helvetica,sans-Serif" font-size="10.00">+</text>
<text text-anchor="start" x="176.5" y="-443.5" font-family="Helvetica,sans-Serif" font-size="10.00">setWaitFactor()</text>
<text text-anchor="start" x="163.5" y="-428.5" font-family="Helvetica,sans-Serif" font-size="10.00">+</text>
<text text-anchor="start" x="176.5" y="-428.5" font-family="Helvetica,sans-Serif" font-size="10.00">setMaxAttempts()</text>
<text text-anchor="start" x="163.5" y="-413.5" font-family="Helvetica,sans-Serif" font-size="10.00">+</text>
<text text-anchor="start" x="176.5" y="-413.5" font-family="Helvetica,sans-Serif" font-size="10.00">attemptConnection()</text>
<polygon fill="#666666" stroke="#666666" points="159.5,-558.5 159.5,-558.5 282.5,-558.5 282.5,-558.5 159.5,-558.5"/>
<polygon fill="#666666" stroke="#666666" points="159.5,-543.5 159.5,-543.5 282.5,-543.5 282.5,-543.5 159.5,-543.5"/>
<polygon fill="none" stroke="#666666" points="159,-407 159,-576 282,-576 282,-407 159,-407"/>
</a>
</g>
</g>
<!-- Node3&#45;&gt;Node2 -->
<g id="edge2_Node000002_Node000003" class="edge">
<title>Node3&#45;&gt;Node2</title>
<g id="a_edge2_Node000002_Node000003"><a xlink:title=" ">
<path fill="none" stroke="#63b8ff" d="M283.68,-398.25C290.37,-388.49 297.18,-378.55 303.9,-368.74"/>
<polygon fill="none" stroke="#63b8ff" points="280.61,-396.54 277.85,-406.77 286.39,-400.5 280.61,-396.54"/>
</a>
</g>
</g>
<!-- Node4 -->
<g id="Node000004" class="node">
<title>Node4</title>
<g id="a_Node000004"><a xlink:title=" ">
<polygon fill="white" stroke="transparent" points="79,-683 0,-683 0,-634 79,-634 79,-683"/>
<text text-anchor="start" x="5.5" y="-670.5" font-family="Helvetica,sans-Serif" font-size="10.00">unsigned long</text>
<text text-anchor="start" x="38" y="-655.5" font-family="Helvetica,sans-Serif" font-size="10.00"> </text>
<text text-anchor="start" x="38" y="-640.5" font-family="Helvetica,sans-Serif" font-size="10.00"> </text>
<polygon fill="#666666" stroke="#666666" points="0.5,-665.5 0.5,-665.5 79.5,-665.5 79.5,-665.5 0.5,-665.5"/>
<polygon fill="#666666" stroke="#666666" points="0.5,-650.5 0.5,-650.5 79.5,-650.5 79.5,-650.5 0.5,-650.5"/>
<polygon fill="none" stroke="#666666" points="0,-634 0,-683 79,-683 79,-634 0,-634"/>
</a>
</g>
</g>
<!-- Node4&#45;&gt;Node2 -->
<g id="edge7_Node000002_Node000004" class="edge">
<title>Node4&#45;&gt;Node2</title>
<g id="a_edge7_Node000002_Node000004"><a xlink:title=" ">
<path fill="none" stroke="#63b8ff" d="M34.27,-633.76C25.15,-585.86 11.73,-476.34 61.5,-407 115.21,-332.17 219.52,-298.15 292.01,-283.03"/>
<polygon fill="none" stroke="#63b8ff" points="292.04,-283.02 297.14,-277.93 303.8,-280.68 298.7,-285.77 292.04,-283.02"/>
</a>
</g>
<text text-anchor="middle" x="105.5" y="-494.5" font-family="Helvetica,sans-Serif" font-size="10.00" fill="grey"> &#45;last_execution</text>
<text text-anchor="middle" x="105.5" y="-483.5" font-family="Helvetica,sans-Serif" font-size="10.00" fill="grey">&#45;minimum_period</text>
</g>
<!-- Node4&#45;&gt;Node3 -->
<g id="edge3_Node000003_Node000004" class="edge">
<title>Node4&#45;&gt;Node3</title>
<g id="a_edge3_Node000003_Node000004"><a xlink:title=" ">
<path fill="none" stroke="#63b8ff" d="M52.87,-633.96C60.92,-621.14 72.01,-605.57 84.5,-594 95.91,-583.43 101.7,-584.83 114.5,-576 126.03,-568.05 137.95,-559.26 149.45,-550.46"/>
<polygon fill="none" stroke="#63b8ff" points="149.5,-550.42 151.8,-543.58 159,-543.08 156.7,-549.91 149.5,-550.42"/>
</a>
</g>
<text text-anchor="middle" x="119.5" y="-608" font-family="Helvetica,sans-Serif" font-size="10.00" fill="grey"> &#45;last_attempt</text>
<text text-anchor="middle" x="119.5" y="-597" font-family="Helvetica,sans-Serif" font-size="10.00" fill="grey">&#45;wait_factor</text>
</g>
<!-- Node5 -->
<g id="Node000005" class="node">
<title>Node5</title>
<g id="a_Node000005"><a xlink:title=" ">
<polygon fill="white" stroke="transparent" points="263,-683 240,-683 240,-634 263,-634 263,-683"/>
<text text-anchor="start" x="245.5" y="-670.5" font-family="Helvetica,sans-Serif" font-size="10.00">int</text>
<text text-anchor="start" x="250" y="-655.5" font-family="Helvetica,sans-Serif" font-size="10.00"> </text>
<text text-anchor="start" x="250" y="-640.5" font-family="Helvetica,sans-Serif" font-size="10.00"> </text>
<polygon fill="#666666" stroke="#666666" points="240.5,-665.5 240.5,-665.5 263.5,-665.5 263.5,-665.5 240.5,-665.5"/>
<polygon fill="#666666" stroke="#666666" points="240.5,-650.5 240.5,-650.5 263.5,-650.5 263.5,-650.5 240.5,-650.5"/>
<polygon fill="none" stroke="#666666" points="240,-634 240,-683 263,-683 263,-634 240,-634"/>
</a>
</g>
</g>
<!-- Node5&#45;&gt;Node2 -->
<g id="edge9_Node000002_Node000005" class="edge">
<title>Node5&#45;&gt;Node2</title>
<g id="a_edge9_Node000002_Node000005"><a xlink:title=" ">
<path fill="none" stroke="#63b8ff" d="M263.46,-656.15C296.68,-652.14 388.78,-639.09 406.5,-616 420.64,-597.58 404.61,-475.94 389.67,-382.37"/>
<polygon fill="none" stroke="#63b8ff" points="389.62,-382.09 384.72,-376.8 387.71,-370.24 392.61,-375.53 389.62,-382.09"/>
</a>
</g>
<text text-anchor="middle" x="445" y="-489" font-family="Helvetica,sans-Serif" font-size="10.00" fill="grey"> #num_fields</text>
</g>
<!-- Node5&#45;&gt;Node3 -->
<g id="edge4_Node000003_Node000005" class="edge">
<title>Node5&#45;&gt;Node3</title>
<g id="a_edge4_Node000003_Node000005"><a xlink:title=" ">
<path fill="none" stroke="#63b8ff" d="M239.78,-645.57C233.02,-637.84 225.16,-627.15 221.5,-616 218.59,-607.12 216.64,-597.68 215.41,-588.13"/>
<polygon fill="none" stroke="#63b8ff" points="215.39,-587.96 210.82,-582.38 214.21,-576.02 218.78,-581.59 215.39,-587.96"/>
</a>
</g>
<text text-anchor="middle" x="266" y="-608" font-family="Helvetica,sans-Serif" font-size="10.00" fill="grey"> &#45;attempt_number</text>
<text text-anchor="middle" x="266" y="-597" font-family="Helvetica,sans-Serif" font-size="10.00" fill="grey">&#45;max_attempts</text>
</g>
<!-- Node6 -->
<g id="Node000006" class="node">
<title>Node6</title>
<g id="a_Node000006"><a xlink:title=" ">
<polygon fill="white" stroke="transparent" points="446,-683 407,-683 407,-634 446,-634 446,-683"/>
<text text-anchor="start" x="412.5" y="-670.5" font-family="Helvetica,sans-Serif" font-size="10.00">String</text>
<text text-anchor="start" x="425" y="-655.5" font-family="Helvetica,sans-Serif" font-size="10.00"> </text>
<text text-anchor="start" x="425" y="-640.5" font-family="Helvetica,sans-Serif" font-size="10.00"> </text>
<polygon fill="#666666" stroke="#666666" points="407.5,-665.5 407.5,-665.5 446.5,-665.5 446.5,-665.5 407.5,-665.5"/>
<polygon fill="#666666" stroke="#666666" points="407.5,-650.5 407.5,-650.5 446.5,-650.5 446.5,-650.5 407.5,-650.5"/>
<polygon fill="none" stroke="#666666" points="407,-634 407,-683 446,-683 446,-634 407,-634"/>
</a>
</g>
</g>
<!-- Node6&#45;&gt;Node2 -->
<g id="edge8_Node000002_Node000006" class="edge">
<title>Node6&#45;&gt;Node2</title>
<g id="a_edge8_Node000002_Node000006"><a xlink:title=" ">
<path fill="none" stroke="#63b8ff" d="M446.11,-639.6C461.23,-624.37 480.95,-601.05 489.5,-576 513.77,-504.92 521.21,-475.09 489.5,-407 478.71,-383.84 463.12,-388.5 445.5,-370 445.41,-369.91 445.32,-369.82 445.24,-369.72"/>
<polygon fill="none" stroke="#63b8ff" points="445.2,-369.68 438.2,-367.97 437.08,-360.85 444.08,-362.56 445.2,-369.68"/>
</a>
</g>
<text text-anchor="middle" x="542" y="-494.5" font-family="Helvetica,sans-Serif" font-size="10.00" fill="grey"> &#45;csv_header</text>
<text text-anchor="middle" x="542" y="-483.5" font-family="Helvetica,sans-Serif" font-size="10.00" fill="grey">&#45;empty_csv</text>
</g>
<!-- Node6&#45;&gt;Node3 -->
<g id="edge5_Node000003_Node000006" class="edge">
<title>Node6&#45;&gt;Node3</title>
<g id="a_edge5_Node000003_Node000006"><a xlink:title=" ">
<path fill="none" stroke="#63b8ff" d="M406.75,-641.68C380.46,-620.62 332.55,-582.25 291.91,-549.7"/>
<polygon fill="none" stroke="#63b8ff" points="291.66,-549.5 284.48,-548.87 282.29,-541.99 289.48,-542.62 291.66,-549.5"/>
</a>
</g>
<text text-anchor="middle" x="408" y="-602.5" font-family="Helvetica,sans-Serif" font-size="10.00" fill="grey"> &#45;device_name</text>
</g>
<!-- Node7 -->
<g id="Node000007" class="node">
<title>Node7</title>
<g id="a_Node000007"><a xlink:title=" ">
<polygon fill="white" stroke="transparent" points="164.5,-683 132.5,-683 132.5,-634 164.5,-634 164.5,-683"/>
<text text-anchor="start" x="137.5" y="-670.5" font-family="Helvetica,sans-Serif" font-size="10.00">bool</text>
<text text-anchor="start" x="146.5" y="-655.5" font-family="Helvetica,sans-Serif" font-size="10.00"> </text>
<text text-anchor="start" x="146.5" y="-640.5" font-family="Helvetica,sans-Serif" font-size="10.00"> </text>
<polygon fill="#666666" stroke="#666666" points="132.5,-665.5 132.5,-665.5 164.5,-665.5 164.5,-665.5 132.5,-665.5"/>
<polygon fill="#666666" stroke="#666666" points="132.5,-650.5 132.5,-650.5 164.5,-650.5 164.5,-650.5 132.5,-650.5"/>
<polygon fill="none" stroke="#666666" points="132.5,-634 132.5,-683 164.5,-683 164.5,-634 132.5,-634"/>
</a>
</g>
</g>
<!-- Node7&#45;&gt;Node3 -->
<g id="edge6_Node000003_Node000007" class="edge">
<title>Node7&#45;&gt;Node3</title>
<g id="a_edge6_Node000003_Node000007"><a xlink:title=" ">
<path fill="none" stroke="#63b8ff" d="M152.95,-633.83C155.6,-621.68 159.46,-606.8 164.5,-594 165.37,-591.79 166.28,-589.56 167.23,-587.33"/>
<polygon fill="none" stroke="#63b8ff" points="167.32,-587.12 166.11,-580.02 172.2,-576.16 173.41,-583.27 167.32,-587.12"/>
</a>
</g>
<text text-anchor="middle" x="189" y="-602.5" font-family="Helvetica,sans-Serif" font-size="10.00" fill="grey"> #verified</text>
</g>
<!-- Node8 -->
<g id="Node000008" class="node">
<title>Node8</title>
<g id="a_Node000008"><a xlink:title=" ">
<polygon fill="white" stroke="transparent" points="550,-295 455,-295 455,-246 550,-246 550,-295"/>
<text text-anchor="start" x="460.5" y="-282.5" font-family="Helvetica,sans-Serif" font-size="10.00">SfeAS7331ArdI2C</text>
<text text-anchor="start" x="501" y="-267.5" font-family="Helvetica,sans-Serif" font-size="10.00"> </text>
<text text-anchor="start" x="501" y="-252.5" font-family="Helvetica,sans-Serif" font-size="10.00"> </text>
<polygon fill="#666666" stroke="#666666" points="455.5,-277.5 455.5,-277.5 550.5,-277.5 550.5,-277.5 455.5,-277.5"/>
<polygon fill="#666666" stroke="#666666" points="455.5,-262.5 455.5,-262.5 550.5,-262.5 550.5,-262.5 455.5,-262.5"/>
<polygon fill="none" stroke="#666666" points="455,-246 455,-295 550,-295 550,-246 455,-246"/>
</a>
</g>
</g>
<!-- Node8&#45;&gt;Node1 -->
<g id="edge10_Node000001_Node000008" class="edge">
<title>Node8&#45;&gt;Node1</title>
<g id="a_edge10_Node000001_Node000008"><a xlink:title=" ">
<path fill="none" stroke="#63b8ff" d="M502.5,-245.81C502.5,-219.24 502.5,-174.82 502.5,-136.42"/>
<polygon fill="none" stroke="#63b8ff" points="502.5,-136.2 498.5,-130.2 502.5,-124.2 506.5,-130.2 502.5,-136.2"/>
</a>
</g>
<text text-anchor="middle" x="537.5" y="-145" font-family="Helvetica,sans-Serif" font-size="10.00" fill="grey"> &#45;myUVSensor</text>
</g>
<!-- Node9 -->
<g id="Node000009" class="node">
<title>Node9</title>
<g id="a_Node000009"><a xlink:title=" ">
<polygon fill="white" stroke="transparent" points="617.5,-295 573.5,-295 573.5,-246 617.5,-246 617.5,-295"/>
<text text-anchor="start" x="578.5" y="-282.5" font-family="Helvetica,sans-Serif" font-size="10.00">uint8_t</text>
<text text-anchor="start" x="593.5" y="-267.5" font-family="Helvetica,sans-Serif" font-size="10.00"> </text>
<text text-anchor="start" x="593.5" y="-252.5" font-family="Helvetica,sans-Serif" font-size="10.00"> </text>
<polygon fill="#666666" stroke="#666666" points="573.5,-277.5 573.5,-277.5 617.5,-277.5 617.5,-277.5 573.5,-277.5"/>
<polygon fill="#666666" stroke="#666666" points="573.5,-262.5 573.5,-262.5 617.5,-262.5 617.5,-262.5 573.5,-262.5"/>
<polygon fill="none" stroke="#666666" points="573.5,-246 573.5,-295 617.5,-295 617.5,-246 573.5,-246"/>
</a>
</g>
</g>
<!-- Node9&#45;&gt;Node1 -->
<g id="edge11_Node000001_Node000009" class="edge">
<title>Node9&#45;&gt;Node1</title>
<g id="a_edge11_Node000001_Node000009"><a xlink:title=" ">
<path fill="none" stroke="#63b8ff" d="M595.29,-245.75C594.19,-219.2 589.77,-175.55 573.5,-142 570.58,-135.99 567.07,-130.09 563.19,-124.4"/>
<polygon fill="none" stroke="#63b8ff" points="562.95,-124.07 556.17,-121.6 555.84,-114.4 562.62,-116.87 562.95,-124.07"/>
</a>
</g>
<text text-anchor="middle" x="602" y="-145" font-family="Helvetica,sans-Serif" font-size="10.00" fill="grey"> &#45;i2c_addr</text>
</g>
</g>
</svg>
