<?xml version="1.0" encoding="UTF-8" standalone="no"?>
<!DOCTYPE svg PUBLIC "-//W3C//DTD SVG 1.1//EN"
 "http://www.w3.org/Graphics/SVG/1.1/DTD/svg11.dtd">
<!-- Generated by graphviz version 2.43.0 (0)
 -->
<!-- Title: FlashStorage Pages: 1 -->
<svg width="741pt" height="689pt"
 viewBox="0.00 0.00 740.50 689.00" xmlns="http://www.w3.org/2000/svg" xmlns:xlink="http://www.w3.org/1999/xlink">
<g id="graph0" class="graph" transform="scale(1 1) rotate(0) translate(4 685)">
<title>FlashStorage</title>
<!-- Node1 -->
<g id="node1" class="node">
<title>Node1</title>
<g id="a_node1"><a xlink:title=" ">
<polygon fill="#bfbfbf" stroke="black" points="423,-0.5 423,-189.5 530,-189.5 530,-0.5 423,-0.5"/>
<text text-anchor="middle" x="476.5" y="-177.5" font-family="Helvetica,sans-Serif" font-size="10.00">FlashStorage</text>
<polyline fill="none" stroke="black" points="423,-170.5 530,-170.5 "/>
<text text-anchor="middle" x="476.5" y="-158.5" font-family="Helvetica,sans-Serif" font-size="10.00"> </text>
<polyline fill="none" stroke="black" points="423,-151.5 530,-151.5 "/>
<text text-anchor="start" x="431" y="-139.5" font-family="Helvetica,sans-Serif" font-size="10.00">+ FlashStorage()</text>
<text text-anchor="start" x="431" y="-128.5" font-family="Helvetica,sans-Serif" font-size="10.00">+ verify()</text>
<text text-anchor="start" x="431" y="-117.5" font-family="Helvetica,sans-Serif" font-size="10.00">+ store()</text>
<text text-anchor="start" x="431" y="-106.5" font-family="Helvetica,sans-Serif" font-size="10.00">+ storePacket()</text>
<text text-anchor="start" x="431" y="-95.5" font-family="Helvetica,sans-Serif" font-size="10.00">+ dump()</text>
<text text-anchor="start" x="431" y="-84.5" font-family="Helvetica,sans-Serif" font-size="10.00">+ erase()</text>
<text text-anchor="start" x="431" y="-73.5" font-family="Helvetica,sans-Serif" font-size="10.00">+ download()</text>
<text text-anchor="start" x="431" y="-62.5" font-family="Helvetica,sans-Serif" font-size="10.00">+ getStatus()</text>
<text text-anchor="start" x="431" y="-51.5" font-family="Helvetica,sans-Serif" font-size="10.00">&#45; indexFlash()</text>
<text text-anchor="start" x="431" y="-40.5" font-family="Helvetica,sans-Serif" font-size="10.00">&#45; loadAddress()</text>
<text text-anchor="start" x="431" y="-29.5" font-family="Helvetica,sans-Serif" font-size="10.00">&#45; isSectorEmpty()</text>
<text text-anchor="start" x="431" y="-18.5" font-family="Helvetica,sans-Serif" font-size="10.00">&#45; readFileHeader()</text>
<text text-anchor="start" x="431" y="-7.5" font-family="Helvetica,sans-Serif" font-size="10.00">&#45; writeFileHeader()</text>
</a>
</g>
</g>
<!-- Node2 -->
<g id="node2" class="node">
<title>Node2</title>
<g id="a_node2"><a xlink:href="classStorage.html" target="_top" xlink:title="Parent class for all data storage devices (sd card, radio, etc)">
<polygon fill="none" stroke="black" points="242.5,-281.5 242.5,-371.5 334.5,-371.5 334.5,-281.5 242.5,-281.5"/>
<text text-anchor="middle" x="288.5" y="-359.5" font-family="Helvetica,sans-Serif" font-size="10.00">Storage</text>
<polyline fill="none" stroke="black" points="242.5,-352.5 334.5,-352.5 "/>
<text text-anchor="middle" x="288.5" y="-340.5" font-family="Helvetica,sans-Serif" font-size="10.00"> </text>
<polyline fill="none" stroke="black" points="242.5,-333.5 334.5,-333.5 "/>
<text text-anchor="start" x="250.5" y="-321.5" font-family="Helvetica,sans-Serif" font-size="10.00">+ Storage()</text>
<text text-anchor="start" x="250.5" y="-310.5" font-family="Helvetica,sans-Serif" font-size="10.00">+ verify()</text>
<text text-anchor="start" x="250.5" y="-299.5" font-family="Helvetica,sans-Serif" font-size="10.00">+ store()</text>
<text text-anchor="start" x="250.5" y="-288.5" font-family="Helvetica,sans-Serif" font-size="10.00">+ storePacket()</text>
</a>
</g>
</g>
<!-- Node2&#45;&gt;Node1 -->
<g id="edge1" class="edge">
<title>Node2&#45;&gt;Node1</title>
<path fill="none" stroke="midnightblue" d="M324.5,-272.99C339.17,-252.33 356.63,-228.65 373.5,-208 388.87,-189.18 406.5,-169.42 422.78,-151.83"/>
<polygon fill="none" stroke="midnightblue" points="321.51,-271.15 318.6,-281.34 327.23,-275.19 321.51,-271.15"/>
</g>
<!-- Node3 -->
<g id="node3" class="node">
<title>Node3</title>
<g id="a_node3"><a xlink:href="classDevice.html" target="_top" xlink:title="Implements the recovery system for Sensor and Storage objects.">
<polygon fill="none" stroke="black" points="147,-419.5 147,-564.5 276,-564.5 276,-419.5 147,-419.5"/>
<text text-anchor="middle" x="211.5" y="-552.5" font-family="Helvetica,sans-Serif" font-size="10.00">Device</text>
<polyline fill="none" stroke="black" points="147,-545.5 276,-545.5 "/>
<text text-anchor="middle" x="211.5" y="-533.5" font-family="Helvetica,sans-Serif" font-size="10.00"> </text>
<polyline fill="none" stroke="black" points="147,-526.5 276,-526.5 "/>
<text text-anchor="start" x="155" y="-514.5" font-family="Helvetica,sans-Serif" font-size="10.00">+ Device()</text>
<text text-anchor="start" x="155" y="-503.5" font-family="Helvetica,sans-Serif" font-size="10.00">+ Device()</text>
<text text-anchor="start" x="155" y="-492.5" font-family="Helvetica,sans-Serif" font-size="10.00">+ getDeviceName()</text>
<text text-anchor="start" x="155" y="-481.5" font-family="Helvetica,sans-Serif" font-size="10.00">+ verify()</text>
<text text-anchor="start" x="155" y="-470.5" font-family="Helvetica,sans-Serif" font-size="10.00">+ getVerified()</text>
<text text-anchor="start" x="155" y="-459.5" font-family="Helvetica,sans-Serif" font-size="10.00">+ recoveryConfig()</text>
<text text-anchor="start" x="155" y="-448.5" font-family="Helvetica,sans-Serif" font-size="10.00">+ setWaitFactor()</text>
<text text-anchor="start" x="155" y="-437.5" font-family="Helvetica,sans-Serif" font-size="10.00">+ setMaxAttempts()</text>
<text text-anchor="start" x="155" y="-426.5" font-family="Helvetica,sans-Serif" font-size="10.00">+ attemptConnection()</text>
</a>
</g>
</g>
<!-- Node3&#45;&gt;Node2 -->
<g id="edge2" class="edge">
<title>Node3&#45;&gt;Node2</title>
<path fill="none" stroke="midnightblue" d="M249.56,-410.17C255.78,-396.98 262.01,-383.75 267.6,-371.87"/>
<polygon fill="none" stroke="midnightblue" points="246.37,-408.75 245.27,-419.29 252.7,-411.73 246.37,-408.75"/>
</g>
<!-- Node4 -->
<g id="node4" class="node">
<title>Node4</title>
<g id="a_node4"><a xlink:title=" ">
<polygon fill="none" stroke="#bfbfbf" points="0,-623.5 0,-680.5 45,-680.5 45,-623.5 0,-623.5"/>
<text text-anchor="middle" x="22.5" y="-668.5" font-family="Helvetica,sans-Serif" font-size="10.00">String</text>
<polyline fill="none" stroke="#bfbfbf" points="0,-661.5 45,-661.5 "/>
<text text-anchor="middle" x="22.5" y="-649.5" font-family="Helvetica,sans-Serif" font-size="10.00"> </text>
<polyline fill="none" stroke="#bfbfbf" points="0,-642.5 45,-642.5 "/>
<text text-anchor="middle" x="22.5" y="-630.5" font-family="Helvetica,sans-Serif" font-size="10.00"> </text>
</a>
</g>
</g>
<!-- Node4&#45;&gt;Node3 -->
<g id="edge3" class="edge">
<title>Node4&#45;&gt;Node3</title>
<path fill="none" stroke="#404040" d="M30.23,-623.2C34.99,-609.88 42.2,-594.38 52.5,-583 75.34,-557.77 106.96,-537.88 135.99,-523.28"/>
<polygon fill="none" stroke="#404040" points="136.18,-523.19 139.83,-516.97 146.97,-517.95 143.32,-524.17 136.18,-523.19"/>
<text text-anchor="middle" x="89" y="-591.5" font-family="Helvetica,sans-Serif" font-size="10.00"> &#45;device_name</text>
</g>
<!-- Node5 -->
<g id="node5" class="node">
<title>Node5</title>
<g id="a_node5"><a xlink:title=" ">
<polygon fill="none" stroke="#bfbfbf" points="76,-623.5 76,-680.5 161,-680.5 161,-623.5 76,-623.5"/>
<text text-anchor="middle" x="118.5" y="-668.5" font-family="Helvetica,sans-Serif" font-size="10.00">unsigned long</text>
<polyline fill="none" stroke="#bfbfbf" points="76,-661.5 161,-661.5 "/>
<text text-anchor="middle" x="118.5" y="-649.5" font-family="Helvetica,sans-Serif" font-size="10.00"> </text>
<polyline fill="none" stroke="#bfbfbf" points="76,-642.5 161,-642.5 "/>
<text text-anchor="middle" x="118.5" y="-630.5" font-family="Helvetica,sans-Serif" font-size="10.00"> </text>
</a>
</g>
</g>
<!-- Node5&#45;&gt;Node3 -->
<g id="edge4" class="edge">
<title>Node5&#45;&gt;Node3</title>
<path fill="none" stroke="#404040" d="M123.51,-623.22C126.49,-610.49 130.99,-595.5 137.5,-583 138.91,-580.29 140.41,-577.59 141.99,-574.9"/>
<polygon fill="none" stroke="#404040" points="142.05,-574.81 141.84,-567.6 148.41,-564.64 148.62,-571.84 142.05,-574.81"/>
<text text-anchor="middle" x="172.5" y="-597" font-family="Helvetica,sans-Serif" font-size="10.00"> &#45;last_attempt</text>
<text text-anchor="middle" x="172.5" y="-586" font-family="Helvetica,sans-Serif" font-size="10.00">&#45;wait_factor</text>
</g>
<!-- Node6 -->
<g id="node6" class="node">
<title>Node6</title>
<g id="a_node6"><a xlink:title=" ">
<polygon fill="none" stroke="#bfbfbf" points="197,-623.5 197,-680.5 226,-680.5 226,-623.5 197,-623.5"/>
<text text-anchor="middle" x="211.5" y="-668.5" font-family="Helvetica,sans-Serif" font-size="10.00">int</text>
<polyline fill="none" stroke="#bfbfbf" points="197,-661.5 226,-661.5 "/>
<text text-anchor="middle" x="211.5" y="-649.5" font-family="Helvetica,sans-Serif" font-size="10.00"> </text>
<polyline fill="none" stroke="#bfbfbf" points="197,-642.5 226,-642.5 "/>
<text text-anchor="middle" x="211.5" y="-630.5" font-family="Helvetica,sans-Serif" font-size="10.00"> </text>
</a>
</g>
</g>
<!-- Node6&#45;&gt;Node3 -->
<g id="edge5" class="edge">
<title>Node6&#45;&gt;Node3</title>
<path fill="none" stroke="#404040" d="M211.5,-623.48C211.5,-610.32 211.5,-593.78 211.5,-576.94"/>
<polygon fill="none" stroke="#404040" points="211.5,-576.67 207.5,-570.67 211.5,-564.67 215.5,-570.67 211.5,-576.67"/>
<text text-anchor="middle" x="256" y="-597" font-family="Helvetica,sans-Serif" font-size="10.00"> &#45;attempt_number</text>
<text text-anchor="middle" x="256" y="-586" font-family="Helvetica,sans-Serif" font-size="10.00">&#45;max_attempts</text>
</g>
<!-- Node7 -->
<g id="node7" class="node">
<title>Node7</title>
<g id="a_node7"><a xlink:title=" ">
<polygon fill="none" stroke="#bfbfbf" points="336.5,-623.5 336.5,-680.5 374.5,-680.5 374.5,-623.5 336.5,-623.5"/>
<text text-anchor="middle" x="355.5" y="-668.5" font-family="Helvetica,sans-Serif" font-size="10.00">bool</text>
<polyline fill="none" stroke="#bfbfbf" points="336.5,-661.5 374.5,-661.5 "/>
<text text-anchor="middle" x="355.5" y="-649.5" font-family="Helvetica,sans-Serif" font-size="10.00"> </text>
<polyline fill="none" stroke="#bfbfbf" points="336.5,-642.5 374.5,-642.5 "/>
<text text-anchor="middle" x="355.5" y="-630.5" font-family="Helvetica,sans-Serif" font-size="10.00"> </text>
</a>
</g>
</g>
<!-- Node7&#45;&gt;Node1 -->
<g id="edge9" class="edge">
<title>Node7&#45;&gt;Node1</title>
<path fill="none" stroke="#404040" d="M367.78,-623.17C369.99,-617.27 372.05,-611 373.5,-605 407.52,-464.31 373.27,-421.88 406.5,-281 412.75,-254.51 421.84,-226.68 431.41,-200.89"/>
<polygon fill="none" stroke="#404040" points="431.44,-200.81 429.82,-193.78 435.69,-189.58 437.31,-196.61 431.44,-200.81"/>
<text text-anchor="middle" x="420.5" y="-393" font-family="Helvetica,sans-Serif" font-size="10.00"> &#45;active_file</text>
</g>
<!-- Node7&#45;&gt;Node3 -->
<g id="edge6" class="edge">
<title>Node7&#45;&gt;Node3</title>
<path fill="none" stroke="#404040" d="M336.42,-625.57C326.37,-612.55 313.64,-596.61 301.5,-583 296.16,-577.02 290.53,-570.92 284.8,-564.87"/>
<polygon fill="none" stroke="#404040" points="284.64,-564.71 277.6,-563.14 276.34,-556.04 283.38,-557.61 284.64,-564.71"/>
<text text-anchor="middle" x="345" y="-591.5" font-family="Helvetica,sans-Serif" font-size="10.00"> #verified</text>
</g>
<!-- Node8 -->
<g id="node8" class="node">
<title>Node8</title>
<g id="a_node8"><a xlink:title=" ">
<polygon fill="none" stroke="#bfbfbf" points="415.5,-298 415.5,-355 537.5,-355 537.5,-298 415.5,-298"/>
<text text-anchor="middle" x="476.5" y="-343" font-family="Helvetica,sans-Serif" font-size="10.00">vector&lt; FileHeader &gt;</text>
<polyline fill="none" stroke="#bfbfbf" points="415.5,-336 537.5,-336 "/>
<text text-anchor="middle" x="476.5" y="-324" font-family="Helvetica,sans-Serif" font-size="10.00"> </text>
<polyline fill="none" stroke="#bfbfbf" points="415.5,-317 537.5,-317 "/>
<text text-anchor="middle" x="476.5" y="-305" font-family="Helvetica,sans-Serif" font-size="10.00"> </text>
</a>
</g>
</g>
<!-- Node8&#45;&gt;Node1 -->
<g id="edge7" class="edge">
<title>Node8&#45;&gt;Node1</title>
<path fill="none" stroke="#404040" d="M476.5,-297.82C476.5,-273.77 476.5,-237.34 476.5,-202.03"/>
<polygon fill="none" stroke="#404040" points="476.5,-201.6 472.5,-195.6 476.5,-189.6 480.5,-195.6 476.5,-201.6"/>
<text text-anchor="middle" x="501.5" y="-233" font-family="Helvetica,sans-Serif" font-size="10.00"> &#45;file_data</text>
</g>
<!-- Node9 -->
<g id="node9" class="node">
<title>Node9</title>
<g id="a_node9"><a xlink:title=" ">
<polygon fill="none" stroke="#bfbfbf" points="555.5,-298 555.5,-355 611.5,-355 611.5,-298 555.5,-298"/>
<text text-anchor="middle" x="583.5" y="-343" font-family="Helvetica,sans-Serif" font-size="10.00">uint32_t</text>
<polyline fill="none" stroke="#bfbfbf" points="555.5,-336 611.5,-336 "/>
<text text-anchor="middle" x="583.5" y="-324" font-family="Helvetica,sans-Serif" font-size="10.00"> </text>
<polyline fill="none" stroke="#bfbfbf" points="555.5,-317 611.5,-317 "/>
<text text-anchor="middle" x="583.5" y="-305" font-family="Helvetica,sans-Serif" font-size="10.00"> </text>
</a>
</g>
</g>
<!-- Node9&#45;&gt;Node1 -->
<g id="edge8" class="edge">
<title>Node9&#45;&gt;Node1</title>
<path fill="none" stroke="#404040" d="M571.28,-297.87C560.66,-274 544.79,-238.62 530.5,-208 529.37,-205.58 528.22,-203.12 527.06,-200.65"/>
<polygon fill="none" stroke="#404040" points="527.02,-200.57 520.85,-196.85 521.9,-189.72 528.08,-193.44 527.02,-200.57"/>
<text text-anchor="middle" x="600" y="-255" font-family="Helvetica,sans-Serif" font-size="10.00"> &#45;START_ADDRESS</text>
<text text-anchor="middle" x="600" y="-244" font-family="Helvetica,sans-Serif" font-size="10.00">&#45;FILE_HEADER</text>
<text text-anchor="middle" x="600" y="-233" font-family="Helvetica,sans-Serif" font-size="10.00">&#45;address</text>
<text text-anchor="middle" x="600" y="-222" font-family="Helvetica,sans-Serif" font-size="10.00">&#45;SECTOR_SIZE</text>
<text text-anchor="middle" x="600" y="-211" font-family="Helvetica,sans-Serif" font-size="10.00">&#45;MAX_SIZE</text>
</g>
<!-- Node10 -->
<g id="node10" class="node">
<title>Node10</title>
<g id="a_node10"><a xlink:title=" ">
<polygon fill="none" stroke="#bfbfbf" points="640.5,-298 640.5,-355 732.5,-355 732.5,-298 640.5,-298"/>
<text text-anchor="middle" x="686.5" y="-343" font-family="Helvetica,sans-Serif" font-size="10.00">SFE_SPI_FLASH</text>
<polyline fill="none" stroke="#bfbfbf" points="640.5,-336 732.5,-336 "/>
<text text-anchor="middle" x="686.5" y="-324" font-family="Helvetica,sans-Serif" font-size="10.00"> </text>
<polyline fill="none" stroke="#bfbfbf" points="640.5,-317 732.5,-317 "/>
<text text-anchor="middle" x="686.5" y="-305" font-family="Helvetica,sans-Serif" font-size="10.00"> </text>
</a>
</g>
</g>
<!-- Node10&#45;&gt;Node1 -->
<g id="edge10" class="edge">
<title>Node10&#45;&gt;Node1</title>
<path fill="none" stroke="#404040" d="M683.22,-297.87C679.03,-272.37 669.71,-234.55 649.5,-208 621.51,-171.23 577.74,-143.06 541.23,-124.17"/>
<polygon fill="none" stroke="#404040" points="540.88,-123.99 533.72,-124.87 530.15,-118.6 537.31,-117.72 540.88,-123.99"/>
<text text-anchor="middle" x="690" y="-233" font-family="Helvetica,sans-Serif" font-size="10.00"> &#45;flash</text>
</g>
</g>
</svg>
