<?xml version="1.0" encoding="UTF-8" standalone="no"?>
<!DOCTYPE svg PUBLIC "-//W3C//DTD SVG 1.1//EN"
 "http://www.w3.org/Graphics/SVG/1.1/DTD/svg11.dtd">
<!-- Generated by graphviz version 2.43.0 (0)
 -->
<!-- Title: Sensor::readEmpty Pages: 1 -->
<svg width="430pt" height="175pt"
 viewBox="0.00 0.00 430.00 175.00" xmlns="http://www.w3.org/2000/svg" xmlns:xlink="http://www.w3.org/1999/xlink">
<g id="graph0" class="graph" transform="scale(1 1) rotate(0) translate(4 171)">
<title>Sensor::readEmpty</title>
<!-- Node1 -->
<g id="Node000001" class="node">
<title>Node1</title>
<g id="a_Node000001"><a xlink:title="Returns CSV line in the same format as readData() but with &quot;&#45;&quot; instead of data.">
<polygon fill="#999999" stroke="#666666" points="422,-93 313,-93 313,-74 422,-74 422,-93"/>
<text text-anchor="middle" x="367.5" y="-81" font-family="Helvetica,sans-Serif" font-size="10.00">Sensor::readEmpty</text>
</a>
</g>
</g>
<!-- Node2 -->
<g id="Node000002" class="node">
<title>Node2</title>
<g id="a_Node000002"><a xlink:href="main_8cpp.html#a9163644b089001958496a71b73b9091a" target="_top" xlink:title="Decodes the packet to a CSV row.">
<polygon fill="white" stroke="#666666" points="245.5,-167 162.5,-167 162.5,-148 245.5,-148 245.5,-167"/>
<text text-anchor="middle" x="204" y="-155" font-family="Helvetica,sans-Serif" font-size="10.00">decodePacket</text>
</a>
</g>
</g>
<!-- Node1&#45;&gt;Node2 -->
<g id="edge1_Node000001_Node000002" class="edge">
<title>Node1&#45;&gt;Node2</title>
<g id="a_edge1_Node000001_Node000002"><a xlink:title=" ">
<path fill="none" stroke="#63b8ff" d="M345.84,-99.06C328.34,-111.59 302.14,-128.81 277,-139.5 267.16,-143.68 256.13,-147.05 245.72,-149.68"/>
<polygon fill="#63b8ff" stroke="#63b8ff" points="348.14,-101.72 354.16,-93 344.01,-96.07 348.14,-101.72"/>
</a>
</g>
</g>
<!-- Node4 -->
<g id="Node000004" class="node">
<title>Node4</title>
<g id="a_Node000004"><a xlink:href="classSensor.html#a2d5ecda6a046ddba40d0e37921226d2f" target="_top" xlink:title="Uses readData and readEmpty to get the data&#45;filled or empty&#45;celled CSV line for the sensor.">
<polygon fill="white" stroke="#666666" points="261,-130 147,-130 147,-111 261,-111 261,-130"/>
<text text-anchor="middle" x="204" y="-118" font-family="Helvetica,sans-Serif" font-size="10.00">Sensor::getDataCSV</text>
</a>
</g>
</g>
<!-- Node1&#45;&gt;Node4 -->
<g id="edge3_Node000001_Node000004" class="edge">
<title>Node1&#45;&gt;Node4</title>
<g id="a_edge3_Node000001_Node000004"><a xlink:title=" ">
<path fill="none" stroke="#63b8ff" d="M315.05,-95.29C293,-100.34 267.58,-106.16 246.73,-110.94"/>
<polygon fill="#63b8ff" stroke="#63b8ff" points="315.94,-98.67 324.91,-93.03 314.38,-91.85 315.94,-98.67"/>
</a>
</g>
</g>
<!-- Node6 -->
<g id="Node000006" class="node">
<title>Node6</title>
<g id="a_Node000006"><a xlink:href="classBMP390Sensor.html#ae0499577320b347c8fccf855193c57ac" target="_top" xlink:title="Reads data to a csv stub.">
<polygon fill="white" stroke="#666666" points="274,-93 134,-93 134,-74 274,-74 274,-93"/>
<text text-anchor="middle" x="204" y="-81" font-family="Helvetica,sans-Serif" font-size="10.00">BMP390Sensor::readData</text>
</a>
</g>
</g>
<!-- Node1&#45;&gt;Node6 -->
<g id="edge5_Node000001_Node000006" class="edge">
<title>Node1&#45;&gt;Node6</title>
<g id="a_edge5_Node000001_Node000006"><a xlink:title=" ">
<path fill="none" stroke="#63b8ff" d="M302.67,-83.5C293.28,-83.5 283.56,-83.5 274.06,-83.5"/>
<polygon fill="#63b8ff" stroke="#63b8ff" points="302.72,-87 312.72,-83.5 302.72,-80 302.72,-87"/>
</a>
</g>
</g>
<!-- Node7 -->
<g id="Node000007" class="node">
<title>Node7</title>
<g id="a_Node000007"><a xlink:href="classENS160Sensor.html#aac8ea849d26c4a6a567924805d378990" target="_top" xlink:title="Reads Air Quality Index, TVOC (ppb), and ECOS (ppm)">
<polygon fill="white" stroke="#666666" points="273,-56 135,-56 135,-37 273,-37 273,-56"/>
<text text-anchor="middle" x="204" y="-44" font-family="Helvetica,sans-Serif" font-size="10.00">ENS160Sensor::readData</text>
</a>
</g>
</g>
<!-- Node1&#45;&gt;Node7 -->
<g id="edge6_Node000001_Node000007" class="edge">
<title>Node1&#45;&gt;Node7</title>
<g id="a_edge6_Node000001_Node000007"><a xlink:title=" ">
<path fill="none" stroke="#63b8ff" d="M315.05,-71.71C293,-66.66 267.58,-60.84 246.73,-56.06"/>
<polygon fill="#63b8ff" stroke="#63b8ff" points="314.38,-75.15 324.91,-73.97 315.94,-68.33 314.38,-75.15"/>
</a>
</g>
</g>
<!-- Node8 -->
<g id="Node000008" class="node">
<title>Node8</title>
<g id="a_Node000008"><a xlink:href="classMTK3339Sensor.html#a632c895115930d476540fed7d6537635" target="_top" xlink:title="Reads and returns data from the MTK3339 GPS corresponding to the CSV header.">
<polygon fill="white" stroke="#666666" points="277,-19 131,-19 131,0 277,0 277,-19"/>
<text text-anchor="middle" x="204" y="-7" font-family="Helvetica,sans-Serif" font-size="10.00">MTK3339Sensor::readData</text>
</a>
</g>
</g>
<!-- Node1&#45;&gt;Node8 -->
<g id="edge7_Node000001_Node000008" class="edge">
<title>Node1&#45;&gt;Node8</title>
<g id="a_edge7_Node000001_Node000008"><a xlink:title=" ">
<path fill="none" stroke="#63b8ff" d="M345.16,-67.9C327.61,-55.69 301.7,-39.07 277,-28.5 268.32,-24.79 258.74,-21.64 249.48,-19.05"/>
<polygon fill="#63b8ff" stroke="#63b8ff" points="343.34,-70.9 353.52,-73.82 347.39,-65.18 343.34,-70.9"/>
</a>
</g>
</g>
<!-- Node3 -->
<g id="Node000003" class="node">
<title>Node3</title>
<g id="a_Node000003"><a xlink:href="main_8cpp.html#afe461d27b9c48d5921c00d521181f12f" target="_top" xlink:title="Loop for core 0, handling sensor reads.">
<polygon fill="white" stroke="#666666" points="66.5,-167 28.5,-167 28.5,-148 66.5,-148 66.5,-167"/>
<text text-anchor="middle" x="47.5" y="-155" font-family="Helvetica,sans-Serif" font-size="10.00">loop</text>
</a>
</g>
</g>
<!-- Node2&#45;&gt;Node3 -->
<g id="edge2_Node000002_Node000003" class="edge">
<title>Node2&#45;&gt;Node3</title>
<g id="a_edge2_Node000002_Node000003"><a xlink:title=" ">
<path fill="none" stroke="#63b8ff" d="M152.31,-157.5C122.99,-157.5 87.86,-157.5 66.9,-157.5"/>
<polygon fill="#63b8ff" stroke="#63b8ff" points="152.41,-161 162.41,-157.5 152.41,-154 152.41,-161"/>
</a>
</g>
</g>
<!-- Node5 -->
<g id="Node000005" class="node">
<title>Node5</title>
<g id="a_Node000005"><a xlink:href="main_8cpp.html#a9db5e6113d9a0bd03a1b044059ae787b" target="_top" xlink:title="Read data from each verified Sensor.">
<polygon fill="white" stroke="#666666" points="95,-130 0,-130 0,-111 95,-111 95,-130"/>
<text text-anchor="middle" x="47.5" y="-118" font-family="Helvetica,sans-Serif" font-size="10.00">readSensorData</text>
</a>
</g>
</g>
<!-- Node4&#45;&gt;Node5 -->
<g id="edge4_Node000004_Node000005" class="edge">
<title>Node4&#45;&gt;Node5</title>
<g id="a_edge4_Node000004_Node000005"><a xlink:title=" ">
<path fill="none" stroke="#63b8ff" d="M136.74,-120.5C122.78,-120.5 108.34,-120.5 95.28,-120.5"/>
<polygon fill="#63b8ff" stroke="#63b8ff" points="136.78,-124 146.78,-120.5 136.78,-117 136.78,-124"/>
</a>
</g>
</g>
</g>
</svg>
