<?xml version="1.0" encoding="UTF-8" standalone="no"?>
<!DOCTYPE svg PUBLIC "-//W3C//DTD SVG 1.1//EN"
 "http://www.w3.org/Graphics/SVG/1.1/DTD/svg11.dtd">
<!-- Generated by graphviz version 2.43.0 (0)
 -->
<!-- Title: TempSensor Pages: 1 -->
<!--zoomable 680 -->
<svg id="main" version="1.1" xmlns="http://www.w3.org/2000/svg" xmlns:xlink="http://www.w3.org/1999/xlink" xml:space="preserve" onload="init(evt)">
<style type="text/css"><![CDATA[
.edge:hover path { stroke: red; }
.edge:hover polygon { stroke: red; fill: red; }
]]></style>
<script type="text/javascript"><![CDATA[
var edges = document.getElementsByTagName('g');
if (edges && edges.length) {
  for (var i=0;i<edges.length;i++) {
    if (edges[i].id.substr(0,4)=='edge') {
      edges[i].setAttribute('class','edge');
    }
  }
}
]]></script>
        <defs>
                <circle id="rim" cx="0" cy="0" r="7"/>
                <circle id="rim2" cx="0" cy="0" r="3.5"/>
                <g id="zoomPlus">
                        <use xlink:href="#rim" fill="#404040">
                                <set attributeName="fill" to="#808080" begin="zoomplus.mouseover" end="zoomplus.mouseout"/>
                        </use>
                        <path d="M-4,0h8M0,-4v8" fill="none" stroke="white" stroke-width="1.5" pointer-events="none"/>
                </g>
                <g id="zoomMin">
                        <use xlink:href="#rim" fill="#404040">
                                <set attributeName="fill" to="#808080" begin="zoomminus.mouseover" end="zoomminus.mouseout"/>
                        </use>
                        <path d="M-4,0h8" fill="none" stroke="white" stroke-width="1.5" pointer-events="none"/>
                </g>
                <g id="dirArrow">
                        <path fill="none" stroke="white" stroke-width="1.5" d="M0,-3.0v7 M-2.5,-0.5L0,-3.0L2.5,-0.5"/>
                </g>
               <g id="resetDef">
                       <use xlink:href="#rim2" fill="#404040">
                               <set attributeName="fill" to="#808080" begin="reset.mouseover" end="reset.mouseout"/>
                       </use>
               </g>
        </defs>

<script type="text/javascript">
var viewWidth = 589;
var viewHeight = 680;
var sectionId = 'dynsection-1';
</script>
<script xlink:href="svgpan.js"/>
<svg id="graph" class="graph">
<g id="viewport">
<title>TempSensor</title>
<!-- Node1 -->
<g id="node1" class="node">
<title>Node1</title>
<g id="a_node1"><a xlink:title="Implementation of a Sensor for the onboard temperature sensor.">
<polygon fill="#bfbfbf" stroke="black" points="297,-0.5 297,-112.5 410,-112.5 410,-0.5 297,-0.5"/>
<text text-anchor="middle" x="353.5" y="-100.5" font-family="Helvetica,sans-Serif" font-size="10.00">TempSensor</text>
<polyline fill="none" stroke="black" points="297,-93.5 410,-93.5 "/>
<text text-anchor="middle" x="353.5" y="-81.5" font-family="Helvetica,sans-Serif" font-size="10.00"> </text>
<polyline fill="none" stroke="black" points="297,-74.5 410,-74.5 "/>
<text text-anchor="start" x="305" y="-62.5" font-family="Helvetica,sans-Serif" font-size="10.00">+ TempSensor()</text>
<text text-anchor="start" x="305" y="-51.5" font-family="Helvetica,sans-Serif" font-size="10.00">+ TempSensor()</text>
<text text-anchor="start" x="305" y="-40.5" font-family="Helvetica,sans-Serif" font-size="10.00">+ verify()</text>
<text text-anchor="start" x="305" y="-29.5" font-family="Helvetica,sans-Serif" font-size="10.00">+ readData()</text>
<text text-anchor="start" x="305" y="-18.5" font-family="Helvetica,sans-Serif" font-size="10.00">+ readDataPacket()</text>
<text text-anchor="start" x="305" y="-7.5" font-family="Helvetica,sans-Serif" font-size="10.00">+ decodeToCSV()</text>
</a>
</g>
</g>
<!-- Node2 -->
<g id="node2" class="node">
<title>Node2</title>
<g id="a_node2"><a xlink:href="classSensor.html" target="_top" xlink:title="Parent class for sensor objects.">
<polygon fill="none" stroke="black" points="284,-150.5 284,-372.5 423,-372.5 423,-150.5 284,-150.5"/>
<text text-anchor="middle" x="353.5" y="-360.5" font-family="Helvetica,sans-Serif" font-size="10.00">Sensor</text>
<polyline fill="none" stroke="black" points="284,-353.5 423,-353.5 "/>
<text text-anchor="middle" x="353.5" y="-341.5" font-family="Helvetica,sans-Serif" font-size="10.00"> </text>
<polyline fill="none" stroke="black" points="284,-334.5 423,-334.5 "/>
<text text-anchor="start" x="292" y="-322.5" font-family="Helvetica,sans-Serif" font-size="10.00">+ Sensor()</text>
<text text-anchor="start" x="292" y="-311.5" font-family="Helvetica,sans-Serif" font-size="10.00">+ Sensor()</text>
<text text-anchor="start" x="292" y="-300.5" font-family="Helvetica,sans-Serif" font-size="10.00">+ Sensor()</text>
<text text-anchor="start" x="292" y="-289.5" font-family="Helvetica,sans-Serif" font-size="10.00">+ Sensor()</text>
<text text-anchor="start" x="292" y="-278.5" font-family="Helvetica,sans-Serif" font-size="10.00">+ getPeriod()</text>
<text text-anchor="start" x="292" y="-267.5" font-family="Helvetica,sans-Serif" font-size="10.00">+ setPeriod()</text>
<text text-anchor="start" x="292" y="-256.5" font-family="Helvetica,sans-Serif" font-size="10.00">+ getLastExecution()</text>
<text text-anchor="start" x="292" y="-245.5" font-family="Helvetica,sans-Serif" font-size="10.00">+ setLastExecution()</text>
<text text-anchor="start" x="292" y="-234.5" font-family="Helvetica,sans-Serif" font-size="10.00">+ getSensorCSVHeader()</text>
<text text-anchor="start" x="292" y="-223.5" font-family="Helvetica,sans-Serif" font-size="10.00">+ verify()</text>
<text text-anchor="start" x="292" y="-212.5" font-family="Helvetica,sans-Serif" font-size="10.00">+ readData()</text>
<text text-anchor="start" x="292" y="-201.5" font-family="Helvetica,sans-Serif" font-size="10.00">+ readDataPacket()</text>
<text text-anchor="start" x="292" y="-190.5" font-family="Helvetica,sans-Serif" font-size="10.00">+ decodeToCSV()</text>
<text text-anchor="start" x="292" y="-179.5" font-family="Helvetica,sans-Serif" font-size="10.00">+ getDataPacket()</text>
<text text-anchor="start" x="292" y="-168.5" font-family="Helvetica,sans-Serif" font-size="10.00">+ readEmpty()</text>
<text text-anchor="start" x="292" y="-157.5" font-family="Helvetica,sans-Serif" font-size="10.00">+ getDataCSV()</text>
</a>
</g>
</g>
<!-- Node2&#45;&gt;Node1 -->
<g id="edge1" class="edge">
<title>Node2&#45;&gt;Node1</title>
<path fill="none" stroke="midnightblue" d="M353.5,-140.35C353.5,-130.78 353.5,-121.44 353.5,-112.68"/>
<polygon fill="none" stroke="midnightblue" points="350,-140.39 353.5,-150.39 357,-140.39 350,-140.39"/>
</g>
<!-- Node3 -->
<g id="node3" class="node">
<title>Node3</title>
<g id="a_node3"><a xlink:href="classDevice.html" target="_top" xlink:title="Implements the recovery system for Sensor and Storage objects.">
<polygon fill="none" stroke="black" points="142,-410.5 142,-555.5 271,-555.5 271,-410.5 142,-410.5"/>
<text text-anchor="middle" x="206.5" y="-543.5" font-family="Helvetica,sans-Serif" font-size="10.00">Device</text>
<polyline fill="none" stroke="black" points="142,-536.5 271,-536.5 "/>
<text text-anchor="middle" x="206.5" y="-524.5" font-family="Helvetica,sans-Serif" font-size="10.00"> </text>
<polyline fill="none" stroke="black" points="142,-517.5 271,-517.5 "/>
<text text-anchor="start" x="150" y="-505.5" font-family="Helvetica,sans-Serif" font-size="10.00">+ Device()</text>
<text text-anchor="start" x="150" y="-494.5" font-family="Helvetica,sans-Serif" font-size="10.00">+ Device()</text>
<text text-anchor="start" x="150" y="-483.5" font-family="Helvetica,sans-Serif" font-size="10.00">+ getDeviceName()</text>
<text text-anchor="start" x="150" y="-472.5" font-family="Helvetica,sans-Serif" font-size="10.00">+ verify()</text>
<text text-anchor="start" x="150" y="-461.5" font-family="Helvetica,sans-Serif" font-size="10.00">+ getVerified()</text>
<text text-anchor="start" x="150" y="-450.5" font-family="Helvetica,sans-Serif" font-size="10.00">+ recoveryConfig()</text>
<text text-anchor="start" x="150" y="-439.5" font-family="Helvetica,sans-Serif" font-size="10.00">+ setWaitFactor()</text>
<text text-anchor="start" x="150" y="-428.5" font-family="Helvetica,sans-Serif" font-size="10.00">+ setMaxAttempts()</text>
<text text-anchor="start" x="150" y="-417.5" font-family="Helvetica,sans-Serif" font-size="10.00">+ attemptConnection()</text>
</a>
</g>
</g>
<!-- Node3&#45;&gt;Node2 -->
<g id="edge2" class="edge">
<title>Node3&#45;&gt;Node2</title>
<path fill="none" stroke="midnightblue" d="M260,-402.12C267.72,-390.58 275.77,-378.56 283.76,-366.64"/>
<polygon fill="none" stroke="midnightblue" points="257.09,-400.17 254.43,-410.43 262.9,-404.07 257.09,-400.17"/>
</g>
<!-- Node4 -->
<g id="node4" class="node">
<title>Node4</title>
<g id="a_node4"><a xlink:title=" ">
<polygon fill="none" stroke="#bfbfbf" points="0,-614.5 0,-671.5 45,-671.5 45,-614.5 0,-614.5"/>
<text text-anchor="middle" x="22.5" y="-659.5" font-family="Helvetica,sans-Serif" font-size="10.00">String</text>
<polyline fill="none" stroke="#bfbfbf" points="0,-652.5 45,-652.5 "/>
<text text-anchor="middle" x="22.5" y="-640.5" font-family="Helvetica,sans-Serif" font-size="10.00"> </text>
<polyline fill="none" stroke="#bfbfbf" points="0,-633.5 45,-633.5 "/>
<text text-anchor="middle" x="22.5" y="-621.5" font-family="Helvetica,sans-Serif" font-size="10.00"> </text>
</a>
</g>
</g>
<!-- Node4&#45;&gt;Node2 -->
<g id="edge7" class="edge">
<title>Node4&#45;&gt;Node2</title>
<path fill="none" stroke="#404040" d="M21.12,-614.26C20.23,-567.35 24.81,-471.47 71.5,-410 121.05,-344.76 207.8,-305.61 272.04,-284.22"/>
<polygon fill="none" stroke="#404040" points="272.34,-284.12 276.82,-278.47 283.76,-280.43 279.28,-286.08 272.34,-284.12"/>
<text text-anchor="middle" x="102" y="-486" font-family="Helvetica,sans-Serif" font-size="10.00"> &#45;empty_csv</text>
<text text-anchor="middle" x="102" y="-475" font-family="Helvetica,sans-Serif" font-size="10.00">&#45;csv_header</text>
</g>
<!-- Node4&#45;&gt;Node3 -->
<g id="edge3" class="edge">
<title>Node4&#45;&gt;Node3</title>
<path fill="none" stroke="#404040" d="M31.21,-614.29C36.4,-600.99 44.05,-585.49 54.5,-574 75.63,-550.77 104.17,-531.72 130.82,-517.23"/>
<polygon fill="none" stroke="#404040" points="131.08,-517.09 134.53,-510.76 141.7,-511.5 138.25,-517.84 131.08,-517.09"/>
<text text-anchor="middle" x="91" y="-582.5" font-family="Helvetica,sans-Serif" font-size="10.00"> &#45;device_name</text>
</g>
<!-- Node5 -->
<g id="node5" class="node">
<title>Node5</title>
<g id="a_node5"><a xlink:title=" ">
<polygon fill="none" stroke="#bfbfbf" points="269,-614.5 269,-671.5 354,-671.5 354,-614.5 269,-614.5"/>
<text text-anchor="middle" x="311.5" y="-659.5" font-family="Helvetica,sans-Serif" font-size="10.00">unsigned long</text>
<polyline fill="none" stroke="#bfbfbf" points="269,-652.5 354,-652.5 "/>
<text text-anchor="middle" x="311.5" y="-640.5" font-family="Helvetica,sans-Serif" font-size="10.00"> </text>
<polyline fill="none" stroke="#bfbfbf" points="269,-633.5 354,-633.5 "/>
<text text-anchor="middle" x="311.5" y="-621.5" font-family="Helvetica,sans-Serif" font-size="10.00"> </text>
</a>
</g>
</g>
<!-- Node5&#45;&gt;Node2 -->
<g id="edge8" class="edge">
<title>Node5&#45;&gt;Node2</title>
<path fill="none" stroke="#404040" d="M354.06,-621.74C369.93,-613.23 385.17,-603.58 389.5,-596 409.66,-560.71 397.13,-464.75 381.57,-384.78"/>
<polygon fill="none" stroke="#404040" points="381.49,-384.37 376.4,-379.26 379.15,-372.6 384.24,-377.71 381.49,-384.37"/>
<text text-anchor="middle" x="443.5" y="-486" font-family="Helvetica,sans-Serif" font-size="10.00"> &#45;last_execution</text>
<text text-anchor="middle" x="443.5" y="-475" font-family="Helvetica,sans-Serif" font-size="10.00">&#45;minimum_period</text>
</g>
<!-- Node5&#45;&gt;Node3 -->
<g id="edge4" class="edge">
<title>Node5&#45;&gt;Node3</title>
<path fill="none" stroke="#404040" d="M268.85,-634.54C246.57,-628.25 221.17,-616.79 207.5,-596 201.89,-587.48 198.55,-577.74 196.76,-567.65"/>
<polygon fill="none" stroke="#404040" points="196.76,-567.61 192.08,-562.12 195.35,-555.69 200.02,-561.18 196.76,-567.61"/>
<text text-anchor="middle" x="242.5" y="-588" font-family="Helvetica,sans-Serif" font-size="10.00"> &#45;last_attempt</text>
<text text-anchor="middle" x="242.5" y="-577" font-family="Helvetica,sans-Serif" font-size="10.00">&#45;wait_factor</text>
</g>
<!-- Node6 -->
<g id="node6" class="node">
<title>Node6</title>
<g id="a_node6"><a xlink:title=" ">
<polygon fill="none" stroke="#bfbfbf" points="377,-614.5 377,-671.5 406,-671.5 406,-614.5 377,-614.5"/>
<text text-anchor="middle" x="391.5" y="-659.5" font-family="Helvetica,sans-Serif" font-size="10.00">int</text>
<polyline fill="none" stroke="#bfbfbf" points="377,-652.5 406,-652.5 "/>
<text text-anchor="middle" x="391.5" y="-640.5" font-family="Helvetica,sans-Serif" font-size="10.00"> </text>
<polyline fill="none" stroke="#bfbfbf" points="377,-633.5 406,-633.5 "/>
<text text-anchor="middle" x="391.5" y="-621.5" font-family="Helvetica,sans-Serif" font-size="10.00"> </text>
</a>
</g>
</g>
<!-- Node6&#45;&gt;Node2 -->
<g id="edge9" class="edge">
<title>Node6&#45;&gt;Node2</title>
<path fill="none" stroke="#404040" d="M406.03,-635.26C429.95,-623.26 476.84,-595.64 495.5,-556 523.13,-497.29 519.76,-470.18 495.5,-410 482.13,-376.82 457.32,-346.94 432.14,-322.88"/>
<polygon fill="none" stroke="#404040" points="432.04,-322.78 424.92,-321.63 423.24,-314.62 430.36,-315.77 432.04,-322.78"/>
<text text-anchor="middle" x="547.5" y="-480.5" font-family="Helvetica,sans-Serif" font-size="10.00"> #num_fields</text>
</g>
<!-- Node6&#45;&gt;Node3 -->
<g id="edge5" class="edge">
<title>Node6&#45;&gt;Node3</title>
<path fill="none" stroke="#404040" d="M376.93,-626.91C372.68,-622.65 367.97,-618.07 363.5,-614 337.16,-590.02 307.27,-564.81 280.69,-543.03"/>
<polygon fill="none" stroke="#404040" points="280.35,-542.76 273.18,-542.07 271.06,-535.17 278.23,-535.87 280.35,-542.76"/>
<text text-anchor="middle" x="387" y="-588" font-family="Helvetica,sans-Serif" font-size="10.00"> &#45;attempt_number</text>
<text text-anchor="middle" x="387" y="-577" font-family="Helvetica,sans-Serif" font-size="10.00">&#45;max_attempts</text>
</g>
<!-- Node7 -->
<g id="node7" class="node">
<title>Node7</title>
<g id="a_node7"><a xlink:title=" ">
<polygon fill="none" stroke="#bfbfbf" points="115.5,-614.5 115.5,-671.5 153.5,-671.5 153.5,-614.5 115.5,-614.5"/>
<text text-anchor="middle" x="134.5" y="-659.5" font-family="Helvetica,sans-Serif" font-size="10.00">bool</text>
<polyline fill="none" stroke="#bfbfbf" points="115.5,-652.5 153.5,-652.5 "/>
<text text-anchor="middle" x="134.5" y="-640.5" font-family="Helvetica,sans-Serif" font-size="10.00"> </text>
<polyline fill="none" stroke="#bfbfbf" points="115.5,-633.5 153.5,-633.5 "/>
<text text-anchor="middle" x="134.5" y="-621.5" font-family="Helvetica,sans-Serif" font-size="10.00"> </text>
</a>
</g>
</g>
<!-- Node7&#45;&gt;Node3 -->
<g id="edge6" class="edge">
<title>Node7&#45;&gt;Node3</title>
<path fill="none" stroke="#404040" d="M130.94,-614.48C130.29,-601.82 130.96,-586.79 135.5,-574 136.41,-571.45 137.42,-568.91 138.52,-566.4"/>
<polygon fill="none" stroke="#404040" points="138.57,-566.3 137.64,-559.15 143.89,-555.54 144.81,-562.69 138.57,-566.3"/>
<text text-anchor="middle" x="160" y="-582.5" font-family="Helvetica,sans-Serif" font-size="10.00"> #verified</text>
</g>
</g>
</svg>
        <g id="navigator" transform="translate(0 0)" fill="#404254">
                <rect fill="#f2f5e9" fill-opacity="0.5" stroke="#606060" stroke-width=".5" x="0" y="0" width="60" height="60"/>
                <use id="zoomplus" xlink:href="#zoomPlus" x="17" y="9" onmousedown="handleZoom(evt,'in')"/>
                <use id="zoomminus" xlink:href="#zoomMin" x="42" y="9" onmousedown="handleZoom(evt,'out')"/>
                <use id="reset" xlink:href="#resetDef" x="30" y="36" onmousedown="handleReset()"/>
                <g id="arrowUp" xlink:href="#dirArrow" transform="translate(30 24)" onmousedown="handlePan(0,-1)">
                  <use xlink:href="#rim" fill="#404040">
                        <set attributeName="fill" to="#808080" begin="arrowUp.mouseover" end="arrowUp.mouseout"/>
                  </use>
                  <path fill="none" stroke="white" stroke-width="1.5" d="M0,-3.0v7 M-2.5,-0.5L0,-3.0L2.5,-0.5"/>
                </g>
                <g id="arrowRight" xlink:href="#dirArrow" transform="rotate(90) translate(36 -43)" onmousedown="handlePan(1,0)">
                  <use xlink:href="#rim" fill="#404040">
                        <set attributeName="fill" to="#808080" begin="arrowRight.mouseover" end="arrowRight.mouseout"/>
                  </use>
                  <path fill="none" stroke="white" stroke-width="1.5" d="M0,-3.0v7 M-2.5,-0.5L0,-3.0L2.5,-0.5"/>
                </g>
                <g id="arrowDown" xlink:href="#dirArrow" transform="rotate(180) translate(-30 -48)" onmousedown="handlePan(0,1)">
                  <use xlink:href="#rim" fill="#404040">
                        <set attributeName="fill" to="#808080" begin="arrowDown.mouseover" end="arrowDown.mouseout"/>
                  </use>
                  <path fill="none" stroke="white" stroke-width="1.5" d="M0,-3.0v7 M-2.5,-0.5L0,-3.0L2.5,-0.5"/>
                </g>
                <g id="arrowLeft" xlink:href="#dirArrow" transform="rotate(270) translate(-36 17)" onmousedown="handlePan(-1,0)">
                  <use xlink:href="#rim" fill="#404040">
                        <set attributeName="fill" to="#808080" begin="arrowLeft.mouseover" end="arrowLeft.mouseout"/>
                  </use>
                  <path fill="none" stroke="white" stroke-width="1.5" d="M0,-3.0v7 M-2.5,-0.5L0,-3.0L2.5,-0.5"/>
                </g>
        </g>
        <svg viewBox="0 0 15 15" width="100%" height="30px" preserveAspectRatio="xMaxYMin meet">
         <g id="arrow_out" transform="scale(0.3 0.3)">
          <a xlink:href="classTempSensor__coll__graph_org.svg" target="_base">
           <rect id="button" ry="5" rx="5" y="6" x="6" height="38" width="38"
                fill="#f2f5e9" fill-opacity="0.5" stroke="#606060" stroke-width="1.0"/>
           <path id="arrow"
             d="M 11.500037,31.436501 C 11.940474,20.09759 22.043105,11.32322 32.158766,21.979434 L 37.068811,17.246167 C 37.068811,17.246167 37.088388,32 37.088388,32 L 22.160133,31.978069 C 22.160133,31.978069 26.997745,27.140456 26.997745,27.140456 C 18.528582,18.264221 13.291696,25.230495 11.500037,31.436501 z"
             style="fill:#404040;"/>
          </a>
         </g>
        </svg>
</svg>
