<?xml version="1.0" encoding="UTF-8" standalone="no"?>
<!DOCTYPE svg PUBLIC "-//W3C//DTD SVG 1.1//EN"
 "http://www.w3.org/Graphics/SVG/1.1/DTD/svg11.dtd">
<!-- Generated by graphviz version 2.43.0 (0)
 -->
<!-- Title: Sensor Pages: 1 -->
<!--zoomable 716 -->
<svg id="main" version="1.1" xmlns="http://www.w3.org/2000/svg" xmlns:xlink="http://www.w3.org/1999/xlink" xml:space="preserve" onload="init(evt)">
<style type="text/css"><![CDATA[
.edge:hover path { stroke: red; }
.edge:hover polygon { stroke: red; fill: red; }
]]></style>
<script type="text/javascript"><![CDATA[
var edges = document.getElementsByTagName('g');
if (edges && edges.length) {
  for (var i=0;i<edges.length;i++) {
    if (edges[i].id.substr(0,4)=='edge') {
      edges[i].setAttribute('class','edge');
    }
  }
}
]]></script>
        <defs>
                <circle id="rim" cx="0" cy="0" r="7"/>
                <circle id="rim2" cx="0" cy="0" r="3.5"/>
                <g id="zoomPlus">
                        <use xlink:href="#rim" fill="#404040">
                                <set attributeName="fill" to="#808080" begin="zoomplus.mouseover" end="zoomplus.mouseout"/>
                        </use>
                        <path d="M-4,0h8M0,-4v8" fill="none" stroke="white" stroke-width="1.5" pointer-events="none"/>
                </g>
                <g id="zoomMin">
                        <use xlink:href="#rim" fill="#404040">
                                <set attributeName="fill" to="#808080" begin="zoomminus.mouseover" end="zoomminus.mouseout"/>
                        </use>
                        <path d="M-4,0h8" fill="none" stroke="white" stroke-width="1.5" pointer-events="none"/>
                </g>
                <g id="dirArrow">
                        <path fill="none" stroke="white" stroke-width="1.5" d="M0,-3.0v7 M-2.5,-0.5L0,-3.0L2.5,-0.5"/>
                </g>
               <g id="resetDef">
                       <use xlink:href="#rim2" fill="#404040">
                               <set attributeName="fill" to="#808080" begin="reset.mouseover" end="reset.mouseout"/>
                       </use>
               </g>
        </defs>

<script type="text/javascript">
var viewWidth = 2224;
var viewHeight = 716;
var sectionId = 'dynsection-0';
</script>
<script xlink:href="svgpan.js"/>
<svg id="graph" class="graph">
<g id="viewport">
<title>Sensor</title>
<!-- Node1 -->
<g id="node1" class="node">
<title>Node1</title>
<g id="a_node1"><a xlink:title="Parent class for sensor objects.">
<polygon fill="#bfbfbf" stroke="black" points="1040,-204.5 1040,-470.5 1179,-470.5 1179,-204.5 1040,-204.5"/>
<text text-anchor="middle" x="1109.5" y="-458.5" font-family="Helvetica,sans-Serif" font-size="10.00">Sensor</text>
<polyline fill="none" stroke="black" points="1040,-451.5 1179,-451.5 "/>
<text text-anchor="start" x="1048" y="-439.5" font-family="Helvetica,sans-Serif" font-size="10.00"># num_fields</text>
<text text-anchor="start" x="1048" y="-428.5" font-family="Helvetica,sans-Serif" font-size="10.00">&#45; minimum_period</text>
<text text-anchor="start" x="1048" y="-417.5" font-family="Helvetica,sans-Serif" font-size="10.00">&#45; last_execution</text>
<text text-anchor="start" x="1048" y="-406.5" font-family="Helvetica,sans-Serif" font-size="10.00">&#45; csv_header</text>
<text text-anchor="start" x="1048" y="-395.5" font-family="Helvetica,sans-Serif" font-size="10.00">&#45; empty_csv</text>
<polyline fill="none" stroke="black" points="1040,-388.5 1179,-388.5 "/>
<text text-anchor="start" x="1048" y="-376.5" font-family="Helvetica,sans-Serif" font-size="10.00">+ Sensor()</text>
<text text-anchor="start" x="1048" y="-365.5" font-family="Helvetica,sans-Serif" font-size="10.00">+ Sensor()</text>
<text text-anchor="start" x="1048" y="-354.5" font-family="Helvetica,sans-Serif" font-size="10.00">+ Sensor()</text>
<text text-anchor="start" x="1048" y="-343.5" font-family="Helvetica,sans-Serif" font-size="10.00">+ Sensor()</text>
<text text-anchor="start" x="1048" y="-332.5" font-family="Helvetica,sans-Serif" font-size="10.00">+ getPeriod()</text>
<text text-anchor="start" x="1048" y="-321.5" font-family="Helvetica,sans-Serif" font-size="10.00">+ setPeriod()</text>
<text text-anchor="start" x="1048" y="-310.5" font-family="Helvetica,sans-Serif" font-size="10.00">+ getLastExecution()</text>
<text text-anchor="start" x="1048" y="-299.5" font-family="Helvetica,sans-Serif" font-size="10.00">+ setLastExecution()</text>
<text text-anchor="start" x="1048" y="-288.5" font-family="Helvetica,sans-Serif" font-size="10.00">+ getSensorCSVHeader()</text>
<text text-anchor="start" x="1048" y="-277.5" font-family="Helvetica,sans-Serif" font-size="10.00">+ verify()</text>
<text text-anchor="start" x="1048" y="-266.5" font-family="Helvetica,sans-Serif" font-size="10.00">+ readData()</text>
<text text-anchor="start" x="1048" y="-255.5" font-family="Helvetica,sans-Serif" font-size="10.00">+ readDataPacket()</text>
<text text-anchor="start" x="1048" y="-244.5" font-family="Helvetica,sans-Serif" font-size="10.00">+ decodeToCSV()</text>
<text text-anchor="start" x="1048" y="-233.5" font-family="Helvetica,sans-Serif" font-size="10.00">+ getDataPacket()</text>
<text text-anchor="start" x="1048" y="-222.5" font-family="Helvetica,sans-Serif" font-size="10.00">+ readEmpty()</text>
<text text-anchor="start" x="1048" y="-211.5" font-family="Helvetica,sans-Serif" font-size="10.00">+ getDataCSV()</text>
</a>
</g>
</g>
<!-- Node3 -->
<g id="node3" class="node">
<title>Node3</title>
<g id="a_node3"><a xlink:href="classAS7331Sensor.html" target="_top" xlink:title="Implementation of a Sensor for UVA/B/C sensor.">
<polygon fill="none" stroke="black" points="0,-22.5 0,-145.5 113,-145.5 113,-22.5 0,-22.5"/>
<text text-anchor="middle" x="56.5" y="-133.5" font-family="Helvetica,sans-Serif" font-size="10.00">AS7331Sensor</text>
<polyline fill="none" stroke="black" points="0,-126.5 113,-126.5 "/>
<text text-anchor="start" x="8" y="-114.5" font-family="Helvetica,sans-Serif" font-size="10.00">&#45; myUVSensor</text>
<text text-anchor="start" x="8" y="-103.5" font-family="Helvetica,sans-Serif" font-size="10.00">&#45; i2c_addr</text>
<polyline fill="none" stroke="black" points="0,-96.5 113,-96.5 "/>
<text text-anchor="start" x="8" y="-84.5" font-family="Helvetica,sans-Serif" font-size="10.00">+ AS7331Sensor()</text>
<text text-anchor="start" x="8" y="-73.5" font-family="Helvetica,sans-Serif" font-size="10.00">+ AS7331Sensor()</text>
<text text-anchor="start" x="8" y="-62.5" font-family="Helvetica,sans-Serif" font-size="10.00">+ verify()</text>
<text text-anchor="start" x="8" y="-51.5" font-family="Helvetica,sans-Serif" font-size="10.00">+ readDataPacket()</text>
<text text-anchor="start" x="8" y="-40.5" font-family="Helvetica,sans-Serif" font-size="10.00">+ decodeToCSV()</text>
<text text-anchor="start" x="8" y="-29.5" font-family="Helvetica,sans-Serif" font-size="10.00">+ readData()</text>
</a>
</g>
</g>
<!-- Node1&#45;&gt;Node3 -->
<g id="edge2" class="edge">
<title>Node1&#45;&gt;Node3</title>
<path fill="none" stroke="midnightblue" d="M1029.58,-330.3C822.8,-313.1 275.64,-259.91 121.5,-168 111.75,-162.19 102.92,-154.32 95.12,-145.74"/>
<polygon fill="none" stroke="midnightblue" points="1029.5,-333.8 1039.76,-331.14 1030.08,-326.83 1029.5,-333.8"/>
</g>
<!-- Node4 -->
<g id="node4" class="node">
<title>Node4</title>
<g id="a_node4"><a xlink:href="classBME280Sensor.html" target="_top" xlink:title="Implementation of a Sensor for the BME280.">
<polygon fill="none" stroke="black" points="131,-28 131,-140 244,-140 244,-28 131,-28"/>
<text text-anchor="middle" x="187.5" y="-128" font-family="Helvetica,sans-Serif" font-size="10.00">BME280Sensor</text>
<polyline fill="none" stroke="black" points="131,-121 244,-121 "/>
<text text-anchor="start" x="139" y="-109" font-family="Helvetica,sans-Serif" font-size="10.00">&#45; bme</text>
<polyline fill="none" stroke="black" points="131,-102 244,-102 "/>
<text text-anchor="start" x="139" y="-90" font-family="Helvetica,sans-Serif" font-size="10.00">+ BME280Sensor()</text>
<text text-anchor="start" x="139" y="-79" font-family="Helvetica,sans-Serif" font-size="10.00">+ BME280Sensor()</text>
<text text-anchor="start" x="139" y="-68" font-family="Helvetica,sans-Serif" font-size="10.00">+ verify()</text>
<text text-anchor="start" x="139" y="-57" font-family="Helvetica,sans-Serif" font-size="10.00">+ readData()</text>
<text text-anchor="start" x="139" y="-46" font-family="Helvetica,sans-Serif" font-size="10.00">+ readDataPacket()</text>
<text text-anchor="start" x="139" y="-35" font-family="Helvetica,sans-Serif" font-size="10.00">+ decodeToCSV()</text>
</a>
</g>
</g>
<!-- Node1&#45;&gt;Node4 -->
<g id="edge3" class="edge">
<title>Node1&#45;&gt;Node4</title>
<path fill="none" stroke="midnightblue" d="M1029.73,-327.99C842.98,-306.93 383.3,-248.25 252.5,-168 240.8,-160.82 230.38,-150.73 221.48,-140.04"/>
<polygon fill="none" stroke="midnightblue" points="1029.43,-331.47 1039.76,-329.11 1030.21,-324.52 1029.43,-331.47"/>
</g>
<!-- Node5 -->
<g id="node5" class="node">
<title>Node5</title>
<g id="a_node5"><a xlink:href="classBME680Sensor.html" target="_top" xlink:title="A class to interface with the Adafruit BME680 sensor for environmental data collection.">
<polygon fill="none" stroke="black" points="262,-28 262,-140 375,-140 375,-28 262,-28"/>
<text text-anchor="middle" x="318.5" y="-128" font-family="Helvetica,sans-Serif" font-size="10.00">BME680Sensor</text>
<polyline fill="none" stroke="black" points="262,-121 375,-121 "/>
<text text-anchor="start" x="270" y="-109" font-family="Helvetica,sans-Serif" font-size="10.00">&#45; bme</text>
<polyline fill="none" stroke="black" points="262,-102 375,-102 "/>
<text text-anchor="start" x="270" y="-90" font-family="Helvetica,sans-Serif" font-size="10.00">+ BME680Sensor()</text>
<text text-anchor="start" x="270" y="-79" font-family="Helvetica,sans-Serif" font-size="10.00">+ BME680Sensor()</text>
<text text-anchor="start" x="270" y="-68" font-family="Helvetica,sans-Serif" font-size="10.00">+ verify()</text>
<text text-anchor="start" x="270" y="-57" font-family="Helvetica,sans-Serif" font-size="10.00">+ readData()</text>
<text text-anchor="start" x="270" y="-46" font-family="Helvetica,sans-Serif" font-size="10.00">+ readDataPacket()</text>
<text text-anchor="start" x="270" y="-35" font-family="Helvetica,sans-Serif" font-size="10.00">+ decodeToCSV()</text>
</a>
</g>
</g>
<!-- Node1&#45;&gt;Node5 -->
<g id="edge4" class="edge">
<title>Node1&#45;&gt;Node5</title>
<path fill="none" stroke="midnightblue" d="M1029.59,-334.96C888.39,-328.74 590.17,-299.67 383.5,-168 372.08,-160.72 361.83,-150.72 353.03,-140.17"/>
<polygon fill="none" stroke="midnightblue" points="1029.76,-338.47 1039.89,-335.38 1030.05,-331.47 1029.76,-338.47"/>
</g>
<!-- Node6 -->
<g id="node6" class="node">
<title>Node6</title>
<g id="a_node6"><a xlink:href="classBMP390Sensor.html" target="_top" xlink:title="Implementation of a Sensor for BMP384 Pressure and Temperature sensor.">
<polygon fill="none" stroke="black" points="393,-28 393,-140 506,-140 506,-28 393,-28"/>
<text text-anchor="middle" x="449.5" y="-128" font-family="Helvetica,sans-Serif" font-size="10.00">BMP390Sensor</text>
<polyline fill="none" stroke="black" points="393,-121 506,-121 "/>
<text text-anchor="start" x="401" y="-109" font-family="Helvetica,sans-Serif" font-size="10.00">&#45; bmp</text>
<polyline fill="none" stroke="black" points="393,-102 506,-102 "/>
<text text-anchor="start" x="401" y="-90" font-family="Helvetica,sans-Serif" font-size="10.00">+ BMP390Sensor()</text>
<text text-anchor="start" x="401" y="-79" font-family="Helvetica,sans-Serif" font-size="10.00">+ BMP390Sensor()</text>
<text text-anchor="start" x="401" y="-68" font-family="Helvetica,sans-Serif" font-size="10.00">+ verify()</text>
<text text-anchor="start" x="401" y="-57" font-family="Helvetica,sans-Serif" font-size="10.00">+ readData()</text>
<text text-anchor="start" x="401" y="-46" font-family="Helvetica,sans-Serif" font-size="10.00">+ readDataPacket()</text>
<text text-anchor="start" x="401" y="-35" font-family="Helvetica,sans-Serif" font-size="10.00">+ decodeToCSV()</text>
</a>
</g>
</g>
<!-- Node1&#45;&gt;Node6 -->
<g id="edge5" class="edge">
<title>Node1&#45;&gt;Node6</title>
<path fill="none" stroke="midnightblue" d="M1029.65,-329.69C908.89,-316.1 676.69,-276.87 514.5,-168 503.41,-160.55 493.35,-150.6 484.65,-140.19"/>
<polygon fill="none" stroke="midnightblue" points="1029.6,-333.2 1039.93,-330.81 1030.37,-326.25 1029.6,-333.2"/>
</g>
<!-- Node7 -->
<g id="node7" class="node">
<title>Node7</title>
<g id="a_node7"><a xlink:href="classDS3231Sensor.html" target="_top" xlink:title="Implementation of a Sensor for the DS3231 Real Time Clock.">
<polygon fill="none" stroke="black" points="524,-22.5 524,-145.5 637,-145.5 637,-22.5 524,-22.5"/>
<text text-anchor="middle" x="580.5" y="-133.5" font-family="Helvetica,sans-Serif" font-size="10.00">DS3231Sensor</text>
<polyline fill="none" stroke="black" points="524,-126.5 637,-126.5 "/>
<text text-anchor="start" x="532" y="-114.5" font-family="Helvetica,sans-Serif" font-size="10.00">&#45; rtc</text>
<polyline fill="none" stroke="black" points="524,-107.5 637,-107.5 "/>
<text text-anchor="start" x="532" y="-95.5" font-family="Helvetica,sans-Serif" font-size="10.00">+ DS3231Sensor()</text>
<text text-anchor="start" x="532" y="-84.5" font-family="Helvetica,sans-Serif" font-size="10.00">+ DS3231Sensor()</text>
<text text-anchor="start" x="532" y="-73.5" font-family="Helvetica,sans-Serif" font-size="10.00">+ verify()</text>
<text text-anchor="start" x="532" y="-62.5" font-family="Helvetica,sans-Serif" font-size="10.00">+ readData()</text>
<text text-anchor="start" x="532" y="-51.5" font-family="Helvetica,sans-Serif" font-size="10.00">+ readDataPacket()</text>
<text text-anchor="start" x="532" y="-40.5" font-family="Helvetica,sans-Serif" font-size="10.00">+ decodeToCSV()</text>
<text text-anchor="start" x="532" y="-29.5" font-family="Helvetica,sans-Serif" font-size="10.00">+ setTime()</text>
</a>
</g>
</g>
<!-- Node1&#45;&gt;Node7 -->
<g id="edge6" class="edge">
<title>Node1&#45;&gt;Node7</title>
<path fill="none" stroke="midnightblue" d="M1029.87,-321.7C932.03,-300.51 764.4,-254.21 645.5,-168 636.76,-161.66 628.59,-153.84 621.2,-145.54"/>
<polygon fill="none" stroke="midnightblue" points="1029.19,-325.13 1039.7,-323.79 1030.65,-318.28 1029.19,-325.13"/>
</g>
<!-- Node8 -->
<g id="node8" class="node">
<title>Node8</title>
<g id="a_node8"><a xlink:href="classENS160Sensor.html" target="_top" xlink:title="Implementation of a Sensor for the ENS160.">
<polygon fill="none" stroke="black" points="655,-28 655,-140 768,-140 768,-28 655,-28"/>
<text text-anchor="middle" x="711.5" y="-128" font-family="Helvetica,sans-Serif" font-size="10.00">ENS160Sensor</text>
<polyline fill="none" stroke="black" points="655,-121 768,-121 "/>
<text text-anchor="start" x="663" y="-109" font-family="Helvetica,sans-Serif" font-size="10.00">&#45; ens</text>
<polyline fill="none" stroke="black" points="655,-102 768,-102 "/>
<text text-anchor="start" x="663" y="-90" font-family="Helvetica,sans-Serif" font-size="10.00">+ ENS160Sensor()</text>
<text text-anchor="start" x="663" y="-79" font-family="Helvetica,sans-Serif" font-size="10.00">+ ENS160Sensor()</text>
<text text-anchor="start" x="663" y="-68" font-family="Helvetica,sans-Serif" font-size="10.00">+ verify()</text>
<text text-anchor="start" x="663" y="-57" font-family="Helvetica,sans-Serif" font-size="10.00">+ readData()</text>
<text text-anchor="start" x="663" y="-46" font-family="Helvetica,sans-Serif" font-size="10.00">+ readDataPacket()</text>
<text text-anchor="start" x="663" y="-35" font-family="Helvetica,sans-Serif" font-size="10.00">+ decodeToCSV()</text>
</a>
</g>
</g>
<!-- Node1&#45;&gt;Node8 -->
<g id="edge7" class="edge">
<title>Node1&#45;&gt;Node8</title>
<path fill="none" stroke="midnightblue" d="M1030.54,-308.03C959.22,-279.78 853.9,-231.55 776.5,-168 766.74,-159.99 757.52,-150.26 749.26,-140.33"/>
<polygon fill="none" stroke="midnightblue" points="1029.34,-311.32 1039.93,-311.71 1031.9,-304.8 1029.34,-311.32"/>
</g>
<!-- Node9 -->
<g id="node9" class="node">
<title>Node9</title>
<g id="a_node9"><a xlink:href="classICM20948Sensor.html" target="_top" xlink:title="Implementation of the Sensor class for the Adafruit ICM20948 (9&#45;axis IMU)">
<polygon fill="none" stroke="black" points="786,-6 786,-162 903,-162 903,-6 786,-6"/>
<text text-anchor="middle" x="844.5" y="-150" font-family="Helvetica,sans-Serif" font-size="10.00">ICM20948Sensor</text>
<polyline fill="none" stroke="black" points="786,-143 903,-143 "/>
<text text-anchor="start" x="794" y="-131" font-family="Helvetica,sans-Serif" font-size="10.00">&#45; icm</text>
<text text-anchor="start" x="794" y="-120" font-family="Helvetica,sans-Serif" font-size="10.00">&#45; icm_accel</text>
<text text-anchor="start" x="794" y="-109" font-family="Helvetica,sans-Serif" font-size="10.00">&#45; icm_gyro</text>
<text text-anchor="start" x="794" y="-98" font-family="Helvetica,sans-Serif" font-size="10.00">&#45; icm_mag</text>
<text text-anchor="start" x="794" y="-87" font-family="Helvetica,sans-Serif" font-size="10.00">&#45; icm_temp</text>
<polyline fill="none" stroke="black" points="786,-80 903,-80 "/>
<text text-anchor="start" x="794" y="-68" font-family="Helvetica,sans-Serif" font-size="10.00">+ ICM20948Sensor()</text>
<text text-anchor="start" x="794" y="-57" font-family="Helvetica,sans-Serif" font-size="10.00">+ ICM20948Sensor()</text>
<text text-anchor="start" x="794" y="-46" font-family="Helvetica,sans-Serif" font-size="10.00">+ verify()</text>
<text text-anchor="start" x="794" y="-35" font-family="Helvetica,sans-Serif" font-size="10.00">+ readData()</text>
<text text-anchor="start" x="794" y="-24" font-family="Helvetica,sans-Serif" font-size="10.00">+ readDataPacket()</text>
<text text-anchor="start" x="794" y="-13" font-family="Helvetica,sans-Serif" font-size="10.00">+ decodeToCSV()</text>
</a>
</g>
</g>
<!-- Node1&#45;&gt;Node9 -->
<g id="edge8" class="edge">
<title>Node1&#45;&gt;Node9</title>
<path fill="none" stroke="midnightblue" d="M1031.87,-276.09C994.07,-245.3 948.85,-206.33 911.5,-168 908.79,-165.21 906.07,-162.33 903.36,-159.37"/>
<polygon fill="none" stroke="midnightblue" points="1029.84,-278.96 1039.81,-282.54 1034.25,-273.52 1029.84,-278.96"/>
</g>
<!-- Node10 -->
<g id="node10" class="node">
<title>Node10</title>
<g id="a_node10"><a xlink:href="classINA260Sensor.html" target="_top" xlink:title="A class to interface with the Adafruit INA260 sensor for current, voltage, and power measurements.">
<polygon fill="none" stroke="black" points="921,-28 921,-140 1034,-140 1034,-28 921,-28"/>
<text text-anchor="middle" x="977.5" y="-128" font-family="Helvetica,sans-Serif" font-size="10.00">INA260Sensor</text>
<polyline fill="none" stroke="black" points="921,-121 1034,-121 "/>
<text text-anchor="start" x="929" y="-109" font-family="Helvetica,sans-Serif" font-size="10.00">&#45; ina260</text>
<polyline fill="none" stroke="black" points="921,-102 1034,-102 "/>
<text text-anchor="start" x="929" y="-90" font-family="Helvetica,sans-Serif" font-size="10.00">+ INA260Sensor()</text>
<text text-anchor="start" x="929" y="-79" font-family="Helvetica,sans-Serif" font-size="10.00">+ INA260Sensor()</text>
<text text-anchor="start" x="929" y="-68" font-family="Helvetica,sans-Serif" font-size="10.00">+ readDataPacket()</text>
<text text-anchor="start" x="929" y="-57" font-family="Helvetica,sans-Serif" font-size="10.00">+ decodeToCSV()</text>
<text text-anchor="start" x="929" y="-46" font-family="Helvetica,sans-Serif" font-size="10.00">+ verify()</text>
<text text-anchor="start" x="929" y="-35" font-family="Helvetica,sans-Serif" font-size="10.00">+ readData()</text>
</a>
</g>
</g>
<!-- Node1&#45;&gt;Node10 -->
<g id="edge9" class="edge">
<title>Node1&#45;&gt;Node10</title>
<path fill="none" stroke="midnightblue" d="M1035.49,-195.49C1025.24,-175.95 1015.24,-156.91 1006.52,-140.3"/>
<polygon fill="none" stroke="midnightblue" points="1032.47,-197.26 1040.21,-204.49 1038.67,-194.01 1032.47,-197.26"/>
</g>
<!-- Node11 -->
<g id="node11" class="node">
<title>Node11</title>
<g id="a_node11"><a xlink:href="classLSM9DS1Sensor.html" target="_top" xlink:title="Implementation of the Sensor class for the LSM9DS1 (9&#45;axis IMU)">
<polygon fill="none" stroke="black" points="1052.5,-0.5 1052.5,-167.5 1166.5,-167.5 1166.5,-0.5 1052.5,-0.5"/>
<text text-anchor="middle" x="1109.5" y="-155.5" font-family="Helvetica,sans-Serif" font-size="10.00">LSM9DS1Sensor</text>
<polyline fill="none" stroke="black" points="1052.5,-148.5 1166.5,-148.5 "/>
<text text-anchor="start" x="1060.5" y="-136.5" font-family="Helvetica,sans-Serif" font-size="10.00">&#45; lsm</text>
<text text-anchor="start" x="1060.5" y="-125.5" font-family="Helvetica,sans-Serif" font-size="10.00">&#45; accel_offsets</text>
<text text-anchor="start" x="1060.5" y="-114.5" font-family="Helvetica,sans-Serif" font-size="10.00">&#45; gyro_offsets</text>
<text text-anchor="start" x="1060.5" y="-103.5" font-family="Helvetica,sans-Serif" font-size="10.00">&#45; mag_offsets</text>
<polyline fill="none" stroke="black" points="1052.5,-96.5 1166.5,-96.5 "/>
<text text-anchor="start" x="1060.5" y="-84.5" font-family="Helvetica,sans-Serif" font-size="10.00">+ LSM9DS1Sensor()</text>
<text text-anchor="start" x="1060.5" y="-73.5" font-family="Helvetica,sans-Serif" font-size="10.00">+ LSM9DS1Sensor()</text>
<text text-anchor="start" x="1060.5" y="-62.5" font-family="Helvetica,sans-Serif" font-size="10.00">+ verify()</text>
<text text-anchor="start" x="1060.5" y="-51.5" font-family="Helvetica,sans-Serif" font-size="10.00">+ readData()</text>
<text text-anchor="start" x="1060.5" y="-40.5" font-family="Helvetica,sans-Serif" font-size="10.00">+ calibrate()</text>
<text text-anchor="start" x="1060.5" y="-29.5" font-family="Helvetica,sans-Serif" font-size="10.00">+ readDataPacket()</text>
<text text-anchor="start" x="1060.5" y="-18.5" font-family="Helvetica,sans-Serif" font-size="10.00">+ decodeToCSV()</text>
<text text-anchor="start" x="1060.5" y="-7.5" font-family="Helvetica,sans-Serif" font-size="10.00">&#45; setupSensor()</text>
</a>
</g>
</g>
<!-- Node1&#45;&gt;Node11 -->
<g id="edge10" class="edge">
<title>Node1&#45;&gt;Node11</title>
<path fill="none" stroke="midnightblue" d="M1109.5,-194.21C1109.5,-185.13 1109.5,-176.18 1109.5,-167.53"/>
<polygon fill="none" stroke="midnightblue" points="1106,-194.49 1109.5,-204.49 1113,-194.49 1106,-194.49"/>
</g>
<!-- Node12 -->
<g id="node12" class="node">
<title>Node12</title>
<g id="a_node12"><a xlink:href="classMTK3339Sensor.html" target="_top" xlink:title="Implementation of the Adafruit MTK3339 GPS sensor.">
<polygon fill="none" stroke="black" points="1184.5,-28 1184.5,-140 1298.5,-140 1298.5,-28 1184.5,-28"/>
<text text-anchor="middle" x="1241.5" y="-128" font-family="Helvetica,sans-Serif" font-size="10.00">MTK3339Sensor</text>
<polyline fill="none" stroke="black" points="1184.5,-121 1298.5,-121 "/>
<text text-anchor="start" x="1192.5" y="-109" font-family="Helvetica,sans-Serif" font-size="10.00">&#45; GPS</text>
<polyline fill="none" stroke="black" points="1184.5,-102 1298.5,-102 "/>
<text text-anchor="start" x="1192.5" y="-90" font-family="Helvetica,sans-Serif" font-size="10.00">+ MTK3339Sensor()</text>
<text text-anchor="start" x="1192.5" y="-79" font-family="Helvetica,sans-Serif" font-size="10.00">+ MTK3339Sensor()</text>
<text text-anchor="start" x="1192.5" y="-68" font-family="Helvetica,sans-Serif" font-size="10.00">+ verify()</text>
<text text-anchor="start" x="1192.5" y="-57" font-family="Helvetica,sans-Serif" font-size="10.00">+ readData()</text>
<text text-anchor="start" x="1192.5" y="-46" font-family="Helvetica,sans-Serif" font-size="10.00">+ readDataPacket()</text>
<text text-anchor="start" x="1192.5" y="-35" font-family="Helvetica,sans-Serif" font-size="10.00">+ decodeToCSV()</text>
</a>
</g>
</g>
<!-- Node1&#45;&gt;Node12 -->
<g id="edge11" class="edge">
<title>Node1&#45;&gt;Node12</title>
<path fill="none" stroke="midnightblue" d="M1183.51,-195.49C1193.76,-175.95 1203.76,-156.91 1212.48,-140.3"/>
<polygon fill="none" stroke="midnightblue" points="1180.33,-194.01 1178.79,-204.49 1186.53,-197.26 1180.33,-194.01"/>
</g>
<!-- Node13 -->
<g id="node13" class="node">
<title>Node13</title>
<g id="a_node13"><a xlink:href="classOzoneSensor.html" target="_top" xlink:title="Implementation of a Sensor for the onboard temperature sensor.">
<polygon fill="none" stroke="black" points="1317,-28 1317,-140 1430,-140 1430,-28 1317,-28"/>
<text text-anchor="middle" x="1373.5" y="-128" font-family="Helvetica,sans-Serif" font-size="10.00">OzoneSensor</text>
<polyline fill="none" stroke="black" points="1317,-121 1430,-121 "/>
<text text-anchor="start" x="1325" y="-109" font-family="Helvetica,sans-Serif" font-size="10.00">&#45; ozone</text>
<polyline fill="none" stroke="black" points="1317,-102 1430,-102 "/>
<text text-anchor="start" x="1325" y="-90" font-family="Helvetica,sans-Serif" font-size="10.00">+ OzoneSensor()</text>
<text text-anchor="start" x="1325" y="-79" font-family="Helvetica,sans-Serif" font-size="10.00">+ OzoneSensor()</text>
<text text-anchor="start" x="1325" y="-68" font-family="Helvetica,sans-Serif" font-size="10.00">+ verify()</text>
<text text-anchor="start" x="1325" y="-57" font-family="Helvetica,sans-Serif" font-size="10.00">+ readData()</text>
<text text-anchor="start" x="1325" y="-46" font-family="Helvetica,sans-Serif" font-size="10.00">+ readDataPacket()</text>
<text text-anchor="start" x="1325" y="-35" font-family="Helvetica,sans-Serif" font-size="10.00">+ decodeToCSV()</text>
</a>
</g>
</g>
<!-- Node1&#45;&gt;Node13 -->
<g id="edge12" class="edge">
<title>Node1&#45;&gt;Node13</title>
<path fill="none" stroke="midnightblue" d="M1187.25,-276.21C1225.08,-245.45 1270.29,-206.47 1307.5,-168 1315.82,-159.4 1324.17,-149.81 1332,-140.3"/>
<polygon fill="none" stroke="midnightblue" points="1184.87,-273.64 1179.3,-282.65 1189.28,-279.08 1184.87,-273.64"/>
</g>
<!-- Node14 -->
<g id="node14" class="node">
<title>Node14</title>
<g id="a_node14"><a xlink:href="classPCF8523Sensor.html" target="_top" xlink:title="Implementation of the PCF8523 sensor.">
<polygon fill="none" stroke="black" points="1448,-22.5 1448,-145.5 1561,-145.5 1561,-22.5 1448,-22.5"/>
<text text-anchor="middle" x="1504.5" y="-133.5" font-family="Helvetica,sans-Serif" font-size="10.00">PCF8523Sensor</text>
<polyline fill="none" stroke="black" points="1448,-126.5 1561,-126.5 "/>
<text text-anchor="start" x="1456" y="-114.5" font-family="Helvetica,sans-Serif" font-size="10.00">&#45; rtc</text>
<polyline fill="none" stroke="black" points="1448,-107.5 1561,-107.5 "/>
<text text-anchor="start" x="1456" y="-95.5" font-family="Helvetica,sans-Serif" font-size="10.00">+ PCF8523Sensor()</text>
<text text-anchor="start" x="1456" y="-84.5" font-family="Helvetica,sans-Serif" font-size="10.00">+ PCF8523Sensor()</text>
<text text-anchor="start" x="1456" y="-73.5" font-family="Helvetica,sans-Serif" font-size="10.00">+ verify()</text>
<text text-anchor="start" x="1456" y="-62.5" font-family="Helvetica,sans-Serif" font-size="10.00">+ decodeToCSV()</text>
<text text-anchor="start" x="1456" y="-51.5" font-family="Helvetica,sans-Serif" font-size="10.00">+ readDataPacket()</text>
<text text-anchor="start" x="1456" y="-40.5" font-family="Helvetica,sans-Serif" font-size="10.00">+ readData()</text>
<text text-anchor="start" x="1456" y="-29.5" font-family="Helvetica,sans-Serif" font-size="10.00">+ calibrate()</text>
</a>
</g>
</g>
<!-- Node1&#45;&gt;Node14 -->
<g id="edge13" class="edge">
<title>Node1&#45;&gt;Node14</title>
<path fill="none" stroke="midnightblue" d="M1188.4,-307.62C1259.05,-279.23 1363.01,-231.04 1439.5,-168 1447.41,-161.48 1454.97,-153.84 1461.95,-145.89"/>
<polygon fill="none" stroke="midnightblue" points="1187.08,-304.37 1179.09,-311.32 1189.67,-310.88 1187.08,-304.37"/>
</g>
<!-- Node15 -->
<g id="node15" class="node">
<title>Node15</title>
<g id="a_node15"><a xlink:href="classSCD40Sensor.html" target="_top" xlink:title="A class to interface with the Sensirion SCD40 sensor for CO2 data collection.">
<polygon fill="none" stroke="black" points="1579,-28 1579,-140 1692,-140 1692,-28 1579,-28"/>
<text text-anchor="middle" x="1635.5" y="-128" font-family="Helvetica,sans-Serif" font-size="10.00">SCD40Sensor</text>
<polyline fill="none" stroke="black" points="1579,-121 1692,-121 "/>
<text text-anchor="start" x="1587" y="-109" font-family="Helvetica,sans-Serif" font-size="10.00">&#45; scd</text>
<polyline fill="none" stroke="black" points="1579,-102 1692,-102 "/>
<text text-anchor="start" x="1587" y="-90" font-family="Helvetica,sans-Serif" font-size="10.00">+ SCD40Sensor()</text>
<text text-anchor="start" x="1587" y="-79" font-family="Helvetica,sans-Serif" font-size="10.00">+ SCD40Sensor()</text>
<text text-anchor="start" x="1587" y="-68" font-family="Helvetica,sans-Serif" font-size="10.00">+ verify()</text>
<text text-anchor="start" x="1587" y="-57" font-family="Helvetica,sans-Serif" font-size="10.00">+ readData()</text>
<text text-anchor="start" x="1587" y="-46" font-family="Helvetica,sans-Serif" font-size="10.00">+ readDataPacket()</text>
<text text-anchor="start" x="1587" y="-35" font-family="Helvetica,sans-Serif" font-size="10.00">+ decodeToCSV()</text>
</a>
</g>
</g>
<!-- Node1&#45;&gt;Node15 -->
<g id="edge14" class="edge">
<title>Node1&#45;&gt;Node15</title>
<path fill="none" stroke="midnightblue" d="M1189.32,-321.42C1286.63,-300.04 1452.66,-253.64 1570.5,-168 1581.01,-160.36 1590.69,-150.57 1599.2,-140.42"/>
<polygon fill="none" stroke="midnightblue" points="1188.28,-318.06 1179.25,-323.6 1189.76,-324.9 1188.28,-318.06"/>
</g>
<!-- Node16 -->
<g id="node16" class="node">
<title>Node16</title>
<g id="a_node16"><a xlink:href="classSGP30Sensor.html" target="_top" xlink:title="Implementation of a Sensor for the SGP Air Quality sensor.">
<polygon fill="none" stroke="black" points="1710,-28 1710,-140 1823,-140 1823,-28 1710,-28"/>
<text text-anchor="middle" x="1766.5" y="-128" font-family="Helvetica,sans-Serif" font-size="10.00">SGP30Sensor</text>
<polyline fill="none" stroke="black" points="1710,-121 1823,-121 "/>
<text text-anchor="start" x="1718" y="-109" font-family="Helvetica,sans-Serif" font-size="10.00">&#45; sgp</text>
<polyline fill="none" stroke="black" points="1710,-102 1823,-102 "/>
<text text-anchor="start" x="1718" y="-90" font-family="Helvetica,sans-Serif" font-size="10.00">+ SGP30Sensor()</text>
<text text-anchor="start" x="1718" y="-79" font-family="Helvetica,sans-Serif" font-size="10.00">+ SGP30Sensor()</text>
<text text-anchor="start" x="1718" y="-68" font-family="Helvetica,sans-Serif" font-size="10.00">+ verify()</text>
<text text-anchor="start" x="1718" y="-57" font-family="Helvetica,sans-Serif" font-size="10.00">+ readData()</text>
<text text-anchor="start" x="1718" y="-46" font-family="Helvetica,sans-Serif" font-size="10.00">+ readDataPacket()</text>
<text text-anchor="start" x="1718" y="-35" font-family="Helvetica,sans-Serif" font-size="10.00">+ decodeToCSV()</text>
</a>
</g>
</g>
<!-- Node1&#45;&gt;Node16 -->
<g id="edge15" class="edge">
<title>Node1&#45;&gt;Node16</title>
<path fill="none" stroke="midnightblue" d="M1189.43,-329.53C1309.72,-315.77 1540.36,-276.33 1701.5,-168 1712.59,-160.55 1722.64,-150.59 1731.34,-140.17"/>
<polygon fill="none" stroke="midnightblue" points="1188.75,-326.09 1179.19,-330.67 1189.52,-333.04 1188.75,-326.09"/>
</g>
<!-- Node17 -->
<g id="node17" class="node">
<title>Node17</title>
<g id="a_node17"><a xlink:href="classSHTC3Sensor.html" target="_top" xlink:title="Implementation of a Sensor for the SHTC3.">
<polygon fill="none" stroke="black" points="1841,-28 1841,-140 1954,-140 1954,-28 1841,-28"/>
<text text-anchor="middle" x="1897.5" y="-128" font-family="Helvetica,sans-Serif" font-size="10.00">SHTC3Sensor</text>
<polyline fill="none" stroke="black" points="1841,-121 1954,-121 "/>
<text text-anchor="start" x="1849" y="-109" font-family="Helvetica,sans-Serif" font-size="10.00">&#45; shtc3</text>
<polyline fill="none" stroke="black" points="1841,-102 1954,-102 "/>
<text text-anchor="start" x="1849" y="-90" font-family="Helvetica,sans-Serif" font-size="10.00">+ SHTC3Sensor()</text>
<text text-anchor="start" x="1849" y="-79" font-family="Helvetica,sans-Serif" font-size="10.00">+ SHTC3Sensor()</text>
<text text-anchor="start" x="1849" y="-68" font-family="Helvetica,sans-Serif" font-size="10.00">+ verify()</text>
<text text-anchor="start" x="1849" y="-57" font-family="Helvetica,sans-Serif" font-size="10.00">+ readData()</text>
<text text-anchor="start" x="1849" y="-46" font-family="Helvetica,sans-Serif" font-size="10.00">+ readDataPacket()</text>
<text text-anchor="start" x="1849" y="-35" font-family="Helvetica,sans-Serif" font-size="10.00">+ decodeToCSV()</text>
</a>
</g>
</g>
<!-- Node1&#45;&gt;Node17 -->
<g id="edge16" class="edge">
<title>Node1&#45;&gt;Node17</title>
<path fill="none" stroke="midnightblue" d="M1189.35,-334.86C1330.09,-328.48 1626.83,-299.16 1832.5,-168 1843.92,-160.72 1854.17,-150.71 1862.97,-140.16"/>
<polygon fill="none" stroke="midnightblue" points="1188.93,-331.37 1179.09,-335.29 1189.22,-338.37 1188.93,-331.37"/>
</g>
<!-- Node18 -->
<g id="node18" class="node">
<title>Node18</title>
<g id="a_node18"><a xlink:href="classTempSensor.html" target="_top" xlink:title="Implementation of a Sensor for the onboard temperature sensor.">
<polygon fill="none" stroke="black" points="1972,-28 1972,-140 2085,-140 2085,-28 1972,-28"/>
<text text-anchor="middle" x="2028.5" y="-128" font-family="Helvetica,sans-Serif" font-size="10.00">TempSensor</text>
<polyline fill="none" stroke="black" points="1972,-121 2085,-121 "/>
<text text-anchor="middle" x="2028.5" y="-109" font-family="Helvetica,sans-Serif" font-size="10.00"> </text>
<polyline fill="none" stroke="black" points="1972,-102 2085,-102 "/>
<text text-anchor="start" x="1980" y="-90" font-family="Helvetica,sans-Serif" font-size="10.00">+ TempSensor()</text>
<text text-anchor="start" x="1980" y="-79" font-family="Helvetica,sans-Serif" font-size="10.00">+ TempSensor()</text>
<text text-anchor="start" x="1980" y="-68" font-family="Helvetica,sans-Serif" font-size="10.00">+ verify()</text>
<text text-anchor="start" x="1980" y="-57" font-family="Helvetica,sans-Serif" font-size="10.00">+ readData()</text>
<text text-anchor="start" x="1980" y="-46" font-family="Helvetica,sans-Serif" font-size="10.00">+ readDataPacket()</text>
<text text-anchor="start" x="1980" y="-35" font-family="Helvetica,sans-Serif" font-size="10.00">+ decodeToCSV()</text>
</a>
</g>
</g>
<!-- Node1&#45;&gt;Node18 -->
<g id="edge17" class="edge">
<title>Node1&#45;&gt;Node18</title>
<path fill="none" stroke="midnightblue" d="M1188.99,-327.96C1375.09,-306.84 1833.17,-248.02 1963.5,-168 1975.2,-160.82 1985.62,-150.72 1994.51,-140.03"/>
<polygon fill="none" stroke="midnightblue" points="1188.54,-324.49 1179,-329.08 1189.33,-331.44 1188.54,-324.49"/>
</g>
<!-- Node19 -->
<g id="node19" class="node">
<title>Node19</title>
<g id="a_node19"><a xlink:href="classTMP117Sensor.html" target="_top" xlink:title="Implementation of a Sensor for the TMP117.">
<polygon fill="none" stroke="black" points="2103,-28 2103,-140 2216,-140 2216,-28 2103,-28"/>
<text text-anchor="middle" x="2159.5" y="-128" font-family="Helvetica,sans-Serif" font-size="10.00">TMP117Sensor</text>
<polyline fill="none" stroke="black" points="2103,-121 2216,-121 "/>
<text text-anchor="start" x="2111" y="-109" font-family="Helvetica,sans-Serif" font-size="10.00">&#45; tmp</text>
<polyline fill="none" stroke="black" points="2103,-102 2216,-102 "/>
<text text-anchor="start" x="2111" y="-90" font-family="Helvetica,sans-Serif" font-size="10.00">+ TMP117Sensor()</text>
<text text-anchor="start" x="2111" y="-79" font-family="Helvetica,sans-Serif" font-size="10.00">+ TMP117Sensor()</text>
<text text-anchor="start" x="2111" y="-68" font-family="Helvetica,sans-Serif" font-size="10.00">+ verify()</text>
<text text-anchor="start" x="2111" y="-57" font-family="Helvetica,sans-Serif" font-size="10.00">+ readData()</text>
<text text-anchor="start" x="2111" y="-46" font-family="Helvetica,sans-Serif" font-size="10.00">+ readDataPacket()</text>
<text text-anchor="start" x="2111" y="-35" font-family="Helvetica,sans-Serif" font-size="10.00">+ decodeToCSV()</text>
</a>
</g>
</g>
<!-- Node1&#45;&gt;Node19 -->
<g id="edge18" class="edge">
<title>Node1&#45;&gt;Node19</title>
<path fill="none" stroke="midnightblue" d="M1189.18,-330.27C1395.33,-313.01 1940.84,-259.67 2094.5,-168 2106.29,-160.97 2116.75,-150.93 2125.65,-140.25"/>
<polygon fill="none" stroke="midnightblue" points="1188.71,-326.8 1179.03,-331.12 1189.29,-333.78 1188.71,-326.8"/>
</g>
<!-- Node2 -->
<g id="node2" class="node">
<title>Node2</title>
<g id="a_node2"><a xlink:href="classDevice.html" target="_top" xlink:title="Implements the recovery system for Sensor and Storage objects.">
<polygon fill="none" stroke="black" points="1045,-507.5 1045,-707.5 1174,-707.5 1174,-507.5 1045,-507.5"/>
<text text-anchor="middle" x="1109.5" y="-695.5" font-family="Helvetica,sans-Serif" font-size="10.00">Device</text>
<polyline fill="none" stroke="black" points="1045,-688.5 1174,-688.5 "/>
<text text-anchor="start" x="1053" y="-676.5" font-family="Helvetica,sans-Serif" font-size="10.00"># verified</text>
<text text-anchor="start" x="1053" y="-665.5" font-family="Helvetica,sans-Serif" font-size="10.00">&#45; last_attempt</text>
<text text-anchor="start" x="1053" y="-654.5" font-family="Helvetica,sans-Serif" font-size="10.00">&#45; max_attempts</text>
<text text-anchor="start" x="1053" y="-643.5" font-family="Helvetica,sans-Serif" font-size="10.00">&#45; attempt_number</text>
<text text-anchor="start" x="1053" y="-632.5" font-family="Helvetica,sans-Serif" font-size="10.00">&#45; wait_factor</text>
<text text-anchor="start" x="1053" y="-621.5" font-family="Helvetica,sans-Serif" font-size="10.00">&#45; device_name</text>
<polyline fill="none" stroke="black" points="1045,-614.5 1174,-614.5 "/>
<text text-anchor="start" x="1053" y="-602.5" font-family="Helvetica,sans-Serif" font-size="10.00">+ Device()</text>
<text text-anchor="start" x="1053" y="-591.5" font-family="Helvetica,sans-Serif" font-size="10.00">+ Device()</text>
<text text-anchor="start" x="1053" y="-580.5" font-family="Helvetica,sans-Serif" font-size="10.00">+ getDeviceName()</text>
<text text-anchor="start" x="1053" y="-569.5" font-family="Helvetica,sans-Serif" font-size="10.00">+ verify()</text>
<text text-anchor="start" x="1053" y="-558.5" font-family="Helvetica,sans-Serif" font-size="10.00">+ getVerified()</text>
<text text-anchor="start" x="1053" y="-547.5" font-family="Helvetica,sans-Serif" font-size="10.00">+ recoveryConfig()</text>
<text text-anchor="start" x="1053" y="-536.5" font-family="Helvetica,sans-Serif" font-size="10.00">+ setWaitFactor()</text>
<text text-anchor="start" x="1053" y="-525.5" font-family="Helvetica,sans-Serif" font-size="10.00">+ setMaxAttempts()</text>
<text text-anchor="start" x="1053" y="-514.5" font-family="Helvetica,sans-Serif" font-size="10.00">+ attemptConnection()</text>
</a>
</g>
</g>
<!-- Node2&#45;&gt;Node1 -->
<g id="edge1" class="edge">
<title>Node2&#45;&gt;Node1</title>
<path fill="none" stroke="midnightblue" d="M1109.5,-497.32C1109.5,-488.61 1109.5,-479.75 1109.5,-470.91"/>
<polygon fill="none" stroke="midnightblue" points="1106,-497.47 1109.5,-507.47 1113,-497.47 1106,-497.47"/>
</g>
</g>
</svg>
        <g id="navigator" transform="translate(0 0)" fill="#404254">
                <rect fill="#f2f5e9" fill-opacity="0.5" stroke="#606060" stroke-width=".5" x="0" y="0" width="60" height="60"/>
                <use id="zoomplus" xlink:href="#zoomPlus" x="17" y="9" onmousedown="handleZoom(evt,'in')"/>
                <use id="zoomminus" xlink:href="#zoomMin" x="42" y="9" onmousedown="handleZoom(evt,'out')"/>
                <use id="reset" xlink:href="#resetDef" x="30" y="36" onmousedown="handleReset()"/>
                <g id="arrowUp" xlink:href="#dirArrow" transform="translate(30 24)" onmousedown="handlePan(0,-1)">
                  <use xlink:href="#rim" fill="#404040">
                        <set attributeName="fill" to="#808080" begin="arrowUp.mouseover" end="arrowUp.mouseout"/>
                  </use>
                  <path fill="none" stroke="white" stroke-width="1.5" d="M0,-3.0v7 M-2.5,-0.5L0,-3.0L2.5,-0.5"/>
                </g>
                <g id="arrowRight" xlink:href="#dirArrow" transform="rotate(90) translate(36 -43)" onmousedown="handlePan(1,0)">
                  <use xlink:href="#rim" fill="#404040">
                        <set attributeName="fill" to="#808080" begin="arrowRight.mouseover" end="arrowRight.mouseout"/>
                  </use>
                  <path fill="none" stroke="white" stroke-width="1.5" d="M0,-3.0v7 M-2.5,-0.5L0,-3.0L2.5,-0.5"/>
                </g>
                <g id="arrowDown" xlink:href="#dirArrow" transform="rotate(180) translate(-30 -48)" onmousedown="handlePan(0,1)">
                  <use xlink:href="#rim" fill="#404040">
                        <set attributeName="fill" to="#808080" begin="arrowDown.mouseover" end="arrowDown.mouseout"/>
                  </use>
                  <path fill="none" stroke="white" stroke-width="1.5" d="M0,-3.0v7 M-2.5,-0.5L0,-3.0L2.5,-0.5"/>
                </g>
                <g id="arrowLeft" xlink:href="#dirArrow" transform="rotate(270) translate(-36 17)" onmousedown="handlePan(-1,0)">
                  <use xlink:href="#rim" fill="#404040">
                        <set attributeName="fill" to="#808080" begin="arrowLeft.mouseover" end="arrowLeft.mouseout"/>
                  </use>
                  <path fill="none" stroke="white" stroke-width="1.5" d="M0,-3.0v7 M-2.5,-0.5L0,-3.0L2.5,-0.5"/>
                </g>
        </g>
        <svg viewBox="0 0 15 15" width="100%" height="30px" preserveAspectRatio="xMaxYMin meet">
         <g id="arrow_out" transform="scale(0.3 0.3)">
          <a xlink:href="classSensor__inherit__graph_org.svg" target="_base">
           <rect id="button" ry="5" rx="5" y="6" x="6" height="38" width="38"
                fill="#f2f5e9" fill-opacity="0.5" stroke="#606060" stroke-width="1.0"/>
           <path id="arrow"
             d="M 11.500037,31.436501 C 11.940474,20.09759 22.043105,11.32322 32.158766,21.979434 L 37.068811,17.246167 C 37.068811,17.246167 37.088388,32 37.088388,32 L 22.160133,31.978069 C 22.160133,31.978069 26.997745,27.140456 26.997745,27.140456 C 18.528582,18.264221 13.291696,25.230495 11.500037,31.436501 z"
             style="fill:#404040;"/>
          </a>
         </g>
        </svg>
</svg>
