<?xml version="1.0" encoding="UTF-8" standalone="no"?>
<!DOCTYPE svg PUBLIC "-//W3C//DTD SVG 1.1//EN"
 "http://www.w3.org/Graphics/SVG/1.1/DTD/svg11.dtd">
<!-- Generated by graphviz version 2.43.0 (0)
 -->
<!-- Title: TMP117Sensor Pages: 1 -->
<svg width="141pt" height="827pt"
 viewBox="0.00 0.00 141.00 827.00" xmlns="http://www.w3.org/2000/svg" xmlns:xlink="http://www.w3.org/1999/xlink">
<g id="graph0" class="graph" transform="scale(1 1) rotate(0) translate(4 823)">
<title>TMP117Sensor</title>
<!-- Node1 -->
<g id="Node000001" class="node">
<title>Node1</title>
<g id="a_Node000001"><a xlink:title="Implementation of a Sensor for the TMP117.">
<polygon fill="#999999" stroke="transparent" points="119.5,-169 13.5,-169 13.5,0 119.5,0 119.5,-169"/>
<text text-anchor="start" x="30" y="-156.5" font-family="Helvetica,sans-Serif" font-size="10.00">TMP117Sensor</text>
<text text-anchor="start" x="20" y="-141.5" font-family="Helvetica,sans-Serif" font-size="10.00">&#45;</text>
<text text-anchor="start" x="30.5" y="-141.5" font-family="Helvetica,sans-Serif" font-size="10.00">tmp</text>
<text text-anchor="start" x="20" y="-126.5" font-family="Helvetica,sans-Serif" font-size="10.00">&#45;</text>
<text text-anchor="start" x="30.5" y="-126.5" font-family="Helvetica,sans-Serif" font-size="10.00">tempC</text>
<text text-anchor="start" x="20" y="-111.5" font-family="Helvetica,sans-Serif" font-size="10.00">&#45;</text>
<text text-anchor="start" x="30.5" y="-111.5" font-family="Helvetica,sans-Serif" font-size="10.00">i2c_bus</text>
<text text-anchor="start" x="17.5" y="-96.5" font-family="Helvetica,sans-Serif" font-size="10.00">+</text>
<text text-anchor="start" x="30.5" y="-96.5" font-family="Helvetica,sans-Serif" font-size="10.00">TMP117Sensor()</text>
<text text-anchor="start" x="17.5" y="-81.5" font-family="Helvetica,sans-Serif" font-size="10.00">+</text>
<text text-anchor="start" x="30.5" y="-81.5" font-family="Helvetica,sans-Serif" font-size="10.00">TMP117Sensor()</text>
<text text-anchor="start" x="17.5" y="-66.5" font-family="Helvetica,sans-Serif" font-size="10.00">+</text>
<text text-anchor="start" x="30.5" y="-66.5" font-family="Helvetica,sans-Serif" font-size="10.00">verify()</text>
<text text-anchor="start" x="17.5" y="-51.5" font-family="Helvetica,sans-Serif" font-size="10.00">+</text>
<text text-anchor="start" x="30.5" y="-51.5" font-family="Helvetica,sans-Serif" font-size="10.00">readData()</text>
<text text-anchor="start" x="17.5" y="-36.5" font-family="Helvetica,sans-Serif" font-size="10.00">+</text>
<text text-anchor="start" x="30.5" y="-36.5" font-family="Helvetica,sans-Serif" font-size="10.00">readDataPacket()</text>
<text text-anchor="start" x="17.5" y="-21.5" font-family="Helvetica,sans-Serif" font-size="10.00">+</text>
<text text-anchor="start" x="30.5" y="-21.5" font-family="Helvetica,sans-Serif" font-size="10.00">decodeToCSV()</text>
<text text-anchor="start" x="17.5" y="-6.5" font-family="Helvetica,sans-Serif" font-size="10.00">+</text>
<text text-anchor="start" x="30.5" y="-6.5" font-family="Helvetica,sans-Serif" font-size="10.00">getTempC()</text>
<polygon fill="#666666" stroke="#666666" points="13.5,-151.5 13.5,-151.5 119.5,-151.5 119.5,-151.5 13.5,-151.5"/>
<polygon fill="#666666" stroke="#666666" points="13.5,-106.5 13.5,-106.5 28.5,-106.5 28.5,-106.5 13.5,-106.5"/>
<polygon fill="#666666" stroke="#666666" points="28.5,-106.5 28.5,-106.5 119.5,-106.5 119.5,-106.5 28.5,-106.5"/>
<polygon fill="none" stroke="#666666" points="13.5,0 13.5,-169 119.5,-169 119.5,0 13.5,0"/>
</a>
</g>
</g>
<!-- Node2 -->
<g id="Node000002" class="node">
<title>Node2</title>
<g id="a_Node000002"><a xlink:href="classSensor.html" target="_top" xlink:title="Parent class for sensor objects.">
<polygon fill="white" stroke="transparent" points="133,-539 0,-539 0,-205 133,-205 133,-539"/>
<text text-anchor="start" x="50" y="-527" font-family="Helvetica,sans-Serif" font-size="10.00">Sensor</text>
<text text-anchor="start" x="4.5" y="-512" font-family="Helvetica,sans-Serif" font-size="10.00">#</text>
<text text-anchor="start" x="17.5" y="-512" font-family="Helvetica,sans-Serif" font-size="10.00">num_fields</text>
<text text-anchor="start" x="7" y="-497" font-family="Helvetica,sans-Serif" font-size="10.00">&#45;</text>
<text text-anchor="start" x="17.5" y="-497" font-family="Helvetica,sans-Serif" font-size="10.00">minimum_period</text>
<text text-anchor="start" x="7" y="-482" font-family="Helvetica,sans-Serif" font-size="10.00">&#45;</text>
<text text-anchor="start" x="17.5" y="-482" font-family="Helvetica,sans-Serif" font-size="10.00">last_execution</text>
<text text-anchor="start" x="7" y="-467" font-family="Helvetica,sans-Serif" font-size="10.00">&#45;</text>
<text text-anchor="start" x="17.5" y="-467" font-family="Helvetica,sans-Serif" font-size="10.00">csv_header</text>
<text text-anchor="start" x="7" y="-452" font-family="Helvetica,sans-Serif" font-size="10.00">&#45;</text>
<text text-anchor="start" x="17.5" y="-452" font-family="Helvetica,sans-Serif" font-size="10.00">empty_csv</text>
<text text-anchor="start" x="4.5" y="-437" font-family="Helvetica,sans-Serif" font-size="10.00">+</text>
<text text-anchor="start" x="17.5" y="-437" font-family="Helvetica,sans-Serif" font-size="10.00">Sensor()</text>
<text text-anchor="start" x="4.5" y="-422" font-family="Helvetica,sans-Serif" font-size="10.00">+</text>
<text text-anchor="start" x="17.5" y="-422" font-family="Helvetica,sans-Serif" font-size="10.00">Sensor()</text>
<text text-anchor="start" x="4.5" y="-407" font-family="Helvetica,sans-Serif" font-size="10.00">+</text>
<text text-anchor="start" x="17.5" y="-407" font-family="Helvetica,sans-Serif" font-size="10.00">Sensor()</text>
<text text-anchor="start" x="4.5" y="-392" font-family="Helvetica,sans-Serif" font-size="10.00">+</text>
<text text-anchor="start" x="17.5" y="-392" font-family="Helvetica,sans-Serif" font-size="10.00">Sensor()</text>
<text text-anchor="start" x="4.5" y="-377" font-family="Helvetica,sans-Serif" font-size="10.00">+</text>
<text text-anchor="start" x="17.5" y="-377" font-family="Helvetica,sans-Serif" font-size="10.00">getPeriod()</text>
<text text-anchor="start" x="4.5" y="-362" font-family="Helvetica,sans-Serif" font-size="10.00">+</text>
<text text-anchor="start" x="17.5" y="-362" font-family="Helvetica,sans-Serif" font-size="10.00">setPeriod()</text>
<text text-anchor="start" x="4.5" y="-347" font-family="Helvetica,sans-Serif" font-size="10.00">+</text>
<text text-anchor="start" x="17.5" y="-347" font-family="Helvetica,sans-Serif" font-size="10.00">getLastExecution()</text>
<text text-anchor="start" x="4.5" y="-332" font-family="Helvetica,sans-Serif" font-size="10.00">+</text>
<text text-anchor="start" x="17.5" y="-332" font-family="Helvetica,sans-Serif" font-size="10.00">setLastExecution()</text>
<text text-anchor="start" x="4.5" y="-317" font-family="Helvetica,sans-Serif" font-size="10.00">+</text>
<text text-anchor="start" x="17.5" y="-317" font-family="Helvetica,sans-Serif" font-size="10.00">getSensorCSVHeader()</text>
<text text-anchor="start" x="4.5" y="-302" font-family="Helvetica,sans-Serif" font-size="10.00">+</text>
<text text-anchor="start" x="17.5" y="-302" font-family="Helvetica,sans-Serif" font-size="10.00">verify()</text>
<text text-anchor="start" x="4.5" y="-287" font-family="Helvetica,sans-Serif" font-size="10.00">+</text>
<text text-anchor="start" x="17.5" y="-287" font-family="Helvetica,sans-Serif" font-size="10.00">readData()</text>
<text text-anchor="start" x="4.5" y="-272" font-family="Helvetica,sans-Serif" font-size="10.00">+</text>
<text text-anchor="start" x="17.5" y="-272" font-family="Helvetica,sans-Serif" font-size="10.00">readDataPacket()</text>
<text text-anchor="start" x="4.5" y="-257" font-family="Helvetica,sans-Serif" font-size="10.00">+</text>
<text text-anchor="start" x="17.5" y="-257" font-family="Helvetica,sans-Serif" font-size="10.00">decodeToCSV()</text>
<text text-anchor="start" x="4.5" y="-242" font-family="Helvetica,sans-Serif" font-size="10.00">+</text>
<text text-anchor="start" x="17.5" y="-242" font-family="Helvetica,sans-Serif" font-size="10.00">getDataPacket()</text>
<text text-anchor="start" x="4.5" y="-227" font-family="Helvetica,sans-Serif" font-size="10.00">+</text>
<text text-anchor="start" x="17.5" y="-227" font-family="Helvetica,sans-Serif" font-size="10.00">readEmpty()</text>
<text text-anchor="start" x="4.5" y="-212" font-family="Helvetica,sans-Serif" font-size="10.00">+</text>
<text text-anchor="start" x="17.5" y="-212" font-family="Helvetica,sans-Serif" font-size="10.00">getDataCSV()</text>
<polygon fill="#666666" stroke="#666666" points="0.5,-522 0.5,-522 133.5,-522 133.5,-522 0.5,-522"/>
<polygon fill="#666666" stroke="#666666" points="0.5,-447 0.5,-447 15.5,-447 15.5,-447 0.5,-447"/>
<polygon fill="#666666" stroke="#666666" points="15.5,-447 15.5,-447 133.5,-447 133.5,-447 15.5,-447"/>
<polygon fill="none" stroke="#666666" points="0,-205 0,-539 133,-539 133,-205 0,-205"/>
</a>
</g>
</g>
<!-- Node2&#45;&gt;Node1 -->
<g id="edge1_Node000001_Node000002" class="edge">
<title>Node2&#45;&gt;Node1</title>
<g id="a_edge1_Node000001_Node000002"><a xlink:title=" ">
<path fill="none" stroke="#63b8ff" d="M66.5,-194.92C66.5,-186.12 66.5,-177.5 66.5,-169.21"/>
<polygon fill="none" stroke="#63b8ff" points="63,-194.92 66.5,-204.92 70,-194.92 63,-194.92"/>
</a>
</g>
</g>
<!-- Node3 -->
<g id="Node000003" class="node">
<title>Node3</title>
<g id="a_Node000003"><a xlink:href="classDevice.html" target="_top" xlink:title="Implements the recovery system for Sensor and Storage objects.">
<polygon fill="white" stroke="transparent" points="128,-819 5,-819 5,-575 128,-575 128,-819"/>
<text text-anchor="start" x="50" y="-807" font-family="Helvetica,sans-Serif" font-size="10.00">Device</text>
<text text-anchor="start" x="9.5" y="-792" font-family="Helvetica,sans-Serif" font-size="10.00">#</text>
<text text-anchor="start" x="22.5" y="-792" font-family="Helvetica,sans-Serif" font-size="10.00">verified</text>
<text text-anchor="start" x="9.5" y="-777" font-family="Helvetica,sans-Serif" font-size="10.00">#</text>
<text text-anchor="start" x="22.5" y="-777" font-family="Helvetica,sans-Serif" font-size="10.00">device_name</text>
<text text-anchor="start" x="12" y="-762" font-family="Helvetica,sans-Serif" font-size="10.00">&#45;</text>
<text text-anchor="start" x="22.5" y="-762" font-family="Helvetica,sans-Serif" font-size="10.00">last_attempt</text>
<text text-anchor="start" x="12" y="-747" font-family="Helvetica,sans-Serif" font-size="10.00">&#45;</text>
<text text-anchor="start" x="22.5" y="-747" font-family="Helvetica,sans-Serif" font-size="10.00">max_attempts</text>
<text text-anchor="start" x="12" y="-732" font-family="Helvetica,sans-Serif" font-size="10.00">&#45;</text>
<text text-anchor="start" x="22.5" y="-732" font-family="Helvetica,sans-Serif" font-size="10.00">attempt_number</text>
<text text-anchor="start" x="12" y="-717" font-family="Helvetica,sans-Serif" font-size="10.00">&#45;</text>
<text text-anchor="start" x="22.5" y="-717" font-family="Helvetica,sans-Serif" font-size="10.00">wait_factor</text>
<text text-anchor="start" x="9.5" y="-702" font-family="Helvetica,sans-Serif" font-size="10.00">+</text>
<text text-anchor="start" x="22.5" y="-702" font-family="Helvetica,sans-Serif" font-size="10.00">Device()</text>
<text text-anchor="start" x="9.5" y="-687" font-family="Helvetica,sans-Serif" font-size="10.00">+</text>
<text text-anchor="start" x="22.5" y="-687" font-family="Helvetica,sans-Serif" font-size="10.00">Device()</text>
<text text-anchor="start" x="9.5" y="-672" font-family="Helvetica,sans-Serif" font-size="10.00">+</text>
<text text-anchor="start" x="22.5" y="-672" font-family="Helvetica,sans-Serif" font-size="10.00">getDeviceName()</text>
<text text-anchor="start" x="9.5" y="-657" font-family="Helvetica,sans-Serif" font-size="10.00">+</text>
<text text-anchor="start" x="22.5" y="-657" font-family="Helvetica,sans-Serif" font-size="10.00">verify()</text>
<text text-anchor="start" x="9.5" y="-642" font-family="Helvetica,sans-Serif" font-size="10.00">+</text>
<text text-anchor="start" x="22.5" y="-642" font-family="Helvetica,sans-Serif" font-size="10.00">getVerified()</text>
<text text-anchor="start" x="9.5" y="-627" font-family="Helvetica,sans-Serif" font-size="10.00">+</text>
<text text-anchor="start" x="22.5" y="-627" font-family="Helvetica,sans-Serif" font-size="10.00">recoveryConfig()</text>
<text text-anchor="start" x="9.5" y="-612" font-family="Helvetica,sans-Serif" font-size="10.00">+</text>
<text text-anchor="start" x="22.5" y="-612" font-family="Helvetica,sans-Serif" font-size="10.00">setWaitFactor()</text>
<text text-anchor="start" x="9.5" y="-597" font-family="Helvetica,sans-Serif" font-size="10.00">+</text>
<text text-anchor="start" x="22.5" y="-597" font-family="Helvetica,sans-Serif" font-size="10.00">setMaxAttempts()</text>
<text text-anchor="start" x="9.5" y="-582" font-family="Helvetica,sans-Serif" font-size="10.00">+</text>
<text text-anchor="start" x="22.5" y="-582" font-family="Helvetica,sans-Serif" font-size="10.00">attemptConnection()</text>
<polygon fill="#666666" stroke="#666666" points="5.5,-802 5.5,-802 128.5,-802 128.5,-802 5.5,-802"/>
<polygon fill="#666666" stroke="#666666" points="5.5,-712 5.5,-712 20.5,-712 20.5,-712 5.5,-712"/>
<polygon fill="#666666" stroke="#666666" points="20.5,-712 20.5,-712 128.5,-712 128.5,-712 20.5,-712"/>
<polygon fill="none" stroke="#666666" points="5,-575 5,-819 128,-819 128,-575 5,-575"/>
</a>
</g>
</g>
<!-- Node3&#45;&gt;Node2 -->
<g id="edge2_Node000002_Node000003" class="edge">
<title>Node3&#45;&gt;Node2</title>
<g id="a_edge2_Node000002_Node000003"><a xlink:title=" ">
<path fill="none" stroke="#63b8ff" d="M66.5,-564.65C66.5,-556.27 66.5,-547.78 66.5,-539.27"/>
<polygon fill="none" stroke="#63b8ff" points="63,-564.81 66.5,-574.81 70,-564.81 63,-564.81"/>
</a>
</g>
</g>
</g>
</svg>
