<?xml version="1.0" encoding="UTF-8" standalone="no"?>
<!DOCTYPE svg PUBLIC "-//W3C//DTD SVG 1.1//EN"
 "http://www.w3.org/Graphics/SVG/1.1/DTD/svg11.dtd">
<!-- Generated by graphviz version 2.43.0 (0)
 -->
<!-- Title: Sensor Pages: 1 -->
<!--zoomable 767 -->

<svg id="main" version="1.1" xmlns="http://www.w3.org/2000/svg" xmlns:xlink="http://www.w3.org/1999/xlink" xml:space="preserve" onload="init(evt)">
<style type="text/css"><![CDATA[
.node, .edge {opacity: 0.7;}
.node.selected, .edge.selected {opacity: 1;}
.edge:hover path { stroke: red; }
.edge:hover polygon { stroke: red; fill: red; }
]]></style>

<defs>
  <circle id="rim" cx="0" cy="0" r="7"/>
  <circle id="rim2" cx="0" cy="0" r="3.5"/>
  <g id="zoomPlus">
    <use xlink:href="#rim" fill="#404040"><set attributeName="fill" to="#808080" begin="zoomplus.mouseover" end="zoomplus.mouseout"/></use>
    <path d="M-4,0h8M0,-4v8" fill="none" stroke="white" stroke-width="1.5" pointer-events="none"/>
  </g>
  <g id="zoomMin">
    <use xlink:href="#rim" fill="#404040"><set attributeName="fill" to="#808080" begin="zoomminus.mouseover" end="zoomminus.mouseout"/></use>
    <path d="M-4,0h8" fill="none" stroke="white" stroke-width="1.5" pointer-events="none"/>
  </g>
  <g id="arrowUp" transform="translate(30 24)">
    <use xlink:href="#rim"/>
    <path pointer-events="none" fill="none" stroke="white" stroke-width="1.5" d="M0,-3.0v7 M-2.5,-0.5L0,-3.0L2.5,-0.5"/>
  </g>
  <g id="arrowRight" transform="rotate(90) translate(36 -43)">
    <use xlink:href="#rim"/>
    <path pointer-events="none" fill="none" stroke="white" stroke-width="1.5" d="M0,-3.0v7 M-2.5,-0.5L0,-3.0L2.5,-0.5"/>
  </g>
  <g id="arrowDown" transform="rotate(180) translate(-30 -48)">
    <use xlink:href="#rim"/>
    <path pointer-events="none" fill="none" stroke="white" stroke-width="1.5" d="M0,-3.0v7 M-2.5,-0.5L0,-3.0L2.5,-0.5"/>
  </g>
  <g id="arrowLeft" transform="rotate(270) translate(-36 17)">
    <use xlink:href="#rim"/>
    <path pointer-events="none" fill="none" stroke="white" stroke-width="1.5" d="M0,-3.0v7 M-2.5,-0.5L0,-3.0L2.5,-0.5"/>
  </g>
  <g id="resetDef">
    <use xlink:href="#rim2" fill="#404040"><set attributeName="fill" to="#808080" begin="reset.mouseover" end="reset.mouseout"/></use>
  </g>
</defs>
<script type="application/ecmascript">
var viewWidth = 1476;
var viewHeight = 767;
var sectionId = 'dynsection-0';
</script>
<script type="application/ecmascript" xlink:href="svg.min.js"/>
<svg id="graph" class="graph">
<g id="viewport">
<title>Sensor</title>
<!-- Node1 -->
<g id="Node000001" class="node">
<title>Node1</title>
<g id="a_Node000001"><a xlink:title="Parent class for sensor objects.">
<polygon fill="#999999" stroke="transparent" points="805.5,-479 672.5,-479 672.5,-235 805.5,-235 805.5,-479"/>
<text text-anchor="start" x="722.5" y="-467" font-family="Helvetica,sans-Serif" font-size="10.00">Sensor</text>
<text text-anchor="start" x="679.5" y="-452" font-family="Helvetica,sans-Serif" font-size="10.00">&#45;</text>
<text text-anchor="start" x="690" y="-452" font-family="Helvetica,sans-Serif" font-size="10.00">minimum_period</text>
<text text-anchor="start" x="679.5" y="-437" font-family="Helvetica,sans-Serif" font-size="10.00">&#45;</text>
<text text-anchor="start" x="690" y="-437" font-family="Helvetica,sans-Serif" font-size="10.00">last_execution</text>
<text text-anchor="start" x="679.5" y="-422" font-family="Helvetica,sans-Serif" font-size="10.00">&#45;</text>
<text text-anchor="start" x="690" y="-422" font-family="Helvetica,sans-Serif" font-size="10.00">csv_header</text>
<text text-anchor="start" x="679.5" y="-407" font-family="Helvetica,sans-Serif" font-size="10.00">&#45;</text>
<text text-anchor="start" x="690" y="-407" font-family="Helvetica,sans-Serif" font-size="10.00">empty_csv</text>
<text text-anchor="start" x="677" y="-392" font-family="Helvetica,sans-Serif" font-size="10.00">+</text>
<text text-anchor="start" x="690" y="-392" font-family="Helvetica,sans-Serif" font-size="10.00">Sensor()</text>
<text text-anchor="start" x="677" y="-377" font-family="Helvetica,sans-Serif" font-size="10.00">+</text>
<text text-anchor="start" x="690" y="-377" font-family="Helvetica,sans-Serif" font-size="10.00">Sensor()</text>
<text text-anchor="start" x="677" y="-362" font-family="Helvetica,sans-Serif" font-size="10.00">+</text>
<text text-anchor="start" x="690" y="-362" font-family="Helvetica,sans-Serif" font-size="10.00">Sensor()</text>
<text text-anchor="start" x="677" y="-347" font-family="Helvetica,sans-Serif" font-size="10.00">+</text>
<text text-anchor="start" x="690" y="-347" font-family="Helvetica,sans-Serif" font-size="10.00">Sensor()</text>
<text text-anchor="start" x="677" y="-332" font-family="Helvetica,sans-Serif" font-size="10.00">+</text>
<text text-anchor="start" x="690" y="-332" font-family="Helvetica,sans-Serif" font-size="10.00">getPeriod()</text>
<text text-anchor="start" x="677" y="-317" font-family="Helvetica,sans-Serif" font-size="10.00">+</text>
<text text-anchor="start" x="690" y="-317" font-family="Helvetica,sans-Serif" font-size="10.00">setPeriod()</text>
<text text-anchor="start" x="677" y="-302" font-family="Helvetica,sans-Serif" font-size="10.00">+</text>
<text text-anchor="start" x="690" y="-302" font-family="Helvetica,sans-Serif" font-size="10.00">getLastExecution()</text>
<text text-anchor="start" x="677" y="-287" font-family="Helvetica,sans-Serif" font-size="10.00">+</text>
<text text-anchor="start" x="690" y="-287" font-family="Helvetica,sans-Serif" font-size="10.00">setLastExecution()</text>
<text text-anchor="start" x="677" y="-272" font-family="Helvetica,sans-Serif" font-size="10.00">+</text>
<text text-anchor="start" x="690" y="-272" font-family="Helvetica,sans-Serif" font-size="10.00">getSensorCSVHeader()</text>
<text text-anchor="start" x="677" y="-257" font-family="Helvetica,sans-Serif" font-size="10.00">+</text>
<text text-anchor="start" x="690" y="-257" font-family="Helvetica,sans-Serif" font-size="10.00">verify()</text>
<text text-anchor="start" x="690" y="-242" font-family="Helvetica,sans-Serif" font-size="10.00">and 6 more...</text>
<polygon fill="#666666" stroke="#666666" points="673,-462 673,-462 806,-462 806,-462 673,-462"/>
<polygon fill="#666666" stroke="#666666" points="673,-402 673,-402 688,-402 688,-402 673,-402"/>
<polygon fill="#666666" stroke="#666666" points="688,-402 688,-402 806,-402 806,-402 688,-402"/>
<polygon fill="none" stroke="#666666" points="672.5,-235 672.5,-479 805.5,-479 805.5,-235 672.5,-235"/>
</a>
</g>
</g>
<!-- Node3 -->
<g id="Node000003" class="node">
<title>Node3</title>
<g id="a_Node000003"><a xlink:href="classAS7331Sensor.html" target="_top" xlink:title="Implementation of a Sensor for UVA/B/C sensor.">
<polygon fill="white" stroke="transparent" points="106,-169 0,-169 0,-30 106,-30 106,-169"/>
<text text-anchor="start" x="18" y="-156.5" font-family="Helvetica,sans-Serif" font-size="10.00">AS7331Sensor</text>
<text text-anchor="start" x="6.5" y="-141.5" font-family="Helvetica,sans-Serif" font-size="10.00">&#45;</text>
<text text-anchor="start" x="17" y="-141.5" font-family="Helvetica,sans-Serif" font-size="10.00">myUVSensor</text>
<text text-anchor="start" x="6.5" y="-126.5" font-family="Helvetica,sans-Serif" font-size="10.00">&#45;</text>
<text text-anchor="start" x="17" y="-126.5" font-family="Helvetica,sans-Serif" font-size="10.00">i2c_addr</text>
<text text-anchor="start" x="4" y="-111.5" font-family="Helvetica,sans-Serif" font-size="10.00">+</text>
<text text-anchor="start" x="17" y="-111.5" font-family="Helvetica,sans-Serif" font-size="10.00">AS7331Sensor()</text>
<text text-anchor="start" x="4" y="-96.5" font-family="Helvetica,sans-Serif" font-size="10.00">+</text>
<text text-anchor="start" x="17" y="-96.5" font-family="Helvetica,sans-Serif" font-size="10.00">AS7331Sensor()</text>
<text text-anchor="start" x="4" y="-81.5" font-family="Helvetica,sans-Serif" font-size="10.00">+</text>
<text text-anchor="start" x="17" y="-81.5" font-family="Helvetica,sans-Serif" font-size="10.00">verify()</text>
<text text-anchor="start" x="4" y="-66.5" font-family="Helvetica,sans-Serif" font-size="10.00">+</text>
<text text-anchor="start" x="17" y="-66.5" font-family="Helvetica,sans-Serif" font-size="10.00">readDataPacket()</text>
<text text-anchor="start" x="4" y="-51.5" font-family="Helvetica,sans-Serif" font-size="10.00">+</text>
<text text-anchor="start" x="17" y="-51.5" font-family="Helvetica,sans-Serif" font-size="10.00">decodeToCSV()</text>
<text text-anchor="start" x="4" y="-36.5" font-family="Helvetica,sans-Serif" font-size="10.00">+</text>
<text text-anchor="start" x="17" y="-36.5" font-family="Helvetica,sans-Serif" font-size="10.00">readData()</text>
<polygon fill="#666666" stroke="#666666" points="0,-151.5 0,-151.5 106,-151.5 106,-151.5 0,-151.5"/>
<polygon fill="#666666" stroke="#666666" points="0,-121.5 0,-121.5 15,-121.5 15,-121.5 0,-121.5"/>
<polygon fill="#666666" stroke="#666666" points="15,-121.5 15,-121.5 106,-121.5 106,-121.5 15,-121.5"/>
<polygon fill="none" stroke="#666666" points="0,-30 0,-169 106,-169 106,-30 0,-30"/>
</a>
</g>
</g>
<!-- Node1&#45;&gt;Node3 -->
<g id="edge2_Node000001_Node000003" class="edge">
<title>Node1&#45;&gt;Node3</title>
<g id="a_edge2_Node000001_Node000003"><a xlink:title=" ">
<path fill="none" stroke="#63b8ff" d="M661.82,-354.56C535.77,-348.55 282.97,-320.89 115,-199 103.96,-190.99 94.43,-180.36 86.39,-169.04"/>
<polygon fill="none" stroke="#63b8ff" points="662,-358.07 672.14,-355.01 662.31,-351.07 662,-358.07"/>
</a>
</g>
</g>
<!-- Node4 -->
<g id="Node000004" class="node">
<title>Node4</title>
<g id="a_Node000004"><a xlink:href="classBME280Sensor.html" target="_top" xlink:title="Implementation of a Sensor for the BME280.">
<polygon fill="white" stroke="transparent" points="230,-161.5 124,-161.5 124,-37.5 230,-37.5 230,-161.5"/>
<text text-anchor="start" x="140.5" y="-149.5" font-family="Helvetica,sans-Serif" font-size="10.00">BME280Sensor</text>
<text text-anchor="start" x="130.5" y="-134.5" font-family="Helvetica,sans-Serif" font-size="10.00">&#45;</text>
<text text-anchor="start" x="141" y="-134.5" font-family="Helvetica,sans-Serif" font-size="10.00">bme</text>
<text text-anchor="start" x="128" y="-119.5" font-family="Helvetica,sans-Serif" font-size="10.00">+</text>
<text text-anchor="start" x="141" y="-119.5" font-family="Helvetica,sans-Serif" font-size="10.00">BME280Sensor()</text>
<text text-anchor="start" x="128" y="-104.5" font-family="Helvetica,sans-Serif" font-size="10.00">+</text>
<text text-anchor="start" x="141" y="-104.5" font-family="Helvetica,sans-Serif" font-size="10.00">BME280Sensor()</text>
<text text-anchor="start" x="128" y="-89.5" font-family="Helvetica,sans-Serif" font-size="10.00">+</text>
<text text-anchor="start" x="141" y="-89.5" font-family="Helvetica,sans-Serif" font-size="10.00">verify()</text>
<text text-anchor="start" x="128" y="-74.5" font-family="Helvetica,sans-Serif" font-size="10.00">+</text>
<text text-anchor="start" x="141" y="-74.5" font-family="Helvetica,sans-Serif" font-size="10.00">readData()</text>
<text text-anchor="start" x="128" y="-59.5" font-family="Helvetica,sans-Serif" font-size="10.00">+</text>
<text text-anchor="start" x="141" y="-59.5" font-family="Helvetica,sans-Serif" font-size="10.00">readDataPacket()</text>
<text text-anchor="start" x="128" y="-44.5" font-family="Helvetica,sans-Serif" font-size="10.00">+</text>
<text text-anchor="start" x="141" y="-44.5" font-family="Helvetica,sans-Serif" font-size="10.00">decodeToCSV()</text>
<polygon fill="#666666" stroke="#666666" points="124,-144.5 124,-144.5 230,-144.5 230,-144.5 124,-144.5"/>
<polygon fill="#666666" stroke="#666666" points="124,-129.5 124,-129.5 139,-129.5 139,-129.5 124,-129.5"/>
<polygon fill="#666666" stroke="#666666" points="139,-129.5 139,-129.5 230,-129.5 230,-129.5 139,-129.5"/>
<polygon fill="none" stroke="#666666" points="124,-37.5 124,-161.5 230,-161.5 230,-37.5 124,-37.5"/>
</a>
</g>
</g>
<!-- Node1&#45;&gt;Node4 -->
<g id="edge3_Node000001_Node000004" class="edge">
<title>Node1&#45;&gt;Node4</title>
<g id="a_edge3_Node000001_Node000004"><a xlink:title=" ">
<path fill="none" stroke="#63b8ff" d="M662.17,-348.48C556.97,-334.77 366.63,-297.37 239,-199 226.04,-189.01 215.07,-175.48 206.13,-161.65"/>
<polygon fill="none" stroke="#63b8ff" points="662.03,-351.99 672.39,-349.78 662.9,-345.05 662.03,-351.99"/>
</a>
</g>
</g>
<!-- Node5 -->
<g id="Node000005" class="node">
<title>Node5</title>
<g id="a_Node000005"><a xlink:href="classBME680Sensor.html" target="_top" xlink:title="A class to interface with the Adafruit BME680 sensor for environmental data collection.">
<polygon fill="white" stroke="transparent" points="354,-161.5 248,-161.5 248,-37.5 354,-37.5 354,-161.5"/>
<text text-anchor="start" x="264.5" y="-149.5" font-family="Helvetica,sans-Serif" font-size="10.00">BME680Sensor</text>
<text text-anchor="start" x="254.5" y="-134.5" font-family="Helvetica,sans-Serif" font-size="10.00">&#45;</text>
<text text-anchor="start" x="265" y="-134.5" font-family="Helvetica,sans-Serif" font-size="10.00">bme</text>
<text text-anchor="start" x="252" y="-119.5" font-family="Helvetica,sans-Serif" font-size="10.00">+</text>
<text text-anchor="start" x="265" y="-119.5" font-family="Helvetica,sans-Serif" font-size="10.00">BME680Sensor()</text>
<text text-anchor="start" x="252" y="-104.5" font-family="Helvetica,sans-Serif" font-size="10.00">+</text>
<text text-anchor="start" x="265" y="-104.5" font-family="Helvetica,sans-Serif" font-size="10.00">BME680Sensor()</text>
<text text-anchor="start" x="252" y="-89.5" font-family="Helvetica,sans-Serif" font-size="10.00">+</text>
<text text-anchor="start" x="265" y="-89.5" font-family="Helvetica,sans-Serif" font-size="10.00">verify()</text>
<text text-anchor="start" x="252" y="-74.5" font-family="Helvetica,sans-Serif" font-size="10.00">+</text>
<text text-anchor="start" x="265" y="-74.5" font-family="Helvetica,sans-Serif" font-size="10.00">readData()</text>
<text text-anchor="start" x="252" y="-59.5" font-family="Helvetica,sans-Serif" font-size="10.00">+</text>
<text text-anchor="start" x="265" y="-59.5" font-family="Helvetica,sans-Serif" font-size="10.00">readDataPacket()</text>
<text text-anchor="start" x="252" y="-44.5" font-family="Helvetica,sans-Serif" font-size="10.00">+</text>
<text text-anchor="start" x="265" y="-44.5" font-family="Helvetica,sans-Serif" font-size="10.00">decodeToCSV()</text>
<polygon fill="#666666" stroke="#666666" points="248,-144.5 248,-144.5 354,-144.5 354,-144.5 248,-144.5"/>
<polygon fill="#666666" stroke="#666666" points="248,-129.5 248,-129.5 263,-129.5 263,-129.5 248,-129.5"/>
<polygon fill="#666666" stroke="#666666" points="263,-129.5 263,-129.5 354,-129.5 354,-129.5 263,-129.5"/>
<polygon fill="none" stroke="#666666" points="248,-37.5 248,-161.5 354,-161.5 354,-37.5 248,-37.5"/>
</a>
</g>
</g>
<!-- Node1&#45;&gt;Node5 -->
<g id="edge4_Node000001_Node000005" class="edge">
<title>Node1&#45;&gt;Node5</title>
<g id="a_edge4_Node000001_Node000005"><a xlink:title=" ">
<path fill="none" stroke="#63b8ff" d="M662.65,-338.81C581.09,-317.34 451.6,-273.98 363,-199 350.74,-188.62 340.11,-175.19 331.29,-161.6"/>
<polygon fill="none" stroke="#63b8ff" points="661.8,-342.2 672.36,-341.32 663.55,-335.43 661.8,-342.2"/>
</a>
</g>
</g>
<!-- Node6 -->
<g id="Node000006" class="node">
<title>Node6</title>
<g id="a_Node000006"><a xlink:href="classDS3231Sensor.html" target="_top" xlink:title="Implementation of a Sensor for the DS3231 Real Time Clock.">
<polygon fill="white" stroke="transparent" points="478,-169 372,-169 372,-30 478,-30 478,-169"/>
<text text-anchor="start" x="389.5" y="-156.5" font-family="Helvetica,sans-Serif" font-size="10.00">DS3231Sensor</text>
<text text-anchor="start" x="378.5" y="-141.5" font-family="Helvetica,sans-Serif" font-size="10.00">&#45;</text>
<text text-anchor="start" x="389" y="-141.5" font-family="Helvetica,sans-Serif" font-size="10.00">rtc</text>
<text text-anchor="start" x="376" y="-126.5" font-family="Helvetica,sans-Serif" font-size="10.00">+</text>
<text text-anchor="start" x="389" y="-126.5" font-family="Helvetica,sans-Serif" font-size="10.00">DS3231Sensor()</text>
<text text-anchor="start" x="376" y="-111.5" font-family="Helvetica,sans-Serif" font-size="10.00">+</text>
<text text-anchor="start" x="389" y="-111.5" font-family="Helvetica,sans-Serif" font-size="10.00">DS3231Sensor()</text>
<text text-anchor="start" x="376" y="-96.5" font-family="Helvetica,sans-Serif" font-size="10.00">+</text>
<text text-anchor="start" x="389" y="-96.5" font-family="Helvetica,sans-Serif" font-size="10.00">verify()</text>
<text text-anchor="start" x="376" y="-81.5" font-family="Helvetica,sans-Serif" font-size="10.00">+</text>
<text text-anchor="start" x="389" y="-81.5" font-family="Helvetica,sans-Serif" font-size="10.00">readData()</text>
<text text-anchor="start" x="376" y="-66.5" font-family="Helvetica,sans-Serif" font-size="10.00">+</text>
<text text-anchor="start" x="389" y="-66.5" font-family="Helvetica,sans-Serif" font-size="10.00">readDataPacket()</text>
<text text-anchor="start" x="376" y="-51.5" font-family="Helvetica,sans-Serif" font-size="10.00">+</text>
<text text-anchor="start" x="389" y="-51.5" font-family="Helvetica,sans-Serif" font-size="10.00">decodeToCSV()</text>
<text text-anchor="start" x="376" y="-36.5" font-family="Helvetica,sans-Serif" font-size="10.00">+</text>
<text text-anchor="start" x="389" y="-36.5" font-family="Helvetica,sans-Serif" font-size="10.00">setTime()</text>
<polygon fill="#666666" stroke="#666666" points="372,-151.5 372,-151.5 478,-151.5 478,-151.5 372,-151.5"/>
<polygon fill="#666666" stroke="#666666" points="372,-136.5 372,-136.5 387,-136.5 387,-136.5 372,-136.5"/>
<polygon fill="#666666" stroke="#666666" points="387,-136.5 387,-136.5 478,-136.5 478,-136.5 387,-136.5"/>
<polygon fill="none" stroke="#666666" points="372,-30 372,-169 478,-169 478,-30 372,-30"/>
</a>
</g>
</g>
<!-- Node1&#45;&gt;Node6 -->
<g id="edge5_Node000001_Node000006" class="edge">
<title>Node1&#45;&gt;Node6</title>
<g id="a_edge5_Node000001_Node000006"><a xlink:title=" ">
<path fill="none" stroke="#63b8ff" d="M663.14,-320.37C609.58,-292.6 538.46,-250.22 487,-199 478.12,-190.16 469.91,-179.83 462.55,-169.24"/>
<polygon fill="none" stroke="#63b8ff" points="661.76,-323.6 672.26,-325.04 664.96,-317.37 661.76,-323.6"/>
</a>
</g>
</g>
<!-- Node7 -->
<g id="Node000007" class="node">
<title>Node7</title>
<g id="a_Node000007"><a xlink:href="classENS160Sensor.html" target="_top" xlink:title="Implementation of a Sensor for the ENS160.">
<polygon fill="white" stroke="transparent" points="602,-161.5 496,-161.5 496,-37.5 602,-37.5 602,-161.5"/>
<text text-anchor="start" x="513.5" y="-149.5" font-family="Helvetica,sans-Serif" font-size="10.00">ENS160Sensor</text>
<text text-anchor="start" x="502.5" y="-134.5" font-family="Helvetica,sans-Serif" font-size="10.00">&#45;</text>
<text text-anchor="start" x="513" y="-134.5" font-family="Helvetica,sans-Serif" font-size="10.00">ens</text>
<text text-anchor="start" x="500" y="-119.5" font-family="Helvetica,sans-Serif" font-size="10.00">+</text>
<text text-anchor="start" x="513" y="-119.5" font-family="Helvetica,sans-Serif" font-size="10.00">ENS160Sensor()</text>
<text text-anchor="start" x="500" y="-104.5" font-family="Helvetica,sans-Serif" font-size="10.00">+</text>
<text text-anchor="start" x="513" y="-104.5" font-family="Helvetica,sans-Serif" font-size="10.00">ENS160Sensor()</text>
<text text-anchor="start" x="500" y="-89.5" font-family="Helvetica,sans-Serif" font-size="10.00">+</text>
<text text-anchor="start" x="513" y="-89.5" font-family="Helvetica,sans-Serif" font-size="10.00">verify()</text>
<text text-anchor="start" x="500" y="-74.5" font-family="Helvetica,sans-Serif" font-size="10.00">+</text>
<text text-anchor="start" x="513" y="-74.5" font-family="Helvetica,sans-Serif" font-size="10.00">readData()</text>
<text text-anchor="start" x="500" y="-59.5" font-family="Helvetica,sans-Serif" font-size="10.00">+</text>
<text text-anchor="start" x="513" y="-59.5" font-family="Helvetica,sans-Serif" font-size="10.00">readDataPacket()</text>
<text text-anchor="start" x="500" y="-44.5" font-family="Helvetica,sans-Serif" font-size="10.00">+</text>
<text text-anchor="start" x="513" y="-44.5" font-family="Helvetica,sans-Serif" font-size="10.00">decodeToCSV()</text>
<polygon fill="#666666" stroke="#666666" points="496,-144.5 496,-144.5 602,-144.5 602,-144.5 496,-144.5"/>
<polygon fill="#666666" stroke="#666666" points="496,-129.5 496,-129.5 511,-129.5 511,-129.5 496,-129.5"/>
<polygon fill="#666666" stroke="#666666" points="511,-129.5 511,-129.5 602,-129.5 602,-129.5 511,-129.5"/>
<polygon fill="none" stroke="#666666" points="496,-37.5 496,-161.5 602,-161.5 602,-37.5 496,-37.5"/>
</a>
</g>
</g>
<!-- Node1&#45;&gt;Node7 -->
<g id="edge6_Node000001_Node000007" class="edge">
<title>Node1&#45;&gt;Node7</title>
<g id="a_edge6_Node000001_Node000007"><a xlink:title=" ">
<path fill="none" stroke="#63b8ff" d="M665.8,-270.08C647.35,-247.39 627.98,-222.63 611,-199 602.51,-187.18 593.9,-174.22 585.89,-161.7"/>
<polygon fill="none" stroke="#63b8ff" points="663.24,-272.48 672.28,-278.01 668.66,-268.05 663.24,-272.48"/>
</a>
</g>
</g>
<!-- Node8 -->
<g id="Node000008" class="node">
<title>Node8</title>
<g id="a_Node000008"><a xlink:href="classICM20948Sensor.html" target="_top" xlink:title="Implementation of the Sensor class for the Adafruit ICM20948 (9&#45;axis IMU)">
<polygon fill="white" stroke="transparent" points="731.5,-191.5 620.5,-191.5 620.5,-7.5 731.5,-7.5 731.5,-191.5"/>
<text text-anchor="start" x="635.5" y="-179.5" font-family="Helvetica,sans-Serif" font-size="10.00">ICM20948Sensor</text>
<text text-anchor="start" x="627.5" y="-164.5" font-family="Helvetica,sans-Serif" font-size="10.00">&#45;</text>
<text text-anchor="start" x="638" y="-164.5" font-family="Helvetica,sans-Serif" font-size="10.00">icm</text>
<text text-anchor="start" x="627.5" y="-149.5" font-family="Helvetica,sans-Serif" font-size="10.00">&#45;</text>
<text text-anchor="start" x="638" y="-149.5" font-family="Helvetica,sans-Serif" font-size="10.00">icm_accel</text>
<text text-anchor="start" x="627.5" y="-134.5" font-family="Helvetica,sans-Serif" font-size="10.00">&#45;</text>
<text text-anchor="start" x="638" y="-134.5" font-family="Helvetica,sans-Serif" font-size="10.00">icm_gyro</text>
<text text-anchor="start" x="627.5" y="-119.5" font-family="Helvetica,sans-Serif" font-size="10.00">&#45;</text>
<text text-anchor="start" x="638" y="-119.5" font-family="Helvetica,sans-Serif" font-size="10.00">icm_mag</text>
<text text-anchor="start" x="627.5" y="-104.5" font-family="Helvetica,sans-Serif" font-size="10.00">&#45;</text>
<text text-anchor="start" x="638" y="-104.5" font-family="Helvetica,sans-Serif" font-size="10.00">icm_temp</text>
<text text-anchor="start" x="625" y="-89.5" font-family="Helvetica,sans-Serif" font-size="10.00">+</text>
<text text-anchor="start" x="638" y="-89.5" font-family="Helvetica,sans-Serif" font-size="10.00">ICM20948Sensor()</text>
<text text-anchor="start" x="625" y="-74.5" font-family="Helvetica,sans-Serif" font-size="10.00">+</text>
<text text-anchor="start" x="638" y="-74.5" font-family="Helvetica,sans-Serif" font-size="10.00">ICM20948Sensor()</text>
<text text-anchor="start" x="625" y="-59.5" font-family="Helvetica,sans-Serif" font-size="10.00">+</text>
<text text-anchor="start" x="638" y="-59.5" font-family="Helvetica,sans-Serif" font-size="10.00">verify()</text>
<text text-anchor="start" x="625" y="-44.5" font-family="Helvetica,sans-Serif" font-size="10.00">+</text>
<text text-anchor="start" x="638" y="-44.5" font-family="Helvetica,sans-Serif" font-size="10.00">readData()</text>
<text text-anchor="start" x="625" y="-29.5" font-family="Helvetica,sans-Serif" font-size="10.00">+</text>
<text text-anchor="start" x="638" y="-29.5" font-family="Helvetica,sans-Serif" font-size="10.00">readDataPacket()</text>
<text text-anchor="start" x="625" y="-14.5" font-family="Helvetica,sans-Serif" font-size="10.00">+</text>
<text text-anchor="start" x="638" y="-14.5" font-family="Helvetica,sans-Serif" font-size="10.00">decodeToCSV()</text>
<polygon fill="#666666" stroke="#666666" points="621,-174.5 621,-174.5 732,-174.5 732,-174.5 621,-174.5"/>
<polygon fill="#666666" stroke="#666666" points="621,-99.5 621,-99.5 636,-99.5 636,-99.5 621,-99.5"/>
<polygon fill="#666666" stroke="#666666" points="636,-99.5 636,-99.5 732,-99.5 732,-99.5 636,-99.5"/>
<polygon fill="none" stroke="#666666" points="620.5,-7.5 620.5,-191.5 731.5,-191.5 731.5,-7.5 620.5,-7.5"/>
</a>
</g>
</g>
<!-- Node1&#45;&gt;Node8 -->
<g id="edge7_Node000001_Node000008" class="edge">
<title>Node1&#45;&gt;Node8</title>
<g id="a_edge7_Node000001_Node000008"><a xlink:title=" ">
<path fill="none" stroke="#63b8ff" d="M706.72,-225.07C703.93,-213.78 701.16,-202.53 698.48,-191.67"/>
<polygon fill="none" stroke="#63b8ff" points="703.37,-226.11 709.16,-234.98 710.16,-224.44 703.37,-226.11"/>
</a>
</g>
</g>
<!-- Node9 -->
<g id="Node000009" class="node">
<title>Node9</title>
<g id="a_Node000009"><a xlink:href="classINA260Sensor.html" target="_top" xlink:title="A class to interface with the Adafruit INA260 sensor for current, voltage, and power measurements.">
<polygon fill="white" stroke="transparent" points="856,-161.5 750,-161.5 750,-37.5 856,-37.5 856,-161.5"/>
<text text-anchor="start" x="768.5" y="-149.5" font-family="Helvetica,sans-Serif" font-size="10.00">INA260Sensor</text>
<text text-anchor="start" x="756.5" y="-134.5" font-family="Helvetica,sans-Serif" font-size="10.00">&#45;</text>
<text text-anchor="start" x="767" y="-134.5" font-family="Helvetica,sans-Serif" font-size="10.00">ina260</text>
<text text-anchor="start" x="754" y="-119.5" font-family="Helvetica,sans-Serif" font-size="10.00">+</text>
<text text-anchor="start" x="767" y="-119.5" font-family="Helvetica,sans-Serif" font-size="10.00">INA260Sensor()</text>
<text text-anchor="start" x="754" y="-104.5" font-family="Helvetica,sans-Serif" font-size="10.00">+</text>
<text text-anchor="start" x="767" y="-104.5" font-family="Helvetica,sans-Serif" font-size="10.00">INA260Sensor()</text>
<text text-anchor="start" x="754" y="-89.5" font-family="Helvetica,sans-Serif" font-size="10.00">+</text>
<text text-anchor="start" x="767" y="-89.5" font-family="Helvetica,sans-Serif" font-size="10.00">readDataPacket()</text>
<text text-anchor="start" x="754" y="-74.5" font-family="Helvetica,sans-Serif" font-size="10.00">+</text>
<text text-anchor="start" x="767" y="-74.5" font-family="Helvetica,sans-Serif" font-size="10.00">decodeToCSV()</text>
<text text-anchor="start" x="754" y="-59.5" font-family="Helvetica,sans-Serif" font-size="10.00">+</text>
<text text-anchor="start" x="767" y="-59.5" font-family="Helvetica,sans-Serif" font-size="10.00">verify()</text>
<text text-anchor="start" x="754" y="-44.5" font-family="Helvetica,sans-Serif" font-size="10.00">+</text>
<text text-anchor="start" x="767" y="-44.5" font-family="Helvetica,sans-Serif" font-size="10.00">readData()</text>
<polygon fill="#666666" stroke="#666666" points="750,-144.5 750,-144.5 856,-144.5 856,-144.5 750,-144.5"/>
<polygon fill="#666666" stroke="#666666" points="750,-129.5 750,-129.5 765,-129.5 765,-129.5 750,-129.5"/>
<polygon fill="#666666" stroke="#666666" points="765,-129.5 765,-129.5 856,-129.5 856,-129.5 765,-129.5"/>
<polygon fill="none" stroke="#666666" points="750,-37.5 750,-161.5 856,-161.5 856,-37.5 750,-37.5"/>
</a>
</g>
</g>
<!-- Node1&#45;&gt;Node9 -->
<g id="edge8_Node000001_Node000009" class="edge">
<title>Node1&#45;&gt;Node9</title>
<g id="a_edge8_Node000001_Node000009"><a xlink:title=" ">
<path fill="none" stroke="#63b8ff" d="M771.78,-225.15C777.33,-202.99 782.85,-180.96 787.66,-161.72"/>
<polygon fill="none" stroke="#63b8ff" points="768.35,-224.43 769.31,-234.98 775.14,-226.13 768.35,-224.43"/>
</a>
</g>
</g>
<!-- Node10 -->
<g id="Node000010" class="node">
<title>Node10</title>
<g id="a_Node000010"><a xlink:href="classLSM9DS1Sensor.html" target="_top" xlink:title="Implementation of the Sensor class for the LSM9DS1 (9&#45;axis IMU)">
<polygon fill="white" stroke="transparent" points="982,-199 874,-199 874,0 982,0 982,-199"/>
<text text-anchor="start" x="888.5" y="-186.5" font-family="Helvetica,sans-Serif" font-size="10.00">LSM9DS1Sensor</text>
<text text-anchor="start" x="880.5" y="-171.5" font-family="Helvetica,sans-Serif" font-size="10.00">&#45;</text>
<text text-anchor="start" x="891" y="-171.5" font-family="Helvetica,sans-Serif" font-size="10.00">lsm</text>
<text text-anchor="start" x="880.5" y="-156.5" font-family="Helvetica,sans-Serif" font-size="10.00">&#45;</text>
<text text-anchor="start" x="891" y="-156.5" font-family="Helvetica,sans-Serif" font-size="10.00">accel_offsets</text>
<text text-anchor="start" x="880.5" y="-141.5" font-family="Helvetica,sans-Serif" font-size="10.00">&#45;</text>
<text text-anchor="start" x="891" y="-141.5" font-family="Helvetica,sans-Serif" font-size="10.00">gyro_offsets</text>
<text text-anchor="start" x="880.5" y="-126.5" font-family="Helvetica,sans-Serif" font-size="10.00">&#45;</text>
<text text-anchor="start" x="891" y="-126.5" font-family="Helvetica,sans-Serif" font-size="10.00">mag_offsets</text>
<text text-anchor="start" x="878" y="-111.5" font-family="Helvetica,sans-Serif" font-size="10.00">+</text>
<text text-anchor="start" x="891" y="-111.5" font-family="Helvetica,sans-Serif" font-size="10.00">LSM9DS1Sensor()</text>
<text text-anchor="start" x="878" y="-96.5" font-family="Helvetica,sans-Serif" font-size="10.00">+</text>
<text text-anchor="start" x="891" y="-96.5" font-family="Helvetica,sans-Serif" font-size="10.00">LSM9DS1Sensor()</text>
<text text-anchor="start" x="878" y="-81.5" font-family="Helvetica,sans-Serif" font-size="10.00">+</text>
<text text-anchor="start" x="891" y="-81.5" font-family="Helvetica,sans-Serif" font-size="10.00">verify()</text>
<text text-anchor="start" x="878" y="-66.5" font-family="Helvetica,sans-Serif" font-size="10.00">+</text>
<text text-anchor="start" x="891" y="-66.5" font-family="Helvetica,sans-Serif" font-size="10.00">readData()</text>
<text text-anchor="start" x="878" y="-51.5" font-family="Helvetica,sans-Serif" font-size="10.00">+</text>
<text text-anchor="start" x="891" y="-51.5" font-family="Helvetica,sans-Serif" font-size="10.00">calibrate()</text>
<text text-anchor="start" x="878" y="-36.5" font-family="Helvetica,sans-Serif" font-size="10.00">+</text>
<text text-anchor="start" x="891" y="-36.5" font-family="Helvetica,sans-Serif" font-size="10.00">readDataPacket()</text>
<text text-anchor="start" x="878" y="-21.5" font-family="Helvetica,sans-Serif" font-size="10.00">+</text>
<text text-anchor="start" x="891" y="-21.5" font-family="Helvetica,sans-Serif" font-size="10.00">decodeToCSV()</text>
<text text-anchor="start" x="880.5" y="-6.5" font-family="Helvetica,sans-Serif" font-size="10.00">&#45;</text>
<text text-anchor="start" x="891" y="-6.5" font-family="Helvetica,sans-Serif" font-size="10.00">setupSensor()</text>
<polygon fill="#666666" stroke="#666666" points="874,-181.5 874,-181.5 982,-181.5 982,-181.5 874,-181.5"/>
<polygon fill="#666666" stroke="#666666" points="874,-121.5 874,-121.5 889,-121.5 889,-121.5 874,-121.5"/>
<polygon fill="#666666" stroke="#666666" points="889,-121.5 889,-121.5 982,-121.5 982,-121.5 889,-121.5"/>
<polygon fill="none" stroke="#666666" points="874,0 874,-199 982,-199 982,0 874,0"/>
</a>
</g>
</g>
<!-- Node1&#45;&gt;Node10 -->
<g id="edge9_Node000001_Node000010" class="edge">
<title>Node1&#45;&gt;Node10</title>
<g id="a_edge9_Node000001_Node000010"><a xlink:title=" ">
<path fill="none" stroke="#63b8ff" d="M812.26,-268.12C830,-245.92 848.57,-221.88 865,-199 867.96,-194.88 870.94,-190.62 873.91,-186.3"/>
<polygon fill="none" stroke="#63b8ff" points="809.3,-266.22 805.77,-276.2 814.75,-270.6 809.3,-266.22"/>
</a>
</g>
</g>
<!-- Node11 -->
<g id="Node000011" class="node">
<title>Node11</title>
<g id="a_Node000011"><a xlink:href="classMTK3339Sensor.html" target="_top" xlink:title="Implementation of the Adafruit MTK3339 GPS sensor.">
<polygon fill="white" stroke="transparent" points="1108,-161.5 1000,-161.5 1000,-37.5 1108,-37.5 1108,-161.5"/>
<text text-anchor="start" x="1014.5" y="-149.5" font-family="Helvetica,sans-Serif" font-size="10.00">MTK3339Sensor</text>
<text text-anchor="start" x="1006.5" y="-134.5" font-family="Helvetica,sans-Serif" font-size="10.00">&#45;</text>
<text text-anchor="start" x="1017" y="-134.5" font-family="Helvetica,sans-Serif" font-size="10.00">GPS</text>
<text text-anchor="start" x="1004" y="-119.5" font-family="Helvetica,sans-Serif" font-size="10.00">+</text>
<text text-anchor="start" x="1017" y="-119.5" font-family="Helvetica,sans-Serif" font-size="10.00">MTK3339Sensor()</text>
<text text-anchor="start" x="1004" y="-104.5" font-family="Helvetica,sans-Serif" font-size="10.00">+</text>
<text text-anchor="start" x="1017" y="-104.5" font-family="Helvetica,sans-Serif" font-size="10.00">MTK3339Sensor()</text>
<text text-anchor="start" x="1004" y="-89.5" font-family="Helvetica,sans-Serif" font-size="10.00">+</text>
<text text-anchor="start" x="1017" y="-89.5" font-family="Helvetica,sans-Serif" font-size="10.00">verify()</text>
<text text-anchor="start" x="1004" y="-74.5" font-family="Helvetica,sans-Serif" font-size="10.00">+</text>
<text text-anchor="start" x="1017" y="-74.5" font-family="Helvetica,sans-Serif" font-size="10.00">readData()</text>
<text text-anchor="start" x="1004" y="-59.5" font-family="Helvetica,sans-Serif" font-size="10.00">+</text>
<text text-anchor="start" x="1017" y="-59.5" font-family="Helvetica,sans-Serif" font-size="10.00">readDataPacket()</text>
<text text-anchor="start" x="1004" y="-44.5" font-family="Helvetica,sans-Serif" font-size="10.00">+</text>
<text text-anchor="start" x="1017" y="-44.5" font-family="Helvetica,sans-Serif" font-size="10.00">decodeToCSV()</text>
<polygon fill="#666666" stroke="#666666" points="1000,-144.5 1000,-144.5 1108,-144.5 1108,-144.5 1000,-144.5"/>
<polygon fill="#666666" stroke="#666666" points="1000,-129.5 1000,-129.5 1015,-129.5 1015,-129.5 1000,-129.5"/>
<polygon fill="#666666" stroke="#666666" points="1015,-129.5 1015,-129.5 1108,-129.5 1108,-129.5 1015,-129.5"/>
<polygon fill="none" stroke="#666666" points="1000,-37.5 1000,-161.5 1108,-161.5 1108,-37.5 1000,-37.5"/>
</a>
</g>
</g>
<!-- Node1&#45;&gt;Node11 -->
<g id="edge10_Node000001_Node000011" class="edge">
<title>Node1&#45;&gt;Node11</title>
<g id="a_edge10_Node000001_Node000011"><a xlink:title=" ">
<path fill="none" stroke="#63b8ff" d="M814.74,-320.26C868.26,-292.44 939.36,-250.03 991,-199 1002.12,-188.01 1012.25,-174.72 1020.98,-161.51"/>
<polygon fill="none" stroke="#63b8ff" points="812.93,-317.25 805.64,-324.94 816.13,-323.48 812.93,-317.25"/>
</a>
</g>
</g>
<!-- Node12 -->
<g id="Node000012" class="node">
<title>Node12</title>
<g id="a_Node000012"><a xlink:href="classPCF8523Sensor.html" target="_top" xlink:title="Implementation of the PCF8523 sensor.">
<polygon fill="white" stroke="transparent" points="1232,-169 1126,-169 1126,-30 1232,-30 1232,-169"/>
<text text-anchor="start" x="1141" y="-156.5" font-family="Helvetica,sans-Serif" font-size="10.00">PCF8523Sensor</text>
<text text-anchor="start" x="1132.5" y="-141.5" font-family="Helvetica,sans-Serif" font-size="10.00">&#45;</text>
<text text-anchor="start" x="1143" y="-141.5" font-family="Helvetica,sans-Serif" font-size="10.00">rtc</text>
<text text-anchor="start" x="1130" y="-126.5" font-family="Helvetica,sans-Serif" font-size="10.00">+</text>
<text text-anchor="start" x="1143" y="-126.5" font-family="Helvetica,sans-Serif" font-size="10.00">PCF8523Sensor()</text>
<text text-anchor="start" x="1130" y="-111.5" font-family="Helvetica,sans-Serif" font-size="10.00">+</text>
<text text-anchor="start" x="1143" y="-111.5" font-family="Helvetica,sans-Serif" font-size="10.00">PCF8523Sensor()</text>
<text text-anchor="start" x="1130" y="-96.5" font-family="Helvetica,sans-Serif" font-size="10.00">+</text>
<text text-anchor="start" x="1143" y="-96.5" font-family="Helvetica,sans-Serif" font-size="10.00">verify()</text>
<text text-anchor="start" x="1130" y="-81.5" font-family="Helvetica,sans-Serif" font-size="10.00">+</text>
<text text-anchor="start" x="1143" y="-81.5" font-family="Helvetica,sans-Serif" font-size="10.00">decodeToCSV()</text>
<text text-anchor="start" x="1130" y="-66.5" font-family="Helvetica,sans-Serif" font-size="10.00">+</text>
<text text-anchor="start" x="1143" y="-66.5" font-family="Helvetica,sans-Serif" font-size="10.00">readDataPacket()</text>
<text text-anchor="start" x="1130" y="-51.5" font-family="Helvetica,sans-Serif" font-size="10.00">+</text>
<text text-anchor="start" x="1143" y="-51.5" font-family="Helvetica,sans-Serif" font-size="10.00">readData()</text>
<text text-anchor="start" x="1130" y="-36.5" font-family="Helvetica,sans-Serif" font-size="10.00">+</text>
<text text-anchor="start" x="1143" y="-36.5" font-family="Helvetica,sans-Serif" font-size="10.00">calibrate()</text>
<polygon fill="#666666" stroke="#666666" points="1126,-151.5 1126,-151.5 1232,-151.5 1232,-151.5 1126,-151.5"/>
<polygon fill="#666666" stroke="#666666" points="1126,-136.5 1126,-136.5 1141,-136.5 1141,-136.5 1126,-136.5"/>
<polygon fill="#666666" stroke="#666666" points="1141,-136.5 1141,-136.5 1232,-136.5 1232,-136.5 1141,-136.5"/>
<polygon fill="none" stroke="#666666" points="1126,-30 1126,-169 1232,-169 1232,-30 1126,-30"/>
</a>
</g>
</g>
<!-- Node1&#45;&gt;Node12 -->
<g id="edge11_Node000001_Node000012" class="edge">
<title>Node1&#45;&gt;Node12</title>
<g id="a_edge11_Node000001_Node000012"><a xlink:title=" ">
<path fill="none" stroke="#63b8ff" d="M815.39,-339C897.37,-317.65 1027.79,-274.34 1117,-199 1127.03,-190.53 1135.97,-180 1143.72,-169.02"/>
<polygon fill="none" stroke="#63b8ff" points="814.46,-335.63 805.64,-341.5 816.2,-342.41 814.46,-335.63"/>
</a>
</g>
</g>
<!-- Node13 -->
<g id="Node000013" class="node">
<title>Node13</title>
<g id="a_Node000013"><a xlink:href="classSGP30Sensor.html" target="_top" xlink:title="Implementation of a Sensor for the SGP Air Quality sensor.">
<polygon fill="white" stroke="transparent" points="1344,-146.5 1250,-146.5 1250,-52.5 1344,-52.5 1344,-146.5"/>
<text text-anchor="start" x="1264.5" y="-134.5" font-family="Helvetica,sans-Serif" font-size="10.00">SGP30Sensor</text>
<text text-anchor="start" x="1256.5" y="-119.5" font-family="Helvetica,sans-Serif" font-size="10.00">&#45;</text>
<text text-anchor="start" x="1267" y="-119.5" font-family="Helvetica,sans-Serif" font-size="10.00">sgp</text>
<text text-anchor="start" x="1254" y="-104.5" font-family="Helvetica,sans-Serif" font-size="10.00">+</text>
<text text-anchor="start" x="1267" y="-104.5" font-family="Helvetica,sans-Serif" font-size="10.00">SGP30Sensor()</text>
<text text-anchor="start" x="1254" y="-89.5" font-family="Helvetica,sans-Serif" font-size="10.00">+</text>
<text text-anchor="start" x="1267" y="-89.5" font-family="Helvetica,sans-Serif" font-size="10.00">SGP30Sensor()</text>
<text text-anchor="start" x="1254" y="-74.5" font-family="Helvetica,sans-Serif" font-size="10.00">+</text>
<text text-anchor="start" x="1267" y="-74.5" font-family="Helvetica,sans-Serif" font-size="10.00">verify()</text>
<text text-anchor="start" x="1254" y="-59.5" font-family="Helvetica,sans-Serif" font-size="10.00">+</text>
<text text-anchor="start" x="1267" y="-59.5" font-family="Helvetica,sans-Serif" font-size="10.00">readData()</text>
<polygon fill="#666666" stroke="#666666" points="1250,-129.5 1250,-129.5 1344,-129.5 1344,-129.5 1250,-129.5"/>
<polygon fill="#666666" stroke="#666666" points="1250,-114.5 1250,-114.5 1265,-114.5 1265,-114.5 1250,-114.5"/>
<polygon fill="#666666" stroke="#666666" points="1265,-114.5 1265,-114.5 1344,-114.5 1344,-114.5 1265,-114.5"/>
<polygon fill="none" stroke="#666666" points="1250,-52.5 1250,-146.5 1344,-146.5 1344,-52.5 1250,-52.5"/>
</a>
</g>
</g>
<!-- Node1&#45;&gt;Node13 -->
<g id="edge12_Node000001_Node000013" class="edge">
<title>Node1&#45;&gt;Node13</title>
<g id="a_edge12_Node000001_Node000013"><a xlink:title=" ">
<path fill="none" stroke="#63b8ff" d="M815.59,-349.52C921.7,-336.97 1114.62,-300.88 1241,-199 1257.92,-185.36 1270.67,-165.14 1279.69,-146.57"/>
<polygon fill="none" stroke="#63b8ff" points="815.13,-346.05 805.59,-350.66 815.93,-353 815.13,-346.05"/>
</a>
</g>
</g>
<!-- Node14 -->
<g id="Node000014" class="node">
<title>Node14</title>
<g id="a_Node000014"><a xlink:href="classTempSensor.html" target="_top" xlink:title="Implementation of a Sensor for the onboard temperature sensor.">
<polygon fill="white" stroke="transparent" points="1468,-161.5 1362,-161.5 1362,-37.5 1468,-37.5 1468,-161.5"/>
<text text-anchor="start" x="1385" y="-149.5" font-family="Helvetica,sans-Serif" font-size="10.00">TempSensor</text>
<text text-anchor="start" x="1413" y="-134.5" font-family="Helvetica,sans-Serif" font-size="10.00"> </text>
<text text-anchor="start" x="1366" y="-119.5" font-family="Helvetica,sans-Serif" font-size="10.00">+</text>
<text text-anchor="start" x="1379" y="-119.5" font-family="Helvetica,sans-Serif" font-size="10.00">TempSensor()</text>
<text text-anchor="start" x="1366" y="-104.5" font-family="Helvetica,sans-Serif" font-size="10.00">+</text>
<text text-anchor="start" x="1379" y="-104.5" font-family="Helvetica,sans-Serif" font-size="10.00">TempSensor()</text>
<text text-anchor="start" x="1366" y="-89.5" font-family="Helvetica,sans-Serif" font-size="10.00">+</text>
<text text-anchor="start" x="1379" y="-89.5" font-family="Helvetica,sans-Serif" font-size="10.00">verify()</text>
<text text-anchor="start" x="1366" y="-74.5" font-family="Helvetica,sans-Serif" font-size="10.00">+</text>
<text text-anchor="start" x="1379" y="-74.5" font-family="Helvetica,sans-Serif" font-size="10.00">readData()</text>
<text text-anchor="start" x="1366" y="-59.5" font-family="Helvetica,sans-Serif" font-size="10.00">+</text>
<text text-anchor="start" x="1379" y="-59.5" font-family="Helvetica,sans-Serif" font-size="10.00">readDataPacket()</text>
<text text-anchor="start" x="1366" y="-44.5" font-family="Helvetica,sans-Serif" font-size="10.00">+</text>
<text text-anchor="start" x="1379" y="-44.5" font-family="Helvetica,sans-Serif" font-size="10.00">decodeToCSV()</text>
<polygon fill="#666666" stroke="#666666" points="1362,-144.5 1362,-144.5 1468,-144.5 1468,-144.5 1362,-144.5"/>
<polygon fill="#666666" stroke="#666666" points="1362,-129.5 1362,-129.5 1468,-129.5 1468,-129.5 1362,-129.5"/>
<polygon fill="none" stroke="#666666" points="1362,-37.5 1362,-161.5 1468,-161.5 1468,-37.5 1362,-37.5"/>
</a>
</g>
</g>
<!-- Node1&#45;&gt;Node14 -->
<g id="edge13_Node000001_Node000014" class="edge">
<title>Node1&#45;&gt;Node14</title>
<g id="a_edge13_Node000001_Node000014"><a xlink:title=" ">
<path fill="none" stroke="#63b8ff" d="M815.94,-354.16C940.32,-347.57 1188.23,-319.05 1353,-199 1366.39,-189.24 1377.57,-175.63 1386.57,-161.63"/>
<polygon fill="none" stroke="#63b8ff" points="815.56,-350.68 805.75,-354.67 815.91,-357.67 815.56,-350.68"/>
</a>
</g>
</g>
<!-- Node2 -->
<g id="Node000002" class="node">
<title>Node2</title>
<g id="a_Node000002"><a xlink:href="classDevice.html" target="_top" xlink:title="Implements the recovery system for Sensor and Storage objects.">
<polygon fill="white" stroke="transparent" points="800.5,-759 677.5,-759 677.5,-515 800.5,-515 800.5,-759"/>
<text text-anchor="start" x="722.5" y="-747" font-family="Helvetica,sans-Serif" font-size="10.00">Device</text>
<text text-anchor="start" x="682" y="-732" font-family="Helvetica,sans-Serif" font-size="10.00">#</text>
<text text-anchor="start" x="695" y="-732" font-family="Helvetica,sans-Serif" font-size="10.00">verified</text>
<text text-anchor="start" x="684.5" y="-717" font-family="Helvetica,sans-Serif" font-size="10.00">&#45;</text>
<text text-anchor="start" x="695" y="-717" font-family="Helvetica,sans-Serif" font-size="10.00">last_attempt</text>
<text text-anchor="start" x="684.5" y="-702" font-family="Helvetica,sans-Serif" font-size="10.00">&#45;</text>
<text text-anchor="start" x="695" y="-702" font-family="Helvetica,sans-Serif" font-size="10.00">max_attempts</text>
<text text-anchor="start" x="684.5" y="-687" font-family="Helvetica,sans-Serif" font-size="10.00">&#45;</text>
<text text-anchor="start" x="695" y="-687" font-family="Helvetica,sans-Serif" font-size="10.00">attempt_number</text>
<text text-anchor="start" x="684.5" y="-672" font-family="Helvetica,sans-Serif" font-size="10.00">&#45;</text>
<text text-anchor="start" x="695" y="-672" font-family="Helvetica,sans-Serif" font-size="10.00">wait_factor</text>
<text text-anchor="start" x="684.5" y="-657" font-family="Helvetica,sans-Serif" font-size="10.00">&#45;</text>
<text text-anchor="start" x="695" y="-657" font-family="Helvetica,sans-Serif" font-size="10.00">device_name</text>
<text text-anchor="start" x="682" y="-642" font-family="Helvetica,sans-Serif" font-size="10.00">+</text>
<text text-anchor="start" x="695" y="-642" font-family="Helvetica,sans-Serif" font-size="10.00">Device()</text>
<text text-anchor="start" x="682" y="-627" font-family="Helvetica,sans-Serif" font-size="10.00">+</text>
<text text-anchor="start" x="695" y="-627" font-family="Helvetica,sans-Serif" font-size="10.00">Device()</text>
<text text-anchor="start" x="682" y="-612" font-family="Helvetica,sans-Serif" font-size="10.00">+</text>
<text text-anchor="start" x="695" y="-612" font-family="Helvetica,sans-Serif" font-size="10.00">getDeviceName()</text>
<text text-anchor="start" x="682" y="-597" font-family="Helvetica,sans-Serif" font-size="10.00">+</text>
<text text-anchor="start" x="695" y="-597" font-family="Helvetica,sans-Serif" font-size="10.00">verify()</text>
<text text-anchor="start" x="682" y="-582" font-family="Helvetica,sans-Serif" font-size="10.00">+</text>
<text text-anchor="start" x="695" y="-582" font-family="Helvetica,sans-Serif" font-size="10.00">getVerified()</text>
<text text-anchor="start" x="682" y="-567" font-family="Helvetica,sans-Serif" font-size="10.00">+</text>
<text text-anchor="start" x="695" y="-567" font-family="Helvetica,sans-Serif" font-size="10.00">recoveryConfig()</text>
<text text-anchor="start" x="682" y="-552" font-family="Helvetica,sans-Serif" font-size="10.00">+</text>
<text text-anchor="start" x="695" y="-552" font-family="Helvetica,sans-Serif" font-size="10.00">setWaitFactor()</text>
<text text-anchor="start" x="682" y="-537" font-family="Helvetica,sans-Serif" font-size="10.00">+</text>
<text text-anchor="start" x="695" y="-537" font-family="Helvetica,sans-Serif" font-size="10.00">setMaxAttempts()</text>
<text text-anchor="start" x="682" y="-522" font-family="Helvetica,sans-Serif" font-size="10.00">+</text>
<text text-anchor="start" x="695" y="-522" font-family="Helvetica,sans-Serif" font-size="10.00">attemptConnection()</text>
<polygon fill="#666666" stroke="#666666" points="678,-742 678,-742 801,-742 801,-742 678,-742"/>
<polygon fill="#666666" stroke="#666666" points="678,-652 678,-652 693,-652 693,-652 678,-652"/>
<polygon fill="#666666" stroke="#666666" points="693,-652 693,-652 801,-652 801,-652 693,-652"/>
<polygon fill="none" stroke="#666666" points="677.5,-515 677.5,-759 800.5,-759 800.5,-515 677.5,-515"/>
</a>
</g>
</g>
<!-- Node2&#45;&gt;Node1 -->
<g id="edge1_Node000001_Node000002" class="edge">
<title>Node2&#45;&gt;Node1</title>
<g id="a_edge1_Node000001_Node000002"><a xlink:title=" ">
<path fill="none" stroke="#63b8ff" d="M739,-504.84C739,-496.27 739,-487.66 739,-479.14"/>
<polygon fill="none" stroke="#63b8ff" points="735.5,-504.87 739,-514.87 742.5,-504.87 735.5,-504.87"/>
</a>
</g>
</g>
</g>
</svg>

<g id="navigator" transform="translate(0 0)" fill="#404254">
  <rect fill="#f2f5e9" fill-opacity="0.5" stroke="#606060" stroke-width=".5" x="0" y="0" width="60" height="60"/>
  <use id="zoomplus" xlink:href="#zoomPlus" x="17" y="9" onmousedown="handleZoom(evt,'in')"/>
  <use id="zoomminus" xlink:href="#zoomMin" x="42" y="9" onmousedown="handleZoom(evt,'out')"/>
  <use id="reset" xlink:href="#resetDef" x="30" y="36" onmousedown="handleReset()"/>
   <use id="arrowup" xlink:href="#arrowUp" x="0" y="0" onmousedown="handlePan(0,-1)"/>
  <use id="arrowright" xlink:href="#arrowRight" x="0" y="0" onmousedown="handlePan(1,0)"/>
  <use id="arrowdown" xlink:href="#arrowDown" x="0" y="0" onmousedown="handlePan(0,1)"/>
  <use id="arrowleft" xlink:href="#arrowLeft" x="0" y="0" onmousedown="handlePan(-1,0)"/>
</g>
<svg viewBox="0 0 15 15" width="100%" height="30px" preserveAspectRatio="xMaxYMin meet">
 <g id="arrow_out" transform="scale(0.3 0.3)">
  <a xlink:href="classSensor__inherit__graph_org.svg" target="_base">
   <rect id="button" ry="5" rx="5" y="6" x="6" height="38" width="38"
        fill="#f2f5e9" fill-opacity="0.5" stroke="#606060" stroke-width="1.0"/>
   <path id="arrow"
     d="M 11.500037,31.436501 C 11.940474,20.09759 22.043105,11.32322 32.158766,21.979434 L 37.068811,17.246167 C 37.068811,17.246167 37.088388,32 37.088388,32 L 22.160133,31.978069 C 22.160133,31.978069 26.997745,27.140456 26.997745,27.140456 C 18.528582,18.264221 13.291696,25.230495 11.500037,31.436501 z"
     style="fill:#404040;"/>
  </a>
 </g>
</svg>

<style type='text/css'>
<![CDATA[
[data-mouse-over-selected='false'] { opacity: 0.7; }
[data-mouse-over-selected='true']  { opacity: 1.0; }
]]>
</style>
<script type="application/ecmascript"><![CDATA[
document.addEventListener('DOMContentLoaded', (event) => {
  highlightEdges();
  highlightAdjacentNodes();
});
]]></script>
</svg>
