<?xml version="1.0" encoding="UTF-8" standalone="no"?>
<!DOCTYPE svg PUBLIC "-//W3C//DTD SVG 1.1//EN"
 "http://www.w3.org/Graphics/SVG/1.1/DTD/svg11.dtd">
<!-- Generated by graphviz version 2.43.0 (0)
 -->
<!-- Title: Device.h Pages: 1 -->
<svg width="2628pt" height="192pt"
 viewBox="0.00 0.00 2628.00 192.00" xmlns="http://www.w3.org/2000/svg" xmlns:xlink="http://www.w3.org/1999/xlink">
<g id="graph0" class="graph" transform="scale(1 1) rotate(0) translate(4 188)">
<title>Device.h</title>
<!-- Node1 -->
<g id="Node000001" class="node">
<title>Node1</title>
<g id="a_Node000001"><a xlink:title=" ">
<polygon fill="#999999" stroke="#666666" points="1768.5,-184 1709.5,-184 1709.5,-165 1768.5,-165 1768.5,-184"/>
<text text-anchor="middle" x="1739" y="-172" font-family="Helvetica,sans-Serif" font-size="10.00">Device.h</text>
</a>
</g>
</g>
<!-- Node2 -->
<g id="Node000002" class="node">
<title>Node2</title>
<g id="a_Node000002"><a xlink:href="Sensor_8h.html" target="_top" xlink:title=" ">
<polygon fill="white" stroke="#666666" points="1177,-129 1119,-129 1119,-110 1177,-110 1177,-129"/>
<text text-anchor="middle" x="1148" y="-117" font-family="Helvetica,sans-Serif" font-size="10.00">Sensor.h</text>
</a>
</g>
</g>
<!-- Node1&#45;&gt;Node2 -->
<g id="edge1_Node000001_Node000002" class="edge">
<title>Node1&#45;&gt;Node2</title>
<g id="a_edge1_Node000001_Node000002"><a xlink:title=" ">
<path fill="none" stroke="#63b8ff" d="M1699.14,-169.93C1587.61,-159.92 1274.2,-131.82 1177.07,-123.11"/>
<polygon fill="#63b8ff" stroke="#63b8ff" points="1699.01,-173.43 1709.29,-170.84 1699.64,-166.46 1699.01,-173.43"/>
</a>
</g>
</g>
<!-- Node38 -->
<g id="Node000038" class="node">
<title>Node38</title>
<g id="a_Node000038"><a xlink:href="Storage_8h.html" target="_top" xlink:title=" ">
<polygon fill="white" stroke="#666666" points="2361.5,-129 2298.5,-129 2298.5,-110 2361.5,-110 2361.5,-129"/>
<text text-anchor="middle" x="2330" y="-117" font-family="Helvetica,sans-Serif" font-size="10.00">Storage.h</text>
</a>
</g>
</g>
<!-- Node1&#45;&gt;Node38 -->
<g id="edge49_Node000001_Node000038" class="edge">
<title>Node1&#45;&gt;Node38</title>
<g id="a_edge49_Node000001_Node000038"><a xlink:title=" ">
<path fill="none" stroke="#63b8ff" d="M1778.77,-169.93C1889.3,-160.02 2198.55,-132.29 2298.45,-123.33"/>
<polygon fill="#63b8ff" stroke="#63b8ff" points="1778.36,-166.46 1768.71,-170.84 1778.99,-173.43 1778.36,-166.46"/>
</a>
</g>
</g>
<!-- Node3 -->
<g id="Node000003" class="node">
<title>Node3</title>
<g id="a_Node000003"><a xlink:href="AS7331Sensor_8h.html" target="_top" xlink:title=" ">
<polygon fill="white" stroke="#666666" points="231.5,-74 136.5,-74 136.5,-55 231.5,-55 231.5,-74"/>
<text text-anchor="middle" x="184" y="-62" font-family="Helvetica,sans-Serif" font-size="10.00">AS7331Sensor.h</text>
</a>
</g>
</g>
<!-- Node2&#45;&gt;Node3 -->
<g id="edge2_Node000002_Node000003" class="edge">
<title>Node2&#45;&gt;Node3</title>
<g id="a_edge2_Node000002_Node000003"><a xlink:title=" ">
<path fill="none" stroke="#63b8ff" d="M1108.62,-117.96C982.24,-115.93 575.62,-107.08 241,-74 237.91,-73.69 234.74,-73.34 231.54,-72.95"/>
<polygon fill="#63b8ff" stroke="#63b8ff" points="1108.89,-121.46 1118.95,-118.12 1109,-114.46 1108.89,-121.46"/>
</a>
</g>
</g>
<!-- Node5 -->
<g id="Node000005" class="node">
<title>Node5</title>
<g id="a_Node000005"><a xlink:href="main_8cpp.html" target="_top" xlink:title="Main functions for Core 0, responsible for reading data from sensor peripherals.">
<polygon fill="white" stroke="#666666" points="831,-19 769,-19 769,0 831,0 831,-19"/>
<text text-anchor="middle" x="800" y="-7" font-family="Helvetica,sans-Serif" font-size="10.00">main.cpp</text>
</a>
</g>
</g>
<!-- Node2&#45;&gt;Node5 -->
<g id="edge48_Node000002_Node000005" class="edge">
<title>Node2&#45;&gt;Node5</title>
<g id="a_edge48_Node000002_Node000005"><a xlink:title=" ">
<path fill="none" stroke="#63b8ff" d="M1108.52,-119.45C1052.05,-119.26 946.29,-113.07 867,-74 840.26,-60.82 817.01,-33.27 806.29,-19.19"/>
<polygon fill="#63b8ff" stroke="#63b8ff" points="1108.81,-122.95 1118.8,-119.42 1108.79,-115.95 1108.81,-122.95"/>
</a>
</g>
</g>
<!-- Node6 -->
<g id="Node000006" class="node">
<title>Node6</title>
<g id="a_Node000006"><a xlink:href="BME280Sensor_8h.html" target="_top" xlink:title=" ">
<polygon fill="white" stroke="#666666" points="1781,-74 1683,-74 1683,-55 1781,-55 1781,-74"/>
<text text-anchor="middle" x="1732" y="-62" font-family="Helvetica,sans-Serif" font-size="10.00">BME280Sensor.h</text>
</a>
</g>
</g>
<!-- Node2&#45;&gt;Node6 -->
<g id="edge5_Node000002_Node000006" class="edge">
<title>Node2&#45;&gt;Node6</title>
<g id="a_edge5_Node000002_Node000006"><a xlink:title=" ">
<path fill="none" stroke="#63b8ff" d="M1187.25,-115.38C1272.58,-108.54 1481.37,-91.41 1656,-74 1664.72,-73.13 1673.99,-72.14 1682.96,-71.16"/>
<polygon fill="#63b8ff" stroke="#63b8ff" points="1186.92,-111.9 1177.23,-116.19 1187.48,-118.88 1186.92,-111.9"/>
</a>
</g>
</g>
<!-- Node8 -->
<g id="Node000008" class="node">
<title>Node8</title>
<g id="a_Node000008"><a xlink:href="BME680Sensor_8h.html" target="_top" xlink:title=" ">
<polygon fill="white" stroke="#666666" points="1920,-74 1822,-74 1822,-55 1920,-55 1920,-74"/>
<text text-anchor="middle" x="1871" y="-62" font-family="Helvetica,sans-Serif" font-size="10.00">BME680Sensor.h</text>
</a>
</g>
</g>
<!-- Node2&#45;&gt;Node8 -->
<g id="edge7_Node000002_Node000008" class="edge">
<title>Node2&#45;&gt;Node8</title>
<g id="a_edge7_Node000002_Node000008"><a xlink:title=" ">
<path fill="none" stroke="#63b8ff" d="M1187.13,-116.27C1287.42,-110.45 1561.83,-93.87 1790,-74 1800.28,-73.1 1811.29,-72.03 1821.77,-70.95"/>
<polygon fill="#63b8ff" stroke="#63b8ff" points="1186.92,-112.78 1177.14,-116.85 1187.33,-119.77 1186.92,-112.78"/>
</a>
</g>
</g>
<!-- Node10 -->
<g id="Node000010" class="node">
<title>Node10</title>
<g id="a_Node000010"><a xlink:href="BMP390Sensor_8h.html" target="_top" xlink:title=" ">
<polygon fill="white" stroke="#666666" points="348,-74 250,-74 250,-55 348,-55 348,-74"/>
<text text-anchor="middle" x="299" y="-62" font-family="Helvetica,sans-Serif" font-size="10.00">BMP390Sensor.h</text>
</a>
</g>
</g>
<!-- Node2&#45;&gt;Node10 -->
<g id="edge9_Node000002_Node000010" class="edge">
<title>Node2&#45;&gt;Node10</title>
<g id="a_edge9_Node000002_Node000010"><a xlink:title=" ">
<path fill="none" stroke="#63b8ff" d="M1108.71,-117.53C993.17,-114.42 644.63,-103.11 357,-74 354.06,-73.7 351.05,-73.36 348.01,-73"/>
<polygon fill="#63b8ff" stroke="#63b8ff" points="1108.75,-121.03 1118.84,-117.8 1108.93,-114.04 1108.75,-121.03"/>
</a>
</g>
</g>
<!-- Node12 -->
<g id="Node000012" class="node">
<title>Node12</title>
<g id="a_Node000012"><a xlink:href="DS3231Sensor_8h.html" target="_top" xlink:title=" ">
<polygon fill="white" stroke="#666666" points="2041.5,-74 1946.5,-74 1946.5,-55 2041.5,-55 2041.5,-74"/>
<text text-anchor="middle" x="1994" y="-62" font-family="Helvetica,sans-Serif" font-size="10.00">DS3231Sensor.h</text>
</a>
</g>
</g>
<!-- Node2&#45;&gt;Node12 -->
<g id="edge12_Node000002_Node000012" class="edge">
<title>Node2&#45;&gt;Node12</title>
<g id="a_edge12_Node000002_Node000012"><a xlink:title=" ">
<path fill="none" stroke="#63b8ff" d="M1187.17,-117.28C1301.59,-113.5 1645.12,-100.61 1929,-74 1934.67,-73.47 1940.6,-72.82 1946.48,-72.12"/>
<polygon fill="#63b8ff" stroke="#63b8ff" points="1187.02,-113.78 1177.13,-117.61 1187.24,-120.78 1187.02,-113.78"/>
</a>
</g>
</g>
<!-- Node14 -->
<g id="Node000014" class="node">
<title>Node14</title>
<g id="a_Node000014"><a xlink:href="ENS160Sensor_8h.html" target="_top" xlink:title=" ">
<polygon fill="white" stroke="#666666" points="461.5,-74 366.5,-74 366.5,-55 461.5,-55 461.5,-74"/>
<text text-anchor="middle" x="414" y="-62" font-family="Helvetica,sans-Serif" font-size="10.00">ENS160Sensor.h</text>
</a>
</g>
</g>
<!-- Node2&#45;&gt;Node14 -->
<g id="edge14_Node000002_Node000014" class="edge">
<title>Node2&#45;&gt;Node14</title>
<g id="a_edge14_Node000002_Node000014"><a xlink:title=" ">
<path fill="none" stroke="#63b8ff" d="M1108.78,-117.09C1004.55,-113.11 712.06,-100.27 470,-74 467.26,-73.7 464.45,-73.37 461.62,-73.01"/>
<polygon fill="#63b8ff" stroke="#63b8ff" points="1108.72,-120.59 1118.85,-117.47 1108.99,-113.6 1108.72,-120.59"/>
</a>
</g>
</g>
<!-- Node16 -->
<g id="Node000016" class="node">
<title>Node16</title>
<g id="a_Node000016"><a xlink:href="ICM20948Sensor_8h.html" target="_top" xlink:title=" ">
<polygon fill="white" stroke="#666666" points="586.5,-74 479.5,-74 479.5,-55 586.5,-55 586.5,-74"/>
<text text-anchor="middle" x="533" y="-62" font-family="Helvetica,sans-Serif" font-size="10.00">ICM20948Sensor.h</text>
</a>
</g>
</g>
<!-- Node2&#45;&gt;Node16 -->
<g id="edge17_Node000002_Node000016" class="edge">
<title>Node2&#45;&gt;Node16</title>
<g id="a_edge17_Node000002_Node000016"><a xlink:title=" ">
<path fill="none" stroke="#63b8ff" d="M1108.77,-116.1C1018.15,-110.39 787.27,-94.9 595,-74 592.3,-73.71 589.54,-73.39 586.75,-73.06"/>
<polygon fill="#63b8ff" stroke="#63b8ff" points="1108.67,-119.6 1118.87,-116.73 1109.1,-112.61 1108.67,-119.6"/>
</a>
</g>
</g>
<!-- Node18 -->
<g id="Node000018" class="node">
<title>Node18</title>
<g id="a_Node000018"><a xlink:href="INA260Sensor_8h.html" target="_top" xlink:title=" ">
<polygon fill="white" stroke="#666666" points="697.5,-74 604.5,-74 604.5,-55 697.5,-55 697.5,-74"/>
<text text-anchor="middle" x="651" y="-62" font-family="Helvetica,sans-Serif" font-size="10.00">INA260Sensor.h</text>
</a>
</g>
</g>
<!-- Node2&#45;&gt;Node18 -->
<g id="edge20_Node000002_Node000018" class="edge">
<title>Node2&#45;&gt;Node18</title>
<g id="a_edge20_Node000002_Node000018"><a xlink:title=" ">
<path fill="none" stroke="#63b8ff" d="M1108.56,-115.19C1031.35,-108.56 854.84,-92.67 707,-74 703.98,-73.62 700.86,-73.2 697.73,-72.77"/>
<polygon fill="#63b8ff" stroke="#63b8ff" points="1108.53,-118.7 1118.79,-116.06 1109.12,-111.72 1108.53,-118.7"/>
</a>
</g>
</g>
<!-- Node20 -->
<g id="Node000020" class="node">
<title>Node20</title>
<g id="a_Node000020"><a xlink:href="LSM9DS1Sensor_8h.html" target="_top" xlink:title=" ">
<polygon fill="white" stroke="#666666" points="2174,-74 2070,-74 2070,-55 2174,-55 2174,-74"/>
<text text-anchor="middle" x="2122" y="-62" font-family="Helvetica,sans-Serif" font-size="10.00">LSM9DS1Sensor.h</text>
</a>
</g>
</g>
<!-- Node2&#45;&gt;Node20 -->
<g id="edge23_Node000002_Node000020" class="edge">
<title>Node2&#45;&gt;Node20</title>
<g id="a_edge23_Node000002_Node000020"><a xlink:title=" ">
<path fill="none" stroke="#63b8ff" d="M1187.56,-117.51C1313.61,-114.16 1717.14,-101.83 2050,-74 2056.4,-73.47 2063.1,-72.81 2069.74,-72.09"/>
<polygon fill="#63b8ff" stroke="#63b8ff" points="1187.15,-114.02 1177.25,-117.78 1187.34,-121.02 1187.15,-114.02"/>
</a>
</g>
</g>
<!-- Node22 -->
<g id="Node000022" class="node">
<title>Node22</title>
<g id="a_Node000022"><a xlink:href="MTK3339Sensor_8h.html" target="_top" xlink:title=" ">
<polygon fill="white" stroke="#666666" points="820,-74 716,-74 716,-55 820,-55 820,-74"/>
<text text-anchor="middle" x="768" y="-62" font-family="Helvetica,sans-Serif" font-size="10.00">MTK3339Sensor.h</text>
</a>
</g>
</g>
<!-- Node2&#45;&gt;Node22 -->
<g id="edge25_Node000002_Node000022" class="edge">
<title>Node2&#45;&gt;Node22</title>
<g id="a_edge25_Node000002_Node000022"><a xlink:title=" ">
<path fill="none" stroke="#63b8ff" d="M1108.81,-113.03C1039.95,-103.43 897.23,-83.52 820.13,-72.77"/>
<polygon fill="#63b8ff" stroke="#63b8ff" points="1108.43,-116.51 1118.81,-114.43 1109.39,-109.58 1108.43,-116.51"/>
</a>
</g>
</g>
<!-- Node24 -->
<g id="Node000024" class="node">
<title>Node24</title>
<g id="a_Node000024"><a xlink:href="OzoneSensor_8h.html" target="_top" xlink:title=" ">
<polygon fill="white" stroke="#666666" points="965.5,-74 876.5,-74 876.5,-55 965.5,-55 965.5,-74"/>
<text text-anchor="middle" x="921" y="-62" font-family="Helvetica,sans-Serif" font-size="10.00">OzoneSensor.h</text>
</a>
</g>
</g>
<!-- Node2&#45;&gt;Node24 -->
<g id="edge28_Node000002_Node000024" class="edge">
<title>Node2&#45;&gt;Node24</title>
<g id="a_edge28_Node000002_Node000024"><a xlink:title=" ">
<path fill="none" stroke="#63b8ff" d="M1108.81,-109.35C1066.33,-99.43 999.05,-83.72 957.61,-74.05"/>
<polygon fill="#63b8ff" stroke="#63b8ff" points="1108.25,-112.81 1118.79,-111.68 1109.85,-106 1108.25,-112.81"/>
</a>
</g>
</g>
<!-- Node26 -->
<g id="Node000026" class="node">
<title>Node26</title>
<g id="a_Node000026"><a xlink:href="PCF8523Sensor_8h.html" target="_top" xlink:title=" ">
<polygon fill="white" stroke="#666666" points="1084.5,-74 983.5,-74 983.5,-55 1084.5,-55 1084.5,-74"/>
<text text-anchor="middle" x="1034" y="-62" font-family="Helvetica,sans-Serif" font-size="10.00">PCF8523Sensor.h</text>
</a>
</g>
</g>
<!-- Node2&#45;&gt;Node26 -->
<g id="edge31_Node000002_Node000026" class="edge">
<title>Node2&#45;&gt;Node26</title>
<g id="a_edge31_Node000002_Node000026"><a xlink:title=" ">
<path fill="none" stroke="#63b8ff" d="M1120.61,-105.77C1099.58,-95.99 1071.11,-82.75 1052.65,-74.17"/>
<polygon fill="#63b8ff" stroke="#63b8ff" points="1119.14,-108.94 1129.68,-109.98 1122.09,-102.6 1119.14,-108.94"/>
</a>
</g>
</g>
<!-- Node28 -->
<g id="Node000028" class="node">
<title>Node28</title>
<g id="a_Node000028"><a xlink:href="SCD40Sensor_8h.html" target="_top" xlink:title=" ">
<polygon fill="white" stroke="#666666" points="1193,-74 1103,-74 1103,-55 1193,-55 1193,-74"/>
<text text-anchor="middle" x="1148" y="-62" font-family="Helvetica,sans-Serif" font-size="10.00">SCD40Sensor.h</text>
</a>
</g>
</g>
<!-- Node2&#45;&gt;Node28 -->
<g id="edge34_Node000002_Node000028" class="edge">
<title>Node2&#45;&gt;Node28</title>
<g id="a_edge34_Node000002_Node000028"><a xlink:title=" ">
<path fill="none" stroke="#63b8ff" d="M1148,-99.66C1148,-90.93 1148,-80.99 1148,-74.09"/>
<polygon fill="#63b8ff" stroke="#63b8ff" points="1144.5,-99.75 1148,-109.75 1151.5,-99.75 1144.5,-99.75"/>
</a>
</g>
</g>
<!-- Node30 -->
<g id="Node000030" class="node">
<title>Node30</title>
<g id="a_Node000030"><a xlink:href="SGP30Sensor_8h.html" target="_top" xlink:title=" ">
<polygon fill="white" stroke="#666666" points="1647.5,-74 1558.5,-74 1558.5,-55 1647.5,-55 1647.5,-74"/>
<text text-anchor="middle" x="1603" y="-62" font-family="Helvetica,sans-Serif" font-size="10.00">SGP30Sensor.h</text>
</a>
</g>
</g>
<!-- Node2&#45;&gt;Node30 -->
<g id="edge37_Node000002_Node000030" class="edge">
<title>Node2&#45;&gt;Node30</title>
<g id="a_edge37_Node000002_Node000030"><a xlink:title=" ">
<path fill="none" stroke="#63b8ff" d="M1187.33,-113.92C1271.64,-104.1 1469.29,-81.07 1558.24,-70.71"/>
<polygon fill="#63b8ff" stroke="#63b8ff" points="1186.68,-110.47 1177.15,-115.1 1187.49,-117.42 1186.68,-110.47"/>
</a>
</g>
</g>
<!-- Node32 -->
<g id="Node000032" class="node">
<title>Node32</title>
<g id="a_Node000032"><a xlink:href="SHTC3Sensor_8h.html" target="_top" xlink:title=" ">
<polygon fill="white" stroke="#666666" points="1300.5,-74 1211.5,-74 1211.5,-55 1300.5,-55 1300.5,-74"/>
<text text-anchor="middle" x="1256" y="-62" font-family="Helvetica,sans-Serif" font-size="10.00">SHTC3Sensor.h</text>
</a>
</g>
</g>
<!-- Node2&#45;&gt;Node32 -->
<g id="edge39_Node000002_Node000032" class="edge">
<title>Node2&#45;&gt;Node32</title>
<g id="a_edge39_Node000002_Node000032"><a xlink:title=" ">
<path fill="none" stroke="#63b8ff" d="M1174.49,-105.5C1194.36,-95.75 1221,-82.68 1238.33,-74.17"/>
<polygon fill="#63b8ff" stroke="#63b8ff" points="1172.79,-102.44 1165.35,-109.98 1175.87,-108.72 1172.79,-102.44"/>
</a>
</g>
</g>
<!-- Node34 -->
<g id="Node000034" class="node">
<title>Node34</title>
<g id="a_Node000034"><a xlink:href="TMP117Sensor_8h.html" target="_top" xlink:title=" ">
<polygon fill="white" stroke="#666666" points="1415.5,-74 1318.5,-74 1318.5,-55 1415.5,-55 1415.5,-74"/>
<text text-anchor="middle" x="1367" y="-62" font-family="Helvetica,sans-Serif" font-size="10.00">TMP117Sensor.h</text>
</a>
</g>
</g>
<!-- Node2&#45;&gt;Node34 -->
<g id="edge42_Node000002_Node000034" class="edge">
<title>Node2&#45;&gt;Node34</title>
<g id="a_edge42_Node000002_Node000034"><a xlink:title=" ">
<path fill="none" stroke="#63b8ff" d="M1186.99,-109.06C1228.01,-99.14 1292.02,-83.65 1331.63,-74.06"/>
<polygon fill="#63b8ff" stroke="#63b8ff" points="1185.98,-105.71 1177.08,-111.46 1187.62,-112.51 1185.98,-105.71"/>
</a>
</g>
</g>
<!-- Node36 -->
<g id="Node000036" class="node">
<title>Node36</title>
<g id="a_Node000036"><a xlink:href="TempSensor_8h.html" target="_top" xlink:title=" ">
<polygon fill="white" stroke="#666666" points="1518,-74 1434,-74 1434,-55 1518,-55 1518,-74"/>
<text text-anchor="middle" x="1476" y="-62" font-family="Helvetica,sans-Serif" font-size="10.00">TempSensor.h</text>
</a>
</g>
</g>
<!-- Node2&#45;&gt;Node36 -->
<g id="edge45_Node000002_Node000036" class="edge">
<title>Node2&#45;&gt;Node36</title>
<g id="a_edge45_Node000002_Node000036"><a xlink:title=" ">
<path fill="none" stroke="#63b8ff" d="M1187.08,-112.23C1240.57,-103.63 1339.56,-87.71 1424,-74 1427.25,-73.47 1430.62,-72.92 1434,-72.37"/>
<polygon fill="#63b8ff" stroke="#63b8ff" points="1186.33,-108.8 1177.01,-113.84 1187.44,-115.71 1186.33,-108.8"/>
</a>
</g>
</g>
<!-- Node4 -->
<g id="Node000004" class="node">
<title>Node4</title>
<g id="a_Node000004"><a xlink:href="AS7331Sensor_8cpp.html" target="_top" xlink:title=" ">
<polygon fill="white" stroke="#666666" points="106,-19 0,-19 0,0 106,0 106,-19"/>
<text text-anchor="middle" x="53" y="-7" font-family="Helvetica,sans-Serif" font-size="10.00">AS7331Sensor.cpp</text>
</a>
</g>
</g>
<!-- Node3&#45;&gt;Node4 -->
<g id="edge3_Node000003_Node000004" class="edge">
<title>Node3&#45;&gt;Node4</title>
<g id="a_edge3_Node000003_Node000004"><a xlink:title=" ">
<path fill="none" stroke="#63b8ff" d="M153.5,-51.16C129.25,-41.35 95.93,-27.87 74.43,-19.17"/>
<polygon fill="#63b8ff" stroke="#63b8ff" points="152.37,-54.48 162.95,-54.98 155,-47.99 152.37,-54.48"/>
</a>
</g>
</g>
<!-- Node3&#45;&gt;Node5 -->
<g id="edge4_Node000003_Node000005" class="edge">
<title>Node3&#45;&gt;Node5</title>
<g id="a_edge4_Node000003_Node000005"><a xlink:title=" ">
<path fill="none" stroke="#63b8ff" d="M241.59,-55.04C472.15,-30.53 533.62,-50.05 759,-19 762.17,-18.56 765.46,-18.03 768.74,-17.43"/>
<polygon fill="#63b8ff" stroke="#63b8ff" points="241.12,-51.57 231.55,-56.12 241.87,-58.53 241.12,-51.57"/>
</a>
</g>
</g>
<!-- Node7 -->
<g id="Node000007" class="node">
<title>Node7</title>
<g id="a_Node000007"><a xlink:href="BME280Sensor_8cpp.html" target="_top" xlink:title=" ">
<polygon fill="white" stroke="#666666" points="1803.5,-19 1694.5,-19 1694.5,0 1803.5,0 1803.5,-19"/>
<text text-anchor="middle" x="1749" y="-7" font-family="Helvetica,sans-Serif" font-size="10.00">BME280Sensor.cpp</text>
</a>
</g>
</g>
<!-- Node6&#45;&gt;Node7 -->
<g id="edge6_Node000006_Node000007" class="edge">
<title>Node6&#45;&gt;Node7</title>
<g id="a_edge6_Node000006_Node000007"><a xlink:title=" ">
<path fill="none" stroke="#63b8ff" d="M1737.95,-44.95C1740.77,-36.15 1744.01,-26.06 1746.25,-19.09"/>
<polygon fill="#63b8ff" stroke="#63b8ff" points="1734.53,-44.16 1734.81,-54.75 1741.19,-46.29 1734.53,-44.16"/>
</a>
</g>
</g>
<!-- Node9 -->
<g id="Node000009" class="node">
<title>Node9</title>
<g id="a_Node000009"><a xlink:href="BME680Sensor_8cpp.html" target="_top" xlink:title=" ">
<polygon fill="white" stroke="#666666" points="1930.5,-19 1821.5,-19 1821.5,0 1930.5,0 1930.5,-19"/>
<text text-anchor="middle" x="1876" y="-7" font-family="Helvetica,sans-Serif" font-size="10.00">BME680Sensor.cpp</text>
</a>
</g>
</g>
<!-- Node8&#45;&gt;Node9 -->
<g id="edge8_Node000008_Node000009" class="edge">
<title>Node8&#45;&gt;Node9</title>
<g id="a_edge8_Node000008_Node000009"><a xlink:title=" ">
<path fill="none" stroke="#63b8ff" d="M1872.78,-44.66C1873.6,-35.93 1874.54,-25.99 1875.19,-19.09"/>
<polygon fill="#63b8ff" stroke="#63b8ff" points="1869.28,-44.46 1871.83,-54.75 1876.25,-45.12 1869.28,-44.46"/>
</a>
</g>
</g>
<!-- Node10&#45;&gt;Node5 -->
<g id="edge11_Node000010_Node000005" class="edge">
<title>Node10&#45;&gt;Node5</title>
<g id="a_edge11_Node000010_Node000005"><a xlink:title=" ">
<path fill="none" stroke="#63b8ff" d="M358.03,-54.95C536.87,-34.38 584.76,-44.78 759,-19 762.16,-18.53 765.45,-17.97 768.73,-17.37"/>
<polygon fill="#63b8ff" stroke="#63b8ff" points="357.55,-51.48 348.02,-56.12 358.36,-58.44 357.55,-51.48"/>
</a>
</g>
</g>
<!-- Node11 -->
<g id="Node000011" class="node">
<title>Node11</title>
<g id="a_Node000011"><a xlink:href="BMP390Sensor_8cpp.html" target="_top" xlink:title=" ">
<polygon fill="white" stroke="#666666" points="233.5,-19 124.5,-19 124.5,0 233.5,0 233.5,-19"/>
<text text-anchor="middle" x="179" y="-7" font-family="Helvetica,sans-Serif" font-size="10.00">BMP390Sensor.cpp</text>
</a>
</g>
</g>
<!-- Node10&#45;&gt;Node11 -->
<g id="edge10_Node000010_Node000011" class="edge">
<title>Node10&#45;&gt;Node11</title>
<g id="a_edge10_Node000010_Node000011"><a xlink:title=" ">
<path fill="none" stroke="#63b8ff" d="M270.47,-50.9C248.3,-41.11 218.15,-27.79 198.63,-19.17"/>
<polygon fill="#63b8ff" stroke="#63b8ff" points="269.16,-54.15 279.72,-54.98 271.99,-47.74 269.16,-54.15"/>
</a>
</g>
</g>
<!-- Node13 -->
<g id="Node000013" class="node">
<title>Node13</title>
<g id="a_Node000013"><a xlink:href="DS3231Sensor_8cpp.html" target="_top" xlink:title=" ">
<polygon fill="white" stroke="#666666" points="2055.5,-19 1948.5,-19 1948.5,0 2055.5,0 2055.5,-19"/>
<text text-anchor="middle" x="2002" y="-7" font-family="Helvetica,sans-Serif" font-size="10.00">DS3231Sensor.cpp</text>
</a>
</g>
</g>
<!-- Node12&#45;&gt;Node13 -->
<g id="edge13_Node000012_Node000013" class="edge">
<title>Node12&#45;&gt;Node13</title>
<g id="a_edge13_Node000012_Node000013"><a xlink:title=" ">
<path fill="none" stroke="#63b8ff" d="M1996.84,-44.66C1998.16,-35.93 1999.66,-25.99 2000.7,-19.09"/>
<polygon fill="#63b8ff" stroke="#63b8ff" points="1993.35,-44.34 1995.32,-54.75 2000.27,-45.38 1993.35,-44.34"/>
</a>
</g>
</g>
<!-- Node14&#45;&gt;Node5 -->
<g id="edge16_Node000014_Node000005" class="edge">
<title>Node14&#45;&gt;Node5</title>
<g id="a_edge16_Node000014_Node000005"><a xlink:title=" ">
<path fill="none" stroke="#63b8ff" d="M471.85,-54.78C599.96,-37.42 634.55,-39.62 759,-19 762.16,-18.48 765.44,-17.88 768.71,-17.26"/>
<polygon fill="#63b8ff" stroke="#63b8ff" points="471.08,-51.35 461.65,-56.18 472.03,-58.29 471.08,-51.35"/>
</a>
</g>
</g>
<!-- Node15 -->
<g id="Node000015" class="node">
<title>Node15</title>
<g id="a_Node000015"><a xlink:href="ENS160Sensor_8cpp.html" target="_top" xlink:title=" ">
<polygon fill="white" stroke="#666666" points="358.5,-19 251.5,-19 251.5,0 358.5,0 358.5,-19"/>
<text text-anchor="middle" x="305" y="-7" font-family="Helvetica,sans-Serif" font-size="10.00">ENS160Sensor.cpp</text>
</a>
</g>
</g>
<!-- Node14&#45;&gt;Node15 -->
<g id="edge15_Node000014_Node000015" class="edge">
<title>Node14&#45;&gt;Node15</title>
<g id="a_edge15_Node000014_Node000015"><a xlink:title=" ">
<path fill="none" stroke="#63b8ff" d="M387.27,-50.5C367.21,-40.75 340.32,-27.68 322.83,-19.17"/>
<polygon fill="#63b8ff" stroke="#63b8ff" points="385.96,-53.76 396.49,-54.98 389.02,-47.46 385.96,-53.76"/>
</a>
</g>
</g>
<!-- Node16&#45;&gt;Node5 -->
<g id="edge19_Node000016_Node000005" class="edge">
<title>Node16&#45;&gt;Node5</title>
<g id="a_edge19_Node000016_Node000005"><a xlink:title=" ">
<path fill="none" stroke="#63b8ff" d="M587.21,-52.98C633.01,-44.06 700.33,-30.86 759,-19 762.14,-18.37 765.4,-17.7 768.67,-17.03"/>
<polygon fill="#63b8ff" stroke="#63b8ff" points="586.34,-49.59 577.2,-54.93 587.68,-56.46 586.34,-49.59"/>
</a>
</g>
</g>
<!-- Node17 -->
<g id="Node000017" class="node">
<title>Node17</title>
<g id="a_Node000017"><a xlink:href="ICM20948Sensor_8cpp.html" target="_top" xlink:title=" ">
<polygon fill="white" stroke="#666666" points="495,-19 377,-19 377,0 495,0 495,-19"/>
<text text-anchor="middle" x="436" y="-7" font-family="Helvetica,sans-Serif" font-size="10.00">ICM20948Sensor.cpp</text>
</a>
</g>
</g>
<!-- Node16&#45;&gt;Node17 -->
<g id="edge18_Node000016_Node000017" class="edge">
<title>Node16&#45;&gt;Node17</title>
<g id="a_edge18_Node000016_Node000017"><a xlink:title=" ">
<path fill="none" stroke="#63b8ff" d="M508.23,-49.97C490.5,-40.28 467.15,-27.52 451.87,-19.17"/>
<polygon fill="#63b8ff" stroke="#63b8ff" points="506.96,-53.26 517.42,-54.98 510.32,-47.12 506.96,-53.26"/>
</a>
</g>
</g>
<!-- Node18&#45;&gt;Node5 -->
<g id="edge22_Node000018_Node000005" class="edge">
<title>Node18&#45;&gt;Node5</title>
<g id="a_edge22_Node000018_Node000005"><a xlink:title=" ">
<path fill="none" stroke="#63b8ff" d="M684.59,-51.55C712.26,-41.71 750.84,-27.98 775.62,-19.17"/>
<polygon fill="#63b8ff" stroke="#63b8ff" points="683.19,-48.34 674.94,-54.98 685.53,-54.93 683.19,-48.34"/>
</a>
</g>
</g>
<!-- Node19 -->
<g id="Node000019" class="node">
<title>Node19</title>
<g id="a_Node000019"><a xlink:href="INA260Sensor_8cpp.html" target="_top" xlink:title=" ">
<polygon fill="white" stroke="#666666" points="617,-19 513,-19 513,0 617,0 617,-19"/>
<text text-anchor="middle" x="565" y="-7" font-family="Helvetica,sans-Serif" font-size="10.00">INA260Sensor.cpp</text>
</a>
</g>
</g>
<!-- Node18&#45;&gt;Node19 -->
<g id="edge21_Node000018_Node000019" class="edge">
<title>Node18&#45;&gt;Node19</title>
<g id="a_edge21_Node000018_Node000019"><a xlink:title=" ">
<path fill="none" stroke="#63b8ff" d="M628.6,-49.7C612.93,-40.04 592.49,-27.44 579.07,-19.17"/>
<polygon fill="#63b8ff" stroke="#63b8ff" points="626.83,-52.72 637.18,-54.98 630.51,-46.76 626.83,-52.72"/>
</a>
</g>
</g>
<!-- Node21 -->
<g id="Node000021" class="node">
<title>Node21</title>
<g id="a_Node000021"><a xlink:href="LSM9DS1Sensor_8cpp.html" target="_top" xlink:title=" ">
<polygon fill="white" stroke="#666666" points="2188.5,-19 2073.5,-19 2073.5,0 2188.5,0 2188.5,-19"/>
<text text-anchor="middle" x="2131" y="-7" font-family="Helvetica,sans-Serif" font-size="10.00">LSM9DS1Sensor.cpp</text>
</a>
</g>
</g>
<!-- Node20&#45;&gt;Node21 -->
<g id="edge24_Node000020_Node000021" class="edge">
<title>Node20&#45;&gt;Node21</title>
<g id="a_edge24_Node000020_Node000021"><a xlink:title=" ">
<path fill="none" stroke="#63b8ff" d="M2125.2,-44.66C2126.68,-35.93 2128.37,-25.99 2129.54,-19.09"/>
<polygon fill="#63b8ff" stroke="#63b8ff" points="2121.71,-44.3 2123.49,-54.75 2128.61,-45.48 2121.71,-44.3"/>
</a>
</g>
</g>
<!-- Node22&#45;&gt;Node5 -->
<g id="edge27_Node000022_Node000005" class="edge">
<title>Node22&#45;&gt;Node5</title>
<g id="a_edge27_Node000022_Node000005"><a xlink:title=" ">
<path fill="none" stroke="#63b8ff" d="M778.5,-46.1C783.97,-37.04 790.42,-26.37 794.81,-19.09"/>
<polygon fill="#63b8ff" stroke="#63b8ff" points="775.46,-44.38 773.28,-54.75 781.45,-48 775.46,-44.38"/>
</a>
</g>
</g>
<!-- Node23 -->
<g id="Node000023" class="node">
<title>Node23</title>
<g id="a_Node000023"><a xlink:href="MTK3339Sensor_8cpp.html" target="_top" xlink:title=" ">
<polygon fill="white" stroke="#666666" points="750.5,-19 635.5,-19 635.5,0 750.5,0 750.5,-19"/>
<text text-anchor="middle" x="693" y="-7" font-family="Helvetica,sans-Serif" font-size="10.00">MTK3339Sensor.cpp</text>
</a>
</g>
</g>
<!-- Node22&#45;&gt;Node23 -->
<g id="edge26_Node000022_Node000023" class="edge">
<title>Node22&#45;&gt;Node23</title>
<g id="a_edge26_Node000022_Node000023"><a xlink:title=" ">
<path fill="none" stroke="#63b8ff" d="M747.69,-49.15C734.14,-39.57 716.76,-27.29 705.27,-19.17"/>
<polygon fill="#63b8ff" stroke="#63b8ff" points="745.76,-52.07 755.95,-54.98 749.8,-46.36 745.76,-52.07"/>
</a>
</g>
</g>
<!-- Node24&#45;&gt;Node5 -->
<g id="edge30_Node000024_Node000005" class="edge">
<title>Node24&#45;&gt;Node5</title>
<g id="a_edge30_Node000024_Node000005"><a xlink:title=" ">
<path fill="none" stroke="#63b8ff" d="M892.23,-50.9C869.88,-41.11 839.48,-27.79 819.79,-19.17"/>
<polygon fill="#63b8ff" stroke="#63b8ff" points="891,-54.18 901.56,-54.98 893.8,-47.77 891,-54.18"/>
</a>
</g>
</g>
<!-- Node25 -->
<g id="Node000025" class="node">
<title>Node25</title>
<g id="a_Node000025"><a xlink:href="OzoneSensor_8cpp.html" target="_top" xlink:title=" ">
<polygon fill="white" stroke="#666666" points="949,-19 849,-19 849,0 949,0 949,-19"/>
<text text-anchor="middle" x="899" y="-7" font-family="Helvetica,sans-Serif" font-size="10.00">OzoneSensor.cpp</text>
</a>
</g>
</g>
<!-- Node24&#45;&gt;Node25 -->
<g id="edge29_Node000024_Node000025" class="edge">
<title>Node24&#45;&gt;Node25</title>
<g id="a_edge29_Node000024_Node000025"><a xlink:title=" ">
<path fill="none" stroke="#63b8ff" d="M913.42,-45.24C909.74,-36.37 905.49,-26.14 902.57,-19.09"/>
<polygon fill="#63b8ff" stroke="#63b8ff" points="910.3,-46.85 917.37,-54.75 916.77,-44.17 910.3,-46.85"/>
</a>
</g>
</g>
<!-- Node26&#45;&gt;Node5 -->
<g id="edge33_Node000026_Node000005" class="edge">
<title>Node26&#45;&gt;Node5</title>
<g id="a_edge33_Node000026_Node000005"><a xlink:title=" ">
<path fill="none" stroke="#63b8ff" d="M986.59,-52.76C940.22,-42.26 870.94,-26.57 831.14,-17.55"/>
<polygon fill="#63b8ff" stroke="#63b8ff" points="985.88,-56.19 996.4,-54.98 987.42,-49.36 985.88,-56.19"/>
</a>
</g>
</g>
<!-- Node27 -->
<g id="Node000027" class="node">
<title>Node27</title>
<g id="a_Node000027"><a xlink:href="PCF8523Sensor_8cpp.html" target="_top" xlink:title=" ">
<polygon fill="white" stroke="#666666" points="1079,-19 967,-19 967,0 1079,0 1079,-19"/>
<text text-anchor="middle" x="1023" y="-7" font-family="Helvetica,sans-Serif" font-size="10.00">PCF8523Sensor.cpp</text>
</a>
</g>
</g>
<!-- Node26&#45;&gt;Node27 -->
<g id="edge32_Node000026_Node000027" class="edge">
<title>Node26&#45;&gt;Node27</title>
<g id="a_edge32_Node000026_Node000027"><a xlink:title=" ">
<path fill="none" stroke="#63b8ff" d="M1030.15,-44.95C1028.32,-36.15 1026.23,-26.06 1024.78,-19.09"/>
<polygon fill="#63b8ff" stroke="#63b8ff" points="1026.72,-45.67 1032.18,-54.75 1033.58,-44.25 1026.72,-45.67"/>
</a>
</g>
</g>
<!-- Node28&#45;&gt;Node5 -->
<g id="edge36_Node000028_Node000005" class="edge">
<title>Node28&#45;&gt;Node5</title>
<g id="a_edge36_Node000028_Node000005"><a xlink:title=" ">
<path fill="none" stroke="#63b8ff" d="M1093.3,-55.05C1093.2,-55.03 1093.1,-55.02 1093,-55 980.65,-38.33 951.84,-38.82 840,-19 837.2,-18.5 834.3,-17.96 831.4,-17.38"/>
<polygon fill="#63b8ff" stroke="#63b8ff" points="1092.57,-58.47 1102.98,-56.5 1093.61,-51.55 1092.57,-58.47"/>
</a>
</g>
</g>
<!-- Node29 -->
<g id="Node000029" class="node">
<title>Node29</title>
<g id="a_Node000029"><a xlink:href="SCD40Sensor_8cpp.html" target="_top" xlink:title=" ">
<polygon fill="white" stroke="#666666" points="1198.5,-19 1097.5,-19 1097.5,0 1198.5,0 1198.5,-19"/>
<text text-anchor="middle" x="1148" y="-7" font-family="Helvetica,sans-Serif" font-size="10.00">SCD40Sensor.cpp</text>
</a>
</g>
</g>
<!-- Node28&#45;&gt;Node29 -->
<g id="edge35_Node000028_Node000029" class="edge">
<title>Node28&#45;&gt;Node29</title>
<g id="a_edge35_Node000028_Node000029"><a xlink:title=" ">
<path fill="none" stroke="#63b8ff" d="M1148,-44.66C1148,-35.93 1148,-25.99 1148,-19.09"/>
<polygon fill="#63b8ff" stroke="#63b8ff" points="1144.5,-44.75 1148,-54.75 1151.5,-44.75 1144.5,-44.75"/>
</a>
</g>
</g>
<!-- Node31 -->
<g id="Node000031" class="node">
<title>Node31</title>
<g id="a_Node000031"><a xlink:href="SGP30Sensor_8cpp.html" target="_top" xlink:title=" ">
<polygon fill="white" stroke="#666666" points="1676.5,-19 1575.5,-19 1575.5,0 1676.5,0 1676.5,-19"/>
<text text-anchor="middle" x="1626" y="-7" font-family="Helvetica,sans-Serif" font-size="10.00">SGP30Sensor.cpp</text>
</a>
</g>
</g>
<!-- Node30&#45;&gt;Node31 -->
<g id="edge38_Node000030_Node000031" class="edge">
<title>Node30&#45;&gt;Node31</title>
<g id="a_edge38_Node000030_Node000031"><a xlink:title=" ">
<path fill="none" stroke="#63b8ff" d="M1610.8,-45.53C1614.68,-36.6 1619.18,-26.22 1622.27,-19.09"/>
<polygon fill="#63b8ff" stroke="#63b8ff" points="1607.57,-44.18 1606.8,-54.75 1613.99,-46.97 1607.57,-44.18"/>
</a>
</g>
</g>
<!-- Node32&#45;&gt;Node5 -->
<g id="edge41_Node000032_Node000005" class="edge">
<title>Node32&#45;&gt;Node5</title>
<g id="a_edge41_Node000032_Node000005"><a xlink:title=" ">
<path fill="none" stroke="#63b8ff" d="M1200.96,-54.95C1039.87,-34.79 996.49,-43.33 840,-19 837.19,-18.56 834.29,-18.06 831.38,-17.51"/>
<polygon fill="#63b8ff" stroke="#63b8ff" points="1200.88,-58.47 1211.24,-56.25 1201.76,-51.52 1200.88,-58.47"/>
</a>
</g>
</g>
<!-- Node33 -->
<g id="Node000033" class="node">
<title>Node33</title>
<g id="a_Node000033"><a xlink:href="SHTC3Sensor_8cpp.html" target="_top" xlink:title=" ">
<polygon fill="white" stroke="#666666" points="1317.5,-19 1216.5,-19 1216.5,0 1317.5,0 1317.5,-19"/>
<text text-anchor="middle" x="1267" y="-7" font-family="Helvetica,sans-Serif" font-size="10.00">SHTC3Sensor.cpp</text>
</a>
</g>
</g>
<!-- Node32&#45;&gt;Node33 -->
<g id="edge40_Node000032_Node000033" class="edge">
<title>Node32&#45;&gt;Node33</title>
<g id="a_edge40_Node000032_Node000033"><a xlink:title=" ">
<path fill="none" stroke="#63b8ff" d="M1259.85,-44.95C1261.68,-36.15 1263.77,-26.06 1265.22,-19.09"/>
<polygon fill="#63b8ff" stroke="#63b8ff" points="1256.42,-44.25 1257.82,-54.75 1263.28,-45.67 1256.42,-44.25"/>
</a>
</g>
</g>
<!-- Node34&#45;&gt;Node5 -->
<g id="edge44_Node000034_Node000005" class="edge">
<title>Node34&#45;&gt;Node5</title>
<g id="a_edge44_Node000034_Node000005"><a xlink:title=" ">
<path fill="none" stroke="#63b8ff" d="M1308.24,-55.01C1099.5,-32.35 1043.69,-48.33 840,-19 837.19,-18.6 834.28,-18.11 831.37,-17.58"/>
<polygon fill="#63b8ff" stroke="#63b8ff" points="1307.97,-58.5 1318.3,-56.11 1308.74,-51.54 1307.97,-58.5"/>
</a>
</g>
</g>
<!-- Node35 -->
<g id="Node000035" class="node">
<title>Node35</title>
<g id="a_Node000035"><a xlink:href="TMP117Sensor_8cpp.html" target="_top" xlink:title=" ">
<polygon fill="white" stroke="#666666" points="1444,-19 1336,-19 1336,0 1444,0 1444,-19"/>
<text text-anchor="middle" x="1390" y="-7" font-family="Helvetica,sans-Serif" font-size="10.00">TMP117Sensor.cpp</text>
</a>
</g>
</g>
<!-- Node34&#45;&gt;Node35 -->
<g id="edge43_Node000034_Node000035" class="edge">
<title>Node34&#45;&gt;Node35</title>
<g id="a_edge43_Node000034_Node000035"><a xlink:title=" ">
<path fill="none" stroke="#63b8ff" d="M1374.8,-45.53C1378.68,-36.6 1383.18,-26.22 1386.27,-19.09"/>
<polygon fill="#63b8ff" stroke="#63b8ff" points="1371.57,-44.18 1370.8,-54.75 1377.99,-46.97 1371.57,-44.18"/>
</a>
</g>
</g>
<!-- Node36&#45;&gt;Node5 -->
<g id="edge47_Node000036_Node000005" class="edge">
<title>Node36&#45;&gt;Node5</title>
<g id="a_edge47_Node000036_Node000005"><a xlink:title=" ">
<path fill="none" stroke="#63b8ff" d="M1423.65,-55.11C1163.82,-26.69 1094.39,-53.68 840,-19 837.19,-18.62 834.28,-18.15 831.37,-17.62"/>
<polygon fill="#63b8ff" stroke="#63b8ff" points="1423.44,-58.61 1433.76,-56.23 1424.21,-51.65 1423.44,-58.61"/>
</a>
</g>
</g>
<!-- Node37 -->
<g id="Node000037" class="node">
<title>Node37</title>
<g id="a_Node000037"><a xlink:href="TempSensor_8cpp.html" target="_top" xlink:title=" ">
<polygon fill="white" stroke="#666666" points="1557.5,-19 1462.5,-19 1462.5,0 1557.5,0 1557.5,-19"/>
<text text-anchor="middle" x="1510" y="-7" font-family="Helvetica,sans-Serif" font-size="10.00">TempSensor.cpp</text>
</a>
</g>
</g>
<!-- Node36&#45;&gt;Node37 -->
<g id="edge46_Node000036_Node000037" class="edge">
<title>Node36&#45;&gt;Node37</title>
<g id="a_edge46_Node000036_Node000037"><a xlink:title=" ">
<path fill="none" stroke="#63b8ff" d="M1487.16,-46.1C1492.97,-37.04 1499.82,-26.37 1504.49,-19.09"/>
<polygon fill="#63b8ff" stroke="#63b8ff" points="1484.07,-44.44 1481.61,-54.75 1489.96,-48.22 1484.07,-44.44"/>
</a>
</g>
</g>
<!-- Node39 -->
<g id="Node000039" class="node">
<title>Node39</title>
<g id="a_Node000039"><a xlink:href="FlashStorage_8h.html" target="_top" xlink:title=" ">
<polygon fill="white" stroke="#666666" points="2301.5,-74 2212.5,-74 2212.5,-55 2301.5,-55 2301.5,-74"/>
<text text-anchor="middle" x="2257" y="-62" font-family="Helvetica,sans-Serif" font-size="10.00">FlashStorage.h</text>
</a>
</g>
</g>
<!-- Node38&#45;&gt;Node39 -->
<g id="edge50_Node000038_Node000039" class="edge">
<title>Node38&#45;&gt;Node39</title>
<g id="a_edge50_Node000038_Node000039"><a xlink:title=" ">
<path fill="none" stroke="#63b8ff" d="M2309.86,-103.88C2296.72,-94.34 2280.02,-82.21 2268.94,-74.17"/>
<polygon fill="#63b8ff" stroke="#63b8ff" points="2308.12,-106.94 2318.27,-109.98 2312.24,-101.28 2308.12,-106.94"/>
</a>
</g>
</g>
<!-- Node41 -->
<g id="Node000041" class="node">
<title>Node41</title>
<g id="a_Node000041"><a xlink:href="main1_8cpp.html" target="_top" xlink:title="Main functions for Core 1, responsible for sending data to storage peripherals.">
<polygon fill="white" stroke="#666666" points="2394,-19 2326,-19 2326,0 2394,0 2394,-19"/>
<text text-anchor="middle" x="2360" y="-7" font-family="Helvetica,sans-Serif" font-size="10.00">main1.cpp</text>
</a>
</g>
</g>
<!-- Node38&#45;&gt;Node41 -->
<g id="edge60_Node000038_Node000041" class="edge">
<title>Node38&#45;&gt;Node41</title>
<g id="a_edge60_Node000038_Node000041"><a xlink:title=" ">
<path fill="none" stroke="#63b8ff" d="M2335.19,-99.8C2341.75,-76.2 2352.76,-36.58 2357.59,-19.16"/>
<polygon fill="#63b8ff" stroke="#63b8ff" points="2331.76,-99.09 2332.46,-109.66 2338.5,-100.96 2331.76,-99.09"/>
</a>
</g>
</g>
<!-- Node42 -->
<g id="Node000042" class="node">
<title>Node42</title>
<g id="a_Node000042"><a xlink:href="RadioStorage_8h.html" target="_top" xlink:title=" ">
<polygon fill="white" stroke="#666666" points="2449.5,-74 2358.5,-74 2358.5,-55 2449.5,-55 2449.5,-74"/>
<text text-anchor="middle" x="2404" y="-62" font-family="Helvetica,sans-Serif" font-size="10.00">RadioStorage.h</text>
</a>
</g>
</g>
<!-- Node38&#45;&gt;Node42 -->
<g id="edge54_Node000038_Node000042" class="edge">
<title>Node38&#45;&gt;Node42</title>
<g id="a_edge54_Node000038_Node000042"><a xlink:title=" ">
<path fill="none" stroke="#63b8ff" d="M2350.03,-104.15C2363.41,-94.57 2380.56,-82.29 2391.89,-74.17"/>
<polygon fill="#63b8ff" stroke="#63b8ff" points="2347.98,-101.32 2341.89,-109.98 2352.06,-107.01 2347.98,-101.32"/>
</a>
</g>
</g>
<!-- Node44 -->
<g id="Node000044" class="node">
<title>Node44</title>
<g id="a_Node000044"><a xlink:href="SDStorage_8h.html" target="_top" xlink:title=" ">
<polygon fill="white" stroke="#666666" points="2544.5,-74 2467.5,-74 2467.5,-55 2544.5,-55 2544.5,-74"/>
<text text-anchor="middle" x="2506" y="-62" font-family="Helvetica,sans-Serif" font-size="10.00">SDStorage.h</text>
</a>
</g>
</g>
<!-- Node38&#45;&gt;Node44 -->
<g id="edge57_Node000038_Node000044" class="edge">
<title>Node38&#45;&gt;Node44</title>
<g id="a_edge57_Node000038_Node000044"><a xlink:title=" ">
<path fill="none" stroke="#63b8ff" d="M2368,-107.06C2400.9,-97.15 2447.74,-83.04 2477.5,-74.08"/>
<polygon fill="#63b8ff" stroke="#63b8ff" points="2366.84,-103.75 2358.28,-109.98 2368.86,-110.45 2366.84,-103.75"/>
</a>
</g>
</g>
<!-- Node39&#45;&gt;Node5 -->
<g id="edge52_Node000039_Node000005" class="edge">
<title>Node39&#45;&gt;Node5</title>
<g id="a_edge52_Node000039_Node000005"><a xlink:title=" ">
<path fill="none" stroke="#63b8ff" d="M2202.32,-56.67C2195.81,-56.02 2189.26,-55.44 2183,-55 1587.38,-12.89 1432.94,-89.35 840,-19 837.18,-18.67 834.26,-18.23 831.35,-17.73"/>
<polygon fill="#63b8ff" stroke="#63b8ff" points="2202.14,-60.17 2212.45,-57.74 2202.87,-53.21 2202.14,-60.17"/>
</a>
</g>
</g>
<!-- Node40 -->
<g id="Node000040" class="node">
<title>Node40</title>
<g id="a_Node000040"><a xlink:href="FlashStorage_8cpp.html" target="_top" xlink:title=" ">
<polygon fill="white" stroke="#666666" points="2307.5,-19 2206.5,-19 2206.5,0 2307.5,0 2307.5,-19"/>
<text text-anchor="middle" x="2257" y="-7" font-family="Helvetica,sans-Serif" font-size="10.00">FlashStorage.cpp</text>
</a>
</g>
</g>
<!-- Node39&#45;&gt;Node40 -->
<g id="edge51_Node000039_Node000040" class="edge">
<title>Node39&#45;&gt;Node40</title>
<g id="a_edge51_Node000039_Node000040"><a xlink:title=" ">
<path fill="none" stroke="#63b8ff" d="M2257,-44.66C2257,-35.93 2257,-25.99 2257,-19.09"/>
<polygon fill="#63b8ff" stroke="#63b8ff" points="2253.5,-44.75 2257,-54.75 2260.5,-44.75 2253.5,-44.75"/>
</a>
</g>
</g>
<!-- Node39&#45;&gt;Node41 -->
<g id="edge53_Node000039_Node000041" class="edge">
<title>Node39&#45;&gt;Node41</title>
<g id="a_edge53_Node000039_Node000041"><a xlink:title=" ">
<path fill="none" stroke="#63b8ff" d="M2282.52,-50.37C2301.44,-40.63 2326.7,-27.64 2343.15,-19.17"/>
<polygon fill="#63b8ff" stroke="#63b8ff" points="2280.84,-47.3 2273.55,-54.98 2284.04,-53.52 2280.84,-47.3"/>
</a>
</g>
</g>
<!-- Node42&#45;&gt;Node41 -->
<g id="edge56_Node000042_Node000041" class="edge">
<title>Node42&#45;&gt;Node41</title>
<g id="a_edge56_Node000042_Node000041"><a xlink:title=" ">
<path fill="none" stroke="#63b8ff" d="M2390.27,-46.96C2382.6,-37.72 2373.37,-26.6 2367.13,-19.09"/>
<polygon fill="#63b8ff" stroke="#63b8ff" points="2387.65,-49.29 2396.73,-54.75 2393.04,-44.82 2387.65,-49.29"/>
</a>
</g>
</g>
<!-- Node43 -->
<g id="Node000043" class="node">
<title>Node43</title>
<g id="a_Node000043"><a xlink:href="RadioStorage_8cpp.html" target="_top" xlink:title=" ">
<polygon fill="white" stroke="#666666" points="2514,-19 2412,-19 2412,0 2514,0 2514,-19"/>
<text text-anchor="middle" x="2463" y="-7" font-family="Helvetica,sans-Serif" font-size="10.00">RadioStorage.cpp</text>
</a>
</g>
</g>
<!-- Node42&#45;&gt;Node43 -->
<g id="edge55_Node000042_Node000043" class="edge">
<title>Node42&#45;&gt;Node43</title>
<g id="a_edge55_Node000042_Node000043"><a xlink:title=" ">
<path fill="none" stroke="#63b8ff" d="M2421.2,-48.04C2431.67,-38.64 2444.65,-26.98 2453.35,-19.17"/>
<polygon fill="#63b8ff" stroke="#63b8ff" points="2418.58,-45.7 2413.48,-54.98 2423.26,-50.91 2418.58,-45.7"/>
</a>
</g>
</g>
<!-- Node44&#45;&gt;Node41 -->
<g id="edge59_Node000044_Node000041" class="edge">
<title>Node44&#45;&gt;Node41</title>
<g id="a_edge59_Node000044_Node000041"><a xlink:title=" ">
<path fill="none" stroke="#63b8ff" d="M2473.08,-51.55C2445.97,-41.71 2408.17,-27.98 2383.88,-19.17"/>
<polygon fill="#63b8ff" stroke="#63b8ff" points="2471.95,-54.86 2482.54,-54.98 2474.34,-48.28 2471.95,-54.86"/>
</a>
</g>
</g>
<!-- Node45 -->
<g id="Node000045" class="node">
<title>Node45</title>
<g id="a_Node000045"><a xlink:href="SDStorage_8cpp.html" target="_top" xlink:title=" ">
<polygon fill="white" stroke="#666666" points="2620,-19 2532,-19 2532,0 2620,0 2620,-19"/>
<text text-anchor="middle" x="2576" y="-7" font-family="Helvetica,sans-Serif" font-size="10.00">SDStorage.cpp</text>
</a>
</g>
</g>
<!-- Node44&#45;&gt;Node45 -->
<g id="edge58_Node000044_Node000045" class="edge">
<title>Node44&#45;&gt;Node45</title>
<g id="a_edge58_Node000044_Node000045"><a xlink:title=" ">
<path fill="none" stroke="#63b8ff" d="M2525.31,-48.88C2537.91,-39.34 2553.93,-27.21 2564.55,-19.17"/>
<polygon fill="#63b8ff" stroke="#63b8ff" points="2523.11,-46.16 2517.25,-54.98 2527.33,-51.74 2523.11,-46.16"/>
</a>
</g>
</g>
</g>
</svg>
