<?xml version="1.0" encoding="UTF-8" standalone="no"?>
<!DOCTYPE svg PUBLIC "-//W3C//DTD SVG 1.1//EN"
 "http://www.w3.org/Graphics/SVG/1.1/DTD/svg11.dtd">
<!-- Generated by graphviz version 2.43.0 (0)
 -->
<!-- Title: Device.h Pages: 1 -->
<!--zoomable 192 -->

<svg id="main" version="1.1" xmlns="http://www.w3.org/2000/svg" xmlns:xlink="http://www.w3.org/1999/xlink" xml:space="preserve" onload="init(evt)">
<style type="text/css"><![CDATA[
.node, .edge {opacity: 0.7;}
.node.selected, .edge.selected {opacity: 1;}
.edge:hover path { stroke: red; }
.edge:hover polygon { stroke: red; fill: red; }
]]></style>

<defs>
  <circle id="rim" cx="0" cy="0" r="7"/>
  <circle id="rim2" cx="0" cy="0" r="3.5"/>
  <g id="zoomPlus">
    <use xlink:href="#rim" fill="#404040"><set attributeName="fill" to="#808080" begin="zoomplus.mouseover" end="zoomplus.mouseout"/></use>
    <path d="M-4,0h8M0,-4v8" fill="none" stroke="white" stroke-width="1.5" pointer-events="none"/>
  </g>
  <g id="zoomMin">
    <use xlink:href="#rim" fill="#404040"><set attributeName="fill" to="#808080" begin="zoomminus.mouseover" end="zoomminus.mouseout"/></use>
    <path d="M-4,0h8" fill="none" stroke="white" stroke-width="1.5" pointer-events="none"/>
  </g>
  <g id="arrowUp" transform="translate(30 24)">
    <use xlink:href="#rim"/>
    <path pointer-events="none" fill="none" stroke="white" stroke-width="1.5" d="M0,-3.0v7 M-2.5,-0.5L0,-3.0L2.5,-0.5"/>
  </g>
  <g id="arrowRight" transform="rotate(90) translate(36 -43)">
    <use xlink:href="#rim"/>
    <path pointer-events="none" fill="none" stroke="white" stroke-width="1.5" d="M0,-3.0v7 M-2.5,-0.5L0,-3.0L2.5,-0.5"/>
  </g>
  <g id="arrowDown" transform="rotate(180) translate(-30 -48)">
    <use xlink:href="#rim"/>
    <path pointer-events="none" fill="none" stroke="white" stroke-width="1.5" d="M0,-3.0v7 M-2.5,-0.5L0,-3.0L2.5,-0.5"/>
  </g>
  <g id="arrowLeft" transform="rotate(270) translate(-36 17)">
    <use xlink:href="#rim"/>
    <path pointer-events="none" fill="none" stroke="white" stroke-width="1.5" d="M0,-3.0v7 M-2.5,-0.5L0,-3.0L2.5,-0.5"/>
  </g>
  <g id="resetDef">
    <use xlink:href="#rim2" fill="#404040"><set attributeName="fill" to="#808080" begin="reset.mouseover" end="reset.mouseout"/></use>
  </g>
</defs>
<script type="application/ecmascript">
var viewWidth = 2392;
var viewHeight = 192;
var sectionId = 'dynsection-1';
</script>
<script type="application/ecmascript" xlink:href="svg.min.js"/>
<svg id="graph" class="graph">
<g id="viewport">
<title>Device.h</title>
<!-- Node1 -->
<g id="Node000001" class="node">
<title>Node1</title>
<g id="a_Node000001"><a xlink:title=" ">
<polygon fill="#999999" stroke="#666666" points="1594,-184 1535,-184 1535,-165 1594,-165 1594,-184"/>
<text text-anchor="middle" x="1564.5" y="-172" font-family="Helvetica,sans-Serif" font-size="10.00">Device.h</text>
</a>
</g>
</g>
<!-- Node2 -->
<g id="Node000002" class="node">
<title>Node2</title>
<g id="a_Node000002"><a xlink:href="Sensor_8h.html" target="_top" xlink:title=" ">
<polygon fill="white" stroke="#666666" points="1065.5,-129 1007.5,-129 1007.5,-110 1065.5,-110 1065.5,-129"/>
<text text-anchor="middle" x="1036.5" y="-117" font-family="Helvetica,sans-Serif" font-size="10.00">Sensor.h</text>
</a>
</g>
</g>
<!-- Node1&#45;&gt;Node2 -->
<g id="edge1_Node000001_Node000002" class="edge">
<title>Node1&#45;&gt;Node2</title>
<g id="a_edge1_Node000001_Node000002"><a xlink:title=" ">
<path fill="none" stroke="#63b8ff" d="M1524.83,-169.52C1423.15,-159.31 1154.99,-132.39 1065.81,-123.44"/>
<polygon fill="#63b8ff" stroke="#63b8ff" points="1524.68,-173.02 1534.98,-170.54 1525.38,-166.06 1524.68,-173.02"/>
</a>
</g>
</g>
<!-- Node34 -->
<g id="Node000034" class="node">
<title>Node34</title>
<g id="a_Node000034"><a xlink:href="Storage_8h.html" target="_top" xlink:title=" ">
<polygon fill="white" stroke="#666666" points="2125,-129 2062,-129 2062,-110 2125,-110 2125,-129"/>
<text text-anchor="middle" x="2093.5" y="-117" font-family="Helvetica,sans-Serif" font-size="10.00">Storage.h</text>
</a>
</g>
</g>
<!-- Node1&#45;&gt;Node34 -->
<g id="edge43_Node000001_Node000034" class="edge">
<title>Node1&#45;&gt;Node34</title>
<g id="a_edge43_Node000001_Node000034"><a xlink:title=" ">
<path fill="none" stroke="#63b8ff" d="M1604.16,-169.53C1705.1,-159.41 1970.2,-132.85 2061.82,-123.67"/>
<polygon fill="#63b8ff" stroke="#63b8ff" points="1603.68,-166.06 1594.07,-170.54 1604.37,-173.02 1603.68,-166.06"/>
</a>
</g>
</g>
<!-- Node3 -->
<g id="Node000003" class="node">
<title>Node3</title>
<g id="a_Node000003"><a xlink:href="AS7331Sensor_8h.html" target="_top" xlink:title=" ">
<polygon fill="white" stroke="#666666" points="1412,-74 1317,-74 1317,-55 1412,-55 1412,-74"/>
<text text-anchor="middle" x="1364.5" y="-62" font-family="Helvetica,sans-Serif" font-size="10.00">AS7331Sensor.h</text>
</a>
</g>
</g>
<!-- Node2&#45;&gt;Node3 -->
<g id="edge2_Node000002_Node000003" class="edge">
<title>Node2&#45;&gt;Node3</title>
<g id="a_edge2_Node000002_Node000003"><a xlink:title=" ">
<path fill="none" stroke="#63b8ff" d="M1075.5,-112.2C1135.86,-102.45 1251.7,-83.73 1316.9,-73.19"/>
<polygon fill="#63b8ff" stroke="#63b8ff" points="1074.92,-108.75 1065.61,-113.8 1076.04,-115.66 1074.92,-108.75"/>
</a>
</g>
</g>
<!-- Node5 -->
<g id="Node000005" class="node">
<title>Node5</title>
<g id="a_Node000005"><a xlink:href="main_8cpp.html" target="_top" xlink:title="Main functions for Core 0, responsible for reading data from sensor peripherals.">
<polygon fill="white" stroke="#666666" points="967.5,-19 905.5,-19 905.5,0 967.5,0 967.5,-19"/>
<text text-anchor="middle" x="936.5" y="-7" font-family="Helvetica,sans-Serif" font-size="10.00">main.cpp</text>
</a>
</g>
</g>
<!-- Node2&#45;&gt;Node5 -->
<g id="edge42_Node000002_Node000005" class="edge">
<title>Node2&#45;&gt;Node5</title>
<g id="a_edge42_Node000002_Node000005"><a xlink:title=" ">
<path fill="none" stroke="#63b8ff" d="M1016.36,-103.44C1006.02,-95.26 993.53,-84.67 983.5,-74 966.59,-56.02 950.22,-31.93 942,-19.21"/>
<polygon fill="#63b8ff" stroke="#63b8ff" points="1014.38,-106.33 1024.43,-109.68 1018.67,-100.8 1014.38,-106.33"/>
</a>
</g>
</g>
<!-- Node6 -->
<g id="Node000006" class="node">
<title>Node6</title>
<g id="a_Node000006"><a xlink:href="BME280Sensor_8h.html" target="_top" xlink:title=" ">
<polygon fill="white" stroke="#666666" points="1813.5,-74 1715.5,-74 1715.5,-55 1813.5,-55 1813.5,-74"/>
<text text-anchor="middle" x="1764.5" y="-62" font-family="Helvetica,sans-Serif" font-size="10.00">BME280Sensor.h</text>
</a>
</g>
</g>
<!-- Node2&#45;&gt;Node6 -->
<g id="edge5_Node000002_Node000006" class="edge">
<title>Node2&#45;&gt;Node6</title>
<g id="a_edge5_Node000002_Node000006"><a xlink:title=" ">
<path fill="none" stroke="#63b8ff" d="M1075.96,-116.07C1175.98,-109.82 1447.49,-92.45 1673.5,-74 1687.1,-72.89 1701.83,-71.57 1715.4,-70.3"/>
<polygon fill="#63b8ff" stroke="#63b8ff" points="1075.49,-112.59 1065.72,-116.7 1075.92,-119.57 1075.49,-112.59"/>
</a>
</g>
</g>
<!-- Node8 -->
<g id="Node000008" class="node">
<title>Node8</title>
<g id="a_Node000008"><a xlink:href="BME680Sensor_8h.html" target="_top" xlink:title=" ">
<polygon fill="white" stroke="#666666" points="1938.5,-74 1840.5,-74 1840.5,-55 1938.5,-55 1938.5,-74"/>
<text text-anchor="middle" x="1889.5" y="-62" font-family="Helvetica,sans-Serif" font-size="10.00">BME680Sensor.h</text>
</a>
</g>
</g>
<!-- Node2&#45;&gt;Node8 -->
<g id="edge7_Node000002_Node000008" class="edge">
<title>Node2&#45;&gt;Node8</title>
<g id="a_edge7_Node000002_Node000008"><a xlink:title=" ">
<path fill="none" stroke="#63b8ff" d="M1075.92,-117.24C1191.05,-113.35 1536.75,-100.18 1822.5,-74 1828.22,-73.48 1834.21,-72.84 1840.15,-72.16"/>
<polygon fill="#63b8ff" stroke="#63b8ff" points="1075.69,-113.75 1065.82,-117.58 1075.93,-120.74 1075.69,-113.75"/>
</a>
</g>
</g>
<!-- Node10 -->
<g id="Node000010" class="node">
<title>Node10</title>
<g id="a_Node000010"><a xlink:href="BMP390Sensor_8h.html" target="_top" xlink:title=" ">
<polygon fill="white" stroke="#666666" points="1528.5,-74 1430.5,-74 1430.5,-55 1528.5,-55 1528.5,-74"/>
<text text-anchor="middle" x="1479.5" y="-62" font-family="Helvetica,sans-Serif" font-size="10.00">BMP390Sensor.h</text>
</a>
</g>
</g>
<!-- Node2&#45;&gt;Node10 -->
<g id="edge9_Node000002_Node000010" class="edge">
<title>Node2&#45;&gt;Node10</title>
<g id="a_edge9_Node000002_Node000010"><a xlink:title=" ">
<path fill="none" stroke="#63b8ff" d="M1075.59,-114.38C1145.2,-106.95 1295.22,-90.55 1421.5,-74 1424.43,-73.62 1427.43,-73.21 1430.47,-72.79"/>
<polygon fill="#63b8ff" stroke="#63b8ff" points="1075.09,-110.91 1065.52,-115.45 1075.83,-117.87 1075.09,-110.91"/>
</a>
</g>
</g>
<!-- Node12 -->
<g id="Node000012" class="node">
<title>Node12</title>
<g id="a_Node000012"><a xlink:href="DS3231Sensor_8h.html" target="_top" xlink:title=" ">
<polygon fill="white" stroke="#666666" points="131,-74 36,-74 36,-55 131,-55 131,-74"/>
<text text-anchor="middle" x="83.5" y="-62" font-family="Helvetica,sans-Serif" font-size="10.00">DS3231Sensor.h</text>
</a>
</g>
</g>
<!-- Node2&#45;&gt;Node12 -->
<g id="edge12_Node000002_Node000012" class="edge">
<title>Node2&#45;&gt;Node12</title>
<g id="a_edge12_Node000002_Node000012"><a xlink:title=" ">
<path fill="none" stroke="#63b8ff" d="M997.09,-116.67C877.33,-111.06 507.11,-93.3 200.5,-74 177.63,-72.56 152.27,-70.75 131.02,-69.16"/>
<polygon fill="#63b8ff" stroke="#63b8ff" points="997.09,-120.18 1007.24,-117.15 997.42,-113.18 997.09,-120.18"/>
</a>
</g>
</g>
<!-- Node14 -->
<g id="Node000014" class="node">
<title>Node14</title>
<g id="a_Node000014"><a xlink:href="ENS160Sensor_8h.html" target="_top" xlink:title=" ">
<polygon fill="white" stroke="#666666" points="457,-74 362,-74 362,-55 457,-55 457,-74"/>
<text text-anchor="middle" x="409.5" y="-62" font-family="Helvetica,sans-Serif" font-size="10.00">ENS160Sensor.h</text>
</a>
</g>
</g>
<!-- Node2&#45;&gt;Node14 -->
<g id="edge14_Node000002_Node000014" class="edge">
<title>Node2&#45;&gt;Node14</title>
<g id="a_edge14_Node000002_Node000014"><a xlink:title=" ">
<path fill="none" stroke="#63b8ff" d="M997.33,-116.39C904.79,-111.2 665.46,-96.57 466.5,-74 463.42,-73.65 460.25,-73.26 457.05,-72.85"/>
<polygon fill="#63b8ff" stroke="#63b8ff" points="997.19,-119.89 1007.36,-116.95 997.57,-112.9 997.19,-119.89"/>
</a>
</g>
</g>
<!-- Node16 -->
<g id="Node000016" class="node">
<title>Node16</title>
<g id="a_Node000016"><a xlink:href="ICM20948Sensor_8h.html" target="_top" xlink:title=" ">
<polygon fill="white" stroke="#666666" points="582,-74 475,-74 475,-55 582,-55 582,-74"/>
<text text-anchor="middle" x="528.5" y="-62" font-family="Helvetica,sans-Serif" font-size="10.00">ICM20948Sensor.h</text>
</a>
</g>
</g>
<!-- Node2&#45;&gt;Node16 -->
<g id="edge17_Node000002_Node000016" class="edge">
<title>Node2&#45;&gt;Node16</title>
<g id="a_edge17_Node000002_Node000016"><a xlink:title=" ">
<path fill="none" stroke="#63b8ff" d="M997.02,-115.01C919.3,-108.04 741.01,-91.56 591.5,-74 588.43,-73.64 585.28,-73.26 582.1,-72.86"/>
<polygon fill="#63b8ff" stroke="#63b8ff" points="997.03,-118.53 1007.31,-115.93 997.66,-111.56 997.03,-118.53"/>
</a>
</g>
</g>
<!-- Node18 -->
<g id="Node000018" class="node">
<title>Node18</title>
<g id="a_Node000018"><a xlink:href="INA260Sensor_8h.html" target="_top" xlink:title=" ">
<polygon fill="white" stroke="#666666" points="693,-74 600,-74 600,-55 693,-55 693,-74"/>
<text text-anchor="middle" x="646.5" y="-62" font-family="Helvetica,sans-Serif" font-size="10.00">INA260Sensor.h</text>
</a>
</g>
</g>
<!-- Node2&#45;&gt;Node18 -->
<g id="edge20_Node000002_Node000018" class="edge">
<title>Node2&#45;&gt;Node18</title>
<g id="a_edge20_Node000002_Node000018"><a xlink:title=" ">
<path fill="none" stroke="#63b8ff" d="M997.25,-113.51C934.8,-105.51 808.98,-89.17 702.5,-74 699.48,-73.57 696.37,-73.12 693.24,-72.66"/>
<polygon fill="#63b8ff" stroke="#63b8ff" points="997.07,-117.01 1007.44,-114.81 997.96,-110.07 997.07,-117.01"/>
</a>
</g>
</g>
<!-- Node20 -->
<g id="Node000020" class="node">
<title>Node20</title>
<g id="a_Node000020"><a xlink:href="LSM9DS1Sensor_8h.html" target="_top" xlink:title=" ">
<polygon fill="white" stroke="#666666" points="313.5,-74 209.5,-74 209.5,-55 313.5,-55 313.5,-74"/>
<text text-anchor="middle" x="261.5" y="-62" font-family="Helvetica,sans-Serif" font-size="10.00">LSM9DS1Sensor.h</text>
</a>
</g>
</g>
<!-- Node2&#45;&gt;Node20 -->
<g id="edge23_Node000002_Node000020" class="edge">
<title>Node2&#45;&gt;Node20</title>
<g id="a_edge23_Node000002_Node000020"><a xlink:title=" ">
<path fill="none" stroke="#63b8ff" d="M997.07,-116.31C892.25,-110.39 598.02,-93.26 353.5,-74 340.55,-72.98 326.58,-71.75 313.54,-70.56"/>
<polygon fill="#63b8ff" stroke="#63b8ff" points="997.01,-119.81 1007.19,-116.87 997.4,-112.82 997.01,-119.81"/>
</a>
</g>
</g>
<!-- Node22 -->
<g id="Node000022" class="node">
<title>Node22</title>
<g id="a_Node000022"><a xlink:href="MTK3339Sensor_8h.html" target="_top" xlink:title=" ">
<polygon fill="white" stroke="#666666" points="815.5,-74 711.5,-74 711.5,-55 815.5,-55 815.5,-74"/>
<text text-anchor="middle" x="763.5" y="-62" font-family="Helvetica,sans-Serif" font-size="10.00">MTK3339Sensor.h</text>
</a>
</g>
</g>
<!-- Node2&#45;&gt;Node22 -->
<g id="edge25_Node000002_Node000022" class="edge">
<title>Node2&#45;&gt;Node22</title>
<g id="a_edge25_Node000002_Node000022"><a xlink:title=" ">
<path fill="none" stroke="#63b8ff" d="M997.43,-110.91C947.09,-101.14 859.83,-84.2 807.3,-74"/>
<polygon fill="#63b8ff" stroke="#63b8ff" points="996.8,-114.36 1007.28,-112.83 998.13,-107.49 996.8,-114.36"/>
</a>
</g>
</g>
<!-- Node24 -->
<g id="Node000024" class="node">
<title>Node24</title>
<g id="a_Node000024"><a xlink:href="PCF8523Sensor_8h.html" target="_top" xlink:title=" ">
<polygon fill="white" stroke="#666666" points="935,-74 834,-74 834,-55 935,-55 935,-74"/>
<text text-anchor="middle" x="884.5" y="-62" font-family="Helvetica,sans-Serif" font-size="10.00">PCF8523Sensor.h</text>
</a>
</g>
</g>
<!-- Node2&#45;&gt;Node24 -->
<g id="edge28_Node000002_Node000024" class="edge">
<title>Node2&#45;&gt;Node24</title>
<g id="a_edge28_Node000002_Node000024"><a xlink:title=" ">
<path fill="none" stroke="#63b8ff" d="M1002.57,-106.67C974.23,-96.79 934.48,-82.93 909.11,-74.08"/>
<polygon fill="#63b8ff" stroke="#63b8ff" points="1001.48,-110 1012.08,-109.98 1003.79,-103.39 1001.48,-110"/>
</a>
</g>
</g>
<!-- Node26 -->
<g id="Node000026" class="node">
<title>Node26</title>
<g id="a_Node000026"><a xlink:href="SGP30Sensor_8h.html" target="_top" xlink:title=" ">
<polygon fill="white" stroke="#666666" points="1664,-74 1575,-74 1575,-55 1664,-55 1664,-74"/>
<text text-anchor="middle" x="1619.5" y="-62" font-family="Helvetica,sans-Serif" font-size="10.00">SGP30Sensor.h</text>
</a>
</g>
</g>
<!-- Node2&#45;&gt;Node26 -->
<g id="edge31_Node000002_Node000026" class="edge">
<title>Node2&#45;&gt;Node26</title>
<g id="a_edge31_Node000002_Node000026"><a xlink:title=" ">
<path fill="none" stroke="#63b8ff" d="M1075.76,-115.21C1160.25,-108.09 1365.58,-90.54 1537.5,-74 1549.61,-72.83 1562.72,-71.51 1574.83,-70.25"/>
<polygon fill="#63b8ff" stroke="#63b8ff" points="1075.27,-111.74 1065.6,-116.07 1075.86,-118.71 1075.27,-111.74"/>
</a>
</g>
</g>
<!-- Node28 -->
<g id="Node000028" class="node">
<title>Node28</title>
<g id="a_Node000028"><a xlink:href="SHTC3Sensor_8h.html" target="_top" xlink:title=" ">
<polygon fill="white" stroke="#666666" points="1081,-74 992,-74 992,-55 1081,-55 1081,-74"/>
<text text-anchor="middle" x="1036.5" y="-62" font-family="Helvetica,sans-Serif" font-size="10.00">SHTC3Sensor.h</text>
</a>
</g>
</g>
<!-- Node2&#45;&gt;Node28 -->
<g id="edge33_Node000002_Node000028" class="edge">
<title>Node2&#45;&gt;Node28</title>
<g id="a_edge33_Node000002_Node000028"><a xlink:title=" ">
<path fill="none" stroke="#63b8ff" d="M1036.5,-99.66C1036.5,-90.93 1036.5,-80.99 1036.5,-74.09"/>
<polygon fill="#63b8ff" stroke="#63b8ff" points="1033,-99.75 1036.5,-109.75 1040,-99.75 1033,-99.75"/>
</a>
</g>
</g>
<!-- Node30 -->
<g id="Node000030" class="node">
<title>Node30</title>
<g id="a_Node000030"><a xlink:href="TMP117Sensor_8h.html" target="_top" xlink:title=" ">
<polygon fill="white" stroke="#666666" points="1196,-74 1099,-74 1099,-55 1196,-55 1196,-74"/>
<text text-anchor="middle" x="1147.5" y="-62" font-family="Helvetica,sans-Serif" font-size="10.00">TMP117Sensor.h</text>
</a>
</g>
</g>
<!-- Node2&#45;&gt;Node30 -->
<g id="edge36_Node000002_Node000030" class="edge">
<title>Node2&#45;&gt;Node30</title>
<g id="a_edge36_Node000002_Node000030"><a xlink:title=" ">
<path fill="none" stroke="#63b8ff" d="M1063.45,-105.63C1083.89,-95.87 1111.45,-82.71 1129.34,-74.17"/>
<polygon fill="#63b8ff" stroke="#63b8ff" points="1061.85,-102.52 1054.33,-109.98 1064.87,-108.83 1061.85,-102.52"/>
</a>
</g>
</g>
<!-- Node32 -->
<g id="Node000032" class="node">
<title>Node32</title>
<g id="a_Node000032"><a xlink:href="TempSensor_8h.html" target="_top" xlink:title=" ">
<polygon fill="white" stroke="#666666" points="1298.5,-74 1214.5,-74 1214.5,-55 1298.5,-55 1298.5,-74"/>
<text text-anchor="middle" x="1256.5" y="-62" font-family="Helvetica,sans-Serif" font-size="10.00">TempSensor.h</text>
</a>
</g>
</g>
<!-- Node2&#45;&gt;Node32 -->
<g id="edge39_Node000002_Node000032" class="edge">
<title>Node2&#45;&gt;Node32</title>
<g id="a_edge39_Node000002_Node000032"><a xlink:title=" ">
<path fill="none" stroke="#63b8ff" d="M1075.67,-109.06C1116.88,-99.14 1181.18,-83.65 1220.97,-74.06"/>
<polygon fill="#63b8ff" stroke="#63b8ff" points="1074.62,-105.72 1065.71,-111.46 1076.26,-112.52 1074.62,-105.72"/>
</a>
</g>
</g>
<!-- Node4 -->
<g id="Node000004" class="node">
<title>Node4</title>
<g id="a_Node000004"><a xlink:href="AS7331Sensor_8cpp.html" target="_top" xlink:title=" ">
<polygon fill="white" stroke="#666666" points="1451.5,-19 1345.5,-19 1345.5,0 1451.5,0 1451.5,-19"/>
<text text-anchor="middle" x="1398.5" y="-7" font-family="Helvetica,sans-Serif" font-size="10.00">AS7331Sensor.cpp</text>
</a>
</g>
</g>
<!-- Node3&#45;&gt;Node4 -->
<g id="edge3_Node000003_Node000004" class="edge">
<title>Node3&#45;&gt;Node4</title>
<g id="a_edge3_Node000003_Node000004"><a xlink:title=" ">
<path fill="none" stroke="#63b8ff" d="M1375.66,-46.1C1381.47,-37.04 1388.32,-26.37 1392.99,-19.09"/>
<polygon fill="#63b8ff" stroke="#63b8ff" points="1372.57,-44.44 1370.11,-54.75 1378.46,-48.22 1372.57,-44.44"/>
</a>
</g>
</g>
<!-- Node3&#45;&gt;Node5 -->
<g id="edge4_Node000003_Node000005" class="edge">
<title>Node3&#45;&gt;Node5</title>
<g id="a_edge4_Node000003_Node000005"><a xlink:title=" ">
<path fill="none" stroke="#63b8ff" d="M1306.61,-54.94C1159.42,-36.37 1119.96,-41.48 977.5,-19 974.34,-18.5 971.06,-17.92 967.78,-17.31"/>
<polygon fill="#63b8ff" stroke="#63b8ff" points="1306.57,-58.47 1316.93,-56.26 1307.46,-51.52 1306.57,-58.47"/>
</a>
</g>
</g>
<!-- Node7 -->
<g id="Node000007" class="node">
<title>Node7</title>
<g id="a_Node000007"><a xlink:href="BME280Sensor_8cpp.html" target="_top" xlink:title=" ">
<polygon fill="white" stroke="#666666" points="1825,-19 1716,-19 1716,0 1825,0 1825,-19"/>
<text text-anchor="middle" x="1770.5" y="-7" font-family="Helvetica,sans-Serif" font-size="10.00">BME280Sensor.cpp</text>
</a>
</g>
</g>
<!-- Node6&#45;&gt;Node7 -->
<g id="edge6_Node000006_Node000007" class="edge">
<title>Node6&#45;&gt;Node7</title>
<g id="a_edge6_Node000006_Node000007"><a xlink:title=" ">
<path fill="none" stroke="#63b8ff" d="M1766.63,-44.66C1767.62,-35.93 1768.75,-25.99 1769.53,-19.09"/>
<polygon fill="#63b8ff" stroke="#63b8ff" points="1763.14,-44.42 1765.49,-54.75 1770.09,-45.21 1763.14,-44.42"/>
</a>
</g>
</g>
<!-- Node9 -->
<g id="Node000009" class="node">
<title>Node9</title>
<g id="a_Node000009"><a xlink:href="BME680Sensor_8cpp.html" target="_top" xlink:title=" ">
<polygon fill="white" stroke="#666666" points="1952,-19 1843,-19 1843,0 1952,0 1952,-19"/>
<text text-anchor="middle" x="1897.5" y="-7" font-family="Helvetica,sans-Serif" font-size="10.00">BME680Sensor.cpp</text>
</a>
</g>
</g>
<!-- Node8&#45;&gt;Node9 -->
<g id="edge8_Node000008_Node000009" class="edge">
<title>Node8&#45;&gt;Node9</title>
<g id="a_edge8_Node000008_Node000009"><a xlink:title=" ">
<path fill="none" stroke="#63b8ff" d="M1892.34,-44.66C1893.66,-35.93 1895.16,-25.99 1896.2,-19.09"/>
<polygon fill="#63b8ff" stroke="#63b8ff" points="1888.85,-44.34 1890.82,-54.75 1895.77,-45.38 1888.85,-44.34"/>
</a>
</g>
</g>
<!-- Node10&#45;&gt;Node5 -->
<g id="edge11_Node000010_Node000005" class="edge">
<title>Node10&#45;&gt;Node5</title>
<g id="a_edge11_Node000010_Node000005"><a xlink:title=" ">
<path fill="none" stroke="#63b8ff" d="M1420.36,-54.95C1223.04,-33.1 1170.22,-46.68 977.5,-19 974.33,-18.55 971.05,-18 967.77,-17.4"/>
<polygon fill="#63b8ff" stroke="#63b8ff" points="1420.15,-58.45 1430.48,-56.09 1420.93,-51.49 1420.15,-58.45"/>
</a>
</g>
</g>
<!-- Node11 -->
<g id="Node000011" class="node">
<title>Node11</title>
<g id="a_Node000011"><a xlink:href="BMP390Sensor_8cpp.html" target="_top" xlink:title=" ">
<polygon fill="white" stroke="#666666" points="1579,-19 1470,-19 1470,0 1579,0 1579,-19"/>
<text text-anchor="middle" x="1524.5" y="-7" font-family="Helvetica,sans-Serif" font-size="10.00">BMP390Sensor.cpp</text>
</a>
</g>
</g>
<!-- Node10&#45;&gt;Node11 -->
<g id="edge10_Node000010_Node000011" class="edge">
<title>Node10&#45;&gt;Node11</title>
<g id="a_edge10_Node000010_Node000011"><a xlink:title=" ">
<path fill="none" stroke="#63b8ff" d="M1493.55,-46.96C1501.39,-37.72 1510.83,-26.6 1517.21,-19.09"/>
<polygon fill="#63b8ff" stroke="#63b8ff" points="1490.74,-44.86 1486.93,-54.75 1496.07,-49.39 1490.74,-44.86"/>
</a>
</g>
</g>
<!-- Node13 -->
<g id="Node000013" class="node">
<title>Node13</title>
<g id="a_Node000013"><a xlink:href="DS3231Sensor_8cpp.html" target="_top" xlink:title=" ">
<polygon fill="white" stroke="#666666" points="107,-19 0,-19 0,0 107,0 107,-19"/>
<text text-anchor="middle" x="53.5" y="-7" font-family="Helvetica,sans-Serif" font-size="10.00">DS3231Sensor.cpp</text>
</a>
</g>
</g>
<!-- Node12&#45;&gt;Node13 -->
<g id="edge13_Node000012_Node000013" class="edge">
<title>Node12&#45;&gt;Node13</title>
<g id="a_edge13_Node000012_Node000013"><a xlink:title=" ">
<path fill="none" stroke="#63b8ff" d="M73.49,-45.82C68.4,-36.82 62.44,-26.29 58.36,-19.09"/>
<polygon fill="#63b8ff" stroke="#63b8ff" points="70.57,-47.77 78.55,-54.75 76.67,-44.32 70.57,-47.77"/>
</a>
</g>
</g>
<!-- Node14&#45;&gt;Node5 -->
<g id="edge16_Node000014_Node000005" class="edge">
<title>Node14&#45;&gt;Node5</title>
<g id="a_edge16_Node000014_Node000005"><a xlink:title=" ">
<path fill="none" stroke="#63b8ff" d="M467.18,-55.01C658.74,-33.32 710.02,-46.51 896.5,-19 899.31,-18.59 902.22,-18.09 905.12,-17.56"/>
<polygon fill="#63b8ff" stroke="#63b8ff" points="466.59,-51.55 457.06,-56.17 467.39,-58.51 466.59,-51.55"/>
</a>
</g>
</g>
<!-- Node15 -->
<g id="Node000015" class="node">
<title>Node15</title>
<g id="a_Node000015"><a xlink:href="ENS160Sensor_8cpp.html" target="_top" xlink:title=" ">
<polygon fill="white" stroke="#666666" points="365,-19 258,-19 258,0 365,0 365,-19"/>
<text text-anchor="middle" x="311.5" y="-7" font-family="Helvetica,sans-Serif" font-size="10.00">ENS160Sensor.cpp</text>
</a>
</g>
</g>
<!-- Node14&#45;&gt;Node15 -->
<g id="edge15_Node000014_Node000015" class="edge">
<title>Node14&#45;&gt;Node15</title>
<g id="a_edge15_Node000014_Node000015"><a xlink:title=" ">
<path fill="none" stroke="#63b8ff" d="M384.47,-49.97C366.56,-40.28 342.97,-27.52 327.53,-19.17"/>
<polygon fill="#63b8ff" stroke="#63b8ff" points="383.29,-53.31 393.75,-54.98 386.62,-47.15 383.29,-53.31"/>
</a>
</g>
</g>
<!-- Node16&#45;&gt;Node5 -->
<g id="edge19_Node000016_Node000005" class="edge">
<title>Node16&#45;&gt;Node5</title>
<g id="a_edge19_Node000016_Node000005"><a xlink:title=" ">
<path fill="none" stroke="#63b8ff" d="M592.11,-54.95C728.61,-38.02 764.98,-40.69 896.5,-19 899.3,-18.54 902.2,-18.01 905.11,-17.46"/>
<polygon fill="#63b8ff" stroke="#63b8ff" points="591.6,-51.49 582.11,-56.21 592.47,-58.43 591.6,-51.49"/>
</a>
</g>
</g>
<!-- Node17 -->
<g id="Node000017" class="node">
<title>Node17</title>
<g id="a_Node000017"><a xlink:href="ICM20948Sensor_8cpp.html" target="_top" xlink:title=" ">
<polygon fill="white" stroke="#666666" points="501.5,-19 383.5,-19 383.5,0 501.5,0 501.5,-19"/>
<text text-anchor="middle" x="442.5" y="-7" font-family="Helvetica,sans-Serif" font-size="10.00">ICM20948Sensor.cpp</text>
</a>
</g>
</g>
<!-- Node16&#45;&gt;Node17 -->
<g id="edge18_Node000016_Node000017" class="edge">
<title>Node16&#45;&gt;Node17</title>
<g id="a_edge18_Node000016_Node000017"><a xlink:title=" ">
<path fill="none" stroke="#63b8ff" d="M506.1,-49.7C490.43,-40.04 469.99,-27.44 456.57,-19.17"/>
<polygon fill="#63b8ff" stroke="#63b8ff" points="504.33,-52.72 514.68,-54.98 508.01,-46.76 504.33,-52.72"/>
</a>
</g>
</g>
<!-- Node18&#45;&gt;Node5 -->
<g id="edge22_Node000018_Node000005" class="edge">
<title>Node18&#45;&gt;Node5</title>
<g id="a_edge22_Node000018_Node000005"><a xlink:title=" ">
<path fill="none" stroke="#63b8ff" d="M703.23,-53.95C753.97,-45.29 830.32,-31.92 896.5,-19 899.29,-18.46 902.18,-17.87 905.08,-17.28"/>
<polygon fill="#63b8ff" stroke="#63b8ff" points="702.39,-50.55 693.12,-55.68 703.57,-57.45 702.39,-50.55"/>
</a>
</g>
</g>
<!-- Node19 -->
<g id="Node000019" class="node">
<title>Node19</title>
<g id="a_Node000019"><a xlink:href="INA260Sensor_8cpp.html" target="_top" xlink:title=" ">
<polygon fill="white" stroke="#666666" points="623.5,-19 519.5,-19 519.5,0 623.5,0 623.5,-19"/>
<text text-anchor="middle" x="571.5" y="-7" font-family="Helvetica,sans-Serif" font-size="10.00">INA260Sensor.cpp</text>
</a>
</g>
</g>
<!-- Node18&#45;&gt;Node19 -->
<g id="edge21_Node000018_Node000019" class="edge">
<title>Node18&#45;&gt;Node19</title>
<g id="a_edge21_Node000018_Node000019"><a xlink:title=" ">
<path fill="none" stroke="#63b8ff" d="M626.19,-49.15C612.64,-39.57 595.26,-27.29 583.77,-19.17"/>
<polygon fill="#63b8ff" stroke="#63b8ff" points="624.26,-52.07 634.45,-54.98 628.3,-46.36 624.26,-52.07"/>
</a>
</g>
</g>
<!-- Node21 -->
<g id="Node000021" class="node">
<title>Node21</title>
<g id="a_Node000021"><a xlink:href="LSM9DS1Sensor_8cpp.html" target="_top" xlink:title=" ">
<polygon fill="white" stroke="#666666" points="240,-19 125,-19 125,0 240,0 240,-19"/>
<text text-anchor="middle" x="182.5" y="-7" font-family="Helvetica,sans-Serif" font-size="10.00">LSM9DS1Sensor.cpp</text>
</a>
</g>
</g>
<!-- Node20&#45;&gt;Node21 -->
<g id="edge24_Node000020_Node000021" class="edge">
<title>Node20&#45;&gt;Node21</title>
<g id="a_edge24_Node000020_Node000021"><a xlink:title=" ">
<path fill="none" stroke="#63b8ff" d="M240.11,-49.15C225.83,-39.57 207.53,-27.29 195.42,-19.17"/>
<polygon fill="#63b8ff" stroke="#63b8ff" points="238.55,-52.32 248.81,-54.98 242.45,-46.51 238.55,-52.32"/>
</a>
</g>
</g>
<!-- Node22&#45;&gt;Node5 -->
<g id="edge27_Node000022_Node000005" class="edge">
<title>Node22&#45;&gt;Node5</title>
<g id="a_edge27_Node000022_Node000005"><a xlink:title=" ">
<path fill="none" stroke="#63b8ff" d="M801.27,-51.93C833.59,-42.03 879.36,-28.01 908.49,-19.08"/>
<polygon fill="#63b8ff" stroke="#63b8ff" points="799.83,-48.71 791.3,-54.98 801.88,-55.4 799.83,-48.71"/>
</a>
</g>
</g>
<!-- Node23 -->
<g id="Node000023" class="node">
<title>Node23</title>
<g id="a_Node000023"><a xlink:href="MTK3339Sensor_8cpp.html" target="_top" xlink:title=" ">
<polygon fill="white" stroke="#666666" points="757,-19 642,-19 642,0 757,0 757,-19"/>
<text text-anchor="middle" x="699.5" y="-7" font-family="Helvetica,sans-Serif" font-size="10.00">MTK3339Sensor.cpp</text>
</a>
</g>
</g>
<!-- Node22&#45;&gt;Node23 -->
<g id="edge26_Node000022_Node000023" class="edge">
<title>Node22&#45;&gt;Node23</title>
<g id="a_edge26_Node000022_Node000023"><a xlink:title=" ">
<path fill="none" stroke="#63b8ff" d="M745.51,-48.6C734.04,-39.11 719.59,-27.13 709.97,-19.17"/>
<polygon fill="#63b8ff" stroke="#63b8ff" points="743.28,-51.3 753.22,-54.98 747.75,-45.91 743.28,-51.3"/>
</a>
</g>
</g>
<!-- Node24&#45;&gt;Node5 -->
<g id="edge30_Node000024_Node000005" class="edge">
<title>Node24&#45;&gt;Node5</title>
<g id="a_edge30_Node000024_Node000005"><a xlink:title=" ">
<path fill="none" stroke="#63b8ff" d="M900.18,-47.52C909.34,-38.18 920.55,-26.75 928.07,-19.09"/>
<polygon fill="#63b8ff" stroke="#63b8ff" points="897.59,-45.16 893.09,-54.75 902.59,-50.06 897.59,-45.16"/>
</a>
</g>
</g>
<!-- Node25 -->
<g id="Node000025" class="node">
<title>Node25</title>
<g id="a_Node000025"><a xlink:href="PCF8523Sensor_8cpp.html" target="_top" xlink:title=" ">
<polygon fill="white" stroke="#666666" points="887.5,-19 775.5,-19 775.5,0 887.5,0 887.5,-19"/>
<text text-anchor="middle" x="831.5" y="-7" font-family="Helvetica,sans-Serif" font-size="10.00">PCF8523Sensor.cpp</text>
</a>
</g>
</g>
<!-- Node24&#45;&gt;Node25 -->
<g id="edge29_Node000024_Node000025" class="edge">
<title>Node24&#45;&gt;Node25</title>
<g id="a_edge29_Node000024_Node000025"><a xlink:title=" ">
<path fill="none" stroke="#63b8ff" d="M868.52,-47.52C859.18,-38.18 847.75,-26.75 840.09,-19.09"/>
<polygon fill="#63b8ff" stroke="#63b8ff" points="866.2,-50.15 875.75,-54.75 871.15,-45.2 866.2,-50.15"/>
</a>
</g>
</g>
<!-- Node27 -->
<g id="Node000027" class="node">
<title>Node27</title>
<g id="a_Node000027"><a xlink:href="SGP30Sensor_8cpp.html" target="_top" xlink:title=" ">
<polygon fill="white" stroke="#666666" points="1698,-19 1597,-19 1597,0 1698,0 1698,-19"/>
<text text-anchor="middle" x="1647.5" y="-7" font-family="Helvetica,sans-Serif" font-size="10.00">SGP30Sensor.cpp</text>
</a>
</g>
</g>
<!-- Node26&#45;&gt;Node27 -->
<g id="edge32_Node000026_Node000027" class="edge">
<title>Node26&#45;&gt;Node27</title>
<g id="a_edge32_Node000026_Node000027"><a xlink:title=" ">
<path fill="none" stroke="#63b8ff" d="M1628.84,-45.82C1633.59,-36.82 1639.16,-26.29 1642.96,-19.09"/>
<polygon fill="#63b8ff" stroke="#63b8ff" points="1625.7,-44.27 1624.12,-54.75 1631.89,-47.54 1625.7,-44.27"/>
</a>
</g>
</g>
<!-- Node28&#45;&gt;Node5 -->
<g id="edge35_Node000028_Node000005" class="edge">
<title>Node28&#45;&gt;Node5</title>
<g id="a_edge35_Node000028_Node000005"><a xlink:title=" ">
<path fill="none" stroke="#63b8ff" d="M1011.47,-50.23C993.13,-40.51 968.76,-27.6 952.86,-19.17"/>
<polygon fill="#63b8ff" stroke="#63b8ff" points="1009.96,-53.39 1020.43,-54.98 1013.24,-47.21 1009.96,-53.39"/>
</a>
</g>
</g>
<!-- Node29 -->
<g id="Node000029" class="node">
<title>Node29</title>
<g id="a_Node000029"><a xlink:href="SHTC3Sensor_8cpp.html" target="_top" xlink:title=" ">
<polygon fill="white" stroke="#666666" points="1087,-19 986,-19 986,0 1087,0 1087,-19"/>
<text text-anchor="middle" x="1036.5" y="-7" font-family="Helvetica,sans-Serif" font-size="10.00">SHTC3Sensor.cpp</text>
</a>
</g>
</g>
<!-- Node28&#45;&gt;Node29 -->
<g id="edge34_Node000028_Node000029" class="edge">
<title>Node28&#45;&gt;Node29</title>
<g id="a_edge34_Node000028_Node000029"><a xlink:title=" ">
<path fill="none" stroke="#63b8ff" d="M1036.5,-44.66C1036.5,-35.93 1036.5,-25.99 1036.5,-19.09"/>
<polygon fill="#63b8ff" stroke="#63b8ff" points="1033,-44.75 1036.5,-54.75 1040,-44.75 1033,-44.75"/>
</a>
</g>
</g>
<!-- Node30&#45;&gt;Node5 -->
<g id="edge38_Node000030_Node000005" class="edge">
<title>Node30&#45;&gt;Node5</title>
<g id="a_edge38_Node000030_Node000005"><a xlink:title=" ">
<path fill="none" stroke="#63b8ff" d="M1103.69,-52.5C1063.04,-42.28 1003.54,-27.34 967.57,-18.3"/>
<polygon fill="#63b8ff" stroke="#63b8ff" points="1103.05,-55.94 1113.6,-54.98 1104.75,-49.15 1103.05,-55.94"/>
</a>
</g>
</g>
<!-- Node31 -->
<g id="Node000031" class="node">
<title>Node31</title>
<g id="a_Node000031"><a xlink:href="TMP117Sensor_8cpp.html" target="_top" xlink:title=" ">
<polygon fill="white" stroke="#666666" points="1213.5,-19 1105.5,-19 1105.5,0 1213.5,0 1213.5,-19"/>
<text text-anchor="middle" x="1159.5" y="-7" font-family="Helvetica,sans-Serif" font-size="10.00">TMP117Sensor.cpp</text>
</a>
</g>
</g>
<!-- Node30&#45;&gt;Node31 -->
<g id="edge37_Node000030_Node000031" class="edge">
<title>Node30&#45;&gt;Node31</title>
<g id="a_edge37_Node000030_Node000031"><a xlink:title=" ">
<path fill="none" stroke="#63b8ff" d="M1151.7,-44.95C1153.69,-36.15 1155.98,-26.06 1157.56,-19.09"/>
<polygon fill="#63b8ff" stroke="#63b8ff" points="1148.28,-44.22 1149.48,-54.75 1155.1,-45.77 1148.28,-44.22"/>
</a>
</g>
</g>
<!-- Node32&#45;&gt;Node5 -->
<g id="edge41_Node000032_Node000005" class="edge">
<title>Node32&#45;&gt;Node5</title>
<g id="a_edge41_Node000032_Node000005"><a xlink:title=" ">
<path fill="none" stroke="#63b8ff" d="M1204.39,-54.84C1102.55,-38.48 1075.27,-36.84 977.5,-19 974.35,-18.43 971.08,-17.8 967.81,-17.15"/>
<polygon fill="#63b8ff" stroke="#63b8ff" points="1204.05,-58.33 1214.48,-56.47 1205.17,-51.42 1204.05,-58.33"/>
</a>
</g>
</g>
<!-- Node33 -->
<g id="Node000033" class="node">
<title>Node33</title>
<g id="a_Node000033"><a xlink:href="TempSensor_8cpp.html" target="_top" xlink:title=" ">
<polygon fill="white" stroke="#666666" points="1327,-19 1232,-19 1232,0 1327,0 1327,-19"/>
<text text-anchor="middle" x="1279.5" y="-7" font-family="Helvetica,sans-Serif" font-size="10.00">TempSensor.cpp</text>
</a>
</g>
</g>
<!-- Node32&#45;&gt;Node33 -->
<g id="edge40_Node000032_Node000033" class="edge">
<title>Node32&#45;&gt;Node33</title>
<g id="a_edge40_Node000032_Node000033"><a xlink:title=" ">
<path fill="none" stroke="#63b8ff" d="M1264.3,-45.53C1268.18,-36.6 1272.68,-26.22 1275.77,-19.09"/>
<polygon fill="#63b8ff" stroke="#63b8ff" points="1261.07,-44.18 1260.3,-54.75 1267.49,-46.97 1261.07,-44.18"/>
</a>
</g>
</g>
<!-- Node35 -->
<g id="Node000035" class="node">
<title>Node35</title>
<g id="a_Node000035"><a xlink:href="FlashStorage_8h.html" target="_top" xlink:title=" ">
<polygon fill="white" stroke="#666666" points="2065,-74 1976,-74 1976,-55 2065,-55 2065,-74"/>
<text text-anchor="middle" x="2020.5" y="-62" font-family="Helvetica,sans-Serif" font-size="10.00">FlashStorage.h</text>
</a>
</g>
</g>
<!-- Node34&#45;&gt;Node35 -->
<g id="edge44_Node000034_Node000035" class="edge">
<title>Node34&#45;&gt;Node35</title>
<g id="a_edge44_Node000034_Node000035"><a xlink:title=" ">
<path fill="none" stroke="#63b8ff" d="M2073.36,-103.88C2060.22,-94.34 2043.52,-82.21 2032.44,-74.17"/>
<polygon fill="#63b8ff" stroke="#63b8ff" points="2071.62,-106.94 2081.77,-109.98 2075.74,-101.28 2071.62,-106.94"/>
</a>
</g>
</g>
<!-- Node37 -->
<g id="Node000037" class="node">
<title>Node37</title>
<g id="a_Node000037"><a xlink:href="main1_8cpp.html" target="_top" xlink:title="Main functions for Core 1, responsible for sending data to storage peripherals.">
<polygon fill="white" stroke="#666666" points="2157.5,-19 2089.5,-19 2089.5,0 2157.5,0 2157.5,-19"/>
<text text-anchor="middle" x="2123.5" y="-7" font-family="Helvetica,sans-Serif" font-size="10.00">main1.cpp</text>
</a>
</g>
</g>
<!-- Node34&#45;&gt;Node37 -->
<g id="edge54_Node000034_Node000037" class="edge">
<title>Node34&#45;&gt;Node37</title>
<g id="a_edge54_Node000034_Node000037"><a xlink:title=" ">
<path fill="none" stroke="#63b8ff" d="M2098.69,-99.8C2105.25,-76.2 2116.26,-36.58 2121.09,-19.16"/>
<polygon fill="#63b8ff" stroke="#63b8ff" points="2095.26,-99.09 2095.96,-109.66 2102,-100.96 2095.26,-99.09"/>
</a>
</g>
</g>
<!-- Node38 -->
<g id="Node000038" class="node">
<title>Node38</title>
<g id="a_Node000038"><a xlink:href="RadioStorage_8h.html" target="_top" xlink:title=" ">
<polygon fill="white" stroke="#666666" points="2213,-74 2122,-74 2122,-55 2213,-55 2213,-74"/>
<text text-anchor="middle" x="2167.5" y="-62" font-family="Helvetica,sans-Serif" font-size="10.00">RadioStorage.h</text>
</a>
</g>
</g>
<!-- Node34&#45;&gt;Node38 -->
<g id="edge48_Node000034_Node000038" class="edge">
<title>Node34&#45;&gt;Node38</title>
<g id="a_edge48_Node000034_Node000038"><a xlink:title=" ">
<path fill="none" stroke="#63b8ff" d="M2113.53,-104.15C2126.91,-94.57 2144.06,-82.29 2155.39,-74.17"/>
<polygon fill="#63b8ff" stroke="#63b8ff" points="2111.48,-101.32 2105.39,-109.98 2115.56,-107.01 2111.48,-101.32"/>
</a>
</g>
</g>
<!-- Node40 -->
<g id="Node000040" class="node">
<title>Node40</title>
<g id="a_Node000040"><a xlink:href="SDStorage_8h.html" target="_top" xlink:title=" ">
<polygon fill="white" stroke="#666666" points="2308,-74 2231,-74 2231,-55 2308,-55 2308,-74"/>
<text text-anchor="middle" x="2269.5" y="-62" font-family="Helvetica,sans-Serif" font-size="10.00">SDStorage.h</text>
</a>
</g>
</g>
<!-- Node34&#45;&gt;Node40 -->
<g id="edge51_Node000034_Node000040" class="edge">
<title>Node34&#45;&gt;Node40</title>
<g id="a_edge51_Node000034_Node000040"><a xlink:title=" ">
<path fill="none" stroke="#63b8ff" d="M2131.5,-107.06C2164.4,-97.15 2211.24,-83.04 2241,-74.08"/>
<polygon fill="#63b8ff" stroke="#63b8ff" points="2130.34,-103.75 2121.78,-109.98 2132.36,-110.45 2130.34,-103.75"/>
</a>
</g>
</g>
<!-- Node35&#45;&gt;Node5 -->
<g id="edge46_Node000035_Node000005" class="edge">
<title>Node35&#45;&gt;Node5</title>
<g id="a_edge46_Node000035_Node000005"><a xlink:title=" ">
<path fill="none" stroke="#63b8ff" d="M1965.59,-56.64C1959.49,-56.01 1953.37,-55.45 1947.5,-55 1517.35,-22.03 1405.77,-70.97 977.5,-19 974.32,-18.61 971.03,-18.11 967.75,-17.54"/>
<polygon fill="#63b8ff" stroke="#63b8ff" points="1965.45,-60.14 1975.77,-57.73 1966.2,-53.18 1965.45,-60.14"/>
</a>
</g>
</g>
<!-- Node36 -->
<g id="Node000036" class="node">
<title>Node36</title>
<g id="a_Node000036"><a xlink:href="FlashStorage_8cpp.html" target="_top" xlink:title=" ">
<polygon fill="white" stroke="#666666" points="2071,-19 1970,-19 1970,0 2071,0 2071,-19"/>
<text text-anchor="middle" x="2020.5" y="-7" font-family="Helvetica,sans-Serif" font-size="10.00">FlashStorage.cpp</text>
</a>
</g>
</g>
<!-- Node35&#45;&gt;Node36 -->
<g id="edge45_Node000035_Node000036" class="edge">
<title>Node35&#45;&gt;Node36</title>
<g id="a_edge45_Node000035_Node000036"><a xlink:title=" ">
<path fill="none" stroke="#63b8ff" d="M2020.5,-44.66C2020.5,-35.93 2020.5,-25.99 2020.5,-19.09"/>
<polygon fill="#63b8ff" stroke="#63b8ff" points="2017,-44.75 2020.5,-54.75 2024,-44.75 2017,-44.75"/>
</a>
</g>
</g>
<!-- Node35&#45;&gt;Node37 -->
<g id="edge47_Node000035_Node000037" class="edge">
<title>Node35&#45;&gt;Node37</title>
<g id="a_edge47_Node000035_Node000037"><a xlink:title=" ">
<path fill="none" stroke="#63b8ff" d="M2046.02,-50.37C2064.94,-40.63 2090.2,-27.64 2106.65,-19.17"/>
<polygon fill="#63b8ff" stroke="#63b8ff" points="2044.34,-47.3 2037.05,-54.98 2047.54,-53.52 2044.34,-47.3"/>
</a>
</g>
</g>
<!-- Node38&#45;&gt;Node37 -->
<g id="edge50_Node000038_Node000037" class="edge">
<title>Node38&#45;&gt;Node37</title>
<g id="a_edge50_Node000038_Node000037"><a xlink:title=" ">
<path fill="none" stroke="#63b8ff" d="M2153.77,-46.96C2146.1,-37.72 2136.87,-26.6 2130.63,-19.09"/>
<polygon fill="#63b8ff" stroke="#63b8ff" points="2151.15,-49.29 2160.23,-54.75 2156.54,-44.82 2151.15,-49.29"/>
</a>
</g>
</g>
<!-- Node39 -->
<g id="Node000039" class="node">
<title>Node39</title>
<g id="a_Node000039"><a xlink:href="RadioStorage_8cpp.html" target="_top" xlink:title=" ">
<polygon fill="white" stroke="#666666" points="2277.5,-19 2175.5,-19 2175.5,0 2277.5,0 2277.5,-19"/>
<text text-anchor="middle" x="2226.5" y="-7" font-family="Helvetica,sans-Serif" font-size="10.00">RadioStorage.cpp</text>
</a>
</g>
</g>
<!-- Node38&#45;&gt;Node39 -->
<g id="edge49_Node000038_Node000039" class="edge">
<title>Node38&#45;&gt;Node39</title>
<g id="a_edge49_Node000038_Node000039"><a xlink:title=" ">
<path fill="none" stroke="#63b8ff" d="M2184.7,-48.04C2195.17,-38.64 2208.15,-26.98 2216.85,-19.17"/>
<polygon fill="#63b8ff" stroke="#63b8ff" points="2182.08,-45.7 2176.98,-54.98 2186.76,-50.91 2182.08,-45.7"/>
</a>
</g>
</g>
<!-- Node40&#45;&gt;Node37 -->
<g id="edge53_Node000040_Node000037" class="edge">
<title>Node40&#45;&gt;Node37</title>
<g id="a_edge53_Node000040_Node000037"><a xlink:title=" ">
<path fill="none" stroke="#63b8ff" d="M2236.58,-51.55C2209.47,-41.71 2171.67,-27.98 2147.38,-19.17"/>
<polygon fill="#63b8ff" stroke="#63b8ff" points="2235.45,-54.86 2246.04,-54.98 2237.84,-48.28 2235.45,-54.86"/>
</a>
</g>
</g>
<!-- Node41 -->
<g id="Node000041" class="node">
<title>Node41</title>
<g id="a_Node000041"><a xlink:href="SDStorage_8cpp.html" target="_top" xlink:title=" ">
<polygon fill="white" stroke="#666666" points="2383.5,-19 2295.5,-19 2295.5,0 2383.5,0 2383.5,-19"/>
<text text-anchor="middle" x="2339.5" y="-7" font-family="Helvetica,sans-Serif" font-size="10.00">SDStorage.cpp</text>
</a>
</g>
</g>
<!-- Node40&#45;&gt;Node41 -->
<g id="edge52_Node000040_Node000041" class="edge">
<title>Node40&#45;&gt;Node41</title>
<g id="a_edge52_Node000040_Node000041"><a xlink:title=" ">
<path fill="none" stroke="#63b8ff" d="M2288.81,-48.88C2301.41,-39.34 2317.43,-27.21 2328.05,-19.17"/>
<polygon fill="#63b8ff" stroke="#63b8ff" points="2286.61,-46.16 2280.75,-54.98 2290.83,-51.74 2286.61,-46.16"/>
</a>
</g>
</g>
</g>
</svg>

<g id="navigator" transform="translate(0 0)" fill="#404254">
  <rect fill="#f2f5e9" fill-opacity="0.5" stroke="#606060" stroke-width=".5" x="0" y="0" width="60" height="60"/>
  <use id="zoomplus" xlink:href="#zoomPlus" x="17" y="9" onmousedown="handleZoom(evt,'in')"/>
  <use id="zoomminus" xlink:href="#zoomMin" x="42" y="9" onmousedown="handleZoom(evt,'out')"/>
  <use id="reset" xlink:href="#resetDef" x="30" y="36" onmousedown="handleReset()"/>
   <use id="arrowup" xlink:href="#arrowUp" x="0" y="0" onmousedown="handlePan(0,-1)"/>
  <use id="arrowright" xlink:href="#arrowRight" x="0" y="0" onmousedown="handlePan(1,0)"/>
  <use id="arrowdown" xlink:href="#arrowDown" x="0" y="0" onmousedown="handlePan(0,1)"/>
  <use id="arrowleft" xlink:href="#arrowLeft" x="0" y="0" onmousedown="handlePan(-1,0)"/>
</g>
<svg viewBox="0 0 15 15" width="100%" height="30px" preserveAspectRatio="xMaxYMin meet">
 <g id="arrow_out" transform="scale(0.3 0.3)">
  <a xlink:href="Device_8h__dep__incl_org.svg" target="_base">
   <rect id="button" ry="5" rx="5" y="6" x="6" height="38" width="38"
        fill="#f2f5e9" fill-opacity="0.5" stroke="#606060" stroke-width="1.0"/>
   <path id="arrow"
     d="M 11.500037,31.436501 C 11.940474,20.09759 22.043105,11.32322 32.158766,21.979434 L 37.068811,17.246167 C 37.068811,17.246167 37.088388,32 37.088388,32 L 22.160133,31.978069 C 22.160133,31.978069 26.997745,27.140456 26.997745,27.140456 C 18.528582,18.264221 13.291696,25.230495 11.500037,31.436501 z"
     style="fill:#404040;"/>
  </a>
 </g>
</svg>

<style type='text/css'>
<![CDATA[
[data-mouse-over-selected='false'] { opacity: 0.7; }
[data-mouse-over-selected='true']  { opacity: 1.0; }
]]>
</style>
<script type="application/ecmascript"><![CDATA[
document.addEventListener('DOMContentLoaded', (event) => {
  highlightEdges();
  highlightAdjacentNodes();
});
]]></script>
</svg>
