<?xml version="1.0" encoding="UTF-8" standalone="no"?>
<!DOCTYPE svg PUBLIC "-//W3C//DTD SVG 1.1//EN"
 "http://www.w3.org/Graphics/SVG/1.1/DTD/svg11.dtd">
<!-- Generated by graphviz version 2.43.0 (0)
 -->
<!-- Title: Device.h Pages: 1 -->
<!--zoomable 192 -->

<svg id="main" version="1.1" xmlns="http://www.w3.org/2000/svg" xmlns:xlink="http://www.w3.org/1999/xlink" xml:space="preserve" onload="init(evt)">
<style type="text/css"><![CDATA[
.node, .edge {opacity: 0.7;}
.node.selected, .edge.selected {opacity: 1;}
.edge:hover path { stroke: red; }
.edge:hover polygon { stroke: red; fill: red; }
]]></style>

<defs>
  <circle id="rim" cx="0" cy="0" r="7"/>
  <circle id="rim2" cx="0" cy="0" r="3.5"/>
  <g id="zoomPlus">
    <use xlink:href="#rim" fill="#404040"><set attributeName="fill" to="#808080" begin="zoomplus.mouseover" end="zoomplus.mouseout"/></use>
    <path d="M-4,0h8M0,-4v8" fill="none" stroke="white" stroke-width="1.5" pointer-events="none"/>
  </g>
  <g id="zoomMin">
    <use xlink:href="#rim" fill="#404040"><set attributeName="fill" to="#808080" begin="zoomminus.mouseover" end="zoomminus.mouseout"/></use>
    <path d="M-4,0h8" fill="none" stroke="white" stroke-width="1.5" pointer-events="none"/>
  </g>
  <g id="arrowUp" transform="translate(30 24)">
    <use xlink:href="#rim"/>
    <path pointer-events="none" fill="none" stroke="white" stroke-width="1.5" d="M0,-3.0v7 M-2.5,-0.5L0,-3.0L2.5,-0.5"/>
  </g>
  <g id="arrowRight" transform="rotate(90) translate(36 -43)">
    <use xlink:href="#rim"/>
    <path pointer-events="none" fill="none" stroke="white" stroke-width="1.5" d="M0,-3.0v7 M-2.5,-0.5L0,-3.0L2.5,-0.5"/>
  </g>
  <g id="arrowDown" transform="rotate(180) translate(-30 -48)">
    <use xlink:href="#rim"/>
    <path pointer-events="none" fill="none" stroke="white" stroke-width="1.5" d="M0,-3.0v7 M-2.5,-0.5L0,-3.0L2.5,-0.5"/>
  </g>
  <g id="arrowLeft" transform="rotate(270) translate(-36 17)">
    <use xlink:href="#rim"/>
    <path pointer-events="none" fill="none" stroke="white" stroke-width="1.5" d="M0,-3.0v7 M-2.5,-0.5L0,-3.0L2.5,-0.5"/>
  </g>
  <g id="resetDef">
    <use xlink:href="#rim2" fill="#404040"><set attributeName="fill" to="#808080" begin="reset.mouseover" end="reset.mouseout"/></use>
  </g>
</defs>
<script type="application/ecmascript">
var viewWidth = 2273;
var viewHeight = 192;
var sectionId = 'dynsection-1';
</script>
<script type="application/ecmascript" xlink:href="svg.min.js"/>
<svg id="graph" class="graph">
<g id="viewport">
<title>Device.h</title>
<!-- Node1 -->
<g id="Node000001" class="node">
<title>Node1</title>
<g id="a_Node000001"><a xlink:title=" ">
<polygon fill="#999999" stroke="#666666" points="1516,-184 1457,-184 1457,-165 1516,-165 1516,-184"/>
<text text-anchor="middle" x="1486.5" y="-172" font-family="Helvetica,sans-Serif" font-size="10.00">Device.h</text>
</a>
</g>
</g>
<!-- Node2 -->
<g id="Node000002" class="node">
<title>Node2</title>
<g id="a_Node000002"><a xlink:href="Sensor_8h.html" target="_top" xlink:title=" ">
<polygon fill="white" stroke="#666666" points="1025.5,-129 967.5,-129 967.5,-110 1025.5,-110 1025.5,-129"/>
<text text-anchor="middle" x="996.5" y="-117" font-family="Helvetica,sans-Serif" font-size="10.00">Sensor.h</text>
</a>
</g>
</g>
<!-- Node1&#45;&gt;Node2 -->
<g id="edge1_Node000001_Node000002" class="edge">
<title>Node1&#45;&gt;Node2</title>
<g id="a_edge1_Node000001_Node000002"><a xlink:title=" ">
<path fill="none" stroke="#63b8ff" d="M1446.83,-169.21C1351.2,-158.87 1109.7,-132.74 1025.78,-123.67"/>
<polygon fill="#63b8ff" stroke="#63b8ff" points="1446.63,-172.71 1456.95,-170.3 1447.39,-165.75 1446.63,-172.71"/>
</a>
</g>
</g>
<!-- Node32 -->
<g id="Node000032" class="node">
<title>Node32</title>
<g id="a_Node000032"><a xlink:href="Storage_8h.html" target="_top" xlink:title=" ">
<polygon fill="white" stroke="#666666" points="2046,-129 1983,-129 1983,-110 2046,-110 2046,-129"/>
<text text-anchor="middle" x="2014.5" y="-117" font-family="Helvetica,sans-Serif" font-size="10.00">Storage.h</text>
</a>
</g>
</g>
<!-- Node1&#45;&gt;Node32 -->
<g id="edge39_Node000001_Node000032" class="edge">
<title>Node1&#45;&gt;Node32</title>
<g id="a_edge39_Node000001_Node000032"><a xlink:title=" ">
<path fill="none" stroke="#63b8ff" d="M1526.08,-169.53C1626.83,-159.41 1891.44,-132.85 1982.88,-123.67"/>
<polygon fill="#63b8ff" stroke="#63b8ff" points="1525.62,-166.06 1516.02,-170.54 1526.32,-173.02 1525.62,-166.06"/>
</a>
</g>
</g>
<!-- Node3 -->
<g id="Node000003" class="node">
<title>Node3</title>
<g id="a_Node000003"><a xlink:href="AS7331Sensor_8h.html" target="_top" xlink:title=" ">
<polygon fill="white" stroke="#666666" points="1155,-74 1060,-74 1060,-55 1155,-55 1155,-74"/>
<text text-anchor="middle" x="1107.5" y="-62" font-family="Helvetica,sans-Serif" font-size="10.00">AS7331Sensor.h</text>
</a>
</g>
</g>
<!-- Node2&#45;&gt;Node3 -->
<g id="edge2_Node000002_Node000003" class="edge">
<title>Node2&#45;&gt;Node3</title>
<g id="a_edge2_Node000002_Node000003"><a xlink:title=" ">
<path fill="none" stroke="#63b8ff" d="M1023.45,-105.63C1043.89,-95.87 1071.45,-82.71 1089.34,-74.17"/>
<polygon fill="#63b8ff" stroke="#63b8ff" points="1021.85,-102.52 1014.33,-109.98 1024.87,-108.83 1021.85,-102.52"/>
</a>
</g>
</g>
<!-- Node5 -->
<g id="Node000005" class="node">
<title>Node5</title>
<g id="a_Node000005"><a xlink:href="main_8cpp.html" target="_top" xlink:title="Main functions for Core 0, responsible for reading data from sensor peripherals.">
<polygon fill="white" stroke="#666666" points="1065.5,-19 1003.5,-19 1003.5,0 1065.5,0 1065.5,-19"/>
<text text-anchor="middle" x="1034.5" y="-7" font-family="Helvetica,sans-Serif" font-size="10.00">main.cpp</text>
</a>
</g>
</g>
<!-- Node2&#45;&gt;Node5 -->
<g id="edge38_Node000002_Node000005" class="edge">
<title>Node2&#45;&gt;Node5</title>
<g id="a_edge38_Node000002_Node000005"><a xlink:title=" ">
<path fill="none" stroke="#63b8ff" d="M1003.04,-100.47C1005.95,-92.38 1009.42,-82.72 1012.5,-74 1019.41,-54.42 1027.35,-31.37 1031.54,-19.14"/>
<polygon fill="#63b8ff" stroke="#63b8ff" points="999.71,-99.39 999.6,-109.98 1006.29,-101.77 999.71,-99.39"/>
</a>
</g>
</g>
<!-- Node6 -->
<g id="Node000006" class="node">
<title>Node6</title>
<g id="a_Node000006"><a xlink:href="BME280Sensor_8h.html" target="_top" xlink:title=" ">
<polygon fill="white" stroke="#666666" points="1663.5,-74 1565.5,-74 1565.5,-55 1663.5,-55 1663.5,-74"/>
<text text-anchor="middle" x="1614.5" y="-62" font-family="Helvetica,sans-Serif" font-size="10.00">BME280Sensor.h</text>
</a>
</g>
</g>
<!-- Node2&#45;&gt;Node6 -->
<g id="edge5_Node000002_Node000006" class="edge">
<title>Node2&#45;&gt;Node6</title>
<g id="a_edge5_Node000002_Node000006"><a xlink:title=" ">
<path fill="none" stroke="#63b8ff" d="M1035.93,-115.2C1123.13,-107.9 1338.89,-89.76 1519.5,-74 1534.35,-72.7 1550.5,-71.27 1565.2,-69.95"/>
<polygon fill="#63b8ff" stroke="#63b8ff" points="1035.38,-111.74 1025.71,-116.06 1035.96,-118.71 1035.38,-111.74"/>
</a>
</g>
</g>
<!-- Node8 -->
<g id="Node000008" class="node">
<title>Node8</title>
<g id="a_Node000008"><a xlink:href="BME680Sensor_8h.html" target="_top" xlink:title=" ">
<polygon fill="white" stroke="#666666" points="1822.5,-74 1724.5,-74 1724.5,-55 1822.5,-55 1822.5,-74"/>
<text text-anchor="middle" x="1773.5" y="-62" font-family="Helvetica,sans-Serif" font-size="10.00">BME680Sensor.h</text>
</a>
</g>
</g>
<!-- Node2&#45;&gt;Node8 -->
<g id="edge7_Node000002_Node000008" class="edge">
<title>Node2&#45;&gt;Node8</title>
<g id="a_edge7_Node000002_Node000008"><a xlink:title=" ">
<path fill="none" stroke="#63b8ff" d="M1035.52,-116.18C1139.24,-109.96 1430.41,-92.15 1672.5,-74 1689.43,-72.73 1707.95,-71.21 1724.45,-69.81"/>
<polygon fill="#63b8ff" stroke="#63b8ff" points="1035.28,-112.69 1025.5,-116.78 1035.69,-119.68 1035.28,-112.69"/>
</a>
</g>
</g>
<!-- Node10 -->
<g id="Node000010" class="node">
<title>Node10</title>
<g id="a_Node000010"><a xlink:href="BMP390Sensor_8h.html" target="_top" xlink:title=" ">
<polygon fill="white" stroke="#666666" points="1271.5,-74 1173.5,-74 1173.5,-55 1271.5,-55 1271.5,-74"/>
<text text-anchor="middle" x="1222.5" y="-62" font-family="Helvetica,sans-Serif" font-size="10.00">BMP390Sensor.h</text>
</a>
</g>
</g>
<!-- Node2&#45;&gt;Node10 -->
<g id="edge9_Node000002_Node000010" class="edge">
<title>Node2&#45;&gt;Node10</title>
<g id="a_edge9_Node000002_Node000010"><a xlink:title=" ">
<path fill="none" stroke="#63b8ff" d="M1035.51,-109.35C1077.81,-99.43 1144.79,-83.72 1186.06,-74.05"/>
<polygon fill="#63b8ff" stroke="#63b8ff" points="1034.52,-105.99 1025.58,-111.68 1036.12,-112.8 1034.52,-105.99"/>
</a>
</g>
</g>
<!-- Node12 -->
<g id="Node000012" class="node">
<title>Node12</title>
<g id="a_Node000012"><a xlink:href="DS3231Sensor_8h.html" target="_top" xlink:title=" ">
<polygon fill="white" stroke="#666666" points="105,-74 10,-74 10,-55 105,-55 105,-74"/>
<text text-anchor="middle" x="57.5" y="-62" font-family="Helvetica,sans-Serif" font-size="10.00">DS3231Sensor.h</text>
</a>
</g>
</g>
<!-- Node2&#45;&gt;Node12 -->
<g id="edge12_Node000002_Node000012" class="edge">
<title>Node2&#45;&gt;Node12</title>
<g id="a_edge12_Node000002_Node000012"><a xlink:title=" ">
<path fill="none" stroke="#63b8ff" d="M957.37,-116.74C838.45,-111.32 470.86,-94.02 166.5,-74 146.42,-72.68 124.29,-70.99 105.23,-69.47"/>
<polygon fill="#63b8ff" stroke="#63b8ff" points="957.3,-120.24 967.45,-117.2 957.62,-113.25 957.3,-120.24"/>
</a>
</g>
</g>
<!-- Node14 -->
<g id="Node000014" class="node">
<title>Node14</title>
<g id="a_Node000014"><a xlink:href="ENS160Sensor_8h.html" target="_top" xlink:title=" ">
<polygon fill="white" stroke="#666666" points="1385,-74 1290,-74 1290,-55 1385,-55 1385,-74"/>
<text text-anchor="middle" x="1337.5" y="-62" font-family="Helvetica,sans-Serif" font-size="10.00">ENS160Sensor.h</text>
</a>
</g>
</g>
<!-- Node2&#45;&gt;Node14 -->
<g id="edge14_Node000002_Node000014" class="edge">
<title>Node2&#45;&gt;Node14</title>
<g id="a_edge14_Node000002_Node000014"><a xlink:title=" ">
<path fill="none" stroke="#63b8ff" d="M1035.49,-112.44C1098.38,-102.67 1222,-83.45 1289.96,-72.89"/>
<polygon fill="#63b8ff" stroke="#63b8ff" points="1034.92,-108.99 1025.57,-113.98 1035.99,-115.9 1034.92,-108.99"/>
</a>
</g>
</g>
<!-- Node16 -->
<g id="Node000016" class="node">
<title>Node16</title>
<g id="a_Node000016"><a xlink:href="ICM20948Sensor_8h.html" target="_top" xlink:title=" ">
<polygon fill="white" stroke="#666666" points="1510,-74 1403,-74 1403,-55 1510,-55 1510,-74"/>
<text text-anchor="middle" x="1456.5" y="-62" font-family="Helvetica,sans-Serif" font-size="10.00">ICM20948Sensor.h</text>
</a>
</g>
</g>
<!-- Node2&#45;&gt;Node16 -->
<g id="edge17_Node000002_Node000016" class="edge">
<title>Node2&#45;&gt;Node16</title>
<g id="a_edge17_Node000002_Node000016"><a xlink:title=" ">
<path fill="none" stroke="#63b8ff" d="M1036.35,-114.38C1108.07,-106.88 1263.57,-90.29 1394.5,-74 1397.2,-73.66 1399.96,-73.31 1402.74,-72.95"/>
<polygon fill="#63b8ff" stroke="#63b8ff" points="1035.57,-110.94 1025.99,-115.46 1036.3,-117.9 1035.57,-110.94"/>
</a>
</g>
</g>
<!-- Node18 -->
<g id="Node000018" class="node">
<title>Node18</title>
<g id="a_Node000018"><a xlink:href="INA260Sensor_8h.html" target="_top" xlink:title=" ">
<polygon fill="white" stroke="#666666" points="659,-74 566,-74 566,-55 659,-55 659,-74"/>
<text text-anchor="middle" x="612.5" y="-62" font-family="Helvetica,sans-Serif" font-size="10.00">INA260Sensor.h</text>
</a>
</g>
</g>
<!-- Node2&#45;&gt;Node18 -->
<g id="edge20_Node000002_Node000018" class="edge">
<title>Node2&#45;&gt;Node18</title>
<g id="a_edge20_Node000002_Node000018"><a xlink:title=" ">
<path fill="none" stroke="#63b8ff" d="M957.01,-113.35C895.36,-105.26 772.55,-88.95 668.5,-74 665.48,-73.57 662.37,-73.11 659.24,-72.65"/>
<polygon fill="#63b8ff" stroke="#63b8ff" points="956.71,-116.84 967.08,-114.67 957.62,-109.9 956.71,-116.84"/>
</a>
</g>
</g>
<!-- Node20 -->
<g id="Node000020" class="node">
<title>Node20</title>
<g id="a_Node000020"><a xlink:href="LSM9DS1Sensor_8h.html" target="_top" xlink:title=" ">
<polygon fill="white" stroke="#666666" points="279.5,-74 175.5,-74 175.5,-55 279.5,-55 279.5,-74"/>
<text text-anchor="middle" x="227.5" y="-62" font-family="Helvetica,sans-Serif" font-size="10.00">LSM9DS1Sensor.h</text>
</a>
</g>
</g>
<!-- Node2&#45;&gt;Node20 -->
<g id="edge23_Node000002_Node000020" class="edge">
<title>Node2&#45;&gt;Node20</title>
<g id="a_edge23_Node000002_Node000020"><a xlink:title=" ">
<path fill="none" stroke="#63b8ff" d="M957.18,-116.36C852.66,-110.57 559.26,-93.73 315.5,-74 303.87,-73.06 291.39,-71.93 279.59,-70.8"/>
<polygon fill="#63b8ff" stroke="#63b8ff" points="957.09,-119.86 967.27,-116.92 957.48,-112.87 957.09,-119.86"/>
</a>
</g>
</g>
<!-- Node22 -->
<g id="Node000022" class="node">
<title>Node22</title>
<g id="a_Node000022"><a xlink:href="MTK3339Sensor_8h.html" target="_top" xlink:title=" ">
<polygon fill="white" stroke="#666666" points="781.5,-74 677.5,-74 677.5,-55 781.5,-55 781.5,-74"/>
<text text-anchor="middle" x="729.5" y="-62" font-family="Helvetica,sans-Serif" font-size="10.00">MTK3339Sensor.h</text>
</a>
</g>
</g>
<!-- Node2&#45;&gt;Node22 -->
<g id="edge25_Node000002_Node000022" class="edge">
<title>Node2&#45;&gt;Node22</title>
<g id="a_edge25_Node000002_Node000022"><a xlink:title=" ">
<path fill="none" stroke="#63b8ff" d="M957.46,-110.75C908.2,-100.97 823.74,-84.21 772.62,-74.06"/>
<polygon fill="#63b8ff" stroke="#63b8ff" points="956.93,-114.21 967.42,-112.73 958.29,-107.35 956.93,-114.21"/>
</a>
</g>
</g>
<!-- Node24 -->
<g id="Node000024" class="node">
<title>Node24</title>
<g id="a_Node000024"><a xlink:href="PCF8523Sensor_8h.html" target="_top" xlink:title=" ">
<polygon fill="white" stroke="#666666" points="901,-74 800,-74 800,-55 901,-55 901,-74"/>
<text text-anchor="middle" x="850.5" y="-62" font-family="Helvetica,sans-Serif" font-size="10.00">PCF8523Sensor.h</text>
</a>
</g>
</g>
<!-- Node2&#45;&gt;Node24 -->
<g id="edge28_Node000002_Node000024" class="edge">
<title>Node2&#45;&gt;Node24</title>
<g id="a_edge28_Node000002_Node000024"><a xlink:title=" ">
<path fill="none" stroke="#63b8ff" d="M963.58,-106.55C936.47,-96.71 898.67,-82.98 874.38,-74.17"/>
<polygon fill="#63b8ff" stroke="#63b8ff" points="962.45,-109.86 973.04,-109.98 964.84,-103.28 962.45,-109.86"/>
</a>
</g>
</g>
<!-- Node26 -->
<g id="Node000026" class="node">
<title>Node26</title>
<g id="a_Node000026"><a xlink:href="SGP30Sensor_8h.html" target="_top" xlink:title=" ">
<polygon fill="white" stroke="#666666" points="413,-74 324,-74 324,-55 413,-55 413,-74"/>
<text text-anchor="middle" x="368.5" y="-62" font-family="Helvetica,sans-Serif" font-size="10.00">SGP30Sensor.h</text>
</a>
</g>
</g>
<!-- Node2&#45;&gt;Node26 -->
<g id="edge31_Node000002_Node000026" class="edge">
<title>Node2&#45;&gt;Node26</title>
<g id="a_edge31_Node000002_Node000026"><a xlink:title=" ">
<path fill="none" stroke="#63b8ff" d="M957.05,-116.01C865.37,-110.09 630.89,-94.13 435.5,-74 428.27,-73.25 420.61,-72.37 413.16,-71.46"/>
<polygon fill="#63b8ff" stroke="#63b8ff" points="957.05,-119.52 967.25,-116.67 957.5,-112.53 957.05,-119.52"/>
</a>
</g>
</g>
<!-- Node28 -->
<g id="Node000028" class="node">
<title>Node28</title>
<g id="a_Node000028"><a xlink:href="TMP117Sensor_8h.html" target="_top" xlink:title=" ">
<polygon fill="white" stroke="#666666" points="541,-74 444,-74 444,-55 541,-55 541,-74"/>
<text text-anchor="middle" x="492.5" y="-62" font-family="Helvetica,sans-Serif" font-size="10.00">TMP117Sensor.h</text>
</a>
</g>
</g>
<!-- Node2&#45;&gt;Node28 -->
<g id="edge33_Node000002_Node000028" class="edge">
<title>Node2&#45;&gt;Node28</title>
<g id="a_edge33_Node000002_Node000028"><a xlink:title=" ">
<path fill="none" stroke="#63b8ff" d="M957.28,-114.91C880.47,-107.79 704.85,-91.1 557.5,-74 552.19,-73.38 546.63,-72.71 541.11,-72.01"/>
<polygon fill="#63b8ff" stroke="#63b8ff" points="957.17,-118.41 967.45,-115.85 957.81,-111.44 957.17,-118.41"/>
</a>
</g>
</g>
<!-- Node30 -->
<g id="Node000030" class="node">
<title>Node30</title>
<g id="a_Node000030"><a xlink:href="TempSensor_8h.html" target="_top" xlink:title=" ">
<polygon fill="white" stroke="#666666" points="1003.5,-74 919.5,-74 919.5,-55 1003.5,-55 1003.5,-74"/>
<text text-anchor="middle" x="961.5" y="-62" font-family="Helvetica,sans-Serif" font-size="10.00">TempSensor.h</text>
</a>
</g>
</g>
<!-- Node2&#45;&gt;Node30 -->
<g id="edge35_Node000002_Node000030" class="edge">
<title>Node2&#45;&gt;Node30</title>
<g id="a_edge35_Node000002_Node000030"><a xlink:title=" ">
<path fill="none" stroke="#63b8ff" d="M985.2,-101.39C979.18,-92.27 972.03,-81.45 967.17,-74.09"/>
<polygon fill="#63b8ff" stroke="#63b8ff" points="982.29,-103.33 990.72,-109.75 988.13,-99.47 982.29,-103.33"/>
</a>
</g>
</g>
<!-- Node4 -->
<g id="Node000004" class="node">
<title>Node4</title>
<g id="a_Node000004"><a xlink:href="AS7331Sensor_8cpp.html" target="_top" xlink:title=" ">
<polygon fill="white" stroke="#666666" points="1189.5,-19 1083.5,-19 1083.5,0 1189.5,0 1189.5,-19"/>
<text text-anchor="middle" x="1136.5" y="-7" font-family="Helvetica,sans-Serif" font-size="10.00">AS7331Sensor.cpp</text>
</a>
</g>
</g>
<!-- Node3&#45;&gt;Node4 -->
<g id="edge3_Node000003_Node000004" class="edge">
<title>Node3&#45;&gt;Node4</title>
<g id="a_edge3_Node000003_Node000004"><a xlink:title=" ">
<path fill="none" stroke="#63b8ff" d="M1117.18,-45.82C1122.1,-36.82 1127.86,-26.29 1131.8,-19.09"/>
<polygon fill="#63b8ff" stroke="#63b8ff" points="1114.02,-44.3 1112.29,-54.75 1120.16,-47.66 1114.02,-44.3"/>
</a>
</g>
</g>
<!-- Node3&#45;&gt;Node5 -->
<g id="edge4_Node000003_Node000005" class="edge">
<title>Node3&#45;&gt;Node5</title>
<g id="a_edge4_Node000003_Node000005"><a xlink:title=" ">
<path fill="none" stroke="#63b8ff" d="M1087.36,-48.88C1074.22,-39.34 1057.52,-27.21 1046.44,-19.17"/>
<polygon fill="#63b8ff" stroke="#63b8ff" points="1085.62,-51.94 1095.77,-54.98 1089.74,-46.28 1085.62,-51.94"/>
</a>
</g>
</g>
<!-- Node7 -->
<g id="Node000007" class="node">
<title>Node7</title>
<g id="a_Node000007"><a xlink:href="BME280Sensor_8cpp.html" target="_top" xlink:title=" ">
<polygon fill="white" stroke="#666666" points="1706,-19 1597,-19 1597,0 1706,0 1706,-19"/>
<text text-anchor="middle" x="1651.5" y="-7" font-family="Helvetica,sans-Serif" font-size="10.00">BME280Sensor.cpp</text>
</a>
</g>
</g>
<!-- Node6&#45;&gt;Node7 -->
<g id="edge6_Node000006_Node000007" class="edge">
<title>Node6&#45;&gt;Node7</title>
<g id="a_edge6_Node000006_Node000007"><a xlink:title=" ">
<path fill="none" stroke="#63b8ff" d="M1626.45,-46.39C1632.81,-37.27 1640.37,-26.45 1645.5,-19.09"/>
<polygon fill="#63b8ff" stroke="#63b8ff" points="1623.46,-44.55 1620.61,-54.75 1629.2,-48.55 1623.46,-44.55"/>
</a>
</g>
</g>
<!-- Node9 -->
<g id="Node000009" class="node">
<title>Node9</title>
<g id="a_Node000009"><a xlink:href="BME680Sensor_8cpp.html" target="_top" xlink:title=" ">
<polygon fill="white" stroke="#666666" points="1833,-19 1724,-19 1724,0 1833,0 1833,-19"/>
<text text-anchor="middle" x="1778.5" y="-7" font-family="Helvetica,sans-Serif" font-size="10.00">BME680Sensor.cpp</text>
</a>
</g>
</g>
<!-- Node8&#45;&gt;Node9 -->
<g id="edge8_Node000008_Node000009" class="edge">
<title>Node8&#45;&gt;Node9</title>
<g id="a_edge8_Node000008_Node000009"><a xlink:title=" ">
<path fill="none" stroke="#63b8ff" d="M1775.28,-44.66C1776.1,-35.93 1777.04,-25.99 1777.69,-19.09"/>
<polygon fill="#63b8ff" stroke="#63b8ff" points="1771.78,-44.46 1774.33,-54.75 1778.75,-45.12 1771.78,-44.46"/>
</a>
</g>
</g>
<!-- Node10&#45;&gt;Node5 -->
<g id="edge11_Node000010_Node000005" class="edge">
<title>Node10&#45;&gt;Node5</title>
<g id="a_edge11_Node000010_Node000005"><a xlink:title=" ">
<path fill="none" stroke="#63b8ff" d="M1182.36,-52.18C1147.2,-42.27 1096.87,-28.08 1064.94,-19.08"/>
<polygon fill="#63b8ff" stroke="#63b8ff" points="1181.72,-55.64 1192.29,-54.98 1183.62,-48.9 1181.72,-55.64"/>
</a>
</g>
</g>
<!-- Node11 -->
<g id="Node000011" class="node">
<title>Node11</title>
<g id="a_Node000011"><a xlink:href="BMP390Sensor_8cpp.html" target="_top" xlink:title=" ">
<polygon fill="white" stroke="#666666" points="1317,-19 1208,-19 1208,0 1317,0 1317,-19"/>
<text text-anchor="middle" x="1262.5" y="-7" font-family="Helvetica,sans-Serif" font-size="10.00">BMP390Sensor.cpp</text>
</a>
</g>
</g>
<!-- Node10&#45;&gt;Node11 -->
<g id="edge10_Node000010_Node000011" class="edge">
<title>Node10&#45;&gt;Node11</title>
<g id="a_edge10_Node000010_Node000011"><a xlink:title=" ">
<path fill="none" stroke="#63b8ff" d="M1235.2,-46.67C1242.13,-37.5 1250.41,-26.52 1256.02,-19.09"/>
<polygon fill="#63b8ff" stroke="#63b8ff" points="1232.34,-44.66 1229.11,-54.75 1237.92,-48.87 1232.34,-44.66"/>
</a>
</g>
</g>
<!-- Node13 -->
<g id="Node000013" class="node">
<title>Node13</title>
<g id="a_Node000013"><a xlink:href="DS3231Sensor_8cpp.html" target="_top" xlink:title=" ">
<polygon fill="white" stroke="#666666" points="107,-19 0,-19 0,0 107,0 107,-19"/>
<text text-anchor="middle" x="53.5" y="-7" font-family="Helvetica,sans-Serif" font-size="10.00">DS3231Sensor.cpp</text>
</a>
</g>
</g>
<!-- Node12&#45;&gt;Node13 -->
<g id="edge13_Node000012_Node000013" class="edge">
<title>Node12&#45;&gt;Node13</title>
<g id="a_edge13_Node000012_Node000013"><a xlink:title=" ">
<path fill="none" stroke="#63b8ff" d="M56.08,-44.66C55.42,-35.93 54.67,-25.99 54.15,-19.09"/>
<polygon fill="#63b8ff" stroke="#63b8ff" points="52.6,-45.04 56.84,-54.75 59.58,-44.51 52.6,-45.04"/>
</a>
</g>
</g>
<!-- Node14&#45;&gt;Node5 -->
<g id="edge16_Node000014_Node000005" class="edge">
<title>Node14&#45;&gt;Node5</title>
<g id="a_edge16_Node000014_Node000005"><a xlink:title=" ">
<path fill="none" stroke="#63b8ff" d="M1279.92,-54.47C1226.56,-45.93 1145.01,-32.45 1074.5,-19 1071.71,-18.47 1068.82,-17.89 1065.92,-17.31"/>
<polygon fill="#63b8ff" stroke="#63b8ff" points="1279.45,-57.94 1289.88,-56.06 1280.56,-51.02 1279.45,-57.94"/>
</a>
</g>
</g>
<!-- Node15 -->
<g id="Node000015" class="node">
<title>Node15</title>
<g id="a_Node000015"><a xlink:href="ENS160Sensor_8cpp.html" target="_top" xlink:title=" ">
<polygon fill="white" stroke="#666666" points="1442,-19 1335,-19 1335,0 1442,0 1442,-19"/>
<text text-anchor="middle" x="1388.5" y="-7" font-family="Helvetica,sans-Serif" font-size="10.00">ENS160Sensor.cpp</text>
</a>
</g>
</g>
<!-- Node14&#45;&gt;Node15 -->
<g id="edge15_Node000014_Node000015" class="edge">
<title>Node14&#45;&gt;Node15</title>
<g id="a_edge15_Node000014_Node000015"><a xlink:title=" ">
<path fill="none" stroke="#63b8ff" d="M1352.88,-47.52C1361.87,-38.18 1372.86,-26.75 1380.24,-19.09"/>
<polygon fill="#63b8ff" stroke="#63b8ff" points="1350.33,-45.12 1345.92,-54.75 1355.38,-49.97 1350.33,-45.12"/>
</a>
</g>
</g>
<!-- Node16&#45;&gt;Node5 -->
<g id="edge19_Node000016_Node000005" class="edge">
<title>Node16&#45;&gt;Node5</title>
<g id="a_edge19_Node000016_Node000005"><a xlink:title=" ">
<path fill="none" stroke="#63b8ff" d="M1392.79,-54.82C1250.78,-37.47 1212.6,-41.39 1074.5,-19 1071.7,-18.55 1068.79,-18.03 1065.89,-17.47"/>
<polygon fill="#63b8ff" stroke="#63b8ff" points="1392.39,-58.3 1402.74,-56.05 1393.25,-51.35 1392.39,-58.3"/>
</a>
</g>
</g>
<!-- Node17 -->
<g id="Node000017" class="node">
<title>Node17</title>
<g id="a_Node000017"><a xlink:href="ICM20948Sensor_8cpp.html" target="_top" xlink:title=" ">
<polygon fill="white" stroke="#666666" points="1578.5,-19 1460.5,-19 1460.5,0 1578.5,0 1578.5,-19"/>
<text text-anchor="middle" x="1519.5" y="-7" font-family="Helvetica,sans-Serif" font-size="10.00">ICM20948Sensor.cpp</text>
</a>
</g>
</g>
<!-- Node16&#45;&gt;Node17 -->
<g id="edge18_Node000016_Node000017" class="edge">
<title>Node16&#45;&gt;Node17</title>
<g id="a_edge18_Node000016_Node000017"><a xlink:title=" ">
<path fill="none" stroke="#63b8ff" d="M1474.54,-48.32C1485.77,-38.87 1499.82,-27.06 1509.19,-19.17"/>
<polygon fill="#63b8ff" stroke="#63b8ff" points="1472.02,-45.87 1466.62,-54.98 1476.53,-51.23 1472.02,-45.87"/>
</a>
</g>
</g>
<!-- Node18&#45;&gt;Node5 -->
<g id="edge22_Node000018_Node000005" class="edge">
<title>Node18&#45;&gt;Node5</title>
<g id="a_edge22_Node000018_Node000005"><a xlink:title=" ">
<path fill="none" stroke="#63b8ff" d="M669.42,-54.94C814.77,-36.32 853.82,-41.66 994.5,-19 997.3,-18.55 1000.21,-18.03 1003.11,-17.48"/>
<polygon fill="#63b8ff" stroke="#63b8ff" points="668.7,-51.5 659.23,-56.26 669.6,-58.45 668.7,-51.5"/>
</a>
</g>
</g>
<!-- Node19 -->
<g id="Node000019" class="node">
<title>Node19</title>
<g id="a_Node000019"><a xlink:href="INA260Sensor_8cpp.html" target="_top" xlink:title=" ">
<polygon fill="white" stroke="#666666" points="607.5,-19 503.5,-19 503.5,0 607.5,0 607.5,-19"/>
<text text-anchor="middle" x="555.5" y="-7" font-family="Helvetica,sans-Serif" font-size="10.00">INA260Sensor.cpp</text>
</a>
</g>
</g>
<!-- Node18&#45;&gt;Node19 -->
<g id="edge21_Node000018_Node000019" class="edge">
<title>Node18&#45;&gt;Node19</title>
<g id="a_edge21_Node000018_Node000019"><a xlink:title=" ">
<path fill="none" stroke="#63b8ff" d="M595.88,-48.04C585.77,-38.64 573.22,-26.98 564.82,-19.17"/>
<polygon fill="#63b8ff" stroke="#63b8ff" points="593.64,-50.74 603.34,-54.98 598.4,-45.61 593.64,-50.74"/>
</a>
</g>
</g>
<!-- Node21 -->
<g id="Node000021" class="node">
<title>Node21</title>
<g id="a_Node000021"><a xlink:href="LSM9DS1Sensor_8cpp.html" target="_top" xlink:title=" ">
<polygon fill="white" stroke="#666666" points="240,-19 125,-19 125,0 240,0 240,-19"/>
<text text-anchor="middle" x="182.5" y="-7" font-family="Helvetica,sans-Serif" font-size="10.00">LSM9DS1Sensor.cpp</text>
</a>
</g>
</g>
<!-- Node20&#45;&gt;Node21 -->
<g id="edge24_Node000020_Node000021" class="edge">
<title>Node20&#45;&gt;Node21</title>
<g id="a_edge24_Node000020_Node000021"><a xlink:title=" ">
<path fill="none" stroke="#63b8ff" d="M213.45,-46.96C205.61,-37.72 196.17,-26.6 189.79,-19.09"/>
<polygon fill="#63b8ff" stroke="#63b8ff" points="210.93,-49.39 220.07,-54.75 216.26,-44.86 210.93,-49.39"/>
</a>
</g>
</g>
<!-- Node22&#45;&gt;Node5 -->
<g id="edge27_Node000022_Node000005" class="edge">
<title>Node22&#45;&gt;Node5</title>
<g id="a_edge27_Node000022_Node000005"><a xlink:title=" ">
<path fill="none" stroke="#63b8ff" d="M791.98,-53.79C845.76,-45.24 925.4,-32.14 994.5,-19 997.29,-18.47 1000.18,-17.9 1003.08,-17.31"/>
<polygon fill="#63b8ff" stroke="#63b8ff" points="791.24,-50.36 781.91,-55.38 792.34,-57.27 791.24,-50.36"/>
</a>
</g>
</g>
<!-- Node23 -->
<g id="Node000023" class="node">
<title>Node23</title>
<g id="a_Node000023"><a xlink:href="MTK3339Sensor_8cpp.html" target="_top" xlink:title=" ">
<polygon fill="white" stroke="#666666" points="741,-19 626,-19 626,0 741,0 741,-19"/>
<text text-anchor="middle" x="683.5" y="-7" font-family="Helvetica,sans-Serif" font-size="10.00">MTK3339Sensor.cpp</text>
</a>
</g>
</g>
<!-- Node22&#45;&gt;Node23 -->
<g id="edge26_Node000022_Node000023" class="edge">
<title>Node22&#45;&gt;Node23</title>
<g id="a_edge26_Node000022_Node000023"><a xlink:title=" ">
<path fill="none" stroke="#63b8ff" d="M715.14,-46.96C707.13,-37.72 697.47,-26.6 690.95,-19.09"/>
<polygon fill="#63b8ff" stroke="#63b8ff" points="712.71,-49.49 721.9,-54.75 717.99,-44.9 712.71,-49.49"/>
</a>
</g>
</g>
<!-- Node24&#45;&gt;Node5 -->
<g id="edge30_Node000024_Node000005" class="edge">
<title>Node24&#45;&gt;Node5</title>
<g id="a_edge30_Node000024_Node000005"><a xlink:title=" ">
<path fill="none" stroke="#63b8ff" d="M889.79,-52.18C924.2,-42.27 973.46,-28.08 1004.71,-19.08"/>
<polygon fill="#63b8ff" stroke="#63b8ff" points="888.7,-48.85 880.06,-54.98 890.64,-55.58 888.7,-48.85"/>
</a>
</g>
</g>
<!-- Node25 -->
<g id="Node000025" class="node">
<title>Node25</title>
<g id="a_Node000025"><a xlink:href="PCF8523Sensor_8cpp.html" target="_top" xlink:title=" ">
<polygon fill="white" stroke="#666666" points="871.5,-19 759.5,-19 759.5,0 871.5,0 871.5,-19"/>
<text text-anchor="middle" x="815.5" y="-7" font-family="Helvetica,sans-Serif" font-size="10.00">PCF8523Sensor.cpp</text>
</a>
</g>
</g>
<!-- Node24&#45;&gt;Node25 -->
<g id="edge29_Node000024_Node000025" class="edge">
<title>Node24&#45;&gt;Node25</title>
<g id="a_edge29_Node000024_Node000025"><a xlink:title=" ">
<path fill="none" stroke="#63b8ff" d="M839.2,-46.39C833.18,-37.27 826.03,-26.45 821.17,-19.09"/>
<polygon fill="#63b8ff" stroke="#63b8ff" points="836.29,-48.33 844.72,-54.75 842.13,-44.47 836.29,-48.33"/>
</a>
</g>
</g>
<!-- Node27 -->
<g id="Node000027" class="node">
<title>Node27</title>
<g id="a_Node000027"><a xlink:href="SGP30Sensor_8cpp.html" target="_top" xlink:title=" ">
<polygon fill="white" stroke="#666666" points="359,-19 258,-19 258,0 359,0 359,-19"/>
<text text-anchor="middle" x="308.5" y="-7" font-family="Helvetica,sans-Serif" font-size="10.00">SGP30Sensor.cpp</text>
</a>
</g>
</g>
<!-- Node26&#45;&gt;Node27 -->
<g id="edge32_Node000026_Node000027" class="edge">
<title>Node26&#45;&gt;Node27</title>
<g id="a_edge32_Node000026_Node000027"><a xlink:title=" ">
<path fill="none" stroke="#63b8ff" d="M351.32,-48.32C340.62,-38.87 327.24,-27.06 318.32,-19.17"/>
<polygon fill="#63b8ff" stroke="#63b8ff" points="349.05,-50.99 358.86,-54.98 353.68,-45.74 349.05,-50.99"/>
</a>
</g>
</g>
<!-- Node29 -->
<g id="Node000029" class="node">
<title>Node29</title>
<g id="a_Node000029"><a xlink:href="TMP117Sensor_8cpp.html" target="_top" xlink:title=" ">
<polygon fill="white" stroke="#666666" points="485.5,-19 377.5,-19 377.5,0 485.5,0 485.5,-19"/>
<text text-anchor="middle" x="431.5" y="-7" font-family="Helvetica,sans-Serif" font-size="10.00">TMP117Sensor.cpp</text>
</a>
</g>
</g>
<!-- Node28&#45;&gt;Node29 -->
<g id="edge34_Node000028_Node000029" class="edge">
<title>Node28&#45;&gt;Node29</title>
<g id="a_edge34_Node000028_Node000029"><a xlink:title=" ">
<path fill="none" stroke="#63b8ff" d="M475.03,-48.32C464.16,-38.87 450.56,-27.06 441.48,-19.17"/>
<polygon fill="#63b8ff" stroke="#63b8ff" points="472.85,-51.07 482.7,-54.98 477.45,-45.78 472.85,-51.07"/>
</a>
</g>
</g>
<!-- Node30&#45;&gt;Node5 -->
<g id="edge37_Node000030_Node000005" class="edge">
<title>Node30&#45;&gt;Node5</title>
<g id="a_edge37_Node000030_Node000005"><a xlink:title=" ">
<path fill="none" stroke="#63b8ff" d="M981.64,-48.88C994.78,-39.34 1011.48,-27.21 1022.56,-19.17"/>
<polygon fill="#63b8ff" stroke="#63b8ff" points="979.26,-46.28 973.23,-54.98 983.38,-51.94 979.26,-46.28"/>
</a>
</g>
</g>
<!-- Node31 -->
<g id="Node000031" class="node">
<title>Node31</title>
<g id="a_Node000031"><a xlink:href="TempSensor_8cpp.html" target="_top" xlink:title=" ">
<polygon fill="white" stroke="#666666" points="985,-19 890,-19 890,0 985,0 985,-19"/>
<text text-anchor="middle" x="937.5" y="-7" font-family="Helvetica,sans-Serif" font-size="10.00">TempSensor.cpp</text>
</a>
</g>
</g>
<!-- Node30&#45;&gt;Node31 -->
<g id="edge36_Node000030_Node000031" class="edge">
<title>Node30&#45;&gt;Node31</title>
<g id="a_edge36_Node000030_Node000031"><a xlink:title=" ">
<path fill="none" stroke="#63b8ff" d="M953.36,-45.53C949.32,-36.6 944.62,-26.22 941.39,-19.09"/>
<polygon fill="#63b8ff" stroke="#63b8ff" points="950.22,-47.08 957.54,-54.75 956.6,-44.19 950.22,-47.08"/>
</a>
</g>
</g>
<!-- Node33 -->
<g id="Node000033" class="node">
<title>Node33</title>
<g id="a_Node000033"><a xlink:href="FlashStorage_8h.html" target="_top" xlink:title=" ">
<polygon fill="white" stroke="#666666" points="1952,-74 1863,-74 1863,-55 1952,-55 1952,-74"/>
<text text-anchor="middle" x="1907.5" y="-62" font-family="Helvetica,sans-Serif" font-size="10.00">FlashStorage.h</text>
</a>
</g>
</g>
<!-- Node32&#45;&gt;Node33 -->
<g id="edge40_Node000032_Node000033" class="edge">
<title>Node32&#45;&gt;Node33</title>
<g id="a_edge40_Node000032_Node000033"><a xlink:title=" ">
<path fill="none" stroke="#63b8ff" d="M1988.26,-105.5C1968.57,-95.75 1942.18,-82.68 1925,-74.17"/>
<polygon fill="#63b8ff" stroke="#63b8ff" points="1986.79,-108.68 1997.31,-109.98 1989.9,-102.41 1986.79,-108.68"/>
</a>
</g>
</g>
<!-- Node35 -->
<g id="Node000035" class="node">
<title>Node35</title>
<g id="a_Node000035"><a xlink:href="main1_8cpp.html" target="_top" xlink:title="Main functions for Core 1, responsible for sending data to storage peripherals.">
<polygon fill="white" stroke="#666666" points="2144.5,-19 2076.5,-19 2076.5,0 2144.5,0 2144.5,-19"/>
<text text-anchor="middle" x="2110.5" y="-7" font-family="Helvetica,sans-Serif" font-size="10.00">main1.cpp</text>
</a>
</g>
</g>
<!-- Node32&#45;&gt;Node35 -->
<g id="edge50_Node000032_Node000035" class="edge">
<title>Node32&#45;&gt;Node35</title>
<g id="a_edge50_Node000032_Node000035"><a xlink:title=" ">
<path fill="none" stroke="#63b8ff" d="M2032.5,-103.18C2041.83,-94.91 2053.19,-84.3 2062.5,-74 2079.19,-55.55 2096.14,-31.65 2104.73,-19.09"/>
<polygon fill="#63b8ff" stroke="#63b8ff" points="2030.16,-100.57 2024.92,-109.78 2034.76,-105.85 2030.16,-100.57"/>
</a>
</g>
</g>
<!-- Node36 -->
<g id="Node000036" class="node">
<title>Node36</title>
<g id="a_Node000036"><a xlink:href="RadioStorage_8h.html" target="_top" xlink:title=" ">
<polygon fill="white" stroke="#666666" points="2201,-74 2110,-74 2110,-55 2201,-55 2201,-74"/>
<text text-anchor="middle" x="2155.5" y="-62" font-family="Helvetica,sans-Serif" font-size="10.00">RadioStorage.h</text>
</a>
</g>
</g>
<!-- Node32&#45;&gt;Node36 -->
<g id="edge44_Node000032_Node000036" class="edge">
<title>Node32&#45;&gt;Node36</title>
<g id="a_edge44_Node000032_Node000036"><a xlink:title=" ">
<path fill="none" stroke="#63b8ff" d="M2046.64,-106.42C2072.79,-96.59 2109.09,-82.95 2132.43,-74.17"/>
<polygon fill="#63b8ff" stroke="#63b8ff" points="2045.28,-103.19 2037.15,-109.98 2047.75,-109.74 2045.28,-103.19"/>
</a>
</g>
</g>
<!-- Node38 -->
<g id="Node000038" class="node">
<title>Node38</title>
<g id="a_Node000038"><a xlink:href="SDStorage_8h.html" target="_top" xlink:title=" ">
<polygon fill="white" stroke="#666666" points="2053,-74 1976,-74 1976,-55 2053,-55 2053,-74"/>
<text text-anchor="middle" x="2014.5" y="-62" font-family="Helvetica,sans-Serif" font-size="10.00">SDStorage.h</text>
</a>
</g>
</g>
<!-- Node32&#45;&gt;Node38 -->
<g id="edge47_Node000032_Node000038" class="edge">
<title>Node32&#45;&gt;Node38</title>
<g id="a_edge47_Node000032_Node000038"><a xlink:title=" ">
<path fill="none" stroke="#63b8ff" d="M2014.5,-99.66C2014.5,-90.93 2014.5,-80.99 2014.5,-74.09"/>
<polygon fill="#63b8ff" stroke="#63b8ff" points="2011,-99.75 2014.5,-109.75 2018,-99.75 2011,-99.75"/>
</a>
</g>
</g>
<!-- Node33&#45;&gt;Node5 -->
<g id="edge42_Node000033_Node000005" class="edge">
<title>Node33&#45;&gt;Node5</title>
<g id="a_edge42_Node000033_Node000005"><a xlink:title=" ">
<path fill="none" stroke="#63b8ff" d="M1852.63,-56.94C1845.53,-56.22 1838.35,-55.55 1831.5,-55 1495.74,-28.27 1408.55,-62.15 1074.5,-19 1071.68,-18.64 1068.77,-18.18 1065.86,-17.67"/>
<polygon fill="#63b8ff" stroke="#63b8ff" points="1852.62,-60.46 1862.94,-58.03 1853.36,-53.5 1852.62,-60.46"/>
</a>
</g>
</g>
<!-- Node34 -->
<g id="Node000034" class="node">
<title>Node34</title>
<g id="a_Node000034"><a xlink:href="FlashStorage_8cpp.html" target="_top" xlink:title=" ">
<polygon fill="white" stroke="#666666" points="1952,-19 1851,-19 1851,0 1952,0 1952,-19"/>
<text text-anchor="middle" x="1901.5" y="-7" font-family="Helvetica,sans-Serif" font-size="10.00">FlashStorage.cpp</text>
</a>
</g>
</g>
<!-- Node33&#45;&gt;Node34 -->
<g id="edge41_Node000033_Node000034" class="edge">
<title>Node33&#45;&gt;Node34</title>
<g id="a_edge41_Node000033_Node000034"><a xlink:title=" ">
<path fill="none" stroke="#63b8ff" d="M1905.37,-44.66C1904.38,-35.93 1903.25,-25.99 1902.47,-19.09"/>
<polygon fill="#63b8ff" stroke="#63b8ff" points="1901.91,-45.21 1906.51,-54.75 1908.86,-44.42 1901.91,-45.21"/>
</a>
</g>
</g>
<!-- Node33&#45;&gt;Node35 -->
<g id="edge43_Node000033_Node000035" class="edge">
<title>Node33&#45;&gt;Node35</title>
<g id="a_edge43_Node000033_Node000035"><a xlink:title=" ">
<path fill="none" stroke="#63b8ff" d="M1949.87,-52.44C1987.87,-42.52 2042.86,-28.16 2077.63,-19.08"/>
<polygon fill="#63b8ff" stroke="#63b8ff" points="1948.91,-49.07 1940.12,-54.98 1950.68,-55.84 1948.91,-49.07"/>
</a>
</g>
</g>
<!-- Node36&#45;&gt;Node35 -->
<g id="edge46_Node000036_Node000035" class="edge">
<title>Node36&#45;&gt;Node35</title>
<g id="a_edge46_Node000036_Node000035"><a xlink:title=" ">
<path fill="none" stroke="#63b8ff" d="M2141.45,-46.96C2133.61,-37.72 2124.17,-26.6 2117.79,-19.09"/>
<polygon fill="#63b8ff" stroke="#63b8ff" points="2138.93,-49.39 2148.07,-54.75 2144.26,-44.86 2138.93,-49.39"/>
</a>
</g>
</g>
<!-- Node37 -->
<g id="Node000037" class="node">
<title>Node37</title>
<g id="a_Node000037"><a xlink:href="RadioStorage_8cpp.html" target="_top" xlink:title=" ">
<polygon fill="white" stroke="#666666" points="2264.5,-19 2162.5,-19 2162.5,0 2264.5,0 2264.5,-19"/>
<text text-anchor="middle" x="2213.5" y="-7" font-family="Helvetica,sans-Serif" font-size="10.00">RadioStorage.cpp</text>
</a>
</g>
</g>
<!-- Node36&#45;&gt;Node37 -->
<g id="edge45_Node000036_Node000037" class="edge">
<title>Node36&#45;&gt;Node37</title>
<g id="a_edge45_Node000036_Node000037"><a xlink:title=" ">
<path fill="none" stroke="#63b8ff" d="M2172.41,-48.04C2182.7,-38.64 2195.47,-26.98 2204.01,-19.17"/>
<polygon fill="#63b8ff" stroke="#63b8ff" points="2169.84,-45.66 2164.82,-54.98 2174.56,-50.82 2169.84,-45.66"/>
</a>
</g>
</g>
<!-- Node38&#45;&gt;Node35 -->
<g id="edge49_Node000038_Node000035" class="edge">
<title>Node38&#45;&gt;Node35</title>
<g id="a_edge49_Node000038_Node000035"><a xlink:title=" ">
<path fill="none" stroke="#63b8ff" d="M2039.02,-49.97C2056.56,-40.28 2079.67,-27.52 2094.8,-19.17"/>
<polygon fill="#63b8ff" stroke="#63b8ff" points="2036.99,-47.09 2029.92,-54.98 2040.37,-53.22 2036.99,-47.09"/>
</a>
</g>
</g>
<!-- Node39 -->
<g id="Node000039" class="node">
<title>Node39</title>
<g id="a_Node000039"><a xlink:href="SDStorage_8cpp.html" target="_top" xlink:title=" ">
<polygon fill="white" stroke="#666666" points="2058.5,-19 1970.5,-19 1970.5,0 2058.5,0 2058.5,-19"/>
<text text-anchor="middle" x="2014.5" y="-7" font-family="Helvetica,sans-Serif" font-size="10.00">SDStorage.cpp</text>
</a>
</g>
</g>
<!-- Node38&#45;&gt;Node39 -->
<g id="edge48_Node000038_Node000039" class="edge">
<title>Node38&#45;&gt;Node39</title>
<g id="a_edge48_Node000038_Node000039"><a xlink:title=" ">
<path fill="none" stroke="#63b8ff" d="M2014.5,-44.66C2014.5,-35.93 2014.5,-25.99 2014.5,-19.09"/>
<polygon fill="#63b8ff" stroke="#63b8ff" points="2011,-44.75 2014.5,-54.75 2018,-44.75 2011,-44.75"/>
</a>
</g>
</g>
</g>
</svg>

<g id="navigator" transform="translate(0 0)" fill="#404254">
  <rect fill="#f2f5e9" fill-opacity="0.5" stroke="#606060" stroke-width=".5" x="0" y="0" width="60" height="60"/>
  <use id="zoomplus" xlink:href="#zoomPlus" x="17" y="9" onmousedown="handleZoom(evt,'in')"/>
  <use id="zoomminus" xlink:href="#zoomMin" x="42" y="9" onmousedown="handleZoom(evt,'out')"/>
  <use id="reset" xlink:href="#resetDef" x="30" y="36" onmousedown="handleReset()"/>
   <use id="arrowup" xlink:href="#arrowUp" x="0" y="0" onmousedown="handlePan(0,-1)"/>
  <use id="arrowright" xlink:href="#arrowRight" x="0" y="0" onmousedown="handlePan(1,0)"/>
  <use id="arrowdown" xlink:href="#arrowDown" x="0" y="0" onmousedown="handlePan(0,1)"/>
  <use id="arrowleft" xlink:href="#arrowLeft" x="0" y="0" onmousedown="handlePan(-1,0)"/>
</g>
<svg viewBox="0 0 15 15" width="100%" height="30px" preserveAspectRatio="xMaxYMin meet">
 <g id="arrow_out" transform="scale(0.3 0.3)">
  <a xlink:href="Device_8h__dep__incl_org.svg" target="_base">
   <rect id="button" ry="5" rx="5" y="6" x="6" height="38" width="38"
        fill="#f2f5e9" fill-opacity="0.5" stroke="#606060" stroke-width="1.0"/>
   <path id="arrow"
     d="M 11.500037,31.436501 C 11.940474,20.09759 22.043105,11.32322 32.158766,21.979434 L 37.068811,17.246167 C 37.068811,17.246167 37.088388,32 37.088388,32 L 22.160133,31.978069 C 22.160133,31.978069 26.997745,27.140456 26.997745,27.140456 C 18.528582,18.264221 13.291696,25.230495 11.500037,31.436501 z"
     style="fill:#404040;"/>
  </a>
 </g>
</svg>

<style type='text/css'>
<![CDATA[
[data-mouse-over-selected='false'] { opacity: 0.7; }
[data-mouse-over-selected='true']  { opacity: 1.0; }
]]>
</style>
<script type="application/ecmascript"><![CDATA[
document.addEventListener('DOMContentLoaded', (event) => {
  highlightEdges();
  highlightAdjacentNodes();
});
]]></script>
</svg>
