<?xml version="1.0" encoding="UTF-8" standalone="no"?>
<!DOCTYPE svg PUBLIC "-//W3C//DTD SVG 1.1//EN"
 "http://www.w3.org/Graphics/SVG/1.1/DTD/svg11.dtd">
<!-- Generated by graphviz version 2.43.0 (0)
 -->
<!-- Title: Device.h Pages: 1 -->
<!--zoomable 192 -->

<svg id="main" version="1.1" xmlns="http://www.w3.org/2000/svg" xmlns:xlink="http://www.w3.org/1999/xlink" xml:space="preserve" onload="init(evt)">
<style type="text/css"><![CDATA[
.node, .edge {opacity: 0.7;}
.node.selected, .edge.selected {opacity: 1;}
.edge:hover path { stroke: red; }
.edge:hover polygon { stroke: red; fill: red; }
]]></style>

<defs>
  <circle id="rim" cx="0" cy="0" r="7"/>
  <circle id="rim2" cx="0" cy="0" r="3.5"/>
  <g id="zoomPlus">
    <use xlink:href="#rim" fill="#404040"><set attributeName="fill" to="#808080" begin="zoomplus.mouseover" end="zoomplus.mouseout"/></use>
    <path d="M-4,0h8M0,-4v8" fill="none" stroke="white" stroke-width="1.5" pointer-events="none"/>
  </g>
  <g id="zoomMin">
    <use xlink:href="#rim" fill="#404040"><set attributeName="fill" to="#808080" begin="zoomminus.mouseover" end="zoomminus.mouseout"/></use>
    <path d="M-4,0h8" fill="none" stroke="white" stroke-width="1.5" pointer-events="none"/>
  </g>
  <g id="arrowUp" transform="translate(30 24)">
    <use xlink:href="#rim"/>
    <path pointer-events="none" fill="none" stroke="white" stroke-width="1.5" d="M0,-3.0v7 M-2.5,-0.5L0,-3.0L2.5,-0.5"/>
  </g>
  <g id="arrowRight" transform="rotate(90) translate(36 -43)">
    <use xlink:href="#rim"/>
    <path pointer-events="none" fill="none" stroke="white" stroke-width="1.5" d="M0,-3.0v7 M-2.5,-0.5L0,-3.0L2.5,-0.5"/>
  </g>
  <g id="arrowDown" transform="rotate(180) translate(-30 -48)">
    <use xlink:href="#rim"/>
    <path pointer-events="none" fill="none" stroke="white" stroke-width="1.5" d="M0,-3.0v7 M-2.5,-0.5L0,-3.0L2.5,-0.5"/>
  </g>
  <g id="arrowLeft" transform="rotate(270) translate(-36 17)">
    <use xlink:href="#rim"/>
    <path pointer-events="none" fill="none" stroke="white" stroke-width="1.5" d="M0,-3.0v7 M-2.5,-0.5L0,-3.0L2.5,-0.5"/>
  </g>
  <g id="resetDef">
    <use xlink:href="#rim2" fill="#404040"><set attributeName="fill" to="#808080" begin="reset.mouseover" end="reset.mouseout"/></use>
  </g>
</defs>
<script type="application/ecmascript">
var viewWidth = 2393;
var viewHeight = 192;
var sectionId = 'dynsection-1';
</script>
<script type="application/ecmascript" xlink:href="svg.min.js"/>
<svg id="graph" class="graph">
<g id="viewport">
<title>Device.h</title>
<!-- Node1 -->
<g id="Node000001" class="node">
<title>Node1</title>
<g id="a_Node000001"><a xlink:title=" ">
<polygon fill="#999999" stroke="#666666" points="1594,-184 1535,-184 1535,-165 1594,-165 1594,-184"/>
<text text-anchor="middle" x="1564.5" y="-172" font-family="Helvetica,sans-Serif" font-size="10.00">Device.h</text>
</a>
</g>
</g>
<!-- Node2 -->
<g id="Node000002" class="node">
<title>Node2</title>
<g id="a_Node000002"><a xlink:href="Sensor_8h.html" target="_top" xlink:title=" ">
<polygon fill="white" stroke="#666666" points="1064.5,-129 1006.5,-129 1006.5,-110 1064.5,-110 1064.5,-129"/>
<text text-anchor="middle" x="1035.5" y="-117" font-family="Helvetica,sans-Serif" font-size="10.00">Sensor.h</text>
</a>
</g>
</g>
<!-- Node1&#45;&gt;Node2 -->
<g id="edge1_Node000001_Node000002" class="edge">
<title>Node1&#45;&gt;Node2</title>
<g id="a_edge1_Node000001_Node000002"><a xlink:title=" ">
<path fill="none" stroke="#63b8ff" d="M1524.74,-169.52C1422.74,-159.3 1153.56,-132.33 1064.54,-123.41"/>
<polygon fill="#63b8ff" stroke="#63b8ff" points="1524.63,-173.02 1534.93,-170.54 1525.32,-166.06 1524.63,-173.02"/>
</a>
</g>
</g>
<!-- Node34 -->
<g id="Node000034" class="node">
<title>Node34</title>
<g id="a_Node000034"><a xlink:href="Storage_8h.html" target="_top" xlink:title=" ">
<polygon fill="white" stroke="#666666" points="2126,-129 2063,-129 2063,-110 2126,-110 2126,-129"/>
<text text-anchor="middle" x="2094.5" y="-117" font-family="Helvetica,sans-Serif" font-size="10.00">Storage.h</text>
</a>
</g>
</g>
<!-- Node1&#45;&gt;Node34 -->
<g id="edge41_Node000001_Node000034" class="edge">
<title>Node1&#45;&gt;Node34</title>
<g id="a_edge41_Node000001_Node000034"><a xlink:title=" ">
<path fill="none" stroke="#63b8ff" d="M1604.23,-169.53C1705.36,-159.41 1970.97,-132.85 2062.76,-123.67"/>
<polygon fill="#63b8ff" stroke="#63b8ff" points="1603.73,-166.06 1594.13,-170.54 1604.43,-173.02 1603.73,-166.06"/>
</a>
</g>
</g>
<!-- Node3 -->
<g id="Node000003" class="node">
<title>Node3</title>
<g id="a_Node000003"><a xlink:href="AS7331Sensor_8h.html" target="_top" xlink:title=" ">
<polygon fill="white" stroke="#666666" points="1159,-74 1064,-74 1064,-55 1159,-55 1159,-74"/>
<text text-anchor="middle" x="1111.5" y="-62" font-family="Helvetica,sans-Serif" font-size="10.00">AS7331Sensor.h</text>
</a>
</g>
</g>
<!-- Node2&#45;&gt;Node3 -->
<g id="edge2_Node000002_Node000003" class="edge">
<title>Node2&#45;&gt;Node3</title>
<g id="a_edge2_Node000002_Node000003"><a xlink:title=" ">
<path fill="none" stroke="#63b8ff" d="M1056.08,-104.15C1069.81,-94.57 1087.43,-82.29 1099.07,-74.17"/>
<polygon fill="#63b8ff" stroke="#63b8ff" points="1053.91,-101.39 1047.71,-109.98 1057.92,-107.14 1053.91,-101.39"/>
</a>
</g>
</g>
<!-- Node5 -->
<g id="Node000005" class="node">
<title>Node5</title>
<g id="a_Node000005"><a xlink:href="main_8cpp.html" target="_top" xlink:title="Main functions for Core 0, responsible for reading data from sensor peripherals.">
<polygon fill="white" stroke="#666666" points="1066.5,-19 1004.5,-19 1004.5,0 1066.5,0 1066.5,-19"/>
<text text-anchor="middle" x="1035.5" y="-7" font-family="Helvetica,sans-Serif" font-size="10.00">main.cpp</text>
</a>
</g>
</g>
<!-- Node2&#45;&gt;Node5 -->
<g id="edge40_Node000002_Node000005" class="edge">
<title>Node2&#45;&gt;Node5</title>
<g id="a_edge40_Node000002_Node000005"><a xlink:title=" ">
<path fill="none" stroke="#63b8ff" d="M1035.5,-99.48C1035.5,-75.84 1035.5,-36.5 1035.5,-19.16"/>
<polygon fill="#63b8ff" stroke="#63b8ff" points="1032,-99.66 1035.5,-109.66 1039,-99.66 1032,-99.66"/>
</a>
</g>
</g>
<!-- Node6 -->
<g id="Node000006" class="node">
<title>Node6</title>
<g id="a_Node000006"><a xlink:href="BME280Sensor_8h.html" target="_top" xlink:title=" ">
<polygon fill="white" stroke="#666666" points="1939.5,-74 1841.5,-74 1841.5,-55 1939.5,-55 1939.5,-74"/>
<text text-anchor="middle" x="1890.5" y="-62" font-family="Helvetica,sans-Serif" font-size="10.00">BME280Sensor.h</text>
</a>
</g>
</g>
<!-- Node2&#45;&gt;Node6 -->
<g id="edge5_Node000002_Node000006" class="edge">
<title>Node2&#45;&gt;Node6</title>
<g id="a_edge5_Node000002_Node000006"><a xlink:title=" ">
<path fill="none" stroke="#63b8ff" d="M1074.62,-117.26C1189.64,-113.4 1536.69,-100.26 1823.5,-74 1829.22,-73.48 1835.21,-72.84 1841.15,-72.16"/>
<polygon fill="#63b8ff" stroke="#63b8ff" points="1074.41,-113.76 1064.53,-117.59 1074.64,-120.76 1074.41,-113.76"/>
</a>
</g>
</g>
<!-- Node8 -->
<g id="Node000008" class="node">
<title>Node8</title>
<g id="a_Node000008"><a xlink:href="BME680Sensor_8h.html" target="_top" xlink:title=" ">
<polygon fill="white" stroke="#666666" points="110.5,-74 12.5,-74 12.5,-55 110.5,-55 110.5,-74"/>
<text text-anchor="middle" x="61.5" y="-62" font-family="Helvetica,sans-Serif" font-size="10.00">BME680Sensor.h</text>
</a>
</g>
</g>
<!-- Node2&#45;&gt;Node8 -->
<g id="edge7_Node000002_Node000008" class="edge">
<title>Node2&#45;&gt;Node8</title>
<g id="a_edge7_Node000002_Node000008"><a xlink:title=" ">
<path fill="none" stroke="#63b8ff" d="M996.4,-116.84C874.39,-111.6 489.73,-94.49 171.5,-74 151.62,-72.72 129.74,-71.08 110.76,-69.58"/>
<polygon fill="#63b8ff" stroke="#63b8ff" points="996.26,-120.34 1006.4,-117.27 996.55,-113.35 996.26,-120.34"/>
</a>
</g>
</g>
<!-- Node10 -->
<g id="Node000010" class="node">
<title>Node10</title>
<g id="a_Node000010"><a xlink:href="BMP390Sensor_8h.html" target="_top" xlink:title=" ">
<polygon fill="white" stroke="#666666" points="1275.5,-74 1177.5,-74 1177.5,-55 1275.5,-55 1275.5,-74"/>
<text text-anchor="middle" x="1226.5" y="-62" font-family="Helvetica,sans-Serif" font-size="10.00">BMP390Sensor.h</text>
</a>
</g>
</g>
<!-- Node2&#45;&gt;Node10 -->
<g id="edge9_Node000002_Node000010" class="edge">
<title>Node2&#45;&gt;Node10</title>
<g id="a_edge9_Node000002_Node000010"><a xlink:title=" ">
<path fill="none" stroke="#63b8ff" d="M1074.59,-107.65C1110.4,-97.72 1162.68,-83.21 1195.63,-74.07"/>
<polygon fill="#63b8ff" stroke="#63b8ff" points="1073.21,-104.4 1064.51,-110.45 1075.08,-111.15 1073.21,-104.4"/>
</a>
</g>
</g>
<!-- Node12 -->
<g id="Node000012" class="node">
<title>Node12</title>
<g id="a_Node000012"><a xlink:href="DS3231Sensor_8h.html" target="_top" xlink:title=" ">
<polygon fill="white" stroke="#666666" points="276,-74 181,-74 181,-55 276,-55 276,-74"/>
<text text-anchor="middle" x="228.5" y="-62" font-family="Helvetica,sans-Serif" font-size="10.00">DS3231Sensor.h</text>
</a>
</g>
</g>
<!-- Node2&#45;&gt;Node12 -->
<g id="edge12_Node000002_Node000012" class="edge">
<title>Node2&#45;&gt;Node12</title>
<g id="a_edge12_Node000002_Node000012"><a xlink:title=" ">
<path fill="none" stroke="#63b8ff" d="M995.95,-116.64C886.84,-111.37 572.35,-95.36 311.5,-74 300.09,-73.07 287.82,-71.9 276.31,-70.73"/>
<polygon fill="#63b8ff" stroke="#63b8ff" points="996,-120.14 1006.16,-117.13 996.34,-113.15 996,-120.14"/>
</a>
</g>
</g>
<!-- Node14 -->
<g id="Node000014" class="node">
<title>Node14</title>
<g id="a_Node000014"><a xlink:href="ENS160Sensor_8h.html" target="_top" xlink:title=" ">
<polygon fill="white" stroke="#666666" points="1389,-74 1294,-74 1294,-55 1389,-55 1389,-74"/>
<text text-anchor="middle" x="1341.5" y="-62" font-family="Helvetica,sans-Serif" font-size="10.00">ENS160Sensor.h</text>
</a>
</g>
</g>
<!-- Node2&#45;&gt;Node14 -->
<g id="edge14_Node000002_Node000014" class="edge">
<title>Node2&#45;&gt;Node14</title>
<g id="a_edge14_Node000002_Node000014"><a xlink:title=" ">
<path fill="none" stroke="#63b8ff" d="M1074.44,-111.76C1130.36,-102.07 1233.31,-84.24 1293.75,-73.77"/>
<polygon fill="#63b8ff" stroke="#63b8ff" points="1073.82,-108.31 1064.56,-113.47 1075.01,-115.21 1073.82,-108.31"/>
</a>
</g>
</g>
<!-- Node16 -->
<g id="Node000016" class="node">
<title>Node16</title>
<g id="a_Node000016"><a xlink:href="ICM20948Sensor_8h.html" target="_top" xlink:title=" ">
<polygon fill="white" stroke="#666666" points="1514,-74 1407,-74 1407,-55 1514,-55 1514,-74"/>
<text text-anchor="middle" x="1460.5" y="-62" font-family="Helvetica,sans-Serif" font-size="10.00">ICM20948Sensor.h</text>
</a>
</g>
</g>
<!-- Node2&#45;&gt;Node16 -->
<g id="edge17_Node000002_Node000016" class="edge">
<title>Node2&#45;&gt;Node16</title>
<g id="a_edge17_Node000002_Node000016"><a xlink:title=" ">
<path fill="none" stroke="#63b8ff" d="M1074.63,-113.84C1141.04,-105.91 1280.07,-89.14 1397.5,-74 1400.56,-73.6 1403.71,-73.19 1406.89,-72.78"/>
<polygon fill="#63b8ff" stroke="#63b8ff" points="1074.12,-110.38 1064.61,-115.04 1074.95,-117.33 1074.12,-110.38"/>
</a>
</g>
</g>
<!-- Node18 -->
<g id="Node000018" class="node">
<title>Node18</title>
<g id="a_Node000018"><a xlink:href="INA260Sensor_8h.html" target="_top" xlink:title=" ">
<polygon fill="white" stroke="#666666" points="663,-74 570,-74 570,-55 663,-55 663,-74"/>
<text text-anchor="middle" x="616.5" y="-62" font-family="Helvetica,sans-Serif" font-size="10.00">INA260Sensor.h</text>
</a>
</g>
</g>
<!-- Node2&#45;&gt;Node18 -->
<g id="edge20_Node000002_Node000018" class="edge">
<title>Node2&#45;&gt;Node18</title>
<g id="a_edge20_Node000002_Node000018"><a xlink:title=" ">
<path fill="none" stroke="#63b8ff" d="M996.24,-114.06C929.6,-106.44 790.13,-90.13 672.5,-74 669.48,-73.59 666.37,-73.15 663.24,-72.7"/>
<polygon fill="#63b8ff" stroke="#63b8ff" points="995.96,-117.55 1006.29,-115.21 996.75,-110.6 995.96,-117.55"/>
</a>
</g>
</g>
<!-- Node20 -->
<g id="Node000020" class="node">
<title>Node20</title>
<g id="a_Node000020"><a xlink:href="LSM9DS1Sensor_8h.html" target="_top" xlink:title=" ">
<polygon fill="white" stroke="#666666" points="424.5,-74 320.5,-74 320.5,-55 424.5,-55 424.5,-74"/>
<text text-anchor="middle" x="372.5" y="-62" font-family="Helvetica,sans-Serif" font-size="10.00">LSM9DS1Sensor.h</text>
</a>
</g>
</g>
<!-- Node2&#45;&gt;Node20 -->
<g id="edge23_Node000002_Node000020" class="edge">
<title>Node2&#45;&gt;Node20</title>
<g id="a_edge23_Node000002_Node000020"><a xlink:title=" ">
<path fill="none" stroke="#63b8ff" d="M996.09,-116.05C901.32,-110.06 653.17,-93.67 446.5,-74 439.42,-73.33 431.97,-72.55 424.63,-71.75"/>
<polygon fill="#63b8ff" stroke="#63b8ff" points="996.15,-119.57 1006.35,-116.7 996.59,-112.58 996.15,-119.57"/>
</a>
</g>
</g>
<!-- Node22 -->
<g id="Node000022" class="node">
<title>Node22</title>
<g id="a_Node000022"><a xlink:href="MTK3339Sensor_8h.html" target="_top" xlink:title=" ">
<polygon fill="white" stroke="#666666" points="785.5,-74 681.5,-74 681.5,-55 785.5,-55 785.5,-74"/>
<text text-anchor="middle" x="733.5" y="-62" font-family="Helvetica,sans-Serif" font-size="10.00">MTK3339Sensor.h</text>
</a>
</g>
</g>
<!-- Node2&#45;&gt;Node22 -->
<g id="edge25_Node000002_Node000022" class="edge">
<title>Node2&#45;&gt;Node22</title>
<g id="a_edge25_Node000002_Node000022"><a xlink:title=" ">
<path fill="none" stroke="#63b8ff" d="M996.23,-111.61C941.29,-101.97 841.56,-84.46 782.04,-74.02"/>
<polygon fill="#63b8ff" stroke="#63b8ff" points="995.81,-115.09 1006.27,-113.37 997.02,-108.19 995.81,-115.09"/>
</a>
</g>
</g>
<!-- Node24 -->
<g id="Node000024" class="node">
<title>Node24</title>
<g id="a_Node000024"><a xlink:href="PCF8523Sensor_8h.html" target="_top" xlink:title=" ">
<polygon fill="white" stroke="#666666" points="905,-74 804,-74 804,-55 905,-55 905,-74"/>
<text text-anchor="middle" x="854.5" y="-62" font-family="Helvetica,sans-Serif" font-size="10.00">PCF8523Sensor.h</text>
</a>
</g>
</g>
<!-- Node2&#45;&gt;Node24 -->
<g id="edge28_Node000002_Node000024" class="edge">
<title>Node2&#45;&gt;Node24</title>
<g id="a_edge28_Node000002_Node000024"><a xlink:title=" ">
<path fill="none" stroke="#63b8ff" d="M996.42,-107.06C962.59,-97.15 914.42,-83.04 883.81,-74.08"/>
<polygon fill="#63b8ff" stroke="#63b8ff" points="995.84,-110.53 1006.42,-109.98 997.81,-103.82 995.84,-110.53"/>
</a>
</g>
</g>
<!-- Node26 -->
<g id="Node000026" class="node">
<title>Node26</title>
<g id="a_Node000026"><a xlink:href="SGP30Sensor_8h.html" target="_top" xlink:title=" ">
<polygon fill="white" stroke="#666666" points="545,-74 456,-74 456,-55 545,-55 545,-74"/>
<text text-anchor="middle" x="500.5" y="-62" font-family="Helvetica,sans-Serif" font-size="10.00">SGP30Sensor.h</text>
</a>
</g>
</g>
<!-- Node2&#45;&gt;Node26 -->
<g id="edge31_Node000002_Node000026" class="edge">
<title>Node2&#45;&gt;Node26</title>
<g id="a_edge31_Node000002_Node000026"><a xlink:title=" ">
<path fill="none" stroke="#63b8ff" d="M995.96,-115.43C914.42,-108.97 721.69,-92.96 560.5,-74 555.48,-73.41 550.24,-72.74 545.03,-72.05"/>
<polygon fill="#63b8ff" stroke="#63b8ff" points="996.02,-118.95 1006.26,-116.25 996.57,-111.97 996.02,-118.95"/>
</a>
</g>
</g>
<!-- Node28 -->
<g id="Node000028" class="node">
<title>Node28</title>
<g id="a_Node000028"><a xlink:href="SHTC3Sensor_8h.html" target="_top" xlink:title=" ">
<polygon fill="white" stroke="#666666" points="1657,-74 1568,-74 1568,-55 1657,-55 1657,-74"/>
<text text-anchor="middle" x="1612.5" y="-62" font-family="Helvetica,sans-Serif" font-size="10.00">SHTC3Sensor.h</text>
</a>
</g>
</g>
<!-- Node2&#45;&gt;Node28 -->
<g id="edge33_Node000002_Node000028" class="edge">
<title>Node2&#45;&gt;Node28</title>
<g id="a_edge33_Node000002_Node000028"><a xlink:title=" ">
<path fill="none" stroke="#63b8ff" d="M1074.8,-114.95C1157.61,-107.46 1356.07,-89.46 1522.5,-74 1537.19,-72.64 1553.23,-71.13 1567.64,-69.76"/>
<polygon fill="#63b8ff" stroke="#63b8ff" points="1074.24,-111.49 1064.6,-115.87 1074.87,-118.46 1074.24,-111.49"/>
</a>
</g>
</g>
<!-- Node30 -->
<g id="Node000030" class="node">
<title>Node30</title>
<g id="a_Node000030"><a xlink:href="TMP117Sensor_8h.html" target="_top" xlink:title=" ">
<polygon fill="white" stroke="#666666" points="1814,-74 1717,-74 1717,-55 1814,-55 1814,-74"/>
<text text-anchor="middle" x="1765.5" y="-62" font-family="Helvetica,sans-Serif" font-size="10.00">TMP117Sensor.h</text>
</a>
</g>
</g>
<!-- Node2&#45;&gt;Node30 -->
<g id="edge35_Node000002_Node000030" class="edge">
<title>Node2&#45;&gt;Node30</title>
<g id="a_edge35_Node000002_Node000030"><a xlink:title=" ">
<path fill="none" stroke="#63b8ff" d="M1074.87,-115.92C1174.05,-109.36 1442.16,-91.38 1665.5,-74 1682.26,-72.7 1700.6,-71.17 1716.94,-69.77"/>
<polygon fill="#63b8ff" stroke="#63b8ff" points="1074.46,-112.43 1064.71,-116.59 1074.92,-119.42 1074.46,-112.43"/>
</a>
</g>
</g>
<!-- Node32 -->
<g id="Node000032" class="node">
<title>Node32</title>
<g id="a_Node000032"><a xlink:href="TempSensor_8h.html" target="_top" xlink:title=" ">
<polygon fill="white" stroke="#666666" points="1007.5,-74 923.5,-74 923.5,-55 1007.5,-55 1007.5,-74"/>
<text text-anchor="middle" x="965.5" y="-62" font-family="Helvetica,sans-Serif" font-size="10.00">TempSensor.h</text>
</a>
</g>
</g>
<!-- Node2&#45;&gt;Node32 -->
<g id="edge37_Node000002_Node000032" class="edge">
<title>Node2&#45;&gt;Node32</title>
<g id="a_edge37_Node000002_Node000032"><a xlink:title=" ">
<path fill="none" stroke="#63b8ff" d="M1016.19,-103.88C1003.59,-94.34 987.57,-82.21 976.95,-74.17"/>
<polygon fill="#63b8ff" stroke="#63b8ff" points="1014.17,-106.74 1024.25,-109.98 1018.39,-101.16 1014.17,-106.74"/>
</a>
</g>
</g>
<!-- Node4 -->
<g id="Node000004" class="node">
<title>Node4</title>
<g id="a_Node000004"><a xlink:href="AS7331Sensor_8cpp.html" target="_top" xlink:title=" ">
<polygon fill="white" stroke="#666666" points="1190.5,-19 1084.5,-19 1084.5,0 1190.5,0 1190.5,-19"/>
<text text-anchor="middle" x="1137.5" y="-7" font-family="Helvetica,sans-Serif" font-size="10.00">AS7331Sensor.cpp</text>
</a>
</g>
</g>
<!-- Node3&#45;&gt;Node4 -->
<g id="edge3_Node000003_Node000004" class="edge">
<title>Node3&#45;&gt;Node4</title>
<g id="a_edge3_Node000003_Node000004"><a xlink:title=" ">
<path fill="none" stroke="#63b8ff" d="M1120.32,-45.53C1124.7,-36.6 1129.79,-26.22 1133.29,-19.09"/>
<polygon fill="#63b8ff" stroke="#63b8ff" points="1117.06,-44.23 1115.79,-54.75 1123.34,-47.31 1117.06,-44.23"/>
</a>
</g>
</g>
<!-- Node3&#45;&gt;Node5 -->
<g id="edge4_Node000003_Node000005" class="edge">
<title>Node3&#45;&gt;Node5</title>
<g id="a_edge4_Node000003_Node000005"><a xlink:title=" ">
<path fill="none" stroke="#63b8ff" d="M1090.92,-49.15C1077.19,-39.57 1059.57,-27.29 1047.93,-19.17"/>
<polygon fill="#63b8ff" stroke="#63b8ff" points="1089.08,-52.14 1099.29,-54.98 1093.09,-46.39 1089.08,-52.14"/>
</a>
</g>
</g>
<!-- Node7 -->
<g id="Node000007" class="node">
<title>Node7</title>
<g id="a_Node000007"><a xlink:href="BME280Sensor_8cpp.html" target="_top" xlink:title=" ">
<polygon fill="white" stroke="#666666" points="1953,-19 1844,-19 1844,0 1953,0 1953,-19"/>
<text text-anchor="middle" x="1898.5" y="-7" font-family="Helvetica,sans-Serif" font-size="10.00">BME280Sensor.cpp</text>
</a>
</g>
</g>
<!-- Node6&#45;&gt;Node7 -->
<g id="edge6_Node000006_Node000007" class="edge">
<title>Node6&#45;&gt;Node7</title>
<g id="a_edge6_Node000006_Node000007"><a xlink:title=" ">
<path fill="none" stroke="#63b8ff" d="M1893.34,-44.66C1894.66,-35.93 1896.16,-25.99 1897.2,-19.09"/>
<polygon fill="#63b8ff" stroke="#63b8ff" points="1889.85,-44.34 1891.82,-54.75 1896.77,-45.38 1889.85,-44.34"/>
</a>
</g>
</g>
<!-- Node9 -->
<g id="Node000009" class="node">
<title>Node9</title>
<g id="a_Node000009"><a xlink:href="BME680Sensor_8cpp.html" target="_top" xlink:title=" ">
<polygon fill="white" stroke="#666666" points="109,-19 0,-19 0,0 109,0 109,-19"/>
<text text-anchor="middle" x="54.5" y="-7" font-family="Helvetica,sans-Serif" font-size="10.00">BME680Sensor.cpp</text>
</a>
</g>
</g>
<!-- Node8&#45;&gt;Node9 -->
<g id="edge8_Node000008_Node000009" class="edge">
<title>Node8&#45;&gt;Node9</title>
<g id="a_edge8_Node000008_Node000009"><a xlink:title=" ">
<path fill="none" stroke="#63b8ff" d="M59.01,-44.66C57.86,-35.93 56.55,-25.99 55.63,-19.09"/>
<polygon fill="#63b8ff" stroke="#63b8ff" points="55.56,-45.29 60.34,-54.75 62.5,-44.38 55.56,-45.29"/>
</a>
</g>
</g>
<!-- Node10&#45;&gt;Node5 -->
<g id="edge11_Node000010_Node000005" class="edge">
<title>Node10&#45;&gt;Node5</title>
<g id="a_edge11_Node000010_Node000005"><a xlink:title=" ">
<path fill="none" stroke="#63b8ff" d="M1185.72,-52.18C1150,-42.27 1098.87,-28.08 1066.43,-19.08"/>
<polygon fill="#63b8ff" stroke="#63b8ff" points="1185.24,-55.68 1195.81,-54.98 1187.11,-48.94 1185.24,-55.68"/>
</a>
</g>
</g>
<!-- Node11 -->
<g id="Node000011" class="node">
<title>Node11</title>
<g id="a_Node000011"><a xlink:href="BMP390Sensor_8cpp.html" target="_top" xlink:title=" ">
<polygon fill="white" stroke="#666666" points="1318,-19 1209,-19 1209,0 1318,0 1318,-19"/>
<text text-anchor="middle" x="1263.5" y="-7" font-family="Helvetica,sans-Serif" font-size="10.00">BMP390Sensor.cpp</text>
</a>
</g>
</g>
<!-- Node10&#45;&gt;Node11 -->
<g id="edge10_Node000010_Node000011" class="edge">
<title>Node10&#45;&gt;Node11</title>
<g id="a_edge10_Node000010_Node000011"><a xlink:title=" ">
<path fill="none" stroke="#63b8ff" d="M1238.45,-46.39C1244.81,-37.27 1252.37,-26.45 1257.5,-19.09"/>
<polygon fill="#63b8ff" stroke="#63b8ff" points="1235.46,-44.55 1232.61,-54.75 1241.2,-48.55 1235.46,-44.55"/>
</a>
</g>
</g>
<!-- Node13 -->
<g id="Node000013" class="node">
<title>Node13</title>
<g id="a_Node000013"><a xlink:href="DS3231Sensor_8cpp.html" target="_top" xlink:title=" ">
<polygon fill="white" stroke="#666666" points="234,-19 127,-19 127,0 234,0 234,-19"/>
<text text-anchor="middle" x="180.5" y="-7" font-family="Helvetica,sans-Serif" font-size="10.00">DS3231Sensor.cpp</text>
</a>
</g>
</g>
<!-- Node12&#45;&gt;Node13 -->
<g id="edge13_Node000012_Node000013" class="edge">
<title>Node12&#45;&gt;Node13</title>
<g id="a_edge13_Node000012_Node000013"><a xlink:title=" ">
<path fill="none" stroke="#63b8ff" d="M213.77,-47.24C205.36,-37.95 195.15,-26.68 188.28,-19.09"/>
<polygon fill="#63b8ff" stroke="#63b8ff" points="211.27,-49.69 220.57,-54.75 216.46,-44.99 211.27,-49.69"/>
</a>
</g>
</g>
<!-- Node14&#45;&gt;Node5 -->
<g id="edge16_Node000014_Node000005" class="edge">
<title>Node14&#45;&gt;Node5</title>
<g id="a_edge16_Node000014_Node000005"><a xlink:title=" ">
<path fill="none" stroke="#63b8ff" d="M1283.75,-54.58C1229.79,-46.08 1147.02,-32.58 1075.5,-19 1072.71,-18.47 1069.82,-17.9 1066.92,-17.31"/>
<polygon fill="#63b8ff" stroke="#63b8ff" points="1283.4,-58.07 1293.82,-56.17 1284.48,-51.16 1283.4,-58.07"/>
</a>
</g>
</g>
<!-- Node15 -->
<g id="Node000015" class="node">
<title>Node15</title>
<g id="a_Node000015"><a xlink:href="ENS160Sensor_8cpp.html" target="_top" xlink:title=" ">
<polygon fill="white" stroke="#666666" points="1443,-19 1336,-19 1336,0 1443,0 1443,-19"/>
<text text-anchor="middle" x="1389.5" y="-7" font-family="Helvetica,sans-Serif" font-size="10.00">ENS160Sensor.cpp</text>
</a>
</g>
</g>
<!-- Node14&#45;&gt;Node15 -->
<g id="edge15_Node000014_Node000015" class="edge">
<title>Node14&#45;&gt;Node15</title>
<g id="a_edge15_Node000014_Node000015"><a xlink:title=" ">
<path fill="none" stroke="#63b8ff" d="M1356.23,-47.24C1364.64,-37.95 1374.85,-26.68 1381.72,-19.09"/>
<polygon fill="#63b8ff" stroke="#63b8ff" points="1353.54,-44.99 1349.43,-54.75 1358.73,-49.69 1353.54,-44.99"/>
</a>
</g>
</g>
<!-- Node16&#45;&gt;Node5 -->
<g id="edge19_Node000016_Node000005" class="edge">
<title>Node16&#45;&gt;Node5</title>
<g id="a_edge19_Node000016_Node000005"><a xlink:title=" ">
<path fill="none" stroke="#63b8ff" d="M1396.8,-54.95C1252.87,-37.57 1214.46,-41.48 1075.5,-19 1072.7,-18.55 1069.79,-18.03 1066.89,-17.47"/>
<polygon fill="#63b8ff" stroke="#63b8ff" points="1396.54,-58.44 1406.89,-56.18 1397.39,-51.5 1396.54,-58.44"/>
</a>
</g>
</g>
<!-- Node17 -->
<g id="Node000017" class="node">
<title>Node17</title>
<g id="a_Node000017"><a xlink:href="ICM20948Sensor_8cpp.html" target="_top" xlink:title=" ">
<polygon fill="white" stroke="#666666" points="1579.5,-19 1461.5,-19 1461.5,0 1579.5,0 1579.5,-19"/>
<text text-anchor="middle" x="1520.5" y="-7" font-family="Helvetica,sans-Serif" font-size="10.00">ICM20948Sensor.cpp</text>
</a>
</g>
</g>
<!-- Node16&#45;&gt;Node17 -->
<g id="edge18_Node000016_Node000017" class="edge">
<title>Node16&#45;&gt;Node17</title>
<g id="a_edge18_Node000016_Node000017"><a xlink:title=" ">
<path fill="none" stroke="#63b8ff" d="M1477.68,-48.32C1488.38,-38.87 1501.76,-27.06 1510.68,-19.17"/>
<polygon fill="#63b8ff" stroke="#63b8ff" points="1475.32,-45.74 1470.14,-54.98 1479.95,-50.99 1475.32,-45.74"/>
</a>
</g>
</g>
<!-- Node18&#45;&gt;Node5 -->
<g id="edge22_Node000018_Node000005" class="edge">
<title>Node18&#45;&gt;Node5</title>
<g id="a_edge22_Node000018_Node000005"><a xlink:title=" ">
<path fill="none" stroke="#63b8ff" d="M673.3,-54.95C816.99,-36.42 855.48,-41.13 994.5,-19 997.66,-18.5 1000.94,-17.92 1004.22,-17.3"/>
<polygon fill="#63b8ff" stroke="#63b8ff" points="672.69,-51.5 663.23,-56.27 673.6,-58.44 672.69,-51.5"/>
</a>
</g>
</g>
<!-- Node19 -->
<g id="Node000019" class="node">
<title>Node19</title>
<g id="a_Node000019"><a xlink:href="INA260Sensor_8cpp.html" target="_top" xlink:title=" ">
<polygon fill="white" stroke="#666666" points="608.5,-19 504.5,-19 504.5,0 608.5,0 608.5,-19"/>
<text text-anchor="middle" x="556.5" y="-7" font-family="Helvetica,sans-Serif" font-size="10.00">INA260Sensor.cpp</text>
</a>
</g>
</g>
<!-- Node18&#45;&gt;Node19 -->
<g id="edge21_Node000018_Node000019" class="edge">
<title>Node18&#45;&gt;Node19</title>
<g id="a_edge21_Node000018_Node000019"><a xlink:title=" ">
<path fill="none" stroke="#63b8ff" d="M599.32,-48.32C588.62,-38.87 575.24,-27.06 566.32,-19.17"/>
<polygon fill="#63b8ff" stroke="#63b8ff" points="597.05,-50.99 606.86,-54.98 601.68,-45.74 597.05,-50.99"/>
</a>
</g>
</g>
<!-- Node21 -->
<g id="Node000021" class="node">
<title>Node21</title>
<g id="a_Node000021"><a xlink:href="LSM9DS1Sensor_8cpp.html" target="_top" xlink:title=" ">
<polygon fill="white" stroke="#666666" points="367,-19 252,-19 252,0 367,0 367,-19"/>
<text text-anchor="middle" x="309.5" y="-7" font-family="Helvetica,sans-Serif" font-size="10.00">LSM9DS1Sensor.cpp</text>
</a>
</g>
</g>
<!-- Node20&#45;&gt;Node21 -->
<g id="edge24_Node000020_Node000021" class="edge">
<title>Node20&#45;&gt;Node21</title>
<g id="a_edge24_Node000020_Node000021"><a xlink:title=" ">
<path fill="none" stroke="#63b8ff" d="M354.46,-48.32C343.23,-38.87 329.18,-27.06 319.81,-19.17"/>
<polygon fill="#63b8ff" stroke="#63b8ff" points="352.47,-51.23 362.38,-54.98 356.98,-45.87 352.47,-51.23"/>
</a>
</g>
</g>
<!-- Node22&#45;&gt;Node5 -->
<g id="edge27_Node000022_Node000005" class="edge">
<title>Node22&#45;&gt;Node5</title>
<g id="a_edge27_Node000022_Node000005"><a xlink:title=" ">
<path fill="none" stroke="#63b8ff" d="M795.51,-53.56C848.46,-44.93 926.61,-31.82 994.5,-19 997.64,-18.41 1000.92,-17.77 1004.18,-17.11"/>
<polygon fill="#63b8ff" stroke="#63b8ff" points="794.9,-50.12 785.59,-55.18 796.03,-57.03 794.9,-50.12"/>
</a>
</g>
</g>
<!-- Node23 -->
<g id="Node000023" class="node">
<title>Node23</title>
<g id="a_Node000023"><a xlink:href="MTK3339Sensor_8cpp.html" target="_top" xlink:title=" ">
<polygon fill="white" stroke="#666666" points="742,-19 627,-19 627,0 742,0 742,-19"/>
<text text-anchor="middle" x="684.5" y="-7" font-family="Helvetica,sans-Serif" font-size="10.00">MTK3339Sensor.cpp</text>
</a>
</g>
</g>
<!-- Node22&#45;&gt;Node23 -->
<g id="edge26_Node000022_Node000023" class="edge">
<title>Node22&#45;&gt;Node23</title>
<g id="a_edge26_Node000022_Node000023"><a xlink:title=" ">
<path fill="none" stroke="#63b8ff" d="M718.47,-47.24C709.88,-37.95 699.46,-26.68 692.44,-19.09"/>
<polygon fill="#63b8ff" stroke="#63b8ff" points="716.05,-49.78 725.41,-54.75 721.19,-45.03 716.05,-49.78"/>
</a>
</g>
</g>
<!-- Node24&#45;&gt;Node5 -->
<g id="edge30_Node000024_Node000005" class="edge">
<title>Node24&#45;&gt;Node5</title>
<g id="a_edge30_Node000024_Node000005"><a xlink:title=" ">
<path fill="none" stroke="#63b8ff" d="M893.58,-52.06C927.41,-42.15 975.58,-28.04 1006.19,-19.08"/>
<polygon fill="#63b8ff" stroke="#63b8ff" points="892.19,-48.82 883.58,-54.98 894.16,-55.53 892.19,-48.82"/>
</a>
</g>
</g>
<!-- Node25 -->
<g id="Node000025" class="node">
<title>Node25</title>
<g id="a_Node000025"><a xlink:href="PCF8523Sensor_8cpp.html" target="_top" xlink:title=" ">
<polygon fill="white" stroke="#666666" points="872.5,-19 760.5,-19 760.5,0 872.5,0 872.5,-19"/>
<text text-anchor="middle" x="816.5" y="-7" font-family="Helvetica,sans-Serif" font-size="10.00">PCF8523Sensor.cpp</text>
</a>
</g>
</g>
<!-- Node24&#45;&gt;Node25 -->
<g id="edge29_Node000024_Node000025" class="edge">
<title>Node24&#45;&gt;Node25</title>
<g id="a_edge29_Node000024_Node000025"><a xlink:title=" ">
<path fill="none" stroke="#63b8ff" d="M842.23,-46.39C835.69,-37.27 827.93,-26.45 822.66,-19.09"/>
<polygon fill="#63b8ff" stroke="#63b8ff" points="839.55,-48.66 848.23,-54.75 845.24,-44.58 839.55,-48.66"/>
</a>
</g>
</g>
<!-- Node27 -->
<g id="Node000027" class="node">
<title>Node27</title>
<g id="a_Node000027"><a xlink:href="SGP30Sensor_8cpp.html" target="_top" xlink:title=" ">
<polygon fill="white" stroke="#666666" points="486,-19 385,-19 385,0 486,0 486,-19"/>
<text text-anchor="middle" x="435.5" y="-7" font-family="Helvetica,sans-Serif" font-size="10.00">SGP30Sensor.cpp</text>
</a>
</g>
</g>
<!-- Node26&#45;&gt;Node27 -->
<g id="edge32_Node000026_Node000027" class="edge">
<title>Node26&#45;&gt;Node27</title>
<g id="a_edge32_Node000026_Node000027"><a xlink:title=" ">
<path fill="none" stroke="#63b8ff" d="M482.23,-48.6C470.58,-39.11 455.9,-27.13 446.13,-19.17"/>
<polygon fill="#63b8ff" stroke="#63b8ff" points="480.09,-51.38 490.06,-54.98 484.52,-45.95 480.09,-51.38"/>
</a>
</g>
</g>
<!-- Node29 -->
<g id="Node000029" class="node">
<title>Node29</title>
<g id="a_Node000029"><a xlink:href="SHTC3Sensor_8cpp.html" target="_top" xlink:title=" ">
<polygon fill="white" stroke="#666666" points="1699,-19 1598,-19 1598,0 1699,0 1699,-19"/>
<text text-anchor="middle" x="1648.5" y="-7" font-family="Helvetica,sans-Serif" font-size="10.00">SHTC3Sensor.cpp</text>
</a>
</g>
</g>
<!-- Node28&#45;&gt;Node29 -->
<g id="edge34_Node000028_Node000029" class="edge">
<title>Node28&#45;&gt;Node29</title>
<g id="a_edge34_Node000028_Node000029"><a xlink:title=" ">
<path fill="none" stroke="#63b8ff" d="M1624.12,-46.39C1630.32,-37.27 1637.67,-26.45 1642.67,-19.09"/>
<polygon fill="#63b8ff" stroke="#63b8ff" points="1621.17,-44.51 1618.44,-54.75 1626.96,-48.44 1621.17,-44.51"/>
</a>
</g>
</g>
<!-- Node31 -->
<g id="Node000031" class="node">
<title>Node31</title>
<g id="a_Node000031"><a xlink:href="TMP117Sensor_8cpp.html" target="_top" xlink:title=" ">
<polygon fill="white" stroke="#666666" points="1825.5,-19 1717.5,-19 1717.5,0 1825.5,0 1825.5,-19"/>
<text text-anchor="middle" x="1771.5" y="-7" font-family="Helvetica,sans-Serif" font-size="10.00">TMP117Sensor.cpp</text>
</a>
</g>
</g>
<!-- Node30&#45;&gt;Node31 -->
<g id="edge36_Node000030_Node000031" class="edge">
<title>Node30&#45;&gt;Node31</title>
<g id="a_edge36_Node000030_Node000031"><a xlink:title=" ">
<path fill="none" stroke="#63b8ff" d="M1767.63,-44.66C1768.62,-35.93 1769.75,-25.99 1770.53,-19.09"/>
<polygon fill="#63b8ff" stroke="#63b8ff" points="1764.14,-44.42 1766.49,-54.75 1771.09,-45.21 1764.14,-44.42"/>
</a>
</g>
</g>
<!-- Node32&#45;&gt;Node5 -->
<g id="edge39_Node000032_Node000005" class="edge">
<title>Node32&#45;&gt;Node5</title>
<g id="a_edge39_Node000032_Node000005"><a xlink:title=" ">
<path fill="none" stroke="#63b8ff" d="M984.81,-48.88C997.41,-39.34 1013.43,-27.21 1024.05,-19.17"/>
<polygon fill="#63b8ff" stroke="#63b8ff" points="982.61,-46.16 976.75,-54.98 986.83,-51.74 982.61,-46.16"/>
</a>
</g>
</g>
<!-- Node33 -->
<g id="Node000033" class="node">
<title>Node33</title>
<g id="a_Node000033"><a xlink:href="TempSensor_8cpp.html" target="_top" xlink:title=" ">
<polygon fill="white" stroke="#666666" points="986,-19 891,-19 891,0 986,0 986,-19"/>
<text text-anchor="middle" x="938.5" y="-7" font-family="Helvetica,sans-Serif" font-size="10.00">TempSensor.cpp</text>
</a>
</g>
</g>
<!-- Node32&#45;&gt;Node33 -->
<g id="edge38_Node000032_Node000033" class="edge">
<title>Node32&#45;&gt;Node33</title>
<g id="a_edge38_Node000032_Node000033"><a xlink:title=" ">
<path fill="none" stroke="#63b8ff" d="M956.49,-45.82C951.91,-36.82 946.55,-26.29 942.88,-19.09"/>
<polygon fill="#63b8ff" stroke="#63b8ff" points="953.38,-47.43 961.04,-54.75 959.62,-44.25 953.38,-47.43"/>
</a>
</g>
</g>
<!-- Node35 -->
<g id="Node000035" class="node">
<title>Node35</title>
<g id="a_Node000035"><a xlink:href="FlashStorage_8h.html" target="_top" xlink:title=" ">
<polygon fill="white" stroke="#666666" points="2066,-74 1977,-74 1977,-55 2066,-55 2066,-74"/>
<text text-anchor="middle" x="2021.5" y="-62" font-family="Helvetica,sans-Serif" font-size="10.00">FlashStorage.h</text>
</a>
</g>
</g>
<!-- Node34&#45;&gt;Node35 -->
<g id="edge42_Node000034_Node000035" class="edge">
<title>Node34&#45;&gt;Node35</title>
<g id="a_edge42_Node000034_Node000035"><a xlink:title=" ">
<path fill="none" stroke="#63b8ff" d="M2074.36,-103.88C2061.22,-94.34 2044.52,-82.21 2033.44,-74.17"/>
<polygon fill="#63b8ff" stroke="#63b8ff" points="2072.62,-106.94 2082.77,-109.98 2076.74,-101.28 2072.62,-106.94"/>
</a>
</g>
</g>
<!-- Node37 -->
<g id="Node000037" class="node">
<title>Node37</title>
<g id="a_Node000037"><a xlink:href="main1_8cpp.html" target="_top" xlink:title="Main functions for Core 1, responsible for sending data to storage peripherals.">
<polygon fill="white" stroke="#666666" points="2158.5,-19 2090.5,-19 2090.5,0 2158.5,0 2158.5,-19"/>
<text text-anchor="middle" x="2124.5" y="-7" font-family="Helvetica,sans-Serif" font-size="10.00">main1.cpp</text>
</a>
</g>
</g>
<!-- Node34&#45;&gt;Node37 -->
<g id="edge52_Node000034_Node000037" class="edge">
<title>Node34&#45;&gt;Node37</title>
<g id="a_edge52_Node000034_Node000037"><a xlink:title=" ">
<path fill="none" stroke="#63b8ff" d="M2099.69,-99.8C2106.25,-76.2 2117.26,-36.58 2122.09,-19.16"/>
<polygon fill="#63b8ff" stroke="#63b8ff" points="2096.26,-99.09 2096.96,-109.66 2103,-100.96 2096.26,-99.09"/>
</a>
</g>
</g>
<!-- Node38 -->
<g id="Node000038" class="node">
<title>Node38</title>
<g id="a_Node000038"><a xlink:href="RadioStorage_8h.html" target="_top" xlink:title=" ">
<polygon fill="white" stroke="#666666" points="2214,-74 2123,-74 2123,-55 2214,-55 2214,-74"/>
<text text-anchor="middle" x="2168.5" y="-62" font-family="Helvetica,sans-Serif" font-size="10.00">RadioStorage.h</text>
</a>
</g>
</g>
<!-- Node34&#45;&gt;Node38 -->
<g id="edge46_Node000034_Node000038" class="edge">
<title>Node34&#45;&gt;Node38</title>
<g id="a_edge46_Node000034_Node000038"><a xlink:title=" ">
<path fill="none" stroke="#63b8ff" d="M2114.53,-104.15C2127.91,-94.57 2145.06,-82.29 2156.39,-74.17"/>
<polygon fill="#63b8ff" stroke="#63b8ff" points="2112.48,-101.32 2106.39,-109.98 2116.56,-107.01 2112.48,-101.32"/>
</a>
</g>
</g>
<!-- Node40 -->
<g id="Node000040" class="node">
<title>Node40</title>
<g id="a_Node000040"><a xlink:href="SDStorage_8h.html" target="_top" xlink:title=" ">
<polygon fill="white" stroke="#666666" points="2309,-74 2232,-74 2232,-55 2309,-55 2309,-74"/>
<text text-anchor="middle" x="2270.5" y="-62" font-family="Helvetica,sans-Serif" font-size="10.00">SDStorage.h</text>
</a>
</g>
</g>
<!-- Node34&#45;&gt;Node40 -->
<g id="edge49_Node000034_Node000040" class="edge">
<title>Node34&#45;&gt;Node40</title>
<g id="a_edge49_Node000034_Node000040"><a xlink:title=" ">
<path fill="none" stroke="#63b8ff" d="M2132.5,-107.06C2165.4,-97.15 2212.24,-83.04 2242,-74.08"/>
<polygon fill="#63b8ff" stroke="#63b8ff" points="2131.34,-103.75 2122.78,-109.98 2133.36,-110.45 2131.34,-103.75"/>
</a>
</g>
</g>
<!-- Node35&#45;&gt;Node5 -->
<g id="edge44_Node000035_Node000005" class="edge">
<title>Node35&#45;&gt;Node5</title>
<g id="a_edge44_Node000035_Node000005"><a xlink:title=" ">
<path fill="none" stroke="#63b8ff" d="M1966.59,-56.66C1960.49,-56.03 1954.37,-55.46 1948.5,-55 1561.37,-24.52 1460.79,-67.53 1075.5,-19 1072.68,-18.65 1069.77,-18.19 1066.86,-17.68"/>
<polygon fill="#63b8ff" stroke="#63b8ff" points="1966.45,-60.17 1976.77,-57.76 1967.2,-53.21 1966.45,-60.17"/>
</a>
</g>
</g>
<!-- Node36 -->
<g id="Node000036" class="node">
<title>Node36</title>
<g id="a_Node000036"><a xlink:href="FlashStorage_8cpp.html" target="_top" xlink:title=" ">
<polygon fill="white" stroke="#666666" points="2072,-19 1971,-19 1971,0 2072,0 2072,-19"/>
<text text-anchor="middle" x="2021.5" y="-7" font-family="Helvetica,sans-Serif" font-size="10.00">FlashStorage.cpp</text>
</a>
</g>
</g>
<!-- Node35&#45;&gt;Node36 -->
<g id="edge43_Node000035_Node000036" class="edge">
<title>Node35&#45;&gt;Node36</title>
<g id="a_edge43_Node000035_Node000036"><a xlink:title=" ">
<path fill="none" stroke="#63b8ff" d="M2021.5,-44.66C2021.5,-35.93 2021.5,-25.99 2021.5,-19.09"/>
<polygon fill="#63b8ff" stroke="#63b8ff" points="2018,-44.75 2021.5,-54.75 2025,-44.75 2018,-44.75"/>
</a>
</g>
</g>
<!-- Node35&#45;&gt;Node37 -->
<g id="edge45_Node000035_Node000037" class="edge">
<title>Node35&#45;&gt;Node37</title>
<g id="a_edge45_Node000035_Node000037"><a xlink:title=" ">
<path fill="none" stroke="#63b8ff" d="M2047.02,-50.37C2065.94,-40.63 2091.2,-27.64 2107.65,-19.17"/>
<polygon fill="#63b8ff" stroke="#63b8ff" points="2045.34,-47.3 2038.05,-54.98 2048.54,-53.52 2045.34,-47.3"/>
</a>
</g>
</g>
<!-- Node38&#45;&gt;Node37 -->
<g id="edge48_Node000038_Node000037" class="edge">
<title>Node38&#45;&gt;Node37</title>
<g id="a_edge48_Node000038_Node000037"><a xlink:title=" ">
<path fill="none" stroke="#63b8ff" d="M2154.77,-46.96C2147.1,-37.72 2137.87,-26.6 2131.63,-19.09"/>
<polygon fill="#63b8ff" stroke="#63b8ff" points="2152.15,-49.29 2161.23,-54.75 2157.54,-44.82 2152.15,-49.29"/>
</a>
</g>
</g>
<!-- Node39 -->
<g id="Node000039" class="node">
<title>Node39</title>
<g id="a_Node000039"><a xlink:href="RadioStorage_8cpp.html" target="_top" xlink:title=" ">
<polygon fill="white" stroke="#666666" points="2278.5,-19 2176.5,-19 2176.5,0 2278.5,0 2278.5,-19"/>
<text text-anchor="middle" x="2227.5" y="-7" font-family="Helvetica,sans-Serif" font-size="10.00">RadioStorage.cpp</text>
</a>
</g>
</g>
<!-- Node38&#45;&gt;Node39 -->
<g id="edge47_Node000038_Node000039" class="edge">
<title>Node38&#45;&gt;Node39</title>
<g id="a_edge47_Node000038_Node000039"><a xlink:title=" ">
<path fill="none" stroke="#63b8ff" d="M2185.7,-48.04C2196.17,-38.64 2209.15,-26.98 2217.85,-19.17"/>
<polygon fill="#63b8ff" stroke="#63b8ff" points="2183.08,-45.7 2177.98,-54.98 2187.76,-50.91 2183.08,-45.7"/>
</a>
</g>
</g>
<!-- Node40&#45;&gt;Node37 -->
<g id="edge51_Node000040_Node000037" class="edge">
<title>Node40&#45;&gt;Node37</title>
<g id="a_edge51_Node000040_Node000037"><a xlink:title=" ">
<path fill="none" stroke="#63b8ff" d="M2237.58,-51.55C2210.47,-41.71 2172.67,-27.98 2148.38,-19.17"/>
<polygon fill="#63b8ff" stroke="#63b8ff" points="2236.45,-54.86 2247.04,-54.98 2238.84,-48.28 2236.45,-54.86"/>
</a>
</g>
</g>
<!-- Node41 -->
<g id="Node000041" class="node">
<title>Node41</title>
<g id="a_Node000041"><a xlink:href="SDStorage_8cpp.html" target="_top" xlink:title=" ">
<polygon fill="white" stroke="#666666" points="2384.5,-19 2296.5,-19 2296.5,0 2384.5,0 2384.5,-19"/>
<text text-anchor="middle" x="2340.5" y="-7" font-family="Helvetica,sans-Serif" font-size="10.00">SDStorage.cpp</text>
</a>
</g>
</g>
<!-- Node40&#45;&gt;Node41 -->
<g id="edge50_Node000040_Node000041" class="edge">
<title>Node40&#45;&gt;Node41</title>
<g id="a_edge50_Node000040_Node000041"><a xlink:title=" ">
<path fill="none" stroke="#63b8ff" d="M2289.81,-48.88C2302.41,-39.34 2318.43,-27.21 2329.05,-19.17"/>
<polygon fill="#63b8ff" stroke="#63b8ff" points="2287.61,-46.16 2281.75,-54.98 2291.83,-51.74 2287.61,-46.16"/>
</a>
</g>
</g>
</g>
</svg>

<g id="navigator" transform="translate(0 0)" fill="#404254">
  <rect fill="#f2f5e9" fill-opacity="0.5" stroke="#606060" stroke-width=".5" x="0" y="0" width="60" height="60"/>
  <use id="zoomplus" xlink:href="#zoomPlus" x="17" y="9" onmousedown="handleZoom(evt,'in')"/>
  <use id="zoomminus" xlink:href="#zoomMin" x="42" y="9" onmousedown="handleZoom(evt,'out')"/>
  <use id="reset" xlink:href="#resetDef" x="30" y="36" onmousedown="handleReset()"/>
   <use id="arrowup" xlink:href="#arrowUp" x="0" y="0" onmousedown="handlePan(0,-1)"/>
  <use id="arrowright" xlink:href="#arrowRight" x="0" y="0" onmousedown="handlePan(1,0)"/>
  <use id="arrowdown" xlink:href="#arrowDown" x="0" y="0" onmousedown="handlePan(0,1)"/>
  <use id="arrowleft" xlink:href="#arrowLeft" x="0" y="0" onmousedown="handlePan(-1,0)"/>
</g>
<svg viewBox="0 0 15 15" width="100%" height="30px" preserveAspectRatio="xMaxYMin meet">
 <g id="arrow_out" transform="scale(0.3 0.3)">
  <a xlink:href="Device_8h__dep__incl_org.svg" target="_base">
   <rect id="button" ry="5" rx="5" y="6" x="6" height="38" width="38"
        fill="#f2f5e9" fill-opacity="0.5" stroke="#606060" stroke-width="1.0"/>
   <path id="arrow"
     d="M 11.500037,31.436501 C 11.940474,20.09759 22.043105,11.32322 32.158766,21.979434 L 37.068811,17.246167 C 37.068811,17.246167 37.088388,32 37.088388,32 L 22.160133,31.978069 C 22.160133,31.978069 26.997745,27.140456 26.997745,27.140456 C 18.528582,18.264221 13.291696,25.230495 11.500037,31.436501 z"
     style="fill:#404040;"/>
  </a>
 </g>
</svg>

<style type='text/css'>
<![CDATA[
[data-mouse-over-selected='false'] { opacity: 0.7; }
[data-mouse-over-selected='true']  { opacity: 1.0; }
]]>
</style>
<script type="application/ecmascript"><![CDATA[
document.addEventListener('DOMContentLoaded', (event) => {
  highlightEdges();
  highlightAdjacentNodes();
});
]]></script>
</svg>
