<?xml version="1.0" encoding="UTF-8" standalone="no"?>
<!DOCTYPE svg PUBLIC "-//W3C//DTD SVG 1.1//EN"
 "http://www.w3.org/Graphics/SVG/1.1/DTD/svg11.dtd">
<!-- Generated by graphviz version 2.43.0 (0)
 -->
<!-- Title: Device.h Pages: 1 -->
<svg width="2512pt" height="192pt"
 viewBox="0.00 0.00 2511.50 192.00" xmlns="http://www.w3.org/2000/svg" xmlns:xlink="http://www.w3.org/1999/xlink">
<g id="graph0" class="graph" transform="scale(1 1) rotate(0) translate(4 188)">
<title>Device.h</title>
<!-- Node1 -->
<g id="Node000001" class="node">
<title>Node1</title>
<g id="a_Node000001"><a xlink:title=" ">
<polygon fill="#999999" stroke="#666666" points="1702,-184 1643,-184 1643,-165 1702,-165 1702,-184"/>
<text text-anchor="middle" x="1672.5" y="-172" font-family="Helvetica,sans-Serif" font-size="10.00">Device.h</text>
</a>
</g>
</g>
<!-- Node2 -->
<g id="Node000002" class="node">
<title>Node2</title>
<g id="a_Node000002"><a xlink:href="Sensor_8h.html" target="_top" xlink:title=" ">
<polygon fill="white" stroke="#666666" points="1149.5,-129 1091.5,-129 1091.5,-110 1149.5,-110 1149.5,-129"/>
<text text-anchor="middle" x="1120.5" y="-117" font-family="Helvetica,sans-Serif" font-size="10.00">Sensor.h</text>
</a>
</g>
</g>
<!-- Node1&#45;&gt;Node2 -->
<g id="edge1_Node000001_Node000002" class="edge">
<title>Node1&#45;&gt;Node2</title>
<g id="a_edge1_Node000001_Node000002"><a xlink:title=" ">
<path fill="none" stroke="#63b8ff" d="M1632.59,-169.67C1526.94,-159.52 1241.81,-132.15 1149.65,-123.3"/>
<polygon fill="#63b8ff" stroke="#63b8ff" points="1632.53,-173.18 1642.82,-170.65 1633.2,-166.21 1632.53,-173.18"/>
</a>
</g>
</g>
<!-- Node36 -->
<g id="Node000036" class="node">
<title>Node36</title>
<g id="a_Node000036"><a xlink:href="Storage_8h.html" target="_top" xlink:title=" ">
<polygon fill="white" stroke="#666666" points="2292,-129 2229,-129 2229,-110 2292,-110 2292,-129"/>
<text text-anchor="middle" x="2260.5" y="-117" font-family="Helvetica,sans-Serif" font-size="10.00">Storage.h</text>
</a>
</g>
</g>
<!-- Node1&#45;&gt;Node36 -->
<g id="edge46_Node000001_Node000036" class="edge">
<title>Node1&#45;&gt;Node36</title>
<g id="a_edge46_Node000001_Node000036"><a xlink:title=" ">
<path fill="none" stroke="#63b8ff" d="M1712.06,-169.93C1821.88,-160.04 2128.97,-132.36 2228.75,-123.36"/>
<polygon fill="#63b8ff" stroke="#63b8ff" points="1711.71,-166.45 1702.06,-170.84 1712.34,-173.42 1711.71,-166.45"/>
</a>
</g>
</g>
<!-- Node3 -->
<g id="Node000003" class="node">
<title>Node3</title>
<g id="a_Node000003"><a xlink:href="AS7331Sensor_8h.html" target="_top" xlink:title=" ">
<polygon fill="white" stroke="#666666" points="1532,-74 1437,-74 1437,-55 1532,-55 1532,-74"/>
<text text-anchor="middle" x="1484.5" y="-62" font-family="Helvetica,sans-Serif" font-size="10.00">AS7331Sensor.h</text>
</a>
</g>
</g>
<!-- Node2&#45;&gt;Node3 -->
<g id="edge2_Node000002_Node000003" class="edge">
<title>Node2&#45;&gt;Node3</title>
<g id="a_edge2_Node000002_Node000003"><a xlink:title=" ">
<path fill="none" stroke="#63b8ff" d="M1159.61,-112.88C1217.96,-104.49 1331.24,-88.15 1427.5,-74 1430.57,-73.55 1433.73,-73.08 1436.92,-72.61"/>
<polygon fill="#63b8ff" stroke="#63b8ff" points="1159.11,-109.42 1149.71,-114.31 1160.11,-116.35 1159.11,-109.42"/>
</a>
</g>
</g>
<!-- Node5 -->
<g id="Node000005" class="node">
<title>Node5</title>
<g id="a_Node000005"><a xlink:href="main_8cpp.html" target="_top" xlink:title="Main functions for Core 0, responsible for reading data from sensor peripherals.">
<polygon fill="white" stroke="#666666" points="1087.5,-19 1025.5,-19 1025.5,0 1087.5,0 1087.5,-19"/>
<text text-anchor="middle" x="1056.5" y="-7" font-family="Helvetica,sans-Serif" font-size="10.00">main.cpp</text>
</a>
</g>
</g>
<!-- Node2&#45;&gt;Node5 -->
<g id="edge45_Node000002_Node000005" class="edge">
<title>Node2&#45;&gt;Node5</title>
<g id="a_edge45_Node000002_Node000005"><a xlink:title=" ">
<path fill="none" stroke="#63b8ff" d="M1109.99,-100.76C1096.07,-77.28 1072.09,-36.81 1061.63,-19.16"/>
<polygon fill="#63b8ff" stroke="#63b8ff" points="1107.15,-102.84 1115.26,-109.66 1113.18,-99.27 1107.15,-102.84"/>
</a>
</g>
</g>
<!-- Node6 -->
<g id="Node000006" class="node">
<title>Node6</title>
<g id="a_Node000006"><a xlink:href="BME280Sensor_8h.html" target="_top" xlink:title=" ">
<polygon fill="white" stroke="#666666" points="1919.5,-74 1821.5,-74 1821.5,-55 1919.5,-55 1919.5,-74"/>
<text text-anchor="middle" x="1870.5" y="-62" font-family="Helvetica,sans-Serif" font-size="10.00">BME280Sensor.h</text>
</a>
</g>
</g>
<!-- Node2&#45;&gt;Node6 -->
<g id="edge5_Node000002_Node000006" class="edge">
<title>Node2&#45;&gt;Node6</title>
<g id="a_edge5_Node000002_Node000006"><a xlink:title=" ">
<path fill="none" stroke="#63b8ff" d="M1159.74,-116.51C1263.38,-111.12 1553.02,-95.21 1793.5,-74 1802.48,-73.21 1812.03,-72.25 1821.24,-71.26"/>
<polygon fill="#63b8ff" stroke="#63b8ff" points="1159.53,-113.02 1149.73,-117.03 1159.89,-120.01 1159.53,-113.02"/>
</a>
</g>
</g>
<!-- Node8 -->
<g id="Node000008" class="node">
<title>Node8</title>
<g id="a_Node000008"><a xlink:href="BME680Sensor_8h.html" target="_top" xlink:title=" ">
<polygon fill="white" stroke="#666666" points="2061.5,-74 1963.5,-74 1963.5,-55 2061.5,-55 2061.5,-74"/>
<text text-anchor="middle" x="2012.5" y="-62" font-family="Helvetica,sans-Serif" font-size="10.00">BME680Sensor.h</text>
</a>
</g>
</g>
<!-- Node2&#45;&gt;Node8 -->
<g id="edge7_Node000002_Node000008" class="edge">
<title>Node2&#45;&gt;Node8</title>
<g id="a_edge7_Node000002_Node000008"><a xlink:title=" ">
<path fill="none" stroke="#63b8ff" d="M1159.77,-116.98C1276.8,-112.3 1633.42,-97.04 1928.5,-74 1939.75,-73.12 1951.83,-72 1963.23,-70.87"/>
<polygon fill="#63b8ff" stroke="#63b8ff" points="1159.37,-113.49 1149.52,-117.38 1159.65,-120.48 1159.37,-113.49"/>
</a>
</g>
</g>
<!-- Node10 -->
<g id="Node000010" class="node">
<title>Node10</title>
<g id="a_Node000010"><a xlink:href="BMP390Sensor_8h.html" target="_top" xlink:title=" ">
<polygon fill="white" stroke="#666666" points="1648.5,-74 1550.5,-74 1550.5,-55 1648.5,-55 1648.5,-74"/>
<text text-anchor="middle" x="1599.5" y="-62" font-family="Helvetica,sans-Serif" font-size="10.00">BMP390Sensor.h</text>
</a>
</g>
</g>
<!-- Node2&#45;&gt;Node10 -->
<g id="edge9_Node000002_Node000010" class="edge">
<title>Node2&#45;&gt;Node10</title>
<g id="a_edge9_Node000002_Node000010"><a xlink:title=" ">
<path fill="none" stroke="#63b8ff" d="M1159.97,-114.86C1234.59,-107.87 1401.45,-91.66 1541.5,-74 1544.43,-73.63 1547.44,-73.24 1550.47,-72.83"/>
<polygon fill="#63b8ff" stroke="#63b8ff" points="1159.27,-111.41 1149.64,-115.83 1159.92,-118.38 1159.27,-111.41"/>
</a>
</g>
</g>
<!-- Node12 -->
<g id="Node000012" class="node">
<title>Node12</title>
<g id="a_Node000012"><a xlink:href="DS3231Sensor_8h.html" target="_top" xlink:title=" ">
<polygon fill="white" stroke="#666666" points="134,-74 39,-74 39,-55 134,-55 134,-74"/>
<text text-anchor="middle" x="86.5" y="-62" font-family="Helvetica,sans-Serif" font-size="10.00">DS3231Sensor.h</text>
</a>
</g>
</g>
<!-- Node2&#45;&gt;Node12 -->
<g id="edge12_Node000002_Node000012" class="edge">
<title>Node2&#45;&gt;Node12</title>
<g id="a_edge12_Node000002_Node000012"><a xlink:title=" ">
<path fill="none" stroke="#63b8ff" d="M1081.03,-116.86C954.36,-111.52 546.65,-93.88 209.5,-74 184.61,-72.53 156.9,-70.64 134.09,-69.01"/>
<polygon fill="#63b8ff" stroke="#63b8ff" points="1081.25,-120.37 1091.38,-117.29 1081.54,-113.38 1081.25,-120.37"/>
</a>
</g>
</g>
<!-- Node14 -->
<g id="Node000014" class="node">
<title>Node14</title>
<g id="a_Node000014"><a xlink:href="ENS160Sensor_8h.html" target="_top" xlink:title=" ">
<polygon fill="white" stroke="#666666" points="469,-74 374,-74 374,-55 469,-55 469,-74"/>
<text text-anchor="middle" x="421.5" y="-62" font-family="Helvetica,sans-Serif" font-size="10.00">ENS160Sensor.h</text>
</a>
</g>
</g>
<!-- Node2&#45;&gt;Node14 -->
<g id="edge14_Node000002_Node000014" class="edge">
<title>Node2&#45;&gt;Node14</title>
<g id="a_edge14_Node000002_Node000014"><a xlink:title=" ">
<path fill="none" stroke="#63b8ff" d="M1081.32,-116.86C980.89,-112.43 706.18,-98.83 478.5,-74 475.42,-73.66 472.24,-73.28 469.05,-72.88"/>
<polygon fill="#63b8ff" stroke="#63b8ff" points="1081.17,-120.36 1091.31,-117.3 1081.48,-113.36 1081.17,-120.36"/>
</a>
</g>
</g>
<!-- Node16 -->
<g id="Node000016" class="node">
<title>Node16</title>
<g id="a_Node000016"><a xlink:href="ICM20948Sensor_8h.html" target="_top" xlink:title=" ">
<polygon fill="white" stroke="#666666" points="594,-74 487,-74 487,-55 594,-55 594,-74"/>
<text text-anchor="middle" x="540.5" y="-62" font-family="Helvetica,sans-Serif" font-size="10.00">ICM20948Sensor.h</text>
</a>
</g>
</g>
<!-- Node2&#45;&gt;Node16 -->
<g id="edge17_Node000002_Node000016" class="edge">
<title>Node2&#45;&gt;Node16</title>
<g id="a_edge17_Node000002_Node000016"><a xlink:title=" ">
<path fill="none" stroke="#63b8ff" d="M1081.15,-115.76C994.64,-109.61 781.44,-93.65 603.5,-74 600.43,-73.66 597.28,-73.29 594.09,-72.91"/>
<polygon fill="#63b8ff" stroke="#63b8ff" points="1081.08,-119.27 1091.3,-116.48 1081.57,-112.29 1081.08,-119.27"/>
</a>
</g>
</g>
<!-- Node18 -->
<g id="Node000018" class="node">
<title>Node18</title>
<g id="a_Node000018"><a xlink:href="INA260Sensor_8h.html" target="_top" xlink:title=" ">
<polygon fill="white" stroke="#666666" points="705,-74 612,-74 612,-55 705,-55 705,-74"/>
<text text-anchor="middle" x="658.5" y="-62" font-family="Helvetica,sans-Serif" font-size="10.00">INA260Sensor.h</text>
</a>
</g>
</g>
<!-- Node2&#45;&gt;Node18 -->
<g id="edge20_Node000002_Node000018" class="edge">
<title>Node2&#45;&gt;Node18</title>
<g id="a_edge20_Node000002_Node000018"><a xlink:title=" ">
<path fill="none" stroke="#63b8ff" d="M1081.36,-114.75C1008.87,-107.7 848.87,-91.55 714.5,-74 711.48,-73.61 708.37,-73.18 705.23,-72.74"/>
<polygon fill="#63b8ff" stroke="#63b8ff" points="1081.11,-118.25 1091.4,-115.73 1081.79,-111.28 1081.11,-118.25"/>
</a>
</g>
</g>
<!-- Node20 -->
<g id="Node000020" class="node">
<title>Node20</title>
<g id="a_Node000020"><a xlink:href="LSM9DS1Sensor_8h.html" target="_top" xlink:title=" ">
<polygon fill="white" stroke="#666666" points="322.5,-74 218.5,-74 218.5,-55 322.5,-55 322.5,-74"/>
<text text-anchor="middle" x="270.5" y="-62" font-family="Helvetica,sans-Serif" font-size="10.00">LSM9DS1Sensor.h</text>
</a>
</g>
</g>
<!-- Node2&#45;&gt;Node20 -->
<g id="edge23_Node000002_Node000020" class="edge">
<title>Node2&#45;&gt;Node20</title>
<g id="a_edge23_Node000002_Node000020"><a xlink:title=" ">
<path fill="none" stroke="#63b8ff" d="M1081.19,-116.6C969.24,-111.12 639.18,-94.3 365.5,-74 351.63,-72.97 336.63,-71.7 322.74,-70.46"/>
<polygon fill="#63b8ff" stroke="#63b8ff" points="1081.17,-120.11 1091.33,-117.1 1081.51,-113.12 1081.17,-120.11"/>
</a>
</g>
</g>
<!-- Node22 -->
<g id="Node000022" class="node">
<title>Node22</title>
<g id="a_Node000022"><a xlink:href="MTK3339Sensor_8h.html" target="_top" xlink:title=" ">
<polygon fill="white" stroke="#666666" points="827.5,-74 723.5,-74 723.5,-55 827.5,-55 827.5,-74"/>
<text text-anchor="middle" x="775.5" y="-62" font-family="Helvetica,sans-Serif" font-size="10.00">MTK3339Sensor.h</text>
</a>
</g>
</g>
<!-- Node2&#45;&gt;Node22 -->
<g id="edge25_Node000002_Node000022" class="edge">
<title>Node2&#45;&gt;Node22</title>
<g id="a_edge25_Node000002_Node000022"><a xlink:title=" ">
<path fill="none" stroke="#63b8ff" d="M1081.18,-112.46C1018.82,-102.88 897.2,-84.2 827.64,-73.51"/>
<polygon fill="#63b8ff" stroke="#63b8ff" points="1080.97,-115.97 1091.38,-114.03 1082.03,-109.05 1080.97,-115.97"/>
</a>
</g>
</g>
<!-- Node24 -->
<g id="Node000024" class="node">
<title>Node24</title>
<g id="a_Node000024"><a xlink:href="PCF8523Sensor_8h.html" target="_top" xlink:title=" ">
<polygon fill="white" stroke="#666666" points="947,-74 846,-74 846,-55 947,-55 947,-74"/>
<text text-anchor="middle" x="896.5" y="-62" font-family="Helvetica,sans-Serif" font-size="10.00">PCF8523Sensor.h</text>
</a>
</g>
</g>
<!-- Node2&#45;&gt;Node24 -->
<g id="edge28_Node000002_Node000024" class="edge">
<title>Node2&#45;&gt;Node24</title>
<g id="a_edge28_Node000002_Node000024"><a xlink:title=" ">
<path fill="none" stroke="#63b8ff" d="M1081.35,-109.24C1039.34,-99.3 973.19,-83.64 932.46,-74.01"/>
<polygon fill="#63b8ff" stroke="#63b8ff" points="1080.68,-112.67 1091.22,-111.57 1082.29,-105.86 1080.68,-112.67"/>
</a>
</g>
</g>
<!-- Node26 -->
<g id="Node000026" class="node">
<title>Node26</title>
<g id="a_Node000026"><a xlink:href="SCD40Sensor_8h.html" target="_top" xlink:title=" ">
<polygon fill="white" stroke="#666666" points="1055.5,-74 965.5,-74 965.5,-55 1055.5,-55 1055.5,-74"/>
<text text-anchor="middle" x="1010.5" y="-62" font-family="Helvetica,sans-Serif" font-size="10.00">SCD40Sensor.h</text>
</a>
</g>
</g>
<!-- Node2&#45;&gt;Node26 -->
<g id="edge31_Node000002_Node000026" class="edge">
<title>Node2&#45;&gt;Node26</title>
<g id="a_edge31_Node000002_Node000026"><a xlink:title=" ">
<path fill="none" stroke="#63b8ff" d="M1093.8,-105.63C1073.53,-95.87 1046.23,-82.71 1028.49,-74.17"/>
<polygon fill="#63b8ff" stroke="#63b8ff" points="1092.3,-108.8 1102.83,-109.98 1095.34,-102.49 1092.3,-108.8"/>
</a>
</g>
</g>
<!-- Node28 -->
<g id="Node000028" class="node">
<title>Node28</title>
<g id="a_Node000028"><a xlink:href="SGP30Sensor_8h.html" target="_top" xlink:title=" ">
<polygon fill="white" stroke="#666666" points="1784,-74 1695,-74 1695,-55 1784,-55 1784,-74"/>
<text text-anchor="middle" x="1739.5" y="-62" font-family="Helvetica,sans-Serif" font-size="10.00">SGP30Sensor.h</text>
</a>
</g>
</g>
<!-- Node2&#45;&gt;Node28 -->
<g id="edge34_Node000002_Node000028" class="edge">
<title>Node2&#45;&gt;Node28</title>
<g id="a_edge34_Node000002_Node000028"><a xlink:title=" ">
<path fill="none" stroke="#63b8ff" d="M1159.77,-115.52C1248.52,-108.74 1471.33,-91.36 1657.5,-74 1669.61,-72.87 1682.72,-71.55 1694.83,-70.3"/>
<polygon fill="#63b8ff" stroke="#63b8ff" points="1159.33,-112.05 1149.62,-116.3 1159.86,-119.03 1159.33,-112.05"/>
</a>
</g>
</g>
<!-- Node30 -->
<g id="Node000030" class="node">
<title>Node30</title>
<g id="a_Node000030"><a xlink:href="SHTC3Sensor_8h.html" target="_top" xlink:title=" ">
<polygon fill="white" stroke="#666666" points="1201,-74 1112,-74 1112,-55 1201,-55 1201,-74"/>
<text text-anchor="middle" x="1156.5" y="-62" font-family="Helvetica,sans-Serif" font-size="10.00">SHTC3Sensor.h</text>
</a>
</g>
</g>
<!-- Node2&#45;&gt;Node30 -->
<g id="edge36_Node000002_Node000030" class="edge">
<title>Node2&#45;&gt;Node30</title>
<g id="a_edge36_Node000002_Node000030"><a xlink:title=" ">
<path fill="none" stroke="#63b8ff" d="M1132.12,-101.39C1138.32,-92.27 1145.67,-81.45 1150.67,-74.09"/>
<polygon fill="#63b8ff" stroke="#63b8ff" points="1129.17,-99.51 1126.44,-109.75 1134.96,-103.44 1129.17,-99.51"/>
</a>
</g>
</g>
<!-- Node32 -->
<g id="Node000032" class="node">
<title>Node32</title>
<g id="a_Node000032"><a xlink:href="TMP117Sensor_8h.html" target="_top" xlink:title=" ">
<polygon fill="white" stroke="#666666" points="1316,-74 1219,-74 1219,-55 1316,-55 1316,-74"/>
<text text-anchor="middle" x="1267.5" y="-62" font-family="Helvetica,sans-Serif" font-size="10.00">TMP117Sensor.h</text>
</a>
</g>
</g>
<!-- Node2&#45;&gt;Node32 -->
<g id="edge39_Node000002_Node000032" class="edge">
<title>Node2&#45;&gt;Node32</title>
<g id="a_edge39_Node000002_Node000032"><a xlink:title=" ">
<path fill="none" stroke="#63b8ff" d="M1153.64,-106.55C1180.94,-96.71 1219,-82.98 1243.45,-74.17"/>
<polygon fill="#63b8ff" stroke="#63b8ff" points="1152.34,-103.3 1144.12,-109.98 1154.71,-109.89 1152.34,-103.3"/>
</a>
</g>
</g>
<!-- Node34 -->
<g id="Node000034" class="node">
<title>Node34</title>
<g id="a_Node000034"><a xlink:href="TempSensor_8h.html" target="_top" xlink:title=" ">
<polygon fill="white" stroke="#666666" points="1418.5,-74 1334.5,-74 1334.5,-55 1418.5,-55 1418.5,-74"/>
<text text-anchor="middle" x="1376.5" y="-62" font-family="Helvetica,sans-Serif" font-size="10.00">TempSensor.h</text>
</a>
</g>
</g>
<!-- Node2&#45;&gt;Node34 -->
<g id="edge42_Node000002_Node000034" class="edge">
<title>Node2&#45;&gt;Node34</title>
<g id="a_edge42_Node000002_Node000034"><a xlink:title=" ">
<path fill="none" stroke="#63b8ff" d="M1159.78,-110.37C1207.29,-100.53 1286.89,-84.05 1335.26,-74.04"/>
<polygon fill="#63b8ff" stroke="#63b8ff" points="1158.95,-106.97 1149.87,-112.42 1160.37,-113.82 1158.95,-106.97"/>
</a>
</g>
</g>
<!-- Node4 -->
<g id="Node000004" class="node">
<title>Node4</title>
<g id="a_Node000004"><a xlink:href="AS7331Sensor_8cpp.html" target="_top" xlink:title=" ">
<polygon fill="white" stroke="#666666" points="1571.5,-19 1465.5,-19 1465.5,0 1571.5,0 1571.5,-19"/>
<text text-anchor="middle" x="1518.5" y="-7" font-family="Helvetica,sans-Serif" font-size="10.00">AS7331Sensor.cpp</text>
</a>
</g>
</g>
<!-- Node3&#45;&gt;Node4 -->
<g id="edge3_Node000003_Node000004" class="edge">
<title>Node3&#45;&gt;Node4</title>
<g id="a_edge3_Node000003_Node000004"><a xlink:title=" ">
<path fill="none" stroke="#63b8ff" d="M1495.66,-46.1C1501.47,-37.04 1508.32,-26.37 1512.99,-19.09"/>
<polygon fill="#63b8ff" stroke="#63b8ff" points="1492.57,-44.44 1490.11,-54.75 1498.46,-48.22 1492.57,-44.44"/>
</a>
</g>
</g>
<!-- Node3&#45;&gt;Node5 -->
<g id="edge4_Node000003_Node000005" class="edge">
<title>Node3&#45;&gt;Node5</title>
<g id="a_edge4_Node000003_Node000005"><a xlink:title=" ">
<path fill="none" stroke="#63b8ff" d="M1426.61,-54.94C1279.42,-36.37 1239.96,-41.48 1097.5,-19 1094.34,-18.5 1091.06,-17.92 1087.78,-17.31"/>
<polygon fill="#63b8ff" stroke="#63b8ff" points="1426.57,-58.47 1436.93,-56.26 1427.46,-51.52 1426.57,-58.47"/>
</a>
</g>
</g>
<!-- Node7 -->
<g id="Node000007" class="node">
<title>Node7</title>
<g id="a_Node000007"><a xlink:href="BME280Sensor_8cpp.html" target="_top" xlink:title=" ">
<polygon fill="white" stroke="#666666" points="1945,-19 1836,-19 1836,0 1945,0 1945,-19"/>
<text text-anchor="middle" x="1890.5" y="-7" font-family="Helvetica,sans-Serif" font-size="10.00">BME280Sensor.cpp</text>
</a>
</g>
</g>
<!-- Node6&#45;&gt;Node7 -->
<g id="edge6_Node000006_Node000007" class="edge">
<title>Node6&#45;&gt;Node7</title>
<g id="a_edge6_Node000006_Node000007"><a xlink:title=" ">
<path fill="none" stroke="#63b8ff" d="M1877.39,-45.24C1880.74,-36.37 1884.6,-26.14 1887.26,-19.09"/>
<polygon fill="#63b8ff" stroke="#63b8ff" points="1874.06,-44.16 1873.8,-54.75 1880.61,-46.63 1874.06,-44.16"/>
</a>
</g>
</g>
<!-- Node9 -->
<g id="Node000009" class="node">
<title>Node9</title>
<g id="a_Node000009"><a xlink:href="BME680Sensor_8cpp.html" target="_top" xlink:title=" ">
<polygon fill="white" stroke="#666666" points="2072,-19 1963,-19 1963,0 2072,0 2072,-19"/>
<text text-anchor="middle" x="2017.5" y="-7" font-family="Helvetica,sans-Serif" font-size="10.00">BME680Sensor.cpp</text>
</a>
</g>
</g>
<!-- Node8&#45;&gt;Node9 -->
<g id="edge8_Node000008_Node000009" class="edge">
<title>Node8&#45;&gt;Node9</title>
<g id="a_edge8_Node000008_Node000009"><a xlink:title=" ">
<path fill="none" stroke="#63b8ff" d="M2014.28,-44.66C2015.1,-35.93 2016.04,-25.99 2016.69,-19.09"/>
<polygon fill="#63b8ff" stroke="#63b8ff" points="2010.78,-44.46 2013.33,-54.75 2017.75,-45.12 2010.78,-44.46"/>
</a>
</g>
</g>
<!-- Node10&#45;&gt;Node5 -->
<g id="edge11_Node000010_Node000005" class="edge">
<title>Node10&#45;&gt;Node5</title>
<g id="a_edge11_Node000010_Node000005"><a xlink:title=" ">
<path fill="none" stroke="#63b8ff" d="M1540.36,-54.95C1343.04,-33.1 1290.22,-46.68 1097.5,-19 1094.33,-18.55 1091.05,-18 1087.77,-17.4"/>
<polygon fill="#63b8ff" stroke="#63b8ff" points="1540.15,-58.45 1550.48,-56.09 1540.93,-51.49 1540.15,-58.45"/>
</a>
</g>
</g>
<!-- Node11 -->
<g id="Node000011" class="node">
<title>Node11</title>
<g id="a_Node000011"><a xlink:href="BMP390Sensor_8cpp.html" target="_top" xlink:title=" ">
<polygon fill="white" stroke="#666666" points="1699,-19 1590,-19 1590,0 1699,0 1699,-19"/>
<text text-anchor="middle" x="1644.5" y="-7" font-family="Helvetica,sans-Serif" font-size="10.00">BMP390Sensor.cpp</text>
</a>
</g>
</g>
<!-- Node10&#45;&gt;Node11 -->
<g id="edge10_Node000010_Node000011" class="edge">
<title>Node10&#45;&gt;Node11</title>
<g id="a_edge10_Node000010_Node000011"><a xlink:title=" ">
<path fill="none" stroke="#63b8ff" d="M1613.55,-46.96C1621.39,-37.72 1630.83,-26.6 1637.21,-19.09"/>
<polygon fill="#63b8ff" stroke="#63b8ff" points="1610.74,-44.86 1606.93,-54.75 1616.07,-49.39 1610.74,-44.86"/>
</a>
</g>
</g>
<!-- Node13 -->
<g id="Node000013" class="node">
<title>Node13</title>
<g id="a_Node000013"><a xlink:href="DS3231Sensor_8cpp.html" target="_top" xlink:title=" ">
<polygon fill="white" stroke="#666666" points="107,-19 0,-19 0,0 107,0 107,-19"/>
<text text-anchor="middle" x="53.5" y="-7" font-family="Helvetica,sans-Serif" font-size="10.00">DS3231Sensor.cpp</text>
</a>
</g>
</g>
<!-- Node12&#45;&gt;Node13 -->
<g id="edge13_Node000012_Node000013" class="edge">
<title>Node12&#45;&gt;Node13</title>
<g id="a_edge13_Node000012_Node000013"><a xlink:title=" ">
<path fill="none" stroke="#63b8ff" d="M75.67,-46.1C70.03,-37.04 63.38,-26.37 58.85,-19.09"/>
<polygon fill="#63b8ff" stroke="#63b8ff" points="72.79,-48.11 81.05,-54.75 78.74,-44.41 72.79,-48.11"/>
</a>
</g>
</g>
<!-- Node14&#45;&gt;Node5 -->
<g id="edge16_Node000014_Node000005" class="edge">
<title>Node14&#45;&gt;Node5</title>
<g id="a_edge16_Node000014_Node000005"><a xlink:title=" ">
<path fill="none" stroke="#63b8ff" d="M479.11,-55.04C718.5,-29.92 782.38,-51.54 1016.5,-19 1019.31,-18.61 1022.22,-18.13 1025.13,-17.61"/>
<polygon fill="#63b8ff" stroke="#63b8ff" points="478.62,-51.57 469.05,-56.11 479.36,-58.53 478.62,-51.57"/>
</a>
</g>
</g>
<!-- Node15 -->
<g id="Node000015" class="node">
<title>Node15</title>
<g id="a_Node000015"><a xlink:href="ENS160Sensor_8cpp.html" target="_top" xlink:title=" ">
<polygon fill="white" stroke="#666666" points="365,-19 258,-19 258,0 365,0 365,-19"/>
<text text-anchor="middle" x="311.5" y="-7" font-family="Helvetica,sans-Serif" font-size="10.00">ENS160Sensor.cpp</text>
</a>
</g>
</g>
<!-- Node14&#45;&gt;Node15 -->
<g id="edge15_Node000014_Node000015" class="edge">
<title>Node14&#45;&gt;Node15</title>
<g id="a_edge15_Node000014_Node000015"><a xlink:title=" ">
<path fill="none" stroke="#63b8ff" d="M394.8,-50.63C374.53,-40.87 347.23,-27.71 329.49,-19.17"/>
<polygon fill="#63b8ff" stroke="#63b8ff" points="393.3,-53.8 403.83,-54.98 396.34,-47.49 393.3,-53.8"/>
</a>
</g>
</g>
<!-- Node16&#45;&gt;Node5 -->
<g id="edge19_Node000016_Node000005" class="edge">
<title>Node16&#45;&gt;Node5</title>
<g id="a_edge19_Node000016_Node000005"><a xlink:title=" ">
<path fill="none" stroke="#63b8ff" d="M604.12,-54.99C788.34,-35.07 837.47,-45.72 1016.5,-19 1019.31,-18.58 1022.22,-18.09 1025.12,-17.55"/>
<polygon fill="#63b8ff" stroke="#63b8ff" points="603.65,-51.52 594.1,-56.09 604.42,-58.48 603.65,-51.52"/>
</a>
</g>
</g>
<!-- Node17 -->
<g id="Node000017" class="node">
<title>Node17</title>
<g id="a_Node000017"><a xlink:href="ICM20948Sensor_8cpp.html" target="_top" xlink:title=" ">
<polygon fill="white" stroke="#666666" points="501.5,-19 383.5,-19 383.5,0 501.5,0 501.5,-19"/>
<text text-anchor="middle" x="442.5" y="-7" font-family="Helvetica,sans-Serif" font-size="10.00">ICM20948Sensor.cpp</text>
</a>
</g>
</g>
<!-- Node16&#45;&gt;Node17 -->
<g id="edge18_Node000016_Node000017" class="edge">
<title>Node16&#45;&gt;Node17</title>
<g id="a_edge18_Node000016_Node000017"><a xlink:title=" ">
<path fill="none" stroke="#63b8ff" d="M515.47,-49.97C497.56,-40.28 473.97,-27.52 458.53,-19.17"/>
<polygon fill="#63b8ff" stroke="#63b8ff" points="514.29,-53.31 524.75,-54.98 517.62,-47.15 514.29,-53.31"/>
</a>
</g>
</g>
<!-- Node18&#45;&gt;Node5 -->
<g id="edge22_Node000018_Node000005" class="edge">
<title>Node18&#45;&gt;Node5</title>
<g id="a_edge22_Node000018_Node000005"><a xlink:title=" ">
<path fill="none" stroke="#63b8ff" d="M715.53,-54.91C850.2,-37.05 886.4,-40.53 1016.5,-19 1019.3,-18.54 1022.2,-18.01 1025.11,-17.45"/>
<polygon fill="#63b8ff" stroke="#63b8ff" points="714.68,-51.49 705.23,-56.29 715.61,-58.43 714.68,-51.49"/>
</a>
</g>
</g>
<!-- Node19 -->
<g id="Node000019" class="node">
<title>Node19</title>
<g id="a_Node000019"><a xlink:href="INA260Sensor_8cpp.html" target="_top" xlink:title=" ">
<polygon fill="white" stroke="#666666" points="623.5,-19 519.5,-19 519.5,0 623.5,0 623.5,-19"/>
<text text-anchor="middle" x="571.5" y="-7" font-family="Helvetica,sans-Serif" font-size="10.00">INA260Sensor.cpp</text>
</a>
</g>
</g>
<!-- Node18&#45;&gt;Node19 -->
<g id="edge21_Node000018_Node000019" class="edge">
<title>Node18&#45;&gt;Node19</title>
<g id="a_edge21_Node000018_Node000019"><a xlink:title=" ">
<path fill="none" stroke="#63b8ff" d="M635.84,-49.7C619.99,-40.04 599.31,-27.44 585.73,-19.17"/>
<polygon fill="#63b8ff" stroke="#63b8ff" points="634.16,-52.77 644.52,-54.98 637.8,-46.79 634.16,-52.77"/>
</a>
</g>
</g>
<!-- Node21 -->
<g id="Node000021" class="node">
<title>Node21</title>
<g id="a_Node000021"><a xlink:href="LSM9DS1Sensor_8cpp.html" target="_top" xlink:title=" ">
<polygon fill="white" stroke="#666666" points="240,-19 125,-19 125,0 240,0 240,-19"/>
<text text-anchor="middle" x="182.5" y="-7" font-family="Helvetica,sans-Serif" font-size="10.00">LSM9DS1Sensor.cpp</text>
</a>
</g>
</g>
<!-- Node20&#45;&gt;Node21 -->
<g id="edge24_Node000020_Node000021" class="edge">
<title>Node20&#45;&gt;Node21</title>
<g id="a_edge24_Node000020_Node000021"><a xlink:title=" ">
<path fill="none" stroke="#63b8ff" d="M247.58,-49.7C231.55,-40.04 210.63,-27.44 196.9,-19.17"/>
<polygon fill="#63b8ff" stroke="#63b8ff" points="245.99,-52.82 256.36,-54.98 249.6,-46.83 245.99,-52.82"/>
</a>
</g>
</g>
<!-- Node22&#45;&gt;Node5 -->
<g id="edge27_Node000022_Node000005" class="edge">
<title>Node22&#45;&gt;Node5</title>
<g id="a_edge27_Node000022_Node000005"><a xlink:title=" ">
<path fill="none" stroke="#63b8ff" d="M834.11,-53.13C882.97,-44.38 954.36,-31.34 1016.5,-19 1019.29,-18.45 1022.18,-17.86 1025.07,-17.26"/>
<polygon fill="#63b8ff" stroke="#63b8ff" points="833.27,-49.73 824.04,-54.93 834.5,-56.62 833.27,-49.73"/>
</a>
</g>
</g>
<!-- Node23 -->
<g id="Node000023" class="node">
<title>Node23</title>
<g id="a_Node000023"><a xlink:href="MTK3339Sensor_8cpp.html" target="_top" xlink:title=" ">
<polygon fill="white" stroke="#666666" points="757,-19 642,-19 642,0 757,0 757,-19"/>
<text text-anchor="middle" x="699.5" y="-7" font-family="Helvetica,sans-Serif" font-size="10.00">MTK3339Sensor.cpp</text>
</a>
</g>
</g>
<!-- Node22&#45;&gt;Node23 -->
<g id="edge26_Node000022_Node000023" class="edge">
<title>Node22&#45;&gt;Node23</title>
<g id="a_edge26_Node000022_Node000023"><a xlink:title=" ">
<path fill="none" stroke="#63b8ff" d="M754.92,-49.15C741.19,-39.57 723.57,-27.29 711.93,-19.17"/>
<polygon fill="#63b8ff" stroke="#63b8ff" points="753.08,-52.14 763.29,-54.98 757.09,-46.39 753.08,-52.14"/>
</a>
</g>
</g>
<!-- Node24&#45;&gt;Node5 -->
<g id="edge30_Node000024_Node000005" class="edge">
<title>Node24&#45;&gt;Node5</title>
<g id="a_edge30_Node000024_Node000005"><a xlink:title=" ">
<path fill="none" stroke="#63b8ff" d="M931.83,-51.8C961.69,-41.91 1003.77,-27.97 1030.59,-19.08"/>
<polygon fill="#63b8ff" stroke="#63b8ff" points="930.6,-48.52 922.21,-54.98 932.8,-55.16 930.6,-48.52"/>
</a>
</g>
</g>
<!-- Node25 -->
<g id="Node000025" class="node">
<title>Node25</title>
<g id="a_Node000025"><a xlink:href="PCF8523Sensor_8cpp.html" target="_top" xlink:title=" ">
<polygon fill="white" stroke="#666666" points="887.5,-19 775.5,-19 775.5,0 887.5,0 887.5,-19"/>
<text text-anchor="middle" x="831.5" y="-7" font-family="Helvetica,sans-Serif" font-size="10.00">PCF8523Sensor.cpp</text>
</a>
</g>
</g>
<!-- Node24&#45;&gt;Node25 -->
<g id="edge29_Node000024_Node000025" class="edge">
<title>Node24&#45;&gt;Node25</title>
<g id="a_edge29_Node000024_Node000025"><a xlink:title=" ">
<path fill="none" stroke="#63b8ff" d="M878.23,-48.6C866.58,-39.11 851.9,-27.13 842.13,-19.17"/>
<polygon fill="#63b8ff" stroke="#63b8ff" points="876.09,-51.38 886.06,-54.98 880.52,-45.95 876.09,-51.38"/>
</a>
</g>
</g>
<!-- Node26&#45;&gt;Node5 -->
<g id="edge33_Node000026_Node000005" class="edge">
<title>Node26&#45;&gt;Node5</title>
<g id="a_edge33_Node000026_Node000005"><a xlink:title=" ">
<path fill="none" stroke="#63b8ff" d="M1024.86,-46.96C1032.87,-37.72 1042.53,-26.6 1049.05,-19.09"/>
<polygon fill="#63b8ff" stroke="#63b8ff" points="1022.01,-44.9 1018.1,-54.75 1027.29,-49.49 1022.01,-44.9"/>
</a>
</g>
</g>
<!-- Node27 -->
<g id="Node000027" class="node">
<title>Node27</title>
<g id="a_Node000027"><a xlink:href="SCD40Sensor_8cpp.html" target="_top" xlink:title=" ">
<polygon fill="white" stroke="#666666" points="1007,-19 906,-19 906,0 1007,0 1007,-19"/>
<text text-anchor="middle" x="956.5" y="-7" font-family="Helvetica,sans-Serif" font-size="10.00">SCD40Sensor.cpp</text>
</a>
</g>
</g>
<!-- Node26&#45;&gt;Node27 -->
<g id="edge32_Node000026_Node000027" class="edge">
<title>Node26&#45;&gt;Node27</title>
<g id="a_edge32_Node000026_Node000027"><a xlink:title=" ">
<path fill="none" stroke="#63b8ff" d="M994.22,-47.52C984.7,-38.18 973.06,-26.75 965.25,-19.09"/>
<polygon fill="#63b8ff" stroke="#63b8ff" points="991.99,-50.24 1001.58,-54.75 996.9,-45.25 991.99,-50.24"/>
</a>
</g>
</g>
<!-- Node29 -->
<g id="Node000029" class="node">
<title>Node29</title>
<g id="a_Node000029"><a xlink:href="SGP30Sensor_8cpp.html" target="_top" xlink:title=" ">
<polygon fill="white" stroke="#666666" points="1818,-19 1717,-19 1717,0 1818,0 1818,-19"/>
<text text-anchor="middle" x="1767.5" y="-7" font-family="Helvetica,sans-Serif" font-size="10.00">SGP30Sensor.cpp</text>
</a>
</g>
</g>
<!-- Node28&#45;&gt;Node29 -->
<g id="edge35_Node000028_Node000029" class="edge">
<title>Node28&#45;&gt;Node29</title>
<g id="a_edge35_Node000028_Node000029"><a xlink:title=" ">
<path fill="none" stroke="#63b8ff" d="M1748.84,-45.82C1753.59,-36.82 1759.16,-26.29 1762.96,-19.09"/>
<polygon fill="#63b8ff" stroke="#63b8ff" points="1745.7,-44.27 1744.12,-54.75 1751.89,-47.54 1745.7,-44.27"/>
</a>
</g>
</g>
<!-- Node30&#45;&gt;Node5 -->
<g id="edge38_Node000030_Node000005" class="edge">
<title>Node30&#45;&gt;Node5</title>
<g id="a_edge38_Node000030_Node000005"><a xlink:title=" ">
<path fill="none" stroke="#63b8ff" d="M1131.47,-50.23C1113.13,-40.51 1088.76,-27.6 1072.86,-19.17"/>
<polygon fill="#63b8ff" stroke="#63b8ff" points="1129.96,-53.39 1140.43,-54.98 1133.24,-47.21 1129.96,-53.39"/>
</a>
</g>
</g>
<!-- Node31 -->
<g id="Node000031" class="node">
<title>Node31</title>
<g id="a_Node000031"><a xlink:href="SHTC3Sensor_8cpp.html" target="_top" xlink:title=" ">
<polygon fill="white" stroke="#666666" points="1207,-19 1106,-19 1106,0 1207,0 1207,-19"/>
<text text-anchor="middle" x="1156.5" y="-7" font-family="Helvetica,sans-Serif" font-size="10.00">SHTC3Sensor.cpp</text>
</a>
</g>
</g>
<!-- Node30&#45;&gt;Node31 -->
<g id="edge37_Node000030_Node000031" class="edge">
<title>Node30&#45;&gt;Node31</title>
<g id="a_edge37_Node000030_Node000031"><a xlink:title=" ">
<path fill="none" stroke="#63b8ff" d="M1156.5,-44.66C1156.5,-35.93 1156.5,-25.99 1156.5,-19.09"/>
<polygon fill="#63b8ff" stroke="#63b8ff" points="1153,-44.75 1156.5,-54.75 1160,-44.75 1153,-44.75"/>
</a>
</g>
</g>
<!-- Node32&#45;&gt;Node5 -->
<g id="edge41_Node000032_Node000005" class="edge">
<title>Node32&#45;&gt;Node5</title>
<g id="a_edge41_Node000032_Node000005"><a xlink:title=" ">
<path fill="none" stroke="#63b8ff" d="M1223.69,-52.5C1183.04,-42.28 1123.54,-27.34 1087.57,-18.3"/>
<polygon fill="#63b8ff" stroke="#63b8ff" points="1223.05,-55.94 1233.6,-54.98 1224.75,-49.15 1223.05,-55.94"/>
</a>
</g>
</g>
<!-- Node33 -->
<g id="Node000033" class="node">
<title>Node33</title>
<g id="a_Node000033"><a xlink:href="TMP117Sensor_8cpp.html" target="_top" xlink:title=" ">
<polygon fill="white" stroke="#666666" points="1333.5,-19 1225.5,-19 1225.5,0 1333.5,0 1333.5,-19"/>
<text text-anchor="middle" x="1279.5" y="-7" font-family="Helvetica,sans-Serif" font-size="10.00">TMP117Sensor.cpp</text>
</a>
</g>
</g>
<!-- Node32&#45;&gt;Node33 -->
<g id="edge40_Node000032_Node000033" class="edge">
<title>Node32&#45;&gt;Node33</title>
<g id="a_edge40_Node000032_Node000033"><a xlink:title=" ">
<path fill="none" stroke="#63b8ff" d="M1271.7,-44.95C1273.69,-36.15 1275.98,-26.06 1277.56,-19.09"/>
<polygon fill="#63b8ff" stroke="#63b8ff" points="1268.28,-44.22 1269.48,-54.75 1275.1,-45.77 1268.28,-44.22"/>
</a>
</g>
</g>
<!-- Node34&#45;&gt;Node5 -->
<g id="edge44_Node000034_Node000005" class="edge">
<title>Node34&#45;&gt;Node5</title>
<g id="a_edge44_Node000034_Node000005"><a xlink:title=" ">
<path fill="none" stroke="#63b8ff" d="M1324.39,-54.84C1222.55,-38.48 1195.27,-36.84 1097.5,-19 1094.35,-18.43 1091.08,-17.8 1087.81,-17.15"/>
<polygon fill="#63b8ff" stroke="#63b8ff" points="1324.05,-58.33 1334.48,-56.47 1325.17,-51.42 1324.05,-58.33"/>
</a>
</g>
</g>
<!-- Node35 -->
<g id="Node000035" class="node">
<title>Node35</title>
<g id="a_Node000035"><a xlink:href="TempSensor_8cpp.html" target="_top" xlink:title=" ">
<polygon fill="white" stroke="#666666" points="1447,-19 1352,-19 1352,0 1447,0 1447,-19"/>
<text text-anchor="middle" x="1399.5" y="-7" font-family="Helvetica,sans-Serif" font-size="10.00">TempSensor.cpp</text>
</a>
</g>
</g>
<!-- Node34&#45;&gt;Node35 -->
<g id="edge43_Node000034_Node000035" class="edge">
<title>Node34&#45;&gt;Node35</title>
<g id="a_edge43_Node000034_Node000035"><a xlink:title=" ">
<path fill="none" stroke="#63b8ff" d="M1384.3,-45.53C1388.18,-36.6 1392.68,-26.22 1395.77,-19.09"/>
<polygon fill="#63b8ff" stroke="#63b8ff" points="1381.07,-44.18 1380.3,-54.75 1387.49,-46.97 1381.07,-44.18"/>
</a>
</g>
</g>
<!-- Node37 -->
<g id="Node000037" class="node">
<title>Node37</title>
<g id="a_Node000037"><a xlink:href="FlashStorage_8h.html" target="_top" xlink:title=" ">
<polygon fill="white" stroke="#666666" points="2191,-74 2102,-74 2102,-55 2191,-55 2191,-74"/>
<text text-anchor="middle" x="2146.5" y="-62" font-family="Helvetica,sans-Serif" font-size="10.00">FlashStorage.h</text>
</a>
</g>
</g>
<!-- Node36&#45;&gt;Node37 -->
<g id="edge47_Node000036_Node000037" class="edge">
<title>Node36&#45;&gt;Node37</title>
<g id="a_edge47_Node000036_Node000037"><a xlink:title=" ">
<path fill="none" stroke="#63b8ff" d="M2233.11,-105.77C2212.08,-95.99 2183.61,-82.75 2165.15,-74.17"/>
<polygon fill="#63b8ff" stroke="#63b8ff" points="2231.64,-108.94 2242.18,-109.98 2234.59,-102.6 2231.64,-108.94"/>
</a>
</g>
</g>
<!-- Node39 -->
<g id="Node000039" class="node">
<title>Node39</title>
<g id="a_Node000039"><a xlink:href="main1_8cpp.html" target="_top" xlink:title="Main functions for Core 1, responsible for sending data to storage peripherals.">
<polygon fill="white" stroke="#666666" points="2397.5,-19 2329.5,-19 2329.5,0 2397.5,0 2397.5,-19"/>
<text text-anchor="middle" x="2363.5" y="-7" font-family="Helvetica,sans-Serif" font-size="10.00">main1.cpp</text>
</a>
</g>
</g>
<!-- Node36&#45;&gt;Node39 -->
<g id="edge57_Node000036_Node000039" class="edge">
<title>Node36&#45;&gt;Node39</title>
<g id="a_edge57_Node000036_Node000039"><a xlink:title=" ">
<path fill="none" stroke="#63b8ff" d="M2281.08,-103.76C2291.87,-95.57 2304.99,-84.87 2315.5,-74 2332.8,-56.12 2349.5,-31.99 2357.89,-19.24"/>
<polygon fill="#63b8ff" stroke="#63b8ff" points="2278.97,-100.97 2273.02,-109.74 2283.14,-106.59 2278.97,-100.97"/>
</a>
</g>
</g>
<!-- Node40 -->
<g id="Node000040" class="node">
<title>Node40</title>
<g id="a_Node000040"><a xlink:href="RadioStorage_8h.html" target="_top" xlink:title=" ">
<polygon fill="white" stroke="#666666" points="2306,-74 2215,-74 2215,-55 2306,-55 2306,-74"/>
<text text-anchor="middle" x="2260.5" y="-62" font-family="Helvetica,sans-Serif" font-size="10.00">RadioStorage.h</text>
</a>
</g>
</g>
<!-- Node36&#45;&gt;Node40 -->
<g id="edge51_Node000036_Node000040" class="edge">
<title>Node36&#45;&gt;Node40</title>
<g id="a_edge51_Node000036_Node000040"><a xlink:title=" ">
<path fill="none" stroke="#63b8ff" d="M2260.5,-99.66C2260.5,-90.93 2260.5,-80.99 2260.5,-74.09"/>
<polygon fill="#63b8ff" stroke="#63b8ff" points="2257,-99.75 2260.5,-109.75 2264,-99.75 2257,-99.75"/>
</a>
</g>
</g>
<!-- Node42 -->
<g id="Node000042" class="node">
<title>Node42</title>
<g id="a_Node000042"><a xlink:href="SDStorage_8h.html" target="_top" xlink:title=" ">
<polygon fill="white" stroke="#666666" points="2440,-74 2363,-74 2363,-55 2440,-55 2440,-74"/>
<text text-anchor="middle" x="2401.5" y="-62" font-family="Helvetica,sans-Serif" font-size="10.00">SDStorage.h</text>
</a>
</g>
</g>
<!-- Node36&#45;&gt;Node42 -->
<g id="edge54_Node000036_Node000042" class="edge">
<title>Node36&#45;&gt;Node42</title>
<g id="a_edge54_Node000036_Node000042"><a xlink:title=" ">
<path fill="none" stroke="#63b8ff" d="M2292.64,-106.42C2318.79,-96.59 2355.09,-82.95 2378.43,-74.17"/>
<polygon fill="#63b8ff" stroke="#63b8ff" points="2291.28,-103.19 2283.15,-109.98 2293.75,-109.74 2291.28,-103.19"/>
</a>
</g>
</g>
<!-- Node37&#45;&gt;Node5 -->
<g id="edge49_Node000037_Node000005" class="edge">
<title>Node37&#45;&gt;Node5</title>
<g id="a_edge49_Node000037_Node000005"><a xlink:title=" ">
<path fill="none" stroke="#63b8ff" d="M2091.64,-56.87C2084.53,-56.16 2077.35,-55.51 2070.5,-55 1638.95,-22.93 1527.09,-71.11 1097.5,-19 1094.32,-18.61 1091.03,-18.11 1087.75,-17.54"/>
<polygon fill="#63b8ff" stroke="#63b8ff" points="2091.63,-60.39 2101.94,-57.96 2092.36,-53.43 2091.63,-60.39"/>
</a>
</g>
</g>
<!-- Node38 -->
<g id="Node000038" class="node">
<title>Node38</title>
<g id="a_Node000038"><a xlink:href="FlashStorage_8cpp.html" target="_top" xlink:title=" ">
<polygon fill="white" stroke="#666666" points="2191,-19 2090,-19 2090,0 2191,0 2191,-19"/>
<text text-anchor="middle" x="2140.5" y="-7" font-family="Helvetica,sans-Serif" font-size="10.00">FlashStorage.cpp</text>
</a>
</g>
</g>
<!-- Node37&#45;&gt;Node38 -->
<g id="edge48_Node000037_Node000038" class="edge">
<title>Node37&#45;&gt;Node38</title>
<g id="a_edge48_Node000037_Node000038"><a xlink:title=" ">
<path fill="none" stroke="#63b8ff" d="M2144.37,-44.66C2143.38,-35.93 2142.25,-25.99 2141.47,-19.09"/>
<polygon fill="#63b8ff" stroke="#63b8ff" points="2140.91,-45.21 2145.51,-54.75 2147.86,-44.42 2140.91,-45.21"/>
</a>
</g>
</g>
<!-- Node37&#45;&gt;Node39 -->
<g id="edge50_Node000037_Node000039" class="edge">
<title>Node37&#45;&gt;Node39</title>
<g id="a_edge50_Node000037_Node000039"><a xlink:title=" ">
<path fill="none" stroke="#63b8ff" d="M2191.11,-52.61C2232.14,-42.58 2292.13,-27.93 2329.44,-18.82"/>
<polygon fill="#63b8ff" stroke="#63b8ff" points="2190.25,-49.21 2181.36,-54.98 2191.91,-56.01 2190.25,-49.21"/>
</a>
</g>
</g>
<!-- Node40&#45;&gt;Node39 -->
<g id="edge53_Node000040_Node000039" class="edge">
<title>Node40&#45;&gt;Node39</title>
<g id="a_edge53_Node000040_Node000039"><a xlink:title=" ">
<path fill="none" stroke="#63b8ff" d="M2286.02,-50.37C2304.94,-40.63 2330.2,-27.64 2346.65,-19.17"/>
<polygon fill="#63b8ff" stroke="#63b8ff" points="2284.34,-47.3 2277.05,-54.98 2287.54,-53.52 2284.34,-47.3"/>
</a>
</g>
</g>
<!-- Node41 -->
<g id="Node000041" class="node">
<title>Node41</title>
<g id="a_Node000041"><a xlink:href="RadioStorage_8cpp.html" target="_top" xlink:title=" ">
<polygon fill="white" stroke="#666666" points="2311.5,-19 2209.5,-19 2209.5,0 2311.5,0 2311.5,-19"/>
<text text-anchor="middle" x="2260.5" y="-7" font-family="Helvetica,sans-Serif" font-size="10.00">RadioStorage.cpp</text>
</a>
</g>
</g>
<!-- Node40&#45;&gt;Node41 -->
<g id="edge52_Node000040_Node000041" class="edge">
<title>Node40&#45;&gt;Node41</title>
<g id="a_edge52_Node000040_Node000041"><a xlink:title=" ">
<path fill="none" stroke="#63b8ff" d="M2260.5,-44.66C2260.5,-35.93 2260.5,-25.99 2260.5,-19.09"/>
<polygon fill="#63b8ff" stroke="#63b8ff" points="2257,-44.75 2260.5,-54.75 2264,-44.75 2257,-44.75"/>
</a>
</g>
</g>
<!-- Node42&#45;&gt;Node39 -->
<g id="edge56_Node000042_Node000039" class="edge">
<title>Node42&#45;&gt;Node39</title>
<g id="a_edge56_Node000042_Node000039"><a xlink:title=" ">
<path fill="none" stroke="#63b8ff" d="M2389.23,-46.39C2382.69,-37.27 2374.93,-26.45 2369.66,-19.09"/>
<polygon fill="#63b8ff" stroke="#63b8ff" points="2386.55,-48.66 2395.23,-54.75 2392.24,-44.58 2386.55,-48.66"/>
</a>
</g>
</g>
<!-- Node43 -->
<g id="Node000043" class="node">
<title>Node43</title>
<g id="a_Node000043"><a xlink:href="SDStorage_8cpp.html" target="_top" xlink:title=" ">
<polygon fill="white" stroke="#666666" points="2503.5,-19 2415.5,-19 2415.5,0 2503.5,0 2503.5,-19"/>
<text text-anchor="middle" x="2459.5" y="-7" font-family="Helvetica,sans-Serif" font-size="10.00">SDStorage.cpp</text>
</a>
</g>
</g>
<!-- Node42&#45;&gt;Node43 -->
<g id="edge55_Node000042_Node000043" class="edge">
<title>Node42&#45;&gt;Node43</title>
<g id="a_edge55_Node000042_Node000043"><a xlink:title=" ">
<path fill="none" stroke="#63b8ff" d="M2418.41,-48.04C2428.7,-38.64 2441.47,-26.98 2450.01,-19.17"/>
<polygon fill="#63b8ff" stroke="#63b8ff" points="2415.84,-45.66 2410.82,-54.98 2420.56,-50.82 2415.84,-45.66"/>
</a>
</g>
</g>
</g>
</svg>
