<?xml version="1.0" encoding="UTF-8" standalone="no"?>
<!DOCTYPE svg PUBLIC "-//W3C//DTD SVG 1.1//EN"
 "http://www.w3.org/Graphics/SVG/1.1/DTD/svg11.dtd">
<!-- Generated by graphviz version 2.43.0 (0)
 -->
<!-- Title: DS3231Sensor.h Pages: 1 -->
<svg width="190pt" height="252pt"
 viewBox="0.00 0.00 189.50 252.00" xmlns="http://www.w3.org/2000/svg" xmlns:xlink="http://www.w3.org/1999/xlink">
<g id="graph0" class="graph" transform="scale(1 1) rotate(0) translate(4 248)">
<title>DS3231Sensor.h</title>
<!-- Node1 -->
<g id="node1" class="node">
<title>Node1</title>
<g id="a_node1"><a xlink:title=" ">
<polygon fill="#bfbfbf" stroke="black" points="18,-224.5 18,-243.5 114,-243.5 114,-224.5 18,-224.5"/>
<text text-anchor="middle" x="66" y="-231.5" font-family="Helvetica,sans-Serif" font-size="10.00">DS3231Sensor.h</text>
</a>
</g>
</g>
<!-- Node2 -->
<g id="node2" class="node">
<title>Node2</title>
<g id="a_node2"><a xlink:title=" ">
<polygon fill="none" stroke="#bfbfbf" points="0,-168.5 0,-187.5 56,-187.5 56,-168.5 0,-168.5"/>
<text text-anchor="middle" x="28" y="-175.5" font-family="Helvetica,sans-Serif" font-size="10.00">RTClib.h</text>
</a>
</g>
</g>
<!-- Node1&#45;&gt;Node2 -->
<g id="edge1" class="edge">
<title>Node1&#45;&gt;Node2</title>
<path fill="none" stroke="midnightblue" d="M59.73,-224.08C54.36,-216.46 46.48,-205.26 39.92,-195.94"/>
<polygon fill="midnightblue" stroke="midnightblue" points="42.78,-193.91 34.16,-187.75 37.05,-197.94 42.78,-193.91"/>
</g>
<!-- Node3 -->
<g id="node3" class="node">
<title>Node3</title>
<g id="a_node3"><a xlink:href="Sensor_8h.html" target="_top" xlink:title=" ">
<polygon fill="none" stroke="black" points="74.5,-168.5 74.5,-187.5 133.5,-187.5 133.5,-168.5 74.5,-168.5"/>
<text text-anchor="middle" x="104" y="-175.5" font-family="Helvetica,sans-Serif" font-size="10.00">Sensor.h</text>
</a>
</g>
</g>
<!-- Node1&#45;&gt;Node3 -->
<g id="edge2" class="edge">
<title>Node1&#45;&gt;Node3</title>
<path fill="none" stroke="midnightblue" d="M72.27,-224.08C77.64,-216.46 85.52,-205.26 92.08,-195.94"/>
<polygon fill="midnightblue" stroke="midnightblue" points="94.95,-197.94 97.84,-187.75 89.22,-193.91 94.95,-197.94"/>
</g>
<!-- Node4 -->
<g id="node4" class="node">
<title>Node4</title>
<g id="a_node4"><a xlink:title=" ">
<polygon fill="none" stroke="#bfbfbf" points="62.5,-0.5 62.5,-19.5 125.5,-19.5 125.5,-0.5 62.5,-0.5"/>
<text text-anchor="middle" x="94" y="-7.5" font-family="Helvetica,sans-Serif" font-size="10.00">Arduino.h</text>
</a>
</g>
</g>
<!-- Node3&#45;&gt;Node4 -->
<g id="edge3" class="edge">
<title>Node3&#45;&gt;Node4</title>
<path fill="none" stroke="midnightblue" d="M93.29,-168.3C84.06,-160.07 71.41,-146.79 66,-132 52.97,-96.39 71.06,-52.6 83.66,-28.67"/>
<polygon fill="midnightblue" stroke="midnightblue" points="86.84,-30.16 88.62,-19.72 80.71,-26.77 86.84,-30.16"/>
</g>
<!-- Node5 -->
<g id="node5" class="node">
<title>Node5</title>
<g id="a_node5"><a xlink:href="Device_8h.html" target="_top" xlink:title=" ">
<polygon fill="none" stroke="black" points="74.5,-112.5 74.5,-131.5 133.5,-131.5 133.5,-112.5 74.5,-112.5"/>
<text text-anchor="middle" x="104" y="-119.5" font-family="Helvetica,sans-Serif" font-size="10.00">Device.h</text>
</a>
</g>
</g>
<!-- Node3&#45;&gt;Node5 -->
<g id="edge4" class="edge">
<title>Node3&#45;&gt;Node5</title>
<path fill="none" stroke="midnightblue" d="M104,-168.08C104,-161.01 104,-150.86 104,-141.99"/>
<polygon fill="midnightblue" stroke="midnightblue" points="107.5,-141.75 104,-131.75 100.5,-141.75 107.5,-141.75"/>
</g>
<!-- Node6 -->
<g id="node6" class="node">
<title>Node6</title>
<g id="a_node6"><a xlink:href="Logger_8h.html" target="_top" xlink:title=" ">
<polygon fill="none" stroke="black" points="122.5,-56.5 122.5,-75.5 181.5,-75.5 181.5,-56.5 122.5,-56.5"/>
<text text-anchor="middle" x="152" y="-63.5" font-family="Helvetica,sans-Serif" font-size="10.00">Logger.h</text>
</a>
</g>
</g>
<!-- Node3&#45;&gt;Node6 -->
<g id="edge8" class="edge">
<title>Node3&#45;&gt;Node6</title>
<path fill="none" stroke="midnightblue" d="M114.15,-168.49C123.31,-160.18 136.34,-146.69 143,-132 149.55,-117.56 151.64,-99.6 152.18,-86.22"/>
<polygon fill="midnightblue" stroke="midnightblue" points="155.69,-85.9 152.33,-75.85 148.69,-85.8 155.69,-85.9"/>
</g>
<!-- Node5&#45;&gt;Node4 -->
<g id="edge5" class="edge">
<title>Node5&#45;&gt;Node4</title>
<path fill="none" stroke="midnightblue" d="M103.22,-112.37C101.6,-94.62 97.88,-53.67 95.69,-29.6"/>
<polygon fill="midnightblue" stroke="midnightblue" points="99.17,-29.23 94.78,-19.59 92.2,-29.87 99.17,-29.23"/>
</g>
<!-- Node5&#45;&gt;Node6 -->
<g id="edge6" class="edge">
<title>Node5&#45;&gt;Node6</title>
<path fill="none" stroke="midnightblue" d="M111.93,-112.08C118.85,-104.3 129.07,-92.8 137.45,-83.37"/>
<polygon fill="midnightblue" stroke="midnightblue" points="140.19,-85.55 144.22,-75.75 134.96,-80.9 140.19,-85.55"/>
</g>
<!-- Node6&#45;&gt;Node4 -->
<g id="edge7" class="edge">
<title>Node6&#45;&gt;Node4</title>
<path fill="none" stroke="midnightblue" d="M142.68,-56.32C134.11,-48.34 121.19,-36.31 110.81,-26.65"/>
<polygon fill="midnightblue" stroke="midnightblue" points="113.19,-24.09 103.49,-19.83 108.42,-29.21 113.19,-24.09"/>
</g>
</g>
</svg>
