<?xml version="1.0" encoding="UTF-8" standalone="no"?>
<!DOCTYPE svg PUBLIC "-//W3C//DTD SVG 1.1//EN"
 "http://www.w3.org/Graphics/SVG/1.1/DTD/svg11.dtd">
<!-- Generated by graphviz version 2.43.0 (0)
 -->
<!-- Title: ENS160Sensor.h Pages: 1 -->
<svg width="265pt" height="252pt"
 viewBox="0.00 0.00 264.50 252.00" xmlns="http://www.w3.org/2000/svg" xmlns:xlink="http://www.w3.org/1999/xlink">
<g id="graph0" class="graph" transform="scale(1 1) rotate(0) translate(4 248)">
<title>ENS160Sensor.h</title>
<!-- Node1 -->
<g id="node1" class="node">
<title>Node1</title>
<g id="a_node1"><a xlink:title=" ">
<polygon fill="#bfbfbf" stroke="black" points="48,-224.5 48,-243.5 144,-243.5 144,-224.5 48,-224.5"/>
<text text-anchor="middle" x="96" y="-231.5" font-family="Helvetica,sans-Serif" font-size="10.00">ENS160Sensor.h</text>
</a>
</g>
</g>
<!-- Node2 -->
<g id="node2" class="node">
<title>Node2</title>
<g id="a_node2"><a xlink:title=" ">
<polygon fill="none" stroke="#bfbfbf" points="0,-168.5 0,-187.5 48,-187.5 48,-168.5 0,-168.5"/>
<text text-anchor="middle" x="24" y="-175.5" font-family="Helvetica,sans-Serif" font-size="10.00">Wire.h</text>
</a>
</g>
</g>
<!-- Node1&#45;&gt;Node2 -->
<g id="edge1" class="edge">
<title>Node1&#45;&gt;Node2</title>
<path fill="none" stroke="midnightblue" d="M84.43,-224.32C73.58,-216.18 57.12,-203.84 44.12,-194.09"/>
<polygon fill="midnightblue" stroke="midnightblue" points="45.88,-191.03 35.78,-187.83 41.68,-196.63 45.88,-191.03"/>
</g>
<!-- Node3 -->
<g id="node3" class="node">
<title>Node3</title>
<g id="a_node3"><a xlink:href="Sensor_8h.html" target="_top" xlink:title=" ">
<polygon fill="none" stroke="black" points="66.5,-168.5 66.5,-187.5 125.5,-187.5 125.5,-168.5 66.5,-168.5"/>
<text text-anchor="middle" x="96" y="-175.5" font-family="Helvetica,sans-Serif" font-size="10.00">Sensor.h</text>
</a>
</g>
</g>
<!-- Node1&#45;&gt;Node3 -->
<g id="edge2" class="edge">
<title>Node1&#45;&gt;Node3</title>
<path fill="none" stroke="midnightblue" d="M96,-224.08C96,-217.01 96,-206.86 96,-197.99"/>
<polygon fill="midnightblue" stroke="midnightblue" points="99.5,-197.75 96,-187.75 92.5,-197.75 99.5,-197.75"/>
</g>
<!-- Node7 -->
<g id="node7" class="node">
<title>Node7</title>
<g id="a_node7"><a xlink:title=" ">
<polygon fill="none" stroke="#bfbfbf" points="143.5,-168.5 143.5,-187.5 256.5,-187.5 256.5,-168.5 143.5,-168.5"/>
<text text-anchor="middle" x="200" y="-175.5" font-family="Helvetica,sans-Serif" font-size="10.00">SparkFun_ENS160.h</text>
</a>
</g>
</g>
<!-- Node1&#45;&gt;Node7 -->
<g id="edge9" class="edge">
<title>Node1&#45;&gt;Node7</title>
<path fill="none" stroke="midnightblue" d="M112.71,-224.32C129.31,-215.7 155,-202.36 174.22,-192.39"/>
<polygon fill="midnightblue" stroke="midnightblue" points="176.07,-195.37 183.33,-187.65 172.84,-189.16 176.07,-195.37"/>
</g>
<!-- Node4 -->
<g id="node4" class="node">
<title>Node4</title>
<g id="a_node4"><a xlink:title=" ">
<polygon fill="none" stroke="#bfbfbf" points="54.5,-0.5 54.5,-19.5 117.5,-19.5 117.5,-0.5 54.5,-0.5"/>
<text text-anchor="middle" x="86" y="-7.5" font-family="Helvetica,sans-Serif" font-size="10.00">Arduino.h</text>
</a>
</g>
</g>
<!-- Node3&#45;&gt;Node4 -->
<g id="edge3" class="edge">
<title>Node3&#45;&gt;Node4</title>
<path fill="none" stroke="midnightblue" d="M85.29,-168.3C76.06,-160.07 63.41,-146.79 58,-132 44.97,-96.39 63.06,-52.6 75.66,-28.67"/>
<polygon fill="midnightblue" stroke="midnightblue" points="78.84,-30.16 80.62,-19.72 72.71,-26.77 78.84,-30.16"/>
</g>
<!-- Node5 -->
<g id="node5" class="node">
<title>Node5</title>
<g id="a_node5"><a xlink:href="Device_8h.html" target="_top" xlink:title=" ">
<polygon fill="none" stroke="black" points="66.5,-112.5 66.5,-131.5 125.5,-131.5 125.5,-112.5 66.5,-112.5"/>
<text text-anchor="middle" x="96" y="-119.5" font-family="Helvetica,sans-Serif" font-size="10.00">Device.h</text>
</a>
</g>
</g>
<!-- Node3&#45;&gt;Node5 -->
<g id="edge4" class="edge">
<title>Node3&#45;&gt;Node5</title>
<path fill="none" stroke="midnightblue" d="M96,-168.08C96,-161.01 96,-150.86 96,-141.99"/>
<polygon fill="midnightblue" stroke="midnightblue" points="99.5,-141.75 96,-131.75 92.5,-141.75 99.5,-141.75"/>
</g>
<!-- Node6 -->
<g id="node6" class="node">
<title>Node6</title>
<g id="a_node6"><a xlink:href="Logger_8h.html" target="_top" xlink:title=" ">
<polygon fill="none" stroke="black" points="114.5,-56.5 114.5,-75.5 173.5,-75.5 173.5,-56.5 114.5,-56.5"/>
<text text-anchor="middle" x="144" y="-63.5" font-family="Helvetica,sans-Serif" font-size="10.00">Logger.h</text>
</a>
</g>
</g>
<!-- Node3&#45;&gt;Node6 -->
<g id="edge8" class="edge">
<title>Node3&#45;&gt;Node6</title>
<path fill="none" stroke="midnightblue" d="M106.15,-168.49C115.31,-160.18 128.34,-146.69 135,-132 141.55,-117.56 143.64,-99.6 144.18,-86.22"/>
<polygon fill="midnightblue" stroke="midnightblue" points="147.69,-85.9 144.33,-75.85 140.69,-85.8 147.69,-85.9"/>
</g>
<!-- Node5&#45;&gt;Node4 -->
<g id="edge5" class="edge">
<title>Node5&#45;&gt;Node4</title>
<path fill="none" stroke="midnightblue" d="M95.22,-112.37C93.6,-94.62 89.88,-53.67 87.69,-29.6"/>
<polygon fill="midnightblue" stroke="midnightblue" points="91.17,-29.23 86.78,-19.59 84.2,-29.87 91.17,-29.23"/>
</g>
<!-- Node5&#45;&gt;Node6 -->
<g id="edge6" class="edge">
<title>Node5&#45;&gt;Node6</title>
<path fill="none" stroke="midnightblue" d="M103.93,-112.08C110.85,-104.3 121.07,-92.8 129.45,-83.37"/>
<polygon fill="midnightblue" stroke="midnightblue" points="132.19,-85.55 136.22,-75.75 126.96,-80.9 132.19,-85.55"/>
</g>
<!-- Node6&#45;&gt;Node4 -->
<g id="edge7" class="edge">
<title>Node6&#45;&gt;Node4</title>
<path fill="none" stroke="midnightblue" d="M134.68,-56.32C126.11,-48.34 113.19,-36.31 102.81,-26.65"/>
<polygon fill="midnightblue" stroke="midnightblue" points="105.19,-24.09 95.49,-19.83 100.42,-29.21 105.19,-24.09"/>
</g>
</g>
</svg>
