<?xml version="1.0" encoding="UTF-8" standalone="no"?>
<!DOCTYPE svg PUBLIC "-//W3C//DTD SVG 1.1//EN"
 "http://www.w3.org/Graphics/SVG/1.1/DTD/svg11.dtd">
<!-- Generated by graphviz version 2.43.0 (0)
 -->
<!-- Title: ENS160Sensor.cpp Pages: 1 -->
<svg width="630pt" height="302pt"
 viewBox="0.00 0.00 630.00 302.00" xmlns="http://www.w3.org/2000/svg" xmlns:xlink="http://www.w3.org/1999/xlink">
<g id="graph0" class="graph" transform="scale(1 1) rotate(0) translate(4 298)">
<title>ENS160Sensor.cpp</title>
<!-- Node1 -->
<g id="Node000001" class="node">
<title>Node1</title>
<g id="a_Node000001"><a xlink:title=" ">
<polygon fill="#999999" stroke="#666666" points="325,-294 218,-294 218,-275 325,-275 325,-294"/>
<text text-anchor="middle" x="271.5" y="-282" font-family="Helvetica,sans-Serif" font-size="10.00">ENS160Sensor.cpp</text>
</a>
</g>
</g>
<!-- Node2 -->
<g id="Node000002" class="node">
<title>Node2</title>
<g id="a_Node000002"><a xlink:href="ENS160Sensor_8h.html" target="_top" xlink:title=" ">
<polygon fill="white" stroke="#666666" points="319,-239 224,-239 224,-220 319,-220 319,-239"/>
<text text-anchor="middle" x="271.5" y="-227" font-family="Helvetica,sans-Serif" font-size="10.00">ENS160Sensor.h</text>
</a>
</g>
</g>
<!-- Node1&#45;&gt;Node2 -->
<g id="edge1_Node000001_Node000002" class="edge">
<title>Node1&#45;&gt;Node2</title>
<g id="a_edge1_Node000001_Node000002"><a xlink:title=" ">
<path fill="none" stroke="#63b8ff" d="M271.5,-274.75C271.5,-267.8 271.5,-257.85 271.5,-249.13"/>
<polygon fill="#63b8ff" stroke="#63b8ff" points="275,-249.09 271.5,-239.09 268,-249.09 275,-249.09"/>
</a>
</g>
</g>
<!-- Node10 -->
<g id="Node000010" class="node">
<title>Node10</title>
<g id="a_Node000010"><a xlink:href="SHTC3Sensor_8h.html" target="_top" xlink:title=" ">
<polygon fill="white" stroke="#666666" points="426,-239 337,-239 337,-220 426,-220 426,-239"/>
<text text-anchor="middle" x="381.5" y="-227" font-family="Helvetica,sans-Serif" font-size="10.00">SHTC3Sensor.h</text>
</a>
</g>
</g>
<!-- Node1&#45;&gt;Node10 -->
<g id="edge12_Node000001_Node000010" class="edge">
<title>Node1&#45;&gt;Node10</title>
<g id="a_edge12_Node000001_Node000010"><a xlink:title=" ">
<path fill="none" stroke="#63b8ff" d="M289.17,-274.98C306.79,-266.5 334.08,-253.35 354.43,-243.54"/>
<polygon fill="#63b8ff" stroke="#63b8ff" points="356.02,-246.66 363.51,-239.17 352.98,-240.36 356.02,-246.66"/>
</a>
</g>
</g>
<!-- Node12 -->
<g id="Node000012" class="node">
<title>Node12</title>
<g id="a_Node000012"><a xlink:href="TMP117Sensor_8h.html" target="_top" xlink:title=" ">
<polygon fill="white" stroke="#666666" points="206,-239 109,-239 109,-220 206,-220 206,-239"/>
<text text-anchor="middle" x="157.5" y="-227" font-family="Helvetica,sans-Serif" font-size="10.00">TMP117Sensor.h</text>
</a>
</g>
</g>
<!-- Node1&#45;&gt;Node12 -->
<g id="edge16_Node000001_Node000012" class="edge">
<title>Node1&#45;&gt;Node12</title>
<g id="a_edge16_Node000001_Node000012"><a xlink:title=" ">
<path fill="none" stroke="#63b8ff" d="M253.18,-274.98C234.84,-266.46 206.39,-253.23 185.27,-243.41"/>
<polygon fill="#63b8ff" stroke="#63b8ff" points="186.69,-240.21 176.15,-239.17 183.74,-246.56 186.69,-240.21"/>
</a>
</g>
</g>
<!-- Node3 -->
<g id="Node000003" class="node">
<title>Node3</title>
<g id="a_Node000003"><a xlink:title=" ">
<polygon fill="#e0e0e0" stroke="#999999" points="181.5,-184 133.5,-184 133.5,-165 181.5,-165 181.5,-184"/>
<text text-anchor="middle" x="157.5" y="-172" font-family="Helvetica,sans-Serif" font-size="10.00">Wire.h</text>
</a>
</g>
</g>
<!-- Node2&#45;&gt;Node3 -->
<g id="edge2_Node000002_Node000003" class="edge">
<title>Node2&#45;&gt;Node3</title>
<g id="a_edge2_Node000002_Node000003"><a xlink:title=" ">
<path fill="none" stroke="#63b8ff" d="M253.18,-219.98C234.84,-211.46 206.39,-198.23 185.27,-188.41"/>
<polygon fill="#63b8ff" stroke="#63b8ff" points="186.69,-185.21 176.15,-184.17 183.74,-191.56 186.69,-185.21"/>
</a>
</g>
</g>
<!-- Node4 -->
<g id="Node000004" class="node">
<title>Node4</title>
<g id="a_Node000004"><a xlink:href="PayloadConfig_8h.html" target="_top" xlink:title="Central location for pinout and config defines.">
<polygon fill="white" stroke="#666666" points="295,-184 200,-184 200,-165 295,-165 295,-184"/>
<text text-anchor="middle" x="247.5" y="-172" font-family="Helvetica,sans-Serif" font-size="10.00">PayloadConfig.h</text>
</a>
</g>
</g>
<!-- Node2&#45;&gt;Node4 -->
<g id="edge3_Node000002_Node000004" class="edge">
<title>Node2&#45;&gt;Node4</title>
<g id="a_edge3_Node000002_Node000004"><a xlink:title=" ">
<path fill="none" stroke="#63b8ff" d="M267.54,-219.75C264.29,-212.57 259.58,-202.18 255.55,-193.27"/>
<polygon fill="#63b8ff" stroke="#63b8ff" points="258.7,-191.75 251.39,-184.09 252.33,-194.64 258.7,-191.75"/>
</a>
</g>
</g>
<!-- Node5 -->
<g id="Node000005" class="node">
<title>Node5</title>
<g id="a_Node000005"><a xlink:href="Sensor_8h.html" target="_top" xlink:title=" ">
<polygon fill="white" stroke="#666666" points="371.5,-184 313.5,-184 313.5,-165 371.5,-165 371.5,-184"/>
<text text-anchor="middle" x="342.5" y="-172" font-family="Helvetica,sans-Serif" font-size="10.00">Sensor.h</text>
</a>
</g>
</g>
<!-- Node2&#45;&gt;Node5 -->
<g id="edge4_Node000002_Node000005" class="edge">
<title>Node2&#45;&gt;Node5</title>
<g id="a_edge4_Node000002_Node000005"><a xlink:title=" ">
<path fill="none" stroke="#63b8ff" d="M282.91,-219.98C293.61,-212 309.84,-199.88 322.66,-190.31"/>
<polygon fill="#63b8ff" stroke="#63b8ff" points="324.97,-192.96 330.89,-184.17 320.78,-187.35 324.97,-192.96"/>
</a>
</g>
</g>
<!-- Node9 -->
<g id="Node000009" class="node">
<title>Node9</title>
<g id="a_Node000009"><a xlink:title=" ">
<polygon fill="#e0e0e0" stroke="#999999" points="503,-184 390,-184 390,-165 503,-165 503,-184"/>
<text text-anchor="middle" x="446.5" y="-172" font-family="Helvetica,sans-Serif" font-size="10.00">SparkFun_ENS160.h</text>
</a>
</g>
</g>
<!-- Node2&#45;&gt;Node9 -->
<g id="edge11_Node000002_Node000009" class="edge">
<title>Node2&#45;&gt;Node9</title>
<g id="a_edge11_Node000002_Node000009"><a xlink:title=" ">
<path fill="none" stroke="#63b8ff" d="M299.62,-219.98C329.12,-211.05 375.69,-196.94 408.47,-187.02"/>
<polygon fill="#63b8ff" stroke="#63b8ff" points="409.61,-190.33 418.16,-184.08 407.58,-183.63 409.61,-190.33"/>
</a>
</g>
</g>
<!-- Node6 -->
<g id="Node000006" class="node">
<title>Node6</title>
<g id="a_Node000006"><a xlink:title=" ">
<polygon fill="#e0e0e0" stroke="#999999" points="364,-19 301,-19 301,0 364,0 364,-19"/>
<text text-anchor="middle" x="332.5" y="-7" font-family="Helvetica,sans-Serif" font-size="10.00">Arduino.h</text>
</a>
</g>
</g>
<!-- Node5&#45;&gt;Node6 -->
<g id="edge5_Node000005_Node000006" class="edge">
<title>Node5&#45;&gt;Node6</title>
<g id="a_edge5_Node000005_Node000006"><a xlink:title=" ">
<path fill="none" stroke="#63b8ff" d="M331.79,-164.93C322.57,-156.8 309.91,-143.68 304.5,-129 291.63,-94.12 309.66,-51.23 322.21,-27.81"/>
<polygon fill="#63b8ff" stroke="#63b8ff" points="325.29,-29.47 327.14,-19.04 319.19,-26.04 325.29,-29.47"/>
</a>
</g>
</g>
<!-- Node7 -->
<g id="Node000007" class="node">
<title>Node7</title>
<g id="a_Node000007"><a xlink:href="Device_8h.html" target="_top" xlink:title=" ">
<polygon fill="white" stroke="#666666" points="372,-129 313,-129 313,-110 372,-110 372,-129"/>
<text text-anchor="middle" x="342.5" y="-117" font-family="Helvetica,sans-Serif" font-size="10.00">Device.h</text>
</a>
</g>
</g>
<!-- Node5&#45;&gt;Node7 -->
<g id="edge6_Node000005_Node000007" class="edge">
<title>Node5&#45;&gt;Node7</title>
<g id="a_edge6_Node000005_Node000007"><a xlink:title=" ">
<path fill="none" stroke="#63b8ff" d="M342.5,-164.75C342.5,-157.8 342.5,-147.85 342.5,-139.13"/>
<polygon fill="#63b8ff" stroke="#63b8ff" points="346,-139.09 342.5,-129.09 339,-139.09 346,-139.09"/>
</a>
</g>
</g>
<!-- Node8 -->
<g id="Node000008" class="node">
<title>Node8</title>
<g id="a_Node000008"><a xlink:href="Logger_8h.html" target="_top" xlink:title=" ">
<polygon fill="white" stroke="#666666" points="418.5,-74 360.5,-74 360.5,-55 418.5,-55 418.5,-74"/>
<text text-anchor="middle" x="389.5" y="-62" font-family="Helvetica,sans-Serif" font-size="10.00">Logger.h</text>
</a>
</g>
</g>
<!-- Node5&#45;&gt;Node8 -->
<g id="edge10_Node000005_Node000008" class="edge">
<title>Node5&#45;&gt;Node8</title>
<g id="a_edge10_Node000005_Node000008"><a xlink:title=" ">
<path fill="none" stroke="#63b8ff" d="M353.05,-164.81C362.22,-156.6 375.01,-143.43 381.5,-129 387.84,-114.89 389.65,-97.35 389.98,-84.28"/>
<polygon fill="#63b8ff" stroke="#63b8ff" points="393.48,-84.14 389.97,-74.14 386.48,-84.15 393.48,-84.14"/>
</a>
</g>
</g>
<!-- Node7&#45;&gt;Node6 -->
<g id="edge7_Node000007_Node000006" class="edge">
<title>Node7&#45;&gt;Node6</title>
<g id="a_edge7_Node000007_Node000006"><a xlink:title=" ">
<path fill="none" stroke="#63b8ff" d="M341.68,-109.66C340.06,-92.17 336.42,-52.8 334.24,-29.27"/>
<polygon fill="#63b8ff" stroke="#63b8ff" points="337.71,-28.79 333.3,-19.16 330.74,-29.44 337.71,-28.79"/>
</a>
</g>
</g>
<!-- Node7&#45;&gt;Node8 -->
<g id="edge8_Node000007_Node000008" class="edge">
<title>Node7&#45;&gt;Node8</title>
<g id="a_edge8_Node000007_Node000008"><a xlink:title=" ">
<path fill="none" stroke="#63b8ff" d="M350.26,-109.75C356.97,-102.18 366.84,-91.05 375.01,-81.84"/>
<polygon fill="#63b8ff" stroke="#63b8ff" points="377.87,-83.89 381.88,-74.09 372.63,-79.25 377.87,-83.89"/>
</a>
</g>
</g>
<!-- Node8&#45;&gt;Node6 -->
<g id="edge9_Node000008_Node000006" class="edge">
<title>Node8&#45;&gt;Node6</title>
<g id="a_edge9_Node000008_Node000006"><a xlink:title=" ">
<path fill="none" stroke="#63b8ff" d="M380.34,-54.98C372,-47.23 359.47,-35.58 349.32,-26.14"/>
<polygon fill="#63b8ff" stroke="#63b8ff" points="351.53,-23.42 341.82,-19.17 346.76,-28.54 351.53,-23.42"/>
</a>
</g>
</g>
<!-- Node10&#45;&gt;Node4 -->
<g id="edge14_Node000010_Node000004" class="edge">
<title>Node10&#45;&gt;Node4</title>
<g id="a_edge14_Node000010_Node000004"><a xlink:title=" ">
<path fill="none" stroke="#63b8ff" d="M359.97,-219.98C338.03,-211.3 303.76,-197.75 278.81,-187.88"/>
<polygon fill="#63b8ff" stroke="#63b8ff" points="280.01,-184.59 269.42,-184.17 277.43,-191.1 280.01,-184.59"/>
</a>
</g>
</g>
<!-- Node10&#45;&gt;Node5 -->
<g id="edge15_Node000010_Node000005" class="edge">
<title>Node10&#45;&gt;Node5</title>
<g id="a_edge15_Node000010_Node000005"><a xlink:title=" ">
<path fill="none" stroke="#63b8ff" d="M375.06,-219.75C369.61,-212.34 361.64,-201.5 354.94,-192.41"/>
<polygon fill="#63b8ff" stroke="#63b8ff" points="357.57,-190.07 348.82,-184.09 351.93,-194.22 357.57,-190.07"/>
</a>
</g>
</g>
<!-- Node11 -->
<g id="Node000011" class="node">
<title>Node11</title>
<g id="a_Node000011"><a xlink:title=" ">
<polygon fill="#e0e0e0" stroke="#999999" points="622,-184 521,-184 521,-165 622,-165 622,-184"/>
<text text-anchor="middle" x="571.5" y="-172" font-family="Helvetica,sans-Serif" font-size="10.00">Adafruit_SHTC3.h</text>
</a>
</g>
</g>
<!-- Node10&#45;&gt;Node11 -->
<g id="edge13_Node000010_Node000011" class="edge">
<title>Node10&#45;&gt;Node11</title>
<g id="a_edge13_Node000010_Node000011"><a xlink:title=" ">
<path fill="none" stroke="#63b8ff" d="M412.03,-219.98C444.2,-211.01 495.06,-196.82 530.67,-186.89"/>
<polygon fill="#63b8ff" stroke="#63b8ff" points="532.04,-190.14 540.73,-184.08 530.16,-183.4 532.04,-190.14"/>
</a>
</g>
</g>
<!-- Node12&#45;&gt;Node3 -->
<g id="edge18_Node000012_Node000003" class="edge">
<title>Node12&#45;&gt;Node3</title>
<g id="a_edge18_Node000012_Node000003"><a xlink:title=" ">
<path fill="none" stroke="#63b8ff" d="M157.5,-219.75C157.5,-212.8 157.5,-202.85 157.5,-194.13"/>
<polygon fill="#63b8ff" stroke="#63b8ff" points="161,-194.09 157.5,-184.09 154,-194.09 161,-194.09"/>
</a>
</g>
</g>
<!-- Node12&#45;&gt;Node4 -->
<g id="edge19_Node000012_Node000004" class="edge">
<title>Node12&#45;&gt;Node4</title>
<g id="a_edge19_Node000012_Node000004"><a xlink:title=" ">
<path fill="none" stroke="#63b8ff" d="M171.96,-219.98C185.92,-211.77 207.29,-199.18 223.75,-189.49"/>
<polygon fill="#63b8ff" stroke="#63b8ff" points="225.94,-192.26 232.78,-184.17 222.38,-186.23 225.94,-192.26"/>
</a>
</g>
</g>
<!-- Node12&#45;&gt;Node5 -->
<g id="edge20_Node000012_Node000005" class="edge">
<title>Node12&#45;&gt;Node5</title>
<g id="a_edge20_Node000012_Node000005"><a xlink:title=" ">
<path fill="none" stroke="#63b8ff" d="M187.22,-219.98C218.83,-210.93 268.95,-196.57 303.66,-186.63"/>
<polygon fill="#63b8ff" stroke="#63b8ff" points="304.81,-189.94 313.46,-183.82 302.88,-183.21 304.81,-189.94"/>
</a>
</g>
</g>
<!-- Node13 -->
<g id="Node000013" class="node">
<title>Node13</title>
<g id="a_Node000013"><a xlink:title=" ">
<polygon fill="#e0e0e0" stroke="#999999" points="115,-184 0,-184 0,-165 115,-165 115,-184"/>
<text text-anchor="middle" x="57.5" y="-172" font-family="Helvetica,sans-Serif" font-size="10.00">SparkFun_TMP117.h</text>
</a>
</g>
</g>
<!-- Node12&#45;&gt;Node13 -->
<g id="edge17_Node000012_Node000013" class="edge">
<title>Node12&#45;&gt;Node13</title>
<g id="a_edge17_Node000012_Node000013"><a xlink:title=" ">
<path fill="none" stroke="#63b8ff" d="M141.43,-219.98C125.64,-211.61 101.28,-198.7 82.87,-188.95"/>
<polygon fill="#63b8ff" stroke="#63b8ff" points="84.33,-185.76 73.86,-184.17 81.06,-191.95 84.33,-185.76"/>
</a>
</g>
</g>
</g>
</svg>
