<?xml version="1.0" encoding="UTF-8" standalone="no"?>
<!DOCTYPE svg PUBLIC "-//W3C//DTD SVG 1.1//EN"
 "http://www.w3.org/Graphics/SVG/1.1/DTD/svg11.dtd">
<!-- Generated by graphviz version 2.43.0 (0)
 -->
<!-- Title: ENS160Sensor.h Pages: 1 -->
<svg width="378pt" height="247pt"
 viewBox="0.00 0.00 377.50 247.00" xmlns="http://www.w3.org/2000/svg" xmlns:xlink="http://www.w3.org/1999/xlink">
<g id="graph0" class="graph" transform="scale(1 1) rotate(0) translate(4 243)">
<title>ENS160Sensor.h</title>
<!-- Node1 -->
<g id="Node000001" class="node">
<title>Node1</title>
<g id="a_Node000001"><a xlink:title=" ">
<polygon fill="#999999" stroke="#666666" points="208.5,-239 113.5,-239 113.5,-220 208.5,-220 208.5,-239"/>
<text text-anchor="middle" x="161" y="-227" font-family="Helvetica,sans-Serif" font-size="10.00">ENS160Sensor.h</text>
</a>
</g>
</g>
<!-- Node2 -->
<g id="Node000002" class="node">
<title>Node2</title>
<g id="a_Node000002"><a xlink:title=" ">
<polygon fill="#e0e0e0" stroke="#999999" points="48,-184 0,-184 0,-165 48,-165 48,-184"/>
<text text-anchor="middle" x="24" y="-172" font-family="Helvetica,sans-Serif" font-size="10.00">Wire.h</text>
</a>
</g>
</g>
<!-- Node1&#45;&gt;Node2 -->
<g id="edge1_Node000001_Node000002" class="edge">
<title>Node1&#45;&gt;Node2</title>
<g id="a_edge1_Node000001_Node000002"><a xlink:title=" ">
<path fill="none" stroke="#63b8ff" d="M138.99,-219.98C116.55,-211.3 81.52,-197.75 56.01,-187.88"/>
<polygon fill="#63b8ff" stroke="#63b8ff" points="57,-184.51 46.41,-184.17 54.48,-191.04 57,-184.51"/>
</a>
</g>
</g>
<!-- Node3 -->
<g id="Node000003" class="node">
<title>Node3</title>
<g id="a_Node000003"><a xlink:href="PayloadConfig_8h.html" target="_top" xlink:title="Central location for pinout and config defines.">
<polygon fill="white" stroke="#666666" points="161.5,-184 66.5,-184 66.5,-165 161.5,-165 161.5,-184"/>
<text text-anchor="middle" x="114" y="-172" font-family="Helvetica,sans-Serif" font-size="10.00">PayloadConfig.h</text>
</a>
</g>
</g>
<!-- Node1&#45;&gt;Node3 -->
<g id="edge2_Node000001_Node000003" class="edge">
<title>Node1&#45;&gt;Node3</title>
<g id="a_edge2_Node000001_Node000003"><a xlink:title=" ">
<path fill="none" stroke="#63b8ff" d="M153.24,-219.75C146.53,-212.18 136.66,-201.05 128.49,-191.84"/>
<polygon fill="#63b8ff" stroke="#63b8ff" points="130.87,-189.25 121.62,-184.09 125.63,-193.89 130.87,-189.25"/>
</a>
</g>
</g>
<!-- Node4 -->
<g id="Node000004" class="node">
<title>Node4</title>
<g id="a_Node000004"><a xlink:href="Sensor_8h.html" target="_top" xlink:title=" ">
<polygon fill="white" stroke="#666666" points="238,-184 180,-184 180,-165 238,-165 238,-184"/>
<text text-anchor="middle" x="209" y="-172" font-family="Helvetica,sans-Serif" font-size="10.00">Sensor.h</text>
</a>
</g>
</g>
<!-- Node1&#45;&gt;Node4 -->
<g id="edge3_Node000001_Node000004" class="edge">
<title>Node1&#45;&gt;Node4</title>
<g id="a_edge3_Node000001_Node000004"><a xlink:title=" ">
<path fill="none" stroke="#63b8ff" d="M168.93,-219.75C175.85,-212.11 186.07,-200.82 194.45,-191.56"/>
<polygon fill="#63b8ff" stroke="#63b8ff" points="197.1,-193.85 201.22,-184.09 191.91,-189.15 197.1,-193.85"/>
</a>
</g>
</g>
<!-- Node8 -->
<g id="Node000008" class="node">
<title>Node8</title>
<g id="a_Node000008"><a xlink:title=" ">
<polygon fill="#e0e0e0" stroke="#999999" points="369.5,-184 256.5,-184 256.5,-165 369.5,-165 369.5,-184"/>
<text text-anchor="middle" x="313" y="-172" font-family="Helvetica,sans-Serif" font-size="10.00">SparkFun_ENS160.h</text>
</a>
</g>
</g>
<!-- Node1&#45;&gt;Node8 -->
<g id="edge10_Node000001_Node000008" class="edge">
<title>Node1&#45;&gt;Node8</title>
<g id="a_edge10_Node000001_Node000008"><a xlink:title=" ">
<path fill="none" stroke="#63b8ff" d="M185.42,-219.98C210.72,-211.16 250.45,-197.31 278.86,-187.41"/>
<polygon fill="#63b8ff" stroke="#63b8ff" points="280.1,-190.68 288.39,-184.08 277.79,-184.07 280.1,-190.68"/>
</a>
</g>
</g>
<!-- Node5 -->
<g id="Node000005" class="node">
<title>Node5</title>
<g id="a_Node000005"><a xlink:title=" ">
<polygon fill="#e0e0e0" stroke="#999999" points="230.5,-19 167.5,-19 167.5,0 230.5,0 230.5,-19"/>
<text text-anchor="middle" x="199" y="-7" font-family="Helvetica,sans-Serif" font-size="10.00">Arduino.h</text>
</a>
</g>
</g>
<!-- Node4&#45;&gt;Node5 -->
<g id="edge4_Node000004_Node000005" class="edge">
<title>Node4&#45;&gt;Node5</title>
<g id="a_edge4_Node000004_Node000005"><a xlink:title=" ">
<path fill="none" stroke="#63b8ff" d="M198.29,-164.93C189.07,-156.8 176.41,-143.68 171,-129 158.13,-94.12 176.16,-51.23 188.71,-27.81"/>
<polygon fill="#63b8ff" stroke="#63b8ff" points="191.79,-29.47 193.64,-19.04 185.69,-26.04 191.79,-29.47"/>
</a>
</g>
</g>
<!-- Node6 -->
<g id="Node000006" class="node">
<title>Node6</title>
<g id="a_Node000006"><a xlink:href="Device_8h.html" target="_top" xlink:title=" ">
<polygon fill="white" stroke="#666666" points="238.5,-129 179.5,-129 179.5,-110 238.5,-110 238.5,-129"/>
<text text-anchor="middle" x="209" y="-117" font-family="Helvetica,sans-Serif" font-size="10.00">Device.h</text>
</a>
</g>
</g>
<!-- Node4&#45;&gt;Node6 -->
<g id="edge5_Node000004_Node000006" class="edge">
<title>Node4&#45;&gt;Node6</title>
<g id="a_edge5_Node000004_Node000006"><a xlink:title=" ">
<path fill="none" stroke="#63b8ff" d="M209,-164.75C209,-157.8 209,-147.85 209,-139.13"/>
<polygon fill="#63b8ff" stroke="#63b8ff" points="212.5,-139.09 209,-129.09 205.5,-139.09 212.5,-139.09"/>
</a>
</g>
</g>
<!-- Node7 -->
<g id="Node000007" class="node">
<title>Node7</title>
<g id="a_Node000007"><a xlink:href="Logger_8h.html" target="_top" xlink:title=" ">
<polygon fill="white" stroke="#666666" points="285,-74 227,-74 227,-55 285,-55 285,-74"/>
<text text-anchor="middle" x="256" y="-62" font-family="Helvetica,sans-Serif" font-size="10.00">Logger.h</text>
</a>
</g>
</g>
<!-- Node4&#45;&gt;Node7 -->
<g id="edge9_Node000004_Node000007" class="edge">
<title>Node4&#45;&gt;Node7</title>
<g id="a_edge9_Node000004_Node000007"><a xlink:title=" ">
<path fill="none" stroke="#63b8ff" d="M219.55,-164.81C228.72,-156.6 241.51,-143.43 248,-129 254.34,-114.89 256.15,-97.35 256.48,-84.28"/>
<polygon fill="#63b8ff" stroke="#63b8ff" points="259.98,-84.14 256.47,-74.14 252.98,-84.15 259.98,-84.14"/>
</a>
</g>
</g>
<!-- Node6&#45;&gt;Node5 -->
<g id="edge6_Node000006_Node000005" class="edge">
<title>Node6&#45;&gt;Node5</title>
<g id="a_edge6_Node000006_Node000005"><a xlink:title=" ">
<path fill="none" stroke="#63b8ff" d="M208.18,-109.66C206.56,-92.17 202.92,-52.8 200.74,-29.27"/>
<polygon fill="#63b8ff" stroke="#63b8ff" points="204.21,-28.79 199.8,-19.16 197.24,-29.44 204.21,-28.79"/>
</a>
</g>
</g>
<!-- Node6&#45;&gt;Node7 -->
<g id="edge7_Node000006_Node000007" class="edge">
<title>Node6&#45;&gt;Node7</title>
<g id="a_edge7_Node000006_Node000007"><a xlink:title=" ">
<path fill="none" stroke="#63b8ff" d="M216.76,-109.75C223.47,-102.18 233.34,-91.05 241.51,-81.84"/>
<polygon fill="#63b8ff" stroke="#63b8ff" points="244.37,-83.89 248.38,-74.09 239.13,-79.25 244.37,-83.89"/>
</a>
</g>
</g>
<!-- Node7&#45;&gt;Node5 -->
<g id="edge8_Node000007_Node000005" class="edge">
<title>Node7&#45;&gt;Node5</title>
<g id="a_edge8_Node000007_Node000005"><a xlink:title=" ">
<path fill="none" stroke="#63b8ff" d="M246.84,-54.98C238.5,-47.23 225.97,-35.58 215.82,-26.14"/>
<polygon fill="#63b8ff" stroke="#63b8ff" points="218.03,-23.42 208.32,-19.17 213.26,-28.54 218.03,-23.42"/>
</a>
</g>
</g>
</g>
</svg>
