<?xml version="1.0" encoding="UTF-8" standalone="no"?>
<!DOCTYPE svg PUBLIC "-//W3C//DTD SVG 1.1//EN"
 "http://www.w3.org/Graphics/SVG/1.1/DTD/svg11.dtd">
<!-- Generated by graphviz version 2.43.0 (0)
 -->
<!-- Title: ErrorDisplay.h Pages: 1 -->
<svg width="394pt" height="84pt"
 viewBox="0.00 0.00 393.50 84.00" xmlns="http://www.w3.org/2000/svg" xmlns:xlink="http://www.w3.org/1999/xlink">
<g id="graph0" class="graph" transform="scale(1 1) rotate(0) translate(4 80)">
<title>ErrorDisplay.h</title>
<!-- Node1 -->
<g id="node1" class="node">
<title>Node1</title>
<g id="a_node1"><a xlink:title=" ">
<polygon fill="#bfbfbf" stroke="black" points="144.5,-56.5 144.5,-75.5 228.5,-75.5 228.5,-56.5 144.5,-56.5"/>
<text text-anchor="middle" x="186.5" y="-63.5" font-family="Helvetica,sans-Serif" font-size="10.00">ErrorDisplay.h</text>
</a>
</g>
</g>
<!-- Node2 -->
<g id="node2" class="node">
<title>Node2</title>
<g id="a_node2"><a xlink:title=" ">
<polygon fill="none" stroke="#bfbfbf" points="0,-0.5 0,-19.5 63,-19.5 63,-0.5 0,-0.5"/>
<text text-anchor="middle" x="31.5" y="-7.5" font-family="Helvetica,sans-Serif" font-size="10.00">Arduino.h</text>
</a>
</g>
</g>
<!-- Node1&#45;&gt;Node2 -->
<g id="edge1" class="edge">
<title>Node1&#45;&gt;Node2</title>
<path fill="none" stroke="midnightblue" d="M161.94,-56.44C135.98,-47.4 94.83,-33.06 65.7,-22.92"/>
<polygon fill="midnightblue" stroke="midnightblue" points="66.54,-19.5 55.95,-19.52 64.24,-26.11 66.54,-19.5"/>
</g>
<!-- Node3 -->
<g id="node3" class="node">
<title>Node3</title>
<g id="a_node3"><a xlink:href="PayloadConfig_8h.html" target="_top" xlink:title="Central location for pinout and config defines.">
<polygon fill="none" stroke="black" points="81.5,-0.5 81.5,-19.5 177.5,-19.5 177.5,-0.5 81.5,-0.5"/>
<text text-anchor="middle" x="129.5" y="-7.5" font-family="Helvetica,sans-Serif" font-size="10.00">PayloadConfig.h</text>
</a>
</g>
</g>
<!-- Node1&#45;&gt;Node3 -->
<g id="edge2" class="edge">
<title>Node1&#45;&gt;Node3</title>
<path fill="none" stroke="midnightblue" d="M177.34,-56.32C169,-48.42 156.47,-36.55 146.32,-26.94"/>
<polygon fill="midnightblue" stroke="midnightblue" points="148.49,-24.17 138.82,-19.83 143.68,-29.25 148.49,-24.17"/>
</g>
<!-- Node4 -->
<g id="node4" class="node">
<title>Node4</title>
<g id="a_node4"><a xlink:title=" ">
<polygon fill="none" stroke="#bfbfbf" points="196,-0.5 196,-19.5 291,-19.5 291,-0.5 196,-0.5"/>
<text text-anchor="middle" x="243.5" y="-7.5" font-family="Helvetica,sans-Serif" font-size="10.00">pico/multicore.h</text>
</a>
</g>
</g>
<!-- Node1&#45;&gt;Node4 -->
<g id="edge3" class="edge">
<title>Node1&#45;&gt;Node4</title>
<path fill="none" stroke="midnightblue" d="M195.66,-56.32C204,-48.42 216.53,-36.55 226.68,-26.94"/>
<polygon fill="midnightblue" stroke="midnightblue" points="229.32,-29.25 234.18,-19.83 224.51,-24.17 229.32,-29.25"/>
</g>
<!-- Node5 -->
<g id="node5" class="node">
<title>Node5</title>
<g id="a_node5"><a xlink:title=" ">
<polygon fill="none" stroke="#bfbfbf" points="309.5,-0.5 309.5,-19.5 385.5,-19.5 385.5,-0.5 309.5,-0.5"/>
<text text-anchor="middle" x="347.5" y="-7.5" font-family="Helvetica,sans-Serif" font-size="10.00">pico/stdlib.h</text>
</a>
</g>
</g>
<!-- Node1&#45;&gt;Node5 -->
<g id="edge4" class="edge">
<title>Node1&#45;&gt;Node5</title>
<path fill="none" stroke="midnightblue" d="M212.01,-56.44C239.1,-47.36 282.09,-32.94 312.37,-22.78"/>
<polygon fill="midnightblue" stroke="midnightblue" points="313.74,-26.01 322.11,-19.52 311.51,-19.38 313.74,-26.01"/>
</g>
</g>
</svg>
