<?xml version="1.0" encoding="UTF-8" standalone="no"?>
<!DOCTYPE svg PUBLIC "-//W3C//DTD SVG 1.1//EN"
 "http://www.w3.org/Graphics/SVG/1.1/DTD/svg11.dtd">
<!-- Generated by graphviz version 2.43.0 (0)
 -->
<!-- Title: FlashStorage.cpp Pages: 1 -->
<svg width="456pt" height="302pt"
 viewBox="0.00 0.00 455.50 302.00" xmlns="http://www.w3.org/2000/svg" xmlns:xlink="http://www.w3.org/1999/xlink">
<g id="graph0" class="graph" transform="scale(1 1) rotate(0) translate(4 298)">
<title>FlashStorage.cpp</title>
<!-- Node1 -->
<g id="Node000001" class="node">
<title>Node1</title>
<g id="a_Node000001"><a xlink:title=" ">
<polygon fill="#999999" stroke="#666666" points="227,-294 126,-294 126,-275 227,-275 227,-294"/>
<text text-anchor="middle" x="176.5" y="-282" font-family="Helvetica,sans-Serif" font-size="10.00">FlashStorage.cpp</text>
</a>
</g>
</g>
<!-- Node2 -->
<g id="Node000002" class="node">
<title>Node2</title>
<g id="a_Node000002"><a xlink:href="FlashStorage_8h.html" target="_top" xlink:title=" ">
<polygon fill="white" stroke="#666666" points="221,-239 132,-239 132,-220 221,-220 221,-239"/>
<text text-anchor="middle" x="176.5" y="-227" font-family="Helvetica,sans-Serif" font-size="10.00">FlashStorage.h</text>
</a>
</g>
</g>
<!-- Node1&#45;&gt;Node2 -->
<g id="edge1_Node000001_Node000002" class="edge">
<title>Node1&#45;&gt;Node2</title>
<g id="a_edge1_Node000001_Node000002"><a xlink:title=" ">
<path fill="none" stroke="#63b8ff" d="M176.5,-274.75C176.5,-267.8 176.5,-257.85 176.5,-249.13"/>
<polygon fill="#63b8ff" stroke="#63b8ff" points="180,-249.09 176.5,-239.09 173,-249.09 180,-249.09"/>
</a>
</g>
</g>
<!-- Node3 -->
<g id="Node000003" class="node">
<title>Node3</title>
<g id="a_Node000003"><a xlink:title=" ">
<polygon fill="#e0e0e0" stroke="#999999" points="41,-184 0,-184 0,-165 41,-165 41,-184"/>
<text text-anchor="middle" x="20.5" y="-172" font-family="Helvetica,sans-Serif" font-size="10.00">SPI.h</text>
</a>
</g>
</g>
<!-- Node2&#45;&gt;Node3 -->
<g id="edge2_Node000002_Node000003" class="edge">
<title>Node2&#45;&gt;Node3</title>
<g id="a_edge2_Node000002_Node000003"><a xlink:title=" ">
<path fill="none" stroke="#63b8ff" d="M151.44,-219.98C124.01,-210.67 80.05,-195.73 50.73,-185.77"/>
<polygon fill="#63b8ff" stroke="#63b8ff" points="51.61,-182.37 41.02,-182.47 49.36,-189 51.61,-182.37"/>
</a>
</g>
</g>
<!-- Node4 -->
<g id="Node000004" class="node">
<title>Node4</title>
<g id="a_Node000004"><a xlink:href="PayloadConfig_8h.html" target="_top" xlink:title="Central location for pinout and config defines.">
<polygon fill="white" stroke="#666666" points="154,-184 59,-184 59,-165 154,-165 154,-184"/>
<text text-anchor="middle" x="106.5" y="-172" font-family="Helvetica,sans-Serif" font-size="10.00">PayloadConfig.h</text>
</a>
</g>
</g>
<!-- Node2&#45;&gt;Node4 -->
<g id="edge3_Node000002_Node000004" class="edge">
<title>Node2&#45;&gt;Node4</title>
<g id="a_edge3_Node000002_Node000004"><a xlink:title=" ">
<path fill="none" stroke="#63b8ff" d="M165.25,-219.98C154.7,-212 138.7,-199.88 126.06,-190.31"/>
<polygon fill="#63b8ff" stroke="#63b8ff" points="128.04,-187.42 117.95,-184.17 123.81,-193 128.04,-187.42"/>
</a>
</g>
</g>
<!-- Node5 -->
<g id="Node000005" class="node">
<title>Node5</title>
<g id="a_Node000005"><a xlink:title=" ">
<polygon fill="#e0e0e0" stroke="#999999" points="322.5,-184 172.5,-184 172.5,-165 322.5,-165 322.5,-184"/>
<text text-anchor="middle" x="247.5" y="-172" font-family="Helvetica,sans-Serif" font-size="10.00">SparkFun_SPI_SerialFlash.h</text>
</a>
</g>
</g>
<!-- Node2&#45;&gt;Node5 -->
<g id="edge4_Node000002_Node000005" class="edge">
<title>Node2&#45;&gt;Node5</title>
<g id="a_edge4_Node000002_Node000005"><a xlink:title=" ">
<path fill="none" stroke="#63b8ff" d="M187.91,-219.98C198.61,-212 214.84,-199.88 227.66,-190.31"/>
<polygon fill="#63b8ff" stroke="#63b8ff" points="229.97,-192.96 235.89,-184.17 225.78,-187.35 229.97,-192.96"/>
</a>
</g>
</g>
<!-- Node6 -->
<g id="Node000006" class="node">
<title>Node6</title>
<g id="a_Node000006"><a xlink:href="Storage_8h.html" target="_top" xlink:title=" ">
<polygon fill="white" stroke="#666666" points="403,-184 340,-184 340,-165 403,-165 403,-184"/>
<text text-anchor="middle" x="371.5" y="-172" font-family="Helvetica,sans-Serif" font-size="10.00">Storage.h</text>
</a>
</g>
</g>
<!-- Node2&#45;&gt;Node6 -->
<g id="edge5_Node000002_Node000006" class="edge">
<title>Node2&#45;&gt;Node6</title>
<g id="a_edge5_Node000002_Node000006"><a xlink:title=" ">
<path fill="none" stroke="#63b8ff" d="M207.83,-219.98C240.99,-210.97 293.5,-196.7 330.06,-186.76"/>
<polygon fill="#63b8ff" stroke="#63b8ff" points="331.19,-190.08 339.92,-184.08 329.36,-183.33 331.19,-190.08"/>
</a>
</g>
</g>
<!-- Node7 -->
<g id="Node000007" class="node">
<title>Node7</title>
<g id="a_Node000007"><a xlink:title=" ">
<polygon fill="#e0e0e0" stroke="#999999" points="393,-19 330,-19 330,0 393,0 393,-19"/>
<text text-anchor="middle" x="361.5" y="-7" font-family="Helvetica,sans-Serif" font-size="10.00">Arduino.h</text>
</a>
</g>
</g>
<!-- Node6&#45;&gt;Node7 -->
<g id="edge6_Node000006_Node000007" class="edge">
<title>Node6&#45;&gt;Node7</title>
<g id="a_edge6_Node000006_Node000007"><a xlink:title=" ">
<path fill="none" stroke="#63b8ff" d="M360.79,-164.93C351.57,-156.8 338.91,-143.68 333.5,-129 320.63,-94.12 338.66,-51.23 351.21,-27.81"/>
<polygon fill="#63b8ff" stroke="#63b8ff" points="354.29,-29.47 356.14,-19.04 348.19,-26.04 354.29,-29.47"/>
</a>
</g>
</g>
<!-- Node8 -->
<g id="Node000008" class="node">
<title>Node8</title>
<g id="a_Node000008"><a xlink:href="Device_8h.html" target="_top" xlink:title=" ">
<polygon fill="white" stroke="#666666" points="401,-129 342,-129 342,-110 401,-110 401,-129"/>
<text text-anchor="middle" x="371.5" y="-117" font-family="Helvetica,sans-Serif" font-size="10.00">Device.h</text>
</a>
</g>
</g>
<!-- Node6&#45;&gt;Node8 -->
<g id="edge7_Node000006_Node000008" class="edge">
<title>Node6&#45;&gt;Node8</title>
<g id="a_edge7_Node000006_Node000008"><a xlink:title=" ">
<path fill="none" stroke="#63b8ff" d="M371.5,-164.75C371.5,-157.8 371.5,-147.85 371.5,-139.13"/>
<polygon fill="#63b8ff" stroke="#63b8ff" points="375,-139.09 371.5,-129.09 368,-139.09 375,-139.09"/>
</a>
</g>
</g>
<!-- Node9 -->
<g id="Node000009" class="node">
<title>Node9</title>
<g id="a_Node000009"><a xlink:href="Logger_8h.html" target="_top" xlink:title=" ">
<polygon fill="white" stroke="#666666" points="447.5,-74 389.5,-74 389.5,-55 447.5,-55 447.5,-74"/>
<text text-anchor="middle" x="418.5" y="-62" font-family="Helvetica,sans-Serif" font-size="10.00">Logger.h</text>
</a>
</g>
</g>
<!-- Node6&#45;&gt;Node9 -->
<g id="edge11_Node000006_Node000009" class="edge">
<title>Node6&#45;&gt;Node9</title>
<g id="a_edge11_Node000006_Node000009"><a xlink:title=" ">
<path fill="none" stroke="#63b8ff" d="M382.05,-164.81C391.22,-156.6 404.01,-143.43 410.5,-129 416.84,-114.89 418.65,-97.35 418.98,-84.28"/>
<polygon fill="#63b8ff" stroke="#63b8ff" points="422.48,-84.14 418.97,-74.14 415.48,-84.15 422.48,-84.14"/>
</a>
</g>
</g>
<!-- Node8&#45;&gt;Node7 -->
<g id="edge8_Node000008_Node000007" class="edge">
<title>Node8&#45;&gt;Node7</title>
<g id="a_edge8_Node000008_Node000007"><a xlink:title=" ">
<path fill="none" stroke="#63b8ff" d="M370.68,-109.66C369.06,-92.17 365.42,-52.8 363.24,-29.27"/>
<polygon fill="#63b8ff" stroke="#63b8ff" points="366.71,-28.79 362.3,-19.16 359.74,-29.44 366.71,-28.79"/>
</a>
</g>
</g>
<!-- Node8&#45;&gt;Node9 -->
<g id="edge9_Node000008_Node000009" class="edge">
<title>Node8&#45;&gt;Node9</title>
<g id="a_edge9_Node000008_Node000009"><a xlink:title=" ">
<path fill="none" stroke="#63b8ff" d="M379.26,-109.75C385.97,-102.18 395.84,-91.05 404.01,-81.84"/>
<polygon fill="#63b8ff" stroke="#63b8ff" points="406.87,-83.89 410.88,-74.09 401.63,-79.25 406.87,-83.89"/>
</a>
</g>
</g>
<!-- Node9&#45;&gt;Node7 -->
<g id="edge10_Node000009_Node000007" class="edge">
<title>Node9&#45;&gt;Node7</title>
<g id="a_edge10_Node000009_Node000007"><a xlink:title=" ">
<path fill="none" stroke="#63b8ff" d="M409.34,-54.98C401,-47.23 388.47,-35.58 378.32,-26.14"/>
<polygon fill="#63b8ff" stroke="#63b8ff" points="380.53,-23.42 370.82,-19.17 375.76,-28.54 380.53,-23.42"/>
</a>
</g>
</g>
</g>
</svg>
