<?xml version="1.0" encoding="UTF-8" standalone="no"?>
<!DOCTYPE svg PUBLIC "-//W3C//DTD SVG 1.1//EN"
 "http://www.w3.org/Graphics/SVG/1.1/DTD/svg11.dtd">
<!-- Generated by graphviz version 2.43.0 (0)
 -->
<!-- Title: FlashStorage.h Pages: 1 -->
<svg width="523pt" height="252pt"
 viewBox="0.00 0.00 523.00 252.00" xmlns="http://www.w3.org/2000/svg" xmlns:xlink="http://www.w3.org/1999/xlink">
<g id="graph0" class="graph" transform="scale(1 1) rotate(0) translate(4 248)">
<title>FlashStorage.h</title>
<!-- Node1 -->
<g id="node1" class="node">
<title>Node1</title>
<g id="a_node1"><a xlink:title=" ">
<polygon fill="#bfbfbf" stroke="black" points="128,-224.5 128,-243.5 217,-243.5 217,-224.5 128,-224.5"/>
<text text-anchor="middle" x="172.5" y="-231.5" font-family="Helvetica,sans-Serif" font-size="10.00">FlashStorage.h</text>
</a>
</g>
</g>
<!-- Node2 -->
<g id="node2" class="node">
<title>Node2</title>
<g id="a_node2"><a xlink:title=" ">
<polygon fill="none" stroke="#bfbfbf" points="0,-168.5 0,-187.5 41,-187.5 41,-168.5 0,-168.5"/>
<text text-anchor="middle" x="20.5" y="-175.5" font-family="Helvetica,sans-Serif" font-size="10.00">SPI.h</text>
</a>
</g>
</g>
<!-- Node1&#45;&gt;Node2 -->
<g id="edge1" class="edge">
<title>Node1&#45;&gt;Node2</title>
<path fill="none" stroke="midnightblue" d="M148.42,-224.44C121.91,-215.03 79.26,-199.87 50.57,-189.68"/>
<polygon fill="midnightblue" stroke="midnightblue" points="51.65,-186.35 41.06,-186.3 49.31,-192.95 51.65,-186.35"/>
</g>
<!-- Node3 -->
<g id="node3" class="node">
<title>Node3</title>
<g id="a_node3"><a xlink:title=" ">
<polygon fill="none" stroke="#bfbfbf" points="59,-168.5 59,-187.5 106,-187.5 106,-168.5 59,-168.5"/>
<text text-anchor="middle" x="82.5" y="-175.5" font-family="Helvetica,sans-Serif" font-size="10.00">vector</text>
</a>
</g>
</g>
<!-- Node1&#45;&gt;Node3 -->
<g id="edge2" class="edge">
<title>Node1&#45;&gt;Node3</title>
<path fill="none" stroke="midnightblue" d="M158.04,-224.32C144,-215.9 122.45,-202.97 105.96,-193.07"/>
<polygon fill="midnightblue" stroke="midnightblue" points="107.3,-189.8 96.92,-187.65 103.7,-195.8 107.3,-189.8"/>
</g>
<!-- Node4 -->
<g id="node4" class="node">
<title>Node4</title>
<g id="a_node4"><a xlink:href="PayloadConfig_8h.html" target="_top" xlink:title="Central location for pinout and config defines.">
<polygon fill="none" stroke="black" points="124.5,-168.5 124.5,-187.5 220.5,-187.5 220.5,-168.5 124.5,-168.5"/>
<text text-anchor="middle" x="172.5" y="-175.5" font-family="Helvetica,sans-Serif" font-size="10.00">PayloadConfig.h</text>
</a>
</g>
</g>
<!-- Node1&#45;&gt;Node4 -->
<g id="edge3" class="edge">
<title>Node1&#45;&gt;Node4</title>
<path fill="none" stroke="midnightblue" d="M172.5,-224.08C172.5,-217.01 172.5,-206.86 172.5,-197.99"/>
<polygon fill="midnightblue" stroke="midnightblue" points="176,-197.75 172.5,-187.75 169,-197.75 176,-197.75"/>
</g>
<!-- Node5 -->
<g id="node5" class="node">
<title>Node5</title>
<g id="a_node5"><a xlink:title=" ">
<polygon fill="none" stroke="#bfbfbf" points="238.5,-168.5 238.5,-187.5 388.5,-187.5 388.5,-168.5 238.5,-168.5"/>
<text text-anchor="middle" x="313.5" y="-175.5" font-family="Helvetica,sans-Serif" font-size="10.00">SparkFun_SPI_SerialFlash.h</text>
</a>
</g>
</g>
<!-- Node1&#45;&gt;Node5 -->
<g id="edge4" class="edge">
<title>Node1&#45;&gt;Node5</title>
<path fill="none" stroke="midnightblue" d="M194.84,-224.44C218.25,-215.48 255.24,-201.31 281.69,-191.18"/>
<polygon fill="midnightblue" stroke="midnightblue" points="283.18,-194.36 291.26,-187.52 280.67,-187.82 283.18,-194.36"/>
</g>
<!-- Node6 -->
<g id="node6" class="node">
<title>Node6</title>
<g id="a_node6"><a xlink:href="Storage_8h.html" target="_top" xlink:title=" ">
<polygon fill="none" stroke="black" points="406,-168.5 406,-187.5 469,-187.5 469,-168.5 406,-168.5"/>
<text text-anchor="middle" x="437.5" y="-175.5" font-family="Helvetica,sans-Serif" font-size="10.00">Storage.h</text>
</a>
</g>
</g>
<!-- Node1&#45;&gt;Node6 -->
<g id="edge5" class="edge">
<title>Node1&#45;&gt;Node6</title>
<path fill="none" stroke="midnightblue" d="M216.96,-224.43C260.27,-216.02 328.22,-202.62 395.69,-188.35"/>
<polygon fill="midnightblue" stroke="midnightblue" points="396.58,-191.74 405.64,-186.24 395.13,-184.89 396.58,-191.74"/>
</g>
<!-- Node7 -->
<g id="node7" class="node">
<title>Node7</title>
<g id="a_node7"><a xlink:title=" ">
<polygon fill="none" stroke="#bfbfbf" points="396,-0.5 396,-19.5 459,-19.5 459,-0.5 396,-0.5"/>
<text text-anchor="middle" x="427.5" y="-7.5" font-family="Helvetica,sans-Serif" font-size="10.00">Arduino.h</text>
</a>
</g>
</g>
<!-- Node6&#45;&gt;Node7 -->
<g id="edge6" class="edge">
<title>Node6&#45;&gt;Node7</title>
<path fill="none" stroke="midnightblue" d="M426.79,-168.3C417.56,-160.07 404.91,-146.79 399.5,-132 386.47,-96.39 404.56,-52.6 417.16,-28.67"/>
<polygon fill="midnightblue" stroke="midnightblue" points="420.34,-30.16 422.12,-19.72 414.21,-26.77 420.34,-30.16"/>
</g>
<!-- Node8 -->
<g id="node8" class="node">
<title>Node8</title>
<g id="a_node8"><a xlink:href="Device_8h.html" target="_top" xlink:title=" ">
<polygon fill="none" stroke="black" points="408,-112.5 408,-131.5 467,-131.5 467,-112.5 408,-112.5"/>
<text text-anchor="middle" x="437.5" y="-119.5" font-family="Helvetica,sans-Serif" font-size="10.00">Device.h</text>
</a>
</g>
</g>
<!-- Node6&#45;&gt;Node8 -->
<g id="edge7" class="edge">
<title>Node6&#45;&gt;Node8</title>
<path fill="none" stroke="midnightblue" d="M437.5,-168.08C437.5,-161.01 437.5,-150.86 437.5,-141.99"/>
<polygon fill="midnightblue" stroke="midnightblue" points="441,-141.75 437.5,-131.75 434,-141.75 441,-141.75"/>
</g>
<!-- Node9 -->
<g id="node9" class="node">
<title>Node9</title>
<g id="a_node9"><a xlink:href="Logger_8h.html" target="_top" xlink:title=" ">
<polygon fill="none" stroke="black" points="456,-56.5 456,-75.5 515,-75.5 515,-56.5 456,-56.5"/>
<text text-anchor="middle" x="485.5" y="-63.5" font-family="Helvetica,sans-Serif" font-size="10.00">Logger.h</text>
</a>
</g>
</g>
<!-- Node6&#45;&gt;Node9 -->
<g id="edge11" class="edge">
<title>Node6&#45;&gt;Node9</title>
<path fill="none" stroke="midnightblue" d="M447.65,-168.49C456.81,-160.18 469.84,-146.69 476.5,-132 483.05,-117.56 485.14,-99.6 485.68,-86.22"/>
<polygon fill="midnightblue" stroke="midnightblue" points="489.19,-85.9 485.83,-75.85 482.19,-85.8 489.19,-85.9"/>
</g>
<!-- Node8&#45;&gt;Node7 -->
<g id="edge8" class="edge">
<title>Node8&#45;&gt;Node7</title>
<path fill="none" stroke="midnightblue" d="M436.72,-112.37C435.1,-94.62 431.38,-53.67 429.19,-29.6"/>
<polygon fill="midnightblue" stroke="midnightblue" points="432.67,-29.23 428.28,-19.59 425.7,-29.87 432.67,-29.23"/>
</g>
<!-- Node8&#45;&gt;Node9 -->
<g id="edge9" class="edge">
<title>Node8&#45;&gt;Node9</title>
<path fill="none" stroke="midnightblue" d="M445.43,-112.08C452.35,-104.3 462.57,-92.8 470.95,-83.37"/>
<polygon fill="midnightblue" stroke="midnightblue" points="473.69,-85.55 477.72,-75.75 468.46,-80.9 473.69,-85.55"/>
</g>
<!-- Node9&#45;&gt;Node7 -->
<g id="edge10" class="edge">
<title>Node9&#45;&gt;Node7</title>
<path fill="none" stroke="midnightblue" d="M476.18,-56.32C467.61,-48.34 454.69,-36.31 444.31,-26.65"/>
<polygon fill="midnightblue" stroke="midnightblue" points="446.69,-24.09 436.99,-19.83 441.92,-29.21 446.69,-24.09"/>
</g>
</g>
</svg>
