<?xml version="1.0" encoding="UTF-8" standalone="no"?>
<!DOCTYPE svg PUBLIC "-//W3C//DTD SVG 1.1//EN"
 "http://www.w3.org/Graphics/SVG/1.1/DTD/svg11.dtd">
<!-- Generated by graphviz version 2.43.0 (0)
 -->
<!-- Title: ICM20948Sensor.h Pages: 1 -->
<svg width="662pt" height="192pt"
 viewBox="0.00 0.00 661.50 192.00" xmlns="http://www.w3.org/2000/svg" xmlns:xlink="http://www.w3.org/1999/xlink">
<g id="graph0" class="graph" transform="scale(1 1) rotate(0) translate(4 188)">
<title>ICM20948Sensor.h</title>
<!-- Node1 -->
<g id="Node000001" class="node">
<title>Node1</title>
<g id="a_Node000001"><a xlink:title=" ">
<polygon fill="#999999" stroke="#666666" points="415,-184 308,-184 308,-165 415,-165 415,-184"/>
<text text-anchor="middle" x="361.5" y="-172" font-family="Helvetica,sans-Serif" font-size="10.00">ICM20948Sensor.h</text>
</a>
</g>
</g>
<!-- Node2 -->
<g id="Node000002" class="node">
<title>Node2</title>
<g id="a_Node000002"><a xlink:title=" ">
<polygon fill="#e0e0e0" stroke="#999999" points="119,-129 0,-129 0,-110 119,-110 119,-129"/>
<text text-anchor="middle" x="59.5" y="-117" font-family="Helvetica,sans-Serif" font-size="10.00">Adafruit_ICM20948.h</text>
</a>
</g>
</g>
<!-- Node1&#45;&gt;Node2 -->
<g id="edge1_Node000001_Node000002" class="edge">
<title>Node1&#45;&gt;Node2</title>
<g id="a_edge1_Node000001_Node000002"><a xlink:title=" ">
<path fill="none" stroke="#63b8ff" d="M312.98,-164.98C259.89,-155.67 174.81,-140.74 118.06,-130.78"/>
<polygon fill="#63b8ff" stroke="#63b8ff" points="118.61,-127.32 108.15,-129.04 117.4,-134.21 118.61,-127.32"/>
</a>
</g>
</g>
<!-- Node3 -->
<g id="Node000003" class="node">
<title>Node3</title>
<g id="a_Node000003"><a xlink:title=" ">
<polygon fill="#e0e0e0" stroke="#999999" points="244,-129 137,-129 137,-110 244,-110 244,-129"/>
<text text-anchor="middle" x="190.5" y="-117" font-family="Helvetica,sans-Serif" font-size="10.00">Adafruit_ICM20X.h</text>
</a>
</g>
</g>
<!-- Node1&#45;&gt;Node3 -->
<g id="edge2_Node000001_Node000003" class="edge">
<title>Node1&#45;&gt;Node3</title>
<g id="a_edge2_Node000001_Node000003"><a xlink:title=" ">
<path fill="none" stroke="#63b8ff" d="M334.03,-164.98C305.32,-156.09 260.08,-142.07 228.08,-132.15"/>
<polygon fill="#63b8ff" stroke="#63b8ff" points="228.78,-128.7 218.19,-129.08 226.7,-135.39 228.78,-128.7"/>
</a>
</g>
</g>
<!-- Node4 -->
<g id="Node000004" class="node">
<title>Node4</title>
<g id="a_Node000004"><a xlink:title=" ">
<polygon fill="#e0e0e0" stroke="#999999" points="364.5,-129 262.5,-129 262.5,-110 364.5,-110 364.5,-129"/>
<text text-anchor="middle" x="313.5" y="-117" font-family="Helvetica,sans-Serif" font-size="10.00">Adafruit_Sensor.h</text>
</a>
</g>
</g>
<!-- Node1&#45;&gt;Node4 -->
<g id="edge3_Node000001_Node000004" class="edge">
<title>Node1&#45;&gt;Node4</title>
<g id="a_edge3_Node000001_Node000004"><a xlink:title=" ">
<path fill="none" stroke="#63b8ff" d="M353.57,-164.75C346.65,-157.11 336.43,-145.82 328.05,-136.56"/>
<polygon fill="#63b8ff" stroke="#63b8ff" points="330.59,-134.15 321.28,-129.09 325.4,-138.85 330.59,-134.15"/>
</a>
</g>
</g>
<!-- Node5 -->
<g id="Node000005" class="node">
<title>Node5</title>
<g id="a_Node000005"><a xlink:title=" ">
<polygon fill="#e0e0e0" stroke="#999999" points="436,-129 383,-129 383,-110 436,-110 436,-129"/>
<text text-anchor="middle" x="409.5" y="-117" font-family="Helvetica,sans-Serif" font-size="10.00">string.h</text>
</a>
</g>
</g>
<!-- Node1&#45;&gt;Node5 -->
<g id="edge4_Node000001_Node000005" class="edge">
<title>Node1&#45;&gt;Node5</title>
<g id="a_edge4_Node000001_Node000005"><a xlink:title=" ">
<path fill="none" stroke="#63b8ff" d="M369.43,-164.75C376.35,-157.11 386.57,-145.82 394.95,-136.56"/>
<polygon fill="#63b8ff" stroke="#63b8ff" points="397.6,-138.85 401.72,-129.09 392.41,-134.15 397.6,-138.85"/>
</a>
</g>
</g>
<!-- Node6 -->
<g id="Node000006" class="node">
<title>Node6</title>
<g id="a_Node000006"><a xlink:href="PayloadConfig_8h.html" target="_top" xlink:title="Central location for pinout and config defines.">
<polygon fill="white" stroke="#666666" points="549,-129 454,-129 454,-110 549,-110 549,-129"/>
<text text-anchor="middle" x="501.5" y="-117" font-family="Helvetica,sans-Serif" font-size="10.00">PayloadConfig.h</text>
</a>
</g>
</g>
<!-- Node1&#45;&gt;Node6 -->
<g id="edge5_Node000001_Node000006" class="edge">
<title>Node1&#45;&gt;Node6</title>
<g id="a_edge5_Node000001_Node000006"><a xlink:title=" ">
<path fill="none" stroke="#63b8ff" d="M383.99,-164.98C407.02,-156.27 443.04,-142.63 469.13,-132.75"/>
<polygon fill="#63b8ff" stroke="#63b8ff" points="470.48,-135.98 478.6,-129.17 468.01,-129.44 470.48,-135.98"/>
</a>
</g>
</g>
<!-- Node7 -->
<g id="Node000007" class="node">
<title>Node7</title>
<g id="a_Node000007"><a xlink:href="Sensor_8h.html" target="_top" xlink:title=" ">
<polygon fill="white" stroke="#666666" points="625.5,-129 567.5,-129 567.5,-110 625.5,-110 625.5,-129"/>
<text text-anchor="middle" x="596.5" y="-117" font-family="Helvetica,sans-Serif" font-size="10.00">Sensor.h</text>
</a>
</g>
</g>
<!-- Node1&#45;&gt;Node7 -->
<g id="edge6_Node000001_Node000007" class="edge">
<title>Node1&#45;&gt;Node7</title>
<g id="a_edge6_Node000001_Node000007"><a xlink:title=" ">
<path fill="none" stroke="#63b8ff" d="M399.26,-164.98C442.62,-155.21 513.41,-139.24 557.35,-129.33"/>
<polygon fill="#63b8ff" stroke="#63b8ff" points="558.39,-132.68 567.37,-127.07 556.85,-125.85 558.39,-132.68"/>
</a>
</g>
</g>
<!-- Node8 -->
<g id="Node000008" class="node">
<title>Node8</title>
<g id="a_Node000008"><a xlink:title=" ">
<polygon fill="#e0e0e0" stroke="#999999" points="627,-19 564,-19 564,0 627,0 627,-19"/>
<text text-anchor="middle" x="595.5" y="-7" font-family="Helvetica,sans-Serif" font-size="10.00">Arduino.h</text>
</a>
</g>
</g>
<!-- Node7&#45;&gt;Node8 -->
<g id="edge7_Node000007_Node000008" class="edge">
<title>Node7&#45;&gt;Node8</title>
<g id="a_edge7_Node000007_Node000008"><a xlink:title=" ">
<path fill="none" stroke="#63b8ff" d="M593.93,-109.73C591.45,-100.83 587.9,-86.59 586.5,-74 584.81,-58.76 587.54,-41.55 590.43,-28.89"/>
<polygon fill="#63b8ff" stroke="#63b8ff" points="593.84,-29.66 592.89,-19.11 587.05,-27.95 593.84,-29.66"/>
</a>
</g>
</g>
<!-- Node9 -->
<g id="Node000009" class="node">
<title>Node9</title>
<g id="a_Node000009"><a xlink:href="Logger_8h.html" target="_top" xlink:title=" ">
<polygon fill="white" stroke="#666666" points="653.5,-74 595.5,-74 595.5,-55 653.5,-55 653.5,-74"/>
<text text-anchor="middle" x="624.5" y="-62" font-family="Helvetica,sans-Serif" font-size="10.00">Logger.h</text>
</a>
</g>
</g>
<!-- Node7&#45;&gt;Node9 -->
<g id="edge8_Node000007_Node000009" class="edge">
<title>Node7&#45;&gt;Node9</title>
<g id="a_edge8_Node000007_Node000009"><a xlink:title=" ">
<path fill="none" stroke="#63b8ff" d="M601.12,-109.75C604.96,-102.49 610.52,-91.95 615.26,-82.98"/>
<polygon fill="#63b8ff" stroke="#63b8ff" points="618.39,-84.57 619.96,-74.09 612.2,-81.3 618.39,-84.57"/>
</a>
</g>
</g>
<!-- Node9&#45;&gt;Node8 -->
<g id="edge9_Node000009_Node000008" class="edge">
<title>Node9&#45;&gt;Node8</title>
<g id="a_edge9_Node000009_Node000008"><a xlink:title=" ">
<path fill="none" stroke="#63b8ff" d="M619.71,-54.75C615.74,-47.49 609.97,-36.95 605.07,-27.98"/>
<polygon fill="#63b8ff" stroke="#63b8ff" points="608.07,-26.18 600.2,-19.09 601.93,-29.54 608.07,-26.18"/>
</a>
</g>
</g>
</g>
</svg>
