<?xml version="1.0" encoding="UTF-8" standalone="no"?>
<!DOCTYPE svg PUBLIC "-//W3C//DTD SVG 1.1//EN"
 "http://www.w3.org/Graphics/SVG/1.1/DTD/svg11.dtd">
<!-- Generated by graphviz version 2.43.0 (0)
 -->
<!-- Title: INA260Sensor.cpp Pages: 1 -->
<svg width="282pt" height="308pt"
 viewBox="0.00 0.00 281.81 308.00" xmlns="http://www.w3.org/2000/svg" xmlns:xlink="http://www.w3.org/1999/xlink">
<g id="graph0" class="graph" transform="scale(1 1) rotate(0) translate(4 304)">
<title>INA260Sensor.cpp</title>
<!-- Node1 -->
<g id="node1" class="node">
<title>Node1</title>
<g id="a_node1"><a xlink:title=" ">
<polygon fill="#bfbfbf" stroke="black" points="33.81,-280.5 33.81,-299.5 138.81,-299.5 138.81,-280.5 33.81,-280.5"/>
<text text-anchor="middle" x="86.31" y="-287.5" font-family="Helvetica,sans-Serif" font-size="10.00">INA260Sensor.cpp</text>
</a>
</g>
</g>
<!-- Node2 -->
<g id="node2" class="node">
<title>Node2</title>
<g id="a_node2"><a xlink:href="INA260Sensor_8h.html" target="_top" xlink:title=" ">
<polygon fill="none" stroke="black" points="39.31,-224.5 39.31,-243.5 133.31,-243.5 133.31,-224.5 39.31,-224.5"/>
<text text-anchor="middle" x="86.31" y="-231.5" font-family="Helvetica,sans-Serif" font-size="10.00">INA260Sensor.h</text>
</a>
</g>
</g>
<!-- Node1&#45;&gt;Node2 -->
<g id="edge1" class="edge">
<title>Node1&#45;&gt;Node2</title>
<path fill="none" stroke="midnightblue" d="M86.31,-280.08C86.31,-273.01 86.31,-262.86 86.31,-253.99"/>
<polygon fill="midnightblue" stroke="midnightblue" points="89.81,-253.75 86.31,-243.75 82.81,-253.75 89.81,-253.75"/>
</g>
<!-- Node3 -->
<g id="node3" class="node">
<title>Node3</title>
<g id="a_node3"><a xlink:title=" ">
<polygon fill="none" stroke="#bfbfbf" points="135.81,-0.5 135.81,-19.5 198.81,-19.5 198.81,-0.5 135.81,-0.5"/>
<text text-anchor="middle" x="167.31" y="-7.5" font-family="Helvetica,sans-Serif" font-size="10.00">Arduino.h</text>
</a>
</g>
</g>
<!-- Node2&#45;&gt;Node3 -->
<g id="edge2" class="edge">
<title>Node2&#45;&gt;Node3</title>
<path fill="none" stroke="midnightblue" d="M56.42,-224.43C27.76,-214.42 -9.54,-195.62 2.31,-168 31.19,-100.66 104.71,-48.55 143.11,-24.9"/>
<polygon fill="midnightblue" stroke="midnightblue" points="145.31,-27.67 152.07,-19.51 141.7,-21.67 145.31,-27.67"/>
</g>
<!-- Node4 -->
<g id="node4" class="node">
<title>Node4</title>
<g id="a_node4"><a xlink:title=" ">
<polygon fill="none" stroke="#bfbfbf" points="11.81,-168.5 11.81,-187.5 64.81,-187.5 64.81,-168.5 11.81,-168.5"/>
<text text-anchor="middle" x="38.31" y="-175.5" font-family="Helvetica,sans-Serif" font-size="10.00">string.h</text>
</a>
</g>
</g>
<!-- Node2&#45;&gt;Node4 -->
<g id="edge3" class="edge">
<title>Node2&#45;&gt;Node4</title>
<path fill="none" stroke="midnightblue" d="M78.38,-224.08C71.46,-216.3 61.24,-204.8 52.86,-195.37"/>
<polygon fill="midnightblue" stroke="midnightblue" points="55.35,-192.9 46.09,-187.75 50.12,-197.55 55.35,-192.9"/>
</g>
<!-- Node5 -->
<g id="node5" class="node">
<title>Node5</title>
<g id="a_node5"><a xlink:title=" ">
<polygon fill="none" stroke="#bfbfbf" points="82.81,-168.5 82.81,-187.5 187.81,-187.5 187.81,-168.5 82.81,-168.5"/>
<text text-anchor="middle" x="135.31" y="-175.5" font-family="Helvetica,sans-Serif" font-size="10.00">Adafruit_INA260.h</text>
</a>
</g>
</g>
<!-- Node2&#45;&gt;Node5 -->
<g id="edge4" class="edge">
<title>Node2&#45;&gt;Node5</title>
<path fill="none" stroke="midnightblue" d="M94.4,-224.08C101.47,-216.3 111.9,-204.8 120.46,-195.37"/>
<polygon fill="midnightblue" stroke="midnightblue" points="123.24,-197.51 127.37,-187.75 118.06,-192.8 123.24,-197.51"/>
</g>
<!-- Node6 -->
<g id="node6" class="node">
<title>Node6</title>
<g id="a_node6"><a xlink:href="Sensor_8h.html" target="_top" xlink:title=" ">
<polygon fill="none" stroke="black" points="205.81,-168.5 205.81,-187.5 264.81,-187.5 264.81,-168.5 205.81,-168.5"/>
<text text-anchor="middle" x="235.31" y="-175.5" font-family="Helvetica,sans-Serif" font-size="10.00">Sensor.h</text>
</a>
</g>
</g>
<!-- Node2&#45;&gt;Node6 -->
<g id="edge5" class="edge">
<title>Node2&#45;&gt;Node6</title>
<path fill="none" stroke="midnightblue" d="M109.92,-224.44C134.77,-215.44 174.08,-201.19 202.06,-191.05"/>
<polygon fill="midnightblue" stroke="midnightblue" points="203.6,-194.21 211.81,-187.52 201.22,-187.63 203.6,-194.21"/>
</g>
<!-- Node6&#45;&gt;Node3 -->
<g id="edge6" class="edge">
<title>Node6&#45;&gt;Node3</title>
<path fill="none" stroke="midnightblue" d="M212.56,-168.45C197.05,-161.28 177.67,-149.4 168.31,-132 150.78,-99.44 156.89,-54.44 162.41,-29.51"/>
<polygon fill="midnightblue" stroke="midnightblue" points="165.86,-30.13 164.82,-19.58 159.06,-28.47 165.86,-30.13"/>
</g>
<!-- Node7 -->
<g id="node7" class="node">
<title>Node7</title>
<g id="a_node7"><a xlink:href="Device_8h.html" target="_top" xlink:title=" ">
<polygon fill="none" stroke="black" points="176.81,-112.5 176.81,-131.5 235.81,-131.5 235.81,-112.5 176.81,-112.5"/>
<text text-anchor="middle" x="206.31" y="-119.5" font-family="Helvetica,sans-Serif" font-size="10.00">Device.h</text>
</a>
</g>
</g>
<!-- Node6&#45;&gt;Node7 -->
<g id="edge7" class="edge">
<title>Node6&#45;&gt;Node7</title>
<path fill="none" stroke="midnightblue" d="M230.52,-168.08C226.55,-160.69 220.78,-149.95 215.87,-140.81"/>
<polygon fill="midnightblue" stroke="midnightblue" points="218.82,-138.91 211.01,-131.75 212.66,-142.22 218.82,-138.91"/>
</g>
<!-- Node8 -->
<g id="node8" class="node">
<title>Node8</title>
<g id="a_node8"><a xlink:href="Logger_8h.html" target="_top" xlink:title=" ">
<polygon fill="none" stroke="black" points="214.81,-56.5 214.81,-75.5 273.81,-75.5 273.81,-56.5 214.81,-56.5"/>
<text text-anchor="middle" x="244.31" y="-63.5" font-family="Helvetica,sans-Serif" font-size="10.00">Logger.h</text>
</a>
</g>
</g>
<!-- Node6&#45;&gt;Node8 -->
<g id="edge11" class="edge">
<title>Node6&#45;&gt;Node8</title>
<path fill="none" stroke="midnightblue" d="M237.79,-168.47C240.27,-159.48 243.89,-144.89 245.31,-132 247.01,-116.56 246.59,-98.92 245.84,-85.92"/>
<polygon fill="midnightblue" stroke="midnightblue" points="249.33,-85.6 245.14,-75.86 242.34,-86.08 249.33,-85.6"/>
</g>
<!-- Node7&#45;&gt;Node3 -->
<g id="edge8" class="edge">
<title>Node7&#45;&gt;Node3</title>
<path fill="none" stroke="midnightblue" d="M203.25,-112.37C196.93,-94.54 182.31,-53.3 173.79,-29.27"/>
<polygon fill="midnightblue" stroke="midnightblue" points="177,-27.85 170.36,-19.59 170.4,-30.19 177,-27.85"/>
</g>
<!-- Node7&#45;&gt;Node8 -->
<g id="edge9" class="edge">
<title>Node7&#45;&gt;Node8</title>
<path fill="none" stroke="midnightblue" d="M212.58,-112.08C217.95,-104.46 225.83,-93.26 232.39,-83.94"/>
<polygon fill="midnightblue" stroke="midnightblue" points="235.26,-85.94 238.15,-75.75 229.53,-81.91 235.26,-85.94"/>
</g>
<!-- Node8&#45;&gt;Node3 -->
<g id="edge10" class="edge">
<title>Node8&#45;&gt;Node3</title>
<path fill="none" stroke="midnightblue" d="M231.94,-56.32C220.15,-48.06 202.18,-35.45 188.17,-25.63"/>
<polygon fill="midnightblue" stroke="midnightblue" points="189.85,-22.53 179.65,-19.65 185.83,-28.26 189.85,-22.53"/>
</g>
</g>
</svg>
