<?xml version="1.0" encoding="UTF-8" standalone="no"?>
<!DOCTYPE svg PUBLIC "-//W3C//DTD SVG 1.1//EN"
 "http://www.w3.org/Graphics/SVG/1.1/DTD/svg11.dtd">
<!-- Generated by graphviz version 2.43.0 (0)
 -->
<!-- Title: Graphical Class Hierarchy Pages: 1 -->
<svg width="192pt" height="434pt"
 viewBox="0.00 0.00 192.00 434.00" xmlns="http://www.w3.org/2000/svg" xmlns:xlink="http://www.w3.org/1999/xlink">
<g id="graph0" class="graph" transform="scale(1 1) rotate(0) translate(4 430)">
<title>Graphical Class Hierarchy</title>
<!-- Node0 -->
<g id="Node000000" class="node">
<title>Node0</title>
<g id="a_Node000000"><a xlink:href="classSensor.html" target="_top" xlink:title="Parent class for sensor objects.">
<polygon fill="white" stroke="#666666" points="50,-222 0,-222 0,-203 50,-203 50,-222"/>
<text text-anchor="middle" x="25" y="-210" font-family="Helvetica,sans-Serif" font-size="10.00">Sensor</text>
</a>
</g>
</g>
<!-- Node1 -->
<g id="Node000001" class="node">
<title>Node1</title>
<g id="a_Node000001"><a xlink:href="classAS7331Sensor.html" target="_top" xlink:title="Implementation of a Sensor for UVA/B/C sensor.">
<polygon fill="white" stroke="#666666" points="178,-426 92,-426 92,-407 178,-407 178,-426"/>
<text text-anchor="middle" x="135" y="-414" font-family="Helvetica,sans-Serif" font-size="10.00">AS7331Sensor</text>
</a>
</g>
</g>
<!-- Node0&#45;&gt;Node1 -->
<g id="edge1_Node000000_Node000001" class="edge">
<title>Node0&#45;&gt;Node1</title>
<g id="a_edge1_Node000000_Node000001"><a xlink:title=" ">
<path fill="none" stroke="#63b8ff" d="M26.9,-232.12C29.64,-269.44 40.78,-351.12 86,-398.5 89.2,-401.85 93.07,-404.58 97.22,-406.8"/>
<polygon fill="#63b8ff" stroke="#63b8ff" points="30.39,-231.82 26.29,-222.05 23.4,-232.25 30.39,-231.82"/>
</a>
</g>
</g>
<!-- Node2 -->
<g id="Node000002" class="node">
<title>Node2</title>
<g id="a_Node000002"><a xlink:href="classBME280Sensor.html" target="_top" xlink:title="Implementation of a Sensor for the BME280.">
<polygon fill="white" stroke="#666666" points="179.5,-389 90.5,-389 90.5,-370 179.5,-370 179.5,-389"/>
<text text-anchor="middle" x="135" y="-377" font-family="Helvetica,sans-Serif" font-size="10.00">BME280Sensor</text>
</a>
</g>
</g>
<!-- Node0&#45;&gt;Node2 -->
<g id="edge2_Node000000_Node000002" class="edge">
<title>Node0&#45;&gt;Node2</title>
<g id="a_edge2_Node000000_Node000002"><a xlink:title=" ">
<path fill="none" stroke="#63b8ff" d="M28.82,-232.54C34.29,-264.12 49.21,-325.59 86,-361.5 89.44,-364.86 93.56,-367.6 97.93,-369.84"/>
<polygon fill="#63b8ff" stroke="#63b8ff" points="32.23,-231.69 27.21,-222.35 25.32,-232.78 32.23,-231.69"/>
</a>
</g>
</g>
<!-- Node3 -->
<g id="Node000003" class="node">
<title>Node3</title>
<g id="a_Node000003"><a xlink:href="classBME680Sensor.html" target="_top" xlink:title="A class to interface with the Adafruit BME680 sensor for environmental data collection.">
<polygon fill="white" stroke="#666666" points="179.5,-352 90.5,-352 90.5,-333 179.5,-333 179.5,-352"/>
<text text-anchor="middle" x="135" y="-340" font-family="Helvetica,sans-Serif" font-size="10.00">BME680Sensor</text>
</a>
</g>
</g>
<!-- Node0&#45;&gt;Node3 -->
<g id="edge3_Node000000_Node000003" class="edge">
<title>Node0&#45;&gt;Node3</title>
<g id="a_edge3_Node000000_Node000003"><a xlink:title=" ">
<path fill="none" stroke="#63b8ff" d="M31.6,-231.74C39.73,-256.46 57.08,-299.19 86,-324.5 89.88,-327.9 94.47,-330.68 99.25,-332.95"/>
<polygon fill="#63b8ff" stroke="#63b8ff" points="34.91,-230.57 28.59,-222.06 28.22,-232.65 34.91,-230.57"/>
</a>
</g>
</g>
<!-- Node4 -->
<g id="Node000004" class="node">
<title>Node4</title>
<g id="a_Node000004"><a xlink:href="classDS3231Sensor.html" target="_top" xlink:title="Implementation of a Sensor for the DS3231 Real Time Clock.">
<polygon fill="white" stroke="#666666" points="178.5,-315 91.5,-315 91.5,-296 178.5,-296 178.5,-315"/>
<text text-anchor="middle" x="135" y="-303" font-family="Helvetica,sans-Serif" font-size="10.00">DS3231Sensor</text>
</a>
</g>
</g>
<!-- Node0&#45;&gt;Node4 -->
<g id="edge4_Node000000_Node000004" class="edge">
<title>Node0&#45;&gt;Node4</title>
<g id="a_edge4_Node000000_Node000004"><a xlink:title=" ">
<path fill="none" stroke="#63b8ff" d="M36.78,-231.07C47.38,-247.88 65.01,-272.28 86,-287.5 90.61,-290.84 95.92,-293.64 101.28,-295.96"/>
<polygon fill="#63b8ff" stroke="#63b8ff" points="39.56,-228.9 31.37,-222.17 33.57,-232.54 39.56,-228.9"/>
</a>
</g>
</g>
<!-- Node5 -->
<g id="Node000005" class="node">
<title>Node5</title>
<g id="a_Node000005"><a xlink:href="classENS160Sensor.html" target="_top" xlink:title="Implementation of a Sensor for the ENS160.">
<polygon fill="white" stroke="#666666" points="178.5,-278 91.5,-278 91.5,-259 178.5,-259 178.5,-278"/>
<text text-anchor="middle" x="135" y="-266" font-family="Helvetica,sans-Serif" font-size="10.00">ENS160Sensor</text>
</a>
</g>
</g>
<!-- Node0&#45;&gt;Node5 -->
<g id="edge5_Node000000_Node000005" class="edge">
<title>Node0&#45;&gt;Node5</title>
<g id="a_edge5_Node000000_Node000005"><a xlink:title=" ">
<path fill="none" stroke="#63b8ff" d="M47.94,-227.93C59.03,-235.33 72.89,-243.98 86,-250.5 92.22,-253.59 99.1,-256.47 105.67,-258.98"/>
<polygon fill="#63b8ff" stroke="#63b8ff" points="49.59,-224.82 39.35,-222.09 45.65,-230.61 49.59,-224.82"/>
</a>
</g>
</g>
<!-- Node6 -->
<g id="Node000006" class="node">
<title>Node6</title>
<g id="a_Node000006"><a xlink:href="classICM20948Sensor.html" target="_top" xlink:title="Implementation of the Sensor class for the Adafruit ICM20948 (9&#45;axis IMU)">
<polygon fill="white" stroke="#666666" points="184,-241 86,-241 86,-222 184,-222 184,-241"/>
<text text-anchor="middle" x="135" y="-229" font-family="Helvetica,sans-Serif" font-size="10.00">ICM20948Sensor</text>
</a>
</g>
</g>
<!-- Node0&#45;&gt;Node6 -->
<g id="edge6_Node000000_Node000006" class="edge">
<title>Node0&#45;&gt;Node6</title>
<g id="a_edge6_Node000000_Node000006"><a xlink:title=" ">
<path fill="none" stroke="#63b8ff" d="M60.17,-218.51C68.36,-219.95 77.27,-221.52 85.96,-223.05"/>
<polygon fill="#63b8ff" stroke="#63b8ff" points="60.69,-215.05 50.24,-216.76 59.48,-221.94 60.69,-215.05"/>
</a>
</g>
</g>
<!-- Node7 -->
<g id="Node000007" class="node">
<title>Node7</title>
<g id="a_Node000007"><a xlink:href="classINA260Sensor.html" target="_top" xlink:title="A class to interface with the Adafruit INA260 sensor for current, voltage, and power measurements.">
<polygon fill="white" stroke="#666666" points="177.5,-204 92.5,-204 92.5,-185 177.5,-185 177.5,-204"/>
<text text-anchor="middle" x="135" y="-192" font-family="Helvetica,sans-Serif" font-size="10.00">INA260Sensor</text>
</a>
</g>
</g>
<!-- Node0&#45;&gt;Node7 -->
<g id="edge7_Node000000_Node000007" class="edge">
<title>Node0&#45;&gt;Node7</title>
<g id="a_edge7_Node000000_Node000007"><a xlink:title=" ">
<path fill="none" stroke="#63b8ff" d="M60.39,-206.77C70.59,-205.07 81.86,-203.19 92.45,-201.42"/>
<polygon fill="#63b8ff" stroke="#63b8ff" points="59.53,-203.36 50.24,-208.46 60.68,-210.27 59.53,-203.36"/>
</a>
</g>
</g>
<!-- Node8 -->
<g id="Node000008" class="node">
<title>Node8</title>
<g id="a_Node000008"><a xlink:href="classLSM9DS1Sensor.html" target="_top" xlink:title="Implementation of the Sensor class for the LSM9DS1 (9&#45;axis IMU)">
<polygon fill="white" stroke="#666666" points="182.5,-167 87.5,-167 87.5,-148 182.5,-148 182.5,-167"/>
<text text-anchor="middle" x="135" y="-155" font-family="Helvetica,sans-Serif" font-size="10.00">LSM9DS1Sensor</text>
</a>
</g>
</g>
<!-- Node0&#45;&gt;Node8 -->
<g id="edge8_Node000000_Node000008" class="edge">
<title>Node0&#45;&gt;Node8</title>
<g id="a_edge8_Node000000_Node000008"><a xlink:title=" ">
<path fill="none" stroke="#63b8ff" d="M48.98,-197.51C59.95,-190.66 73.41,-182.72 86,-176.5 92.83,-173.13 100.42,-169.9 107.5,-167.09"/>
<polygon fill="#63b8ff" stroke="#63b8ff" points="46.99,-194.62 40.42,-202.93 50.74,-200.53 46.99,-194.62"/>
</a>
</g>
</g>
<!-- Node9 -->
<g id="Node000009" class="node">
<title>Node9</title>
<g id="a_Node000009"><a xlink:href="classMTK3339Sensor.html" target="_top" xlink:title="Implementation of the Adafruit MTK3339 GPS sensor.">
<polygon fill="white" stroke="#666666" points="182.5,-130 87.5,-130 87.5,-111 182.5,-111 182.5,-130"/>
<text text-anchor="middle" x="135" y="-118" font-family="Helvetica,sans-Serif" font-size="10.00">MTK3339Sensor</text>
</a>
</g>
</g>
<!-- Node0&#45;&gt;Node9 -->
<g id="edge9_Node000000_Node000009" class="edge">
<title>Node0&#45;&gt;Node9</title>
<g id="a_edge9_Node000000_Node000009"><a xlink:title=" ">
<path fill="none" stroke="#63b8ff" d="M37.3,-194C48.06,-177.72 65.61,-154.36 86,-139.5 91.14,-135.75 97.12,-132.62 103.08,-130.05"/>
<polygon fill="#63b8ff" stroke="#63b8ff" points="34.21,-192.33 31.78,-202.64 40.11,-196.1 34.21,-192.33"/>
</a>
</g>
</g>
<!-- Node10 -->
<g id="Node000010" class="node">
<title>Node10</title>
<g id="a_Node000010"><a xlink:href="classPCF8523Sensor.html" target="_top" xlink:title="Implementation of the PCF8523 sensor.">
<polygon fill="white" stroke="#666666" points="181,-93 89,-93 89,-74 181,-74 181,-93"/>
<text text-anchor="middle" x="135" y="-81" font-family="Helvetica,sans-Serif" font-size="10.00">PCF8523Sensor</text>
</a>
</g>
</g>
<!-- Node0&#45;&gt;Node10 -->
<g id="edge10_Node000000_Node000010" class="edge">
<title>Node0&#45;&gt;Node10</title>
<g id="a_edge10_Node000000_Node000010"><a xlink:title=" ">
<path fill="none" stroke="#63b8ff" d="M31.89,-193.32C40.25,-169.07 57.75,-127.48 86,-102.5 90.3,-98.7 95.44,-95.61 100.75,-93.12"/>
<polygon fill="#63b8ff" stroke="#63b8ff" points="28.56,-192.24 28.78,-202.83 35.21,-194.42 28.56,-192.24"/>
</a>
</g>
</g>
<!-- Node11 -->
<g id="Node000011" class="node">
<title>Node11</title>
<g id="a_Node000011"><a xlink:href="classSGP30Sensor.html" target="_top" xlink:title="Implementation of a Sensor for the SGP Air Quality sensor.">
<polygon fill="white" stroke="#666666" points="175.5,-56 94.5,-56 94.5,-37 175.5,-37 175.5,-56"/>
<text text-anchor="middle" x="135" y="-44" font-family="Helvetica,sans-Serif" font-size="10.00">SGP30Sensor</text>
</a>
</g>
</g>
<!-- Node0&#45;&gt;Node11 -->
<g id="edge11_Node000000_Node000011" class="edge">
<title>Node0&#45;&gt;Node11</title>
<g id="a_edge11_Node000000_Node000011"><a xlink:title=" ">
<path fill="none" stroke="#63b8ff" d="M28.98,-192.8C34.66,-161.74 49.88,-101.24 86,-65.5 89.82,-61.72 94.49,-58.66 99.4,-56.21"/>
<polygon fill="#63b8ff" stroke="#63b8ff" points="25.5,-192.37 27.3,-202.82 32.41,-193.54 25.5,-192.37"/>
</a>
</g>
</g>
<!-- Node12 -->
<g id="Node000012" class="node">
<title>Node12</title>
<g id="a_Node000012"><a xlink:href="classTempSensor.html" target="_top" xlink:title="Implementation of a Sensor for the onboard temperature sensor.">
<polygon fill="white" stroke="#666666" points="173,-19 97,-19 97,0 173,0 173,-19"/>
<text text-anchor="middle" x="135" y="-7" font-family="Helvetica,sans-Serif" font-size="10.00">TempSensor</text>
</a>
</g>
</g>
<!-- Node0&#45;&gt;Node12 -->
<g id="edge12_Node000000_Node000012" class="edge">
<title>Node0&#45;&gt;Node12</title>
<g id="a_edge12_Node000000_Node000012"><a xlink:title=" ">
<path fill="none" stroke="#63b8ff" d="M27.08,-192.64C30.14,-155.61 41.78,-75.53 86,-28.5 89.56,-24.71 93.97,-21.67 98.67,-19.22"/>
<polygon fill="#63b8ff" stroke="#63b8ff" points="23.59,-192.44 26.38,-202.66 30.57,-192.93 23.59,-192.44"/>
</a>
</g>
</g>
</g>
</svg>
