<?xml version="1.0" encoding="UTF-8" standalone="no"?>
<!DOCTYPE svg PUBLIC "-//W3C//DTD SVG 1.1//EN"
 "http://www.w3.org/Graphics/SVG/1.1/DTD/svg11.dtd">
<!-- Generated by graphviz version 2.43.0 (0)
 -->
<!-- Title: Graphical Class Hierarchy Pages: 1 -->
<svg width="282pt" height="619pt"
 viewBox="0.00 0.00 282.00 619.00" xmlns="http://www.w3.org/2000/svg" xmlns:xlink="http://www.w3.org/1999/xlink">
<g id="graph0" class="graph" transform="scale(1 1) rotate(0) translate(4 615)">
<title>Graphical Class Hierarchy</title>
<!-- Node0 -->
<g id="Node000000" class="node">
<title>Node0</title>
<g id="a_Node000000"><a xlink:href="classDevice.html" target="_top" xlink:title="Implements the recovery system for Sensor and Storage objects.">
<polygon fill="white" stroke="#666666" points="50,-204 0,-204 0,-185 50,-185 50,-204"/>
<text text-anchor="middle" x="25" y="-192" font-family="Helvetica,sans-Serif" font-size="10.00">Device</text>
</a>
</g>
</g>
<!-- Node1 -->
<g id="Node000001" class="node">
<title>Node1</title>
<g id="a_Node000001"><a xlink:href="classSensor.html" target="_top" xlink:title="Parent class for sensor objects.">
<polygon fill="white" stroke="#666666" points="138,-352 88,-352 88,-333 138,-333 138,-352"/>
<text text-anchor="middle" x="113" y="-340" font-family="Helvetica,sans-Serif" font-size="10.00">Sensor</text>
</a>
</g>
</g>
<!-- Node0&#45;&gt;Node1 -->
<g id="edge1_Node000000_Node000001" class="edge">
<title>Node0&#45;&gt;Node1</title>
<g id="a_edge1_Node000000_Node000001"><a xlink:title=" ">
<path fill="none" stroke="#63b8ff" d="M36.73,-212.96C55.2,-244.76 92.39,-308.76 106.45,-332.95"/>
<polygon fill="#63b8ff" stroke="#63b8ff" points="39.69,-211.1 31.64,-204.21 33.64,-214.62 39.69,-211.1"/>
</a>
</g>
</g>
<!-- Node16 -->
<g id="Node000016" class="node">
<title>Node16</title>
<g id="a_Node000016"><a xlink:href="classStorage.html" target="_top" xlink:title="Parent class for all data storage devices (sd card, radio, etc)">
<polygon fill="white" stroke="#666666" points="140,-75 86,-75 86,-56 140,-56 140,-75"/>
<text text-anchor="middle" x="113" y="-63" font-family="Helvetica,sans-Serif" font-size="10.00">Storage</text>
</a>
</g>
</g>
<!-- Node0&#45;&gt;Node16 -->
<g id="edge16_Node000000_Node000016" class="edge">
<title>Node0&#45;&gt;Node16</title>
<g id="a_edge16_Node000000_Node000016"><a xlink:title=" ">
<path fill="none" stroke="#63b8ff" d="M38.04,-176.43C56.48,-148.78 91.07,-96.89 105.46,-75.31"/>
<polygon fill="#63b8ff" stroke="#63b8ff" points="35.1,-174.54 32.46,-184.8 40.92,-178.42 35.1,-174.54"/>
</a>
</g>
</g>
<!-- Node2 -->
<g id="Node000002" class="node">
<title>Node2</title>
<g id="a_Node000002"><a xlink:href="classAS7331Sensor.html" target="_top" xlink:title="Implementation of a Sensor for UVA/B/C sensor.">
<polygon fill="white" stroke="#666666" points="268,-611 182,-611 182,-592 268,-592 268,-611"/>
<text text-anchor="middle" x="225" y="-599" font-family="Helvetica,sans-Serif" font-size="10.00">AS7331Sensor</text>
</a>
</g>
</g>
<!-- Node1&#45;&gt;Node2 -->
<g id="edge2_Node000001_Node000002" class="edge">
<title>Node1&#45;&gt;Node2</title>
<g id="a_edge2_Node000001_Node000002"><a xlink:title=" ">
<path fill="none" stroke="#63b8ff" d="M113.32,-362.46C112.87,-407.68 118.1,-519.05 176,-583.5 179.09,-586.94 182.91,-589.73 187.03,-591.98"/>
<polygon fill="#63b8ff" stroke="#63b8ff" points="116.82,-362.29 113.53,-352.22 109.82,-362.15 116.82,-362.29"/>
</a>
</g>
</g>
<!-- Node3 -->
<g id="Node000003" class="node">
<title>Node3</title>
<g id="a_Node000003"><a xlink:href="classBME280Sensor.html" target="_top" xlink:title="Implementation of a Sensor for the BME280.">
<polygon fill="white" stroke="#666666" points="269.5,-574 180.5,-574 180.5,-555 269.5,-555 269.5,-574"/>
<text text-anchor="middle" x="225" y="-562" font-family="Helvetica,sans-Serif" font-size="10.00">BME280Sensor</text>
</a>
</g>
</g>
<!-- Node1&#45;&gt;Node3 -->
<g id="edge3_Node000001_Node000003" class="edge">
<title>Node1&#45;&gt;Node3</title>
<g id="a_edge3_Node000001_Node000003"><a xlink:title=" ">
<path fill="none" stroke="#63b8ff" d="M114.44,-362.08C116.38,-402.02 126.33,-493.56 176,-546.5 179.17,-549.88 183.03,-552.62 187.17,-554.86"/>
<polygon fill="#63b8ff" stroke="#63b8ff" points="117.93,-361.92 114.07,-352.06 110.94,-362.18 117.93,-361.92"/>
</a>
</g>
</g>
<!-- Node4 -->
<g id="Node000004" class="node">
<title>Node4</title>
<g id="a_Node000004"><a xlink:href="classBME680Sensor.html" target="_top" xlink:title="A class to interface with the Adafruit BME680 sensor for environmental data collection.">
<polygon fill="white" stroke="#666666" points="269.5,-537 180.5,-537 180.5,-518 269.5,-518 269.5,-537"/>
<text text-anchor="middle" x="225" y="-525" font-family="Helvetica,sans-Serif" font-size="10.00">BME680Sensor</text>
</a>
</g>
</g>
<!-- Node1&#45;&gt;Node4 -->
<g id="edge4_Node000001_Node000004" class="edge">
<title>Node1&#45;&gt;Node4</title>
<g id="a_edge4_Node000001_Node000004"><a xlink:title=" ">
<path fill="none" stroke="#63b8ff" d="M116.06,-362.5C120.66,-397.05 134.81,-468.17 176,-509.5 179.39,-512.9 183.49,-515.67 187.84,-517.92"/>
<polygon fill="#63b8ff" stroke="#63b8ff" points="119.5,-361.8 114.85,-352.28 112.55,-362.63 119.5,-361.8"/>
</a>
</g>
</g>
<!-- Node5 -->
<g id="Node000005" class="node">
<title>Node5</title>
<g id="a_Node000005"><a xlink:href="classBMP390Sensor.html" target="_top" xlink:title="Implementation of a Sensor for BMP384 Pressure and Temperature sensor.">
<polygon fill="white" stroke="#666666" points="269.5,-500 180.5,-500 180.5,-481 269.5,-481 269.5,-500"/>
<text text-anchor="middle" x="225" y="-488" font-family="Helvetica,sans-Serif" font-size="10.00">BMP390Sensor</text>
</a>
</g>
</g>
<!-- Node1&#45;&gt;Node5 -->
<g id="edge5_Node000001_Node000005" class="edge">
<title>Node1&#45;&gt;Node5</title>
<g id="a_edge5_Node000001_Node000005"><a xlink:title=" ">
<path fill="none" stroke="#63b8ff" d="M118.37,-361.98C125.64,-390.11 142.81,-442.06 176,-472.5 179.67,-475.87 184.04,-478.63 188.61,-480.88"/>
<polygon fill="#63b8ff" stroke="#63b8ff" points="121.74,-361.04 115.98,-352.14 114.94,-362.69 121.74,-361.04"/>
</a>
</g>
</g>
<!-- Node6 -->
<g id="Node000006" class="node">
<title>Node6</title>
<g id="a_Node000006"><a xlink:href="classDS3231Sensor.html" target="_top" xlink:title="Implementation of a Sensor for the DS3231 Real Time Clock.">
<polygon fill="white" stroke="#666666" points="268.5,-463 181.5,-463 181.5,-444 268.5,-444 268.5,-463"/>
<text text-anchor="middle" x="225" y="-451" font-family="Helvetica,sans-Serif" font-size="10.00">DS3231Sensor</text>
</a>
</g>
</g>
<!-- Node1&#45;&gt;Node6 -->
<g id="edge6_Node000001_Node000006" class="edge">
<title>Node1&#45;&gt;Node6</title>
<g id="a_edge6_Node000001_Node000006"><a xlink:title=" ">
<path fill="none" stroke="#63b8ff" d="M122.12,-361.21C132.03,-382.03 150.66,-415.39 176,-435.5 180.18,-438.82 185.04,-441.57 190.03,-443.84"/>
<polygon fill="#63b8ff" stroke="#63b8ff" points="125.3,-359.75 117.96,-352.1 118.93,-362.66 125.3,-359.75"/>
</a>
</g>
</g>
<!-- Node7 -->
<g id="Node000007" class="node">
<title>Node7</title>
<g id="a_Node000007"><a xlink:href="classENS160Sensor.html" target="_top" xlink:title="Implementation of a Sensor for the ENS160.">
<polygon fill="white" stroke="#666666" points="268.5,-426 181.5,-426 181.5,-407 268.5,-407 268.5,-426"/>
<text text-anchor="middle" x="225" y="-414" font-family="Helvetica,sans-Serif" font-size="10.00">ENS160Sensor</text>
</a>
</g>
</g>
<!-- Node1&#45;&gt;Node7 -->
<g id="edge7_Node000001_Node000007" class="edge">
<title>Node1&#45;&gt;Node7</title>
<g id="a_edge7_Node000001_Node000007"><a xlink:title=" ">
<path fill="none" stroke="#63b8ff" d="M129.28,-359.37C141.08,-371.57 158.31,-387.74 176,-398.5 181.32,-401.74 187.32,-404.55 193.23,-406.93"/>
<polygon fill="#63b8ff" stroke="#63b8ff" points="131.77,-356.9 122.37,-352.02 126.67,-361.7 131.77,-356.9"/>
</a>
</g>
</g>
<!-- Node8 -->
<g id="Node000008" class="node">
<title>Node8</title>
<g id="a_Node000008"><a xlink:href="classICM20948Sensor.html" target="_top" xlink:title="Implementation of the Sensor class for the Adafruit ICM20948 (9&#45;axis IMU)">
<polygon fill="white" stroke="#666666" points="274,-389 176,-389 176,-370 274,-370 274,-389"/>
<text text-anchor="middle" x="225" y="-377" font-family="Helvetica,sans-Serif" font-size="10.00">ICM20948Sensor</text>
</a>
</g>
</g>
<!-- Node1&#45;&gt;Node8 -->
<g id="edge8_Node000001_Node000008" class="edge">
<title>Node1&#45;&gt;Node8</title>
<g id="a_edge8_Node000001_Node000008"><a xlink:title=" ">
<path fill="none" stroke="#63b8ff" d="M147.77,-353.86C163.1,-359.02 181.02,-365.04 195.63,-369.96"/>
<polygon fill="#63b8ff" stroke="#63b8ff" points="148.73,-350.49 138.14,-350.62 146.5,-357.13 148.73,-350.49"/>
</a>
</g>
</g>
<!-- Node9 -->
<g id="Node000009" class="node">
<title>Node9</title>
<g id="a_Node000009"><a xlink:href="classINA260Sensor.html" target="_top" xlink:title="A class to interface with the Adafruit INA260 sensor for current, voltage, and power measurements.">
<polygon fill="white" stroke="#666666" points="267.5,-352 182.5,-352 182.5,-333 267.5,-333 267.5,-352"/>
<text text-anchor="middle" x="225" y="-340" font-family="Helvetica,sans-Serif" font-size="10.00">INA260Sensor</text>
</a>
</g>
</g>
<!-- Node1&#45;&gt;Node9 -->
<g id="edge9_Node000001_Node000009" class="edge">
<title>Node1&#45;&gt;Node9</title>
<g id="a_edge9_Node000001_Node000009"><a xlink:title=" ">
<path fill="none" stroke="#63b8ff" d="M148.37,-342.5C159.08,-342.5 171.01,-342.5 182.18,-342.5"/>
<polygon fill="#63b8ff" stroke="#63b8ff" points="148.14,-339 138.14,-342.5 148.14,-346 148.14,-339"/>
</a>
</g>
</g>
<!-- Node10 -->
<g id="Node000010" class="node">
<title>Node10</title>
<g id="a_Node000010"><a xlink:href="classLSM9DS1Sensor.html" target="_top" xlink:title="Implementation of the Sensor class for the LSM9DS1 (9&#45;axis IMU)">
<polygon fill="white" stroke="#666666" points="272.5,-315 177.5,-315 177.5,-296 272.5,-296 272.5,-315"/>
<text text-anchor="middle" x="225" y="-303" font-family="Helvetica,sans-Serif" font-size="10.00">LSM9DS1Sensor</text>
</a>
</g>
</g>
<!-- Node1&#45;&gt;Node10 -->
<g id="edge10_Node000001_Node000010" class="edge">
<title>Node1&#45;&gt;Node10</title>
<g id="a_edge10_Node000001_Node000010"><a xlink:title=" ">
<path fill="none" stroke="#63b8ff" d="M147.77,-331.14C163.1,-325.98 181.02,-319.96 195.63,-315.04"/>
<polygon fill="#63b8ff" stroke="#63b8ff" points="146.5,-327.87 138.14,-334.38 148.73,-334.51 146.5,-327.87"/>
</a>
</g>
</g>
<!-- Node11 -->
<g id="Node000011" class="node">
<title>Node11</title>
<g id="a_Node000011"><a xlink:href="classMTK3339Sensor.html" target="_top" xlink:title="Implementation of the Adafruit MTK3339 GPS sensor.">
<polygon fill="white" stroke="#666666" points="272.5,-278 177.5,-278 177.5,-259 272.5,-259 272.5,-278"/>
<text text-anchor="middle" x="225" y="-266" font-family="Helvetica,sans-Serif" font-size="10.00">MTK3339Sensor</text>
</a>
</g>
</g>
<!-- Node1&#45;&gt;Node11 -->
<g id="edge11_Node000001_Node000011" class="edge">
<title>Node1&#45;&gt;Node11</title>
<g id="a_edge11_Node000001_Node000011"><a xlink:title=" ">
<path fill="none" stroke="#63b8ff" d="M129.81,-325.63C141.64,-313.75 158.71,-298.13 176,-287.5 181.88,-283.89 188.56,-280.73 195.04,-278.08"/>
<polygon fill="#63b8ff" stroke="#63b8ff" points="127.29,-323.2 122.84,-332.81 132.31,-328.07 127.29,-323.2"/>
</a>
</g>
</g>
<!-- Node12 -->
<g id="Node000012" class="node">
<title>Node12</title>
<g id="a_Node000012"><a xlink:href="classPCF8523Sensor.html" target="_top" xlink:title="Implementation of the PCF8523 sensor.">
<polygon fill="white" stroke="#666666" points="271,-241 179,-241 179,-222 271,-222 271,-241"/>
<text text-anchor="middle" x="225" y="-229" font-family="Helvetica,sans-Serif" font-size="10.00">PCF8523Sensor</text>
</a>
</g>
</g>
<!-- Node1&#45;&gt;Node12 -->
<g id="edge12_Node000001_Node000012" class="edge">
<title>Node1&#45;&gt;Node12</title>
<g id="a_edge12_Node000001_Node000012"><a xlink:title=" ">
<path fill="none" stroke="#63b8ff" d="M122.53,-323.48C132.61,-302.92 151.22,-270.43 176,-250.5 180.75,-246.68 186.36,-243.55 192.04,-241.01"/>
<polygon fill="#63b8ff" stroke="#63b8ff" points="119.25,-322.22 118.15,-332.76 125.58,-325.21 119.25,-322.22"/>
</a>
</g>
</g>
<!-- Node13 -->
<g id="Node000013" class="node">
<title>Node13</title>
<g id="a_Node000013"><a xlink:href="classSGP30Sensor.html" target="_top" xlink:title="Implementation of a Sensor for the SGP Air Quality sensor.">
<polygon fill="white" stroke="#666666" points="265.5,-204 184.5,-204 184.5,-185 265.5,-185 265.5,-204"/>
<text text-anchor="middle" x="225" y="-192" font-family="Helvetica,sans-Serif" font-size="10.00">SGP30Sensor</text>
</a>
</g>
</g>
<!-- Node1&#45;&gt;Node13 -->
<g id="edge13_Node000001_Node000013" class="edge">
<title>Node1&#45;&gt;Node13</title>
<g id="a_edge13_Node000001_Node000013"><a xlink:title=" ">
<path fill="none" stroke="#63b8ff" d="M118.48,-323.25C125.9,-295.43 143.25,-244 176,-213.5 180.07,-209.71 184.98,-206.65 190.09,-204.17"/>
<polygon fill="#63b8ff" stroke="#63b8ff" points="115.08,-322.42 116.04,-332.97 121.87,-324.12 115.08,-322.42"/>
</a>
</g>
</g>
<!-- Node14 -->
<g id="Node000014" class="node">
<title>Node14</title>
<g id="a_Node000014"><a xlink:href="classTMP117Sensor.html" target="_top" xlink:title="Implementation of a Sensor for the TMP117.">
<polygon fill="white" stroke="#666666" points="269.5,-167 180.5,-167 180.5,-148 269.5,-148 269.5,-167"/>
<text text-anchor="middle" x="225" y="-155" font-family="Helvetica,sans-Serif" font-size="10.00">TMP117Sensor</text>
</a>
</g>
</g>
<!-- Node1&#45;&gt;Node14 -->
<g id="edge14_Node000001_Node000014" class="edge">
<title>Node1&#45;&gt;Node14</title>
<g id="a_edge14_Node000001_Node000014"><a xlink:title=" ">
<path fill="none" stroke="#63b8ff" d="M116.18,-322.69C120.95,-288.46 135.36,-217.94 176,-176.5 179.77,-172.66 184.4,-169.58 189.3,-167.11"/>
<polygon fill="#63b8ff" stroke="#63b8ff" points="112.68,-322.46 114.9,-332.81 119.62,-323.33 112.68,-322.46"/>
</a>
</g>
</g>
<!-- Node15 -->
<g id="Node000015" class="node">
<title>Node15</title>
<g id="a_Node000015"><a xlink:href="classTempSensor.html" target="_top" xlink:title="Implementation of a Sensor for the onboard temperature sensor.">
<polygon fill="white" stroke="#666666" points="263,-130 187,-130 187,-111 263,-111 263,-130"/>
<text text-anchor="middle" x="225" y="-118" font-family="Helvetica,sans-Serif" font-size="10.00">TempSensor</text>
</a>
</g>
</g>
<!-- Node1&#45;&gt;Node15 -->
<g id="edge15_Node000001_Node000015" class="edge">
<title>Node1&#45;&gt;Node15</title>
<g id="a_edge15_Node000001_Node000015"><a xlink:title=" ">
<path fill="none" stroke="#63b8ff" d="M114.58,-322.53C116.79,-282.63 127.23,-192.37 176,-139.5 179.52,-135.68 183.92,-132.61 188.6,-130.16"/>
<polygon fill="#63b8ff" stroke="#63b8ff" points="111.08,-322.44 114.14,-332.58 118.07,-322.74 111.08,-322.44"/>
</a>
</g>
</g>
<!-- Node17 -->
<g id="Node000017" class="node">
<title>Node17</title>
<g id="a_Node000017"><a xlink:href="classFlashStorage.html" target="_top" xlink:title=" ">
<polygon fill="white" stroke="#666666" points="265,-93 185,-93 185,-74 265,-74 265,-93"/>
<text text-anchor="middle" x="225" y="-81" font-family="Helvetica,sans-Serif" font-size="10.00">FlashStorage</text>
</a>
</g>
</g>
<!-- Node16&#45;&gt;Node17 -->
<g id="edge17_Node000016_Node000017" class="edge">
<title>Node16&#45;&gt;Node17</title>
<g id="a_edge17_Node000016_Node000017"><a xlink:title=" ">
<path fill="none" stroke="#63b8ff" d="M150.25,-71.43C161.31,-73.24 173.52,-75.24 184.77,-77.08"/>
<polygon fill="#63b8ff" stroke="#63b8ff" points="150.5,-67.93 140.07,-69.77 149.37,-74.83 150.5,-67.93"/>
</a>
</g>
</g>
<!-- Node18 -->
<g id="Node000018" class="node">
<title>Node18</title>
<g id="a_Node000018"><a xlink:href="classRadioStorage.html" target="_top" xlink:title="Implementation of a Storage device to interface with an SD card.">
<polygon fill="white" stroke="#666666" points="266,-56 184,-56 184,-37 266,-37 266,-56"/>
<text text-anchor="middle" x="225" y="-44" font-family="Helvetica,sans-Serif" font-size="10.00">RadioStorage</text>
</a>
</g>
</g>
<!-- Node16&#45;&gt;Node18 -->
<g id="edge18_Node000016_Node000018" class="edge">
<title>Node16&#45;&gt;Node18</title>
<g id="a_edge18_Node000016_Node000018"><a xlink:title=" ">
<path fill="none" stroke="#63b8ff" d="M150.05,-59.27C160.89,-57.4 172.84,-55.34 183.92,-53.42"/>
<polygon fill="#63b8ff" stroke="#63b8ff" points="149.33,-55.85 140.07,-61 150.52,-62.74 149.33,-55.85"/>
</a>
</g>
</g>
<!-- Node19 -->
<g id="Node000019" class="node">
<title>Node19</title>
<g id="a_Node000019"><a xlink:href="classSDStorage.html" target="_top" xlink:title="Implementation of a Storage device to interface with an SD card.">
<polygon fill="white" stroke="#666666" points="259,-19 191,-19 191,0 259,0 259,-19"/>
<text text-anchor="middle" x="225" y="-7" font-family="Helvetica,sans-Serif" font-size="10.00">SDStorage</text>
</a>
</g>
</g>
<!-- Node16&#45;&gt;Node19 -->
<g id="edge19_Node000016_Node000019" class="edge">
<title>Node16&#45;&gt;Node19</title>
<g id="a_edge19_Node000016_Node000019"><a xlink:title=" ">
<path fill="none" stroke="#63b8ff" d="M136.95,-50.6C148.43,-43.46 162.69,-35.05 176,-28.5 182.92,-25.1 190.6,-21.83 197.76,-19"/>
<polygon fill="#63b8ff" stroke="#63b8ff" points="134.99,-47.69 128.41,-55.99 138.73,-53.61 134.99,-47.69"/>
</a>
</g>
</g>
</g>
</svg>
