<?xml version="1.0" encoding="UTF-8" standalone="no"?>
<!DOCTYPE svg PUBLIC "-//W3C//DTD SVG 1.1//EN"
 "http://www.w3.org/Graphics/SVG/1.1/DTD/svg11.dtd">
<!-- Generated by graphviz version 2.43.0 (0)
 -->
<!-- Title: Graphical Class Hierarchy Pages: 1 -->
<svg width="282pt" height="582pt"
 viewBox="0.00 0.00 282.00 582.00" xmlns="http://www.w3.org/2000/svg" xmlns:xlink="http://www.w3.org/1999/xlink">
<g id="graph0" class="graph" transform="scale(1 1) rotate(0) translate(4 578)">
<title>Graphical Class Hierarchy</title>
<!-- Node0 -->
<g id="Node000000" class="node">
<title>Node0</title>
<g id="a_Node000000"><a xlink:href="classDevice.html" target="_top" xlink:title="Implements the recovery system for Sensor and Storage objects.">
<polygon fill="white" stroke="#666666" points="50,-186 0,-186 0,-167 50,-167 50,-186"/>
<text text-anchor="middle" x="25" y="-174" font-family="Helvetica,sans-Serif" font-size="10.00">Device</text>
</a>
</g>
</g>
<!-- Node1 -->
<g id="Node000001" class="node">
<title>Node1</title>
<g id="a_Node000001"><a xlink:href="classSensor.html" target="_top" xlink:title="Parent class for sensor objects.">
<polygon fill="white" stroke="#666666" points="138,-333 88,-333 88,-314 138,-314 138,-333"/>
<text text-anchor="middle" x="113" y="-321" font-family="Helvetica,sans-Serif" font-size="10.00">Sensor</text>
</a>
</g>
</g>
<!-- Node0&#45;&gt;Node1 -->
<g id="edge1_Node000000_Node000001" class="edge">
<title>Node0&#45;&gt;Node1</title>
<g id="a_edge1_Node000000_Node000001"><a xlink:title=" ">
<path fill="none" stroke="#63b8ff" d="M36.7,-194.79C55.07,-226.19 91.99,-289.3 106.22,-313.63"/>
<polygon fill="#63b8ff" stroke="#63b8ff" points="39.71,-193.01 31.64,-186.15 33.67,-196.54 39.71,-193.01"/>
</a>
</g>
</g>
<!-- Node15 -->
<g id="Node000015" class="node">
<title>Node15</title>
<g id="a_Node000015"><a xlink:href="classStorage.html" target="_top" xlink:title="Parent class for all data storage devices (sd card, radio, etc)">
<polygon fill="white" stroke="#666666" points="140,-75 86,-75 86,-56 140,-56 140,-75"/>
<text text-anchor="middle" x="113" y="-63" font-family="Helvetica,sans-Serif" font-size="10.00">Storage</text>
</a>
</g>
</g>
<!-- Node0&#45;&gt;Node15 -->
<g id="edge15_Node000000_Node000015" class="edge">
<title>Node0&#45;&gt;Node15</title>
<g id="a_edge15_Node000000_Node000015"><a xlink:title=" ">
<path fill="none" stroke="#63b8ff" d="M39.97,-158.47C58.38,-134.7 90.11,-93.75 104.51,-75.17"/>
<polygon fill="#63b8ff" stroke="#63b8ff" points="36.99,-156.6 33.63,-166.65 42.52,-160.89 36.99,-156.6"/>
</a>
</g>
</g>
<!-- Node2 -->
<g id="Node000002" class="node">
<title>Node2</title>
<g id="a_Node000002"><a xlink:href="classAS7331Sensor.html" target="_top" xlink:title="Implementation of a Sensor for UVA/B/C sensor.">
<polygon fill="white" stroke="#666666" points="268,-574 182,-574 182,-555 268,-555 268,-574"/>
<text text-anchor="middle" x="225" y="-562" font-family="Helvetica,sans-Serif" font-size="10.00">AS7331Sensor</text>
</a>
</g>
</g>
<!-- Node1&#45;&gt;Node2 -->
<g id="edge2_Node000001_Node000002" class="edge">
<title>Node1&#45;&gt;Node2</title>
<g id="a_edge2_Node000001_Node000002"><a xlink:title=" ">
<path fill="none" stroke="#63b8ff" d="M113.83,-343.71C114.57,-386.66 122.3,-487.87 176,-546.5 179.13,-549.91 182.96,-552.68 187.09,-554.93"/>
<polygon fill="#63b8ff" stroke="#63b8ff" points="117.33,-343.42 113.77,-333.44 110.33,-343.46 117.33,-343.42"/>
</a>
</g>
</g>
<!-- Node3 -->
<g id="Node000003" class="node">
<title>Node3</title>
<g id="a_Node000003"><a xlink:href="classBME280Sensor.html" target="_top" xlink:title="Implementation of a Sensor for the BME280.">
<polygon fill="white" stroke="#666666" points="269.5,-537 180.5,-537 180.5,-518 269.5,-518 269.5,-537"/>
<text text-anchor="middle" x="225" y="-525" font-family="Helvetica,sans-Serif" font-size="10.00">BME280Sensor</text>
</a>
</g>
</g>
<!-- Node1&#45;&gt;Node3 -->
<g id="edge3_Node000001_Node000003" class="edge">
<title>Node1&#45;&gt;Node3</title>
<g id="a_edge3_Node000001_Node000003"><a xlink:title=" ">
<path fill="none" stroke="#63b8ff" d="M115.13,-343.14C118.32,-380.47 130.41,-462.19 176,-509.5 179.21,-512.83 183.1,-515.55 187.25,-517.77"/>
<polygon fill="#63b8ff" stroke="#63b8ff" points="118.62,-342.78 114.4,-333.06 111.63,-343.29 118.62,-342.78"/>
</a>
</g>
</g>
<!-- Node4 -->
<g id="Node000004" class="node">
<title>Node4</title>
<g id="a_Node000004"><a xlink:href="classBME680Sensor.html" target="_top" xlink:title="A class to interface with the Adafruit BME680 sensor for environmental data collection.">
<polygon fill="white" stroke="#666666" points="269.5,-500 180.5,-500 180.5,-481 269.5,-481 269.5,-500"/>
<text text-anchor="middle" x="225" y="-488" font-family="Helvetica,sans-Serif" font-size="10.00">BME680Sensor</text>
</a>
</g>
</g>
<!-- Node1&#45;&gt;Node4 -->
<g id="edge4_Node000001_Node000004" class="edge">
<title>Node1&#45;&gt;Node4</title>
<g id="a_edge4_Node000001_Node000004"><a xlink:title=" ">
<path fill="none" stroke="#63b8ff" d="M117.12,-343.55C123.04,-375.15 138.83,-436.63 176,-472.5 179.46,-475.84 183.59,-478.57 187.97,-480.8"/>
<polygon fill="#63b8ff" stroke="#63b8ff" points="120.51,-342.62 115.36,-333.36 113.61,-343.81 120.51,-342.62"/>
</a>
</g>
</g>
<!-- Node5 -->
<g id="Node000005" class="node">
<title>Node5</title>
<g id="a_Node000005"><a xlink:href="classBMP390Sensor.html" target="_top" xlink:title="Implementation of a Sensor for BMP384 Pressure and Temperature sensor.">
<polygon fill="white" stroke="#666666" points="269.5,-463 180.5,-463 180.5,-444 269.5,-444 269.5,-463"/>
<text text-anchor="middle" x="225" y="-451" font-family="Helvetica,sans-Serif" font-size="10.00">BMP390Sensor</text>
</a>
</g>
</g>
<!-- Node1&#45;&gt;Node5 -->
<g id="edge5_Node000001_Node000005" class="edge">
<title>Node1&#45;&gt;Node5</title>
<g id="a_edge5_Node000001_Node000005"><a xlink:title=" ">
<path fill="none" stroke="#63b8ff" d="M119.96,-342.74C128.56,-367.47 146.69,-410.2 176,-435.5 179.91,-438.87 184.51,-441.64 189.29,-443.91"/>
<polygon fill="#63b8ff" stroke="#63b8ff" points="123.23,-341.46 116.77,-333.06 116.58,-343.66 123.23,-341.46"/>
</a>
</g>
</g>
<!-- Node6 -->
<g id="Node000006" class="node">
<title>Node6</title>
<g id="a_Node000006"><a xlink:href="classDS3231Sensor.html" target="_top" xlink:title="Implementation of a Sensor for the DS3231 Real Time Clock.">
<polygon fill="white" stroke="#666666" points="268.5,-426 181.5,-426 181.5,-407 268.5,-407 268.5,-426"/>
<text text-anchor="middle" x="225" y="-414" font-family="Helvetica,sans-Serif" font-size="10.00">DS3231Sensor</text>
</a>
</g>
</g>
<!-- Node1&#45;&gt;Node6 -->
<g id="edge6_Node000001_Node000006" class="edge">
<title>Node1&#45;&gt;Node6</title>
<g id="a_edge6_Node000001_Node000006"><a xlink:title=" ">
<path fill="none" stroke="#63b8ff" d="M125.28,-342.05C136.33,-358.86 154.61,-383.25 176,-398.5 180.64,-401.81 185.96,-404.59 191.33,-406.89"/>
<polygon fill="#63b8ff" stroke="#63b8ff" points="127.95,-339.73 119.63,-333.16 122.04,-343.48 127.95,-339.73"/>
</a>
</g>
</g>
<!-- Node7 -->
<g id="Node000007" class="node">
<title>Node7</title>
<g id="a_Node000007"><a xlink:href="classENS160Sensor.html" target="_top" xlink:title="Implementation of a Sensor for the ENS160.">
<polygon fill="white" stroke="#666666" points="268.5,-389 181.5,-389 181.5,-370 268.5,-370 268.5,-389"/>
<text text-anchor="middle" x="225" y="-377" font-family="Helvetica,sans-Serif" font-size="10.00">ENS160Sensor</text>
</a>
</g>
</g>
<!-- Node1&#45;&gt;Node7 -->
<g id="edge7_Node000001_Node000007" class="edge">
<title>Node1&#45;&gt;Node7</title>
<g id="a_edge7_Node000001_Node000007"><a xlink:title=" ">
<path fill="none" stroke="#63b8ff" d="M136.39,-338.66C147.93,-346.1 162.39,-354.86 176,-361.5 182.24,-364.55 189.13,-367.41 195.7,-369.91"/>
<polygon fill="#63b8ff" stroke="#63b8ff" points="138.13,-335.61 127.85,-333.05 134.28,-341.46 138.13,-335.61"/>
</a>
</g>
</g>
<!-- Node8 -->
<g id="Node000008" class="node">
<title>Node8</title>
<g id="a_Node000008"><a xlink:href="classICM20948Sensor.html" target="_top" xlink:title="Implementation of the Sensor class for the Adafruit ICM20948 (9&#45;axis IMU)">
<polygon fill="white" stroke="#666666" points="274,-352 176,-352 176,-333 274,-333 274,-352"/>
<text text-anchor="middle" x="225" y="-340" font-family="Helvetica,sans-Serif" font-size="10.00">ICM20948Sensor</text>
</a>
</g>
</g>
<!-- Node1&#45;&gt;Node8 -->
<g id="edge8_Node000001_Node000008" class="edge">
<title>Node1&#45;&gt;Node8</title>
<g id="a_edge8_Node000001_Node000008"><a xlink:title=" ">
<path fill="none" stroke="#63b8ff" d="M148.06,-329.38C156.89,-330.91 166.58,-332.58 175.98,-334.21"/>
<polygon fill="#63b8ff" stroke="#63b8ff" points="148.59,-325.92 138.14,-327.67 147.4,-332.82 148.59,-325.92"/>
</a>
</g>
</g>
<!-- Node9 -->
<g id="Node000009" class="node">
<title>Node9</title>
<g id="a_Node000009"><a xlink:href="classINA260Sensor.html" target="_top" xlink:title="A class to interface with the Adafruit INA260 sensor for current, voltage, and power measurements.">
<polygon fill="white" stroke="#666666" points="267.5,-315 182.5,-315 182.5,-296 267.5,-296 267.5,-315"/>
<text text-anchor="middle" x="225" y="-303" font-family="Helvetica,sans-Serif" font-size="10.00">INA260Sensor</text>
</a>
</g>
</g>
<!-- Node1&#45;&gt;Node9 -->
<g id="edge9_Node000001_Node000009" class="edge">
<title>Node1&#45;&gt;Node9</title>
<g id="a_edge9_Node000001_Node000009"><a xlink:title=" ">
<path fill="none" stroke="#63b8ff" d="M148.04,-317.93C158.83,-316.16 170.9,-314.19 182.18,-312.34"/>
<polygon fill="#63b8ff" stroke="#63b8ff" points="147.44,-314.48 138.14,-319.55 148.57,-321.39 147.44,-314.48"/>
</a>
</g>
</g>
<!-- Node10 -->
<g id="Node000010" class="node">
<title>Node10</title>
<g id="a_Node000010"><a xlink:href="classLSM9DS1Sensor.html" target="_top" xlink:title="Implementation of the Sensor class for the LSM9DS1 (9&#45;axis IMU)">
<polygon fill="white" stroke="#666666" points="272.5,-278 177.5,-278 177.5,-259 272.5,-259 272.5,-278"/>
<text text-anchor="middle" x="225" y="-266" font-family="Helvetica,sans-Serif" font-size="10.00">LSM9DS1Sensor</text>
</a>
</g>
</g>
<!-- Node1&#45;&gt;Node10 -->
<g id="edge10_Node000001_Node000010" class="edge">
<title>Node1&#45;&gt;Node10</title>
<g id="a_edge10_Node000001_Node000010"><a xlink:title=" ">
<path fill="none" stroke="#63b8ff" d="M137.8,-308.56C149.15,-301.73 163.05,-293.78 176,-287.5 182.94,-284.14 190.63,-280.89 197.79,-278.06"/>
<polygon fill="#63b8ff" stroke="#63b8ff" points="135.65,-305.77 128.94,-313.98 139.3,-311.75 135.65,-305.77"/>
</a>
</g>
</g>
<!-- Node11 -->
<g id="Node000011" class="node">
<title>Node11</title>
<g id="a_Node000011"><a xlink:href="classMTK3339Sensor.html" target="_top" xlink:title="Implementation of the Adafruit MTK3339 GPS sensor.">
<polygon fill="white" stroke="#666666" points="272.5,-241 177.5,-241 177.5,-222 272.5,-222 272.5,-241"/>
<text text-anchor="middle" x="225" y="-229" font-family="Helvetica,sans-Serif" font-size="10.00">MTK3339Sensor</text>
</a>
</g>
</g>
<!-- Node1&#45;&gt;Node11 -->
<g id="edge11_Node000001_Node000011" class="edge">
<title>Node1&#45;&gt;Node11</title>
<g id="a_edge11_Node000001_Node000011"><a xlink:title=" ">
<path fill="none" stroke="#63b8ff" d="M125.81,-305.01C137.02,-288.75 155.21,-265.4 176,-250.5 181.25,-246.74 187.34,-243.59 193.38,-241.01"/>
<polygon fill="#63b8ff" stroke="#63b8ff" points="122.69,-303.39 120.05,-313.65 128.51,-307.27 122.69,-303.39"/>
</a>
</g>
</g>
<!-- Node12 -->
<g id="Node000012" class="node">
<title>Node12</title>
<g id="a_Node000012"><a xlink:href="classPCF8523Sensor.html" target="_top" xlink:title="Implementation of the PCF8523 sensor.">
<polygon fill="white" stroke="#666666" points="271,-204 179,-204 179,-185 271,-185 271,-204"/>
<text text-anchor="middle" x="225" y="-192" font-family="Helvetica,sans-Serif" font-size="10.00">PCF8523Sensor</text>
</a>
</g>
</g>
<!-- Node1&#45;&gt;Node12 -->
<g id="edge12_Node000001_Node000012" class="edge">
<title>Node1&#45;&gt;Node12</title>
<g id="a_edge12_Node000001_Node000012"><a xlink:title=" ">
<path fill="none" stroke="#63b8ff" d="M120.26,-304.32C129.08,-280.07 147.36,-238.48 176,-213.5 180.32,-209.73 185.48,-206.66 190.79,-204.17"/>
<polygon fill="#63b8ff" stroke="#63b8ff" points="116.93,-303.24 116.96,-313.83 123.54,-305.53 116.93,-303.24"/>
</a>
</g>
</g>
<!-- Node13 -->
<g id="Node000013" class="node">
<title>Node13</title>
<g id="a_Node000013"><a xlink:href="classSGP30Sensor.html" target="_top" xlink:title="Implementation of a Sensor for the SGP Air Quality sensor.">
<polygon fill="white" stroke="#666666" points="265.5,-167 184.5,-167 184.5,-148 265.5,-148 265.5,-167"/>
<text text-anchor="middle" x="225" y="-155" font-family="Helvetica,sans-Serif" font-size="10.00">SGP30Sensor</text>
</a>
</g>
</g>
<!-- Node1&#45;&gt;Node13 -->
<g id="edge13_Node000001_Node000013" class="edge">
<title>Node1&#45;&gt;Node13</title>
<g id="a_edge13_Node000001_Node000013"><a xlink:title=" ">
<path fill="none" stroke="#63b8ff" d="M117.27,-303.8C123.41,-272.72 139.49,-212.2 176,-176.5 179.97,-172.61 184.84,-169.5 189.93,-167"/>
<polygon fill="#63b8ff" stroke="#63b8ff" points="113.8,-303.34 115.44,-313.81 120.68,-304.6 113.8,-303.34"/>
</a>
</g>
</g>
<!-- Node14 -->
<g id="Node000014" class="node">
<title>Node14</title>
<g id="a_Node000014"><a xlink:href="classTempSensor.html" target="_top" xlink:title="Implementation of a Sensor for the onboard temperature sensor.">
<polygon fill="white" stroke="#666666" points="263,-130 187,-130 187,-111 263,-111 263,-130"/>
<text text-anchor="middle" x="225" y="-118" font-family="Helvetica,sans-Serif" font-size="10.00">TempSensor</text>
</a>
</g>
</g>
<!-- Node1&#45;&gt;Node14 -->
<g id="edge14_Node000001_Node000014" class="edge">
<title>Node1&#45;&gt;Node14</title>
<g id="a_edge14_Node000001_Node000014"><a xlink:title=" ">
<path fill="none" stroke="#63b8ff" d="M115.33,-303.62C118.83,-266.57 131.41,-186.47 176,-139.5 179.7,-135.6 184.31,-132.48 189.19,-130"/>
<polygon fill="#63b8ff" stroke="#63b8ff" points="111.83,-303.4 114.5,-313.65 118.81,-303.97 111.83,-303.4"/>
</a>
</g>
</g>
<!-- Node16 -->
<g id="Node000016" class="node">
<title>Node16</title>
<g id="a_Node000016"><a xlink:href="classFlashStorage.html" target="_top" xlink:title=" ">
<polygon fill="white" stroke="#666666" points="265,-93 185,-93 185,-74 265,-74 265,-93"/>
<text text-anchor="middle" x="225" y="-81" font-family="Helvetica,sans-Serif" font-size="10.00">FlashStorage</text>
</a>
</g>
</g>
<!-- Node15&#45;&gt;Node16 -->
<g id="edge16_Node000015_Node000016" class="edge">
<title>Node15&#45;&gt;Node16</title>
<g id="a_edge16_Node000015_Node000016"><a xlink:title=" ">
<path fill="none" stroke="#63b8ff" d="M150.25,-71.43C161.31,-73.24 173.52,-75.24 184.77,-77.08"/>
<polygon fill="#63b8ff" stroke="#63b8ff" points="150.5,-67.93 140.07,-69.77 149.37,-74.83 150.5,-67.93"/>
</a>
</g>
</g>
<!-- Node17 -->
<g id="Node000017" class="node">
<title>Node17</title>
<g id="a_Node000017"><a xlink:href="classRadioStorage.html" target="_top" xlink:title="Implementation of a Storage device to interface with an SD card.">
<polygon fill="white" stroke="#666666" points="266,-56 184,-56 184,-37 266,-37 266,-56"/>
<text text-anchor="middle" x="225" y="-44" font-family="Helvetica,sans-Serif" font-size="10.00">RadioStorage</text>
</a>
</g>
</g>
<!-- Node15&#45;&gt;Node17 -->
<g id="edge17_Node000015_Node000017" class="edge">
<title>Node15&#45;&gt;Node17</title>
<g id="a_edge17_Node000015_Node000017"><a xlink:title=" ">
<path fill="none" stroke="#63b8ff" d="M150.05,-59.27C160.89,-57.4 172.84,-55.34 183.92,-53.42"/>
<polygon fill="#63b8ff" stroke="#63b8ff" points="149.33,-55.85 140.07,-61 150.52,-62.74 149.33,-55.85"/>
</a>
</g>
</g>
<!-- Node18 -->
<g id="Node000018" class="node">
<title>Node18</title>
<g id="a_Node000018"><a xlink:href="classSDStorage.html" target="_top" xlink:title="Implementation of a Storage device to interface with an SD card.">
<polygon fill="white" stroke="#666666" points="259,-19 191,-19 191,0 259,0 259,-19"/>
<text text-anchor="middle" x="225" y="-7" font-family="Helvetica,sans-Serif" font-size="10.00">SDStorage</text>
</a>
</g>
</g>
<!-- Node15&#45;&gt;Node18 -->
<g id="edge18_Node000015_Node000018" class="edge">
<title>Node15&#45;&gt;Node18</title>
<g id="a_edge18_Node000015_Node000018"><a xlink:title=" ">
<path fill="none" stroke="#63b8ff" d="M136.95,-50.6C148.43,-43.46 162.69,-35.05 176,-28.5 182.92,-25.1 190.6,-21.83 197.76,-19"/>
<polygon fill="#63b8ff" stroke="#63b8ff" points="134.99,-47.69 128.41,-55.99 138.73,-53.61 134.99,-47.69"/>
</a>
</g>
</g>
</g>
</svg>
