<?xml version="1.0" encoding="UTF-8" standalone="no"?>
<!DOCTYPE svg PUBLIC "-//W3C//DTD SVG 1.1//EN"
 "http://www.w3.org/Graphics/SVG/1.1/DTD/svg11.dtd">
<!-- Generated by graphviz version 2.43.0 (0)
 -->
<!-- Title: Logger.h Pages: 1 -->
<svg width="1933pt" height="192pt"
 viewBox="0.00 0.00 1933.00 192.00" xmlns="http://www.w3.org/2000/svg" xmlns:xlink="http://www.w3.org/1999/xlink">
<g id="graph0" class="graph" transform="scale(1 1) rotate(0) translate(4 188)">
<title>Logger.h</title>
<!-- Node1 -->
<g id="Node000001" class="node">
<title>Node1</title>
<g id="a_Node000001"><a xlink:title=" ">
<polygon fill="#999999" stroke="#666666" points="1536,-184 1478,-184 1478,-165 1536,-165 1536,-184"/>
<text text-anchor="middle" x="1507" y="-172" font-family="Helvetica,sans-Serif" font-size="10.00">Logger.h</text>
</a>
</g>
</g>
<!-- Node2 -->
<g id="Node000002" class="node">
<title>Node2</title>
<g id="a_Node000002"><a xlink:href="Sensor_8h.html" target="_top" xlink:title=" ">
<polygon fill="white" stroke="#666666" points="910,-129 852,-129 852,-110 910,-110 910,-129"/>
<text text-anchor="middle" x="881" y="-117" font-family="Helvetica,sans-Serif" font-size="10.00">Sensor.h</text>
</a>
</g>
</g>
<!-- Node1&#45;&gt;Node2 -->
<g id="edge1_Node000001_Node000002" class="edge">
<title>Node1&#45;&gt;Node2</title>
<g id="a_edge1_Node000001_Node000002"><a xlink:title=" ">
<path fill="none" stroke="#63b8ff" d="M1467.42,-170.15C1351.1,-160.3 1012.16,-131.6 910.29,-122.98"/>
<polygon fill="#63b8ff" stroke="#63b8ff" points="1467.39,-173.66 1477.65,-171.01 1467.98,-166.68 1467.39,-173.66"/>
</a>
</g>
</g>
<!-- Node5 -->
<g id="Node000005" class="node">
<title>Node5</title>
<g id="a_Node000005"><a xlink:href="main_8cpp.html" target="_top" xlink:title=" ">
<polygon fill="white" stroke="#666666" points="1083,-19 1021,-19 1021,0 1083,0 1083,-19"/>
<text text-anchor="middle" x="1052" y="-7" font-family="Helvetica,sans-Serif" font-size="10.00">main.cpp</text>
</a>
</g>
</g>
<!-- Node1&#45;&gt;Node5 -->
<g id="edge49_Node000001_Node000005" class="edge">
<title>Node1&#45;&gt;Node5</title>
<g id="a_edge49_Node000001_Node000005"><a xlink:title=" ">
<path fill="none" stroke="#63b8ff" d="M1510.3,-154.51C1513.69,-128.02 1515.19,-80.4 1488,-55 1423.42,5.31 1179.37,-32.21 1092,-19 1089.19,-18.58 1086.29,-18.08 1083.38,-17.54"/>
<polygon fill="#63b8ff" stroke="#63b8ff" points="1506.79,-154.33 1508.76,-164.74 1513.71,-155.37 1506.79,-154.33"/>
</a>
</g>
</g>
<!-- Node28 -->
<g id="Node000028" class="node">
<title>Node28</title>
<g id="a_Node000028"><a xlink:href="Storage_8h.html" target="_top" xlink:title=" ">
<polygon fill="white" stroke="#666666" points="1649.5,-129 1586.5,-129 1586.5,-110 1649.5,-110 1649.5,-129"/>
<text text-anchor="middle" x="1618" y="-117" font-family="Helvetica,sans-Serif" font-size="10.00">Storage.h</text>
</a>
</g>
</g>
<!-- Node1&#45;&gt;Node28 -->
<g id="edge38_Node000001_Node000028" class="edge">
<title>Node1&#45;&gt;Node28</title>
<g id="a_edge38_Node000001_Node000028"><a xlink:title=" ">
<path fill="none" stroke="#63b8ff" d="M1533.95,-160.63C1554.39,-150.87 1581.95,-137.71 1599.84,-129.17"/>
<polygon fill="#63b8ff" stroke="#63b8ff" points="1532.35,-157.52 1524.83,-164.98 1535.37,-163.83 1532.35,-157.52"/>
</a>
</g>
</g>
<!-- Node3 -->
<g id="Node000003" class="node">
<title>Node3</title>
<g id="a_Node000003"><a xlink:href="AS7331Sensor_8h.html" target="_top" xlink:title=" ">
<polygon fill="white" stroke="#666666" points="173.5,-74 78.5,-74 78.5,-55 173.5,-55 173.5,-74"/>
<text text-anchor="middle" x="126" y="-62" font-family="Helvetica,sans-Serif" font-size="10.00">AS7331Sensor.h</text>
</a>
</g>
</g>
<!-- Node2&#45;&gt;Node3 -->
<g id="edge2_Node000002_Node000003" class="edge">
<title>Node2&#45;&gt;Node3</title>
<g id="a_edge2_Node000002_Node000003"><a xlink:title=" ">
<path fill="none" stroke="#63b8ff" d="M841.38,-117.15C734.74,-113.25 432.82,-100.54 183,-74 179.92,-73.67 176.74,-73.3 173.55,-72.9"/>
<polygon fill="#63b8ff" stroke="#63b8ff" points="841.55,-120.65 851.67,-117.52 841.8,-113.66 841.55,-120.65"/>
</a>
</g>
</g>
<!-- Node2&#45;&gt;Node5 -->
<g id="edge37_Node000002_Node000005" class="edge">
<title>Node2&#45;&gt;Node5</title>
<g id="a_edge37_Node000002_Node000005"><a xlink:title=" ">
<path fill="none" stroke="#63b8ff" d="M920.17,-109.47C944.68,-102.52 976.04,-91.15 1000,-74 1021.32,-58.74 1038.86,-32.61 1047.03,-19.12"/>
<polygon fill="#63b8ff" stroke="#63b8ff" points="919.2,-106.11 910.46,-112.1 921.03,-112.86 919.2,-106.11"/>
</a>
</g>
</g>
<!-- Node6 -->
<g id="Node000006" class="node">
<title>Node6</title>
<g id="a_Node000006"><a xlink:href="BME280Sensor_8h.html" target="_top" xlink:title=" ">
<polygon fill="white" stroke="#666666" points="290,-74 192,-74 192,-55 290,-55 290,-74"/>
<text text-anchor="middle" x="241" y="-62" font-family="Helvetica,sans-Serif" font-size="10.00">BME280Sensor.h</text>
</a>
</g>
</g>
<!-- Node2&#45;&gt;Node6 -->
<g id="edge5_Node000002_Node000006" class="edge">
<title>Node2&#45;&gt;Node6</title>
<g id="a_edge5_Node000002_Node000006"><a xlink:title=" ">
<path fill="none" stroke="#63b8ff" d="M841.68,-116.44C747.69,-111.3 502.65,-96.68 299,-74 296.07,-73.67 293.05,-73.31 290.02,-72.93"/>
<polygon fill="#63b8ff" stroke="#63b8ff" points="841.69,-119.94 851.87,-116.99 842.07,-112.95 841.69,-119.94"/>
</a>
</g>
</g>
<!-- Node8 -->
<g id="Node000008" class="node">
<title>Node8</title>
<g id="a_Node000008"><a xlink:href="BME680Sensor_8h.html" target="_top" xlink:title=" ">
<polygon fill="white" stroke="#666666" points="406,-74 308,-74 308,-55 406,-55 406,-74"/>
<text text-anchor="middle" x="357" y="-62" font-family="Helvetica,sans-Serif" font-size="10.00">BME680Sensor.h</text>
</a>
</g>
</g>
<!-- Node2&#45;&gt;Node8 -->
<g id="edge8_Node000002_Node000008" class="edge">
<title>Node2&#45;&gt;Node8</title>
<g id="a_edge8_Node000002_Node000008"><a xlink:title=" ">
<path fill="none" stroke="#63b8ff" d="M841.62,-115.41C761.27,-108.96 572.71,-93.07 415,-74 412.07,-73.65 409.06,-73.26 406.02,-72.86"/>
<polygon fill="#63b8ff" stroke="#63b8ff" points="841.53,-118.92 851.77,-116.22 842.08,-111.94 841.53,-118.92"/>
</a>
</g>
</g>
<!-- Node10 -->
<g id="Node000010" class="node">
<title>Node10</title>
<g id="a_Node000010"><a xlink:href="DS3231Sensor_8h.html" target="_top" xlink:title=" ">
<polygon fill="white" stroke="#666666" points="519.5,-74 424.5,-74 424.5,-55 519.5,-55 519.5,-74"/>
<text text-anchor="middle" x="472" y="-62" font-family="Helvetica,sans-Serif" font-size="10.00">DS3231Sensor.h</text>
</a>
</g>
</g>
<!-- Node2&#45;&gt;Node10 -->
<g id="edge11_Node000002_Node000010" class="edge">
<title>Node2&#45;&gt;Node10</title>
<g id="a_edge11_Node000002_Node000010"><a xlink:title=" ">
<path fill="none" stroke="#63b8ff" d="M841.43,-113.84C776.09,-106.08 641.59,-89.78 528,-74 525.27,-73.62 522.47,-73.22 519.65,-72.82"/>
<polygon fill="#63b8ff" stroke="#63b8ff" points="841.34,-117.36 851.68,-115.06 842.16,-110.4 841.34,-117.36"/>
</a>
</g>
</g>
<!-- Node12 -->
<g id="Node000012" class="node">
<title>Node12</title>
<g id="a_Node000012"><a xlink:href="ENS160Sensor_8h.html" target="_top" xlink:title=" ">
<polygon fill="white" stroke="#666666" points="632.5,-74 537.5,-74 537.5,-55 632.5,-55 632.5,-74"/>
<text text-anchor="middle" x="585" y="-62" font-family="Helvetica,sans-Serif" font-size="10.00">ENS160Sensor.h</text>
</a>
</g>
</g>
<!-- Node2&#45;&gt;Node12 -->
<g id="edge13_Node000002_Node000012" class="edge">
<title>Node2&#45;&gt;Node12</title>
<g id="a_edge13_Node000002_Node000012"><a xlink:title=" ">
<path fill="none" stroke="#63b8ff" d="M841.94,-111.51C787.99,-101.85 690.77,-84.44 632.63,-74.03"/>
<polygon fill="#63b8ff" stroke="#63b8ff" points="841.35,-114.96 851.81,-113.27 842.58,-108.07 841.35,-114.96"/>
</a>
</g>
</g>
<!-- Node14 -->
<g id="Node000014" class="node">
<title>Node14</title>
<g id="a_Node000014"><a xlink:href="ICM20948Sensor_8h.html" target="_top" xlink:title=" ">
<polygon fill="white" stroke="#666666" points="757.5,-74 650.5,-74 650.5,-55 757.5,-55 757.5,-74"/>
<text text-anchor="middle" x="704" y="-62" font-family="Helvetica,sans-Serif" font-size="10.00">ICM20948Sensor.h</text>
</a>
</g>
</g>
<!-- Node2&#45;&gt;Node14 -->
<g id="edge16_Node000002_Node000014" class="edge">
<title>Node2&#45;&gt;Node14</title>
<g id="a_edge16_Node000002_Node000014"><a xlink:title=" ">
<path fill="none" stroke="#63b8ff" d="M842.78,-107.06C809.7,-97.15 762.59,-83.04 732.66,-74.08"/>
<polygon fill="#63b8ff" stroke="#63b8ff" points="841.98,-110.47 852.56,-109.98 843.99,-103.76 841.98,-110.47"/>
</a>
</g>
</g>
<!-- Node16 -->
<g id="Node000016" class="node">
<title>Node16</title>
<g id="a_Node000016"><a xlink:href="INA260Sensor_8h.html" target="_top" xlink:title=" ">
<polygon fill="white" stroke="#666666" points="868.5,-74 775.5,-74 775.5,-55 868.5,-55 868.5,-74"/>
<text text-anchor="middle" x="822" y="-62" font-family="Helvetica,sans-Serif" font-size="10.00">INA260Sensor.h</text>
</a>
</g>
</g>
<!-- Node2&#45;&gt;Node16 -->
<g id="edge19_Node000002_Node000016" class="edge">
<title>Node2&#45;&gt;Node16</title>
<g id="a_edge19_Node000002_Node000016"><a xlink:title=" ">
<path fill="none" stroke="#63b8ff" d="M863.8,-103.04C853.33,-93.64 840.35,-81.98 831.65,-74.17"/>
<polygon fill="#63b8ff" stroke="#63b8ff" points="861.74,-105.91 871.52,-109.98 866.42,-100.7 861.74,-105.91"/>
</a>
</g>
</g>
<!-- Node18 -->
<g id="Node000018" class="node">
<title>Node18</title>
<g id="a_Node000018"><a xlink:href="LSM9DS1Sensor_8h.html" target="_top" xlink:title=" ">
<polygon fill="white" stroke="#666666" points="991,-74 887,-74 887,-55 991,-55 991,-74"/>
<text text-anchor="middle" x="939" y="-62" font-family="Helvetica,sans-Serif" font-size="10.00">LSM9DS1Sensor.h</text>
</a>
</g>
</g>
<!-- Node2&#45;&gt;Node18 -->
<g id="edge22_Node000002_Node000018" class="edge">
<title>Node2&#45;&gt;Node18</title>
<g id="a_edge22_Node000002_Node000018"><a xlink:title=" ">
<path fill="none" stroke="#63b8ff" d="M897.91,-103.04C908.2,-93.64 920.97,-81.98 929.51,-74.17"/>
<polygon fill="#63b8ff" stroke="#63b8ff" points="895.34,-100.66 890.32,-109.98 900.06,-105.82 895.34,-100.66"/>
</a>
</g>
</g>
<!-- Node20 -->
<g id="Node000020" class="node">
<title>Node20</title>
<g id="a_Node000020"><a xlink:href="MTK3339Sensor_8h.html" target="_top" xlink:title=" ">
<polygon fill="white" stroke="#666666" points="1151,-74 1047,-74 1047,-55 1151,-55 1151,-74"/>
<text text-anchor="middle" x="1099" y="-62" font-family="Helvetica,sans-Serif" font-size="10.00">MTK3339Sensor.h</text>
</a>
</g>
</g>
<!-- Node2&#45;&gt;Node20 -->
<g id="edge25_Node000002_Node000020" class="edge">
<title>Node2&#45;&gt;Node20</title>
<g id="a_edge25_Node000002_Node000020"><a xlink:title=" ">
<path fill="none" stroke="#63b8ff" d="M920.29,-108.95C961.2,-99 1024.69,-83.57 1063.95,-74.02"/>
<polygon fill="#63b8ff" stroke="#63b8ff" points="919.29,-105.59 910.4,-111.35 920.94,-112.39 919.29,-105.59"/>
</a>
</g>
</g>
<!-- Node22 -->
<g id="Node000022" class="node">
<title>Node22</title>
<g id="a_Node000022"><a xlink:href="PCF8523Sensor_8h.html" target="_top" xlink:title=" ">
<polygon fill="white" stroke="#666666" points="1270.5,-74 1169.5,-74 1169.5,-55 1270.5,-55 1270.5,-74"/>
<text text-anchor="middle" x="1220" y="-62" font-family="Helvetica,sans-Serif" font-size="10.00">PCF8523Sensor.h</text>
</a>
</g>
</g>
<!-- Node2&#45;&gt;Node22 -->
<g id="edge28_Node000002_Node000022" class="edge">
<title>Node2&#45;&gt;Node22</title>
<g id="a_edge28_Node000002_Node000022"><a xlink:title=" ">
<path fill="none" stroke="#63b8ff" d="M920.29,-112.36C981.91,-102.72 1101.26,-84.06 1169.29,-73.43"/>
<polygon fill="#63b8ff" stroke="#63b8ff" points="919.54,-108.93 910.2,-113.94 920.62,-115.85 919.54,-108.93"/>
</a>
</g>
</g>
<!-- Node24 -->
<g id="Node000024" class="node">
<title>Node24</title>
<g id="a_Node000024"><a xlink:href="SGP30Sensor_8h.html" target="_top" xlink:title=" ">
<polygon fill="white" stroke="#666666" points="1377.5,-74 1288.5,-74 1288.5,-55 1377.5,-55 1377.5,-74"/>
<text text-anchor="middle" x="1333" y="-62" font-family="Helvetica,sans-Serif" font-size="10.00">SGP30Sensor.h</text>
</a>
</g>
</g>
<!-- Node2&#45;&gt;Node24 -->
<g id="edge31_Node000002_Node000024" class="edge">
<title>Node2&#45;&gt;Node24</title>
<g id="a_edge31_Node000002_Node000024"><a xlink:title=" ">
<path fill="none" stroke="#63b8ff" d="M920.35,-114.69C991.87,-107.63 1147.92,-91.64 1279,-74 1282.01,-73.6 1285.11,-73.16 1288.23,-72.7"/>
<polygon fill="#63b8ff" stroke="#63b8ff" points="919.63,-111.24 910.02,-115.71 920.31,-118.21 919.63,-111.24"/>
</a>
</g>
</g>
<!-- Node26 -->
<g id="Node000026" class="node">
<title>Node26</title>
<g id="a_Node000026"><a xlink:href="TempSensor_8h.html" target="_top" xlink:title=" ">
<polygon fill="white" stroke="#666666" points="1479,-74 1395,-74 1395,-55 1479,-55 1479,-74"/>
<text text-anchor="middle" x="1437" y="-62" font-family="Helvetica,sans-Serif" font-size="10.00">TempSensor.h</text>
</a>
</g>
</g>
<!-- Node2&#45;&gt;Node26 -->
<g id="edge34_Node000002_Node000026" class="edge">
<title>Node2&#45;&gt;Node26</title>
<g id="a_edge34_Node000002_Node000026"><a xlink:title=" ">
<path fill="none" stroke="#63b8ff" d="M920.1,-116.09C1005.09,-110.62 1212.92,-96.02 1386,-74 1388.85,-73.64 1391.78,-73.23 1394.74,-72.8"/>
<polygon fill="#63b8ff" stroke="#63b8ff" points="919.88,-112.59 910.12,-116.72 920.32,-119.58 919.88,-112.59"/>
</a>
</g>
</g>
<!-- Node4 -->
<g id="Node000004" class="node">
<title>Node4</title>
<g id="a_Node000004"><a xlink:href="AS7331Sensor_8cpp.html" target="_top" xlink:title=" ">
<polygon fill="white" stroke="#666666" points="106,-19 0,-19 0,0 106,0 106,-19"/>
<text text-anchor="middle" x="53" y="-7" font-family="Helvetica,sans-Serif" font-size="10.00">AS7331Sensor.cpp</text>
</a>
</g>
</g>
<!-- Node3&#45;&gt;Node4 -->
<g id="edge3_Node000003_Node000004" class="edge">
<title>Node3&#45;&gt;Node4</title>
<g id="a_edge3_Node000003_Node000004"><a xlink:title=" ">
<path fill="none" stroke="#63b8ff" d="M105.86,-48.88C92.72,-39.34 76.02,-27.21 64.94,-19.17"/>
<polygon fill="#63b8ff" stroke="#63b8ff" points="104.12,-51.94 114.27,-54.98 108.24,-46.28 104.12,-51.94"/>
</a>
</g>
</g>
<!-- Node3&#45;&gt;Node5 -->
<g id="edge4_Node000003_Node000005" class="edge">
<title>Node3&#45;&gt;Node5</title>
<g id="a_edge4_Node000003_Node000005"><a xlink:title=" ">
<path fill="none" stroke="#63b8ff" d="M183.66,-55.07C551.41,-20.59 648.78,-64.12 1011,-19 1014.17,-18.6 1017.47,-18.09 1020.75,-17.52"/>
<polygon fill="#63b8ff" stroke="#63b8ff" points="183.16,-51.6 173.54,-56.03 183.83,-58.57 183.16,-51.6"/>
</a>
</g>
</g>
<!-- Node6&#45;&gt;Node5 -->
<g id="edge7_Node000006_Node000005" class="edge">
<title>Node6&#45;&gt;Node5</title>
<g id="a_edge7_Node000006_Node000005"><a xlink:title=" ">
<path fill="none" stroke="#63b8ff" d="M300.38,-54.98C616.12,-24.74 700.1,-58.85 1011,-19 1014.17,-18.59 1017.47,-18.08 1020.74,-17.5"/>
<polygon fill="#63b8ff" stroke="#63b8ff" points="299.62,-51.53 290.01,-55.98 300.3,-58.5 299.62,-51.53"/>
</a>
</g>
</g>
<!-- Node7 -->
<g id="Node000007" class="node">
<title>Node7</title>
<g id="a_Node000007"><a xlink:href="BME280Sensor_8cpp.html" target="_top" xlink:title=" ">
<polygon fill="white" stroke="#666666" points="233.5,-19 124.5,-19 124.5,0 233.5,0 233.5,-19"/>
<text text-anchor="middle" x="179" y="-7" font-family="Helvetica,sans-Serif" font-size="10.00">BME280Sensor.cpp</text>
</a>
</g>
</g>
<!-- Node6&#45;&gt;Node7 -->
<g id="edge6_Node000006_Node000007" class="edge">
<title>Node6&#45;&gt;Node7</title>
<g id="a_edge6_Node000006_Node000007"><a xlink:title=" ">
<path fill="none" stroke="#63b8ff" d="M223.25,-48.32C212.19,-38.87 198.37,-27.06 189.14,-19.17"/>
<polygon fill="#63b8ff" stroke="#63b8ff" points="221.16,-51.15 231.04,-54.98 225.71,-45.83 221.16,-51.15"/>
</a>
</g>
</g>
<!-- Node8&#45;&gt;Node5 -->
<g id="edge10_Node000008_Node000005" class="edge">
<title>Node8&#45;&gt;Node5</title>
<g id="a_edge10_Node000008_Node000005"><a xlink:title=" ">
<path fill="none" stroke="#63b8ff" d="M416.31,-54.97C680.75,-28.39 751.29,-53.58 1011,-19 1014.17,-18.58 1017.46,-18.05 1020.74,-17.46"/>
<polygon fill="#63b8ff" stroke="#63b8ff" points="415.6,-51.52 406.01,-56.02 416.31,-58.48 415.6,-51.52"/>
</a>
</g>
</g>
<!-- Node9 -->
<g id="Node000009" class="node">
<title>Node9</title>
<g id="a_Node000009"><a xlink:href="BME680Sensor_8cpp.html" target="_top" xlink:title=" ">
<polygon fill="white" stroke="#666666" points="360.5,-19 251.5,-19 251.5,0 360.5,0 360.5,-19"/>
<text text-anchor="middle" x="306" y="-7" font-family="Helvetica,sans-Serif" font-size="10.00">BME680Sensor.cpp</text>
</a>
</g>
</g>
<!-- Node8&#45;&gt;Node9 -->
<g id="edge9_Node000008_Node000009" class="edge">
<title>Node8&#45;&gt;Node9</title>
<g id="a_edge9_Node000008_Node000009"><a xlink:title=" ">
<path fill="none" stroke="#63b8ff" d="M341.62,-47.52C332.63,-38.18 321.64,-26.75 314.26,-19.09"/>
<polygon fill="#63b8ff" stroke="#63b8ff" points="339.12,-49.97 348.58,-54.75 344.17,-45.12 339.12,-49.97"/>
</a>
</g>
</g>
<!-- Node11 -->
<g id="Node000011" class="node">
<title>Node11</title>
<g id="a_Node000011"><a xlink:href="DS3231Sensor_8cpp.html" target="_top" xlink:title=" ">
<polygon fill="white" stroke="#666666" points="485.5,-19 378.5,-19 378.5,0 485.5,0 485.5,-19"/>
<text text-anchor="middle" x="432" y="-7" font-family="Helvetica,sans-Serif" font-size="10.00">DS3231Sensor.cpp</text>
</a>
</g>
</g>
<!-- Node10&#45;&gt;Node11 -->
<g id="edge12_Node000010_Node000011" class="edge">
<title>Node10&#45;&gt;Node11</title>
<g id="a_edge12_Node000010_Node000011"><a xlink:title=" ">
<path fill="none" stroke="#63b8ff" d="M459.3,-46.67C452.37,-37.5 444.09,-26.52 438.48,-19.09"/>
<polygon fill="#63b8ff" stroke="#63b8ff" points="456.58,-48.87 465.39,-54.75 462.16,-44.66 456.58,-48.87"/>
</a>
</g>
</g>
<!-- Node12&#45;&gt;Node5 -->
<g id="edge15_Node000012_Node000005" class="edge">
<title>Node12&#45;&gt;Node5</title>
<g id="a_edge15_Node000012_Node000005"><a xlink:title=" ">
<path fill="none" stroke="#63b8ff" d="M642.59,-54.87C806.67,-34.94 850.84,-43.32 1011,-19 1014.16,-18.52 1017.45,-17.95 1020.72,-17.35"/>
<polygon fill="#63b8ff" stroke="#63b8ff" points="642.13,-51.4 632.63,-56.09 642.99,-58.34 642.13,-51.4"/>
</a>
</g>
</g>
<!-- Node13 -->
<g id="Node000013" class="node">
<title>Node13</title>
<g id="a_Node000013"><a xlink:href="ENS160Sensor_8cpp.html" target="_top" xlink:title=" ">
<polygon fill="white" stroke="#666666" points="610.5,-19 503.5,-19 503.5,0 610.5,0 610.5,-19"/>
<text text-anchor="middle" x="557" y="-7" font-family="Helvetica,sans-Serif" font-size="10.00">ENS160Sensor.cpp</text>
</a>
</g>
</g>
<!-- Node12&#45;&gt;Node13 -->
<g id="edge14_Node000012_Node000013" class="edge">
<title>Node12&#45;&gt;Node13</title>
<g id="a_edge14_Node000012_Node000013"><a xlink:title=" ">
<path fill="none" stroke="#63b8ff" d="M575.66,-45.82C570.91,-36.82 565.34,-26.29 561.54,-19.09"/>
<polygon fill="#63b8ff" stroke="#63b8ff" points="572.61,-47.54 580.38,-54.75 578.8,-44.27 572.61,-47.54"/>
</a>
</g>
</g>
<!-- Node14&#45;&gt;Node5 -->
<g id="edge18_Node000014_Node000005" class="edge">
<title>Node14&#45;&gt;Node5</title>
<g id="a_edge18_Node000014_Node000005"><a xlink:title=" ">
<path fill="none" stroke="#63b8ff" d="M767.65,-54.74C843.47,-44.22 965.57,-26.99 1011,-19 1014.15,-18.45 1017.43,-17.83 1020.7,-17.19"/>
<polygon fill="#63b8ff" stroke="#63b8ff" points="767.16,-51.27 757.73,-56.11 768.12,-58.21 767.16,-51.27"/>
</a>
</g>
</g>
<!-- Node15 -->
<g id="Node000015" class="node">
<title>Node15</title>
<g id="a_Node000015"><a xlink:href="ICM20948Sensor_8cpp.html" target="_top" xlink:title=" ">
<polygon fill="white" stroke="#666666" points="747,-19 629,-19 629,0 747,0 747,-19"/>
<text text-anchor="middle" x="688" y="-7" font-family="Helvetica,sans-Serif" font-size="10.00">ICM20948Sensor.cpp</text>
</a>
</g>
</g>
<!-- Node14&#45;&gt;Node15 -->
<g id="edge17_Node000014_Node000015" class="edge">
<title>Node14&#45;&gt;Node15</title>
<g id="a_edge17_Node000014_Node000015"><a xlink:title=" ">
<path fill="none" stroke="#63b8ff" d="M698.4,-44.95C695.74,-36.15 692.7,-26.06 690.59,-19.09"/>
<polygon fill="#63b8ff" stroke="#63b8ff" points="695.12,-46.19 701.36,-54.75 701.82,-44.16 695.12,-46.19"/>
</a>
</g>
</g>
<!-- Node16&#45;&gt;Node5 -->
<g id="edge21_Node000016_Node000005" class="edge">
<title>Node16&#45;&gt;Node5</title>
<g id="a_edge21_Node000016_Node000005"><a xlink:title=" ">
<path fill="none" stroke="#63b8ff" d="M868.83,-52.71C914.13,-42.27 981.52,-26.74 1020.68,-17.72"/>
<polygon fill="#63b8ff" stroke="#63b8ff" points="867.91,-49.33 858.95,-54.98 869.48,-56.15 867.91,-49.33"/>
</a>
</g>
</g>
<!-- Node17 -->
<g id="Node000017" class="node">
<title>Node17</title>
<g id="a_Node000017"><a xlink:href="INA260Sensor_8cpp.html" target="_top" xlink:title=" ">
<polygon fill="white" stroke="#666666" points="869,-19 765,-19 765,0 869,0 869,-19"/>
<text text-anchor="middle" x="817" y="-7" font-family="Helvetica,sans-Serif" font-size="10.00">INA260Sensor.cpp</text>
</a>
</g>
</g>
<!-- Node16&#45;&gt;Node17 -->
<g id="edge20_Node000016_Node000017" class="edge">
<title>Node16&#45;&gt;Node17</title>
<g id="a_edge20_Node000016_Node000017"><a xlink:title=" ">
<path fill="none" stroke="#63b8ff" d="M820.22,-44.66C819.4,-35.93 818.46,-25.99 817.81,-19.09"/>
<polygon fill="#63b8ff" stroke="#63b8ff" points="816.75,-45.12 821.17,-54.75 823.72,-44.46 816.75,-45.12"/>
</a>
</g>
</g>
<!-- Node18&#45;&gt;Node5 -->
<g id="edge24_Node000018_Node000005" class="edge">
<title>Node18&#45;&gt;Node5</title>
<g id="a_edge24_Node000018_Node000005"><a xlink:title=" ">
<path fill="none" stroke="#63b8ff" d="M966.43,-50.63C987.25,-40.87 1015.3,-27.71 1033.51,-19.17"/>
<polygon fill="#63b8ff" stroke="#63b8ff" points="964.72,-47.57 957.16,-54.98 967.7,-53.91 964.72,-47.57"/>
</a>
</g>
</g>
<!-- Node19 -->
<g id="Node000019" class="node">
<title>Node19</title>
<g id="a_Node000019"><a xlink:href="LSM9DS1Sensor_8cpp.html" target="_top" xlink:title=" ">
<polygon fill="white" stroke="#666666" points="1002.5,-19 887.5,-19 887.5,0 1002.5,0 1002.5,-19"/>
<text text-anchor="middle" x="945" y="-7" font-family="Helvetica,sans-Serif" font-size="10.00">LSM9DS1Sensor.cpp</text>
</a>
</g>
</g>
<!-- Node18&#45;&gt;Node19 -->
<g id="edge23_Node000018_Node000019" class="edge">
<title>Node18&#45;&gt;Node19</title>
<g id="a_edge23_Node000018_Node000019"><a xlink:title=" ">
<path fill="none" stroke="#63b8ff" d="M941.13,-44.66C942.12,-35.93 943.25,-25.99 944.03,-19.09"/>
<polygon fill="#63b8ff" stroke="#63b8ff" points="937.64,-44.42 939.99,-54.75 944.59,-45.21 937.64,-44.42"/>
</a>
</g>
</g>
<!-- Node20&#45;&gt;Node5 -->
<g id="edge27_Node000020_Node000005" class="edge">
<title>Node20&#45;&gt;Node5</title>
<g id="a_edge27_Node000020_Node000005"><a xlink:title=" ">
<path fill="none" stroke="#63b8ff" d="M1084.58,-47.24C1076.34,-37.95 1066.35,-26.68 1059.62,-19.09"/>
<polygon fill="#63b8ff" stroke="#63b8ff" points="1081.99,-49.59 1091.24,-54.75 1087.22,-44.94 1081.99,-49.59"/>
</a>
</g>
</g>
<!-- Node21 -->
<g id="Node000021" class="node">
<title>Node21</title>
<g id="a_Node000021"><a xlink:href="MTK3339Sensor_8cpp.html" target="_top" xlink:title=" ">
<polygon fill="white" stroke="#666666" points="1216.5,-19 1101.5,-19 1101.5,0 1216.5,0 1216.5,-19"/>
<text text-anchor="middle" x="1159" y="-7" font-family="Helvetica,sans-Serif" font-size="10.00">MTK3339Sensor.cpp</text>
</a>
</g>
</g>
<!-- Node20&#45;&gt;Node21 -->
<g id="edge26_Node000020_Node000021" class="edge">
<title>Node20&#45;&gt;Node21</title>
<g id="a_edge26_Node000020_Node000021"><a xlink:title=" ">
<path fill="none" stroke="#63b8ff" d="M1116.18,-48.32C1126.88,-38.87 1140.26,-27.06 1149.18,-19.17"/>
<polygon fill="#63b8ff" stroke="#63b8ff" points="1113.82,-45.74 1108.64,-54.98 1118.45,-50.99 1113.82,-45.74"/>
</a>
</g>
</g>
<!-- Node22&#45;&gt;Node5 -->
<g id="edge30_Node000022_Node000005" class="edge">
<title>Node22&#45;&gt;Node5</title>
<g id="a_edge30_Node000022_Node000005"><a xlink:title=" ">
<path fill="none" stroke="#63b8ff" d="M1183.32,-51.93C1151.94,-42.03 1107.49,-28.01 1079.2,-19.08"/>
<polygon fill="#63b8ff" stroke="#63b8ff" points="1182.42,-55.31 1193.01,-54.98 1184.52,-48.64 1182.42,-55.31"/>
</a>
</g>
</g>
<!-- Node23 -->
<g id="Node000023" class="node">
<title>Node23</title>
<g id="a_Node000023"><a xlink:href="PCF8523Sensor_8cpp.html" target="_top" xlink:title=" ">
<polygon fill="white" stroke="#666666" points="1347,-19 1235,-19 1235,0 1347,0 1347,-19"/>
<text text-anchor="middle" x="1291" y="-7" font-family="Helvetica,sans-Serif" font-size="10.00">PCF8523Sensor.cpp</text>
</a>
</g>
</g>
<!-- Node22&#45;&gt;Node23 -->
<g id="edge29_Node000022_Node000023" class="edge">
<title>Node22&#45;&gt;Node23</title>
<g id="a_edge29_Node000022_Node000023"><a xlink:title=" ">
<path fill="none" stroke="#63b8ff" d="M1239.59,-48.88C1252.37,-39.34 1268.61,-27.21 1279.39,-19.17"/>
<polygon fill="#63b8ff" stroke="#63b8ff" points="1237.33,-46.2 1231.41,-54.98 1241.51,-51.81 1237.33,-46.2"/>
</a>
</g>
</g>
<!-- Node24&#45;&gt;Node5 -->
<g id="edge33_Node000024_Node000005" class="edge">
<title>Node24&#45;&gt;Node5</title>
<g id="a_edge33_Node000024_Node000005"><a xlink:title=" ">
<path fill="none" stroke="#63b8ff" d="M1278.02,-53.78C1229.12,-45.03 1155.7,-31.65 1092,-19 1089.21,-18.45 1086.32,-17.86 1083.43,-17.26"/>
<polygon fill="#63b8ff" stroke="#63b8ff" points="1277.61,-57.26 1288.07,-55.57 1278.84,-50.37 1277.61,-57.26"/>
</a>
</g>
</g>
<!-- Node25 -->
<g id="Node000025" class="node">
<title>Node25</title>
<g id="a_Node000025"><a xlink:href="SGP30Sensor_8cpp.html" target="_top" xlink:title=" ">
<polygon fill="white" stroke="#666666" points="1466.5,-19 1365.5,-19 1365.5,0 1466.5,0 1466.5,-19"/>
<text text-anchor="middle" x="1416" y="-7" font-family="Helvetica,sans-Serif" font-size="10.00">SGP30Sensor.cpp</text>
</a>
</g>
</g>
<!-- Node24&#45;&gt;Node25 -->
<g id="edge32_Node000024_Node000025" class="edge">
<title>Node24&#45;&gt;Node25</title>
<g id="a_edge32_Node000024_Node000025"><a xlink:title=" ">
<path fill="none" stroke="#63b8ff" d="M1355.04,-49.42C1370.11,-39.81 1389.59,-27.37 1402.42,-19.17"/>
<polygon fill="#63b8ff" stroke="#63b8ff" points="1352.88,-46.65 1346.34,-54.98 1356.65,-52.55 1352.88,-46.65"/>
</a>
</g>
</g>
<!-- Node26&#45;&gt;Node5 -->
<g id="edge36_Node000026_Node000005" class="edge">
<title>Node26&#45;&gt;Node5</title>
<g id="a_edge36_Node000026_Node000005"><a xlink:title=" ">
<path fill="none" stroke="#63b8ff" d="M1384.98,-54.92C1254,-36.38 1218.67,-40.17 1092,-19 1089.2,-18.53 1086.3,-18 1083.39,-17.44"/>
<polygon fill="#63b8ff" stroke="#63b8ff" points="1384.6,-58.4 1395,-56.35 1385.59,-51.47 1384.6,-58.4"/>
</a>
</g>
</g>
<!-- Node27 -->
<g id="Node000027" class="node">
<title>Node27</title>
<g id="a_Node000027"><a xlink:href="TempSensor_8cpp.html" target="_top" xlink:title=" ">
<polygon fill="white" stroke="#666666" points="1579.5,-19 1484.5,-19 1484.5,0 1579.5,0 1579.5,-19"/>
<text text-anchor="middle" x="1532" y="-7" font-family="Helvetica,sans-Serif" font-size="10.00">TempSensor.cpp</text>
</a>
</g>
</g>
<!-- Node26&#45;&gt;Node27 -->
<g id="edge35_Node000026_Node000027" class="edge">
<title>Node26&#45;&gt;Node27</title>
<g id="a_edge35_Node000026_Node000027"><a xlink:title=" ">
<path fill="none" stroke="#63b8ff" d="M1461.26,-49.97C1478.63,-40.28 1501.49,-27.52 1516.46,-19.17"/>
<polygon fill="#63b8ff" stroke="#63b8ff" points="1459.29,-47.06 1452.26,-54.98 1462.7,-53.17 1459.29,-47.06"/>
</a>
</g>
</g>
<!-- Node28&#45;&gt;Node5 -->
<g id="edge48_Node000028_Node000005" class="edge">
<title>Node28&#45;&gt;Node5</title>
<g id="a_edge48_Node000028_Node000005"><a xlink:title=" ">
<path fill="none" stroke="#63b8ff" d="M1600.4,-103.03C1581.99,-87.86 1551.58,-65.53 1521,-55 1340.09,7.3 1281.29,-46.94 1092,-19 1089.19,-18.59 1086.28,-18.09 1083.38,-17.56"/>
<polygon fill="#63b8ff" stroke="#63b8ff" points="1598.52,-106.03 1608.41,-109.82 1603.04,-100.69 1598.52,-106.03"/>
</a>
</g>
</g>
<!-- Node29 -->
<g id="Node000029" class="node">
<title>Node29</title>
<g id="a_Node000029"><a xlink:href="FlashStorage_8h.html" target="_top" xlink:title=" ">
<polygon fill="white" stroke="#666666" points="1662.5,-74 1573.5,-74 1573.5,-55 1662.5,-55 1662.5,-74"/>
<text text-anchor="middle" x="1618" y="-62" font-family="Helvetica,sans-Serif" font-size="10.00">FlashStorage.h</text>
</a>
</g>
</g>
<!-- Node28&#45;&gt;Node29 -->
<g id="edge39_Node000028_Node000029" class="edge">
<title>Node28&#45;&gt;Node29</title>
<g id="a_edge39_Node000028_Node000029"><a xlink:title=" ">
<path fill="none" stroke="#63b8ff" d="M1618,-99.66C1618,-90.93 1618,-80.99 1618,-74.09"/>
<polygon fill="#63b8ff" stroke="#63b8ff" points="1614.5,-99.75 1618,-109.75 1621.5,-99.75 1614.5,-99.75"/>
</a>
</g>
</g>
<!-- Node31 -->
<g id="Node000031" class="node">
<title>Node31</title>
<g id="a_Node000031"><a xlink:href="RadioStorage_8h.html" target="_top" xlink:title=" ">
<polygon fill="white" stroke="#666666" points="1771.5,-74 1680.5,-74 1680.5,-55 1771.5,-55 1771.5,-74"/>
<text text-anchor="middle" x="1726" y="-62" font-family="Helvetica,sans-Serif" font-size="10.00">RadioStorage.h</text>
</a>
</g>
</g>
<!-- Node28&#45;&gt;Node31 -->
<g id="edge42_Node000028_Node000031" class="edge">
<title>Node28&#45;&gt;Node31</title>
<g id="a_edge42_Node000028_Node000031"><a xlink:title=" ">
<path fill="none" stroke="#63b8ff" d="M1644.49,-105.5C1664.36,-95.75 1691,-82.68 1708.33,-74.17"/>
<polygon fill="#63b8ff" stroke="#63b8ff" points="1642.79,-102.44 1635.35,-109.98 1645.87,-108.72 1642.79,-102.44"/>
</a>
</g>
</g>
<!-- Node33 -->
<g id="Node000033" class="node">
<title>Node33</title>
<g id="a_Node000033"><a xlink:href="SDStorage_8h.html" target="_top" xlink:title=" ">
<polygon fill="white" stroke="#666666" points="1866.5,-74 1789.5,-74 1789.5,-55 1866.5,-55 1866.5,-74"/>
<text text-anchor="middle" x="1828" y="-62" font-family="Helvetica,sans-Serif" font-size="10.00">SDStorage.h</text>
</a>
</g>
</g>
<!-- Node28&#45;&gt;Node33 -->
<g id="edge45_Node000028_Node000033" class="edge">
<title>Node28&#45;&gt;Node33</title>
<g id="a_edge45_Node000028_Node000033"><a xlink:title=" ">
<path fill="none" stroke="#63b8ff" d="M1659.72,-107.97C1699.11,-98.03 1757.45,-83.31 1794.06,-74.07"/>
<polygon fill="#63b8ff" stroke="#63b8ff" points="1658.73,-104.61 1649.89,-110.45 1660.45,-111.4 1658.73,-104.61"/>
</a>
</g>
</g>
<!-- Node29&#45;&gt;Node5 -->
<g id="edge41_Node000029_Node000005" class="edge">
<title>Node29&#45;&gt;Node5</title>
<g id="a_edge41_Node000029_Node000005"><a xlink:title=" ">
<path fill="none" stroke="#63b8ff" d="M1562.95,-55.45C1561.62,-55.29 1560.3,-55.14 1559,-55 1352.09,-32.15 1298.04,-48.7 1092,-19 1089.19,-18.59 1086.28,-18.11 1083.37,-17.58"/>
<polygon fill="#63b8ff" stroke="#63b8ff" points="1562.91,-58.97 1573.26,-56.74 1563.77,-52.03 1562.91,-58.97"/>
</a>
</g>
</g>
<!-- Node30 -->
<g id="Node000030" class="node">
<title>Node30</title>
<g id="a_Node000030"><a xlink:href="FlashStorage_8cpp.html" target="_top" xlink:title=" ">
<polygon fill="white" stroke="#666666" points="1698.5,-19 1597.5,-19 1597.5,0 1698.5,0 1698.5,-19"/>
<text text-anchor="middle" x="1648" y="-7" font-family="Helvetica,sans-Serif" font-size="10.00">FlashStorage.cpp</text>
</a>
</g>
</g>
<!-- Node29&#45;&gt;Node30 -->
<g id="edge40_Node000029_Node000030" class="edge">
<title>Node29&#45;&gt;Node30</title>
<g id="a_edge40_Node000029_Node000030"><a xlink:title=" ">
<path fill="none" stroke="#63b8ff" d="M1628.01,-45.82C1633.1,-36.82 1639.06,-26.29 1643.14,-19.09"/>
<polygon fill="#63b8ff" stroke="#63b8ff" points="1624.83,-44.32 1622.95,-54.75 1630.93,-47.77 1624.83,-44.32"/>
</a>
</g>
</g>
<!-- Node31&#45;&gt;Node5 -->
<g id="edge44_Node000031_Node000005" class="edge">
<title>Node31&#45;&gt;Node5</title>
<g id="a_edge44_Node000031_Node000005"><a xlink:title=" ">
<path fill="none" stroke="#63b8ff" d="M1670.4,-55.06C1412.93,-27.95 1344.22,-53.45 1092,-19 1089.19,-18.62 1086.28,-18.14 1083.37,-17.62"/>
<polygon fill="#63b8ff" stroke="#63b8ff" points="1670.11,-58.55 1680.42,-56.13 1670.85,-51.59 1670.11,-58.55"/>
</a>
</g>
</g>
<!-- Node32 -->
<g id="Node000032" class="node">
<title>Node32</title>
<g id="a_Node000032"><a xlink:href="RadioStorage_8cpp.html" target="_top" xlink:title=" ">
<polygon fill="white" stroke="#666666" points="1819,-19 1717,-19 1717,0 1819,0 1819,-19"/>
<text text-anchor="middle" x="1768" y="-7" font-family="Helvetica,sans-Serif" font-size="10.00">RadioStorage.cpp</text>
</a>
</g>
</g>
<!-- Node31&#45;&gt;Node32 -->
<g id="edge43_Node000031_Node000032" class="edge">
<title>Node31&#45;&gt;Node32</title>
<g id="a_edge43_Node000031_Node000032"><a xlink:title=" ">
<path fill="none" stroke="#63b8ff" d="M1739.33,-46.67C1746.61,-37.5 1755.3,-26.52 1761.19,-19.09"/>
<polygon fill="#63b8ff" stroke="#63b8ff" points="1736.4,-44.74 1732.94,-54.75 1741.89,-49.08 1736.4,-44.74"/>
</a>
</g>
</g>
<!-- Node33&#45;&gt;Node5 -->
<g id="edge47_Node000033_Node000005" class="edge">
<title>Node33&#45;&gt;Node5</title>
<g id="a_edge47_Node000033_Node000005"><a xlink:title=" ">
<path fill="none" stroke="#63b8ff" d="M1779.26,-55.09C1474.03,-21.06 1392.32,-58.52 1092,-19 1089.18,-18.63 1086.27,-18.17 1083.36,-17.65"/>
<polygon fill="#63b8ff" stroke="#63b8ff" points="1778.96,-58.58 1789.29,-56.22 1779.74,-51.62 1778.96,-58.58"/>
</a>
</g>
</g>
<!-- Node34 -->
<g id="Node000034" class="node">
<title>Node34</title>
<g id="a_Node000034"><a xlink:href="SDStorage_8cpp.html" target="_top" xlink:title=" ">
<polygon fill="white" stroke="#666666" points="1925,-19 1837,-19 1837,0 1925,0 1925,-19"/>
<text text-anchor="middle" x="1881" y="-7" font-family="Helvetica,sans-Serif" font-size="10.00">SDStorage.cpp</text>
</a>
</g>
</g>
<!-- Node33&#45;&gt;Node34 -->
<g id="edge46_Node000033_Node000034" class="edge">
<title>Node33&#45;&gt;Node34</title>
<g id="a_edge46_Node000033_Node000034"><a xlink:title=" ">
<path fill="none" stroke="#63b8ff" d="M1843.98,-47.52C1853.32,-38.18 1864.75,-26.75 1872.41,-19.09"/>
<polygon fill="#63b8ff" stroke="#63b8ff" points="1841.35,-45.2 1836.75,-54.75 1846.3,-50.15 1841.35,-45.2"/>
</a>
</g>
</g>
</g>
</svg>
