<?xml version="1.0" encoding="UTF-8" standalone="no"?>
<!DOCTYPE svg PUBLIC "-//W3C//DTD SVG 1.1//EN"
 "http://www.w3.org/Graphics/SVG/1.1/DTD/svg11.dtd">
<!-- Generated by graphviz version 2.43.0 (0)
 -->
<!-- Title: Logger.h Pages: 1 -->
<!--zoomable 247 -->

<svg id="main" version="1.1" xmlns="http://www.w3.org/2000/svg" xmlns:xlink="http://www.w3.org/1999/xlink" xml:space="preserve" onload="init(evt)">
<style type="text/css"><![CDATA[
.node, .edge {opacity: 0.7;}
.node.selected, .edge.selected {opacity: 1;}
.edge:hover path { stroke: red; }
.edge:hover polygon { stroke: red; fill: red; }
]]></style>

<defs>
  <circle id="rim" cx="0" cy="0" r="7"/>
  <circle id="rim2" cx="0" cy="0" r="3.5"/>
  <g id="zoomPlus">
    <use xlink:href="#rim" fill="#404040"><set attributeName="fill" to="#808080" begin="zoomplus.mouseover" end="zoomplus.mouseout"/></use>
    <path d="M-4,0h8M0,-4v8" fill="none" stroke="white" stroke-width="1.5" pointer-events="none"/>
  </g>
  <g id="zoomMin">
    <use xlink:href="#rim" fill="#404040"><set attributeName="fill" to="#808080" begin="zoomminus.mouseover" end="zoomminus.mouseout"/></use>
    <path d="M-4,0h8" fill="none" stroke="white" stroke-width="1.5" pointer-events="none"/>
  </g>
  <g id="arrowUp" transform="translate(30 24)">
    <use xlink:href="#rim"/>
    <path pointer-events="none" fill="none" stroke="white" stroke-width="1.5" d="M0,-3.0v7 M-2.5,-0.5L0,-3.0L2.5,-0.5"/>
  </g>
  <g id="arrowRight" transform="rotate(90) translate(36 -43)">
    <use xlink:href="#rim"/>
    <path pointer-events="none" fill="none" stroke="white" stroke-width="1.5" d="M0,-3.0v7 M-2.5,-0.5L0,-3.0L2.5,-0.5"/>
  </g>
  <g id="arrowDown" transform="rotate(180) translate(-30 -48)">
    <use xlink:href="#rim"/>
    <path pointer-events="none" fill="none" stroke="white" stroke-width="1.5" d="M0,-3.0v7 M-2.5,-0.5L0,-3.0L2.5,-0.5"/>
  </g>
  <g id="arrowLeft" transform="rotate(270) translate(-36 17)">
    <use xlink:href="#rim"/>
    <path pointer-events="none" fill="none" stroke="white" stroke-width="1.5" d="M0,-3.0v7 M-2.5,-0.5L0,-3.0L2.5,-0.5"/>
  </g>
  <g id="resetDef">
    <use xlink:href="#rim2" fill="#404040"><set attributeName="fill" to="#808080" begin="reset.mouseover" end="reset.mouseout"/></use>
  </g>
</defs>
<script type="application/ecmascript">
var viewWidth = 2019;
var viewHeight = 247;
var sectionId = 'dynsection-1';
</script>
<script type="application/ecmascript" xlink:href="svg.min.js"/>
<svg id="graph" class="graph">
<g id="viewport">
<title>Logger.h</title>
<!-- Node1 -->
<g id="Node000001" class="node">
<title>Node1</title>
<g id="a_Node000001"><a xlink:title=" ">
<polygon fill="#999999" stroke="#666666" points="1463.5,-239 1405.5,-239 1405.5,-220 1463.5,-220 1463.5,-239"/>
<text text-anchor="middle" x="1434.5" y="-227" font-family="Helvetica,sans-Serif" font-size="10.00">Logger.h</text>
</a>
</g>
</g>
<!-- Node2 -->
<g id="Node000002" class="node">
<title>Node2</title>
<g id="a_Node000002"><a xlink:href="Device_8h.html" target="_top" xlink:title=" ">
<polygon fill="white" stroke="#666666" points="1406,-184 1347,-184 1347,-165 1406,-165 1406,-184"/>
<text text-anchor="middle" x="1376.5" y="-172" font-family="Helvetica,sans-Serif" font-size="10.00">Device.h</text>
</a>
</g>
</g>
<!-- Node1&#45;&gt;Node2 -->
<g id="edge1_Node000001_Node000002" class="edge">
<title>Node1&#45;&gt;Node2</title>
<g id="a_edge1_Node000001_Node000002"><a xlink:title=" ">
<path fill="none" stroke="#63b8ff" d="M1417.59,-213.04C1407.3,-203.64 1394.53,-191.98 1385.99,-184.17"/>
<polygon fill="#63b8ff" stroke="#63b8ff" points="1415.44,-215.82 1425.18,-219.98 1420.16,-210.66 1415.44,-215.82"/>
</a>
</g>
</g>
<!-- Node3 -->
<g id="Node000003" class="node">
<title>Node3</title>
<g id="a_Node000003"><a xlink:href="Sensor_8h.html" target="_top" xlink:title=" ">
<polygon fill="white" stroke="#666666" points="989.5,-129 931.5,-129 931.5,-110 989.5,-110 989.5,-129"/>
<text text-anchor="middle" x="960.5" y="-117" font-family="Helvetica,sans-Serif" font-size="10.00">Sensor.h</text>
</a>
</g>
</g>
<!-- Node1&#45;&gt;Node3 -->
<g id="edge50_Node000001_Node000003" class="edge">
<title>Node1&#45;&gt;Node3</title>
<g id="a_edge50_Node000001_Node000003"><a xlink:title=" ">
<path fill="none" stroke="#63b8ff" d="M1395.38,-219.59C1302.67,-198.46 1071.26,-145.74 989.6,-127.13"/>
<polygon fill="#63b8ff" stroke="#63b8ff" points="1394.68,-223.02 1405.21,-221.83 1396.23,-216.19 1394.68,-223.02"/>
</a>
</g>
</g>
<!-- Node6 -->
<g id="Node000006" class="node">
<title>Node6</title>
<g id="a_Node000006"><a xlink:href="main_8cpp.html" target="_top" xlink:title="Main functions for Core 0, responsible for reading data from sensor peripherals.">
<polygon fill="white" stroke="#666666" points="1073.5,-19 1011.5,-19 1011.5,0 1073.5,0 1073.5,-19"/>
<text text-anchor="middle" x="1042.5" y="-7" font-family="Helvetica,sans-Serif" font-size="10.00">main.cpp</text>
</a>
</g>
</g>
<!-- Node1&#45;&gt;Node6 -->
<g id="edge52_Node000001_Node000006" class="edge">
<title>Node1&#45;&gt;Node6</title>
<g id="a_edge52_Node000001_Node000006"><a xlink:title=" ">
<path fill="none" stroke="#63b8ff" d="M1439.12,-209.71C1446.66,-174.03 1456.9,-96.35 1415.5,-55 1362.83,-2.41 1156,-30.75 1082.5,-19 1079.7,-18.55 1076.79,-18.04 1073.89,-17.48"/>
<polygon fill="#63b8ff" stroke="#63b8ff" points="1435.65,-209.19 1436.84,-219.72 1442.47,-210.75 1435.65,-209.19"/>
</a>
</g>
</g>
<!-- Node29 -->
<g id="Node000029" class="node">
<title>Node29</title>
<g id="a_Node000029"><a xlink:href="Storage_8h.html" target="_top" xlink:title=" ">
<polygon fill="white" stroke="#666666" points="1720,-129 1657,-129 1657,-110 1720,-110 1720,-129"/>
<text text-anchor="middle" x="1688.5" y="-117" font-family="Helvetica,sans-Serif" font-size="10.00">Storage.h</text>
</a>
</g>
</g>
<!-- Node1&#45;&gt;Node29 -->
<g id="edge51_Node000001_Node000029" class="edge">
<title>Node1&#45;&gt;Node29</title>
<g id="a_edge51_Node000001_Node000029"><a xlink:title=" ">
<path fill="none" stroke="#63b8ff" d="M1464.26,-215.84C1516.62,-193.58 1623.85,-147.99 1668.4,-129.05"/>
<polygon fill="#63b8ff" stroke="#63b8ff" points="1462.69,-212.71 1454.86,-219.84 1465.43,-219.15 1462.69,-212.71"/>
</a>
</g>
</g>
<!-- Node32 -->
<g id="Node000032" class="node">
<title>Node32</title>
<g id="a_Node000032"><a xlink:href="main1_8cpp.html" target="_top" xlink:title="Main functions for Core 1, responsible for sending data to storage peripherals.">
<polygon fill="white" stroke="#666666" points="1904.5,-19 1836.5,-19 1836.5,0 1904.5,0 1904.5,-19"/>
<text text-anchor="middle" x="1870.5" y="-7" font-family="Helvetica,sans-Serif" font-size="10.00">main1.cpp</text>
</a>
</g>
</g>
<!-- Node1&#45;&gt;Node32 -->
<g id="edge53_Node000001_Node000032" class="edge">
<title>Node1&#45;&gt;Node32</title>
<g id="a_edge53_Node000001_Node000032"><a xlink:title=" ">
<path fill="none" stroke="#63b8ff" d="M1473.63,-222.37C1580.94,-204.66 1875.63,-149.87 1931.5,-74 1947.36,-52.46 1913.03,-30.69 1889.72,-19.08"/>
<polygon fill="#63b8ff" stroke="#63b8ff" points="1472.85,-218.95 1463.55,-224.01 1473.98,-225.85 1472.85,-218.95"/>
</a>
</g>
</g>
<!-- Node2&#45;&gt;Node3 -->
<g id="edge2_Node000002_Node000003" class="edge">
<title>Node2&#45;&gt;Node3</title>
<g id="a_edge2_Node000002_Node000003"><a xlink:title=" ">
<path fill="none" stroke="#63b8ff" d="M1336.86,-168.45C1253.7,-157.85 1062.72,-133.52 989.66,-124.21"/>
<polygon fill="#63b8ff" stroke="#63b8ff" points="1336.55,-171.94 1346.92,-169.73 1337.44,-165 1336.55,-171.94"/>
</a>
</g>
</g>
<!-- Node2&#45;&gt;Node29 -->
<g id="edge38_Node000002_Node000029" class="edge">
<title>Node2&#45;&gt;Node29</title>
<g id="a_edge38_Node000002_Node000029"><a xlink:title=" ">
<path fill="none" stroke="#63b8ff" d="M1416.03,-166.79C1478.64,-156.15 1599.39,-135.64 1656.75,-125.89"/>
<polygon fill="#63b8ff" stroke="#63b8ff" points="1415.41,-163.34 1406.13,-168.47 1416.58,-170.24 1415.41,-163.34"/>
</a>
</g>
</g>
<!-- Node4 -->
<g id="Node000004" class="node">
<title>Node4</title>
<g id="a_Node000004"><a xlink:href="AS7331Sensor_8h.html" target="_top" xlink:title=" ">
<polygon fill="white" stroke="#666666" points="543,-74 448,-74 448,-55 543,-55 543,-74"/>
<text text-anchor="middle" x="495.5" y="-62" font-family="Helvetica,sans-Serif" font-size="10.00">AS7331Sensor.h</text>
</a>
</g>
</g>
<!-- Node3&#45;&gt;Node4 -->
<g id="edge3_Node000003_Node000004" class="edge">
<title>Node3&#45;&gt;Node4</title>
<g id="a_edge3_Node000003_Node000004"><a xlink:title=" ">
<path fill="none" stroke="#63b8ff" d="M921.17,-114.73C848.33,-107.63 687.55,-91.43 552.5,-74 549.42,-73.6 546.26,-73.18 543.07,-72.74"/>
<polygon fill="#63b8ff" stroke="#63b8ff" points="920.97,-118.23 931.26,-115.71 921.65,-111.26 920.97,-118.23"/>
</a>
</g>
</g>
<!-- Node3&#45;&gt;Node6 -->
<g id="edge37_Node000003_Node000006" class="edge">
<title>Node3&#45;&gt;Node6</title>
<g id="a_edge37_Node000003_Node000006"><a xlink:title=" ">
<path fill="none" stroke="#63b8ff" d="M987.15,-104.68C999.46,-97.1 1013.34,-86.66 1022.5,-74 1034.84,-56.96 1039.74,-32.05 1041.55,-19.08"/>
<polygon fill="#63b8ff" stroke="#63b8ff" points="985.04,-101.85 978.15,-109.9 988.56,-107.91 985.04,-101.85"/>
</a>
</g>
</g>
<!-- Node7 -->
<g id="Node000007" class="node">
<title>Node7</title>
<g id="a_Node000007"><a xlink:href="BME280Sensor_8h.html" target="_top" xlink:title=" ">
<polygon fill="white" stroke="#666666" points="659.5,-74 561.5,-74 561.5,-55 659.5,-55 659.5,-74"/>
<text text-anchor="middle" x="610.5" y="-62" font-family="Helvetica,sans-Serif" font-size="10.00">BME280Sensor.h</text>
</a>
</g>
</g>
<!-- Node3&#45;&gt;Node7 -->
<g id="edge6_Node000003_Node000007" class="edge">
<title>Node3&#45;&gt;Node7</title>
<g id="a_edge6_Node000003_Node000007"><a xlink:title=" ">
<path fill="none" stroke="#63b8ff" d="M921.13,-112.54C856.86,-102.81 729.54,-83.53 659.51,-72.92"/>
<polygon fill="#63b8ff" stroke="#63b8ff" points="920.85,-116.04 931.26,-114.07 921.9,-109.11 920.85,-116.04"/>
</a>
</g>
</g>
<!-- Node9 -->
<g id="Node000009" class="node">
<title>Node9</title>
<g id="a_Node000009"><a xlink:href="BME680Sensor_8h.html" target="_top" xlink:title=" ">
<polygon fill="white" stroke="#666666" points="775.5,-74 677.5,-74 677.5,-55 775.5,-55 775.5,-74"/>
<text text-anchor="middle" x="726.5" y="-62" font-family="Helvetica,sans-Serif" font-size="10.00">BME680Sensor.h</text>
</a>
</g>
</g>
<!-- Node3&#45;&gt;Node9 -->
<g id="edge9_Node000003_Node000009" class="edge">
<title>Node3&#45;&gt;Node9</title>
<g id="a_edge9_Node000003_Node000009"><a xlink:title=" ">
<path fill="none" stroke="#63b8ff" d="M921.36,-109.63C877.62,-99.73 807.3,-83.8 764.17,-74.03"/>
<polygon fill="#63b8ff" stroke="#63b8ff" points="920.81,-113.1 931.34,-111.89 922.36,-106.27 920.81,-113.1"/>
</a>
</g>
</g>
<!-- Node11 -->
<g id="Node000011" class="node">
<title>Node11</title>
<g id="a_Node000011"><a xlink:href="DS3231Sensor_8h.html" target="_top" xlink:title=" ">
<polygon fill="white" stroke="#666666" points="153,-74 58,-74 58,-55 153,-55 153,-74"/>
<text text-anchor="middle" x="105.5" y="-62" font-family="Helvetica,sans-Serif" font-size="10.00">DS3231Sensor.h</text>
</a>
</g>
</g>
<!-- Node3&#45;&gt;Node11 -->
<g id="edge12_Node000003_Node000011" class="edge">
<title>Node3&#45;&gt;Node11</title>
<g id="a_edge12_Node000003_Node000011"><a xlink:title=" ">
<path fill="none" stroke="#63b8ff" d="M921.12,-117.41C805.33,-113.96 455.99,-101.82 167.5,-74 162.85,-73.55 158.01,-73.01 153.18,-72.43"/>
<polygon fill="#63b8ff" stroke="#63b8ff" points="921.17,-120.91 931.27,-117.71 921.38,-113.91 921.17,-120.91"/>
</a>
</g>
</g>
<!-- Node13 -->
<g id="Node000013" class="node">
<title>Node13</title>
<g id="a_Node000013"><a xlink:href="ENS160Sensor_8h.html" target="_top" xlink:title=" ">
<polygon fill="white" stroke="#666666" points="889,-74 794,-74 794,-55 889,-55 889,-74"/>
<text text-anchor="middle" x="841.5" y="-62" font-family="Helvetica,sans-Serif" font-size="10.00">ENS160Sensor.h</text>
</a>
</g>
</g>
<!-- Node3&#45;&gt;Node13 -->
<g id="edge14_Node000003_Node000013" class="edge">
<title>Node3&#45;&gt;Node13</title>
<g id="a_edge14_Node000003_Node000013"><a xlink:title=" ">
<path fill="none" stroke="#63b8ff" d="M932.2,-105.9C910.22,-96.11 880.32,-82.79 860.97,-74.17"/>
<polygon fill="#63b8ff" stroke="#63b8ff" points="930.82,-109.11 941.38,-109.98 933.67,-102.72 930.82,-109.11"/>
</a>
</g>
</g>
<!-- Node15 -->
<g id="Node000015" class="node">
<title>Node15</title>
<g id="a_Node000015"><a xlink:href="ICM20948Sensor_8h.html" target="_top" xlink:title=" ">
<polygon fill="white" stroke="#666666" points="1014,-74 907,-74 907,-55 1014,-55 1014,-74"/>
<text text-anchor="middle" x="960.5" y="-62" font-family="Helvetica,sans-Serif" font-size="10.00">ICM20948Sensor.h</text>
</a>
</g>
</g>
<!-- Node3&#45;&gt;Node15 -->
<g id="edge17_Node000003_Node000015" class="edge">
<title>Node3&#45;&gt;Node15</title>
<g id="a_edge17_Node000003_Node000015"><a xlink:title=" ">
<path fill="none" stroke="#63b8ff" d="M960.5,-99.66C960.5,-90.93 960.5,-80.99 960.5,-74.09"/>
<polygon fill="#63b8ff" stroke="#63b8ff" points="957,-99.75 960.5,-109.75 964,-99.75 957,-99.75"/>
</a>
</g>
</g>
<!-- Node17 -->
<g id="Node000017" class="node">
<title>Node17</title>
<g id="a_Node000017"><a xlink:href="INA260Sensor_8h.html" target="_top" xlink:title=" ">
<polygon fill="white" stroke="#666666" points="1164,-74 1071,-74 1071,-55 1164,-55 1164,-74"/>
<text text-anchor="middle" x="1117.5" y="-62" font-family="Helvetica,sans-Serif" font-size="10.00">INA260Sensor.h</text>
</a>
</g>
</g>
<!-- Node3&#45;&gt;Node17 -->
<g id="edge20_Node000003_Node000017" class="edge">
<title>Node3&#45;&gt;Node17</title>
<g id="a_edge20_Node000003_Node000017"><a xlink:title=" ">
<path fill="none" stroke="#63b8ff" d="M995.55,-106.67C1024.82,-96.79 1065.87,-82.93 1092.08,-74.08"/>
<polygon fill="#63b8ff" stroke="#63b8ff" points="994.08,-103.47 985.72,-109.98 996.32,-110.1 994.08,-103.47"/>
</a>
</g>
</g>
<!-- Node19 -->
<g id="Node000019" class="node">
<title>Node19</title>
<g id="a_Node000019"><a xlink:href="LSM9DS1Sensor_8h.html" target="_top" xlink:title=" ">
<polygon fill="white" stroke="#666666" points="1286.5,-74 1182.5,-74 1182.5,-55 1286.5,-55 1286.5,-74"/>
<text text-anchor="middle" x="1234.5" y="-62" font-family="Helvetica,sans-Serif" font-size="10.00">LSM9DS1Sensor.h</text>
</a>
</g>
</g>
<!-- Node3&#45;&gt;Node19 -->
<g id="edge23_Node000003_Node000019" class="edge">
<title>Node3&#45;&gt;Node19</title>
<g id="a_edge23_Node000003_Node000019"><a xlink:title=" ">
<path fill="none" stroke="#63b8ff" d="M999.44,-110.97C1049.88,-101.21 1137.61,-84.24 1190.45,-74.02"/>
<polygon fill="#63b8ff" stroke="#63b8ff" points="998.72,-107.54 989.56,-112.88 1000.05,-114.42 998.72,-107.54"/>
</a>
</g>
</g>
<!-- Node21 -->
<g id="Node000021" class="node">
<title>Node21</title>
<g id="a_Node000021"><a xlink:href="MTK3339Sensor_8h.html" target="_top" xlink:title=" ">
<polygon fill="white" stroke="#666666" points="280.5,-74 176.5,-74 176.5,-55 280.5,-55 280.5,-74"/>
<text text-anchor="middle" x="228.5" y="-62" font-family="Helvetica,sans-Serif" font-size="10.00">MTK3339Sensor.h</text>
</a>
</g>
</g>
<!-- Node3&#45;&gt;Node21 -->
<g id="edge26_Node000003_Node000021" class="edge">
<title>Node3&#45;&gt;Node21</title>
<g id="a_edge26_Node000003_Node000021"><a xlink:title=" ">
<path fill="none" stroke="#63b8ff" d="M921.16,-115.8C822.67,-109 557.51,-90.58 336.5,-74 318.31,-72.64 298.4,-71.08 280.68,-69.68"/>
<polygon fill="#63b8ff" stroke="#63b8ff" points="921.04,-119.3 931.25,-116.49 921.52,-112.31 921.04,-119.3"/>
</a>
</g>
</g>
<!-- Node23 -->
<g id="Node000023" class="node">
<title>Node23</title>
<g id="a_Node000023"><a xlink:href="PCF8523Sensor_8h.html" target="_top" xlink:title=" ">
<polygon fill="white" stroke="#666666" points="1406,-74 1305,-74 1305,-55 1406,-55 1406,-74"/>
<text text-anchor="middle" x="1355.5" y="-62" font-family="Helvetica,sans-Serif" font-size="10.00">PCF8523Sensor.h</text>
</a>
</g>
</g>
<!-- Node3&#45;&gt;Node23 -->
<g id="edge28_Node000003_Node000023" class="edge">
<title>Node3&#45;&gt;Node23</title>
<g id="a_edge28_Node000003_Node000023"><a xlink:title=" ">
<path fill="none" stroke="#63b8ff" d="M999.85,-113.39C1062.47,-105.22 1188.63,-88.67 1295.5,-74 1298.52,-73.59 1301.63,-73.16 1304.77,-72.72"/>
<polygon fill="#63b8ff" stroke="#63b8ff" points="999.1,-109.95 989.64,-114.72 1000.01,-116.89 999.1,-109.95"/>
</a>
</g>
</g>
<!-- Node25 -->
<g id="Node000025" class="node">
<title>Node25</title>
<g id="a_Node000025"><a xlink:href="SGP30Sensor_8h.html" target="_top" xlink:title=" ">
<polygon fill="white" stroke="#666666" points="1552,-74 1463,-74 1463,-55 1552,-55 1552,-74"/>
<text text-anchor="middle" x="1507.5" y="-62" font-family="Helvetica,sans-Serif" font-size="10.00">SGP30Sensor.h</text>
</a>
</g>
</g>
<!-- Node3&#45;&gt;Node25 -->
<g id="edge31_Node000003_Node000025" class="edge">
<title>Node3&#45;&gt;Node25</title>
<g id="a_edge31_Node000003_Node000025"><a xlink:title=" ">
<path fill="none" stroke="#63b8ff" d="M999.69,-114.7C1098.65,-105.11 1358.19,-79.97 1462.82,-69.83"/>
<polygon fill="#63b8ff" stroke="#63b8ff" points="999.14,-111.24 989.52,-115.69 999.81,-118.21 999.14,-111.24"/>
</a>
</g>
</g>
<!-- Node27 -->
<g id="Node000027" class="node">
<title>Node27</title>
<g id="a_Node000027"><a xlink:href="TempSensor_8h.html" target="_top" xlink:title=" ">
<polygon fill="white" stroke="#666666" points="429.5,-74 345.5,-74 345.5,-55 429.5,-55 429.5,-74"/>
<text text-anchor="middle" x="387.5" y="-62" font-family="Helvetica,sans-Serif" font-size="10.00">TempSensor.h</text>
</a>
</g>
</g>
<!-- Node3&#45;&gt;Node27 -->
<g id="edge34_Node000003_Node000027" class="edge">
<title>Node3&#45;&gt;Node27</title>
<g id="a_edge34_Node000003_Node000027"><a xlink:title=" ">
<path fill="none" stroke="#63b8ff" d="M921.03,-116.22C833.79,-110.94 618.04,-96.58 438.5,-74 435.65,-73.64 432.72,-73.24 429.76,-72.81"/>
<polygon fill="#63b8ff" stroke="#63b8ff" points="921.08,-119.73 931.27,-116.83 921.5,-112.74 921.08,-119.73"/>
</a>
</g>
</g>
<!-- Node5 -->
<g id="Node000005" class="node">
<title>Node5</title>
<g id="a_Node000005"><a xlink:href="AS7331Sensor_8cpp.html" target="_top" xlink:title=" ">
<polygon fill="white" stroke="#666666" points="477.5,-19 371.5,-19 371.5,0 477.5,0 477.5,-19"/>
<text text-anchor="middle" x="424.5" y="-7" font-family="Helvetica,sans-Serif" font-size="10.00">AS7331Sensor.cpp</text>
</a>
</g>
</g>
<!-- Node4&#45;&gt;Node5 -->
<g id="edge4_Node000004_Node000005" class="edge">
<title>Node4&#45;&gt;Node5</title>
<g id="a_edge4_Node000004_Node000005"><a xlink:title=" ">
<path fill="none" stroke="#63b8ff" d="M475.91,-48.88C463.13,-39.34 446.89,-27.21 436.11,-19.17"/>
<polygon fill="#63b8ff" stroke="#63b8ff" points="473.99,-51.81 484.09,-54.98 478.17,-46.2 473.99,-51.81"/>
</a>
</g>
</g>
<!-- Node4&#45;&gt;Node6 -->
<g id="edge5_Node000004_Node000006" class="edge">
<title>Node4&#45;&gt;Node6</title>
<g id="a_edge5_Node000004_Node000006"><a xlink:title=" ">
<path fill="none" stroke="#63b8ff" d="M553.03,-55.03C753.56,-32.69 807.15,-47.45 1002.5,-19 1005.31,-18.59 1008.22,-18.1 1011.13,-17.57"/>
<polygon fill="#63b8ff" stroke="#63b8ff" points="552.6,-51.56 543.05,-56.16 553.38,-58.51 552.6,-51.56"/>
</a>
</g>
</g>
<!-- Node7&#45;&gt;Node6 -->
<g id="edge8_Node000007_Node000006" class="edge">
<title>Node7&#45;&gt;Node6</title>
<g id="a_edge8_Node000007_Node000006"><a xlink:title=" ">
<path fill="none" stroke="#63b8ff" d="M669.49,-54.93C818.31,-36.43 858.23,-42.04 1002.5,-19 1005.3,-18.55 1008.21,-18.04 1011.11,-17.49"/>
<polygon fill="#63b8ff" stroke="#63b8ff" points="669.01,-51.46 659.53,-56.18 669.89,-58.4 669.01,-51.46"/>
</a>
</g>
</g>
<!-- Node8 -->
<g id="Node000008" class="node">
<title>Node8</title>
<g id="a_Node000008"><a xlink:href="BME280Sensor_8cpp.html" target="_top" xlink:title=" ">
<polygon fill="white" stroke="#666666" points="605,-19 496,-19 496,0 605,0 605,-19"/>
<text text-anchor="middle" x="550.5" y="-7" font-family="Helvetica,sans-Serif" font-size="10.00">BME280Sensor.cpp</text>
</a>
</g>
</g>
<!-- Node7&#45;&gt;Node8 -->
<g id="edge7_Node000007_Node000008" class="edge">
<title>Node7&#45;&gt;Node8</title>
<g id="a_edge7_Node000007_Node000008"><a xlink:title=" ">
<path fill="none" stroke="#63b8ff" d="M593.32,-48.32C582.62,-38.87 569.24,-27.06 560.32,-19.17"/>
<polygon fill="#63b8ff" stroke="#63b8ff" points="591.05,-50.99 600.86,-54.98 595.68,-45.74 591.05,-50.99"/>
</a>
</g>
</g>
<!-- Node9&#45;&gt;Node6 -->
<g id="edge11_Node000009_Node000006" class="edge">
<title>Node9&#45;&gt;Node6</title>
<g id="a_edge11_Node000009_Node000006"><a xlink:title=" ">
<path fill="none" stroke="#63b8ff" d="M785.83,-54.8C841.82,-46.39 928.05,-32.9 1002.5,-19 1005.29,-18.48 1008.19,-17.91 1011.09,-17.33"/>
<polygon fill="#63b8ff" stroke="#63b8ff" points="785.11,-51.37 775.74,-56.31 786.14,-58.29 785.11,-51.37"/>
</a>
</g>
</g>
<!-- Node10 -->
<g id="Node000010" class="node">
<title>Node10</title>
<g id="a_Node000010"><a xlink:href="BME680Sensor_8cpp.html" target="_top" xlink:title=" ">
<polygon fill="white" stroke="#666666" points="732,-19 623,-19 623,0 732,0 732,-19"/>
<text text-anchor="middle" x="677.5" y="-7" font-family="Helvetica,sans-Serif" font-size="10.00">BME680Sensor.cpp</text>
</a>
</g>
</g>
<!-- Node9&#45;&gt;Node10 -->
<g id="edge10_Node000009_Node000010" class="edge">
<title>Node9&#45;&gt;Node10</title>
<g id="a_edge10_Node000009_Node000010"><a xlink:title=" ">
<path fill="none" stroke="#63b8ff" d="M711.47,-47.24C702.88,-37.95 692.46,-26.68 685.44,-19.09"/>
<polygon fill="#63b8ff" stroke="#63b8ff" points="709.05,-49.78 718.41,-54.75 714.19,-45.03 709.05,-49.78"/>
</a>
</g>
</g>
<!-- Node12 -->
<g id="Node000012" class="node">
<title>Node12</title>
<g id="a_Node000012"><a xlink:href="DS3231Sensor_8cpp.html" target="_top" xlink:title=" ">
<polygon fill="white" stroke="#666666" points="107,-19 0,-19 0,0 107,0 107,-19"/>
<text text-anchor="middle" x="53.5" y="-7" font-family="Helvetica,sans-Serif" font-size="10.00">DS3231Sensor.cpp</text>
</a>
</g>
</g>
<!-- Node11&#45;&gt;Node12 -->
<g id="edge13_Node000011_Node000012" class="edge">
<title>Node11&#45;&gt;Node12</title>
<g id="a_edge13_Node000011_Node000012"><a xlink:title=" ">
<path fill="none" stroke="#63b8ff" d="M89.82,-47.52C80.66,-38.18 69.45,-26.75 61.93,-19.09"/>
<polygon fill="#63b8ff" stroke="#63b8ff" points="87.41,-50.06 96.91,-54.75 92.41,-45.16 87.41,-50.06"/>
</a>
</g>
</g>
<!-- Node13&#45;&gt;Node6 -->
<g id="edge16_Node000013_Node000006" class="edge">
<title>Node13&#45;&gt;Node6</title>
<g id="a_edge16_Node000013_Node000006"><a xlink:title=" ">
<path fill="none" stroke="#63b8ff" d="M883.57,-52.41C921.68,-42.36 976.97,-27.78 1011.28,-18.73"/>
<polygon fill="#63b8ff" stroke="#63b8ff" points="882.57,-49.05 873.79,-54.98 884.36,-55.82 882.57,-49.05"/>
</a>
</g>
</g>
<!-- Node14 -->
<g id="Node000014" class="node">
<title>Node14</title>
<g id="a_Node000014"><a xlink:href="ENS160Sensor_8cpp.html" target="_top" xlink:title=" ">
<polygon fill="white" stroke="#666666" points="857,-19 750,-19 750,0 857,0 857,-19"/>
<text text-anchor="middle" x="803.5" y="-7" font-family="Helvetica,sans-Serif" font-size="10.00">ENS160Sensor.cpp</text>
</a>
</g>
</g>
<!-- Node13&#45;&gt;Node14 -->
<g id="edge15_Node000013_Node000014" class="edge">
<title>Node13&#45;&gt;Node14</title>
<g id="a_edge15_Node000013_Node000014"><a xlink:title=" ">
<path fill="none" stroke="#63b8ff" d="M829.23,-46.39C822.69,-37.27 814.93,-26.45 809.66,-19.09"/>
<polygon fill="#63b8ff" stroke="#63b8ff" points="826.55,-48.66 835.23,-54.75 832.24,-44.58 826.55,-48.66"/>
</a>
</g>
</g>
<!-- Node15&#45;&gt;Node6 -->
<g id="edge19_Node000015_Node000006" class="edge">
<title>Node15&#45;&gt;Node6</title>
<g id="a_edge19_Node000015_Node000006"><a xlink:title=" ">
<path fill="none" stroke="#63b8ff" d="M982.28,-49.42C997.16,-39.81 1016.41,-27.37 1029.09,-19.17"/>
<polygon fill="#63b8ff" stroke="#63b8ff" points="980.17,-46.62 973.67,-54.98 983.97,-52.5 980.17,-46.62"/>
</a>
</g>
</g>
<!-- Node16 -->
<g id="Node000016" class="node">
<title>Node16</title>
<g id="a_Node000016"><a xlink:href="ICM20948Sensor_8cpp.html" target="_top" xlink:title=" ">
<polygon fill="white" stroke="#666666" points="993.5,-19 875.5,-19 875.5,0 993.5,0 993.5,-19"/>
<text text-anchor="middle" x="934.5" y="-7" font-family="Helvetica,sans-Serif" font-size="10.00">ICM20948Sensor.cpp</text>
</a>
</g>
</g>
<!-- Node15&#45;&gt;Node16 -->
<g id="edge18_Node000015_Node000016" class="edge">
<title>Node15&#45;&gt;Node16</title>
<g id="a_edge18_Node000015_Node000016"><a xlink:title=" ">
<path fill="none" stroke="#63b8ff" d="M951.68,-45.53C947.3,-36.6 942.21,-26.22 938.71,-19.09"/>
<polygon fill="#63b8ff" stroke="#63b8ff" points="948.66,-47.31 956.21,-54.75 954.94,-44.23 948.66,-47.31"/>
</a>
</g>
</g>
<!-- Node17&#45;&gt;Node6 -->
<g id="edge22_Node000017_Node000006" class="edge">
<title>Node17&#45;&gt;Node6</title>
<g id="a_edge22_Node000017_Node000006"><a xlink:title=" ">
<path fill="none" stroke="#63b8ff" d="M1097.19,-49.15C1083.64,-39.57 1066.26,-27.29 1054.77,-19.17"/>
<polygon fill="#63b8ff" stroke="#63b8ff" points="1095.26,-52.07 1105.45,-54.98 1099.3,-46.36 1095.26,-52.07"/>
</a>
</g>
</g>
<!-- Node18 -->
<g id="Node000018" class="node">
<title>Node18</title>
<g id="a_Node000018"><a xlink:href="INA260Sensor_8cpp.html" target="_top" xlink:title=" ">
<polygon fill="white" stroke="#666666" points="1195.5,-19 1091.5,-19 1091.5,0 1195.5,0 1195.5,-19"/>
<text text-anchor="middle" x="1143.5" y="-7" font-family="Helvetica,sans-Serif" font-size="10.00">INA260Sensor.cpp</text>
</a>
</g>
</g>
<!-- Node17&#45;&gt;Node18 -->
<g id="edge21_Node000017_Node000018" class="edge">
<title>Node17&#45;&gt;Node18</title>
<g id="a_edge21_Node000017_Node000018"><a xlink:title=" ">
<path fill="none" stroke="#63b8ff" d="M1126.32,-45.53C1130.7,-36.6 1135.79,-26.22 1139.29,-19.09"/>
<polygon fill="#63b8ff" stroke="#63b8ff" points="1123.06,-44.23 1121.79,-54.75 1129.34,-47.31 1123.06,-44.23"/>
</a>
</g>
</g>
<!-- Node19&#45;&gt;Node6 -->
<g id="edge25_Node000019_Node000006" class="edge">
<title>Node19&#45;&gt;Node6</title>
<g id="a_edge25_Node000019_Node000006"><a xlink:title=" ">
<path fill="none" stroke="#63b8ff" d="M1193.97,-52.31C1158.04,-42.39 1106.34,-28.12 1073.59,-19.08"/>
<polygon fill="#63b8ff" stroke="#63b8ff" points="1193.08,-55.7 1203.65,-54.98 1194.94,-48.95 1193.08,-55.7"/>
</a>
</g>
</g>
<!-- Node20 -->
<g id="Node000020" class="node">
<title>Node20</title>
<g id="a_Node000020"><a xlink:href="LSM9DS1Sensor_8cpp.html" target="_top" xlink:title=" ">
<polygon fill="white" stroke="#666666" points="1329,-19 1214,-19 1214,0 1329,0 1329,-19"/>
<text text-anchor="middle" x="1271.5" y="-7" font-family="Helvetica,sans-Serif" font-size="10.00">LSM9DS1Sensor.cpp</text>
</a>
</g>
</g>
<!-- Node19&#45;&gt;Node20 -->
<g id="edge24_Node000019_Node000020" class="edge">
<title>Node19&#45;&gt;Node20</title>
<g id="a_edge24_Node000019_Node000020"><a xlink:title=" ">
<path fill="none" stroke="#63b8ff" d="M1246.45,-46.39C1252.81,-37.27 1260.37,-26.45 1265.5,-19.09"/>
<polygon fill="#63b8ff" stroke="#63b8ff" points="1243.46,-44.55 1240.61,-54.75 1249.2,-48.55 1243.46,-44.55"/>
</a>
</g>
</g>
<!-- Node22 -->
<g id="Node000022" class="node">
<title>Node22</title>
<g id="a_Node000022"><a xlink:href="MTK3339Sensor_8cpp.html" target="_top" xlink:title=" ">
<polygon fill="white" stroke="#666666" points="240,-19 125,-19 125,0 240,0 240,-19"/>
<text text-anchor="middle" x="182.5" y="-7" font-family="Helvetica,sans-Serif" font-size="10.00">MTK3339Sensor.cpp</text>
</a>
</g>
</g>
<!-- Node21&#45;&gt;Node22 -->
<g id="edge27_Node000021_Node000022" class="edge">
<title>Node21&#45;&gt;Node22</title>
<g id="a_edge27_Node000021_Node000022"><a xlink:title=" ">
<path fill="none" stroke="#63b8ff" d="M214.14,-46.96C206.13,-37.72 196.47,-26.6 189.95,-19.09"/>
<polygon fill="#63b8ff" stroke="#63b8ff" points="211.71,-49.49 220.9,-54.75 216.99,-44.9 211.71,-49.49"/>
</a>
</g>
</g>
<!-- Node23&#45;&gt;Node6 -->
<g id="edge30_Node000023_Node000006" class="edge">
<title>Node23&#45;&gt;Node6</title>
<g id="a_edge30_Node000023_Node000006"><a xlink:title=" ">
<path fill="none" stroke="#63b8ff" d="M1294.8,-54.46C1239.38,-46 1155.26,-32.65 1082.5,-19 1079.71,-18.48 1076.81,-17.91 1073.91,-17.32"/>
<polygon fill="#63b8ff" stroke="#63b8ff" points="1294.39,-57.94 1304.81,-55.98 1295.45,-51.01 1294.39,-57.94"/>
</a>
</g>
</g>
<!-- Node24 -->
<g id="Node000024" class="node">
<title>Node24</title>
<g id="a_Node000024"><a xlink:href="PCF8523Sensor_8cpp.html" target="_top" xlink:title=" ">
<polygon fill="white" stroke="#666666" points="1459.5,-19 1347.5,-19 1347.5,0 1459.5,0 1459.5,-19"/>
<text text-anchor="middle" x="1403.5" y="-7" font-family="Helvetica,sans-Serif" font-size="10.00">PCF8523Sensor.cpp</text>
</a>
</g>
</g>
<!-- Node23&#45;&gt;Node24 -->
<g id="edge29_Node000023_Node000024" class="edge">
<title>Node23&#45;&gt;Node24</title>
<g id="a_edge29_Node000023_Node000024"><a xlink:title=" ">
<path fill="none" stroke="#63b8ff" d="M1370.23,-47.24C1378.64,-37.95 1388.85,-26.68 1395.72,-19.09"/>
<polygon fill="#63b8ff" stroke="#63b8ff" points="1367.54,-44.99 1363.43,-54.75 1372.73,-49.69 1367.54,-44.99"/>
</a>
</g>
</g>
<!-- Node25&#45;&gt;Node6 -->
<g id="edge33_Node000025_Node000006" class="edge">
<title>Node25&#45;&gt;Node6</title>
<g id="a_edge33_Node000025_Node000006"><a xlink:title=" ">
<path fill="none" stroke="#63b8ff" d="M1452.44,-55.49C1451.12,-55.32 1449.8,-55.16 1448.5,-55 1286.23,-35.34 1244.02,-44.03 1082.5,-19 1079.69,-18.57 1076.79,-18.06 1073.88,-17.51"/>
<polygon fill="#63b8ff" stroke="#63b8ff" points="1452.38,-59.01 1462.75,-56.84 1453.29,-52.07 1452.38,-59.01"/>
</a>
</g>
</g>
<!-- Node26 -->
<g id="Node000026" class="node">
<title>Node26</title>
<g id="a_Node000026"><a xlink:href="SGP30Sensor_8cpp.html" target="_top" xlink:title=" ">
<polygon fill="white" stroke="#666666" points="1579,-19 1478,-19 1478,0 1579,0 1579,-19"/>
<text text-anchor="middle" x="1528.5" y="-7" font-family="Helvetica,sans-Serif" font-size="10.00">SGP30Sensor.cpp</text>
</a>
</g>
</g>
<!-- Node25&#45;&gt;Node26 -->
<g id="edge32_Node000025_Node000026" class="edge">
<title>Node25&#45;&gt;Node26</title>
<g id="a_edge32_Node000025_Node000026"><a xlink:title=" ">
<path fill="none" stroke="#63b8ff" d="M1514.74,-45.24C1518.25,-36.37 1522.3,-26.14 1525.1,-19.09"/>
<polygon fill="#63b8ff" stroke="#63b8ff" points="1511.4,-44.16 1510.97,-54.75 1517.91,-46.74 1511.4,-44.16"/>
</a>
</g>
</g>
<!-- Node27&#45;&gt;Node6 -->
<g id="edge36_Node000027_Node000006" class="edge">
<title>Node27&#45;&gt;Node6</title>
<g id="a_edge36_Node000027_Node000006"><a xlink:title=" ">
<path fill="none" stroke="#63b8ff" d="M439.87,-54.97C689.8,-27.01 756.94,-52.74 1002.5,-19 1005.31,-18.61 1008.22,-18.14 1011.13,-17.62"/>
<polygon fill="#63b8ff" stroke="#63b8ff" points="439.3,-51.51 429.75,-56.12 440.09,-58.47 439.3,-51.51"/>
</a>
</g>
</g>
<!-- Node28 -->
<g id="Node000028" class="node">
<title>Node28</title>
<g id="a_Node000028"><a xlink:href="TempSensor_8cpp.html" target="_top" xlink:title=" ">
<polygon fill="white" stroke="#666666" points="353,-19 258,-19 258,0 353,0 353,-19"/>
<text text-anchor="middle" x="305.5" y="-7" font-family="Helvetica,sans-Serif" font-size="10.00">TempSensor.cpp</text>
</a>
</g>
</g>
<!-- Node27&#45;&gt;Node28 -->
<g id="edge35_Node000027_Node000028" class="edge">
<title>Node27&#45;&gt;Node28</title>
<g id="a_edge35_Node000027_Node000028"><a xlink:title=" ">
<path fill="none" stroke="#63b8ff" d="M365.72,-49.42C350.84,-39.81 331.59,-27.37 318.91,-19.17"/>
<polygon fill="#63b8ff" stroke="#63b8ff" points="364.03,-52.5 374.33,-54.98 367.83,-46.62 364.03,-52.5"/>
</a>
</g>
</g>
<!-- Node30 -->
<g id="Node000030" class="node">
<title>Node30</title>
<g id="a_Node000030"><a xlink:href="FlashStorage_8h.html" target="_top" xlink:title=" ">
<polygon fill="white" stroke="#666666" points="1679,-74 1590,-74 1590,-55 1679,-55 1679,-74"/>
<text text-anchor="middle" x="1634.5" y="-62" font-family="Helvetica,sans-Serif" font-size="10.00">FlashStorage.h</text>
</a>
</g>
</g>
<!-- Node29&#45;&gt;Node30 -->
<g id="edge39_Node000029_Node000030" class="edge">
<title>Node29&#45;&gt;Node30</title>
<g id="a_edge39_Node000029_Node000030"><a xlink:title=" ">
<path fill="none" stroke="#63b8ff" d="M1672.22,-102.52C1662.7,-93.18 1651.06,-81.75 1643.25,-74.09"/>
<polygon fill="#63b8ff" stroke="#63b8ff" points="1669.99,-105.24 1679.58,-109.75 1674.9,-100.25 1669.99,-105.24"/>
</a>
</g>
</g>
<!-- Node29&#45;&gt;Node32 -->
<g id="edge49_Node000029_Node000032" class="edge">
<title>Node29&#45;&gt;Node32</title>
<g id="a_edge49_Node000029_Node000032"><a xlink:title=" ">
<path fill="none" stroke="#63b8ff" d="M1726.12,-106.6C1747.82,-98.9 1775.16,-87.75 1797.5,-74 1823.53,-57.97 1849.45,-32.64 1862.25,-19.33"/>
<polygon fill="#63b8ff" stroke="#63b8ff" points="1724.89,-103.32 1716.58,-109.89 1727.17,-109.94 1724.89,-103.32"/>
</a>
</g>
</g>
<!-- Node33 -->
<g id="Node000033" class="node">
<title>Node33</title>
<g id="a_Node000033"><a xlink:href="RadioStorage_8h.html" target="_top" xlink:title=" ">
<polygon fill="white" stroke="#666666" points="1788,-74 1697,-74 1697,-55 1788,-55 1788,-74"/>
<text text-anchor="middle" x="1742.5" y="-62" font-family="Helvetica,sans-Serif" font-size="10.00">RadioStorage.h</text>
</a>
</g>
</g>
<!-- Node29&#45;&gt;Node33 -->
<g id="edge43_Node000029_Node000033" class="edge">
<title>Node29&#45;&gt;Node33</title>
<g id="a_edge43_Node000029_Node000033"><a xlink:title=" ">
<path fill="none" stroke="#63b8ff" d="M1704.78,-102.52C1714.3,-93.18 1725.94,-81.75 1733.75,-74.09"/>
<polygon fill="#63b8ff" stroke="#63b8ff" points="1702.1,-100.25 1697.42,-109.75 1707.01,-105.24 1702.1,-100.25"/>
</a>
</g>
</g>
<!-- Node35 -->
<g id="Node000035" class="node">
<title>Node35</title>
<g id="a_Node000035"><a xlink:href="SDStorage_8h.html" target="_top" xlink:title=" ">
<polygon fill="white" stroke="#666666" points="1922,-74 1845,-74 1845,-55 1922,-55 1922,-74"/>
<text text-anchor="middle" x="1883.5" y="-62" font-family="Helvetica,sans-Serif" font-size="10.00">SDStorage.h</text>
</a>
</g>
</g>
<!-- Node29&#45;&gt;Node35 -->
<g id="edge46_Node000029_Node000035" class="edge">
<title>Node29&#45;&gt;Node35</title>
<g id="a_edge46_Node000029_Node000035"><a xlink:title=" ">
<path fill="none" stroke="#63b8ff" d="M1729.67,-107.31C1766.16,-97.39 1818.67,-83.12 1851.92,-74.08"/>
<polygon fill="#63b8ff" stroke="#63b8ff" points="1728.56,-103.98 1719.83,-109.98 1730.4,-110.74 1728.56,-103.98"/>
</a>
</g>
</g>
<!-- Node30&#45;&gt;Node6 -->
<g id="edge41_Node000030_Node000006" class="edge">
<title>Node30&#45;&gt;Node6</title>
<g id="a_edge41_Node000030_Node000006"><a xlink:title=" ">
<path fill="none" stroke="#63b8ff" d="M1579.57,-56.86C1573.48,-56.2 1567.36,-55.56 1561.5,-55 1348.98,-34.65 1293.83,-49.26 1082.5,-19 1079.69,-18.6 1076.78,-18.11 1073.87,-17.58"/>
<polygon fill="#63b8ff" stroke="#63b8ff" points="1579.42,-60.36 1589.75,-58 1580.2,-53.41 1579.42,-60.36"/>
</a>
</g>
</g>
<!-- Node31 -->
<g id="Node000031" class="node">
<title>Node31</title>
<g id="a_Node000031"><a xlink:href="FlashStorage_8cpp.html" target="_top" xlink:title=" ">
<polygon fill="white" stroke="#666666" points="1698,-19 1597,-19 1597,0 1698,0 1698,-19"/>
<text text-anchor="middle" x="1647.5" y="-7" font-family="Helvetica,sans-Serif" font-size="10.00">FlashStorage.cpp</text>
</a>
</g>
</g>
<!-- Node30&#45;&gt;Node31 -->
<g id="edge40_Node000030_Node000031" class="edge">
<title>Node30&#45;&gt;Node31</title>
<g id="a_edge40_Node000030_Node000031"><a xlink:title=" ">
<path fill="none" stroke="#63b8ff" d="M1639.05,-44.95C1641.21,-36.15 1643.68,-26.06 1645.39,-19.09"/>
<polygon fill="#63b8ff" stroke="#63b8ff" points="1635.63,-44.2 1636.65,-54.75 1642.43,-45.87 1635.63,-44.2"/>
</a>
</g>
</g>
<!-- Node30&#45;&gt;Node32 -->
<g id="edge42_Node000030_Node000032" class="edge">
<title>Node30&#45;&gt;Node32</title>
<g id="a_edge42_Node000030_Node000032"><a xlink:title=" ">
<path fill="none" stroke="#63b8ff" d="M1682.37,-52.75C1728.01,-42.5 1795.61,-27.32 1836.13,-18.22"/>
<polygon fill="#63b8ff" stroke="#63b8ff" points="1681.41,-49.38 1672.42,-54.98 1682.94,-56.21 1681.41,-49.38"/>
</a>
</g>
</g>
<!-- Node33&#45;&gt;Node32 -->
<g id="edge45_Node000033_Node000032" class="edge">
<title>Node33&#45;&gt;Node32</title>
<g id="a_edge45_Node000033_Node000032"><a xlink:title=" ">
<path fill="none" stroke="#63b8ff" d="M1772.62,-51.03C1796.29,-41.23 1828.65,-27.83 1849.56,-19.17"/>
<polygon fill="#63b8ff" stroke="#63b8ff" points="1770.97,-47.93 1763.07,-54.98 1773.64,-54.39 1770.97,-47.93"/>
</a>
</g>
</g>
<!-- Node34 -->
<g id="Node000034" class="node">
<title>Node34</title>
<g id="a_Node000034"><a xlink:href="RadioStorage_8cpp.html" target="_top" xlink:title=" ">
<polygon fill="white" stroke="#666666" points="1818.5,-19 1716.5,-19 1716.5,0 1818.5,0 1818.5,-19"/>
<text text-anchor="middle" x="1767.5" y="-7" font-family="Helvetica,sans-Serif" font-size="10.00">RadioStorage.cpp</text>
</a>
</g>
</g>
<!-- Node33&#45;&gt;Node34 -->
<g id="edge44_Node000033_Node000034" class="edge">
<title>Node33&#45;&gt;Node34</title>
<g id="a_edge44_Node000033_Node000034"><a xlink:title=" ">
<path fill="none" stroke="#63b8ff" d="M1750.98,-45.53C1755.19,-36.6 1760.09,-26.22 1763.45,-19.09"/>
<polygon fill="#63b8ff" stroke="#63b8ff" points="1747.73,-44.21 1746.63,-54.75 1754.06,-47.2 1747.73,-44.21"/>
</a>
</g>
</g>
<!-- Node35&#45;&gt;Node32 -->
<g id="edge48_Node000035_Node000032" class="edge">
<title>Node35&#45;&gt;Node32</title>
<g id="a_edge48_Node000035_Node000032"><a xlink:title=" ">
<path fill="none" stroke="#63b8ff" d="M1878.95,-44.95C1876.79,-36.15 1874.32,-26.06 1872.61,-19.09"/>
<polygon fill="#63b8ff" stroke="#63b8ff" points="1875.57,-45.87 1881.35,-54.75 1882.37,-44.2 1875.57,-45.87"/>
</a>
</g>
</g>
<!-- Node36 -->
<g id="Node000036" class="node">
<title>Node36</title>
<g id="a_Node000036"><a xlink:href="SDStorage_8cpp.html" target="_top" xlink:title=" ">
<polygon fill="white" stroke="#666666" points="2010.5,-19 1922.5,-19 1922.5,0 2010.5,0 2010.5,-19"/>
<text text-anchor="middle" x="1966.5" y="-7" font-family="Helvetica,sans-Serif" font-size="10.00">SDStorage.cpp</text>
</a>
</g>
</g>
<!-- Node35&#45;&gt;Node36 -->
<g id="edge47_Node000035_Node000036" class="edge">
<title>Node35&#45;&gt;Node36</title>
<g id="a_edge47_Node000035_Node000036"><a xlink:title=" ">
<path fill="none" stroke="#63b8ff" d="M1905.54,-49.42C1920.61,-39.81 1940.09,-27.37 1952.92,-19.17"/>
<polygon fill="#63b8ff" stroke="#63b8ff" points="1903.38,-46.65 1896.84,-54.98 1907.15,-52.55 1903.38,-46.65"/>
</a>
</g>
</g>
</g>
</svg>

<g id="navigator" transform="translate(0 0)" fill="#404254">
  <rect fill="#f2f5e9" fill-opacity="0.5" stroke="#606060" stroke-width=".5" x="0" y="0" width="60" height="60"/>
  <use id="zoomplus" xlink:href="#zoomPlus" x="17" y="9" onmousedown="handleZoom(evt,'in')"/>
  <use id="zoomminus" xlink:href="#zoomMin" x="42" y="9" onmousedown="handleZoom(evt,'out')"/>
  <use id="reset" xlink:href="#resetDef" x="30" y="36" onmousedown="handleReset()"/>
   <use id="arrowup" xlink:href="#arrowUp" x="0" y="0" onmousedown="handlePan(0,-1)"/>
  <use id="arrowright" xlink:href="#arrowRight" x="0" y="0" onmousedown="handlePan(1,0)"/>
  <use id="arrowdown" xlink:href="#arrowDown" x="0" y="0" onmousedown="handlePan(0,1)"/>
  <use id="arrowleft" xlink:href="#arrowLeft" x="0" y="0" onmousedown="handlePan(-1,0)"/>
</g>
<svg viewBox="0 0 15 15" width="100%" height="30px" preserveAspectRatio="xMaxYMin meet">
 <g id="arrow_out" transform="scale(0.3 0.3)">
  <a xlink:href="Logger_8h__dep__incl_org.svg" target="_base">
   <rect id="button" ry="5" rx="5" y="6" x="6" height="38" width="38"
        fill="#f2f5e9" fill-opacity="0.5" stroke="#606060" stroke-width="1.0"/>
   <path id="arrow"
     d="M 11.500037,31.436501 C 11.940474,20.09759 22.043105,11.32322 32.158766,21.979434 L 37.068811,17.246167 C 37.068811,17.246167 37.088388,32 37.088388,32 L 22.160133,31.978069 C 22.160133,31.978069 26.997745,27.140456 26.997745,27.140456 C 18.528582,18.264221 13.291696,25.230495 11.500037,31.436501 z"
     style="fill:#404040;"/>
  </a>
 </g>
</svg>

<style type='text/css'>
<![CDATA[
[data-mouse-over-selected='false'] { opacity: 0.7; }
[data-mouse-over-selected='true']  { opacity: 1.0; }
]]>
</style>
<script type="application/ecmascript"><![CDATA[
document.addEventListener('DOMContentLoaded', (event) => {
  highlightEdges();
  highlightAdjacentNodes();
});
]]></script>
</svg>
