<?xml version="1.0" encoding="UTF-8" standalone="no"?>
<!DOCTYPE svg PUBLIC "-//W3C//DTD SVG 1.1//EN"
 "http://www.w3.org/Graphics/SVG/1.1/DTD/svg11.dtd">
<!-- Generated by graphviz version 2.43.0 (0)
 -->
<!-- Title: Logger.h Pages: 1 -->
<svg width="2629pt" height="247pt"
 viewBox="0.00 0.00 2628.50 247.00" xmlns="http://www.w3.org/2000/svg" xmlns:xlink="http://www.w3.org/1999/xlink">
<g id="graph0" class="graph" transform="scale(1 1) rotate(0) translate(4 243)">
<title>Logger.h</title>
<!-- Node1 -->
<g id="Node000001" class="node">
<title>Node1</title>
<g id="a_Node000001"><a xlink:title=" ">
<polygon fill="#999999" stroke="#666666" points="2166.5,-239 2108.5,-239 2108.5,-220 2166.5,-220 2166.5,-239"/>
<text text-anchor="middle" x="2137.5" y="-227" font-family="Helvetica,sans-Serif" font-size="10.00">Logger.h</text>
</a>
</g>
</g>
<!-- Node2 -->
<g id="Node000002" class="node">
<title>Node2</title>
<g id="a_Node000002"><a xlink:href="Device_8h.html" target="_top" xlink:title=" ">
<polygon fill="white" stroke="#666666" points="2167,-184 2108,-184 2108,-165 2167,-165 2167,-184"/>
<text text-anchor="middle" x="2137.5" y="-172" font-family="Helvetica,sans-Serif" font-size="10.00">Device.h</text>
</a>
</g>
</g>
<!-- Node1&#45;&gt;Node2 -->
<g id="edge1_Node000001_Node000002" class="edge">
<title>Node1&#45;&gt;Node2</title>
<g id="a_edge1_Node000001_Node000002"><a xlink:title=" ">
<path fill="none" stroke="#63b8ff" d="M2137.5,-209.66C2137.5,-200.93 2137.5,-190.99 2137.5,-184.09"/>
<polygon fill="#63b8ff" stroke="#63b8ff" points="2134,-209.75 2137.5,-219.75 2141,-209.75 2134,-209.75"/>
</a>
</g>
</g>
<!-- Node3 -->
<g id="Node000003" class="node">
<title>Node3</title>
<g id="a_Node000003"><a xlink:href="Sensor_8h.html" target="_top" xlink:title=" ">
<polygon fill="white" stroke="#666666" points="1294.5,-129 1236.5,-129 1236.5,-110 1294.5,-110 1294.5,-129"/>
<text text-anchor="middle" x="1265.5" y="-117" font-family="Helvetica,sans-Serif" font-size="10.00">Sensor.h</text>
</a>
</g>
</g>
<!-- Node1&#45;&gt;Node3 -->
<g id="edge64_Node000001_Node000003" class="edge">
<title>Node1&#45;&gt;Node3</title>
<g id="a_edge64_Node000001_Node000003"><a xlink:title=" ">
<path fill="none" stroke="#63b8ff" d="M2098.48,-223.67C1950.33,-205.32 1424.42,-140.18 1294.62,-124.11"/>
<polygon fill="#63b8ff" stroke="#63b8ff" points="2098.13,-227.15 2108.49,-224.91 2098.99,-220.2 2098.13,-227.15"/>
</a>
</g>
</g>
<!-- Node6 -->
<g id="Node000006" class="node">
<title>Node6</title>
<g id="a_Node000006"><a xlink:href="main_8cpp.html" target="_top" xlink:title="Main functions for Core 0, responsible for reading data from sensor peripherals.">
<polygon fill="white" stroke="#666666" points="1545.5,-19 1483.5,-19 1483.5,0 1545.5,0 1545.5,-19"/>
<text text-anchor="middle" x="1514.5" y="-7" font-family="Helvetica,sans-Serif" font-size="10.00">main.cpp</text>
</a>
</g>
</g>
<!-- Node1&#45;&gt;Node6 -->
<g id="edge66_Node000001_Node000006" class="edge">
<title>Node1&#45;&gt;Node6</title>
<g id="a_edge66_Node000001_Node000006"><a xlink:title=" ">
<path fill="none" stroke="#63b8ff" d="M2123.4,-211.97C2086.77,-169.07 1991.1,-57.33 1986.5,-55 1900.56,-11.47 1649.8,-33.04 1554.5,-19 1551.69,-18.59 1548.78,-18.09 1545.88,-17.56"/>
<polygon fill="#63b8ff" stroke="#63b8ff" points="2120.93,-214.46 2130.08,-219.8 2126.25,-209.92 2120.93,-214.46"/>
</a>
</g>
</g>
<!-- Node39 -->
<g id="Node000039" class="node">
<title>Node39</title>
<g id="a_Node000039"><a xlink:href="Storage_8h.html" target="_top" xlink:title=" ">
<polygon fill="white" stroke="#666666" points="2344,-129 2281,-129 2281,-110 2344,-110 2344,-129"/>
<text text-anchor="middle" x="2312.5" y="-117" font-family="Helvetica,sans-Serif" font-size="10.00">Storage.h</text>
</a>
</g>
</g>
<!-- Node1&#45;&gt;Node39 -->
<g id="edge65_Node000001_Node000039" class="edge">
<title>Node1&#45;&gt;Node39</title>
<g id="a_edge65_Node000001_Node000039"><a xlink:title=" ">
<path fill="none" stroke="#63b8ff" d="M2160.05,-214.59C2196.7,-191.97 2268.14,-147.88 2298.41,-129.2"/>
<polygon fill="#63b8ff" stroke="#63b8ff" points="2158.2,-211.61 2151.53,-219.84 2161.87,-217.57 2158.2,-211.61"/>
</a>
</g>
</g>
<!-- Node42 -->
<g id="Node000042" class="node">
<title>Node42</title>
<g id="a_Node000042"><a xlink:href="main1_8cpp.html" target="_top" xlink:title="Main functions for Core 1, responsible for sending data to storage peripherals.">
<polygon fill="white" stroke="#666666" points="2514.5,-19 2446.5,-19 2446.5,0 2514.5,0 2514.5,-19"/>
<text text-anchor="middle" x="2480.5" y="-7" font-family="Helvetica,sans-Serif" font-size="10.00">main1.cpp</text>
</a>
</g>
</g>
<!-- Node1&#45;&gt;Node42 -->
<g id="edge67_Node000001_Node000042" class="edge">
<title>Node1&#45;&gt;Node42</title>
<g id="a_edge67_Node000001_Node000042"><a xlink:title=" ">
<path fill="none" stroke="#63b8ff" d="M2176.32,-218.38C2240.45,-199.86 2369.09,-154.77 2446.5,-74 2462.25,-57.57 2472.79,-32.41 2477.57,-19.23"/>
<polygon fill="#63b8ff" stroke="#63b8ff" points="2175.27,-215.04 2166.6,-221.13 2177.18,-221.78 2175.27,-215.04"/>
</a>
</g>
</g>
<!-- Node2&#45;&gt;Node3 -->
<g id="edge2_Node000002_Node000003" class="edge">
<title>Node2&#45;&gt;Node3</title>
<g id="a_edge2_Node000002_Node000003"><a xlink:title=" ">
<path fill="none" stroke="#63b8ff" d="M2097.92,-171.09C1948.99,-162.04 1424.09,-130.14 1294.56,-122.27"/>
<polygon fill="#63b8ff" stroke="#63b8ff" points="2097.79,-174.59 2107.99,-171.71 2098.22,-167.61 2097.79,-174.59"/>
</a>
</g>
</g>
<!-- Node2&#45;&gt;Node39 -->
<g id="edge52_Node000002_Node000039" class="edge">
<title>Node2&#45;&gt;Node39</title>
<g id="a_edge52_Node000002_Node000039"><a xlink:title=" ">
<path fill="none" stroke="#63b8ff" d="M2175.29,-162.06C2208,-152.15 2254.57,-138.04 2284.16,-129.08"/>
<polygon fill="#63b8ff" stroke="#63b8ff" points="2174.17,-158.74 2165.62,-164.98 2176.2,-165.44 2174.17,-158.74"/>
</a>
</g>
</g>
<!-- Node4 -->
<g id="Node000004" class="node">
<title>Node4</title>
<g id="a_Node000004"><a xlink:href="AS7331Sensor_8h.html" target="_top" xlink:title=" ">
<polygon fill="white" stroke="#666666" points="1624,-74 1529,-74 1529,-55 1624,-55 1624,-74"/>
<text text-anchor="middle" x="1576.5" y="-62" font-family="Helvetica,sans-Serif" font-size="10.00">AS7331Sensor.h</text>
</a>
</g>
</g>
<!-- Node3&#45;&gt;Node4 -->
<g id="edge3_Node000003_Node000004" class="edge">
<title>Node3&#45;&gt;Node4</title>
<g id="a_edge3_Node000003_Node000004"><a xlink:title=" ">
<path fill="none" stroke="#63b8ff" d="M1304.83,-111.8C1361.92,-102.07 1467.59,-84.06 1528.96,-73.6"/>
<polygon fill="#63b8ff" stroke="#63b8ff" points="1304.03,-108.38 1294.76,-113.51 1305.2,-115.28 1304.03,-108.38"/>
</a>
</g>
</g>
<!-- Node3&#45;&gt;Node6 -->
<g id="edge51_Node000003_Node000006" class="edge">
<title>Node3&#45;&gt;Node6</title>
<g id="a_edge51_Node000003_Node000006"><a xlink:title=" ">
<path fill="none" stroke="#63b8ff" d="M1304.55,-114.5C1358.99,-108.25 1454.1,-94.72 1481.5,-74 1499.93,-60.06 1509,-32.86 1512.58,-19.02"/>
<polygon fill="#63b8ff" stroke="#63b8ff" points="1304.11,-111.03 1294.56,-115.62 1304.89,-117.98 1304.11,-111.03"/>
</a>
</g>
</g>
<!-- Node7 -->
<g id="Node000007" class="node">
<title>Node7</title>
<g id="a_Node000007"><a xlink:href="BME280Sensor_8h.html" target="_top" xlink:title=" ">
<polygon fill="white" stroke="#666666" points="114.5,-74 16.5,-74 16.5,-55 114.5,-55 114.5,-74"/>
<text text-anchor="middle" x="65.5" y="-62" font-family="Helvetica,sans-Serif" font-size="10.00">BME280Sensor.h</text>
</a>
</g>
</g>
<!-- Node3&#45;&gt;Node7 -->
<g id="edge6_Node000003_Node000007" class="edge">
<title>Node3&#45;&gt;Node7</title>
<g id="a_edge6_Node000003_Node000007"><a xlink:title=" ">
<path fill="none" stroke="#63b8ff" d="M1226.23,-118.31C1080.58,-117.33 557.62,-111.26 128.5,-74 123.99,-73.61 119.31,-73.12 114.63,-72.59"/>
<polygon fill="#63b8ff" stroke="#63b8ff" points="1226.42,-121.81 1236.45,-118.38 1226.47,-114.81 1226.42,-121.81"/>
</a>
</g>
</g>
<!-- Node9 -->
<g id="Node000009" class="node">
<title>Node9</title>
<g id="a_Node000009"><a xlink:href="BME680Sensor_8h.html" target="_top" xlink:title=" ">
<polygon fill="white" stroke="#666666" points="235.5,-74 137.5,-74 137.5,-55 235.5,-55 235.5,-74"/>
<text text-anchor="middle" x="186.5" y="-62" font-family="Helvetica,sans-Serif" font-size="10.00">BME680Sensor.h</text>
</a>
</g>
</g>
<!-- Node3&#45;&gt;Node9 -->
<g id="edge8_Node000003_Node000009" class="edge">
<title>Node3&#45;&gt;Node9</title>
<g id="a_edge8_Node000003_Node000009"><a xlink:title=" ">
<path fill="none" stroke="#63b8ff" d="M1225.81,-117.87C1090.11,-115.48 632.28,-105.46 255.5,-74 249.13,-73.47 242.43,-72.79 235.83,-72.05"/>
<polygon fill="#63b8ff" stroke="#63b8ff" points="1226.05,-121.38 1236.11,-118.05 1226.18,-114.38 1226.05,-121.38"/>
</a>
</g>
</g>
<!-- Node11 -->
<g id="Node000011" class="node">
<title>Node11</title>
<g id="a_Node000011"><a xlink:href="BMP390Sensor_8h.html" target="_top" xlink:title=" ">
<polygon fill="white" stroke="#666666" points="1740.5,-74 1642.5,-74 1642.5,-55 1740.5,-55 1740.5,-74"/>
<text text-anchor="middle" x="1691.5" y="-62" font-family="Helvetica,sans-Serif" font-size="10.00">BMP390Sensor.h</text>
</a>
</g>
</g>
<!-- Node3&#45;&gt;Node11 -->
<g id="edge10_Node000003_Node000011" class="edge">
<title>Node3&#45;&gt;Node11</title>
<g id="a_edge10_Node000003_Node000011"><a xlink:title=" ">
<path fill="none" stroke="#63b8ff" d="M1304.67,-114.04C1371.83,-106.33 1513.22,-89.82 1632.5,-74 1635.68,-73.58 1638.96,-73.13 1642.26,-72.68"/>
<polygon fill="#63b8ff" stroke="#63b8ff" points="1304.09,-110.59 1294.55,-115.2 1304.88,-117.54 1304.09,-110.59"/>
</a>
</g>
</g>
<!-- Node13 -->
<g id="Node000013" class="node">
<title>Node13</title>
<g id="a_Node000013"><a xlink:href="DS3231Sensor_8h.html" target="_top" xlink:title=" ">
<polygon fill="white" stroke="#666666" points="360,-74 265,-74 265,-55 360,-55 360,-74"/>
<text text-anchor="middle" x="312.5" y="-62" font-family="Helvetica,sans-Serif" font-size="10.00">DS3231Sensor.h</text>
</a>
</g>
</g>
<!-- Node3&#45;&gt;Node13 -->
<g id="edge13_Node000003_Node000013" class="edge">
<title>Node3&#45;&gt;Node13</title>
<g id="a_edge13_Node000003_Node000013"><a xlink:title=" ">
<path fill="none" stroke="#63b8ff" d="M1226.26,-117.56C1102.07,-114.38 706.62,-102.54 380.5,-74 373.86,-73.42 366.88,-72.69 360.01,-71.89"/>
<polygon fill="#63b8ff" stroke="#63b8ff" points="1226.33,-121.07 1236.42,-117.82 1226.51,-114.07 1226.33,-121.07"/>
</a>
</g>
</g>
<!-- Node15 -->
<g id="Node000015" class="node">
<title>Node15</title>
<g id="a_Node000015"><a xlink:href="ENS160Sensor_8h.html" target="_top" xlink:title=" ">
<polygon fill="white" stroke="#666666" points="1370,-74 1275,-74 1275,-55 1370,-55 1370,-74"/>
<text text-anchor="middle" x="1322.5" y="-62" font-family="Helvetica,sans-Serif" font-size="10.00">ENS160Sensor.h</text>
</a>
</g>
</g>
<!-- Node3&#45;&gt;Node15 -->
<g id="edge15_Node000003_Node000015" class="edge">
<title>Node3&#45;&gt;Node15</title>
<g id="a_edge15_Node000003_Node000015"><a xlink:title=" ">
<path fill="none" stroke="#63b8ff" d="M1282.12,-103.04C1292.23,-93.64 1304.78,-81.98 1313.18,-74.17"/>
<polygon fill="#63b8ff" stroke="#63b8ff" points="1279.6,-100.61 1274.66,-109.98 1284.36,-105.74 1279.6,-100.61"/>
</a>
</g>
</g>
<!-- Node17 -->
<g id="Node000017" class="node">
<title>Node17</title>
<g id="a_Node000017"><a xlink:href="ICM20948Sensor_8h.html" target="_top" xlink:title=" ">
<polygon fill="white" stroke="#666666" points="1866,-74 1759,-74 1759,-55 1866,-55 1866,-74"/>
<text text-anchor="middle" x="1812.5" y="-62" font-family="Helvetica,sans-Serif" font-size="10.00">ICM20948Sensor.h</text>
</a>
</g>
</g>
<!-- Node3&#45;&gt;Node17 -->
<g id="edge18_Node000003_Node000017" class="edge">
<title>Node3&#45;&gt;Node17</title>
<g id="a_edge18_Node000003_Node000017"><a xlink:title=" ">
<path fill="none" stroke="#63b8ff" d="M1304.92,-115.45C1387.49,-108.92 1584.63,-92.69 1749.5,-74 1752.57,-73.65 1755.72,-73.28 1758.9,-72.89"/>
<polygon fill="#63b8ff" stroke="#63b8ff" points="1304.43,-111.97 1294.73,-116.25 1304.98,-118.95 1304.43,-111.97"/>
</a>
</g>
</g>
<!-- Node19 -->
<g id="Node000019" class="node">
<title>Node19</title>
<g id="a_Node000019"><a xlink:href="INA260Sensor_8h.html" target="_top" xlink:title=" ">
<polygon fill="white" stroke="#666666" points="1977,-74 1884,-74 1884,-55 1977,-55 1977,-74"/>
<text text-anchor="middle" x="1930.5" y="-62" font-family="Helvetica,sans-Serif" font-size="10.00">INA260Sensor.h</text>
</a>
</g>
</g>
<!-- Node3&#45;&gt;Node19 -->
<g id="edge21_Node000003_Node000019" class="edge">
<title>Node3&#45;&gt;Node19</title>
<g id="a_edge21_Node000003_Node000019"><a xlink:title=" ">
<path fill="none" stroke="#63b8ff" d="M1305.03,-116.72C1402.29,-112.1 1660.93,-98.37 1875.5,-74 1878.19,-73.69 1880.95,-73.35 1883.73,-72.99"/>
<polygon fill="#63b8ff" stroke="#63b8ff" points="1304.61,-113.24 1294.78,-117.2 1304.94,-120.23 1304.61,-113.24"/>
</a>
</g>
</g>
<!-- Node21 -->
<g id="Node000021" class="node">
<title>Node21</title>
<g id="a_Node000021"><a xlink:href="LSM9DS1Sensor_8h.html" target="_top" xlink:title=" ">
<polygon fill="white" stroke="#666666" points="493.5,-74 389.5,-74 389.5,-55 493.5,-55 493.5,-74"/>
<text text-anchor="middle" x="441.5" y="-62" font-family="Helvetica,sans-Serif" font-size="10.00">LSM9DS1Sensor.h</text>
</a>
</g>
</g>
<!-- Node3&#45;&gt;Node21 -->
<g id="edge24_Node000003_Node000021" class="edge">
<title>Node3&#45;&gt;Node21</title>
<g id="a_edge24_Node000003_Node000021"><a xlink:title=" ">
<path fill="none" stroke="#63b8ff" d="M1226.31,-116.22C1118.89,-109.94 810.63,-91.65 554.5,-74 534.58,-72.63 512.69,-71.01 493.53,-69.55"/>
<polygon fill="#63b8ff" stroke="#63b8ff" points="1226.18,-119.72 1236.37,-116.81 1226.59,-112.73 1226.18,-119.72"/>
</a>
</g>
</g>
<!-- Node23 -->
<g id="Node000023" class="node">
<title>Node23</title>
<g id="a_Node000023"><a xlink:href="MTK3339Sensor_8h.html" target="_top" xlink:title=" ">
<polygon fill="white" stroke="#666666" points="2137.5,-74 2033.5,-74 2033.5,-55 2137.5,-55 2137.5,-74"/>
<text text-anchor="middle" x="2085.5" y="-62" font-family="Helvetica,sans-Serif" font-size="10.00">MTK3339Sensor.h</text>
</a>
</g>
</g>
<!-- Node3&#45;&gt;Node23 -->
<g id="edge26_Node000003_Node000023" class="edge">
<title>Node3&#45;&gt;Node23</title>
<g id="a_edge26_Node000003_Node000023"><a xlink:title=" ">
<path fill="none" stroke="#63b8ff" d="M1304.87,-116.4C1413.49,-110.55 1726.56,-93.18 1986.5,-74 2001.73,-72.88 2018.26,-71.51 2033.37,-70.21"/>
<polygon fill="#63b8ff" stroke="#63b8ff" points="1304.5,-112.92 1294.71,-116.95 1304.88,-119.91 1304.5,-112.92"/>
</a>
</g>
</g>
<!-- Node25 -->
<g id="Node000025" class="node">
<title>Node25</title>
<g id="a_Node000025"><a xlink:href="OzoneSensor_8h.html" target="_top" xlink:title=" ">
<polygon fill="white" stroke="#666666" points="807,-74 718,-74 718,-55 807,-55 807,-74"/>
<text text-anchor="middle" x="762.5" y="-62" font-family="Helvetica,sans-Serif" font-size="10.00">OzoneSensor.h</text>
</a>
</g>
</g>
<!-- Node3&#45;&gt;Node25 -->
<g id="edge29_Node000003_Node000025" class="edge">
<title>Node3&#45;&gt;Node25</title>
<g id="a_edge29_Node000003_Node000025"><a xlink:title=" ">
<path fill="none" stroke="#63b8ff" d="M1226.11,-115.41C1147.75,-109.09 966.82,-93.6 815.5,-74 812.73,-73.64 809.88,-73.25 807,-72.84"/>
<polygon fill="#63b8ff" stroke="#63b8ff" points="1226.23,-118.93 1236.48,-116.24 1226.79,-111.95 1226.23,-118.93"/>
</a>
</g>
</g>
<!-- Node27 -->
<g id="Node000027" class="node">
<title>Node27</title>
<g id="a_Node000027"><a xlink:href="PCF8523Sensor_8h.html" target="_top" xlink:title=" ">
<polygon fill="white" stroke="#666666" points="926,-74 825,-74 825,-55 926,-55 926,-74"/>
<text text-anchor="middle" x="875.5" y="-62" font-family="Helvetica,sans-Serif" font-size="10.00">PCF8523Sensor.h</text>
</a>
</g>
</g>
<!-- Node3&#45;&gt;Node27 -->
<g id="edge32_Node000003_Node000027" class="edge">
<title>Node3&#45;&gt;Node27</title>
<g id="a_edge32_Node000003_Node000027"><a xlink:title=" ">
<path fill="none" stroke="#63b8ff" d="M1226.26,-113.3C1164.42,-105.07 1040.52,-88.52 935.5,-74 932.48,-73.58 929.37,-73.15 926.24,-72.71"/>
<polygon fill="#63b8ff" stroke="#63b8ff" points="1225.98,-116.79 1236.36,-114.64 1226.9,-109.85 1225.98,-116.79"/>
</a>
</g>
</g>
<!-- Node29 -->
<g id="Node000029" class="node">
<title>Node29</title>
<g id="a_Node000029"><a xlink:href="SCD40Sensor_8h.html" target="_top" xlink:title=" ">
<polygon fill="white" stroke="#666666" points="1034.5,-74 944.5,-74 944.5,-55 1034.5,-55 1034.5,-74"/>
<text text-anchor="middle" x="989.5" y="-62" font-family="Helvetica,sans-Serif" font-size="10.00">SCD40Sensor.h</text>
</a>
</g>
</g>
<!-- Node3&#45;&gt;Node29 -->
<g id="edge35_Node000003_Node000029" class="edge">
<title>Node3&#45;&gt;Node29</title>
<g id="a_edge35_Node000003_Node000029"><a xlink:title=" ">
<path fill="none" stroke="#63b8ff" d="M1226.56,-111.02C1175.82,-101.28 1087.3,-84.28 1033.97,-74.04"/>
<polygon fill="#63b8ff" stroke="#63b8ff" points="1226,-114.48 1236.48,-112.93 1227.32,-107.61 1226,-114.48"/>
</a>
</g>
</g>
<!-- Node31 -->
<g id="Node000031" class="node">
<title>Node31</title>
<g id="a_Node000031"><a xlink:href="SGP30Sensor_8h.html" target="_top" xlink:title=" ">
<polygon fill="white" stroke="#666666" points="653,-74 564,-74 564,-55 653,-55 653,-74"/>
<text text-anchor="middle" x="608.5" y="-62" font-family="Helvetica,sans-Serif" font-size="10.00">SGP30Sensor.h</text>
</a>
</g>
</g>
<!-- Node3&#45;&gt;Node31 -->
<g id="edge38_Node000003_Node000031" class="edge">
<title>Node3&#45;&gt;Node31</title>
<g id="a_edge38_Node000003_Node000031"><a xlink:title=" ">
<path fill="none" stroke="#63b8ff" d="M1226.05,-115.42C1134.91,-108.28 902.64,-90.01 708.5,-74 690.44,-72.51 670.55,-70.83 653.3,-69.36"/>
<polygon fill="#63b8ff" stroke="#63b8ff" points="1225.96,-118.92 1236.21,-116.21 1226.51,-111.94 1225.96,-118.92"/>
</a>
</g>
</g>
<!-- Node33 -->
<g id="Node000033" class="node">
<title>Node33</title>
<g id="a_Node000033"><a xlink:href="SHTC3Sensor_8h.html" target="_top" xlink:title=" ">
<polygon fill="white" stroke="#666666" points="1142,-74 1053,-74 1053,-55 1142,-55 1142,-74"/>
<text text-anchor="middle" x="1097.5" y="-62" font-family="Helvetica,sans-Serif" font-size="10.00">SHTC3Sensor.h</text>
</a>
</g>
</g>
<!-- Node3&#45;&gt;Node33 -->
<g id="edge40_Node000003_Node000033" class="edge">
<title>Node3&#45;&gt;Node33</title>
<g id="a_edge40_Node000003_Node000033"><a xlink:title=" ">
<path fill="none" stroke="#63b8ff" d="M1228.82,-106.93C1197.44,-97.03 1152.99,-83.01 1124.7,-74.08"/>
<polygon fill="#63b8ff" stroke="#63b8ff" points="1227.92,-110.31 1238.51,-109.98 1230.02,-103.64 1227.92,-110.31"/>
</a>
</g>
</g>
<!-- Node35 -->
<g id="Node000035" class="node">
<title>Node35</title>
<g id="a_Node000035"><a xlink:href="TMP117Sensor_8h.html" target="_top" xlink:title=" ">
<polygon fill="white" stroke="#666666" points="1257,-74 1160,-74 1160,-55 1257,-55 1257,-74"/>
<text text-anchor="middle" x="1208.5" y="-62" font-family="Helvetica,sans-Serif" font-size="10.00">TMP117Sensor.h</text>
</a>
</g>
</g>
<!-- Node3&#45;&gt;Node35 -->
<g id="edge44_Node000003_Node000035" class="edge">
<title>Node3&#45;&gt;Node35</title>
<g id="a_edge44_Node000003_Node000035"><a xlink:title=" ">
<path fill="none" stroke="#63b8ff" d="M1248.88,-103.04C1238.77,-93.64 1226.22,-81.98 1217.82,-74.17"/>
<polygon fill="#63b8ff" stroke="#63b8ff" points="1246.64,-105.74 1256.34,-109.98 1251.4,-100.61 1246.64,-105.74"/>
</a>
</g>
</g>
<!-- Node37 -->
<g id="Node000037" class="node">
<title>Node37</title>
<g id="a_Node000037"><a xlink:href="TempSensor_8h.html" target="_top" xlink:title=" ">
<polygon fill="white" stroke="#666666" points="1472.5,-74 1388.5,-74 1388.5,-55 1472.5,-55 1472.5,-74"/>
<text text-anchor="middle" x="1430.5" y="-62" font-family="Helvetica,sans-Serif" font-size="10.00">TempSensor.h</text>
</a>
</g>
</g>
<!-- Node3&#45;&gt;Node37 -->
<g id="edge48_Node000003_Node000037" class="edge">
<title>Node3&#45;&gt;Node37</title>
<g id="a_edge48_Node000003_Node000037"><a xlink:title=" ">
<path fill="none" stroke="#63b8ff" d="M1301.93,-106.8C1332.72,-96.91 1376.12,-82.97 1403.78,-74.08"/>
<polygon fill="#63b8ff" stroke="#63b8ff" points="1300.46,-103.59 1292.01,-109.98 1302.6,-110.26 1300.46,-103.59"/>
</a>
</g>
</g>
<!-- Node5 -->
<g id="Node000005" class="node">
<title>Node5</title>
<g id="a_Node000005"><a xlink:href="AS7331Sensor_8cpp.html" target="_top" xlink:title=" ">
<polygon fill="white" stroke="#666666" points="1669.5,-19 1563.5,-19 1563.5,0 1669.5,0 1669.5,-19"/>
<text text-anchor="middle" x="1616.5" y="-7" font-family="Helvetica,sans-Serif" font-size="10.00">AS7331Sensor.cpp</text>
</a>
</g>
</g>
<!-- Node4&#45;&gt;Node5 -->
<g id="edge4_Node000004_Node000005" class="edge">
<title>Node4&#45;&gt;Node5</title>
<g id="a_edge4_Node000004_Node000005"><a xlink:title=" ">
<path fill="none" stroke="#63b8ff" d="M1589.2,-46.67C1596.13,-37.5 1604.41,-26.52 1610.02,-19.09"/>
<polygon fill="#63b8ff" stroke="#63b8ff" points="1586.34,-44.66 1583.11,-54.75 1591.92,-48.87 1586.34,-44.66"/>
</a>
</g>
</g>
<!-- Node4&#45;&gt;Node6 -->
<g id="edge5_Node000004_Node000006" class="edge">
<title>Node4&#45;&gt;Node6</title>
<g id="a_edge5_Node000004_Node000006"><a xlink:title=" ">
<path fill="none" stroke="#63b8ff" d="M1558.75,-48.32C1547.69,-38.87 1533.87,-27.06 1524.64,-19.17"/>
<polygon fill="#63b8ff" stroke="#63b8ff" points="1556.66,-51.15 1566.54,-54.98 1561.21,-45.83 1556.66,-51.15"/>
</a>
</g>
</g>
<!-- Node8 -->
<g id="Node000008" class="node">
<title>Node8</title>
<g id="a_Node000008"><a xlink:href="BME280Sensor_8cpp.html" target="_top" xlink:title=" ">
<polygon fill="white" stroke="#666666" points="109,-19 0,-19 0,0 109,0 109,-19"/>
<text text-anchor="middle" x="54.5" y="-7" font-family="Helvetica,sans-Serif" font-size="10.00">BME280Sensor.cpp</text>
</a>
</g>
</g>
<!-- Node7&#45;&gt;Node8 -->
<g id="edge7_Node000007_Node000008" class="edge">
<title>Node7&#45;&gt;Node8</title>
<g id="a_edge7_Node000007_Node000008"><a xlink:title=" ">
<path fill="none" stroke="#63b8ff" d="M61.65,-44.95C59.82,-36.15 57.73,-26.06 56.28,-19.09"/>
<polygon fill="#63b8ff" stroke="#63b8ff" points="58.22,-45.67 63.68,-54.75 65.08,-44.25 58.22,-45.67"/>
</a>
</g>
</g>
<!-- Node10 -->
<g id="Node000010" class="node">
<title>Node10</title>
<g id="a_Node000010"><a xlink:href="BME680Sensor_8cpp.html" target="_top" xlink:title=" ">
<polygon fill="white" stroke="#666666" points="236,-19 127,-19 127,0 236,0 236,-19"/>
<text text-anchor="middle" x="181.5" y="-7" font-family="Helvetica,sans-Serif" font-size="10.00">BME680Sensor.cpp</text>
</a>
</g>
</g>
<!-- Node9&#45;&gt;Node10 -->
<g id="edge9_Node000009_Node000010" class="edge">
<title>Node9&#45;&gt;Node10</title>
<g id="a_edge9_Node000009_Node000010"><a xlink:title=" ">
<path fill="none" stroke="#63b8ff" d="M184.72,-44.66C183.9,-35.93 182.96,-25.99 182.31,-19.09"/>
<polygon fill="#63b8ff" stroke="#63b8ff" points="181.25,-45.12 185.67,-54.75 188.22,-44.46 181.25,-45.12"/>
</a>
</g>
</g>
<!-- Node11&#45;&gt;Node6 -->
<g id="edge12_Node000011_Node000006" class="edge">
<title>Node11&#45;&gt;Node6</title>
<g id="a_edge12_Node000011_Node000006"><a xlink:title=" ">
<path fill="none" stroke="#63b8ff" d="M1653.28,-52.06C1620.2,-42.15 1573.09,-28.04 1543.16,-19.08"/>
<polygon fill="#63b8ff" stroke="#63b8ff" points="1652.48,-55.47 1663.06,-54.98 1654.49,-48.76 1652.48,-55.47"/>
</a>
</g>
</g>
<!-- Node12 -->
<g id="Node000012" class="node">
<title>Node12</title>
<g id="a_Node000012"><a xlink:href="BMP390Sensor_8cpp.html" target="_top" xlink:title=" ">
<polygon fill="white" stroke="#666666" points="1797,-19 1688,-19 1688,0 1797,0 1797,-19"/>
<text text-anchor="middle" x="1742.5" y="-7" font-family="Helvetica,sans-Serif" font-size="10.00">BMP390Sensor.cpp</text>
</a>
</g>
</g>
<!-- Node11&#45;&gt;Node12 -->
<g id="edge11_Node000011_Node000012" class="edge">
<title>Node11&#45;&gt;Node12</title>
<g id="a_edge11_Node000011_Node000012"><a xlink:title=" ">
<path fill="none" stroke="#63b8ff" d="M1706.88,-47.52C1715.87,-38.18 1726.86,-26.75 1734.24,-19.09"/>
<polygon fill="#63b8ff" stroke="#63b8ff" points="1704.33,-45.12 1699.92,-54.75 1709.38,-49.97 1704.33,-45.12"/>
</a>
</g>
</g>
<!-- Node14 -->
<g id="Node000014" class="node">
<title>Node14</title>
<g id="a_Node000014"><a xlink:href="DS3231Sensor_8cpp.html" target="_top" xlink:title=" ">
<polygon fill="white" stroke="#666666" points="361,-19 254,-19 254,0 361,0 361,-19"/>
<text text-anchor="middle" x="307.5" y="-7" font-family="Helvetica,sans-Serif" font-size="10.00">DS3231Sensor.cpp</text>
</a>
</g>
</g>
<!-- Node13&#45;&gt;Node14 -->
<g id="edge14_Node000013_Node000014" class="edge">
<title>Node13&#45;&gt;Node14</title>
<g id="a_edge14_Node000013_Node000014"><a xlink:title=" ">
<path fill="none" stroke="#63b8ff" d="M310.72,-44.66C309.9,-35.93 308.96,-25.99 308.31,-19.09"/>
<polygon fill="#63b8ff" stroke="#63b8ff" points="307.25,-45.12 311.67,-54.75 314.22,-44.46 307.25,-45.12"/>
</a>
</g>
</g>
<!-- Node15&#45;&gt;Node6 -->
<g id="edge17_Node000015_Node000006" class="edge">
<title>Node15&#45;&gt;Node6</title>
<g id="a_edge17_Node000015_Node000006"><a xlink:title=" ">
<path fill="none" stroke="#63b8ff" d="M1363.03,-52.31C1398.96,-42.39 1450.66,-28.12 1483.41,-19.08"/>
<polygon fill="#63b8ff" stroke="#63b8ff" points="1362.06,-48.95 1353.35,-54.98 1363.92,-55.7 1362.06,-48.95"/>
</a>
</g>
</g>
<!-- Node16 -->
<g id="Node000016" class="node">
<title>Node16</title>
<g id="a_Node000016"><a xlink:href="ENS160Sensor_8cpp.html" target="_top" xlink:title=" ">
<polygon fill="white" stroke="#666666" points="1352,-19 1245,-19 1245,0 1352,0 1352,-19"/>
<text text-anchor="middle" x="1298.5" y="-7" font-family="Helvetica,sans-Serif" font-size="10.00">ENS160Sensor.cpp</text>
</a>
</g>
</g>
<!-- Node15&#45;&gt;Node16 -->
<g id="edge16_Node000015_Node000016" class="edge">
<title>Node15&#45;&gt;Node16</title>
<g id="a_edge16_Node000015_Node000016"><a xlink:title=" ">
<path fill="none" stroke="#63b8ff" d="M1314.36,-45.53C1310.32,-36.6 1305.62,-26.22 1302.39,-19.09"/>
<polygon fill="#63b8ff" stroke="#63b8ff" points="1311.22,-47.08 1318.54,-54.75 1317.6,-44.19 1311.22,-47.08"/>
</a>
</g>
</g>
<!-- Node17&#45;&gt;Node6 -->
<g id="edge20_Node000017_Node000006" class="edge">
<title>Node17&#45;&gt;Node6</title>
<g id="a_edge20_Node000017_Node000006"><a xlink:title=" ">
<path fill="none" stroke="#63b8ff" d="M1749.39,-53.31C1697.08,-44.7 1620.82,-31.76 1554.5,-19 1551.71,-18.46 1548.82,-17.89 1545.92,-17.3"/>
<polygon fill="#63b8ff" stroke="#63b8ff" points="1749.09,-56.81 1759.52,-54.98 1750.22,-49.9 1749.09,-56.81"/>
</a>
</g>
</g>
<!-- Node18 -->
<g id="Node000018" class="node">
<title>Node18</title>
<g id="a_Node000018"><a xlink:href="ICM20948Sensor_8cpp.html" target="_top" xlink:title=" ">
<polygon fill="white" stroke="#666666" points="1933.5,-19 1815.5,-19 1815.5,0 1933.5,0 1933.5,-19"/>
<text text-anchor="middle" x="1874.5" y="-7" font-family="Helvetica,sans-Serif" font-size="10.00">ICM20948Sensor.cpp</text>
</a>
</g>
</g>
<!-- Node17&#45;&gt;Node18 -->
<g id="edge19_Node000017_Node000018" class="edge">
<title>Node17&#45;&gt;Node18</title>
<g id="a_edge19_Node000017_Node000018"><a xlink:title=" ">
<path fill="none" stroke="#63b8ff" d="M1830.25,-48.32C1841.31,-38.87 1855.13,-27.06 1864.36,-19.17"/>
<polygon fill="#63b8ff" stroke="#63b8ff" points="1827.79,-45.83 1822.46,-54.98 1832.34,-51.15 1827.79,-45.83"/>
</a>
</g>
</g>
<!-- Node19&#45;&gt;Node6 -->
<g id="edge23_Node000019_Node000006" class="edge">
<title>Node19&#45;&gt;Node6</title>
<g id="a_edge23_Node000019_Node000006"><a xlink:title=" ">
<path fill="none" stroke="#63b8ff" d="M1873.74,-54.82C1731.48,-36.28 1693.03,-41.43 1554.5,-19 1551.7,-18.55 1548.79,-18.03 1545.89,-17.47"/>
<polygon fill="#63b8ff" stroke="#63b8ff" points="1873.34,-58.3 1883.71,-56.13 1874.25,-51.36 1873.34,-58.3"/>
</a>
</g>
</g>
<!-- Node20 -->
<g id="Node000020" class="node">
<title>Node20</title>
<g id="a_Node000020"><a xlink:href="INA260Sensor_8cpp.html" target="_top" xlink:title=" ">
<polygon fill="white" stroke="#666666" points="2055.5,-19 1951.5,-19 1951.5,0 2055.5,0 2055.5,-19"/>
<text text-anchor="middle" x="2003.5" y="-7" font-family="Helvetica,sans-Serif" font-size="10.00">INA260Sensor.cpp</text>
</a>
</g>
</g>
<!-- Node19&#45;&gt;Node20 -->
<g id="edge22_Node000019_Node000020" class="edge">
<title>Node19&#45;&gt;Node20</title>
<g id="a_edge22_Node000019_Node000020"><a xlink:title=" ">
<path fill="none" stroke="#63b8ff" d="M1950.64,-48.88C1963.78,-39.34 1980.48,-27.21 1991.56,-19.17"/>
<polygon fill="#63b8ff" stroke="#63b8ff" points="1948.26,-46.28 1942.23,-54.98 1952.38,-51.94 1948.26,-46.28"/>
</a>
</g>
</g>
<!-- Node22 -->
<g id="Node000022" class="node">
<title>Node22</title>
<g id="a_Node000022"><a xlink:href="LSM9DS1Sensor_8cpp.html" target="_top" xlink:title=" ">
<polygon fill="white" stroke="#666666" points="494,-19 379,-19 379,0 494,0 494,-19"/>
<text text-anchor="middle" x="436.5" y="-7" font-family="Helvetica,sans-Serif" font-size="10.00">LSM9DS1Sensor.cpp</text>
</a>
</g>
</g>
<!-- Node21&#45;&gt;Node22 -->
<g id="edge25_Node000021_Node000022" class="edge">
<title>Node21&#45;&gt;Node22</title>
<g id="a_edge25_Node000021_Node000022"><a xlink:title=" ">
<path fill="none" stroke="#63b8ff" d="M439.72,-44.66C438.9,-35.93 437.96,-25.99 437.31,-19.09"/>
<polygon fill="#63b8ff" stroke="#63b8ff" points="436.25,-45.12 440.67,-54.75 443.22,-44.46 436.25,-45.12"/>
</a>
</g>
</g>
<!-- Node23&#45;&gt;Node6 -->
<g id="edge28_Node000023_Node000006" class="edge">
<title>Node23&#45;&gt;Node6</title>
<g id="a_edge28_Node000023_Node000006"><a xlink:title=" ">
<path fill="none" stroke="#63b8ff" d="M2023.32,-55.4C2022.03,-55.26 2020.76,-55.13 2019.5,-55 1813.31,-33.75 1759.66,-48.61 1554.5,-19 1551.69,-18.59 1548.78,-18.11 1545.87,-17.58"/>
<polygon fill="#63b8ff" stroke="#63b8ff" points="2022.96,-58.88 2033.29,-56.53 2023.74,-51.93 2022.96,-58.88"/>
</a>
</g>
</g>
<!-- Node24 -->
<g id="Node000024" class="node">
<title>Node24</title>
<g id="a_Node000024"><a xlink:href="MTK3339Sensor_8cpp.html" target="_top" xlink:title=" ">
<polygon fill="white" stroke="#666666" points="2189,-19 2074,-19 2074,0 2189,0 2189,-19"/>
<text text-anchor="middle" x="2131.5" y="-7" font-family="Helvetica,sans-Serif" font-size="10.00">MTK3339Sensor.cpp</text>
</a>
</g>
</g>
<!-- Node23&#45;&gt;Node24 -->
<g id="edge27_Node000023_Node000024" class="edge">
<title>Node23&#45;&gt;Node24</title>
<g id="a_edge27_Node000023_Node000024"><a xlink:title=" ">
<path fill="none" stroke="#63b8ff" d="M2099.86,-46.96C2107.87,-37.72 2117.53,-26.6 2124.05,-19.09"/>
<polygon fill="#63b8ff" stroke="#63b8ff" points="2097.01,-44.9 2093.1,-54.75 2102.29,-49.49 2097.01,-44.9"/>
</a>
</g>
</g>
<!-- Node25&#45;&gt;Node6 -->
<g id="edge31_Node000025_Node000006" class="edge">
<title>Node25&#45;&gt;Node6</title>
<g id="a_edge31_Node000025_Node000006"><a xlink:title=" ">
<path fill="none" stroke="#63b8ff" d="M817.28,-54.92C1108.45,-24.5 1186.33,-56.41 1473.5,-19 1476.67,-18.59 1479.96,-18.06 1483.24,-17.48"/>
<polygon fill="#63b8ff" stroke="#63b8ff" points="816.85,-51.45 807.28,-55.98 817.59,-58.41 816.85,-51.45"/>
</a>
</g>
</g>
<!-- Node26 -->
<g id="Node000026" class="node">
<title>Node26</title>
<g id="a_Node000026"><a xlink:href="OzoneSensor_8cpp.html" target="_top" xlink:title=" ">
<polygon fill="white" stroke="#666666" points="731.5,-19 631.5,-19 631.5,0 731.5,0 731.5,-19"/>
<text text-anchor="middle" x="681.5" y="-7" font-family="Helvetica,sans-Serif" font-size="10.00">OzoneSensor.cpp</text>
</a>
</g>
</g>
<!-- Node25&#45;&gt;Node26 -->
<g id="edge30_Node000025_Node000026" class="edge">
<title>Node25&#45;&gt;Node26</title>
<g id="a_edge30_Node000025_Node000026"><a xlink:title=" ">
<path fill="none" stroke="#63b8ff" d="M740.99,-49.42C726.29,-39.81 707.28,-27.37 694.75,-19.17"/>
<polygon fill="#63b8ff" stroke="#63b8ff" points="739.2,-52.44 749.49,-54.98 743.03,-46.58 739.2,-52.44"/>
</a>
</g>
</g>
<!-- Node27&#45;&gt;Node6 -->
<g id="edge34_Node000027_Node000006" class="edge">
<title>Node27&#45;&gt;Node6</title>
<g id="a_edge34_Node000027_Node000006"><a xlink:title=" ">
<path fill="none" stroke="#63b8ff" d="M936.26,-55.01C1175.59,-30.75 1239.3,-50.96 1473.5,-19 1476.67,-18.57 1479.96,-18.03 1483.24,-17.44"/>
<polygon fill="#63b8ff" stroke="#63b8ff" points="935.8,-51.54 926.21,-56.05 936.51,-58.51 935.8,-51.54"/>
</a>
</g>
</g>
<!-- Node28 -->
<g id="Node000028" class="node">
<title>Node28</title>
<g id="a_Node000028"><a xlink:href="PCF8523Sensor_8cpp.html" target="_top" xlink:title=" ">
<polygon fill="white" stroke="#666666" points="861.5,-19 749.5,-19 749.5,0 861.5,0 861.5,-19"/>
<text text-anchor="middle" x="805.5" y="-7" font-family="Helvetica,sans-Serif" font-size="10.00">PCF8523Sensor.cpp</text>
</a>
</g>
</g>
<!-- Node27&#45;&gt;Node28 -->
<g id="edge33_Node000027_Node000028" class="edge">
<title>Node27&#45;&gt;Node28</title>
<g id="a_edge33_Node000027_Node000028"><a xlink:title=" ">
<path fill="none" stroke="#63b8ff" d="M856.19,-48.88C843.59,-39.34 827.57,-27.21 816.95,-19.17"/>
<polygon fill="#63b8ff" stroke="#63b8ff" points="854.17,-51.74 864.25,-54.98 858.39,-46.16 854.17,-51.74"/>
</a>
</g>
</g>
<!-- Node29&#45;&gt;Node6 -->
<g id="edge37_Node000029_Node000006" class="edge">
<title>Node29&#45;&gt;Node6</title>
<g id="a_edge37_Node000029_Node000006"><a xlink:title=" ">
<path fill="none" stroke="#63b8ff" d="M1044.64,-54.96C1235.65,-32.56 1286.95,-46.05 1473.5,-19 1476.67,-18.54 1479.95,-17.99 1483.23,-17.39"/>
<polygon fill="#63b8ff" stroke="#63b8ff" points="1044.06,-51.5 1034.55,-56.16 1044.89,-58.45 1044.06,-51.5"/>
</a>
</g>
</g>
<!-- Node30 -->
<g id="Node000030" class="node">
<title>Node30</title>
<g id="a_Node000030"><a xlink:href="SCD40Sensor_8cpp.html" target="_top" xlink:title=" ">
<polygon fill="white" stroke="#666666" points="981,-19 880,-19 880,0 981,0 981,-19"/>
<text text-anchor="middle" x="930.5" y="-7" font-family="Helvetica,sans-Serif" font-size="10.00">SCD40Sensor.cpp</text>
</a>
</g>
</g>
<!-- Node29&#45;&gt;Node30 -->
<g id="edge36_Node000029_Node000030" class="edge">
<title>Node29&#45;&gt;Node30</title>
<g id="a_edge36_Node000029_Node000030"><a xlink:title=" ">
<path fill="none" stroke="#63b8ff" d="M972.3,-48.04C961.83,-38.64 948.85,-26.98 940.15,-19.17"/>
<polygon fill="#63b8ff" stroke="#63b8ff" points="970.24,-50.91 980.02,-54.98 974.92,-45.7 970.24,-50.91"/>
</a>
</g>
</g>
<!-- Node32 -->
<g id="Node000032" class="node">
<title>Node32</title>
<g id="a_Node000032"><a xlink:href="SGP30Sensor_8cpp.html" target="_top" xlink:title=" ">
<polygon fill="white" stroke="#666666" points="613,-19 512,-19 512,0 613,0 613,-19"/>
<text text-anchor="middle" x="562.5" y="-7" font-family="Helvetica,sans-Serif" font-size="10.00">SGP30Sensor.cpp</text>
</a>
</g>
</g>
<!-- Node31&#45;&gt;Node32 -->
<g id="edge39_Node000031_Node000032" class="edge">
<title>Node31&#45;&gt;Node32</title>
<g id="a_edge39_Node000031_Node000032"><a xlink:title=" ">
<path fill="none" stroke="#63b8ff" d="M594.14,-46.96C586.13,-37.72 576.47,-26.6 569.95,-19.09"/>
<polygon fill="#63b8ff" stroke="#63b8ff" points="591.71,-49.49 600.9,-54.75 596.99,-44.9 591.71,-49.49"/>
</a>
</g>
</g>
<!-- Node33&#45;&gt;Node6 -->
<g id="edge43_Node000033_Node000006" class="edge">
<title>Node33&#45;&gt;Node6</title>
<g id="a_edge43_Node000033_Node000006"><a xlink:title=" ">
<path fill="none" stroke="#63b8ff" d="M1152.06,-54.85C1295.36,-35.82 1334.05,-41.18 1473.5,-19 1476.66,-18.5 1479.94,-17.92 1483.22,-17.3"/>
<polygon fill="#63b8ff" stroke="#63b8ff" points="1151.45,-51.4 1142.01,-56.2 1152.39,-58.34 1151.45,-51.4"/>
</a>
</g>
</g>
<!-- Node33&#45;&gt;Node16 -->
<g id="edge41_Node000033_Node000016" class="edge">
<title>Node33&#45;&gt;Node16</title>
<g id="a_edge41_Node000033_Node000016"><a xlink:title=" ">
<path fill="none" stroke="#63b8ff" d="M1139.93,-52.31C1177.54,-42.39 1231.67,-28.12 1265.95,-19.08"/>
<polygon fill="#63b8ff" stroke="#63b8ff" points="1138.57,-49.05 1129.79,-54.98 1140.36,-55.82 1138.57,-49.05"/>
</a>
</g>
</g>
<!-- Node34 -->
<g id="Node000034" class="node">
<title>Node34</title>
<g id="a_Node000034"><a xlink:href="SHTC3Sensor_8cpp.html" target="_top" xlink:title=" ">
<polygon fill="white" stroke="#666666" points="1100,-19 999,-19 999,0 1100,0 1100,-19"/>
<text text-anchor="middle" x="1049.5" y="-7" font-family="Helvetica,sans-Serif" font-size="10.00">SHTC3Sensor.cpp</text>
</a>
</g>
</g>
<!-- Node33&#45;&gt;Node34 -->
<g id="edge42_Node000033_Node000034" class="edge">
<title>Node33&#45;&gt;Node34</title>
<g id="a_edge42_Node000033_Node000034"><a xlink:title=" ">
<path fill="none" stroke="#63b8ff" d="M1082.77,-47.24C1074.36,-37.95 1064.15,-26.68 1057.28,-19.09"/>
<polygon fill="#63b8ff" stroke="#63b8ff" points="1080.27,-49.69 1089.57,-54.75 1085.46,-44.99 1080.27,-49.69"/>
</a>
</g>
</g>
<!-- Node35&#45;&gt;Node6 -->
<g id="edge47_Node000035_Node000006" class="edge">
<title>Node35&#45;&gt;Node6</title>
<g id="a_edge47_Node000035_Node000006"><a xlink:title=" ">
<path fill="none" stroke="#63b8ff" d="M1267.48,-54.26C1321.26,-45.67 1402.86,-32.25 1473.5,-19 1476.64,-18.41 1479.92,-17.77 1483.19,-17.12"/>
<polygon fill="#63b8ff" stroke="#63b8ff" points="1266.77,-50.82 1257.44,-55.85 1267.87,-57.74 1266.77,-50.82"/>
</a>
</g>
</g>
<!-- Node35&#45;&gt;Node16 -->
<g id="edge45_Node000035_Node000016" class="edge">
<title>Node35&#45;&gt;Node16</title>
<g id="a_edge45_Node000035_Node000016"><a xlink:title=" ">
<path fill="none" stroke="#63b8ff" d="M1231.94,-49.7C1248.34,-40.04 1269.73,-27.44 1283.78,-19.17"/>
<polygon fill="#63b8ff" stroke="#63b8ff" points="1229.8,-46.89 1222.96,-54.98 1233.35,-52.93 1229.8,-46.89"/>
</a>
</g>
</g>
<!-- Node36 -->
<g id="Node000036" class="node">
<title>Node36</title>
<g id="a_Node000036"><a xlink:href="TMP117Sensor_8cpp.html" target="_top" xlink:title=" ">
<polygon fill="white" stroke="#666666" points="1226.5,-19 1118.5,-19 1118.5,0 1226.5,0 1226.5,-19"/>
<text text-anchor="middle" x="1172.5" y="-7" font-family="Helvetica,sans-Serif" font-size="10.00">TMP117Sensor.cpp</text>
</a>
</g>
</g>
<!-- Node35&#45;&gt;Node36 -->
<g id="edge46_Node000035_Node000036" class="edge">
<title>Node35&#45;&gt;Node36</title>
<g id="a_edge46_Node000035_Node000036"><a xlink:title=" ">
<path fill="none" stroke="#63b8ff" d="M1196.88,-46.39C1190.68,-37.27 1183.33,-26.45 1178.33,-19.09"/>
<polygon fill="#63b8ff" stroke="#63b8ff" points="1194.04,-48.44 1202.56,-54.75 1199.83,-44.51 1194.04,-48.44"/>
</a>
</g>
</g>
<!-- Node37&#45;&gt;Node6 -->
<g id="edge50_Node000037_Node000006" class="edge">
<title>Node37&#45;&gt;Node6</title>
<g id="a_edge50_Node000037_Node000006"><a xlink:title=" ">
<path fill="none" stroke="#63b8ff" d="M1452.81,-49.42C1468.05,-39.81 1487.77,-27.37 1500.76,-19.17"/>
<polygon fill="#63b8ff" stroke="#63b8ff" points="1450.59,-46.69 1444,-54.98 1454.32,-52.61 1450.59,-46.69"/>
</a>
</g>
</g>
<!-- Node38 -->
<g id="Node000038" class="node">
<title>Node38</title>
<g id="a_Node000038"><a xlink:href="TempSensor_8cpp.html" target="_top" xlink:title=" ">
<polygon fill="white" stroke="#666666" points="1465,-19 1370,-19 1370,0 1465,0 1465,-19"/>
<text text-anchor="middle" x="1417.5" y="-7" font-family="Helvetica,sans-Serif" font-size="10.00">TempSensor.cpp</text>
</a>
</g>
</g>
<!-- Node37&#45;&gt;Node38 -->
<g id="edge49_Node000037_Node000038" class="edge">
<title>Node37&#45;&gt;Node38</title>
<g id="a_edge49_Node000037_Node000038"><a xlink:title=" ">
<path fill="none" stroke="#63b8ff" d="M1425.95,-44.95C1423.79,-36.15 1421.32,-26.06 1419.61,-19.09"/>
<polygon fill="#63b8ff" stroke="#63b8ff" points="1422.57,-45.87 1428.35,-54.75 1429.37,-44.2 1422.57,-45.87"/>
</a>
</g>
</g>
<!-- Node40 -->
<g id="Node000040" class="node">
<title>Node40</title>
<g id="a_Node000040"><a xlink:href="FlashStorage_8h.html" target="_top" xlink:title=" ">
<polygon fill="white" stroke="#666666" points="2303,-74 2214,-74 2214,-55 2303,-55 2303,-74"/>
<text text-anchor="middle" x="2258.5" y="-62" font-family="Helvetica,sans-Serif" font-size="10.00">FlashStorage.h</text>
</a>
</g>
</g>
<!-- Node39&#45;&gt;Node40 -->
<g id="edge53_Node000039_Node000040" class="edge">
<title>Node39&#45;&gt;Node40</title>
<g id="a_edge53_Node000039_Node000040"><a xlink:title=" ">
<path fill="none" stroke="#63b8ff" d="M2296.22,-102.52C2286.7,-93.18 2275.06,-81.75 2267.25,-74.09"/>
<polygon fill="#63b8ff" stroke="#63b8ff" points="2293.99,-105.24 2303.58,-109.75 2298.9,-100.25 2293.99,-105.24"/>
</a>
</g>
</g>
<!-- Node39&#45;&gt;Node42 -->
<g id="edge63_Node000039_Node000042" class="edge">
<title>Node39&#45;&gt;Node42</title>
<g id="a_edge63_Node000039_Node000042"><a xlink:title=" ">
<path fill="none" stroke="#63b8ff" d="M2353.34,-106.84C2375.06,-99.48 2401.52,-88.58 2422.5,-74 2445.06,-58.32 2465.15,-32.37 2474.67,-19.02"/>
<polygon fill="#63b8ff" stroke="#63b8ff" points="2352.16,-103.54 2343.74,-109.97 2354.33,-110.2 2352.16,-103.54"/>
</a>
</g>
</g>
<!-- Node43 -->
<g id="Node000043" class="node">
<title>Node43</title>
<g id="a_Node000043"><a xlink:href="RadioStorage_8h.html" target="_top" xlink:title=" ">
<polygon fill="white" stroke="#666666" points="2413,-74 2322,-74 2322,-55 2413,-55 2413,-74"/>
<text text-anchor="middle" x="2367.5" y="-62" font-family="Helvetica,sans-Serif" font-size="10.00">RadioStorage.h</text>
</a>
</g>
</g>
<!-- Node39&#45;&gt;Node43 -->
<g id="edge57_Node000039_Node000043" class="edge">
<title>Node39&#45;&gt;Node43</title>
<g id="a_edge57_Node000039_Node000043"><a xlink:title=" ">
<path fill="none" stroke="#63b8ff" d="M2328.79,-102.8C2338.54,-93.41 2350.55,-81.83 2358.59,-74.09"/>
<polygon fill="#63b8ff" stroke="#63b8ff" points="2326.35,-100.29 2321.58,-109.75 2331.21,-105.33 2326.35,-100.29"/>
</a>
</g>
</g>
<!-- Node45 -->
<g id="Node000045" class="node">
<title>Node45</title>
<g id="a_Node000045"><a xlink:href="SDStorage_8h.html" target="_top" xlink:title=" ">
<polygon fill="white" stroke="#666666" points="2585,-74 2508,-74 2508,-55 2585,-55 2585,-74"/>
<text text-anchor="middle" x="2546.5" y="-62" font-family="Helvetica,sans-Serif" font-size="10.00">SDStorage.h</text>
</a>
</g>
</g>
<!-- Node39&#45;&gt;Node45 -->
<g id="edge60_Node000039_Node000045" class="edge">
<title>Node39&#45;&gt;Node45</title>
<g id="a_edge60_Node000039_Node000045"><a xlink:title=" ">
<path fill="none" stroke="#63b8ff" d="M2353.84,-109.14C2397.72,-99.2 2466.46,-83.63 2508.88,-74.02"/>
<polygon fill="#63b8ff" stroke="#63b8ff" points="2353.04,-105.73 2344.06,-111.35 2354.58,-112.56 2353.04,-105.73"/>
</a>
</g>
</g>
<!-- Node40&#45;&gt;Node6 -->
<g id="edge55_Node000040_Node000006" class="edge">
<title>Node40&#45;&gt;Node6</title>
<g id="a_edge55_Node000040_Node000006"><a xlink:title=" ">
<path fill="none" stroke="#63b8ff" d="M2203.68,-59.17C2185.49,-57.78 2165.13,-56.27 2146.5,-55 1883.52,-37.03 1815.7,-54.49 1554.5,-19 1551.69,-18.62 1548.77,-18.15 1545.87,-17.63"/>
<polygon fill="#63b8ff" stroke="#63b8ff" points="2203.58,-62.68 2213.82,-59.95 2204.12,-55.7 2203.58,-62.68"/>
</a>
</g>
</g>
<!-- Node41 -->
<g id="Node000041" class="node">
<title>Node41</title>
<g id="a_Node000041"><a xlink:href="FlashStorage_8cpp.html" target="_top" xlink:title=" ">
<polygon fill="white" stroke="#666666" points="2308,-19 2207,-19 2207,0 2308,0 2308,-19"/>
<text text-anchor="middle" x="2257.5" y="-7" font-family="Helvetica,sans-Serif" font-size="10.00">FlashStorage.cpp</text>
</a>
</g>
</g>
<!-- Node40&#45;&gt;Node41 -->
<g id="edge54_Node000040_Node000041" class="edge">
<title>Node40&#45;&gt;Node41</title>
<g id="a_edge54_Node000040_Node000041"><a xlink:title=" ">
<path fill="none" stroke="#63b8ff" d="M2258.14,-44.66C2257.98,-35.93 2257.79,-25.99 2257.66,-19.09"/>
<polygon fill="#63b8ff" stroke="#63b8ff" points="2254.65,-44.82 2258.33,-54.75 2261.65,-44.68 2254.65,-44.82"/>
</a>
</g>
</g>
<!-- Node40&#45;&gt;Node42 -->
<g id="edge56_Node000040_Node000042" class="edge">
<title>Node40&#45;&gt;Node42</title>
<g id="a_edge56_Node000040_Node000042"><a xlink:title=" ">
<path fill="none" stroke="#63b8ff" d="M2303.93,-52.65C2346.18,-42.57 2408.2,-27.76 2446.38,-18.65"/>
<polygon fill="#63b8ff" stroke="#63b8ff" points="2303.08,-49.26 2294.17,-54.98 2304.71,-56.07 2303.08,-49.26"/>
</a>
</g>
</g>
<!-- Node43&#45;&gt;Node42 -->
<g id="edge59_Node000043_Node000042" class="edge">
<title>Node43&#45;&gt;Node42</title>
<g id="a_edge59_Node000043_Node000042"><a xlink:title=" ">
<path fill="none" stroke="#63b8ff" d="M2394.93,-50.63C2415.75,-40.87 2443.8,-27.71 2462.01,-19.17"/>
<polygon fill="#63b8ff" stroke="#63b8ff" points="2393.22,-47.57 2385.66,-54.98 2396.2,-53.91 2393.22,-47.57"/>
</a>
</g>
</g>
<!-- Node44 -->
<g id="Node000044" class="node">
<title>Node44</title>
<g id="a_Node000044"><a xlink:href="RadioStorage_8cpp.html" target="_top" xlink:title=" ">
<polygon fill="white" stroke="#666666" points="2428.5,-19 2326.5,-19 2326.5,0 2428.5,0 2428.5,-19"/>
<text text-anchor="middle" x="2377.5" y="-7" font-family="Helvetica,sans-Serif" font-size="10.00">RadioStorage.cpp</text>
</a>
</g>
</g>
<!-- Node43&#45;&gt;Node44 -->
<g id="edge58_Node000043_Node000044" class="edge">
<title>Node43&#45;&gt;Node44</title>
<g id="a_edge58_Node000043_Node000044"><a xlink:title=" ">
<path fill="none" stroke="#63b8ff" d="M2371.05,-44.66C2372.7,-35.93 2374.58,-25.99 2375.88,-19.09"/>
<polygon fill="#63b8ff" stroke="#63b8ff" points="2367.57,-44.27 2369.15,-54.75 2374.44,-45.57 2367.57,-44.27"/>
</a>
</g>
</g>
<!-- Node45&#45;&gt;Node42 -->
<g id="edge62_Node000045_Node000042" class="edge">
<title>Node45&#45;&gt;Node42</title>
<g id="a_edge62_Node000045_Node000042"><a xlink:title=" ">
<path fill="none" stroke="#63b8ff" d="M2527.95,-48.6C2516.12,-39.11 2501.21,-27.13 2491.3,-19.17"/>
<polygon fill="#63b8ff" stroke="#63b8ff" points="2525.91,-51.45 2535.9,-54.98 2530.29,-45.99 2525.91,-51.45"/>
</a>
</g>
</g>
<!-- Node46 -->
<g id="Node000046" class="node">
<title>Node46</title>
<g id="a_Node000046"><a xlink:href="SDStorage_8cpp.html" target="_top" xlink:title=" ">
<polygon fill="white" stroke="#666666" points="2620.5,-19 2532.5,-19 2532.5,0 2620.5,0 2620.5,-19"/>
<text text-anchor="middle" x="2576.5" y="-7" font-family="Helvetica,sans-Serif" font-size="10.00">SDStorage.cpp</text>
</a>
</g>
</g>
<!-- Node45&#45;&gt;Node46 -->
<g id="edge61_Node000045_Node000046" class="edge">
<title>Node45&#45;&gt;Node46</title>
<g id="a_edge61_Node000045_Node000046"><a xlink:title=" ">
<path fill="none" stroke="#63b8ff" d="M2556.51,-45.82C2561.6,-36.82 2567.56,-26.29 2571.64,-19.09"/>
<polygon fill="#63b8ff" stroke="#63b8ff" points="2553.33,-44.32 2551.45,-54.75 2559.43,-47.77 2553.33,-44.32"/>
</a>
</g>
</g>
</g>
</svg>
