<?xml version="1.0" encoding="UTF-8" standalone="no"?>
<!DOCTYPE svg PUBLIC "-//W3C//DTD SVG 1.1//EN"
 "http://www.w3.org/Graphics/SVG/1.1/DTD/svg11.dtd">
<!-- Generated by graphviz version 2.43.0 (0)
 -->
<!-- Title: Logger.h Pages: 1 -->
<svg width="2511pt" height="247pt"
 viewBox="0.00 0.00 2511.00 247.00" xmlns="http://www.w3.org/2000/svg" xmlns:xlink="http://www.w3.org/1999/xlink">
<g id="graph0" class="graph" transform="scale(1 1) rotate(0) translate(4 243)">
<title>Logger.h</title>
<!-- Node1 -->
<g id="Node000001" class="node">
<title>Node1</title>
<g id="a_Node000001"><a xlink:title=" ">
<polygon fill="#999999" stroke="#666666" points="1874,-239 1816,-239 1816,-220 1874,-220 1874,-239"/>
<text text-anchor="middle" x="1845" y="-227" font-family="Helvetica,sans-Serif" font-size="10.00">Logger.h</text>
</a>
</g>
</g>
<!-- Node2 -->
<g id="Node000002" class="node">
<title>Node2</title>
<g id="a_Node000002"><a xlink:href="Device_8h.html" target="_top" xlink:title=" ">
<polygon fill="white" stroke="#666666" points="1874.5,-184 1815.5,-184 1815.5,-165 1874.5,-165 1874.5,-184"/>
<text text-anchor="middle" x="1845" y="-172" font-family="Helvetica,sans-Serif" font-size="10.00">Device.h</text>
</a>
</g>
</g>
<!-- Node1&#45;&gt;Node2 -->
<g id="edge1_Node000001_Node000002" class="edge">
<title>Node1&#45;&gt;Node2</title>
<g id="a_edge1_Node000001_Node000002"><a xlink:title=" ">
<path fill="none" stroke="#63b8ff" d="M1845,-209.66C1845,-200.93 1845,-190.99 1845,-184.09"/>
<polygon fill="#63b8ff" stroke="#63b8ff" points="1841.5,-209.75 1845,-219.75 1848.5,-209.75 1841.5,-209.75"/>
</a>
</g>
</g>
<!-- Node3 -->
<g id="Node000003" class="node">
<title>Node3</title>
<g id="a_Node000003"><a xlink:href="Sensor_8h.html" target="_top" xlink:title=" ">
<polygon fill="white" stroke="#666666" points="1169,-129 1111,-129 1111,-110 1169,-110 1169,-129"/>
<text text-anchor="middle" x="1140" y="-117" font-family="Helvetica,sans-Serif" font-size="10.00">Sensor.h</text>
</a>
</g>
</g>
<!-- Node1&#45;&gt;Node3 -->
<g id="edge59_Node000001_Node000003" class="edge">
<title>Node1&#45;&gt;Node3</title>
<g id="a_edge59_Node000001_Node000003"><a xlink:title=" ">
<path fill="none" stroke="#63b8ff" d="M1805.52,-222.45C1678.21,-202.95 1280.33,-142 1169.13,-124.96"/>
<polygon fill="#63b8ff" stroke="#63b8ff" points="1805.19,-225.94 1815.6,-224 1806.25,-219.02 1805.19,-225.94"/>
</a>
</g>
</g>
<!-- Node6 -->
<g id="Node000006" class="node">
<title>Node6</title>
<g id="a_Node000006"><a xlink:href="main_8cpp.html" target="_top" xlink:title="Main functions for Core 0, responsible for reading data from sensor peripherals.">
<polygon fill="white" stroke="#666666" points="704,-19 642,-19 642,0 704,0 704,-19"/>
<text text-anchor="middle" x="673" y="-7" font-family="Helvetica,sans-Serif" font-size="10.00">main.cpp</text>
</a>
</g>
</g>
<!-- Node1&#45;&gt;Node6 -->
<g id="edge61_Node000001_Node000006" class="edge">
<title>Node1&#45;&gt;Node6</title>
<g id="a_edge61_Node000001_Node000006"><a xlink:title=" ">
<path fill="none" stroke="#63b8ff" d="M1805.15,-224.31C1733.46,-216.7 1577.97,-199.95 1447,-184 1075.43,-138.76 858.79,-355.44 612,-74 594.16,-53.66 630.15,-31.09 654.06,-19.1"/>
<polygon fill="#63b8ff" stroke="#63b8ff" points="1805.21,-227.83 1815.52,-225.4 1805.94,-220.87 1805.21,-227.83"/>
</a>
</g>
</g>
<!-- Node37 -->
<g id="Node000037" class="node">
<title>Node37</title>
<g id="a_Node000037"><a xlink:href="Storage_8h.html" target="_top" xlink:title=" ">
<polygon fill="white" stroke="#666666" points="2208.5,-129 2145.5,-129 2145.5,-110 2208.5,-110 2208.5,-129"/>
<text text-anchor="middle" x="2177" y="-117" font-family="Helvetica,sans-Serif" font-size="10.00">Storage.h</text>
</a>
</g>
</g>
<!-- Node1&#45;&gt;Node37 -->
<g id="edge60_Node000001_Node000037" class="edge">
<title>Node1&#45;&gt;Node37</title>
<g id="a_edge60_Node000001_Node000037"><a xlink:title=" ">
<path fill="none" stroke="#63b8ff" d="M1881.07,-216.77C1948.37,-194.87 2091.58,-148.29 2150.67,-129.07"/>
<polygon fill="#63b8ff" stroke="#63b8ff" points="1879.76,-213.51 1871.33,-219.94 1881.92,-220.17 1879.76,-213.51"/>
</a>
</g>
</g>
<!-- Node40 -->
<g id="Node000040" class="node">
<title>Node40</title>
<g id="a_Node000040"><a xlink:href="main1_8cpp.html" target="_top" xlink:title="Main functions for Core 1, responsible for sending data to storage peripherals.">
<polygon fill="white" stroke="#666666" points="2397,-19 2329,-19 2329,0 2397,0 2397,-19"/>
<text text-anchor="middle" x="2363" y="-7" font-family="Helvetica,sans-Serif" font-size="10.00">main1.cpp</text>
</a>
</g>
</g>
<!-- Node1&#45;&gt;Node40 -->
<g id="edge62_Node000001_Node000040" class="edge">
<title>Node1&#45;&gt;Node40</title>
<g id="a_edge62_Node000001_Node000040"><a xlink:title=" ">
<path fill="none" stroke="#63b8ff" d="M1884.42,-224.07C2003.1,-209.84 2352.91,-161.07 2419,-74 2434.64,-53.39 2402.31,-31.11 2380.57,-19.19"/>
<polygon fill="#63b8ff" stroke="#63b8ff" points="1883.84,-220.61 1874.32,-225.26 1884.66,-227.57 1883.84,-220.61"/>
</a>
</g>
</g>
<!-- Node2&#45;&gt;Node3 -->
<g id="edge2_Node000002_Node000003" class="edge">
<title>Node2&#45;&gt;Node3</title>
<g id="a_edge2_Node000002_Node000003"><a xlink:title=" ">
<path fill="none" stroke="#63b8ff" d="M1805.02,-170.49C1677.16,-160.88 1280.04,-131.03 1169.07,-122.69"/>
<polygon fill="#63b8ff" stroke="#63b8ff" points="1804.92,-174 1815.16,-171.26 1805.45,-167.02 1804.92,-174"/>
</a>
</g>
</g>
<!-- Node2&#45;&gt;Node37 -->
<g id="edge47_Node000002_Node000037" class="edge">
<title>Node2&#45;&gt;Node37</title>
<g id="a_edge47_Node000002_Node000037"><a xlink:title=" ">
<path fill="none" stroke="#63b8ff" d="M1884.87,-167.14C1951.57,-156.49 2084.43,-135.28 2145.26,-125.57"/>
<polygon fill="#63b8ff" stroke="#63b8ff" points="1884.08,-163.72 1874.75,-168.75 1885.18,-170.63 1884.08,-163.72"/>
</a>
</g>
</g>
<!-- Node4 -->
<g id="Node000004" class="node">
<title>Node4</title>
<g id="a_Node000004"><a xlink:href="AS7331Sensor_8h.html" target="_top" xlink:title=" ">
<polygon fill="white" stroke="#666666" points="1187.5,-74 1092.5,-74 1092.5,-55 1187.5,-55 1187.5,-74"/>
<text text-anchor="middle" x="1140" y="-62" font-family="Helvetica,sans-Serif" font-size="10.00">AS7331Sensor.h</text>
</a>
</g>
</g>
<!-- Node3&#45;&gt;Node4 -->
<g id="edge3_Node000003_Node000004" class="edge">
<title>Node3&#45;&gt;Node4</title>
<g id="a_edge3_Node000003_Node000004"><a xlink:title=" ">
<path fill="none" stroke="#63b8ff" d="M1140,-99.66C1140,-90.93 1140,-80.99 1140,-74.09"/>
<polygon fill="#63b8ff" stroke="#63b8ff" points="1136.5,-99.75 1140,-109.75 1143.5,-99.75 1136.5,-99.75"/>
</a>
</g>
</g>
<!-- Node3&#45;&gt;Node6 -->
<g id="edge46_Node000003_Node000006" class="edge">
<title>Node3&#45;&gt;Node6</title>
<g id="a_edge46_Node000003_Node000006"><a xlink:title=" ">
<path fill="none" stroke="#63b8ff" d="M1100.79,-116.52C1016.29,-111.83 819.72,-98.57 758,-74 726.17,-61.33 695.72,-33.55 681.45,-19.3"/>
<polygon fill="#63b8ff" stroke="#63b8ff" points="1100.82,-120.02 1110.99,-117.07 1101.2,-113.03 1100.82,-120.02"/>
</a>
</g>
</g>
<!-- Node7 -->
<g id="Node000007" class="node">
<title>Node7</title>
<g id="a_Node000007"><a xlink:href="BME280Sensor_8h.html" target="_top" xlink:title=" ">
<polygon fill="white" stroke="#666666" points="1802,-74 1704,-74 1704,-55 1802,-55 1802,-74"/>
<text text-anchor="middle" x="1753" y="-62" font-family="Helvetica,sans-Serif" font-size="10.00">BME280Sensor.h</text>
</a>
</g>
</g>
<!-- Node3&#45;&gt;Node7 -->
<g id="edge6_Node000003_Node000007" class="edge">
<title>Node3&#45;&gt;Node7</title>
<g id="a_edge6_Node000003_Node000007"><a xlink:title=" ">
<path fill="none" stroke="#63b8ff" d="M1179.34,-115.77C1268.74,-109.47 1494.02,-92.96 1682,-74 1689.04,-73.29 1696.47,-72.47 1703.76,-71.64"/>
<polygon fill="#63b8ff" stroke="#63b8ff" points="1178.85,-112.3 1169.12,-116.49 1179.34,-119.28 1178.85,-112.3"/>
</a>
</g>
</g>
<!-- Node9 -->
<g id="Node000009" class="node">
<title>Node9</title>
<g id="a_Node000009"><a xlink:href="BME680Sensor_8h.html" target="_top" xlink:title=" ">
<polygon fill="white" stroke="#666666" points="1932,-74 1834,-74 1834,-55 1932,-55 1932,-74"/>
<text text-anchor="middle" x="1883" y="-62" font-family="Helvetica,sans-Serif" font-size="10.00">BME680Sensor.h</text>
</a>
</g>
</g>
<!-- Node3&#45;&gt;Node9 -->
<g id="edge8_Node000003_Node000009" class="edge">
<title>Node3&#45;&gt;Node9</title>
<g id="a_edge8_Node000003_Node000009"><a xlink:title=" ">
<path fill="none" stroke="#63b8ff" d="M1179.44,-116.59C1283.07,-111.43 1571.56,-96.06 1811,-74 1818.39,-73.32 1826.21,-72.5 1833.85,-71.64"/>
<polygon fill="#63b8ff" stroke="#63b8ff" points="1178.96,-113.11 1169.15,-117.1 1179.31,-120.1 1178.96,-113.11"/>
</a>
</g>
</g>
<!-- Node11 -->
<g id="Node000011" class="node">
<title>Node11</title>
<g id="a_Node000011"><a xlink:href="BMP390Sensor_8h.html" target="_top" xlink:title=" ">
<polygon fill="white" stroke="#666666" points="1304,-74 1206,-74 1206,-55 1304,-55 1304,-74"/>
<text text-anchor="middle" x="1255" y="-62" font-family="Helvetica,sans-Serif" font-size="10.00">BMP390Sensor.h</text>
</a>
</g>
</g>
<!-- Node3&#45;&gt;Node11 -->
<g id="edge10_Node000003_Node000011" class="edge">
<title>Node3&#45;&gt;Node11</title>
<g id="a_edge10_Node000003_Node000011"><a xlink:title=" ">
<path fill="none" stroke="#63b8ff" d="M1167.63,-105.77C1188.84,-95.99 1217.56,-82.75 1236.19,-74.17"/>
<polygon fill="#63b8ff" stroke="#63b8ff" points="1166.09,-102.62 1158.48,-109.98 1169.02,-108.98 1166.09,-102.62"/>
</a>
</g>
</g>
<!-- Node13 -->
<g id="Node000013" class="node">
<title>Node13</title>
<g id="a_Node000013"><a xlink:href="DS3231Sensor_8h.html" target="_top" xlink:title=" ">
<polygon fill="white" stroke="#666666" points="2055.5,-74 1960.5,-74 1960.5,-55 2055.5,-55 2055.5,-74"/>
<text text-anchor="middle" x="2008" y="-62" font-family="Helvetica,sans-Serif" font-size="10.00">DS3231Sensor.h</text>
</a>
</g>
</g>
<!-- Node3&#45;&gt;Node13 -->
<g id="edge13_Node000003_Node000013" class="edge">
<title>Node3&#45;&gt;Node13</title>
<g id="a_edge13_Node000003_Node000013"><a xlink:title=" ">
<path fill="none" stroke="#63b8ff" d="M1179.36,-117.3C1295.87,-113.53 1649.13,-100.59 1941,-74 1947.31,-73.43 1953.93,-72.72 1960.46,-71.95"/>
<polygon fill="#63b8ff" stroke="#63b8ff" points="1179.03,-113.81 1169.15,-117.63 1179.26,-120.8 1179.03,-113.81"/>
</a>
</g>
</g>
<!-- Node15 -->
<g id="Node000015" class="node">
<title>Node15</title>
<g id="a_Node000015"><a xlink:href="ENS160Sensor_8h.html" target="_top" xlink:title=" ">
<polygon fill="white" stroke="#666666" points="1417.5,-74 1322.5,-74 1322.5,-55 1417.5,-55 1417.5,-74"/>
<text text-anchor="middle" x="1370" y="-62" font-family="Helvetica,sans-Serif" font-size="10.00">ENS160Sensor.h</text>
</a>
</g>
</g>
<!-- Node3&#45;&gt;Node15 -->
<g id="edge15_Node000003_Node000015" class="edge">
<title>Node3&#45;&gt;Node15</title>
<g id="a_edge15_Node000003_Node000015"><a xlink:title=" ">
<path fill="none" stroke="#63b8ff" d="M1178.94,-109.53C1221.88,-99.63 1290.48,-83.82 1332.74,-74.09"/>
<polygon fill="#63b8ff" stroke="#63b8ff" points="1178.09,-106.13 1169.13,-111.79 1179.66,-112.95 1178.09,-106.13"/>
</a>
</g>
</g>
<!-- Node17 -->
<g id="Node000017" class="node">
<title>Node17</title>
<g id="a_Node000017"><a xlink:href="ICM20948Sensor_8h.html" target="_top" xlink:title=" ">
<polygon fill="white" stroke="#666666" points="211.5,-74 104.5,-74 104.5,-55 211.5,-55 211.5,-74"/>
<text text-anchor="middle" x="158" y="-62" font-family="Helvetica,sans-Serif" font-size="10.00">ICM20948Sensor.h</text>
</a>
</g>
</g>
<!-- Node3&#45;&gt;Node17 -->
<g id="edge18_Node000003_Node000017" class="edge">
<title>Node3&#45;&gt;Node17</title>
<g id="a_edge18_Node000003_Node000017"><a xlink:title=" ">
<path fill="none" stroke="#63b8ff" d="M1100.89,-117.84C973.7,-115.42 560.34,-105.5 220,-74 217.3,-73.75 214.53,-73.47 211.74,-73.16"/>
<polygon fill="#63b8ff" stroke="#63b8ff" points="1100.87,-121.34 1110.93,-118.02 1101,-114.34 1100.87,-121.34"/>
</a>
</g>
</g>
<!-- Node19 -->
<g id="Node000019" class="node">
<title>Node19</title>
<g id="a_Node000019"><a xlink:href="INA260Sensor_8h.html" target="_top" xlink:title=" ">
<polygon fill="white" stroke="#666666" points="322.5,-74 229.5,-74 229.5,-55 322.5,-55 322.5,-74"/>
<text text-anchor="middle" x="276" y="-62" font-family="Helvetica,sans-Serif" font-size="10.00">INA260Sensor.h</text>
</a>
</g>
</g>
<!-- Node3&#45;&gt;Node19 -->
<g id="edge21_Node000003_Node000019" class="edge">
<title>Node3&#45;&gt;Node19</title>
<g id="a_edge21_Node000003_Node000019"><a xlink:title=" ">
<path fill="none" stroke="#63b8ff" d="M1100.67,-117.67C983.46,-114.9 626.41,-104.38 332,-74 328.97,-73.69 325.85,-73.33 322.71,-72.93"/>
<polygon fill="#63b8ff" stroke="#63b8ff" points="1100.86,-121.17 1110.93,-117.9 1101.02,-114.17 1100.86,-121.17"/>
</a>
</g>
</g>
<!-- Node21 -->
<g id="Node000021" class="node">
<title>Node21</title>
<g id="a_Node000021"><a xlink:href="LSM9DS1Sensor_8h.html" target="_top" xlink:title=" ">
<polygon fill="white" stroke="#666666" points="1552,-74 1448,-74 1448,-55 1552,-55 1552,-74"/>
<text text-anchor="middle" x="1500" y="-62" font-family="Helvetica,sans-Serif" font-size="10.00">LSM9DS1Sensor.h</text>
</a>
</g>
</g>
<!-- Node3&#45;&gt;Node21 -->
<g id="edge24_Node000003_Node000021" class="edge">
<title>Node3&#45;&gt;Node21</title>
<g id="a_edge24_Node000003_Node000021"><a xlink:title=" ">
<path fill="none" stroke="#63b8ff" d="M1179.42,-112.7C1244.6,-103.1 1374.88,-83.92 1447.69,-73.2"/>
<polygon fill="#63b8ff" stroke="#63b8ff" points="1178.54,-109.29 1169.16,-114.21 1179.56,-116.21 1178.54,-109.29"/>
</a>
</g>
</g>
<!-- Node23 -->
<g id="Node000023" class="node">
<title>Node23</title>
<g id="a_Node000023"><a xlink:href="MTK3339Sensor_8h.html" target="_top" xlink:title=" ">
<polygon fill="white" stroke="#666666" points="445,-74 341,-74 341,-55 445,-55 445,-74"/>
<text text-anchor="middle" x="393" y="-62" font-family="Helvetica,sans-Serif" font-size="10.00">MTK3339Sensor.h</text>
</a>
</g>
</g>
<!-- Node3&#45;&gt;Node23 -->
<g id="edge26_Node000003_Node000023" class="edge">
<title>Node3&#45;&gt;Node23</title>
<g id="a_edge26_Node000003_Node000023"><a xlink:title=" ">
<path fill="none" stroke="#63b8ff" d="M1100.71,-116.97C995.61,-112.64 699.36,-99.02 454,-74 451.13,-73.71 448.18,-73.38 445.21,-73.03"/>
<polygon fill="#63b8ff" stroke="#63b8ff" points="1100.72,-120.47 1110.85,-117.38 1101,-113.47 1100.72,-120.47"/>
</a>
</g>
</g>
<!-- Node25 -->
<g id="Node000025" class="node">
<title>Node25</title>
<g id="a_Node000025"><a xlink:href="PCF8523Sensor_8h.html" target="_top" xlink:title=" ">
<polygon fill="white" stroke="#666666" points="564.5,-74 463.5,-74 463.5,-55 564.5,-55 564.5,-74"/>
<text text-anchor="middle" x="514" y="-62" font-family="Helvetica,sans-Serif" font-size="10.00">PCF8523Sensor.h</text>
</a>
</g>
</g>
<!-- Node3&#45;&gt;Node25 -->
<g id="edge29_Node000003_Node000025" class="edge">
<title>Node3&#45;&gt;Node25</title>
<g id="a_edge29_Node000003_Node000025"><a xlink:title=" ">
<path fill="none" stroke="#63b8ff" d="M1100.78,-115.23C1013.14,-107.91 794.76,-89.63 612,-74 596.6,-72.68 579.84,-71.24 564.61,-69.91"/>
<polygon fill="#63b8ff" stroke="#63b8ff" points="1100.55,-118.72 1110.81,-116.06 1101.13,-111.74 1100.55,-118.72"/>
</a>
</g>
</g>
<!-- Node27 -->
<g id="Node000027" class="node">
<title>Node27</title>
<g id="a_Node000027"><a xlink:href="SCD40Sensor_8h.html" target="_top" xlink:title=" ">
<polygon fill="white" stroke="#666666" points="711,-74 621,-74 621,-55 711,-55 711,-74"/>
<text text-anchor="middle" x="666" y="-62" font-family="Helvetica,sans-Serif" font-size="10.00">SCD40Sensor.h</text>
</a>
</g>
</g>
<!-- Node3&#45;&gt;Node27 -->
<g id="edge32_Node000003_Node000027" class="edge">
<title>Node3&#45;&gt;Node27</title>
<g id="a_edge32_Node000003_Node000027"><a xlink:title=" ">
<path fill="none" stroke="#63b8ff" d="M1100.55,-114.75C1026.74,-107.63 862.74,-91.3 725,-74 720.48,-73.43 715.77,-72.81 711.08,-72.17"/>
<polygon fill="#63b8ff" stroke="#63b8ff" points="1100.49,-118.26 1110.78,-115.73 1101.16,-111.29 1100.49,-118.26"/>
</a>
</g>
</g>
<!-- Node29 -->
<g id="Node000029" class="node">
<title>Node29</title>
<g id="a_Node000029"><a xlink:href="SGP30Sensor_8h.html" target="_top" xlink:title=" ">
<polygon fill="white" stroke="#666666" points="1673.5,-74 1584.5,-74 1584.5,-55 1673.5,-55 1673.5,-74"/>
<text text-anchor="middle" x="1629" y="-62" font-family="Helvetica,sans-Serif" font-size="10.00">SGP30Sensor.h</text>
</a>
</g>
</g>
<!-- Node3&#45;&gt;Node29 -->
<g id="edge35_Node000003_Node000029" class="edge">
<title>Node3&#45;&gt;Node29</title>
<g id="a_edge35_Node000003_Node000029"><a xlink:title=" ">
<path fill="none" stroke="#63b8ff" d="M1179.43,-114.58C1254,-107.13 1420.77,-90.17 1561,-74 1568.56,-73.13 1576.6,-72.16 1584.39,-71.2"/>
<polygon fill="#63b8ff" stroke="#63b8ff" points="1178.72,-111.14 1169.11,-115.62 1179.41,-118.1 1178.72,-111.14"/>
</a>
</g>
</g>
<!-- Node31 -->
<g id="Node000031" class="node">
<title>Node31</title>
<g id="a_Node000031"><a xlink:href="SHTC3Sensor_8h.html" target="_top" xlink:title=" ">
<polygon fill="white" stroke="#666666" points="856.5,-74 767.5,-74 767.5,-55 856.5,-55 856.5,-74"/>
<text text-anchor="middle" x="812" y="-62" font-family="Helvetica,sans-Serif" font-size="10.00">SHTC3Sensor.h</text>
</a>
</g>
</g>
<!-- Node3&#45;&gt;Node31 -->
<g id="edge37_Node000003_Node000031" class="edge">
<title>Node3&#45;&gt;Node31</title>
<g id="a_edge37_Node000003_Node000031"><a xlink:title=" ">
<path fill="none" stroke="#63b8ff" d="M1100.85,-112.17C1039.57,-102.27 921.35,-83.17 856.77,-72.73"/>
<polygon fill="#63b8ff" stroke="#63b8ff" points="1100.46,-115.66 1110.89,-113.8 1101.58,-108.75 1100.46,-115.66"/>
</a>
</g>
</g>
<!-- Node33 -->
<g id="Node000033" class="node">
<title>Node33</title>
<g id="a_Node000033"><a xlink:href="TMP117Sensor_8h.html" target="_top" xlink:title=" ">
<polygon fill="white" stroke="#666666" points="971.5,-74 874.5,-74 874.5,-55 971.5,-55 971.5,-74"/>
<text text-anchor="middle" x="923" y="-62" font-family="Helvetica,sans-Serif" font-size="10.00">TMP117Sensor.h</text>
</a>
</g>
</g>
<!-- Node3&#45;&gt;Node33 -->
<g id="edge40_Node000003_Node000033" class="edge">
<title>Node3&#45;&gt;Node33</title>
<g id="a_edge40_Node000003_Node000033"><a xlink:title=" ">
<path fill="none" stroke="#63b8ff" d="M1100.89,-108.95C1060.17,-99 996.97,-83.57 957.89,-74.02"/>
<polygon fill="#63b8ff" stroke="#63b8ff" points="1100.19,-112.38 1110.73,-111.35 1101.85,-105.58 1100.19,-112.38"/>
</a>
</g>
</g>
<!-- Node35 -->
<g id="Node000035" class="node">
<title>Node35</title>
<g id="a_Node000035"><a xlink:href="TempSensor_8h.html" target="_top" xlink:title=" ">
<polygon fill="white" stroke="#666666" points="1074,-74 990,-74 990,-55 1074,-55 1074,-74"/>
<text text-anchor="middle" x="1032" y="-62" font-family="Helvetica,sans-Serif" font-size="10.00">TempSensor.h</text>
</a>
</g>
</g>
<!-- Node3&#45;&gt;Node35 -->
<g id="edge43_Node000003_Node000035" class="edge">
<title>Node3&#45;&gt;Node35</title>
<g id="a_edge43_Node000003_Node000035"><a xlink:title=" ">
<path fill="none" stroke="#63b8ff" d="M1113.51,-105.5C1093.64,-95.75 1067,-82.68 1049.67,-74.17"/>
<polygon fill="#63b8ff" stroke="#63b8ff" points="1112.13,-108.72 1122.65,-109.98 1115.21,-102.44 1112.13,-108.72"/>
</a>
</g>
</g>
<!-- Node5 -->
<g id="Node000005" class="node">
<title>Node5</title>
<g id="a_Node000005"><a xlink:href="AS7331Sensor_8cpp.html" target="_top" xlink:title=" ">
<polygon fill="white" stroke="#666666" points="1188,-19 1082,-19 1082,0 1188,0 1188,-19"/>
<text text-anchor="middle" x="1135" y="-7" font-family="Helvetica,sans-Serif" font-size="10.00">AS7331Sensor.cpp</text>
</a>
</g>
</g>
<!-- Node4&#45;&gt;Node5 -->
<g id="edge4_Node000004_Node000005" class="edge">
<title>Node4&#45;&gt;Node5</title>
<g id="a_edge4_Node000004_Node000005"><a xlink:title=" ">
<path fill="none" stroke="#63b8ff" d="M1138.22,-44.66C1137.4,-35.93 1136.46,-25.99 1135.81,-19.09"/>
<polygon fill="#63b8ff" stroke="#63b8ff" points="1134.75,-45.12 1139.17,-54.75 1141.72,-44.46 1134.75,-45.12"/>
</a>
</g>
</g>
<!-- Node4&#45;&gt;Node6 -->
<g id="edge5_Node000004_Node000006" class="edge">
<title>Node4&#45;&gt;Node6</title>
<g id="a_edge5_Node000004_Node000006"><a xlink:title=" ">
<path fill="none" stroke="#63b8ff" d="M1082.43,-55C917.3,-35.16 873.1,-43.72 713,-19 710.19,-18.57 707.29,-18.06 704.38,-17.52"/>
<polygon fill="#63b8ff" stroke="#63b8ff" points="1082.09,-58.49 1092.44,-56.22 1082.94,-51.54 1082.09,-58.49"/>
</a>
</g>
</g>
<!-- Node8 -->
<g id="Node000008" class="node">
<title>Node8</title>
<g id="a_Node000008"><a xlink:href="BME280Sensor_8cpp.html" target="_top" xlink:title=" ">
<polygon fill="white" stroke="#666666" points="1819.5,-19 1710.5,-19 1710.5,0 1819.5,0 1819.5,-19"/>
<text text-anchor="middle" x="1765" y="-7" font-family="Helvetica,sans-Serif" font-size="10.00">BME280Sensor.cpp</text>
</a>
</g>
</g>
<!-- Node7&#45;&gt;Node8 -->
<g id="edge7_Node000007_Node000008" class="edge">
<title>Node7&#45;&gt;Node8</title>
<g id="a_edge7_Node000007_Node000008"><a xlink:title=" ">
<path fill="none" stroke="#63b8ff" d="M1757.2,-44.95C1759.19,-36.15 1761.48,-26.06 1763.06,-19.09"/>
<polygon fill="#63b8ff" stroke="#63b8ff" points="1753.78,-44.22 1754.98,-54.75 1760.6,-45.77 1753.78,-44.22"/>
</a>
</g>
</g>
<!-- Node10 -->
<g id="Node000010" class="node">
<title>Node10</title>
<g id="a_Node000010"><a xlink:href="BME680Sensor_8cpp.html" target="_top" xlink:title=" ">
<polygon fill="white" stroke="#666666" points="1946.5,-19 1837.5,-19 1837.5,0 1946.5,0 1946.5,-19"/>
<text text-anchor="middle" x="1892" y="-7" font-family="Helvetica,sans-Serif" font-size="10.00">BME680Sensor.cpp</text>
</a>
</g>
</g>
<!-- Node9&#45;&gt;Node10 -->
<g id="edge9_Node000009_Node000010" class="edge">
<title>Node9&#45;&gt;Node10</title>
<g id="a_edge9_Node000009_Node000010"><a xlink:title=" ">
<path fill="none" stroke="#63b8ff" d="M1886.2,-44.66C1887.68,-35.93 1889.37,-25.99 1890.54,-19.09"/>
<polygon fill="#63b8ff" stroke="#63b8ff" points="1882.71,-44.3 1884.49,-54.75 1889.61,-45.48 1882.71,-44.3"/>
</a>
</g>
</g>
<!-- Node11&#45;&gt;Node6 -->
<g id="edge12_Node000011_Node000006" class="edge">
<title>Node11&#45;&gt;Node6</title>
<g id="a_edge12_Node000011_Node000006"><a xlink:title=" ">
<path fill="none" stroke="#63b8ff" d="M1195.73,-55.07C980.28,-32.17 922.87,-48.98 713,-19 710.19,-18.6 707.28,-18.11 704.37,-17.58"/>
<polygon fill="#63b8ff" stroke="#63b8ff" points="1195.46,-58.56 1205.78,-56.15 1196.21,-51.6 1195.46,-58.56"/>
</a>
</g>
</g>
<!-- Node12 -->
<g id="Node000012" class="node">
<title>Node12</title>
<g id="a_Node000012"><a xlink:href="BMP390Sensor_8cpp.html" target="_top" xlink:title=" ">
<polygon fill="white" stroke="#666666" points="1315.5,-19 1206.5,-19 1206.5,0 1315.5,0 1315.5,-19"/>
<text text-anchor="middle" x="1261" y="-7" font-family="Helvetica,sans-Serif" font-size="10.00">BMP390Sensor.cpp</text>
</a>
</g>
</g>
<!-- Node11&#45;&gt;Node12 -->
<g id="edge11_Node000011_Node000012" class="edge">
<title>Node11&#45;&gt;Node12</title>
<g id="a_edge11_Node000011_Node000012"><a xlink:title=" ">
<path fill="none" stroke="#63b8ff" d="M1257.13,-44.66C1258.12,-35.93 1259.25,-25.99 1260.03,-19.09"/>
<polygon fill="#63b8ff" stroke="#63b8ff" points="1253.64,-44.42 1255.99,-54.75 1260.59,-45.21 1253.64,-44.42"/>
</a>
</g>
</g>
<!-- Node14 -->
<g id="Node000014" class="node">
<title>Node14</title>
<g id="a_Node000014"><a xlink:href="DS3231Sensor_8cpp.html" target="_top" xlink:title=" ">
<polygon fill="white" stroke="#666666" points="2071.5,-19 1964.5,-19 1964.5,0 2071.5,0 2071.5,-19"/>
<text text-anchor="middle" x="2018" y="-7" font-family="Helvetica,sans-Serif" font-size="10.00">DS3231Sensor.cpp</text>
</a>
</g>
</g>
<!-- Node13&#45;&gt;Node14 -->
<g id="edge14_Node000013_Node000014" class="edge">
<title>Node13&#45;&gt;Node14</title>
<g id="a_edge14_Node000013_Node000014"><a xlink:title=" ">
<path fill="none" stroke="#63b8ff" d="M2011.55,-44.66C2013.2,-35.93 2015.08,-25.99 2016.38,-19.09"/>
<polygon fill="#63b8ff" stroke="#63b8ff" points="2008.07,-44.27 2009.65,-54.75 2014.94,-45.57 2008.07,-44.27"/>
</a>
</g>
</g>
<!-- Node15&#45;&gt;Node6 -->
<g id="edge17_Node000015_Node000006" class="edge">
<title>Node15&#45;&gt;Node6</title>
<g id="a_edge17_Node000015_Node000006"><a xlink:title=" ">
<path fill="none" stroke="#63b8ff" d="M1312.47,-55.06C1045.57,-27.94 974.5,-54.43 713,-19 710.19,-18.62 707.27,-18.15 704.37,-17.63"/>
<polygon fill="#63b8ff" stroke="#63b8ff" points="1312.15,-58.54 1322.45,-56.09 1312.87,-51.58 1312.15,-58.54"/>
</a>
</g>
</g>
<!-- Node16 -->
<g id="Node000016" class="node">
<title>Node16</title>
<g id="a_Node000016"><a xlink:href="ENS160Sensor_8cpp.html" target="_top" xlink:title=" ">
<polygon fill="white" stroke="#666666" points="1440.5,-19 1333.5,-19 1333.5,0 1440.5,0 1440.5,-19"/>
<text text-anchor="middle" x="1387" y="-7" font-family="Helvetica,sans-Serif" font-size="10.00">ENS160Sensor.cpp</text>
</a>
</g>
</g>
<!-- Node15&#45;&gt;Node16 -->
<g id="edge16_Node000015_Node000016" class="edge">
<title>Node15&#45;&gt;Node16</title>
<g id="a_edge16_Node000015_Node000016"><a xlink:title=" ">
<path fill="none" stroke="#63b8ff" d="M1375.95,-44.95C1378.77,-36.15 1382.01,-26.06 1384.25,-19.09"/>
<polygon fill="#63b8ff" stroke="#63b8ff" points="1372.53,-44.16 1372.81,-54.75 1379.19,-46.29 1372.53,-44.16"/>
</a>
</g>
</g>
<!-- Node17&#45;&gt;Node6 -->
<g id="edge20_Node000017_Node000006" class="edge">
<title>Node17&#45;&gt;Node6</title>
<g id="a_edge20_Node000017_Node000006"><a xlink:title=" ">
<path fill="none" stroke="#63b8ff" d="M221.96,-54.84C404.42,-34.9 453.43,-45.22 632,-19 635.16,-18.54 638.45,-17.98 641.73,-17.38"/>
<polygon fill="#63b8ff" stroke="#63b8ff" points="221.3,-51.39 211.75,-55.97 222.07,-58.34 221.3,-51.39"/>
</a>
</g>
</g>
<!-- Node18 -->
<g id="Node000018" class="node">
<title>Node18</title>
<g id="a_Node000018"><a xlink:href="ICM20948Sensor_8cpp.html" target="_top" xlink:title=" ">
<polygon fill="white" stroke="#666666" points="118,-19 0,-19 0,0 118,0 118,-19"/>
<text text-anchor="middle" x="59" y="-7" font-family="Helvetica,sans-Serif" font-size="10.00">ICM20948Sensor.cpp</text>
</a>
</g>
</g>
<!-- Node17&#45;&gt;Node18 -->
<g id="edge19_Node000017_Node000018" class="edge">
<title>Node17&#45;&gt;Node18</title>
<g id="a_edge19_Node000017_Node000018"><a xlink:title=" ">
<path fill="none" stroke="#63b8ff" d="M133.22,-50.23C115.06,-40.51 90.94,-27.6 75.2,-19.17"/>
<polygon fill="#63b8ff" stroke="#63b8ff" points="131.63,-53.35 142.09,-54.98 134.93,-47.18 131.63,-53.35"/>
</a>
</g>
</g>
<!-- Node19&#45;&gt;Node6 -->
<g id="edge23_Node000019_Node000006" class="edge">
<title>Node19&#45;&gt;Node6</title>
<g id="a_edge23_Node000019_Node000006"><a xlink:title=" ">
<path fill="none" stroke="#63b8ff" d="M332.97,-54.92C466.81,-37.09 502.7,-40.12 632,-19 635.16,-18.48 638.44,-17.89 641.71,-17.27"/>
<polygon fill="#63b8ff" stroke="#63b8ff" points="332.18,-51.49 322.74,-56.29 333.11,-58.43 332.18,-51.49"/>
</a>
</g>
</g>
<!-- Node20 -->
<g id="Node000020" class="node">
<title>Node20</title>
<g id="a_Node000020"><a xlink:href="INA260Sensor_8cpp.html" target="_top" xlink:title=" ">
<polygon fill="white" stroke="#666666" points="240,-19 136,-19 136,0 240,0 240,-19"/>
<text text-anchor="middle" x="188" y="-7" font-family="Helvetica,sans-Serif" font-size="10.00">INA260Sensor.cpp</text>
</a>
</g>
</g>
<!-- Node19&#45;&gt;Node20 -->
<g id="edge22_Node000019_Node000020" class="edge">
<title>Node19&#45;&gt;Node20</title>
<g id="a_edge22_Node000019_Node000020"><a xlink:title=" ">
<path fill="none" stroke="#63b8ff" d="M253.08,-49.7C237.05,-40.04 216.13,-27.44 202.4,-19.17"/>
<polygon fill="#63b8ff" stroke="#63b8ff" points="251.49,-52.82 261.86,-54.98 255.1,-46.83 251.49,-52.82"/>
</a>
</g>
</g>
<!-- Node22 -->
<g id="Node000022" class="node">
<title>Node22</title>
<g id="a_Node000022"><a xlink:href="LSM9DS1Sensor_8cpp.html" target="_top" xlink:title=" ">
<polygon fill="white" stroke="#666666" points="1573.5,-19 1458.5,-19 1458.5,0 1573.5,0 1573.5,-19"/>
<text text-anchor="middle" x="1516" y="-7" font-family="Helvetica,sans-Serif" font-size="10.00">LSM9DS1Sensor.cpp</text>
</a>
</g>
</g>
<!-- Node21&#45;&gt;Node22 -->
<g id="edge25_Node000021_Node000022" class="edge">
<title>Node21&#45;&gt;Node22</title>
<g id="a_edge25_Node000021_Node000022"><a xlink:title=" ">
<path fill="none" stroke="#63b8ff" d="M1505.6,-44.95C1508.26,-36.15 1511.3,-26.06 1513.41,-19.09"/>
<polygon fill="#63b8ff" stroke="#63b8ff" points="1502.18,-44.16 1502.64,-54.75 1508.88,-46.19 1502.18,-44.16"/>
</a>
</g>
</g>
<!-- Node23&#45;&gt;Node6 -->
<g id="edge28_Node000023_Node000006" class="edge">
<title>Node23&#45;&gt;Node6</title>
<g id="a_edge28_Node000023_Node000006"><a xlink:title=" ">
<path fill="none" stroke="#63b8ff" d="M450.65,-53.11C499.1,-44.29 570.14,-31.17 632,-19 635.14,-18.38 638.41,-17.73 641.67,-17.06"/>
<polygon fill="#63b8ff" stroke="#63b8ff" points="449.88,-49.69 440.67,-54.92 451.13,-56.57 449.88,-49.69"/>
</a>
</g>
</g>
<!-- Node24 -->
<g id="Node000024" class="node">
<title>Node24</title>
<g id="a_Node000024"><a xlink:href="MTK3339Sensor_8cpp.html" target="_top" xlink:title=" ">
<polygon fill="white" stroke="#666666" points="373.5,-19 258.5,-19 258.5,0 373.5,0 373.5,-19"/>
<text text-anchor="middle" x="316" y="-7" font-family="Helvetica,sans-Serif" font-size="10.00">MTK3339Sensor.cpp</text>
</a>
</g>
</g>
<!-- Node23&#45;&gt;Node24 -->
<g id="edge27_Node000023_Node000024" class="edge">
<title>Node23&#45;&gt;Node24</title>
<g id="a_edge27_Node000023_Node000024"><a xlink:title=" ">
<path fill="none" stroke="#63b8ff" d="M372.15,-49.15C358.24,-39.57 340.39,-27.29 328.6,-19.17"/>
<polygon fill="#63b8ff" stroke="#63b8ff" points="370.41,-52.2 380.63,-54.98 374.38,-46.43 370.41,-52.2"/>
</a>
</g>
</g>
<!-- Node25&#45;&gt;Node6 -->
<g id="edge31_Node000025_Node000006" class="edge">
<title>Node25&#45;&gt;Node6</title>
<g id="a_edge31_Node000025_Node000006"><a xlink:title=" ">
<path fill="none" stroke="#63b8ff" d="M549.1,-51.8C578.78,-41.91 620.6,-27.97 647.25,-19.08"/>
<polygon fill="#63b8ff" stroke="#63b8ff" points="547.93,-48.5 539.55,-54.98 550.14,-55.14 547.93,-48.5"/>
</a>
</g>
</g>
<!-- Node26 -->
<g id="Node000026" class="node">
<title>Node26</title>
<g id="a_Node000026"><a xlink:href="PCF8523Sensor_8cpp.html" target="_top" xlink:title=" ">
<polygon fill="white" stroke="#666666" points="504,-19 392,-19 392,0 504,0 504,-19"/>
<text text-anchor="middle" x="448" y="-7" font-family="Helvetica,sans-Serif" font-size="10.00">PCF8523Sensor.cpp</text>
</a>
</g>
</g>
<!-- Node25&#45;&gt;Node26 -->
<g id="edge30_Node000025_Node000026" class="edge">
<title>Node25&#45;&gt;Node26</title>
<g id="a_edge30_Node000025_Node000026"><a xlink:title=" ">
<path fill="none" stroke="#63b8ff" d="M495.45,-48.6C483.62,-39.11 468.71,-27.13 458.8,-19.17"/>
<polygon fill="#63b8ff" stroke="#63b8ff" points="493.41,-51.45 503.4,-54.98 497.79,-45.99 493.41,-51.45"/>
</a>
</g>
</g>
<!-- Node27&#45;&gt;Node6 -->
<g id="edge34_Node000027_Node000006" class="edge">
<title>Node27&#45;&gt;Node6</title>
<g id="a_edge34_Node000027_Node000006"><a xlink:title=" ">
<path fill="none" stroke="#63b8ff" d="M668.49,-44.66C669.64,-35.93 670.95,-25.99 671.87,-19.09"/>
<polygon fill="#63b8ff" stroke="#63b8ff" points="665,-44.38 667.16,-54.75 671.94,-45.29 665,-44.38"/>
</a>
</g>
</g>
<!-- Node28 -->
<g id="Node000028" class="node">
<title>Node28</title>
<g id="a_Node000028"><a xlink:href="SCD40Sensor_8cpp.html" target="_top" xlink:title=" ">
<polygon fill="white" stroke="#666666" points="623.5,-19 522.5,-19 522.5,0 623.5,0 623.5,-19"/>
<text text-anchor="middle" x="573" y="-7" font-family="Helvetica,sans-Serif" font-size="10.00">SCD40Sensor.cpp</text>
</a>
</g>
</g>
<!-- Node27&#45;&gt;Node28 -->
<g id="edge33_Node000027_Node000028" class="edge">
<title>Node27&#45;&gt;Node28</title>
<g id="a_edge33_Node000027_Node000028"><a xlink:title=" ">
<path fill="none" stroke="#63b8ff" d="M642.25,-49.97C625.25,-40.28 602.87,-27.52 588.21,-19.17"/>
<polygon fill="#63b8ff" stroke="#63b8ff" points="640.64,-53.07 651.06,-54.98 644.1,-46.99 640.64,-53.07"/>
</a>
</g>
</g>
<!-- Node30 -->
<g id="Node000030" class="node">
<title>Node30</title>
<g id="a_Node000030"><a xlink:href="SGP30Sensor_8cpp.html" target="_top" xlink:title=" ">
<polygon fill="white" stroke="#666666" points="1692.5,-19 1591.5,-19 1591.5,0 1692.5,0 1692.5,-19"/>
<text text-anchor="middle" x="1642" y="-7" font-family="Helvetica,sans-Serif" font-size="10.00">SGP30Sensor.cpp</text>
</a>
</g>
</g>
<!-- Node29&#45;&gt;Node30 -->
<g id="edge36_Node000029_Node000030" class="edge">
<title>Node29&#45;&gt;Node30</title>
<g id="a_edge36_Node000029_Node000030"><a xlink:title=" ">
<path fill="none" stroke="#63b8ff" d="M1633.55,-44.95C1635.71,-36.15 1638.18,-26.06 1639.89,-19.09"/>
<polygon fill="#63b8ff" stroke="#63b8ff" points="1630.13,-44.2 1631.15,-54.75 1636.93,-45.87 1630.13,-44.2"/>
</a>
</g>
</g>
<!-- Node31&#45;&gt;Node6 -->
<g id="edge39_Node000031_Node000006" class="edge">
<title>Node31&#45;&gt;Node6</title>
<g id="a_edge39_Node000031_Node000006"><a xlink:title=" ">
<path fill="none" stroke="#63b8ff" d="M780.32,-51.42C754.53,-41.59 718.76,-27.95 695.74,-19.17"/>
<polygon fill="#63b8ff" stroke="#63b8ff" points="779.08,-54.69 789.67,-54.98 781.57,-48.15 779.08,-54.69"/>
</a>
</g>
</g>
<!-- Node32 -->
<g id="Node000032" class="node">
<title>Node32</title>
<g id="a_Node000032"><a xlink:href="SHTC3Sensor_8cpp.html" target="_top" xlink:title=" ">
<polygon fill="white" stroke="#666666" points="823.5,-19 722.5,-19 722.5,0 823.5,0 823.5,-19"/>
<text text-anchor="middle" x="773" y="-7" font-family="Helvetica,sans-Serif" font-size="10.00">SHTC3Sensor.cpp</text>
</a>
</g>
</g>
<!-- Node31&#45;&gt;Node32 -->
<g id="edge38_Node000031_Node000032" class="edge">
<title>Node31&#45;&gt;Node32</title>
<g id="a_edge38_Node000031_Node000032"><a xlink:title=" ">
<path fill="none" stroke="#63b8ff" d="M799.62,-46.67C792.86,-37.5 784.79,-26.52 779.32,-19.09"/>
<polygon fill="#63b8ff" stroke="#63b8ff" points="796.81,-48.77 805.56,-54.75 802.45,-44.62 796.81,-48.77"/>
</a>
</g>
</g>
<!-- Node33&#45;&gt;Node6 -->
<g id="edge42_Node000033_Node000006" class="edge">
<title>Node33&#45;&gt;Node6</title>
<g id="a_edge42_Node000033_Node000006"><a xlink:title=" ">
<path fill="none" stroke="#63b8ff" d="M872.91,-52.89C830.36,-43.88 767.68,-30.6 713,-19 710.08,-18.38 707.05,-17.74 704.01,-17.09"/>
<polygon fill="#63b8ff" stroke="#63b8ff" points="872.23,-56.33 882.74,-54.98 873.68,-49.48 872.23,-56.33"/>
</a>
</g>
</g>
<!-- Node34 -->
<g id="Node000034" class="node">
<title>Node34</title>
<g id="a_Node000034"><a xlink:href="TMP117Sensor_8cpp.html" target="_top" xlink:title=" ">
<polygon fill="white" stroke="#666666" points="950,-19 842,-19 842,0 950,0 950,-19"/>
<text text-anchor="middle" x="896" y="-7" font-family="Helvetica,sans-Serif" font-size="10.00">TMP117Sensor.cpp</text>
</a>
</g>
</g>
<!-- Node33&#45;&gt;Node34 -->
<g id="edge41_Node000033_Node000034" class="edge">
<title>Node33&#45;&gt;Node34</title>
<g id="a_edge41_Node000033_Node000034"><a xlink:title=" ">
<path fill="none" stroke="#63b8ff" d="M913.99,-45.82C909.41,-36.82 904.05,-26.29 900.38,-19.09"/>
<polygon fill="#63b8ff" stroke="#63b8ff" points="910.88,-47.43 918.54,-54.75 917.12,-44.25 910.88,-47.43"/>
</a>
</g>
</g>
<!-- Node35&#45;&gt;Node6 -->
<g id="edge45_Node000035_Node000006" class="edge">
<title>Node35&#45;&gt;Node6</title>
<g id="a_edge45_Node000035_Node000006"><a xlink:title=" ">
<path fill="none" stroke="#63b8ff" d="M979.79,-55.02C859.9,-37.44 827.87,-38.92 713,-19 710.2,-18.51 707.3,-17.97 704.4,-17.41"/>
<polygon fill="#63b8ff" stroke="#63b8ff" points="979.33,-58.49 989.73,-56.49 980.35,-51.56 979.33,-58.49"/>
</a>
</g>
</g>
<!-- Node36 -->
<g id="Node000036" class="node">
<title>Node36</title>
<g id="a_Node000036"><a xlink:href="TempSensor_8cpp.html" target="_top" xlink:title=" ">
<polygon fill="white" stroke="#666666" points="1063.5,-19 968.5,-19 968.5,0 1063.5,0 1063.5,-19"/>
<text text-anchor="middle" x="1016" y="-7" font-family="Helvetica,sans-Serif" font-size="10.00">TempSensor.cpp</text>
</a>
</g>
</g>
<!-- Node35&#45;&gt;Node36 -->
<g id="edge44_Node000035_Node000036" class="edge">
<title>Node35&#45;&gt;Node36</title>
<g id="a_edge44_Node000035_Node000036"><a xlink:title=" ">
<path fill="none" stroke="#63b8ff" d="M1026.4,-44.95C1023.74,-36.15 1020.7,-26.06 1018.59,-19.09"/>
<polygon fill="#63b8ff" stroke="#63b8ff" points="1023.12,-46.19 1029.36,-54.75 1029.82,-44.16 1023.12,-46.19"/>
</a>
</g>
</g>
<!-- Node38 -->
<g id="Node000038" class="node">
<title>Node38</title>
<g id="a_Node000038"><a xlink:href="FlashStorage_8h.html" target="_top" xlink:title=" ">
<polygon fill="white" stroke="#666666" points="2167.5,-74 2078.5,-74 2078.5,-55 2167.5,-55 2167.5,-74"/>
<text text-anchor="middle" x="2123" y="-62" font-family="Helvetica,sans-Serif" font-size="10.00">FlashStorage.h</text>
</a>
</g>
</g>
<!-- Node37&#45;&gt;Node38 -->
<g id="edge48_Node000037_Node000038" class="edge">
<title>Node37&#45;&gt;Node38</title>
<g id="a_edge48_Node000037_Node000038"><a xlink:title=" ">
<path fill="none" stroke="#63b8ff" d="M2160.72,-102.52C2151.2,-93.18 2139.56,-81.75 2131.75,-74.09"/>
<polygon fill="#63b8ff" stroke="#63b8ff" points="2158.49,-105.24 2168.08,-109.75 2163.4,-100.25 2158.49,-105.24"/>
</a>
</g>
</g>
<!-- Node37&#45;&gt;Node40 -->
<g id="edge58_Node000037_Node000040" class="edge">
<title>Node37&#45;&gt;Node40</title>
<g id="a_edge58_Node000037_Node000040"><a xlink:title=" ">
<path fill="none" stroke="#63b8ff" d="M2213.23,-106.59C2234.82,-98.77 2262.33,-87.5 2285,-74 2312.31,-57.74 2340.21,-32.51 2354.06,-19.27"/>
<polygon fill="#63b8ff" stroke="#63b8ff" points="2212.03,-103.3 2203.77,-109.93 2214.37,-109.9 2212.03,-103.3"/>
</a>
</g>
</g>
<!-- Node41 -->
<g id="Node000041" class="node">
<title>Node41</title>
<g id="a_Node000041"><a xlink:href="RadioStorage_8h.html" target="_top" xlink:title=" ">
<polygon fill="white" stroke="#666666" points="2276.5,-74 2185.5,-74 2185.5,-55 2276.5,-55 2276.5,-74"/>
<text text-anchor="middle" x="2231" y="-62" font-family="Helvetica,sans-Serif" font-size="10.00">RadioStorage.h</text>
</a>
</g>
</g>
<!-- Node37&#45;&gt;Node41 -->
<g id="edge52_Node000037_Node000041" class="edge">
<title>Node37&#45;&gt;Node41</title>
<g id="a_edge52_Node000037_Node000041"><a xlink:title=" ">
<path fill="none" stroke="#63b8ff" d="M2193.28,-102.52C2202.8,-93.18 2214.44,-81.75 2222.25,-74.09"/>
<polygon fill="#63b8ff" stroke="#63b8ff" points="2190.6,-100.25 2185.92,-109.75 2195.51,-105.24 2190.6,-100.25"/>
</a>
</g>
</g>
<!-- Node43 -->
<g id="Node000043" class="node">
<title>Node43</title>
<g id="a_Node000043"><a xlink:href="SDStorage_8h.html" target="_top" xlink:title=" ">
<polygon fill="white" stroke="#666666" points="2410.5,-74 2333.5,-74 2333.5,-55 2410.5,-55 2410.5,-74"/>
<text text-anchor="middle" x="2372" y="-62" font-family="Helvetica,sans-Serif" font-size="10.00">SDStorage.h</text>
</a>
</g>
</g>
<!-- Node37&#45;&gt;Node43 -->
<g id="edge55_Node000037_Node000043" class="edge">
<title>Node37&#45;&gt;Node43</title>
<g id="a_edge55_Node000037_Node000043"><a xlink:title=" ">
<path fill="none" stroke="#63b8ff" d="M2218.17,-107.31C2254.66,-97.39 2307.17,-83.12 2340.42,-74.08"/>
<polygon fill="#63b8ff" stroke="#63b8ff" points="2217.06,-103.98 2208.33,-109.98 2218.9,-110.74 2217.06,-103.98"/>
</a>
</g>
</g>
<!-- Node38&#45;&gt;Node6 -->
<g id="edge50_Node000038_Node000006" class="edge">
<title>Node38&#45;&gt;Node6</title>
<g id="a_edge50_Node000038_Node000006"><a xlink:title=" ">
<path fill="none" stroke="#63b8ff" d="M2067.96,-55.36C2066.63,-55.23 2065.31,-55.11 2064,-55 1465.5,-4.09 1309.48,-89.72 713,-19 710.18,-18.67 707.26,-18.23 704.35,-17.73"/>
<polygon fill="#63b8ff" stroke="#63b8ff" points="2067.96,-58.88 2078.29,-56.5 2068.73,-51.93 2067.96,-58.88"/>
</a>
</g>
</g>
<!-- Node39 -->
<g id="Node000039" class="node">
<title>Node39</title>
<g id="a_Node000039"><a xlink:href="FlashStorage_8cpp.html" target="_top" xlink:title=" ">
<polygon fill="white" stroke="#666666" points="2190.5,-19 2089.5,-19 2089.5,0 2190.5,0 2190.5,-19"/>
<text text-anchor="middle" x="2140" y="-7" font-family="Helvetica,sans-Serif" font-size="10.00">FlashStorage.cpp</text>
</a>
</g>
</g>
<!-- Node38&#45;&gt;Node39 -->
<g id="edge49_Node000038_Node000039" class="edge">
<title>Node38&#45;&gt;Node39</title>
<g id="a_edge49_Node000038_Node000039"><a xlink:title=" ">
<path fill="none" stroke="#63b8ff" d="M2128.95,-44.95C2131.77,-36.15 2135.01,-26.06 2137.25,-19.09"/>
<polygon fill="#63b8ff" stroke="#63b8ff" points="2125.53,-44.16 2125.81,-54.75 2132.19,-46.29 2125.53,-44.16"/>
</a>
</g>
</g>
<!-- Node38&#45;&gt;Node40 -->
<g id="edge51_Node000038_Node000040" class="edge">
<title>Node38&#45;&gt;Node40</title>
<g id="a_edge51_Node000038_Node000040"><a xlink:title=" ">
<path fill="none" stroke="#63b8ff" d="M2171.45,-52.8C2218.15,-42.49 2287.62,-27.15 2328.81,-18.05"/>
<polygon fill="#63b8ff" stroke="#63b8ff" points="2170.57,-49.41 2161.56,-54.98 2172.08,-56.25 2170.57,-49.41"/>
</a>
</g>
</g>
<!-- Node41&#45;&gt;Node40 -->
<g id="edge54_Node000041_Node000040" class="edge">
<title>Node41&#45;&gt;Node40</title>
<g id="a_edge54_Node000041_Node000040"><a xlink:title=" ">
<path fill="none" stroke="#63b8ff" d="M2261.73,-51.16C2286.17,-41.35 2319.74,-27.87 2341.41,-19.17"/>
<polygon fill="#63b8ff" stroke="#63b8ff" points="2260.18,-48.01 2252.21,-54.98 2262.79,-54.51 2260.18,-48.01"/>
</a>
</g>
</g>
<!-- Node42 -->
<g id="Node000042" class="node">
<title>Node42</title>
<g id="a_Node000042"><a xlink:href="RadioStorage_8cpp.html" target="_top" xlink:title=" ">
<polygon fill="white" stroke="#666666" points="2311,-19 2209,-19 2209,0 2311,0 2311,-19"/>
<text text-anchor="middle" x="2260" y="-7" font-family="Helvetica,sans-Serif" font-size="10.00">RadioStorage.cpp</text>
</a>
</g>
</g>
<!-- Node41&#45;&gt;Node42 -->
<g id="edge53_Node000041_Node000042" class="edge">
<title>Node41&#45;&gt;Node42</title>
<g id="a_edge53_Node000041_Node000042"><a xlink:title=" ">
<path fill="none" stroke="#63b8ff" d="M2240.68,-45.82C2245.6,-36.82 2251.36,-26.29 2255.3,-19.09"/>
<polygon fill="#63b8ff" stroke="#63b8ff" points="2237.52,-44.3 2235.79,-54.75 2243.66,-47.66 2237.52,-44.3"/>
</a>
</g>
</g>
<!-- Node43&#45;&gt;Node40 -->
<g id="edge57_Node000043_Node000040" class="edge">
<title>Node43&#45;&gt;Node40</title>
<g id="a_edge57_Node000043_Node000040"><a xlink:title=" ">
<path fill="none" stroke="#63b8ff" d="M2368.8,-44.66C2367.32,-35.93 2365.63,-25.99 2364.46,-19.09"/>
<polygon fill="#63b8ff" stroke="#63b8ff" points="2365.39,-45.48 2370.51,-54.75 2372.29,-44.3 2365.39,-45.48"/>
</a>
</g>
</g>
<!-- Node44 -->
<g id="Node000044" class="node">
<title>Node44</title>
<g id="a_Node000044"><a xlink:href="SDStorage_8cpp.html" target="_top" xlink:title=" ">
<polygon fill="white" stroke="#666666" points="2503,-19 2415,-19 2415,0 2503,0 2503,-19"/>
<text text-anchor="middle" x="2459" y="-7" font-family="Helvetica,sans-Serif" font-size="10.00">SDStorage.cpp</text>
</a>
</g>
</g>
<!-- Node43&#45;&gt;Node44 -->
<g id="edge56_Node000043_Node000044" class="edge">
<title>Node43&#45;&gt;Node44</title>
<g id="a_edge56_Node000043_Node000044"><a xlink:title=" ">
<path fill="none" stroke="#63b8ff" d="M2394.66,-49.7C2410.51,-40.04 2431.19,-27.44 2444.77,-19.17"/>
<polygon fill="#63b8ff" stroke="#63b8ff" points="2392.7,-46.79 2385.98,-54.98 2396.34,-52.77 2392.7,-46.79"/>
</a>
</g>
</g>
</g>
</svg>
