<?xml version="1.0" encoding="UTF-8" standalone="no"?>
<!DOCTYPE svg PUBLIC "-//W3C//DTD SVG 1.1//EN"
 "http://www.w3.org/Graphics/SVG/1.1/DTD/svg11.dtd">
<!-- Generated by graphviz version 2.43.0 (0)
 -->
<!-- Title: Logger.h Pages: 1 -->
<svg width="2629pt" height="247pt"
 viewBox="0.00 0.00 2628.50 247.00" xmlns="http://www.w3.org/2000/svg" xmlns:xlink="http://www.w3.org/1999/xlink">
<g id="graph0" class="graph" transform="scale(1 1) rotate(0) translate(4 243)">
<title>Logger.h</title>
<!-- Node1 -->
<g id="Node000001" class="node">
<title>Node1</title>
<g id="a_Node000001"><a xlink:title=" ">
<polygon fill="#999999" stroke="#666666" points="2016.5,-239 1958.5,-239 1958.5,-220 2016.5,-220 2016.5,-239"/>
<text text-anchor="middle" x="1987.5" y="-227" font-family="Helvetica,sans-Serif" font-size="10.00">Logger.h</text>
</a>
</g>
</g>
<!-- Node2 -->
<g id="Node000002" class="node">
<title>Node2</title>
<g id="a_Node000002"><a xlink:href="Device_8h.html" target="_top" xlink:title=" ">
<polygon fill="white" stroke="#666666" points="2017,-184 1958,-184 1958,-165 2017,-165 2017,-184"/>
<text text-anchor="middle" x="1987.5" y="-172" font-family="Helvetica,sans-Serif" font-size="10.00">Device.h</text>
</a>
</g>
</g>
<!-- Node1&#45;&gt;Node2 -->
<g id="edge1_Node000001_Node000002" class="edge">
<title>Node1&#45;&gt;Node2</title>
<g id="a_edge1_Node000001_Node000002"><a xlink:title=" ">
<path fill="none" stroke="#63b8ff" d="M1987.5,-209.66C1987.5,-200.93 1987.5,-190.99 1987.5,-184.09"/>
<polygon fill="#63b8ff" stroke="#63b8ff" points="1984,-209.75 1987.5,-219.75 1991,-209.75 1984,-209.75"/>
</a>
</g>
</g>
<!-- Node3 -->
<g id="Node000003" class="node">
<title>Node3</title>
<g id="a_Node000003"><a xlink:href="Sensor_8h.html" target="_top" xlink:title=" ">
<polygon fill="white" stroke="#666666" points="1243.5,-129 1185.5,-129 1185.5,-110 1243.5,-110 1243.5,-129"/>
<text text-anchor="middle" x="1214.5" y="-117" font-family="Helvetica,sans-Serif" font-size="10.00">Sensor.h</text>
</a>
</g>
</g>
<!-- Node1&#45;&gt;Node3 -->
<g id="edge62_Node000001_Node000003" class="edge">
<title>Node1&#45;&gt;Node3</title>
<g id="a_edge62_Node000001_Node000003"><a xlink:title=" ">
<path fill="none" stroke="#63b8ff" d="M1948.16,-223C1812.09,-203.99 1363.28,-141.29 1243.89,-124.61"/>
<polygon fill="#63b8ff" stroke="#63b8ff" points="1947.75,-226.48 1958.14,-224.4 1948.72,-219.55 1947.75,-226.48"/>
</a>
</g>
</g>
<!-- Node6 -->
<g id="Node000006" class="node">
<title>Node6</title>
<g id="a_Node000006"><a xlink:href="main_8cpp.html" target="_top" xlink:title="Main functions for Core 0, responsible for reading data from sensor peripherals.">
<polygon fill="white" stroke="#666666" points="824.5,-19 762.5,-19 762.5,0 824.5,0 824.5,-19"/>
<text text-anchor="middle" x="793.5" y="-7" font-family="Helvetica,sans-Serif" font-size="10.00">main.cpp</text>
</a>
</g>
</g>
<!-- Node1&#45;&gt;Node6 -->
<g id="edge64_Node000001_Node000006" class="edge">
<title>Node1&#45;&gt;Node6</title>
<g id="a_edge64_Node000001_Node000006"><a xlink:title=" ">
<path fill="none" stroke="#63b8ff" d="M1948.26,-224.91C1871.82,-217.84 1697.64,-201.26 1551.5,-184 1186.33,-140.88 973.61,-350.76 731.5,-74 713.54,-53.47 750.06,-30.98 774.3,-19.05"/>
<polygon fill="#63b8ff" stroke="#63b8ff" points="1948.1,-228.41 1958.38,-225.85 1948.75,-221.44 1948.1,-228.41"/>
</a>
</g>
</g>
<!-- Node39 -->
<g id="Node000039" class="node">
<title>Node39</title>
<g id="a_Node000039"><a xlink:href="Storage_8h.html" target="_top" xlink:title=" ">
<polygon fill="white" stroke="#666666" points="2315,-129 2252,-129 2252,-110 2315,-110 2315,-129"/>
<text text-anchor="middle" x="2283.5" y="-117" font-family="Helvetica,sans-Serif" font-size="10.00">Storage.h</text>
</a>
</g>
</g>
<!-- Node1&#45;&gt;Node39 -->
<g id="edge63_Node000001_Node000039" class="edge">
<title>Node1&#45;&gt;Node39</title>
<g id="a_edge63_Node000001_Node000039"><a xlink:title=" ">
<path fill="none" stroke="#63b8ff" d="M2020.4,-216.5C2080.71,-194.49 2207.56,-148.21 2260.02,-129.07"/>
<polygon fill="#63b8ff" stroke="#63b8ff" points="2019.17,-213.22 2010.97,-219.94 2021.57,-219.8 2019.17,-213.22"/>
</a>
</g>
</g>
<!-- Node42 -->
<g id="Node000042" class="node">
<title>Node42</title>
<g id="a_Node000042"><a xlink:href="main1_8cpp.html" target="_top" xlink:title="Main functions for Core 1, responsible for sending data to storage peripherals.">
<polygon fill="white" stroke="#666666" points="2500.5,-19 2432.5,-19 2432.5,0 2500.5,0 2500.5,-19"/>
<text text-anchor="middle" x="2466.5" y="-7" font-family="Helvetica,sans-Serif" font-size="10.00">main1.cpp</text>
</a>
</g>
</g>
<!-- Node1&#45;&gt;Node42 -->
<g id="edge65_Node000001_Node000042" class="edge">
<title>Node1&#45;&gt;Node42</title>
<g id="a_edge65_Node000001_Node000042"><a xlink:title=" ">
<path fill="none" stroke="#63b8ff" d="M2026.63,-223.43C2140.51,-207.81 2467.58,-156.39 2529.5,-74 2545.83,-52.28 2510.39,-30.58 2486.33,-19.02"/>
<polygon fill="#63b8ff" stroke="#63b8ff" points="2026.05,-219.98 2016.61,-224.79 2026.99,-226.92 2026.05,-219.98"/>
</a>
</g>
</g>
<!-- Node2&#45;&gt;Node3 -->
<g id="edge2_Node000002_Node000003" class="edge">
<title>Node2&#45;&gt;Node3</title>
<g id="a_edge2_Node000002_Node000003"><a xlink:title=" ">
<path fill="none" stroke="#63b8ff" d="M1947.63,-170.77C1810.92,-161.39 1362.97,-130.68 1243.83,-122.51"/>
<polygon fill="#63b8ff" stroke="#63b8ff" points="1947.46,-174.26 1957.67,-171.45 1947.93,-167.28 1947.46,-174.26"/>
</a>
</g>
</g>
<!-- Node2&#45;&gt;Node39 -->
<g id="edge50_Node000002_Node000039" class="edge">
<title>Node2&#45;&gt;Node39</title>
<g id="a_edge50_Node000002_Node000039"><a xlink:title=" ">
<path fill="none" stroke="#63b8ff" d="M2027.35,-166.36C2086.71,-155.74 2197.16,-135.96 2251.55,-126.22"/>
<polygon fill="#63b8ff" stroke="#63b8ff" points="2026.46,-162.97 2017.24,-168.18 2027.7,-169.86 2026.46,-162.97"/>
</a>
</g>
</g>
<!-- Node4 -->
<g id="Node000004" class="node">
<title>Node4</title>
<g id="a_Node000004"><a xlink:href="AS7331Sensor_8h.html" target="_top" xlink:title=" ">
<polygon fill="white" stroke="#666666" points="1535,-74 1440,-74 1440,-55 1535,-55 1535,-74"/>
<text text-anchor="middle" x="1487.5" y="-62" font-family="Helvetica,sans-Serif" font-size="10.00">AS7331Sensor.h</text>
</a>
</g>
</g>
<!-- Node3&#45;&gt;Node4 -->
<g id="edge3_Node000003_Node000004" class="edge">
<title>Node3&#45;&gt;Node4</title>
<g id="a_edge3_Node000003_Node000004"><a xlink:title=" ">
<path fill="none" stroke="#63b8ff" d="M1253.57,-110.91C1303.91,-101.14 1391.17,-84.2 1443.7,-74"/>
<polygon fill="#63b8ff" stroke="#63b8ff" points="1252.87,-107.49 1243.72,-112.83 1254.2,-114.36 1252.87,-107.49"/>
</a>
</g>
</g>
<!-- Node3&#45;&gt;Node6 -->
<g id="edge49_Node000003_Node000006" class="edge">
<title>Node3&#45;&gt;Node6</title>
<g id="a_edge49_Node000003_Node000006"><a xlink:title=" ">
<path fill="none" stroke="#63b8ff" d="M1175.09,-115.83C1098.12,-110.2 930.69,-95.82 877.5,-74 846.04,-61.09 815.95,-33.42 801.85,-19.25"/>
<polygon fill="#63b8ff" stroke="#63b8ff" points="1175.1,-119.34 1185.33,-116.57 1175.61,-112.36 1175.1,-119.34"/>
</a>
</g>
</g>
<!-- Node7 -->
<g id="Node000007" class="node">
<title>Node7</title>
<g id="a_Node000007"><a xlink:href="BME280Sensor_8h.html" target="_top" xlink:title=" ">
<polygon fill="white" stroke="#666666" points="1663.5,-74 1565.5,-74 1565.5,-55 1663.5,-55 1663.5,-74"/>
<text text-anchor="middle" x="1614.5" y="-62" font-family="Helvetica,sans-Serif" font-size="10.00">BME280Sensor.h</text>
</a>
</g>
</g>
<!-- Node3&#45;&gt;Node7 -->
<g id="edge6_Node000003_Node000007" class="edge">
<title>Node3&#45;&gt;Node7</title>
<g id="a_edge6_Node000003_Node000007"><a xlink:title=" ">
<path fill="none" stroke="#63b8ff" d="M1253.78,-113.29C1327.15,-103.57 1484.83,-82.68 1565.21,-72.03"/>
<polygon fill="#63b8ff" stroke="#63b8ff" points="1253.04,-109.86 1243.59,-114.65 1253.96,-116.8 1253.04,-109.86"/>
</a>
</g>
</g>
<!-- Node9 -->
<g id="Node000009" class="node">
<title>Node9</title>
<g id="a_Node000009"><a xlink:href="BME680Sensor_8h.html" target="_top" xlink:title=" ">
<polygon fill="white" stroke="#666666" points="1793.5,-74 1695.5,-74 1695.5,-55 1793.5,-55 1793.5,-74"/>
<text text-anchor="middle" x="1744.5" y="-62" font-family="Helvetica,sans-Serif" font-size="10.00">BME680Sensor.h</text>
</a>
</g>
</g>
<!-- Node3&#45;&gt;Node9 -->
<g id="edge8_Node000003_Node000009" class="edge">
<title>Node3&#45;&gt;Node9</title>
<g id="a_edge8_Node000003_Node000009"><a xlink:title=" ">
<path fill="none" stroke="#63b8ff" d="M1253.74,-114.96C1332.96,-107.76 1517.62,-90.67 1672.5,-74 1679.88,-73.21 1687.69,-72.33 1695.33,-71.44"/>
<polygon fill="#63b8ff" stroke="#63b8ff" points="1253.37,-111.48 1243.72,-115.87 1254,-118.45 1253.37,-111.48"/>
</a>
</g>
</g>
<!-- Node11 -->
<g id="Node000011" class="node">
<title>Node11</title>
<g id="a_Node000011"><a xlink:href="BMP390Sensor_8h.html" target="_top" xlink:title=" ">
<polygon fill="white" stroke="#666666" points="212.5,-74 114.5,-74 114.5,-55 212.5,-55 212.5,-74"/>
<text text-anchor="middle" x="163.5" y="-62" font-family="Helvetica,sans-Serif" font-size="10.00">BMP390Sensor.h</text>
</a>
</g>
</g>
<!-- Node3&#45;&gt;Node11 -->
<g id="edge10_Node000003_Node000011" class="edge">
<title>Node3&#45;&gt;Node11</title>
<g id="a_edge10_Node000003_Node000011"><a xlink:title=" ">
<path fill="none" stroke="#63b8ff" d="M1174.99,-118.16C1040.93,-116.69 591.14,-109.28 221.5,-74 218.56,-73.72 215.55,-73.39 212.51,-73.04"/>
<polygon fill="#63b8ff" stroke="#63b8ff" points="1175.15,-121.66 1185.18,-118.26 1175.22,-114.66 1175.15,-121.66"/>
</a>
</g>
</g>
<!-- Node13 -->
<g id="Node000013" class="node">
<title>Node13</title>
<g id="a_Node000013"><a xlink:href="DS3231Sensor_8h.html" target="_top" xlink:title=" ">
<polygon fill="white" stroke="#666666" points="1919,-74 1824,-74 1824,-55 1919,-55 1919,-74"/>
<text text-anchor="middle" x="1871.5" y="-62" font-family="Helvetica,sans-Serif" font-size="10.00">DS3231Sensor.h</text>
</a>
</g>
</g>
<!-- Node3&#45;&gt;Node13 -->
<g id="edge13_Node000003_Node000013" class="edge">
<title>Node3&#45;&gt;Node13</title>
<g id="a_edge13_Node000003_Node000013"><a xlink:title=" ">
<path fill="none" stroke="#63b8ff" d="M1253.85,-116.16C1348.49,-110.4 1596.26,-94.5 1802.5,-74 1809.35,-73.32 1816.56,-72.52 1823.65,-71.69"/>
<polygon fill="#63b8ff" stroke="#63b8ff" points="1253.37,-112.69 1243.6,-116.78 1253.8,-119.67 1253.37,-112.69"/>
</a>
</g>
</g>
<!-- Node15 -->
<g id="Node000015" class="node">
<title>Node15</title>
<g id="a_Node000015"><a xlink:href="ENS160Sensor_8h.html" target="_top" xlink:title=" ">
<polygon fill="white" stroke="#666666" points="326,-74 231,-74 231,-55 326,-55 326,-74"/>
<text text-anchor="middle" x="278.5" y="-62" font-family="Helvetica,sans-Serif" font-size="10.00">ENS160Sensor.h</text>
</a>
</g>
</g>
<!-- Node3&#45;&gt;Node15 -->
<g id="edge15_Node000003_Node000015" class="edge">
<title>Node3&#45;&gt;Node15</title>
<g id="a_edge15_Node000003_Node000015"><a xlink:title=" ">
<path fill="none" stroke="#63b8ff" d="M1175.02,-117.91C1050.96,-115.76 658.01,-106.65 334.5,-74 331.76,-73.72 328.95,-73.41 326.12,-73.06"/>
<polygon fill="#63b8ff" stroke="#63b8ff" points="1175.12,-121.41 1185.17,-118.08 1175.23,-114.41 1175.12,-121.41"/>
</a>
</g>
</g>
<!-- Node17 -->
<g id="Node000017" class="node">
<title>Node17</title>
<g id="a_Node000017"><a xlink:href="ICM20948Sensor_8h.html" target="_top" xlink:title=" ">
<polygon fill="white" stroke="#666666" points="451,-74 344,-74 344,-55 451,-55 451,-74"/>
<text text-anchor="middle" x="397.5" y="-62" font-family="Helvetica,sans-Serif" font-size="10.00">ICM20948Sensor.h</text>
</a>
</g>
</g>
<!-- Node3&#45;&gt;Node17 -->
<g id="edge18_Node000003_Node000017" class="edge">
<title>Node3&#45;&gt;Node17</title>
<g id="a_edge18_Node000003_Node000017"><a xlink:title=" ">
<path fill="none" stroke="#63b8ff" d="M1175.13,-117.25C1063.03,-113.48 732.63,-100.73 459.5,-74 456.8,-73.74 454.03,-73.44 451.24,-73.13"/>
<polygon fill="#63b8ff" stroke="#63b8ff" points="1175.18,-120.76 1185.29,-117.59 1175.41,-113.76 1175.18,-120.76"/>
</a>
</g>
</g>
<!-- Node19 -->
<g id="Node000019" class="node">
<title>Node19</title>
<g id="a_Node000019"><a xlink:href="INA260Sensor_8h.html" target="_top" xlink:title=" ">
<polygon fill="white" stroke="#666666" points="562,-74 469,-74 469,-55 562,-55 562,-74"/>
<text text-anchor="middle" x="515.5" y="-62" font-family="Helvetica,sans-Serif" font-size="10.00">INA260Sensor.h</text>
</a>
</g>
</g>
<!-- Node3&#45;&gt;Node19 -->
<g id="edge21_Node000003_Node000019" class="edge">
<title>Node3&#45;&gt;Node19</title>
<g id="a_edge21_Node000003_Node000019"><a xlink:title=" ">
<path fill="none" stroke="#63b8ff" d="M1175.25,-116.9C1074.66,-112.56 799.5,-99.15 571.5,-74 568.47,-73.67 565.35,-73.29 562.21,-72.88"/>
<polygon fill="#63b8ff" stroke="#63b8ff" points="1175.12,-120.4 1185.26,-117.33 1175.42,-113.4 1175.12,-120.4"/>
</a>
</g>
</g>
<!-- Node21 -->
<g id="Node000021" class="node">
<title>Node21</title>
<g id="a_Node000021"><a xlink:href="LSM9DS1Sensor_8h.html" target="_top" xlink:title=" ">
<polygon fill="white" stroke="#666666" points="2054.5,-74 1950.5,-74 1950.5,-55 2054.5,-55 2054.5,-74"/>
<text text-anchor="middle" x="2002.5" y="-62" font-family="Helvetica,sans-Serif" font-size="10.00">LSM9DS1Sensor.h</text>
</a>
</g>
</g>
<!-- Node3&#45;&gt;Node21 -->
<g id="edge24_Node000003_Node000021" class="edge">
<title>Node3&#45;&gt;Node21</title>
<g id="a_edge24_Node000003_Node000021"><a xlink:title=" ">
<path fill="none" stroke="#63b8ff" d="M1253.84,-116.74C1361.67,-111.78 1671.03,-96.52 1927.5,-74 1934.94,-73.35 1942.79,-72.56 1950.49,-71.74"/>
<polygon fill="#63b8ff" stroke="#63b8ff" points="1253.57,-113.25 1243.74,-117.21 1253.89,-120.24 1253.57,-113.25"/>
</a>
</g>
</g>
<!-- Node23 -->
<g id="Node000023" class="node">
<title>Node23</title>
<g id="a_Node000023"><a xlink:href="MTK3339Sensor_8h.html" target="_top" xlink:title=" ">
<polygon fill="white" stroke="#666666" points="684.5,-74 580.5,-74 580.5,-55 684.5,-55 684.5,-74"/>
<text text-anchor="middle" x="632.5" y="-62" font-family="Helvetica,sans-Serif" font-size="10.00">MTK3339Sensor.h</text>
</a>
</g>
</g>
<!-- Node3&#45;&gt;Node23 -->
<g id="edge26_Node000003_Node000023" class="edge">
<title>Node3&#45;&gt;Node23</title>
<g id="a_edge26_Node000003_Node000023"><a xlink:title=" ">
<path fill="none" stroke="#63b8ff" d="M1175.05,-114.91C1072.94,-105.61 799.89,-80.74 684.8,-70.26"/>
<polygon fill="#63b8ff" stroke="#63b8ff" points="1174.96,-118.41 1185.24,-115.84 1175.6,-111.44 1174.96,-118.41"/>
</a>
</g>
</g>
<!-- Node25 -->
<g id="Node000025" class="node">
<title>Node25</title>
<g id="a_Node000025"><a xlink:href="OzoneSensor_8h.html" target="_top" xlink:title=" ">
<polygon fill="white" stroke="#666666" points="830,-74 741,-74 741,-55 830,-55 830,-74"/>
<text text-anchor="middle" x="785.5" y="-62" font-family="Helvetica,sans-Serif" font-size="10.00">OzoneSensor.h</text>
</a>
</g>
</g>
<!-- Node3&#45;&gt;Node25 -->
<g id="edge29_Node000003_Node000025" class="edge">
<title>Node3&#45;&gt;Node25</title>
<g id="a_edge29_Node000003_Node000025"><a xlink:title=" ">
<path fill="none" stroke="#63b8ff" d="M1175,-114.06C1107.3,-106.37 964.75,-89.89 844.5,-74 839.88,-73.39 835.07,-72.73 830.26,-72.06"/>
<polygon fill="#63b8ff" stroke="#63b8ff" points="1174.88,-117.57 1185.21,-115.21 1175.67,-110.61 1174.88,-117.57"/>
</a>
</g>
</g>
<!-- Node27 -->
<g id="Node000027" class="node">
<title>Node27</title>
<g id="a_Node000027"><a xlink:href="PCF8523Sensor_8h.html" target="_top" xlink:title=" ">
<polygon fill="white" stroke="#666666" points="988,-74 887,-74 887,-55 988,-55 988,-74"/>
<text text-anchor="middle" x="937.5" y="-62" font-family="Helvetica,sans-Serif" font-size="10.00">PCF8523Sensor.h</text>
</a>
</g>
</g>
<!-- Node3&#45;&gt;Node27 -->
<g id="edge32_Node000003_Node000027" class="edge">
<title>Node3&#45;&gt;Node27</title>
<g id="a_edge32_Node000003_Node000027"><a xlink:title=" ">
<path fill="none" stroke="#63b8ff" d="M1175.42,-111.02C1124.49,-101.28 1035.65,-84.28 982.13,-74.04"/>
<polygon fill="#63b8ff" stroke="#63b8ff" points="1174.9,-114.49 1185.38,-112.93 1176.22,-107.61 1174.9,-114.49"/>
</a>
</g>
</g>
<!-- Node29 -->
<g id="Node000029" class="node">
<title>Node29</title>
<g id="a_Node000029"><a xlink:href="SCD40Sensor_8h.html" target="_top" xlink:title=" ">
<polygon fill="white" stroke="#666666" points="1096.5,-74 1006.5,-74 1006.5,-55 1096.5,-55 1096.5,-74"/>
<text text-anchor="middle" x="1051.5" y="-62" font-family="Helvetica,sans-Serif" font-size="10.00">SCD40Sensor.h</text>
</a>
</g>
</g>
<!-- Node3&#45;&gt;Node29 -->
<g id="edge35_Node000003_Node000029" class="edge">
<title>Node3&#45;&gt;Node29</title>
<g id="a_edge35_Node000003_Node000029"><a xlink:title=" ">
<path fill="none" stroke="#63b8ff" d="M1178.51,-106.8C1148.09,-96.91 1105.22,-82.97 1077.89,-74.08"/>
<polygon fill="#63b8ff" stroke="#63b8ff" points="1177.72,-110.22 1188.31,-109.98 1179.88,-103.56 1177.72,-110.22"/>
</a>
</g>
</g>
<!-- Node31 -->
<g id="Node000031" class="node">
<title>Node31</title>
<g id="a_Node000031"><a xlink:href="SGP30Sensor_8h.html" target="_top" xlink:title=" ">
<polygon fill="white" stroke="#666666" points="2168,-74 2079,-74 2079,-55 2168,-55 2168,-74"/>
<text text-anchor="middle" x="2123.5" y="-62" font-family="Helvetica,sans-Serif" font-size="10.00">SGP30Sensor.h</text>
</a>
</g>
</g>
<!-- Node3&#45;&gt;Node31 -->
<g id="edge38_Node000003_Node000031" class="edge">
<title>Node3&#45;&gt;Node31</title>
<g id="a_edge38_Node000003_Node000031"><a xlink:title=" ">
<path fill="none" stroke="#63b8ff" d="M1253.76,-117.68C1374.72,-114.87 1752.26,-104.14 2063.5,-74 2068.53,-73.51 2073.78,-72.91 2078.99,-72.25"/>
<polygon fill="#63b8ff" stroke="#63b8ff" points="1253.44,-114.18 1243.52,-117.91 1253.6,-121.18 1253.44,-114.18"/>
</a>
</g>
</g>
<!-- Node33 -->
<g id="Node000033" class="node">
<title>Node33</title>
<g id="a_Node000033"><a xlink:href="SHTC3Sensor_8h.html" target="_top" xlink:title=" ">
<polygon fill="white" stroke="#666666" points="1204,-74 1115,-74 1115,-55 1204,-55 1204,-74"/>
<text text-anchor="middle" x="1159.5" y="-62" font-family="Helvetica,sans-Serif" font-size="10.00">SHTC3Sensor.h</text>
</a>
</g>
</g>
<!-- Node3&#45;&gt;Node33 -->
<g id="edge40_Node000003_Node000033" class="edge">
<title>Node3&#45;&gt;Node33</title>
<g id="a_edge40_Node000003_Node000033"><a xlink:title=" ">
<path fill="none" stroke="#63b8ff" d="M1198.21,-102.8C1188.46,-93.41 1176.45,-81.83 1168.41,-74.09"/>
<polygon fill="#63b8ff" stroke="#63b8ff" points="1195.79,-105.33 1205.42,-109.75 1200.65,-100.29 1195.79,-105.33"/>
</a>
</g>
</g>
<!-- Node35 -->
<g id="Node000035" class="node">
<title>Node35</title>
<g id="a_Node000035"><a xlink:href="TMP117Sensor_8h.html" target="_top" xlink:title=" ">
<polygon fill="white" stroke="#666666" points="1319,-74 1222,-74 1222,-55 1319,-55 1319,-74"/>
<text text-anchor="middle" x="1270.5" y="-62" font-family="Helvetica,sans-Serif" font-size="10.00">TMP117Sensor.h</text>
</a>
</g>
</g>
<!-- Node3&#45;&gt;Node35 -->
<g id="edge43_Node000003_Node000035" class="edge">
<title>Node3&#45;&gt;Node35</title>
<g id="a_edge43_Node000003_Node000035"><a xlink:title=" ">
<path fill="none" stroke="#63b8ff" d="M1230.83,-103.04C1240.76,-93.64 1253.09,-81.98 1261.34,-74.17"/>
<polygon fill="#63b8ff" stroke="#63b8ff" points="1228.35,-100.57 1223.5,-109.98 1233.17,-105.65 1228.35,-100.57"/>
</a>
</g>
</g>
<!-- Node37 -->
<g id="Node000037" class="node">
<title>Node37</title>
<g id="a_Node000037"><a xlink:href="TempSensor_8h.html" target="_top" xlink:title=" ">
<polygon fill="white" stroke="#666666" points="1421.5,-74 1337.5,-74 1337.5,-55 1421.5,-55 1421.5,-74"/>
<text text-anchor="middle" x="1379.5" y="-62" font-family="Helvetica,sans-Serif" font-size="10.00">TempSensor.h</text>
</a>
</g>
</g>
<!-- Node3&#45;&gt;Node37 -->
<g id="edge46_Node000003_Node000037" class="edge">
<title>Node3&#45;&gt;Node37</title>
<g id="a_edge46_Node000003_Node000037"><a xlink:title=" ">
<path fill="none" stroke="#63b8ff" d="M1250.93,-106.8C1281.72,-96.91 1325.12,-82.97 1352.78,-74.08"/>
<polygon fill="#63b8ff" stroke="#63b8ff" points="1249.46,-103.59 1241.01,-109.98 1251.6,-110.26 1249.46,-103.59"/>
</a>
</g>
</g>
<!-- Node5 -->
<g id="Node000005" class="node">
<title>Node5</title>
<g id="a_Node000005"><a xlink:href="AS7331Sensor_8cpp.html" target="_top" xlink:title=" ">
<polygon fill="white" stroke="#666666" points="1557.5,-19 1451.5,-19 1451.5,0 1557.5,0 1557.5,-19"/>
<text text-anchor="middle" x="1504.5" y="-7" font-family="Helvetica,sans-Serif" font-size="10.00">AS7331Sensor.cpp</text>
</a>
</g>
</g>
<!-- Node4&#45;&gt;Node5 -->
<g id="edge4_Node000004_Node000005" class="edge">
<title>Node4&#45;&gt;Node5</title>
<g id="a_edge4_Node000004_Node000005"><a xlink:title=" ">
<path fill="none" stroke="#63b8ff" d="M1493.45,-44.95C1496.27,-36.15 1499.51,-26.06 1501.75,-19.09"/>
<polygon fill="#63b8ff" stroke="#63b8ff" points="1490.03,-44.16 1490.31,-54.75 1496.69,-46.29 1490.03,-44.16"/>
</a>
</g>
</g>
<!-- Node4&#45;&gt;Node6 -->
<g id="edge5_Node000004_Node000006" class="edge">
<title>Node4&#45;&gt;Node6</title>
<g id="a_edge5_Node000004_Node000006"><a xlink:title=" ">
<path fill="none" stroke="#63b8ff" d="M1429.62,-55.02C1164.34,-28.05 1093.56,-54.27 833.5,-19 830.69,-18.62 827.77,-18.15 824.87,-17.63"/>
<polygon fill="#63b8ff" stroke="#63b8ff" points="1429.65,-58.54 1439.95,-56.09 1430.37,-51.58 1429.65,-58.54"/>
</a>
</g>
</g>
<!-- Node8 -->
<g id="Node000008" class="node">
<title>Node8</title>
<g id="a_Node000008"><a xlink:href="BME280Sensor_8cpp.html" target="_top" xlink:title=" ">
<polygon fill="white" stroke="#666666" points="1685,-19 1576,-19 1576,0 1685,0 1685,-19"/>
<text text-anchor="middle" x="1630.5" y="-7" font-family="Helvetica,sans-Serif" font-size="10.00">BME280Sensor.cpp</text>
</a>
</g>
</g>
<!-- Node7&#45;&gt;Node8 -->
<g id="edge7_Node000007_Node000008" class="edge">
<title>Node7&#45;&gt;Node8</title>
<g id="a_edge7_Node000007_Node000008"><a xlink:title=" ">
<path fill="none" stroke="#63b8ff" d="M1620.1,-44.95C1622.76,-36.15 1625.8,-26.06 1627.91,-19.09"/>
<polygon fill="#63b8ff" stroke="#63b8ff" points="1616.68,-44.16 1617.14,-54.75 1623.38,-46.19 1616.68,-44.16"/>
</a>
</g>
</g>
<!-- Node10 -->
<g id="Node000010" class="node">
<title>Node10</title>
<g id="a_Node000010"><a xlink:href="BME680Sensor_8cpp.html" target="_top" xlink:title=" ">
<polygon fill="white" stroke="#666666" points="1812,-19 1703,-19 1703,0 1812,0 1812,-19"/>
<text text-anchor="middle" x="1757.5" y="-7" font-family="Helvetica,sans-Serif" font-size="10.00">BME680Sensor.cpp</text>
</a>
</g>
</g>
<!-- Node9&#45;&gt;Node10 -->
<g id="edge9_Node000009_Node000010" class="edge">
<title>Node9&#45;&gt;Node10</title>
<g id="a_edge9_Node000009_Node000010"><a xlink:title=" ">
<path fill="none" stroke="#63b8ff" d="M1749.05,-44.95C1751.21,-36.15 1753.68,-26.06 1755.39,-19.09"/>
<polygon fill="#63b8ff" stroke="#63b8ff" points="1745.63,-44.2 1746.65,-54.75 1752.43,-45.87 1745.63,-44.2"/>
</a>
</g>
</g>
<!-- Node11&#45;&gt;Node6 -->
<g id="edge12_Node000011_Node000006" class="edge">
<title>Node11&#45;&gt;Node6</title>
<g id="a_edge12_Node000011_Node000006"><a xlink:title=" ">
<path fill="none" stroke="#63b8ff" d="M222.8,-54.96C458.92,-30.41 522.11,-51.25 753.5,-19 756.31,-18.61 759.22,-18.13 762.13,-17.61"/>
<polygon fill="#63b8ff" stroke="#63b8ff" points="222.09,-51.51 212.51,-56.04 222.83,-58.47 222.09,-51.51"/>
</a>
</g>
</g>
<!-- Node12 -->
<g id="Node000012" class="node">
<title>Node12</title>
<g id="a_Node000012"><a xlink:href="BMP390Sensor_8cpp.html" target="_top" xlink:title=" ">
<polygon fill="white" stroke="#666666" points="109,-19 0,-19 0,0 109,0 109,-19"/>
<text text-anchor="middle" x="54.5" y="-7" font-family="Helvetica,sans-Serif" font-size="10.00">BMP390Sensor.cpp</text>
</a>
</g>
</g>
<!-- Node11&#45;&gt;Node12 -->
<g id="edge11_Node000011_Node000012" class="edge">
<title>Node11&#45;&gt;Node12</title>
<g id="a_edge11_Node000011_Node000012"><a xlink:title=" ">
<path fill="none" stroke="#63b8ff" d="M136.77,-50.5C116.71,-40.75 89.82,-27.68 72.33,-19.17"/>
<polygon fill="#63b8ff" stroke="#63b8ff" points="135.46,-53.76 145.99,-54.98 138.52,-47.46 135.46,-53.76"/>
</a>
</g>
</g>
<!-- Node14 -->
<g id="Node000014" class="node">
<title>Node14</title>
<g id="a_Node000014"><a xlink:href="DS3231Sensor_8cpp.html" target="_top" xlink:title=" ">
<polygon fill="white" stroke="#666666" points="1937,-19 1830,-19 1830,0 1937,0 1937,-19"/>
<text text-anchor="middle" x="1883.5" y="-7" font-family="Helvetica,sans-Serif" font-size="10.00">DS3231Sensor.cpp</text>
</a>
</g>
</g>
<!-- Node13&#45;&gt;Node14 -->
<g id="edge14_Node000013_Node000014" class="edge">
<title>Node13&#45;&gt;Node14</title>
<g id="a_edge14_Node000013_Node000014"><a xlink:title=" ">
<path fill="none" stroke="#63b8ff" d="M1875.7,-44.95C1877.69,-36.15 1879.98,-26.06 1881.56,-19.09"/>
<polygon fill="#63b8ff" stroke="#63b8ff" points="1872.28,-44.22 1873.48,-54.75 1879.1,-45.77 1872.28,-44.22"/>
</a>
</g>
</g>
<!-- Node15&#45;&gt;Node6 -->
<g id="edge17_Node000015_Node000006" class="edge">
<title>Node15&#45;&gt;Node6</title>
<g id="a_edge17_Node000015_Node000006"><a xlink:title=" ">
<path fill="none" stroke="#63b8ff" d="M336.23,-54.87C521.85,-33.43 571.87,-45.99 753.5,-19 756.31,-18.58 759.22,-18.09 762.12,-17.55"/>
<polygon fill="#63b8ff" stroke="#63b8ff" points="335.65,-51.41 326.13,-56.06 336.47,-58.37 335.65,-51.41"/>
</a>
</g>
</g>
<!-- Node16 -->
<g id="Node000016" class="node">
<title>Node16</title>
<g id="a_Node000016"><a xlink:href="ENS160Sensor_8cpp.html" target="_top" xlink:title=" ">
<polygon fill="white" stroke="#666666" points="234,-19 127,-19 127,0 234,0 234,-19"/>
<text text-anchor="middle" x="180.5" y="-7" font-family="Helvetica,sans-Serif" font-size="10.00">ENS160Sensor.cpp</text>
</a>
</g>
</g>
<!-- Node15&#45;&gt;Node16 -->
<g id="edge16_Node000015_Node000016" class="edge">
<title>Node15&#45;&gt;Node16</title>
<g id="a_edge16_Node000015_Node000016"><a xlink:title=" ">
<path fill="none" stroke="#63b8ff" d="M253.47,-49.97C235.56,-40.28 211.97,-27.52 196.53,-19.17"/>
<polygon fill="#63b8ff" stroke="#63b8ff" points="252.29,-53.31 262.75,-54.98 255.62,-47.15 252.29,-53.31"/>
</a>
</g>
</g>
<!-- Node17&#45;&gt;Node6 -->
<g id="edge20_Node000017_Node000006" class="edge">
<title>Node17&#45;&gt;Node6</title>
<g id="a_edge20_Node000017_Node000006"><a xlink:title=" ">
<path fill="none" stroke="#63b8ff" d="M461.24,-54.8C591.75,-38.17 626.83,-40.17 753.5,-19 756.3,-18.53 759.2,-18 762.11,-17.44"/>
<polygon fill="#63b8ff" stroke="#63b8ff" points="460.73,-51.33 451.26,-56.08 461.63,-58.28 460.73,-51.33"/>
</a>
</g>
</g>
<!-- Node18 -->
<g id="Node000018" class="node">
<title>Node18</title>
<g id="a_Node000018"><a xlink:href="ICM20948Sensor_8cpp.html" target="_top" xlink:title=" ">
<polygon fill="white" stroke="#666666" points="370.5,-19 252.5,-19 252.5,0 370.5,0 370.5,-19"/>
<text text-anchor="middle" x="311.5" y="-7" font-family="Helvetica,sans-Serif" font-size="10.00">ICM20948Sensor.cpp</text>
</a>
</g>
</g>
<!-- Node17&#45;&gt;Node18 -->
<g id="edge19_Node000017_Node000018" class="edge">
<title>Node17&#45;&gt;Node18</title>
<g id="a_edge19_Node000017_Node000018"><a xlink:title=" ">
<path fill="none" stroke="#63b8ff" d="M375.1,-49.7C359.43,-40.04 338.99,-27.44 325.57,-19.17"/>
<polygon fill="#63b8ff" stroke="#63b8ff" points="373.33,-52.72 383.68,-54.98 377.01,-46.76 373.33,-52.72"/>
</a>
</g>
</g>
<!-- Node19&#45;&gt;Node6 -->
<g id="edge23_Node000019_Node000006" class="edge">
<title>Node19&#45;&gt;Node6</title>
<g id="a_edge23_Node000019_Node000006"><a xlink:title=" ">
<path fill="none" stroke="#63b8ff" d="M572.02,-53.34C620.29,-44.56 691.54,-31.37 753.5,-19 756.28,-18.44 759.18,-17.85 762.07,-17.25"/>
<polygon fill="#63b8ff" stroke="#63b8ff" points="571.3,-49.91 562.08,-55.14 572.55,-56.8 571.3,-49.91"/>
</a>
</g>
</g>
<!-- Node20 -->
<g id="Node000020" class="node">
<title>Node20</title>
<g id="a_Node000020"><a xlink:href="INA260Sensor_8cpp.html" target="_top" xlink:title=" ">
<polygon fill="white" stroke="#666666" points="492.5,-19 388.5,-19 388.5,0 492.5,0 492.5,-19"/>
<text text-anchor="middle" x="440.5" y="-7" font-family="Helvetica,sans-Serif" font-size="10.00">INA260Sensor.cpp</text>
</a>
</g>
</g>
<!-- Node19&#45;&gt;Node20 -->
<g id="edge22_Node000019_Node000020" class="edge">
<title>Node19&#45;&gt;Node20</title>
<g id="a_edge22_Node000019_Node000020"><a xlink:title=" ">
<path fill="none" stroke="#63b8ff" d="M495.19,-49.15C481.64,-39.57 464.26,-27.29 452.77,-19.17"/>
<polygon fill="#63b8ff" stroke="#63b8ff" points="493.26,-52.07 503.45,-54.98 497.3,-46.36 493.26,-52.07"/>
</a>
</g>
</g>
<!-- Node22 -->
<g id="Node000022" class="node">
<title>Node22</title>
<g id="a_Node000022"><a xlink:href="LSM9DS1Sensor_8cpp.html" target="_top" xlink:title=" ">
<polygon fill="white" stroke="#666666" points="2070,-19 1955,-19 1955,0 2070,0 2070,-19"/>
<text text-anchor="middle" x="2012.5" y="-7" font-family="Helvetica,sans-Serif" font-size="10.00">LSM9DS1Sensor.cpp</text>
</a>
</g>
</g>
<!-- Node21&#45;&gt;Node22 -->
<g id="edge25_Node000021_Node000022" class="edge">
<title>Node21&#45;&gt;Node22</title>
<g id="a_edge25_Node000021_Node000022"><a xlink:title=" ">
<path fill="none" stroke="#63b8ff" d="M2006.05,-44.66C2007.7,-35.93 2009.58,-25.99 2010.88,-19.09"/>
<polygon fill="#63b8ff" stroke="#63b8ff" points="2002.57,-44.27 2004.15,-54.75 2009.44,-45.57 2002.57,-44.27"/>
</a>
</g>
</g>
<!-- Node23&#45;&gt;Node6 -->
<g id="edge28_Node000023_Node000006" class="edge">
<title>Node23&#45;&gt;Node6</title>
<g id="a_edge28_Node000023_Node000006"><a xlink:title=" ">
<path fill="none" stroke="#63b8ff" d="M668.05,-51.8C698.09,-41.91 740.44,-27.97 767.43,-19.08"/>
<polygon fill="#63b8ff" stroke="#63b8ff" points="666.77,-48.53 658.37,-54.98 668.96,-55.18 666.77,-48.53"/>
</a>
</g>
</g>
<!-- Node24 -->
<g id="Node000024" class="node">
<title>Node24</title>
<g id="a_Node000024"><a xlink:href="MTK3339Sensor_8cpp.html" target="_top" xlink:title=" ">
<polygon fill="white" stroke="#666666" points="626,-19 511,-19 511,0 626,0 626,-19"/>
<text text-anchor="middle" x="568.5" y="-7" font-family="Helvetica,sans-Serif" font-size="10.00">MTK3339Sensor.cpp</text>
</a>
</g>
</g>
<!-- Node23&#45;&gt;Node24 -->
<g id="edge27_Node000023_Node000024" class="edge">
<title>Node23&#45;&gt;Node24</title>
<g id="a_edge27_Node000023_Node000024"><a xlink:title=" ">
<path fill="none" stroke="#63b8ff" d="M614.51,-48.6C603.04,-39.11 588.59,-27.13 578.97,-19.17"/>
<polygon fill="#63b8ff" stroke="#63b8ff" points="612.28,-51.3 622.22,-54.98 616.75,-45.91 612.28,-51.3"/>
</a>
</g>
</g>
<!-- Node25&#45;&gt;Node6 -->
<g id="edge31_Node000025_Node000006" class="edge">
<title>Node25&#45;&gt;Node6</title>
<g id="a_edge31_Node000025_Node000006"><a xlink:title=" ">
<path fill="none" stroke="#63b8ff" d="M788.34,-44.66C789.66,-35.93 791.16,-25.99 792.2,-19.09"/>
<polygon fill="#63b8ff" stroke="#63b8ff" points="784.85,-44.34 786.82,-54.75 791.77,-45.38 784.85,-44.34"/>
</a>
</g>
</g>
<!-- Node26 -->
<g id="Node000026" class="node">
<title>Node26</title>
<g id="a_Node000026"><a xlink:href="OzoneSensor_8cpp.html" target="_top" xlink:title=" ">
<polygon fill="white" stroke="#666666" points="744.5,-19 644.5,-19 644.5,0 744.5,0 744.5,-19"/>
<text text-anchor="middle" x="694.5" y="-7" font-family="Helvetica,sans-Serif" font-size="10.00">OzoneSensor.cpp</text>
</a>
</g>
</g>
<!-- Node25&#45;&gt;Node26 -->
<g id="edge30_Node000025_Node000026" class="edge">
<title>Node25&#45;&gt;Node26</title>
<g id="a_edge30_Node000025_Node000026"><a xlink:title=" ">
<path fill="none" stroke="#63b8ff" d="M761.8,-49.7C745.22,-40.04 723.59,-27.44 709.39,-19.17"/>
<polygon fill="#63b8ff" stroke="#63b8ff" points="760.48,-52.98 770.88,-54.98 764,-46.93 760.48,-52.98"/>
</a>
</g>
</g>
<!-- Node27&#45;&gt;Node6 -->
<g id="edge34_Node000027_Node000006" class="edge">
<title>Node27&#45;&gt;Node6</title>
<g id="a_edge34_Node000027_Node000006"><a xlink:title=" ">
<path fill="none" stroke="#63b8ff" d="M904.68,-51.42C877.97,-41.59 840.9,-27.95 817.06,-19.17"/>
<polygon fill="#63b8ff" stroke="#63b8ff" points="903.77,-54.82 914.36,-54.98 906.19,-48.25 903.77,-54.82"/>
</a>
</g>
</g>
<!-- Node28 -->
<g id="Node000028" class="node">
<title>Node28</title>
<g id="a_Node000028"><a xlink:href="PCF8523Sensor_8cpp.html" target="_top" xlink:title=" ">
<polygon fill="white" stroke="#666666" points="954.5,-19 842.5,-19 842.5,0 954.5,0 954.5,-19"/>
<text text-anchor="middle" x="898.5" y="-7" font-family="Helvetica,sans-Serif" font-size="10.00">PCF8523Sensor.cpp</text>
</a>
</g>
</g>
<!-- Node27&#45;&gt;Node28 -->
<g id="edge33_Node000027_Node000028" class="edge">
<title>Node27&#45;&gt;Node28</title>
<g id="a_edge33_Node000027_Node000028"><a xlink:title=" ">
<path fill="none" stroke="#63b8ff" d="M925.12,-46.67C918.36,-37.5 910.29,-26.52 904.82,-19.09"/>
<polygon fill="#63b8ff" stroke="#63b8ff" points="922.31,-48.77 931.06,-54.75 927.95,-44.62 922.31,-48.77"/>
</a>
</g>
</g>
<!-- Node29&#45;&gt;Node6 -->
<g id="edge37_Node000029_Node000006" class="edge">
<title>Node29&#45;&gt;Node6</title>
<g id="a_edge37_Node000029_Node000006"><a xlink:title=" ">
<path fill="none" stroke="#63b8ff" d="M999.35,-52.98C955.17,-44.03 890.16,-30.8 833.5,-19 830.58,-18.39 827.54,-17.75 824.5,-17.11"/>
<polygon fill="#63b8ff" stroke="#63b8ff" points="998.78,-56.43 1009.28,-54.99 1000.17,-49.57 998.78,-56.43"/>
</a>
</g>
</g>
<!-- Node30 -->
<g id="Node000030" class="node">
<title>Node30</title>
<g id="a_Node000030"><a xlink:href="SCD40Sensor_8cpp.html" target="_top" xlink:title=" ">
<polygon fill="white" stroke="#666666" points="1074,-19 973,-19 973,0 1074,0 1074,-19"/>
<text text-anchor="middle" x="1023.5" y="-7" font-family="Helvetica,sans-Serif" font-size="10.00">SCD40Sensor.cpp</text>
</a>
</g>
</g>
<!-- Node29&#45;&gt;Node30 -->
<g id="edge36_Node000029_Node000030" class="edge">
<title>Node29&#45;&gt;Node30</title>
<g id="a_edge36_Node000029_Node000030"><a xlink:title=" ">
<path fill="none" stroke="#63b8ff" d="M1042.16,-45.82C1037.41,-36.82 1031.84,-26.29 1028.04,-19.09"/>
<polygon fill="#63b8ff" stroke="#63b8ff" points="1039.11,-47.54 1046.88,-54.75 1045.3,-44.27 1039.11,-47.54"/>
</a>
</g>
</g>
<!-- Node32 -->
<g id="Node000032" class="node">
<title>Node32</title>
<g id="a_Node000032"><a xlink:href="SGP30Sensor_8cpp.html" target="_top" xlink:title=" ">
<polygon fill="white" stroke="#666666" points="2189,-19 2088,-19 2088,0 2189,0 2189,-19"/>
<text text-anchor="middle" x="2138.5" y="-7" font-family="Helvetica,sans-Serif" font-size="10.00">SGP30Sensor.cpp</text>
</a>
</g>
</g>
<!-- Node31&#45;&gt;Node32 -->
<g id="edge39_Node000031_Node000032" class="edge">
<title>Node31&#45;&gt;Node32</title>
<g id="a_edge39_Node000031_Node000032"><a xlink:title=" ">
<path fill="none" stroke="#63b8ff" d="M2128.75,-44.95C2131.24,-36.15 2134.1,-26.06 2136.07,-19.09"/>
<polygon fill="#63b8ff" stroke="#63b8ff" points="2125.33,-44.17 2125.98,-54.75 2132.07,-46.08 2125.33,-44.17"/>
</a>
</g>
</g>
<!-- Node33&#45;&gt;Node6 -->
<g id="edge42_Node000033_Node000006" class="edge">
<title>Node33&#45;&gt;Node6</title>
<g id="a_edge42_Node000033_Node000006"><a xlink:title=" ">
<path fill="none" stroke="#63b8ff" d="M1104.65,-54.92C983.11,-37.62 950.51,-39.14 833.5,-19 830.7,-18.52 827.8,-17.98 824.9,-17.41"/>
<polygon fill="#63b8ff" stroke="#63b8ff" points="1104.33,-58.41 1114.72,-56.37 1105.32,-51.48 1104.33,-58.41"/>
</a>
</g>
</g>
<!-- Node34 -->
<g id="Node000034" class="node">
<title>Node34</title>
<g id="a_Node000034"><a xlink:href="SHTC3Sensor_8cpp.html" target="_top" xlink:title=" ">
<polygon fill="white" stroke="#666666" points="1193,-19 1092,-19 1092,0 1193,0 1193,-19"/>
<text text-anchor="middle" x="1142.5" y="-7" font-family="Helvetica,sans-Serif" font-size="10.00">SHTC3Sensor.cpp</text>
</a>
</g>
</g>
<!-- Node33&#45;&gt;Node34 -->
<g id="edge41_Node000033_Node000034" class="edge">
<title>Node33&#45;&gt;Node34</title>
<g id="a_edge41_Node000033_Node000034"><a xlink:title=" ">
<path fill="none" stroke="#63b8ff" d="M1153.55,-44.95C1150.73,-36.15 1147.49,-26.06 1145.25,-19.09"/>
<polygon fill="#63b8ff" stroke="#63b8ff" points="1150.31,-46.29 1156.69,-54.75 1156.97,-44.16 1150.31,-46.29"/>
</a>
</g>
</g>
<!-- Node35&#45;&gt;Node6 -->
<g id="edge45_Node000035_Node000006" class="edge">
<title>Node35&#45;&gt;Node6</title>
<g id="a_edge45_Node000035_Node000006"><a xlink:title=" ">
<path fill="none" stroke="#63b8ff" d="M1211.81,-54.99C1042.8,-35.09 997.57,-44.14 833.5,-19 830.69,-18.57 827.79,-18.07 824.88,-17.52"/>
<polygon fill="#63b8ff" stroke="#63b8ff" points="1211.45,-58.47 1221.79,-56.18 1212.28,-51.52 1211.45,-58.47"/>
</a>
</g>
</g>
<!-- Node36 -->
<g id="Node000036" class="node">
<title>Node36</title>
<g id="a_Node000036"><a xlink:href="TMP117Sensor_8cpp.html" target="_top" xlink:title=" ">
<polygon fill="white" stroke="#666666" points="1319.5,-19 1211.5,-19 1211.5,0 1319.5,0 1319.5,-19"/>
<text text-anchor="middle" x="1265.5" y="-7" font-family="Helvetica,sans-Serif" font-size="10.00">TMP117Sensor.cpp</text>
</a>
</g>
</g>
<!-- Node35&#45;&gt;Node36 -->
<g id="edge44_Node000035_Node000036" class="edge">
<title>Node35&#45;&gt;Node36</title>
<g id="a_edge44_Node000035_Node000036"><a xlink:title=" ">
<path fill="none" stroke="#63b8ff" d="M1268.72,-44.66C1267.9,-35.93 1266.96,-25.99 1266.31,-19.09"/>
<polygon fill="#63b8ff" stroke="#63b8ff" points="1265.25,-45.12 1269.67,-54.75 1272.22,-44.46 1265.25,-45.12"/>
</a>
</g>
</g>
<!-- Node37&#45;&gt;Node6 -->
<g id="edge48_Node000037_Node000006" class="edge">
<title>Node37&#45;&gt;Node6</title>
<g id="a_edge48_Node000037_Node000006"><a xlink:title=" ">
<path fill="none" stroke="#63b8ff" d="M1327,-55.08C1107.1,-29.83 1048.15,-49.48 833.5,-19 830.69,-18.6 827.78,-18.12 824.87,-17.59"/>
<polygon fill="#63b8ff" stroke="#63b8ff" points="1326.92,-58.59 1337.26,-56.27 1327.73,-51.64 1326.92,-58.59"/>
</a>
</g>
</g>
<!-- Node38 -->
<g id="Node000038" class="node">
<title>Node38</title>
<g id="a_Node000038"><a xlink:href="TempSensor_8cpp.html" target="_top" xlink:title=" ">
<polygon fill="white" stroke="#666666" points="1433,-19 1338,-19 1338,0 1433,0 1433,-19"/>
<text text-anchor="middle" x="1385.5" y="-7" font-family="Helvetica,sans-Serif" font-size="10.00">TempSensor.cpp</text>
</a>
</g>
</g>
<!-- Node37&#45;&gt;Node38 -->
<g id="edge47_Node000037_Node000038" class="edge">
<title>Node37&#45;&gt;Node38</title>
<g id="a_edge47_Node000037_Node000038"><a xlink:title=" ">
<path fill="none" stroke="#63b8ff" d="M1381.63,-44.66C1382.62,-35.93 1383.75,-25.99 1384.53,-19.09"/>
<polygon fill="#63b8ff" stroke="#63b8ff" points="1378.14,-44.42 1380.49,-54.75 1385.09,-45.21 1378.14,-44.42"/>
</a>
</g>
</g>
<!-- Node40 -->
<g id="Node000040" class="node">
<title>Node40</title>
<g id="a_Node000040"><a xlink:href="FlashStorage_8h.html" target="_top" xlink:title=" ">
<polygon fill="white" stroke="#666666" points="2278,-74 2189,-74 2189,-55 2278,-55 2278,-74"/>
<text text-anchor="middle" x="2233.5" y="-62" font-family="Helvetica,sans-Serif" font-size="10.00">FlashStorage.h</text>
</a>
</g>
</g>
<!-- Node39&#45;&gt;Node40 -->
<g id="edge51_Node000039_Node000040" class="edge">
<title>Node39&#45;&gt;Node40</title>
<g id="a_edge51_Node000039_Node000040"><a xlink:title=" ">
<path fill="none" stroke="#63b8ff" d="M2268.16,-102.24C2259.4,-92.95 2248.76,-81.68 2241.6,-74.09"/>
<polygon fill="#63b8ff" stroke="#63b8ff" points="2265.84,-104.88 2275.24,-109.75 2270.93,-100.07 2265.84,-104.88"/>
</a>
</g>
</g>
<!-- Node39&#45;&gt;Node42 -->
<g id="edge61_Node000039_Node000042" class="edge">
<title>Node39&#45;&gt;Node42</title>
<g id="a_edge61_Node000039_Node000042"><a xlink:title=" ">
<path fill="none" stroke="#63b8ff" d="M2315.37,-106.08C2334.98,-97.95 2360.31,-86.53 2381.5,-74 2410.36,-56.94 2441.15,-32.04 2456.53,-19.07"/>
<polygon fill="#63b8ff" stroke="#63b8ff" points="2313.92,-102.89 2305.98,-109.91 2316.56,-109.38 2313.92,-102.89"/>
</a>
</g>
</g>
<!-- Node43 -->
<g id="Node000043" class="node">
<title>Node43</title>
<g id="a_Node000043"><a xlink:href="RadioStorage_8h.html" target="_top" xlink:title=" ">
<polygon fill="white" stroke="#666666" points="2521,-74 2430,-74 2430,-55 2521,-55 2521,-74"/>
<text text-anchor="middle" x="2475.5" y="-62" font-family="Helvetica,sans-Serif" font-size="10.00">RadioStorage.h</text>
</a>
</g>
</g>
<!-- Node39&#45;&gt;Node43 -->
<g id="edge55_Node000039_Node000043" class="edge">
<title>Node39&#45;&gt;Node43</title>
<g id="a_edge55_Node000039_Node000043"><a xlink:title=" ">
<path fill="none" stroke="#63b8ff" d="M2324.03,-107.31C2359.96,-97.39 2411.66,-83.12 2444.41,-74.08"/>
<polygon fill="#63b8ff" stroke="#63b8ff" points="2323.06,-103.95 2314.35,-109.98 2324.92,-110.7 2323.06,-103.95"/>
</a>
</g>
</g>
<!-- Node45 -->
<g id="Node000045" class="node">
<title>Node45</title>
<g id="a_Node000045"><a xlink:href="SDStorage_8h.html" target="_top" xlink:title=" ">
<polygon fill="white" stroke="#666666" points="2373,-74 2296,-74 2296,-55 2373,-55 2373,-74"/>
<text text-anchor="middle" x="2334.5" y="-62" font-family="Helvetica,sans-Serif" font-size="10.00">SDStorage.h</text>
</a>
</g>
</g>
<!-- Node39&#45;&gt;Node45 -->
<g id="edge58_Node000039_Node000045" class="edge">
<title>Node39&#45;&gt;Node45</title>
<g id="a_edge58_Node000039_Node000045"><a xlink:title=" ">
<path fill="none" stroke="#63b8ff" d="M2298.88,-102.52C2307.87,-93.18 2318.86,-81.75 2326.24,-74.09"/>
<polygon fill="#63b8ff" stroke="#63b8ff" points="2296.33,-100.12 2291.92,-109.75 2301.38,-104.97 2296.33,-100.12"/>
</a>
</g>
</g>
<!-- Node40&#45;&gt;Node6 -->
<g id="edge53_Node000040_Node000006" class="edge">
<title>Node40&#45;&gt;Node6</title>
<g id="a_edge53_Node000040_Node000006"><a xlink:title=" ">
<path fill="none" stroke="#63b8ff" d="M2178.76,-55.21C2178,-55.13 2177.25,-55.07 2176.5,-55 1581.68,-2.87 1426.44,-89.35 833.5,-19 830.68,-18.67 827.76,-18.23 824.85,-17.73"/>
<polygon fill="#63b8ff" stroke="#63b8ff" points="2178.43,-58.69 2188.75,-56.3 2179.2,-51.73 2178.43,-58.69"/>
</a>
</g>
</g>
<!-- Node41 -->
<g id="Node000041" class="node">
<title>Node41</title>
<g id="a_Node000041"><a xlink:href="FlashStorage_8cpp.html" target="_top" xlink:title=" ">
<polygon fill="white" stroke="#666666" points="2308,-19 2207,-19 2207,0 2308,0 2308,-19"/>
<text text-anchor="middle" x="2257.5" y="-7" font-family="Helvetica,sans-Serif" font-size="10.00">FlashStorage.cpp</text>
</a>
</g>
</g>
<!-- Node40&#45;&gt;Node41 -->
<g id="edge52_Node000040_Node000041" class="edge">
<title>Node40&#45;&gt;Node41</title>
<g id="a_edge52_Node000040_Node000041"><a xlink:title=" ">
<path fill="none" stroke="#63b8ff" d="M2241.64,-45.53C2245.68,-36.6 2250.38,-26.22 2253.61,-19.09"/>
<polygon fill="#63b8ff" stroke="#63b8ff" points="2238.4,-44.19 2237.46,-54.75 2244.78,-47.08 2238.4,-44.19"/>
</a>
</g>
</g>
<!-- Node40&#45;&gt;Node42 -->
<g id="edge54_Node000040_Node000042" class="edge">
<title>Node40&#45;&gt;Node42</title>
<g id="a_edge54_Node000040_Node000042"><a xlink:title=" ">
<path fill="none" stroke="#63b8ff" d="M2280.74,-52.76C2325.65,-42.54 2392.14,-27.42 2432.19,-18.3"/>
<polygon fill="#63b8ff" stroke="#63b8ff" points="2279.91,-49.35 2270.94,-54.98 2281.46,-56.18 2279.91,-49.35"/>
</a>
</g>
</g>
<!-- Node43&#45;&gt;Node42 -->
<g id="edge57_Node000043_Node000042" class="edge">
<title>Node43&#45;&gt;Node42</title>
<g id="a_edge57_Node000043_Node000042"><a xlink:title=" ">
<path fill="none" stroke="#63b8ff" d="M2472.3,-44.66C2470.82,-35.93 2469.13,-25.99 2467.96,-19.09"/>
<polygon fill="#63b8ff" stroke="#63b8ff" points="2468.89,-45.48 2474.01,-54.75 2475.79,-44.3 2468.89,-45.48"/>
</a>
</g>
</g>
<!-- Node44 -->
<g id="Node000044" class="node">
<title>Node44</title>
<g id="a_Node000044"><a xlink:href="RadioStorage_8cpp.html" target="_top" xlink:title=" ">
<polygon fill="white" stroke="#666666" points="2620.5,-19 2518.5,-19 2518.5,0 2620.5,0 2620.5,-19"/>
<text text-anchor="middle" x="2569.5" y="-7" font-family="Helvetica,sans-Serif" font-size="10.00">RadioStorage.cpp</text>
</a>
</g>
</g>
<!-- Node43&#45;&gt;Node44 -->
<g id="edge56_Node000043_Node000044" class="edge">
<title>Node43&#45;&gt;Node44</title>
<g id="a_edge56_Node000043_Node000044"><a xlink:title=" ">
<path fill="none" stroke="#63b8ff" d="M2499.5,-49.97C2516.69,-40.28 2539.31,-27.52 2554.12,-19.17"/>
<polygon fill="#63b8ff" stroke="#63b8ff" points="2497.59,-47.02 2490.6,-54.98 2501.03,-53.12 2497.59,-47.02"/>
</a>
</g>
</g>
<!-- Node45&#45;&gt;Node42 -->
<g id="edge60_Node000045_Node000042" class="edge">
<title>Node45&#45;&gt;Node42</title>
<g id="a_edge60_Node000045_Node000042"><a xlink:title=" ">
<path fill="none" stroke="#63b8ff" d="M2365.23,-51.16C2389.67,-41.35 2423.24,-27.87 2444.91,-19.17"/>
<polygon fill="#63b8ff" stroke="#63b8ff" points="2363.68,-48.01 2355.71,-54.98 2366.29,-54.51 2363.68,-48.01"/>
</a>
</g>
</g>
<!-- Node46 -->
<g id="Node000046" class="node">
<title>Node46</title>
<g id="a_Node000046"><a xlink:href="SDStorage_8cpp.html" target="_top" xlink:title=" ">
<polygon fill="white" stroke="#666666" points="2414.5,-19 2326.5,-19 2326.5,0 2414.5,0 2414.5,-19"/>
<text text-anchor="middle" x="2370.5" y="-7" font-family="Helvetica,sans-Serif" font-size="10.00">SDStorage.cpp</text>
</a>
</g>
</g>
<!-- Node45&#45;&gt;Node46 -->
<g id="edge59_Node000045_Node000046" class="edge">
<title>Node45&#45;&gt;Node46</title>
<g id="a_edge59_Node000045_Node000046"><a xlink:title=" ">
<path fill="none" stroke="#63b8ff" d="M2346.12,-46.39C2352.32,-37.27 2359.67,-26.45 2364.67,-19.09"/>
<polygon fill="#63b8ff" stroke="#63b8ff" points="2343.17,-44.51 2340.44,-54.75 2348.96,-48.44 2343.17,-44.51"/>
</a>
</g>
</g>
</g>
</svg>
