<?xml version="1.0" encoding="UTF-8" standalone="no"?>
<!DOCTYPE svg PUBLIC "-//W3C//DTD SVG 1.1//EN"
 "http://www.w3.org/Graphics/SVG/1.1/DTD/svg11.dtd">
<!-- Generated by graphviz version 2.43.0 (0)
 -->
<!-- Title: Logger.h Pages: 1 -->
<!--zoomable 247 -->

<svg id="main" version="1.1" xmlns="http://www.w3.org/2000/svg" xmlns:xlink="http://www.w3.org/1999/xlink" xml:space="preserve" onload="init(evt)">
<style type="text/css"><![CDATA[
.node, .edge {opacity: 0.7;}
.node.selected, .edge.selected {opacity: 1;}
.edge:hover path { stroke: red; }
.edge:hover polygon { stroke: red; fill: red; }
]]></style>

<defs>
  <circle id="rim" cx="0" cy="0" r="7"/>
  <circle id="rim2" cx="0" cy="0" r="3.5"/>
  <g id="zoomPlus">
    <use xlink:href="#rim" fill="#404040"><set attributeName="fill" to="#808080" begin="zoomplus.mouseover" end="zoomplus.mouseout"/></use>
    <path d="M-4,0h8M0,-4v8" fill="none" stroke="white" stroke-width="1.5" pointer-events="none"/>
  </g>
  <g id="zoomMin">
    <use xlink:href="#rim" fill="#404040"><set attributeName="fill" to="#808080" begin="zoomminus.mouseover" end="zoomminus.mouseout"/></use>
    <path d="M-4,0h8" fill="none" stroke="white" stroke-width="1.5" pointer-events="none"/>
  </g>
  <g id="arrowUp" transform="translate(30 24)">
    <use xlink:href="#rim"/>
    <path pointer-events="none" fill="none" stroke="white" stroke-width="1.5" d="M0,-3.0v7 M-2.5,-0.5L0,-3.0L2.5,-0.5"/>
  </g>
  <g id="arrowRight" transform="rotate(90) translate(36 -43)">
    <use xlink:href="#rim"/>
    <path pointer-events="none" fill="none" stroke="white" stroke-width="1.5" d="M0,-3.0v7 M-2.5,-0.5L0,-3.0L2.5,-0.5"/>
  </g>
  <g id="arrowDown" transform="rotate(180) translate(-30 -48)">
    <use xlink:href="#rim"/>
    <path pointer-events="none" fill="none" stroke="white" stroke-width="1.5" d="M0,-3.0v7 M-2.5,-0.5L0,-3.0L2.5,-0.5"/>
  </g>
  <g id="arrowLeft" transform="rotate(270) translate(-36 17)">
    <use xlink:href="#rim"/>
    <path pointer-events="none" fill="none" stroke="white" stroke-width="1.5" d="M0,-3.0v7 M-2.5,-0.5L0,-3.0L2.5,-0.5"/>
  </g>
  <g id="resetDef">
    <use xlink:href="#rim2" fill="#404040"><set attributeName="fill" to="#808080" begin="reset.mouseover" end="reset.mouseout"/></use>
  </g>
</defs>
<script type="application/ecmascript">
var viewWidth = 2146;
var viewHeight = 247;
var sectionId = 'dynsection-1';
</script>
<script type="application/ecmascript" xlink:href="svg.min.js"/>
<svg id="graph" class="graph">
<g id="viewport">
<title>Logger.h</title>
<!-- Node1 -->
<g id="Node000001" class="node">
<title>Node1</title>
<g id="a_Node000001"><a xlink:title=" ">
<polygon fill="#999999" stroke="#666666" points="1700.5,-239 1642.5,-239 1642.5,-220 1700.5,-220 1700.5,-239"/>
<text text-anchor="middle" x="1671.5" y="-227" font-family="Helvetica,sans-Serif" font-size="10.00">Logger.h</text>
</a>
</g>
</g>
<!-- Node2 -->
<g id="Node000002" class="node">
<title>Node2</title>
<g id="a_Node000002"><a xlink:href="Device_8h.html" target="_top" xlink:title=" ">
<polygon fill="white" stroke="#666666" points="1643,-184 1584,-184 1584,-165 1643,-165 1643,-184"/>
<text text-anchor="middle" x="1613.5" y="-172" font-family="Helvetica,sans-Serif" font-size="10.00">Device.h</text>
</a>
</g>
</g>
<!-- Node1&#45;&gt;Node2 -->
<g id="edge1_Node000001_Node000002" class="edge">
<title>Node1&#45;&gt;Node2</title>
<g id="a_edge1_Node000001_Node000002"><a xlink:title=" ">
<path fill="none" stroke="#63b8ff" d="M1654.59,-213.04C1644.3,-203.64 1631.53,-191.98 1622.99,-184.17"/>
<polygon fill="#63b8ff" stroke="#63b8ff" points="1652.44,-215.82 1662.18,-219.98 1657.16,-210.66 1652.44,-215.82"/>
</a>
</g>
</g>
<!-- Node3 -->
<g id="Node000003" class="node">
<title>Node3</title>
<g id="a_Node000003"><a xlink:href="Sensor_8h.html" target="_top" xlink:title=" ">
<polygon fill="white" stroke="#666666" points="1041.5,-129 983.5,-129 983.5,-110 1041.5,-110 1041.5,-129"/>
<text text-anchor="middle" x="1012.5" y="-117" font-family="Helvetica,sans-Serif" font-size="10.00">Sensor.h</text>
</a>
</g>
</g>
<!-- Node1&#45;&gt;Node3 -->
<g id="edge50_Node000001_Node000003" class="edge">
<title>Node1&#45;&gt;Node3</title>
<g id="a_edge50_Node000001_Node000003"><a xlink:title=" ">
<path fill="none" stroke="#63b8ff" d="M1632.43,-222.1C1511.9,-202.34 1147.65,-142.65 1041.7,-125.29"/>
<polygon fill="#63b8ff" stroke="#63b8ff" points="1631.9,-225.56 1642.33,-223.72 1633.03,-218.65 1631.9,-225.56"/>
</a>
</g>
</g>
<!-- Node6 -->
<g id="Node000006" class="node">
<title>Node6</title>
<g id="a_Node000006"><a xlink:href="main_8cpp.html" target="_top" xlink:title="Main functions for Core 0, responsible for reading data from sensor peripherals.">
<polygon fill="white" stroke="#666666" points="1328.5,-19 1266.5,-19 1266.5,0 1328.5,0 1328.5,-19"/>
<text text-anchor="middle" x="1297.5" y="-7" font-family="Helvetica,sans-Serif" font-size="10.00">main.cpp</text>
</a>
</g>
</g>
<!-- Node1&#45;&gt;Node6 -->
<g id="edge52_Node000001_Node000006" class="edge">
<title>Node1&#45;&gt;Node6</title>
<g id="a_edge52_Node000001_Node000006"><a xlink:title=" ">
<path fill="none" stroke="#63b8ff" d="M1673.08,-209.93C1675.01,-173.99 1673.54,-94.95 1628.5,-55 1579.75,-11.77 1401.76,-29.78 1337.5,-19 1334.7,-18.53 1331.8,-18 1328.89,-17.44"/>
<polygon fill="#63b8ff" stroke="#63b8ff" points="1669.58,-209.76 1672.39,-219.98 1676.57,-210.25 1669.58,-209.76"/>
</a>
</g>
</g>
<!-- Node31 -->
<g id="Node000031" class="node">
<title>Node31</title>
<g id="a_Node000031"><a xlink:href="Storage_8h.html" target="_top" xlink:title=" ">
<polygon fill="white" stroke="#666666" points="1839,-129 1776,-129 1776,-110 1839,-110 1839,-129"/>
<text text-anchor="middle" x="1807.5" y="-117" font-family="Helvetica,sans-Serif" font-size="10.00">Storage.h</text>
</a>
</g>
</g>
<!-- Node1&#45;&gt;Node31 -->
<g id="edge51_Node000001_Node000031" class="edge">
<title>Node1&#45;&gt;Node31</title>
<g id="a_edge51_Node000001_Node000031"><a xlink:title=" ">
<path fill="none" stroke="#63b8ff" d="M1690.76,-213.21C1719.73,-190.2 1773.57,-147.44 1796.6,-129.16"/>
<polygon fill="#63b8ff" stroke="#63b8ff" points="1688.28,-210.7 1682.63,-219.66 1692.64,-216.18 1688.28,-210.7"/>
</a>
</g>
</g>
<!-- Node34 -->
<g id="Node000034" class="node">
<title>Node34</title>
<g id="a_Node000034"><a xlink:href="main1_8cpp.html" target="_top" xlink:title="Main functions for Core 1, responsible for sending data to storage peripherals.">
<polygon fill="white" stroke="#666666" points="2017.5,-19 1949.5,-19 1949.5,0 2017.5,0 2017.5,-19"/>
<text text-anchor="middle" x="1983.5" y="-7" font-family="Helvetica,sans-Serif" font-size="10.00">main1.cpp</text>
</a>
</g>
</g>
<!-- Node1&#45;&gt;Node34 -->
<g id="edge53_Node000001_Node000034" class="edge">
<title>Node1&#45;&gt;Node34</title>
<g id="a_edge53_Node000001_Node000034"><a xlink:title=" ">
<path fill="none" stroke="#63b8ff" d="M1710.97,-226.28C1791.89,-219.36 1975.62,-190.88 2054.5,-74 2070.32,-50.56 2033.33,-30.1 2007.02,-19.1"/>
<polygon fill="#63b8ff" stroke="#63b8ff" points="1710.4,-222.82 1700.71,-227.09 1710.95,-229.8 1710.4,-222.82"/>
</a>
</g>
</g>
<!-- Node2&#45;&gt;Node3 -->
<g id="edge2_Node000002_Node000003" class="edge">
<title>Node2&#45;&gt;Node3</title>
<g id="a_edge2_Node000002_Node000003"><a xlink:title=" ">
<path fill="none" stroke="#63b8ff" d="M1573.41,-169.96C1460.27,-159.99 1140.34,-131.77 1041.77,-123.08"/>
<polygon fill="#63b8ff" stroke="#63b8ff" points="1573.43,-173.48 1583.7,-170.87 1574.04,-166.51 1573.43,-173.48"/>
</a>
</g>
</g>
<!-- Node2&#45;&gt;Node31 -->
<g id="edge38_Node000002_Node000031" class="edge">
<title>Node2&#45;&gt;Node31</title>
<g id="a_edge38_Node000002_Node000031"><a xlink:title=" ">
<path fill="none" stroke="#63b8ff" d="M1653.18,-162.66C1689.6,-152.71 1742.83,-138.17 1776.29,-129.03"/>
<polygon fill="#63b8ff" stroke="#63b8ff" points="1652.11,-159.32 1643.39,-165.33 1653.96,-166.08 1652.11,-159.32"/>
</a>
</g>
</g>
<!-- Node4 -->
<g id="Node000004" class="node">
<title>Node4</title>
<g id="a_Node000004"><a xlink:href="AS7331Sensor_8h.html" target="_top" xlink:title=" ">
<polygon fill="white" stroke="#666666" points="771,-74 676,-74 676,-55 771,-55 771,-74"/>
<text text-anchor="middle" x="723.5" y="-62" font-family="Helvetica,sans-Serif" font-size="10.00">AS7331Sensor.h</text>
</a>
</g>
</g>
<!-- Node3&#45;&gt;Node4 -->
<g id="edge3_Node000003_Node000004" class="edge">
<title>Node3&#45;&gt;Node4</title>
<g id="a_edge3_Node000003_Node000004"><a xlink:title=" ">
<path fill="none" stroke="#63b8ff" d="M973.48,-111.34C920.65,-101.66 826.52,-84.39 770.06,-74.04"/>
<polygon fill="#63b8ff" stroke="#63b8ff" points="973,-114.81 983.47,-113.18 974.26,-107.93 973,-114.81"/>
</a>
</g>
</g>
<!-- Node3&#45;&gt;Node6 -->
<g id="edge37_Node000003_Node000006" class="edge">
<title>Node3&#45;&gt;Node6</title>
<g id="a_edge37_Node000003_Node000006"><a xlink:title=" ">
<path fill="none" stroke="#63b8ff" d="M1051.73,-118.97C1100.48,-117.84 1184.66,-110.19 1245.5,-74 1268.28,-60.45 1285.41,-33.07 1293.07,-19.11"/>
<polygon fill="#63b8ff" stroke="#63b8ff" points="1051.54,-115.47 1041.59,-119.12 1051.64,-122.47 1051.54,-115.47"/>
</a>
</g>
</g>
<!-- Node7 -->
<g id="Node000007" class="node">
<title>Node7</title>
<g id="a_Node000007"><a xlink:href="BME280Sensor_8h.html" target="_top" xlink:title=" ">
<polygon fill="white" stroke="#666666" points="114.5,-74 16.5,-74 16.5,-55 114.5,-55 114.5,-74"/>
<text text-anchor="middle" x="65.5" y="-62" font-family="Helvetica,sans-Serif" font-size="10.00">BME280Sensor.h</text>
</a>
</g>
</g>
<!-- Node3&#45;&gt;Node7 -->
<g id="edge6_Node000003_Node000007" class="edge">
<title>Node3&#45;&gt;Node7</title>
<g id="a_edge6_Node000003_Node000007"><a xlink:title=" ">
<path fill="none" stroke="#63b8ff" d="M973.29,-117.7C849.21,-114.91 454.11,-104.11 128.5,-74 123.99,-73.58 119.32,-73.08 114.64,-72.53"/>
<polygon fill="#63b8ff" stroke="#63b8ff" points="973.36,-121.2 983.44,-117.92 973.52,-114.2 973.36,-121.2"/>
</a>
</g>
</g>
<!-- Node9 -->
<g id="Node000009" class="node">
<title>Node9</title>
<g id="a_Node000009"><a xlink:href="BME680Sensor_8h.html" target="_top" xlink:title=" ">
<polygon fill="white" stroke="#666666" points="235.5,-74 137.5,-74 137.5,-55 235.5,-55 235.5,-74"/>
<text text-anchor="middle" x="186.5" y="-62" font-family="Helvetica,sans-Serif" font-size="10.00">BME680Sensor.h</text>
</a>
</g>
</g>
<!-- Node3&#45;&gt;Node9 -->
<g id="edge8_Node000003_Node000009" class="edge">
<title>Node3&#45;&gt;Node9</title>
<g id="a_edge8_Node000003_Node000009"><a xlink:title=" ">
<path fill="none" stroke="#63b8ff" d="M973.04,-117.07C860.7,-112.81 529.53,-98.91 255.5,-74 249.13,-73.42 242.44,-72.72 235.83,-71.97"/>
<polygon fill="#63b8ff" stroke="#63b8ff" points="973.1,-120.57 983.22,-117.45 973.36,-113.58 973.1,-120.57"/>
</a>
</g>
</g>
<!-- Node11 -->
<g id="Node000011" class="node">
<title>Node11</title>
<g id="a_Node000011"><a xlink:href="BMP390Sensor_8h.html" target="_top" xlink:title=" ">
<polygon fill="white" stroke="#666666" points="887.5,-74 789.5,-74 789.5,-55 887.5,-55 887.5,-74"/>
<text text-anchor="middle" x="838.5" y="-62" font-family="Helvetica,sans-Serif" font-size="10.00">BMP390Sensor.h</text>
</a>
</g>
</g>
<!-- Node3&#45;&gt;Node11 -->
<g id="edge10_Node000003_Node000011" class="edge">
<title>Node3&#45;&gt;Node11</title>
<g id="a_edge10_Node000003_Node000011"><a xlink:title=" ">
<path fill="none" stroke="#63b8ff" d="M974.93,-107.06C942.41,-97.15 896.1,-83.04 866.68,-74.08"/>
<polygon fill="#63b8ff" stroke="#63b8ff" points="973.96,-110.42 984.54,-109.98 976,-103.72 973.96,-110.42"/>
</a>
</g>
</g>
<!-- Node13 -->
<g id="Node000013" class="node">
<title>Node13</title>
<g id="a_Node000013"><a xlink:href="DS3231Sensor_8h.html" target="_top" xlink:title=" ">
<polygon fill="white" stroke="#666666" points="360,-74 265,-74 265,-55 360,-55 360,-74"/>
<text text-anchor="middle" x="312.5" y="-62" font-family="Helvetica,sans-Serif" font-size="10.00">DS3231Sensor.h</text>
</a>
</g>
</g>
<!-- Node3&#45;&gt;Node13 -->
<g id="edge13_Node000003_Node000013" class="edge">
<title>Node3&#45;&gt;Node13</title>
<g id="a_edge13_Node000003_Node000013"><a xlink:title=" ">
<path fill="none" stroke="#63b8ff" d="M973.31,-116.48C873.99,-111.2 604.42,-95.86 380.5,-74 373.87,-73.35 366.89,-72.58 360.02,-71.77"/>
<polygon fill="#63b8ff" stroke="#63b8ff" points="973.31,-119.98 983.48,-117.02 973.67,-112.99 973.31,-119.98"/>
</a>
</g>
</g>
<!-- Node15 -->
<g id="Node000015" class="node">
<title>Node15</title>
<g id="a_Node000015"><a xlink:href="ENS160Sensor_8h.html" target="_top" xlink:title=" ">
<polygon fill="white" stroke="#666666" points="1001,-74 906,-74 906,-55 1001,-55 1001,-74"/>
<text text-anchor="middle" x="953.5" y="-62" font-family="Helvetica,sans-Serif" font-size="10.00">ENS160Sensor.h</text>
</a>
</g>
</g>
<!-- Node3&#45;&gt;Node15 -->
<g id="edge15_Node000003_Node000015" class="edge">
<title>Node3&#45;&gt;Node15</title>
<g id="a_edge15_Node000003_Node000015"><a xlink:title=" ">
<path fill="none" stroke="#63b8ff" d="M995.3,-103.04C984.83,-93.64 971.85,-81.98 963.15,-74.17"/>
<polygon fill="#63b8ff" stroke="#63b8ff" points="993.24,-105.91 1003.02,-109.98 997.92,-100.7 993.24,-105.91"/>
</a>
</g>
</g>
<!-- Node17 -->
<g id="Node000017" class="node">
<title>Node17</title>
<g id="a_Node000017"><a xlink:href="ICM20948Sensor_8h.html" target="_top" xlink:title=" ">
<polygon fill="white" stroke="#666666" points="1126,-74 1019,-74 1019,-55 1126,-55 1126,-74"/>
<text text-anchor="middle" x="1072.5" y="-62" font-family="Helvetica,sans-Serif" font-size="10.00">ICM20948Sensor.h</text>
</a>
</g>
</g>
<!-- Node3&#45;&gt;Node17 -->
<g id="edge18_Node000003_Node000017" class="edge">
<title>Node3&#45;&gt;Node17</title>
<g id="a_edge18_Node000003_Node000017"><a xlink:title=" ">
<path fill="none" stroke="#63b8ff" d="M1029.68,-103.32C1040.38,-93.87 1053.76,-82.06 1062.68,-74.17"/>
<polygon fill="#63b8ff" stroke="#63b8ff" points="1027.32,-100.74 1022.14,-109.98 1031.95,-105.99 1027.32,-100.74"/>
</a>
</g>
</g>
<!-- Node19 -->
<g id="Node000019" class="node">
<title>Node19</title>
<g id="a_Node000019"><a xlink:href="INA260Sensor_8h.html" target="_top" xlink:title=" ">
<polygon fill="white" stroke="#666666" points="1237,-74 1144,-74 1144,-55 1237,-55 1237,-74"/>
<text text-anchor="middle" x="1190.5" y="-62" font-family="Helvetica,sans-Serif" font-size="10.00">INA260Sensor.h</text>
</a>
</g>
</g>
<!-- Node3&#45;&gt;Node19 -->
<g id="edge21_Node000003_Node000019" class="edge">
<title>Node3&#45;&gt;Node19</title>
<g id="a_edge21_Node000003_Node000019"><a xlink:title=" ">
<path fill="none" stroke="#63b8ff" d="M1050.94,-107.06C1084.2,-97.15 1131.58,-83.04 1161.68,-74.08"/>
<polygon fill="#63b8ff" stroke="#63b8ff" points="1049.68,-103.78 1041.1,-109.98 1051.68,-110.49 1049.68,-103.78"/>
</a>
</g>
</g>
<!-- Node21 -->
<g id="Node000021" class="node">
<title>Node21</title>
<g id="a_Node000021"><a xlink:href="LSM9DS1Sensor_8h.html" target="_top" xlink:title=" ">
<polygon fill="white" stroke="#666666" points="493.5,-74 389.5,-74 389.5,-55 493.5,-55 493.5,-74"/>
<text text-anchor="middle" x="441.5" y="-62" font-family="Helvetica,sans-Serif" font-size="10.00">LSM9DS1Sensor.h</text>
</a>
</g>
</g>
<!-- Node3&#45;&gt;Node21 -->
<g id="edge24_Node000003_Node000021" class="edge">
<title>Node3&#45;&gt;Node21</title>
<g id="a_edge24_Node000003_Node000021"><a xlink:title=" ">
<path fill="none" stroke="#63b8ff" d="M973.39,-114.87C873.11,-105.56 606.77,-80.84 493.58,-70.33"/>
<polygon fill="#63b8ff" stroke="#63b8ff" points="973.12,-118.36 983.4,-115.8 973.77,-111.39 973.12,-118.36"/>
</a>
</g>
</g>
<!-- Node23 -->
<g id="Node000023" class="node">
<title>Node23</title>
<g id="a_Node000023"><a xlink:href="MTK3339Sensor_8h.html" target="_top" xlink:title=" ">
<polygon fill="white" stroke="#666666" points="1397.5,-74 1293.5,-74 1293.5,-55 1397.5,-55 1397.5,-74"/>
<text text-anchor="middle" x="1345.5" y="-62" font-family="Helvetica,sans-Serif" font-size="10.00">MTK3339Sensor.h</text>
</a>
</g>
</g>
<!-- Node3&#45;&gt;Node23 -->
<g id="edge26_Node000003_Node000023" class="edge">
<title>Node3&#45;&gt;Node23</title>
<g id="a_edge26_Node000003_Node000023"><a xlink:title=" ">
<path fill="none" stroke="#63b8ff" d="M1051.96,-112.22C1112,-102.66 1226.35,-84.46 1293.23,-73.82"/>
<polygon fill="#63b8ff" stroke="#63b8ff" points="1051.09,-108.81 1041.76,-113.84 1052.19,-115.73 1051.09,-108.81"/>
</a>
</g>
</g>
<!-- Node25 -->
<g id="Node000025" class="node">
<title>Node25</title>
<g id="a_Node000025"><a xlink:href="PCF8523Sensor_8h.html" target="_top" xlink:title=" ">
<polygon fill="white" stroke="#666666" points="1517,-74 1416,-74 1416,-55 1517,-55 1517,-74"/>
<text text-anchor="middle" x="1466.5" y="-62" font-family="Helvetica,sans-Serif" font-size="10.00">PCF8523Sensor.h</text>
</a>
</g>
</g>
<!-- Node3&#45;&gt;Node25 -->
<g id="edge29_Node000003_Node000025" class="edge">
<title>Node3&#45;&gt;Node25</title>
<g id="a_edge29_Node000003_Node000025"><a xlink:title=" ">
<path fill="none" stroke="#63b8ff" d="M1051.96,-114.42C1122.96,-106.99 1276.92,-90.49 1406.5,-74 1409.53,-73.61 1412.64,-73.21 1415.77,-72.79"/>
<polygon fill="#63b8ff" stroke="#63b8ff" points="1051.28,-110.97 1041.7,-115.49 1052.01,-117.93 1051.28,-110.97"/>
</a>
</g>
</g>
<!-- Node27 -->
<g id="Node000027" class="node">
<title>Node27</title>
<g id="a_Node000027"><a xlink:href="SGP30Sensor_8h.html" target="_top" xlink:title=" ">
<polygon fill="white" stroke="#666666" points="632,-74 543,-74 543,-55 632,-55 632,-74"/>
<text text-anchor="middle" x="587.5" y="-62" font-family="Helvetica,sans-Serif" font-size="10.00">SGP30Sensor.h</text>
</a>
</g>
</g>
<!-- Node3&#45;&gt;Node27 -->
<g id="edge32_Node000003_Node000027" class="edge">
<title>Node3&#45;&gt;Node27</title>
<g id="a_edge32_Node000003_Node000027"><a xlink:title=" ">
<path fill="none" stroke="#63b8ff" d="M973.24,-113.6C894.02,-103.73 715.53,-81.47 632.08,-71.06"/>
<polygon fill="#63b8ff" stroke="#63b8ff" points="972.93,-117.09 983.29,-114.86 973.8,-110.15 972.93,-117.09"/>
</a>
</g>
</g>
<!-- Node29 -->
<g id="Node000029" class="node">
<title>Node29</title>
<g id="a_Node000029"><a xlink:href="TempSensor_8h.html" target="_top" xlink:title=" ">
<polygon fill="white" stroke="#666666" points="1619.5,-74 1535.5,-74 1535.5,-55 1619.5,-55 1619.5,-74"/>
<text text-anchor="middle" x="1577.5" y="-62" font-family="Helvetica,sans-Serif" font-size="10.00">TempSensor.h</text>
</a>
</g>
</g>
<!-- Node3&#45;&gt;Node29 -->
<g id="edge34_Node000003_Node000029" class="edge">
<title>Node3&#45;&gt;Node29</title>
<g id="a_edge34_Node000003_Node000029"><a xlink:title=" ">
<path fill="none" stroke="#63b8ff" d="M1051.67,-116.17C1137.78,-110.8 1349.92,-96.32 1526.5,-74 1529.35,-73.64 1532.28,-73.24 1535.24,-72.81"/>
<polygon fill="#63b8ff" stroke="#63b8ff" points="1051.33,-112.68 1041.57,-116.79 1051.76,-119.67 1051.33,-112.68"/>
</a>
</g>
</g>
<!-- Node5 -->
<g id="Node000005" class="node">
<title>Node5</title>
<g id="a_Node000005"><a xlink:href="AS7331Sensor_8cpp.html" target="_top" xlink:title=" ">
<polygon fill="white" stroke="#666666" points="737.5,-19 631.5,-19 631.5,0 737.5,0 737.5,-19"/>
<text text-anchor="middle" x="684.5" y="-7" font-family="Helvetica,sans-Serif" font-size="10.00">AS7331Sensor.cpp</text>
</a>
</g>
</g>
<!-- Node4&#45;&gt;Node5 -->
<g id="edge4_Node000004_Node000005" class="edge">
<title>Node4&#45;&gt;Node5</title>
<g id="a_edge4_Node000004_Node000005"><a xlink:title=" ">
<path fill="none" stroke="#63b8ff" d="M711.12,-46.67C704.36,-37.5 696.29,-26.52 690.82,-19.09"/>
<polygon fill="#63b8ff" stroke="#63b8ff" points="708.31,-48.77 717.06,-54.75 713.95,-44.62 708.31,-48.77"/>
</a>
</g>
</g>
<!-- Node4&#45;&gt;Node6 -->
<g id="edge5_Node000004_Node000006" class="edge">
<title>Node4&#45;&gt;Node6</title>
<g id="a_edge5_Node000004_Node000006"><a xlink:title=" ">
<path fill="none" stroke="#63b8ff" d="M781.28,-55.01C993.54,-31.85 1050.34,-48.69 1257.5,-19 1260.31,-18.6 1263.22,-18.11 1266.13,-17.58"/>
<polygon fill="#63b8ff" stroke="#63b8ff" points="780.61,-51.56 771.05,-56.14 781.38,-58.52 780.61,-51.56"/>
</a>
</g>
</g>
<!-- Node8 -->
<g id="Node000008" class="node">
<title>Node8</title>
<g id="a_Node000008"><a xlink:href="BME280Sensor_8cpp.html" target="_top" xlink:title=" ">
<polygon fill="white" stroke="#666666" points="109,-19 0,-19 0,0 109,0 109,-19"/>
<text text-anchor="middle" x="54.5" y="-7" font-family="Helvetica,sans-Serif" font-size="10.00">BME280Sensor.cpp</text>
</a>
</g>
</g>
<!-- Node7&#45;&gt;Node8 -->
<g id="edge7_Node000007_Node000008" class="edge">
<title>Node7&#45;&gt;Node8</title>
<g id="a_edge7_Node000007_Node000008"><a xlink:title=" ">
<path fill="none" stroke="#63b8ff" d="M61.65,-44.95C59.82,-36.15 57.73,-26.06 56.28,-19.09"/>
<polygon fill="#63b8ff" stroke="#63b8ff" points="58.22,-45.67 63.68,-54.75 65.08,-44.25 58.22,-45.67"/>
</a>
</g>
</g>
<!-- Node10 -->
<g id="Node000010" class="node">
<title>Node10</title>
<g id="a_Node000010"><a xlink:href="BME680Sensor_8cpp.html" target="_top" xlink:title=" ">
<polygon fill="white" stroke="#666666" points="236,-19 127,-19 127,0 236,0 236,-19"/>
<text text-anchor="middle" x="181.5" y="-7" font-family="Helvetica,sans-Serif" font-size="10.00">BME680Sensor.cpp</text>
</a>
</g>
</g>
<!-- Node9&#45;&gt;Node10 -->
<g id="edge9_Node000009_Node000010" class="edge">
<title>Node9&#45;&gt;Node10</title>
<g id="a_edge9_Node000009_Node000010"><a xlink:title=" ">
<path fill="none" stroke="#63b8ff" d="M184.72,-44.66C183.9,-35.93 182.96,-25.99 182.31,-19.09"/>
<polygon fill="#63b8ff" stroke="#63b8ff" points="181.25,-45.12 185.67,-54.75 188.22,-44.46 181.25,-45.12"/>
</a>
</g>
</g>
<!-- Node11&#45;&gt;Node6 -->
<g id="edge12_Node000011_Node000006" class="edge">
<title>Node11&#45;&gt;Node6</title>
<g id="a_edge12_Node000011_Node000006"><a xlink:title=" ">
<path fill="none" stroke="#63b8ff" d="M897.77,-54.91C1058.29,-35.64 1101.44,-43.29 1257.5,-19 1260.31,-18.56 1263.21,-18.06 1266.12,-17.51"/>
<polygon fill="#63b8ff" stroke="#63b8ff" points="897.03,-51.47 887.53,-56.15 897.88,-58.42 897.03,-51.47"/>
</a>
</g>
</g>
<!-- Node12 -->
<g id="Node000012" class="node">
<title>Node12</title>
<g id="a_Node000012"><a xlink:href="BMP390Sensor_8cpp.html" target="_top" xlink:title=" ">
<polygon fill="white" stroke="#666666" points="865,-19 756,-19 756,0 865,0 865,-19"/>
<text text-anchor="middle" x="810.5" y="-7" font-family="Helvetica,sans-Serif" font-size="10.00">BMP390Sensor.cpp</text>
</a>
</g>
</g>
<!-- Node11&#45;&gt;Node12 -->
<g id="edge11_Node000011_Node000012" class="edge">
<title>Node11&#45;&gt;Node12</title>
<g id="a_edge11_Node000011_Node000012"><a xlink:title=" ">
<path fill="none" stroke="#63b8ff" d="M829.16,-45.82C824.41,-36.82 818.84,-26.29 815.04,-19.09"/>
<polygon fill="#63b8ff" stroke="#63b8ff" points="826.11,-47.54 833.88,-54.75 832.3,-44.27 826.11,-47.54"/>
</a>
</g>
</g>
<!-- Node14 -->
<g id="Node000014" class="node">
<title>Node14</title>
<g id="a_Node000014"><a xlink:href="DS3231Sensor_8cpp.html" target="_top" xlink:title=" ">
<polygon fill="white" stroke="#666666" points="361,-19 254,-19 254,0 361,0 361,-19"/>
<text text-anchor="middle" x="307.5" y="-7" font-family="Helvetica,sans-Serif" font-size="10.00">DS3231Sensor.cpp</text>
</a>
</g>
</g>
<!-- Node13&#45;&gt;Node14 -->
<g id="edge14_Node000013_Node000014" class="edge">
<title>Node13&#45;&gt;Node14</title>
<g id="a_edge14_Node000013_Node000014"><a xlink:title=" ">
<path fill="none" stroke="#63b8ff" d="M310.72,-44.66C309.9,-35.93 308.96,-25.99 308.31,-19.09"/>
<polygon fill="#63b8ff" stroke="#63b8ff" points="307.25,-45.12 311.67,-54.75 314.22,-44.46 307.25,-45.12"/>
</a>
</g>
</g>
<!-- Node15&#45;&gt;Node6 -->
<g id="edge17_Node000015_Node000006" class="edge">
<title>Node15&#45;&gt;Node6</title>
<g id="a_edge17_Node000015_Node000006"><a xlink:title=" ">
<path fill="none" stroke="#63b8ff" d="M1011.34,-54.74C1121.39,-38.62 1151.07,-38.01 1257.5,-19 1260.3,-18.5 1263.19,-17.95 1266.1,-17.38"/>
<polygon fill="#63b8ff" stroke="#63b8ff" points="1010.54,-51.32 1001.16,-56.25 1011.56,-58.25 1010.54,-51.32"/>
</a>
</g>
</g>
<!-- Node16 -->
<g id="Node000016" class="node">
<title>Node16</title>
<g id="a_Node000016"><a xlink:href="ENS160Sensor_8cpp.html" target="_top" xlink:title=" ">
<polygon fill="white" stroke="#666666" points="990,-19 883,-19 883,0 990,0 990,-19"/>
<text text-anchor="middle" x="936.5" y="-7" font-family="Helvetica,sans-Serif" font-size="10.00">ENS160Sensor.cpp</text>
</a>
</g>
</g>
<!-- Node15&#45;&gt;Node16 -->
<g id="edge16_Node000015_Node000016" class="edge">
<title>Node15&#45;&gt;Node16</title>
<g id="a_edge16_Node000015_Node000016"><a xlink:title=" ">
<path fill="none" stroke="#63b8ff" d="M947.55,-44.95C944.73,-36.15 941.49,-26.06 939.25,-19.09"/>
<polygon fill="#63b8ff" stroke="#63b8ff" points="944.31,-46.29 950.69,-54.75 950.97,-44.16 944.31,-46.29"/>
</a>
</g>
</g>
<!-- Node17&#45;&gt;Node6 -->
<g id="edge20_Node000017_Node000006" class="edge">
<title>Node17&#45;&gt;Node6</title>
<g id="a_edge20_Node000017_Node000006"><a xlink:title=" ">
<path fill="none" stroke="#63b8ff" d="M1118.53,-52.66C1162.58,-42.28 1227.81,-26.92 1266.16,-17.88"/>
<polygon fill="#63b8ff" stroke="#63b8ff" points="1117.58,-49.28 1108.65,-54.98 1119.19,-56.1 1117.58,-49.28"/>
</a>
</g>
</g>
<!-- Node18 -->
<g id="Node000018" class="node">
<title>Node18</title>
<g id="a_Node000018"><a xlink:href="ICM20948Sensor_8cpp.html" target="_top" xlink:title=" ">
<polygon fill="white" stroke="#666666" points="1126.5,-19 1008.5,-19 1008.5,0 1126.5,0 1126.5,-19"/>
<text text-anchor="middle" x="1067.5" y="-7" font-family="Helvetica,sans-Serif" font-size="10.00">ICM20948Sensor.cpp</text>
</a>
</g>
</g>
<!-- Node17&#45;&gt;Node18 -->
<g id="edge19_Node000017_Node000018" class="edge">
<title>Node17&#45;&gt;Node18</title>
<g id="a_edge19_Node000017_Node000018"><a xlink:title=" ">
<path fill="none" stroke="#63b8ff" d="M1070.72,-44.66C1069.9,-35.93 1068.96,-25.99 1068.31,-19.09"/>
<polygon fill="#63b8ff" stroke="#63b8ff" points="1067.25,-45.12 1071.67,-54.75 1074.22,-44.46 1067.25,-45.12"/>
</a>
</g>
</g>
<!-- Node19&#45;&gt;Node6 -->
<g id="edge23_Node000019_Node000006" class="edge">
<title>Node19&#45;&gt;Node6</title>
<g id="a_edge23_Node000019_Node000006"><a xlink:title=" ">
<path fill="none" stroke="#63b8ff" d="M1216.74,-50.5C1236.43,-40.75 1262.82,-27.68 1280,-19.17"/>
<polygon fill="#63b8ff" stroke="#63b8ff" points="1215.1,-47.41 1207.69,-54.98 1218.21,-53.68 1215.1,-47.41"/>
</a>
</g>
</g>
<!-- Node20 -->
<g id="Node000020" class="node">
<title>Node20</title>
<g id="a_Node000020"><a xlink:href="INA260Sensor_8cpp.html" target="_top" xlink:title=" ">
<polygon fill="white" stroke="#666666" points="1248.5,-19 1144.5,-19 1144.5,0 1248.5,0 1248.5,-19"/>
<text text-anchor="middle" x="1196.5" y="-7" font-family="Helvetica,sans-Serif" font-size="10.00">INA260Sensor.cpp</text>
</a>
</g>
</g>
<!-- Node19&#45;&gt;Node20 -->
<g id="edge22_Node000019_Node000020" class="edge">
<title>Node19&#45;&gt;Node20</title>
<g id="a_edge22_Node000019_Node000020"><a xlink:title=" ">
<path fill="none" stroke="#63b8ff" d="M1192.63,-44.66C1193.62,-35.93 1194.75,-25.99 1195.53,-19.09"/>
<polygon fill="#63b8ff" stroke="#63b8ff" points="1189.14,-44.42 1191.49,-54.75 1196.09,-45.21 1189.14,-44.42"/>
</a>
</g>
</g>
<!-- Node22 -->
<g id="Node000022" class="node">
<title>Node22</title>
<g id="a_Node000022"><a xlink:href="LSM9DS1Sensor_8cpp.html" target="_top" xlink:title=" ">
<polygon fill="white" stroke="#666666" points="494,-19 379,-19 379,0 494,0 494,-19"/>
<text text-anchor="middle" x="436.5" y="-7" font-family="Helvetica,sans-Serif" font-size="10.00">LSM9DS1Sensor.cpp</text>
</a>
</g>
</g>
<!-- Node21&#45;&gt;Node22 -->
<g id="edge25_Node000021_Node000022" class="edge">
<title>Node21&#45;&gt;Node22</title>
<g id="a_edge25_Node000021_Node000022"><a xlink:title=" ">
<path fill="none" stroke="#63b8ff" d="M439.72,-44.66C438.9,-35.93 437.96,-25.99 437.31,-19.09"/>
<polygon fill="#63b8ff" stroke="#63b8ff" points="436.25,-45.12 440.67,-54.75 443.22,-44.46 436.25,-45.12"/>
</a>
</g>
</g>
<!-- Node23&#45;&gt;Node6 -->
<g id="edge28_Node000023_Node000006" class="edge">
<title>Node23&#45;&gt;Node6</title>
<g id="a_edge28_Node000023_Node000006"><a xlink:title=" ">
<path fill="none" stroke="#63b8ff" d="M1330.77,-47.24C1322.36,-37.95 1312.15,-26.68 1305.28,-19.09"/>
<polygon fill="#63b8ff" stroke="#63b8ff" points="1328.27,-49.69 1337.57,-54.75 1333.46,-44.99 1328.27,-49.69"/>
</a>
</g>
</g>
<!-- Node24 -->
<g id="Node000024" class="node">
<title>Node24</title>
<g id="a_Node000024"><a xlink:href="MTK3339Sensor_8cpp.html" target="_top" xlink:title=" ">
<polygon fill="white" stroke="#666666" points="1462,-19 1347,-19 1347,0 1462,0 1462,-19"/>
<text text-anchor="middle" x="1404.5" y="-7" font-family="Helvetica,sans-Serif" font-size="10.00">MTK3339Sensor.cpp</text>
</a>
</g>
</g>
<!-- Node23&#45;&gt;Node24 -->
<g id="edge27_Node000023_Node000024" class="edge">
<title>Node23&#45;&gt;Node24</title>
<g id="a_edge27_Node000023_Node000024"><a xlink:title=" ">
<path fill="none" stroke="#63b8ff" d="M1362.7,-48.04C1373.17,-38.64 1386.15,-26.98 1394.85,-19.17"/>
<polygon fill="#63b8ff" stroke="#63b8ff" points="1360.08,-45.7 1354.98,-54.98 1364.76,-50.91 1360.08,-45.7"/>
</a>
</g>
</g>
<!-- Node25&#45;&gt;Node6 -->
<g id="edge31_Node000025_Node000006" class="edge">
<title>Node25&#45;&gt;Node6</title>
<g id="a_edge31_Node000025_Node000006"><a xlink:title=" ">
<path fill="none" stroke="#63b8ff" d="M1429.6,-51.93C1398.03,-42.03 1353.32,-28.01 1324.87,-19.08"/>
<polygon fill="#63b8ff" stroke="#63b8ff" points="1428.76,-55.33 1439.35,-54.98 1430.85,-48.65 1428.76,-55.33"/>
</a>
</g>
</g>
<!-- Node26 -->
<g id="Node000026" class="node">
<title>Node26</title>
<g id="a_Node000026"><a xlink:href="PCF8523Sensor_8cpp.html" target="_top" xlink:title=" ">
<polygon fill="white" stroke="#666666" points="1592.5,-19 1480.5,-19 1480.5,0 1592.5,0 1592.5,-19"/>
<text text-anchor="middle" x="1536.5" y="-7" font-family="Helvetica,sans-Serif" font-size="10.00">PCF8523Sensor.cpp</text>
</a>
</g>
</g>
<!-- Node25&#45;&gt;Node26 -->
<g id="edge30_Node000025_Node000026" class="edge">
<title>Node25&#45;&gt;Node26</title>
<g id="a_edge30_Node000025_Node000026"><a xlink:title=" ">
<path fill="none" stroke="#63b8ff" d="M1485.81,-48.88C1498.41,-39.34 1514.43,-27.21 1525.05,-19.17"/>
<polygon fill="#63b8ff" stroke="#63b8ff" points="1483.61,-46.16 1477.75,-54.98 1487.83,-51.74 1483.61,-46.16"/>
</a>
</g>
</g>
<!-- Node28 -->
<g id="Node000028" class="node">
<title>Node28</title>
<g id="a_Node000028"><a xlink:href="SGP30Sensor_8cpp.html" target="_top" xlink:title=" ">
<polygon fill="white" stroke="#666666" points="613,-19 512,-19 512,0 613,0 613,-19"/>
<text text-anchor="middle" x="562.5" y="-7" font-family="Helvetica,sans-Serif" font-size="10.00">SGP30Sensor.cpp</text>
</a>
</g>
</g>
<!-- Node27&#45;&gt;Node28 -->
<g id="edge33_Node000027_Node000028" class="edge">
<title>Node27&#45;&gt;Node28</title>
<g id="a_edge33_Node000027_Node000028"><a xlink:title=" ">
<path fill="none" stroke="#63b8ff" d="M579.02,-45.53C574.81,-36.6 569.91,-26.22 566.55,-19.09"/>
<polygon fill="#63b8ff" stroke="#63b8ff" points="575.94,-47.2 583.37,-54.75 582.27,-44.21 575.94,-47.2"/>
</a>
</g>
</g>
<!-- Node29&#45;&gt;Node6 -->
<g id="edge36_Node000029_Node000006" class="edge">
<title>Node29&#45;&gt;Node6</title>
<g id="a_edge36_Node000029_Node000006"><a xlink:title=" ">
<path fill="none" stroke="#63b8ff" d="M1525.41,-54.24C1476.74,-45.5 1402.11,-31.85 1337.5,-19 1334.71,-18.45 1331.82,-17.86 1328.93,-17.26"/>
<polygon fill="#63b8ff" stroke="#63b8ff" points="1524.92,-57.71 1535.38,-56.03 1526.16,-50.82 1524.92,-57.71"/>
</a>
</g>
</g>
<!-- Node30 -->
<g id="Node000030" class="node">
<title>Node30</title>
<g id="a_Node000030"><a xlink:href="TempSensor_8cpp.html" target="_top" xlink:title=" ">
<polygon fill="white" stroke="#666666" points="1706,-19 1611,-19 1611,0 1706,0 1706,-19"/>
<text text-anchor="middle" x="1658.5" y="-7" font-family="Helvetica,sans-Serif" font-size="10.00">TempSensor.cpp</text>
</a>
</g>
</g>
<!-- Node29&#45;&gt;Node30 -->
<g id="edge35_Node000029_Node000030" class="edge">
<title>Node29&#45;&gt;Node30</title>
<g id="a_edge35_Node000029_Node000030"><a xlink:title=" ">
<path fill="none" stroke="#63b8ff" d="M1599.01,-49.42C1613.71,-39.81 1632.72,-27.37 1645.25,-19.17"/>
<polygon fill="#63b8ff" stroke="#63b8ff" points="1596.97,-46.58 1590.51,-54.98 1600.8,-52.44 1596.97,-46.58"/>
</a>
</g>
</g>
<!-- Node32 -->
<g id="Node000032" class="node">
<title>Node32</title>
<g id="a_Node000032"><a xlink:href="FlashStorage_8h.html" target="_top" xlink:title=" ">
<polygon fill="white" stroke="#666666" points="1802,-74 1713,-74 1713,-55 1802,-55 1802,-74"/>
<text text-anchor="middle" x="1757.5" y="-62" font-family="Helvetica,sans-Serif" font-size="10.00">FlashStorage.h</text>
</a>
</g>
</g>
<!-- Node31&#45;&gt;Node32 -->
<g id="edge39_Node000031_Node000032" class="edge">
<title>Node31&#45;&gt;Node32</title>
<g id="a_edge39_Node000031_Node000032"><a xlink:title=" ">
<path fill="none" stroke="#63b8ff" d="M1792.16,-102.24C1783.4,-92.95 1772.76,-81.68 1765.6,-74.09"/>
<polygon fill="#63b8ff" stroke="#63b8ff" points="1789.84,-104.88 1799.24,-109.75 1794.93,-100.07 1789.84,-104.88"/>
</a>
</g>
</g>
<!-- Node31&#45;&gt;Node34 -->
<g id="edge49_Node000031_Node000034" class="edge">
<title>Node31&#45;&gt;Node34</title>
<g id="a_edge49_Node000031_Node000034"><a xlink:title=" ">
<path fill="none" stroke="#63b8ff" d="M1840.7,-106.17C1860.48,-98.21 1885.69,-86.93 1906.5,-74 1933.29,-57.36 1960.9,-32.28 1974.63,-19.18"/>
<polygon fill="#63b8ff" stroke="#63b8ff" points="1839.22,-103 1831.2,-109.92 1841.78,-109.51 1839.22,-103"/>
</a>
</g>
</g>
<!-- Node35 -->
<g id="Node000035" class="node">
<title>Node35</title>
<g id="a_Node000035"><a xlink:href="RadioStorage_8h.html" target="_top" xlink:title=" ">
<polygon fill="white" stroke="#666666" points="2045,-74 1954,-74 1954,-55 2045,-55 2045,-74"/>
<text text-anchor="middle" x="1999.5" y="-62" font-family="Helvetica,sans-Serif" font-size="10.00">RadioStorage.h</text>
</a>
</g>
</g>
<!-- Node31&#45;&gt;Node35 -->
<g id="edge43_Node000031_Node000035" class="edge">
<title>Node31&#45;&gt;Node35</title>
<g id="a_edge43_Node000031_Node000035"><a xlink:title=" ">
<path fill="none" stroke="#63b8ff" d="M1848.03,-107.31C1883.96,-97.39 1935.66,-83.12 1968.41,-74.08"/>
<polygon fill="#63b8ff" stroke="#63b8ff" points="1847.06,-103.95 1838.35,-109.98 1848.92,-110.7 1847.06,-103.95"/>
</a>
</g>
</g>
<!-- Node37 -->
<g id="Node000037" class="node">
<title>Node37</title>
<g id="a_Node000037"><a xlink:href="SDStorage_8h.html" target="_top" xlink:title=" ">
<polygon fill="white" stroke="#666666" points="1897,-74 1820,-74 1820,-55 1897,-55 1897,-74"/>
<text text-anchor="middle" x="1858.5" y="-62" font-family="Helvetica,sans-Serif" font-size="10.00">SDStorage.h</text>
</a>
</g>
</g>
<!-- Node31&#45;&gt;Node37 -->
<g id="edge46_Node000031_Node000037" class="edge">
<title>Node31&#45;&gt;Node37</title>
<g id="a_edge46_Node000031_Node000037"><a xlink:title=" ">
<path fill="none" stroke="#63b8ff" d="M1822.88,-102.52C1831.87,-93.18 1842.86,-81.75 1850.24,-74.09"/>
<polygon fill="#63b8ff" stroke="#63b8ff" points="1820.33,-100.12 1815.92,-109.75 1825.38,-104.97 1820.33,-100.12"/>
</a>
</g>
</g>
<!-- Node32&#45;&gt;Node6 -->
<g id="edge41_Node000032_Node000006" class="edge">
<title>Node32&#45;&gt;Node6</title>
<g id="a_edge41_Node000032_Node000006"><a xlink:title=" ">
<path fill="none" stroke="#63b8ff" d="M1702.62,-56.94C1696.84,-56.27 1691.05,-55.61 1685.5,-55 1530.95,-37.88 1491.1,-43.19 1337.5,-19 1334.69,-18.56 1331.79,-18.05 1328.88,-17.5"/>
<polygon fill="#63b8ff" stroke="#63b8ff" points="1702.62,-60.46 1712.96,-58.14 1703.43,-53.51 1702.62,-60.46"/>
</a>
</g>
</g>
<!-- Node33 -->
<g id="Node000033" class="node">
<title>Node33</title>
<g id="a_Node000033"><a xlink:href="FlashStorage_8cpp.html" target="_top" xlink:title=" ">
<polygon fill="white" stroke="#666666" points="1825,-19 1724,-19 1724,0 1825,0 1825,-19"/>
<text text-anchor="middle" x="1774.5" y="-7" font-family="Helvetica,sans-Serif" font-size="10.00">FlashStorage.cpp</text>
</a>
</g>
</g>
<!-- Node32&#45;&gt;Node33 -->
<g id="edge40_Node000032_Node000033" class="edge">
<title>Node32&#45;&gt;Node33</title>
<g id="a_edge40_Node000032_Node000033"><a xlink:title=" ">
<path fill="none" stroke="#63b8ff" d="M1763.45,-44.95C1766.27,-36.15 1769.51,-26.06 1771.75,-19.09"/>
<polygon fill="#63b8ff" stroke="#63b8ff" points="1760.03,-44.16 1760.31,-54.75 1766.69,-46.29 1760.03,-44.16"/>
</a>
</g>
</g>
<!-- Node32&#45;&gt;Node34 -->
<g id="edge42_Node000032_Node000034" class="edge">
<title>Node32&#45;&gt;Node34</title>
<g id="a_edge42_Node000032_Node000034"><a xlink:title=" ">
<path fill="none" stroke="#63b8ff" d="M1803.81,-52.64C1847.09,-42.49 1910.72,-27.57 1949.5,-18.47"/>
<polygon fill="#63b8ff" stroke="#63b8ff" points="1802.75,-49.29 1793.81,-54.98 1804.35,-56.11 1802.75,-49.29"/>
</a>
</g>
</g>
<!-- Node35&#45;&gt;Node34 -->
<g id="edge45_Node000035_Node000034" class="edge">
<title>Node35&#45;&gt;Node34</title>
<g id="a_edge45_Node000035_Node000034"><a xlink:title=" ">
<path fill="none" stroke="#63b8ff" d="M1993.9,-44.95C1991.24,-36.15 1988.2,-26.06 1986.09,-19.09"/>
<polygon fill="#63b8ff" stroke="#63b8ff" points="1990.62,-46.19 1996.86,-54.75 1997.32,-44.16 1990.62,-46.19"/>
</a>
</g>
</g>
<!-- Node36 -->
<g id="Node000036" class="node">
<title>Node36</title>
<g id="a_Node000036"><a xlink:href="RadioStorage_8cpp.html" target="_top" xlink:title=" ">
<polygon fill="white" stroke="#666666" points="2137.5,-19 2035.5,-19 2035.5,0 2137.5,0 2137.5,-19"/>
<text text-anchor="middle" x="2086.5" y="-7" font-family="Helvetica,sans-Serif" font-size="10.00">RadioStorage.cpp</text>
</a>
</g>
</g>
<!-- Node35&#45;&gt;Node36 -->
<g id="edge44_Node000035_Node000036" class="edge">
<title>Node35&#45;&gt;Node36</title>
<g id="a_edge44_Node000035_Node000036"><a xlink:title=" ">
<path fill="none" stroke="#63b8ff" d="M2022.16,-49.7C2038.01,-40.04 2058.69,-27.44 2072.27,-19.17"/>
<polygon fill="#63b8ff" stroke="#63b8ff" points="2020.2,-46.79 2013.48,-54.98 2023.84,-52.77 2020.2,-46.79"/>
</a>
</g>
</g>
<!-- Node37&#45;&gt;Node34 -->
<g id="edge48_Node000037_Node000034" class="edge">
<title>Node37&#45;&gt;Node34</title>
<g id="a_edge48_Node000037_Node000034"><a xlink:title=" ">
<path fill="none" stroke="#63b8ff" d="M1887.91,-51.03C1911.03,-41.23 1942.63,-27.83 1963.05,-19.17"/>
<polygon fill="#63b8ff" stroke="#63b8ff" points="1886.42,-47.86 1878.58,-54.98 1889.16,-54.3 1886.42,-47.86"/>
</a>
</g>
</g>
<!-- Node38 -->
<g id="Node000038" class="node">
<title>Node38</title>
<g id="a_Node000038"><a xlink:href="SDStorage_8cpp.html" target="_top" xlink:title=" ">
<polygon fill="white" stroke="#666666" points="1931.5,-19 1843.5,-19 1843.5,0 1931.5,0 1931.5,-19"/>
<text text-anchor="middle" x="1887.5" y="-7" font-family="Helvetica,sans-Serif" font-size="10.00">SDStorage.cpp</text>
</a>
</g>
</g>
<!-- Node37&#45;&gt;Node38 -->
<g id="edge47_Node000037_Node000038" class="edge">
<title>Node37&#45;&gt;Node38</title>
<g id="a_edge47_Node000037_Node000038"><a xlink:title=" ">
<path fill="none" stroke="#63b8ff" d="M1868.18,-45.82C1873.1,-36.82 1878.86,-26.29 1882.8,-19.09"/>
<polygon fill="#63b8ff" stroke="#63b8ff" points="1865.02,-44.3 1863.29,-54.75 1871.16,-47.66 1865.02,-44.3"/>
</a>
</g>
</g>
</g>
</svg>

<g id="navigator" transform="translate(0 0)" fill="#404254">
  <rect fill="#f2f5e9" fill-opacity="0.5" stroke="#606060" stroke-width=".5" x="0" y="0" width="60" height="60"/>
  <use id="zoomplus" xlink:href="#zoomPlus" x="17" y="9" onmousedown="handleZoom(evt,'in')"/>
  <use id="zoomminus" xlink:href="#zoomMin" x="42" y="9" onmousedown="handleZoom(evt,'out')"/>
  <use id="reset" xlink:href="#resetDef" x="30" y="36" onmousedown="handleReset()"/>
   <use id="arrowup" xlink:href="#arrowUp" x="0" y="0" onmousedown="handlePan(0,-1)"/>
  <use id="arrowright" xlink:href="#arrowRight" x="0" y="0" onmousedown="handlePan(1,0)"/>
  <use id="arrowdown" xlink:href="#arrowDown" x="0" y="0" onmousedown="handlePan(0,1)"/>
  <use id="arrowleft" xlink:href="#arrowLeft" x="0" y="0" onmousedown="handlePan(-1,0)"/>
</g>
<svg viewBox="0 0 15 15" width="100%" height="30px" preserveAspectRatio="xMaxYMin meet">
 <g id="arrow_out" transform="scale(0.3 0.3)">
  <a xlink:href="Logger_8h__dep__incl_org.svg" target="_base">
   <rect id="button" ry="5" rx="5" y="6" x="6" height="38" width="38"
        fill="#f2f5e9" fill-opacity="0.5" stroke="#606060" stroke-width="1.0"/>
   <path id="arrow"
     d="M 11.500037,31.436501 C 11.940474,20.09759 22.043105,11.32322 32.158766,21.979434 L 37.068811,17.246167 C 37.068811,17.246167 37.088388,32 37.088388,32 L 22.160133,31.978069 C 22.160133,31.978069 26.997745,27.140456 26.997745,27.140456 C 18.528582,18.264221 13.291696,25.230495 11.500037,31.436501 z"
     style="fill:#404040;"/>
  </a>
 </g>
</svg>

<style type='text/css'>
<![CDATA[
[data-mouse-over-selected='false'] { opacity: 0.7; }
[data-mouse-over-selected='true']  { opacity: 1.0; }
]]>
</style>
<script type="application/ecmascript"><![CDATA[
document.addEventListener('DOMContentLoaded', (event) => {
  highlightEdges();
  highlightAdjacentNodes();
});
]]></script>
</svg>
