<?xml version="1.0" encoding="UTF-8" standalone="no"?>
<!DOCTYPE svg PUBLIC "-//W3C//DTD SVG 1.1//EN"
 "http://www.w3.org/Graphics/SVG/1.1/DTD/svg11.dtd">
<!-- Generated by graphviz version 2.43.0 (0)
 -->
<!-- Title: Logger.h Pages: 1 -->
<svg width="2019pt" height="247pt"
 viewBox="0.00 0.00 2018.50 247.00" xmlns="http://www.w3.org/2000/svg" xmlns:xlink="http://www.w3.org/1999/xlink">
<g id="graph0" class="graph" transform="scale(1 1) rotate(0) translate(4 243)">
<title>Logger.h</title>
<!-- Node1 -->
<g id="Node000001" class="node">
<title>Node1</title>
<g id="a_Node000001"><a xlink:title=" ">
<polygon fill="#999999" stroke="#666666" points="1670.5,-239 1612.5,-239 1612.5,-220 1670.5,-220 1670.5,-239"/>
<text text-anchor="middle" x="1641.5" y="-227" font-family="Helvetica,sans-Serif" font-size="10.00">Logger.h</text>
</a>
</g>
</g>
<!-- Node2 -->
<g id="Node000002" class="node">
<title>Node2</title>
<g id="a_Node000002"><a xlink:href="Device_8h.html" target="_top" xlink:title=" ">
<polygon fill="white" stroke="#666666" points="1671,-184 1612,-184 1612,-165 1671,-165 1671,-184"/>
<text text-anchor="middle" x="1641.5" y="-172" font-family="Helvetica,sans-Serif" font-size="10.00">Device.h</text>
</a>
</g>
</g>
<!-- Node1&#45;&gt;Node2 -->
<g id="edge1_Node000001_Node000002" class="edge">
<title>Node1&#45;&gt;Node2</title>
<g id="a_edge1_Node000001_Node000002"><a xlink:title=" ">
<path fill="none" stroke="#63b8ff" d="M1641.5,-209.66C1641.5,-200.93 1641.5,-190.99 1641.5,-184.09"/>
<polygon fill="#63b8ff" stroke="#63b8ff" points="1638,-209.75 1641.5,-219.75 1645,-209.75 1638,-209.75"/>
</a>
</g>
</g>
<!-- Node3 -->
<g id="Node000003" class="node">
<title>Node3</title>
<g id="a_Node000003"><a xlink:href="Sensor_8h.html" target="_top" xlink:title=" ">
<polygon fill="white" stroke="#666666" points="952.5,-129 894.5,-129 894.5,-110 952.5,-110 952.5,-129"/>
<text text-anchor="middle" x="923.5" y="-117" font-family="Helvetica,sans-Serif" font-size="10.00">Sensor.h</text>
</a>
</g>
</g>
<!-- Node1&#45;&gt;Node3 -->
<g id="edge51_Node000001_Node000003" class="edge">
<title>Node1&#45;&gt;Node3</title>
<g id="a_edge51_Node000001_Node000003"><a xlink:title=" ">
<path fill="none" stroke="#63b8ff" d="M1602.27,-222.6C1473.44,-203.22 1065.11,-141.8 952.5,-124.86"/>
<polygon fill="#63b8ff" stroke="#63b8ff" points="1602.05,-226.11 1612.46,-224.13 1603.1,-219.18 1602.05,-226.11"/>
</a>
</g>
</g>
<!-- Node6 -->
<g id="Node000006" class="node">
<title>Node6</title>
<g id="a_Node000006"><a xlink:href="main_8cpp.html" target="_top" xlink:title="Main functions for Core 0, responsible for reading data from sensor peripherals.">
<polygon fill="white" stroke="#666666" points="949.5,-19 887.5,-19 887.5,0 949.5,0 949.5,-19"/>
<text text-anchor="middle" x="918.5" y="-7" font-family="Helvetica,sans-Serif" font-size="10.00">main.cpp</text>
</a>
</g>
</g>
<!-- Node1&#45;&gt;Node6 -->
<g id="edge53_Node000001_Node000006" class="edge">
<title>Node1&#45;&gt;Node6</title>
<g id="a_edge53_Node000001_Node000006"><a xlink:title=" ">
<path fill="none" stroke="#63b8ff" d="M1627.01,-212.35C1619.74,-204.05 1610.93,-193.67 1603.5,-184 1561.05,-128.78 1575.09,-89.35 1514.5,-55 1406.79,6.06 1081.15,-35.91 958.5,-19 955.69,-18.61 952.78,-18.14 949.87,-17.61"/>
<polygon fill="#63b8ff" stroke="#63b8ff" points="1624.41,-214.69 1633.66,-219.86 1629.65,-210.05 1624.41,-214.69"/>
</a>
</g>
</g>
<!-- Node29 -->
<g id="Node000029" class="node">
<title>Node29</title>
<g id="a_Node000029"><a xlink:href="Storage_8h.html" target="_top" xlink:title=" ">
<polygon fill="white" stroke="#666666" points="1758,-129 1695,-129 1695,-110 1758,-110 1758,-129"/>
<text text-anchor="middle" x="1726.5" y="-117" font-family="Helvetica,sans-Serif" font-size="10.00">Storage.h</text>
</a>
</g>
</g>
<!-- Node1&#45;&gt;Node29 -->
<g id="edge52_Node000001_Node000029" class="edge">
<title>Node1&#45;&gt;Node29</title>
<g id="a_edge52_Node000001_Node000029"><a xlink:title=" ">
<path fill="none" stroke="#63b8ff" d="M1656.32,-212.33C1663.76,-204.02 1672.81,-193.64 1680.5,-184 1695.61,-165.06 1711.95,-141.76 1720.5,-129.32"/>
<polygon fill="#63b8ff" stroke="#63b8ff" points="1653.63,-210.08 1649.52,-219.84 1658.82,-214.78 1653.63,-210.08"/>
</a>
</g>
</g>
<!-- Node32 -->
<g id="Node000032" class="node">
<title>Node32</title>
<g id="a_Node000032"><a xlink:href="main1_8cpp.html" target="_top" xlink:title="Main functions for Core 1, responsible for sending data to storage peripherals.">
<polygon fill="white" stroke="#666666" points="1904.5,-19 1836.5,-19 1836.5,0 1904.5,0 1904.5,-19"/>
<text text-anchor="middle" x="1870.5" y="-7" font-family="Helvetica,sans-Serif" font-size="10.00">main1.cpp</text>
</a>
</g>
</g>
<!-- Node1&#45;&gt;Node32 -->
<g id="edge54_Node000001_Node000032" class="edge">
<title>Node1&#45;&gt;Node32</title>
<g id="a_edge54_Node000001_Node000032"><a xlink:title=" ">
<path fill="none" stroke="#63b8ff" d="M1680.88,-220.93C1746.51,-205.95 1876.46,-165.69 1931.5,-74 1945.11,-51.33 1912.47,-30.3 1889.87,-19.05"/>
<polygon fill="#63b8ff" stroke="#63b8ff" points="1679.94,-217.55 1670.93,-223.12 1681.44,-224.39 1679.94,-217.55"/>
</a>
</g>
</g>
<!-- Node2&#45;&gt;Node3 -->
<g id="edge2_Node000002_Node000003" class="edge">
<title>Node2&#45;&gt;Node3</title>
<g id="a_edge2_Node000002_Node000003"><a xlink:title=" ">
<path fill="none" stroke="#63b8ff" d="M1601.28,-170.53C1471.46,-160.95 1065.47,-130.98 952.77,-122.66"/>
<polygon fill="#63b8ff" stroke="#63b8ff" points="1601.33,-174.04 1611.56,-171.29 1601.85,-167.06 1601.33,-174.04"/>
</a>
</g>
</g>
<!-- Node2&#45;&gt;Node29 -->
<g id="edge39_Node000002_Node000029" class="edge">
<title>Node2&#45;&gt;Node29</title>
<g id="a_edge39_Node000002_Node000029"><a xlink:title=" ">
<path fill="none" stroke="#63b8ff" d="M1664.07,-159.42C1679.5,-149.81 1699.45,-137.37 1712.59,-129.17"/>
<polygon fill="#63b8ff" stroke="#63b8ff" points="1661.79,-156.72 1655.16,-164.98 1665.49,-162.66 1661.79,-156.72"/>
</a>
</g>
</g>
<!-- Node4 -->
<g id="Node000004" class="node">
<title>Node4</title>
<g id="a_Node000004"><a xlink:href="AS7331Sensor_8h.html" target="_top" xlink:title=" ">
<polygon fill="white" stroke="#666666" points="313,-74 218,-74 218,-55 313,-55 313,-74"/>
<text text-anchor="middle" x="265.5" y="-62" font-family="Helvetica,sans-Serif" font-size="10.00">AS7331Sensor.h</text>
</a>
</g>
</g>
<!-- Node3&#45;&gt;Node4 -->
<g id="edge3_Node000003_Node000004" class="edge">
<title>Node3&#45;&gt;Node4</title>
<g id="a_edge3_Node000003_Node000004"><a xlink:title=" ">
<path fill="none" stroke="#63b8ff" d="M884.22,-116.6C788.15,-111.74 533.72,-97.54 322.5,-74 319.42,-73.66 316.25,-73.27 313.05,-72.86"/>
<polygon fill="#63b8ff" stroke="#63b8ff" points="884.18,-120.1 894.35,-117.11 884.53,-113.11 884.18,-120.1"/>
</a>
</g>
</g>
<!-- Node3&#45;&gt;Node6 -->
<g id="edge38_Node000003_Node000006" class="edge">
<title>Node3&#45;&gt;Node6</title>
<g id="a_edge38_Node000003_Node000006"><a xlink:title=" ">
<path fill="none" stroke="#63b8ff" d="M922.62,-99.48C921.53,-75.84 919.7,-36.5 918.9,-19.16"/>
<polygon fill="#63b8ff" stroke="#63b8ff" points="919.13,-99.83 923.09,-109.66 926.12,-99.51 919.13,-99.83"/>
</a>
</g>
</g>
<!-- Node7 -->
<g id="Node000007" class="node">
<title>Node7</title>
<g id="a_Node000007"><a xlink:href="BME280Sensor_8h.html" target="_top" xlink:title=" ">
<polygon fill="white" stroke="#666666" points="429.5,-74 331.5,-74 331.5,-55 429.5,-55 429.5,-74"/>
<text text-anchor="middle" x="380.5" y="-62" font-family="Helvetica,sans-Serif" font-size="10.00">BME280Sensor.h</text>
</a>
</g>
</g>
<!-- Node3&#45;&gt;Node7 -->
<g id="edge6_Node000003_Node000007" class="edge">
<title>Node3&#45;&gt;Node7</title>
<g id="a_edge6_Node000003_Node000007"><a xlink:title=" ">
<path fill="none" stroke="#63b8ff" d="M884.28,-115.62C801.69,-109.41 603.8,-93.68 438.5,-74 435.57,-73.65 432.56,-73.27 429.52,-72.87"/>
<polygon fill="#63b8ff" stroke="#63b8ff" points="884.24,-119.13 894.47,-116.39 884.76,-112.15 884.24,-119.13"/>
</a>
</g>
</g>
<!-- Node9 -->
<g id="Node000009" class="node">
<title>Node9</title>
<g id="a_Node000009"><a xlink:href="BME680Sensor_8h.html" target="_top" xlink:title=" ">
<polygon fill="white" stroke="#666666" points="545.5,-74 447.5,-74 447.5,-55 545.5,-55 545.5,-74"/>
<text text-anchor="middle" x="496.5" y="-62" font-family="Helvetica,sans-Serif" font-size="10.00">BME680Sensor.h</text>
</a>
</g>
</g>
<!-- Node3&#45;&gt;Node9 -->
<g id="edge9_Node000003_Node000009" class="edge">
<title>Node3&#45;&gt;Node9</title>
<g id="a_edge9_Node000003_Node000009"><a xlink:title=" ">
<path fill="none" stroke="#63b8ff" d="M884.11,-114.08C816.58,-106.44 674.4,-90.01 554.5,-74 551.57,-73.61 548.57,-73.2 545.54,-72.78"/>
<polygon fill="#63b8ff" stroke="#63b8ff" points="883.96,-117.59 894.29,-115.23 884.74,-110.63 883.96,-117.59"/>
</a>
</g>
</g>
<!-- Node11 -->
<g id="Node000011" class="node">
<title>Node11</title>
<g id="a_Node000011"><a xlink:href="DS3231Sensor_8h.html" target="_top" xlink:title=" ">
<polygon fill="white" stroke="#666666" points="153,-74 58,-74 58,-55 153,-55 153,-74"/>
<text text-anchor="middle" x="105.5" y="-62" font-family="Helvetica,sans-Serif" font-size="10.00">DS3231Sensor.h</text>
</a>
</g>
</g>
<!-- Node3&#45;&gt;Node11 -->
<g id="edge12_Node000003_Node000011" class="edge">
<title>Node3&#45;&gt;Node11</title>
<g id="a_edge12_Node000003_Node000011"><a xlink:title=" ">
<path fill="none" stroke="#63b8ff" d="M884.09,-116.33C776.04,-110.31 466.01,-92.64 208.5,-74 190.43,-72.69 170.58,-71.09 153.17,-69.64"/>
<polygon fill="#63b8ff" stroke="#63b8ff" points="884.02,-119.83 894.2,-116.89 884.41,-112.84 884.02,-119.83"/>
</a>
</g>
</g>
<!-- Node13 -->
<g id="Node000013" class="node">
<title>Node13</title>
<g id="a_Node000013"><a xlink:href="ENS160Sensor_8h.html" target="_top" xlink:title=" ">
<polygon fill="white" stroke="#666666" points="659,-74 564,-74 564,-55 659,-55 659,-74"/>
<text text-anchor="middle" x="611.5" y="-62" font-family="Helvetica,sans-Serif" font-size="10.00">ENS160Sensor.h</text>
</a>
</g>
</g>
<!-- Node3&#45;&gt;Node13 -->
<g id="edge14_Node000003_Node000013" class="edge">
<title>Node3&#45;&gt;Node13</title>
<g id="a_edge14_Node000003_Node000013"><a xlink:title=" ">
<path fill="none" stroke="#63b8ff" d="M884.33,-111.85C827.08,-102.12 720.66,-84.04 659.02,-73.57"/>
<polygon fill="#63b8ff" stroke="#63b8ff" points="883.98,-115.34 894.43,-113.56 885.16,-108.44 883.98,-115.34"/>
</a>
</g>
</g>
<!-- Node15 -->
<g id="Node000015" class="node">
<title>Node15</title>
<g id="a_Node000015"><a xlink:href="ICM20948Sensor_8h.html" target="_top" xlink:title=" ">
<polygon fill="white" stroke="#666666" points="784,-74 677,-74 677,-55 784,-55 784,-74"/>
<text text-anchor="middle" x="730.5" y="-62" font-family="Helvetica,sans-Serif" font-size="10.00">ICM20948Sensor.h</text>
</a>
</g>
</g>
<!-- Node3&#45;&gt;Node15 -->
<g id="edge17_Node000003_Node000015" class="edge">
<title>Node3&#45;&gt;Node15</title>
<g id="a_edge17_Node000003_Node000015"><a xlink:title=" ">
<path fill="none" stroke="#63b8ff" d="M884.46,-107.78C848.27,-97.84 795.13,-83.25 761.69,-74.07"/>
<polygon fill="#63b8ff" stroke="#63b8ff" points="883.62,-111.18 894.19,-110.45 885.47,-104.43 883.62,-111.18"/>
</a>
</g>
</g>
<!-- Node17 -->
<g id="Node000017" class="node">
<title>Node17</title>
<g id="a_Node000017"><a xlink:href="INA260Sensor_8h.html" target="_top" xlink:title=" ">
<polygon fill="white" stroke="#666666" points="895,-74 802,-74 802,-55 895,-55 895,-74"/>
<text text-anchor="middle" x="848.5" y="-62" font-family="Helvetica,sans-Serif" font-size="10.00">INA260Sensor.h</text>
</a>
</g>
</g>
<!-- Node3&#45;&gt;Node17 -->
<g id="edge20_Node000003_Node000017" class="edge">
<title>Node3&#45;&gt;Node17</title>
<g id="a_edge20_Node000003_Node000017"><a xlink:title=" ">
<path fill="none" stroke="#63b8ff" d="M903.19,-104.15C889.64,-94.57 872.26,-82.29 860.77,-74.17"/>
<polygon fill="#63b8ff" stroke="#63b8ff" points="901.26,-107.07 911.45,-109.98 905.3,-101.36 901.26,-107.07"/>
</a>
</g>
</g>
<!-- Node19 -->
<g id="Node000019" class="node">
<title>Node19</title>
<g id="a_Node000019"><a xlink:href="LSM9DS1Sensor_8h.html" target="_top" xlink:title=" ">
<polygon fill="white" stroke="#666666" points="1055.5,-74 951.5,-74 951.5,-55 1055.5,-55 1055.5,-74"/>
<text text-anchor="middle" x="1003.5" y="-62" font-family="Helvetica,sans-Serif" font-size="10.00">LSM9DS1Sensor.h</text>
</a>
</g>
</g>
<!-- Node3&#45;&gt;Node19 -->
<g id="edge23_Node000003_Node000019" class="edge">
<title>Node3&#45;&gt;Node19</title>
<g id="a_edge23_Node000003_Node000019"><a xlink:title=" ">
<path fill="none" stroke="#63b8ff" d="M944.75,-104.42C959.26,-94.81 978.04,-82.37 990.41,-74.17"/>
<polygon fill="#63b8ff" stroke="#63b8ff" points="942.76,-101.54 936.35,-109.98 946.62,-107.38 942.76,-101.54"/>
</a>
</g>
</g>
<!-- Node21 -->
<g id="Node000021" class="node">
<title>Node21</title>
<g id="a_Node000021"><a xlink:href="MTK3339Sensor_8h.html" target="_top" xlink:title=" ">
<polygon fill="white" stroke="#666666" points="1177.5,-74 1073.5,-74 1073.5,-55 1177.5,-55 1177.5,-74"/>
<text text-anchor="middle" x="1125.5" y="-62" font-family="Helvetica,sans-Serif" font-size="10.00">MTK3339Sensor.h</text>
</a>
</g>
</g>
<!-- Node3&#45;&gt;Node21 -->
<g id="edge26_Node000003_Node000021" class="edge">
<title>Node3&#45;&gt;Node21</title>
<g id="a_edge26_Node000003_Node000021"><a xlink:title=" ">
<path fill="none" stroke="#63b8ff" d="M962.57,-108.25C1000.54,-98.29 1057.55,-83.33 1093.08,-74.01"/>
<polygon fill="#63b8ff" stroke="#63b8ff" points="961.66,-104.87 952.87,-110.79 963.43,-111.64 961.66,-104.87"/>
</a>
</g>
</g>
<!-- Node23 -->
<g id="Node000023" class="node">
<title>Node23</title>
<g id="a_Node000023"><a xlink:href="PCF8523Sensor_8h.html" target="_top" xlink:title=" ">
<polygon fill="white" stroke="#666666" points="1297,-74 1196,-74 1196,-55 1297,-55 1297,-74"/>
<text text-anchor="middle" x="1246.5" y="-62" font-family="Helvetica,sans-Serif" font-size="10.00">PCF8523Sensor.h</text>
</a>
</g>
</g>
<!-- Node3&#45;&gt;Node23 -->
<g id="edge29_Node000003_Node000023" class="edge">
<title>Node3&#45;&gt;Node23</title>
<g id="a_edge29_Node000003_Node000023"><a xlink:title=" ">
<path fill="none" stroke="#63b8ff" d="M962.69,-112.07C1021.17,-102.47 1131.31,-84.4 1195.83,-73.81"/>
<polygon fill="#63b8ff" stroke="#63b8ff" points="962.04,-108.63 952.73,-113.7 963.17,-115.54 962.04,-108.63"/>
</a>
</g>
</g>
<!-- Node25 -->
<g id="Node000025" class="node">
<title>Node25</title>
<g id="a_Node000025"><a xlink:href="SGP30Sensor_8h.html" target="_top" xlink:title=" ">
<polygon fill="white" stroke="#666666" points="1404,-74 1315,-74 1315,-55 1404,-55 1404,-74"/>
<text text-anchor="middle" x="1359.5" y="-62" font-family="Helvetica,sans-Serif" font-size="10.00">SGP30Sensor.h</text>
</a>
</g>
</g>
<!-- Node3&#45;&gt;Node25 -->
<g id="edge32_Node000003_Node000025" class="edge">
<title>Node3&#45;&gt;Node25</title>
<g id="a_edge32_Node000003_Node000025"><a xlink:title=" ">
<path fill="none" stroke="#63b8ff" d="M962.93,-114.49C1032.45,-107.29 1181.3,-91.3 1306.5,-74 1309.27,-73.62 1312.12,-73.21 1314.99,-72.78"/>
<polygon fill="#63b8ff" stroke="#63b8ff" points="962.45,-111.02 952.87,-115.53 963.17,-117.98 962.45,-111.02"/>
</a>
</g>
</g>
<!-- Node27 -->
<g id="Node000027" class="node">
<title>Node27</title>
<g id="a_Node000027"><a xlink:href="TempSensor_8h.html" target="_top" xlink:title=" ">
<polygon fill="white" stroke="#666666" points="1505.5,-74 1421.5,-74 1421.5,-55 1505.5,-55 1505.5,-74"/>
<text text-anchor="middle" x="1463.5" y="-62" font-family="Helvetica,sans-Serif" font-size="10.00">TempSensor.h</text>
</a>
</g>
</g>
<!-- Node3&#45;&gt;Node27 -->
<g id="edge35_Node000003_Node000027" class="edge">
<title>Node3&#45;&gt;Node27</title>
<g id="a_edge35_Node000003_Node000027"><a xlink:title=" ">
<path fill="none" stroke="#63b8ff" d="M962.6,-115.99C1045.78,-110.41 1246.37,-95.76 1413.5,-74 1416.03,-73.67 1418.63,-73.31 1421.25,-72.92"/>
<polygon fill="#63b8ff" stroke="#63b8ff" points="962.33,-112.5 952.58,-116.65 962.79,-119.48 962.33,-112.5"/>
</a>
</g>
</g>
<!-- Node5 -->
<g id="Node000005" class="node">
<title>Node5</title>
<g id="a_Node000005"><a xlink:href="AS7331Sensor_8cpp.html" target="_top" xlink:title=" ">
<polygon fill="white" stroke="#666666" points="231.5,-19 125.5,-19 125.5,0 231.5,0 231.5,-19"/>
<text text-anchor="middle" x="178.5" y="-7" font-family="Helvetica,sans-Serif" font-size="10.00">AS7331Sensor.cpp</text>
</a>
</g>
</g>
<!-- Node4&#45;&gt;Node5 -->
<g id="edge4_Node000004_Node000005" class="edge">
<title>Node4&#45;&gt;Node5</title>
<g id="a_edge4_Node000004_Node000005"><a xlink:title=" ">
<path fill="none" stroke="#63b8ff" d="M242.84,-49.7C226.99,-40.04 206.31,-27.44 192.73,-19.17"/>
<polygon fill="#63b8ff" stroke="#63b8ff" points="241.16,-52.77 251.52,-54.98 244.8,-46.79 241.16,-52.77"/>
</a>
</g>
</g>
<!-- Node4&#45;&gt;Node6 -->
<g id="edge5_Node000004_Node000006" class="edge">
<title>Node4&#45;&gt;Node6</title>
<g id="a_edge5_Node000004_Node000006"><a xlink:title=" ">
<path fill="none" stroke="#63b8ff" d="M323.06,-55.05C570.46,-29.34 636.43,-52.38 878.5,-19 881.31,-18.61 884.22,-18.14 887.13,-17.61"/>
<polygon fill="#63b8ff" stroke="#63b8ff" points="322.63,-51.58 313.05,-56.11 323.36,-58.54 322.63,-51.58"/>
</a>
</g>
</g>
<!-- Node7&#45;&gt;Node6 -->
<g id="edge8_Node000007_Node000006" class="edge">
<title>Node7&#45;&gt;Node6</title>
<g id="a_edge8_Node000007_Node000006"><a xlink:title=" ">
<path fill="none" stroke="#63b8ff" d="M439.55,-54.96C635.18,-33.24 687.59,-46.98 878.5,-19 881.31,-18.59 884.22,-18.1 887.13,-17.56"/>
<polygon fill="#63b8ff" stroke="#63b8ff" points="439.06,-51.49 429.52,-56.09 439.85,-58.45 439.06,-51.49"/>
</a>
</g>
</g>
<!-- Node8 -->
<g id="Node000008" class="node">
<title>Node8</title>
<g id="a_Node000008"><a xlink:href="BME280Sensor_8cpp.html" target="_top" xlink:title=" ">
<polygon fill="white" stroke="#666666" points="359,-19 250,-19 250,0 359,0 359,-19"/>
<text text-anchor="middle" x="304.5" y="-7" font-family="Helvetica,sans-Serif" font-size="10.00">BME280Sensor.cpp</text>
</a>
</g>
</g>
<!-- Node7&#45;&gt;Node8 -->
<g id="edge7_Node000007_Node000008" class="edge">
<title>Node7&#45;&gt;Node8</title>
<g id="a_edge7_Node000007_Node000008"><a xlink:title=" ">
<path fill="none" stroke="#63b8ff" d="M359.92,-49.15C346.19,-39.57 328.57,-27.29 316.93,-19.17"/>
<polygon fill="#63b8ff" stroke="#63b8ff" points="358.08,-52.14 368.29,-54.98 362.09,-46.39 358.08,-52.14"/>
</a>
</g>
</g>
<!-- Node9&#45;&gt;Node6 -->
<g id="edge11_Node000009_Node000006" class="edge">
<title>Node9&#45;&gt;Node6</title>
<g id="a_edge11_Node000009_Node000006"><a xlink:title=" ">
<path fill="none" stroke="#63b8ff" d="M555.65,-54.9C699.93,-36.73 738.68,-41.57 878.5,-19 881.3,-18.55 884.21,-18.03 887.11,-17.48"/>
<polygon fill="#63b8ff" stroke="#63b8ff" points="555.01,-51.45 545.53,-56.19 555.89,-58.4 555.01,-51.45"/>
</a>
</g>
</g>
<!-- Node10 -->
<g id="Node000010" class="node">
<title>Node10</title>
<g id="a_Node000010"><a xlink:href="BME680Sensor_8cpp.html" target="_top" xlink:title=" ">
<polygon fill="white" stroke="#666666" points="486,-19 377,-19 377,0 486,0 486,-19"/>
<text text-anchor="middle" x="431.5" y="-7" font-family="Helvetica,sans-Serif" font-size="10.00">BME680Sensor.cpp</text>
</a>
</g>
</g>
<!-- Node9&#45;&gt;Node10 -->
<g id="edge10_Node000009_Node000010" class="edge">
<title>Node9&#45;&gt;Node10</title>
<g id="a_edge10_Node000009_Node000010"><a xlink:title=" ">
<path fill="none" stroke="#63b8ff" d="M478.23,-48.6C466.58,-39.11 451.9,-27.13 442.13,-19.17"/>
<polygon fill="#63b8ff" stroke="#63b8ff" points="476.09,-51.38 486.06,-54.98 480.52,-45.95 476.09,-51.38"/>
</a>
</g>
</g>
<!-- Node12 -->
<g id="Node000012" class="node">
<title>Node12</title>
<g id="a_Node000012"><a xlink:href="DS3231Sensor_8cpp.html" target="_top" xlink:title=" ">
<polygon fill="white" stroke="#666666" points="107,-19 0,-19 0,0 107,0 107,-19"/>
<text text-anchor="middle" x="53.5" y="-7" font-family="Helvetica,sans-Serif" font-size="10.00">DS3231Sensor.cpp</text>
</a>
</g>
</g>
<!-- Node11&#45;&gt;Node12 -->
<g id="edge13_Node000011_Node000012" class="edge">
<title>Node11&#45;&gt;Node12</title>
<g id="a_edge13_Node000011_Node000012"><a xlink:title=" ">
<path fill="none" stroke="#63b8ff" d="M89.82,-47.52C80.66,-38.18 69.45,-26.75 61.93,-19.09"/>
<polygon fill="#63b8ff" stroke="#63b8ff" points="87.41,-50.06 96.91,-54.75 92.41,-45.16 87.41,-50.06"/>
</a>
</g>
</g>
<!-- Node13&#45;&gt;Node6 -->
<g id="edge16_Node000013_Node000006" class="edge">
<title>Node13&#45;&gt;Node6</title>
<g id="a_edge16_Node000013_Node000006"><a xlink:title=" ">
<path fill="none" stroke="#63b8ff" d="M669.47,-54.6C723.64,-46.1 806.71,-32.6 878.5,-19 881.29,-18.47 884.18,-17.9 887.08,-17.31"/>
<polygon fill="#63b8ff" stroke="#63b8ff" points="668.7,-51.17 659.36,-56.18 669.78,-58.09 668.7,-51.17"/>
</a>
</g>
</g>
<!-- Node14 -->
<g id="Node000014" class="node">
<title>Node14</title>
<g id="a_Node000014"><a xlink:href="ENS160Sensor_8cpp.html" target="_top" xlink:title=" ">
<polygon fill="white" stroke="#666666" points="611,-19 504,-19 504,0 611,0 611,-19"/>
<text text-anchor="middle" x="557.5" y="-7" font-family="Helvetica,sans-Serif" font-size="10.00">ENS160Sensor.cpp</text>
</a>
</g>
</g>
<!-- Node13&#45;&gt;Node14 -->
<g id="edge15_Node000013_Node000014" class="edge">
<title>Node13&#45;&gt;Node14</title>
<g id="a_edge15_Node000013_Node000014"><a xlink:title=" ">
<path fill="none" stroke="#63b8ff" d="M595.22,-47.52C585.7,-38.18 574.06,-26.75 566.25,-19.09"/>
<polygon fill="#63b8ff" stroke="#63b8ff" points="592.99,-50.24 602.58,-54.75 597.9,-45.25 592.99,-50.24"/>
</a>
</g>
</g>
<!-- Node15&#45;&gt;Node6 -->
<g id="edge19_Node000015_Node000006" class="edge">
<title>Node15&#45;&gt;Node6</title>
<g id="a_edge19_Node000015_Node000006"><a xlink:title=" ">
<path fill="none" stroke="#63b8ff" d="M770.64,-52.18C805.8,-42.27 856.13,-28.08 888.06,-19.08"/>
<polygon fill="#63b8ff" stroke="#63b8ff" points="769.38,-48.9 760.71,-54.98 771.28,-55.64 769.38,-48.9"/>
</a>
</g>
</g>
<!-- Node16 -->
<g id="Node000016" class="node">
<title>Node16</title>
<g id="a_Node000016"><a xlink:href="ICM20948Sensor_8cpp.html" target="_top" xlink:title=" ">
<polygon fill="white" stroke="#666666" points="747.5,-19 629.5,-19 629.5,0 747.5,0 747.5,-19"/>
<text text-anchor="middle" x="688.5" y="-7" font-family="Helvetica,sans-Serif" font-size="10.00">ICM20948Sensor.cpp</text>
</a>
</g>
</g>
<!-- Node15&#45;&gt;Node16 -->
<g id="edge18_Node000015_Node000016" class="edge">
<title>Node15&#45;&gt;Node16</title>
<g id="a_edge18_Node000015_Node000016"><a xlink:title=" ">
<path fill="none" stroke="#63b8ff" d="M717.17,-46.67C709.89,-37.5 701.2,-26.52 695.31,-19.09"/>
<polygon fill="#63b8ff" stroke="#63b8ff" points="714.61,-49.08 723.56,-54.75 720.1,-44.74 714.61,-49.08"/>
</a>
</g>
</g>
<!-- Node17&#45;&gt;Node6 -->
<g id="edge22_Node000017_Node000006" class="edge">
<title>Node17&#45;&gt;Node6</title>
<g id="a_edge22_Node000017_Node000006"><a xlink:title=" ">
<path fill="none" stroke="#63b8ff" d="M867.81,-48.88C880.41,-39.34 896.43,-27.21 907.05,-19.17"/>
<polygon fill="#63b8ff" stroke="#63b8ff" points="865.61,-46.16 859.75,-54.98 869.83,-51.74 865.61,-46.16"/>
</a>
</g>
</g>
<!-- Node18 -->
<g id="Node000018" class="node">
<title>Node18</title>
<g id="a_Node000018"><a xlink:href="INA260Sensor_8cpp.html" target="_top" xlink:title=" ">
<polygon fill="white" stroke="#666666" points="869.5,-19 765.5,-19 765.5,0 869.5,0 869.5,-19"/>
<text text-anchor="middle" x="817.5" y="-7" font-family="Helvetica,sans-Serif" font-size="10.00">INA260Sensor.cpp</text>
</a>
</g>
</g>
<!-- Node17&#45;&gt;Node18 -->
<g id="edge21_Node000017_Node000018" class="edge">
<title>Node17&#45;&gt;Node18</title>
<g id="a_edge21_Node000017_Node000018"><a xlink:title=" ">
<path fill="none" stroke="#63b8ff" d="M838.32,-46.1C833.03,-37.04 826.78,-26.37 822.52,-19.09"/>
<polygon fill="#63b8ff" stroke="#63b8ff" points="835.31,-47.88 843.38,-54.75 841.35,-44.35 835.31,-47.88"/>
</a>
</g>
</g>
<!-- Node19&#45;&gt;Node6 -->
<g id="edge25_Node000019_Node000006" class="edge">
<title>Node19&#45;&gt;Node6</title>
<g id="a_edge25_Node000019_Node000006"><a xlink:title=" ">
<path fill="none" stroke="#63b8ff" d="M980.93,-49.42C965.5,-39.81 945.55,-27.37 932.41,-19.17"/>
<polygon fill="#63b8ff" stroke="#63b8ff" points="979.51,-52.66 989.84,-54.98 983.21,-46.72 979.51,-52.66"/>
</a>
</g>
</g>
<!-- Node20 -->
<g id="Node000020" class="node">
<title>Node20</title>
<g id="a_Node000020"><a xlink:href="LSM9DS1Sensor_8cpp.html" target="_top" xlink:title=" ">
<polygon fill="white" stroke="#666666" points="1083,-19 968,-19 968,0 1083,0 1083,-19"/>
<text text-anchor="middle" x="1025.5" y="-7" font-family="Helvetica,sans-Serif" font-size="10.00">LSM9DS1Sensor.cpp</text>
</a>
</g>
</g>
<!-- Node19&#45;&gt;Node20 -->
<g id="edge24_Node000019_Node000020" class="edge">
<title>Node19&#45;&gt;Node20</title>
<g id="a_edge24_Node000019_Node000020"><a xlink:title=" ">
<path fill="none" stroke="#63b8ff" d="M1011.08,-45.24C1014.76,-36.37 1019.01,-26.14 1021.93,-19.09"/>
<polygon fill="#63b8ff" stroke="#63b8ff" points="1007.73,-44.17 1007.13,-54.75 1014.2,-46.85 1007.73,-44.17"/>
</a>
</g>
</g>
<!-- Node21&#45;&gt;Node6 -->
<g id="edge28_Node000021_Node000006" class="edge">
<title>Node21&#45;&gt;Node6</title>
<g id="a_edge28_Node000021_Node000006"><a xlink:title=" ">
<path fill="none" stroke="#63b8ff" d="M1082.33,-52.45C1042.7,-42.3 984.94,-27.51 949.64,-18.47"/>
<polygon fill="#63b8ff" stroke="#63b8ff" points="1081.69,-55.89 1092.24,-54.98 1083.42,-49.11 1081.69,-55.89"/>
</a>
</g>
</g>
<!-- Node22 -->
<g id="Node000022" class="node">
<title>Node22</title>
<g id="a_Node000022"><a xlink:href="MTK3339Sensor_8cpp.html" target="_top" xlink:title=" ">
<polygon fill="white" stroke="#666666" points="1216,-19 1101,-19 1101,0 1216,0 1216,-19"/>
<text text-anchor="middle" x="1158.5" y="-7" font-family="Helvetica,sans-Serif" font-size="10.00">MTK3339Sensor.cpp</text>
</a>
</g>
</g>
<!-- Node21&#45;&gt;Node22 -->
<g id="edge27_Node000021_Node000022" class="edge">
<title>Node21&#45;&gt;Node22</title>
<g id="a_edge27_Node000021_Node000022"><a xlink:title=" ">
<path fill="none" stroke="#63b8ff" d="M1136.33,-46.1C1141.97,-37.04 1148.62,-26.37 1153.15,-19.09"/>
<polygon fill="#63b8ff" stroke="#63b8ff" points="1133.26,-44.41 1130.95,-54.75 1139.21,-48.11 1133.26,-44.41"/>
</a>
</g>
</g>
<!-- Node23&#45;&gt;Node6 -->
<g id="edge31_Node000023_Node000006" class="edge">
<title>Node23&#45;&gt;Node6</title>
<g id="a_edge31_Node000023_Node000006"><a xlink:title=" ">
<path fill="none" stroke="#63b8ff" d="M1185.62,-54.5C1114.42,-43.91 1000.89,-26.77 958.5,-19 955.71,-18.49 952.81,-17.93 949.91,-17.35"/>
<polygon fill="#63b8ff" stroke="#63b8ff" points="1185.4,-58.01 1195.8,-56.02 1186.43,-51.08 1185.4,-58.01"/>
</a>
</g>
</g>
<!-- Node24 -->
<g id="Node000024" class="node">
<title>Node24</title>
<g id="a_Node000024"><a xlink:href="PCF8523Sensor_8cpp.html" target="_top" xlink:title=" ">
<polygon fill="white" stroke="#666666" points="1346.5,-19 1234.5,-19 1234.5,0 1346.5,0 1346.5,-19"/>
<text text-anchor="middle" x="1290.5" y="-7" font-family="Helvetica,sans-Serif" font-size="10.00">PCF8523Sensor.cpp</text>
</a>
</g>
</g>
<!-- Node23&#45;&gt;Node24 -->
<g id="edge30_Node000023_Node000024" class="edge">
<title>Node23&#45;&gt;Node24</title>
<g id="a_edge30_Node000023_Node000024"><a xlink:title=" ">
<path fill="none" stroke="#63b8ff" d="M1260.23,-46.96C1267.9,-37.72 1277.13,-26.6 1283.37,-19.09"/>
<polygon fill="#63b8ff" stroke="#63b8ff" points="1257.46,-44.82 1253.77,-54.75 1262.85,-49.29 1257.46,-44.82"/>
</a>
</g>
</g>
<!-- Node25&#45;&gt;Node6 -->
<g id="edge34_Node000025_Node000006" class="edge">
<title>Node25&#45;&gt;Node6</title>
<g id="a_edge34_Node000025_Node000006"><a xlink:title=" ">
<path fill="none" stroke="#63b8ff" d="M1304.68,-54.83C1150.56,-35.03 1108.8,-42.67 958.5,-19 955.69,-18.56 952.79,-18.05 949.88,-17.5"/>
<polygon fill="#63b8ff" stroke="#63b8ff" points="1304.62,-58.36 1314.99,-56.18 1305.53,-51.41 1304.62,-58.36"/>
</a>
</g>
</g>
<!-- Node26 -->
<g id="Node000026" class="node">
<title>Node26</title>
<g id="a_Node000026"><a xlink:href="SGP30Sensor_8cpp.html" target="_top" xlink:title=" ">
<polygon fill="white" stroke="#666666" points="1466,-19 1365,-19 1365,0 1466,0 1466,-19"/>
<text text-anchor="middle" x="1415.5" y="-7" font-family="Helvetica,sans-Serif" font-size="10.00">SGP30Sensor.cpp</text>
</a>
</g>
</g>
<!-- Node25&#45;&gt;Node26 -->
<g id="edge33_Node000025_Node000026" class="edge">
<title>Node25&#45;&gt;Node26</title>
<g id="a_edge33_Node000025_Node000026"><a xlink:title=" ">
<path fill="none" stroke="#63b8ff" d="M1375.83,-48.04C1385.76,-38.64 1398.09,-26.98 1406.34,-19.17"/>
<polygon fill="#63b8ff" stroke="#63b8ff" points="1373.35,-45.57 1368.5,-54.98 1378.17,-50.65 1373.35,-45.57"/>
</a>
</g>
</g>
<!-- Node27&#45;&gt;Node6 -->
<g id="edge37_Node000027_Node000006" class="edge">
<title>Node27&#45;&gt;Node6</title>
<g id="a_edge37_Node000027_Node000006"><a xlink:title=" ">
<path fill="none" stroke="#63b8ff" d="M1411.27,-54.82C1210.45,-30.55 1156.01,-47.67 958.5,-19 955.69,-18.59 952.78,-18.1 949.87,-17.57"/>
<polygon fill="#63b8ff" stroke="#63b8ff" points="1410.9,-58.3 1421.26,-56.05 1411.76,-51.35 1410.9,-58.3"/>
</a>
</g>
</g>
<!-- Node28 -->
<g id="Node000028" class="node">
<title>Node28</title>
<g id="a_Node000028"><a xlink:href="TempSensor_8cpp.html" target="_top" xlink:title=" ">
<polygon fill="white" stroke="#666666" points="1579,-19 1484,-19 1484,0 1579,0 1579,-19"/>
<text text-anchor="middle" x="1531.5" y="-7" font-family="Helvetica,sans-Serif" font-size="10.00">TempSensor.cpp</text>
</a>
</g>
</g>
<!-- Node27&#45;&gt;Node28 -->
<g id="edge36_Node000027_Node000028" class="edge">
<title>Node27&#45;&gt;Node28</title>
<g id="a_edge36_Node000027_Node000028"><a xlink:title=" ">
<path fill="none" stroke="#63b8ff" d="M1482.62,-48.6C1494.8,-39.11 1510.16,-27.13 1520.38,-19.17"/>
<polygon fill="#63b8ff" stroke="#63b8ff" points="1480.16,-46.08 1474.43,-54.98 1484.46,-51.6 1480.16,-46.08"/>
</a>
</g>
</g>
<!-- Node30 -->
<g id="Node000030" class="node">
<title>Node30</title>
<g id="a_Node000030"><a xlink:href="FlashStorage_8h.html" target="_top" xlink:title=" ">
<polygon fill="white" stroke="#666666" points="1679,-74 1590,-74 1590,-55 1679,-55 1679,-74"/>
<text text-anchor="middle" x="1634.5" y="-62" font-family="Helvetica,sans-Serif" font-size="10.00">FlashStorage.h</text>
</a>
</g>
</g>
<!-- Node29&#45;&gt;Node30 -->
<g id="edge40_Node000029_Node000030" class="edge">
<title>Node29&#45;&gt;Node30</title>
<g id="a_edge40_Node000029_Node000030"><a xlink:title=" ">
<path fill="none" stroke="#63b8ff" d="M1703.01,-104.97C1686.19,-95.28 1664.05,-82.52 1649.55,-74.17"/>
<polygon fill="#63b8ff" stroke="#63b8ff" points="1701.31,-108.03 1711.72,-109.98 1704.8,-101.96 1701.31,-108.03"/>
</a>
</g>
</g>
<!-- Node29&#45;&gt;Node32 -->
<g id="edge50_Node000029_Node000032" class="edge">
<title>Node29&#45;&gt;Node32</title>
<g id="a_edge50_Node000029_Node000032"><a xlink:title=" ">
<path fill="none" stroke="#63b8ff" d="M1750.25,-104.88C1764.34,-96.49 1782.35,-85.23 1797.5,-74 1821.79,-55.99 1848.01,-31.92 1861.44,-19.21"/>
<polygon fill="#63b8ff" stroke="#63b8ff" points="1748.48,-101.86 1741.63,-109.95 1752.03,-107.9 1748.48,-101.86"/>
</a>
</g>
</g>
<!-- Node33 -->
<g id="Node000033" class="node">
<title>Node33</title>
<g id="a_Node000033"><a xlink:href="RadioStorage_8h.html" target="_top" xlink:title=" ">
<polygon fill="white" stroke="#666666" points="1788,-74 1697,-74 1697,-55 1788,-55 1788,-74"/>
<text text-anchor="middle" x="1742.5" y="-62" font-family="Helvetica,sans-Serif" font-size="10.00">RadioStorage.h</text>
</a>
</g>
</g>
<!-- Node29&#45;&gt;Node33 -->
<g id="edge44_Node000029_Node000033" class="edge">
<title>Node29&#45;&gt;Node33</title>
<g id="a_edge44_Node000029_Node000033"><a xlink:title=" ">
<path fill="none" stroke="#63b8ff" d="M1732.1,-99.95C1734.76,-91.15 1737.8,-81.06 1739.91,-74.09"/>
<polygon fill="#63b8ff" stroke="#63b8ff" points="1728.68,-99.16 1729.14,-109.75 1735.38,-101.19 1728.68,-99.16"/>
</a>
</g>
</g>
<!-- Node35 -->
<g id="Node000035" class="node">
<title>Node35</title>
<g id="a_Node000035"><a xlink:href="SDStorage_8h.html" target="_top" xlink:title=" ">
<polygon fill="white" stroke="#666666" points="1922,-74 1845,-74 1845,-55 1922,-55 1922,-74"/>
<text text-anchor="middle" x="1883.5" y="-62" font-family="Helvetica,sans-Serif" font-size="10.00">SDStorage.h</text>
</a>
</g>
</g>
<!-- Node29&#45;&gt;Node35 -->
<g id="edge47_Node000029_Node000035" class="edge">
<title>Node29&#45;&gt;Node35</title>
<g id="a_edge47_Node000029_Node000035"><a xlink:title=" ">
<path fill="none" stroke="#63b8ff" d="M1761.55,-106.67C1790.82,-96.79 1831.87,-82.93 1858.08,-74.08"/>
<polygon fill="#63b8ff" stroke="#63b8ff" points="1760.08,-103.47 1751.72,-109.98 1762.32,-110.1 1760.08,-103.47"/>
</a>
</g>
</g>
<!-- Node30&#45;&gt;Node6 -->
<g id="edge42_Node000030_Node000006" class="edge">
<title>Node30&#45;&gt;Node6</title>
<g id="a_edge42_Node000030_Node000006"><a xlink:title=" ">
<path fill="none" stroke="#63b8ff" d="M1579.39,-56.39C1574.69,-55.89 1570.02,-55.41 1565.5,-55 1296.36,-30.47 1226.32,-55.19 958.5,-19 955.69,-18.62 952.77,-18.15 949.87,-17.63"/>
<polygon fill="#63b8ff" stroke="#63b8ff" points="1579.3,-59.91 1589.63,-57.56 1580.09,-52.95 1579.3,-59.91"/>
</a>
</g>
</g>
<!-- Node31 -->
<g id="Node000031" class="node">
<title>Node31</title>
<g id="a_Node000031"><a xlink:href="FlashStorage_8cpp.html" target="_top" xlink:title=" ">
<polygon fill="white" stroke="#666666" points="1698,-19 1597,-19 1597,0 1698,0 1698,-19"/>
<text text-anchor="middle" x="1647.5" y="-7" font-family="Helvetica,sans-Serif" font-size="10.00">FlashStorage.cpp</text>
</a>
</g>
</g>
<!-- Node30&#45;&gt;Node31 -->
<g id="edge41_Node000030_Node000031" class="edge">
<title>Node30&#45;&gt;Node31</title>
<g id="a_edge41_Node000030_Node000031"><a xlink:title=" ">
<path fill="none" stroke="#63b8ff" d="M1639.05,-44.95C1641.21,-36.15 1643.68,-26.06 1645.39,-19.09"/>
<polygon fill="#63b8ff" stroke="#63b8ff" points="1635.63,-44.2 1636.65,-54.75 1642.43,-45.87 1635.63,-44.2"/>
</a>
</g>
</g>
<!-- Node30&#45;&gt;Node32 -->
<g id="edge43_Node000030_Node000032" class="edge">
<title>Node30&#45;&gt;Node32</title>
<g id="a_edge43_Node000030_Node000032"><a xlink:title=" ">
<path fill="none" stroke="#63b8ff" d="M1682.37,-52.75C1728.01,-42.5 1795.61,-27.32 1836.13,-18.22"/>
<polygon fill="#63b8ff" stroke="#63b8ff" points="1681.41,-49.38 1672.42,-54.98 1682.94,-56.21 1681.41,-49.38"/>
</a>
</g>
</g>
<!-- Node33&#45;&gt;Node32 -->
<g id="edge46_Node000033_Node000032" class="edge">
<title>Node33&#45;&gt;Node32</title>
<g id="a_edge46_Node000033_Node000032"><a xlink:title=" ">
<path fill="none" stroke="#63b8ff" d="M1772.62,-51.03C1796.29,-41.23 1828.65,-27.83 1849.56,-19.17"/>
<polygon fill="#63b8ff" stroke="#63b8ff" points="1770.97,-47.93 1763.07,-54.98 1773.64,-54.39 1770.97,-47.93"/>
</a>
</g>
</g>
<!-- Node34 -->
<g id="Node000034" class="node">
<title>Node34</title>
<g id="a_Node000034"><a xlink:href="RadioStorage_8cpp.html" target="_top" xlink:title=" ">
<polygon fill="white" stroke="#666666" points="1818.5,-19 1716.5,-19 1716.5,0 1818.5,0 1818.5,-19"/>
<text text-anchor="middle" x="1767.5" y="-7" font-family="Helvetica,sans-Serif" font-size="10.00">RadioStorage.cpp</text>
</a>
</g>
</g>
<!-- Node33&#45;&gt;Node34 -->
<g id="edge45_Node000033_Node000034" class="edge">
<title>Node33&#45;&gt;Node34</title>
<g id="a_edge45_Node000033_Node000034"><a xlink:title=" ">
<path fill="none" stroke="#63b8ff" d="M1750.98,-45.53C1755.19,-36.6 1760.09,-26.22 1763.45,-19.09"/>
<polygon fill="#63b8ff" stroke="#63b8ff" points="1747.73,-44.21 1746.63,-54.75 1754.06,-47.2 1747.73,-44.21"/>
</a>
</g>
</g>
<!-- Node35&#45;&gt;Node32 -->
<g id="edge49_Node000035_Node000032" class="edge">
<title>Node35&#45;&gt;Node32</title>
<g id="a_edge49_Node000035_Node000032"><a xlink:title=" ">
<path fill="none" stroke="#63b8ff" d="M1878.95,-44.95C1876.79,-36.15 1874.32,-26.06 1872.61,-19.09"/>
<polygon fill="#63b8ff" stroke="#63b8ff" points="1875.57,-45.87 1881.35,-54.75 1882.37,-44.2 1875.57,-45.87"/>
</a>
</g>
</g>
<!-- Node36 -->
<g id="Node000036" class="node">
<title>Node36</title>
<g id="a_Node000036"><a xlink:href="SDStorage_8cpp.html" target="_top" xlink:title=" ">
<polygon fill="white" stroke="#666666" points="2010.5,-19 1922.5,-19 1922.5,0 2010.5,0 2010.5,-19"/>
<text text-anchor="middle" x="1966.5" y="-7" font-family="Helvetica,sans-Serif" font-size="10.00">SDStorage.cpp</text>
</a>
</g>
</g>
<!-- Node35&#45;&gt;Node36 -->
<g id="edge48_Node000035_Node000036" class="edge">
<title>Node35&#45;&gt;Node36</title>
<g id="a_edge48_Node000035_Node000036"><a xlink:title=" ">
<path fill="none" stroke="#63b8ff" d="M1905.54,-49.42C1920.61,-39.81 1940.09,-27.37 1952.92,-19.17"/>
<polygon fill="#63b8ff" stroke="#63b8ff" points="1903.38,-46.65 1896.84,-54.98 1907.15,-52.55 1903.38,-46.65"/>
</a>
</g>
</g>
</g>
</svg>
