<?xml version="1.0" encoding="UTF-8" standalone="no"?>
<!DOCTYPE svg PUBLIC "-//W3C//DTD SVG 1.1//EN"
 "http://www.w3.org/Graphics/SVG/1.1/DTD/svg11.dtd">
<!-- Generated by graphviz version 2.43.0 (0)
 -->
<!-- Title: Logger.h Pages: 1 -->
<!--zoomable 247 -->

<svg id="main" version="1.1" xmlns="http://www.w3.org/2000/svg" xmlns:xlink="http://www.w3.org/1999/xlink" xml:space="preserve" onload="init(evt)">
<style type="text/css"><![CDATA[
.node, .edge {opacity: 0.7;}
.node.selected, .edge.selected {opacity: 1;}
.edge:hover path { stroke: red; }
.edge:hover polygon { stroke: red; fill: red; }
]]></style>

<defs>
  <circle id="rim" cx="0" cy="0" r="7"/>
  <circle id="rim2" cx="0" cy="0" r="3.5"/>
  <g id="zoomPlus">
    <use xlink:href="#rim" fill="#404040"><set attributeName="fill" to="#808080" begin="zoomplus.mouseover" end="zoomplus.mouseout"/></use>
    <path d="M-4,0h8M0,-4v8" fill="none" stroke="white" stroke-width="1.5" pointer-events="none"/>
  </g>
  <g id="zoomMin">
    <use xlink:href="#rim" fill="#404040"><set attributeName="fill" to="#808080" begin="zoomminus.mouseover" end="zoomminus.mouseout"/></use>
    <path d="M-4,0h8" fill="none" stroke="white" stroke-width="1.5" pointer-events="none"/>
  </g>
  <g id="arrowUp" transform="translate(30 24)">
    <use xlink:href="#rim"/>
    <path pointer-events="none" fill="none" stroke="white" stroke-width="1.5" d="M0,-3.0v7 M-2.5,-0.5L0,-3.0L2.5,-0.5"/>
  </g>
  <g id="arrowRight" transform="rotate(90) translate(36 -43)">
    <use xlink:href="#rim"/>
    <path pointer-events="none" fill="none" stroke="white" stroke-width="1.5" d="M0,-3.0v7 M-2.5,-0.5L0,-3.0L2.5,-0.5"/>
  </g>
  <g id="arrowDown" transform="rotate(180) translate(-30 -48)">
    <use xlink:href="#rim"/>
    <path pointer-events="none" fill="none" stroke="white" stroke-width="1.5" d="M0,-3.0v7 M-2.5,-0.5L0,-3.0L2.5,-0.5"/>
  </g>
  <g id="arrowLeft" transform="rotate(270) translate(-36 17)">
    <use xlink:href="#rim"/>
    <path pointer-events="none" fill="none" stroke="white" stroke-width="1.5" d="M0,-3.0v7 M-2.5,-0.5L0,-3.0L2.5,-0.5"/>
  </g>
  <g id="resetDef">
    <use xlink:href="#rim2" fill="#404040"><set attributeName="fill" to="#808080" begin="reset.mouseover" end="reset.mouseout"/></use>
  </g>
</defs>
<script type="application/ecmascript">
var viewWidth = 2512;
var viewHeight = 247;
var sectionId = 'dynsection-1';
</script>
<script type="application/ecmascript" xlink:href="svg.min.js"/>
<svg id="graph" class="graph">
<g id="viewport">
<title>Logger.h</title>
<!-- Node1 -->
<g id="Node000001" class="node">
<title>Node1</title>
<g id="a_Node000001"><a xlink:title=" ">
<polygon fill="#999999" stroke="#666666" points="2163.5,-239 2105.5,-239 2105.5,-220 2163.5,-220 2163.5,-239"/>
<text text-anchor="middle" x="2134.5" y="-227" font-family="Helvetica,sans-Serif" font-size="10.00">Logger.h</text>
</a>
</g>
</g>
<!-- Node2 -->
<g id="Node000002" class="node">
<title>Node2</title>
<g id="a_Node000002"><a xlink:href="Device_8h.html" target="_top" xlink:title=" ">
<polygon fill="white" stroke="#666666" points="2164,-184 2105,-184 2105,-165 2164,-165 2164,-184"/>
<text text-anchor="middle" x="2134.5" y="-172" font-family="Helvetica,sans-Serif" font-size="10.00">Device.h</text>
</a>
</g>
</g>
<!-- Node1&#45;&gt;Node2 -->
<g id="edge1_Node000001_Node000002" class="edge">
<title>Node1&#45;&gt;Node2</title>
<g id="a_edge1_Node000001_Node000002"><a xlink:title=" ">
<path fill="none" stroke="#63b8ff" d="M2134.5,-209.66C2134.5,-200.93 2134.5,-190.99 2134.5,-184.09"/>
<polygon fill="#63b8ff" stroke="#63b8ff" points="2131,-209.75 2134.5,-219.75 2138,-209.75 2131,-209.75"/>
</a>
</g>
</g>
<!-- Node3 -->
<g id="Node000003" class="node">
<title>Node3</title>
<g id="a_Node000003"><a xlink:href="Sensor_8h.html" target="_top" xlink:title=" ">
<polygon fill="white" stroke="#666666" points="1214.5,-129 1156.5,-129 1156.5,-110 1214.5,-110 1214.5,-129"/>
<text text-anchor="middle" x="1185.5" y="-117" font-family="Helvetica,sans-Serif" font-size="10.00">Sensor.h</text>
</a>
</g>
</g>
<!-- Node1&#45;&gt;Node3 -->
<g id="edge58_Node000001_Node000003" class="edge">
<title>Node1&#45;&gt;Node3</title>
<g id="a_edge58_Node000001_Node000003"><a xlink:title=" ">
<path fill="none" stroke="#63b8ff" d="M2095.13,-224.02C1937.29,-206.06 1352.26,-139.48 1214.63,-123.82"/>
<polygon fill="#63b8ff" stroke="#63b8ff" points="2094.99,-227.53 2105.32,-225.18 2095.78,-220.57 2094.99,-227.53"/>
</a>
</g>
</g>
<!-- Node6 -->
<g id="Node000006" class="node">
<title>Node6</title>
<g id="a_Node000006"><a xlink:href="main_8cpp.html" target="_top" xlink:title="Main functions for Core 0, responsible for reading data from sensor peripherals.">
<polygon fill="white" stroke="#666666" points="1554.5,-19 1492.5,-19 1492.5,0 1554.5,0 1554.5,-19"/>
<text text-anchor="middle" x="1523.5" y="-7" font-family="Helvetica,sans-Serif" font-size="10.00">main.cpp</text>
</a>
</g>
</g>
<!-- Node1&#45;&gt;Node6 -->
<g id="edge60_Node000001_Node000006" class="edge">
<title>Node1&#45;&gt;Node6</title>
<g id="a_edge60_Node000001_Node000006"><a xlink:title=" ">
<path fill="none" stroke="#63b8ff" d="M2120.26,-212.23C2083.19,-169.97 1985.94,-59.67 1976.5,-55 1893.93,-14.14 1654.62,-32.6 1563.5,-19 1560.69,-18.58 1557.78,-18.09 1554.88,-17.55"/>
<polygon fill="#63b8ff" stroke="#63b8ff" points="2117.79,-214.72 2127.01,-219.94 2123.05,-210.11 2117.79,-214.72"/>
</a>
</g>
</g>
<!-- Node37 -->
<g id="Node000037" class="node">
<title>Node37</title>
<g id="a_Node000037"><a xlink:href="Storage_8h.html" target="_top" xlink:title=" ">
<polygon fill="white" stroke="#666666" points="2243,-129 2180,-129 2180,-110 2243,-110 2243,-129"/>
<text text-anchor="middle" x="2211.5" y="-117" font-family="Helvetica,sans-Serif" font-size="10.00">Storage.h</text>
</a>
</g>
</g>
<!-- Node1&#45;&gt;Node37 -->
<g id="edge59_Node000001_Node000037" class="edge">
<title>Node1&#45;&gt;Node37</title>
<g id="a_edge59_Node000001_Node000037"><a xlink:title=" ">
<path fill="none" stroke="#63b8ff" d="M2149.96,-212.29C2157.45,-204.11 2166.33,-193.84 2173.5,-184 2187.11,-165.31 2200.37,-141.51 2207.04,-129.02"/>
<polygon fill="#63b8ff" stroke="#63b8ff" points="2147.32,-209.99 2143.07,-219.7 2152.45,-214.77 2147.32,-209.99"/>
</a>
</g>
</g>
<!-- Node40 -->
<g id="Node000040" class="node">
<title>Node40</title>
<g id="a_Node000040"><a xlink:href="main1_8cpp.html" target="_top" xlink:title="Main functions for Core 1, responsible for sending data to storage peripherals.">
<polygon fill="white" stroke="#666666" points="2383.5,-19 2315.5,-19 2315.5,0 2383.5,0 2383.5,-19"/>
<text text-anchor="middle" x="2349.5" y="-7" font-family="Helvetica,sans-Serif" font-size="10.00">main1.cpp</text>
</a>
</g>
</g>
<!-- Node1&#45;&gt;Node40 -->
<g id="edge61_Node000001_Node000040" class="edge">
<title>Node1&#45;&gt;Node40</title>
<g id="a_edge61_Node000001_Node000040"><a xlink:title=" ">
<path fill="none" stroke="#63b8ff" d="M2156.2,-214.11C2192.62,-189.1 2266.74,-134.49 2314.5,-74 2328.54,-56.22 2340.14,-32.05 2345.79,-19.26"/>
<polygon fill="#63b8ff" stroke="#63b8ff" points="2154.1,-211.3 2147.79,-219.81 2158.03,-217.09 2154.1,-211.3"/>
</a>
</g>
</g>
<!-- Node2&#45;&gt;Node3 -->
<g id="edge2_Node000002_Node000003" class="edge">
<title>Node2&#45;&gt;Node3</title>
<g id="a_edge2_Node000002_Node000003"><a xlink:title=" ">
<path fill="none" stroke="#63b8ff" d="M2094.54,-171.27C1935.82,-162.4 1351.92,-129.79 1214.57,-122.12"/>
<polygon fill="#63b8ff" stroke="#63b8ff" points="2094.62,-174.78 2104.79,-171.84 2095.01,-167.79 2094.62,-174.78"/>
</a>
</g>
</g>
<!-- Node2&#45;&gt;Node37 -->
<g id="edge46_Node000002_Node000037" class="edge">
<title>Node2&#45;&gt;Node37</title>
<g id="a_edge46_Node000002_Node000037"><a xlink:title=" ">
<path fill="none" stroke="#63b8ff" d="M2155.35,-159.15C2169.26,-149.57 2187.11,-137.29 2198.9,-129.17"/>
<polygon fill="#63b8ff" stroke="#63b8ff" points="2153.12,-156.43 2146.87,-164.98 2157.09,-162.2 2153.12,-156.43"/>
</a>
</g>
</g>
<!-- Node4 -->
<g id="Node000004" class="node">
<title>Node4</title>
<g id="a_Node000004"><a xlink:href="AS7331Sensor_8h.html" target="_top" xlink:title=" ">
<polygon fill="white" stroke="#666666" points="1341,-74 1246,-74 1246,-55 1341,-55 1341,-74"/>
<text text-anchor="middle" x="1293.5" y="-62" font-family="Helvetica,sans-Serif" font-size="10.00">AS7331Sensor.h</text>
</a>
</g>
</g>
<!-- Node3&#45;&gt;Node4 -->
<g id="edge3_Node000003_Node000004" class="edge">
<title>Node3&#45;&gt;Node4</title>
<g id="a_edge3_Node000003_Node000004"><a xlink:title=" ">
<path fill="none" stroke="#63b8ff" d="M1211.99,-105.5C1231.86,-95.75 1258.5,-82.68 1275.83,-74.17"/>
<polygon fill="#63b8ff" stroke="#63b8ff" points="1210.29,-102.44 1202.85,-109.98 1213.37,-108.72 1210.29,-102.44"/>
</a>
</g>
</g>
<!-- Node3&#45;&gt;Node6 -->
<g id="edge45_Node000003_Node000006" class="edge">
<title>Node3&#45;&gt;Node6</title>
<g id="a_edge45_Node000003_Node000006"><a xlink:title=" ">
<path fill="none" stroke="#63b8ff" d="M1224.85,-115.52C1292.03,-109.91 1425.52,-96.29 1466.5,-74 1490.71,-60.83 1509.83,-33.28 1518.47,-19.19"/>
<polygon fill="#63b8ff" stroke="#63b8ff" points="1224.35,-112.05 1214.67,-116.36 1224.92,-119.03 1224.35,-112.05"/>
</a>
</g>
</g>
<!-- Node7 -->
<g id="Node000007" class="node">
<title>Node7</title>
<g id="a_Node000007"><a xlink:href="BME280Sensor_8h.html" target="_top" xlink:title=" ">
<polygon fill="white" stroke="#666666" points="114.5,-74 16.5,-74 16.5,-55 114.5,-55 114.5,-74"/>
<text text-anchor="middle" x="65.5" y="-62" font-family="Helvetica,sans-Serif" font-size="10.00">BME280Sensor.h</text>
</a>
</g>
</g>
<!-- Node3&#45;&gt;Node7 -->
<g id="edge6_Node000003_Node000007" class="edge">
<title>Node3&#45;&gt;Node7</title>
<g id="a_edge6_Node000003_Node000007"><a xlink:title=" ">
<path fill="none" stroke="#63b8ff" d="M1146.27,-118.15C1007.19,-116.63 524.8,-109 128.5,-74 123.99,-73.6 119.31,-73.11 114.63,-72.57"/>
<polygon fill="#63b8ff" stroke="#63b8ff" points="1146.4,-121.65 1156.43,-118.26 1146.47,-114.65 1146.4,-121.65"/>
</a>
</g>
</g>
<!-- Node9 -->
<g id="Node000009" class="node">
<title>Node9</title>
<g id="a_Node000009"><a xlink:href="BME680Sensor_8h.html" target="_top" xlink:title=" ">
<polygon fill="white" stroke="#666666" points="235.5,-74 137.5,-74 137.5,-55 235.5,-55 235.5,-74"/>
<text text-anchor="middle" x="186.5" y="-62" font-family="Helvetica,sans-Serif" font-size="10.00">BME680Sensor.h</text>
</a>
</g>
</g>
<!-- Node3&#45;&gt;Node9 -->
<g id="edge8_Node000003_Node000009" class="edge">
<title>Node3&#45;&gt;Node9</title>
<g id="a_edge8_Node000003_Node000009"><a xlink:title=" ">
<path fill="none" stroke="#63b8ff" d="M1145.98,-117.67C1017.46,-114.73 599.74,-103.4 255.5,-74 249.13,-73.46 242.43,-72.77 235.83,-72.03"/>
<polygon fill="#63b8ff" stroke="#63b8ff" points="1146.05,-121.17 1156.13,-117.89 1146.21,-114.17 1146.05,-121.17"/>
</a>
</g>
</g>
<!-- Node11 -->
<g id="Node000011" class="node">
<title>Node11</title>
<g id="a_Node000011"><a xlink:href="BMP390Sensor_8h.html" target="_top" xlink:title=" ">
<polygon fill="white" stroke="#666666" points="1457.5,-74 1359.5,-74 1359.5,-55 1457.5,-55 1457.5,-74"/>
<text text-anchor="middle" x="1408.5" y="-62" font-family="Helvetica,sans-Serif" font-size="10.00">BMP390Sensor.h</text>
</a>
</g>
</g>
<!-- Node3&#45;&gt;Node11 -->
<g id="edge10_Node000003_Node000011" class="edge">
<title>Node3&#45;&gt;Node11</title>
<g id="a_edge10_Node000003_Node000011"><a xlink:title=" ">
<path fill="none" stroke="#63b8ff" d="M1224.48,-109.24C1266.3,-99.3 1332.15,-83.64 1372.7,-74.01"/>
<polygon fill="#63b8ff" stroke="#63b8ff" points="1223.57,-105.85 1214.65,-111.57 1225.19,-112.66 1223.57,-105.85"/>
</a>
</g>
</g>
<!-- Node13 -->
<g id="Node000013" class="node">
<title>Node13</title>
<g id="a_Node000013"><a xlink:href="DS3231Sensor_8h.html" target="_top" xlink:title=" ">
<polygon fill="white" stroke="#666666" points="360,-74 265,-74 265,-55 360,-55 360,-74"/>
<text text-anchor="middle" x="312.5" y="-62" font-family="Helvetica,sans-Serif" font-size="10.00">DS3231Sensor.h</text>
</a>
</g>
</g>
<!-- Node3&#45;&gt;Node13 -->
<g id="edge13_Node000003_Node000013" class="edge">
<title>Node3&#45;&gt;Node13</title>
<g id="a_edge13_Node000003_Node000013"><a xlink:title=" ">
<path fill="none" stroke="#63b8ff" d="M1145.94,-117.28C1028.86,-113.47 673.85,-100.41 380.5,-74 373.86,-73.4 366.88,-72.66 360.01,-71.86"/>
<polygon fill="#63b8ff" stroke="#63b8ff" points="1146.1,-120.79 1156.21,-117.61 1146.32,-113.79 1146.1,-120.79"/>
</a>
</g>
</g>
<!-- Node15 -->
<g id="Node000015" class="node">
<title>Node15</title>
<g id="a_Node000015"><a xlink:href="ENS160Sensor_8h.html" target="_top" xlink:title=" ">
<polygon fill="white" stroke="#666666" points="1609,-74 1514,-74 1514,-55 1609,-55 1609,-74"/>
<text text-anchor="middle" x="1561.5" y="-62" font-family="Helvetica,sans-Serif" font-size="10.00">ENS160Sensor.h</text>
</a>
</g>
</g>
<!-- Node3&#45;&gt;Node15 -->
<g id="edge15_Node000003_Node000015" class="edge">
<title>Node3&#45;&gt;Node15</title>
<g id="a_edge15_Node000003_Node000015"><a xlink:title=" ">
<path fill="none" stroke="#63b8ff" d="M1224.79,-112.96C1294.33,-103.16 1438.8,-82.8 1513.88,-72.21"/>
<polygon fill="#63b8ff" stroke="#63b8ff" points="1224.1,-109.52 1214.69,-114.39 1225.08,-116.46 1224.1,-109.52"/>
</a>
</g>
</g>
<!-- Node17 -->
<g id="Node000017" class="node">
<title>Node17</title>
<g id="a_Node000017"><a xlink:href="ICM20948Sensor_8h.html" target="_top" xlink:title=" ">
<polygon fill="white" stroke="#666666" points="1734,-74 1627,-74 1627,-55 1734,-55 1734,-74"/>
<text text-anchor="middle" x="1680.5" y="-62" font-family="Helvetica,sans-Serif" font-size="10.00">ICM20948Sensor.h</text>
</a>
</g>
</g>
<!-- Node3&#45;&gt;Node17 -->
<g id="edge18_Node000003_Node000017" class="edge">
<title>Node3&#45;&gt;Node17</title>
<g id="a_edge18_Node000003_Node000017"><a xlink:title=" ">
<path fill="none" stroke="#63b8ff" d="M1224.66,-114.88C1300.55,-107.78 1472.88,-91.2 1617.5,-74 1620.57,-73.64 1623.72,-73.25 1626.9,-72.85"/>
<polygon fill="#63b8ff" stroke="#63b8ff" points="1224.24,-111.41 1214.61,-115.82 1224.89,-118.38 1224.24,-111.41"/>
</a>
</g>
</g>
<!-- Node19 -->
<g id="Node000019" class="node">
<title>Node19</title>
<g id="a_Node000019"><a xlink:href="INA260Sensor_8h.html" target="_top" xlink:title=" ">
<polygon fill="white" stroke="#666666" points="1845,-74 1752,-74 1752,-55 1845,-55 1845,-74"/>
<text text-anchor="middle" x="1798.5" y="-62" font-family="Helvetica,sans-Serif" font-size="10.00">INA260Sensor.h</text>
</a>
</g>
</g>
<!-- Node3&#45;&gt;Node19 -->
<g id="edge21_Node000003_Node000019" class="edge">
<title>Node3&#45;&gt;Node19</title>
<g id="a_edge21_Node000003_Node000019"><a xlink:title=" ">
<path fill="none" stroke="#63b8ff" d="M1224.71,-116.33C1315.8,-111.07 1548.76,-96.41 1742.5,-74 1745.53,-73.65 1748.64,-73.26 1751.78,-72.84"/>
<polygon fill="#63b8ff" stroke="#63b8ff" points="1224.35,-112.84 1214.56,-116.91 1224.75,-119.83 1224.35,-112.84"/>
</a>
</g>
</g>
<!-- Node21 -->
<g id="Node000021" class="node">
<title>Node21</title>
<g id="a_Node000021"><a xlink:href="LSM9DS1Sensor_8h.html" target="_top" xlink:title=" ">
<polygon fill="white" stroke="#666666" points="493.5,-74 389.5,-74 389.5,-55 493.5,-55 493.5,-74"/>
<text text-anchor="middle" x="441.5" y="-62" font-family="Helvetica,sans-Serif" font-size="10.00">LSM9DS1Sensor.h</text>
</a>
</g>
</g>
<!-- Node3&#45;&gt;Node21 -->
<g id="edge24_Node000003_Node000021" class="edge">
<title>Node3&#45;&gt;Node21</title>
<g id="a_edge24_Node000003_Node000021"><a xlink:title=" ">
<path fill="none" stroke="#63b8ff" d="M1146.31,-116.61C1042.8,-111.47 753.54,-96.1 513.5,-74 507.11,-73.41 500.4,-72.72 493.77,-71.99"/>
<polygon fill="#63b8ff" stroke="#63b8ff" points="1146.15,-120.11 1156.31,-117.1 1146.5,-113.12 1146.15,-120.11"/>
</a>
</g>
</g>
<!-- Node23 -->
<g id="Node000023" class="node">
<title>Node23</title>
<g id="a_Node000023"><a xlink:href="MTK3339Sensor_8h.html" target="_top" xlink:title=" ">
<polygon fill="white" stroke="#666666" points="1967.5,-74 1863.5,-74 1863.5,-55 1967.5,-55 1967.5,-74"/>
<text text-anchor="middle" x="1915.5" y="-62" font-family="Helvetica,sans-Serif" font-size="10.00">MTK3339Sensor.h</text>
</a>
</g>
</g>
<!-- Node3&#45;&gt;Node23 -->
<g id="edge26_Node000003_Node000023" class="edge">
<title>Node3&#45;&gt;Node23</title>
<g id="a_edge26_Node000003_Node000023"><a xlink:title=" ">
<path fill="none" stroke="#63b8ff" d="M1224.85,-116.87C1328.24,-112.39 1616.01,-98.52 1854.5,-74 1857.37,-73.7 1860.32,-73.38 1863.29,-73.03"/>
<polygon fill="#63b8ff" stroke="#63b8ff" points="1224.42,-113.39 1214.58,-117.32 1224.72,-120.38 1224.42,-113.39"/>
</a>
</g>
</g>
<!-- Node25 -->
<g id="Node000025" class="node">
<title>Node25</title>
<g id="a_Node000025"><a xlink:href="PCF8523Sensor_8h.html" target="_top" xlink:title=" ">
<polygon fill="white" stroke="#666666" points="903,-74 802,-74 802,-55 903,-55 903,-74"/>
<text text-anchor="middle" x="852.5" y="-62" font-family="Helvetica,sans-Serif" font-size="10.00">PCF8523Sensor.h</text>
</a>
</g>
</g>
<!-- Node3&#45;&gt;Node25 -->
<g id="edge29_Node000003_Node000025" class="edge">
<title>Node3&#45;&gt;Node25</title>
<g id="a_edge29_Node000003_Node000025"><a xlink:title=" ">
<path fill="none" stroke="#63b8ff" d="M1146.33,-112.27C1085.93,-102.65 970.05,-84.21 903.28,-73.58"/>
<polygon fill="#63b8ff" stroke="#63b8ff" points="1145.81,-115.73 1156.24,-113.84 1146.91,-108.81 1145.81,-115.73"/>
</a>
</g>
</g>
<!-- Node27 -->
<g id="Node000027" class="node">
<title>Node27</title>
<g id="a_Node000027"><a xlink:href="SCD40Sensor_8h.html" target="_top" xlink:title=" ">
<polygon fill="white" stroke="#666666" points="612.5,-74 522.5,-74 522.5,-55 612.5,-55 612.5,-74"/>
<text text-anchor="middle" x="567.5" y="-62" font-family="Helvetica,sans-Serif" font-size="10.00">SCD40Sensor.h</text>
</a>
</g>
</g>
<!-- Node3&#45;&gt;Node27 -->
<g id="edge32_Node000003_Node000027" class="edge">
<title>Node3&#45;&gt;Node27</title>
<g id="a_edge32_Node000003_Node000027"><a xlink:title=" ">
<path fill="none" stroke="#63b8ff" d="M1146.19,-115.35C1058.37,-108.27 839.53,-90.44 656.5,-74 642.28,-72.72 626.78,-71.27 612.77,-69.92"/>
<polygon fill="#63b8ff" stroke="#63b8ff" points="1145.99,-118.84 1156.24,-116.16 1146.56,-111.86 1145.99,-118.84"/>
</a>
</g>
</g>
<!-- Node29 -->
<g id="Node000029" class="node">
<title>Node29</title>
<g id="a_Node000029"><a xlink:href="SGP30Sensor_8h.html" target="_top" xlink:title=" ">
<polygon fill="white" stroke="#666666" points="755,-74 666,-74 666,-55 755,-55 755,-74"/>
<text text-anchor="middle" x="710.5" y="-62" font-family="Helvetica,sans-Serif" font-size="10.00">SGP30Sensor.h</text>
</a>
</g>
</g>
<!-- Node3&#45;&gt;Node29 -->
<g id="edge34_Node000003_Node000029" class="edge">
<title>Node3&#45;&gt;Node29</title>
<g id="a_edge34_Node000003_Node000029"><a xlink:title=" ">
<path fill="none" stroke="#63b8ff" d="M1146.08,-114.1C1058.43,-104.32 847.81,-80.82 755.33,-70.5"/>
<polygon fill="#63b8ff" stroke="#63b8ff" points="1145.82,-117.59 1156.15,-115.22 1146.59,-110.64 1145.82,-117.59"/>
</a>
</g>
</g>
<!-- Node31 -->
<g id="Node000031" class="node">
<title>Node31</title>
<g id="a_Node000031"><a xlink:href="SHTC3Sensor_8h.html" target="_top" xlink:title=" ">
<polygon fill="white" stroke="#666666" points="1010,-74 921,-74 921,-55 1010,-55 1010,-74"/>
<text text-anchor="middle" x="965.5" y="-62" font-family="Helvetica,sans-Serif" font-size="10.00">SHTC3Sensor.h</text>
</a>
</g>
</g>
<!-- Node3&#45;&gt;Node31 -->
<g id="edge36_Node000003_Node000031" class="edge">
<title>Node3&#45;&gt;Node31</title>
<g id="a_edge36_Node000003_Node000031"><a xlink:title=" ">
<path fill="none" stroke="#63b8ff" d="M1146.33,-109.06C1105.12,-99.14 1040.82,-83.65 1001.03,-74.06"/>
<polygon fill="#63b8ff" stroke="#63b8ff" points="1145.74,-112.52 1156.29,-111.46 1147.38,-105.72 1145.74,-112.52"/>
</a>
</g>
</g>
<!-- Node33 -->
<g id="Node000033" class="node">
<title>Node33</title>
<g id="a_Node000033"><a xlink:href="TMP117Sensor_8h.html" target="_top" xlink:title=" ">
<polygon fill="white" stroke="#666666" points="1125,-74 1028,-74 1028,-55 1125,-55 1125,-74"/>
<text text-anchor="middle" x="1076.5" y="-62" font-family="Helvetica,sans-Serif" font-size="10.00">TMP117Sensor.h</text>
</a>
</g>
</g>
<!-- Node3&#45;&gt;Node33 -->
<g id="edge39_Node000003_Node000033" class="edge">
<title>Node3&#45;&gt;Node33</title>
<g id="a_edge39_Node000003_Node000033"><a xlink:title=" ">
<path fill="none" stroke="#63b8ff" d="M1158.77,-105.5C1138.71,-95.75 1111.82,-82.68 1094.33,-74.17"/>
<polygon fill="#63b8ff" stroke="#63b8ff" points="1157.46,-108.76 1167.99,-109.98 1160.52,-102.46 1157.46,-108.76"/>
</a>
</g>
</g>
<!-- Node35 -->
<g id="Node000035" class="node">
<title>Node35</title>
<g id="a_Node000035"><a xlink:href="TempSensor_8h.html" target="_top" xlink:title=" ">
<polygon fill="white" stroke="#666666" points="1227.5,-74 1143.5,-74 1143.5,-55 1227.5,-55 1227.5,-74"/>
<text text-anchor="middle" x="1185.5" y="-62" font-family="Helvetica,sans-Serif" font-size="10.00">TempSensor.h</text>
</a>
</g>
</g>
<!-- Node3&#45;&gt;Node35 -->
<g id="edge42_Node000003_Node000035" class="edge">
<title>Node3&#45;&gt;Node35</title>
<g id="a_edge42_Node000003_Node000035"><a xlink:title=" ">
<path fill="none" stroke="#63b8ff" d="M1185.5,-99.66C1185.5,-90.93 1185.5,-80.99 1185.5,-74.09"/>
<polygon fill="#63b8ff" stroke="#63b8ff" points="1182,-99.75 1185.5,-109.75 1189,-99.75 1182,-99.75"/>
</a>
</g>
</g>
<!-- Node5 -->
<g id="Node000005" class="node">
<title>Node5</title>
<g id="a_Node000005"><a xlink:href="AS7331Sensor_8cpp.html" target="_top" xlink:title=" ">
<polygon fill="white" stroke="#666666" points="1346.5,-19 1240.5,-19 1240.5,0 1346.5,0 1346.5,-19"/>
<text text-anchor="middle" x="1293.5" y="-7" font-family="Helvetica,sans-Serif" font-size="10.00">AS7331Sensor.cpp</text>
</a>
</g>
</g>
<!-- Node4&#45;&gt;Node5 -->
<g id="edge4_Node000004_Node000005" class="edge">
<title>Node4&#45;&gt;Node5</title>
<g id="a_edge4_Node000004_Node000005"><a xlink:title=" ">
<path fill="none" stroke="#63b8ff" d="M1293.5,-44.66C1293.5,-35.93 1293.5,-25.99 1293.5,-19.09"/>
<polygon fill="#63b8ff" stroke="#63b8ff" points="1290,-44.75 1293.5,-54.75 1297,-44.75 1290,-44.75"/>
</a>
</g>
</g>
<!-- Node4&#45;&gt;Node6 -->
<g id="edge5_Node000004_Node000006" class="edge">
<title>Node4&#45;&gt;Node6</title>
<g id="a_edge5_Node000004_Node000006"><a xlink:title=" ">
<path fill="none" stroke="#63b8ff" d="M1340.33,-52.71C1385.63,-42.27 1453.02,-26.74 1492.18,-17.72"/>
<polygon fill="#63b8ff" stroke="#63b8ff" points="1339.41,-49.33 1330.45,-54.98 1340.98,-56.15 1339.41,-49.33"/>
</a>
</g>
</g>
<!-- Node8 -->
<g id="Node000008" class="node">
<title>Node8</title>
<g id="a_Node000008"><a xlink:href="BME280Sensor_8cpp.html" target="_top" xlink:title=" ">
<polygon fill="white" stroke="#666666" points="109,-19 0,-19 0,0 109,0 109,-19"/>
<text text-anchor="middle" x="54.5" y="-7" font-family="Helvetica,sans-Serif" font-size="10.00">BME280Sensor.cpp</text>
</a>
</g>
</g>
<!-- Node7&#45;&gt;Node8 -->
<g id="edge7_Node000007_Node000008" class="edge">
<title>Node7&#45;&gt;Node8</title>
<g id="a_edge7_Node000007_Node000008"><a xlink:title=" ">
<path fill="none" stroke="#63b8ff" d="M61.65,-44.95C59.82,-36.15 57.73,-26.06 56.28,-19.09"/>
<polygon fill="#63b8ff" stroke="#63b8ff" points="58.22,-45.67 63.68,-54.75 65.08,-44.25 58.22,-45.67"/>
</a>
</g>
</g>
<!-- Node10 -->
<g id="Node000010" class="node">
<title>Node10</title>
<g id="a_Node000010"><a xlink:href="BME680Sensor_8cpp.html" target="_top" xlink:title=" ">
<polygon fill="white" stroke="#666666" points="236,-19 127,-19 127,0 236,0 236,-19"/>
<text text-anchor="middle" x="181.5" y="-7" font-family="Helvetica,sans-Serif" font-size="10.00">BME680Sensor.cpp</text>
</a>
</g>
</g>
<!-- Node9&#45;&gt;Node10 -->
<g id="edge9_Node000009_Node000010" class="edge">
<title>Node9&#45;&gt;Node10</title>
<g id="a_edge9_Node000009_Node000010"><a xlink:title=" ">
<path fill="none" stroke="#63b8ff" d="M184.72,-44.66C183.9,-35.93 182.96,-25.99 182.31,-19.09"/>
<polygon fill="#63b8ff" stroke="#63b8ff" points="181.25,-45.12 185.67,-54.75 188.22,-44.46 181.25,-45.12"/>
</a>
</g>
</g>
<!-- Node11&#45;&gt;Node6 -->
<g id="edge12_Node000011_Node000006" class="edge">
<title>Node11&#45;&gt;Node6</title>
<g id="a_edge12_Node000011_Node000006"><a xlink:title=" ">
<path fill="none" stroke="#63b8ff" d="M1436.13,-50.77C1457.34,-40.99 1486.06,-27.75 1504.69,-19.17"/>
<polygon fill="#63b8ff" stroke="#63b8ff" points="1434.59,-47.62 1426.98,-54.98 1437.52,-53.98 1434.59,-47.62"/>
</a>
</g>
</g>
<!-- Node12 -->
<g id="Node000012" class="node">
<title>Node12</title>
<g id="a_Node000012"><a xlink:href="BMP390Sensor_8cpp.html" target="_top" xlink:title=" ">
<polygon fill="white" stroke="#666666" points="1474,-19 1365,-19 1365,0 1474,0 1474,-19"/>
<text text-anchor="middle" x="1419.5" y="-7" font-family="Helvetica,sans-Serif" font-size="10.00">BMP390Sensor.cpp</text>
</a>
</g>
</g>
<!-- Node11&#45;&gt;Node12 -->
<g id="edge11_Node000011_Node000012" class="edge">
<title>Node11&#45;&gt;Node12</title>
<g id="a_edge11_Node000011_Node000012"><a xlink:title=" ">
<path fill="none" stroke="#63b8ff" d="M1412.35,-44.95C1414.18,-36.15 1416.27,-26.06 1417.72,-19.09"/>
<polygon fill="#63b8ff" stroke="#63b8ff" points="1408.92,-44.25 1410.32,-54.75 1415.78,-45.67 1408.92,-44.25"/>
</a>
</g>
</g>
<!-- Node14 -->
<g id="Node000014" class="node">
<title>Node14</title>
<g id="a_Node000014"><a xlink:href="DS3231Sensor_8cpp.html" target="_top" xlink:title=" ">
<polygon fill="white" stroke="#666666" points="361,-19 254,-19 254,0 361,0 361,-19"/>
<text text-anchor="middle" x="307.5" y="-7" font-family="Helvetica,sans-Serif" font-size="10.00">DS3231Sensor.cpp</text>
</a>
</g>
</g>
<!-- Node13&#45;&gt;Node14 -->
<g id="edge14_Node000013_Node000014" class="edge">
<title>Node13&#45;&gt;Node14</title>
<g id="a_edge14_Node000013_Node000014"><a xlink:title=" ">
<path fill="none" stroke="#63b8ff" d="M310.72,-44.66C309.9,-35.93 308.96,-25.99 308.31,-19.09"/>
<polygon fill="#63b8ff" stroke="#63b8ff" points="307.25,-45.12 311.67,-54.75 314.22,-44.46 307.25,-45.12"/>
</a>
</g>
</g>
<!-- Node15&#45;&gt;Node6 -->
<g id="edge17_Node000015_Node000006" class="edge">
<title>Node15&#45;&gt;Node6</title>
<g id="a_edge17_Node000015_Node000006"><a xlink:title=" ">
<path fill="none" stroke="#63b8ff" d="M1549.23,-46.39C1542.69,-37.27 1534.93,-26.45 1529.66,-19.09"/>
<polygon fill="#63b8ff" stroke="#63b8ff" points="1546.55,-48.66 1555.23,-54.75 1552.24,-44.58 1546.55,-48.66"/>
</a>
</g>
</g>
<!-- Node16 -->
<g id="Node000016" class="node">
<title>Node16</title>
<g id="a_Node000016"><a xlink:href="ENS160Sensor_8cpp.html" target="_top" xlink:title=" ">
<polygon fill="white" stroke="#666666" points="1680,-19 1573,-19 1573,0 1680,0 1680,-19"/>
<text text-anchor="middle" x="1626.5" y="-7" font-family="Helvetica,sans-Serif" font-size="10.00">ENS160Sensor.cpp</text>
</a>
</g>
</g>
<!-- Node15&#45;&gt;Node16 -->
<g id="edge16_Node000015_Node000016" class="edge">
<title>Node15&#45;&gt;Node16</title>
<g id="a_edge16_Node000015_Node000016"><a xlink:title=" ">
<path fill="none" stroke="#63b8ff" d="M1579.77,-48.6C1591.42,-39.11 1606.1,-27.13 1615.87,-19.17"/>
<polygon fill="#63b8ff" stroke="#63b8ff" points="1577.48,-45.95 1571.94,-54.98 1581.91,-51.38 1577.48,-45.95"/>
</a>
</g>
</g>
<!-- Node17&#45;&gt;Node6 -->
<g id="edge20_Node000017_Node000006" class="edge">
<title>Node17&#45;&gt;Node6</title>
<g id="a_edge20_Node000017_Node000006"><a xlink:title=" ">
<path fill="none" stroke="#63b8ff" d="M1645.45,-51.67C1616.18,-41.79 1575.13,-27.93 1548.92,-19.08"/>
<polygon fill="#63b8ff" stroke="#63b8ff" points="1644.68,-55.1 1655.28,-54.98 1646.92,-48.47 1644.68,-55.1"/>
</a>
</g>
</g>
<!-- Node18 -->
<g id="Node000018" class="node">
<title>Node18</title>
<g id="a_Node000018"><a xlink:href="ICM20948Sensor_8cpp.html" target="_top" xlink:title=" ">
<polygon fill="white" stroke="#666666" points="1816.5,-19 1698.5,-19 1698.5,0 1816.5,0 1816.5,-19"/>
<text text-anchor="middle" x="1757.5" y="-7" font-family="Helvetica,sans-Serif" font-size="10.00">ICM20948Sensor.cpp</text>
</a>
</g>
</g>
<!-- Node17&#45;&gt;Node18 -->
<g id="edge19_Node000017_Node000018" class="edge">
<title>Node17&#45;&gt;Node18</title>
<g id="a_edge19_Node000017_Node000018"><a xlink:title=" ">
<path fill="none" stroke="#63b8ff" d="M1701.35,-49.15C1715.26,-39.57 1733.11,-27.29 1744.9,-19.17"/>
<polygon fill="#63b8ff" stroke="#63b8ff" points="1699.12,-46.43 1692.87,-54.98 1703.09,-52.2 1699.12,-46.43"/>
</a>
</g>
</g>
<!-- Node19&#45;&gt;Node6 -->
<g id="edge23_Node000019_Node000006" class="edge">
<title>Node19&#45;&gt;Node6</title>
<g id="a_edge23_Node000019_Node000006"><a xlink:title=" ">
<path fill="none" stroke="#63b8ff" d="M1741.51,-53.07C1693.87,-44.27 1624.18,-31.19 1563.5,-19 1560.72,-18.44 1557.83,-17.85 1554.93,-17.25"/>
<polygon fill="#63b8ff" stroke="#63b8ff" points="1741.15,-56.57 1751.62,-54.94 1742.42,-49.68 1741.15,-56.57"/>
</a>
</g>
</g>
<!-- Node20 -->
<g id="Node000020" class="node">
<title>Node20</title>
<g id="a_Node000020"><a xlink:href="INA260Sensor_8cpp.html" target="_top" xlink:title=" ">
<polygon fill="white" stroke="#666666" points="1938.5,-19 1834.5,-19 1834.5,0 1938.5,0 1938.5,-19"/>
<text text-anchor="middle" x="1886.5" y="-7" font-family="Helvetica,sans-Serif" font-size="10.00">INA260Sensor.cpp</text>
</a>
</g>
</g>
<!-- Node19&#45;&gt;Node20 -->
<g id="edge22_Node000019_Node000020" class="edge">
<title>Node19&#45;&gt;Node20</title>
<g id="a_edge22_Node000019_Node000020"><a xlink:title=" ">
<path fill="none" stroke="#63b8ff" d="M1821.42,-49.7C1837.45,-40.04 1858.37,-27.44 1872.1,-19.17"/>
<polygon fill="#63b8ff" stroke="#63b8ff" points="1819.4,-46.83 1812.64,-54.98 1823.01,-52.82 1819.4,-46.83"/>
</a>
</g>
</g>
<!-- Node22 -->
<g id="Node000022" class="node">
<title>Node22</title>
<g id="a_Node000022"><a xlink:href="LSM9DS1Sensor_8cpp.html" target="_top" xlink:title=" ">
<polygon fill="white" stroke="#666666" points="494,-19 379,-19 379,0 494,0 494,-19"/>
<text text-anchor="middle" x="436.5" y="-7" font-family="Helvetica,sans-Serif" font-size="10.00">LSM9DS1Sensor.cpp</text>
</a>
</g>
</g>
<!-- Node21&#45;&gt;Node22 -->
<g id="edge25_Node000021_Node000022" class="edge">
<title>Node21&#45;&gt;Node22</title>
<g id="a_edge25_Node000021_Node000022"><a xlink:title=" ">
<path fill="none" stroke="#63b8ff" d="M439.72,-44.66C438.9,-35.93 437.96,-25.99 437.31,-19.09"/>
<polygon fill="#63b8ff" stroke="#63b8ff" points="436.25,-45.12 440.67,-54.75 443.22,-44.46 436.25,-45.12"/>
</a>
</g>
</g>
<!-- Node23&#45;&gt;Node6 -->
<g id="edge28_Node000023_Node000006" class="edge">
<title>Node23&#45;&gt;Node6</title>
<g id="a_edge28_Node000023_Node000006"><a xlink:title=" ">
<path fill="none" stroke="#63b8ff" d="M1853.34,-54.87C1723.61,-38.12 1688.89,-40.04 1563.5,-19 1560.7,-18.53 1557.8,-18 1554.89,-17.44"/>
<polygon fill="#63b8ff" stroke="#63b8ff" points="1852.9,-58.34 1863.26,-56.17 1853.8,-51.4 1852.9,-58.34"/>
</a>
</g>
</g>
<!-- Node24 -->
<g id="Node000024" class="node">
<title>Node24</title>
<g id="a_Node000024"><a xlink:href="MTK3339Sensor_8cpp.html" target="_top" xlink:title=" ">
<polygon fill="white" stroke="#666666" points="2072,-19 1957,-19 1957,0 2072,0 2072,-19"/>
<text text-anchor="middle" x="2014.5" y="-7" font-family="Helvetica,sans-Serif" font-size="10.00">MTK3339Sensor.cpp</text>
</a>
</g>
</g>
<!-- Node23&#45;&gt;Node24 -->
<g id="edge27_Node000023_Node000024" class="edge">
<title>Node23&#45;&gt;Node24</title>
<g id="a_edge27_Node000023_Node000024"><a xlink:title=" ">
<path fill="none" stroke="#63b8ff" d="M1940.28,-50.23C1958.44,-40.51 1982.56,-27.6 1998.3,-19.17"/>
<polygon fill="#63b8ff" stroke="#63b8ff" points="1938.57,-47.18 1931.41,-54.98 1941.87,-53.35 1938.57,-47.18"/>
</a>
</g>
</g>
<!-- Node25&#45;&gt;Node6 -->
<g id="edge31_Node000025_Node000006" class="edge">
<title>Node25&#45;&gt;Node6</title>
<g id="a_edge31_Node000025_Node000006"><a xlink:title=" ">
<path fill="none" stroke="#63b8ff" d="M913.54,-54.87C1166.21,-29.47 1233.81,-52.45 1482.5,-19 1485.67,-18.57 1488.96,-18.04 1492.24,-17.46"/>
<polygon fill="#63b8ff" stroke="#63b8ff" points="912.91,-51.42 903.32,-55.92 913.62,-58.38 912.91,-51.42"/>
</a>
</g>
</g>
<!-- Node26 -->
<g id="Node000026" class="node">
<title>Node26</title>
<g id="a_Node000026"><a xlink:href="PCF8523Sensor_8cpp.html" target="_top" xlink:title=" ">
<polygon fill="white" stroke="#666666" points="862.5,-19 750.5,-19 750.5,0 862.5,0 862.5,-19"/>
<text text-anchor="middle" x="806.5" y="-7" font-family="Helvetica,sans-Serif" font-size="10.00">PCF8523Sensor.cpp</text>
</a>
</g>
</g>
<!-- Node25&#45;&gt;Node26 -->
<g id="edge30_Node000025_Node000026" class="edge">
<title>Node25&#45;&gt;Node26</title>
<g id="a_edge30_Node000025_Node000026"><a xlink:title=" ">
<path fill="none" stroke="#63b8ff" d="M838.14,-46.96C830.13,-37.72 820.47,-26.6 813.95,-19.09"/>
<polygon fill="#63b8ff" stroke="#63b8ff" points="835.71,-49.49 844.9,-54.75 840.99,-44.9 835.71,-49.49"/>
</a>
</g>
</g>
<!-- Node28 -->
<g id="Node000028" class="node">
<title>Node28</title>
<g id="a_Node000028"><a xlink:href="SCD40Sensor_8cpp.html" target="_top" xlink:title=" ">
<polygon fill="white" stroke="#666666" points="613,-19 512,-19 512,0 613,0 613,-19"/>
<text text-anchor="middle" x="562.5" y="-7" font-family="Helvetica,sans-Serif" font-size="10.00">SCD40Sensor.cpp</text>
</a>
</g>
</g>
<!-- Node27&#45;&gt;Node28 -->
<g id="edge33_Node000027_Node000028" class="edge">
<title>Node27&#45;&gt;Node28</title>
<g id="a_edge33_Node000027_Node000028"><a xlink:title=" ">
<path fill="none" stroke="#63b8ff" d="M565.72,-44.66C564.9,-35.93 563.96,-25.99 563.31,-19.09"/>
<polygon fill="#63b8ff" stroke="#63b8ff" points="562.25,-45.12 566.67,-54.75 569.22,-44.46 562.25,-45.12"/>
</a>
</g>
</g>
<!-- Node30 -->
<g id="Node000030" class="node">
<title>Node30</title>
<g id="a_Node000030"><a xlink:href="SGP30Sensor_8cpp.html" target="_top" xlink:title=" ">
<polygon fill="white" stroke="#666666" points="732,-19 631,-19 631,0 732,0 732,-19"/>
<text text-anchor="middle" x="681.5" y="-7" font-family="Helvetica,sans-Serif" font-size="10.00">SGP30Sensor.cpp</text>
</a>
</g>
</g>
<!-- Node29&#45;&gt;Node30 -->
<g id="edge35_Node000029_Node000030" class="edge">
<title>Node29&#45;&gt;Node30</title>
<g id="a_edge35_Node000029_Node000030"><a xlink:title=" ">
<path fill="none" stroke="#63b8ff" d="M700.82,-45.82C695.9,-36.82 690.14,-26.29 686.2,-19.09"/>
<polygon fill="#63b8ff" stroke="#63b8ff" points="697.84,-47.66 705.71,-54.75 703.98,-44.3 697.84,-47.66"/>
</a>
</g>
</g>
<!-- Node31&#45;&gt;Node6 -->
<g id="edge38_Node000031_Node000006" class="edge">
<title>Node31&#45;&gt;Node6</title>
<g id="a_edge38_Node000031_Node000006"><a xlink:title=" ">
<path fill="none" stroke="#63b8ff" d="M1020.49,-54.86C1225.67,-31.15 1281.01,-47.58 1482.5,-19 1485.67,-18.55 1488.96,-18 1492.23,-17.41"/>
<polygon fill="#63b8ff" stroke="#63b8ff" points="1019.81,-51.41 1010.28,-56.05 1020.62,-58.37 1019.81,-51.41"/>
</a>
</g>
</g>
<!-- Node32 -->
<g id="Node000032" class="node">
<title>Node32</title>
<g id="a_Node000032"><a xlink:href="SHTC3Sensor_8cpp.html" target="_top" xlink:title=" ">
<polygon fill="white" stroke="#666666" points="982,-19 881,-19 881,0 982,0 982,-19"/>
<text text-anchor="middle" x="931.5" y="-7" font-family="Helvetica,sans-Serif" font-size="10.00">SHTC3Sensor.cpp</text>
</a>
</g>
</g>
<!-- Node31&#45;&gt;Node32 -->
<g id="edge37_Node000031_Node000032" class="edge">
<title>Node31&#45;&gt;Node32</title>
<g id="a_edge37_Node000031_Node000032"><a xlink:title=" ">
<path fill="none" stroke="#63b8ff" d="M954.34,-46.1C948.53,-37.04 941.68,-26.37 937.01,-19.09"/>
<polygon fill="#63b8ff" stroke="#63b8ff" points="951.54,-48.22 959.89,-54.75 957.43,-44.44 951.54,-48.22"/>
</a>
</g>
</g>
<!-- Node33&#45;&gt;Node6 -->
<g id="edge41_Node000033_Node000006" class="edge">
<title>Node33&#45;&gt;Node6</title>
<g id="a_edge41_Node000033_Node000006"><a xlink:title=" ">
<path fill="none" stroke="#63b8ff" d="M1135.59,-54.93C1290.57,-36.01 1332.14,-42.3 1482.5,-19 1485.66,-18.51 1488.95,-17.94 1492.22,-17.33"/>
<polygon fill="#63b8ff" stroke="#63b8ff" points="1134.71,-51.51 1125.21,-56.21 1135.57,-58.45 1134.71,-51.51"/>
</a>
</g>
</g>
<!-- Node34 -->
<g id="Node000034" class="node">
<title>Node34</title>
<g id="a_Node000034"><a xlink:href="TMP117Sensor_8cpp.html" target="_top" xlink:title=" ">
<polygon fill="white" stroke="#666666" points="1108.5,-19 1000.5,-19 1000.5,0 1108.5,0 1108.5,-19"/>
<text text-anchor="middle" x="1054.5" y="-7" font-family="Helvetica,sans-Serif" font-size="10.00">TMP117Sensor.cpp</text>
</a>
</g>
</g>
<!-- Node33&#45;&gt;Node34 -->
<g id="edge40_Node000033_Node000034" class="edge">
<title>Node33&#45;&gt;Node34</title>
<g id="a_edge40_Node000033_Node000034"><a xlink:title=" ">
<path fill="none" stroke="#63b8ff" d="M1068.92,-45.24C1065.24,-36.37 1060.99,-26.14 1058.07,-19.09"/>
<polygon fill="#63b8ff" stroke="#63b8ff" points="1065.8,-46.85 1072.87,-54.75 1072.27,-44.17 1065.8,-46.85"/>
</a>
</g>
</g>
<!-- Node35&#45;&gt;Node6 -->
<g id="edge44_Node000035_Node000006" class="edge">
<title>Node35&#45;&gt;Node6</title>
<g id="a_edge44_Node000035_Node000006"><a xlink:title=" ">
<path fill="none" stroke="#63b8ff" d="M1237.67,-54.85C1347.38,-37.92 1376.88,-37.66 1482.5,-19 1485.65,-18.44 1488.93,-17.83 1492.2,-17.19"/>
<polygon fill="#63b8ff" stroke="#63b8ff" points="1236.86,-51.43 1227.51,-56.43 1237.93,-58.35 1236.86,-51.43"/>
</a>
</g>
</g>
<!-- Node36 -->
<g id="Node000036" class="node">
<title>Node36</title>
<g id="a_Node000036"><a xlink:href="TempSensor_8cpp.html" target="_top" xlink:title=" ">
<polygon fill="white" stroke="#666666" points="1222,-19 1127,-19 1127,0 1222,0 1222,-19"/>
<text text-anchor="middle" x="1174.5" y="-7" font-family="Helvetica,sans-Serif" font-size="10.00">TempSensor.cpp</text>
</a>
</g>
</g>
<!-- Node35&#45;&gt;Node36 -->
<g id="edge43_Node000035_Node000036" class="edge">
<title>Node35&#45;&gt;Node36</title>
<g id="a_edge43_Node000035_Node000036"><a xlink:title=" ">
<path fill="none" stroke="#63b8ff" d="M1181.65,-44.95C1179.82,-36.15 1177.73,-26.06 1176.28,-19.09"/>
<polygon fill="#63b8ff" stroke="#63b8ff" points="1178.22,-45.67 1183.68,-54.75 1185.08,-44.25 1178.22,-45.67"/>
</a>
</g>
</g>
<!-- Node38 -->
<g id="Node000038" class="node">
<title>Node38</title>
<g id="a_Node000038"><a xlink:href="FlashStorage_8h.html" target="_top" xlink:title=" ">
<polygon fill="white" stroke="#666666" points="2186,-74 2097,-74 2097,-55 2186,-55 2186,-74"/>
<text text-anchor="middle" x="2141.5" y="-62" font-family="Helvetica,sans-Serif" font-size="10.00">FlashStorage.h</text>
</a>
</g>
</g>
<!-- Node37&#45;&gt;Node38 -->
<g id="edge47_Node000037_Node000038" class="edge">
<title>Node37&#45;&gt;Node38</title>
<g id="a_edge47_Node000037_Node000038"><a xlink:title=" ">
<path fill="none" stroke="#63b8ff" d="M2192.19,-103.88C2179.59,-94.34 2163.57,-82.21 2152.95,-74.17"/>
<polygon fill="#63b8ff" stroke="#63b8ff" points="2190.17,-106.74 2200.25,-109.98 2194.39,-101.16 2190.17,-106.74"/>
</a>
</g>
</g>
<!-- Node37&#45;&gt;Node40 -->
<g id="edge57_Node000037_Node000040" class="edge">
<title>Node37&#45;&gt;Node40</title>
<g id="a_edge57_Node000037_Node000040"><a xlink:title=" ">
<path fill="none" stroke="#63b8ff" d="M2240.33,-105.31C2256.21,-97.37 2275.81,-86.41 2291.5,-74 2312.81,-57.14 2333.14,-32.16 2343.11,-19.12"/>
<polygon fill="#63b8ff" stroke="#63b8ff" points="2238.46,-102.33 2231,-109.85 2241.52,-108.63 2238.46,-102.33"/>
</a>
</g>
</g>
<!-- Node41 -->
<g id="Node000041" class="node">
<title>Node41</title>
<g id="a_Node000041"><a xlink:href="RadioStorage_8h.html" target="_top" xlink:title=" ">
<polygon fill="white" stroke="#666666" points="2468,-74 2377,-74 2377,-55 2468,-55 2468,-74"/>
<text text-anchor="middle" x="2422.5" y="-62" font-family="Helvetica,sans-Serif" font-size="10.00">RadioStorage.h</text>
</a>
</g>
</g>
<!-- Node37&#45;&gt;Node41 -->
<g id="edge51_Node000037_Node000041" class="edge">
<title>Node37&#45;&gt;Node41</title>
<g id="a_edge51_Node000037_Node000041"><a xlink:title=" ">
<path fill="none" stroke="#63b8ff" d="M2252.98,-108.08C2292.63,-98.12 2351.68,-83.29 2388.6,-74.02"/>
<polygon fill="#63b8ff" stroke="#63b8ff" points="2251.93,-104.73 2243.09,-110.57 2253.64,-111.52 2251.93,-104.73"/>
</a>
</g>
</g>
<!-- Node43 -->
<g id="Node000043" class="node">
<title>Node43</title>
<g id="a_Node000043"><a xlink:href="SDStorage_8h.html" target="_top" xlink:title=" ">
<polygon fill="white" stroke="#666666" points="2282,-74 2205,-74 2205,-55 2282,-55 2282,-74"/>
<text text-anchor="middle" x="2243.5" y="-62" font-family="Helvetica,sans-Serif" font-size="10.00">SDStorage.h</text>
</a>
</g>
</g>
<!-- Node37&#45;&gt;Node43 -->
<g id="edge54_Node000037_Node000043" class="edge">
<title>Node37&#45;&gt;Node43</title>
<g id="a_edge54_Node000037_Node000043"><a xlink:title=" ">
<path fill="none" stroke="#63b8ff" d="M2222,-101.1C2227.47,-92.04 2233.92,-81.37 2238.31,-74.09"/>
<polygon fill="#63b8ff" stroke="#63b8ff" points="2218.96,-99.38 2216.78,-109.75 2224.95,-103 2218.96,-99.38"/>
</a>
</g>
</g>
<!-- Node38&#45;&gt;Node6 -->
<g id="edge49_Node000038_Node000006" class="edge">
<title>Node38&#45;&gt;Node6</title>
<g id="a_edge49_Node000038_Node000006"><a xlink:title=" ">
<path fill="none" stroke="#63b8ff" d="M2086.59,-59.47C1947.26,-49.22 1589.13,-22.69 1563.5,-19 1560.69,-18.59 1557.78,-18.11 1554.87,-17.58"/>
<polygon fill="#63b8ff" stroke="#63b8ff" points="2086.41,-62.97 2096.64,-60.21 2086.92,-55.99 2086.41,-62.97"/>
</a>
</g>
</g>
<!-- Node39 -->
<g id="Node000039" class="node">
<title>Node39</title>
<g id="a_Node000039"><a xlink:href="FlashStorage_8cpp.html" target="_top" xlink:title=" ">
<polygon fill="white" stroke="#666666" points="2191,-19 2090,-19 2090,0 2191,0 2191,-19"/>
<text text-anchor="middle" x="2140.5" y="-7" font-family="Helvetica,sans-Serif" font-size="10.00">FlashStorage.cpp</text>
</a>
</g>
</g>
<!-- Node38&#45;&gt;Node39 -->
<g id="edge48_Node000038_Node000039" class="edge">
<title>Node38&#45;&gt;Node39</title>
<g id="a_edge48_Node000038_Node000039"><a xlink:title=" ">
<path fill="none" stroke="#63b8ff" d="M2141.14,-44.66C2140.98,-35.93 2140.79,-25.99 2140.66,-19.09"/>
<polygon fill="#63b8ff" stroke="#63b8ff" points="2137.65,-44.82 2141.33,-54.75 2144.65,-44.68 2137.65,-44.82"/>
</a>
</g>
</g>
<!-- Node38&#45;&gt;Node40 -->
<g id="edge50_Node000038_Node000040" class="edge">
<title>Node38&#45;&gt;Node40</title>
<g id="a_edge50_Node000038_Node000040"><a xlink:title=" ">
<path fill="none" stroke="#63b8ff" d="M2184.91,-52.44C2223.85,-42.52 2280.19,-28.16 2315.82,-19.08"/>
<polygon fill="#63b8ff" stroke="#63b8ff" points="2183.74,-49.12 2174.92,-54.98 2185.47,-55.91 2183.74,-49.12"/>
</a>
</g>
</g>
<!-- Node41&#45;&gt;Node40 -->
<g id="edge53_Node000041_Node000040" class="edge">
<title>Node41&#45;&gt;Node40</title>
<g id="a_edge53_Node000041_Node000040"><a xlink:title=" ">
<path fill="none" stroke="#63b8ff" d="M2402.36,-48.88C2389.22,-39.34 2372.52,-27.21 2361.44,-19.17"/>
<polygon fill="#63b8ff" stroke="#63b8ff" points="2400.62,-51.94 2410.77,-54.98 2404.74,-46.28 2400.62,-51.94"/>
</a>
</g>
</g>
<!-- Node42 -->
<g id="Node000042" class="node">
<title>Node42</title>
<g id="a_Node000042"><a xlink:href="RadioStorage_8cpp.html" target="_top" xlink:title=" ">
<polygon fill="white" stroke="#666666" points="2503.5,-19 2401.5,-19 2401.5,0 2503.5,0 2503.5,-19"/>
<text text-anchor="middle" x="2452.5" y="-7" font-family="Helvetica,sans-Serif" font-size="10.00">RadioStorage.cpp</text>
</a>
</g>
</g>
<!-- Node41&#45;&gt;Node42 -->
<g id="edge52_Node000041_Node000042" class="edge">
<title>Node41&#45;&gt;Node42</title>
<g id="a_edge52_Node000041_Node000042"><a xlink:title=" ">
<path fill="none" stroke="#63b8ff" d="M2432.51,-45.82C2437.6,-36.82 2443.56,-26.29 2447.64,-19.09"/>
<polygon fill="#63b8ff" stroke="#63b8ff" points="2429.33,-44.32 2427.45,-54.75 2435.43,-47.77 2429.33,-44.32"/>
</a>
</g>
</g>
<!-- Node43&#45;&gt;Node40 -->
<g id="edge56_Node000043_Node000040" class="edge">
<title>Node43&#45;&gt;Node40</title>
<g id="a_edge56_Node000043_Node000040"><a xlink:title=" ">
<path fill="none" stroke="#63b8ff" d="M2269.5,-50.5C2289,-40.75 2315.15,-27.68 2332.16,-19.17"/>
<polygon fill="#63b8ff" stroke="#63b8ff" points="2267.91,-47.38 2260.53,-54.98 2271.04,-53.64 2267.91,-47.38"/>
</a>
</g>
</g>
<!-- Node44 -->
<g id="Node000044" class="node">
<title>Node44</title>
<g id="a_Node000044"><a xlink:href="SDStorage_8cpp.html" target="_top" xlink:title=" ">
<polygon fill="white" stroke="#666666" points="2297.5,-19 2209.5,-19 2209.5,0 2297.5,0 2297.5,-19"/>
<text text-anchor="middle" x="2253.5" y="-7" font-family="Helvetica,sans-Serif" font-size="10.00">SDStorage.cpp</text>
</a>
</g>
</g>
<!-- Node43&#45;&gt;Node44 -->
<g id="edge55_Node000043_Node000044" class="edge">
<title>Node43&#45;&gt;Node44</title>
<g id="a_edge55_Node000043_Node000044"><a xlink:title=" ">
<path fill="none" stroke="#63b8ff" d="M2247.05,-44.66C2248.7,-35.93 2250.58,-25.99 2251.88,-19.09"/>
<polygon fill="#63b8ff" stroke="#63b8ff" points="2243.57,-44.27 2245.15,-54.75 2250.44,-45.57 2243.57,-44.27"/>
</a>
</g>
</g>
</g>
</svg>

<g id="navigator" transform="translate(0 0)" fill="#404254">
  <rect fill="#f2f5e9" fill-opacity="0.5" stroke="#606060" stroke-width=".5" x="0" y="0" width="60" height="60"/>
  <use id="zoomplus" xlink:href="#zoomPlus" x="17" y="9" onmousedown="handleZoom(evt,'in')"/>
  <use id="zoomminus" xlink:href="#zoomMin" x="42" y="9" onmousedown="handleZoom(evt,'out')"/>
  <use id="reset" xlink:href="#resetDef" x="30" y="36" onmousedown="handleReset()"/>
   <use id="arrowup" xlink:href="#arrowUp" x="0" y="0" onmousedown="handlePan(0,-1)"/>
  <use id="arrowright" xlink:href="#arrowRight" x="0" y="0" onmousedown="handlePan(1,0)"/>
  <use id="arrowdown" xlink:href="#arrowDown" x="0" y="0" onmousedown="handlePan(0,1)"/>
  <use id="arrowleft" xlink:href="#arrowLeft" x="0" y="0" onmousedown="handlePan(-1,0)"/>
</g>
<svg viewBox="0 0 15 15" width="100%" height="30px" preserveAspectRatio="xMaxYMin meet">
 <g id="arrow_out" transform="scale(0.3 0.3)">
  <a xlink:href="Logger_8h__dep__incl_org.svg" target="_base">
   <rect id="button" ry="5" rx="5" y="6" x="6" height="38" width="38"
        fill="#f2f5e9" fill-opacity="0.5" stroke="#606060" stroke-width="1.0"/>
   <path id="arrow"
     d="M 11.500037,31.436501 C 11.940474,20.09759 22.043105,11.32322 32.158766,21.979434 L 37.068811,17.246167 C 37.068811,17.246167 37.088388,32 37.088388,32 L 22.160133,31.978069 C 22.160133,31.978069 26.997745,27.140456 26.997745,27.140456 C 18.528582,18.264221 13.291696,25.230495 11.500037,31.436501 z"
     style="fill:#404040;"/>
  </a>
 </g>
</svg>

<style type='text/css'>
<![CDATA[
[data-mouse-over-selected='false'] { opacity: 0.7; }
[data-mouse-over-selected='true']  { opacity: 1.0; }
]]>
</style>
<script type="application/ecmascript"><![CDATA[
document.addEventListener('DOMContentLoaded', (event) => {
  highlightEdges();
  highlightAdjacentNodes();
});
]]></script>
</svg>
