<?xml version="1.0" encoding="UTF-8" standalone="no"?>
<!DOCTYPE svg PUBLIC "-//W3C//DTD SVG 1.1//EN"
 "http://www.w3.org/Graphics/SVG/1.1/DTD/svg11.dtd">
<!-- Generated by graphviz version 2.43.0 (0)
 -->
<!-- Title: Logger.h Pages: 1 -->
<svg width="2392pt" height="247pt"
 viewBox="0.00 0.00 2391.50 247.00" xmlns="http://www.w3.org/2000/svg" xmlns:xlink="http://www.w3.org/1999/xlink">
<g id="graph0" class="graph" transform="scale(1 1) rotate(0) translate(4 243)">
<title>Logger.h</title>
<!-- Node1 -->
<g id="Node000001" class="node">
<title>Node1</title>
<g id="a_Node000001"><a xlink:title=" ">
<polygon fill="#999999" stroke="#666666" points="1941.5,-239 1883.5,-239 1883.5,-220 1941.5,-220 1941.5,-239"/>
<text text-anchor="middle" x="1912.5" y="-227" font-family="Helvetica,sans-Serif" font-size="10.00">Logger.h</text>
</a>
</g>
</g>
<!-- Node2 -->
<g id="Node000002" class="node">
<title>Node2</title>
<g id="a_Node000002"><a xlink:href="Device_8h.html" target="_top" xlink:title=" ">
<polygon fill="white" stroke="#666666" points="1884,-184 1825,-184 1825,-165 1884,-165 1884,-184"/>
<text text-anchor="middle" x="1854.5" y="-172" font-family="Helvetica,sans-Serif" font-size="10.00">Device.h</text>
</a>
</g>
</g>
<!-- Node1&#45;&gt;Node2 -->
<g id="edge1_Node000001_Node000002" class="edge">
<title>Node1&#45;&gt;Node2</title>
<g id="a_edge1_Node000001_Node000002"><a xlink:title=" ">
<path fill="none" stroke="#63b8ff" d="M1895.59,-213.04C1885.3,-203.64 1872.53,-191.98 1863.99,-184.17"/>
<polygon fill="#63b8ff" stroke="#63b8ff" points="1893.44,-215.82 1903.18,-219.98 1898.16,-210.66 1893.44,-215.82"/>
</a>
</g>
</g>
<!-- Node3 -->
<g id="Node000003" class="node">
<title>Node3</title>
<g id="a_Node000003"><a xlink:href="Sensor_8h.html" target="_top" xlink:title=" ">
<polygon fill="white" stroke="#666666" points="1145.5,-129 1087.5,-129 1087.5,-110 1145.5,-110 1145.5,-129"/>
<text text-anchor="middle" x="1116.5" y="-117" font-family="Helvetica,sans-Serif" font-size="10.00">Sensor.h</text>
</a>
</g>
</g>
<!-- Node1&#45;&gt;Node3 -->
<g id="edge54_Node000001_Node000003" class="edge">
<title>Node1&#45;&gt;Node3</title>
<g id="a_edge54_Node000001_Node000003"><a xlink:title=" ">
<path fill="none" stroke="#63b8ff" d="M1873.02,-223.14C1733.72,-204.24 1267.11,-140.93 1145.62,-124.45"/>
<polygon fill="#63b8ff" stroke="#63b8ff" points="1872.85,-226.65 1883.23,-224.53 1873.79,-219.72 1872.85,-226.65"/>
</a>
</g>
</g>
<!-- Node6 -->
<g id="Node000006" class="node">
<title>Node6</title>
<g id="a_Node000006"><a xlink:href="main_8cpp.html" target="_top" xlink:title="Main functions for Core 0, responsible for reading data from sensor peripherals.">
<polygon fill="white" stroke="#666666" points="1565.5,-19 1503.5,-19 1503.5,0 1565.5,0 1565.5,-19"/>
<text text-anchor="middle" x="1534.5" y="-7" font-family="Helvetica,sans-Serif" font-size="10.00">main.cpp</text>
</a>
</g>
</g>
<!-- Node1&#45;&gt;Node6 -->
<g id="edge56_Node000001_Node000006" class="edge">
<title>Node1&#45;&gt;Node6</title>
<g id="a_edge56_Node000001_Node000006"><a xlink:title=" ">
<path fill="none" stroke="#63b8ff" d="M1913.37,-209.86C1913.95,-173.81 1909.56,-94.57 1863.5,-55 1814.41,-12.83 1638.32,-29.74 1574.5,-19 1571.7,-18.53 1568.8,-18 1565.89,-17.44"/>
<polygon fill="#63b8ff" stroke="#63b8ff" points="1909.87,-209.84 1913.06,-219.95 1916.87,-210.06 1909.87,-209.84"/>
</a>
</g>
</g>
<!-- Node35 -->
<g id="Node000035" class="node">
<title>Node35</title>
<g id="a_Node000035"><a xlink:href="Storage_8h.html" target="_top" xlink:title=" ">
<polygon fill="white" stroke="#666666" points="2093,-129 2030,-129 2030,-110 2093,-110 2093,-129"/>
<text text-anchor="middle" x="2061.5" y="-117" font-family="Helvetica,sans-Serif" font-size="10.00">Storage.h</text>
</a>
</g>
</g>
<!-- Node1&#45;&gt;Node35 -->
<g id="edge55_Node000001_Node000035" class="edge">
<title>Node1&#45;&gt;Node35</title>
<g id="a_edge55_Node000001_Node000035"><a xlink:title=" ">
<path fill="none" stroke="#63b8ff" d="M1932.9,-213.71C1964.44,-190.85 2024.06,-147.64 2049.5,-129.2"/>
<polygon fill="#63b8ff" stroke="#63b8ff" points="1930.48,-211.14 1924.44,-219.84 1934.59,-216.81 1930.48,-211.14"/>
</a>
</g>
</g>
<!-- Node38 -->
<g id="Node000038" class="node">
<title>Node38</title>
<g id="a_Node000038"><a xlink:href="main1_8cpp.html" target="_top" xlink:title="Main functions for Core 1, responsible for sending data to storage peripherals.">
<polygon fill="white" stroke="#666666" points="2277.5,-19 2209.5,-19 2209.5,0 2277.5,0 2277.5,-19"/>
<text text-anchor="middle" x="2243.5" y="-7" font-family="Helvetica,sans-Serif" font-size="10.00">main1.cpp</text>
</a>
</g>
</g>
<!-- Node1&#45;&gt;Node38 -->
<g id="edge57_Node000001_Node000038" class="edge">
<title>Node1&#45;&gt;Node38</title>
<g id="a_edge57_Node000001_Node000038"><a xlink:title=" ">
<path fill="none" stroke="#63b8ff" d="M1951.71,-226.7C2033.86,-220.56 2223.16,-193.48 2304.5,-74 2319.47,-52.01 2285.91,-30.58 2262.87,-19.1"/>
<polygon fill="#63b8ff" stroke="#63b8ff" points="1951.28,-223.22 1941.54,-227.39 1951.75,-230.21 1951.28,-223.22"/>
</a>
</g>
</g>
<!-- Node2&#45;&gt;Node3 -->
<g id="edge2_Node000002_Node000003" class="edge">
<title>Node2&#45;&gt;Node3</title>
<g id="a_edge2_Node000002_Node000003"><a xlink:title=" ">
<path fill="none" stroke="#63b8ff" d="M1814.56,-170.63C1682.24,-161.13 1260.2,-130.82 1145.51,-122.58"/>
<polygon fill="#63b8ff" stroke="#63b8ff" points="1814.43,-174.13 1824.66,-171.36 1814.93,-167.15 1814.43,-174.13"/>
</a>
</g>
</g>
<!-- Node2&#45;&gt;Node35 -->
<g id="edge42_Node000002_Node000035" class="edge">
<title>Node2&#45;&gt;Node35</title>
<g id="a_edge42_Node000002_Node000035"><a xlink:title=" ">
<path fill="none" stroke="#63b8ff" d="M1893.97,-163.39C1933.45,-153.28 1993.4,-137.94 2029.86,-128.6"/>
<polygon fill="#63b8ff" stroke="#63b8ff" points="1892.98,-160.04 1884.16,-165.91 1894.71,-166.82 1892.98,-160.04"/>
</a>
</g>
</g>
<!-- Node4 -->
<g id="Node000004" class="node">
<title>Node4</title>
<g id="a_Node000004"><a xlink:href="AS7331Sensor_8h.html" target="_top" xlink:title=" ">
<polygon fill="white" stroke="#666666" points="1107,-74 1012,-74 1012,-55 1107,-55 1107,-74"/>
<text text-anchor="middle" x="1059.5" y="-62" font-family="Helvetica,sans-Serif" font-size="10.00">AS7331Sensor.h</text>
</a>
</g>
</g>
<!-- Node3&#45;&gt;Node4 -->
<g id="edge3_Node000003_Node000004" class="edge">
<title>Node3&#45;&gt;Node4</title>
<g id="a_edge3_Node000003_Node000004"><a xlink:title=" ">
<path fill="none" stroke="#63b8ff" d="M1099.88,-103.04C1089.77,-93.64 1077.22,-81.98 1068.82,-74.17"/>
<polygon fill="#63b8ff" stroke="#63b8ff" points="1097.64,-105.74 1107.34,-109.98 1102.4,-100.61 1097.64,-105.74"/>
</a>
</g>
</g>
<!-- Node3&#45;&gt;Node6 -->
<g id="edge41_Node000003_Node000006" class="edge">
<title>Node3&#45;&gt;Node6</title>
<g id="a_edge41_Node000003_Node000006"><a xlink:title=" ">
<path fill="none" stroke="#63b8ff" d="M1155.9,-116.74C1236.19,-112.63 1415.74,-100.67 1470.5,-74 1496.67,-61.25 1518.6,-33.51 1528.63,-19.29"/>
<polygon fill="#63b8ff" stroke="#63b8ff" points="1155.53,-113.25 1145.71,-117.24 1155.87,-120.24 1155.53,-113.25"/>
</a>
</g>
</g>
<!-- Node7 -->
<g id="Node000007" class="node">
<title>Node7</title>
<g id="a_Node000007"><a xlink:href="BME280Sensor_8h.html" target="_top" xlink:title=" ">
<polygon fill="white" stroke="#666666" points="114.5,-74 16.5,-74 16.5,-55 114.5,-55 114.5,-74"/>
<text text-anchor="middle" x="65.5" y="-62" font-family="Helvetica,sans-Serif" font-size="10.00">BME280Sensor.h</text>
</a>
</g>
</g>
<!-- Node3&#45;&gt;Node7 -->
<g id="edge6_Node000003_Node000007" class="edge">
<title>Node3&#45;&gt;Node7</title>
<g id="a_edge6_Node000003_Node000007"><a xlink:title=" ">
<path fill="none" stroke="#63b8ff" d="M1077.21,-117.99C943.86,-115.98 496.47,-107.04 128.5,-74 123.99,-73.6 119.31,-73.1 114.63,-72.56"/>
<polygon fill="#63b8ff" stroke="#63b8ff" points="1077.29,-121.49 1087.34,-118.14 1077.39,-114.49 1077.29,-121.49"/>
</a>
</g>
</g>
<!-- Node9 -->
<g id="Node000009" class="node">
<title>Node9</title>
<g id="a_Node000009"><a xlink:href="BME680Sensor_8h.html" target="_top" xlink:title=" ">
<polygon fill="white" stroke="#666666" points="235.5,-74 137.5,-74 137.5,-55 235.5,-55 235.5,-74"/>
<text text-anchor="middle" x="186.5" y="-62" font-family="Helvetica,sans-Serif" font-size="10.00">BME680Sensor.h</text>
</a>
</g>
</g>
<!-- Node3&#45;&gt;Node9 -->
<g id="edge8_Node000003_Node000009" class="edge">
<title>Node3&#45;&gt;Node9</title>
<g id="a_edge8_Node000003_Node000009"><a xlink:title=" ">
<path fill="none" stroke="#63b8ff" d="M1077.12,-117.46C954.99,-114.02 571.76,-101.62 255.5,-74 249.13,-73.44 242.44,-72.75 235.83,-72.01"/>
<polygon fill="#63b8ff" stroke="#63b8ff" points="1077.37,-120.97 1087.46,-117.75 1077.56,-113.97 1077.37,-120.97"/>
</a>
</g>
</g>
<!-- Node11 -->
<g id="Node000011" class="node">
<title>Node11</title>
<g id="a_Node000011"><a xlink:href="BMP390Sensor_8h.html" target="_top" xlink:title=" ">
<polygon fill="white" stroke="#666666" points="1223.5,-74 1125.5,-74 1125.5,-55 1223.5,-55 1223.5,-74"/>
<text text-anchor="middle" x="1174.5" y="-62" font-family="Helvetica,sans-Serif" font-size="10.00">BMP390Sensor.h</text>
</a>
</g>
</g>
<!-- Node3&#45;&gt;Node11 -->
<g id="edge10_Node000003_Node000011" class="edge">
<title>Node3&#45;&gt;Node11</title>
<g id="a_edge10_Node000003_Node000011"><a xlink:title=" ">
<path fill="none" stroke="#63b8ff" d="M1133.41,-103.04C1143.7,-93.64 1156.47,-81.98 1165.01,-74.17"/>
<polygon fill="#63b8ff" stroke="#63b8ff" points="1130.84,-100.66 1125.82,-109.98 1135.56,-105.82 1130.84,-100.66"/>
</a>
</g>
</g>
<!-- Node13 -->
<g id="Node000013" class="node">
<title>Node13</title>
<g id="a_Node000013"><a xlink:href="DS3231Sensor_8h.html" target="_top" xlink:title=" ">
<polygon fill="white" stroke="#666666" points="360,-74 265,-74 265,-55 360,-55 360,-74"/>
<text text-anchor="middle" x="312.5" y="-62" font-family="Helvetica,sans-Serif" font-size="10.00">DS3231Sensor.h</text>
</a>
</g>
</g>
<!-- Node3&#45;&gt;Node13 -->
<g id="edge13_Node000003_Node000013" class="edge">
<title>Node3&#45;&gt;Node13</title>
<g id="a_edge13_Node000003_Node000013"><a xlink:title=" ">
<path fill="none" stroke="#63b8ff" d="M1077.04,-117C966.76,-112.63 646.03,-98.6 380.5,-74 373.87,-73.39 366.88,-72.63 360.01,-71.83"/>
<polygon fill="#63b8ff" stroke="#63b8ff" points="1077.22,-120.51 1087.35,-117.41 1077.49,-113.52 1077.22,-120.51"/>
</a>
</g>
</g>
<!-- Node15 -->
<g id="Node000015" class="node">
<title>Node15</title>
<g id="a_Node000015"><a xlink:href="ENS160Sensor_8h.html" target="_top" xlink:title=" ">
<polygon fill="white" stroke="#666666" points="1337,-74 1242,-74 1242,-55 1337,-55 1337,-74"/>
<text text-anchor="middle" x="1289.5" y="-62" font-family="Helvetica,sans-Serif" font-size="10.00">ENS160Sensor.h</text>
</a>
</g>
</g>
<!-- Node3&#45;&gt;Node15 -->
<g id="edge15_Node000003_Node000015" class="edge">
<title>Node3&#45;&gt;Node15</title>
<g id="a_edge15_Node000003_Node000015"><a xlink:title=" ">
<path fill="none" stroke="#63b8ff" d="M1154.27,-106.93C1186.59,-97.03 1232.36,-83.01 1261.49,-74.08"/>
<polygon fill="#63b8ff" stroke="#63b8ff" points="1152.83,-103.71 1144.3,-109.98 1154.88,-110.4 1152.83,-103.71"/>
</a>
</g>
</g>
<!-- Node17 -->
<g id="Node000017" class="node">
<title>Node17</title>
<g id="a_Node000017"><a xlink:href="ICM20948Sensor_8h.html" target="_top" xlink:title=" ">
<polygon fill="white" stroke="#666666" points="1462,-74 1355,-74 1355,-55 1462,-55 1462,-74"/>
<text text-anchor="middle" x="1408.5" y="-62" font-family="Helvetica,sans-Serif" font-size="10.00">ICM20948Sensor.h</text>
</a>
</g>
</g>
<!-- Node3&#45;&gt;Node17 -->
<g id="edge18_Node000003_Node000017" class="edge">
<title>Node3&#45;&gt;Node17</title>
<g id="a_edge18_Node000003_Node000017"><a xlink:title=" ">
<path fill="none" stroke="#63b8ff" d="M1155.65,-111.39C1209.03,-101.71 1304.49,-84.38 1361.61,-74.01"/>
<polygon fill="#63b8ff" stroke="#63b8ff" points="1154.78,-107.99 1145.57,-113.22 1156.03,-114.88 1154.78,-107.99"/>
</a>
</g>
</g>
<!-- Node19 -->
<g id="Node000019" class="node">
<title>Node19</title>
<g id="a_Node000019"><a xlink:href="INA260Sensor_8h.html" target="_top" xlink:title=" ">
<polygon fill="white" stroke="#666666" points="1612,-74 1519,-74 1519,-55 1612,-55 1612,-74"/>
<text text-anchor="middle" x="1565.5" y="-62" font-family="Helvetica,sans-Serif" font-size="10.00">INA260Sensor.h</text>
</a>
</g>
</g>
<!-- Node3&#45;&gt;Node19 -->
<g id="edge21_Node000003_Node000019" class="edge">
<title>Node3&#45;&gt;Node19</title>
<g id="a_edge21_Node000003_Node000019"><a xlink:title=" ">
<path fill="none" stroke="#63b8ff" d="M1155.88,-114.3C1226.02,-106.76 1377.18,-90.17 1504.5,-74 1509.17,-73.41 1514.03,-72.77 1518.89,-72.11"/>
<polygon fill="#63b8ff" stroke="#63b8ff" points="1155.3,-110.84 1145.73,-115.39 1156.05,-117.8 1155.3,-110.84"/>
</a>
</g>
</g>
<!-- Node21 -->
<g id="Node000021" class="node">
<title>Node21</title>
<g id="a_Node000021"><a xlink:href="LSM9DS1Sensor_8h.html" target="_top" xlink:title=" ">
<polygon fill="white" stroke="#666666" points="493.5,-74 389.5,-74 389.5,-55 493.5,-55 493.5,-74"/>
<text text-anchor="middle" x="441.5" y="-62" font-family="Helvetica,sans-Serif" font-size="10.00">LSM9DS1Sensor.h</text>
</a>
</g>
</g>
<!-- Node3&#45;&gt;Node21 -->
<g id="edge24_Node000003_Node000021" class="edge">
<title>Node3&#45;&gt;Node21</title>
<g id="a_edge24_Node000003_Node000021"><a xlink:title=" ">
<path fill="none" stroke="#63b8ff" d="M1077.2,-116.17C981.07,-110.35 726.43,-94.16 514.5,-74 507.77,-73.36 500.69,-72.62 493.71,-71.85"/>
<polygon fill="#63b8ff" stroke="#63b8ff" points="1077.14,-119.67 1087.33,-116.78 1077.56,-112.69 1077.14,-119.67"/>
</a>
</g>
</g>
<!-- Node23 -->
<g id="Node000023" class="node">
<title>Node23</title>
<g id="a_Node000023"><a xlink:href="MTK3339Sensor_8h.html" target="_top" xlink:title=" ">
<polygon fill="white" stroke="#666666" points="1734.5,-74 1630.5,-74 1630.5,-55 1734.5,-55 1734.5,-74"/>
<text text-anchor="middle" x="1682.5" y="-62" font-family="Helvetica,sans-Serif" font-size="10.00">MTK3339Sensor.h</text>
</a>
</g>
</g>
<!-- Node3&#45;&gt;Node23 -->
<g id="edge26_Node000003_Node000023" class="edge">
<title>Node3&#45;&gt;Node23</title>
<g id="a_edge26_Node000003_Node000023"><a xlink:title=" ">
<path fill="none" stroke="#63b8ff" d="M1155.74,-115.68C1240.63,-109.45 1447.64,-93.47 1620.5,-74 1623.74,-73.64 1627.07,-73.24 1630.43,-72.82"/>
<polygon fill="#63b8ff" stroke="#63b8ff" points="1155.24,-112.21 1145.53,-116.43 1155.75,-119.19 1155.24,-112.21"/>
</a>
</g>
</g>
<!-- Node25 -->
<g id="Node000025" class="node">
<title>Node25</title>
<g id="a_Node000025"><a xlink:href="PCF8523Sensor_8h.html" target="_top" xlink:title=" ">
<polygon fill="white" stroke="#666666" points="1854,-74 1753,-74 1753,-55 1854,-55 1854,-74"/>
<text text-anchor="middle" x="1803.5" y="-62" font-family="Helvetica,sans-Serif" font-size="10.00">PCF8523Sensor.h</text>
</a>
</g>
</g>
<!-- Node3&#45;&gt;Node25 -->
<g id="edge29_Node000003_Node000025" class="edge">
<title>Node3&#45;&gt;Node25</title>
<g id="a_edge29_Node000003_Node000025"><a xlink:title=" ">
<path fill="none" stroke="#63b8ff" d="M1155.75,-116.67C1254.62,-111.85 1521.79,-97.54 1743.5,-74 1746.53,-73.68 1749.65,-73.32 1752.79,-72.94"/>
<polygon fill="#63b8ff" stroke="#63b8ff" points="1155.45,-113.18 1145.63,-117.16 1155.78,-120.17 1155.45,-113.18"/>
</a>
</g>
</g>
<!-- Node27 -->
<g id="Node000027" class="node">
<title>Node27</title>
<g id="a_Node000027"><a xlink:href="SGP30Sensor_8h.html" target="_top" xlink:title=" ">
<polygon fill="white" stroke="#666666" points="613,-74 524,-74 524,-55 613,-55 613,-74"/>
<text text-anchor="middle" x="568.5" y="-62" font-family="Helvetica,sans-Serif" font-size="10.00">SGP30Sensor.h</text>
</a>
</g>
</g>
<!-- Node3&#45;&gt;Node27 -->
<g id="edge32_Node000003_Node000027" class="edge">
<title>Node3&#45;&gt;Node27</title>
<g id="a_edge32_Node000003_Node000027"><a xlink:title=" ">
<path fill="none" stroke="#63b8ff" d="M1077.17,-115.39C994.78,-108.76 798.06,-92.33 633.5,-74 626.94,-73.27 620.02,-72.43 613.23,-71.58"/>
<polygon fill="#63b8ff" stroke="#63b8ff" points="1077.09,-118.89 1087.33,-116.2 1077.64,-111.92 1077.09,-118.89"/>
</a>
</g>
</g>
<!-- Node29 -->
<g id="Node000029" class="node">
<title>Node29</title>
<g id="a_Node000029"><a xlink:href="SHTC3Sensor_8h.html" target="_top" xlink:title=" ">
<polygon fill="white" stroke="#666666" points="732,-74 643,-74 643,-55 732,-55 732,-74"/>
<text text-anchor="middle" x="687.5" y="-62" font-family="Helvetica,sans-Serif" font-size="10.00">SHTC3Sensor.h</text>
</a>
</g>
</g>
<!-- Node3&#45;&gt;Node29 -->
<g id="edge34_Node000003_Node000029" class="edge">
<title>Node3&#45;&gt;Node29</title>
<g id="a_edge34_Node000003_Node000029"><a xlink:title=" ">
<path fill="none" stroke="#63b8ff" d="M1077.22,-113.65C997.37,-103.78 816.52,-81.44 732.26,-71.03"/>
<polygon fill="#63b8ff" stroke="#63b8ff" points="1077,-117.15 1087.35,-114.9 1077.85,-110.2 1077,-117.15"/>
</a>
</g>
</g>
<!-- Node31 -->
<g id="Node000031" class="node">
<title>Node31</title>
<g id="a_Node000031"><a xlink:href="TMP117Sensor_8h.html" target="_top" xlink:title=" ">
<polygon fill="white" stroke="#666666" points="872,-74 775,-74 775,-55 872,-55 872,-74"/>
<text text-anchor="middle" x="823.5" y="-62" font-family="Helvetica,sans-Serif" font-size="10.00">TMP117Sensor.h</text>
</a>
</g>
</g>
<!-- Node3&#45;&gt;Node31 -->
<g id="edge36_Node000003_Node000031" class="edge">
<title>Node3&#45;&gt;Node31</title>
<g id="a_edge36_Node000003_Node000031"><a xlink:title=" ">
<path fill="none" stroke="#63b8ff" d="M1077.21,-111.39C1023.66,-101.71 927.86,-84.38 870.55,-74.01"/>
<polygon fill="#63b8ff" stroke="#63b8ff" points="1076.87,-114.89 1087.33,-113.22 1078.12,-108 1076.87,-114.89"/>
</a>
</g>
</g>
<!-- Node33 -->
<g id="Node000033" class="node">
<title>Node33</title>
<g id="a_Node000033"><a xlink:href="TempSensor_8h.html" target="_top" xlink:title=" ">
<polygon fill="white" stroke="#666666" points="993.5,-74 909.5,-74 909.5,-55 993.5,-55 993.5,-74"/>
<text text-anchor="middle" x="951.5" y="-62" font-family="Helvetica,sans-Serif" font-size="10.00">TempSensor.h</text>
</a>
</g>
</g>
<!-- Node3&#45;&gt;Node33 -->
<g id="edge38_Node000003_Node000033" class="edge">
<title>Node3&#45;&gt;Node33</title>
<g id="a_edge38_Node000003_Node000033"><a xlink:title=" ">
<path fill="none" stroke="#63b8ff" d="M1080.07,-106.8C1049.28,-96.91 1005.88,-82.97 978.22,-74.08"/>
<polygon fill="#63b8ff" stroke="#63b8ff" points="1079.4,-110.26 1089.99,-109.98 1081.54,-103.59 1079.4,-110.26"/>
</a>
</g>
</g>
<!-- Node5 -->
<g id="Node000005" class="node">
<title>Node5</title>
<g id="a_Node000005"><a xlink:href="AS7331Sensor_8cpp.html" target="_top" xlink:title=" ">
<polygon fill="white" stroke="#666666" points="1096.5,-19 990.5,-19 990.5,0 1096.5,0 1096.5,-19"/>
<text text-anchor="middle" x="1043.5" y="-7" font-family="Helvetica,sans-Serif" font-size="10.00">AS7331Sensor.cpp</text>
</a>
</g>
</g>
<!-- Node4&#45;&gt;Node5 -->
<g id="edge4_Node000004_Node000005" class="edge">
<title>Node4&#45;&gt;Node5</title>
<g id="a_edge4_Node000004_Node000005"><a xlink:title=" ">
<path fill="none" stroke="#63b8ff" d="M1053.9,-44.95C1051.24,-36.15 1048.2,-26.06 1046.09,-19.09"/>
<polygon fill="#63b8ff" stroke="#63b8ff" points="1050.62,-46.19 1056.86,-54.75 1057.32,-44.16 1050.62,-46.19"/>
</a>
</g>
</g>
<!-- Node4&#45;&gt;Node6 -->
<g id="edge5_Node000004_Node000006" class="edge">
<title>Node4&#45;&gt;Node6</title>
<g id="a_edge5_Node000004_Node000006"><a xlink:title=" ">
<path fill="none" stroke="#63b8ff" d="M1117.03,-55.01C1285.72,-34.92 1330.87,-44.09 1494.5,-19 1497.31,-18.57 1500.21,-18.07 1503.12,-17.52"/>
<polygon fill="#63b8ff" stroke="#63b8ff" points="1116.57,-51.54 1107.06,-56.21 1117.41,-58.49 1116.57,-51.54"/>
</a>
</g>
</g>
<!-- Node8 -->
<g id="Node000008" class="node">
<title>Node8</title>
<g id="a_Node000008"><a xlink:href="BME280Sensor_8cpp.html" target="_top" xlink:title=" ">
<polygon fill="white" stroke="#666666" points="109,-19 0,-19 0,0 109,0 109,-19"/>
<text text-anchor="middle" x="54.5" y="-7" font-family="Helvetica,sans-Serif" font-size="10.00">BME280Sensor.cpp</text>
</a>
</g>
</g>
<!-- Node7&#45;&gt;Node8 -->
<g id="edge7_Node000007_Node000008" class="edge">
<title>Node7&#45;&gt;Node8</title>
<g id="a_edge7_Node000007_Node000008"><a xlink:title=" ">
<path fill="none" stroke="#63b8ff" d="M61.65,-44.95C59.82,-36.15 57.73,-26.06 56.28,-19.09"/>
<polygon fill="#63b8ff" stroke="#63b8ff" points="58.22,-45.67 63.68,-54.75 65.08,-44.25 58.22,-45.67"/>
</a>
</g>
</g>
<!-- Node10 -->
<g id="Node000010" class="node">
<title>Node10</title>
<g id="a_Node000010"><a xlink:href="BME680Sensor_8cpp.html" target="_top" xlink:title=" ">
<polygon fill="white" stroke="#666666" points="236,-19 127,-19 127,0 236,0 236,-19"/>
<text text-anchor="middle" x="181.5" y="-7" font-family="Helvetica,sans-Serif" font-size="10.00">BME680Sensor.cpp</text>
</a>
</g>
</g>
<!-- Node9&#45;&gt;Node10 -->
<g id="edge9_Node000009_Node000010" class="edge">
<title>Node9&#45;&gt;Node10</title>
<g id="a_edge9_Node000009_Node000010"><a xlink:title=" ">
<path fill="none" stroke="#63b8ff" d="M184.72,-44.66C183.9,-35.93 182.96,-25.99 182.31,-19.09"/>
<polygon fill="#63b8ff" stroke="#63b8ff" points="181.25,-45.12 185.67,-54.75 188.22,-44.46 181.25,-45.12"/>
</a>
</g>
</g>
<!-- Node11&#45;&gt;Node6 -->
<g id="edge12_Node000011_Node000006" class="edge">
<title>Node11&#45;&gt;Node6</title>
<g id="a_edge12_Node000011_Node000006"><a xlink:title=" ">
<path fill="none" stroke="#63b8ff" d="M1233.61,-54.86C1350.57,-38.5 1381.88,-38.68 1494.5,-19 1497.3,-18.51 1500.2,-17.97 1503.1,-17.4"/>
<polygon fill="#63b8ff" stroke="#63b8ff" points="1232.96,-51.42 1223.54,-56.28 1233.93,-58.35 1232.96,-51.42"/>
</a>
</g>
</g>
<!-- Node12 -->
<g id="Node000012" class="node">
<title>Node12</title>
<g id="a_Node000012"><a xlink:href="BMP390Sensor_8cpp.html" target="_top" xlink:title=" ">
<polygon fill="white" stroke="#666666" points="1224,-19 1115,-19 1115,0 1224,0 1224,-19"/>
<text text-anchor="middle" x="1169.5" y="-7" font-family="Helvetica,sans-Serif" font-size="10.00">BMP390Sensor.cpp</text>
</a>
</g>
</g>
<!-- Node11&#45;&gt;Node12 -->
<g id="edge11_Node000011_Node000012" class="edge">
<title>Node11&#45;&gt;Node12</title>
<g id="a_edge11_Node000011_Node000012"><a xlink:title=" ">
<path fill="none" stroke="#63b8ff" d="M1172.72,-44.66C1171.9,-35.93 1170.96,-25.99 1170.31,-19.09"/>
<polygon fill="#63b8ff" stroke="#63b8ff" points="1169.25,-45.12 1173.67,-54.75 1176.22,-44.46 1169.25,-45.12"/>
</a>
</g>
</g>
<!-- Node14 -->
<g id="Node000014" class="node">
<title>Node14</title>
<g id="a_Node000014"><a xlink:href="DS3231Sensor_8cpp.html" target="_top" xlink:title=" ">
<polygon fill="white" stroke="#666666" points="361,-19 254,-19 254,0 361,0 361,-19"/>
<text text-anchor="middle" x="307.5" y="-7" font-family="Helvetica,sans-Serif" font-size="10.00">DS3231Sensor.cpp</text>
</a>
</g>
</g>
<!-- Node13&#45;&gt;Node14 -->
<g id="edge14_Node000013_Node000014" class="edge">
<title>Node13&#45;&gt;Node14</title>
<g id="a_edge14_Node000013_Node000014"><a xlink:title=" ">
<path fill="none" stroke="#63b8ff" d="M310.72,-44.66C309.9,-35.93 308.96,-25.99 308.31,-19.09"/>
<polygon fill="#63b8ff" stroke="#63b8ff" points="307.25,-45.12 311.67,-54.75 314.22,-44.46 307.25,-45.12"/>
</a>
</g>
</g>
<!-- Node15&#45;&gt;Node6 -->
<g id="edge17_Node000015_Node000006" class="edge">
<title>Node15&#45;&gt;Node6</title>
<g id="a_edge17_Node000015_Node000006"><a xlink:title=" ">
<path fill="none" stroke="#63b8ff" d="M1338.65,-52.87C1387.78,-42.24 1461.85,-26.22 1503.39,-17.23"/>
<polygon fill="#63b8ff" stroke="#63b8ff" points="1337.9,-49.45 1328.86,-54.98 1339.38,-56.29 1337.9,-49.45"/>
</a>
</g>
</g>
<!-- Node16 -->
<g id="Node000016" class="node">
<title>Node16</title>
<g id="a_Node000016"><a xlink:href="ENS160Sensor_8cpp.html" target="_top" xlink:title=" ">
<polygon fill="white" stroke="#666666" points="1349,-19 1242,-19 1242,0 1349,0 1349,-19"/>
<text text-anchor="middle" x="1295.5" y="-7" font-family="Helvetica,sans-Serif" font-size="10.00">ENS160Sensor.cpp</text>
</a>
</g>
</g>
<!-- Node15&#45;&gt;Node16 -->
<g id="edge16_Node000015_Node000016" class="edge">
<title>Node15&#45;&gt;Node16</title>
<g id="a_edge16_Node000015_Node000016"><a xlink:title=" ">
<path fill="none" stroke="#63b8ff" d="M1291.63,-44.66C1292.62,-35.93 1293.75,-25.99 1294.53,-19.09"/>
<polygon fill="#63b8ff" stroke="#63b8ff" points="1288.14,-44.42 1290.49,-54.75 1295.09,-45.21 1288.14,-44.42"/>
</a>
</g>
</g>
<!-- Node17&#45;&gt;Node6 -->
<g id="edge20_Node000017_Node000006" class="edge">
<title>Node17&#45;&gt;Node6</title>
<g id="a_edge20_Node000017_Node000006"><a xlink:title=" ">
<path fill="none" stroke="#63b8ff" d="M1438.15,-51.03C1461.45,-41.23 1493.3,-27.83 1513.89,-19.17"/>
<polygon fill="#63b8ff" stroke="#63b8ff" points="1436.6,-47.88 1428.74,-54.98 1439.32,-54.33 1436.6,-47.88"/>
</a>
</g>
</g>
<!-- Node18 -->
<g id="Node000018" class="node">
<title>Node18</title>
<g id="a_Node000018"><a xlink:href="ICM20948Sensor_8cpp.html" target="_top" xlink:title=" ">
<polygon fill="white" stroke="#666666" points="1485.5,-19 1367.5,-19 1367.5,0 1485.5,0 1485.5,-19"/>
<text text-anchor="middle" x="1426.5" y="-7" font-family="Helvetica,sans-Serif" font-size="10.00">ICM20948Sensor.cpp</text>
</a>
</g>
</g>
<!-- Node17&#45;&gt;Node18 -->
<g id="edge19_Node000017_Node000018" class="edge">
<title>Node17&#45;&gt;Node18</title>
<g id="a_edge19_Node000017_Node000018"><a xlink:title=" ">
<path fill="none" stroke="#63b8ff" d="M1414.7,-45.24C1417.71,-36.37 1421.19,-26.14 1423.58,-19.09"/>
<polygon fill="#63b8ff" stroke="#63b8ff" points="1411.37,-44.15 1411.47,-54.75 1418,-46.4 1411.37,-44.15"/>
</a>
</g>
</g>
<!-- Node19&#45;&gt;Node6 -->
<g id="edge23_Node000019_Node000006" class="edge">
<title>Node19&#45;&gt;Node6</title>
<g id="a_edge23_Node000019_Node000006"><a xlink:title=" ">
<path fill="none" stroke="#63b8ff" d="M1555.32,-46.1C1550.03,-37.04 1543.78,-26.37 1539.52,-19.09"/>
<polygon fill="#63b8ff" stroke="#63b8ff" points="1552.31,-47.88 1560.38,-54.75 1558.35,-44.35 1552.31,-47.88"/>
</a>
</g>
</g>
<!-- Node20 -->
<g id="Node000020" class="node">
<title>Node20</title>
<g id="a_Node000020"><a xlink:href="INA260Sensor_8cpp.html" target="_top" xlink:title=" ">
<polygon fill="white" stroke="#666666" points="1687.5,-19 1583.5,-19 1583.5,0 1687.5,0 1687.5,-19"/>
<text text-anchor="middle" x="1635.5" y="-7" font-family="Helvetica,sans-Serif" font-size="10.00">INA260Sensor.cpp</text>
</a>
</g>
</g>
<!-- Node19&#45;&gt;Node20 -->
<g id="edge22_Node000019_Node000020" class="edge">
<title>Node19&#45;&gt;Node20</title>
<g id="a_edge22_Node000019_Node000020"><a xlink:title=" ">
<path fill="none" stroke="#63b8ff" d="M1584.81,-48.88C1597.41,-39.34 1613.43,-27.21 1624.05,-19.17"/>
<polygon fill="#63b8ff" stroke="#63b8ff" points="1582.61,-46.16 1576.75,-54.98 1586.83,-51.74 1582.61,-46.16"/>
</a>
</g>
</g>
<!-- Node22 -->
<g id="Node000022" class="node">
<title>Node22</title>
<g id="a_Node000022"><a xlink:href="LSM9DS1Sensor_8cpp.html" target="_top" xlink:title=" ">
<polygon fill="white" stroke="#666666" points="494,-19 379,-19 379,0 494,0 494,-19"/>
<text text-anchor="middle" x="436.5" y="-7" font-family="Helvetica,sans-Serif" font-size="10.00">LSM9DS1Sensor.cpp</text>
</a>
</g>
</g>
<!-- Node21&#45;&gt;Node22 -->
<g id="edge25_Node000021_Node000022" class="edge">
<title>Node21&#45;&gt;Node22</title>
<g id="a_edge25_Node000021_Node000022"><a xlink:title=" ">
<path fill="none" stroke="#63b8ff" d="M439.72,-44.66C438.9,-35.93 437.96,-25.99 437.31,-19.09"/>
<polygon fill="#63b8ff" stroke="#63b8ff" points="436.25,-45.12 440.67,-54.75 443.22,-44.46 436.25,-45.12"/>
</a>
</g>
</g>
<!-- Node23&#45;&gt;Node6 -->
<g id="edge28_Node000023_Node000006" class="edge">
<title>Node23&#45;&gt;Node6</title>
<g id="a_edge28_Node000023_Node000006"><a xlink:title=" ">
<path fill="none" stroke="#63b8ff" d="M1649.13,-51.55C1621.65,-41.71 1583.33,-27.98 1558.71,-19.17"/>
<polygon fill="#63b8ff" stroke="#63b8ff" points="1648.13,-54.91 1658.72,-54.98 1650.49,-48.32 1648.13,-54.91"/>
</a>
</g>
</g>
<!-- Node24 -->
<g id="Node000024" class="node">
<title>Node24</title>
<g id="a_Node000024"><a xlink:href="MTK3339Sensor_8cpp.html" target="_top" xlink:title=" ">
<polygon fill="white" stroke="#666666" points="1821,-19 1706,-19 1706,0 1821,0 1821,-19"/>
<text text-anchor="middle" x="1763.5" y="-7" font-family="Helvetica,sans-Serif" font-size="10.00">MTK3339Sensor.cpp</text>
</a>
</g>
</g>
<!-- Node23&#45;&gt;Node24 -->
<g id="edge27_Node000023_Node000024" class="edge">
<title>Node23&#45;&gt;Node24</title>
<g id="a_edge27_Node000023_Node000024"><a xlink:title=" ">
<path fill="none" stroke="#63b8ff" d="M1704.01,-49.42C1718.71,-39.81 1737.72,-27.37 1750.25,-19.17"/>
<polygon fill="#63b8ff" stroke="#63b8ff" points="1701.97,-46.58 1695.51,-54.98 1705.8,-52.44 1701.97,-46.58"/>
</a>
</g>
</g>
<!-- Node25&#45;&gt;Node6 -->
<g id="edge31_Node000025_Node000006" class="edge">
<title>Node25&#45;&gt;Node6</title>
<g id="a_edge31_Node000025_Node000006"><a xlink:title=" ">
<path fill="none" stroke="#63b8ff" d="M1748.41,-53.07C1701.99,-44.22 1633.84,-31.07 1574.5,-19 1571.72,-18.43 1568.83,-17.84 1565.93,-17.23"/>
<polygon fill="#63b8ff" stroke="#63b8ff" points="1747.79,-56.52 1758.27,-54.95 1749.1,-49.64 1747.79,-56.52"/>
</a>
</g>
</g>
<!-- Node26 -->
<g id="Node000026" class="node">
<title>Node26</title>
<g id="a_Node000026"><a xlink:href="PCF8523Sensor_8cpp.html" target="_top" xlink:title=" ">
<polygon fill="white" stroke="#666666" points="1951.5,-19 1839.5,-19 1839.5,0 1951.5,0 1951.5,-19"/>
<text text-anchor="middle" x="1895.5" y="-7" font-family="Helvetica,sans-Serif" font-size="10.00">PCF8523Sensor.cpp</text>
</a>
</g>
</g>
<!-- Node25&#45;&gt;Node26 -->
<g id="edge30_Node000025_Node000026" class="edge">
<title>Node25&#45;&gt;Node26</title>
<g id="a_edge30_Node000025_Node000026"><a xlink:title=" ">
<path fill="none" stroke="#63b8ff" d="M1826.99,-49.97C1843.81,-40.28 1865.95,-27.52 1880.45,-19.17"/>
<polygon fill="#63b8ff" stroke="#63b8ff" points="1825.2,-46.96 1818.28,-54.98 1828.69,-53.03 1825.2,-46.96"/>
</a>
</g>
</g>
<!-- Node28 -->
<g id="Node000028" class="node">
<title>Node28</title>
<g id="a_Node000028"><a xlink:href="SGP30Sensor_8cpp.html" target="_top" xlink:title=" ">
<polygon fill="white" stroke="#666666" points="613,-19 512,-19 512,0 613,0 613,-19"/>
<text text-anchor="middle" x="562.5" y="-7" font-family="Helvetica,sans-Serif" font-size="10.00">SGP30Sensor.cpp</text>
</a>
</g>
</g>
<!-- Node27&#45;&gt;Node28 -->
<g id="edge33_Node000027_Node000028" class="edge">
<title>Node27&#45;&gt;Node28</title>
<g id="a_edge33_Node000027_Node000028"><a xlink:title=" ">
<path fill="none" stroke="#63b8ff" d="M566.37,-44.66C565.38,-35.93 564.25,-25.99 563.47,-19.09"/>
<polygon fill="#63b8ff" stroke="#63b8ff" points="562.91,-45.21 567.51,-54.75 569.86,-44.42 562.91,-45.21"/>
</a>
</g>
</g>
<!-- Node30 -->
<g id="Node000030" class="node">
<title>Node30</title>
<g id="a_Node000030"><a xlink:href="SHTC3Sensor_8cpp.html" target="_top" xlink:title=" ">
<polygon fill="white" stroke="#666666" points="732,-19 631,-19 631,0 732,0 732,-19"/>
<text text-anchor="middle" x="681.5" y="-7" font-family="Helvetica,sans-Serif" font-size="10.00">SHTC3Sensor.cpp</text>
</a>
</g>
</g>
<!-- Node29&#45;&gt;Node30 -->
<g id="edge35_Node000029_Node000030" class="edge">
<title>Node29&#45;&gt;Node30</title>
<g id="a_edge35_Node000029_Node000030"><a xlink:title=" ">
<path fill="none" stroke="#63b8ff" d="M685.37,-44.66C684.38,-35.93 683.25,-25.99 682.47,-19.09"/>
<polygon fill="#63b8ff" stroke="#63b8ff" points="681.91,-45.21 686.51,-54.75 688.86,-44.42 681.91,-45.21"/>
</a>
</g>
</g>
<!-- Node32 -->
<g id="Node000032" class="node">
<title>Node32</title>
<g id="a_Node000032"><a xlink:href="TMP117Sensor_8cpp.html" target="_top" xlink:title=" ">
<polygon fill="white" stroke="#666666" points="858.5,-19 750.5,-19 750.5,0 858.5,0 858.5,-19"/>
<text text-anchor="middle" x="804.5" y="-7" font-family="Helvetica,sans-Serif" font-size="10.00">TMP117Sensor.cpp</text>
</a>
</g>
</g>
<!-- Node31&#45;&gt;Node32 -->
<g id="edge37_Node000031_Node000032" class="edge">
<title>Node31&#45;&gt;Node32</title>
<g id="a_edge37_Node000031_Node000032"><a xlink:title=" ">
<path fill="none" stroke="#63b8ff" d="M816.95,-45.24C813.78,-36.37 810.11,-26.14 807.58,-19.09"/>
<polygon fill="#63b8ff" stroke="#63b8ff" points="813.69,-46.52 820.36,-54.75 820.28,-44.15 813.69,-46.52"/>
</a>
</g>
</g>
<!-- Node33&#45;&gt;Node6 -->
<g id="edge40_Node000033_Node000006" class="edge">
<title>Node33&#45;&gt;Node6</title>
<g id="a_edge40_Node000033_Node000006"><a xlink:title=" ">
<path fill="none" stroke="#63b8ff" d="M1003.93,-54.95C1221.97,-29.57 1280.72,-49.39 1494.5,-19 1497.31,-18.6 1500.22,-18.12 1503.13,-17.59"/>
<polygon fill="#63b8ff" stroke="#63b8ff" points="1003.28,-51.5 993.76,-56.15 1004.1,-58.45 1003.28,-51.5"/>
</a>
</g>
</g>
<!-- Node34 -->
<g id="Node000034" class="node">
<title>Node34</title>
<g id="a_Node000034"><a xlink:href="TempSensor_8cpp.html" target="_top" xlink:title=" ">
<polygon fill="white" stroke="#666666" points="972,-19 877,-19 877,0 972,0 972,-19"/>
<text text-anchor="middle" x="924.5" y="-7" font-family="Helvetica,sans-Serif" font-size="10.00">TempSensor.cpp</text>
</a>
</g>
</g>
<!-- Node33&#45;&gt;Node34 -->
<g id="edge39_Node000033_Node000034" class="edge">
<title>Node33&#45;&gt;Node34</title>
<g id="a_edge39_Node000033_Node000034"><a xlink:title=" ">
<path fill="none" stroke="#63b8ff" d="M942.49,-45.82C937.91,-36.82 932.55,-26.29 928.88,-19.09"/>
<polygon fill="#63b8ff" stroke="#63b8ff" points="939.38,-47.43 947.04,-54.75 945.62,-44.25 939.38,-47.43"/>
</a>
</g>
</g>
<!-- Node36 -->
<g id="Node000036" class="node">
<title>Node36</title>
<g id="a_Node000036"><a xlink:href="FlashStorage_8h.html" target="_top" xlink:title=" ">
<polygon fill="white" stroke="#666666" points="2052,-74 1963,-74 1963,-55 2052,-55 2052,-74"/>
<text text-anchor="middle" x="2007.5" y="-62" font-family="Helvetica,sans-Serif" font-size="10.00">FlashStorage.h</text>
</a>
</g>
</g>
<!-- Node35&#45;&gt;Node36 -->
<g id="edge43_Node000035_Node000036" class="edge">
<title>Node35&#45;&gt;Node36</title>
<g id="a_edge43_Node000035_Node000036"><a xlink:title=" ">
<path fill="none" stroke="#63b8ff" d="M2045.22,-102.52C2035.7,-93.18 2024.06,-81.75 2016.25,-74.09"/>
<polygon fill="#63b8ff" stroke="#63b8ff" points="2042.99,-105.24 2052.58,-109.75 2047.9,-100.25 2042.99,-105.24"/>
</a>
</g>
</g>
<!-- Node35&#45;&gt;Node38 -->
<g id="edge53_Node000035_Node000038" class="edge">
<title>Node35&#45;&gt;Node38</title>
<g id="a_edge53_Node000035_Node000038"><a xlink:title=" ">
<path fill="none" stroke="#63b8ff" d="M2099.12,-106.6C2120.82,-98.9 2148.16,-87.75 2170.5,-74 2196.53,-57.97 2222.45,-32.64 2235.25,-19.33"/>
<polygon fill="#63b8ff" stroke="#63b8ff" points="2097.89,-103.32 2089.58,-109.89 2100.17,-109.94 2097.89,-103.32"/>
</a>
</g>
</g>
<!-- Node39 -->
<g id="Node000039" class="node">
<title>Node39</title>
<g id="a_Node000039"><a xlink:href="RadioStorage_8h.html" target="_top" xlink:title=" ">
<polygon fill="white" stroke="#666666" points="2161,-74 2070,-74 2070,-55 2161,-55 2161,-74"/>
<text text-anchor="middle" x="2115.5" y="-62" font-family="Helvetica,sans-Serif" font-size="10.00">RadioStorage.h</text>
</a>
</g>
</g>
<!-- Node35&#45;&gt;Node39 -->
<g id="edge47_Node000035_Node000039" class="edge">
<title>Node35&#45;&gt;Node39</title>
<g id="a_edge47_Node000035_Node000039"><a xlink:title=" ">
<path fill="none" stroke="#63b8ff" d="M2077.78,-102.52C2087.3,-93.18 2098.94,-81.75 2106.75,-74.09"/>
<polygon fill="#63b8ff" stroke="#63b8ff" points="2075.1,-100.25 2070.42,-109.75 2080.01,-105.24 2075.1,-100.25"/>
</a>
</g>
</g>
<!-- Node41 -->
<g id="Node000041" class="node">
<title>Node41</title>
<g id="a_Node000041"><a xlink:href="SDStorage_8h.html" target="_top" xlink:title=" ">
<polygon fill="white" stroke="#666666" points="2295,-74 2218,-74 2218,-55 2295,-55 2295,-74"/>
<text text-anchor="middle" x="2256.5" y="-62" font-family="Helvetica,sans-Serif" font-size="10.00">SDStorage.h</text>
</a>
</g>
</g>
<!-- Node35&#45;&gt;Node41 -->
<g id="edge50_Node000035_Node000041" class="edge">
<title>Node35&#45;&gt;Node41</title>
<g id="a_edge50_Node000035_Node000041"><a xlink:title=" ">
<path fill="none" stroke="#63b8ff" d="M2102.67,-107.31C2139.16,-97.39 2191.67,-83.12 2224.92,-74.08"/>
<polygon fill="#63b8ff" stroke="#63b8ff" points="2101.56,-103.98 2092.83,-109.98 2103.4,-110.74 2101.56,-103.98"/>
</a>
</g>
</g>
<!-- Node36&#45;&gt;Node6 -->
<g id="edge45_Node000036_Node000006" class="edge">
<title>Node36&#45;&gt;Node6</title>
<g id="a_edge45_Node000036_Node000006"><a xlink:title=" ">
<path fill="none" stroke="#63b8ff" d="M1952.77,-57.74C1943.98,-56.82 1934.99,-55.88 1926.5,-55 1770.08,-38.79 1729.86,-43.38 1574.5,-19 1571.69,-18.56 1568.79,-18.05 1565.88,-17.5"/>
<polygon fill="#63b8ff" stroke="#63b8ff" points="1952.63,-61.24 1962.94,-58.8 1953.36,-54.28 1952.63,-61.24"/>
</a>
</g>
</g>
<!-- Node37 -->
<g id="Node000037" class="node">
<title>Node37</title>
<g id="a_Node000037"><a xlink:href="FlashStorage_8cpp.html" target="_top" xlink:title=" ">
<polygon fill="white" stroke="#666666" points="2071,-19 1970,-19 1970,0 2071,0 2071,-19"/>
<text text-anchor="middle" x="2020.5" y="-7" font-family="Helvetica,sans-Serif" font-size="10.00">FlashStorage.cpp</text>
</a>
</g>
</g>
<!-- Node36&#45;&gt;Node37 -->
<g id="edge44_Node000036_Node000037" class="edge">
<title>Node36&#45;&gt;Node37</title>
<g id="a_edge44_Node000036_Node000037"><a xlink:title=" ">
<path fill="none" stroke="#63b8ff" d="M2012.05,-44.95C2014.21,-36.15 2016.68,-26.06 2018.39,-19.09"/>
<polygon fill="#63b8ff" stroke="#63b8ff" points="2008.63,-44.2 2009.65,-54.75 2015.43,-45.87 2008.63,-44.2"/>
</a>
</g>
</g>
<!-- Node36&#45;&gt;Node38 -->
<g id="edge46_Node000036_Node000038" class="edge">
<title>Node36&#45;&gt;Node38</title>
<g id="a_edge46_Node000036_Node000038"><a xlink:title=" ">
<path fill="none" stroke="#63b8ff" d="M2055.37,-52.75C2101.01,-42.5 2168.61,-27.32 2209.13,-18.22"/>
<polygon fill="#63b8ff" stroke="#63b8ff" points="2054.41,-49.38 2045.42,-54.98 2055.94,-56.21 2054.41,-49.38"/>
</a>
</g>
</g>
<!-- Node39&#45;&gt;Node38 -->
<g id="edge49_Node000039_Node000038" class="edge">
<title>Node39&#45;&gt;Node38</title>
<g id="a_edge49_Node000039_Node000038"><a xlink:title=" ">
<path fill="none" stroke="#63b8ff" d="M2145.62,-51.03C2169.29,-41.23 2201.65,-27.83 2222.56,-19.17"/>
<polygon fill="#63b8ff" stroke="#63b8ff" points="2143.97,-47.93 2136.07,-54.98 2146.64,-54.39 2143.97,-47.93"/>
</a>
</g>
</g>
<!-- Node40 -->
<g id="Node000040" class="node">
<title>Node40</title>
<g id="a_Node000040"><a xlink:href="RadioStorage_8cpp.html" target="_top" xlink:title=" ">
<polygon fill="white" stroke="#666666" points="2191.5,-19 2089.5,-19 2089.5,0 2191.5,0 2191.5,-19"/>
<text text-anchor="middle" x="2140.5" y="-7" font-family="Helvetica,sans-Serif" font-size="10.00">RadioStorage.cpp</text>
</a>
</g>
</g>
<!-- Node39&#45;&gt;Node40 -->
<g id="edge48_Node000039_Node000040" class="edge">
<title>Node39&#45;&gt;Node40</title>
<g id="a_edge48_Node000039_Node000040"><a xlink:title=" ">
<path fill="none" stroke="#63b8ff" d="M2123.98,-45.53C2128.19,-36.6 2133.09,-26.22 2136.45,-19.09"/>
<polygon fill="#63b8ff" stroke="#63b8ff" points="2120.73,-44.21 2119.63,-54.75 2127.06,-47.2 2120.73,-44.21"/>
</a>
</g>
</g>
<!-- Node41&#45;&gt;Node38 -->
<g id="edge52_Node000041_Node000038" class="edge">
<title>Node41&#45;&gt;Node38</title>
<g id="a_edge52_Node000041_Node000038"><a xlink:title=" ">
<path fill="none" stroke="#63b8ff" d="M2251.95,-44.95C2249.79,-36.15 2247.32,-26.06 2245.61,-19.09"/>
<polygon fill="#63b8ff" stroke="#63b8ff" points="2248.57,-45.87 2254.35,-54.75 2255.37,-44.2 2248.57,-45.87"/>
</a>
</g>
</g>
<!-- Node42 -->
<g id="Node000042" class="node">
<title>Node42</title>
<g id="a_Node000042"><a xlink:href="SDStorage_8cpp.html" target="_top" xlink:title=" ">
<polygon fill="white" stroke="#666666" points="2383.5,-19 2295.5,-19 2295.5,0 2383.5,0 2383.5,-19"/>
<text text-anchor="middle" x="2339.5" y="-7" font-family="Helvetica,sans-Serif" font-size="10.00">SDStorage.cpp</text>
</a>
</g>
</g>
<!-- Node41&#45;&gt;Node42 -->
<g id="edge51_Node000041_Node000042" class="edge">
<title>Node41&#45;&gt;Node42</title>
<g id="a_edge51_Node000041_Node000042"><a xlink:title=" ">
<path fill="none" stroke="#63b8ff" d="M2278.54,-49.42C2293.61,-39.81 2313.09,-27.37 2325.92,-19.17"/>
<polygon fill="#63b8ff" stroke="#63b8ff" points="2276.38,-46.65 2269.84,-54.98 2280.15,-52.55 2276.38,-46.65"/>
</a>
</g>
</g>
</g>
</svg>
