<?xml version="1.0" encoding="UTF-8" standalone="no"?>
<!DOCTYPE svg PUBLIC "-//W3C//DTD SVG 1.1//EN"
 "http://www.w3.org/Graphics/SVG/1.1/DTD/svg11.dtd">
<!-- Generated by graphviz version 2.43.0 (0)
 -->
<!-- Title: Logger.h Pages: 1 -->
<svg width="2631pt" height="247pt"
 viewBox="0.00 0.00 2631.00 247.00" xmlns="http://www.w3.org/2000/svg" xmlns:xlink="http://www.w3.org/1999/xlink">
<g id="graph0" class="graph" transform="scale(1 1) rotate(0) translate(4 243)">
<title>Logger.h</title>
<!-- Node1 -->
<g id="Node000001" class="node">
<title>Node1</title>
<g id="a_Node000001"><a xlink:title=" ">
<polygon fill="#999999" stroke="#666666" points="1880,-239 1822,-239 1822,-220 1880,-220 1880,-239"/>
<text text-anchor="middle" x="1851" y="-227" font-family="Helvetica,sans-Serif" font-size="10.00">Logger.h</text>
</a>
</g>
</g>
<!-- Node2 -->
<g id="Node000002" class="node">
<title>Node2</title>
<g id="a_Node000002"><a xlink:href="Device_8h.html" target="_top" xlink:title=" ">
<polygon fill="white" stroke="#666666" points="1880.5,-184 1821.5,-184 1821.5,-165 1880.5,-165 1880.5,-184"/>
<text text-anchor="middle" x="1851" y="-172" font-family="Helvetica,sans-Serif" font-size="10.00">Device.h</text>
</a>
</g>
</g>
<!-- Node1&#45;&gt;Node2 -->
<g id="edge1_Node000001_Node000002" class="edge">
<title>Node1&#45;&gt;Node2</title>
<g id="a_edge1_Node000001_Node000002"><a xlink:title=" ">
<path fill="none" stroke="#63b8ff" d="M1851,-209.66C1851,-200.93 1851,-190.99 1851,-184.09"/>
<polygon fill="#63b8ff" stroke="#63b8ff" points="1847.5,-209.75 1851,-219.75 1854.5,-209.75 1847.5,-209.75"/>
</a>
</g>
</g>
<!-- Node3 -->
<g id="Node000003" class="node">
<title>Node3</title>
<g id="a_Node000003"><a xlink:href="Sensor_8h.html" target="_top" xlink:title=" ">
<polygon fill="white" stroke="#666666" points="1225,-129 1167,-129 1167,-110 1225,-110 1225,-129"/>
<text text-anchor="middle" x="1196" y="-117" font-family="Helvetica,sans-Serif" font-size="10.00">Sensor.h</text>
</a>
</g>
</g>
<!-- Node1&#45;&gt;Node3 -->
<g id="edge63_Node000001_Node000003" class="edge">
<title>Node1&#45;&gt;Node3</title>
<g id="a_edge63_Node000001_Node000003"><a xlink:title=" ">
<path fill="none" stroke="#63b8ff" d="M1811.7,-222.02C1691.56,-202.21 1330.91,-142.74 1225.34,-125.34"/>
<polygon fill="#63b8ff" stroke="#63b8ff" points="1811.15,-225.48 1821.58,-223.65 1812.29,-218.57 1811.15,-225.48"/>
</a>
</g>
</g>
<!-- Node6 -->
<g id="Node000006" class="node">
<title>Node6</title>
<g id="a_Node000006"><a xlink:href="main_8cpp.html" target="_top" xlink:title="Main functions for Core 0, responsible for reading data from sensor peripherals.">
<polygon fill="white" stroke="#666666" points="802,-19 740,-19 740,0 802,0 802,-19"/>
<text text-anchor="middle" x="771" y="-7" font-family="Helvetica,sans-Serif" font-size="10.00">main.cpp</text>
</a>
</g>
</g>
<!-- Node1&#45;&gt;Node6 -->
<g id="edge65_Node000001_Node000006" class="edge">
<title>Node1&#45;&gt;Node6</title>
<g id="a_edge65_Node000001_Node000006"><a xlink:title=" ">
<path fill="none" stroke="#63b8ff" d="M1811.68,-226.7C1607.96,-216.98 678.77,-167.7 596,-74 590.41,-67.67 590.82,-61.67 596,-55 600.47,-49.25 690.83,-28.36 739.91,-17.37"/>
<polygon fill="#63b8ff" stroke="#63b8ff" points="1811.75,-230.21 1821.91,-227.18 1812.09,-223.21 1811.75,-230.21"/>
</a>
</g>
</g>
<!-- Node39 -->
<g id="Node000039" class="node">
<title>Node39</title>
<g id="a_Node000039"><a xlink:href="Storage_8h.html" target="_top" xlink:title=" ">
<polygon fill="white" stroke="#666666" points="2338.5,-129 2275.5,-129 2275.5,-110 2338.5,-110 2338.5,-129"/>
<text text-anchor="middle" x="2307" y="-117" font-family="Helvetica,sans-Serif" font-size="10.00">Storage.h</text>
</a>
</g>
</g>
<!-- Node1&#45;&gt;Node39 -->
<g id="edge64_Node000001_Node000039" class="edge">
<title>Node1&#45;&gt;Node39</title>
<g id="a_edge64_Node000001_Node000039"><a xlink:title=" ">
<path fill="none" stroke="#63b8ff" d="M1890.16,-219.23C1978.95,-198.2 2194.18,-147.22 2275.33,-128"/>
<polygon fill="#63b8ff" stroke="#63b8ff" points="1889.14,-215.87 1880.22,-221.58 1890.76,-222.68 1889.14,-215.87"/>
</a>
</g>
</g>
<!-- Node42 -->
<g id="Node000042" class="node">
<title>Node42</title>
<g id="a_Node000042"><a xlink:href="main1_8cpp.html" target="_top" xlink:title="Main functions for Core 1, responsible for sending data to storage peripherals.">
<polygon fill="white" stroke="#666666" points="2503,-19 2435,-19 2435,0 2503,0 2503,-19"/>
<text text-anchor="middle" x="2469" y="-7" font-family="Helvetica,sans-Serif" font-size="10.00">main1.cpp</text>
</a>
</g>
</g>
<!-- Node1&#45;&gt;Node42 -->
<g id="edge66_Node000001_Node000042" class="edge">
<title>Node1&#45;&gt;Node42</title>
<g id="a_edge66_Node000001_Node000042"><a xlink:title=" ">
<path fill="none" stroke="#63b8ff" d="M1890.08,-225.59C1975.71,-218.17 2185.15,-194.28 2347,-129 2390.12,-111.61 2404.36,-108.08 2436,-74 2451.38,-57.43 2461.57,-32.32 2466.18,-19.2"/>
<polygon fill="#63b8ff" stroke="#63b8ff" points="1889.7,-222.11 1880.03,-226.43 1890.29,-229.08 1889.7,-222.11"/>
</a>
</g>
</g>
<!-- Node2&#45;&gt;Node3 -->
<g id="edge2_Node000002_Node000003" class="edge">
<title>Node2&#45;&gt;Node3</title>
<g id="a_edge2_Node000002_Node000003"><a xlink:title=" ">
<path fill="none" stroke="#63b8ff" d="M1810.86,-170.25C1689.86,-160.46 1330.52,-131.38 1225.27,-122.87"/>
<polygon fill="#63b8ff" stroke="#63b8ff" points="1810.9,-173.77 1821.15,-171.08 1811.47,-166.79 1810.9,-173.77"/>
</a>
</g>
</g>
<!-- Node2&#45;&gt;Node39 -->
<g id="edge52_Node000002_Node000039" class="edge">
<title>Node2&#45;&gt;Node39</title>
<g id="a_edge52_Node000002_Node000039"><a xlink:title=" ">
<path fill="none" stroke="#63b8ff" d="M1890.54,-168.9C1979.59,-158.55 2194.42,-133.59 2275.4,-124.17"/>
<polygon fill="#63b8ff" stroke="#63b8ff" points="1890.1,-165.43 1880.57,-170.06 1890.91,-172.39 1890.1,-165.43"/>
</a>
</g>
</g>
<!-- Node4 -->
<g id="Node000004" class="node">
<title>Node4</title>
<g id="a_Node000004"><a xlink:href="AS7331Sensor_8h.html" target="_top" xlink:title=" ">
<polygon fill="white" stroke="#666666" points="1068.5,-74 973.5,-74 973.5,-55 1068.5,-55 1068.5,-74"/>
<text text-anchor="middle" x="1021" y="-62" font-family="Helvetica,sans-Serif" font-size="10.00">AS7331Sensor.h</text>
</a>
</g>
</g>
<!-- Node3&#45;&gt;Node4 -->
<g id="edge3_Node000003_Node000004" class="edge">
<title>Node3&#45;&gt;Node4</title>
<g id="a_edge3_Node000003_Node000004"><a xlink:title=" ">
<path fill="none" stroke="#63b8ff" d="M1158.21,-107.06C1125.5,-97.15 1078.93,-83.04 1049.34,-74.08"/>
<polygon fill="#63b8ff" stroke="#63b8ff" points="1157.3,-110.44 1167.88,-109.98 1159.33,-103.74 1157.3,-110.44"/>
</a>
</g>
</g>
<!-- Node3&#45;&gt;Node6 -->
<g id="edge51_Node000003_Node000006" class="edge">
<title>Node3&#45;&gt;Node6</title>
<g id="a_edge51_Node000003_Node000006"><a xlink:title=" ">
<path fill="none" stroke="#63b8ff" d="M1156.65,-119.18C1092.64,-119.01 962.97,-113.26 862,-74 828.6,-61.01 795.7,-33.38 780.2,-19.23"/>
<polygon fill="#63b8ff" stroke="#63b8ff" points="1156.72,-122.68 1166.71,-119.16 1156.71,-115.68 1156.72,-122.68"/>
</a>
</g>
</g>
<!-- Node7 -->
<g id="Node000007" class="node">
<title>Node7</title>
<g id="a_Node000007"><a xlink:href="BME280Sensor_8h.html" target="_top" xlink:title=" ">
<polygon fill="white" stroke="#666666" points="1671,-74 1573,-74 1573,-55 1671,-55 1671,-74"/>
<text text-anchor="middle" x="1622" y="-62" font-family="Helvetica,sans-Serif" font-size="10.00">BME280Sensor.h</text>
</a>
</g>
</g>
<!-- Node3&#45;&gt;Node7 -->
<g id="edge6_Node000003_Node000007" class="edge">
<title>Node3&#45;&gt;Node7</title>
<g id="a_edge6_Node000003_Node000007"><a xlink:title=" ">
<path fill="none" stroke="#63b8ff" d="M1235.66,-113.57C1313.82,-103.84 1487.57,-82.23 1572.85,-71.61"/>
<polygon fill="#63b8ff" stroke="#63b8ff" points="1234.77,-110.15 1225.28,-114.86 1235.64,-117.1 1234.77,-110.15"/>
</a>
</g>
</g>
<!-- Node9 -->
<g id="Node000009" class="node">
<title>Node9</title>
<g id="a_Node000009"><a xlink:href="BME680Sensor_8h.html" target="_top" xlink:title=" ">
<polygon fill="white" stroke="#666666" points="1803,-74 1705,-74 1705,-55 1803,-55 1803,-74"/>
<text text-anchor="middle" x="1754" y="-62" font-family="Helvetica,sans-Serif" font-size="10.00">BME680Sensor.h</text>
</a>
</g>
</g>
<!-- Node3&#45;&gt;Node9 -->
<g id="edge8_Node000003_Node000009" class="edge">
<title>Node3&#45;&gt;Node9</title>
<g id="a_edge8_Node000003_Node000009"><a xlink:title=" ">
<path fill="none" stroke="#63b8ff" d="M1235.39,-115.18C1317.91,-108.17 1514.96,-91.06 1680,-74 1687.98,-73.18 1696.43,-72.25 1704.66,-71.33"/>
<polygon fill="#63b8ff" stroke="#63b8ff" points="1234.88,-111.71 1225.21,-116.05 1235.47,-118.69 1234.88,-111.71"/>
</a>
</g>
</g>
<!-- Node11 -->
<g id="Node000011" class="node">
<title>Node11</title>
<g id="a_Node000011"><a xlink:href="BMP390Sensor_8h.html" target="_top" xlink:title=" ">
<polygon fill="white" stroke="#666666" points="1185,-74 1087,-74 1087,-55 1185,-55 1185,-74"/>
<text text-anchor="middle" x="1136" y="-62" font-family="Helvetica,sans-Serif" font-size="10.00">BMP390Sensor.h</text>
</a>
</g>
</g>
<!-- Node3&#45;&gt;Node11 -->
<g id="edge10_Node000003_Node000011" class="edge">
<title>Node3&#45;&gt;Node11</title>
<g id="a_edge10_Node000003_Node000011"><a xlink:title=" ">
<path fill="none" stroke="#63b8ff" d="M1178.82,-103.32C1168.12,-93.87 1154.74,-82.06 1145.82,-74.17"/>
<polygon fill="#63b8ff" stroke="#63b8ff" points="1176.55,-105.99 1186.36,-109.98 1181.18,-100.74 1176.55,-105.99"/>
</a>
</g>
</g>
<!-- Node13 -->
<g id="Node000013" class="node">
<title>Node13</title>
<g id="a_Node000013"><a xlink:href="DS3231Sensor_8h.html" target="_top" xlink:title=" ">
<polygon fill="white" stroke="#666666" points="1924.5,-74 1829.5,-74 1829.5,-55 1924.5,-55 1924.5,-74"/>
<text text-anchor="middle" x="1877" y="-62" font-family="Helvetica,sans-Serif" font-size="10.00">DS3231Sensor.h</text>
</a>
</g>
</g>
<!-- Node3&#45;&gt;Node13 -->
<g id="edge13_Node000003_Node000013" class="edge">
<title>Node3&#45;&gt;Node13</title>
<g id="a_edge13_Node000003_Node000013"><a xlink:title=" ">
<path fill="none" stroke="#63b8ff" d="M1235.24,-116.46C1332.88,-111.2 1594.57,-96.05 1812,-74 1817.66,-73.43 1823.59,-72.75 1829.47,-72.04"/>
<polygon fill="#63b8ff" stroke="#63b8ff" points="1235.03,-112.96 1225.23,-116.99 1235.4,-119.95 1235.03,-112.96"/>
</a>
</g>
</g>
<!-- Node15 -->
<g id="Node000015" class="node">
<title>Node15</title>
<g id="a_Node000015"><a xlink:href="ENS160Sensor_8h.html" target="_top" xlink:title=" ">
<polygon fill="white" stroke="#666666" points="548.5,-74 453.5,-74 453.5,-55 548.5,-55 548.5,-74"/>
<text text-anchor="middle" x="501" y="-62" font-family="Helvetica,sans-Serif" font-size="10.00">ENS160Sensor.h</text>
</a>
</g>
</g>
<!-- Node3&#45;&gt;Node15 -->
<g id="edge15_Node000003_Node000015" class="edge">
<title>Node3&#45;&gt;Node15</title>
<g id="a_edge15_Node000003_Node000015"><a xlink:title=" ">
<path fill="none" stroke="#63b8ff" d="M1156.86,-115.8C1061.12,-109.16 807.47,-91.3 596,-74 580.65,-72.74 563.92,-71.28 548.83,-69.92"/>
<polygon fill="#63b8ff" stroke="#63b8ff" points="1156.74,-119.3 1166.95,-116.5 1157.22,-112.32 1156.74,-119.3"/>
</a>
</g>
</g>
<!-- Node17 -->
<g id="Node000017" class="node">
<title>Node17</title>
<g id="a_Node000017"><a xlink:href="ICM20948Sensor_8h.html" target="_top" xlink:title=" ">
<polygon fill="white" stroke="#666666" points="1310.5,-74 1203.5,-74 1203.5,-55 1310.5,-55 1310.5,-74"/>
<text text-anchor="middle" x="1257" y="-62" font-family="Helvetica,sans-Serif" font-size="10.00">ICM20948Sensor.h</text>
</a>
</g>
</g>
<!-- Node3&#45;&gt;Node17 -->
<g id="edge18_Node000003_Node000017" class="edge">
<title>Node3&#45;&gt;Node17</title>
<g id="a_edge18_Node000003_Node000017"><a xlink:title=" ">
<path fill="none" stroke="#63b8ff" d="M1213.47,-103.32C1224.34,-93.87 1237.94,-82.06 1247.02,-74.17"/>
<polygon fill="#63b8ff" stroke="#63b8ff" points="1211.05,-100.78 1205.8,-109.98 1215.65,-106.07 1211.05,-100.78"/>
</a>
</g>
</g>
<!-- Node19 -->
<g id="Node000019" class="node">
<title>Node19</title>
<g id="a_Node000019"><a xlink:href="INA260Sensor_8h.html" target="_top" xlink:title=" ">
<polygon fill="white" stroke="#666666" points="1421.5,-74 1328.5,-74 1328.5,-55 1421.5,-55 1421.5,-74"/>
<text text-anchor="middle" x="1375" y="-62" font-family="Helvetica,sans-Serif" font-size="10.00">INA260Sensor.h</text>
</a>
</g>
</g>
<!-- Node3&#45;&gt;Node19 -->
<g id="edge21_Node000003_Node000019" class="edge">
<title>Node3&#45;&gt;Node19</title>
<g id="a_edge21_Node000003_Node000019"><a xlink:title=" ">
<path fill="none" stroke="#63b8ff" d="M1234.65,-107.06C1268.11,-97.15 1315.75,-83.04 1346.02,-74.08"/>
<polygon fill="#63b8ff" stroke="#63b8ff" points="1233.35,-103.79 1224.76,-109.98 1235.34,-110.5 1233.35,-103.79"/>
</a>
</g>
</g>
<!-- Node21 -->
<g id="Node000021" class="node">
<title>Node21</title>
<g id="a_Node000021"><a xlink:href="LSM9DS1Sensor_8h.html" target="_top" xlink:title=" ">
<polygon fill="white" stroke="#666666" points="2057,-74 1953,-74 1953,-55 2057,-55 2057,-74"/>
<text text-anchor="middle" x="2005" y="-62" font-family="Helvetica,sans-Serif" font-size="10.00">LSM9DS1Sensor.h</text>
</a>
</g>
</g>
<!-- Node3&#45;&gt;Node21 -->
<g id="edge24_Node000003_Node000021" class="edge">
<title>Node3&#45;&gt;Node21</title>
<g id="a_edge24_Node000003_Node000021"><a xlink:title=" ">
<path fill="none" stroke="#63b8ff" d="M1235.51,-116.91C1345.91,-112.3 1667.03,-97.71 1933,-74 1939.39,-73.43 1946.1,-72.75 1952.73,-72.03"/>
<polygon fill="#63b8ff" stroke="#63b8ff" points="1235.03,-113.43 1225.19,-117.34 1235.32,-120.42 1235.03,-113.43"/>
</a>
</g>
</g>
<!-- Node23 -->
<g id="Node000023" class="node">
<title>Node23</title>
<g id="a_Node000023"><a xlink:href="MTK3339Sensor_8h.html" target="_top" xlink:title=" ">
<polygon fill="white" stroke="#666666" points="1544,-74 1440,-74 1440,-55 1544,-55 1544,-74"/>
<text text-anchor="middle" x="1492" y="-62" font-family="Helvetica,sans-Serif" font-size="10.00">MTK3339Sensor.h</text>
</a>
</g>
</g>
<!-- Node3&#45;&gt;Node23 -->
<g id="edge26_Node000003_Node000023" class="edge">
<title>Node3&#45;&gt;Node23</title>
<g id="a_edge26_Node000003_Node000023"><a xlink:title=" ">
<path fill="none" stroke="#63b8ff" d="M1235.06,-111.51C1289.01,-101.85 1386.23,-84.44 1444.37,-74.03"/>
<polygon fill="#63b8ff" stroke="#63b8ff" points="1234.42,-108.07 1225.19,-113.27 1235.65,-114.96 1234.42,-108.07"/>
</a>
</g>
</g>
<!-- Node25 -->
<g id="Node000025" class="node">
<title>Node25</title>
<g id="a_Node000025"><a xlink:href="OzoneSensor_8h.html" target="_top" xlink:title=" ">
<polygon fill="white" stroke="#666666" points="213.5,-74 124.5,-74 124.5,-55 213.5,-55 213.5,-74"/>
<text text-anchor="middle" x="169" y="-62" font-family="Helvetica,sans-Serif" font-size="10.00">OzoneSensor.h</text>
</a>
</g>
</g>
<!-- Node3&#45;&gt;Node25 -->
<g id="edge29_Node000003_Node000025" class="edge">
<title>Node3&#45;&gt;Node25</title>
<g id="a_edge29_Node000003_Node000025"><a xlink:title=" ">
<path fill="none" stroke="#63b8ff" d="M1156.78,-118.3C1024.67,-117.29 583.92,-111.17 222,-74 219.31,-73.72 216.55,-73.4 213.77,-73.05"/>
<polygon fill="#63b8ff" stroke="#63b8ff" points="1156.8,-121.8 1166.83,-118.37 1156.85,-114.8 1156.8,-121.8"/>
</a>
</g>
</g>
<!-- Node27 -->
<g id="Node000027" class="node">
<title>Node27</title>
<g id="a_Node000027"><a xlink:href="PCF8523Sensor_8h.html" target="_top" xlink:title=" ">
<polygon fill="white" stroke="#666666" points="706.5,-74 605.5,-74 605.5,-55 706.5,-55 706.5,-74"/>
<text text-anchor="middle" x="656" y="-62" font-family="Helvetica,sans-Serif" font-size="10.00">PCF8523Sensor.h</text>
</a>
</g>
</g>
<!-- Node3&#45;&gt;Node27 -->
<g id="edge32_Node000003_Node000027" class="edge">
<title>Node3&#45;&gt;Node27</title>
<g id="a_edge32_Node000003_Node000027"><a xlink:title=" ">
<path fill="none" stroke="#63b8ff" d="M1156.6,-115.5C1074.51,-109.09 879.25,-93.12 716,-74 712.97,-73.65 709.86,-73.26 706.72,-72.86"/>
<polygon fill="#63b8ff" stroke="#63b8ff" points="1156.49,-119 1166.73,-116.28 1157.03,-112.02 1156.49,-119"/>
</a>
</g>
</g>
<!-- Node29 -->
<g id="Node000029" class="node">
<title>Node29</title>
<g id="a_Node000029"><a xlink:href="SCD40Sensor_8h.html" target="_top" xlink:title=" ">
<polygon fill="white" stroke="#666666" points="815,-74 725,-74 725,-55 815,-55 815,-74"/>
<text text-anchor="middle" x="770" y="-62" font-family="Helvetica,sans-Serif" font-size="10.00">SCD40Sensor.h</text>
</a>
</g>
</g>
<!-- Node3&#45;&gt;Node29 -->
<g id="edge35_Node000003_Node000029" class="edge">
<title>Node3&#45;&gt;Node29</title>
<g id="a_edge35_Node000003_Node000029"><a xlink:title=" ">
<path fill="none" stroke="#63b8ff" d="M1156.83,-114.04C1089.67,-106.33 948.28,-89.82 829,-74 824.49,-73.4 819.78,-72.76 815.08,-72.1"/>
<polygon fill="#63b8ff" stroke="#63b8ff" points="1156.62,-117.54 1166.95,-115.2 1157.41,-110.59 1156.62,-117.54"/>
</a>
</g>
</g>
<!-- Node31 -->
<g id="Node000031" class="node">
<title>Node31</title>
<g id="a_Node000031"><a xlink:href="SGP30Sensor_8h.html" target="_top" xlink:title=" ">
<polygon fill="white" stroke="#666666" points="2174.5,-74 2085.5,-74 2085.5,-55 2174.5,-55 2174.5,-74"/>
<text text-anchor="middle" x="2130" y="-62" font-family="Helvetica,sans-Serif" font-size="10.00">SGP30Sensor.h</text>
</a>
</g>
</g>
<!-- Node3&#45;&gt;Node31 -->
<g id="edge38_Node000003_Node000031" class="edge">
<title>Node3&#45;&gt;Node31</title>
<g id="a_edge38_Node000003_Node000031"><a xlink:title=" ">
<path fill="none" stroke="#63b8ff" d="M1235.43,-117.62C1358.47,-114.63 1746.25,-103.36 2066,-74 2072.25,-73.43 2078.83,-72.7 2085.29,-71.91"/>
<polygon fill="#63b8ff" stroke="#63b8ff" points="1235.27,-114.12 1225.35,-117.86 1235.43,-121.12 1235.27,-114.12"/>
</a>
</g>
</g>
<!-- Node33 -->
<g id="Node000033" class="node">
<title>Node33</title>
<g id="a_Node000033"><a xlink:href="SHTC3Sensor_8h.html" target="_top" xlink:title=" ">
<polygon fill="white" stroke="#666666" points="320.5,-74 231.5,-74 231.5,-55 320.5,-55 320.5,-74"/>
<text text-anchor="middle" x="276" y="-62" font-family="Helvetica,sans-Serif" font-size="10.00">SHTC3Sensor.h</text>
</a>
</g>
</g>
<!-- Node3&#45;&gt;Node33 -->
<g id="edge40_Node000003_Node000033" class="edge">
<title>Node3&#45;&gt;Node33</title>
<g id="a_edge40_Node000003_Node000033"><a xlink:title=" ">
<path fill="none" stroke="#63b8ff" d="M1156.67,-117.99C1033.95,-116.07 647.23,-107.59 329,-74 326.31,-73.72 323.55,-73.39 320.77,-73.03"/>
<polygon fill="#63b8ff" stroke="#63b8ff" points="1156.67,-121.49 1166.72,-118.14 1156.78,-114.49 1156.67,-121.49"/>
</a>
</g>
</g>
<!-- Node35 -->
<g id="Node000035" class="node">
<title>Node35</title>
<g id="a_Node000035"><a xlink:href="TMP117Sensor_8h.html" target="_top" xlink:title=" ">
<polygon fill="white" stroke="#666666" points="435.5,-74 338.5,-74 338.5,-55 435.5,-55 435.5,-74"/>
<text text-anchor="middle" x="387" y="-62" font-family="Helvetica,sans-Serif" font-size="10.00">TMP117Sensor.h</text>
</a>
</g>
</g>
<!-- Node3&#45;&gt;Node35 -->
<g id="edge44_Node000003_Node000035" class="edge">
<title>Node3&#45;&gt;Node35</title>
<g id="a_edge44_Node000003_Node000035"><a xlink:title=" ">
<path fill="none" stroke="#63b8ff" d="M1156.77,-117.41C1045.08,-114.04 715.88,-102.26 444,-74 441.31,-73.72 438.56,-73.41 435.78,-73.07"/>
<polygon fill="#63b8ff" stroke="#63b8ff" points="1156.79,-120.91 1166.89,-117.71 1157,-113.91 1156.79,-120.91"/>
</a>
</g>
</g>
<!-- Node37 -->
<g id="Node000037" class="node">
<title>Node37</title>
<g id="a_Node000037"><a xlink:href="TempSensor_8h.html" target="_top" xlink:title=" ">
<polygon fill="white" stroke="#666666" points="955,-74 871,-74 871,-55 955,-55 955,-74"/>
<text text-anchor="middle" x="913" y="-62" font-family="Helvetica,sans-Serif" font-size="10.00">TempSensor.h</text>
</a>
</g>
</g>
<!-- Node3&#45;&gt;Node37 -->
<g id="edge48_Node000003_Node000037" class="edge">
<title>Node3&#45;&gt;Node37</title>
<g id="a_edge48_Node000003_Node000037"><a xlink:title=" ">
<path fill="none" stroke="#63b8ff" d="M1156.76,-111.15C1103.8,-101.23 1009.82,-83.63 955.32,-73.43"/>
<polygon fill="#63b8ff" stroke="#63b8ff" points="1156.31,-114.63 1166.78,-113.03 1157.6,-107.75 1156.31,-114.63"/>
</a>
</g>
</g>
<!-- Node5 -->
<g id="Node000005" class="node">
<title>Node5</title>
<g id="a_Node000005"><a xlink:href="AS7331Sensor_8cpp.html" target="_top" xlink:title=" ">
<polygon fill="white" stroke="#666666" points="1040,-19 934,-19 934,0 1040,0 1040,-19"/>
<text text-anchor="middle" x="987" y="-7" font-family="Helvetica,sans-Serif" font-size="10.00">AS7331Sensor.cpp</text>
</a>
</g>
</g>
<!-- Node4&#45;&gt;Node5 -->
<g id="edge4_Node000004_Node000005" class="edge">
<title>Node4&#45;&gt;Node5</title>
<g id="a_edge4_Node000004_Node000005"><a xlink:title=" ">
<path fill="none" stroke="#63b8ff" d="M1009.84,-46.1C1004.03,-37.04 997.18,-26.37 992.51,-19.09"/>
<polygon fill="#63b8ff" stroke="#63b8ff" points="1007.04,-48.22 1015.39,-54.75 1012.93,-44.44 1007.04,-48.22"/>
</a>
</g>
</g>
<!-- Node4&#45;&gt;Node6 -->
<g id="edge5_Node000004_Node000006" class="edge">
<title>Node4&#45;&gt;Node6</title>
<g id="a_edge5_Node000004_Node000006"><a xlink:title=" ">
<path fill="none" stroke="#63b8ff" d="M970.91,-52.89C928.36,-43.88 865.68,-30.6 811,-19 808.08,-18.38 805.05,-17.74 802.01,-17.09"/>
<polygon fill="#63b8ff" stroke="#63b8ff" points="970.23,-56.33 980.74,-54.98 971.68,-49.48 970.23,-56.33"/>
</a>
</g>
</g>
<!-- Node8 -->
<g id="Node000008" class="node">
<title>Node8</title>
<g id="a_Node000008"><a xlink:href="BME280Sensor_8cpp.html" target="_top" xlink:title=" ">
<polygon fill="white" stroke="#666666" points="1686.5,-19 1577.5,-19 1577.5,0 1686.5,0 1686.5,-19"/>
<text text-anchor="middle" x="1632" y="-7" font-family="Helvetica,sans-Serif" font-size="10.00">BME280Sensor.cpp</text>
</a>
</g>
</g>
<!-- Node7&#45;&gt;Node8 -->
<g id="edge7_Node000007_Node000008" class="edge">
<title>Node7&#45;&gt;Node8</title>
<g id="a_edge7_Node000007_Node000008"><a xlink:title=" ">
<path fill="none" stroke="#63b8ff" d="M1625.55,-44.66C1627.2,-35.93 1629.08,-25.99 1630.38,-19.09"/>
<polygon fill="#63b8ff" stroke="#63b8ff" points="1622.07,-44.27 1623.65,-54.75 1628.94,-45.57 1622.07,-44.27"/>
</a>
</g>
</g>
<!-- Node10 -->
<g id="Node000010" class="node">
<title>Node10</title>
<g id="a_Node000010"><a xlink:href="BME680Sensor_8cpp.html" target="_top" xlink:title=" ">
<polygon fill="white" stroke="#666666" points="1813.5,-19 1704.5,-19 1704.5,0 1813.5,0 1813.5,-19"/>
<text text-anchor="middle" x="1759" y="-7" font-family="Helvetica,sans-Serif" font-size="10.00">BME680Sensor.cpp</text>
</a>
</g>
</g>
<!-- Node9&#45;&gt;Node10 -->
<g id="edge9_Node000009_Node000010" class="edge">
<title>Node9&#45;&gt;Node10</title>
<g id="a_edge9_Node000009_Node000010"><a xlink:title=" ">
<path fill="none" stroke="#63b8ff" d="M1755.78,-44.66C1756.6,-35.93 1757.54,-25.99 1758.19,-19.09"/>
<polygon fill="#63b8ff" stroke="#63b8ff" points="1752.28,-44.46 1754.83,-54.75 1759.25,-45.12 1752.28,-44.46"/>
</a>
</g>
</g>
<!-- Node11&#45;&gt;Node6 -->
<g id="edge12_Node000011_Node000006" class="edge">
<title>Node11&#45;&gt;Node6</title>
<g id="a_edge12_Node000011_Node000006"><a xlink:title=" ">
<path fill="none" stroke="#63b8ff" d="M1076.83,-55C957.19,-38.53 925.44,-38.87 811,-19 808.2,-18.51 805.3,-17.97 802.4,-17.4"/>
<polygon fill="#63b8ff" stroke="#63b8ff" points="1076.36,-58.47 1086.75,-56.37 1077.32,-51.53 1076.36,-58.47"/>
</a>
</g>
</g>
<!-- Node12 -->
<g id="Node000012" class="node">
<title>Node12</title>
<g id="a_Node000012"><a xlink:href="BMP390Sensor_8cpp.html" target="_top" xlink:title=" ">
<polygon fill="white" stroke="#666666" points="1167.5,-19 1058.5,-19 1058.5,0 1167.5,0 1167.5,-19"/>
<text text-anchor="middle" x="1113" y="-7" font-family="Helvetica,sans-Serif" font-size="10.00">BMP390Sensor.cpp</text>
</a>
</g>
</g>
<!-- Node11&#45;&gt;Node12 -->
<g id="edge11_Node000011_Node000012" class="edge">
<title>Node11&#45;&gt;Node12</title>
<g id="a_edge11_Node000011_Node000012"><a xlink:title=" ">
<path fill="none" stroke="#63b8ff" d="M1128.2,-45.53C1124.32,-36.6 1119.82,-26.22 1116.73,-19.09"/>
<polygon fill="#63b8ff" stroke="#63b8ff" points="1125.01,-46.97 1132.2,-54.75 1131.43,-44.18 1125.01,-46.97"/>
</a>
</g>
</g>
<!-- Node14 -->
<g id="Node000014" class="node">
<title>Node14</title>
<g id="a_Node000014"><a xlink:href="DS3231Sensor_8cpp.html" target="_top" xlink:title=" ">
<polygon fill="white" stroke="#666666" points="1938.5,-19 1831.5,-19 1831.5,0 1938.5,0 1938.5,-19"/>
<text text-anchor="middle" x="1885" y="-7" font-family="Helvetica,sans-Serif" font-size="10.00">DS3231Sensor.cpp</text>
</a>
</g>
</g>
<!-- Node13&#45;&gt;Node14 -->
<g id="edge14_Node000013_Node000014" class="edge">
<title>Node13&#45;&gt;Node14</title>
<g id="a_edge14_Node000013_Node000014"><a xlink:title=" ">
<path fill="none" stroke="#63b8ff" d="M1879.84,-44.66C1881.16,-35.93 1882.66,-25.99 1883.7,-19.09"/>
<polygon fill="#63b8ff" stroke="#63b8ff" points="1876.35,-44.34 1878.32,-54.75 1883.27,-45.38 1876.35,-44.34"/>
</a>
</g>
</g>
<!-- Node15&#45;&gt;Node6 -->
<g id="edge17_Node000015_Node000006" class="edge">
<title>Node15&#45;&gt;Node6</title>
<g id="a_edge17_Node000015_Node000006"><a xlink:title=" ">
<path fill="none" stroke="#63b8ff" d="M555.64,-53.08C602.06,-44.18 670.44,-30.96 730,-19 733.14,-18.37 736.41,-17.71 739.67,-17.04"/>
<polygon fill="#63b8ff" stroke="#63b8ff" points="554.95,-49.65 545.79,-54.97 556.27,-56.52 554.95,-49.65"/>
</a>
</g>
</g>
<!-- Node16 -->
<g id="Node000016" class="node">
<title>Node16</title>
<g id="a_Node000016"><a xlink:href="ENS160Sensor_8cpp.html" target="_top" xlink:title=" ">
<polygon fill="white" stroke="#666666" points="471.5,-19 364.5,-19 364.5,0 471.5,0 471.5,-19"/>
<text text-anchor="middle" x="418" y="-7" font-family="Helvetica,sans-Serif" font-size="10.00">ENS160Sensor.cpp</text>
</a>
</g>
</g>
<!-- Node15&#45;&gt;Node16 -->
<g id="edge16_Node000015_Node000016" class="edge">
<title>Node15&#45;&gt;Node16</title>
<g id="a_edge16_Node000015_Node000016"><a xlink:title=" ">
<path fill="none" stroke="#63b8ff" d="M478.96,-49.42C463.89,-39.81 444.41,-27.37 431.58,-19.17"/>
<polygon fill="#63b8ff" stroke="#63b8ff" points="477.35,-52.55 487.66,-54.98 481.12,-46.65 477.35,-52.55"/>
</a>
</g>
</g>
<!-- Node17&#45;&gt;Node6 -->
<g id="edge20_Node000017_Node000006" class="edge">
<title>Node17&#45;&gt;Node6</title>
<g id="a_edge20_Node000017_Node000006"><a xlink:title=" ">
<path fill="none" stroke="#63b8ff" d="M1193.31,-54.98C1022.41,-35.91 976.79,-44.32 811,-19 808.19,-18.57 805.29,-18.07 802.38,-17.53"/>
<polygon fill="#63b8ff" stroke="#63b8ff" points="1193.07,-58.47 1203.4,-56.12 1193.86,-51.52 1193.07,-58.47"/>
</a>
</g>
</g>
<!-- Node18 -->
<g id="Node000018" class="node">
<title>Node18</title>
<g id="a_Node000018"><a xlink:href="ICM20948Sensor_8cpp.html" target="_top" xlink:title=" ">
<polygon fill="white" stroke="#666666" points="1304,-19 1186,-19 1186,0 1304,0 1304,-19"/>
<text text-anchor="middle" x="1245" y="-7" font-family="Helvetica,sans-Serif" font-size="10.00">ICM20948Sensor.cpp</text>
</a>
</g>
</g>
<!-- Node17&#45;&gt;Node18 -->
<g id="edge19_Node000017_Node000018" class="edge">
<title>Node17&#45;&gt;Node18</title>
<g id="a_edge19_Node000017_Node000018"><a xlink:title=" ">
<path fill="none" stroke="#63b8ff" d="M1252.8,-44.95C1250.81,-36.15 1248.52,-26.06 1246.94,-19.09"/>
<polygon fill="#63b8ff" stroke="#63b8ff" points="1249.4,-45.77 1255.02,-54.75 1256.22,-44.22 1249.4,-45.77"/>
</a>
</g>
</g>
<!-- Node19&#45;&gt;Node6 -->
<g id="edge23_Node000019_Node000006" class="edge">
<title>Node19&#45;&gt;Node6</title>
<g id="a_edge23_Node000019_Node000006"><a xlink:title=" ">
<path fill="none" stroke="#63b8ff" d="M1318.1,-55.01C1092.28,-30.59 1031.84,-50.14 811,-19 808.19,-18.6 805.28,-18.12 802.37,-17.6"/>
<polygon fill="#63b8ff" stroke="#63b8ff" points="1317.96,-58.51 1328.29,-56.12 1318.73,-51.55 1317.96,-58.51"/>
</a>
</g>
</g>
<!-- Node20 -->
<g id="Node000020" class="node">
<title>Node20</title>
<g id="a_Node000020"><a xlink:href="INA260Sensor_8cpp.html" target="_top" xlink:title=" ">
<polygon fill="white" stroke="#666666" points="1426,-19 1322,-19 1322,0 1426,0 1426,-19"/>
<text text-anchor="middle" x="1374" y="-7" font-family="Helvetica,sans-Serif" font-size="10.00">INA260Sensor.cpp</text>
</a>
</g>
</g>
<!-- Node19&#45;&gt;Node20 -->
<g id="edge22_Node000019_Node000020" class="edge">
<title>Node19&#45;&gt;Node20</title>
<g id="a_edge22_Node000019_Node000020"><a xlink:title=" ">
<path fill="none" stroke="#63b8ff" d="M1374.64,-44.66C1374.48,-35.93 1374.29,-25.99 1374.16,-19.09"/>
<polygon fill="#63b8ff" stroke="#63b8ff" points="1371.15,-44.82 1374.83,-54.75 1378.15,-44.68 1371.15,-44.82"/>
</a>
</g>
</g>
<!-- Node22 -->
<g id="Node000022" class="node">
<title>Node22</title>
<g id="a_Node000022"><a xlink:href="LSM9DS1Sensor_8cpp.html" target="_top" xlink:title=" ">
<polygon fill="white" stroke="#666666" points="2071.5,-19 1956.5,-19 1956.5,0 2071.5,0 2071.5,-19"/>
<text text-anchor="middle" x="2014" y="-7" font-family="Helvetica,sans-Serif" font-size="10.00">LSM9DS1Sensor.cpp</text>
</a>
</g>
</g>
<!-- Node21&#45;&gt;Node22 -->
<g id="edge25_Node000021_Node000022" class="edge">
<title>Node21&#45;&gt;Node22</title>
<g id="a_edge25_Node000021_Node000022"><a xlink:title=" ">
<path fill="none" stroke="#63b8ff" d="M2008.2,-44.66C2009.68,-35.93 2011.37,-25.99 2012.54,-19.09"/>
<polygon fill="#63b8ff" stroke="#63b8ff" points="2004.71,-44.3 2006.49,-54.75 2011.61,-45.48 2004.71,-44.3"/>
</a>
</g>
</g>
<!-- Node23&#45;&gt;Node6 -->
<g id="edge28_Node000023_Node000006" class="edge">
<title>Node23&#45;&gt;Node6</title>
<g id="a_edge28_Node000023_Node000006"><a xlink:title=" ">
<path fill="none" stroke="#63b8ff" d="M1429.63,-55.07C1153.95,-28.93 1080.78,-55.3 811,-19 808.19,-18.62 805.27,-18.15 802.36,-17.63"/>
<polygon fill="#63b8ff" stroke="#63b8ff" points="1429.65,-58.59 1439.94,-56.06 1430.32,-51.62 1429.65,-58.59"/>
</a>
</g>
</g>
<!-- Node24 -->
<g id="Node000024" class="node">
<title>Node24</title>
<g id="a_Node000024"><a xlink:href="MTK3339Sensor_8cpp.html" target="_top" xlink:title=" ">
<polygon fill="white" stroke="#666666" points="1559.5,-19 1444.5,-19 1444.5,0 1559.5,0 1559.5,-19"/>
<text text-anchor="middle" x="1502" y="-7" font-family="Helvetica,sans-Serif" font-size="10.00">MTK3339Sensor.cpp</text>
</a>
</g>
</g>
<!-- Node23&#45;&gt;Node24 -->
<g id="edge27_Node000023_Node000024" class="edge">
<title>Node23&#45;&gt;Node24</title>
<g id="a_edge27_Node000023_Node000024"><a xlink:title=" ">
<path fill="none" stroke="#63b8ff" d="M1495.55,-44.66C1497.2,-35.93 1499.08,-25.99 1500.38,-19.09"/>
<polygon fill="#63b8ff" stroke="#63b8ff" points="1492.07,-44.27 1493.65,-54.75 1498.94,-45.57 1492.07,-44.27"/>
</a>
</g>
</g>
<!-- Node25&#45;&gt;Node6 -->
<g id="edge31_Node000025_Node000006" class="edge">
<title>Node25&#45;&gt;Node6</title>
<g id="a_edge31_Node000025_Node000006"><a xlink:title=" ">
<path fill="none" stroke="#63b8ff" d="M223.91,-54.88C448.61,-29.66 509.08,-49.59 730,-19 733.17,-18.56 736.46,-18.02 739.74,-17.43"/>
<polygon fill="#63b8ff" stroke="#63b8ff" points="223.32,-51.42 213.78,-56.03 224.11,-58.38 223.32,-51.42"/>
</a>
</g>
</g>
<!-- Node26 -->
<g id="Node000026" class="node">
<title>Node26</title>
<g id="a_Node000026"><a xlink:href="OzoneSensor_8cpp.html" target="_top" xlink:title=" ">
<polygon fill="white" stroke="#666666" points="100,-19 0,-19 0,0 100,0 100,-19"/>
<text text-anchor="middle" x="50" y="-7" font-family="Helvetica,sans-Serif" font-size="10.00">OzoneSensor.cpp</text>
</a>
</g>
</g>
<!-- Node25&#45;&gt;Node26 -->
<g id="edge30_Node000025_Node000026" class="edge">
<title>Node25&#45;&gt;Node26</title>
<g id="a_edge30_Node000025_Node000026"><a xlink:title=" ">
<path fill="none" stroke="#63b8ff" d="M140.7,-50.9C118.72,-41.11 88.82,-27.79 69.47,-19.17"/>
<polygon fill="#63b8ff" stroke="#63b8ff" points="139.32,-54.11 149.88,-54.98 142.17,-47.72 139.32,-54.11"/>
</a>
</g>
</g>
<!-- Node27&#45;&gt;Node6 -->
<g id="edge34_Node000027_Node000006" class="edge">
<title>Node27&#45;&gt;Node6</title>
<g id="a_edge34_Node000027_Node000006"><a xlink:title=" ">
<path fill="none" stroke="#63b8ff" d="M683.63,-50.77C704.84,-40.99 733.56,-27.75 752.19,-19.17"/>
<polygon fill="#63b8ff" stroke="#63b8ff" points="682.09,-47.62 674.48,-54.98 685.02,-53.98 682.09,-47.62"/>
</a>
</g>
</g>
<!-- Node28 -->
<g id="Node000028" class="node">
<title>Node28</title>
<g id="a_Node000028"><a xlink:href="PCF8523Sensor_8cpp.html" target="_top" xlink:title=" ">
<polygon fill="white" stroke="#666666" points="602,-19 490,-19 490,0 602,0 602,-19"/>
<text text-anchor="middle" x="546" y="-7" font-family="Helvetica,sans-Serif" font-size="10.00">PCF8523Sensor.cpp</text>
</a>
</g>
</g>
<!-- Node27&#45;&gt;Node28 -->
<g id="edge33_Node000027_Node000028" class="edge">
<title>Node27&#45;&gt;Node28</title>
<g id="a_edge33_Node000027_Node000028"><a xlink:title=" ">
<path fill="none" stroke="#63b8ff" d="M629.3,-50.63C609.03,-40.87 581.73,-27.71 563.99,-19.17"/>
<polygon fill="#63b8ff" stroke="#63b8ff" points="627.8,-53.8 638.33,-54.98 630.84,-47.49 627.8,-53.8"/>
</a>
</g>
</g>
<!-- Node29&#45;&gt;Node6 -->
<g id="edge37_Node000029_Node000006" class="edge">
<title>Node29&#45;&gt;Node6</title>
<g id="a_edge37_Node000029_Node000006"><a xlink:title=" ">
<path fill="none" stroke="#63b8ff" d="M770.36,-44.66C770.52,-35.93 770.71,-25.99 770.84,-19.09"/>
<polygon fill="#63b8ff" stroke="#63b8ff" points="766.85,-44.68 770.17,-54.75 773.85,-44.82 766.85,-44.68"/>
</a>
</g>
</g>
<!-- Node30 -->
<g id="Node000030" class="node">
<title>Node30</title>
<g id="a_Node000030"><a xlink:href="SCD40Sensor_8cpp.html" target="_top" xlink:title=" ">
<polygon fill="white" stroke="#666666" points="721.5,-19 620.5,-19 620.5,0 721.5,0 721.5,-19"/>
<text text-anchor="middle" x="671" y="-7" font-family="Helvetica,sans-Serif" font-size="10.00">SCD40Sensor.cpp</text>
</a>
</g>
</g>
<!-- Node29&#45;&gt;Node30 -->
<g id="edge36_Node000029_Node000030" class="edge">
<title>Node29&#45;&gt;Node30</title>
<g id="a_edge36_Node000029_Node000030"><a xlink:title=" ">
<path fill="none" stroke="#63b8ff" d="M745.22,-50.23C727.06,-40.51 702.94,-27.6 687.2,-19.17"/>
<polygon fill="#63b8ff" stroke="#63b8ff" points="743.63,-53.35 754.09,-54.98 746.93,-47.18 743.63,-53.35"/>
</a>
</g>
</g>
<!-- Node32 -->
<g id="Node000032" class="node">
<title>Node32</title>
<g id="a_Node000032"><a xlink:href="SGP30Sensor_8cpp.html" target="_top" xlink:title=" ">
<polygon fill="white" stroke="#666666" points="2190.5,-19 2089.5,-19 2089.5,0 2190.5,0 2190.5,-19"/>
<text text-anchor="middle" x="2140" y="-7" font-family="Helvetica,sans-Serif" font-size="10.00">SGP30Sensor.cpp</text>
</a>
</g>
</g>
<!-- Node31&#45;&gt;Node32 -->
<g id="edge39_Node000031_Node000032" class="edge">
<title>Node31&#45;&gt;Node32</title>
<g id="a_edge39_Node000031_Node000032"><a xlink:title=" ">
<path fill="none" stroke="#63b8ff" d="M2133.55,-44.66C2135.2,-35.93 2137.08,-25.99 2138.38,-19.09"/>
<polygon fill="#63b8ff" stroke="#63b8ff" points="2130.07,-44.27 2131.65,-54.75 2136.94,-45.57 2130.07,-44.27"/>
</a>
</g>
</g>
<!-- Node33&#45;&gt;Node6 -->
<g id="edge43_Node000033_Node000006" class="edge">
<title>Node33&#45;&gt;Node6</title>
<g id="a_edge43_Node000033_Node000006"><a xlink:title=" ">
<path fill="none" stroke="#63b8ff" d="M330.45,-54.9C508.28,-33.25 556.19,-44.73 730,-19 733.16,-18.53 736.45,-17.97 739.73,-17.37"/>
<polygon fill="#63b8ff" stroke="#63b8ff" points="330,-51.43 320.5,-56.13 330.85,-58.38 330,-51.43"/>
</a>
</g>
</g>
<!-- Node33&#45;&gt;Node16 -->
<g id="edge41_Node000033_Node000016" class="edge">
<title>Node33&#45;&gt;Node16</title>
<g id="a_edge41_Node000033_Node000016"><a xlink:title=" ">
<path fill="none" stroke="#63b8ff" d="M308.36,-51.42C334.71,-41.59 371.26,-27.95 394.77,-19.17"/>
<polygon fill="#63b8ff" stroke="#63b8ff" points="306.96,-48.21 298.81,-54.98 309.41,-54.77 306.96,-48.21"/>
</a>
</g>
</g>
<!-- Node34 -->
<g id="Node000034" class="node">
<title>Node34</title>
<g id="a_Node000034"><a xlink:href="SHTC3Sensor_8cpp.html" target="_top" xlink:title=" ">
<polygon fill="white" stroke="#666666" points="219.5,-19 118.5,-19 118.5,0 219.5,0 219.5,-19"/>
<text text-anchor="middle" x="169" y="-7" font-family="Helvetica,sans-Serif" font-size="10.00">SHTC3Sensor.cpp</text>
</a>
</g>
</g>
<!-- Node33&#45;&gt;Node34 -->
<g id="edge42_Node000033_Node000034" class="edge">
<title>Node33&#45;&gt;Node34</title>
<g id="a_edge42_Node000033_Node000034"><a xlink:title=" ">
<path fill="none" stroke="#63b8ff" d="M249.76,-50.5C230.07,-40.75 203.68,-27.68 186.5,-19.17"/>
<polygon fill="#63b8ff" stroke="#63b8ff" points="248.29,-53.68 258.81,-54.98 251.4,-47.41 248.29,-53.68"/>
</a>
</g>
</g>
<!-- Node35&#45;&gt;Node6 -->
<g id="edge47_Node000035_Node000006" class="edge">
<title>Node35&#45;&gt;Node6</title>
<g id="a_edge47_Node000035_Node000006"><a xlink:title=" ">
<path fill="none" stroke="#63b8ff" d="M445.9,-54.77C572.64,-37.66 606.83,-39.49 730,-19 733.16,-18.48 736.44,-17.88 739.71,-17.25"/>
<polygon fill="#63b8ff" stroke="#63b8ff" points="445.24,-51.33 435.81,-56.15 446.19,-58.26 445.24,-51.33"/>
</a>
</g>
</g>
<!-- Node35&#45;&gt;Node16 -->
<g id="edge45_Node000035_Node000016" class="edge">
<title>Node35&#45;&gt;Node16</title>
<g id="a_edge45_Node000035_Node000016"><a xlink:title=" ">
<path fill="none" stroke="#63b8ff" d="M397.18,-46.1C402.47,-37.04 408.72,-26.37 412.98,-19.09"/>
<polygon fill="#63b8ff" stroke="#63b8ff" points="394.15,-44.35 392.12,-54.75 400.19,-47.88 394.15,-44.35"/>
</a>
</g>
</g>
<!-- Node36 -->
<g id="Node000036" class="node">
<title>Node36</title>
<g id="a_Node000036"><a xlink:href="TMP117Sensor_8cpp.html" target="_top" xlink:title=" ">
<polygon fill="white" stroke="#666666" points="346,-19 238,-19 238,0 346,0 346,-19"/>
<text text-anchor="middle" x="292" y="-7" font-family="Helvetica,sans-Serif" font-size="10.00">TMP117Sensor.cpp</text>
</a>
</g>
</g>
<!-- Node35&#45;&gt;Node36 -->
<g id="edge46_Node000035_Node000036" class="edge">
<title>Node35&#45;&gt;Node36</title>
<g id="a_edge46_Node000035_Node000036"><a xlink:title=" ">
<path fill="none" stroke="#63b8ff" d="M362.74,-49.97C345.37,-40.28 322.51,-27.52 307.54,-19.17"/>
<polygon fill="#63b8ff" stroke="#63b8ff" points="361.3,-53.17 371.74,-54.98 364.71,-47.06 361.3,-53.17"/>
</a>
</g>
</g>
<!-- Node37&#45;&gt;Node6 -->
<g id="edge50_Node000037_Node000006" class="edge">
<title>Node37&#45;&gt;Node6</title>
<g id="a_edge50_Node000037_Node000006"><a xlink:title=" ">
<path fill="none" stroke="#63b8ff" d="M880.64,-51.42C854.29,-41.59 817.74,-27.95 794.23,-19.17"/>
<polygon fill="#63b8ff" stroke="#63b8ff" points="879.59,-54.77 890.19,-54.98 882.04,-48.21 879.59,-54.77"/>
</a>
</g>
</g>
<!-- Node38 -->
<g id="Node000038" class="node">
<title>Node38</title>
<g id="a_Node000038"><a xlink:href="TempSensor_8cpp.html" target="_top" xlink:title=" ">
<polygon fill="white" stroke="#666666" points="915.5,-19 820.5,-19 820.5,0 915.5,0 915.5,-19"/>
<text text-anchor="middle" x="868" y="-7" font-family="Helvetica,sans-Serif" font-size="10.00">TempSensor.cpp</text>
</a>
</g>
</g>
<!-- Node37&#45;&gt;Node38 -->
<g id="edge49_Node000037_Node000038" class="edge">
<title>Node37&#45;&gt;Node38</title>
<g id="a_edge49_Node000037_Node000038"><a xlink:title=" ">
<path fill="none" stroke="#63b8ff" d="M898.95,-46.96C891.11,-37.72 881.67,-26.6 875.29,-19.09"/>
<polygon fill="#63b8ff" stroke="#63b8ff" points="896.43,-49.39 905.57,-54.75 901.76,-44.86 896.43,-49.39"/>
</a>
</g>
</g>
<!-- Node40 -->
<g id="Node000040" class="node">
<title>Node40</title>
<g id="a_Node000040"><a xlink:href="FlashStorage_8h.html" target="_top" xlink:title=" ">
<polygon fill="white" stroke="#666666" points="2402.5,-74 2313.5,-74 2313.5,-55 2402.5,-55 2402.5,-74"/>
<text text-anchor="middle" x="2358" y="-62" font-family="Helvetica,sans-Serif" font-size="10.00">FlashStorage.h</text>
</a>
</g>
</g>
<!-- Node39&#45;&gt;Node40 -->
<g id="edge53_Node000039_Node000040" class="edge">
<title>Node39&#45;&gt;Node40</title>
<g id="a_edge53_Node000039_Node000040"><a xlink:title=" ">
<path fill="none" stroke="#63b8ff" d="M2322.38,-102.52C2331.37,-93.18 2342.36,-81.75 2349.74,-74.09"/>
<polygon fill="#63b8ff" stroke="#63b8ff" points="2319.83,-100.12 2315.42,-109.75 2324.88,-104.97 2319.83,-100.12"/>
</a>
</g>
</g>
<!-- Node39&#45;&gt;Node42 -->
<g id="edge62_Node000039_Node000042" class="edge">
<title>Node39&#45;&gt;Node42</title>
<g id="a_edge62_Node000039_Node000042"><a xlink:title=" ">
<path fill="none" stroke="#63b8ff" d="M2345.3,-106.56C2365.88,-99.09 2391.05,-88.17 2411,-74 2433.16,-58.27 2453.12,-32.81 2462.82,-19.41"/>
<polygon fill="#63b8ff" stroke="#63b8ff" points="2343.89,-103.35 2335.61,-109.96 2346.2,-109.96 2343.89,-103.35"/>
</a>
</g>
</g>
<!-- Node43 -->
<g id="Node000043" class="node">
<title>Node43</title>
<g id="a_Node000043"><a xlink:href="RadioStorage_8h.html" target="_top" xlink:title=" ">
<polygon fill="white" stroke="#666666" points="2588.5,-74 2497.5,-74 2497.5,-55 2588.5,-55 2588.5,-74"/>
<text text-anchor="middle" x="2543" y="-62" font-family="Helvetica,sans-Serif" font-size="10.00">RadioStorage.h</text>
</a>
</g>
</g>
<!-- Node39&#45;&gt;Node43 -->
<g id="edge56_Node000039_Node000043" class="edge">
<title>Node39&#45;&gt;Node43</title>
<g id="a_edge56_Node000039_Node000043"><a xlink:title=" ">
<path fill="none" stroke="#63b8ff" d="M2348.69,-109.14C2392.95,-99.2 2462.28,-83.63 2505.06,-74.02"/>
<polygon fill="#63b8ff" stroke="#63b8ff" points="2347.82,-105.75 2338.83,-111.35 2349.35,-112.58 2347.82,-105.75"/>
</a>
</g>
</g>
<!-- Node45 -->
<g id="Node000045" class="node">
<title>Node45</title>
<g id="a_Node000045"><a xlink:href="SDStorage_8h.html" target="_top" xlink:title=" ">
<polygon fill="white" stroke="#666666" points="2295.5,-74 2218.5,-74 2218.5,-55 2295.5,-55 2295.5,-74"/>
<text text-anchor="middle" x="2257" y="-62" font-family="Helvetica,sans-Serif" font-size="10.00">SDStorage.h</text>
</a>
</g>
</g>
<!-- Node39&#45;&gt;Node45 -->
<g id="edge59_Node000039_Node000045" class="edge">
<title>Node39&#45;&gt;Node45</title>
<g id="a_edge59_Node000039_Node000045"><a xlink:title=" ">
<path fill="none" stroke="#63b8ff" d="M2291.66,-102.24C2282.9,-92.95 2272.26,-81.68 2265.1,-74.09"/>
<polygon fill="#63b8ff" stroke="#63b8ff" points="2289.34,-104.88 2298.74,-109.75 2294.43,-100.07 2289.34,-104.88"/>
</a>
</g>
</g>
<!-- Node41 -->
<g id="Node000041" class="node">
<title>Node41</title>
<g id="a_Node000041"><a xlink:href="FlashStorage_8cpp.html" target="_top" xlink:title=" ">
<polygon fill="white" stroke="#666666" points="2416.5,-19 2315.5,-19 2315.5,0 2416.5,0 2416.5,-19"/>
<text text-anchor="middle" x="2366" y="-7" font-family="Helvetica,sans-Serif" font-size="10.00">FlashStorage.cpp</text>
</a>
</g>
</g>
<!-- Node40&#45;&gt;Node41 -->
<g id="edge54_Node000040_Node000041" class="edge">
<title>Node40&#45;&gt;Node41</title>
<g id="a_edge54_Node000040_Node000041"><a xlink:title=" ">
<path fill="none" stroke="#63b8ff" d="M2360.84,-44.66C2362.16,-35.93 2363.66,-25.99 2364.7,-19.09"/>
<polygon fill="#63b8ff" stroke="#63b8ff" points="2357.35,-44.34 2359.32,-54.75 2364.27,-45.38 2357.35,-44.34"/>
</a>
</g>
</g>
<!-- Node40&#45;&gt;Node42 -->
<g id="edge55_Node000040_Node000042" class="edge">
<title>Node40&#45;&gt;Node42</title>
<g id="a_edge55_Node000040_Node000042"><a xlink:title=" ">
<path fill="none" stroke="#63b8ff" d="M2384.95,-50.63C2405.39,-40.87 2432.95,-27.71 2450.84,-19.17"/>
<polygon fill="#63b8ff" stroke="#63b8ff" points="2383.35,-47.52 2375.83,-54.98 2386.37,-53.83 2383.35,-47.52"/>
</a>
</g>
</g>
<!-- Node43&#45;&gt;Node42 -->
<g id="edge58_Node000043_Node000042" class="edge">
<title>Node43&#45;&gt;Node42</title>
<g id="a_edge58_Node000043_Node000042"><a xlink:title=" ">
<path fill="none" stroke="#63b8ff" d="M2522.97,-49.15C2509.59,-39.57 2492.44,-27.29 2481.11,-19.17"/>
<polygon fill="#63b8ff" stroke="#63b8ff" points="2520.94,-52.01 2531.11,-54.98 2525.02,-46.32 2520.94,-52.01"/>
</a>
</g>
</g>
<!-- Node44 -->
<g id="Node000044" class="node">
<title>Node44</title>
<g id="a_Node000044"><a xlink:href="RadioStorage_8cpp.html" target="_top" xlink:title=" ">
<polygon fill="white" stroke="#666666" points="2623,-19 2521,-19 2521,0 2623,0 2623,-19"/>
<text text-anchor="middle" x="2572" y="-7" font-family="Helvetica,sans-Serif" font-size="10.00">RadioStorage.cpp</text>
</a>
</g>
</g>
<!-- Node43&#45;&gt;Node44 -->
<g id="edge57_Node000043_Node000044" class="edge">
<title>Node43&#45;&gt;Node44</title>
<g id="a_edge57_Node000043_Node000044"><a xlink:title=" ">
<path fill="none" stroke="#63b8ff" d="M2552.68,-45.82C2557.6,-36.82 2563.36,-26.29 2567.3,-19.09"/>
<polygon fill="#63b8ff" stroke="#63b8ff" points="2549.52,-44.3 2547.79,-54.75 2555.66,-47.66 2549.52,-44.3"/>
</a>
</g>
</g>
<!-- Node45&#45;&gt;Node42 -->
<g id="edge61_Node000045_Node000042" class="edge">
<title>Node45&#45;&gt;Node42</title>
<g id="a_edge61_Node000045_Node000042"><a xlink:title=" ">
<path fill="none" stroke="#63b8ff" d="M2301,-52.5C2340.69,-42.58 2398.28,-28.18 2434.67,-19.08"/>
<polygon fill="#63b8ff" stroke="#63b8ff" points="2299.91,-49.16 2291.06,-54.98 2301.61,-55.95 2299.91,-49.16"/>
</a>
</g>
</g>
<!-- Node46 -->
<g id="Node000046" class="node">
<title>Node46</title>
<g id="a_Node000046"><a xlink:href="SDStorage_8cpp.html" target="_top" xlink:title=" ">
<polygon fill="white" stroke="#666666" points="2297,-19 2209,-19 2209,0 2297,0 2297,-19"/>
<text text-anchor="middle" x="2253" y="-7" font-family="Helvetica,sans-Serif" font-size="10.00">SDStorage.cpp</text>
</a>
</g>
</g>
<!-- Node45&#45;&gt;Node46 -->
<g id="edge60_Node000045_Node000046" class="edge">
<title>Node45&#45;&gt;Node46</title>
<g id="a_edge60_Node000045_Node000046"><a xlink:title=" ">
<path fill="none" stroke="#63b8ff" d="M2255.58,-44.66C2254.92,-35.93 2254.17,-25.99 2253.65,-19.09"/>
<polygon fill="#63b8ff" stroke="#63b8ff" points="2252.1,-45.04 2256.34,-54.75 2259.08,-44.51 2252.1,-45.04"/>
</a>
</g>
</g>
</g>
</svg>
