<?xml version="1.0" encoding="UTF-8" standalone="no"?>
<!DOCTYPE svg PUBLIC "-//W3C//DTD SVG 1.1//EN"
 "http://www.w3.org/Graphics/SVG/1.1/DTD/svg11.dtd">
<!-- Generated by graphviz version 2.43.0 (0)
 -->
<!-- Title: Logger.h Pages: 1 -->
<svg width="2393pt" height="247pt"
 viewBox="0.00 0.00 2392.50 247.00" xmlns="http://www.w3.org/2000/svg" xmlns:xlink="http://www.w3.org/1999/xlink">
<g id="graph0" class="graph" transform="scale(1 1) rotate(0) translate(4 243)">
<title>Logger.h</title>
<!-- Node1 -->
<g id="Node000001" class="node">
<title>Node1</title>
<g id="a_Node000001"><a xlink:title=" ">
<polygon fill="#999999" stroke="#666666" points="1788.5,-239 1730.5,-239 1730.5,-220 1788.5,-220 1788.5,-239"/>
<text text-anchor="middle" x="1759.5" y="-227" font-family="Helvetica,sans-Serif" font-size="10.00">Logger.h</text>
</a>
</g>
</g>
<!-- Node2 -->
<g id="Node000002" class="node">
<title>Node2</title>
<g id="a_Node000002"><a xlink:href="Device_8h.html" target="_top" xlink:title=" ">
<polygon fill="white" stroke="#666666" points="1731,-184 1672,-184 1672,-165 1731,-165 1731,-184"/>
<text text-anchor="middle" x="1701.5" y="-172" font-family="Helvetica,sans-Serif" font-size="10.00">Device.h</text>
</a>
</g>
</g>
<!-- Node1&#45;&gt;Node2 -->
<g id="edge1_Node000001_Node000002" class="edge">
<title>Node1&#45;&gt;Node2</title>
<g id="a_edge1_Node000001_Node000002"><a xlink:title=" ">
<path fill="none" stroke="#63b8ff" d="M1742.59,-213.04C1732.3,-203.64 1719.53,-191.98 1710.99,-184.17"/>
<polygon fill="#63b8ff" stroke="#63b8ff" points="1740.44,-215.82 1750.18,-219.98 1745.16,-210.66 1740.44,-215.82"/>
</a>
</g>
</g>
<!-- Node3 -->
<g id="Node000003" class="node">
<title>Node3</title>
<g id="a_Node000003"><a xlink:href="Sensor_8h.html" target="_top" xlink:title=" ">
<polygon fill="white" stroke="#666666" points="1154.5,-129 1096.5,-129 1096.5,-110 1154.5,-110 1154.5,-129"/>
<text text-anchor="middle" x="1125.5" y="-117" font-family="Helvetica,sans-Serif" font-size="10.00">Sensor.h</text>
</a>
</g>
</g>
<!-- Node1&#45;&gt;Node3 -->
<g id="edge56_Node000001_Node000003" class="edge">
<title>Node1&#45;&gt;Node3</title>
<g id="a_edge56_Node000001_Node000003"><a xlink:title=" ">
<path fill="none" stroke="#63b8ff" d="M1720.22,-221.81C1603.08,-201.85 1257.9,-143.05 1154.86,-125.5"/>
<polygon fill="#63b8ff" stroke="#63b8ff" points="1719.75,-225.28 1730.19,-223.51 1720.92,-218.38 1719.75,-225.28"/>
</a>
</g>
</g>
<!-- Node6 -->
<g id="Node000006" class="node">
<title>Node6</title>
<g id="a_Node000006"><a xlink:href="main_8cpp.html" target="_top" xlink:title="Main functions for Core 0, responsible for reading data from sensor peripherals.">
<polygon fill="white" stroke="#666666" points="1435.5,-19 1373.5,-19 1373.5,0 1435.5,0 1435.5,-19"/>
<text text-anchor="middle" x="1404.5" y="-7" font-family="Helvetica,sans-Serif" font-size="10.00">main.cpp</text>
</a>
</g>
</g>
<!-- Node1&#45;&gt;Node6 -->
<g id="edge58_Node000001_Node000006" class="edge">
<title>Node1&#45;&gt;Node6</title>
<g id="a_edge58_Node000001_Node000006"><a xlink:title=" ">
<path fill="none" stroke="#63b8ff" d="M1764.07,-209.76C1771.52,-174.17 1781.63,-96.62 1740.5,-55 1693.93,-7.87 1509.86,-29.9 1444.5,-19 1441.7,-18.53 1438.8,-18 1435.89,-17.44"/>
<polygon fill="#63b8ff" stroke="#63b8ff" points="1760.61,-209.22 1761.81,-219.75 1767.43,-210.76 1760.61,-209.22"/>
</a>
</g>
</g>
<!-- Node35 -->
<g id="Node000035" class="node">
<title>Node35</title>
<g id="a_Node000035"><a xlink:href="Storage_8h.html" target="_top" xlink:title=" ">
<polygon fill="white" stroke="#666666" points="2086,-129 2023,-129 2023,-110 2086,-110 2086,-129"/>
<text text-anchor="middle" x="2054.5" y="-117" font-family="Helvetica,sans-Serif" font-size="10.00">Storage.h</text>
</a>
</g>
</g>
<!-- Node1&#45;&gt;Node35 -->
<g id="edge57_Node000001_Node000035" class="edge">
<title>Node1&#45;&gt;Node35</title>
<g id="a_edge57_Node000001_Node000035"><a xlink:title=" ">
<path fill="none" stroke="#63b8ff" d="M1792.56,-216.4C1852.79,-194.34 1978.98,-148.15 2031.15,-129.05"/>
<polygon fill="#63b8ff" stroke="#63b8ff" points="1791.33,-213.12 1783.14,-219.84 1793.74,-219.69 1791.33,-213.12"/>
</a>
</g>
</g>
<!-- Node38 -->
<g id="Node000038" class="node">
<title>Node38</title>
<g id="a_Node000038"><a xlink:href="main1_8cpp.html" target="_top" xlink:title="Main functions for Core 1, responsible for sending data to storage peripherals.">
<polygon fill="white" stroke="#666666" points="2264.5,-19 2196.5,-19 2196.5,0 2264.5,0 2264.5,-19"/>
<text text-anchor="middle" x="2230.5" y="-7" font-family="Helvetica,sans-Serif" font-size="10.00">main1.cpp</text>
</a>
</g>
</g>
<!-- Node1&#45;&gt;Node38 -->
<g id="edge59_Node000001_Node000038" class="edge">
<title>Node1&#45;&gt;Node38</title>
<g id="a_edge59_Node000001_Node000038"><a xlink:title=" ">
<path fill="none" stroke="#63b8ff" d="M1798.63,-223.43C1912.5,-207.8 2239.55,-156.37 2301.5,-74 2318.6,-51.27 2280.67,-30.42 2253.94,-19.18"/>
<polygon fill="#63b8ff" stroke="#63b8ff" points="1798.04,-219.98 1788.6,-224.79 1798.98,-226.92 1798.04,-219.98"/>
</a>
</g>
</g>
<!-- Node2&#45;&gt;Node3 -->
<g id="edge2_Node000002_Node000003" class="edge">
<title>Node2&#45;&gt;Node3</title>
<g id="a_edge2_Node000002_Node000003"><a xlink:title=" ">
<path fill="none" stroke="#63b8ff" d="M1661.47,-169.82C1552.11,-159.75 1250.07,-131.96 1154.73,-123.19"/>
<polygon fill="#63b8ff" stroke="#63b8ff" points="1661.47,-173.33 1671.74,-170.76 1662.11,-166.36 1661.47,-173.33"/>
</a>
</g>
</g>
<!-- Node2&#45;&gt;Node35 -->
<g id="edge44_Node000002_Node000035" class="edge">
<title>Node2&#45;&gt;Node35</title>
<g id="a_edge44_Node000002_Node000035"><a xlink:title=" ">
<path fill="none" stroke="#63b8ff" d="M1741.6,-167.48C1812.49,-156.84 1958.56,-134.9 2022.9,-125.25"/>
<polygon fill="#63b8ff" stroke="#63b8ff" points="1740.66,-164.08 1731.29,-169.03 1741.7,-171 1740.66,-164.08"/>
</a>
</g>
</g>
<!-- Node4 -->
<g id="Node000004" class="node">
<title>Node4</title>
<g id="a_Node000004"><a xlink:href="AS7331Sensor_8h.html" target="_top" xlink:title=" ">
<polygon fill="white" stroke="#666666" points="1227,-74 1132,-74 1132,-55 1227,-55 1227,-74"/>
<text text-anchor="middle" x="1179.5" y="-62" font-family="Helvetica,sans-Serif" font-size="10.00">AS7331Sensor.h</text>
</a>
</g>
</g>
<!-- Node3&#45;&gt;Node4 -->
<g id="edge3_Node000003_Node000004" class="edge">
<title>Node3&#45;&gt;Node4</title>
<g id="a_edge3_Node000003_Node000004"><a xlink:title=" ">
<path fill="none" stroke="#63b8ff" d="M1141.78,-102.52C1151.3,-93.18 1162.94,-81.75 1170.75,-74.09"/>
<polygon fill="#63b8ff" stroke="#63b8ff" points="1139.1,-100.25 1134.42,-109.75 1144.01,-105.24 1139.1,-100.25"/>
</a>
</g>
</g>
<!-- Node3&#45;&gt;Node6 -->
<g id="edge43_Node000003_Node000006" class="edge">
<title>Node3&#45;&gt;Node6</title>
<g id="a_edge43_Node000003_Node000006"><a xlink:title=" ">
<path fill="none" stroke="#63b8ff" d="M1164.8,-118.69C1212.46,-117.23 1293.71,-109.17 1352.5,-74 1375.24,-60.39 1392.39,-33.04 1400.06,-19.09"/>
<polygon fill="#63b8ff" stroke="#63b8ff" points="1164.51,-115.2 1154.59,-118.92 1164.67,-122.19 1164.51,-115.2"/>
</a>
</g>
</g>
<!-- Node7 -->
<g id="Node000007" class="node">
<title>Node7</title>
<g id="a_Node000007"><a xlink:href="BME280Sensor_8h.html" target="_top" xlink:title=" ">
<polygon fill="white" stroke="#666666" points="114.5,-74 16.5,-74 16.5,-55 114.5,-55 114.5,-74"/>
<text text-anchor="middle" x="65.5" y="-62" font-family="Helvetica,sans-Serif" font-size="10.00">BME280Sensor.h</text>
</a>
</g>
</g>
<!-- Node3&#45;&gt;Node7 -->
<g id="edge6_Node000003_Node000007" class="edge">
<title>Node3&#45;&gt;Node7</title>
<g id="a_edge6_Node000003_Node000007"><a xlink:title=" ">
<path fill="none" stroke="#63b8ff" d="M1086.3,-118.01C952.31,-116.07 500.25,-107.31 128.5,-74 123.99,-73.6 119.31,-73.1 114.63,-72.56"/>
<polygon fill="#63b8ff" stroke="#63b8ff" points="1086.43,-121.51 1096.48,-118.15 1086.53,-114.51 1086.43,-121.51"/>
</a>
</g>
</g>
<!-- Node9 -->
<g id="Node000009" class="node">
<title>Node9</title>
<g id="a_Node000009"><a xlink:href="BME680Sensor_8h.html" target="_top" xlink:title=" ">
<polygon fill="white" stroke="#666666" points="235.5,-74 137.5,-74 137.5,-55 235.5,-55 235.5,-74"/>
<text text-anchor="middle" x="186.5" y="-62" font-family="Helvetica,sans-Serif" font-size="10.00">BME680Sensor.h</text>
</a>
</g>
</g>
<!-- Node3&#45;&gt;Node9 -->
<g id="edge8_Node000003_Node000009" class="edge">
<title>Node3&#45;&gt;Node9</title>
<g id="a_edge8_Node000003_Node000009"><a xlink:title=" ">
<path fill="none" stroke="#63b8ff" d="M1086.08,-117.49C963.08,-114.11 575.39,-101.85 255.5,-74 249.13,-73.45 242.44,-72.76 235.83,-72.01"/>
<polygon fill="#63b8ff" stroke="#63b8ff" points="1086.07,-120.99 1096.16,-117.76 1086.26,-113.99 1086.07,-120.99"/>
</a>
</g>
</g>
<!-- Node11 -->
<g id="Node000011" class="node">
<title>Node11</title>
<g id="a_Node000011"><a xlink:href="BMP390Sensor_8h.html" target="_top" xlink:title=" ">
<polygon fill="white" stroke="#666666" points="1343.5,-74 1245.5,-74 1245.5,-55 1343.5,-55 1343.5,-74"/>
<text text-anchor="middle" x="1294.5" y="-62" font-family="Helvetica,sans-Serif" font-size="10.00">BMP390Sensor.h</text>
</a>
</g>
</g>
<!-- Node3&#45;&gt;Node11 -->
<g id="edge10_Node000003_Node000011" class="edge">
<title>Node3&#45;&gt;Node11</title>
<g id="a_edge10_Node000003_Node000011"><a xlink:title=" ">
<path fill="none" stroke="#63b8ff" d="M1162.4,-106.93C1193.97,-97.03 1238.68,-83.01 1267.13,-74.08"/>
<polygon fill="#63b8ff" stroke="#63b8ff" points="1161.15,-103.65 1152.65,-109.98 1163.24,-110.33 1161.15,-103.65"/>
</a>
</g>
</g>
<!-- Node13 -->
<g id="Node000013" class="node">
<title>Node13</title>
<g id="a_Node000013"><a xlink:href="DS3231Sensor_8h.html" target="_top" xlink:title=" ">
<polygon fill="white" stroke="#666666" points="360,-74 265,-74 265,-55 360,-55 360,-74"/>
<text text-anchor="middle" x="312.5" y="-62" font-family="Helvetica,sans-Serif" font-size="10.00">DS3231Sensor.h</text>
</a>
</g>
</g>
<!-- Node3&#45;&gt;Node13 -->
<g id="edge13_Node000003_Node000013" class="edge">
<title>Node3&#45;&gt;Node13</title>
<g id="a_edge13_Node000003_Node000013"><a xlink:title=" ">
<path fill="none" stroke="#63b8ff" d="M1086.28,-117.05C975.34,-112.76 649.86,-98.85 380.5,-74 373.87,-73.39 366.88,-72.64 360.01,-71.84"/>
<polygon fill="#63b8ff" stroke="#63b8ff" points="1086.21,-120.55 1096.34,-117.44 1086.48,-113.56 1086.21,-120.55"/>
</a>
</g>
</g>
<!-- Node15 -->
<g id="Node000015" class="node">
<title>Node15</title>
<g id="a_Node000015"><a xlink:href="ENS160Sensor_8h.html" target="_top" xlink:title=" ">
<polygon fill="white" stroke="#666666" points="1495,-74 1400,-74 1400,-55 1495,-55 1495,-74"/>
<text text-anchor="middle" x="1447.5" y="-62" font-family="Helvetica,sans-Serif" font-size="10.00">ENS160Sensor.h</text>
</a>
</g>
</g>
<!-- Node3&#45;&gt;Node15 -->
<g id="edge15_Node000003_Node000015" class="edge">
<title>Node3&#45;&gt;Node15</title>
<g id="a_edge15_Node000003_Node000015"><a xlink:title=" ">
<path fill="none" stroke="#63b8ff" d="M1164.72,-112.05C1223.93,-102.3 1336.01,-83.85 1399.85,-73.34"/>
<polygon fill="#63b8ff" stroke="#63b8ff" points="1163.94,-108.63 1154.64,-113.7 1165.08,-115.53 1163.94,-108.63"/>
</a>
</g>
</g>
<!-- Node17 -->
<g id="Node000017" class="node">
<title>Node17</title>
<g id="a_Node000017"><a xlink:href="ICM20948Sensor_8h.html" target="_top" xlink:title=" ">
<polygon fill="white" stroke="#666666" points="1620,-74 1513,-74 1513,-55 1620,-55 1620,-74"/>
<text text-anchor="middle" x="1566.5" y="-62" font-family="Helvetica,sans-Serif" font-size="10.00">ICM20948Sensor.h</text>
</a>
</g>
</g>
<!-- Node3&#45;&gt;Node17 -->
<g id="edge18_Node000003_Node000017" class="edge">
<title>Node3&#45;&gt;Node17</title>
<g id="a_edge18_Node000003_Node000017"><a xlink:title=" ">
<path fill="none" stroke="#63b8ff" d="M1164.89,-114.09C1233.65,-106.33 1380.03,-89.6 1503.5,-74 1506.57,-73.61 1509.71,-73.21 1512.89,-72.8"/>
<polygon fill="#63b8ff" stroke="#63b8ff" points="1164.47,-110.61 1154.93,-115.21 1165.26,-117.57 1164.47,-110.61"/>
</a>
</g>
</g>
<!-- Node19 -->
<g id="Node000019" class="node">
<title>Node19</title>
<g id="a_Node000019"><a xlink:href="INA260Sensor_8h.html" target="_top" xlink:title=" ">
<polygon fill="white" stroke="#666666" points="1731,-74 1638,-74 1638,-55 1731,-55 1731,-74"/>
<text text-anchor="middle" x="1684.5" y="-62" font-family="Helvetica,sans-Serif" font-size="10.00">INA260Sensor.h</text>
</a>
</g>
</g>
<!-- Node3&#45;&gt;Node19 -->
<g id="edge21_Node000003_Node000019" class="edge">
<title>Node3&#45;&gt;Node19</title>
<g id="a_edge21_Node000003_Node000019"><a xlink:title=" ">
<path fill="none" stroke="#63b8ff" d="M1164.99,-115.85C1249.95,-109.96 1456.34,-94.66 1628.5,-74 1631.53,-73.64 1634.64,-73.24 1637.78,-72.81"/>
<polygon fill="#63b8ff" stroke="#63b8ff" points="1164.5,-112.37 1154.77,-116.55 1164.98,-119.36 1164.5,-112.37"/>
</a>
</g>
</g>
<!-- Node21 -->
<g id="Node000021" class="node">
<title>Node21</title>
<g id="a_Node000021"><a xlink:href="LSM9DS1Sensor_8h.html" target="_top" xlink:title=" ">
<polygon fill="white" stroke="#666666" points="493.5,-74 389.5,-74 389.5,-55 493.5,-55 493.5,-74"/>
<text text-anchor="middle" x="441.5" y="-62" font-family="Helvetica,sans-Serif" font-size="10.00">LSM9DS1Sensor.h</text>
</a>
</g>
</g>
<!-- Node3&#45;&gt;Node21 -->
<g id="edge24_Node000003_Node000021" class="edge">
<title>Node3&#45;&gt;Node21</title>
<g id="a_edge24_Node000003_Node000021"><a xlink:title=" ">
<path fill="none" stroke="#63b8ff" d="M1085.99,-115.65C991.52,-108.79 745.13,-90.72 539.5,-74 524.61,-72.79 508.44,-71.41 493.62,-70.13"/>
<polygon fill="#63b8ff" stroke="#63b8ff" points="1086,-119.16 1096.22,-116.39 1086.5,-112.17 1086,-119.16"/>
</a>
</g>
</g>
<!-- Node23 -->
<g id="Node000023" class="node">
<title>Node23</title>
<g id="a_Node000023"><a xlink:href="MTK3339Sensor_8h.html" target="_top" xlink:title=" ">
<polygon fill="white" stroke="#666666" points="1891.5,-74 1787.5,-74 1787.5,-55 1891.5,-55 1891.5,-74"/>
<text text-anchor="middle" x="1839.5" y="-62" font-family="Helvetica,sans-Serif" font-size="10.00">MTK3339Sensor.h</text>
</a>
</g>
</g>
<!-- Node3&#45;&gt;Node23 -->
<g id="edge26_Node000003_Node000023" class="edge">
<title>Node3&#45;&gt;Node23</title>
<g id="a_edge26_Node000003_Node000023"><a xlink:title=" ">
<path fill="none" stroke="#63b8ff" d="M1164.62,-115.85C1261.98,-109.22 1522.99,-91.21 1740.5,-74 1755.72,-72.8 1772.25,-71.41 1787.36,-70.11"/>
<polygon fill="#63b8ff" stroke="#63b8ff" points="1164.38,-112.36 1154.64,-116.53 1164.86,-119.34 1164.38,-112.36"/>
</a>
</g>
</g>
<!-- Node25 -->
<g id="Node000025" class="node">
<title>Node25</title>
<g id="a_Node000025"><a xlink:href="PCF8523Sensor_8h.html" target="_top" xlink:title=" ">
<polygon fill="white" stroke="#666666" points="789,-74 688,-74 688,-55 789,-55 789,-74"/>
<text text-anchor="middle" x="738.5" y="-62" font-family="Helvetica,sans-Serif" font-size="10.00">PCF8523Sensor.h</text>
</a>
</g>
</g>
<!-- Node3&#45;&gt;Node25 -->
<g id="edge29_Node000003_Node000025" class="edge">
<title>Node3&#45;&gt;Node25</title>
<g id="a_edge29_Node000003_Node000025"><a xlink:title=" ">
<path fill="none" stroke="#63b8ff" d="M1086.02,-113.25C1024.4,-105.03 901.6,-88.56 797.5,-74 794.73,-73.61 791.89,-73.21 789.03,-72.81"/>
<polygon fill="#63b8ff" stroke="#63b8ff" points="1085.71,-116.74 1096.09,-114.59 1086.64,-109.8 1085.71,-116.74"/>
</a>
</g>
</g>
<!-- Node27 -->
<g id="Node000027" class="node">
<title>Node27</title>
<g id="a_Node000027"><a xlink:href="SGP30Sensor_8h.html" target="_top" xlink:title=" ">
<polygon fill="white" stroke="#666666" points="638,-74 549,-74 549,-55 638,-55 638,-74"/>
<text text-anchor="middle" x="593.5" y="-62" font-family="Helvetica,sans-Serif" font-size="10.00">SGP30Sensor.h</text>
</a>
</g>
</g>
<!-- Node3&#45;&gt;Node27 -->
<g id="edge32_Node000003_Node000027" class="edge">
<title>Node3&#45;&gt;Node27</title>
<g id="a_edge32_Node000003_Node000027"><a xlink:title=" ">
<path fill="none" stroke="#63b8ff" d="M1086.18,-114.59C1008.35,-106.85 829.14,-89.03 678.5,-74 665.37,-72.69 651.09,-71.26 638.06,-69.96"/>
<polygon fill="#63b8ff" stroke="#63b8ff" points="1086.18,-118.11 1096.48,-115.61 1086.87,-111.14 1086.18,-118.11"/>
</a>
</g>
</g>
<!-- Node29 -->
<g id="Node000029" class="node">
<title>Node29</title>
<g id="a_Node000029"><a xlink:href="SHTC3Sensor_8h.html" target="_top" xlink:title=" ">
<polygon fill="white" stroke="#666666" points="896,-74 807,-74 807,-55 896,-55 896,-74"/>
<text text-anchor="middle" x="851.5" y="-62" font-family="Helvetica,sans-Serif" font-size="10.00">SHTC3Sensor.h</text>
</a>
</g>
</g>
<!-- Node3&#45;&gt;Node29 -->
<g id="edge34_Node000003_Node000029" class="edge">
<title>Node3&#45;&gt;Node29</title>
<g id="a_edge34_Node000003_Node000029"><a xlink:title=" ">
<path fill="none" stroke="#63b8ff" d="M1086.56,-110.97C1036.12,-101.21 948.39,-84.24 895.55,-74.02"/>
<polygon fill="#63b8ff" stroke="#63b8ff" points="1085.95,-114.42 1096.44,-112.88 1087.28,-107.54 1085.95,-114.42"/>
</a>
</g>
</g>
<!-- Node31 -->
<g id="Node000031" class="node">
<title>Node31</title>
<g id="a_Node000031"><a xlink:href="TMP117Sensor_8h.html" target="_top" xlink:title=" ">
<polygon fill="white" stroke="#666666" points="1011,-74 914,-74 914,-55 1011,-55 1011,-74"/>
<text text-anchor="middle" x="962.5" y="-62" font-family="Helvetica,sans-Serif" font-size="10.00">TMP117Sensor.h</text>
</a>
</g>
</g>
<!-- Node3&#45;&gt;Node31 -->
<g id="edge37_Node000003_Node000031" class="edge">
<title>Node3&#45;&gt;Node31</title>
<g id="a_edge37_Node000003_Node000031"><a xlink:title=" ">
<path fill="none" stroke="#63b8ff" d="M1089.51,-106.8C1059.09,-96.91 1016.22,-82.97 988.89,-74.08"/>
<polygon fill="#63b8ff" stroke="#63b8ff" points="1088.72,-110.22 1099.31,-109.98 1090.88,-103.56 1088.72,-110.22"/>
</a>
</g>
</g>
<!-- Node33 -->
<g id="Node000033" class="node">
<title>Node33</title>
<g id="a_Node000033"><a xlink:href="TempSensor_8h.html" target="_top" xlink:title=" ">
<polygon fill="white" stroke="#666666" points="1113.5,-74 1029.5,-74 1029.5,-55 1113.5,-55 1113.5,-74"/>
<text text-anchor="middle" x="1071.5" y="-62" font-family="Helvetica,sans-Serif" font-size="10.00">TempSensor.h</text>
</a>
</g>
</g>
<!-- Node3&#45;&gt;Node33 -->
<g id="edge40_Node000003_Node000033" class="edge">
<title>Node3&#45;&gt;Node33</title>
<g id="a_edge40_Node000003_Node000033"><a xlink:title=" ">
<path fill="none" stroke="#63b8ff" d="M1109.22,-102.52C1099.7,-93.18 1088.06,-81.75 1080.25,-74.09"/>
<polygon fill="#63b8ff" stroke="#63b8ff" points="1106.99,-105.24 1116.58,-109.75 1111.9,-100.25 1106.99,-105.24"/>
</a>
</g>
</g>
<!-- Node5 -->
<g id="Node000005" class="node">
<title>Node5</title>
<g id="a_Node000005"><a xlink:href="AS7331Sensor_8cpp.html" target="_top" xlink:title=" ">
<polygon fill="white" stroke="#666666" points="1227.5,-19 1121.5,-19 1121.5,0 1227.5,0 1227.5,-19"/>
<text text-anchor="middle" x="1174.5" y="-7" font-family="Helvetica,sans-Serif" font-size="10.00">AS7331Sensor.cpp</text>
</a>
</g>
</g>
<!-- Node4&#45;&gt;Node5 -->
<g id="edge4_Node000004_Node000005" class="edge">
<title>Node4&#45;&gt;Node5</title>
<g id="a_edge4_Node000004_Node000005"><a xlink:title=" ">
<path fill="none" stroke="#63b8ff" d="M1177.72,-44.66C1176.9,-35.93 1175.96,-25.99 1175.31,-19.09"/>
<polygon fill="#63b8ff" stroke="#63b8ff" points="1174.25,-45.12 1178.67,-54.75 1181.22,-44.46 1174.25,-45.12"/>
</a>
</g>
</g>
<!-- Node4&#45;&gt;Node6 -->
<g id="edge5_Node000004_Node000006" class="edge">
<title>Node4&#45;&gt;Node6</title>
<g id="a_edge5_Node000004_Node000006"><a xlink:title=" ">
<path fill="none" stroke="#63b8ff" d="M1225.53,-52.66C1269.58,-42.28 1334.81,-26.92 1373.16,-17.88"/>
<polygon fill="#63b8ff" stroke="#63b8ff" points="1224.58,-49.28 1215.65,-54.98 1226.19,-56.1 1224.58,-49.28"/>
</a>
</g>
</g>
<!-- Node8 -->
<g id="Node000008" class="node">
<title>Node8</title>
<g id="a_Node000008"><a xlink:href="BME280Sensor_8cpp.html" target="_top" xlink:title=" ">
<polygon fill="white" stroke="#666666" points="109,-19 0,-19 0,0 109,0 109,-19"/>
<text text-anchor="middle" x="54.5" y="-7" font-family="Helvetica,sans-Serif" font-size="10.00">BME280Sensor.cpp</text>
</a>
</g>
</g>
<!-- Node7&#45;&gt;Node8 -->
<g id="edge7_Node000007_Node000008" class="edge">
<title>Node7&#45;&gt;Node8</title>
<g id="a_edge7_Node000007_Node000008"><a xlink:title=" ">
<path fill="none" stroke="#63b8ff" d="M61.65,-44.95C59.82,-36.15 57.73,-26.06 56.28,-19.09"/>
<polygon fill="#63b8ff" stroke="#63b8ff" points="58.22,-45.67 63.68,-54.75 65.08,-44.25 58.22,-45.67"/>
</a>
</g>
</g>
<!-- Node10 -->
<g id="Node000010" class="node">
<title>Node10</title>
<g id="a_Node000010"><a xlink:href="BME680Sensor_8cpp.html" target="_top" xlink:title=" ">
<polygon fill="white" stroke="#666666" points="236,-19 127,-19 127,0 236,0 236,-19"/>
<text text-anchor="middle" x="181.5" y="-7" font-family="Helvetica,sans-Serif" font-size="10.00">BME680Sensor.cpp</text>
</a>
</g>
</g>
<!-- Node9&#45;&gt;Node10 -->
<g id="edge9_Node000009_Node000010" class="edge">
<title>Node9&#45;&gt;Node10</title>
<g id="a_edge9_Node000009_Node000010"><a xlink:title=" ">
<path fill="none" stroke="#63b8ff" d="M184.72,-44.66C183.9,-35.93 182.96,-25.99 182.31,-19.09"/>
<polygon fill="#63b8ff" stroke="#63b8ff" points="181.25,-45.12 185.67,-54.75 188.22,-44.46 181.25,-45.12"/>
</a>
</g>
</g>
<!-- Node11&#45;&gt;Node6 -->
<g id="edge12_Node000011_Node000006" class="edge">
<title>Node11&#45;&gt;Node6</title>
<g id="a_edge12_Node000011_Node000006"><a xlink:title=" ">
<path fill="none" stroke="#63b8ff" d="M1321.2,-50.63C1341.47,-40.87 1368.77,-27.71 1386.51,-19.17"/>
<polygon fill="#63b8ff" stroke="#63b8ff" points="1319.66,-47.49 1312.17,-54.98 1322.7,-53.8 1319.66,-47.49"/>
</a>
</g>
</g>
<!-- Node12 -->
<g id="Node000012" class="node">
<title>Node12</title>
<g id="a_Node000012"><a xlink:href="BMP390Sensor_8cpp.html" target="_top" xlink:title=" ">
<polygon fill="white" stroke="#666666" points="1355,-19 1246,-19 1246,0 1355,0 1355,-19"/>
<text text-anchor="middle" x="1300.5" y="-7" font-family="Helvetica,sans-Serif" font-size="10.00">BMP390Sensor.cpp</text>
</a>
</g>
</g>
<!-- Node11&#45;&gt;Node12 -->
<g id="edge11_Node000011_Node000012" class="edge">
<title>Node11&#45;&gt;Node12</title>
<g id="a_edge11_Node000011_Node000012"><a xlink:title=" ">
<path fill="none" stroke="#63b8ff" d="M1296.63,-44.66C1297.62,-35.93 1298.75,-25.99 1299.53,-19.09"/>
<polygon fill="#63b8ff" stroke="#63b8ff" points="1293.14,-44.42 1295.49,-54.75 1300.09,-45.21 1293.14,-44.42"/>
</a>
</g>
</g>
<!-- Node14 -->
<g id="Node000014" class="node">
<title>Node14</title>
<g id="a_Node000014"><a xlink:href="DS3231Sensor_8cpp.html" target="_top" xlink:title=" ">
<polygon fill="white" stroke="#666666" points="361,-19 254,-19 254,0 361,0 361,-19"/>
<text text-anchor="middle" x="307.5" y="-7" font-family="Helvetica,sans-Serif" font-size="10.00">DS3231Sensor.cpp</text>
</a>
</g>
</g>
<!-- Node13&#45;&gt;Node14 -->
<g id="edge14_Node000013_Node000014" class="edge">
<title>Node13&#45;&gt;Node14</title>
<g id="a_edge14_Node000013_Node000014"><a xlink:title=" ">
<path fill="none" stroke="#63b8ff" d="M310.72,-44.66C309.9,-35.93 308.96,-25.99 308.31,-19.09"/>
<polygon fill="#63b8ff" stroke="#63b8ff" points="307.25,-45.12 311.67,-54.75 314.22,-44.46 307.25,-45.12"/>
</a>
</g>
</g>
<!-- Node15&#45;&gt;Node6 -->
<g id="edge17_Node000015_Node000006" class="edge">
<title>Node15&#45;&gt;Node6</title>
<g id="a_edge17_Node000015_Node000006"><a xlink:title=" ">
<path fill="none" stroke="#63b8ff" d="M1434.08,-46.96C1426.59,-37.72 1417.56,-26.6 1411.47,-19.09"/>
<polygon fill="#63b8ff" stroke="#63b8ff" points="1431.38,-49.19 1440.4,-54.75 1436.82,-44.78 1431.38,-49.19"/>
</a>
</g>
</g>
<!-- Node16 -->
<g id="Node000016" class="node">
<title>Node16</title>
<g id="a_Node000016"><a xlink:href="ENS160Sensor_8cpp.html" target="_top" xlink:title=" ">
<polygon fill="white" stroke="#666666" points="1561,-19 1454,-19 1454,0 1561,0 1561,-19"/>
<text text-anchor="middle" x="1507.5" y="-7" font-family="Helvetica,sans-Serif" font-size="10.00">ENS160Sensor.cpp</text>
</a>
</g>
</g>
<!-- Node15&#45;&gt;Node16 -->
<g id="edge16_Node000015_Node000016" class="edge">
<title>Node15&#45;&gt;Node16</title>
<g id="a_edge16_Node000015_Node000016"><a xlink:title=" ">
<path fill="none" stroke="#63b8ff" d="M1464.68,-48.32C1475.38,-38.87 1488.76,-27.06 1497.68,-19.17"/>
<polygon fill="#63b8ff" stroke="#63b8ff" points="1462.32,-45.74 1457.14,-54.98 1466.95,-50.99 1462.32,-45.74"/>
</a>
</g>
</g>
<!-- Node17&#45;&gt;Node6 -->
<g id="edge20_Node000017_Node000006" class="edge">
<title>Node17&#45;&gt;Node6</title>
<g id="a_edge20_Node000017_Node000006"><a xlink:title=" ">
<path fill="none" stroke="#63b8ff" d="M1530.73,-51.8C1500.5,-41.91 1457.89,-27.97 1430.73,-19.08"/>
<polygon fill="#63b8ff" stroke="#63b8ff" points="1529.88,-55.2 1540.47,-54.98 1532.06,-48.55 1529.88,-55.2"/>
</a>
</g>
</g>
<!-- Node18 -->
<g id="Node000018" class="node">
<title>Node18</title>
<g id="a_Node000018"><a xlink:href="ICM20948Sensor_8cpp.html" target="_top" xlink:title=" ">
<polygon fill="white" stroke="#666666" points="1697.5,-19 1579.5,-19 1579.5,0 1697.5,0 1697.5,-19"/>
<text text-anchor="middle" x="1638.5" y="-7" font-family="Helvetica,sans-Serif" font-size="10.00">ICM20948Sensor.cpp</text>
</a>
</g>
</g>
<!-- Node17&#45;&gt;Node18 -->
<g id="edge19_Node000017_Node000018" class="edge">
<title>Node17&#45;&gt;Node18</title>
<g id="a_edge19_Node000017_Node000018"><a xlink:title=" ">
<path fill="none" stroke="#63b8ff" d="M1586.37,-48.88C1599.32,-39.34 1615.8,-27.21 1626.72,-19.17"/>
<polygon fill="#63b8ff" stroke="#63b8ff" points="1584.05,-46.24 1578.07,-54.98 1588.2,-51.88 1584.05,-46.24"/>
</a>
</g>
</g>
<!-- Node19&#45;&gt;Node6 -->
<g id="edge23_Node000019_Node000006" class="edge">
<title>Node19&#45;&gt;Node6</title>
<g id="a_edge23_Node000019_Node000006"><a xlink:title=" ">
<path fill="none" stroke="#63b8ff" d="M1627.95,-53.44C1579.27,-44.68 1507.17,-31.47 1444.5,-19 1441.71,-18.45 1438.82,-17.86 1435.93,-17.26"/>
<polygon fill="#63b8ff" stroke="#63b8ff" points="1627.51,-56.92 1637.97,-55.24 1628.75,-50.03 1627.51,-56.92"/>
</a>
</g>
</g>
<!-- Node20 -->
<g id="Node000020" class="node">
<title>Node20</title>
<g id="a_Node000020"><a xlink:href="INA260Sensor_8cpp.html" target="_top" xlink:title=" ">
<polygon fill="white" stroke="#666666" points="1819.5,-19 1715.5,-19 1715.5,0 1819.5,0 1819.5,-19"/>
<text text-anchor="middle" x="1767.5" y="-7" font-family="Helvetica,sans-Serif" font-size="10.00">INA260Sensor.cpp</text>
</a>
</g>
</g>
<!-- Node19&#45;&gt;Node20 -->
<g id="edge22_Node000019_Node000020" class="edge">
<title>Node19&#45;&gt;Node20</title>
<g id="a_edge22_Node000019_Node000020"><a xlink:title=" ">
<path fill="none" stroke="#63b8ff" d="M1706.54,-49.42C1721.61,-39.81 1741.09,-27.37 1753.92,-19.17"/>
<polygon fill="#63b8ff" stroke="#63b8ff" points="1704.38,-46.65 1697.84,-54.98 1708.15,-52.55 1704.38,-46.65"/>
</a>
</g>
</g>
<!-- Node22 -->
<g id="Node000022" class="node">
<title>Node22</title>
<g id="a_Node000022"><a xlink:href="LSM9DS1Sensor_8cpp.html" target="_top" xlink:title=" ">
<polygon fill="white" stroke="#666666" points="494,-19 379,-19 379,0 494,0 494,-19"/>
<text text-anchor="middle" x="436.5" y="-7" font-family="Helvetica,sans-Serif" font-size="10.00">LSM9DS1Sensor.cpp</text>
</a>
</g>
</g>
<!-- Node21&#45;&gt;Node22 -->
<g id="edge25_Node000021_Node000022" class="edge">
<title>Node21&#45;&gt;Node22</title>
<g id="a_edge25_Node000021_Node000022"><a xlink:title=" ">
<path fill="none" stroke="#63b8ff" d="M439.72,-44.66C438.9,-35.93 437.96,-25.99 437.31,-19.09"/>
<polygon fill="#63b8ff" stroke="#63b8ff" points="436.25,-45.12 440.67,-54.75 443.22,-44.46 436.25,-45.12"/>
</a>
</g>
</g>
<!-- Node23&#45;&gt;Node6 -->
<g id="edge28_Node000023_Node000006" class="edge">
<title>Node23&#45;&gt;Node6</title>
<g id="a_edge28_Node000023_Node000006"><a xlink:title=" ">
<path fill="none" stroke="#63b8ff" d="M1777.31,-55.46C1776.03,-55.3 1774.76,-55.15 1773.5,-55 1627.44,-37.6 1589.74,-42.32 1444.5,-19 1441.7,-18.55 1438.79,-18.03 1435.89,-17.48"/>
<polygon fill="#63b8ff" stroke="#63b8ff" points="1776.92,-58.94 1787.27,-56.68 1777.77,-51.99 1776.92,-58.94"/>
</a>
</g>
</g>
<!-- Node24 -->
<g id="Node000024" class="node">
<title>Node24</title>
<g id="a_Node000024"><a xlink:href="MTK3339Sensor_8cpp.html" target="_top" xlink:title=" ">
<polygon fill="white" stroke="#666666" points="1953,-19 1838,-19 1838,0 1953,0 1953,-19"/>
<text text-anchor="middle" x="1895.5" y="-7" font-family="Helvetica,sans-Serif" font-size="10.00">MTK3339Sensor.cpp</text>
</a>
</g>
</g>
<!-- Node23&#45;&gt;Node24 -->
<g id="edge27_Node000023_Node000024" class="edge">
<title>Node23&#45;&gt;Node24</title>
<g id="a_edge27_Node000023_Node000024"><a xlink:title=" ">
<path fill="none" stroke="#63b8ff" d="M1855.83,-48.04C1865.76,-38.64 1878.09,-26.98 1886.34,-19.17"/>
<polygon fill="#63b8ff" stroke="#63b8ff" points="1853.35,-45.57 1848.5,-54.98 1858.17,-50.65 1853.35,-45.57"/>
</a>
</g>
</g>
<!-- Node25&#45;&gt;Node6 -->
<g id="edge31_Node000025_Node000006" class="edge">
<title>Node25&#45;&gt;Node6</title>
<g id="a_edge31_Node000025_Node000006"><a xlink:title=" ">
<path fill="none" stroke="#63b8ff" d="M799.46,-54.88C1049.98,-29.62 1116.99,-52.22 1363.5,-19 1366.67,-18.57 1369.96,-18.04 1373.24,-17.45"/>
<polygon fill="#63b8ff" stroke="#63b8ff" points="798.91,-51.42 789.32,-55.92 799.62,-58.38 798.91,-51.42"/>
</a>
</g>
</g>
<!-- Node26 -->
<g id="Node000026" class="node">
<title>Node26</title>
<g id="a_Node000026"><a xlink:href="PCF8523Sensor_8cpp.html" target="_top" xlink:title=" ">
<polygon fill="white" stroke="#666666" points="743.5,-19 631.5,-19 631.5,0 743.5,0 743.5,-19"/>
<text text-anchor="middle" x="687.5" y="-7" font-family="Helvetica,sans-Serif" font-size="10.00">PCF8523Sensor.cpp</text>
</a>
</g>
</g>
<!-- Node25&#45;&gt;Node26 -->
<g id="edge30_Node000025_Node000026" class="edge">
<title>Node25&#45;&gt;Node26</title>
<g id="a_edge30_Node000025_Node000026"><a xlink:title=" ">
<path fill="none" stroke="#63b8ff" d="M723.12,-47.52C714.13,-38.18 703.14,-26.75 695.76,-19.09"/>
<polygon fill="#63b8ff" stroke="#63b8ff" points="720.62,-49.97 730.08,-54.75 725.67,-45.12 720.62,-49.97"/>
</a>
</g>
</g>
<!-- Node28 -->
<g id="Node000028" class="node">
<title>Node28</title>
<g id="a_Node000028"><a xlink:href="SGP30Sensor_8cpp.html" target="_top" xlink:title=" ">
<polygon fill="white" stroke="#666666" points="613,-19 512,-19 512,0 613,0 613,-19"/>
<text text-anchor="middle" x="562.5" y="-7" font-family="Helvetica,sans-Serif" font-size="10.00">SGP30Sensor.cpp</text>
</a>
</g>
</g>
<!-- Node27&#45;&gt;Node28 -->
<g id="edge33_Node000027_Node000028" class="edge">
<title>Node27&#45;&gt;Node28</title>
<g id="a_edge33_Node000027_Node000028"><a xlink:title=" ">
<path fill="none" stroke="#63b8ff" d="M583.32,-46.1C578.03,-37.04 571.78,-26.37 567.52,-19.09"/>
<polygon fill="#63b8ff" stroke="#63b8ff" points="580.31,-47.88 588.38,-54.75 586.35,-44.35 580.31,-47.88"/>
</a>
</g>
</g>
<!-- Node29&#45;&gt;Node6 -->
<g id="edge36_Node000029_Node000006" class="edge">
<title>Node29&#45;&gt;Node6</title>
<g id="a_edge36_Node000029_Node000006"><a xlink:title=" ">
<path fill="none" stroke="#63b8ff" d="M906.38,-54.87C1109.44,-31.32 1164.18,-47.36 1363.5,-19 1366.67,-18.55 1369.96,-18 1373.23,-17.41"/>
<polygon fill="#63b8ff" stroke="#63b8ff" points="905.81,-51.41 896.28,-56.06 906.62,-58.36 905.81,-51.41"/>
</a>
</g>
</g>
<!-- Node30 -->
<g id="Node000030" class="node">
<title>Node30</title>
<g id="a_Node000030"><a xlink:href="SHTC3Sensor_8cpp.html" target="_top" xlink:title=" ">
<polygon fill="white" stroke="#666666" points="863,-19 762,-19 762,0 863,0 863,-19"/>
<text text-anchor="middle" x="812.5" y="-7" font-family="Helvetica,sans-Serif" font-size="10.00">SHTC3Sensor.cpp</text>
</a>
</g>
</g>
<!-- Node29&#45;&gt;Node30 -->
<g id="edge35_Node000029_Node000030" class="edge">
<title>Node29&#45;&gt;Node30</title>
<g id="a_edge35_Node000029_Node000030"><a xlink:title=" ">
<path fill="none" stroke="#63b8ff" d="M839.12,-46.67C832.36,-37.5 824.29,-26.52 818.82,-19.09"/>
<polygon fill="#63b8ff" stroke="#63b8ff" points="836.31,-48.77 845.06,-54.75 841.95,-44.62 836.31,-48.77"/>
</a>
</g>
</g>
<!-- Node31&#45;&gt;Node6 -->
<g id="edge39_Node000031_Node000006" class="edge">
<title>Node31&#45;&gt;Node6</title>
<g id="a_edge39_Node000031_Node000006"><a xlink:title=" ">
<path fill="none" stroke="#63b8ff" d="M1021.45,-54.94C1174.33,-36.16 1215.3,-42.08 1363.5,-19 1366.66,-18.51 1369.95,-17.93 1373.22,-17.32"/>
<polygon fill="#63b8ff" stroke="#63b8ff" points="1020.71,-51.51 1011.21,-56.21 1021.57,-58.45 1020.71,-51.51"/>
</a>
</g>
</g>
<!-- Node32 -->
<g id="Node000032" class="node">
<title>Node32</title>
<g id="a_Node000032"><a xlink:href="TMP117Sensor_8cpp.html" target="_top" xlink:title=" ">
<polygon fill="white" stroke="#666666" points="989.5,-19 881.5,-19 881.5,0 989.5,0 989.5,-19"/>
<text text-anchor="middle" x="935.5" y="-7" font-family="Helvetica,sans-Serif" font-size="10.00">TMP117Sensor.cpp</text>
</a>
</g>
</g>
<!-- Node31&#45;&gt;Node32 -->
<g id="edge38_Node000031_Node000032" class="edge">
<title>Node31&#45;&gt;Node32</title>
<g id="a_edge38_Node000031_Node000032"><a xlink:title=" ">
<path fill="none" stroke="#63b8ff" d="M953.49,-45.82C948.91,-36.82 943.55,-26.29 939.88,-19.09"/>
<polygon fill="#63b8ff" stroke="#63b8ff" points="950.38,-47.43 958.04,-54.75 956.62,-44.25 950.38,-47.43"/>
</a>
</g>
</g>
<!-- Node33&#45;&gt;Node6 -->
<g id="edge42_Node000033_Node000006" class="edge">
<title>Node33&#45;&gt;Node6</title>
<g id="a_edge42_Node000033_Node000006"><a xlink:title=" ">
<path fill="none" stroke="#63b8ff" d="M1123.48,-54.87C1231.15,-38.08 1260,-37.44 1363.5,-19 1366.65,-18.44 1369.93,-17.82 1373.2,-17.18"/>
<polygon fill="#63b8ff" stroke="#63b8ff" points="1122.85,-51.43 1113.52,-56.44 1123.94,-58.35 1122.85,-51.43"/>
</a>
</g>
</g>
<!-- Node34 -->
<g id="Node000034" class="node">
<title>Node34</title>
<g id="a_Node000034"><a xlink:href="TempSensor_8cpp.html" target="_top" xlink:title=" ">
<polygon fill="white" stroke="#666666" points="1103,-19 1008,-19 1008,0 1103,0 1103,-19"/>
<text text-anchor="middle" x="1055.5" y="-7" font-family="Helvetica,sans-Serif" font-size="10.00">TempSensor.cpp</text>
</a>
</g>
</g>
<!-- Node33&#45;&gt;Node34 -->
<g id="edge41_Node000033_Node000034" class="edge">
<title>Node33&#45;&gt;Node34</title>
<g id="a_edge41_Node000033_Node000034"><a xlink:title=" ">
<path fill="none" stroke="#63b8ff" d="M1065.9,-44.95C1063.24,-36.15 1060.2,-26.06 1058.09,-19.09"/>
<polygon fill="#63b8ff" stroke="#63b8ff" points="1062.62,-46.19 1068.86,-54.75 1069.32,-44.16 1062.62,-46.19"/>
</a>
</g>
</g>
<!-- Node36 -->
<g id="Node000036" class="node">
<title>Node36</title>
<g id="a_Node000036"><a xlink:href="FlashStorage_8h.html" target="_top" xlink:title=" ">
<polygon fill="white" stroke="#666666" points="2049,-74 1960,-74 1960,-55 2049,-55 2049,-74"/>
<text text-anchor="middle" x="2004.5" y="-62" font-family="Helvetica,sans-Serif" font-size="10.00">FlashStorage.h</text>
</a>
</g>
</g>
<!-- Node35&#45;&gt;Node36 -->
<g id="edge45_Node000035_Node000036" class="edge">
<title>Node35&#45;&gt;Node36</title>
<g id="a_edge45_Node000035_Node000036"><a xlink:title=" ">
<path fill="none" stroke="#63b8ff" d="M2039.16,-102.24C2030.4,-92.95 2019.76,-81.68 2012.6,-74.09"/>
<polygon fill="#63b8ff" stroke="#63b8ff" points="2036.84,-104.88 2046.24,-109.75 2041.93,-100.07 2036.84,-104.88"/>
</a>
</g>
</g>
<!-- Node35&#45;&gt;Node38 -->
<g id="edge55_Node000035_Node000038" class="edge">
<title>Node35&#45;&gt;Node38</title>
<g id="a_edge55_Node000035_Node000038"><a xlink:title=" ">
<path fill="none" stroke="#63b8ff" d="M2087.7,-106.17C2107.48,-98.21 2132.69,-86.93 2153.5,-74 2180.29,-57.36 2207.9,-32.28 2221.63,-19.18"/>
<polygon fill="#63b8ff" stroke="#63b8ff" points="2086.22,-103 2078.2,-109.92 2088.78,-109.51 2086.22,-103"/>
</a>
</g>
</g>
<!-- Node39 -->
<g id="Node000039" class="node">
<title>Node39</title>
<g id="a_Node000039"><a xlink:href="RadioStorage_8h.html" target="_top" xlink:title=" ">
<polygon fill="white" stroke="#666666" points="2292,-74 2201,-74 2201,-55 2292,-55 2292,-74"/>
<text text-anchor="middle" x="2246.5" y="-62" font-family="Helvetica,sans-Serif" font-size="10.00">RadioStorage.h</text>
</a>
</g>
</g>
<!-- Node35&#45;&gt;Node39 -->
<g id="edge49_Node000035_Node000039" class="edge">
<title>Node35&#45;&gt;Node39</title>
<g id="a_edge49_Node000035_Node000039"><a xlink:title=" ">
<path fill="none" stroke="#63b8ff" d="M2095.03,-107.31C2130.96,-97.39 2182.66,-83.12 2215.41,-74.08"/>
<polygon fill="#63b8ff" stroke="#63b8ff" points="2094.06,-103.95 2085.35,-109.98 2095.92,-110.7 2094.06,-103.95"/>
</a>
</g>
</g>
<!-- Node41 -->
<g id="Node000041" class="node">
<title>Node41</title>
<g id="a_Node000041"><a xlink:href="SDStorage_8h.html" target="_top" xlink:title=" ">
<polygon fill="white" stroke="#666666" points="2144,-74 2067,-74 2067,-55 2144,-55 2144,-74"/>
<text text-anchor="middle" x="2105.5" y="-62" font-family="Helvetica,sans-Serif" font-size="10.00">SDStorage.h</text>
</a>
</g>
</g>
<!-- Node35&#45;&gt;Node41 -->
<g id="edge52_Node000035_Node000041" class="edge">
<title>Node35&#45;&gt;Node41</title>
<g id="a_edge52_Node000035_Node000041"><a xlink:title=" ">
<path fill="none" stroke="#63b8ff" d="M2069.88,-102.52C2078.87,-93.18 2089.86,-81.75 2097.24,-74.09"/>
<polygon fill="#63b8ff" stroke="#63b8ff" points="2067.33,-100.12 2062.92,-109.75 2072.38,-104.97 2067.33,-100.12"/>
</a>
</g>
</g>
<!-- Node36&#45;&gt;Node6 -->
<g id="edge47_Node000036_Node000006" class="edge">
<title>Node36&#45;&gt;Node6</title>
<g id="a_edge47_Node000036_Node000006"><a xlink:title=" ">
<path fill="none" stroke="#63b8ff" d="M1949.77,-59C1933.88,-57.7 1916.5,-56.29 1900.5,-55 1697.86,-38.72 1645.69,-48.19 1444.5,-19 1441.69,-18.59 1438.78,-18.1 1435.87,-17.57"/>
<polygon fill="#63b8ff" stroke="#63b8ff" points="1949.71,-62.51 1959.97,-59.83 1950.29,-55.53 1949.71,-62.51"/>
</a>
</g>
</g>
<!-- Node37 -->
<g id="Node000037" class="node">
<title>Node37</title>
<g id="a_Node000037"><a xlink:href="FlashStorage_8cpp.html" target="_top" xlink:title=" ">
<polygon fill="white" stroke="#666666" points="2072,-19 1971,-19 1971,0 2072,0 2072,-19"/>
<text text-anchor="middle" x="2021.5" y="-7" font-family="Helvetica,sans-Serif" font-size="10.00">FlashStorage.cpp</text>
</a>
</g>
</g>
<!-- Node36&#45;&gt;Node37 -->
<g id="edge46_Node000036_Node000037" class="edge">
<title>Node36&#45;&gt;Node37</title>
<g id="a_edge46_Node000036_Node000037"><a xlink:title=" ">
<path fill="none" stroke="#63b8ff" d="M2010.45,-44.95C2013.27,-36.15 2016.51,-26.06 2018.75,-19.09"/>
<polygon fill="#63b8ff" stroke="#63b8ff" points="2007.03,-44.16 2007.31,-54.75 2013.69,-46.29 2007.03,-44.16"/>
</a>
</g>
</g>
<!-- Node36&#45;&gt;Node38 -->
<g id="edge48_Node000036_Node000038" class="edge">
<title>Node36&#45;&gt;Node38</title>
<g id="a_edge48_Node000036_Node000038"><a xlink:title=" ">
<path fill="none" stroke="#63b8ff" d="M2050.81,-52.64C2094.09,-42.49 2157.72,-27.57 2196.5,-18.47"/>
<polygon fill="#63b8ff" stroke="#63b8ff" points="2049.75,-49.29 2040.81,-54.98 2051.35,-56.11 2049.75,-49.29"/>
</a>
</g>
</g>
<!-- Node39&#45;&gt;Node38 -->
<g id="edge51_Node000039_Node000038" class="edge">
<title>Node39&#45;&gt;Node38</title>
<g id="a_edge51_Node000039_Node000038"><a xlink:title=" ">
<path fill="none" stroke="#63b8ff" d="M2240.9,-44.95C2238.24,-36.15 2235.2,-26.06 2233.09,-19.09"/>
<polygon fill="#63b8ff" stroke="#63b8ff" points="2237.62,-46.19 2243.86,-54.75 2244.32,-44.16 2237.62,-46.19"/>
</a>
</g>
</g>
<!-- Node40 -->
<g id="Node000040" class="node">
<title>Node40</title>
<g id="a_Node000040"><a xlink:href="RadioStorage_8cpp.html" target="_top" xlink:title=" ">
<polygon fill="white" stroke="#666666" points="2384.5,-19 2282.5,-19 2282.5,0 2384.5,0 2384.5,-19"/>
<text text-anchor="middle" x="2333.5" y="-7" font-family="Helvetica,sans-Serif" font-size="10.00">RadioStorage.cpp</text>
</a>
</g>
</g>
<!-- Node39&#45;&gt;Node40 -->
<g id="edge50_Node000039_Node000040" class="edge">
<title>Node39&#45;&gt;Node40</title>
<g id="a_edge50_Node000039_Node000040"><a xlink:title=" ">
<path fill="none" stroke="#63b8ff" d="M2269.16,-49.7C2285.01,-40.04 2305.69,-27.44 2319.27,-19.17"/>
<polygon fill="#63b8ff" stroke="#63b8ff" points="2267.2,-46.79 2260.48,-54.98 2270.84,-52.77 2267.2,-46.79"/>
</a>
</g>
</g>
<!-- Node41&#45;&gt;Node38 -->
<g id="edge54_Node000041_Node000038" class="edge">
<title>Node41&#45;&gt;Node38</title>
<g id="a_edge54_Node000041_Node000038"><a xlink:title=" ">
<path fill="none" stroke="#63b8ff" d="M2134.91,-51.03C2158.03,-41.23 2189.63,-27.83 2210.05,-19.17"/>
<polygon fill="#63b8ff" stroke="#63b8ff" points="2133.42,-47.86 2125.58,-54.98 2136.16,-54.3 2133.42,-47.86"/>
</a>
</g>
</g>
<!-- Node42 -->
<g id="Node000042" class="node">
<title>Node42</title>
<g id="a_Node000042"><a xlink:href="SDStorage_8cpp.html" target="_top" xlink:title=" ">
<polygon fill="white" stroke="#666666" points="2178.5,-19 2090.5,-19 2090.5,0 2178.5,0 2178.5,-19"/>
<text text-anchor="middle" x="2134.5" y="-7" font-family="Helvetica,sans-Serif" font-size="10.00">SDStorage.cpp</text>
</a>
</g>
</g>
<!-- Node41&#45;&gt;Node42 -->
<g id="edge53_Node000041_Node000042" class="edge">
<title>Node41&#45;&gt;Node42</title>
<g id="a_edge53_Node000041_Node000042"><a xlink:title=" ">
<path fill="none" stroke="#63b8ff" d="M2115.18,-45.82C2120.1,-36.82 2125.86,-26.29 2129.8,-19.09"/>
<polygon fill="#63b8ff" stroke="#63b8ff" points="2112.02,-44.3 2110.29,-54.75 2118.16,-47.66 2112.02,-44.3"/>
</a>
</g>
</g>
</g>
</svg>
