<?xml version="1.0" encoding="UTF-8" standalone="no"?>
<!DOCTYPE svg PUBLIC "-//W3C//DTD SVG 1.1//EN"
 "http://www.w3.org/Graphics/SVG/1.1/DTD/svg11.dtd">
<!-- Generated by graphviz version 2.43.0 (0)
 -->
<!-- Title: LSM9DS1Sensor.h Pages: 1 -->
<svg width="557pt" height="252pt"
 viewBox="0.00 0.00 556.50 252.00" xmlns="http://www.w3.org/2000/svg" xmlns:xlink="http://www.w3.org/1999/xlink">
<g id="graph0" class="graph" transform="scale(1 1) rotate(0) translate(4 248)">
<title>LSM9DS1Sensor.h</title>
<!-- Node1 -->
<g id="node1" class="node">
<title>Node1</title>
<g id="a_node1"><a xlink:title=" ">
<polygon fill="#bfbfbf" stroke="black" points="230,-224.5 230,-243.5 334,-243.5 334,-224.5 230,-224.5"/>
<text text-anchor="middle" x="282" y="-231.5" font-family="Helvetica,sans-Serif" font-size="10.00">LSM9DS1Sensor.h</text>
</a>
</g>
</g>
<!-- Node2 -->
<g id="node2" class="node">
<title>Node2</title>
<g id="a_node2"><a xlink:title=" ">
<polygon fill="none" stroke="#bfbfbf" points="0,-168.5 0,-187.5 116,-187.5 116,-168.5 0,-168.5"/>
<text text-anchor="middle" x="58" y="-175.5" font-family="Helvetica,sans-Serif" font-size="10.00">Adafruit_LSM9DS1.h</text>
</a>
</g>
</g>
<!-- Node1&#45;&gt;Node2 -->
<g id="edge1" class="edge">
<title>Node1&#45;&gt;Node2</title>
<path fill="none" stroke="midnightblue" d="M246.51,-224.44C207.68,-215.08 145.34,-200.06 103.08,-189.87"/>
<polygon fill="midnightblue" stroke="midnightblue" points="103.87,-186.46 93.33,-187.52 102.23,-193.26 103.87,-186.46"/>
</g>
<!-- Node3 -->
<g id="node3" class="node">
<title>Node3</title>
<g id="a_node3"><a xlink:title=" ">
<polygon fill="none" stroke="#bfbfbf" points="134.5,-168.5 134.5,-187.5 237.5,-187.5 237.5,-168.5 134.5,-168.5"/>
<text text-anchor="middle" x="186" y="-175.5" font-family="Helvetica,sans-Serif" font-size="10.00">Adafruit_Sensor.h</text>
</a>
</g>
</g>
<!-- Node1&#45;&gt;Node3 -->
<g id="edge2" class="edge">
<title>Node1&#45;&gt;Node3</title>
<path fill="none" stroke="midnightblue" d="M266.58,-224.32C251.46,-215.82 228.18,-202.73 210.53,-192.8"/>
<polygon fill="midnightblue" stroke="midnightblue" points="211.82,-189.51 201.39,-187.65 208.39,-195.61 211.82,-189.51"/>
</g>
<!-- Node4 -->
<g id="node4" class="node">
<title>Node4</title>
<g id="a_node4"><a xlink:title=" ">
<polygon fill="none" stroke="#bfbfbf" points="255.5,-168.5 255.5,-187.5 308.5,-187.5 308.5,-168.5 255.5,-168.5"/>
<text text-anchor="middle" x="282" y="-175.5" font-family="Helvetica,sans-Serif" font-size="10.00">string.h</text>
</a>
</g>
</g>
<!-- Node1&#45;&gt;Node4 -->
<g id="edge3" class="edge">
<title>Node1&#45;&gt;Node4</title>
<path fill="none" stroke="midnightblue" d="M282,-224.08C282,-217.01 282,-206.86 282,-197.99"/>
<polygon fill="midnightblue" stroke="midnightblue" points="285.5,-197.75 282,-187.75 278.5,-197.75 285.5,-197.75"/>
</g>
<!-- Node5 -->
<g id="node5" class="node">
<title>Node5</title>
<g id="a_node5"><a xlink:href="PayloadConfig_8h.html" target="_top" xlink:title="Central location for pinout and config defines.">
<polygon fill="none" stroke="black" points="327,-168.5 327,-187.5 423,-187.5 423,-168.5 327,-168.5"/>
<text text-anchor="middle" x="375" y="-175.5" font-family="Helvetica,sans-Serif" font-size="10.00">PayloadConfig.h</text>
</a>
</g>
</g>
<!-- Node1&#45;&gt;Node5 -->
<g id="edge4" class="edge">
<title>Node1&#45;&gt;Node5</title>
<path fill="none" stroke="midnightblue" d="M296.94,-224.32C311.59,-215.82 334.13,-202.73 351.24,-192.8"/>
<polygon fill="midnightblue" stroke="midnightblue" points="353.2,-195.7 360.1,-187.65 349.69,-189.65 353.2,-195.7"/>
</g>
<!-- Node6 -->
<g id="node6" class="node">
<title>Node6</title>
<g id="a_node6"><a xlink:href="Sensor_8h.html" target="_top" xlink:title=" ">
<polygon fill="none" stroke="black" points="441.5,-168.5 441.5,-187.5 500.5,-187.5 500.5,-168.5 441.5,-168.5"/>
<text text-anchor="middle" x="471" y="-175.5" font-family="Helvetica,sans-Serif" font-size="10.00">Sensor.h</text>
</a>
</g>
</g>
<!-- Node1&#45;&gt;Node6 -->
<g id="edge5" class="edge">
<title>Node1&#45;&gt;Node6</title>
<path fill="none" stroke="midnightblue" d="M311.95,-224.44C344.16,-215.24 395.53,-200.56 431.14,-190.39"/>
<polygon fill="midnightblue" stroke="midnightblue" points="432.54,-193.63 441.19,-187.52 430.62,-186.9 432.54,-193.63"/>
</g>
<!-- Node7 -->
<g id="node7" class="node">
<title>Node7</title>
<g id="a_node7"><a xlink:title=" ">
<polygon fill="none" stroke="#bfbfbf" points="429.5,-0.5 429.5,-19.5 492.5,-19.5 492.5,-0.5 429.5,-0.5"/>
<text text-anchor="middle" x="461" y="-7.5" font-family="Helvetica,sans-Serif" font-size="10.00">Arduino.h</text>
</a>
</g>
</g>
<!-- Node6&#45;&gt;Node7 -->
<g id="edge6" class="edge">
<title>Node6&#45;&gt;Node7</title>
<path fill="none" stroke="midnightblue" d="M460.29,-168.3C451.06,-160.07 438.41,-146.79 433,-132 419.97,-96.39 438.06,-52.6 450.66,-28.67"/>
<polygon fill="midnightblue" stroke="midnightblue" points="453.84,-30.16 455.62,-19.72 447.71,-26.77 453.84,-30.16"/>
</g>
<!-- Node8 -->
<g id="node8" class="node">
<title>Node8</title>
<g id="a_node8"><a xlink:href="Device_8h.html" target="_top" xlink:title=" ">
<polygon fill="none" stroke="black" points="441.5,-112.5 441.5,-131.5 500.5,-131.5 500.5,-112.5 441.5,-112.5"/>
<text text-anchor="middle" x="471" y="-119.5" font-family="Helvetica,sans-Serif" font-size="10.00">Device.h</text>
</a>
</g>
</g>
<!-- Node6&#45;&gt;Node8 -->
<g id="edge7" class="edge">
<title>Node6&#45;&gt;Node8</title>
<path fill="none" stroke="midnightblue" d="M471,-168.08C471,-161.01 471,-150.86 471,-141.99"/>
<polygon fill="midnightblue" stroke="midnightblue" points="474.5,-141.75 471,-131.75 467.5,-141.75 474.5,-141.75"/>
</g>
<!-- Node9 -->
<g id="node9" class="node">
<title>Node9</title>
<g id="a_node9"><a xlink:href="Logger_8h.html" target="_top" xlink:title=" ">
<polygon fill="none" stroke="black" points="489.5,-56.5 489.5,-75.5 548.5,-75.5 548.5,-56.5 489.5,-56.5"/>
<text text-anchor="middle" x="519" y="-63.5" font-family="Helvetica,sans-Serif" font-size="10.00">Logger.h</text>
</a>
</g>
</g>
<!-- Node6&#45;&gt;Node9 -->
<g id="edge11" class="edge">
<title>Node6&#45;&gt;Node9</title>
<path fill="none" stroke="midnightblue" d="M481.15,-168.49C490.31,-160.18 503.34,-146.69 510,-132 516.55,-117.56 518.64,-99.6 519.18,-86.22"/>
<polygon fill="midnightblue" stroke="midnightblue" points="522.69,-85.9 519.33,-75.85 515.69,-85.8 522.69,-85.9"/>
</g>
<!-- Node8&#45;&gt;Node7 -->
<g id="edge8" class="edge">
<title>Node8&#45;&gt;Node7</title>
<path fill="none" stroke="midnightblue" d="M470.22,-112.37C468.6,-94.62 464.88,-53.67 462.69,-29.6"/>
<polygon fill="midnightblue" stroke="midnightblue" points="466.17,-29.23 461.78,-19.59 459.2,-29.87 466.17,-29.23"/>
</g>
<!-- Node8&#45;&gt;Node9 -->
<g id="edge9" class="edge">
<title>Node8&#45;&gt;Node9</title>
<path fill="none" stroke="midnightblue" d="M478.93,-112.08C485.85,-104.3 496.07,-92.8 504.45,-83.37"/>
<polygon fill="midnightblue" stroke="midnightblue" points="507.19,-85.55 511.22,-75.75 501.96,-80.9 507.19,-85.55"/>
</g>
<!-- Node9&#45;&gt;Node7 -->
<g id="edge10" class="edge">
<title>Node9&#45;&gt;Node7</title>
<path fill="none" stroke="midnightblue" d="M509.68,-56.32C501.11,-48.34 488.19,-36.31 477.81,-26.65"/>
<polygon fill="midnightblue" stroke="midnightblue" points="480.19,-24.09 470.49,-19.83 475.42,-29.21 480.19,-24.09"/>
</g>
</g>
</svg>
