<?xml version="1.0" encoding="UTF-8" standalone="no"?>
<!DOCTYPE svg PUBLIC "-//W3C//DTD SVG 1.1//EN"
 "http://www.w3.org/Graphics/SVG/1.1/DTD/svg11.dtd">
<!-- Generated by graphviz version 2.43.0 (0)
 -->
<!-- Title: LSM9DS1Sensor.h Pages: 1 -->
<svg width="533pt" height="192pt"
 viewBox="0.00 0.00 533.00 192.00" xmlns="http://www.w3.org/2000/svg" xmlns:xlink="http://www.w3.org/1999/xlink">
<g id="graph0" class="graph" transform="scale(1 1) rotate(0) translate(4 188)">
<title>LSM9DS1Sensor.h</title>
<!-- Node1 -->
<g id="Node000001" class="node">
<title>Node1</title>
<g id="a_Node000001"><a xlink:title=" ">
<polygon fill="#999999" stroke="#666666" points="333,-184 229,-184 229,-165 333,-165 333,-184"/>
<text text-anchor="middle" x="281" y="-172" font-family="Helvetica,sans-Serif" font-size="10.00">LSM9DS1Sensor.h</text>
</a>
</g>
</g>
<!-- Node2 -->
<g id="Node000002" class="node">
<title>Node2</title>
<g id="a_Node000002"><a xlink:title=" ">
<polygon fill="#e0e0e0" stroke="#999999" points="116,-129 0,-129 0,-110 116,-110 116,-129"/>
<text text-anchor="middle" x="58" y="-117" font-family="Helvetica,sans-Serif" font-size="10.00">Adafruit_LSM9DS1.h</text>
</a>
</g>
</g>
<!-- Node1&#45;&gt;Node2 -->
<g id="edge1_Node000001_Node000002" class="edge">
<title>Node1&#45;&gt;Node2</title>
<g id="a_edge1_Node000001_Node000002"><a xlink:title=" ">
<path fill="none" stroke="#63b8ff" d="M245.17,-164.98C206.84,-155.87 145.92,-141.4 104.05,-131.45"/>
<polygon fill="#63b8ff" stroke="#63b8ff" points="104.65,-127.99 94.11,-129.08 103.03,-134.8 104.65,-127.99"/>
</a>
</g>
</g>
<!-- Node3 -->
<g id="Node000003" class="node">
<title>Node3</title>
<g id="a_Node000003"><a xlink:title=" ">
<polygon fill="#e0e0e0" stroke="#999999" points="236,-129 134,-129 134,-110 236,-110 236,-129"/>
<text text-anchor="middle" x="185" y="-117" font-family="Helvetica,sans-Serif" font-size="10.00">Adafruit_Sensor.h</text>
</a>
</g>
</g>
<!-- Node1&#45;&gt;Node3 -->
<g id="edge2_Node000001_Node000003" class="edge">
<title>Node1&#45;&gt;Node3</title>
<g id="a_edge2_Node000001_Node000003"><a xlink:title=" ">
<path fill="none" stroke="#63b8ff" d="M265.58,-164.98C250.55,-156.69 227.46,-143.94 209.84,-134.22"/>
<polygon fill="#63b8ff" stroke="#63b8ff" points="211.15,-130.94 200.7,-129.17 207.77,-137.07 211.15,-130.94"/>
</a>
</g>
</g>
<!-- Node4 -->
<g id="Node000004" class="node">
<title>Node4</title>
<g id="a_Node000004"><a xlink:title=" ">
<polygon fill="#e0e0e0" stroke="#999999" points="307.5,-129 254.5,-129 254.5,-110 307.5,-110 307.5,-129"/>
<text text-anchor="middle" x="281" y="-117" font-family="Helvetica,sans-Serif" font-size="10.00">string.h</text>
</a>
</g>
</g>
<!-- Node1&#45;&gt;Node4 -->
<g id="edge3_Node000001_Node000004" class="edge">
<title>Node1&#45;&gt;Node4</title>
<g id="a_edge3_Node000001_Node000004"><a xlink:title=" ">
<path fill="none" stroke="#63b8ff" d="M281,-164.75C281,-157.8 281,-147.85 281,-139.13"/>
<polygon fill="#63b8ff" stroke="#63b8ff" points="284.5,-139.09 281,-129.09 277.5,-139.09 284.5,-139.09"/>
</a>
</g>
</g>
<!-- Node5 -->
<g id="Node000005" class="node">
<title>Node5</title>
<g id="a_Node000005"><a xlink:href="PayloadConfig_8h.html" target="_top" xlink:title="Central location for pinout and config defines.">
<polygon fill="white" stroke="#666666" points="420.5,-129 325.5,-129 325.5,-110 420.5,-110 420.5,-129"/>
<text text-anchor="middle" x="373" y="-117" font-family="Helvetica,sans-Serif" font-size="10.00">PayloadConfig.h</text>
</a>
</g>
</g>
<!-- Node1&#45;&gt;Node5 -->
<g id="edge4_Node000001_Node000005" class="edge">
<title>Node1&#45;&gt;Node5</title>
<g id="a_edge4_Node000001_Node000005"><a xlink:title=" ">
<path fill="none" stroke="#63b8ff" d="M295.78,-164.98C310.18,-156.69 332.31,-143.94 349.19,-134.22"/>
<polygon fill="#63b8ff" stroke="#63b8ff" points="351.03,-137.19 357.95,-129.17 347.54,-131.13 351.03,-137.19"/>
</a>
</g>
</g>
<!-- Node6 -->
<g id="Node000006" class="node">
<title>Node6</title>
<g id="a_Node000006"><a xlink:href="Sensor_8h.html" target="_top" xlink:title=" ">
<polygon fill="white" stroke="#666666" points="497,-129 439,-129 439,-110 497,-110 497,-129"/>
<text text-anchor="middle" x="468" y="-117" font-family="Helvetica,sans-Serif" font-size="10.00">Sensor.h</text>
</a>
</g>
</g>
<!-- Node1&#45;&gt;Node6 -->
<g id="edge5_Node000001_Node000006" class="edge">
<title>Node1&#45;&gt;Node6</title>
<g id="a_edge5_Node000001_Node000006"><a xlink:title=" ">
<path fill="none" stroke="#63b8ff" d="M311.04,-164.98C343.09,-155.9 393.96,-141.49 429.05,-131.54"/>
<polygon fill="#63b8ff" stroke="#63b8ff" points="430.29,-134.83 438.95,-128.73 428.38,-128.09 430.29,-134.83"/>
</a>
</g>
</g>
<!-- Node7 -->
<g id="Node000007" class="node">
<title>Node7</title>
<g id="a_Node000007"><a xlink:title=" ">
<polygon fill="#e0e0e0" stroke="#999999" points="498.5,-19 435.5,-19 435.5,0 498.5,0 498.5,-19"/>
<text text-anchor="middle" x="467" y="-7" font-family="Helvetica,sans-Serif" font-size="10.00">Arduino.h</text>
</a>
</g>
</g>
<!-- Node6&#45;&gt;Node7 -->
<g id="edge6_Node000006_Node000007" class="edge">
<title>Node6&#45;&gt;Node7</title>
<g id="a_edge6_Node000006_Node000007"><a xlink:title=" ">
<path fill="none" stroke="#63b8ff" d="M465.43,-109.73C462.95,-100.83 459.4,-86.59 458,-74 456.31,-58.76 459.04,-41.55 461.93,-28.89"/>
<polygon fill="#63b8ff" stroke="#63b8ff" points="465.34,-29.66 464.39,-19.11 458.55,-27.95 465.34,-29.66"/>
</a>
</g>
</g>
<!-- Node8 -->
<g id="Node000008" class="node">
<title>Node8</title>
<g id="a_Node000008"><a xlink:href="Logger_8h.html" target="_top" xlink:title=" ">
<polygon fill="white" stroke="#666666" points="525,-74 467,-74 467,-55 525,-55 525,-74"/>
<text text-anchor="middle" x="496" y="-62" font-family="Helvetica,sans-Serif" font-size="10.00">Logger.h</text>
</a>
</g>
</g>
<!-- Node6&#45;&gt;Node8 -->
<g id="edge7_Node000006_Node000008" class="edge">
<title>Node6&#45;&gt;Node8</title>
<g id="a_edge7_Node000006_Node000008"><a xlink:title=" ">
<path fill="none" stroke="#63b8ff" d="M472.62,-109.75C476.46,-102.49 482.02,-91.95 486.76,-82.98"/>
<polygon fill="#63b8ff" stroke="#63b8ff" points="489.89,-84.57 491.46,-74.09 483.7,-81.3 489.89,-84.57"/>
</a>
</g>
</g>
<!-- Node8&#45;&gt;Node7 -->
<g id="edge8_Node000008_Node000007" class="edge">
<title>Node8&#45;&gt;Node7</title>
<g id="a_edge8_Node000008_Node000007"><a xlink:title=" ">
<path fill="none" stroke="#63b8ff" d="M491.21,-54.75C487.24,-47.49 481.47,-36.95 476.57,-27.98"/>
<polygon fill="#63b8ff" stroke="#63b8ff" points="479.57,-26.18 471.7,-19.09 473.43,-29.54 479.57,-26.18"/>
</a>
</g>
</g>
</g>
</svg>
