<?xml version="1.0" encoding="UTF-8" standalone="no"?>
<!DOCTYPE svg PUBLIC "-//W3C//DTD SVG 1.1//EN"
 "http://www.w3.org/Graphics/SVG/1.1/DTD/svg11.dtd">
<!-- Generated by graphviz version 2.43.0 (0)
 -->
<!-- Title: main.cpp Pages: 1 -->
<svg width="2739pt" height="313pt"
 viewBox="0.00 0.00 2739.00 313.00" xmlns="http://www.w3.org/2000/svg" xmlns:xlink="http://www.w3.org/1999/xlink">
<g id="graph0" class="graph" transform="scale(1 1) rotate(0) translate(4 309)">
<title>main.cpp</title>
<!-- Node1 -->
<g id="Node000001" class="node">
<title>Node1</title>
<g id="a_Node000001"><a xlink:title="Main functions for Core 0, responsible for reading data from sensor peripherals.">
<polygon fill="#999999" stroke="#666666" points="974,-305 912,-305 912,-286 974,-286 974,-305"/>
<text text-anchor="middle" x="943" y="-293" font-family="Helvetica,sans-Serif" font-size="10.00">main.cpp</text>
</a>
</g>
</g>
<!-- Node2 -->
<g id="Node000002" class="node">
<title>Node2</title>
<g id="a_Node000002"><a xlink:title=" ">
<polygon fill="#e0e0e0" stroke="#999999" points="1271.5,-19 1208.5,-19 1208.5,0 1271.5,0 1271.5,-19"/>
<text text-anchor="middle" x="1240" y="-7" font-family="Helvetica,sans-Serif" font-size="10.00">Arduino.h</text>
</a>
</g>
</g>
<!-- Node1&#45;&gt;Node2 -->
<g id="edge1_Node000001_Node000002" class="edge">
<title>Node1&#45;&gt;Node2</title>
<g id="a_edge1_Node000001_Node000002"><a xlink:title=" ">
<path fill="none" stroke="#63b8ff" d="M911.7,-294.61C781.11,-294.79 279.4,-292.63 128,-250 65.79,-232.48 0,-245.63 0,-181 0,-181 0,-181 0,-118.5 0,-56.97 981.68,-19.43 1198.12,-11.9"/>
<polygon fill="#63b8ff" stroke="#63b8ff" points="1198.54,-15.39 1208.42,-11.55 1198.3,-8.4 1198.54,-15.39"/>
</a>
</g>
</g>
<!-- Node3 -->
<g id="Node000003" class="node">
<title>Node3</title>
<g id="a_Node000003"><a xlink:href="ErrorDisplay_8h.html" target="_top" xlink:title=" ">
<polygon fill="white" stroke="#666666" points="2555,-250 2471,-250 2471,-231 2555,-231 2555,-250"/>
<text text-anchor="middle" x="2513" y="-238" font-family="Helvetica,sans-Serif" font-size="10.00">ErrorDisplay.h</text>
</a>
</g>
</g>
<!-- Node1&#45;&gt;Node3 -->
<g id="edge2_Node000001_Node000003" class="edge">
<title>Node1&#45;&gt;Node3</title>
<g id="a_edge2_Node000001_Node000003"><a xlink:title=" ">
<path fill="none" stroke="#63b8ff" d="M974.21,-293.51C1121.39,-288.85 1760.82,-268.46 2285,-250 2345.36,-247.87 2414.69,-245.27 2460.91,-243.5"/>
<polygon fill="#63b8ff" stroke="#63b8ff" points="2461.12,-247 2470.98,-243.12 2460.85,-240 2461.12,-247"/>
</a>
</g>
</g>
<!-- Node4 -->
<g id="Node000004" class="node">
<title>Node4</title>
<g id="a_Node000004"><a xlink:href="PayloadConfig_8h.html" target="_top" xlink:title="Central location for pinout and config defines.">
<polygon fill="white" stroke="#666666" points="2073.5,-189.5 1978.5,-189.5 1978.5,-170.5 2073.5,-170.5 2073.5,-189.5"/>
<text text-anchor="middle" x="2026" y="-177.5" font-family="Helvetica,sans-Serif" font-size="10.00">PayloadConfig.h</text>
</a>
</g>
</g>
<!-- Node1&#45;&gt;Node4 -->
<g id="edge9_Node000001_Node000004" class="edge">
<title>Node1&#45;&gt;Node4</title>
<g id="a_edge9_Node000001_Node000004"><a xlink:title=" ">
<path fill="none" stroke="#63b8ff" d="M974.21,-294.37C1078.77,-293.57 1426.1,-288.04 1710,-250 1809.96,-236.6 1925.21,-208.04 1985.08,-192.19"/>
<polygon fill="#63b8ff" stroke="#63b8ff" points="1986.14,-195.53 1994.91,-189.57 1984.34,-188.76 1986.14,-195.53"/>
</a>
</g>
</g>
<!-- Node7 -->
<g id="Node000007" class="node">
<title>Node7</title>
<g id="a_Node000007"><a xlink:href="Logger_8h.html" target="_top" xlink:title=" ">
<polygon fill="white" stroke="#666666" points="1361,-74 1303,-74 1303,-55 1361,-55 1361,-74"/>
<text text-anchor="middle" x="1332" y="-62" font-family="Helvetica,sans-Serif" font-size="10.00">Logger.h</text>
</a>
</g>
</g>
<!-- Node1&#45;&gt;Node7 -->
<g id="edge7_Node000001_Node000007" class="edge">
<title>Node1&#45;&gt;Node7</title>
<g id="a_edge7_Node000001_Node000007"><a xlink:title=" ">
<path fill="none" stroke="#63b8ff" d="M974.19,-294.34C1149.79,-293.09 2009.77,-282.51 2083,-195 2177.55,-82 1539.13,-67.6 1371.56,-65.77"/>
<polygon fill="#63b8ff" stroke="#63b8ff" points="1371.48,-62.27 1361.44,-65.67 1371.41,-69.27 1371.48,-62.27"/>
</a>
</g>
</g>
<!-- Node8 -->
<g id="Node000008" class="node">
<title>Node8</title>
<g id="a_Node000008"><a xlink:href="Sensor_8h.html" target="_top" xlink:title=" ">
<polygon fill="white" stroke="#666666" points="725,-189.5 667,-189.5 667,-170.5 725,-170.5 725,-189.5"/>
<text text-anchor="middle" x="696" y="-177.5" font-family="Helvetica,sans-Serif" font-size="10.00">Sensor.h</text>
</a>
</g>
</g>
<!-- Node1&#45;&gt;Node8 -->
<g id="edge10_Node000001_Node000008" class="edge">
<title>Node1&#45;&gt;Node8</title>
<g id="a_edge10_Node000001_Node000008"><a xlink:title=" ">
<path fill="none" stroke="#63b8ff" d="M919.34,-285.97C896.28,-277.48 860.35,-263.75 830,-250 809.07,-240.52 753.77,-211.56 721.12,-194.32"/>
<polygon fill="#63b8ff" stroke="#63b8ff" points="722.65,-191.17 712.17,-189.59 719.38,-197.36 722.65,-191.17"/>
</a>
</g>
</g>
<!-- Node10 -->
<g id="Node000010" class="node">
<title>Node10</title>
<g id="a_Node000010"><a xlink:href="AS7331Sensor_8h.html" target="_top" xlink:title=" ">
<polygon fill="white" stroke="#666666" points="1161.5,-250 1066.5,-250 1066.5,-231 1161.5,-231 1161.5,-250"/>
<text text-anchor="middle" x="1114" y="-238" font-family="Helvetica,sans-Serif" font-size="10.00">AS7331Sensor.h</text>
</a>
</g>
</g>
<!-- Node1&#45;&gt;Node10 -->
<g id="edge16_Node000001_Node000010" class="edge">
<title>Node1&#45;&gt;Node10</title>
<g id="a_edge16_Node000001_Node000010"><a xlink:title=" ">
<path fill="none" stroke="#63b8ff" d="M970.47,-285.98C999.18,-277.09 1044.42,-263.07 1076.42,-253.15"/>
<polygon fill="#63b8ff" stroke="#63b8ff" points="1077.8,-256.39 1086.31,-250.08 1075.72,-249.7 1077.8,-256.39"/>
</a>
</g>
</g>
<!-- Node14 -->
<g id="Node000014" class="node">
<title>Node14</title>
<g id="a_Node000014"><a xlink:href="BMP390Sensor_8h.html" target="_top" xlink:title=" ">
<polygon fill="white" stroke="#666666" points="347,-250 249,-250 249,-231 347,-231 347,-250"/>
<text text-anchor="middle" x="298" y="-238" font-family="Helvetica,sans-Serif" font-size="10.00">BMP390Sensor.h</text>
</a>
</g>
</g>
<!-- Node1&#45;&gt;Node14 -->
<g id="edge21_Node000001_Node000014" class="edge">
<title>Node1&#45;&gt;Node14</title>
<g id="a_edge21_Node000001_Node000014"><a xlink:title=" ">
<path fill="none" stroke="#63b8ff" d="M911.75,-292.9C825.3,-288.32 575.51,-273.96 357.07,-250.04"/>
<polygon fill="#63b8ff" stroke="#63b8ff" points="357.34,-246.55 347.02,-248.93 356.57,-253.51 357.34,-246.55"/>
</a>
</g>
</g>
<!-- Node16 -->
<g id="Node000016" class="node">
<title>Node16</title>
<g id="a_Node000016"><a xlink:href="ENS160Sensor_8h.html" target="_top" xlink:title=" ">
<polygon fill="white" stroke="#666666" points="933.5,-250 838.5,-250 838.5,-231 933.5,-231 933.5,-250"/>
<text text-anchor="middle" x="886" y="-238" font-family="Helvetica,sans-Serif" font-size="10.00">ENS160Sensor.h</text>
</a>
</g>
</g>
<!-- Node1&#45;&gt;Node16 -->
<g id="edge24_Node000001_Node000016" class="edge">
<title>Node1&#45;&gt;Node16</title>
<g id="a_edge24_Node000001_Node000016"><a xlink:title=" ">
<path fill="none" stroke="#63b8ff" d="M933.84,-285.98C925.5,-278.23 912.97,-266.58 902.82,-257.14"/>
<polygon fill="#63b8ff" stroke="#63b8ff" points="905.03,-254.42 895.32,-250.17 900.26,-259.54 905.03,-254.42"/>
</a>
</g>
</g>
<!-- Node18 -->
<g id="Node000018" class="node">
<title>Node18</title>
<g id="a_Node000018"><a xlink:href="ICM20948Sensor_8h.html" target="_top" xlink:title=" ">
<polygon fill="white" stroke="#666666" points="1700.5,-250 1593.5,-250 1593.5,-231 1700.5,-231 1700.5,-250"/>
<text text-anchor="middle" x="1647" y="-238" font-family="Helvetica,sans-Serif" font-size="10.00">ICM20948Sensor.h</text>
</a>
</g>
</g>
<!-- Node1&#45;&gt;Node18 -->
<g id="edge28_Node000001_Node000018" class="edge">
<title>Node1&#45;&gt;Node18</title>
<g id="a_edge28_Node000001_Node000018"><a xlink:title=" ">
<path fill="none" stroke="#63b8ff" d="M974.16,-292.15C1081.42,-284.08 1436.81,-257.32 1583.16,-246.31"/>
<polygon fill="#63b8ff" stroke="#63b8ff" points="1583.62,-249.78 1593.33,-245.54 1583.1,-242.8 1583.62,-249.78"/>
</a>
</g>
</g>
<!-- Node22 -->
<g id="Node000022" class="node">
<title>Node22</title>
<g id="a_Node000022"><a xlink:href="INA260Sensor_8h.html" target="_top" xlink:title=" ">
<polygon fill="white" stroke="#666666" points="230.5,-250 137.5,-250 137.5,-231 230.5,-231 230.5,-250"/>
<text text-anchor="middle" x="184" y="-238" font-family="Helvetica,sans-Serif" font-size="10.00">INA260Sensor.h</text>
</a>
</g>
</g>
<!-- Node1&#45;&gt;Node22 -->
<g id="edge35_Node000001_Node000022" class="edge">
<title>Node1&#45;&gt;Node22</title>
<g id="a_edge35_Node000001_Node000022"><a xlink:title=" ">
<path fill="none" stroke="#63b8ff" d="M911.73,-293.5C814.19,-290.16 506.64,-278.08 240.94,-249.99"/>
<polygon fill="#63b8ff" stroke="#63b8ff" points="241.03,-246.48 230.71,-248.9 240.28,-253.44 241.03,-246.48"/>
</a>
</g>
</g>
<!-- Node24 -->
<g id="Node000024" class="node">
<title>Node24</title>
<g id="a_Node000024"><a xlink:href="MTK3339Sensor_8h.html" target="_top" xlink:title=" ">
<polygon fill="white" stroke="#666666" points="1284,-250 1180,-250 1180,-231 1284,-231 1284,-250"/>
<text text-anchor="middle" x="1232" y="-238" font-family="Helvetica,sans-Serif" font-size="10.00">MTK3339Sensor.h</text>
</a>
</g>
</g>
<!-- Node1&#45;&gt;Node24 -->
<g id="edge40_Node000001_Node000024" class="edge">
<title>Node1&#45;&gt;Node24</title>
<g id="a_edge40_Node000001_Node000024"><a xlink:title=" ">
<path fill="none" stroke="#63b8ff" d="M974.2,-288.78C1022.29,-279.96 1115.22,-262.92 1175.39,-251.88"/>
<polygon fill="#63b8ff" stroke="#63b8ff" points="1176.28,-255.28 1185.48,-250.03 1175.02,-248.39 1176.28,-255.28"/>
</a>
</g>
</g>
<!-- Node26 -->
<g id="Node000026" class="node">
<title>Node26</title>
<g id="a_Node000026"><a xlink:href="OzoneSensor_8h.html" target="_top" xlink:title=" ">
<polygon fill="white" stroke="#666666" points="454.5,-250 365.5,-250 365.5,-231 454.5,-231 454.5,-250"/>
<text text-anchor="middle" x="410" y="-238" font-family="Helvetica,sans-Serif" font-size="10.00">OzoneSensor.h</text>
</a>
</g>
</g>
<!-- Node1&#45;&gt;Node26 -->
<g id="edge46_Node000001_Node000026" class="edge">
<title>Node1&#45;&gt;Node26</title>
<g id="a_edge46_Node000001_Node000026"><a xlink:title=" ">
<path fill="none" stroke="#63b8ff" d="M911.75,-292.33C836.57,-286.95 639.46,-271.92 464.66,-250.13"/>
<polygon fill="#63b8ff" stroke="#63b8ff" points="464.86,-246.63 454.5,-248.86 463.99,-253.58 464.86,-246.63"/>
</a>
</g>
</g>
<!-- Node28 -->
<g id="Node000028" class="node">
<title>Node28</title>
<g id="a_Node000028"><a xlink:href="PCF8523Sensor_8h.html" target="_top" xlink:title=" ">
<polygon fill="white" stroke="#666666" points="573.5,-250 472.5,-250 472.5,-231 573.5,-231 573.5,-250"/>
<text text-anchor="middle" x="523" y="-238" font-family="Helvetica,sans-Serif" font-size="10.00">PCF8523Sensor.h</text>
</a>
</g>
</g>
<!-- Node1&#45;&gt;Node28 -->
<g id="edge49_Node000001_Node000028" class="edge">
<title>Node1&#45;&gt;Node28</title>
<g id="a_edge49_Node000001_Node000028"><a xlink:title=" ">
<path fill="none" stroke="#63b8ff" d="M911.68,-290.82C850.74,-283.61 711.72,-266.98 583.71,-250.07"/>
<polygon fill="#63b8ff" stroke="#63b8ff" points="584.1,-246.59 573.73,-248.75 583.18,-253.53 584.1,-246.59"/>
</a>
</g>
</g>
<!-- Node30 -->
<g id="Node000030" class="node">
<title>Node30</title>
<g id="a_Node000030"><a xlink:href="SCD40Sensor_8h.html" target="_top" xlink:title=" ">
<polygon fill="white" stroke="#666666" points="1464,-250 1374,-250 1374,-231 1464,-231 1464,-250"/>
<text text-anchor="middle" x="1419" y="-238" font-family="Helvetica,sans-Serif" font-size="10.00">SCD40Sensor.h</text>
</a>
</g>
</g>
<!-- Node1&#45;&gt;Node30 -->
<g id="edge52_Node000001_Node000030" class="edge">
<title>Node1&#45;&gt;Node30</title>
<g id="a_edge52_Node000001_Node000030"><a xlink:title=" ">
<path fill="none" stroke="#63b8ff" d="M974.23,-291.02C1053.52,-282.19 1263.4,-258.83 1363.87,-247.64"/>
<polygon fill="#63b8ff" stroke="#63b8ff" points="1364.28,-251.11 1373.83,-246.53 1363.5,-244.16 1364.28,-251.11"/>
</a>
</g>
</g>
<!-- Node32 -->
<g id="Node000032" class="node">
<title>Node32</title>
<g id="a_Node000032"><a xlink:href="SHTC3Sensor_8h.html" target="_top" xlink:title=" ">
<polygon fill="white" stroke="#666666" points="680.5,-250 591.5,-250 591.5,-231 680.5,-231 680.5,-250"/>
<text text-anchor="middle" x="636" y="-238" font-family="Helvetica,sans-Serif" font-size="10.00">SHTC3Sensor.h</text>
</a>
</g>
</g>
<!-- Node1&#45;&gt;Node32 -->
<g id="edge59_Node000001_Node000032" class="edge">
<title>Node1&#45;&gt;Node32</title>
<g id="a_edge59_Node000001_Node000032"><a xlink:title=" ">
<path fill="none" stroke="#63b8ff" d="M911.87,-289.13C859.93,-280.16 754.92,-262.03 690.5,-250.91"/>
<polygon fill="#63b8ff" stroke="#63b8ff" points="690.97,-247.44 680.52,-249.19 689.78,-254.34 690.97,-247.44"/>
</a>
</g>
</g>
<!-- Node34 -->
<g id="Node000034" class="node">
<title>Node34</title>
<g id="a_Node000034"><a xlink:href="TMP117Sensor_8h.html" target="_top" xlink:title=" ">
<polygon fill="white" stroke="#666666" points="1048.5,-250 951.5,-250 951.5,-231 1048.5,-231 1048.5,-250"/>
<text text-anchor="middle" x="1000" y="-238" font-family="Helvetica,sans-Serif" font-size="10.00">TMP117Sensor.h</text>
</a>
</g>
</g>
<!-- Node1&#45;&gt;Node34 -->
<g id="edge62_Node000001_Node000034" class="edge">
<title>Node1&#45;&gt;Node34</title>
<g id="a_edge62_Node000001_Node000034"><a xlink:title=" ">
<path fill="none" stroke="#63b8ff" d="M952.16,-285.98C960.5,-278.23 973.03,-266.58 983.18,-257.14"/>
<polygon fill="#63b8ff" stroke="#63b8ff" points="985.74,-259.54 990.68,-250.17 980.97,-254.42 985.74,-259.54"/>
</a>
</g>
</g>
<!-- Node36 -->
<g id="Node000036" class="node">
<title>Node36</title>
<g id="a_Node000036"><a xlink:href="TempSensor_8h.html" target="_top" xlink:title=" ">
<polygon fill="white" stroke="#666666" points="782,-250 698,-250 698,-231 782,-231 782,-250"/>
<text text-anchor="middle" x="740" y="-238" font-family="Helvetica,sans-Serif" font-size="10.00">TempSensor.h</text>
</a>
</g>
</g>
<!-- Node1&#45;&gt;Node36 -->
<g id="edge66_Node000001_Node000036" class="edge">
<title>Node1&#45;&gt;Node36</title>
<g id="a_edge66_Node000001_Node000036"><a xlink:title=" ">
<path fill="none" stroke="#63b8ff" d="M911.73,-286.33C877.12,-277.3 821.14,-262.68 782.55,-252.61"/>
<polygon fill="#63b8ff" stroke="#63b8ff" points="783.21,-249.17 772.66,-250.03 781.45,-255.94 783.21,-249.17"/>
</a>
</g>
</g>
<!-- Node37 -->
<g id="Node000037" class="node">
<title>Node37</title>
<g id="a_Node000037"><a xlink:href="FlashStorage_8h.html" target="_top" xlink:title=" ">
<polygon fill="white" stroke="#666666" points="2275.5,-250 2186.5,-250 2186.5,-231 2275.5,-231 2275.5,-250"/>
<text text-anchor="middle" x="2231" y="-238" font-family="Helvetica,sans-Serif" font-size="10.00">FlashStorage.h</text>
</a>
</g>
</g>
<!-- Node1&#45;&gt;Node37 -->
<g id="edge68_Node000001_Node000037" class="edge">
<title>Node1&#45;&gt;Node37</title>
<g id="a_edge68_Node000001_Node000037"><a xlink:title=" ">
<path fill="none" stroke="#63b8ff" d="M974.29,-293.73C1110.18,-290.27 1662.76,-275.34 2116,-250 2135.65,-248.9 2157.18,-247.39 2176.23,-245.95"/>
<polygon fill="#63b8ff" stroke="#63b8ff" points="2176.54,-249.44 2186.24,-245.18 2176,-242.46 2176.54,-249.44"/>
</a>
</g>
</g>
<!-- Node3&#45;&gt;Node2 -->
<g id="edge3_Node000003_Node000002" class="edge">
<title>Node3&#45;&gt;Node2</title>
<g id="a_edge3_Node000003_Node000002"><a xlink:title=" ">
<path fill="none" stroke="#63b8ff" d="M2513.53,-230.68C2513.94,-215.05 2512.37,-182.49 2494,-165 2316.29,4.19 2196.25,-87.16 1953,-55 1699.59,-21.49 1392.07,-13.09 1281.82,-11.09"/>
<polygon fill="#63b8ff" stroke="#63b8ff" points="1281.84,-7.59 1271.78,-10.92 1281.71,-14.59 1281.84,-7.59"/>
</a>
</g>
</g>
<!-- Node3&#45;&gt;Node4 -->
<g id="edge4_Node000003_Node000004" class="edge">
<title>Node3&#45;&gt;Node4</title>
<g id="a_edge4_Node000003_Node000004"><a xlink:title=" ">
<path fill="none" stroke="#63b8ff" d="M2471,-235.16C2399.33,-227.65 2248.87,-211.47 2122,-195 2109.61,-193.39 2096.34,-191.54 2083.74,-189.72"/>
<polygon fill="#63b8ff" stroke="#63b8ff" points="2084.21,-186.25 2073.81,-188.28 2083.2,-193.18 2084.21,-186.25"/>
</a>
</g>
</g>
<!-- Node5 -->
<g id="Node000005" class="node">
<title>Node5</title>
<g id="a_Node000005"><a xlink:title=" ">
<polygon fill="#e0e0e0" stroke="#999999" points="2636.5,-189.5 2541.5,-189.5 2541.5,-170.5 2636.5,-170.5 2636.5,-189.5"/>
<text text-anchor="middle" x="2589" y="-177.5" font-family="Helvetica,sans-Serif" font-size="10.00">pico/multicore.h</text>
</a>
</g>
</g>
<!-- Node3&#45;&gt;Node5 -->
<g id="edge5_Node000003_Node000005" class="edge">
<title>Node3&#45;&gt;Node5</title>
<g id="a_edge5_Node000003_Node000005"><a xlink:title=" ">
<path fill="none" stroke="#63b8ff" d="M2524.21,-230.87C2536.11,-221.71 2555.14,-207.06 2569.51,-196.01"/>
<polygon fill="#63b8ff" stroke="#63b8ff" points="2571.95,-198.54 2577.74,-189.67 2567.68,-192.99 2571.95,-198.54"/>
</a>
</g>
</g>
<!-- Node6 -->
<g id="Node000006" class="node">
<title>Node6</title>
<g id="a_Node000006"><a xlink:title=" ">
<polygon fill="#e0e0e0" stroke="#999999" points="2731,-189.5 2655,-189.5 2655,-170.5 2731,-170.5 2731,-189.5"/>
<text text-anchor="middle" x="2693" y="-177.5" font-family="Helvetica,sans-Serif" font-size="10.00">pico/stdlib.h</text>
</a>
</g>
</g>
<!-- Node3&#45;&gt;Node6 -->
<g id="edge6_Node000003_Node000006" class="edge">
<title>Node3&#45;&gt;Node6</title>
<g id="a_edge6_Node000003_Node000006"><a xlink:title=" ">
<path fill="none" stroke="#63b8ff" d="M2539.17,-230.99C2570.23,-220.9 2622.19,-204.01 2657.02,-192.69"/>
<polygon fill="#63b8ff" stroke="#63b8ff" points="2658.37,-195.94 2666.79,-189.52 2656.2,-189.28 2658.37,-195.94"/>
</a>
</g>
</g>
<!-- Node7&#45;&gt;Node2 -->
<g id="edge8_Node000007_Node000002" class="edge">
<title>Node7&#45;&gt;Node2</title>
<g id="a_edge8_Node000007_Node000002"><a xlink:title=" ">
<path fill="none" stroke="#63b8ff" d="M1317.22,-54.98C1302.82,-46.69 1280.69,-33.94 1263.81,-24.22"/>
<polygon fill="#63b8ff" stroke="#63b8ff" points="1265.46,-21.13 1255.05,-19.17 1261.97,-27.19 1265.46,-21.13"/>
</a>
</g>
</g>
<!-- Node8&#45;&gt;Node2 -->
<g id="edge11_Node000008_Node000002" class="edge">
<title>Node8&#45;&gt;Node2</title>
<g id="a_edge11_Node000008_Node000002"><a xlink:title=" ">
<path fill="none" stroke="#63b8ff" d="M719.45,-170.38C724.56,-168.56 729.95,-166.68 735,-165 907.24,-107.78 1115.06,-46.67 1200.45,-21.9"/>
<polygon fill="#63b8ff" stroke="#63b8ff" points="1201.61,-25.21 1210.24,-19.06 1199.67,-18.48 1201.61,-25.21"/>
</a>
</g>
</g>
<!-- Node8&#45;&gt;Node7 -->
<g id="edge15_Node000008_Node000007" class="edge">
<title>Node8&#45;&gt;Node7</title>
<g id="a_edge15_Node000008_Node000007"><a xlink:title=" ">
<path fill="none" stroke="#63b8ff" d="M716.33,-170.48C722.25,-168.33 728.8,-166.28 735,-165 798.02,-152 1262.61,-169.02 1313,-129 1326.23,-118.5 1330.53,-99.17 1331.8,-84.58"/>
<polygon fill="#63b8ff" stroke="#63b8ff" points="1335.31,-84.31 1332.27,-74.16 1328.32,-83.99 1335.31,-84.31"/>
</a>
</g>
</g>
<!-- Node9 -->
<g id="Node000009" class="node">
<title>Node9</title>
<g id="a_Node000009"><a xlink:href="Device_8h.html" target="_top" xlink:title=" ">
<polygon fill="white" stroke="#666666" points="1303.5,-129 1244.5,-129 1244.5,-110 1303.5,-110 1303.5,-129"/>
<text text-anchor="middle" x="1274" y="-117" font-family="Helvetica,sans-Serif" font-size="10.00">Device.h</text>
</a>
</g>
</g>
<!-- Node8&#45;&gt;Node9 -->
<g id="edge12_Node000008_Node000009" class="edge">
<title>Node8&#45;&gt;Node9</title>
<g id="a_edge12_Node000008_Node000009"><a xlink:title=" ">
<path fill="none" stroke="#63b8ff" d="M716.75,-170.41C722.57,-168.32 728.95,-166.31 735,-165 918.6,-125.19 1144.45,-120.43 1234.36,-120.24"/>
<polygon fill="#63b8ff" stroke="#63b8ff" points="1234.39,-123.74 1244.39,-120.24 1234.39,-116.74 1234.39,-123.74"/>
</a>
</g>
</g>
<!-- Node9&#45;&gt;Node2 -->
<g id="edge13_Node000009_Node000002" class="edge">
<title>Node9&#45;&gt;Node2</title>
<g id="a_edge13_Node000009_Node000002"><a xlink:title=" ">
<path fill="none" stroke="#63b8ff" d="M1271.22,-109.66C1265.69,-92.09 1253.21,-52.45 1245.81,-28.95"/>
<polygon fill="#63b8ff" stroke="#63b8ff" points="1249.07,-27.65 1242.73,-19.16 1242.39,-29.75 1249.07,-27.65"/>
</a>
</g>
</g>
<!-- Node9&#45;&gt;Node7 -->
<g id="edge14_Node000009_Node000007" class="edge">
<title>Node9&#45;&gt;Node7</title>
<g id="a_edge14_Node000009_Node000007"><a xlink:title=" ">
<path fill="none" stroke="#63b8ff" d="M1283.32,-109.98C1291.81,-102.23 1304.56,-90.58 1314.88,-81.14"/>
<polygon fill="#63b8ff" stroke="#63b8ff" points="1317.49,-83.5 1322.51,-74.17 1312.77,-78.33 1317.49,-83.5"/>
</a>
</g>
</g>
<!-- Node10&#45;&gt;Node8 -->
<g id="edge20_Node000010_Node000008" class="edge">
<title>Node10&#45;&gt;Node8</title>
<g id="a_edge20_Node000010_Node000008"><a xlink:title=" ">
<path fill="none" stroke="#63b8ff" d="M1066.36,-232.14C1063.53,-231.74 1060.73,-231.36 1058,-231 914.79,-212.16 875.71,-227.62 735,-195 732.33,-194.38 729.6,-193.64 726.87,-192.82"/>
<polygon fill="#63b8ff" stroke="#63b8ff" points="727.78,-189.43 717.19,-189.62 725.58,-196.08 727.78,-189.43"/>
</a>
</g>
</g>
<!-- Node11 -->
<g id="Node000011" class="node">
<title>Node11</title>
<g id="a_Node000011"><a xlink:title=" ">
<polygon fill="#e0e0e0" stroke="#999999" points="1187.5,-189.5 1074.5,-189.5 1074.5,-170.5 1187.5,-170.5 1187.5,-189.5"/>
<text text-anchor="middle" x="1131" y="-177.5" font-family="Helvetica,sans-Serif" font-size="10.00">SparkFun_AS7331.h</text>
</a>
</g>
</g>
<!-- Node10&#45;&gt;Node11 -->
<g id="edge17_Node000010_Node000011" class="edge">
<title>Node10&#45;&gt;Node11</title>
<g id="a_edge17_Node000010_Node000011"><a xlink:title=" ">
<path fill="none" stroke="#63b8ff" d="M1116.51,-230.87C1118.89,-222.66 1122.56,-210.04 1125.61,-199.55"/>
<polygon fill="#63b8ff" stroke="#63b8ff" points="1129.05,-200.25 1128.48,-189.67 1122.33,-198.29 1129.05,-200.25"/>
</a>
</g>
</g>
<!-- Node12 -->
<g id="Node000012" class="node">
<title>Node12</title>
<g id="a_Node000012"><a xlink:title=" ">
<polygon fill="#e0e0e0" stroke="#999999" points="1056,-189.5 1008,-189.5 1008,-170.5 1056,-170.5 1056,-189.5"/>
<text text-anchor="middle" x="1032" y="-177.5" font-family="Helvetica,sans-Serif" font-size="10.00">Wire.h</text>
</a>
</g>
</g>
<!-- Node10&#45;&gt;Node12 -->
<g id="edge18_Node000010_Node000012" class="edge">
<title>Node10&#45;&gt;Node12</title>
<g id="a_edge18_Node000010_Node000012"><a xlink:title=" ">
<path fill="none" stroke="#63b8ff" d="M1101.9,-230.87C1088.94,-221.62 1068.14,-206.78 1052.6,-195.69"/>
<polygon fill="#63b8ff" stroke="#63b8ff" points="1054.32,-192.63 1044.15,-189.67 1050.26,-198.32 1054.32,-192.63"/>
</a>
</g>
</g>
<!-- Node13 -->
<g id="Node000013" class="node">
<title>Node13</title>
<g id="a_Node000013"><a xlink:title=" ">
<polygon fill="#e0e0e0" stroke="#999999" points="1445.5,-189.5 1392.5,-189.5 1392.5,-170.5 1445.5,-170.5 1445.5,-189.5"/>
<text text-anchor="middle" x="1419" y="-177.5" font-family="Helvetica,sans-Serif" font-size="10.00">string.h</text>
</a>
</g>
</g>
<!-- Node10&#45;&gt;Node13 -->
<g id="edge19_Node000010_Node000013" class="edge">
<title>Node10&#45;&gt;Node13</title>
<g id="a_edge19_Node000010_Node000013"><a xlink:title=" ">
<path fill="none" stroke="#63b8ff" d="M1161.76,-232.15C1233.28,-221.06 1362.08,-200.73 1383,-195 1385.15,-194.41 1387.36,-193.74 1389.56,-193.01"/>
<polygon fill="#63b8ff" stroke="#63b8ff" points="1390.84,-196.27 1399.06,-189.6 1388.47,-189.68 1390.84,-196.27"/>
</a>
</g>
</g>
<!-- Node14&#45;&gt;Node8 -->
<g id="edge23_Node000014_Node000008" class="edge">
<title>Node14&#45;&gt;Node8</title>
<g id="a_edge23_Node000014_Node000008"><a xlink:title=" ">
<path fill="none" stroke="#63b8ff" d="M347.03,-232.22C350.07,-231.8 353.07,-231.39 356,-231 490,-213.2 526.57,-226.58 658,-195 660.51,-194.4 663.09,-193.68 665.65,-192.89"/>
<polygon fill="#63b8ff" stroke="#63b8ff" points="667.02,-196.12 675.37,-189.6 664.77,-189.49 667.02,-196.12"/>
</a>
</g>
</g>
<!-- Node15 -->
<g id="Node000015" class="node">
<title>Node15</title>
<g id="a_Node000015"><a xlink:title=" ">
<polygon fill="#e0e0e0" stroke="#999999" points="300.5,-189.5 189.5,-189.5 189.5,-170.5 300.5,-170.5 300.5,-189.5"/>
<text text-anchor="middle" x="245" y="-177.5" font-family="Helvetica,sans-Serif" font-size="10.00">Adafruit_BMP3XX.h</text>
</a>
</g>
</g>
<!-- Node14&#45;&gt;Node15 -->
<g id="edge22_Node000014_Node000015" class="edge">
<title>Node14&#45;&gt;Node15</title>
<g id="a_edge22_Node000014_Node000015"><a xlink:title=" ">
<path fill="none" stroke="#63b8ff" d="M290.18,-230.87C282.19,-222.05 269.61,-208.16 259.74,-197.27"/>
<polygon fill="#63b8ff" stroke="#63b8ff" points="262.16,-194.73 252.85,-189.67 256.97,-199.43 262.16,-194.73"/>
</a>
</g>
</g>
<!-- Node16&#45;&gt;Node8 -->
<g id="edge26_Node000016_Node000008" class="edge">
<title>Node16&#45;&gt;Node8</title>
<g id="a_edge26_Node000016_Node000008"><a xlink:title=" ">
<path fill="none" stroke="#63b8ff" d="M855.18,-230.98C824.55,-222.39 776.31,-208.49 735,-195 732.89,-194.31 730.72,-193.58 728.54,-192.84"/>
<polygon fill="#63b8ff" stroke="#63b8ff" points="729.62,-189.51 719.02,-189.51 727.31,-196.12 729.62,-189.51"/>
</a>
</g>
</g>
<!-- Node16&#45;&gt;Node12 -->
<g id="edge25_Node000016_Node000012" class="edge">
<title>Node16&#45;&gt;Node12</title>
<g id="a_edge25_Node000016_Node000012"><a xlink:title=" ">
<path fill="none" stroke="#63b8ff" d="M908.15,-230.97C930.99,-222.14 967.58,-207.85 999,-195 1000.2,-194.51 1001.42,-194.01 1002.65,-193.5"/>
<polygon fill="#63b8ff" stroke="#63b8ff" points="1004.27,-196.61 1012.14,-189.52 1001.57,-190.16 1004.27,-196.61"/>
</a>
</g>
</g>
<!-- Node17 -->
<g id="Node000017" class="node">
<title>Node17</title>
<g id="a_Node000017"><a xlink:title=" ">
<polygon fill="#e0e0e0" stroke="#999999" points="856.5,-189.5 743.5,-189.5 743.5,-170.5 856.5,-170.5 856.5,-189.5"/>
<text text-anchor="middle" x="800" y="-177.5" font-family="Helvetica,sans-Serif" font-size="10.00">SparkFun_ENS160.h</text>
</a>
</g>
</g>
<!-- Node16&#45;&gt;Node17 -->
<g id="edge27_Node000016_Node000017" class="edge">
<title>Node16&#45;&gt;Node17</title>
<g id="a_edge27_Node000016_Node000017"><a xlink:title=" ">
<path fill="none" stroke="#63b8ff" d="M873.31,-230.87C859.59,-221.54 837.5,-206.51 821.15,-195.38"/>
<polygon fill="#63b8ff" stroke="#63b8ff" points="822.98,-192.4 812.74,-189.67 819.04,-198.19 822.98,-192.4"/>
</a>
</g>
</g>
<!-- Node18&#45;&gt;Node4 -->
<g id="edge33_Node000018_Node000004" class="edge">
<title>Node18&#45;&gt;Node4</title>
<g id="a_edge33_Node000018_Node000004"><a xlink:title=" ">
<path fill="none" stroke="#63b8ff" d="M1700.73,-233.9C1765.07,-226.77 1875.94,-213.18 1970,-195 1974.73,-194.09 1979.66,-193.02 1984.55,-191.89"/>
<polygon fill="#63b8ff" stroke="#63b8ff" points="1985.54,-195.26 1994.44,-189.52 1983.9,-188.45 1985.54,-195.26"/>
</a>
</g>
</g>
<!-- Node18&#45;&gt;Node8 -->
<g id="edge34_Node000018_Node000008" class="edge">
<title>Node18&#45;&gt;Node8</title>
<g id="a_edge34_Node000018_Node000008"><a xlink:title=" ">
<path fill="none" stroke="#63b8ff" d="M1593.31,-236.88C1558.91,-235.2 1513.33,-232.97 1473,-231 1309,-222.99 896.03,-227.09 735,-195 731.99,-194.4 728.91,-193.61 725.85,-192.72"/>
<polygon fill="#63b8ff" stroke="#63b8ff" points="726.91,-189.38 716.32,-189.58 724.72,-196.03 726.91,-189.38"/>
</a>
</g>
</g>
<!-- Node18&#45;&gt;Node13 -->
<g id="edge32_Node000018_Node000013" class="edge">
<title>Node18&#45;&gt;Node13</title>
<g id="a_edge32_Node000018_Node000013"><a xlink:title=" ">
<path fill="none" stroke="#63b8ff" d="M1601.9,-230.95C1562.68,-223.06 1504.53,-210.29 1455,-195 1453.08,-194.41 1451.11,-193.76 1449.14,-193.08"/>
<polygon fill="#63b8ff" stroke="#63b8ff" points="1449.98,-189.66 1439.38,-189.51 1447.57,-196.23 1449.98,-189.66"/>
</a>
</g>
</g>
<!-- Node19 -->
<g id="Node000019" class="node">
<title>Node19</title>
<g id="a_Node000019"><a xlink:title=" ">
<polygon fill="#e0e0e0" stroke="#999999" points="1960.5,-189.5 1841.5,-189.5 1841.5,-170.5 1960.5,-170.5 1960.5,-189.5"/>
<text text-anchor="middle" x="1901" y="-177.5" font-family="Helvetica,sans-Serif" font-size="10.00">Adafruit_ICM20948.h</text>
</a>
</g>
</g>
<!-- Node18&#45;&gt;Node19 -->
<g id="edge29_Node000018_Node000019" class="edge">
<title>Node18&#45;&gt;Node19</title>
<g id="a_edge29_Node000018_Node000019"><a xlink:title=" ">
<path fill="none" stroke="#63b8ff" d="M1683.93,-230.99C1728.89,-220.64 1804.88,-203.14 1853.97,-191.83"/>
<polygon fill="#63b8ff" stroke="#63b8ff" points="1855.06,-195.17 1864.02,-189.52 1853.49,-188.35 1855.06,-195.17"/>
</a>
</g>
</g>
<!-- Node20 -->
<g id="Node000020" class="node">
<title>Node20</title>
<g id="a_Node000020"><a xlink:title=" ">
<polygon fill="#e0e0e0" stroke="#999999" points="1823.5,-189.5 1716.5,-189.5 1716.5,-170.5 1823.5,-170.5 1823.5,-189.5"/>
<text text-anchor="middle" x="1770" y="-177.5" font-family="Helvetica,sans-Serif" font-size="10.00">Adafruit_ICM20X.h</text>
</a>
</g>
</g>
<!-- Node18&#45;&gt;Node20 -->
<g id="edge30_Node000018_Node000020" class="edge">
<title>Node18&#45;&gt;Node20</title>
<g id="a_edge30_Node000018_Node000020"><a xlink:title=" ">
<path fill="none" stroke="#63b8ff" d="M1664.89,-230.99C1685.38,-221.25 1719.19,-205.16 1742.92,-193.88"/>
<polygon fill="#63b8ff" stroke="#63b8ff" points="1744.57,-196.97 1752.09,-189.52 1741.56,-190.65 1744.57,-196.97"/>
</a>
</g>
</g>
<!-- Node21 -->
<g id="Node000021" class="node">
<title>Node21</title>
<g id="a_Node000021"><a xlink:title=" ">
<polygon fill="#e0e0e0" stroke="#999999" points="1698,-189.5 1596,-189.5 1596,-170.5 1698,-170.5 1698,-189.5"/>
<text text-anchor="middle" x="1647" y="-177.5" font-family="Helvetica,sans-Serif" font-size="10.00">Adafruit_Sensor.h</text>
</a>
</g>
</g>
<!-- Node18&#45;&gt;Node21 -->
<g id="edge31_Node000018_Node000021" class="edge">
<title>Node18&#45;&gt;Node21</title>
<g id="a_edge31_Node000018_Node000021"><a xlink:title=" ">
<path fill="none" stroke="#63b8ff" d="M1647,-230.87C1647,-222.75 1647,-210.31 1647,-199.89"/>
<polygon fill="#63b8ff" stroke="#63b8ff" points="1650.5,-199.67 1647,-189.67 1643.5,-199.67 1650.5,-199.67"/>
</a>
</g>
</g>
<!-- Node22&#45;&gt;Node2 -->
<g id="edge36_Node000022_Node000002" class="edge">
<title>Node22&#45;&gt;Node2</title>
<g id="a_edge36_Node000022_Node000002"><a xlink:title=" ">
<path fill="none" stroke="#63b8ff" d="M140.93,-230.98C93.74,-219.79 28.33,-197.66 57,-165 134.19,-77.07 996.75,-24 1198.14,-12.75"/>
<polygon fill="#63b8ff" stroke="#63b8ff" points="1198.51,-16.24 1208.3,-12.19 1198.12,-9.25 1198.51,-16.24"/>
</a>
</g>
</g>
<!-- Node22&#45;&gt;Node8 -->
<g id="edge39_Node000022_Node000008" class="edge">
<title>Node22&#45;&gt;Node8</title>
<g id="a_edge39_Node000022_Node000008"><a xlink:title=" ">
<path fill="none" stroke="#63b8ff" d="M230.72,-232.18C233.86,-231.76 236.97,-231.36 240,-231 425.16,-209 476.01,-235.59 658,-195 660.67,-194.4 663.41,-193.66 666.14,-192.84"/>
<polygon fill="#63b8ff" stroke="#63b8ff" points="667.44,-196.1 675.79,-189.58 665.2,-189.46 667.44,-196.1"/>
</a>
</g>
</g>
<!-- Node22&#45;&gt;Node13 -->
<g id="edge37_Node000022_Node000013" class="edge">
<title>Node22&#45;&gt;Node13</title>
<g id="a_edge37_Node000022_Node000013"><a xlink:title=" ">
<path fill="none" stroke="#63b8ff" d="M230.7,-231.99C233.84,-231.61 236.96,-231.28 240,-231 493.07,-207.89 1134,-245.78 1383,-195 1385.68,-194.45 1388.42,-193.73 1391.13,-192.89"/>
<polygon fill="#63b8ff" stroke="#63b8ff" points="1392.42,-196.14 1400.68,-189.5 1390.08,-189.55 1392.42,-196.14"/>
</a>
</g>
</g>
<!-- Node23 -->
<g id="Node000023" class="node">
<title>Node23</title>
<g id="a_Node000023"><a xlink:title=" ">
<polygon fill="#e0e0e0" stroke="#999999" points="171.5,-189.5 66.5,-189.5 66.5,-170.5 171.5,-170.5 171.5,-189.5"/>
<text text-anchor="middle" x="119" y="-177.5" font-family="Helvetica,sans-Serif" font-size="10.00">Adafruit_INA260.h</text>
</a>
</g>
</g>
<!-- Node22&#45;&gt;Node23 -->
<g id="edge38_Node000022_Node000023" class="edge">
<title>Node22&#45;&gt;Node23</title>
<g id="a_edge38_Node000022_Node000023"><a xlink:title=" ">
<path fill="none" stroke="#63b8ff" d="M174.41,-230.87C164.42,-221.88 148.57,-207.61 136.37,-196.64"/>
<polygon fill="#63b8ff" stroke="#63b8ff" points="138.4,-193.76 128.63,-189.67 133.72,-198.96 138.4,-193.76"/>
</a>
</g>
</g>
<!-- Node24&#45;&gt;Node2 -->
<g id="edge41_Node000024_Node000002" class="edge">
<title>Node24&#45;&gt;Node2</title>
<g id="a_edge41_Node000024_Node000002"><a xlink:title=" ">
<path fill="none" stroke="#63b8ff" d="M1232.24,-230.71C1232.83,-209.79 1234.39,-155.41 1236,-110 1237,-81.84 1238.35,-49.2 1239.2,-29.2"/>
<polygon fill="#63b8ff" stroke="#63b8ff" points="1242.7,-29.16 1239.63,-19.02 1235.71,-28.86 1242.7,-29.16"/>
</a>
</g>
</g>
<!-- Node24&#45;&gt;Node4 -->
<g id="edge44_Node000024_Node000004" class="edge">
<title>Node24&#45;&gt;Node4</title>
<g id="a_edge44_Node000024_Node000004"><a xlink:title=" ">
<path fill="none" stroke="#63b8ff" d="M1284.11,-236.12C1308.65,-234.54 1338.33,-232.65 1365,-231 1633.85,-214.41 1703.75,-235.84 1970,-195 1975.39,-194.17 1981.01,-193.07 1986.53,-191.84"/>
<polygon fill="#63b8ff" stroke="#63b8ff" points="1987.35,-195.24 1996.27,-189.52 1985.74,-188.43 1987.35,-195.24"/>
</a>
</g>
</g>
<!-- Node24&#45;&gt;Node8 -->
<g id="edge45_Node000024_Node000008" class="edge">
<title>Node24&#45;&gt;Node8</title>
<g id="a_edge45_Node000024_Node000008"><a xlink:title=" ">
<path fill="none" stroke="#63b8ff" d="M1179.78,-232.03C1176.81,-231.66 1173.87,-231.32 1171,-231 977.75,-209.57 925.02,-236.2 735,-195 732.17,-194.39 729.26,-193.62 726.37,-192.76"/>
<polygon fill="#63b8ff" stroke="#63b8ff" points="727.35,-189.4 716.75,-189.59 725.15,-196.04 727.35,-189.4"/>
</a>
</g>
</g>
<!-- Node24&#45;&gt;Node12 -->
<g id="edge43_Node000024_Node000012" class="edge">
<title>Node24&#45;&gt;Node12</title>
<g id="a_edge43_Node000024_Node000012"><a xlink:title=" ">
<path fill="none" stroke="#63b8ff" d="M1194.67,-230.95C1160.76,-222.84 1109.53,-209.73 1066,-195 1064.38,-194.45 1062.72,-193.86 1061.06,-193.25"/>
<polygon fill="#63b8ff" stroke="#63b8ff" points="1062.2,-189.94 1051.61,-189.58 1059.66,-196.46 1062.2,-189.94"/>
</a>
</g>
</g>
<!-- Node25 -->
<g id="Node000025" class="node">
<title>Node25</title>
<g id="a_Node000025"><a xlink:title=" ">
<polygon fill="#e0e0e0" stroke="#999999" points="1374,-195 1244,-195 1244,-165 1374,-165 1374,-195"/>
<text text-anchor="start" x="1252" y="-183" font-family="Helvetica,sans-Serif" font-size="10.00">SparkFun_u&#45;blox_GNSS</text>
<text text-anchor="middle" x="1309" y="-172" font-family="Helvetica,sans-Serif" font-size="10.00">_Arduino_Library.h</text>
</a>
</g>
</g>
<!-- Node24&#45;&gt;Node25 -->
<g id="edge42_Node000024_Node000025" class="edge">
<title>Node24&#45;&gt;Node25</title>
<g id="a_edge42_Node000024_Node000025"><a xlink:title=" ">
<path fill="none" stroke="#63b8ff" d="M1243.36,-230.87C1253.62,-223.08 1269.1,-211.32 1282.45,-201.17"/>
<polygon fill="#63b8ff" stroke="#63b8ff" points="1284.58,-203.95 1290.42,-195.11 1280.34,-198.38 1284.58,-203.95"/>
</a>
</g>
</g>
<!-- Node26&#45;&gt;Node8 -->
<g id="edge48_Node000026_Node000008" class="edge">
<title>Node26&#45;&gt;Node8</title>
<g id="a_edge48_Node000026_Node000008"><a xlink:title=" ">
<path fill="none" stroke="#63b8ff" d="M454.56,-231.94C520.58,-220.68 638.71,-200.24 658,-195 660.43,-194.34 662.93,-193.59 665.43,-192.79"/>
<polygon fill="#63b8ff" stroke="#63b8ff" points="666.6,-196.09 674.91,-189.52 664.31,-189.47 666.6,-196.09"/>
</a>
</g>
</g>
<!-- Node27 -->
<g id="Node000027" class="node">
<title>Node27</title>
<g id="a_Node000027"><a xlink:title=" ">
<polygon fill="#e0e0e0" stroke="#999999" points="455,-189.5 319,-189.5 319,-170.5 455,-170.5 455,-189.5"/>
<text text-anchor="middle" x="387" y="-177.5" font-family="Helvetica,sans-Serif" font-size="10.00">DFRobot_OzoneSensor.h</text>
</a>
</g>
</g>
<!-- Node26&#45;&gt;Node27 -->
<g id="edge47_Node000026_Node000027" class="edge">
<title>Node26&#45;&gt;Node27</title>
<g id="a_edge47_Node000026_Node000027"><a xlink:title=" ">
<path fill="none" stroke="#63b8ff" d="M406.61,-230.87C403.34,-222.57 398.31,-209.78 394.16,-199.22"/>
<polygon fill="#63b8ff" stroke="#63b8ff" points="397.32,-197.69 390.41,-189.67 390.81,-200.25 397.32,-197.69"/>
</a>
</g>
</g>
<!-- Node28&#45;&gt;Node8 -->
<g id="edge51_Node000028_Node000008" class="edge">
<title>Node28&#45;&gt;Node8</title>
<g id="a_edge51_Node000028_Node000008"><a xlink:title=" ">
<path fill="none" stroke="#63b8ff" d="M549.73,-230.99C577.03,-222.23 620.6,-208.05 658,-195 659.84,-194.36 661.73,-193.69 663.64,-193.01"/>
<polygon fill="#63b8ff" stroke="#63b8ff" points="664.93,-196.26 673.14,-189.57 662.54,-189.68 664.93,-196.26"/>
</a>
</g>
</g>
<!-- Node29 -->
<g id="Node000029" class="node">
<title>Node29</title>
<g id="a_Node000029"><a xlink:title=" ">
<polygon fill="#e0e0e0" stroke="#999999" points="529,-189.5 473,-189.5 473,-170.5 529,-170.5 529,-189.5"/>
<text text-anchor="middle" x="501" y="-177.5" font-family="Helvetica,sans-Serif" font-size="10.00">RTClib.h</text>
</a>
</g>
</g>
<!-- Node28&#45;&gt;Node29 -->
<g id="edge50_Node000028_Node000029" class="edge">
<title>Node28&#45;&gt;Node29</title>
<g id="a_edge50_Node000028_Node000029"><a xlink:title=" ">
<path fill="none" stroke="#63b8ff" d="M519.75,-230.87C516.63,-222.57 511.82,-209.78 507.85,-199.22"/>
<polygon fill="#63b8ff" stroke="#63b8ff" points="511.06,-197.8 504.26,-189.67 504.5,-200.26 511.06,-197.8"/>
</a>
</g>
</g>
<!-- Node30&#45;&gt;Node4 -->
<g id="edge57_Node000030_Node000004" class="edge">
<title>Node30&#45;&gt;Node4</title>
<g id="a_edge57_Node000030_Node000004"><a xlink:title=" ">
<path fill="none" stroke="#63b8ff" d="M1464.33,-236.8C1577.99,-229.89 1872.93,-210.94 1970,-195 1975.12,-194.16 1980.46,-193.08 1985.73,-191.91"/>
<polygon fill="#63b8ff" stroke="#63b8ff" points="1986.75,-195.26 1995.67,-189.55 1985.13,-188.45 1986.75,-195.26"/>
</a>
</g>
</g>
<!-- Node30&#45;&gt;Node8 -->
<g id="edge58_Node000030_Node000008" class="edge">
<title>Node30&#45;&gt;Node8</title>
<g id="a_edge58_Node000030_Node000008"><a xlink:title=" ">
<path fill="none" stroke="#63b8ff" d="M1373.81,-236.42C1349.8,-234.79 1319.8,-232.77 1293,-231 1045.02,-214.64 978.34,-245.48 735,-195 732,-194.38 728.91,-193.57 725.86,-192.67"/>
<polygon fill="#63b8ff" stroke="#63b8ff" points="726.93,-189.33 716.33,-189.51 724.73,-195.98 726.93,-189.33"/>
</a>
</g>
</g>
<!-- Node30&#45;&gt;Node12 -->
<g id="edge55_Node000030_Node000012" class="edge">
<title>Node30&#45;&gt;Node12</title>
<g id="a_edge55_Node000030_Node000012"><a xlink:title=" ">
<path fill="none" stroke="#63b8ff" d="M1373.96,-235.32C1292.35,-227.51 1123.19,-210.09 1066,-195 1064.06,-194.49 1062.08,-193.89 1060.1,-193.23"/>
<polygon fill="#63b8ff" stroke="#63b8ff" points="1060.99,-189.83 1050.4,-189.61 1058.54,-196.39 1060.99,-189.83"/>
</a>
</g>
</g>
<!-- Node30&#45;&gt;Node13 -->
<g id="edge56_Node000030_Node000013" class="edge">
<title>Node30&#45;&gt;Node13</title>
<g id="a_edge56_Node000030_Node000013"><a xlink:title=" ">
<path fill="none" stroke="#63b8ff" d="M1419,-230.87C1419,-222.75 1419,-210.31 1419,-199.89"/>
<polygon fill="#63b8ff" stroke="#63b8ff" points="1422.5,-199.67 1419,-189.67 1415.5,-199.67 1422.5,-199.67"/>
</a>
</g>
</g>
<!-- Node30&#45;&gt;Node21 -->
<g id="edge53_Node000030_Node000021" class="edge">
<title>Node30&#45;&gt;Node21</title>
<g id="a_edge53_Node000030_Node000021"><a xlink:title=" ">
<path fill="none" stroke="#63b8ff" d="M1452.15,-230.99C1492.26,-220.7 1559.86,-203.36 1603.95,-192.04"/>
<polygon fill="#63b8ff" stroke="#63b8ff" points="1604.99,-195.39 1613.81,-189.52 1603.25,-188.61 1604.99,-195.39"/>
</a>
</g>
</g>
<!-- Node31 -->
<g id="Node000031" class="node">
<title>Node31</title>
<g id="a_Node000031"><a xlink:title=" ">
<polygon fill="#e0e0e0" stroke="#999999" points="1578,-189.5 1464,-189.5 1464,-170.5 1578,-170.5 1578,-189.5"/>
<text text-anchor="middle" x="1521" y="-177.5" font-family="Helvetica,sans-Serif" font-size="10.00">SensirionI2cScd4x.h</text>
</a>
</g>
</g>
<!-- Node30&#45;&gt;Node31 -->
<g id="edge54_Node000030_Node000031" class="edge">
<title>Node30&#45;&gt;Node31</title>
<g id="a_edge54_Node000030_Node000031"><a xlink:title=" ">
<path fill="none" stroke="#63b8ff" d="M1434.05,-230.87C1450.62,-221.36 1477.5,-205.95 1496.99,-194.77"/>
<polygon fill="#63b8ff" stroke="#63b8ff" points="1498.95,-197.68 1505.89,-189.67 1495.47,-191.61 1498.95,-197.68"/>
</a>
</g>
</g>
<!-- Node32&#45;&gt;Node8 -->
<g id="edge61_Node000032_Node000008" class="edge">
<title>Node32&#45;&gt;Node8</title>
<g id="a_edge61_Node000032_Node000008"><a xlink:title=" ">
<path fill="none" stroke="#63b8ff" d="M644.85,-230.87C653.98,-221.97 668.42,-207.89 679.64,-196.95"/>
<polygon fill="#63b8ff" stroke="#63b8ff" points="682.39,-199.15 687.11,-189.67 677.51,-194.14 682.39,-199.15"/>
</a>
</g>
</g>
<!-- Node33 -->
<g id="Node000033" class="node">
<title>Node33</title>
<g id="a_Node000033"><a xlink:title=" ">
<polygon fill="#e0e0e0" stroke="#999999" points="648.5,-189.5 547.5,-189.5 547.5,-170.5 648.5,-170.5 648.5,-189.5"/>
<text text-anchor="middle" x="598" y="-177.5" font-family="Helvetica,sans-Serif" font-size="10.00">Adafruit_SHTC3.h</text>
</a>
</g>
</g>
<!-- Node32&#45;&gt;Node33 -->
<g id="edge60_Node000032_Node000033" class="edge">
<title>Node32&#45;&gt;Node33</title>
<g id="a_edge60_Node000032_Node000033"><a xlink:title=" ">
<path fill="none" stroke="#63b8ff" d="M630.39,-230.87C624.84,-222.31 616.17,-208.97 609.2,-198.24"/>
<polygon fill="#63b8ff" stroke="#63b8ff" points="612.01,-196.15 603.63,-189.67 606.14,-199.96 612.01,-196.15"/>
</a>
</g>
</g>
<!-- Node34&#45;&gt;Node8 -->
<g id="edge65_Node000034_Node000008" class="edge">
<title>Node34&#45;&gt;Node8</title>
<g id="a_edge65_Node000034_Node000008"><a xlink:title=" ">
<path fill="none" stroke="#63b8ff" d="M951.23,-231.79C880.47,-220.54 755.51,-200.36 735,-195 732.5,-194.35 729.94,-193.6 727.38,-192.81"/>
<polygon fill="#63b8ff" stroke="#63b8ff" points="728.24,-189.4 717.65,-189.54 726.02,-196.04 728.24,-189.4"/>
</a>
</g>
</g>
<!-- Node34&#45;&gt;Node12 -->
<g id="edge64_Node000034_Node000012" class="edge">
<title>Node34&#45;&gt;Node12</title>
<g id="a_edge64_Node000034_Node000012"><a xlink:title=" ">
<path fill="none" stroke="#63b8ff" d="M1004.72,-230.87C1009.35,-222.4 1016.55,-209.24 1022.39,-198.57"/>
<polygon fill="#63b8ff" stroke="#63b8ff" points="1025.53,-200.12 1027.26,-189.67 1019.39,-196.76 1025.53,-200.12"/>
</a>
</g>
</g>
<!-- Node35 -->
<g id="Node000035" class="node">
<title>Node35</title>
<g id="a_Node000035"><a xlink:title=" ">
<polygon fill="#e0e0e0" stroke="#999999" points="989.5,-189.5 874.5,-189.5 874.5,-170.5 989.5,-170.5 989.5,-189.5"/>
<text text-anchor="middle" x="932" y="-177.5" font-family="Helvetica,sans-Serif" font-size="10.00">SparkFun_TMP117.h</text>
</a>
</g>
</g>
<!-- Node34&#45;&gt;Node35 -->
<g id="edge63_Node000034_Node000035" class="edge">
<title>Node34&#45;&gt;Node35</title>
<g id="a_edge63_Node000034_Node000035"><a xlink:title=" ">
<path fill="none" stroke="#63b8ff" d="M989.97,-230.87C979.42,-221.8 962.61,-207.34 949.81,-196.32"/>
<polygon fill="#63b8ff" stroke="#63b8ff" points="951.94,-193.54 942.07,-189.67 947.37,-198.84 951.94,-193.54"/>
</a>
</g>
</g>
<!-- Node36&#45;&gt;Node8 -->
<g id="edge67_Node000036_Node000008" class="edge">
<title>Node36&#45;&gt;Node8</title>
<g id="a_edge67_Node000036_Node000008"><a xlink:title=" ">
<path fill="none" stroke="#63b8ff" d="M733.51,-230.87C727.01,-222.23 716.84,-208.7 708.72,-197.92"/>
<polygon fill="#63b8ff" stroke="#63b8ff" points="711.33,-195.56 702.52,-189.67 705.73,-199.76 711.33,-195.56"/>
</a>
</g>
</g>
<!-- Node37&#45;&gt;Node4 -->
<g id="edge71_Node000037_Node000004" class="edge">
<title>Node37&#45;&gt;Node4</title>
<g id="a_edge71_Node000037_Node000004"><a xlink:title=" ">
<path fill="none" stroke="#63b8ff" d="M2201.19,-230.99C2165.44,-220.79 2105.37,-203.65 2065.71,-192.33"/>
<polygon fill="#63b8ff" stroke="#63b8ff" points="2066.42,-188.9 2055.84,-189.52 2064.5,-195.63 2066.42,-188.9"/>
</a>
</g>
</g>
<!-- Node38 -->
<g id="Node000038" class="node">
<title>Node38</title>
<g id="a_Node000038"><a xlink:title=" ">
<polygon fill="#e0e0e0" stroke="#999999" points="2419.5,-189.5 2378.5,-189.5 2378.5,-170.5 2419.5,-170.5 2419.5,-189.5"/>
<text text-anchor="middle" x="2399" y="-177.5" font-family="Helvetica,sans-Serif" font-size="10.00">SPI.h</text>
</a>
</g>
</g>
<!-- Node37&#45;&gt;Node38 -->
<g id="edge69_Node000037_Node000038" class="edge">
<title>Node37&#45;&gt;Node38</title>
<g id="a_edge69_Node000037_Node000038"><a xlink:title=" ">
<path fill="none" stroke="#63b8ff" d="M2261.8,-230.98C2290.26,-222.8 2333.52,-209.56 2370,-195 2371.01,-194.6 2372.04,-194.17 2373.07,-193.73"/>
<polygon fill="#63b8ff" stroke="#63b8ff" points="2374.65,-196.86 2382.31,-189.55 2371.76,-190.49 2374.65,-196.86"/>
</a>
</g>
</g>
<!-- Node39 -->
<g id="Node000039" class="node">
<title>Node39</title>
<g id="a_Node000039"><a xlink:title=" ">
<polygon fill="#e0e0e0" stroke="#999999" points="2484.5,-189.5 2437.5,-189.5 2437.5,-170.5 2484.5,-170.5 2484.5,-189.5"/>
<text text-anchor="middle" x="2461" y="-177.5" font-family="Helvetica,sans-Serif" font-size="10.00">vector</text>
</a>
</g>
</g>
<!-- Node37&#45;&gt;Node39 -->
<g id="edge70_Node000037_Node000039" class="edge">
<title>Node37&#45;&gt;Node39</title>
<g id="a_edge70_Node000037_Node000039"><a xlink:title=" ">
<path fill="none" stroke="#63b8ff" d="M2275.7,-231.98C2316.26,-224.57 2377.44,-211.9 2429,-195 2430.44,-194.53 2431.9,-194.01 2433.37,-193.47"/>
<polygon fill="#63b8ff" stroke="#63b8ff" points="2434.99,-196.59 2442.96,-189.61 2432.38,-190.1 2434.99,-196.59"/>
</a>
</g>
</g>
<!-- Node40 -->
<g id="Node000040" class="node">
<title>Node40</title>
<g id="a_Node000040"><a xlink:title=" ">
<polygon fill="#e0e0e0" stroke="#999999" points="2361,-189.5 2211,-189.5 2211,-170.5 2361,-170.5 2361,-189.5"/>
<text text-anchor="middle" x="2286" y="-177.5" font-family="Helvetica,sans-Serif" font-size="10.00">SparkFun_SPI_SerialFlash.h</text>
</a>
</g>
</g>
<!-- Node37&#45;&gt;Node40 -->
<g id="edge72_Node000037_Node000040" class="edge">
<title>Node37&#45;&gt;Node40</title>
<g id="a_edge72_Node000037_Node000040"><a xlink:title=" ">
<path fill="none" stroke="#63b8ff" d="M2239.12,-230.87C2247.4,-222.05 2260.47,-208.16 2270.7,-197.27"/>
<polygon fill="#63b8ff" stroke="#63b8ff" points="2273.55,-199.35 2277.85,-189.67 2268.45,-194.56 2273.55,-199.35"/>
</a>
</g>
</g>
<!-- Node41 -->
<g id="Node000041" class="node">
<title>Node41</title>
<g id="a_Node000041"><a xlink:href="Storage_8h.html" target="_top" xlink:title=" ">
<polygon fill="white" stroke="#666666" points="2193.5,-189.5 2130.5,-189.5 2130.5,-170.5 2193.5,-170.5 2193.5,-189.5"/>
<text text-anchor="middle" x="2162" y="-177.5" font-family="Helvetica,sans-Serif" font-size="10.00">Storage.h</text>
</a>
</g>
</g>
<!-- Node37&#45;&gt;Node41 -->
<g id="edge73_Node000037_Node000041" class="edge">
<title>Node37&#45;&gt;Node41</title>
<g id="a_edge73_Node000037_Node000041"><a xlink:title=" ">
<path fill="none" stroke="#63b8ff" d="M2220.82,-230.87C2210.12,-221.8 2193.06,-207.34 2180.07,-196.32"/>
<polygon fill="#63b8ff" stroke="#63b8ff" points="2182.11,-193.46 2172.22,-189.67 2177.59,-198.8 2182.11,-193.46"/>
</a>
</g>
</g>
<!-- Node41&#45;&gt;Node2 -->
<g id="edge74_Node000041_Node000002" class="edge">
<title>Node41&#45;&gt;Node2</title>
<g id="a_edge74_Node000041_Node000002"><a xlink:title=" ">
<path fill="none" stroke="#63b8ff" d="M2161.9,-170.14C2161.21,-155.14 2157.46,-124.92 2139,-110 2071.48,-55.44 1449.82,-20.9 1281.73,-12.5"/>
<polygon fill="#63b8ff" stroke="#63b8ff" points="1281.71,-8.99 1271.55,-11.99 1281.37,-15.98 1281.71,-8.99"/>
</a>
</g>
</g>
<!-- Node41&#45;&gt;Node7 -->
<g id="edge76_Node000041_Node000007" class="edge">
<title>Node41&#45;&gt;Node7</title>
<g id="a_edge76_Node000041_Node000007"><a xlink:title=" ">
<path fill="none" stroke="#63b8ff" d="M2159.14,-170.32C2153.58,-155.01 2139.74,-123.59 2116,-110 2051.07,-72.85 1521.19,-66.69 1371.34,-65.69"/>
<polygon fill="#63b8ff" stroke="#63b8ff" points="1371.25,-62.19 1361.22,-65.63 1371.2,-69.19 1371.25,-62.19"/>
</a>
</g>
</g>
<!-- Node41&#45;&gt;Node9 -->
<g id="edge75_Node000041_Node000009" class="edge">
<title>Node41&#45;&gt;Node9</title>
<g id="a_edge75_Node000041_Node000009"><a xlink:title=" ">
<path fill="none" stroke="#63b8ff" d="M2130.22,-172.47C2115.86,-169.75 2098.64,-166.81 2083,-165 1789,-130.99 1431.8,-122.82 1313.88,-121"/>
<polygon fill="#63b8ff" stroke="#63b8ff" points="1313.91,-117.5 1303.86,-120.85 1313.81,-124.49 1313.91,-117.5"/>
</a>
</g>
</g>
</g>
</svg>
