<?xml version="1.0" encoding="UTF-8" standalone="no"?>
<!DOCTYPE svg PUBLIC "-//W3C//DTD SVG 1.1//EN"
 "http://www.w3.org/Graphics/SVG/1.1/DTD/svg11.dtd">
<!-- Generated by graphviz version 2.43.0 (0)
 -->
<!-- Title: real_setup1 Pages: 1 -->
<svg width="421pt" height="138pt"
 viewBox="0.00 0.00 421.00 138.00" xmlns="http://www.w3.org/2000/svg" xmlns:xlink="http://www.w3.org/1999/xlink">
<g id="graph0" class="graph" transform="scale(1 1) rotate(0) translate(4 134)">
<title>real_setup1</title>
<!-- Node1 -->
<g id="Node000001" class="node">
<title>Node1</title>
<g id="a_Node000001"><a xlink:title="Setup for core 1.">
<polygon fill="#999999" stroke="#666666" points="74,-74 0,-74 0,-55 74,-55 74,-74"/>
<text text-anchor="middle" x="37" y="-62" font-family="Helvetica,sans-Serif" font-size="10.00">real_setup1</text>
</a>
</g>
</g>
<!-- Node2 -->
<g id="Node000002" class="node">
<title>Node2</title>
<g id="a_Node000002"><a xlink:href="classErrorDisplay.html#a25018c85cd6b4055a5e796153b997d13" target="_top" xlink:title="Sets the error code to the given value if the given error is of a higher priority then the current er...">
<polygon fill="white" stroke="#666666" points="237.5,-130 112.5,-130 112.5,-111 237.5,-111 237.5,-130"/>
<text text-anchor="middle" x="175" y="-118" font-family="Helvetica,sans-Serif" font-size="10.00">ErrorDisplay::addCode</text>
</a>
</g>
</g>
<!-- Node1&#45;&gt;Node2 -->
<g id="edge1_Node000001_Node000002" class="edge">
<title>Node1&#45;&gt;Node2</title>
<g id="a_edge1_Node000001_Node000002"><a xlink:title=" ">
<path fill="none" stroke="#63b8ff" d="M53.83,-74.11C68.12,-82.47 89.92,-94.48 110,-102.5 114.83,-104.43 119.95,-106.24 125.1,-107.91"/>
<polygon fill="#63b8ff" stroke="#63b8ff" points="124.39,-111.35 134.98,-110.95 126.45,-104.66 124.39,-111.35"/>
</a>
</g>
</g>
<!-- Node3 -->
<g id="Node000003" class="node">
<title>Node3</title>
<g id="a_Node000003"><a xlink:href="classErrorDisplay.html#a4f9e7e64ffc64711653b539bf3d8d24f" target="_top" xlink:title="Accesses the only instance of ErrorDisplay (Singleton)">
<polygon fill="white" stroke="#666666" points="236.5,-93 113.5,-93 113.5,-74 236.5,-74 236.5,-93"/>
<text text-anchor="middle" x="175" y="-81" font-family="Helvetica,sans-Serif" font-size="10.00">ErrorDisplay::instance</text>
</a>
</g>
</g>
<!-- Node1&#45;&gt;Node3 -->
<g id="edge2_Node000001_Node000003" class="edge">
<title>Node1&#45;&gt;Node3</title>
<g id="a_edge2_Node000001_Node000003"><a xlink:title=" ">
<path fill="none" stroke="#63b8ff" d="M74.09,-69.54C83.12,-70.8 93.12,-72.2 103.2,-73.61"/>
<polygon fill="#63b8ff" stroke="#63b8ff" points="102.89,-77.1 113.28,-75.02 103.86,-70.17 102.89,-77.1"/>
</a>
</g>
</g>
<!-- Node4 -->
<g id="Node000004" class="node">
<title>Node4</title>
<g id="a_Node000004"><a xlink:href="classDevice.html#af64c14c9b8d2c9001f81c1ce6776a565" target="_top" xlink:title="Set recovery config (used keep default constructor)">
<polygon fill="white" stroke="#666666" points="240,-56 110,-56 110,-37 240,-37 240,-56"/>
<text text-anchor="middle" x="175" y="-44" font-family="Helvetica,sans-Serif" font-size="10.00">Device::recoveryConfig</text>
</a>
</g>
</g>
<!-- Node1&#45;&gt;Node4 -->
<g id="edge3_Node000001_Node000004" class="edge">
<title>Node1&#45;&gt;Node4</title>
<g id="a_edge3_Node000001_Node000004"><a xlink:title=" ">
<path fill="none" stroke="#63b8ff" d="M74.09,-59.72C82.09,-58.66 90.86,-57.5 99.77,-56.32"/>
<polygon fill="#63b8ff" stroke="#63b8ff" points="100.41,-59.77 109.86,-54.99 99.49,-52.83 100.41,-59.77"/>
</a>
</g>
</g>
<!-- Node7 -->
<g id="Node000007" class="node">
<title>Node7</title>
<g id="a_Node000007"><a xlink:href="main1_8cpp.html#ae906e774900a66757cd10a72cdfc458d" target="_top" xlink:title="Verifies the connection with each storage device, and defines the header_condensed field,...">
<polygon fill="white" stroke="#666666" points="239,-19 111,-19 111,0 239,0 239,-19"/>
<text text-anchor="middle" x="175" y="-7" font-family="Helvetica,sans-Serif" font-size="10.00">verifyStorageRecovery</text>
</a>
</g>
</g>
<!-- Node1&#45;&gt;Node7 -->
<g id="edge6_Node000001_Node000007" class="edge">
<title>Node1&#45;&gt;Node7</title>
<g id="a_edge6_Node000001_Node000007"><a xlink:title=" ">
<path fill="none" stroke="#63b8ff" d="M55.07,-54.9C69.42,-47.09 90.63,-36.15 110,-28.5 115.8,-26.21 121.99,-24.04 128.15,-22.05"/>
<polygon fill="#63b8ff" stroke="#63b8ff" points="129.24,-25.38 137.74,-19.06 127.16,-18.69 129.24,-25.38"/>
</a>
</g>
</g>
<!-- Node5 -->
<g id="Node000005" class="node">
<title>Node5</title>
<g id="a_Node000005"><a xlink:href="classDevice.html#a55cbddb95f3d79876d10e8d5bc85ba5d" target="_top" xlink:title="Set max_attempts.">
<polygon fill="white" stroke="#666666" points="413,-74 276,-74 276,-55 413,-55 413,-74"/>
<text text-anchor="middle" x="344.5" y="-62" font-family="Helvetica,sans-Serif" font-size="10.00">Device::setMaxAttempts</text>
</a>
</g>
</g>
<!-- Node4&#45;&gt;Node5 -->
<g id="edge4_Node000004_Node000005" class="edge">
<title>Node4&#45;&gt;Node5</title>
<g id="a_edge4_Node000004_Node000005"><a xlink:title=" ">
<path fill="none" stroke="#63b8ff" d="M240.28,-53.41C248.64,-54.31 257.26,-55.23 265.81,-56.15"/>
<polygon fill="#63b8ff" stroke="#63b8ff" points="265.46,-59.63 275.78,-57.22 266.21,-52.67 265.46,-59.63"/>
</a>
</g>
</g>
<!-- Node6 -->
<g id="Node000006" class="node">
<title>Node6</title>
<g id="a_Node000006"><a xlink:href="classDevice.html#ae71d2f19c89f1ebfcd756c030458f3b5" target="_top" xlink:title="Set wait_factor.">
<polygon fill="white" stroke="#666666" points="405.5,-37 283.5,-37 283.5,-18 405.5,-18 405.5,-37"/>
<text text-anchor="middle" x="344.5" y="-25" font-family="Helvetica,sans-Serif" font-size="10.00">Device::setWaitFactor</text>
</a>
</g>
</g>
<!-- Node4&#45;&gt;Node6 -->
<g id="edge5_Node000004_Node000006" class="edge">
<title>Node4&#45;&gt;Node6</title>
<g id="a_edge5_Node000004_Node000006"><a xlink:title=" ">
<path fill="none" stroke="#63b8ff" d="M240.28,-39.21C251.09,-37.98 262.35,-36.7 273.3,-35.46"/>
<polygon fill="#63b8ff" stroke="#63b8ff" points="273.7,-38.94 283.24,-34.34 272.91,-31.98 273.7,-38.94"/>
</a>
</g>
</g>
</g>
</svg>
