<?xml version="1.0" encoding="UTF-8" standalone="no"?>
<!DOCTYPE svg PUBLIC "-//W3C//DTD SVG 1.1//EN"
 "http://www.w3.org/Graphics/SVG/1.1/DTD/svg11.dtd">
<!-- Generated by graphviz version 2.43.0 (0)
 -->
<!-- Title: loop1 Pages: 1 -->
<svg width="495pt" height="212pt"
 viewBox="0.00 0.00 495.00 212.00" xmlns="http://www.w3.org/2000/svg" xmlns:xlink="http://www.w3.org/1999/xlink">
<g id="graph0" class="graph" transform="scale(1 1) rotate(0) translate(4 208)">
<title>loop1</title>
<!-- Node1 -->
<g id="Node000001" class="node">
<title>Node1</title>
<g id="a_Node000001"><a xlink:title=" ">
<polygon fill="#999999" stroke="#666666" points="44,-111 0,-111 0,-92 44,-92 44,-111"/>
<text text-anchor="middle" x="22" y="-99" font-family="Helvetica,sans-Serif" font-size="10.00">loop1</text>
</a>
</g>
</g>
<!-- Node2 -->
<g id="Node000002" class="node">
<title>Node2</title>
<g id="a_Node000002"><a xlink:href="main1_8cpp.html#a5d5c43a90af6e8b0e11c818a7e1681e7" target="_top" xlink:title="Loop for core 1.">
<polygon fill="white" stroke="#666666" points="148,-111 80,-111 80,-92 148,-92 148,-111"/>
<text text-anchor="middle" x="114" y="-99" font-family="Helvetica,sans-Serif" font-size="10.00">real_loop1</text>
</a>
</g>
</g>
<!-- Node1&#45;&gt;Node2 -->
<g id="edge1_Node000001_Node000002" class="edge">
<title>Node1&#45;&gt;Node2</title>
<g id="a_edge1_Node000001_Node000002"><a xlink:title=" ">
<path fill="none" stroke="#63b8ff" d="M44.33,-101.5C51.95,-101.5 60.84,-101.5 69.64,-101.5"/>
<polygon fill="#63b8ff" stroke="#63b8ff" points="69.86,-105 79.86,-101.5 69.86,-98 69.86,-105"/>
</a>
</g>
</g>
<!-- Node3 -->
<g id="Node000003" class="node">
<title>Node3</title>
<g id="a_Node000003"><a xlink:href="classFlashStorage.html#ad96a663c3434d8783b30c12ec706ad81" target="_top" xlink:title="Downloads data from flash memory with progress tracking.">
<polygon fill="white" stroke="#666666" points="335,-204 184,-204 184,-185 335,-185 335,-204"/>
<text text-anchor="middle" x="259.5" y="-192" font-family="Helvetica,sans-Serif" font-size="10.00">FlashStorage::downloadFile</text>
</a>
</g>
</g>
<!-- Node2&#45;&gt;Node3 -->
<g id="edge2_Node000002_Node000003" class="edge">
<title>Node2&#45;&gt;Node3</title>
<g id="a_edge2_Node000002_Node000003"><a xlink:title=" ">
<path fill="none" stroke="#63b8ff" d="M121.12,-111.25C131.81,-127.43 155.49,-159.72 184,-176.5 187.02,-178.28 190.2,-179.88 193.48,-181.32"/>
<polygon fill="#63b8ff" stroke="#63b8ff" points="192.35,-184.64 202.94,-184.98 194.88,-178.11 192.35,-184.64"/>
</a>
</g>
</g>
<!-- Node4 -->
<g id="Node000004" class="node">
<title>Node4</title>
<g id="a_Node000004"><a xlink:href="CommandMessage_8cpp.html#a614e558f381a8d26db49eed9b12fd14f" target="_top" xlink:title=" ">
<polygon fill="white" stroke="#666666" points="298.5,-167 220.5,-167 220.5,-148 298.5,-148 298.5,-167"/>
<text text-anchor="middle" x="259.5" y="-155" font-family="Helvetica,sans-Serif" font-size="10.00">getCmdData</text>
</a>
</g>
</g>
<!-- Node2&#45;&gt;Node4 -->
<g id="edge3_Node000002_Node000004" class="edge">
<title>Node2&#45;&gt;Node4</title>
<g id="a_edge3_Node000002_Node000004"><a xlink:title=" ">
<path fill="none" stroke="#63b8ff" d="M129.78,-111.16C143.38,-119.68 164.37,-131.88 184,-139.5 192.38,-142.75 201.53,-145.54 210.45,-147.89"/>
<polygon fill="#63b8ff" stroke="#63b8ff" points="209.84,-151.34 220.38,-150.35 211.52,-144.55 209.84,-151.34"/>
</a>
</g>
</g>
<!-- Node5 -->
<g id="Node000005" class="node">
<title>Node5</title>
<g id="a_Node000005"><a xlink:href="classFlashStorage.html#a318825f36239ed4e7c5bf345c6f95366" target="_top" xlink:title="Prints the current status of the flash storage.">
<polygon fill="white" stroke="#666666" points="326,-130 193,-130 193,-111 326,-111 326,-130"/>
<text text-anchor="middle" x="259.5" y="-118" font-family="Helvetica,sans-Serif" font-size="10.00">FlashStorage::getStatus</text>
</a>
</g>
</g>
<!-- Node2&#45;&gt;Node5 -->
<g id="edge4_Node000002_Node000005" class="edge">
<title>Node2&#45;&gt;Node5</title>
<g id="a_edge4_Node000002_Node000005"><a xlink:title=" ">
<path fill="none" stroke="#63b8ff" d="M148.28,-105.91C158.7,-107.29 170.65,-108.87 182.75,-110.47"/>
<polygon fill="#63b8ff" stroke="#63b8ff" points="182.55,-113.97 192.92,-111.82 183.46,-107.03 182.55,-113.97"/>
</a>
</g>
</g>
<!-- Node6 -->
<g id="Node000006" class="node">
<title>Node6</title>
<g id="a_Node000006"><a xlink:href="CommandMessage_8cpp.html#ad408818d8c69721c19d63006e8ef4d22" target="_top" xlink:title=" ">
<polygon fill="white" stroke="#666666" points="298,-93 221,-93 221,-74 298,-74 298,-93"/>
<text text-anchor="middle" x="259.5" y="-81" font-family="Helvetica,sans-Serif" font-size="10.00">setCmdData</text>
</a>
</g>
</g>
<!-- Node2&#45;&gt;Node6 -->
<g id="edge5_Node000002_Node000006" class="edge">
<title>Node2&#45;&gt;Node6</title>
<g id="a_edge5_Node000002_Node000006"><a xlink:title=" ">
<path fill="none" stroke="#63b8ff" d="M148.28,-97.33C166.84,-95 190.27,-92.06 210.75,-89.49"/>
<polygon fill="#63b8ff" stroke="#63b8ff" points="211.36,-92.94 220.84,-88.22 210.49,-86 211.36,-92.94"/>
</a>
</g>
</g>
<!-- Node7 -->
<g id="Node000007" class="node">
<title>Node7</title>
<g id="a_Node000007"><a xlink:href="main1_8cpp.html#a0f14b13edaa51207f1ff6752e4696ee7" target="_top" xlink:title="Sends data to each storage device, assumes storage devices take care of newline/data end themselves.">
<polygon fill="white" stroke="#666666" points="292,-56 227,-56 227,-37 292,-37 292,-56"/>
<text text-anchor="middle" x="259.5" y="-44" font-family="Helvetica,sans-Serif" font-size="10.00">storeData</text>
</a>
</g>
</g>
<!-- Node2&#45;&gt;Node7 -->
<g id="edge6_Node000002_Node000007" class="edge">
<title>Node2&#45;&gt;Node7</title>
<g id="a_edge6_Node000002_Node000007"><a xlink:title=" ">
<path fill="none" stroke="#63b8ff" d="M130.68,-91.98C144.36,-84 164.94,-72.79 184,-65.5 194.5,-61.48 206.15,-58.05 217.07,-55.26"/>
<polygon fill="#63b8ff" stroke="#63b8ff" points="217.94,-58.65 226.83,-52.87 216.28,-51.85 217.94,-58.65"/>
</a>
</g>
</g>
<!-- Node9 -->
<g id="Node000009" class="node">
<title>Node9</title>
<g id="a_Node000009"><a xlink:href="main1_8cpp.html#a5ea9df4efc2cfe37ef8d6fcfb3157a43" target="_top" xlink:title="Sends data to each storage device.">
<polygon fill="white" stroke="#666666" points="307.5,-19 211.5,-19 211.5,0 307.5,0 307.5,-19"/>
<text text-anchor="middle" x="259.5" y="-7" font-family="Helvetica,sans-Serif" font-size="10.00">storeDataPacket</text>
</a>
</g>
</g>
<!-- Node2&#45;&gt;Node9 -->
<g id="edge8_Node000002_Node000009" class="edge">
<title>Node2&#45;&gt;Node9</title>
<g id="a_edge8_Node000002_Node000009"><a xlink:title=" ">
<path fill="none" stroke="#63b8ff" d="M121.38,-91.8C132.28,-76.03 156.04,-44.94 184,-28.5 189.44,-25.3 195.4,-22.64 201.52,-20.42"/>
<polygon fill="#63b8ff" stroke="#63b8ff" points="202.77,-23.7 211.2,-17.29 200.61,-17.04 202.77,-23.7"/>
</a>
</g>
</g>
<!-- Node8 -->
<g id="Node000008" class="node">
<title>Node8</title>
<g id="a_Node000008"><a xlink:href="classStorage.html#a08674ceb4404690065b1cf39963eb5a3" target="_top" xlink:title="Send string data to storage device.">
<polygon fill="white" stroke="#666666" points="471.5,-56 386.5,-56 386.5,-37 471.5,-37 471.5,-56"/>
<text text-anchor="middle" x="429" y="-44" font-family="Helvetica,sans-Serif" font-size="10.00">Storage::store</text>
</a>
</g>
</g>
<!-- Node7&#45;&gt;Node8 -->
<g id="edge7_Node000007_Node000008" class="edge">
<title>Node7&#45;&gt;Node8</title>
<g id="a_edge7_Node000007_Node000008"><a xlink:title=" ">
<path fill="none" stroke="#63b8ff" d="M292.01,-46.5C315.62,-46.5 348.46,-46.5 375.95,-46.5"/>
<polygon fill="#63b8ff" stroke="#63b8ff" points="376.19,-50 386.19,-46.5 376.19,-43 376.19,-50"/>
</a>
</g>
</g>
<!-- Node10 -->
<g id="Node000010" class="node">
<title>Node10</title>
<g id="a_Node000010"><a xlink:href="classStorage.html#a6ee18f7841fdd0f70091764a59110db2" target="_top" xlink:title="Send packet data to storage device.">
<polygon fill="white" stroke="#666666" points="487,-19 371,-19 371,0 487,0 487,-19"/>
<text text-anchor="middle" x="429" y="-7" font-family="Helvetica,sans-Serif" font-size="10.00">Storage::storePacket</text>
</a>
</g>
</g>
<!-- Node9&#45;&gt;Node10 -->
<g id="edge9_Node000009_Node000010" class="edge">
<title>Node9&#45;&gt;Node10</title>
<g id="a_edge9_Node000009_Node000010"><a xlink:title=" ">
<path fill="none" stroke="#63b8ff" d="M307.6,-9.5C324.02,-9.5 342.79,-9.5 360.53,-9.5"/>
<polygon fill="#63b8ff" stroke="#63b8ff" points="360.84,-13 370.84,-9.5 360.84,-6 360.84,-13"/>
</a>
</g>
</g>
</g>
</svg>
