<?xml version="1.0" encoding="UTF-8" standalone="no"?>
<!DOCTYPE svg PUBLIC "-//W3C//DTD SVG 1.1//EN"
 "http://www.w3.org/Graphics/SVG/1.1/DTD/svg11.dtd">
<!-- Generated by graphviz version 2.43.0 (0)
 -->
<!-- Title: setup Pages: 1 -->
<svg width="213pt" height="66pt"
 viewBox="0.00 0.00 213.00 66.00" xmlns="http://www.w3.org/2000/svg" xmlns:xlink="http://www.w3.org/1999/xlink">
<g id="graph0" class="graph" transform="scale(1 1) rotate(0) translate(4 62)">
<title>setup</title>
<!-- Node1 -->
<g id="node1" class="node">
<title>Node1</title>
<g id="a_node1"><a xlink:title="Setup for core 0.">
<polygon fill="#bfbfbf" stroke="black" points="0,-19.5 0,-38.5 44,-38.5 44,-19.5 0,-19.5"/>
<text text-anchor="middle" x="22" y="-26.5" font-family="Helvetica,sans-Serif" font-size="10.00">setup</text>
</a>
</g>
</g>
<!-- Node2 -->
<g id="node2" class="node">
<title>Node2</title>
<g id="a_node2"><a xlink:href="classErrorDisplay.html#a25018c85cd6b4055a5e796153b997d13" target="_top" xlink:title="Sets the error code to the given value if the given error is of a higher priority then the current er...">
<polygon fill="none" stroke="black" points="80,-38.5 80,-57.5 205,-57.5 205,-38.5 80,-38.5"/>
<text text-anchor="middle" x="142.5" y="-45.5" font-family="Helvetica,sans-Serif" font-size="10.00">ErrorDisplay::addCode</text>
</a>
</g>
</g>
<!-- Node1&#45;&gt;Node2 -->
<g id="edge1" class="edge">
<title>Node1&#45;&gt;Node2</title>
<path fill="none" stroke="midnightblue" d="M44.19,-32.4C52.22,-33.69 61.88,-35.23 71.95,-36.85"/>
<polygon fill="midnightblue" stroke="midnightblue" points="71.69,-40.35 82.11,-38.48 72.79,-33.44 71.69,-40.35"/>
</g>
<!-- Node3 -->
<g id="node3" class="node">
<title>Node3</title>
<g id="a_node3"><a xlink:href="classErrorDisplay.html#a164dea875d8b3215203e5d6f0076f237" target="_top" xlink:title="Accesses the only instance of ErrorDisplay (Singleton)">
<polygon fill="none" stroke="black" points="81,-0.5 81,-19.5 204,-19.5 204,-0.5 81,-0.5"/>
<text text-anchor="middle" x="142.5" y="-7.5" font-family="Helvetica,sans-Serif" font-size="10.00">ErrorDisplay::instance</text>
</a>
</g>
</g>
<!-- Node1&#45;&gt;Node3 -->
<g id="edge2" class="edge">
<title>Node1&#45;&gt;Node3</title>
<path fill="none" stroke="midnightblue" d="M44.19,-25.6C52.22,-24.31 61.88,-22.77 71.95,-21.15"/>
<polygon fill="midnightblue" stroke="midnightblue" points="72.79,-24.56 82.11,-19.52 71.69,-17.65 72.79,-24.56"/>
</g>
</g>
</svg>
