<?xml version="1.0" encoding="UTF-8" standalone="no"?>
<!DOCTYPE svg PUBLIC "-//W3C//DTD SVG 1.1//EN"
 "http://www.w3.org/Graphics/SVG/1.1/DTD/svg11.dtd">
<!-- Generated by graphviz version 2.43.0 (0)
 -->
<!-- Title: main1.cpp Pages: 1 -->
<svg width="918pt" height="302pt"
 viewBox="0.00 0.00 917.50 302.00" xmlns="http://www.w3.org/2000/svg" xmlns:xlink="http://www.w3.org/1999/xlink">
<g id="graph0" class="graph" transform="scale(1 1) rotate(0) translate(4 298)">
<title>main1.cpp</title>
<!-- Node1 -->
<g id="Node000001" class="node">
<title>Node1</title>
<g id="a_Node000001"><a xlink:title="Main functions for Core 1, responsible for sending data to storage peripherals.">
<polygon fill="#999999" stroke="#666666" points="295,-294 227,-294 227,-275 295,-275 295,-294"/>
<text text-anchor="middle" x="261" y="-282" font-family="Helvetica,sans-Serif" font-size="10.00">main1.cpp</text>
</a>
</g>
</g>
<!-- Node2 -->
<g id="Node000002" class="node">
<title>Node2</title>
<g id="a_Node000002"><a xlink:title=" ">
<polygon fill="#e0e0e0" stroke="#999999" points="192.5,-19 129.5,-19 129.5,0 192.5,0 192.5,-19"/>
<text text-anchor="middle" x="161" y="-7" font-family="Helvetica,sans-Serif" font-size="10.00">Arduino.h</text>
</a>
</g>
</g>
<!-- Node1&#45;&gt;Node2 -->
<g id="edge1_Node000001_Node000002" class="edge">
<title>Node1&#45;&gt;Node2</title>
<g id="a_edge1_Node000001_Node000002"><a xlink:title=" ">
<path fill="none" stroke="#63b8ff" d="M226.88,-284.33C156.13,-284.1 0,-272.6 0,-175.5 0,-175.5 0,-175.5 0,-118.5 0,-61 71.71,-32.14 119.41,-19.31"/>
<polygon fill="#63b8ff" stroke="#63b8ff" points="120.37,-22.68 129.19,-16.81 118.64,-15.9 120.37,-22.68"/>
</a>
</g>
</g>
<!-- Node3 -->
<g id="Node000003" class="node">
<title>Node3</title>
<g id="a_Node000003"><a xlink:href="ErrorDisplay_8h.html" target="_top" xlink:title=" ">
<polygon fill="white" stroke="#666666" points="480,-184 396,-184 396,-165 480,-165 480,-184"/>
<text text-anchor="middle" x="438" y="-172" font-family="Helvetica,sans-Serif" font-size="10.00">ErrorDisplay.h</text>
</a>
</g>
</g>
<!-- Node1&#45;&gt;Node3 -->
<g id="edge2_Node000001_Node000003" class="edge">
<title>Node1&#45;&gt;Node3</title>
<g id="a_edge2_Node000001_Node000003"><a xlink:title=" ">
<path fill="none" stroke="#63b8ff" d="M278.13,-274.96C295.12,-266.35 321.74,-252.44 344,-239 370.08,-223.26 398.96,-203.35 417.74,-190.07"/>
<polygon fill="#63b8ff" stroke="#63b8ff" points="419.97,-192.77 426.09,-184.12 415.91,-187.07 419.97,-192.77"/>
</a>
</g>
</g>
<!-- Node4 -->
<g id="Node000004" class="node">
<title>Node4</title>
<g id="a_Node000004"><a xlink:href="PayloadConfig_8h.html" target="_top" xlink:title="Central location for pinout and config defines.">
<polygon fill="white" stroke="#666666" points="377.5,-129 282.5,-129 282.5,-110 377.5,-110 377.5,-129"/>
<text text-anchor="middle" x="330" y="-117" font-family="Helvetica,sans-Serif" font-size="10.00">PayloadConfig.h</text>
</a>
</g>
</g>
<!-- Node1&#45;&gt;Node4 -->
<g id="edge9_Node000001_Node000004" class="edge">
<title>Node1&#45;&gt;Node4</title>
<g id="a_edge9_Node000001_Node000004"><a xlink:title=" ">
<path fill="none" stroke="#63b8ff" d="M273.93,-274.86C284.8,-266.88 299.84,-254 308,-239 325.43,-206.95 329.32,-163.58 330.03,-139.18"/>
<polygon fill="#63b8ff" stroke="#63b8ff" points="333.53,-139.18 330.17,-129.14 326.53,-139.09 333.53,-139.18"/>
</a>
</g>
</g>
<!-- Node7 -->
<g id="Node000007" class="node">
<title>Node7</title>
<g id="a_Node000007"><a xlink:href="Logger_8h.html" target="_top" xlink:title=" ">
<polygon fill="white" stroke="#666666" points="162,-74 104,-74 104,-55 162,-55 162,-74"/>
<text text-anchor="middle" x="133" y="-62" font-family="Helvetica,sans-Serif" font-size="10.00">Logger.h</text>
</a>
</g>
</g>
<!-- Node1&#45;&gt;Node7 -->
<g id="edge7_Node000001_Node000007" class="edge">
<title>Node1&#45;&gt;Node7</title>
<g id="a_edge7_Node000001_Node000007"><a xlink:title=" ">
<path fill="none" stroke="#63b8ff" d="M226.71,-280.97C174.9,-276.35 80.53,-264.57 60,-239 20.02,-189.2 83.63,-114.32 115.96,-81.67"/>
<polygon fill="#63b8ff" stroke="#63b8ff" points="118.76,-83.84 123.43,-74.33 113.85,-78.85 118.76,-83.84"/>
</a>
</g>
</g>
<!-- Node8 -->
<g id="Node000008" class="node">
<title>Node8</title>
<g id="a_Node000008"><a xlink:href="Storage_8h.html" target="_top" xlink:title=" ">
<polygon fill="white" stroke="#666666" points="205.5,-184 142.5,-184 142.5,-165 205.5,-165 205.5,-184"/>
<text text-anchor="middle" x="174" y="-172" font-family="Helvetica,sans-Serif" font-size="10.00">Storage.h</text>
</a>
</g>
</g>
<!-- Node1&#45;&gt;Node8 -->
<g id="edge10_Node000001_Node000008" class="edge">
<title>Node1&#45;&gt;Node8</title>
<g id="a_edge10_Node000001_Node000008"><a xlink:title=" ">
<path fill="none" stroke="#63b8ff" d="M249.9,-274.71C239.61,-266.23 224.24,-252.71 213,-239 201.23,-224.65 190.41,-206.45 183.16,-193.21"/>
<polygon fill="#63b8ff" stroke="#63b8ff" points="186.16,-191.39 178.37,-184.21 179.98,-194.68 186.16,-191.39"/>
</a>
</g>
</g>
<!-- Node10 -->
<g id="Node000010" class="node">
<title>Node10</title>
<g id="a_Node000010"><a xlink:href="CommandMessage_8h.html" target="_top" xlink:title=" ">
<polygon fill="white" stroke="#666666" points="909.5,-184 790.5,-184 790.5,-165 909.5,-165 909.5,-184"/>
<text text-anchor="middle" x="850" y="-172" font-family="Helvetica,sans-Serif" font-size="10.00">CommandMessage.h</text>
</a>
</g>
</g>
<!-- Node1&#45;&gt;Node10 -->
<g id="edge16_Node000001_Node000010" class="edge">
<title>Node1&#45;&gt;Node10</title>
<g id="a_edge16_Node000001_Node000010"><a xlink:title=" ">
<path fill="none" stroke="#63b8ff" d="M295.36,-278.84C349.61,-271.35 458.36,-255.74 550,-239 639.85,-222.59 744.02,-199.65 802.95,-186.31"/>
<polygon fill="#63b8ff" stroke="#63b8ff" points="803.74,-189.72 812.72,-184.09 802.19,-182.89 803.74,-189.72"/>
</a>
</g>
</g>
<!-- Node11 -->
<g id="Node000011" class="node">
<title>Node11</title>
<g id="a_Node000011"><a xlink:href="FlashStorage_8h.html" target="_top" xlink:title=" ">
<polygon fill="white" stroke="#666666" points="541.5,-239 452.5,-239 452.5,-220 541.5,-220 541.5,-239"/>
<text text-anchor="middle" x="497" y="-227" font-family="Helvetica,sans-Serif" font-size="10.00">FlashStorage.h</text>
</a>
</g>
</g>
<!-- Node1&#45;&gt;Node11 -->
<g id="edge19_Node000001_Node000011" class="edge">
<title>Node1&#45;&gt;Node11</title>
<g id="a_edge19_Node000001_Node000011"><a xlink:title=" ">
<path fill="none" stroke="#63b8ff" d="M295.06,-275.85C335.53,-266.76 403.31,-251.54 449.06,-241.27"/>
<polygon fill="#63b8ff" stroke="#63b8ff" points="450.05,-244.63 459.04,-239.03 448.51,-237.8 450.05,-244.63"/>
</a>
</g>
</g>
<!-- Node15 -->
<g id="Node000015" class="node">
<title>Node15</title>
<g id="a_Node000015"><a xlink:href="RadioStorage_8h.html" target="_top" xlink:title=" ">
<polygon fill="white" stroke="#666666" points="160.5,-239 69.5,-239 69.5,-220 160.5,-220 160.5,-239"/>
<text text-anchor="middle" x="115" y="-227" font-family="Helvetica,sans-Serif" font-size="10.00">RadioStorage.h</text>
</a>
</g>
</g>
<!-- Node1&#45;&gt;Node15 -->
<g id="edge25_Node000001_Node000015" class="edge">
<title>Node1&#45;&gt;Node15</title>
<g id="a_edge25_Node000001_Node000015"><a xlink:title=" ">
<path fill="none" stroke="#63b8ff" d="M237.54,-274.98C213.42,-266.23 175.63,-252.51 148.4,-242.62"/>
<polygon fill="#63b8ff" stroke="#63b8ff" points="149.48,-239.29 138.88,-239.17 147.09,-245.87 149.48,-239.29"/>
</a>
</g>
</g>
<!-- Node16 -->
<g id="Node000016" class="node">
<title>Node16</title>
<g id="a_Node000016"><a xlink:href="SDStorage_8h.html" target="_top" xlink:title=" ">
<polygon fill="white" stroke="#666666" points="299.5,-239 222.5,-239 222.5,-220 299.5,-220 299.5,-239"/>
<text text-anchor="middle" x="261" y="-227" font-family="Helvetica,sans-Serif" font-size="10.00">SDStorage.h</text>
</a>
</g>
</g>
<!-- Node1&#45;&gt;Node16 -->
<g id="edge29_Node000001_Node000016" class="edge">
<title>Node1&#45;&gt;Node16</title>
<g id="a_edge29_Node000001_Node000016"><a xlink:title=" ">
<path fill="none" stroke="#63b8ff" d="M261,-274.75C261,-267.8 261,-257.85 261,-249.13"/>
<polygon fill="#63b8ff" stroke="#63b8ff" points="264.5,-249.09 261,-239.09 257.5,-249.09 264.5,-249.09"/>
</a>
</g>
</g>
<!-- Node3&#45;&gt;Node2 -->
<g id="edge3_Node000003_Node000002" class="edge">
<title>Node3&#45;&gt;Node2</title>
<g id="a_edge3_Node000003_Node000002"><a xlink:title=" ">
<path fill="none" stroke="#63b8ff" d="M432.65,-164.59C424.21,-151.17 406.64,-125.7 386,-110 328.57,-66.29 248.92,-36.93 201.41,-22.02"/>
<polygon fill="#63b8ff" stroke="#63b8ff" points="202.37,-18.66 191.78,-19.06 200.31,-25.35 202.37,-18.66"/>
</a>
</g>
</g>
<!-- Node3&#45;&gt;Node4 -->
<g id="edge4_Node000003_Node000004" class="edge">
<title>Node3&#45;&gt;Node4</title>
<g id="a_edge4_Node000003_Node000004"><a xlink:title=" ">
<path fill="none" stroke="#63b8ff" d="M420.65,-164.98C403.43,-156.54 376.8,-143.47 356.85,-133.68"/>
<polygon fill="#63b8ff" stroke="#63b8ff" points="358.19,-130.43 347.67,-129.17 355.1,-136.72 358.19,-130.43"/>
</a>
</g>
</g>
<!-- Node5 -->
<g id="Node000005" class="node">
<title>Node5</title>
<g id="a_Node000005"><a xlink:title=" ">
<polygon fill="#e0e0e0" stroke="#999999" points="832.5,-129 737.5,-129 737.5,-110 832.5,-110 832.5,-129"/>
<text text-anchor="middle" x="785" y="-117" font-family="Helvetica,sans-Serif" font-size="10.00">pico/multicore.h</text>
</a>
</g>
</g>
<!-- Node3&#45;&gt;Node5 -->
<g id="edge5_Node000003_Node000005" class="edge">
<title>Node3&#45;&gt;Node5</title>
<g id="a_edge5_Node000003_Node000005"><a xlink:title=" ">
<path fill="none" stroke="#63b8ff" d="M480.02,-166.44C483.06,-165.95 486.07,-165.46 489,-165 571.72,-151.89 667.61,-137.65 727.3,-128.9"/>
<polygon fill="#63b8ff" stroke="#63b8ff" points="727.9,-132.35 737.29,-127.43 726.88,-125.42 727.9,-132.35"/>
</a>
</g>
</g>
<!-- Node6 -->
<g id="Node000006" class="node">
<title>Node6</title>
<g id="a_Node000006"><a xlink:title=" ">
<polygon fill="#e0e0e0" stroke="#999999" points="655,-129 579,-129 579,-110 655,-110 655,-129"/>
<text text-anchor="middle" x="617" y="-117" font-family="Helvetica,sans-Serif" font-size="10.00">pico/stdlib.h</text>
</a>
</g>
</g>
<!-- Node3&#45;&gt;Node6 -->
<g id="edge6_Node000003_Node000006" class="edge">
<title>Node3&#45;&gt;Node6</title>
<g id="a_edge6_Node000003_Node000006"><a xlink:title=" ">
<path fill="none" stroke="#63b8ff" d="M466.76,-164.98C496.94,-156.05 544.57,-141.94 578.1,-132.02"/>
<polygon fill="#63b8ff" stroke="#63b8ff" points="579.42,-135.28 588.02,-129.08 577.43,-128.57 579.42,-135.28"/>
</a>
</g>
</g>
<!-- Node7&#45;&gt;Node2 -->
<g id="edge8_Node000007_Node000002" class="edge">
<title>Node7&#45;&gt;Node2</title>
<g id="a_edge8_Node000007_Node000002"><a xlink:title=" ">
<path fill="none" stroke="#63b8ff" d="M137.62,-54.75C141.46,-47.49 147.02,-36.95 151.76,-27.98"/>
<polygon fill="#63b8ff" stroke="#63b8ff" points="154.89,-29.57 156.46,-19.09 148.7,-26.3 154.89,-29.57"/>
</a>
</g>
</g>
<!-- Node8&#45;&gt;Node2 -->
<g id="edge11_Node000008_Node000002" class="edge">
<title>Node8&#45;&gt;Node2</title>
<g id="a_edge11_Node000008_Node000002"><a xlink:title=" ">
<path fill="none" stroke="#63b8ff" d="M184.71,-164.93C193.93,-156.8 206.59,-143.68 212,-129 214.92,-121.08 213.85,-118.24 212,-110 205.02,-78.89 186,-46.74 173.27,-27.69"/>
<polygon fill="#63b8ff" stroke="#63b8ff" points="175.99,-25.48 167.44,-19.23 170.23,-29.45 175.99,-25.48"/>
</a>
</g>
</g>
<!-- Node8&#45;&gt;Node7 -->
<g id="edge15_Node000008_Node000007" class="edge">
<title>Node8&#45;&gt;Node7</title>
<g id="a_edge15_Node000008_Node000007"><a xlink:title=" ">
<path fill="none" stroke="#63b8ff" d="M163.12,-164.95C153.74,-156.83 140.8,-143.72 135,-129 129.37,-114.71 129.27,-97.19 130.35,-84.17"/>
<polygon fill="#63b8ff" stroke="#63b8ff" points="133.85,-84.41 131.5,-74.08 126.89,-83.62 133.85,-84.41"/>
</a>
</g>
</g>
<!-- Node9 -->
<g id="Node000009" class="node">
<title>Node9</title>
<g id="a_Node000009"><a xlink:href="Device_8h.html" target="_top" xlink:title=" ">
<polygon fill="white" stroke="#666666" points="203.5,-129 144.5,-129 144.5,-110 203.5,-110 203.5,-129"/>
<text text-anchor="middle" x="174" y="-117" font-family="Helvetica,sans-Serif" font-size="10.00">Device.h</text>
</a>
</g>
</g>
<!-- Node8&#45;&gt;Node9 -->
<g id="edge12_Node000008_Node000009" class="edge">
<title>Node8&#45;&gt;Node9</title>
<g id="a_edge12_Node000008_Node000009"><a xlink:title=" ">
<path fill="none" stroke="#63b8ff" d="M174,-164.75C174,-157.8 174,-147.85 174,-139.13"/>
<polygon fill="#63b8ff" stroke="#63b8ff" points="177.5,-139.09 174,-129.09 170.5,-139.09 177.5,-139.09"/>
</a>
</g>
</g>
<!-- Node9&#45;&gt;Node2 -->
<g id="edge13_Node000009_Node000002" class="edge">
<title>Node9&#45;&gt;Node2</title>
<g id="a_edge13_Node000009_Node000002"><a xlink:title=" ">
<path fill="none" stroke="#63b8ff" d="M174.07,-109.83C174.05,-97.56 173.63,-74.47 171,-55 169.84,-46.37 167.83,-36.94 165.91,-28.99"/>
<polygon fill="#63b8ff" stroke="#63b8ff" points="169.3,-28.12 163.45,-19.28 162.52,-29.84 169.3,-28.12"/>
</a>
</g>
</g>
<!-- Node9&#45;&gt;Node7 -->
<g id="edge14_Node000009_Node000007" class="edge">
<title>Node9&#45;&gt;Node7</title>
<g id="a_edge14_Node000009_Node000007"><a xlink:title=" ">
<path fill="none" stroke="#63b8ff" d="M167.23,-109.75C161.44,-102.26 152.94,-91.28 145.86,-82.13"/>
<polygon fill="#63b8ff" stroke="#63b8ff" points="148.53,-79.86 139.64,-74.09 142.99,-84.14 148.53,-79.86"/>
</a>
</g>
</g>
<!-- Node10&#45;&gt;Node5 -->
<g id="edge17_Node000010_Node000005" class="edge">
<title>Node10&#45;&gt;Node5</title>
<g id="a_edge17_Node000010_Node000005"><a xlink:title=" ">
<path fill="none" stroke="#63b8ff" d="M839.56,-164.98C829.85,-157.07 815.18,-145.11 803.5,-135.58"/>
<polygon fill="#63b8ff" stroke="#63b8ff" points="805.6,-132.78 795.63,-129.17 801.17,-138.2 805.6,-132.78"/>
</a>
</g>
</g>
<!-- Node10&#45;&gt;Node6 -->
<g id="edge18_Node000010_Node000006" class="edge">
<title>Node10&#45;&gt;Node6</title>
<g id="a_edge18_Node000010_Node000006"><a xlink:title=" ">
<path fill="none" stroke="#63b8ff" d="M812.56,-164.98C772.35,-155.84 708.32,-141.27 664.56,-131.32"/>
<polygon fill="#63b8ff" stroke="#63b8ff" points="665.26,-127.89 654.73,-129.08 663.7,-134.71 665.26,-127.89"/>
</a>
</g>
</g>
<!-- Node11&#45;&gt;Node4 -->
<g id="edge22_Node000011_Node000004" class="edge">
<title>Node11&#45;&gt;Node4</title>
<g id="a_edge22_Node000011_Node000004"><a xlink:title=" ">
<path fill="none" stroke="#63b8ff" d="M465.23,-219.88C442.17,-212.66 410.95,-200.8 387,-184 368.7,-171.16 352.16,-151.38 341.67,-137.32"/>
<polygon fill="#63b8ff" stroke="#63b8ff" points="344.38,-135.09 335.7,-129.03 338.71,-139.19 344.38,-135.09"/>
</a>
</g>
</g>
<!-- Node11&#45;&gt;Node8 -->
<g id="edge24_Node000011_Node000008" class="edge">
<title>Node11&#45;&gt;Node8</title>
<g id="a_edge24_Node000011_Node000008"><a xlink:title=" ">
<path fill="none" stroke="#63b8ff" d="M452.43,-221.19C389.93,-210.93 277.09,-192.42 216.01,-182.39"/>
<polygon fill="#63b8ff" stroke="#63b8ff" points="216.38,-178.91 205.95,-180.74 215.25,-185.82 216.38,-178.91"/>
</a>
</g>
</g>
<!-- Node12 -->
<g id="Node000012" class="node">
<title>Node12</title>
<g id="a_Node000012"><a xlink:title=" ">
<polygon fill="#e0e0e0" stroke="#999999" points="539.5,-184 498.5,-184 498.5,-165 539.5,-165 539.5,-184"/>
<text text-anchor="middle" x="519" y="-172" font-family="Helvetica,sans-Serif" font-size="10.00">SPI.h</text>
</a>
</g>
</g>
<!-- Node11&#45;&gt;Node12 -->
<g id="edge20_Node000011_Node000012" class="edge">
<title>Node11&#45;&gt;Node12</title>
<g id="a_edge20_Node000011_Node000012"><a xlink:title=" ">
<path fill="none" stroke="#63b8ff" d="M500.63,-219.75C503.58,-212.65 507.83,-202.4 511.51,-193.56"/>
<polygon fill="#63b8ff" stroke="#63b8ff" points="514.83,-194.67 515.43,-184.09 508.37,-191.98 514.83,-194.67"/>
</a>
</g>
</g>
<!-- Node13 -->
<g id="Node000013" class="node">
<title>Node13</title>
<g id="a_Node000013"><a xlink:title=" ">
<polygon fill="#e0e0e0" stroke="#999999" points="604.5,-184 557.5,-184 557.5,-165 604.5,-165 604.5,-184"/>
<text text-anchor="middle" x="581" y="-172" font-family="Helvetica,sans-Serif" font-size="10.00">vector</text>
</a>
</g>
</g>
<!-- Node11&#45;&gt;Node13 -->
<g id="edge21_Node000011_Node000013" class="edge">
<title>Node11&#45;&gt;Node13</title>
<g id="a_edge21_Node000011_Node000013"><a xlink:title=" ">
<path fill="none" stroke="#63b8ff" d="M510.5,-219.98C523.4,-211.84 543.1,-199.41 558.4,-189.76"/>
<polygon fill="#63b8ff" stroke="#63b8ff" points="560.67,-192.47 567.26,-184.17 556.93,-186.55 560.67,-192.47"/>
</a>
</g>
</g>
<!-- Node14 -->
<g id="Node000014" class="node">
<title>Node14</title>
<g id="a_Node000014"><a xlink:title=" ">
<polygon fill="#e0e0e0" stroke="#999999" points="772,-184 622,-184 622,-165 772,-165 772,-184"/>
<text text-anchor="middle" x="697" y="-172" font-family="Helvetica,sans-Serif" font-size="10.00">SparkFun_SPI_SerialFlash.h</text>
</a>
</g>
</g>
<!-- Node11&#45;&gt;Node14 -->
<g id="edge23_Node000011_Node000014" class="edge">
<title>Node11&#45;&gt;Node14</title>
<g id="a_edge23_Node000011_Node000014"><a xlink:title=" ">
<path fill="none" stroke="#63b8ff" d="M529.13,-219.98C563.15,-210.97 617,-196.7 654.5,-186.76"/>
<polygon fill="#63b8ff" stroke="#63b8ff" points="655.84,-190.03 664.61,-184.08 654.05,-183.26 655.84,-190.03"/>
</a>
</g>
</g>
<!-- Node15&#45;&gt;Node2 -->
<g id="edge26_Node000015_Node000002" class="edge">
<title>Node15&#45;&gt;Node2</title>
<g id="a_edge26_Node000015_Node000002"><a xlink:title=" ">
<path fill="none" stroke="#63b8ff" d="M110.76,-219.92C98.34,-193.49 64.82,-111.75 95,-55 102.31,-41.25 115.97,-30.99 128.97,-23.8"/>
<polygon fill="#63b8ff" stroke="#63b8ff" points="130.89,-26.75 138.22,-19.11 127.72,-20.51 130.89,-26.75"/>
</a>
</g>
</g>
<!-- Node15&#45;&gt;Node4 -->
<g id="edge27_Node000015_Node000004" class="edge">
<title>Node15&#45;&gt;Node4</title>
<g id="a_edge27_Node000015_Node000004"><a xlink:title=" ">
<path fill="none" stroke="#63b8ff" d="M114.84,-219.7C115.09,-205.96 117.69,-179.5 133,-165 152.82,-146.22 221.46,-133.82 272.17,-126.99"/>
<polygon fill="#63b8ff" stroke="#63b8ff" points="272.91,-130.42 282.37,-125.65 272,-123.48 272.91,-130.42"/>
</a>
</g>
</g>
<!-- Node15&#45;&gt;Node8 -->
<g id="edge28_Node000015_Node000008" class="edge">
<title>Node15&#45;&gt;Node8</title>
<g id="a_edge28_Node000015_Node000008"><a xlink:title=" ">
<path fill="none" stroke="#63b8ff" d="M124.48,-219.98C133.2,-212.15 146.34,-200.34 156.9,-190.86"/>
<polygon fill="#63b8ff" stroke="#63b8ff" points="159.25,-193.46 164.35,-184.17 154.57,-188.25 159.25,-193.46"/>
</a>
</g>
</g>
<!-- Node16&#45;&gt;Node3 -->
<g id="edge30_Node000016_Node000003" class="edge">
<title>Node16&#45;&gt;Node3</title>
<g id="a_edge30_Node000016_Node000003"><a xlink:title=" ">
<path fill="none" stroke="#63b8ff" d="M289.44,-219.98C319.28,-211.05 366.38,-196.94 399.53,-187.02"/>
<polygon fill="#63b8ff" stroke="#63b8ff" points="400.76,-190.3 409.34,-184.08 398.76,-183.6 400.76,-190.3"/>
</a>
</g>
</g>
<!-- Node16&#45;&gt;Node4 -->
<g id="edge31_Node000016_Node000004" class="edge">
<title>Node16&#45;&gt;Node4</title>
<g id="a_edge31_Node000016_Node000004"><a xlink:title=" ">
<path fill="none" stroke="#63b8ff" d="M256.66,-219.61C251.02,-206.68 243,-182.32 253,-165 261.42,-150.41 276.65,-140.17 291.35,-133.23"/>
<polygon fill="#63b8ff" stroke="#63b8ff" points="293.07,-136.3 300.86,-129.13 290.29,-129.87 293.07,-136.3"/>
</a>
</g>
</g>
<!-- Node16&#45;&gt;Node8 -->
<g id="edge33_Node000016_Node000008" class="edge">
<title>Node16&#45;&gt;Node8</title>
<g id="a_edge33_Node000016_Node000008"><a xlink:title=" ">
<path fill="none" stroke="#63b8ff" d="M247.02,-219.98C233.53,-211.77 212.87,-199.18 196.96,-189.49"/>
<polygon fill="#63b8ff" stroke="#63b8ff" points="198.59,-186.38 188.23,-184.17 194.95,-192.36 198.59,-186.38"/>
</a>
</g>
</g>
<!-- Node17 -->
<g id="Node000017" class="node">
<title>Node17</title>
<g id="a_Node000017"><a xlink:title=" ">
<polygon fill="#e0e0e0" stroke="#999999" points="301.5,-184 262.5,-184 262.5,-165 301.5,-165 301.5,-184"/>
<text text-anchor="middle" x="282" y="-172" font-family="Helvetica,sans-Serif" font-size="10.00">SD.h</text>
</a>
</g>
</g>
<!-- Node16&#45;&gt;Node17 -->
<g id="edge32_Node000016_Node000017" class="edge">
<title>Node16&#45;&gt;Node17</title>
<g id="a_edge32_Node000016_Node000017"><a xlink:title=" ">
<path fill="none" stroke="#63b8ff" d="M264.47,-219.75C267.28,-212.65 271.34,-202.4 274.85,-193.56"/>
<polygon fill="#63b8ff" stroke="#63b8ff" points="278.17,-194.68 278.6,-184.09 271.66,-192.1 278.17,-194.68"/>
</a>
</g>
</g>
</g>
</svg>
