<?xml version="1.0" encoding="UTF-8" standalone="no"?>
<!DOCTYPE svg PUBLIC "-//W3C//DTD SVG 1.1//EN"
 "http://www.w3.org/Graphics/SVG/1.1/DTD/svg11.dtd">
<!-- Generated by graphviz version 2.43.0 (0)
 -->
<!-- Title: main.cpp Pages: 1 -->
<svg width="2739pt" height="313pt"
 viewBox="0.00 0.00 2738.50 313.00" xmlns="http://www.w3.org/2000/svg" xmlns:xlink="http://www.w3.org/1999/xlink">
<g id="graph0" class="graph" transform="scale(1 1) rotate(0) translate(4 309)">
<title>main.cpp</title>
<!-- Node1 -->
<g id="Node000001" class="node">
<title>Node1</title>
<g id="a_Node000001"><a xlink:title="Main functions for Core 0, responsible for reading data from sensor peripherals.">
<polygon fill="#999999" stroke="#666666" points="1120,-305 1058,-305 1058,-286 1120,-286 1120,-305"/>
<text text-anchor="middle" x="1089" y="-293" font-family="Helvetica,sans-Serif" font-size="10.00">main.cpp</text>
</a>
</g>
</g>
<!-- Node2 -->
<g id="Node000002" class="node">
<title>Node2</title>
<g id="a_Node000002"><a xlink:title=" ">
<polygon fill="#e0e0e0" stroke="#999999" points="1047.5,-19 984.5,-19 984.5,0 1047.5,0 1047.5,-19"/>
<text text-anchor="middle" x="1016" y="-7" font-family="Helvetica,sans-Serif" font-size="10.00">Arduino.h</text>
</a>
</g>
</g>
<!-- Node1&#45;&gt;Node2 -->
<g id="edge1_Node000001_Node000002" class="edge">
<title>Node1&#45;&gt;Node2</title>
<g id="a_edge1_Node000001_Node000002"><a xlink:title=" ">
<path fill="none" stroke="#63b8ff" d="M1057.87,-294.61C879.99,-294.82 0,-290.36 0,-181 0,-181 0,-181 0,-118.5 0,-18.83 783.1,-10.93 974.28,-10.48"/>
<polygon fill="#63b8ff" stroke="#63b8ff" points="974.49,-13.98 984.48,-10.46 974.47,-6.98 974.49,-13.98"/>
</a>
</g>
</g>
<!-- Node3 -->
<g id="Node000003" class="node">
<title>Node3</title>
<g id="a_Node000003"><a xlink:href="ErrorDisplay_8h.html" target="_top" xlink:title=" ">
<polygon fill="white" stroke="#666666" points="2583,-250 2499,-250 2499,-231 2583,-231 2583,-250"/>
<text text-anchor="middle" x="2541" y="-238" font-family="Helvetica,sans-Serif" font-size="10.00">ErrorDisplay.h</text>
</a>
</g>
</g>
<!-- Node1&#45;&gt;Node3 -->
<g id="edge2_Node000001_Node000003" class="edge">
<title>Node1&#45;&gt;Node3</title>
<g id="a_edge2_Node000001_Node000003"><a xlink:title=" ">
<path fill="none" stroke="#63b8ff" d="M1120.41,-293.39C1260.58,-288.46 1842.98,-267.87 2321,-250 2378.41,-247.85 2444.23,-245.3 2488.81,-243.55"/>
<polygon fill="#63b8ff" stroke="#63b8ff" points="2488.97,-247.05 2498.83,-243.16 2488.7,-240.06 2488.97,-247.05"/>
</a>
</g>
</g>
<!-- Node4 -->
<g id="Node000004" class="node">
<title>Node4</title>
<g id="a_Node000004"><a xlink:href="PayloadConfig_8h.html" target="_top" xlink:title="Central location for pinout and config defines.">
<polygon fill="white" stroke="#666666" points="2111.5,-189.5 2016.5,-189.5 2016.5,-170.5 2111.5,-170.5 2111.5,-189.5"/>
<text text-anchor="middle" x="2064" y="-177.5" font-family="Helvetica,sans-Serif" font-size="10.00">PayloadConfig.h</text>
</a>
</g>
</g>
<!-- Node1&#45;&gt;Node4 -->
<g id="edge9_Node000001_Node000004" class="edge">
<title>Node1&#45;&gt;Node4</title>
<g id="a_edge9_Node000001_Node000004"><a xlink:title=" ">
<path fill="none" stroke="#63b8ff" d="M1120.19,-294.02C1267.7,-291.6 1891.61,-279.67 1973,-250 2003.42,-238.91 2032.05,-213.9 2048.81,-197.23"/>
<polygon fill="#63b8ff" stroke="#63b8ff" points="2051.56,-199.43 2056.03,-189.82 2046.54,-194.54 2051.56,-199.43"/>
</a>
</g>
</g>
<!-- Node7 -->
<g id="Node000007" class="node">
<title>Node7</title>
<g id="a_Node000007"><a xlink:href="Logger_8h.html" target="_top" xlink:title=" ">
<polygon fill="white" stroke="#666666" points="1122,-74 1064,-74 1064,-55 1122,-55 1122,-74"/>
<text text-anchor="middle" x="1093" y="-62" font-family="Helvetica,sans-Serif" font-size="10.00">Logger.h</text>
</a>
</g>
</g>
<!-- Node1&#45;&gt;Node7 -->
<g id="edge7_Node000001_Node000007" class="edge">
<title>Node1&#45;&gt;Node7</title>
<g id="a_edge7_Node000001_Node000007"><a xlink:title=" ">
<path fill="none" stroke="#63b8ff" d="M1120.3,-292.69C1253.75,-284.63 1770.39,-250.04 1815,-195 1904.06,-85.13 1295.01,-68.43 1132.26,-65.93"/>
<polygon fill="#63b8ff" stroke="#63b8ff" points="1132.25,-62.43 1122.2,-65.79 1132.15,-69.43 1132.25,-62.43"/>
</a>
</g>
</g>
<!-- Node8 -->
<g id="Node000008" class="node">
<title>Node8</title>
<g id="a_Node000008"><a xlink:href="Sensor_8h.html" target="_top" xlink:title=" ">
<polygon fill="white" stroke="#666666" points="1026,-189.5 968,-189.5 968,-170.5 1026,-170.5 1026,-189.5"/>
<text text-anchor="middle" x="997" y="-177.5" font-family="Helvetica,sans-Serif" font-size="10.00">Sensor.h</text>
</a>
</g>
</g>
<!-- Node1&#45;&gt;Node8 -->
<g id="edge10_Node000001_Node000008" class="edge">
<title>Node1&#45;&gt;Node8</title>
<g id="a_edge10_Node000001_Node000008"><a xlink:title=" ">
<path fill="none" stroke="#63b8ff" d="M1057.55,-290.66C1032.67,-285.78 999.46,-274.77 983,-250 972.88,-234.78 979.36,-213.81 986.49,-198.99"/>
<polygon fill="#63b8ff" stroke="#63b8ff" points="989.74,-200.33 991.35,-189.86 983.56,-197.05 989.74,-200.33"/>
</a>
</g>
</g>
<!-- Node10 -->
<g id="Node000010" class="node">
<title>Node10</title>
<g id="a_Node000010"><a xlink:href="AS7331Sensor_8h.html" target="_top" xlink:title=" ">
<polygon fill="white" stroke="#666666" points="813.5,-250 718.5,-250 718.5,-231 813.5,-231 813.5,-250"/>
<text text-anchor="middle" x="766" y="-238" font-family="Helvetica,sans-Serif" font-size="10.00">AS7331Sensor.h</text>
</a>
</g>
</g>
<!-- Node1&#45;&gt;Node10 -->
<g id="edge16_Node000001_Node000010" class="edge">
<title>Node1&#45;&gt;Node10</title>
<g id="a_edge16_Node000001_Node000010"><a xlink:title=" ">
<path fill="none" stroke="#63b8ff" d="M1057.74,-289.37C1003.75,-280.51 892.27,-262.22 823.83,-250.99"/>
<polygon fill="#63b8ff" stroke="#63b8ff" points="824.07,-247.48 813.64,-249.32 822.94,-254.39 824.07,-247.48"/>
</a>
</g>
</g>
<!-- Node14 -->
<g id="Node000014" class="node">
<title>Node14</title>
<g id="a_Node000014"><a xlink:href="BMP390Sensor_8h.html" target="_top" xlink:title=" ">
<polygon fill="white" stroke="#666666" points="585,-250 487,-250 487,-231 585,-231 585,-250"/>
<text text-anchor="middle" x="536" y="-238" font-family="Helvetica,sans-Serif" font-size="10.00">BMP390Sensor.h</text>
</a>
</g>
</g>
<!-- Node1&#45;&gt;Node14 -->
<g id="edge21_Node000001_Node000014" class="edge">
<title>Node1&#45;&gt;Node14</title>
<g id="a_edge21_Node000001_Node000014"><a xlink:title=" ">
<path fill="none" stroke="#63b8ff" d="M1057.95,-292.31C981.27,-286.79 776.59,-271.25 595.02,-250.06"/>
<polygon fill="#63b8ff" stroke="#63b8ff" points="595.36,-246.57 585.02,-248.88 594.55,-253.52 595.36,-246.57"/>
</a>
</g>
</g>
<!-- Node16 -->
<g id="Node000016" class="node">
<title>Node16</title>
<g id="a_Node000016"><a xlink:href="ENS160Sensor_8h.html" target="_top" xlink:title=" ">
<polygon fill="white" stroke="#666666" points="357.5,-250 262.5,-250 262.5,-231 357.5,-231 357.5,-250"/>
<text text-anchor="middle" x="310" y="-238" font-family="Helvetica,sans-Serif" font-size="10.00">ENS160Sensor.h</text>
</a>
</g>
</g>
<!-- Node1&#45;&gt;Node16 -->
<g id="edge24_Node000001_Node000016" class="edge">
<title>Node1&#45;&gt;Node16</title>
<g id="a_edge24_Node000001_Node000016"><a xlink:title=" ">
<path fill="none" stroke="#63b8ff" d="M1057.91,-293.58C958.74,-290.43 640.88,-278.71 367.73,-250.09"/>
<polygon fill="#63b8ff" stroke="#63b8ff" points="367.93,-246.59 357.62,-249.02 367.2,-253.56 367.93,-246.59"/>
</a>
</g>
</g>
<!-- Node18 -->
<g id="Node000018" class="node">
<title>Node18</title>
<g id="a_Node000018"><a xlink:href="ICM20948Sensor_8h.html" target="_top" xlink:title=" ">
<polygon fill="white" stroke="#666666" points="1545.5,-250 1438.5,-250 1438.5,-231 1545.5,-231 1545.5,-250"/>
<text text-anchor="middle" x="1492" y="-238" font-family="Helvetica,sans-Serif" font-size="10.00">ICM20948Sensor.h</text>
</a>
</g>
</g>
<!-- Node1&#45;&gt;Node18 -->
<g id="edge28_Node000001_Node000018" class="edge">
<title>Node1&#45;&gt;Node18</title>
<g id="a_edge28_Node000001_Node000018"><a xlink:title=" ">
<path fill="none" stroke="#63b8ff" d="M1120.29,-290.39C1186.2,-281.72 1340.45,-261.43 1428.13,-249.9"/>
<polygon fill="#63b8ff" stroke="#63b8ff" points="1428.76,-253.35 1438.22,-248.57 1427.85,-246.41 1428.76,-253.35"/>
</a>
</g>
</g>
<!-- Node22 -->
<g id="Node000022" class="node">
<title>Node22</title>
<g id="a_Node000022"><a xlink:href="INA260Sensor_8h.html" target="_top" xlink:title=" ">
<polygon fill="white" stroke="#666666" points="468.5,-250 375.5,-250 375.5,-231 468.5,-231 468.5,-250"/>
<text text-anchor="middle" x="422" y="-238" font-family="Helvetica,sans-Serif" font-size="10.00">INA260Sensor.h</text>
</a>
</g>
</g>
<!-- Node1&#45;&gt;Node22 -->
<g id="edge35_Node000001_Node000022" class="edge">
<title>Node1&#45;&gt;Node22</title>
<g id="a_edge35_Node000001_Node000022"><a xlink:title=" ">
<path fill="none" stroke="#63b8ff" d="M1057.76,-293.09C968.96,-288.89 707.25,-275.24 478.88,-250"/>
<polygon fill="#63b8ff" stroke="#63b8ff" points="479.04,-246.5 468.71,-248.87 478.27,-253.46 479.04,-246.5"/>
</a>
</g>
</g>
<!-- Node24 -->
<g id="Node000024" class="node">
<title>Node24</title>
<g id="a_Node000024"><a xlink:href="MTK3339Sensor_8h.html" target="_top" xlink:title=" ">
<polygon fill="white" stroke="#666666" points="936,-250 832,-250 832,-231 936,-231 936,-250"/>
<text text-anchor="middle" x="884" y="-238" font-family="Helvetica,sans-Serif" font-size="10.00">MTK3339Sensor.h</text>
</a>
</g>
</g>
<!-- Node1&#45;&gt;Node24 -->
<g id="edge40_Node000001_Node000024" class="edge">
<title>Node1&#45;&gt;Node24</title>
<g id="a_edge40_Node000001_Node000024"><a xlink:title=" ">
<path fill="none" stroke="#63b8ff" d="M1057.86,-286.45C1022.93,-277.42 966.05,-262.71 926.92,-252.6"/>
<polygon fill="#63b8ff" stroke="#63b8ff" points="927.69,-249.18 917.13,-250.07 925.94,-255.96 927.69,-249.18"/>
</a>
</g>
</g>
<!-- Node26 -->
<g id="Node000026" class="node">
<title>Node26</title>
<g id="a_Node000026"><a xlink:href="OzoneSensor_8h.html" target="_top" xlink:title=" ">
<polygon fill="white" stroke="#666666" points="1963.5,-250 1874.5,-250 1874.5,-231 1963.5,-231 1963.5,-250"/>
<text text-anchor="middle" x="1919" y="-238" font-family="Helvetica,sans-Serif" font-size="10.00">OzoneSensor.h</text>
</a>
</g>
</g>
<!-- Node1&#45;&gt;Node26 -->
<g id="edge46_Node000001_Node000026" class="edge">
<title>Node1&#45;&gt;Node26</title>
<g id="a_edge46_Node000001_Node000026"><a xlink:title=" ">
<path fill="none" stroke="#63b8ff" d="M1120.14,-293.35C1223.7,-289.39 1565.98,-275.13 1848,-250 1853.2,-249.54 1858.61,-249 1864.01,-248.42"/>
<polygon fill="#63b8ff" stroke="#63b8ff" points="1864.8,-251.85 1874.35,-247.26 1864.02,-244.89 1864.8,-251.85"/>
</a>
</g>
</g>
<!-- Node28 -->
<g id="Node000028" class="node">
<title>Node28</title>
<g id="a_Node000028"><a xlink:href="PCF8523Sensor_8h.html" target="_top" xlink:title=" ">
<polygon fill="white" stroke="#666666" points="1195.5,-250 1094.5,-250 1094.5,-231 1195.5,-231 1195.5,-250"/>
<text text-anchor="middle" x="1145" y="-238" font-family="Helvetica,sans-Serif" font-size="10.00">PCF8523Sensor.h</text>
</a>
</g>
</g>
<!-- Node1&#45;&gt;Node28 -->
<g id="edge50_Node000001_Node000028" class="edge">
<title>Node1&#45;&gt;Node28</title>
<g id="a_edge50_Node000001_Node000028"><a xlink:title=" ">
<path fill="none" stroke="#63b8ff" d="M1098,-285.98C1106.19,-278.23 1118.51,-266.58 1128.47,-257.14"/>
<polygon fill="#63b8ff" stroke="#63b8ff" points="1130.98,-259.59 1135.84,-250.17 1126.17,-254.5 1130.98,-259.59"/>
</a>
</g>
</g>
<!-- Node30 -->
<g id="Node000030" class="node">
<title>Node30</title>
<g id="a_Node000030"><a xlink:href="SCD40Sensor_8h.html" target="_top" xlink:title=" ">
<polygon fill="white" stroke="#666666" points="1411,-250 1321,-250 1321,-231 1411,-231 1411,-250"/>
<text text-anchor="middle" x="1366" y="-238" font-family="Helvetica,sans-Serif" font-size="10.00">SCD40Sensor.h</text>
</a>
</g>
</g>
<!-- Node1&#45;&gt;Node30 -->
<g id="edge53_Node000001_Node000030" class="edge">
<title>Node1&#45;&gt;Node30</title>
<g id="a_edge53_Node000001_Node000030"><a xlink:title=" ">
<path fill="none" stroke="#63b8ff" d="M1120.24,-288.52C1166.55,-279.66 1254.1,-262.91 1311.23,-251.98"/>
<polygon fill="#63b8ff" stroke="#63b8ff" points="1312.01,-255.39 1321.18,-250.08 1310.7,-248.52 1312.01,-255.39"/>
</a>
</g>
</g>
<!-- Node32 -->
<g id="Node000032" class="node">
<title>Node32</title>
<g id="a_Node000032"><a xlink:href="SHTC3Sensor_8h.html" target="_top" xlink:title=" ">
<polygon fill="white" stroke="#666666" points="1302.5,-250 1213.5,-250 1213.5,-231 1302.5,-231 1302.5,-250"/>
<text text-anchor="middle" x="1258" y="-238" font-family="Helvetica,sans-Serif" font-size="10.00">SHTC3Sensor.h</text>
</a>
</g>
</g>
<!-- Node1&#45;&gt;Node32 -->
<g id="edge60_Node000001_Node000032" class="edge">
<title>Node1&#45;&gt;Node32</title>
<g id="a_edge60_Node000001_Node000032"><a xlink:title=" ">
<path fill="none" stroke="#63b8ff" d="M1116.15,-285.98C1144.53,-277.09 1189.23,-263.07 1220.86,-253.15"/>
<polygon fill="#63b8ff" stroke="#63b8ff" points="1222.14,-256.41 1230.63,-250.08 1220.05,-249.73 1222.14,-256.41"/>
</a>
</g>
</g>
<!-- Node34 -->
<g id="Node000034" class="node">
<title>Node34</title>
<g id="a_Node000034"><a xlink:href="TMP117Sensor_8h.html" target="_top" xlink:title=" ">
<polygon fill="white" stroke="#666666" points="700.5,-250 603.5,-250 603.5,-231 700.5,-231 700.5,-250"/>
<text text-anchor="middle" x="652" y="-238" font-family="Helvetica,sans-Serif" font-size="10.00">TMP117Sensor.h</text>
</a>
</g>
</g>
<!-- Node1&#45;&gt;Node34 -->
<g id="edge63_Node000001_Node000034" class="edge">
<title>Node1&#45;&gt;Node34</title>
<g id="a_edge63_Node000001_Node000034"><a xlink:title=" ">
<path fill="none" stroke="#63b8ff" d="M1057.93,-291.2C994.61,-284.39 845.88,-268.04 710.91,-250.22"/>
<polygon fill="#63b8ff" stroke="#63b8ff" points="711.18,-246.73 700.8,-248.88 710.26,-253.67 711.18,-246.73"/>
</a>
</g>
</g>
<!-- Node36 -->
<g id="Node000036" class="node">
<title>Node36</title>
<g id="a_Node000036"><a xlink:href="TempSensor_8h.html" target="_top" xlink:title=" ">
<polygon fill="white" stroke="#666666" points="1076,-250 992,-250 992,-231 1076,-231 1076,-250"/>
<text text-anchor="middle" x="1034" y="-238" font-family="Helvetica,sans-Serif" font-size="10.00">TempSensor.h</text>
</a>
</g>
</g>
<!-- Node1&#45;&gt;Node36 -->
<g id="edge67_Node000001_Node000036" class="edge">
<title>Node1&#45;&gt;Node36</title>
<g id="a_edge67_Node000001_Node000036"><a xlink:title=" ">
<path fill="none" stroke="#63b8ff" d="M1079.92,-285.75C1071.91,-278.03 1060.04,-266.6 1050.38,-257.28"/>
<polygon fill="#63b8ff" stroke="#63b8ff" points="1052.54,-254.51 1042.91,-250.09 1047.69,-259.55 1052.54,-254.51"/>
</a>
</g>
</g>
<!-- Node37 -->
<g id="Node000037" class="node">
<title>Node37</title>
<g id="a_Node000037"><a xlink:href="FlashStorage_8h.html" target="_top" xlink:title=" ">
<polygon fill="white" stroke="#666666" points="2311.5,-250 2222.5,-250 2222.5,-231 2311.5,-231 2311.5,-250"/>
<text text-anchor="middle" x="2267" y="-238" font-family="Helvetica,sans-Serif" font-size="10.00">FlashStorage.h</text>
</a>
</g>
</g>
<!-- Node1&#45;&gt;Node37 -->
<g id="edge69_Node000001_Node000037" class="edge">
<title>Node1&#45;&gt;Node37</title>
<g id="a_edge69_Node000001_Node000037"><a xlink:title=" ">
<path fill="none" stroke="#63b8ff" d="M1120.21,-293.1C1279.87,-285.91 2005.95,-253.25 2212.21,-243.97"/>
<polygon fill="#63b8ff" stroke="#63b8ff" points="2212.37,-247.46 2222.2,-243.52 2212.06,-240.47 2212.37,-247.46"/>
</a>
</g>
</g>
<!-- Node3&#45;&gt;Node2 -->
<g id="edge3_Node000003_Node000002" class="edge">
<title>Node3&#45;&gt;Node2</title>
<g id="a_edge3_Node000003_Node000002"><a xlink:title=" ">
<path fill="none" stroke="#63b8ff" d="M2553.55,-230.83C2573.19,-216.25 2607.05,-186.33 2588,-165 2443.35,-3.03 1833.21,-75.24 1617,-55 1407.19,-35.36 1155.51,-19.08 1057.71,-13.03"/>
<polygon fill="#63b8ff" stroke="#63b8ff" points="1057.84,-9.53 1047.64,-12.41 1057.41,-16.52 1057.84,-9.53"/>
</a>
</g>
</g>
<!-- Node3&#45;&gt;Node4 -->
<g id="edge4_Node000003_Node000004" class="edge">
<title>Node3&#45;&gt;Node4</title>
<g id="a_edge4_Node000003_Node000004"><a xlink:title=" ">
<path fill="none" stroke="#63b8ff" d="M2498.71,-236.92C2422.68,-231.86 2258.05,-218.98 2121,-195 2115.92,-194.11 2110.63,-193.03 2105.4,-191.86"/>
<polygon fill="#63b8ff" stroke="#63b8ff" points="2106.03,-188.41 2095.5,-189.54 2104.43,-195.23 2106.03,-188.41"/>
</a>
</g>
</g>
<!-- Node5 -->
<g id="Node000005" class="node">
<title>Node5</title>
<g id="a_Node000005"><a xlink:title=" ">
<polygon fill="#e0e0e0" stroke="#999999" points="2730.5,-189.5 2635.5,-189.5 2635.5,-170.5 2730.5,-170.5 2730.5,-189.5"/>
<text text-anchor="middle" x="2683" y="-177.5" font-family="Helvetica,sans-Serif" font-size="10.00">pico/multicore.h</text>
</a>
</g>
</g>
<!-- Node3&#45;&gt;Node5 -->
<g id="edge5_Node000003_Node000005" class="edge">
<title>Node3&#45;&gt;Node5</title>
<g id="a_edge5_Node000003_Node000005"><a xlink:title=" ">
<path fill="none" stroke="#63b8ff" d="M2561.65,-230.99C2585.63,-221.12 2625.39,-204.73 2652.83,-193.43"/>
<polygon fill="#63b8ff" stroke="#63b8ff" points="2654.41,-196.56 2662.33,-189.52 2651.75,-190.09 2654.41,-196.56"/>
</a>
</g>
</g>
<!-- Node6 -->
<g id="Node000006" class="node">
<title>Node6</title>
<g id="a_Node000006"><a xlink:title=" ">
<polygon fill="#e0e0e0" stroke="#999999" points="2579,-189.5 2503,-189.5 2503,-170.5 2579,-170.5 2579,-189.5"/>
<text text-anchor="middle" x="2541" y="-177.5" font-family="Helvetica,sans-Serif" font-size="10.00">pico/stdlib.h</text>
</a>
</g>
</g>
<!-- Node3&#45;&gt;Node6 -->
<g id="edge6_Node000003_Node000006" class="edge">
<title>Node3&#45;&gt;Node6</title>
<g id="a_edge6_Node000003_Node000006"><a xlink:title=" ">
<path fill="none" stroke="#63b8ff" d="M2541,-230.87C2541,-222.75 2541,-210.31 2541,-199.89"/>
<polygon fill="#63b8ff" stroke="#63b8ff" points="2544.5,-199.67 2541,-189.67 2537.5,-199.67 2544.5,-199.67"/>
</a>
</g>
</g>
<!-- Node7&#45;&gt;Node2 -->
<g id="edge8_Node000007_Node000002" class="edge">
<title>Node7&#45;&gt;Node2</title>
<g id="a_edge8_Node000007_Node000002"><a xlink:title=" ">
<path fill="none" stroke="#63b8ff" d="M1080.63,-54.98C1068.91,-46.92 1051.08,-34.65 1037.11,-25.03"/>
<polygon fill="#63b8ff" stroke="#63b8ff" points="1038.82,-21.96 1028.6,-19.17 1034.85,-27.72 1038.82,-21.96"/>
</a>
</g>
</g>
<!-- Node8&#45;&gt;Node2 -->
<g id="edge11_Node000008_Node000002" class="edge">
<title>Node8&#45;&gt;Node2</title>
<g id="a_edge11_Node000008_Node000002"><a xlink:title=" ">
<path fill="none" stroke="#63b8ff" d="M997.97,-170.41C1000.9,-144.39 1009.75,-65.97 1013.86,-29.51"/>
<polygon fill="#63b8ff" stroke="#63b8ff" points="1017.37,-29.6 1015.01,-19.27 1010.41,-28.82 1017.37,-29.6"/>
</a>
</g>
</g>
<!-- Node8&#45;&gt;Node7 -->
<g id="edge15_Node000008_Node000007" class="edge">
<title>Node8&#45;&gt;Node7</title>
<g id="a_edge15_Node000008_Node000007"><a xlink:title=" ">
<path fill="none" stroke="#63b8ff" d="M1003.94,-170.44C1014.6,-157.33 1035.67,-131.54 1054,-110 1061.99,-100.61 1071.06,-90.25 1078.44,-81.88"/>
<polygon fill="#63b8ff" stroke="#63b8ff" points="1081.15,-84.11 1085.15,-74.3 1075.9,-79.47 1081.15,-84.11"/>
</a>
</g>
</g>
<!-- Node9 -->
<g id="Node000009" class="node">
<title>Node9</title>
<g id="a_Node000009"><a xlink:href="Device_8h.html" target="_top" xlink:title=" ">
<polygon fill="white" stroke="#666666" points="1122.5,-129 1063.5,-129 1063.5,-110 1122.5,-110 1122.5,-129"/>
<text text-anchor="middle" x="1093" y="-117" font-family="Helvetica,sans-Serif" font-size="10.00">Device.h</text>
</a>
</g>
</g>
<!-- Node8&#45;&gt;Node9 -->
<g id="edge12_Node000008_Node000009" class="edge">
<title>Node8&#45;&gt;Node9</title>
<g id="a_edge12_Node000008_Node000009"><a xlink:title=" ">
<path fill="none" stroke="#63b8ff" d="M1011.17,-170.37C1026.69,-160.91 1051.83,-145.59 1070.15,-134.42"/>
<polygon fill="#63b8ff" stroke="#63b8ff" points="1072.06,-137.36 1078.78,-129.17 1068.42,-131.38 1072.06,-137.36"/>
</a>
</g>
</g>
<!-- Node9&#45;&gt;Node2 -->
<g id="edge13_Node000009_Node000002" class="edge">
<title>Node9&#45;&gt;Node2</title>
<g id="a_edge13_Node000009_Node000002"><a xlink:title=" ">
<path fill="none" stroke="#63b8ff" d="M1085.01,-109.97C1077.01,-101.24 1064.56,-87.15 1055,-74 1044.21,-59.16 1033.4,-41.27 1025.91,-28.27"/>
<polygon fill="#63b8ff" stroke="#63b8ff" points="1028.86,-26.38 1020.88,-19.41 1022.77,-29.83 1028.86,-26.38"/>
</a>
</g>
</g>
<!-- Node9&#45;&gt;Node7 -->
<g id="edge14_Node000009_Node000007" class="edge">
<title>Node9&#45;&gt;Node7</title>
<g id="a_edge14_Node000009_Node000007"><a xlink:title=" ">
<path fill="none" stroke="#63b8ff" d="M1093,-109.75C1093,-102.8 1093,-92.85 1093,-84.13"/>
<polygon fill="#63b8ff" stroke="#63b8ff" points="1096.5,-84.09 1093,-74.09 1089.5,-84.09 1096.5,-84.09"/>
</a>
</g>
</g>
<!-- Node10&#45;&gt;Node8 -->
<g id="edge20_Node000010_Node000008" class="edge">
<title>Node10&#45;&gt;Node8</title>
<g id="a_edge20_Node000010_Node000008"><a xlink:title=" ">
<path fill="none" stroke="#63b8ff" d="M810.1,-230.99C849.49,-222.99 908.58,-210.03 959,-195 961.13,-194.36 963.32,-193.67 965.52,-192.94"/>
<polygon fill="#63b8ff" stroke="#63b8ff" points="966.76,-196.22 975.06,-189.62 964.46,-189.61 966.76,-196.22"/>
</a>
</g>
</g>
<!-- Node11 -->
<g id="Node000011" class="node">
<title>Node11</title>
<g id="a_Node000011"><a xlink:title=" ">
<polygon fill="#e0e0e0" stroke="#999999" points="763.5,-189.5 650.5,-189.5 650.5,-170.5 763.5,-170.5 763.5,-189.5"/>
<text text-anchor="middle" x="707" y="-177.5" font-family="Helvetica,sans-Serif" font-size="10.00">SparkFun_AS7331.h</text>
</a>
</g>
</g>
<!-- Node10&#45;&gt;Node11 -->
<g id="edge17_Node000010_Node000011" class="edge">
<title>Node10&#45;&gt;Node11</title>
<g id="a_edge17_Node000010_Node000011"><a xlink:title=" ">
<path fill="none" stroke="#63b8ff" d="M757.29,-230.87C748.32,-221.97 734.12,-207.89 723.09,-196.95"/>
<polygon fill="#63b8ff" stroke="#63b8ff" points="725.31,-194.22 715.74,-189.67 720.38,-199.19 725.31,-194.22"/>
</a>
</g>
</g>
<!-- Node12 -->
<g id="Node000012" class="node">
<title>Node12</title>
<g id="a_Node000012"><a xlink:title=" ">
<polygon fill="#e0e0e0" stroke="#999999" points="632,-189.5 584,-189.5 584,-170.5 632,-170.5 632,-189.5"/>
<text text-anchor="middle" x="608" y="-177.5" font-family="Helvetica,sans-Serif" font-size="10.00">Wire.h</text>
</a>
</g>
</g>
<!-- Node10&#45;&gt;Node12 -->
<g id="edge18_Node000010_Node000012" class="edge">
<title>Node10&#45;&gt;Node12</title>
<g id="a_edge18_Node000010_Node000012"><a xlink:title=" ">
<path fill="none" stroke="#63b8ff" d="M740.46,-230.9C715.08,-222.25 675.13,-208.3 641,-195 639.79,-194.53 638.56,-194.04 637.33,-193.55"/>
<polygon fill="#63b8ff" stroke="#63b8ff" points="638.4,-190.2 627.82,-189.63 635.73,-196.67 638.4,-190.2"/>
</a>
</g>
</g>
<!-- Node13 -->
<g id="Node000013" class="node">
<title>Node13</title>
<g id="a_Node000013"><a xlink:title=" ">
<polygon fill="#e0e0e0" stroke="#999999" points="1171.5,-189.5 1118.5,-189.5 1118.5,-170.5 1171.5,-170.5 1171.5,-189.5"/>
<text text-anchor="middle" x="1145" y="-177.5" font-family="Helvetica,sans-Serif" font-size="10.00">string.h</text>
</a>
</g>
</g>
<!-- Node10&#45;&gt;Node13 -->
<g id="edge19_Node000010_Node000013" class="edge">
<title>Node10&#45;&gt;Node13</title>
<g id="a_edge19_Node000010_Node000013"><a xlink:title=" ">
<path fill="none" stroke="#63b8ff" d="M813.57,-232.32C816.76,-231.87 819.93,-231.42 823,-231 949.92,-213.55 984.81,-226.45 1109,-195 1111.3,-194.42 1113.66,-193.73 1116.01,-192.97"/>
<polygon fill="#63b8ff" stroke="#63b8ff" points="1117.24,-196.25 1125.48,-189.59 1114.88,-189.66 1117.24,-196.25"/>
</a>
</g>
</g>
<!-- Node14&#45;&gt;Node8 -->
<g id="edge23_Node000014_Node000008" class="edge">
<title>Node14&#45;&gt;Node8</title>
<g id="a_edge23_Node000014_Node000008"><a xlink:title=" ">
<path fill="none" stroke="#63b8ff" d="M585.03,-232.15C588.06,-231.75 591.07,-231.36 594,-231 755.8,-211.18 800.12,-231.47 959,-195 961.67,-194.39 964.41,-193.64 967.13,-192.8"/>
<polygon fill="#63b8ff" stroke="#63b8ff" points="968.43,-196.06 976.78,-189.53 966.19,-189.43 968.43,-196.06"/>
</a>
</g>
</g>
<!-- Node15 -->
<g id="Node000015" class="node">
<title>Node15</title>
<g id="a_Node000015"><a xlink:title=" ">
<polygon fill="#e0e0e0" stroke="#999999" points="432.5,-189.5 321.5,-189.5 321.5,-170.5 432.5,-170.5 432.5,-189.5"/>
<text text-anchor="middle" x="377" y="-177.5" font-family="Helvetica,sans-Serif" font-size="10.00">Adafruit_BMP3XX.h</text>
</a>
</g>
</g>
<!-- Node14&#45;&gt;Node15 -->
<g id="edge22_Node000014_Node000015" class="edge">
<title>Node14&#45;&gt;Node15</title>
<g id="a_edge22_Node000014_Node000015"><a xlink:title=" ">
<path fill="none" stroke="#63b8ff" d="M512.88,-230.99C485.68,-220.99 440.33,-204.3 409.58,-192.99"/>
<polygon fill="#63b8ff" stroke="#63b8ff" points="410.74,-189.68 400.15,-189.52 408.32,-196.25 410.74,-189.68"/>
</a>
</g>
</g>
<!-- Node16&#45;&gt;Node8 -->
<g id="edge26_Node000016_Node000008" class="edge">
<title>Node16&#45;&gt;Node8</title>
<g id="a_edge26_Node000016_Node000008"><a xlink:title=" ">
<path fill="none" stroke="#63b8ff" d="M357.62,-231.97C360.45,-231.62 363.26,-231.29 366,-231 628.57,-203.16 700.59,-249.22 959,-195 961.84,-194.4 964.75,-193.64 967.63,-192.77"/>
<polygon fill="#63b8ff" stroke="#63b8ff" points="968.85,-196.05 977.21,-189.53 966.61,-189.42 968.85,-196.05"/>
</a>
</g>
</g>
<!-- Node16&#45;&gt;Node12 -->
<g id="edge25_Node000016_Node000012" class="edge">
<title>Node16&#45;&gt;Node12</title>
<g id="a_edge25_Node000016_Node000012"><a xlink:title=" ">
<path fill="none" stroke="#63b8ff" d="M357.75,-232.04C428.12,-220.97 553.61,-200.84 574,-195 575.89,-194.46 577.81,-193.85 579.74,-193.19"/>
<polygon fill="#63b8ff" stroke="#63b8ff" points="581.09,-196.42 589.21,-189.61 578.61,-189.87 581.09,-196.42"/>
</a>
</g>
</g>
<!-- Node17 -->
<g id="Node000017" class="node">
<title>Node17</title>
<g id="a_Node000017"><a xlink:title=" ">
<polygon fill="#e0e0e0" stroke="#999999" points="141.5,-189.5 28.5,-189.5 28.5,-170.5 141.5,-170.5 141.5,-189.5"/>
<text text-anchor="middle" x="85" y="-177.5" font-family="Helvetica,sans-Serif" font-size="10.00">SparkFun_ENS160.h</text>
</a>
</g>
</g>
<!-- Node16&#45;&gt;Node17 -->
<g id="edge27_Node000016_Node000017" class="edge">
<title>Node16&#45;&gt;Node17</title>
<g id="a_edge27_Node000016_Node000017"><a xlink:title=" ">
<path fill="none" stroke="#63b8ff" d="M277.28,-230.99C237.71,-220.7 170.99,-203.36 127.48,-192.04"/>
<polygon fill="#63b8ff" stroke="#63b8ff" points="128.32,-188.65 117.76,-189.52 126.55,-195.42 128.32,-188.65"/>
</a>
</g>
</g>
<!-- Node18&#45;&gt;Node4 -->
<g id="edge33_Node000018_Node000004" class="edge">
<title>Node18&#45;&gt;Node4</title>
<g id="a_edge33_Node000018_Node000004"><a xlink:title=" ">
<path fill="none" stroke="#63b8ff" d="M1545.72,-237.59C1639.76,-233.65 1840.09,-222.54 2007,-195 2012.21,-194.14 2017.64,-193.06 2023,-191.87"/>
<polygon fill="#63b8ff" stroke="#63b8ff" points="2024.18,-195.19 2033.12,-189.51 2022.58,-188.37 2024.18,-195.19"/>
</a>
</g>
</g>
<!-- Node18&#45;&gt;Node8 -->
<g id="edge34_Node000018_Node000008" class="edge">
<title>Node18&#45;&gt;Node8</title>
<g id="a_edge34_Node000018_Node000008"><a xlink:title=" ">
<path fill="none" stroke="#63b8ff" d="M1438.15,-233C1432.03,-232.3 1425.88,-231.62 1420,-231 1249.1,-212.92 1202.6,-233.03 1035,-195 1032.33,-194.39 1029.59,-193.65 1026.87,-192.82"/>
<polygon fill="#63b8ff" stroke="#63b8ff" points="1027.81,-189.44 1017.22,-189.55 1025.56,-196.07 1027.81,-189.44"/>
</a>
</g>
</g>
<!-- Node18&#45;&gt;Node13 -->
<g id="edge32_Node000018_Node000013" class="edge">
<title>Node18&#45;&gt;Node13</title>
<g id="a_edge32_Node000018_Node000013"><a xlink:title=" ">
<path fill="none" stroke="#63b8ff" d="M1438.29,-232.55C1355.68,-221.75 1204.38,-201.51 1180,-195 1177.84,-194.42 1175.64,-193.75 1173.44,-193.02"/>
<polygon fill="#63b8ff" stroke="#63b8ff" points="1174.57,-189.71 1163.98,-189.55 1172.16,-196.28 1174.57,-189.71"/>
</a>
</g>
</g>
<!-- Node19 -->
<g id="Node000019" class="node">
<title>Node19</title>
<g id="a_Node000019"><a xlink:title=" ">
<polygon fill="#e0e0e0" stroke="#999999" points="1805.5,-189.5 1686.5,-189.5 1686.5,-170.5 1805.5,-170.5 1805.5,-189.5"/>
<text text-anchor="middle" x="1746" y="-177.5" font-family="Helvetica,sans-Serif" font-size="10.00">Adafruit_ICM20948.h</text>
</a>
</g>
</g>
<!-- Node18&#45;&gt;Node19 -->
<g id="edge29_Node000018_Node000019" class="edge">
<title>Node18&#45;&gt;Node19</title>
<g id="a_edge29_Node000018_Node000019"><a xlink:title=" ">
<path fill="none" stroke="#63b8ff" d="M1528.93,-230.99C1573.89,-220.64 1649.88,-203.14 1698.97,-191.83"/>
<polygon fill="#63b8ff" stroke="#63b8ff" points="1700.06,-195.17 1709.02,-189.52 1698.49,-188.35 1700.06,-195.17"/>
</a>
</g>
</g>
<!-- Node20 -->
<g id="Node000020" class="node">
<title>Node20</title>
<g id="a_Node000020"><a xlink:title=" ">
<polygon fill="#e0e0e0" stroke="#999999" points="1668.5,-189.5 1561.5,-189.5 1561.5,-170.5 1668.5,-170.5 1668.5,-189.5"/>
<text text-anchor="middle" x="1615" y="-177.5" font-family="Helvetica,sans-Serif" font-size="10.00">Adafruit_ICM20X.h</text>
</a>
</g>
</g>
<!-- Node18&#45;&gt;Node20 -->
<g id="edge30_Node000018_Node000020" class="edge">
<title>Node18&#45;&gt;Node20</title>
<g id="a_edge30_Node000018_Node000020"><a xlink:title=" ">
<path fill="none" stroke="#63b8ff" d="M1509.89,-230.99C1530.38,-221.25 1564.19,-205.16 1587.92,-193.88"/>
<polygon fill="#63b8ff" stroke="#63b8ff" points="1589.57,-196.97 1597.09,-189.52 1586.56,-190.65 1589.57,-196.97"/>
</a>
</g>
</g>
<!-- Node21 -->
<g id="Node000021" class="node">
<title>Node21</title>
<g id="a_Node000021"><a xlink:title=" ">
<polygon fill="#e0e0e0" stroke="#999999" points="1543,-189.5 1441,-189.5 1441,-170.5 1543,-170.5 1543,-189.5"/>
<text text-anchor="middle" x="1492" y="-177.5" font-family="Helvetica,sans-Serif" font-size="10.00">Adafruit_Sensor.h</text>
</a>
</g>
</g>
<!-- Node18&#45;&gt;Node21 -->
<g id="edge31_Node000018_Node000021" class="edge">
<title>Node18&#45;&gt;Node21</title>
<g id="a_edge31_Node000018_Node000021"><a xlink:title=" ">
<path fill="none" stroke="#63b8ff" d="M1492,-230.87C1492,-222.75 1492,-210.31 1492,-199.89"/>
<polygon fill="#63b8ff" stroke="#63b8ff" points="1495.5,-199.67 1492,-189.67 1488.5,-199.67 1495.5,-199.67"/>
</a>
</g>
</g>
<!-- Node22&#45;&gt;Node2 -->
<g id="edge36_Node000022_Node000002" class="edge">
<title>Node22&#45;&gt;Node2</title>
<g id="a_edge36_Node000022_Node000002"><a xlink:title=" ">
<path fill="none" stroke="#63b8ff" d="M375.25,-232.13C308.95,-221.45 194.94,-202.18 189,-195 180.5,-184.73 180.48,-175.26 189,-165 290.84,-42.38 820.17,-16.54 974.02,-11.59"/>
<polygon fill="#63b8ff" stroke="#63b8ff" points="974.55,-15.07 984.44,-11.27 974.34,-8.08 974.55,-15.07"/>
</a>
</g>
</g>
<!-- Node22&#45;&gt;Node8 -->
<g id="edge39_Node000022_Node000008" class="edge">
<title>Node22&#45;&gt;Node8</title>
<g id="a_edge39_Node000022_Node000008"><a xlink:title=" ">
<path fill="none" stroke="#63b8ff" d="M468.72,-232.14C471.85,-231.73 474.97,-231.34 478,-231 691.02,-206.9 749.51,-240.5 959,-195 961.68,-194.42 964.42,-193.69 967.15,-192.87"/>
<polygon fill="#63b8ff" stroke="#63b8ff" points="968.44,-196.13 976.8,-189.62 966.21,-189.5 968.44,-196.13"/>
</a>
</g>
</g>
<!-- Node22&#45;&gt;Node13 -->
<g id="edge37_Node000022_Node000013" class="edge">
<title>Node22&#45;&gt;Node13</title>
<g id="a_edge37_Node000022_Node000013"><a xlink:title=" ">
<path fill="none" stroke="#63b8ff" d="M468.71,-232.08C471.85,-231.68 474.97,-231.32 478,-231 757.39,-201.89 834.5,-254.64 1109,-195 1111.52,-194.45 1114.1,-193.75 1116.66,-192.96"/>
<polygon fill="#63b8ff" stroke="#63b8ff" points="1118.03,-196.19 1126.29,-189.56 1115.69,-189.59 1118.03,-196.19"/>
</a>
</g>
</g>
<!-- Node23 -->
<g id="Node000023" class="node">
<title>Node23</title>
<g id="a_Node000023"><a xlink:title=" ">
<polygon fill="#e0e0e0" stroke="#999999" points="303.5,-189.5 198.5,-189.5 198.5,-170.5 303.5,-170.5 303.5,-189.5"/>
<text text-anchor="middle" x="251" y="-177.5" font-family="Helvetica,sans-Serif" font-size="10.00">Adafruit_INA260.h</text>
</a>
</g>
</g>
<!-- Node22&#45;&gt;Node23 -->
<g id="edge38_Node000022_Node000023" class="edge">
<title>Node22&#45;&gt;Node23</title>
<g id="a_edge38_Node000022_Node000023"><a xlink:title=" ">
<path fill="none" stroke="#63b8ff" d="M397.14,-230.99C367.75,-220.94 318.69,-204.16 285.61,-192.84"/>
<polygon fill="#63b8ff" stroke="#63b8ff" points="286.49,-189.44 275.89,-189.52 284.22,-196.07 286.49,-189.44"/>
</a>
</g>
</g>
<!-- Node24&#45;&gt;Node2 -->
<g id="edge41_Node000024_Node000002" class="edge">
<title>Node24&#45;&gt;Node2</title>
<g id="a_edge41_Node000024_Node000002"><a xlink:title=" ">
<path fill="none" stroke="#63b8ff" d="M857.43,-230.94C840.87,-224.06 820.88,-212.6 811,-195 804.47,-183.37 805.05,-176.93 811,-165 847.46,-91.87 936.87,-44.23 984.66,-23.09"/>
<polygon fill="#63b8ff" stroke="#63b8ff" points="986.12,-26.27 993.92,-19.1 983.35,-19.85 986.12,-26.27"/>
</a>
</g>
</g>
<!-- Node24&#45;&gt;Node4 -->
<g id="edge44_Node000024_Node000004" class="edge">
<title>Node24&#45;&gt;Node4</title>
<g id="a_edge44_Node000024_Node000004"><a xlink:title=" ">
<path fill="none" stroke="#63b8ff" d="M936.11,-234.53C951.23,-233.22 967.76,-231.92 983,-231 1437.56,-203.51 1555.94,-257.64 2007,-195 2012.61,-194.22 2018.48,-193.12 2024.22,-191.87"/>
<polygon fill="#63b8ff" stroke="#63b8ff" points="2025.4,-195.19 2034.35,-189.51 2023.81,-188.37 2025.4,-195.19"/>
</a>
</g>
</g>
<!-- Node24&#45;&gt;Node8 -->
<g id="edge45_Node000024_Node000008" class="edge">
<title>Node24&#45;&gt;Node8</title>
<g id="a_edge45_Node000024_Node000008"><a xlink:title=" ">
<path fill="none" stroke="#63b8ff" d="M900.67,-230.87C919.28,-221.23 949.62,-205.53 971.28,-194.31"/>
<polygon fill="#63b8ff" stroke="#63b8ff" points="972.99,-197.37 980.26,-189.67 969.77,-191.16 972.99,-197.37"/>
</a>
</g>
</g>
<!-- Node24&#45;&gt;Node12 -->
<g id="edge43_Node000024_Node000012" class="edge">
<title>Node24&#45;&gt;Node12</title>
<g id="a_edge43_Node000024_Node000012"><a xlink:title=" ">
<path fill="none" stroke="#63b8ff" d="M831.98,-231.35C771.62,-221.66 675.92,-205.47 641,-195 639.32,-194.5 637.61,-193.93 635.9,-193.33"/>
<polygon fill="#63b8ff" stroke="#63b8ff" points="636.83,-189.94 626.24,-189.58 634.29,-196.46 636.83,-189.94"/>
</a>
</g>
</g>
<!-- Node25 -->
<g id="Node000025" class="node">
<title>Node25</title>
<g id="a_Node000025"><a xlink:title=" ">
<polygon fill="#e0e0e0" stroke="#999999" points="950,-195 820,-195 820,-165 950,-165 950,-195"/>
<text text-anchor="start" x="828" y="-183" font-family="Helvetica,sans-Serif" font-size="10.00">SparkFun_u&#45;blox_GNSS</text>
<text text-anchor="middle" x="885" y="-172" font-family="Helvetica,sans-Serif" font-size="10.00">_Arduino_Library.h</text>
</a>
</g>
</g>
<!-- Node24&#45;&gt;Node25 -->
<g id="edge42_Node000024_Node000025" class="edge">
<title>Node24&#45;&gt;Node25</title>
<g id="a_edge42_Node000024_Node000025"><a xlink:title=" ">
<path fill="none" stroke="#63b8ff" d="M884.15,-230.87C884.26,-224.11 884.43,-214.35 884.59,-205.26"/>
<polygon fill="#63b8ff" stroke="#63b8ff" points="888.09,-205.17 884.76,-195.11 881.09,-205.05 888.09,-205.17"/>
</a>
</g>
</g>
<!-- Node26&#45;&gt;Node4 -->
<g id="edge48_Node000026_Node000004" class="edge">
<title>Node26&#45;&gt;Node4</title>
<g id="a_edge48_Node000026_Node000004"><a xlink:title=" ">
<path fill="none" stroke="#63b8ff" d="M1940.08,-230.99C1964.68,-221.07 2005.53,-204.59 2033.56,-193.28"/>
<polygon fill="#63b8ff" stroke="#63b8ff" points="2034.93,-196.5 2042.89,-189.52 2032.31,-190.01 2034.93,-196.5"/>
</a>
</g>
</g>
<!-- Node26&#45;&gt;Node8 -->
<g id="edge49_Node000026_Node000008" class="edge">
<title>Node26&#45;&gt;Node8</title>
<g id="a_edge49_Node000026_Node000008"><a xlink:title=" ">
<path fill="none" stroke="#63b8ff" d="M1874.39,-238.05C1706.43,-232.46 1117.47,-211.86 1035,-195 1032.16,-194.42 1029.25,-193.66 1026.36,-192.8"/>
<polygon fill="#63b8ff" stroke="#63b8ff" points="1027.38,-189.45 1016.78,-189.57 1025.14,-196.08 1027.38,-189.45"/>
</a>
</g>
</g>
<!-- Node27 -->
<g id="Node000027" class="node">
<title>Node27</title>
<g id="a_Node000027"><a xlink:title=" ">
<polygon fill="#e0e0e0" stroke="#999999" points="1998,-189.5 1862,-189.5 1862,-170.5 1998,-170.5 1998,-189.5"/>
<text text-anchor="middle" x="1930" y="-177.5" font-family="Helvetica,sans-Serif" font-size="10.00">DFRobot_OzoneSensor.h</text>
</a>
</g>
</g>
<!-- Node26&#45;&gt;Node27 -->
<g id="edge47_Node000026_Node000027" class="edge">
<title>Node26&#45;&gt;Node27</title>
<g id="a_edge47_Node000026_Node000027"><a xlink:title=" ">
<path fill="none" stroke="#63b8ff" d="M1920.62,-230.87C1922.17,-222.66 1924.54,-210.04 1926.51,-199.55"/>
<polygon fill="#63b8ff" stroke="#63b8ff" points="1929.96,-200.14 1928.37,-189.67 1923.08,-198.85 1929.96,-200.14"/>
</a>
</g>
</g>
<!-- Node28&#45;&gt;Node8 -->
<g id="edge52_Node000028_Node000008" class="edge">
<title>Node28&#45;&gt;Node8</title>
<g id="a_edge52_Node000028_Node000008"><a xlink:title=" ">
<path fill="none" stroke="#63b8ff" d="M1123.48,-230.99C1098.38,-221.07 1056.68,-204.59 1028.07,-193.28"/>
<polygon fill="#63b8ff" stroke="#63b8ff" points="1029.13,-189.94 1018.55,-189.52 1026.56,-196.45 1029.13,-189.94"/>
</a>
</g>
</g>
<!-- Node29 -->
<g id="Node000029" class="node">
<title>Node29</title>
<g id="a_Node000029"><a xlink:title=" ">
<polygon fill="#e0e0e0" stroke="#999999" points="1100,-189.5 1044,-189.5 1044,-170.5 1100,-170.5 1100,-189.5"/>
<text text-anchor="middle" x="1072" y="-177.5" font-family="Helvetica,sans-Serif" font-size="10.00">RTClib.h</text>
</a>
</g>
</g>
<!-- Node28&#45;&gt;Node29 -->
<g id="edge51_Node000028_Node000029" class="edge">
<title>Node28&#45;&gt;Node29</title>
<g id="a_edge51_Node000028_Node000029"><a xlink:title=" ">
<path fill="none" stroke="#63b8ff" d="M1134.23,-230.87C1122.8,-221.71 1104.52,-207.06 1090.72,-196.01"/>
<polygon fill="#63b8ff" stroke="#63b8ff" points="1092.81,-193.19 1082.82,-189.67 1088.43,-198.65 1092.81,-193.19"/>
</a>
</g>
</g>
<!-- Node30&#45;&gt;Node4 -->
<g id="edge58_Node000030_Node000004" class="edge">
<title>Node30&#45;&gt;Node4</title>
<g id="a_edge58_Node000030_Node000004"><a xlink:title=" ">
<path fill="none" stroke="#63b8ff" d="M1411.06,-233.11C1417.41,-232.33 1423.86,-231.6 1430,-231 1685.73,-206.07 1753,-233.8 2007,-195 2012.41,-194.17 2018.07,-193.08 2023.62,-191.86"/>
<polygon fill="#63b8ff" stroke="#63b8ff" points="2024.49,-195.25 2033.44,-189.57 2022.9,-188.43 2024.49,-195.25"/>
</a>
</g>
</g>
<!-- Node30&#45;&gt;Node8 -->
<g id="edge59_Node000030_Node000008" class="edge">
<title>Node30&#45;&gt;Node8</title>
<g id="a_edge59_Node000030_Node000008"><a xlink:title=" ">
<path fill="none" stroke="#63b8ff" d="M1320.93,-232.31C1317.91,-231.86 1314.91,-231.42 1312,-231 1189.12,-213.35 1155.56,-224.64 1035,-195 1032.49,-194.38 1029.92,-193.65 1027.35,-192.86"/>
<polygon fill="#63b8ff" stroke="#63b8ff" points="1028.24,-189.46 1017.64,-189.56 1025.98,-196.09 1028.24,-189.46"/>
</a>
</g>
</g>
<!-- Node30&#45;&gt;Node12 -->
<g id="edge56_Node000030_Node000012" class="edge">
<title>Node30&#45;&gt;Node12</title>
<g id="a_edge56_Node000030_Node000012"><a xlink:title=" ">
<path fill="none" stroke="#63b8ff" d="M1320.96,-232.06C1317.93,-231.67 1314.93,-231.31 1312,-231 1014.99,-199.74 931.96,-262.33 641,-195 638.83,-194.5 636.63,-193.86 634.44,-193.14"/>
<polygon fill="#63b8ff" stroke="#63b8ff" points="635.68,-189.87 625.09,-189.58 633.19,-196.41 635.68,-189.87"/>
</a>
</g>
</g>
<!-- Node30&#45;&gt;Node13 -->
<g id="edge57_Node000030_Node000013" class="edge">
<title>Node30&#45;&gt;Node13</title>
<g id="a_edge57_Node000030_Node000013"><a xlink:title=" ">
<path fill="none" stroke="#63b8ff" d="M1322.29,-230.92C1284.28,-223.02 1227.94,-210.23 1180,-195 1178.13,-194.41 1176.22,-193.76 1174.3,-193.08"/>
<polygon fill="#63b8ff" stroke="#63b8ff" points="1175.4,-189.75 1164.81,-189.5 1172.93,-196.3 1175.4,-189.75"/>
</a>
</g>
</g>
<!-- Node30&#45;&gt;Node21 -->
<g id="edge54_Node000030_Node000021" class="edge">
<title>Node30&#45;&gt;Node21</title>
<g id="a_edge54_Node000030_Node000021"><a xlink:title=" ">
<path fill="none" stroke="#63b8ff" d="M1384.32,-230.99C1405.41,-221.2 1440.26,-205.02 1464.58,-193.73"/>
<polygon fill="#63b8ff" stroke="#63b8ff" points="1466.06,-196.9 1473.66,-189.52 1463.11,-190.55 1466.06,-196.9"/>
</a>
</g>
</g>
<!-- Node31 -->
<g id="Node000031" class="node">
<title>Node31</title>
<g id="a_Node000031"><a xlink:title=" ">
<polygon fill="#e0e0e0" stroke="#999999" points="1423,-189.5 1309,-189.5 1309,-170.5 1423,-170.5 1423,-189.5"/>
<text text-anchor="middle" x="1366" y="-177.5" font-family="Helvetica,sans-Serif" font-size="10.00">SensirionI2cScd4x.h</text>
</a>
</g>
</g>
<!-- Node30&#45;&gt;Node31 -->
<g id="edge55_Node000030_Node000031" class="edge">
<title>Node30&#45;&gt;Node31</title>
<g id="a_edge55_Node000030_Node000031"><a xlink:title=" ">
<path fill="none" stroke="#63b8ff" d="M1366,-230.87C1366,-222.75 1366,-210.31 1366,-199.89"/>
<polygon fill="#63b8ff" stroke="#63b8ff" points="1369.5,-199.67 1366,-189.67 1362.5,-199.67 1369.5,-199.67"/>
</a>
</g>
</g>
<!-- Node32&#45;&gt;Node8 -->
<g id="edge62_Node000032_Node000008" class="edge">
<title>Node32&#45;&gt;Node8</title>
<g id="a_edge62_Node000032_Node000008"><a xlink:title=" ">
<path fill="none" stroke="#63b8ff" d="M1213.24,-231.42C1158.15,-221.33 1067.87,-204.27 1035,-195 1032.72,-194.36 1030.37,-193.64 1028.03,-192.88"/>
<polygon fill="#63b8ff" stroke="#63b8ff" points="1029.11,-189.55 1018.51,-189.59 1026.82,-196.16 1029.11,-189.55"/>
</a>
</g>
</g>
<!-- Node33 -->
<g id="Node000033" class="node">
<title>Node33</title>
<g id="a_Node000033"><a xlink:title=" ">
<polygon fill="#e0e0e0" stroke="#999999" points="1290.5,-189.5 1189.5,-189.5 1189.5,-170.5 1290.5,-170.5 1290.5,-189.5"/>
<text text-anchor="middle" x="1240" y="-177.5" font-family="Helvetica,sans-Serif" font-size="10.00">Adafruit_SHTC3.h</text>
</a>
</g>
</g>
<!-- Node32&#45;&gt;Node33 -->
<g id="edge61_Node000032_Node000033" class="edge">
<title>Node32&#45;&gt;Node33</title>
<g id="a_edge61_Node000032_Node000033"><a xlink:title=" ">
<path fill="none" stroke="#63b8ff" d="M1255.34,-230.87C1252.82,-222.66 1248.94,-210.04 1245.71,-199.55"/>
<polygon fill="#63b8ff" stroke="#63b8ff" points="1248.95,-198.2 1242.67,-189.67 1242.26,-200.25 1248.95,-198.2"/>
</a>
</g>
</g>
<!-- Node34&#45;&gt;Node8 -->
<g id="edge66_Node000034_Node000008" class="edge">
<title>Node34&#45;&gt;Node8</title>
<g id="a_edge66_Node000034_Node000008"><a xlink:title=" ">
<path fill="none" stroke="#63b8ff" d="M700.51,-232.25C703.38,-231.83 706.23,-231.41 709,-231 820.07,-214.72 850.18,-222.56 959,-195 961.5,-194.37 964.07,-193.63 966.64,-192.82"/>
<polygon fill="#63b8ff" stroke="#63b8ff" points="968.01,-196.05 976.34,-189.5 965.75,-189.43 968.01,-196.05"/>
</a>
</g>
</g>
<!-- Node34&#45;&gt;Node12 -->
<g id="edge65_Node000034_Node000012" class="edge">
<title>Node34&#45;&gt;Node12</title>
<g id="a_edge65_Node000034_Node000012"><a xlink:title=" ">
<path fill="none" stroke="#63b8ff" d="M645.51,-230.87C639.01,-222.23 628.84,-208.7 620.72,-197.92"/>
<polygon fill="#63b8ff" stroke="#63b8ff" points="623.33,-195.56 614.52,-189.67 617.73,-199.76 623.33,-195.56"/>
</a>
</g>
</g>
<!-- Node35 -->
<g id="Node000035" class="node">
<title>Node35</title>
<g id="a_Node000035"><a xlink:title=" ">
<polygon fill="#e0e0e0" stroke="#999999" points="565.5,-189.5 450.5,-189.5 450.5,-170.5 565.5,-170.5 565.5,-189.5"/>
<text text-anchor="middle" x="508" y="-177.5" font-family="Helvetica,sans-Serif" font-size="10.00">SparkFun_TMP117.h</text>
</a>
</g>
</g>
<!-- Node34&#45;&gt;Node35 -->
<g id="edge64_Node000034_Node000035" class="edge">
<title>Node34&#45;&gt;Node35</title>
<g id="a_edge64_Node000034_Node000035"><a xlink:title=" ">
<path fill="none" stroke="#63b8ff" d="M631.06,-230.99C606.64,-221.07 566.07,-204.59 538.23,-193.28"/>
<polygon fill="#63b8ff" stroke="#63b8ff" points="539.55,-190.04 528.96,-189.52 536.91,-196.52 539.55,-190.04"/>
</a>
</g>
</g>
<!-- Node36&#45;&gt;Node8 -->
<g id="edge68_Node000036_Node000008" class="edge">
<title>Node36&#45;&gt;Node8</title>
<g id="a_edge68_Node000036_Node000008"><a xlink:title=" ">
<path fill="none" stroke="#63b8ff" d="M1028.54,-230.87C1023.13,-222.31 1014.69,-208.97 1007.9,-198.24"/>
<polygon fill="#63b8ff" stroke="#63b8ff" points="1010.79,-196.25 1002.48,-189.67 1004.87,-199.99 1010.79,-196.25"/>
</a>
</g>
</g>
<!-- Node37&#45;&gt;Node4 -->
<g id="edge72_Node000037_Node000004" class="edge">
<title>Node37&#45;&gt;Node4</title>
<g id="a_edge72_Node000037_Node000004"><a xlink:title=" ">
<path fill="none" stroke="#63b8ff" d="M2237.48,-230.99C2202.08,-220.79 2142.6,-203.65 2103.32,-192.33"/>
<polygon fill="#63b8ff" stroke="#63b8ff" points="2104.13,-188.92 2093.55,-189.52 2102.19,-195.65 2104.13,-188.92"/>
</a>
</g>
</g>
<!-- Node38 -->
<g id="Node000038" class="node">
<title>Node38</title>
<g id="a_Node000038"><a xlink:title=" ">
<polygon fill="#e0e0e0" stroke="#999999" points="2419.5,-189.5 2378.5,-189.5 2378.5,-170.5 2419.5,-170.5 2419.5,-189.5"/>
<text text-anchor="middle" x="2399" y="-177.5" font-family="Helvetica,sans-Serif" font-size="10.00">SPI.h</text>
</a>
</g>
</g>
<!-- Node37&#45;&gt;Node38 -->
<g id="edge70_Node000037_Node000038" class="edge">
<title>Node37&#45;&gt;Node38</title>
<g id="a_edge70_Node000037_Node000038"><a xlink:title=" ">
<path fill="none" stroke="#63b8ff" d="M2287.63,-230.89C2308.51,-222.1 2341.65,-207.96 2370,-195 2370.82,-194.62 2371.66,-194.24 2372.5,-193.85"/>
<polygon fill="#63b8ff" stroke="#63b8ff" points="2374.03,-197 2381.57,-189.56 2371.04,-190.67 2374.03,-197"/>
</a>
</g>
</g>
<!-- Node39 -->
<g id="Node000039" class="node">
<title>Node39</title>
<g id="a_Node000039"><a xlink:title=" ">
<polygon fill="#e0e0e0" stroke="#999999" points="2484.5,-189.5 2437.5,-189.5 2437.5,-170.5 2484.5,-170.5 2484.5,-189.5"/>
<text text-anchor="middle" x="2461" y="-177.5" font-family="Helvetica,sans-Serif" font-size="10.00">vector</text>
</a>
</g>
</g>
<!-- Node37&#45;&gt;Node39 -->
<g id="edge71_Node000037_Node000039" class="edge">
<title>Node37&#45;&gt;Node39</title>
<g id="a_edge71_Node000037_Node000039"><a xlink:title=" ">
<path fill="none" stroke="#63b8ff" d="M2303.82,-231C2336.96,-222.96 2386.8,-209.94 2429,-195 2430.39,-194.51 2431.81,-193.98 2433.24,-193.43"/>
<polygon fill="#63b8ff" stroke="#63b8ff" points="2434.65,-196.64 2442.57,-189.6 2431.99,-190.16 2434.65,-196.64"/>
</a>
</g>
</g>
<!-- Node40 -->
<g id="Node000040" class="node">
<title>Node40</title>
<g id="a_Node000040"><a xlink:title=" ">
<polygon fill="#e0e0e0" stroke="#999999" points="2280,-189.5 2130,-189.5 2130,-170.5 2280,-170.5 2280,-189.5"/>
<text text-anchor="middle" x="2205" y="-177.5" font-family="Helvetica,sans-Serif" font-size="10.00">SparkFun_SPI_SerialFlash.h</text>
</a>
</g>
</g>
<!-- Node37&#45;&gt;Node40 -->
<g id="edge73_Node000037_Node000040" class="edge">
<title>Node37&#45;&gt;Node40</title>
<g id="a_edge73_Node000037_Node000040"><a xlink:title=" ">
<path fill="none" stroke="#63b8ff" d="M2257.85,-230.87C2248.33,-221.88 2233.2,-207.61 2221.57,-196.64"/>
<polygon fill="#63b8ff" stroke="#63b8ff" points="2223.86,-193.98 2214.19,-189.67 2219.06,-199.08 2223.86,-193.98"/>
</a>
</g>
</g>
<!-- Node41 -->
<g id="Node000041" class="node">
<title>Node41</title>
<g id="a_Node000041"><a xlink:href="Storage_8h.html" target="_top" xlink:title=" ">
<polygon fill="white" stroke="#666666" points="2360.5,-189.5 2297.5,-189.5 2297.5,-170.5 2360.5,-170.5 2360.5,-189.5"/>
<text text-anchor="middle" x="2329" y="-177.5" font-family="Helvetica,sans-Serif" font-size="10.00">Storage.h</text>
</a>
</g>
</g>
<!-- Node37&#45;&gt;Node41 -->
<g id="edge74_Node000037_Node000041" class="edge">
<title>Node37&#45;&gt;Node41</title>
<g id="a_edge74_Node000037_Node000041"><a xlink:title=" ">
<path fill="none" stroke="#63b8ff" d="M2276.15,-230.87C2285.67,-221.88 2300.8,-207.61 2312.43,-196.64"/>
<polygon fill="#63b8ff" stroke="#63b8ff" points="2314.94,-199.08 2319.81,-189.67 2310.14,-193.98 2314.94,-199.08"/>
</a>
</g>
</g>
<!-- Node41&#45;&gt;Node2 -->
<g id="edge75_Node000041_Node000002" class="edge">
<title>Node41&#45;&gt;Node2</title>
<g id="a_edge75_Node000041_Node000002"><a xlink:title=" ">
<path fill="none" stroke="#63b8ff" d="M2306.35,-170.36C2300.73,-168.42 2294.69,-166.49 2289,-165 2154.07,-129.62 2118.14,-129.4 1980,-110 1624.73,-60.12 1192.51,-24.3 1057.99,-13.73"/>
<polygon fill="#63b8ff" stroke="#63b8ff" points="1057.97,-10.21 1047.72,-12.92 1057.42,-17.19 1057.97,-10.21"/>
</a>
</g>
</g>
<!-- Node41&#45;&gt;Node7 -->
<g id="edge77_Node000041_Node000007" class="edge">
<title>Node41&#45;&gt;Node7</title>
<g id="a_edge77_Node000041_Node000007"><a xlink:title=" ">
<path fill="none" stroke="#63b8ff" d="M2307.24,-170.44C2301.39,-168.4 2295.02,-166.41 2289,-165 2096.7,-119.9 2044.69,-128.04 1848,-110 1574.71,-84.93 1244.41,-71.13 1132.35,-66.91"/>
<polygon fill="#63b8ff" stroke="#63b8ff" points="1132.32,-63.41 1122.2,-66.54 1132.06,-70.41 1132.32,-63.41"/>
</a>
</g>
</g>
<!-- Node41&#45;&gt;Node9 -->
<g id="edge76_Node000041_Node000009" class="edge">
<title>Node41&#45;&gt;Node9</title>
<g id="a_edge76_Node000041_Node000009"><a xlink:title=" ">
<path fill="none" stroke="#63b8ff" d="M2308.15,-170.38C2302.08,-168.23 2295.36,-166.2 2289,-165 2059.92,-121.67 1313.46,-120.11 1132.69,-120.39"/>
<polygon fill="#63b8ff" stroke="#63b8ff" points="1132.56,-116.89 1122.57,-120.4 1132.57,-123.89 1132.56,-116.89"/>
</a>
</g>
</g>
</g>
</svg>
