<?xml version="1.0" encoding="UTF-8" standalone="no"?>
<!DOCTYPE svg PUBLIC "-//W3C//DTD SVG 1.1//EN"
 "http://www.w3.org/Graphics/SVG/1.1/DTD/svg11.dtd">
<!-- Generated by graphviz version 2.43.0 (0)
 -->
<!-- Title: main1.cpp Pages: 1 -->
<!--zoomable 308 -->
<svg id="main" version="1.1" xmlns="http://www.w3.org/2000/svg" xmlns:xlink="http://www.w3.org/1999/xlink" xml:space="preserve" onload="init(evt)">
<style type="text/css"><![CDATA[
.edge:hover path { stroke: red; }
.edge:hover polygon { stroke: red; fill: red; }
]]></style>
<script type="text/javascript"><![CDATA[
var edges = document.getElementsByTagName('g');
if (edges && edges.length) {
  for (var i=0;i<edges.length;i++) {
    if (edges[i].id.substr(0,4)=='edge') {
      edges[i].setAttribute('class','edge');
    }
  }
}
]]></script>
        <defs>
                <circle id="rim" cx="0" cy="0" r="7"/>
                <circle id="rim2" cx="0" cy="0" r="3.5"/>
                <g id="zoomPlus">
                        <use xlink:href="#rim" fill="#404040">
                                <set attributeName="fill" to="#808080" begin="zoomplus.mouseover" end="zoomplus.mouseout"/>
                        </use>
                        <path d="M-4,0h8M0,-4v8" fill="none" stroke="white" stroke-width="1.5" pointer-events="none"/>
                </g>
                <g id="zoomMin">
                        <use xlink:href="#rim" fill="#404040">
                                <set attributeName="fill" to="#808080" begin="zoomminus.mouseover" end="zoomminus.mouseout"/>
                        </use>
                        <path d="M-4,0h8" fill="none" stroke="white" stroke-width="1.5" pointer-events="none"/>
                </g>
                <g id="dirArrow">
                        <path fill="none" stroke="white" stroke-width="1.5" d="M0,-3.0v7 M-2.5,-0.5L0,-3.0L2.5,-0.5"/>
                </g>
               <g id="resetDef">
                       <use xlink:href="#rim2" fill="#404040">
                               <set attributeName="fill" to="#808080" begin="reset.mouseover" end="reset.mouseout"/>
                       </use>
               </g>
        </defs>

<script type="text/javascript">
var viewWidth = 868;
var viewHeight = 308;
var sectionId = 'dynsection-0';
</script>
<script xlink:href="svgpan.js"/>
<svg id="graph" class="graph">
<g id="viewport">
<title>main1.cpp</title>
<!-- Node1 -->
<g id="node1" class="node">
<title>Node1</title>
<g id="a_node1"><a xlink:title="Main functions for Core 1, responsible for sending data to storage peripherals.">
<polygon fill="#bfbfbf" stroke="black" points="263,-280.5 263,-299.5 331,-299.5 331,-280.5 263,-280.5"/>
<text text-anchor="middle" x="297" y="-287.5" font-family="Helvetica,sans-Serif" font-size="10.00">main1.cpp</text>
</a>
</g>
</g>
<!-- Node2 -->
<g id="node2" class="node">
<title>Node2</title>
<g id="a_node2"><a xlink:title=" ">
<polygon fill="none" stroke="#bfbfbf" points="131.5,-0.5 131.5,-19.5 194.5,-19.5 194.5,-0.5 131.5,-0.5"/>
<text text-anchor="middle" x="163" y="-7.5" font-family="Helvetica,sans-Serif" font-size="10.00">Arduino.h</text>
</a>
</g>
</g>
<!-- Node1&#45;&gt;Node2 -->
<g id="edge1" class="edge">
<title>Node1&#45;&gt;Node2</title>
<path fill="none" stroke="midnightblue" d="M262.93,-283.79C184.92,-270.92 0,-234.54 0,-179 0,-179 0,-179 0,-121 0,-62.51 73,-33.04 121.29,-19.95"/>
<polygon fill="midnightblue" stroke="midnightblue" points="122.38,-23.28 131.19,-17.4 120.63,-16.5 122.38,-23.28"/>
</g>
<!-- Node3 -->
<g id="node3" class="node">
<title>Node3</title>
<g id="a_node3"><a xlink:href="ErrorDisplay_8h.html" target="_top" xlink:title=" ">
<polygon fill="none" stroke="black" points="274,-168.5 274,-187.5 358,-187.5 358,-168.5 274,-168.5"/>
<text text-anchor="middle" x="316" y="-175.5" font-family="Helvetica,sans-Serif" font-size="10.00">ErrorDisplay.h</text>
</a>
</g>
</g>
<!-- Node1&#45;&gt;Node3 -->
<g id="edge2" class="edge">
<title>Node1&#45;&gt;Node3</title>
<path fill="none" stroke="midnightblue" d="M298.49,-280.37C301.56,-262.62 308.63,-221.67 312.79,-197.6"/>
<polygon fill="midnightblue" stroke="midnightblue" points="316.26,-198.04 314.52,-187.59 309.36,-196.85 316.26,-198.04"/>
</g>
<!-- Node4 -->
<g id="node4" class="node">
<title>Node4</title>
<g id="a_node4"><a xlink:href="PayloadConfig_8h.html" target="_top" xlink:title="Central location for pinout and config defines.">
<polygon fill="none" stroke="black" points="504,-112.5 504,-131.5 600,-131.5 600,-112.5 504,-112.5"/>
<text text-anchor="middle" x="552" y="-119.5" font-family="Helvetica,sans-Serif" font-size="10.00">PayloadConfig.h</text>
</a>
</g>
</g>
<!-- Node1&#45;&gt;Node4 -->
<g id="edge9" class="edge">
<title>Node1&#45;&gt;Node4</title>
<path fill="none" stroke="midnightblue" d="M331.12,-281.09C359.04,-273.8 399.01,-261.45 431,-244 465.98,-224.92 472.96,-216.31 501,-188 515.93,-172.93 530.63,-153.58 540.38,-139.93"/>
<polygon fill="midnightblue" stroke="midnightblue" points="543.41,-141.7 546.28,-131.5 537.68,-137.68 543.41,-141.7"/>
</g>
<!-- Node7 -->
<g id="node7" class="node">
<title>Node7</title>
<g id="a_node7"><a xlink:href="Logger_8h.html" target="_top" xlink:title=" ">
<polygon fill="none" stroke="black" points="104.5,-56.5 104.5,-75.5 163.5,-75.5 163.5,-56.5 104.5,-56.5"/>
<text text-anchor="middle" x="134" y="-63.5" font-family="Helvetica,sans-Serif" font-size="10.00">Logger.h</text>
</a>
</g>
</g>
<!-- Node1&#45;&gt;Node7 -->
<g id="edge7" class="edge">
<title>Node1&#45;&gt;Node7</title>
<path fill="none" stroke="midnightblue" d="M262.87,-288.03C229.14,-285.18 178.44,-275.48 149,-244 108.16,-200.33 115.85,-171.36 123,-112 124.07,-103.11 126.29,-93.43 128.46,-85.34"/>
<polygon fill="midnightblue" stroke="midnightblue" points="131.89,-86.09 131.27,-75.51 125.16,-84.17 131.89,-86.09"/>
</g>
<!-- Node8 -->
<g id="node8" class="node">
<title>Node8</title>
<g id="a_node8"><a xlink:href="Storage_8h.html" target="_top" xlink:title=" ">
<polygon fill="none" stroke="black" points="192.5,-168.5 192.5,-187.5 255.5,-187.5 255.5,-168.5 192.5,-168.5"/>
<text text-anchor="middle" x="224" y="-175.5" font-family="Helvetica,sans-Serif" font-size="10.00">Storage.h</text>
</a>
</g>
</g>
<!-- Node1&#45;&gt;Node8 -->
<g id="edge10" class="edge">
<title>Node1&#45;&gt;Node8</title>
<path fill="none" stroke="midnightblue" d="M292.23,-280.41C285.15,-267.79 271.25,-243.63 258,-224 251.56,-214.46 243.87,-204.2 237.44,-195.89"/>
<polygon fill="midnightblue" stroke="midnightblue" points="239.99,-193.47 231.06,-187.76 234.48,-197.79 239.99,-193.47"/>
</g>
<!-- Node10 -->
<g id="node10" class="node">
<title>Node10</title>
<g id="a_node10"><a xlink:href="FlashStorage_8h.html" target="_top" xlink:title=" ">
<polygon fill="none" stroke="black" points="555.5,-224.5 555.5,-243.5 644.5,-243.5 644.5,-224.5 555.5,-224.5"/>
<text text-anchor="middle" x="600" y="-231.5" font-family="Helvetica,sans-Serif" font-size="10.00">FlashStorage.h</text>
</a>
</g>
</g>
<!-- Node1&#45;&gt;Node10 -->
<g id="edge16" class="edge">
<title>Node1&#45;&gt;Node10</title>
<path fill="none" stroke="midnightblue" d="M331.17,-282.91C383.29,-273.62 483.14,-255.83 545.39,-244.73"/>
<polygon fill="midnightblue" stroke="midnightblue" points="546.19,-248.14 555.43,-242.94 544.97,-241.25 546.19,-248.14"/>
</g>
<!-- Node14 -->
<g id="node14" class="node">
<title>Node14</title>
<g id="a_node14"><a xlink:href="RadioStorage_8h.html" target="_top" xlink:title=" ">
<polygon fill="none" stroke="black" points="158.5,-224.5 158.5,-243.5 249.5,-243.5 249.5,-224.5 158.5,-224.5"/>
<text text-anchor="middle" x="204" y="-231.5" font-family="Helvetica,sans-Serif" font-size="10.00">RadioStorage.h</text>
</a>
</g>
</g>
<!-- Node1&#45;&gt;Node14 -->
<g id="edge22" class="edge">
<title>Node1&#45;&gt;Node14</title>
<path fill="none" stroke="midnightblue" d="M282.06,-280.32C267.41,-271.82 244.87,-258.73 227.76,-248.8"/>
<polygon fill="midnightblue" stroke="midnightblue" points="229.31,-245.65 218.9,-243.65 225.8,-251.7 229.31,-245.65"/>
</g>
<!-- Node15 -->
<g id="node15" class="node">
<title>Node15</title>
<g id="a_node15"><a xlink:href="SDStorage_8h.html" target="_top" xlink:title=" ">
<polygon fill="none" stroke="black" points="344.5,-224.5 344.5,-243.5 421.5,-243.5 421.5,-224.5 344.5,-224.5"/>
<text text-anchor="middle" x="383" y="-231.5" font-family="Helvetica,sans-Serif" font-size="10.00">SDStorage.h</text>
</a>
</g>
</g>
<!-- Node1&#45;&gt;Node15 -->
<g id="edge26" class="edge">
<title>Node1&#45;&gt;Node15</title>
<path fill="none" stroke="midnightblue" d="M310.82,-280.32C324.23,-271.9 344.82,-258.97 360.59,-249.07"/>
<polygon fill="midnightblue" stroke="midnightblue" points="362.61,-251.94 369.22,-243.65 358.89,-246.01 362.61,-251.94"/>
</g>
<!-- Node3&#45;&gt;Node2 -->
<g id="edge3" class="edge">
<title>Node3&#45;&gt;Node2</title>
<path fill="none" stroke="midnightblue" d="M308.34,-168.42C290.53,-148.53 244.91,-97.74 206,-56 196.96,-46.3 186.7,-35.55 178.47,-26.99"/>
<polygon fill="midnightblue" stroke="midnightblue" points="180.77,-24.34 171.31,-19.57 175.73,-29.19 180.77,-24.34"/>
</g>
<!-- Node3&#45;&gt;Node4 -->
<g id="edge4" class="edge">
<title>Node3&#45;&gt;Node4</title>
<path fill="none" stroke="midnightblue" d="M353.39,-168.44C394.39,-159.06 460.25,-143.99 504.78,-133.8"/>
<polygon fill="midnightblue" stroke="midnightblue" points="505.81,-137.16 514.78,-131.52 504.25,-130.34 505.81,-137.16"/>
</g>
<!-- Node5 -->
<g id="node5" class="node">
<title>Node5</title>
<g id="a_node5"><a xlink:title=" ">
<polygon fill="none" stroke="#bfbfbf" points="296.5,-112.5 296.5,-131.5 391.5,-131.5 391.5,-112.5 296.5,-112.5"/>
<text text-anchor="middle" x="344" y="-119.5" font-family="Helvetica,sans-Serif" font-size="10.00">pico/multicore.h</text>
</a>
</g>
</g>
<!-- Node3&#45;&gt;Node5 -->
<g id="edge5" class="edge">
<title>Node3&#45;&gt;Node5</title>
<path fill="none" stroke="midnightblue" d="M320.62,-168.08C324.46,-160.69 330.02,-149.95 334.76,-140.81"/>
<polygon fill="midnightblue" stroke="midnightblue" points="337.97,-142.24 339.46,-131.75 331.75,-139.02 337.97,-142.24"/>
</g>
<!-- Node6 -->
<g id="node6" class="node">
<title>Node6</title>
<g id="a_node6"><a xlink:title=" ">
<polygon fill="none" stroke="#bfbfbf" points="410,-112.5 410,-131.5 486,-131.5 486,-112.5 410,-112.5"/>
<text text-anchor="middle" x="448" y="-119.5" font-family="Helvetica,sans-Serif" font-size="10.00">pico/stdlib.h</text>
</a>
</g>
</g>
<!-- Node3&#45;&gt;Node6 -->
<g id="edge6" class="edge">
<title>Node3&#45;&gt;Node6</title>
<path fill="none" stroke="midnightblue" d="M336.92,-168.44C358.74,-159.52 393.15,-145.44 417.89,-135.32"/>
<polygon fill="midnightblue" stroke="midnightblue" points="419.25,-138.54 427.18,-131.52 416.6,-132.06 419.25,-138.54"/>
</g>
<!-- Node7&#45;&gt;Node2 -->
<g id="edge8" class="edge">
<title>Node7&#45;&gt;Node2</title>
<path fill="none" stroke="midnightblue" d="M138.79,-56.08C142.76,-48.69 148.53,-37.95 153.43,-28.81"/>
<polygon fill="midnightblue" stroke="midnightblue" points="156.65,-30.22 158.3,-19.75 150.49,-26.91 156.65,-30.22"/>
</g>
<!-- Node8&#45;&gt;Node2 -->
<g id="edge11" class="edge">
<title>Node8&#45;&gt;Node2</title>
<path fill="none" stroke="midnightblue" d="M222.66,-168.46C220.58,-155.92 216.16,-131.84 210,-112 202.02,-86.3 198.46,-80.35 187,-56 182.71,-46.89 177.5,-36.99 173.02,-28.8"/>
<polygon fill="midnightblue" stroke="midnightblue" points="175.96,-26.88 168.05,-19.83 169.84,-30.27 175.96,-26.88"/>
</g>
<!-- Node8&#45;&gt;Node7 -->
<g id="edge15" class="edge">
<title>Node8&#45;&gt;Node7</title>
<path fill="none" stroke="midnightblue" d="M192.45,-170.43C171.64,-164.29 145.93,-152.81 133,-132 124.45,-118.23 125.81,-99.46 128.65,-85.62"/>
<polygon fill="midnightblue" stroke="midnightblue" points="132.08,-86.33 131.08,-75.78 125.28,-84.65 132.08,-86.33"/>
</g>
<!-- Node9 -->
<g id="node9" class="node">
<title>Node9</title>
<g id="a_node9"><a xlink:href="Device_8h.html" target="_top" xlink:title=" ">
<polygon fill="none" stroke="black" points="142.5,-112.5 142.5,-131.5 201.5,-131.5 201.5,-112.5 142.5,-112.5"/>
<text text-anchor="middle" x="172" y="-119.5" font-family="Helvetica,sans-Serif" font-size="10.00">Device.h</text>
</a>
</g>
</g>
<!-- Node8&#45;&gt;Node9 -->
<g id="edge12" class="edge">
<title>Node8&#45;&gt;Node9</title>
<path fill="none" stroke="midnightblue" d="M215.41,-168.08C207.84,-160.22 196.62,-148.57 187.49,-139.08"/>
<polygon fill="midnightblue" stroke="midnightblue" points="189.88,-136.53 180.43,-131.75 184.84,-141.38 189.88,-136.53"/>
</g>
<!-- Node9&#45;&gt;Node2 -->
<g id="edge13" class="edge">
<title>Node9&#45;&gt;Node2</title>
<path fill="none" stroke="midnightblue" d="M172.55,-112.14C173.21,-99.61 173.98,-75.99 172,-56 171.13,-47.17 169.31,-37.51 167.53,-29.4"/>
<polygon fill="midnightblue" stroke="midnightblue" points="170.92,-28.49 165.23,-19.55 164.1,-30.08 170.92,-28.49"/>
</g>
<!-- Node9&#45;&gt;Node7 -->
<g id="edge14" class="edge">
<title>Node9&#45;&gt;Node7</title>
<path fill="none" stroke="midnightblue" d="M165.73,-112.08C160.36,-104.46 152.48,-93.26 145.92,-83.94"/>
<polygon fill="midnightblue" stroke="midnightblue" points="148.78,-81.91 140.16,-75.75 143.05,-85.94 148.78,-81.91"/>
</g>
<!-- Node10&#45;&gt;Node4 -->
<g id="edge19" class="edge">
<title>Node10&#45;&gt;Node4</title>
<path fill="none" stroke="midnightblue" d="M595.59,-224.46C591.01,-215.48 583.71,-200.88 578,-188 571.15,-172.55 564.07,-154.71 559.03,-141.63"/>
<polygon fill="midnightblue" stroke="midnightblue" points="562.16,-140.02 555.33,-131.92 555.62,-142.51 562.16,-140.02"/>
</g>
<!-- Node10&#45;&gt;Node8 -->
<g id="edge21" class="edge">
<title>Node10&#45;&gt;Node8</title>
<path fill="none" stroke="midnightblue" d="M555.38,-228.19C492.9,-221.2 375.57,-207.12 265.66,-187.98"/>
<polygon fill="midnightblue" stroke="midnightblue" points="266.19,-184.52 255.73,-186.24 264.97,-191.42 266.19,-184.52"/>
</g>
<!-- Node11 -->
<g id="node11" class="node">
<title>Node11</title>
<g id="a_node11"><a xlink:title=" ">
<polygon fill="none" stroke="#bfbfbf" points="586.5,-168.5 586.5,-187.5 627.5,-187.5 627.5,-168.5 586.5,-168.5"/>
<text text-anchor="middle" x="607" y="-175.5" font-family="Helvetica,sans-Serif" font-size="10.00">SPI.h</text>
</a>
</g>
</g>
<!-- Node10&#45;&gt;Node11 -->
<g id="edge17" class="edge">
<title>Node10&#45;&gt;Node11</title>
<path fill="none" stroke="midnightblue" d="M601.16,-224.08C602.08,-216.93 603.42,-206.64 604.58,-197.69"/>
<polygon fill="midnightblue" stroke="midnightblue" points="608.05,-198.12 605.87,-187.75 601.11,-197.22 608.05,-198.12"/>
</g>
<!-- Node12 -->
<g id="node12" class="node">
<title>Node12</title>
<g id="a_node12"><a xlink:title=" ">
<polygon fill="none" stroke="#bfbfbf" points="645.5,-168.5 645.5,-187.5 692.5,-187.5 692.5,-168.5 645.5,-168.5"/>
<text text-anchor="middle" x="669" y="-175.5" font-family="Helvetica,sans-Serif" font-size="10.00">vector</text>
</a>
</g>
</g>
<!-- Node10&#45;&gt;Node12 -->
<g id="edge18" class="edge">
<title>Node10&#45;&gt;Node12</title>
<path fill="none" stroke="midnightblue" d="M611.09,-224.32C621.49,-216.18 637.26,-203.84 649.72,-194.09"/>
<polygon fill="midnightblue" stroke="midnightblue" points="651.99,-196.75 657.71,-187.83 647.68,-191.24 651.99,-196.75"/>
</g>
<!-- Node13 -->
<g id="node13" class="node">
<title>Node13</title>
<g id="a_node13"><a xlink:title=" ">
<polygon fill="none" stroke="#bfbfbf" points="710,-168.5 710,-187.5 860,-187.5 860,-168.5 710,-168.5"/>
<text text-anchor="middle" x="785" y="-175.5" font-family="Helvetica,sans-Serif" font-size="10.00">SparkFun_SPI_SerialFlash.h</text>
</a>
</g>
</g>
<!-- Node10&#45;&gt;Node13 -->
<g id="edge20" class="edge">
<title>Node10&#45;&gt;Node13</title>
<path fill="none" stroke="midnightblue" d="M629.31,-224.44C660.84,-215.24 711.13,-200.56 745.99,-190.39"/>
<polygon fill="midnightblue" stroke="midnightblue" points="747.2,-193.68 755.82,-187.52 745.24,-186.96 747.2,-193.68"/>
</g>
<!-- Node14&#45;&gt;Node2 -->
<g id="edge23" class="edge">
<title>Node14&#45;&gt;Node2</title>
<path fill="none" stroke="midnightblue" d="M194.26,-224.35C170.53,-202.46 110.55,-141.88 95,-76 92.96,-67.35 90.79,-63.83 95,-56 102.62,-41.82 116.9,-31.35 130.41,-24.1"/>
<polygon fill="midnightblue" stroke="midnightblue" points="132.13,-27.16 139.55,-19.59 129.03,-20.88 132.13,-27.16"/>
</g>
<!-- Node14&#45;&gt;Node4 -->
<g id="edge24" class="edge">
<title>Node14&#45;&gt;Node4</title>
<path fill="none" stroke="midnightblue" d="M238.98,-224.47C272.2,-216.1 323.41,-202.52 367,-188 390.1,-180.31 395.12,-176.32 418,-168 450.72,-156.1 488.33,-143.57 515.36,-134.76"/>
<polygon fill="midnightblue" stroke="midnightblue" points="516.74,-137.99 525.17,-131.58 514.58,-131.33 516.74,-137.99"/>
</g>
<!-- Node14&#45;&gt;Node8 -->
<g id="edge25" class="edge">
<title>Node14&#45;&gt;Node8</title>
<path fill="none" stroke="midnightblue" d="M207.3,-224.08C209.98,-216.85 213.85,-206.41 217.19,-197.4"/>
<polygon fill="midnightblue" stroke="midnightblue" points="220.57,-198.34 220.76,-187.75 214,-195.91 220.57,-198.34"/>
</g>
<!-- Node15&#45;&gt;Node3 -->
<g id="edge27" class="edge">
<title>Node15&#45;&gt;Node3</title>
<path fill="none" stroke="midnightblue" d="M372.24,-224.32C362.23,-216.26 347.11,-204.08 335.07,-194.37"/>
<polygon fill="midnightblue" stroke="midnightblue" points="336.94,-191.38 326.96,-187.83 332.55,-196.83 336.94,-191.38"/>
</g>
<!-- Node15&#45;&gt;Node4 -->
<g id="edge28" class="edge">
<title>Node15&#45;&gt;Node4</title>
<path fill="none" stroke="midnightblue" d="M389.21,-224.32C399.32,-210.7 420.59,-184.22 444,-168 464.99,-153.45 491.42,-142.34 512.88,-134.8"/>
<polygon fill="midnightblue" stroke="midnightblue" points="514,-138.11 522.35,-131.58 511.75,-131.48 514,-138.11"/>
</g>
<!-- Node15&#45;&gt;Node8 -->
<g id="edge30" class="edge">
<title>Node15&#45;&gt;Node8</title>
<path fill="none" stroke="midnightblue" d="M357.81,-224.44C331.06,-215.36 288.6,-200.94 258.69,-190.78"/>
<polygon fill="midnightblue" stroke="midnightblue" points="259.67,-187.42 249.08,-187.52 257.42,-194.05 259.67,-187.42"/>
</g>
<!-- Node16 -->
<g id="node16" class="node">
<title>Node16</title>
<g id="a_node16"><a xlink:title=" ">
<polygon fill="none" stroke="#bfbfbf" points="452.5,-168.5 452.5,-187.5 491.5,-187.5 491.5,-168.5 452.5,-168.5"/>
<text text-anchor="middle" x="472" y="-175.5" font-family="Helvetica,sans-Serif" font-size="10.00">SD.h</text>
</a>
</g>
</g>
<!-- Node15&#45;&gt;Node16 -->
<g id="edge29" class="edge">
<title>Node15&#45;&gt;Node16</title>
<path fill="none" stroke="midnightblue" d="M397.3,-224.32C411.18,-215.9 432.49,-202.97 448.8,-193.07"/>
<polygon fill="midnightblue" stroke="midnightblue" points="451,-195.83 457.74,-187.65 447.37,-189.85 451,-195.83"/>
</g>
</g>
</svg>
        <g id="navigator" transform="translate(0 0)" fill="#404254">
                <rect fill="#f2f5e9" fill-opacity="0.5" stroke="#606060" stroke-width=".5" x="0" y="0" width="60" height="60"/>
                <use id="zoomplus" xlink:href="#zoomPlus" x="17" y="9" onmousedown="handleZoom(evt,'in')"/>
                <use id="zoomminus" xlink:href="#zoomMin" x="42" y="9" onmousedown="handleZoom(evt,'out')"/>
                <use id="reset" xlink:href="#resetDef" x="30" y="36" onmousedown="handleReset()"/>
                <g id="arrowUp" xlink:href="#dirArrow" transform="translate(30 24)" onmousedown="handlePan(0,-1)">
                  <use xlink:href="#rim" fill="#404040">
                        <set attributeName="fill" to="#808080" begin="arrowUp.mouseover" end="arrowUp.mouseout"/>
                  </use>
                  <path fill="none" stroke="white" stroke-width="1.5" d="M0,-3.0v7 M-2.5,-0.5L0,-3.0L2.5,-0.5"/>
                </g>
                <g id="arrowRight" xlink:href="#dirArrow" transform="rotate(90) translate(36 -43)" onmousedown="handlePan(1,0)">
                  <use xlink:href="#rim" fill="#404040">
                        <set attributeName="fill" to="#808080" begin="arrowRight.mouseover" end="arrowRight.mouseout"/>
                  </use>
                  <path fill="none" stroke="white" stroke-width="1.5" d="M0,-3.0v7 M-2.5,-0.5L0,-3.0L2.5,-0.5"/>
                </g>
                <g id="arrowDown" xlink:href="#dirArrow" transform="rotate(180) translate(-30 -48)" onmousedown="handlePan(0,1)">
                  <use xlink:href="#rim" fill="#404040">
                        <set attributeName="fill" to="#808080" begin="arrowDown.mouseover" end="arrowDown.mouseout"/>
                  </use>
                  <path fill="none" stroke="white" stroke-width="1.5" d="M0,-3.0v7 M-2.5,-0.5L0,-3.0L2.5,-0.5"/>
                </g>
                <g id="arrowLeft" xlink:href="#dirArrow" transform="rotate(270) translate(-36 17)" onmousedown="handlePan(-1,0)">
                  <use xlink:href="#rim" fill="#404040">
                        <set attributeName="fill" to="#808080" begin="arrowLeft.mouseover" end="arrowLeft.mouseout"/>
                  </use>
                  <path fill="none" stroke="white" stroke-width="1.5" d="M0,-3.0v7 M-2.5,-0.5L0,-3.0L2.5,-0.5"/>
                </g>
        </g>
        <svg viewBox="0 0 15 15" width="100%" height="30px" preserveAspectRatio="xMaxYMin meet">
         <g id="arrow_out" transform="scale(0.3 0.3)">
          <a xlink:href="main1_8cpp__incl_org.svg" target="_base">
           <rect id="button" ry="5" rx="5" y="6" x="6" height="38" width="38"
                fill="#f2f5e9" fill-opacity="0.5" stroke="#606060" stroke-width="1.0"/>
           <path id="arrow"
             d="M 11.500037,31.436501 C 11.940474,20.09759 22.043105,11.32322 32.158766,21.979434 L 37.068811,17.246167 C 37.068811,17.246167 37.088388,32 37.088388,32 L 22.160133,31.978069 C 22.160133,31.978069 26.997745,27.140456 26.997745,27.140456 C 18.528582,18.264221 13.291696,25.230495 11.500037,31.436501 z"
             style="fill:#404040;"/>
          </a>
         </g>
        </svg>
</svg>
