<?xml version="1.0" encoding="UTF-8" standalone="no"?>
<!DOCTYPE svg PUBLIC "-//W3C//DTD SVG 1.1//EN"
 "http://www.w3.org/Graphics/SVG/1.1/DTD/svg11.dtd">
<!-- Generated by graphviz version 2.43.0 (0)
 -->
<!-- Title: setup Pages: 1 -->
<svg width="429pt" height="397pt"
 viewBox="0.00 0.00 429.00 397.00" xmlns="http://www.w3.org/2000/svg" xmlns:xlink="http://www.w3.org/1999/xlink">
<g id="graph0" class="graph" transform="scale(1 1) rotate(0) translate(4 393)">
<title>setup</title>
<!-- Node1 -->
<g id="Node000001" class="node">
<title>Node1</title>
<g id="a_Node000001"><a xlink:title="Setup for core 0.">
<polygon fill="#999999" stroke="#666666" points="44,-204 0,-204 0,-185 44,-185 44,-204"/>
<text text-anchor="middle" x="22" y="-192" font-family="Helvetica,sans-Serif" font-size="10.00">setup</text>
</a>
</g>
</g>
<!-- Node2 -->
<g id="Node000002" class="node">
<title>Node2</title>
<g id="a_Node000002"><a xlink:href="classErrorDisplay.html#a25018c85cd6b4055a5e796153b997d13" target="_top" xlink:title="Sets the error code to the given value if the given error is of a higher priority then the current er...">
<polygon fill="white" stroke="#666666" points="222,-389 97,-389 97,-370 222,-370 222,-389"/>
<text text-anchor="middle" x="159.5" y="-377" font-family="Helvetica,sans-Serif" font-size="10.00">ErrorDisplay::addCode</text>
</a>
</g>
</g>
<!-- Node1&#45;&gt;Node2 -->
<g id="edge1_Node000001_Node000002" class="edge">
<title>Node1&#45;&gt;Node2</title>
<g id="a_edge1_Node000001_Node000002"><a xlink:title=" ">
<path fill="none" stroke="#63b8ff" d="M23.21,-204.15C24.4,-232.83 31.99,-318.22 80,-361.5 82.36,-363.63 84.93,-365.53 87.64,-367.21"/>
<polygon fill="#63b8ff" stroke="#63b8ff" points="86.23,-370.42 96.73,-371.9 89.44,-364.2 86.23,-370.42"/>
</a>
</g>
</g>
<!-- Node3 -->
<g id="Node000003" class="node">
<title>Node3</title>
<g id="a_Node000003"><a xlink:href="classTempSensor.html#a46405a547edfea61de51aa897e7d353a" target="_top" xlink:title=" ">
<polygon fill="white" stroke="#666666" points="233,-352 86,-352 86,-333 233,-333 233,-352"/>
<text text-anchor="middle" x="159.5" y="-340" font-family="Helvetica,sans-Serif" font-size="10.00">TempSensor::decodeToCSV</text>
</a>
</g>
</g>
<!-- Node1&#45;&gt;Node3 -->
<g id="edge2_Node000001_Node000003" class="edge">
<title>Node1&#45;&gt;Node3</title>
<g id="a_edge2_Node000001_Node000003"><a xlink:title=" ">
<path fill="none" stroke="#63b8ff" d="M24.25,-204.09C27.94,-228.3 41.09,-292.28 80,-324.5 81.53,-325.77 83.14,-326.96 84.81,-328.06"/>
<polygon fill="#63b8ff" stroke="#63b8ff" points="83.14,-331.14 93.58,-332.94 86.54,-325.02 83.14,-331.14"/>
</a>
</g>
</g>
<!-- Node4 -->
<g id="Node000004" class="node">
<title>Node4</title>
<g id="a_Node000004"><a xlink:href="classSensor.html#a7a1b80d366c585dd9c85992f0ca96d39" target="_top" xlink:title="Get the csv header string associated with this sensor.">
<polygon fill="white" stroke="#666666" points="239,-315 80,-315 80,-296 239,-296 239,-315"/>
<text text-anchor="middle" x="159.5" y="-303" font-family="Helvetica,sans-Serif" font-size="10.00">Sensor::getSensorCSVHeader</text>
</a>
</g>
</g>
<!-- Node1&#45;&gt;Node4 -->
<g id="edge3_Node000001_Node000004" class="edge">
<title>Node1&#45;&gt;Node4</title>
<g id="a_edge3_Node000001_Node000004"><a xlink:title=" ">
<path fill="none" stroke="#63b8ff" d="M26.06,-204.15C32.64,-223.27 50.01,-265.95 80,-287.5 82.09,-289 84.28,-290.38 86.55,-291.64"/>
<polygon fill="#63b8ff" stroke="#63b8ff" points="85.11,-294.83 95.64,-295.98 88.12,-288.51 85.11,-294.83"/>
</a>
</g>
</g>
<!-- Node5 -->
<g id="Node000005" class="node">
<title>Node5</title>
<g id="a_Node000005"><a xlink:href="classStorage.html#a97174b0ffdac8fcddb79652a46b75268" target="_top" xlink:title="Get the name of the storage device.">
<polygon fill="white" stroke="#666666" points="231,-278 88,-278 88,-259 231,-259 231,-278"/>
<text text-anchor="middle" x="159.5" y="-266" font-family="Helvetica,sans-Serif" font-size="10.00">Storage::getStorageName</text>
</a>
</g>
</g>
<!-- Node1&#45;&gt;Node5 -->
<g id="edge4_Node000001_Node000005" class="edge">
<title>Node1&#45;&gt;Node5</title>
<g id="a_edge4_Node000001_Node000005"><a xlink:title=" ">
<path fill="none" stroke="#63b8ff" d="M29.95,-204.05C39.67,-216.7 58.58,-238.77 80,-250.5 83.32,-252.32 86.82,-253.96 90.42,-255.43"/>
<polygon fill="#63b8ff" stroke="#63b8ff" points="89.54,-258.83 100.14,-258.95 91.93,-252.25 89.54,-258.83"/>
</a>
</g>
</g>
<!-- Node6 -->
<g id="Node000006" class="node">
<title>Node6</title>
<g id="a_Node000006"><a xlink:href="classErrorDisplay.html#a4f9e7e64ffc64711653b539bf3d8d24f" target="_top" xlink:title="Accesses the only instance of ErrorDisplay (Singleton)">
<polygon fill="white" stroke="#666666" points="221,-241 98,-241 98,-222 221,-222 221,-241"/>
<text text-anchor="middle" x="159.5" y="-229" font-family="Helvetica,sans-Serif" font-size="10.00">ErrorDisplay::instance</text>
</a>
</g>
</g>
<!-- Node1&#45;&gt;Node6 -->
<g id="edge5_Node000001_Node000006" class="edge">
<title>Node1&#45;&gt;Node6</title>
<g id="a_edge5_Node000001_Node000006"><a xlink:title=" ">
<path fill="none" stroke="#63b8ff" d="M44.23,-202.12C54.89,-205.8 68.05,-210.15 80,-213.5 87.57,-215.62 95.61,-217.69 103.54,-219.61"/>
<polygon fill="#63b8ff" stroke="#63b8ff" points="102.94,-223.06 113.48,-221.96 104.55,-216.25 102.94,-223.06"/>
</a>
</g>
</g>
<!-- Node7 -->
<g id="Node000007" class="node">
<title>Node7</title>
<g id="a_Node000007"><a xlink:href="classTempSensor.html#af9e28a9976681915dbe9343d2675787b" target="_top" xlink:title=" ">
<polygon fill="white" stroke="#666666" points="238.5,-204 80.5,-204 80.5,-185 238.5,-185 238.5,-204"/>
<text text-anchor="middle" x="159.5" y="-192" font-family="Helvetica,sans-Serif" font-size="10.00">TempSensor::readDataPacket</text>
</a>
</g>
</g>
<!-- Node1&#45;&gt;Node7 -->
<g id="edge6_Node000001_Node000007" class="edge">
<title>Node1&#45;&gt;Node7</title>
<g id="a_edge6_Node000001_Node000007"><a xlink:title=" ">
<path fill="none" stroke="#63b8ff" d="M44.17,-194.5C51.68,-194.5 60.68,-194.5 70.28,-194.5"/>
<polygon fill="#63b8ff" stroke="#63b8ff" points="70.46,-198 80.46,-194.5 70.46,-191 70.46,-198"/>
</a>
</g>
</g>
<!-- Node8 -->
<g id="Node000008" class="node">
<title>Node8</title>
<g id="a_Node000008"><a xlink:href="classFlashStorage.html#a4890571487bb855dd72c050dc37a73f1" target="_top" xlink:title="Store data on flash.">
<polygon fill="white" stroke="#666666" points="215,-167 104,-167 104,-148 215,-148 215,-167"/>
<text text-anchor="middle" x="159.5" y="-155" font-family="Helvetica,sans-Serif" font-size="10.00">FlashStorage::store</text>
</a>
</g>
</g>
<!-- Node1&#45;&gt;Node8 -->
<g id="edge7_Node000001_Node000008" class="edge">
<title>Node1&#45;&gt;Node8</title>
<g id="a_edge7_Node000001_Node000008"><a xlink:title=" ">
<path fill="none" stroke="#63b8ff" d="M44.01,-187.49C54.73,-184.01 68,-179.84 80,-176.5 88.64,-174.09 97.86,-171.7 106.83,-169.47"/>
<polygon fill="#63b8ff" stroke="#63b8ff" points="107.93,-172.81 116.81,-167.03 106.26,-166.01 107.93,-172.81"/>
</a>
</g>
</g>
<!-- Node9 -->
<g id="Node000009" class="node">
<title>Node9</title>
<g id="a_Node000009"><a xlink:href="classErrorDisplay.html#a493bde338b369414abffe90e0d49e93b" target="_top" xlink:title="Toggles the level of the error display.">
<polygon fill="white" stroke="#666666" points="216,-130 103,-130 103,-111 216,-111 216,-130"/>
<text text-anchor="middle" x="159.5" y="-118" font-family="Helvetica,sans-Serif" font-size="10.00">ErrorDisplay::toggle</text>
</a>
</g>
</g>
<!-- Node1&#45;&gt;Node9 -->
<g id="edge8_Node000001_Node000009" class="edge">
<title>Node1&#45;&gt;Node9</title>
<g id="a_edge8_Node000001_Node000009"><a xlink:title=" ">
<path fill="none" stroke="#63b8ff" d="M30.34,-184.73C40.23,-172.29 59.03,-151.02 80,-139.5 84.16,-137.21 88.59,-135.2 93.15,-133.43"/>
<polygon fill="#63b8ff" stroke="#63b8ff" points="94.35,-136.72 102.64,-130.12 92.04,-130.11 94.35,-136.72"/>
</a>
</g>
</g>
<!-- Node10 -->
<g id="Node000010" class="node">
<title>Node10</title>
<g id="a_Node000010"><a xlink:href="classFlashStorage.html#addf2a0a14a0a92ccce2d55eac60282e4" target="_top" xlink:title="Verify flash memory connection and create a new file.">
<polygon fill="white" stroke="#666666" points="216.5,-93 102.5,-93 102.5,-74 216.5,-74 216.5,-93"/>
<text text-anchor="middle" x="159.5" y="-81" font-family="Helvetica,sans-Serif" font-size="10.00">FlashStorage::verify</text>
</a>
</g>
</g>
<!-- Node1&#45;&gt;Node10 -->
<g id="edge9_Node000001_Node000010" class="edge">
<title>Node1&#45;&gt;Node10</title>
<g id="a_edge9_Node000001_Node000010"><a xlink:title=" ">
<path fill="none" stroke="#63b8ff" d="M26.11,-184.98C32.79,-166.12 50.33,-123.99 80,-102.5 83.98,-99.62 88.34,-97.17 92.9,-95.09"/>
<polygon fill="#63b8ff" stroke="#63b8ff" points="94.47,-98.24 102.49,-91.32 91.9,-91.72 94.47,-98.24"/>
</a>
</g>
</g>
<!-- Node12 -->
<g id="Node000012" class="node">
<title>Node12</title>
<g id="a_Node000012"><a xlink:href="main_8cpp.html#aef42a5a8a5d889c599fa964be60eca24" target="_top" xlink:title="Verifies each sensor by calling each verify() function.">
<polygon fill="white" stroke="#666666" points="201,-56 118,-56 118,-37 201,-37 201,-56"/>
<text text-anchor="middle" x="159.5" y="-44" font-family="Helvetica,sans-Serif" font-size="10.00">verifySensors</text>
</a>
</g>
</g>
<!-- Node1&#45;&gt;Node12 -->
<g id="edge11_Node000001_Node000012" class="edge">
<title>Node1&#45;&gt;Node12</title>
<g id="a_edge11_Node000001_Node000012"><a xlink:title=" ">
<path fill="none" stroke="#63b8ff" d="M24.36,-184.66C28.23,-160.43 41.67,-97.53 80,-65.5 87.91,-58.89 97.75,-54.51 107.75,-51.62"/>
<polygon fill="#63b8ff" stroke="#63b8ff" points="108.86,-54.96 117.75,-49.21 107.21,-48.16 108.86,-54.96"/>
</a>
</g>
</g>
<!-- Node14 -->
<g id="Node000014" class="node">
<title>Node14</title>
<g id="a_Node000014"><a xlink:href="main_8cpp.html#a339ac134cdee34bfe9d5f539ab14ba00" target="_top" xlink:title="Verifies the connection with each storage device, and defines the header_condensed field.">
<polygon fill="white" stroke="#666666" points="200.5,-19 118.5,-19 118.5,0 200.5,0 200.5,-19"/>
<text text-anchor="middle" x="159.5" y="-7" font-family="Helvetica,sans-Serif" font-size="10.00">verifyStorage</text>
</a>
</g>
</g>
<!-- Node1&#45;&gt;Node14 -->
<g id="edge13_Node000001_Node000014" class="edge">
<title>Node1&#45;&gt;Node14</title>
<g id="a_edge13_Node000001_Node000014"><a xlink:title=" ">
<path fill="none" stroke="#63b8ff" d="M23.26,-184.93C24.57,-156.49 32.47,-71.79 80,-28.5 87.86,-21.34 97.94,-16.76 108.24,-13.85"/>
<polygon fill="#63b8ff" stroke="#63b8ff" points="109.18,-17.23 118.13,-11.55 107.59,-10.41 109.18,-17.23"/>
</a>
</g>
</g>
<!-- Node11 -->
<g id="Node000011" class="node">
<title>Node11</title>
<g id="a_Node000011"><a xlink:href="classFlashStorage.html#a859b93e00991f74dd5abc09e3065c255" target="_top" xlink:title="Read position from flash.">
<polygon fill="white" stroke="#666666" points="421,-93 275,-93 275,-74 421,-74 421,-93"/>
<text text-anchor="middle" x="348" y="-81" font-family="Helvetica,sans-Serif" font-size="10.00">FlashStorage::loadPosition</text>
</a>
</g>
</g>
<!-- Node10&#45;&gt;Node11 -->
<g id="edge10_Node000010_Node000011" class="edge">
<title>Node10&#45;&gt;Node11</title>
<g id="a_edge10_Node000010_Node000011"><a xlink:title=" ">
<path fill="none" stroke="#63b8ff" d="M216.71,-83.5C231.81,-83.5 248.45,-83.5 264.66,-83.5"/>
<polygon fill="#63b8ff" stroke="#63b8ff" points="264.67,-87 274.67,-83.5 264.67,-80 264.67,-87"/>
</a>
</g>
</g>
<!-- Node13 -->
<g id="Node000013" class="node">
<title>Node13</title>
<g id="a_Node000013"><a xlink:href="classSensor.html#a45975aa760bbab8224775ae5d78da333" target="_top" xlink:title="Verifies if the sensor is connected and working.">
<polygon fill="white" stroke="#666666" points="389.5,-56 306.5,-56 306.5,-37 389.5,-37 389.5,-56"/>
<text text-anchor="middle" x="348" y="-44" font-family="Helvetica,sans-Serif" font-size="10.00">Sensor::verify</text>
</a>
</g>
</g>
<!-- Node12&#45;&gt;Node13 -->
<g id="edge12_Node000012_Node000013" class="edge">
<title>Node12&#45;&gt;Node13</title>
<g id="a_edge12_Node000012_Node000013"><a xlink:title=" ">
<path fill="none" stroke="#63b8ff" d="M201.43,-46.5C229.34,-46.5 266.5,-46.5 296.29,-46.5"/>
<polygon fill="#63b8ff" stroke="#63b8ff" points="296.49,-50 306.49,-46.5 296.49,-43 296.49,-50"/>
</a>
</g>
</g>
<!-- Node15 -->
<g id="Node000015" class="node">
<title>Node15</title>
<g id="a_Node000015"><a xlink:href="classStorage.html#a83fbc910d2fe786ac9134f27a85bda8f" target="_top" xlink:title="Verifies connection with storage device.">
<polygon fill="white" stroke="#666666" points="392,-19 304,-19 304,0 392,0 392,-19"/>
<text text-anchor="middle" x="348" y="-7" font-family="Helvetica,sans-Serif" font-size="10.00">Storage::verify</text>
</a>
</g>
</g>
<!-- Node14&#45;&gt;Node15 -->
<g id="edge14_Node000014_Node000015" class="edge">
<title>Node14&#45;&gt;Node15</title>
<g id="a_edge14_Node000014_Node000015"><a xlink:title=" ">
<path fill="none" stroke="#63b8ff" d="M200.51,-9.5C227.7,-9.5 263.97,-9.5 293.62,-9.5"/>
<polygon fill="#63b8ff" stroke="#63b8ff" points="293.81,-13 303.81,-9.5 293.81,-6 293.81,-13"/>
</a>
</g>
</g>
</g>
</svg>
