<?xml version="1.0" encoding="UTF-8" standalone="no"?>
<!DOCTYPE svg PUBLIC "-//W3C//DTD SVG 1.1//EN"
 "http://www.w3.org/Graphics/SVG/1.1/DTD/svg11.dtd">
<!-- Generated by graphviz version 2.43.0 (0)
 -->
<!-- Title: main.cpp Pages: 1 -->
<svg width="2438pt" height="302pt"
 viewBox="0.00 0.00 2437.50 302.00" xmlns="http://www.w3.org/2000/svg" xmlns:xlink="http://www.w3.org/1999/xlink">
<g id="graph0" class="graph" transform="scale(1 1) rotate(0) translate(4 298)">
<title>main.cpp</title>
<!-- Node1 -->
<g id="Node000001" class="node">
<title>Node1</title>
<g id="a_Node000001"><a xlink:title="Main functions for Core 0, responsible for reading data from sensor peripherals.">
<polygon fill="#999999" stroke="#666666" points="802,-294 740,-294 740,-275 802,-275 802,-294"/>
<text text-anchor="middle" x="771" y="-282" font-family="Helvetica,sans-Serif" font-size="10.00">main.cpp</text>
</a>
</g>
</g>
<!-- Node2 -->
<g id="Node000002" class="node">
<title>Node2</title>
<g id="a_Node000002"><a xlink:title=" ">
<polygon fill="#e0e0e0" stroke="#999999" points="820.5,-19 757.5,-19 757.5,0 820.5,0 820.5,-19"/>
<text text-anchor="middle" x="789" y="-7" font-family="Helvetica,sans-Serif" font-size="10.00">Arduino.h</text>
</a>
</g>
</g>
<!-- Node1&#45;&gt;Node2 -->
<g id="edge1_Node000001_Node000002" class="edge">
<title>Node1&#45;&gt;Node2</title>
<g id="a_edge1_Node000001_Node000002"><a xlink:title=" ">
<path fill="none" stroke="#63b8ff" d="M739.75,-283.67C623.04,-283.95 213.11,-281.82 91,-239 44.46,-222.68 0,-224.82 0,-175.5 0,-175.5 0,-175.5 0,-118.5 0,-42.4 583.58,-17.31 746.95,-11.78"/>
<polygon fill="#63b8ff" stroke="#63b8ff" points="747.21,-15.28 757.09,-11.45 746.98,-8.28 747.21,-15.28"/>
</a>
</g>
</g>
<!-- Node3 -->
<g id="Node000003" class="node">
<title>Node3</title>
<g id="a_Node000003"><a xlink:href="ErrorDisplay_8h.html" target="_top" xlink:title=" ">
<polygon fill="white" stroke="#666666" points="2282,-239 2198,-239 2198,-220 2282,-220 2282,-239"/>
<text text-anchor="middle" x="2240" y="-227" font-family="Helvetica,sans-Serif" font-size="10.00">ErrorDisplay.h</text>
</a>
</g>
</g>
<!-- Node1&#45;&gt;Node3 -->
<g id="edge2_Node000001_Node000003" class="edge">
<title>Node1&#45;&gt;Node3</title>
<g id="a_edge2_Node000001_Node000003"><a xlink:title=" ">
<path fill="none" stroke="#63b8ff" d="M802.02,-282.38C987.7,-275.68 1951.83,-240.9 2187.83,-232.38"/>
<polygon fill="#63b8ff" stroke="#63b8ff" points="2188,-235.88 2197.86,-232.02 2187.74,-228.88 2188,-235.88"/>
</a>
</g>
</g>
<!-- Node4 -->
<g id="Node000004" class="node">
<title>Node4</title>
<g id="a_Node000004"><a xlink:href="PayloadConfig_8h.html" target="_top" xlink:title="Central location for pinout and config defines.">
<polygon fill="white" stroke="#666666" points="1706.5,-184 1611.5,-184 1611.5,-165 1706.5,-165 1706.5,-184"/>
<text text-anchor="middle" x="1659" y="-172" font-family="Helvetica,sans-Serif" font-size="10.00">PayloadConfig.h</text>
</a>
</g>
</g>
<!-- Node1&#45;&gt;Node4 -->
<g id="edge9_Node000001_Node000004" class="edge">
<title>Node1&#45;&gt;Node4</title>
<g id="a_edge9_Node000001_Node000004"><a xlink:title=" ">
<path fill="none" stroke="#63b8ff" d="M802.06,-281.21C877.77,-275.48 1077.83,-259.51 1244,-239 1371.99,-223.2 1521.3,-198.91 1601.32,-185.41"/>
<polygon fill="#63b8ff" stroke="#63b8ff" points="1601.92,-188.86 1611.2,-183.74 1600.75,-181.95 1601.92,-188.86"/>
</a>
</g>
</g>
<!-- Node7 -->
<g id="Node000007" class="node">
<title>Node7</title>
<g id="a_Node000007"><a xlink:href="Logger_8h.html" target="_top" xlink:title=" ">
<polygon fill="white" stroke="#666666" points="721,-74 663,-74 663,-55 721,-55 721,-74"/>
<text text-anchor="middle" x="692" y="-62" font-family="Helvetica,sans-Serif" font-size="10.00">Logger.h</text>
</a>
</g>
</g>
<!-- Node1&#45;&gt;Node7 -->
<g id="edge7_Node000001_Node000007" class="edge">
<title>Node1&#45;&gt;Node7</title>
<g id="a_edge7_Node000001_Node000007"><a xlink:title=" ">
<path fill="none" stroke="#63b8ff" d="M739.65,-282.83C631.54,-280.28 274.86,-269.66 165,-239 113.12,-224.52 85.15,-229.93 57,-184 -7.25,-79.18 504.39,-66.99 652.55,-65.64"/>
<polygon fill="#63b8ff" stroke="#63b8ff" points="653.01,-69.14 662.98,-65.56 652.95,-62.14 653.01,-69.14"/>
</a>
</g>
</g>
<!-- Node8 -->
<g id="Node000008" class="node">
<title>Node8</title>
<g id="a_Node000008"><a xlink:href="Sensor_8h.html" target="_top" xlink:title=" ">
<polygon fill="white" stroke="#666666" points="656,-184 598,-184 598,-165 656,-165 656,-184"/>
<text text-anchor="middle" x="627" y="-172" font-family="Helvetica,sans-Serif" font-size="10.00">Sensor.h</text>
</a>
</g>
</g>
<!-- Node1&#45;&gt;Node8 -->
<g id="edge10_Node000001_Node000008" class="edge">
<title>Node1&#45;&gt;Node8</title>
<g id="a_edge10_Node000001_Node000008"><a xlink:title=" ">
<path fill="none" stroke="#63b8ff" d="M739.65,-275.51C717.47,-268.65 688.06,-256.98 667,-239 652.33,-226.48 641.25,-207.2 634.51,-193.17"/>
<polygon fill="#63b8ff" stroke="#63b8ff" points="637.7,-191.72 630.39,-184.05 631.32,-194.6 637.7,-191.72"/>
</a>
</g>
</g>
<!-- Node10 -->
<g id="Node000010" class="node">
<title>Node10</title>
<g id="a_Node000010"><a xlink:href="AS7331Sensor_8h.html" target="_top" xlink:title=" ">
<polygon fill="white" stroke="#666666" points="383.5,-239 288.5,-239 288.5,-220 383.5,-220 383.5,-239"/>
<text text-anchor="middle" x="336" y="-227" font-family="Helvetica,sans-Serif" font-size="10.00">AS7331Sensor.h</text>
</a>
</g>
</g>
<!-- Node1&#45;&gt;Node10 -->
<g id="edge16_Node000001_Node000010" class="edge">
<title>Node1&#45;&gt;Node10</title>
<g id="a_edge16_Node000001_Node000010"><a xlink:title=" ">
<path fill="none" stroke="#63b8ff" d="M739.6,-280.13C676.34,-273.28 528.81,-256.95 393.69,-239.05"/>
<polygon fill="#63b8ff" stroke="#63b8ff" points="393.94,-235.56 383.57,-237.71 393.02,-242.49 393.94,-235.56"/>
</a>
</g>
</g>
<!-- Node14 -->
<g id="Node000014" class="node">
<title>Node14</title>
<g id="a_Node000014"><a xlink:href="BME280Sensor_8h.html" target="_top" xlink:title=" ">
<polygon fill="white" stroke="#666666" points="500,-239 402,-239 402,-220 500,-220 500,-239"/>
<text text-anchor="middle" x="451" y="-227" font-family="Helvetica,sans-Serif" font-size="10.00">BME280Sensor.h</text>
</a>
</g>
</g>
<!-- Node1&#45;&gt;Node14 -->
<g id="edge21_Node000001_Node000014" class="edge">
<title>Node1&#45;&gt;Node14</title>
<g id="a_edge21_Node000001_Node000014"><a xlink:title=" ">
<path fill="none" stroke="#63b8ff" d="M739.73,-278.32C686.63,-269.53 577.99,-251.53 510.16,-240.3"/>
<polygon fill="#63b8ff" stroke="#63b8ff" points="510.49,-236.8 500.05,-238.62 509.34,-243.71 510.49,-236.8"/>
</a>
</g>
</g>
<!-- Node16 -->
<g id="Node000016" class="node">
<title>Node16</title>
<g id="a_Node000016"><a xlink:href="BME680Sensor_8h.html" target="_top" xlink:title=" ">
<polygon fill="white" stroke="#666666" points="1109,-239 1011,-239 1011,-220 1109,-220 1109,-239"/>
<text text-anchor="middle" x="1060" y="-227" font-family="Helvetica,sans-Serif" font-size="10.00">BME680Sensor.h</text>
</a>
</g>
</g>
<!-- Node1&#45;&gt;Node16 -->
<g id="edge24_Node000001_Node000016" class="edge">
<title>Node1&#45;&gt;Node16</title>
<g id="a_edge24_Node000001_Node000016"><a xlink:title=" ">
<path fill="none" stroke="#63b8ff" d="M802.2,-277.78C850.29,-268.96 943.22,-251.92 1003.39,-240.88"/>
<polygon fill="#63b8ff" stroke="#63b8ff" points="1004.28,-244.28 1013.48,-239.03 1003.02,-237.39 1004.28,-244.28"/>
</a>
</g>
</g>
<!-- Node20 -->
<g id="Node000020" class="node">
<title>Node20</title>
<g id="a_Node000020"><a xlink:href="ENS160Sensor_8h.html" target="_top" xlink:title=" ">
<polygon fill="white" stroke="#666666" points="269.5,-239 174.5,-239 174.5,-220 269.5,-220 269.5,-239"/>
<text text-anchor="middle" x="222" y="-227" font-family="Helvetica,sans-Serif" font-size="10.00">ENS160Sensor.h</text>
</a>
</g>
</g>
<!-- Node1&#45;&gt;Node20 -->
<g id="edge32_Node000001_Node000020" class="edge">
<title>Node1&#45;&gt;Node20</title>
<g id="a_edge32_Node000001_Node000020"><a xlink:title=" ">
<path fill="none" stroke="#63b8ff" d="M739.85,-281.31C663.41,-275.81 460.24,-260.36 279.51,-238.99"/>
<polygon fill="#63b8ff" stroke="#63b8ff" points="279.9,-235.51 269.56,-237.8 279.07,-242.46 279.9,-235.51"/>
</a>
</g>
</g>
<!-- Node22 -->
<g id="Node000022" class="node">
<title>Node22</title>
<g id="a_Node000022"><a xlink:href="ICM20948Sensor_8h.html" target="_top" xlink:title=" ">
<polygon fill="white" stroke="#666666" points="1234.5,-239 1127.5,-239 1127.5,-220 1234.5,-220 1234.5,-239"/>
<text text-anchor="middle" x="1181" y="-227" font-family="Helvetica,sans-Serif" font-size="10.00">ICM20948Sensor.h</text>
</a>
</g>
</g>
<!-- Node1&#45;&gt;Node22 -->
<g id="edge36_Node000001_Node000022" class="edge">
<title>Node1&#45;&gt;Node22</title>
<g id="a_edge36_Node000001_Node000022"><a xlink:title=" ">
<path fill="none" stroke="#63b8ff" d="M802.11,-279.58C861.25,-272.11 994.22,-255.25 1117.4,-239.07"/>
<polygon fill="#63b8ff" stroke="#63b8ff" points="1117.93,-242.53 1127.39,-237.76 1117.02,-235.59 1117.93,-242.53"/>
</a>
</g>
</g>
<!-- Node25 -->
<g id="Node000025" class="node">
<title>Node25</title>
<g id="a_Node000025"><a xlink:href="INA260Sensor_8h.html" target="_top" xlink:title=" ">
<polygon fill="white" stroke="#666666" points="870.5,-239 777.5,-239 777.5,-220 870.5,-220 870.5,-239"/>
<text text-anchor="middle" x="824" y="-227" font-family="Helvetica,sans-Serif" font-size="10.00">INA260Sensor.h</text>
</a>
</g>
</g>
<!-- Node1&#45;&gt;Node25 -->
<g id="edge43_Node000001_Node000025" class="edge">
<title>Node1&#45;&gt;Node25</title>
<g id="a_edge43_Node000001_Node000025"><a xlink:title=" ">
<path fill="none" stroke="#63b8ff" d="M779.75,-274.75C787.47,-267.03 798.9,-255.6 808.22,-246.28"/>
<polygon fill="#63b8ff" stroke="#63b8ff" points="810.81,-248.64 815.41,-239.09 805.86,-243.69 810.81,-248.64"/>
</a>
</g>
</g>
<!-- Node27 -->
<g id="Node000027" class="node">
<title>Node27</title>
<g id="a_Node000027"><a xlink:href="LSM9DS1Sensor_8h.html" target="_top" xlink:title=" ">
<polygon fill="white" stroke="#666666" points="993,-239 889,-239 889,-220 993,-220 993,-239"/>
<text text-anchor="middle" x="941" y="-227" font-family="Helvetica,sans-Serif" font-size="10.00">LSM9DS1Sensor.h</text>
</a>
</g>
</g>
<!-- Node1&#45;&gt;Node27 -->
<g id="edge48_Node000001_Node000027" class="edge">
<title>Node1&#45;&gt;Node27</title>
<g id="a_edge48_Node000001_Node000027"><a xlink:title=" ">
<path fill="none" stroke="#63b8ff" d="M798.31,-274.98C826.85,-266.09 871.83,-252.07 903.64,-242.15"/>
<polygon fill="#63b8ff" stroke="#63b8ff" points="904.97,-245.4 913.47,-239.08 902.88,-238.72 904.97,-245.4"/>
</a>
</g>
</g>
<!-- Node29 -->
<g id="Node000029" class="node">
<title>Node29</title>
<g id="a_Node000029"><a xlink:href="PCF8523Sensor_8h.html" target="_top" xlink:title=" ">
<polygon fill="white" stroke="#666666" points="619.5,-239 518.5,-239 518.5,-220 619.5,-220 619.5,-239"/>
<text text-anchor="middle" x="569" y="-227" font-family="Helvetica,sans-Serif" font-size="10.00">PCF8523Sensor.h</text>
</a>
</g>
</g>
<!-- Node1&#45;&gt;Node29 -->
<g id="edge54_Node000001_Node000029" class="edge">
<title>Node1&#45;&gt;Node29</title>
<g id="a_edge54_Node000001_Node000029"><a xlink:title=" ">
<path fill="none" stroke="#63b8ff" d="M739.88,-275.33C705.44,-266.3 649.74,-251.68 611.35,-241.61"/>
<polygon fill="#63b8ff" stroke="#63b8ff" points="612.06,-238.18 601.49,-239.03 610.28,-244.95 612.06,-238.18"/>
</a>
</g>
</g>
<!-- Node31 -->
<g id="Node000031" class="node">
<title>Node31</title>
<g id="a_Node000031"><a xlink:href="SGP30Sensor_8h.html" target="_top" xlink:title=" ">
<polygon fill="white" stroke="#666666" points="1542.5,-239 1453.5,-239 1453.5,-220 1542.5,-220 1542.5,-239"/>
<text text-anchor="middle" x="1498" y="-227" font-family="Helvetica,sans-Serif" font-size="10.00">SGP30Sensor.h</text>
</a>
</g>
</g>
<!-- Node1&#45;&gt;Node31 -->
<g id="edge57_Node000001_Node000031" class="edge">
<title>Node1&#45;&gt;Node31</title>
<g id="a_edge57_Node000001_Node000031"><a xlink:title=" ">
<path fill="none" stroke="#63b8ff" d="M802.24,-281.22C914.53,-273.04 1298.66,-245.03 1442.78,-234.53"/>
<polygon fill="#63b8ff" stroke="#63b8ff" points="1443.42,-237.99 1453.14,-233.77 1442.91,-231.01 1443.42,-237.99"/>
</a>
</g>
</g>
<!-- Node34 -->
<g id="Node000034" class="node">
<title>Node34</title>
<g id="a_Node000034"><a xlink:href="TempSensor_8h.html" target="_top" xlink:title=" ">
<polygon fill="white" stroke="#666666" points="760,-239 676,-239 676,-220 760,-220 760,-239"/>
<text text-anchor="middle" x="718" y="-227" font-family="Helvetica,sans-Serif" font-size="10.00">TempSensor.h</text>
</a>
</g>
</g>
<!-- Node1&#45;&gt;Node34 -->
<g id="edge63_Node000001_Node000034" class="edge">
<title>Node1&#45;&gt;Node34</title>
<g id="a_edge63_Node000001_Node000034"><a xlink:title=" ">
<path fill="none" stroke="#63b8ff" d="M762.25,-274.75C754.53,-267.03 743.1,-255.6 733.78,-246.28"/>
<polygon fill="#63b8ff" stroke="#63b8ff" points="736.14,-243.69 726.59,-239.09 731.19,-248.64 736.14,-243.69"/>
</a>
</g>
</g>
<!-- Node35 -->
<g id="Node000035" class="node">
<title>Node35</title>
<g id="a_Node000035"><a xlink:href="FlashStorage_8h.html" target="_top" xlink:title=" ">
<polygon fill="white" stroke="#666666" points="1703.5,-239 1614.5,-239 1614.5,-220 1703.5,-220 1703.5,-239"/>
<text text-anchor="middle" x="1659" y="-227" font-family="Helvetica,sans-Serif" font-size="10.00">FlashStorage.h</text>
</a>
</g>
</g>
<!-- Node1&#45;&gt;Node35 -->
<g id="edge65_Node000001_Node000035" class="edge">
<title>Node1&#45;&gt;Node35</title>
<g id="a_edge65_Node000001_Node000035"><a xlink:title=" ">
<path fill="none" stroke="#63b8ff" d="M802.26,-281.97C907.82,-276.75 1260.68,-258.87 1552,-239 1568.94,-237.84 1587.37,-236.44 1604.09,-235.1"/>
<polygon fill="#63b8ff" stroke="#63b8ff" points="1604.56,-238.57 1614.24,-234.28 1604,-231.6 1604.56,-238.57"/>
</a>
</g>
</g>
<!-- Node3&#45;&gt;Node2 -->
<g id="edge3_Node000003_Node000002" class="edge">
<title>Node3&#45;&gt;Node2</title>
<g id="a_edge3_Node000003_Node000002"><a xlink:title=" ">
<path fill="none" stroke="#63b8ff" d="M2254.24,-219.97C2273.36,-207.47 2303.17,-183.66 2287,-165 2061.75,94.91 1863.16,-89.91 1521,-55 1259.34,-28.3 943.3,-15.72 831.04,-11.85"/>
<polygon fill="#63b8ff" stroke="#63b8ff" points="830.94,-8.34 820.82,-11.5 830.7,-15.34 830.94,-8.34"/>
</a>
</g>
</g>
<!-- Node3&#45;&gt;Node4 -->
<g id="edge4_Node000003_Node000004" class="edge">
<title>Node3&#45;&gt;Node4</title>
<g id="a_edge4_Node000003_Node000004"><a xlink:title=" ">
<path fill="none" stroke="#63b8ff" d="M2197.8,-225.83C2110.21,-220.08 1902.13,-205.41 1716.5,-183.98"/>
<polygon fill="#63b8ff" stroke="#63b8ff" points="1716.89,-180.5 1706.56,-182.82 1716.08,-187.45 1716.89,-180.5"/>
</a>
</g>
</g>
<!-- Node5 -->
<g id="Node000005" class="node">
<title>Node5</title>
<g id="a_Node000005"><a xlink:title=" ">
<polygon fill="#e0e0e0" stroke="#999999" points="2429.5,-184 2334.5,-184 2334.5,-165 2429.5,-165 2429.5,-184"/>
<text text-anchor="middle" x="2382" y="-172" font-family="Helvetica,sans-Serif" font-size="10.00">pico/multicore.h</text>
</a>
</g>
</g>
<!-- Node3&#45;&gt;Node5 -->
<g id="edge5_Node000003_Node000005" class="edge">
<title>Node3&#45;&gt;Node5</title>
<g id="a_edge5_Node000003_Node000005"><a xlink:title=" ">
<path fill="none" stroke="#63b8ff" d="M2262.81,-219.98C2286.17,-211.27 2322.7,-197.63 2349.17,-187.75"/>
<polygon fill="#63b8ff" stroke="#63b8ff" points="2350.63,-190.95 2358.77,-184.17 2348.18,-184.39 2350.63,-190.95"/>
</a>
</g>
</g>
<!-- Node6 -->
<g id="Node000006" class="node">
<title>Node6</title>
<g id="a_Node000006"><a xlink:title=" ">
<polygon fill="#e0e0e0" stroke="#999999" points="2278,-184 2202,-184 2202,-165 2278,-165 2278,-184"/>
<text text-anchor="middle" x="2240" y="-172" font-family="Helvetica,sans-Serif" font-size="10.00">pico/stdlib.h</text>
</a>
</g>
</g>
<!-- Node3&#45;&gt;Node6 -->
<g id="edge6_Node000003_Node000006" class="edge">
<title>Node3&#45;&gt;Node6</title>
<g id="a_edge6_Node000003_Node000006"><a xlink:title=" ">
<path fill="none" stroke="#63b8ff" d="M2240,-219.75C2240,-212.8 2240,-202.85 2240,-194.13"/>
<polygon fill="#63b8ff" stroke="#63b8ff" points="2243.5,-194.09 2240,-184.09 2236.5,-194.09 2243.5,-194.09"/>
</a>
</g>
</g>
<!-- Node7&#45;&gt;Node2 -->
<g id="edge8_Node000007_Node000002" class="edge">
<title>Node7&#45;&gt;Node2</title>
<g id="a_edge8_Node000007_Node000002"><a xlink:title=" ">
<path fill="none" stroke="#63b8ff" d="M707.58,-54.98C722.77,-46.69 746.1,-33.94 763.9,-24.22"/>
<polygon fill="#63b8ff" stroke="#63b8ff" points="766.03,-27.04 773.13,-19.17 762.68,-20.89 766.03,-27.04"/>
</a>
</g>
</g>
<!-- Node8&#45;&gt;Node2 -->
<g id="edge11_Node000008_Node000002" class="edge">
<title>Node8&#45;&gt;Node2</title>
<g id="a_edge11_Node000008_Node000002"><a xlink:title=" ">
<path fill="none" stroke="#63b8ff" d="M626.3,-164.76C625.09,-143.18 625.03,-86.84 654,-55 677.77,-28.87 717.16,-18.05 747.27,-13.59"/>
<polygon fill="#63b8ff" stroke="#63b8ff" points="748.03,-17.02 757.5,-12.26 747.13,-10.08 748.03,-17.02"/>
</a>
</g>
</g>
<!-- Node8&#45;&gt;Node7 -->
<g id="edge15_Node000008_Node000007" class="edge">
<title>Node8&#45;&gt;Node7</title>
<g id="a_edge15_Node000008_Node000007"><a xlink:title=" ">
<path fill="none" stroke="#63b8ff" d="M632.32,-164.66C643.04,-146.85 667.4,-106.37 681.46,-83.01"/>
<polygon fill="#63b8ff" stroke="#63b8ff" points="684.63,-84.53 686.79,-74.16 678.63,-80.92 684.63,-84.53"/>
</a>
</g>
</g>
<!-- Node9 -->
<g id="Node000009" class="node">
<title>Node9</title>
<g id="a_Node000009"><a xlink:href="Device_8h.html" target="_top" xlink:title=" ">
<polygon fill="white" stroke="#666666" points="779.5,-129 720.5,-129 720.5,-110 779.5,-110 779.5,-129"/>
<text text-anchor="middle" x="750" y="-117" font-family="Helvetica,sans-Serif" font-size="10.00">Device.h</text>
</a>
</g>
</g>
<!-- Node8&#45;&gt;Node9 -->
<g id="edge12_Node000008_Node000009" class="edge">
<title>Node8&#45;&gt;Node9</title>
<g id="a_edge12_Node000008_Node000009"><a xlink:title=" ">
<path fill="none" stroke="#63b8ff" d="M646.76,-164.98C666.73,-156.38 697.8,-142.99 720.65,-133.15"/>
<polygon fill="#63b8ff" stroke="#63b8ff" points="722.08,-136.34 729.88,-129.17 719.31,-129.91 722.08,-136.34"/>
</a>
</g>
</g>
<!-- Node9&#45;&gt;Node2 -->
<g id="edge13_Node000009_Node000002" class="edge">
<title>Node9&#45;&gt;Node2</title>
<g id="a_edge13_Node000009_Node000002"><a xlink:title=" ">
<path fill="none" stroke="#63b8ff" d="M753.19,-109.66C759.57,-92.01 773.98,-52.09 782.45,-28.64"/>
<polygon fill="#63b8ff" stroke="#63b8ff" points="785.77,-29.75 785.87,-19.16 779.18,-27.38 785.77,-29.75"/>
</a>
</g>
</g>
<!-- Node9&#45;&gt;Node7 -->
<g id="edge14_Node000009_Node000007" class="edge">
<title>Node9&#45;&gt;Node7</title>
<g id="a_edge14_Node000009_Node000007"><a xlink:title=" ">
<path fill="none" stroke="#63b8ff" d="M740.68,-109.98C732.19,-102.23 719.44,-90.58 709.12,-81.14"/>
<polygon fill="#63b8ff" stroke="#63b8ff" points="711.23,-78.33 701.49,-74.17 706.51,-83.5 711.23,-78.33"/>
</a>
</g>
</g>
<!-- Node10&#45;&gt;Node8 -->
<g id="edge20_Node000010_Node000008" class="edge">
<title>Node10&#45;&gt;Node8</title>
<g id="a_edge20_Node000010_Node000008"><a xlink:title=" ">
<path fill="none" stroke="#63b8ff" d="M383.68,-220.78C432.55,-212.73 510.95,-199.39 588.09,-184.11"/>
<polygon fill="#63b8ff" stroke="#63b8ff" points="588.86,-187.52 597.98,-182.13 587.49,-180.66 588.86,-187.52"/>
</a>
</g>
</g>
<!-- Node11 -->
<g id="Node000011" class="node">
<title>Node11</title>
<g id="a_Node000011"><a xlink:title=" ">
<polygon fill="#e0e0e0" stroke="#999999" points="377.5,-184 264.5,-184 264.5,-165 377.5,-165 377.5,-184"/>
<text text-anchor="middle" x="321" y="-172" font-family="Helvetica,sans-Serif" font-size="10.00">SparkFun_AS7331.h</text>
</a>
</g>
</g>
<!-- Node10&#45;&gt;Node11 -->
<g id="edge17_Node000010_Node000011" class="edge">
<title>Node10&#45;&gt;Node11</title>
<g id="a_edge17_Node000010_Node000011"><a xlink:title=" ">
<path fill="none" stroke="#63b8ff" d="M333.52,-219.75C331.54,-212.72 328.68,-202.62 326.19,-193.84"/>
<polygon fill="#63b8ff" stroke="#63b8ff" points="329.52,-192.76 323.43,-184.09 322.79,-194.66 329.52,-192.76"/>
</a>
</g>
</g>
<!-- Node12 -->
<g id="Node000012" class="node">
<title>Node12</title>
<g id="a_Node000012"><a xlink:title=" ">
<polygon fill="#e0e0e0" stroke="#999999" points="246,-184 198,-184 198,-165 246,-165 246,-184"/>
<text text-anchor="middle" x="222" y="-172" font-family="Helvetica,sans-Serif" font-size="10.00">Wire.h</text>
</a>
</g>
</g>
<!-- Node10&#45;&gt;Node12 -->
<g id="edge18_Node000010_Node000012" class="edge">
<title>Node10&#45;&gt;Node12</title>
<g id="a_edge18_Node000010_Node000012"><a xlink:title=" ">
<path fill="none" stroke="#63b8ff" d="M317.68,-219.98C299.34,-211.46 270.89,-198.23 249.77,-188.41"/>
<polygon fill="#63b8ff" stroke="#63b8ff" points="251.19,-185.21 240.65,-184.17 248.24,-191.56 251.19,-185.21"/>
</a>
</g>
</g>
<!-- Node13 -->
<g id="Node000013" class="node">
<title>Node13</title>
<g id="a_Node000013"><a xlink:title=" ">
<polygon fill="#e0e0e0" stroke="#999999" points="1023.5,-184 970.5,-184 970.5,-165 1023.5,-165 1023.5,-184"/>
<text text-anchor="middle" x="997" y="-172" font-family="Helvetica,sans-Serif" font-size="10.00">string.h</text>
</a>
</g>
</g>
<!-- Node10&#45;&gt;Node13 -->
<g id="edge19_Node000010_Node000013" class="edge">
<title>Node10&#45;&gt;Node13</title>
<g id="a_edge19_Node000010_Node000013"><a xlink:title=" ">
<path fill="none" stroke="#63b8ff" d="M383.55,-221.1C386.74,-220.7 389.92,-220.33 393,-220 641.22,-193.67 709.02,-220.47 960.19,-183.82"/>
<polygon fill="#63b8ff" stroke="#63b8ff" points="960.98,-187.24 970.36,-182.32 959.96,-180.32 960.98,-187.24"/>
</a>
</g>
</g>
<!-- Node14&#45;&gt;Node8 -->
<g id="edge22_Node000014_Node000008" class="edge">
<title>Node14&#45;&gt;Node8</title>
<g id="a_edge22_Node000014_Node000008"><a xlink:title=" ">
<path fill="none" stroke="#63b8ff" d="M479.28,-219.98C508.95,-211.05 555.79,-196.94 588.75,-187.02"/>
<polygon fill="#63b8ff" stroke="#63b8ff" points="589.93,-190.32 598.5,-184.08 587.92,-183.61 589.93,-190.32"/>
</a>
</g>
</g>
<!-- Node15 -->
<g id="Node000015" class="node">
<title>Node15</title>
<g id="a_Node000015"><a xlink:title=" ">
<polygon fill="#e0e0e0" stroke="#999999" points="506,-184 396,-184 396,-165 506,-165 506,-184"/>
<text text-anchor="middle" x="451" y="-172" font-family="Helvetica,sans-Serif" font-size="10.00">SparkFunBME280.h</text>
</a>
</g>
</g>
<!-- Node14&#45;&gt;Node15 -->
<g id="edge23_Node000014_Node000015" class="edge">
<title>Node14&#45;&gt;Node15</title>
<g id="a_edge23_Node000014_Node000015"><a xlink:title=" ">
<path fill="none" stroke="#63b8ff" d="M451,-219.75C451,-212.8 451,-202.85 451,-194.13"/>
<polygon fill="#63b8ff" stroke="#63b8ff" points="454.5,-194.09 451,-184.09 447.5,-194.09 454.5,-194.09"/>
</a>
</g>
</g>
<!-- Node16&#45;&gt;Node4 -->
<g id="edge30_Node000016_Node000004" class="edge">
<title>Node16&#45;&gt;Node4</title>
<g id="a_edge30_Node000016_Node000004"><a xlink:title=" ">
<path fill="none" stroke="#63b8ff" d="M1109.22,-221.15C1112.53,-220.74 1115.81,-220.35 1119,-220 1330.19,-196.96 1386.95,-207.86 1601.37,-184.1"/>
<polygon fill="#63b8ff" stroke="#63b8ff" points="1601.83,-187.57 1611.37,-182.98 1601.05,-180.62 1601.83,-187.57"/>
</a>
</g>
</g>
<!-- Node16&#45;&gt;Node8 -->
<g id="edge31_Node000016_Node000008" class="edge">
<title>Node16&#45;&gt;Node8</title>
<g id="a_edge31_Node000016_Node000008"><a xlink:title=" ">
<path fill="none" stroke="#63b8ff" d="M1010.97,-221.18C1007.94,-220.77 1004.93,-220.37 1002,-220 856.21,-201.51 815.97,-207.74 666.34,-183.86"/>
<polygon fill="#63b8ff" stroke="#63b8ff" points="666.75,-180.38 656.32,-182.25 665.64,-187.29 666.75,-180.38"/>
</a>
</g>
</g>
<!-- Node16&#45;&gt;Node12 -->
<g id="edge28_Node000016_Node000012" class="edge">
<title>Node16&#45;&gt;Node12</title>
<g id="a_edge28_Node000016_Node000012"><a xlink:title=" ">
<path fill="none" stroke="#63b8ff" d="M1010.99,-220.98C1007.95,-220.62 1004.94,-220.29 1002,-220 674.56,-188.19 585.47,-232.78 256.34,-183.85"/>
<polygon fill="#63b8ff" stroke="#63b8ff" points="256.44,-180.32 246.03,-182.29 255.4,-187.24 256.44,-180.32"/>
</a>
</g>
</g>
<!-- Node16&#45;&gt;Node13 -->
<g id="edge29_Node000016_Node000013" class="edge">
<title>Node16&#45;&gt;Node13</title>
<g id="a_edge29_Node000016_Node000013"><a xlink:title=" ">
<path fill="none" stroke="#63b8ff" d="M1049.88,-219.98C1040.56,-212.15 1026.53,-200.34 1015.26,-190.86"/>
<polygon fill="#63b8ff" stroke="#63b8ff" points="1017.21,-187.93 1007.31,-184.17 1012.71,-193.29 1017.21,-187.93"/>
</a>
</g>
</g>
<!-- Node17 -->
<g id="Node000017" class="node">
<title>Node17</title>
<g id="a_Node000017"><a xlink:title=" ">
<polygon fill="#e0e0e0" stroke="#999999" points="1272,-184 1162,-184 1162,-165 1272,-165 1272,-184"/>
<text text-anchor="middle" x="1217" y="-172" font-family="Helvetica,sans-Serif" font-size="10.00">Adafruit_BME680.h</text>
</a>
</g>
</g>
<!-- Node16&#45;&gt;Node17 -->
<g id="edge25_Node000016_Node000017" class="edge">
<title>Node16&#45;&gt;Node17</title>
<g id="a_edge25_Node000016_Node000017"><a xlink:title=" ">
<path fill="none" stroke="#63b8ff" d="M1085.22,-219.98C1111.36,-211.16 1152.4,-197.31 1181.73,-187.41"/>
<polygon fill="#63b8ff" stroke="#63b8ff" points="1183.22,-190.6 1191.58,-184.08 1180.98,-183.96 1183.22,-190.6"/>
</a>
</g>
</g>
<!-- Node18 -->
<g id="Node000018" class="node">
<title>Node18</title>
<g id="a_Node000018"><a xlink:title=" ">
<polygon fill="#e0e0e0" stroke="#999999" points="1144,-184 1042,-184 1042,-165 1144,-165 1144,-184"/>
<text text-anchor="middle" x="1093" y="-172" font-family="Helvetica,sans-Serif" font-size="10.00">Adafruit_Sensor.h</text>
</a>
</g>
</g>
<!-- Node16&#45;&gt;Node18 -->
<g id="edge26_Node000016_Node000018" class="edge">
<title>Node16&#45;&gt;Node18</title>
<g id="a_edge26_Node000016_Node000018"><a xlink:title=" ">
<path fill="none" stroke="#63b8ff" d="M1065.45,-219.75C1070.01,-212.42 1076.67,-201.73 1082.29,-192.7"/>
<polygon fill="#63b8ff" stroke="#63b8ff" points="1085.34,-194.43 1087.65,-184.09 1079.4,-190.73 1085.34,-194.43"/>
</a>
</g>
</g>
<!-- Node19 -->
<g id="Node000019" class="node">
<title>Node19</title>
<g id="a_Node000019"><a xlink:title=" ">
<polygon fill="#e0e0e0" stroke="#999999" points="1331.5,-184 1290.5,-184 1290.5,-165 1331.5,-165 1331.5,-184"/>
<text text-anchor="middle" x="1311" y="-172" font-family="Helvetica,sans-Serif" font-size="10.00">SPI.h</text>
</a>
</g>
</g>
<!-- Node16&#45;&gt;Node19 -->
<g id="edge27_Node000016_Node000019" class="edge">
<title>Node16&#45;&gt;Node19</title>
<g id="a_edge27_Node000016_Node000019"><a xlink:title=" ">
<path fill="none" stroke="#63b8ff" d="M1108.09,-219.93C1150.82,-212.06 1215.18,-199.6 1280.36,-183.99"/>
<polygon fill="#63b8ff" stroke="#63b8ff" points="1281.5,-187.32 1290.4,-181.56 1279.86,-180.51 1281.5,-187.32"/>
</a>
</g>
</g>
<!-- Node20&#45;&gt;Node8 -->
<g id="edge34_Node000020_Node000008" class="edge">
<title>Node20&#45;&gt;Node8</title>
<g id="a_edge34_Node000020_Node000008"><a xlink:title=" ">
<path fill="none" stroke="#63b8ff" d="M269.57,-221.29C272.76,-220.84 275.93,-220.41 279,-220 413.28,-202.2 450.51,-206.93 587.56,-184.09"/>
<polygon fill="#63b8ff" stroke="#63b8ff" points="588.32,-187.51 597.6,-182.39 587.16,-180.61 588.32,-187.51"/>
</a>
</g>
</g>
<!-- Node20&#45;&gt;Node12 -->
<g id="edge33_Node000020_Node000012" class="edge">
<title>Node20&#45;&gt;Node12</title>
<g id="a_edge33_Node000020_Node000012"><a xlink:title=" ">
<path fill="none" stroke="#63b8ff" d="M222,-219.75C222,-212.8 222,-202.85 222,-194.13"/>
<polygon fill="#63b8ff" stroke="#63b8ff" points="225.5,-194.09 222,-184.09 218.5,-194.09 225.5,-194.09"/>
</a>
</g>
</g>
<!-- Node21 -->
<g id="Node000021" class="node">
<title>Node21</title>
<g id="a_Node000021"><a xlink:title=" ">
<polygon fill="#e0e0e0" stroke="#999999" points="179.5,-184 66.5,-184 66.5,-165 179.5,-165 179.5,-184"/>
<text text-anchor="middle" x="123" y="-172" font-family="Helvetica,sans-Serif" font-size="10.00">SparkFun_ENS160.h</text>
</a>
</g>
</g>
<!-- Node20&#45;&gt;Node21 -->
<g id="edge35_Node000020_Node000021" class="edge">
<title>Node20&#45;&gt;Node21</title>
<g id="a_edge35_Node000020_Node000021"><a xlink:title=" ">
<path fill="none" stroke="#63b8ff" d="M206.09,-219.98C190.45,-211.61 166.34,-198.7 148.12,-188.95"/>
<polygon fill="#63b8ff" stroke="#63b8ff" points="149.66,-185.8 139.2,-184.17 146.36,-191.98 149.66,-185.8"/>
</a>
</g>
</g>
<!-- Node22&#45;&gt;Node4 -->
<g id="edge41_Node000022_Node000004" class="edge">
<title>Node22&#45;&gt;Node4</title>
<g id="a_edge41_Node000022_Node000004"><a xlink:title=" ">
<path fill="none" stroke="#63b8ff" d="M1234.72,-223.63C1313.02,-216.35 1463.36,-201.71 1601.05,-184.2"/>
<polygon fill="#63b8ff" stroke="#63b8ff" points="1601.89,-187.62 1611.36,-182.88 1601,-180.68 1601.89,-187.62"/>
</a>
</g>
</g>
<!-- Node22&#45;&gt;Node8 -->
<g id="edge42_Node000022_Node000008" class="edge">
<title>Node22&#45;&gt;Node8</title>
<g id="a_edge42_Node000022_Node000008"><a xlink:title=" ">
<path fill="none" stroke="#63b8ff" d="M1127.41,-221.07C1124.23,-220.69 1121.07,-220.33 1118,-220 920.85,-198.87 867.07,-213.05 666.29,-183.8"/>
<polygon fill="#63b8ff" stroke="#63b8ff" points="666.71,-180.33 656.31,-182.33 665.69,-187.25 666.71,-180.33"/>
</a>
</g>
</g>
<!-- Node22&#45;&gt;Node13 -->
<g id="edge40_Node000022_Node000013" class="edge">
<title>Node22&#45;&gt;Node13</title>
<g id="a_edge40_Node000022_Node000013"><a xlink:title=" ">
<path fill="none" stroke="#63b8ff" d="M1151.44,-219.98C1119.26,-210.72 1067.79,-195.89 1033.21,-185.93"/>
<polygon fill="#63b8ff" stroke="#63b8ff" points="1034.08,-182.54 1023.5,-183.13 1032.14,-189.27 1034.08,-182.54"/>
</a>
</g>
</g>
<!-- Node22&#45;&gt;Node18 -->
<g id="edge39_Node000022_Node000018" class="edge">
<title>Node22&#45;&gt;Node18</title>
<g id="a_edge39_Node000022_Node000018"><a xlink:title=" ">
<path fill="none" stroke="#63b8ff" d="M1166.86,-219.98C1153.21,-211.77 1132.31,-199.18 1116.22,-189.49"/>
<polygon fill="#63b8ff" stroke="#63b8ff" points="1117.77,-186.33 1107.4,-184.17 1114.16,-192.33 1117.77,-186.33"/>
</a>
</g>
</g>
<!-- Node23 -->
<g id="Node000023" class="node">
<title>Node23</title>
<g id="a_Node000023"><a xlink:title=" ">
<polygon fill="#e0e0e0" stroke="#999999" points="1468.5,-184 1349.5,-184 1349.5,-165 1468.5,-165 1468.5,-184"/>
<text text-anchor="middle" x="1409" y="-172" font-family="Helvetica,sans-Serif" font-size="10.00">Adafruit_ICM20948.h</text>
</a>
</g>
</g>
<!-- Node22&#45;&gt;Node23 -->
<g id="edge37_Node000022_Node000023" class="edge">
<title>Node22&#45;&gt;Node23</title>
<g id="a_edge37_Node000022_Node000023"><a xlink:title=" ">
<path fill="none" stroke="#63b8ff" d="M1217.63,-219.98C1256.91,-210.86 1319.37,-196.33 1362.19,-186.38"/>
<polygon fill="#63b8ff" stroke="#63b8ff" points="1363.13,-189.76 1372.08,-184.08 1361.55,-182.94 1363.13,-189.76"/>
</a>
</g>
</g>
<!-- Node24 -->
<g id="Node000024" class="node">
<title>Node24</title>
<g id="a_Node000024"><a xlink:title=" ">
<polygon fill="#e0e0e0" stroke="#999999" points="1593.5,-184 1486.5,-184 1486.5,-165 1593.5,-165 1593.5,-184"/>
<text text-anchor="middle" x="1540" y="-172" font-family="Helvetica,sans-Serif" font-size="10.00">Adafruit_ICM20X.h</text>
</a>
</g>
</g>
<!-- Node22&#45;&gt;Node24 -->
<g id="edge38_Node000022_Node000024" class="edge">
<title>Node22&#45;&gt;Node24</title>
<g id="a_edge38_Node000022_Node000024"><a xlink:title=" ">
<path fill="none" stroke="#63b8ff" d="M1234.75,-220.57C1299.31,-211.03 1407.48,-195.06 1476.21,-184.92"/>
<polygon fill="#63b8ff" stroke="#63b8ff" points="1477.09,-188.33 1486.47,-183.4 1476.07,-181.4 1477.09,-188.33"/>
</a>
</g>
</g>
<!-- Node25&#45;&gt;Node2 -->
<g id="edge44_Node000025_Node000002" class="edge">
<title>Node25&#45;&gt;Node2</title>
<g id="a_edge44_Node000025_Node000002"><a xlink:title=" ">
<path fill="none" stroke="#63b8ff" d="M822.63,-219.95C817.48,-187.88 799.23,-74.2 791.99,-29.12"/>
<polygon fill="#63b8ff" stroke="#63b8ff" points="795.44,-28.54 790.4,-19.22 788.53,-29.65 795.44,-28.54"/>
</a>
</g>
</g>
<!-- Node25&#45;&gt;Node8 -->
<g id="edge47_Node000025_Node000008" class="edge">
<title>Node25&#45;&gt;Node8</title>
<g id="a_edge47_Node000025_Node000008"><a xlink:title=" ">
<path fill="none" stroke="#63b8ff" d="M792.35,-219.98C757.95,-210.73 702.96,-195.94 665.94,-185.98"/>
<polygon fill="#63b8ff" stroke="#63b8ff" points="666.57,-182.52 656.01,-183.3 664.75,-189.28 666.57,-182.52"/>
</a>
</g>
</g>
<!-- Node25&#45;&gt;Node13 -->
<g id="edge45_Node000025_Node000013" class="edge">
<title>Node25&#45;&gt;Node13</title>
<g id="a_edge45_Node000025_Node000013"><a xlink:title=" ">
<path fill="none" stroke="#63b8ff" d="M851.8,-219.98C881.4,-210.92 928.37,-196.53 960.84,-186.58"/>
<polygon fill="#63b8ff" stroke="#63b8ff" points="961.87,-189.92 970.41,-183.65 959.82,-183.23 961.87,-189.92"/>
</a>
</g>
</g>
<!-- Node26 -->
<g id="Node000026" class="node">
<title>Node26</title>
<g id="a_Node000026"><a xlink:title=" ">
<polygon fill="#e0e0e0" stroke="#999999" points="779.5,-184 674.5,-184 674.5,-165 779.5,-165 779.5,-184"/>
<text text-anchor="middle" x="727" y="-172" font-family="Helvetica,sans-Serif" font-size="10.00">Adafruit_INA260.h</text>
</a>
</g>
</g>
<!-- Node25&#45;&gt;Node26 -->
<g id="edge46_Node000025_Node000026" class="edge">
<title>Node25&#45;&gt;Node26</title>
<g id="a_edge46_Node000025_Node000026"><a xlink:title=" ">
<path fill="none" stroke="#63b8ff" d="M808.42,-219.98C793.23,-211.69 769.9,-198.94 752.1,-189.22"/>
<polygon fill="#63b8ff" stroke="#63b8ff" points="753.32,-185.89 742.87,-184.17 749.97,-192.04 753.32,-185.89"/>
</a>
</g>
</g>
<!-- Node27&#45;&gt;Node4 -->
<g id="edge52_Node000027_Node000004" class="edge">
<title>Node27&#45;&gt;Node4</title>
<g id="a_edge52_Node000027_Node000004"><a xlink:title=" ">
<path fill="none" stroke="#63b8ff" d="M993.21,-220.95C996.18,-220.61 999.13,-220.29 1002,-220 1265.03,-193.84 1335.19,-211.66 1601.42,-184.07"/>
<polygon fill="#63b8ff" stroke="#63b8ff" points="1601.8,-187.55 1611.38,-183.03 1601.07,-180.59 1601.8,-187.55"/>
</a>
</g>
</g>
<!-- Node27&#45;&gt;Node8 -->
<g id="edge53_Node000027_Node000008" class="edge">
<title>Node27&#45;&gt;Node8</title>
<g id="a_edge53_Node000027_Node000008"><a xlink:title=" ">
<path fill="none" stroke="#63b8ff" d="M888.9,-220.93C835.59,-212.99 750.15,-199.73 666.3,-183.96"/>
<polygon fill="#63b8ff" stroke="#63b8ff" points="666.83,-180.5 656.35,-182.08 665.53,-187.38 666.83,-180.5"/>
</a>
</g>
</g>
<!-- Node27&#45;&gt;Node13 -->
<g id="edge51_Node000027_Node000013" class="edge">
<title>Node27&#45;&gt;Node13</title>
<g id="a_edge51_Node000027_Node000013"><a xlink:title=" ">
<path fill="none" stroke="#63b8ff" d="M950,-219.98C958.19,-212.23 970.51,-200.58 980.47,-191.14"/>
<polygon fill="#63b8ff" stroke="#63b8ff" points="982.98,-193.59 987.84,-184.17 978.17,-188.5 982.98,-193.59"/>
</a>
</g>
</g>
<!-- Node27&#45;&gt;Node18 -->
<g id="edge50_Node000027_Node000018" class="edge">
<title>Node27&#45;&gt;Node18</title>
<g id="a_edge50_Node000027_Node000018"><a xlink:title=" ">
<path fill="none" stroke="#63b8ff" d="M965.42,-219.98C990.72,-211.16 1030.45,-197.31 1058.86,-187.41"/>
<polygon fill="#63b8ff" stroke="#63b8ff" points="1060.1,-190.68 1068.39,-184.08 1057.79,-184.07 1060.1,-190.68"/>
</a>
</g>
</g>
<!-- Node28 -->
<g id="Node000028" class="node">
<title>Node28</title>
<g id="a_Node000028"><a xlink:title=" ">
<polygon fill="#e0e0e0" stroke="#999999" points="952,-184 836,-184 836,-165 952,-165 952,-184"/>
<text text-anchor="middle" x="894" y="-172" font-family="Helvetica,sans-Serif" font-size="10.00">Adafruit_LSM9DS1.h</text>
</a>
</g>
</g>
<!-- Node27&#45;&gt;Node28 -->
<g id="edge49_Node000027_Node000028" class="edge">
<title>Node27&#45;&gt;Node28</title>
<g id="a_edge49_Node000027_Node000028"><a xlink:title=" ">
<path fill="none" stroke="#63b8ff" d="M933.24,-219.75C926.53,-212.18 916.66,-201.05 908.49,-191.84"/>
<polygon fill="#63b8ff" stroke="#63b8ff" points="910.87,-189.25 901.62,-184.09 905.63,-193.89 910.87,-189.25"/>
</a>
</g>
</g>
<!-- Node29&#45;&gt;Node8 -->
<g id="edge56_Node000029_Node000008" class="edge">
<title>Node29&#45;&gt;Node8</title>
<g id="a_edge56_Node000029_Node000008"><a xlink:title=" ">
<path fill="none" stroke="#63b8ff" d="M578.32,-219.98C586.81,-212.23 599.56,-200.58 609.88,-191.14"/>
<polygon fill="#63b8ff" stroke="#63b8ff" points="612.49,-193.5 617.51,-184.17 607.77,-188.33 612.49,-193.5"/>
</a>
</g>
</g>
<!-- Node30 -->
<g id="Node000030" class="node">
<title>Node30</title>
<g id="a_Node000030"><a xlink:title=" ">
<polygon fill="#e0e0e0" stroke="#999999" points="580,-184 524,-184 524,-165 580,-165 580,-184"/>
<text text-anchor="middle" x="552" y="-172" font-family="Helvetica,sans-Serif" font-size="10.00">RTClib.h</text>
</a>
</g>
</g>
<!-- Node29&#45;&gt;Node30 -->
<g id="edge55_Node000029_Node000030" class="edge">
<title>Node29&#45;&gt;Node30</title>
<g id="a_edge55_Node000029_Node000030"><a xlink:title=" ">
<path fill="none" stroke="#63b8ff" d="M566.19,-219.75C563.94,-212.72 560.7,-202.62 557.88,-193.84"/>
<polygon fill="#63b8ff" stroke="#63b8ff" points="561.14,-192.54 554.75,-184.09 554.48,-194.68 561.14,-192.54"/>
</a>
</g>
</g>
<!-- Node31&#45;&gt;Node2 -->
<g id="edge58_Node000031_Node000002" class="edge">
<title>Node31&#45;&gt;Node2</title>
<g id="a_edge58_Node000031_Node000002"><a xlink:title=" ">
<path fill="none" stroke="#63b8ff" d="M1542.73,-224.82C1662.78,-214.91 1983.26,-188.09 1987,-184 1992.69,-177.76 1992.49,-171.42 1987,-165 1909.91,-74.89 1033.71,-23.4 830.78,-12.63"/>
<polygon fill="#63b8ff" stroke="#63b8ff" points="830.71,-9.12 820.54,-12.09 830.34,-16.11 830.71,-9.12"/>
</a>
</g>
</g>
<!-- Node31&#45;&gt;Node8 -->
<g id="edge62_Node000031_Node000008" class="edge">
<title>Node31&#45;&gt;Node8</title>
<g id="a_edge62_Node000031_Node000008"><a xlink:title=" ">
<path fill="none" stroke="#63b8ff" d="M1453.46,-227.07C1306.81,-222.2 839.13,-205.48 666.27,-183.72"/>
<polygon fill="#63b8ff" stroke="#63b8ff" points="666.67,-180.24 656.3,-182.42 665.76,-187.18 666.67,-180.24"/>
</a>
</g>
</g>
<!-- Node31&#45;&gt;Node13 -->
<g id="edge60_Node000031_Node000013" class="edge">
<title>Node31&#45;&gt;Node13</title>
<g id="a_edge60_Node000031_Node000013"><a xlink:title=" ">
<path fill="none" stroke="#63b8ff" d="M1453.17,-226.25C1371.64,-221.71 1193.53,-209.77 1033.67,-183.87"/>
<polygon fill="#63b8ff" stroke="#63b8ff" points="1034.09,-180.39 1023.65,-182.22 1032.95,-187.3 1034.09,-180.39"/>
</a>
</g>
</g>
<!-- Node32 -->
<g id="Node000032" class="node">
<title>Node32</title>
<g id="a_Node000032"><a xlink:title=" ">
<polygon fill="#e0e0e0" stroke="#999999" points="1896.5,-184 1843.5,-184 1843.5,-165 1896.5,-165 1896.5,-184"/>
<text text-anchor="middle" x="1870" y="-172" font-family="Helvetica,sans-Serif" font-size="10.00">stdint.h</text>
</a>
</g>
</g>
<!-- Node31&#45;&gt;Node32 -->
<g id="edge59_Node000031_Node000032" class="edge">
<title>Node31&#45;&gt;Node32</title>
<g id="a_edge59_Node000031_Node000032"><a xlink:title=" ">
<path fill="none" stroke="#63b8ff" d="M1542.67,-224.14C1605.53,-217.67 1723.83,-204.25 1833.41,-184.13"/>
<polygon fill="#63b8ff" stroke="#63b8ff" points="1834.12,-187.56 1843.31,-182.29 1832.84,-180.68 1834.12,-187.56"/>
</a>
</g>
</g>
<!-- Node33 -->
<g id="Node000033" class="node">
<title>Node33</title>
<g id="a_Node000033"><a xlink:title=" ">
<polygon fill="#e0e0e0" stroke="#999999" points="1825.5,-184 1724.5,-184 1724.5,-165 1825.5,-165 1825.5,-184"/>
<text text-anchor="middle" x="1775" y="-172" font-family="Helvetica,sans-Serif" font-size="10.00">Adafruit_SGP30.h</text>
</a>
</g>
</g>
<!-- Node31&#45;&gt;Node33 -->
<g id="edge61_Node000031_Node000033" class="edge">
<title>Node31&#45;&gt;Node33</title>
<g id="a_edge61_Node000031_Node000033"><a xlink:title=" ">
<path fill="none" stroke="#63b8ff" d="M1542.5,-219.98C1590.82,-210.74 1668.04,-195.97 1720.09,-186.01"/>
<polygon fill="#63b8ff" stroke="#63b8ff" points="1720.98,-189.4 1730.15,-184.08 1719.67,-182.52 1720.98,-189.4"/>
</a>
</g>
</g>
<!-- Node34&#45;&gt;Node8 -->
<g id="edge64_Node000034_Node000008" class="edge">
<title>Node34&#45;&gt;Node8</title>
<g id="a_edge64_Node000034_Node000008"><a xlink:title=" ">
<path fill="none" stroke="#63b8ff" d="M703.38,-219.98C689.14,-211.69 667.25,-198.94 650.55,-189.22"/>
<polygon fill="#63b8ff" stroke="#63b8ff" points="652.29,-186.18 641.89,-184.17 648.77,-192.23 652.29,-186.18"/>
</a>
</g>
</g>
<!-- Node35&#45;&gt;Node4 -->
<g id="edge67_Node000035_Node000004" class="edge">
<title>Node35&#45;&gt;Node4</title>
<g id="a_edge67_Node000035_Node000004"><a xlink:title=" ">
<path fill="none" stroke="#63b8ff" d="M1659,-219.75C1659,-212.8 1659,-202.85 1659,-194.13"/>
<polygon fill="#63b8ff" stroke="#63b8ff" points="1662.5,-194.09 1659,-184.09 1655.5,-194.09 1662.5,-194.09"/>
</a>
</g>
</g>
<!-- Node35&#45;&gt;Node19 -->
<g id="edge66_Node000035_Node000019" class="edge">
<title>Node35&#45;&gt;Node19</title>
<g id="a_edge66_Node000035_Node000019"><a xlink:title=" ">
<path fill="none" stroke="#63b8ff" d="M1614.43,-224.21C1554.54,-218.02 1444.69,-205.17 1341.53,-183.82"/>
<polygon fill="#63b8ff" stroke="#63b8ff" points="1342.07,-180.36 1331.56,-181.73 1340.63,-187.21 1342.07,-180.36"/>
</a>
</g>
</g>
<!-- Node36 -->
<g id="Node000036" class="node">
<title>Node36</title>
<g id="a_Node000036"><a xlink:title=" ">
<polygon fill="#e0e0e0" stroke="#999999" points="2184,-184 2034,-184 2034,-165 2184,-165 2184,-184"/>
<text text-anchor="middle" x="2109" y="-172" font-family="Helvetica,sans-Serif" font-size="10.00">SparkFun_SPI_SerialFlash.h</text>
</a>
</g>
</g>
<!-- Node35&#45;&gt;Node36 -->
<g id="edge68_Node000035_Node000036" class="edge">
<title>Node35&#45;&gt;Node36</title>
<g id="a_edge68_Node000035_Node000036"><a xlink:title=" ">
<path fill="none" stroke="#63b8ff" d="M1703.79,-223.22C1778.97,-214.37 1931.62,-196.39 2026.6,-185.21"/>
<polygon fill="#63b8ff" stroke="#63b8ff" points="2027.22,-188.66 2036.74,-184.01 2026.4,-181.7 2027.22,-188.66"/>
</a>
</g>
</g>
<!-- Node37 -->
<g id="Node000037" class="node">
<title>Node37</title>
<g id="a_Node000037"><a xlink:href="Storage_8h.html" target="_top" xlink:title=" ">
<polygon fill="white" stroke="#666666" points="1977.5,-184 1914.5,-184 1914.5,-165 1977.5,-165 1977.5,-184"/>
<text text-anchor="middle" x="1946" y="-172" font-family="Helvetica,sans-Serif" font-size="10.00">Storage.h</text>
</a>
</g>
</g>
<!-- Node35&#45;&gt;Node37 -->
<g id="edge69_Node000035_Node000037" class="edge">
<title>Node35&#45;&gt;Node37</title>
<g id="a_edge69_Node000035_Node000037"><a xlink:title=" ">
<path fill="none" stroke="#63b8ff" d="M1703.7,-220.88C1751.11,-212.7 1828.45,-199.08 1903.98,-184.35"/>
<polygon fill="#63b8ff" stroke="#63b8ff" points="1905,-187.72 1914.14,-182.36 1903.66,-180.85 1905,-187.72"/>
</a>
</g>
</g>
<!-- Node37&#45;&gt;Node2 -->
<g id="edge70_Node000037_Node000002" class="edge">
<title>Node37&#45;&gt;Node2</title>
<g id="a_edge70_Node000037_Node000002"><a xlink:title=" ">
<path fill="none" stroke="#63b8ff" d="M1914.16,-166.52C1911.41,-165.98 1908.66,-165.47 1906,-165 1488.41,-91.85 978.02,-31.9 830.65,-15.16"/>
<polygon fill="#63b8ff" stroke="#63b8ff" points="831,-11.68 820.67,-14.03 830.21,-18.64 831,-11.68"/>
</a>
</g>
</g>
<!-- Node37&#45;&gt;Node7 -->
<g id="edge72_Node000037_Node000007" class="edge">
<title>Node37&#45;&gt;Node7</title>
<g id="a_edge72_Node000037_Node000007"><a xlink:title=" ">
<path fill="none" stroke="#63b8ff" d="M1914.21,-166.21C1911.44,-165.74 1908.68,-165.32 1906,-165 1840.11,-157.07 764.91,-169.05 712,-129 698.34,-118.66 693.79,-99.01 692.39,-84.29"/>
<polygon fill="#63b8ff" stroke="#63b8ff" points="695.88,-84.03 691.82,-74.24 688.89,-84.42 695.88,-84.03"/>
</a>
</g>
</g>
<!-- Node37&#45;&gt;Node9 -->
<g id="edge71_Node000037_Node000009" class="edge">
<title>Node37&#45;&gt;Node9</title>
<g id="a_edge71_Node000037_Node000009"><a xlink:title=" ">
<path fill="none" stroke="#63b8ff" d="M1914.21,-166.23C1911.44,-165.76 1908.68,-165.33 1906,-165 1682.98,-137.22 966.39,-124 789.67,-121.12"/>
<polygon fill="#63b8ff" stroke="#63b8ff" points="789.58,-117.61 779.53,-120.95 789.47,-124.61 789.58,-117.61"/>
</a>
</g>
</g>
</g>
</svg>
