<?xml version="1.0" encoding="UTF-8" standalone="no"?>
<!DOCTYPE svg PUBLIC "-//W3C//DTD SVG 1.1//EN"
 "http://www.w3.org/Graphics/SVG/1.1/DTD/svg11.dtd">
<!-- Generated by graphviz version 2.43.0 (0)
 -->
<!-- Title: setup Pages: 1 -->
<svg width="429pt" height="360pt"
 viewBox="0.00 0.00 429.00 360.00" xmlns="http://www.w3.org/2000/svg" xmlns:xlink="http://www.w3.org/1999/xlink">

<svg id="main" version="1.1" xmlns="http://www.w3.org/2000/svg" xmlns:xlink="http://www.w3.org/1999/xlink" xml:space="preserve" onload="init(evt)">
<style type="text/css"><![CDATA[
.node, .edge {opacity: 0.7;}
.node.selected, .edge.selected {opacity: 1;}
.edge:hover path { stroke: red; }
.edge:hover polygon { stroke: red; fill: red; }
]]></style>
<script type="application/ecmascript" xlink:href="svg.min.js"/>
<svg id="graph" class="graph">
<g id="graph0" class="graph" transform="scale(1 1) rotate(0) translate(4 356)">
<title>setup</title>
<!-- Node1 -->
<g id="Node000001" class="node">
<title>Node1</title>
<g id="a_Node000001"><a xlink:title="Setup for core 0.">
<polygon fill="#999999" stroke="#666666" points="44,-185 0,-185 0,-166 44,-166 44,-185"/>
<text text-anchor="middle" x="22" y="-173" font-family="Helvetica,sans-Serif" font-size="10.00">setup</text>
</a>
</g>
</g>
<!-- Node2 -->
<g id="Node000002" class="node">
<title>Node2</title>
<g id="a_Node000002"><a xlink:href="classErrorDisplay.html#a25018c85cd6b4055a5e796153b997d13" target="_top" xlink:title="Sets the error code to the given value if the given error is of a higher priority then the current er...">
<polygon fill="white" stroke="#666666" points="222,-352 97,-352 97,-333 222,-333 222,-352"/>
<text text-anchor="middle" x="159.5" y="-340" font-family="Helvetica,sans-Serif" font-size="10.00">ErrorDisplay::addCode</text>
</a>
</g>
</g>
<!-- Node1&#45;&gt;Node2 -->
<g id="edge1_Node000001_Node000002" class="edge">
<title>Node1&#45;&gt;Node2</title>
<g id="a_edge1_Node000001_Node000002"><a xlink:title=" ">
<path fill="none" stroke="#63b8ff" d="M23.67,-185.27C26.06,-211.97 36.52,-286.71 80,-324.5 82.4,-326.59 85,-328.45 87.74,-330.1"/>
<polygon fill="#63b8ff" stroke="#63b8ff" points="86.38,-333.34 96.88,-334.72 89.53,-327.09 86.38,-333.34"/>
</a>
</g>
</g>
<!-- Node3 -->
<g id="Node000003" class="node">
<title>Node3</title>
<g id="a_Node000003"><a xlink:href="classDevice.html#abbc7184e7fb286208c3b30357cf53f88" target="_top" xlink:title=" ">
<polygon fill="white" stroke="#666666" points="227,-315 92,-315 92,-296 227,-296 227,-315"/>
<text text-anchor="middle" x="159.5" y="-303" font-family="Helvetica,sans-Serif" font-size="10.00">Device::getDeviceName</text>
</a>
</g>
</g>
<!-- Node1&#45;&gt;Node3 -->
<g id="edge2_Node000001_Node000003" class="edge">
<title>Node1&#45;&gt;Node3</title>
<g id="a_edge2_Node000001_Node000003"><a xlink:title=" ">
<path fill="none" stroke="#63b8ff" d="M24.98,-185.05C30.01,-206.86 45.43,-260.52 80,-287.5 81.61,-288.76 83.3,-289.93 85.04,-291.03"/>
<polygon fill="#63b8ff" stroke="#63b8ff" points="83.7,-294.28 94.18,-295.86 86.97,-288.09 83.7,-294.28"/>
</a>
</g>
</g>
<!-- Node4 -->
<g id="Node000004" class="node">
<title>Node4</title>
<g id="a_Node000004"><a xlink:href="classSensor.html#a7a1b80d366c585dd9c85992f0ca96d39" target="_top" xlink:title="Get the csv header string associated with this sensor.">
<polygon fill="white" stroke="#666666" points="239,-278 80,-278 80,-259 239,-259 239,-278"/>
<text text-anchor="middle" x="159.5" y="-266" font-family="Helvetica,sans-Serif" font-size="10.00">Sensor::getSensorCSVHeader</text>
</a>
</g>
</g>
<!-- Node1&#45;&gt;Node4 -->
<g id="edge3_Node000001_Node000004" class="edge">
<title>Node1&#45;&gt;Node4</title>
<g id="a_edge3_Node000001_Node000004"><a xlink:title=" ">
<path fill="none" stroke="#63b8ff" d="M27.46,-185.03C35.54,-201.19 54.17,-233.83 80,-250.5 82.48,-252.1 85.08,-253.56 87.77,-254.89"/>
<polygon fill="#63b8ff" stroke="#63b8ff" points="86.63,-258.2 97.2,-258.93 89.39,-251.77 86.63,-258.2"/>
</a>
</g>
</g>
<!-- Node5 -->
<g id="Node000005" class="node">
<title>Node5</title>
<g id="a_Node000005"><a xlink:href="classErrorDisplay.html#a4f9e7e64ffc64711653b539bf3d8d24f" target="_top" xlink:title="Accesses the only instance of ErrorDisplay (Singleton)">
<polygon fill="white" stroke="#666666" points="221,-241 98,-241 98,-222 221,-222 221,-241"/>
<text text-anchor="middle" x="159.5" y="-229" font-family="Helvetica,sans-Serif" font-size="10.00">ErrorDisplay::instance</text>
</a>
</g>
</g>
<!-- Node1&#45;&gt;Node5 -->
<g id="edge4_Node000001_Node000005" class="edge">
<title>Node1&#45;&gt;Node5</title>
<g id="a_edge4_Node000001_Node000005"><a xlink:title=" ">
<path fill="none" stroke="#63b8ff" d="M34.5,-185.01C45.52,-193.66 62.96,-206.16 80,-213.5 84.77,-215.56 89.82,-217.39 94.95,-219.04"/>
<polygon fill="#63b8ff" stroke="#63b8ff" points="94.3,-222.49 104.88,-221.95 96.27,-215.78 94.3,-222.49"/>
</a>
</g>
</g>
<!-- Node6 -->
<g id="Node000006" class="node">
<title>Node6</title>
<g id="a_Node000006"><a xlink:href="classDevice.html#af64c14c9b8d2c9001f81c1ce6776a565" target="_top" xlink:title="Set recovery config (used keep default constructor)">
<polygon fill="white" stroke="#666666" points="224.5,-204 94.5,-204 94.5,-185 224.5,-185 224.5,-204"/>
<text text-anchor="middle" x="159.5" y="-192" font-family="Helvetica,sans-Serif" font-size="10.00">Device::recoveryConfig</text>
</a>
</g>
</g>
<!-- Node1&#45;&gt;Node6 -->
<g id="edge5_Node000001_Node000006" class="edge">
<title>Node1&#45;&gt;Node6</title>
<g id="a_edge5_Node000001_Node000006"><a xlink:title=" ">
<path fill="none" stroke="#63b8ff" d="M44.17,-178.47C55.24,-180.02 69.52,-182.02 84.22,-184.08"/>
<polygon fill="#63b8ff" stroke="#63b8ff" points="84.03,-187.59 94.42,-185.51 85,-180.66 84.03,-187.59"/>
</a>
</g>
</g>
<!-- Node9 -->
<g id="Node000009" class="node">
<title>Node9</title>
<g id="a_Node000009"><a xlink:href="classFlashStorage.html#a4890571487bb855dd72c050dc37a73f1" target="_top" xlink:title="Stores a string in flash memory, appending a newline at the end.">
<polygon fill="white" stroke="#666666" points="215,-167 104,-167 104,-148 215,-148 215,-167"/>
<text text-anchor="middle" x="159.5" y="-155" font-family="Helvetica,sans-Serif" font-size="10.00">FlashStorage::store</text>
</a>
</g>
</g>
<!-- Node1&#45;&gt;Node9 -->
<g id="edge8_Node000001_Node000009" class="edge">
<title>Node1&#45;&gt;Node9</title>
<g id="a_edge8_Node000001_Node000009"><a xlink:title=" ">
<path fill="none" stroke="#63b8ff" d="M44.17,-172.69C57.67,-170.89 75.96,-168.46 93.95,-166.08"/>
<polygon fill="#63b8ff" stroke="#63b8ff" points="94.42,-169.54 103.88,-164.76 93.5,-162.6 94.42,-169.54"/>
</a>
</g>
</g>
<!-- Node10 -->
<g id="Node000010" class="node">
<title>Node10</title>
<g id="a_Node000010"><a xlink:href="classErrorDisplay.html#a493bde338b369414abffe90e0d49e93b" target="_top" xlink:title="Toggles the level of the error display.">
<polygon fill="white" stroke="#666666" points="216,-130 103,-130 103,-111 216,-111 216,-130"/>
<text text-anchor="middle" x="159.5" y="-118" font-family="Helvetica,sans-Serif" font-size="10.00">ErrorDisplay::toggle</text>
</a>
</g>
</g>
<!-- Node1&#45;&gt;Node10 -->
<g id="edge9_Node000001_Node000010" class="edge">
<title>Node1&#45;&gt;Node10</title>
<g id="a_edge9_Node000001_Node000010"><a xlink:title=" ">
<path fill="none" stroke="#63b8ff" d="M35.47,-165.94C46.59,-157.83 63.62,-146.43 80,-139.5 85.85,-137.03 92.08,-134.83 98.38,-132.9"/>
<polygon fill="#63b8ff" stroke="#63b8ff" points="99.64,-136.18 108.3,-130.07 97.72,-129.45 99.64,-136.18"/>
</a>
</g>
</g>
<!-- Node11 -->
<g id="Node000011" class="node">
<title>Node11</title>
<g id="a_Node000011"><a xlink:href="classFlashStorage.html#addf2a0a14a0a92ccce2d55eac60282e4" target="_top" xlink:title="Verifies the flash connection and prepares for data storage.">
<polygon fill="white" stroke="#666666" points="216.5,-93 102.5,-93 102.5,-74 216.5,-74 216.5,-93"/>
<text text-anchor="middle" x="159.5" y="-81" font-family="Helvetica,sans-Serif" font-size="10.00">FlashStorage::verify</text>
</a>
</g>
</g>
<!-- Node1&#45;&gt;Node11 -->
<g id="edge10_Node000001_Node000011" class="edge">
<title>Node1&#45;&gt;Node11</title>
<g id="a_edge10_Node000001_Node000011"><a xlink:title=" ">
<path fill="none" stroke="#63b8ff" d="M27.82,-165.75C36.16,-149.9 54.86,-118.71 80,-102.5 83.99,-99.93 88.29,-97.7 92.76,-95.78"/>
<polygon fill="#63b8ff" stroke="#63b8ff" points="94,-99.05 102.12,-92.24 91.53,-92.51 94,-99.05"/>
</a>
</g>
</g>
<!-- Node13 -->
<g id="Node000013" class="node">
<title>Node13</title>
<g id="a_Node000013"><a xlink:href="main_8cpp.html#aa425d367210d5186b9622823077556fb" target="_top" xlink:title="Uses Device abstraction to verify sensors Incompatible with initial header generation.">
<polygon fill="white" stroke="#666666" points="221,-56 98,-56 98,-37 221,-37 221,-56"/>
<text text-anchor="middle" x="159.5" y="-44" font-family="Helvetica,sans-Serif" font-size="10.00">verifySensorRecovery</text>
</a>
</g>
</g>
<!-- Node1&#45;&gt;Node13 -->
<g id="edge12_Node000001_Node000013" class="edge">
<title>Node1&#45;&gt;Node13</title>
<g id="a_edge12_Node000001_Node000013"><a xlink:title=" ">
<path fill="none" stroke="#63b8ff" d="M25.13,-165.82C30.4,-144.25 46.15,-92.05 80,-65.5 82.65,-63.42 85.49,-61.57 88.46,-59.91"/>
<polygon fill="#63b8ff" stroke="#63b8ff" points="90.2,-62.97 97.73,-55.52 87.2,-56.64 90.2,-62.97"/>
</a>
</g>
</g>
<!-- Node14 -->
<g id="Node000014" class="node">
<title>Node14</title>
<g id="a_Node000014"><a xlink:href="main_8cpp.html#aef42a5a8a5d889c599fa964be60eca24" target="_top" xlink:title="Verifies each sensor by calling each verify() function.">
<polygon fill="white" stroke="#666666" points="201,-19 118,-19 118,0 201,0 201,-19"/>
<text text-anchor="middle" x="159.5" y="-7" font-family="Helvetica,sans-Serif" font-size="10.00">verifySensors</text>
</a>
</g>
</g>
<!-- Node1&#45;&gt;Node14 -->
<g id="edge13_Node000001_Node000014" class="edge">
<title>Node1&#45;&gt;Node14</title>
<g id="a_edge13_Node000001_Node000014"><a xlink:title=" ">
<path fill="none" stroke="#63b8ff" d="M23.74,-165.89C26.31,-139.61 37.17,-66.01 80,-28.5 87.91,-21.57 97.93,-17.07 108.14,-14.17"/>
<polygon fill="#63b8ff" stroke="#63b8ff" points="109,-17.56 117.92,-11.85 107.39,-10.75 109,-17.56"/>
</a>
</g>
</g>
<!-- Node7 -->
<g id="Node000007" class="node">
<title>Node7</title>
<g id="a_Node000007"><a xlink:href="classDevice.html#a55cbddb95f3d79876d10e8d5bc85ba5d" target="_top" xlink:title="Set max_attempts.">
<polygon fill="white" stroke="#666666" points="416.5,-222 279.5,-222 279.5,-203 416.5,-203 416.5,-222"/>
<text text-anchor="middle" x="348" y="-210" font-family="Helvetica,sans-Serif" font-size="10.00">Device::setMaxAttempts</text>
</a>
</g>
</g>
<!-- Node6&#45;&gt;Node7 -->
<g id="edge6_Node000006_Node000007" class="edge">
<title>Node6&#45;&gt;Node7</title>
<g id="a_edge6_Node000006_Node000007"><a xlink:title=" ">
<path fill="none" stroke="#63b8ff" d="M224.68,-200.69C238.98,-202.07 254.29,-203.55 269.07,-204.98"/>
<polygon fill="#63b8ff" stroke="#63b8ff" points="268.91,-208.48 279.2,-205.96 269.58,-201.51 268.91,-208.48"/>
</a>
</g>
</g>
<!-- Node8 -->
<g id="Node000008" class="node">
<title>Node8</title>
<g id="a_Node000008"><a xlink:href="classDevice.html#ae71d2f19c89f1ebfcd756c030458f3b5" target="_top" xlink:title="Set wait_factor.">
<polygon fill="white" stroke="#666666" points="409,-185 287,-185 287,-166 409,-166 409,-185"/>
<text text-anchor="middle" x="348" y="-173" font-family="Helvetica,sans-Serif" font-size="10.00">Device::setWaitFactor</text>
</a>
</g>
</g>
<!-- Node6&#45;&gt;Node8 -->
<g id="edge7_Node000006_Node000008" class="edge">
<title>Node6&#45;&gt;Node8</title>
<g id="a_edge7_Node000006_Node000008"><a xlink:title=" ">
<path fill="none" stroke="#63b8ff" d="M224.68,-187.96C241.35,-186.26 259.39,-184.43 276.37,-182.7"/>
<polygon fill="#63b8ff" stroke="#63b8ff" points="277.19,-186.13 286.78,-181.63 276.48,-179.17 277.19,-186.13"/>
</a>
</g>
</g>
<!-- Node12 -->
<g id="Node000012" class="node">
<title>Node12</title>
<g id="a_Node000012"><a xlink:href="classFlashStorage.html#a859b93e00991f74dd5abc09e3065c255" target="_top" xlink:title="Locates the next available write position in flash.">
<polygon fill="white" stroke="#666666" points="421,-93 275,-93 275,-74 421,-74 421,-93"/>
<text text-anchor="middle" x="348" y="-81" font-family="Helvetica,sans-Serif" font-size="10.00">FlashStorage::loadPosition</text>
</a>
</g>
</g>
<!-- Node11&#45;&gt;Node12 -->
<g id="edge11_Node000011_Node000012" class="edge">
<title>Node11&#45;&gt;Node12</title>
<g id="a_edge11_Node000011_Node000012"><a xlink:title=" ">
<path fill="none" stroke="#63b8ff" d="M216.71,-83.5C231.81,-83.5 248.45,-83.5 264.66,-83.5"/>
<polygon fill="#63b8ff" stroke="#63b8ff" points="264.67,-87 274.67,-83.5 264.67,-80 264.67,-87"/>
</a>
</g>
</g>
<!-- Node15 -->
<g id="Node000015" class="node">
<title>Node15</title>
<g id="a_Node000015"><a xlink:href="classSensor.html#a45975aa760bbab8224775ae5d78da333" target="_top" xlink:title="Verifies if the sensor is connected and working.">
<polygon fill="white" stroke="#666666" points="389.5,-19 306.5,-19 306.5,0 389.5,0 389.5,-19"/>
<text text-anchor="middle" x="348" y="-7" font-family="Helvetica,sans-Serif" font-size="10.00">Sensor::verify</text>
</a>
</g>
</g>
<!-- Node14&#45;&gt;Node15 -->
<g id="edge14_Node000014_Node000015" class="edge">
<title>Node14&#45;&gt;Node15</title>
<g id="a_edge14_Node000014_Node000015"><a xlink:title=" ">
<path fill="none" stroke="#63b8ff" d="M201.43,-9.5C229.34,-9.5 266.5,-9.5 296.29,-9.5"/>
<polygon fill="#63b8ff" stroke="#63b8ff" points="296.49,-13 306.49,-9.5 296.49,-6 296.49,-13"/>
</a>
</g>
</g>
</g>
</svg>
</svg>

<style type='text/css'>
<![CDATA[
[data-mouse-over-selected='false'] { opacity: 0.7; }
[data-mouse-over-selected='true']  { opacity: 1.0; }
]]>
</style>
<script type="application/ecmascript"><![CDATA[
document.addEventListener('DOMContentLoaded', (event) => {
  highlightEdges();
  highlightAdjacentNodes();
});
]]></script>
</svg>
