<?xml version="1.0" encoding="UTF-8" standalone="no"?>
<!DOCTYPE svg PUBLIC "-//W3C//DTD SVG 1.1//EN"
 "http://www.w3.org/Graphics/SVG/1.1/DTD/svg11.dtd">
<!-- Generated by graphviz version 2.43.0 (0)
 -->
<!-- Title: main.cpp Pages: 1 -->
<!--zoomable 319 -->
<svg id="main" version="1.1" xmlns="http://www.w3.org/2000/svg" xmlns:xlink="http://www.w3.org/1999/xlink" xml:space="preserve" onload="init(evt)">
<style type="text/css"><![CDATA[
.edge:hover path { stroke: red; }
.edge:hover polygon { stroke: red; fill: red; }
]]></style>
<script type="text/javascript"><![CDATA[
var edges = document.getElementsByTagName('g');
if (edges && edges.length) {
  for (var i=0;i<edges.length;i++) {
    if (edges[i].id.substr(0,4)=='edge') {
      edges[i].setAttribute('class','edge');
    }
  }
}
]]></script>
        <defs>
                <circle id="rim" cx="0" cy="0" r="7"/>
                <circle id="rim2" cx="0" cy="0" r="3.5"/>
                <g id="zoomPlus">
                        <use xlink:href="#rim" fill="#404040">
                                <set attributeName="fill" to="#808080" begin="zoomplus.mouseover" end="zoomplus.mouseout"/>
                        </use>
                        <path d="M-4,0h8M0,-4v8" fill="none" stroke="white" stroke-width="1.5" pointer-events="none"/>
                </g>
                <g id="zoomMin">
                        <use xlink:href="#rim" fill="#404040">
                                <set attributeName="fill" to="#808080" begin="zoomminus.mouseover" end="zoomminus.mouseout"/>
                        </use>
                        <path d="M-4,0h8" fill="none" stroke="white" stroke-width="1.5" pointer-events="none"/>
                </g>
                <g id="dirArrow">
                        <path fill="none" stroke="white" stroke-width="1.5" d="M0,-3.0v7 M-2.5,-0.5L0,-3.0L2.5,-0.5"/>
                </g>
               <g id="resetDef">
                       <use xlink:href="#rim2" fill="#404040">
                               <set attributeName="fill" to="#808080" begin="reset.mouseover" end="reset.mouseout"/>
                       </use>
               </g>
        </defs>

<script type="text/javascript">
var viewWidth = 2745;
var viewHeight = 319;
var sectionId = 'dynsection-0';
</script>
<script xlink:href="svgpan.js"/>
<svg id="graph" class="graph">
<g id="viewport">
<title>main.cpp</title>
<!-- Node1 -->
<g id="node1" class="node">
<title>Node1</title>
<g id="a_node1"><a xlink:title="Main functions for Core 0, responsible for reading data from sensor peripherals.">
<polygon fill="#bfbfbf" stroke="black" points="1059,-291.5 1059,-310.5 1121,-310.5 1121,-291.5 1059,-291.5"/>
<text text-anchor="middle" x="1090" y="-298.5" font-family="Helvetica,sans-Serif" font-size="10.00">main.cpp</text>
</a>
</g>
</g>
<!-- Node2 -->
<g id="node2" class="node">
<title>Node2</title>
<g id="a_node2"><a xlink:title=" ">
<polygon fill="none" stroke="#bfbfbf" points="985.5,-0.5 985.5,-19.5 1048.5,-19.5 1048.5,-0.5 985.5,-0.5"/>
<text text-anchor="middle" x="1017" y="-7.5" font-family="Helvetica,sans-Serif" font-size="10.00">Arduino.h</text>
</a>
</g>
</g>
<!-- Node1&#45;&gt;Node2 -->
<g id="edge1" class="edge">
<title>Node1&#45;&gt;Node2</title>
<path fill="none" stroke="midnightblue" d="M1058.84,-300.05C880.79,-299.96 0,-293.98 0,-184.5 0,-184.5 0,-184.5 0,-121 0,-21.21 783.87,-11.85 975.24,-11.06"/>
<polygon fill="midnightblue" stroke="midnightblue" points="975.46,-14.56 985.45,-11.02 975.44,-7.56 975.46,-14.56"/>
</g>
<!-- Node3 -->
<g id="node3" class="node">
<title>Node3</title>
<g id="a_node3"><a xlink:href="ErrorDisplay_8h.html" target="_top" xlink:title=" ">
<polygon fill="none" stroke="black" points="2505,-235.5 2505,-254.5 2589,-254.5 2589,-235.5 2505,-235.5"/>
<text text-anchor="middle" x="2547" y="-242.5" font-family="Helvetica,sans-Serif" font-size="10.00">ErrorDisplay.h</text>
</a>
</g>
</g>
<!-- Node1&#45;&gt;Node3 -->
<g id="edge2" class="edge">
<title>Node1&#45;&gt;Node3</title>
<path fill="none" stroke="midnightblue" d="M1121.07,-298.92C1260.98,-294.05 1846.52,-273.57 2327,-255 2384.41,-252.78 2450.24,-250.07 2494.81,-248.2"/>
<polygon fill="midnightblue" stroke="midnightblue" points="2494.98,-251.7 2504.83,-247.78 2494.69,-244.7 2494.98,-251.7"/>
</g>
<!-- Node4 -->
<g id="node4" class="node">
<title>Node4</title>
<g id="a_node4"><a xlink:href="PayloadConfig_8h.html" target="_top" xlink:title="Central location for pinout and config defines.">
<polygon fill="none" stroke="black" points="2022,-174 2022,-193 2118,-193 2118,-174 2022,-174"/>
<text text-anchor="middle" x="2070" y="-181" font-family="Helvetica,sans-Serif" font-size="10.00">PayloadConfig.h</text>
</a>
</g>
</g>
<!-- Node1&#45;&gt;Node4 -->
<g id="edge9" class="edge">
<title>Node1&#45;&gt;Node4</title>
<path fill="none" stroke="midnightblue" d="M1121.29,-299.5C1269.31,-297.01 1895.33,-284.78 1977,-255 2008.41,-243.55 2037.96,-217.57 2055.01,-200.55"/>
<polygon fill="midnightblue" stroke="midnightblue" points="2057.87,-202.63 2062.32,-193.02 2052.84,-197.75 2057.87,-202.63"/>
</g>
<!-- Node7 -->
<g id="node7" class="node">
<title>Node7</title>
<g id="a_node7"><a xlink:href="Logger_8h.html" target="_top" xlink:title=" ">
<polygon fill="none" stroke="black" points="1064.5,-56.5 1064.5,-75.5 1123.5,-75.5 1123.5,-56.5 1064.5,-56.5"/>
<text text-anchor="middle" x="1094" y="-63.5" font-family="Helvetica,sans-Serif" font-size="10.00">Logger.h</text>
</a>
</g>
</g>
<!-- Node1&#45;&gt;Node7 -->
<g id="edge7" class="edge">
<title>Node1&#45;&gt;Node7</title>
<path fill="none" stroke="midnightblue" d="M1121.44,-298.13C1255.46,-289.85 1774.3,-254.36 1819,-199 1908.17,-88.58 1298.16,-70.41 1133.96,-67.52"/>
<polygon fill="midnightblue" stroke="midnightblue" points="1133.86,-64.02 1123.8,-67.36 1133.74,-71.02 1133.86,-64.02"/>
</g>
<!-- Node8 -->
<g id="node8" class="node">
<title>Node8</title>
<g id="a_node8"><a xlink:href="Sensor_8h.html" target="_top" xlink:title=" ">
<polygon fill="none" stroke="black" points="968.5,-174 968.5,-193 1027.5,-193 1027.5,-174 968.5,-174"/>
<text text-anchor="middle" x="998" y="-181" font-family="Helvetica,sans-Serif" font-size="10.00">Sensor.h</text>
</a>
</g>
</g>
<!-- Node1&#45;&gt;Node8 -->
<g id="edge10" class="edge">
<title>Node1&#45;&gt;Node8</title>
<path fill="none" stroke="midnightblue" d="M1058.76,-296.19C1033.59,-291.3 999.73,-280.18 983,-255 972.44,-239.1 979.79,-217.11 987.46,-201.93"/>
<polygon fill="midnightblue" stroke="midnightblue" points="990.58,-203.53 992.36,-193.08 984.46,-200.14 990.58,-203.53"/>
</g>
<!-- Node10 -->
<g id="node10" class="node">
<title>Node10</title>
<g id="a_node10"><a xlink:href="AS7331Sensor_8h.html" target="_top" xlink:title=" ">
<polygon fill="none" stroke="black" points="718.5,-235.5 718.5,-254.5 813.5,-254.5 813.5,-235.5 718.5,-235.5"/>
<text text-anchor="middle" x="766" y="-242.5" font-family="Helvetica,sans-Serif" font-size="10.00">AS7331Sensor.h</text>
</a>
</g>
</g>
<!-- Node1&#45;&gt;Node10 -->
<g id="edge16" class="edge">
<title>Node1&#45;&gt;Node10</title>
<path fill="none" stroke="midnightblue" d="M1058.93,-294.82C1004.85,-285.81 892.61,-267.1 823.84,-255.64"/>
<polygon fill="midnightblue" stroke="midnightblue" points="824.05,-252.13 813.61,-253.93 822.9,-259.03 824.05,-252.13"/>
</g>
<!-- Node14 -->
<g id="node14" class="node">
<title>Node14</title>
<g id="a_node14"><a xlink:href="BMP390Sensor_8h.html" target="_top" xlink:title=" ">
<polygon fill="none" stroke="black" points="486,-235.5 486,-254.5 584,-254.5 584,-235.5 486,-235.5"/>
<text text-anchor="middle" x="535" y="-242.5" font-family="Helvetica,sans-Serif" font-size="10.00">BMP390Sensor.h</text>
</a>
</g>
</g>
<!-- Node1&#45;&gt;Node14 -->
<g id="edge21" class="edge">
<title>Node1&#45;&gt;Node14</title>
<path fill="none" stroke="midnightblue" d="M1058.81,-297.87C981.8,-292.46 776.25,-277.12 594.05,-255.06"/>
<polygon fill="midnightblue" stroke="midnightblue" points="594.37,-251.57 584.02,-253.83 593.52,-258.52 594.37,-251.57"/>
</g>
<!-- Node16 -->
<g id="node16" class="node">
<title>Node16</title>
<g id="a_node16"><a xlink:href="ENS160Sensor_8h.html" target="_top" xlink:title=" ">
<polygon fill="none" stroke="black" points="260,-235.5 260,-254.5 356,-254.5 356,-235.5 260,-235.5"/>
<text text-anchor="middle" x="308" y="-242.5" font-family="Helvetica,sans-Serif" font-size="10.00">ENS160Sensor.h</text>
</a>
</g>
</g>
<!-- Node1&#45;&gt;Node16 -->
<g id="edge24" class="edge">
<title>Node1&#45;&gt;Node16</title>
<path fill="none" stroke="midnightblue" d="M1058.82,-299.12C959.35,-296.09 640.55,-284.65 366.31,-255.04"/>
<polygon fill="midnightblue" stroke="midnightblue" points="366.48,-251.54 356.16,-253.93 365.72,-258.5 366.48,-251.54"/>
</g>
<!-- Node18 -->
<g id="node18" class="node">
<title>Node18</title>
<g id="a_node18"><a xlink:href="ICM20948Sensor_8h.html" target="_top" xlink:title=" ">
<polygon fill="none" stroke="black" points="1442.5,-235.5 1442.5,-254.5 1549.5,-254.5 1549.5,-235.5 1442.5,-235.5"/>
<text text-anchor="middle" x="1496" y="-242.5" font-family="Helvetica,sans-Serif" font-size="10.00">ICM20948Sensor.h</text>
</a>
</g>
</g>
<!-- Node1&#45;&gt;Node18 -->
<g id="edge28" class="edge">
<title>Node1&#45;&gt;Node18</title>
<path fill="none" stroke="midnightblue" d="M1121.18,-295.85C1187.54,-287.03 1343.85,-266.24 1432.23,-254.48"/>
<polygon fill="midnightblue" stroke="midnightblue" points="1432.95,-257.92 1442.4,-253.13 1432.03,-250.98 1432.95,-257.92"/>
</g>
<!-- Node22 -->
<g id="node22" class="node">
<title>Node22</title>
<g id="a_node22"><a xlink:href="INA260Sensor_8h.html" target="_top" xlink:title=" ">
<polygon fill="none" stroke="black" points="374,-235.5 374,-254.5 468,-254.5 468,-235.5 374,-235.5"/>
<text text-anchor="middle" x="421" y="-242.5" font-family="Helvetica,sans-Serif" font-size="10.00">INA260Sensor.h</text>
</a>
</g>
</g>
<!-- Node1&#45;&gt;Node22 -->
<g id="edge35" class="edge">
<title>Node1&#45;&gt;Node22</title>
<path fill="none" stroke="midnightblue" d="M1058.97,-298.67C970.16,-294.65 707.17,-281.37 478.2,-255.04"/>
<polygon fill="midnightblue" stroke="midnightblue" points="478.35,-251.53 468.01,-253.86 477.54,-258.49 478.35,-251.53"/>
</g>
<!-- Node24 -->
<g id="node24" class="node">
<title>Node24</title>
<g id="a_node24"><a xlink:href="MTK3339Sensor_8h.html" target="_top" xlink:title=" ">
<polygon fill="none" stroke="black" points="832,-235.5 832,-254.5 936,-254.5 936,-235.5 832,-235.5"/>
<text text-anchor="middle" x="884" y="-242.5" font-family="Helvetica,sans-Serif" font-size="10.00">MTK3339Sensor.h</text>
</a>
</g>
</g>
<!-- Node1&#45;&gt;Node24 -->
<g id="edge40" class="edge">
<title>Node1&#45;&gt;Node24</title>
<path fill="none" stroke="midnightblue" d="M1058.71,-291.8C1023.41,-282.54 965.78,-267.44 926.44,-257.12"/>
<polygon fill="midnightblue" stroke="midnightblue" points="927.16,-253.7 916.6,-254.55 925.39,-260.47 927.16,-253.7"/>
</g>
<!-- Node26 -->
<g id="node26" class="node">
<title>Node26</title>
<g id="a_node26"><a xlink:href="OzoneSensor_8h.html" target="_top" xlink:title=" ">
<polygon fill="none" stroke="black" points="1878.5,-235.5 1878.5,-254.5 1967.5,-254.5 1967.5,-235.5 1878.5,-235.5"/>
<text text-anchor="middle" x="1923" y="-242.5" font-family="Helvetica,sans-Serif" font-size="10.00">OzoneSensor.h</text>
</a>
</g>
</g>
<!-- Node1&#45;&gt;Node26 -->
<g id="edge46" class="edge">
<title>Node1&#45;&gt;Node26</title>
<path fill="none" stroke="midnightblue" d="M1121.27,-298.91C1225.26,-295.11 1568.96,-281.27 1852,-255 1857.2,-254.52 1862.61,-253.95 1868.02,-253.34"/>
<polygon fill="midnightblue" stroke="midnightblue" points="1868.84,-256.77 1878.36,-252.12 1868.02,-249.82 1868.84,-256.77"/>
</g>
<!-- Node28 -->
<g id="node28" class="node">
<title>Node28</title>
<g id="a_node28"><a xlink:href="PCF8523Sensor_8h.html" target="_top" xlink:title=" ">
<polygon fill="none" stroke="black" points="1095.5,-235.5 1095.5,-254.5 1196.5,-254.5 1196.5,-235.5 1095.5,-235.5"/>
<text text-anchor="middle" x="1146" y="-242.5" font-family="Helvetica,sans-Serif" font-size="10.00">PCF8523Sensor.h</text>
</a>
</g>
</g>
<!-- Node1&#45;&gt;Node28 -->
<g id="edge50" class="edge">
<title>Node1&#45;&gt;Node28</title>
<path fill="none" stroke="midnightblue" d="M1099,-291.32C1107.19,-283.42 1119.51,-271.55 1129.47,-261.94"/>
<polygon fill="midnightblue" stroke="midnightblue" points="1132.07,-264.29 1136.84,-254.83 1127.21,-259.26 1132.07,-264.29"/>
</g>
<!-- Node30 -->
<g id="node30" class="node">
<title>Node30</title>
<g id="a_node30"><a xlink:href="SCD40Sensor_8h.html" target="_top" xlink:title=" ">
<polygon fill="none" stroke="black" points="1323.5,-235.5 1323.5,-254.5 1414.5,-254.5 1414.5,-235.5 1323.5,-235.5"/>
<text text-anchor="middle" x="1369" y="-242.5" font-family="Helvetica,sans-Serif" font-size="10.00">SCD40Sensor.h</text>
</a>
</g>
</g>
<!-- Node1&#45;&gt;Node30 -->
<g id="edge53" class="edge">
<title>Node1&#45;&gt;Node30</title>
<path fill="none" stroke="midnightblue" d="M1121.19,-293.96C1168.01,-284.9 1257.08,-267.66 1314.71,-256.51"/>
<polygon fill="midnightblue" stroke="midnightblue" points="1315.58,-259.9 1324.73,-254.57 1314.25,-253.03 1315.58,-259.9"/>
</g>
<!-- Node32 -->
<g id="node32" class="node">
<title>Node32</title>
<g id="a_node32"><a xlink:href="SHTC3Sensor_8h.html" target="_top" xlink:title=" ">
<polygon fill="none" stroke="black" points="1214.5,-235.5 1214.5,-254.5 1305.5,-254.5 1305.5,-235.5 1214.5,-235.5"/>
<text text-anchor="middle" x="1260" y="-242.5" font-family="Helvetica,sans-Serif" font-size="10.00">SHTC3Sensor.h</text>
</a>
</g>
</g>
<!-- Node1&#45;&gt;Node32 -->
<g id="edge60" class="edge">
<title>Node1&#45;&gt;Node32</title>
<path fill="none" stroke="midnightblue" d="M1116.94,-291.44C1145.66,-282.32 1191.33,-267.81 1223.32,-257.65"/>
<polygon fill="midnightblue" stroke="midnightblue" points="1224.72,-260.88 1233.19,-254.52 1222.6,-254.21 1224.72,-260.88"/>
</g>
<!-- Node34 -->
<g id="node34" class="node">
<title>Node34</title>
<g id="a_node34"><a xlink:href="TMP117Sensor_8h.html" target="_top" xlink:title=" ">
<polygon fill="none" stroke="black" points="602,-235.5 602,-254.5 700,-254.5 700,-235.5 602,-235.5"/>
<text text-anchor="middle" x="651" y="-242.5" font-family="Helvetica,sans-Serif" font-size="10.00">TMP117Sensor.h</text>
</a>
</g>
</g>
<!-- Node1&#45;&gt;Node34 -->
<g id="edge63" class="edge">
<title>Node1&#45;&gt;Node34</title>
<path fill="none" stroke="midnightblue" d="M1058.84,-296.71C995.34,-289.92 846.19,-273.54 710.21,-255.12"/>
<polygon fill="midnightblue" stroke="midnightblue" points="710.41,-251.62 700.03,-253.74 709.47,-258.55 710.41,-251.62"/>
</g>
<!-- Node36 -->
<g id="node36" class="node">
<title>Node36</title>
<g id="a_node36"><a xlink:href="TempSensor_8h.html" target="_top" xlink:title=" ">
<polygon fill="none" stroke="black" points="992.5,-235.5 992.5,-254.5 1077.5,-254.5 1077.5,-235.5 992.5,-235.5"/>
<text text-anchor="middle" x="1035" y="-242.5" font-family="Helvetica,sans-Serif" font-size="10.00">TempSensor.h</text>
</a>
</g>
</g>
<!-- Node1&#45;&gt;Node36 -->
<g id="edge67" class="edge">
<title>Node1&#45;&gt;Node36</title>
<path fill="none" stroke="midnightblue" d="M1080.92,-291.08C1072.83,-283.14 1060.8,-271.34 1051.09,-261.8"/>
<polygon fill="midnightblue" stroke="midnightblue" points="1053.5,-259.26 1043.91,-254.75 1048.6,-264.25 1053.5,-259.26"/>
</g>
<!-- Node37 -->
<g id="node37" class="node">
<title>Node37</title>
<g id="a_node37"><a xlink:href="FlashStorage_8h.html" target="_top" xlink:title=" ">
<polygon fill="none" stroke="black" points="2228.5,-235.5 2228.5,-254.5 2317.5,-254.5 2317.5,-235.5 2228.5,-235.5"/>
<text text-anchor="middle" x="2273" y="-242.5" font-family="Helvetica,sans-Serif" font-size="10.00">FlashStorage.h</text>
</a>
</g>
</g>
<!-- Node1&#45;&gt;Node37 -->
<g id="edge69" class="edge">
<title>Node1&#45;&gt;Node37</title>
<path fill="none" stroke="midnightblue" d="M1121.03,-298.58C1280.84,-291.29 2011.4,-257.94 2218.27,-248.5"/>
<polygon fill="midnightblue" stroke="midnightblue" points="2218.46,-251.99 2228.29,-248.04 2218.14,-245 2218.46,-251.99"/>
</g>
<!-- Node3&#45;&gt;Node2 -->
<g id="edge3" class="edge">
<title>Node3&#45;&gt;Node2</title>
<path fill="none" stroke="midnightblue" d="M2559.29,-235.37C2578.96,-220.56 2613.4,-189.78 2594,-168 2450.73,-7.1 1845.48,-76.32 1631,-56 1416.17,-35.64 1158.31,-19.41 1058.9,-13.45"/>
<polygon fill="midnightblue" stroke="midnightblue" points="1058.86,-9.94 1048.67,-12.84 1058.45,-16.93 1058.86,-9.94"/>
</g>
<!-- Node3&#45;&gt;Node4 -->
<g id="edge4" class="edge">
<title>Node3&#45;&gt;Node4</title>
<path fill="none" stroke="midnightblue" d="M2504.99,-241.49C2429.06,-236.5 2264.14,-223.66 2127,-199 2121.54,-198.02 2115.82,-196.8 2110.21,-195.49"/>
<polygon fill="midnightblue" stroke="midnightblue" points="2110.84,-192.04 2100.29,-193.06 2109.17,-198.84 2110.84,-192.04"/>
</g>
<!-- Node5 -->
<g id="node5" class="node">
<title>Node5</title>
<g id="a_node5"><a xlink:title=" ">
<polygon fill="none" stroke="#bfbfbf" points="2641.5,-174 2641.5,-193 2736.5,-193 2736.5,-174 2641.5,-174"/>
<text text-anchor="middle" x="2689" y="-181" font-family="Helvetica,sans-Serif" font-size="10.00">pico/multicore.h</text>
</a>
</g>
</g>
<!-- Node3&#45;&gt;Node5 -->
<g id="edge5" class="edge">
<title>Node3&#45;&gt;Node5</title>
<path fill="none" stroke="midnightblue" d="M2567.35,-235.48C2591.39,-225.4 2631.6,-208.55 2659.16,-197"/>
<polygon fill="midnightblue" stroke="midnightblue" points="2660.82,-200.1 2668.69,-193.01 2658.12,-193.65 2660.82,-200.1"/>
</g>
<!-- Node6 -->
<g id="node6" class="node">
<title>Node6</title>
<g id="a_node6"><a xlink:title=" ">
<polygon fill="none" stroke="#bfbfbf" points="2509,-174 2509,-193 2585,-193 2585,-174 2509,-174"/>
<text text-anchor="middle" x="2547" y="-181" font-family="Helvetica,sans-Serif" font-size="10.00">pico/stdlib.h</text>
</a>
</g>
</g>
<!-- Node3&#45;&gt;Node6 -->
<g id="edge6" class="edge">
<title>Node3&#45;&gt;Node6</title>
<path fill="none" stroke="midnightblue" d="M2547,-235.48C2547,-227.08 2547,-213.98 2547,-203.16"/>
<polygon fill="midnightblue" stroke="midnightblue" points="2550.5,-203.01 2547,-193.01 2543.5,-203.01 2550.5,-203.01"/>
</g>
<!-- Node7&#45;&gt;Node2 -->
<g id="edge8" class="edge">
<title>Node7&#45;&gt;Node2</title>
<path fill="none" stroke="midnightblue" d="M1081.63,-56.32C1069.84,-48.06 1051.87,-35.45 1037.86,-25.63"/>
<polygon fill="midnightblue" stroke="midnightblue" points="1039.54,-22.53 1029.34,-19.65 1035.52,-28.26 1039.54,-22.53"/>
</g>
<!-- Node8&#45;&gt;Node2 -->
<g id="edge11" class="edge">
<title>Node8&#45;&gt;Node2</title>
<path fill="none" stroke="midnightblue" d="M998.97,-173.76C1001.92,-147.15 1010.83,-66.71 1014.91,-29.84"/>
<polygon fill="midnightblue" stroke="midnightblue" points="1018.43,-29.84 1016.06,-19.52 1011.48,-29.07 1018.43,-29.84"/>
</g>
<!-- Node8&#45;&gt;Node7 -->
<g id="edge15" class="edge">
<title>Node8&#45;&gt;Node7</title>
<path fill="none" stroke="midnightblue" d="M1004.93,-173.74C1015.56,-160.33 1036.61,-133.96 1055,-112 1063.06,-102.37 1072.26,-91.74 1079.69,-83.24"/>
<polygon fill="midnightblue" stroke="midnightblue" points="1082.47,-85.38 1086.44,-75.55 1077.21,-80.76 1082.47,-85.38"/>
</g>
<!-- Node9 -->
<g id="node9" class="node">
<title>Node9</title>
<g id="a_node9"><a xlink:href="Device_8h.html" target="_top" xlink:title=" ">
<polygon fill="none" stroke="black" points="1064.5,-112.5 1064.5,-131.5 1123.5,-131.5 1123.5,-112.5 1064.5,-112.5"/>
<text text-anchor="middle" x="1094" y="-119.5" font-family="Helvetica,sans-Serif" font-size="10.00">Device.h</text>
</a>
</g>
</g>
<!-- Node8&#45;&gt;Node9 -->
<g id="edge12" class="edge">
<title>Node8&#45;&gt;Node9</title>
<path fill="none" stroke="midnightblue" d="M1011.75,-173.98C1027.37,-164.3 1053.06,-148.37 1071.58,-136.89"/>
<polygon fill="midnightblue" stroke="midnightblue" points="1073.62,-139.75 1080.27,-131.51 1069.93,-133.8 1073.62,-139.75"/>
</g>
<!-- Node9&#45;&gt;Node2 -->
<g id="edge13" class="edge">
<title>Node9&#45;&gt;Node2</title>
<path fill="none" stroke="midnightblue" d="M1085.72,-112.43C1077.46,-103.66 1064.63,-89.45 1055,-76 1044.08,-60.76 1033.47,-42.19 1026.25,-28.81"/>
<polygon fill="midnightblue" stroke="midnightblue" points="1029.21,-26.93 1021.44,-19.73 1023.02,-30.2 1029.21,-26.93"/>
</g>
<!-- Node9&#45;&gt;Node7 -->
<g id="edge14" class="edge">
<title>Node9&#45;&gt;Node7</title>
<path fill="none" stroke="midnightblue" d="M1094,-112.08C1094,-105.01 1094,-94.86 1094,-85.99"/>
<polygon fill="midnightblue" stroke="midnightblue" points="1097.5,-85.75 1094,-75.75 1090.5,-85.75 1097.5,-85.75"/>
</g>
<!-- Node10&#45;&gt;Node8 -->
<g id="edge20" class="edge">
<title>Node10&#45;&gt;Node8</title>
<path fill="none" stroke="midnightblue" d="M809.72,-235.46C849.12,-227.37 908.43,-214.23 959,-199 961.57,-198.23 964.22,-197.37 966.86,-196.48"/>
<polygon fill="midnightblue" stroke="midnightblue" points="968.05,-199.77 976.3,-193.12 965.71,-193.17 968.05,-199.77"/>
</g>
<!-- Node11 -->
<g id="node11" class="node">
<title>Node11</title>
<g id="a_node11"><a xlink:title=" ">
<polygon fill="none" stroke="#bfbfbf" points="650.5,-174 650.5,-193 763.5,-193 763.5,-174 650.5,-174"/>
<text text-anchor="middle" x="707" y="-181" font-family="Helvetica,sans-Serif" font-size="10.00">SparkFun_AS7331.h</text>
</a>
</g>
</g>
<!-- Node10&#45;&gt;Node11 -->
<g id="edge17" class="edge">
<title>Node10&#45;&gt;Node11</title>
<path fill="none" stroke="midnightblue" d="M757.55,-235.48C748.43,-226.28 733.73,-211.46 722.52,-200.16"/>
<polygon fill="midnightblue" stroke="midnightblue" points="724.96,-197.65 715.44,-193.01 719.99,-202.57 724.96,-197.65"/>
</g>
<!-- Node12 -->
<g id="node12" class="node">
<title>Node12</title>
<g id="a_node12"><a xlink:title=" ">
<polygon fill="none" stroke="#bfbfbf" points="584,-174 584,-193 632,-193 632,-174 584,-174"/>
<text text-anchor="middle" x="608" y="-181" font-family="Helvetica,sans-Serif" font-size="10.00">Wire.h</text>
</a>
</g>
</g>
<!-- Node10&#45;&gt;Node12 -->
<g id="edge18" class="edge">
<title>Node10&#45;&gt;Node12</title>
<path fill="none" stroke="midnightblue" d="M740.43,-235.37C715.03,-226.66 675.06,-212.6 641,-199 639.4,-198.36 637.77,-197.69 636.12,-197.01"/>
<polygon fill="midnightblue" stroke="midnightblue" points="637.32,-193.72 626.75,-193.01 634.57,-200.15 637.32,-193.72"/>
</g>
<!-- Node13 -->
<g id="node13" class="node">
<title>Node13</title>
<g id="a_node13"><a xlink:title=" ">
<polygon fill="none" stroke="#bfbfbf" points="1120.5,-174 1120.5,-193 1173.5,-193 1173.5,-174 1120.5,-174"/>
<text text-anchor="middle" x="1147" y="-181" font-family="Helvetica,sans-Serif" font-size="10.00">string.h</text>
</a>
</g>
</g>
<!-- Node10&#45;&gt;Node13 -->
<g id="edge19" class="edge">
<title>Node10&#45;&gt;Node13</title>
<path fill="none" stroke="midnightblue" d="M813.57,-236.37C816.76,-235.9 819.92,-235.43 823,-235 950.73,-216.94 986.13,-231.37 1111,-199 1113.51,-198.35 1116.08,-197.57 1118.64,-196.71"/>
<polygon fill="midnightblue" stroke="midnightblue" points="1120.11,-199.89 1128.25,-193.12 1117.66,-193.33 1120.11,-199.89"/>
</g>
<!-- Node14&#45;&gt;Node8 -->
<g id="edge23" class="edge">
<title>Node14&#45;&gt;Node8</title>
<path fill="none" stroke="midnightblue" d="M584.02,-236.2C587.06,-235.77 590.07,-235.37 593,-235 755.16,-214.46 799.74,-235.79 959,-199 962.07,-198.29 965.22,-197.4 968.34,-196.42"/>
<polygon fill="midnightblue" stroke="midnightblue" points="969.77,-199.63 978.06,-193.04 967.47,-193.02 969.77,-199.63"/>
</g>
<!-- Node15 -->
<g id="node15" class="node">
<title>Node15</title>
<g id="a_node15"><a xlink:title=" ">
<polygon fill="none" stroke="#bfbfbf" points="321.5,-174 321.5,-193 432.5,-193 432.5,-174 321.5,-174"/>
<text text-anchor="middle" x="377" y="-181" font-family="Helvetica,sans-Serif" font-size="10.00">Adafruit_BMP3XX.h</text>
</a>
</g>
</g>
<!-- Node14&#45;&gt;Node15 -->
<g id="edge22" class="edge">
<title>Node14&#45;&gt;Node15</title>
<path fill="none" stroke="midnightblue" d="M512.36,-235.48C485.26,-225.27 439.69,-208.11 409,-196.55"/>
<polygon fill="midnightblue" stroke="midnightblue" points="410.19,-193.26 399.6,-193.01 407.72,-199.81 410.19,-193.26"/>
</g>
<!-- Node16&#45;&gt;Node8 -->
<g id="edge26" class="edge">
<title>Node16&#45;&gt;Node8</title>
<path fill="none" stroke="midnightblue" d="M356.16,-236.06C359.15,-235.67 362.11,-235.31 365,-235 627.93,-206.34 700.23,-253.68 959,-199 962.25,-198.31 965.59,-197.4 968.89,-196.38"/>
<polygon fill="midnightblue" stroke="midnightblue" points="970.2,-199.63 978.5,-193.04 967.9,-193.01 970.2,-199.63"/>
</g>
<!-- Node16&#45;&gt;Node12 -->
<g id="edge25" class="edge">
<title>Node16&#45;&gt;Node12</title>
<path fill="none" stroke="midnightblue" d="M356.23,-236.14C430.05,-224.07 563.64,-202.04 574,-199 576.15,-198.37 578.35,-197.64 580.54,-196.85"/>
<polygon fill="midnightblue" stroke="midnightblue" points="581.93,-200.07 589.94,-193.14 579.35,-193.56 581.93,-200.07"/>
</g>
<!-- Node17 -->
<g id="node17" class="node">
<title>Node17</title>
<g id="a_node17"><a xlink:title=" ">
<polygon fill="none" stroke="#bfbfbf" points="28.5,-174 28.5,-193 141.5,-193 141.5,-174 28.5,-174"/>
<text text-anchor="middle" x="85" y="-181" font-family="Helvetica,sans-Serif" font-size="10.00">SparkFun_ENS160.h</text>
</a>
</g>
</g>
<!-- Node16&#45;&gt;Node17 -->
<g id="edge27" class="edge">
<title>Node16&#45;&gt;Node17</title>
<path fill="none" stroke="midnightblue" d="M276.05,-235.48C236.8,-225 170.12,-207.21 126.83,-195.66"/>
<polygon fill="midnightblue" stroke="midnightblue" points="127.46,-192.21 116.89,-193.01 125.65,-198.97 127.46,-192.21"/>
</g>
<!-- Node18&#45;&gt;Node4 -->
<g id="edge33" class="edge">
<title>Node18&#45;&gt;Node4</title>
<path fill="none" stroke="midnightblue" d="M1549.58,-242.2C1643.86,-238.4 1845.34,-227.43 2013,-199 2018.6,-198.05 2024.46,-196.83 2030.2,-195.5"/>
<polygon fill="midnightblue" stroke="midnightblue" points="2031.44,-198.8 2040.32,-193.02 2029.77,-192 2031.44,-198.8"/>
</g>
<!-- Node18&#45;&gt;Node8 -->
<g id="edge34" class="edge">
<title>Node18&#45;&gt;Node8</title>
<path fill="none" stroke="midnightblue" d="M1442.16,-237.08C1436.04,-236.35 1429.89,-235.64 1424,-235 1252.27,-216.28 1205.41,-237.43 1037,-199 1033.93,-198.3 1030.77,-197.42 1027.65,-196.43"/>
<polygon fill="midnightblue" stroke="midnightblue" points="1028.53,-193.03 1017.93,-193.06 1026.23,-199.65 1028.53,-193.03"/>
</g>
<!-- Node18&#45;&gt;Node13 -->
<g id="edge32" class="edge">
<title>Node18&#45;&gt;Node13</title>
<path fill="none" stroke="midnightblue" d="M1442.45,-237.01C1359.65,-226.1 1207.49,-205.59 1183,-199 1180.49,-198.33 1177.93,-197.53 1175.38,-196.66"/>
<polygon fill="midnightblue" stroke="midnightblue" points="1176.36,-193.28 1165.77,-193.05 1173.9,-199.84 1176.36,-193.28"/>
</g>
<!-- Node19 -->
<g id="node19" class="node">
<title>Node19</title>
<g id="a_node19"><a xlink:title=" ">
<polygon fill="none" stroke="#bfbfbf" points="1690.5,-174 1690.5,-193 1809.5,-193 1809.5,-174 1690.5,-174"/>
<text text-anchor="middle" x="1750" y="-181" font-family="Helvetica,sans-Serif" font-size="10.00">Adafruit_ICM20948.h</text>
</a>
</g>
</g>
<!-- Node18&#45;&gt;Node19 -->
<g id="edge29" class="edge">
<title>Node18&#45;&gt;Node19</title>
<path fill="none" stroke="midnightblue" d="M1532.39,-235.48C1577.57,-224.89 1654.65,-206.84 1703.91,-195.3"/>
<polygon fill="midnightblue" stroke="midnightblue" points="1704.74,-198.7 1713.68,-193.01 1703.14,-191.88 1704.74,-198.7"/>
</g>
<!-- Node20 -->
<g id="node20" class="node">
<title>Node20</title>
<g id="a_node20"><a xlink:title=" ">
<polygon fill="none" stroke="#bfbfbf" points="1565.5,-174 1565.5,-193 1672.5,-193 1672.5,-174 1565.5,-174"/>
<text text-anchor="middle" x="1619" y="-181" font-family="Helvetica,sans-Serif" font-size="10.00">Adafruit_ICM20X.h</text>
</a>
</g>
</g>
<!-- Node18&#45;&gt;Node20 -->
<g id="edge30" class="edge">
<title>Node18&#45;&gt;Node20</title>
<path fill="none" stroke="midnightblue" d="M1513.62,-235.48C1534.17,-225.53 1568.36,-208.99 1592.21,-197.46"/>
<polygon fill="midnightblue" stroke="midnightblue" points="1593.93,-200.51 1601.41,-193.01 1590.88,-194.21 1593.93,-200.51"/>
</g>
<!-- Node21 -->
<g id="node21" class="node">
<title>Node21</title>
<g id="a_node21"><a xlink:title=" ">
<polygon fill="none" stroke="#bfbfbf" points="1444.5,-174 1444.5,-193 1547.5,-193 1547.5,-174 1444.5,-174"/>
<text text-anchor="middle" x="1496" y="-181" font-family="Helvetica,sans-Serif" font-size="10.00">Adafruit_Sensor.h</text>
</a>
</g>
</g>
<!-- Node18&#45;&gt;Node21 -->
<g id="edge31" class="edge">
<title>Node18&#45;&gt;Node21</title>
<path fill="none" stroke="midnightblue" d="M1496,-235.48C1496,-227.08 1496,-213.98 1496,-203.16"/>
<polygon fill="midnightblue" stroke="midnightblue" points="1499.5,-203.01 1496,-193.01 1492.5,-203.01 1499.5,-203.01"/>
</g>
<!-- Node22&#45;&gt;Node2 -->
<g id="edge36" class="edge">
<title>Node22&#45;&gt;Node2</title>
<path fill="none" stroke="midnightblue" d="M373.9,-236.43C307.81,-225.58 194.89,-206.14 189,-199 180.23,-188.37 180.21,-178.61 189,-168 290.85,-45.03 820.9,-17.62 974.96,-12.21"/>
<polygon fill="midnightblue" stroke="midnightblue" points="975.52,-15.7 985.4,-11.86 975.28,-8.7 975.52,-15.7"/>
</g>
<!-- Node22&#45;&gt;Node8 -->
<g id="edge39" class="edge">
<title>Node22&#45;&gt;Node8</title>
<path fill="none" stroke="midnightblue" d="M468.01,-236.15C471.05,-235.73 474.07,-235.34 477,-235 690.35,-209.93 749.14,-244.88 959,-199 962.08,-198.33 965.24,-197.46 968.36,-196.49"/>
<polygon fill="midnightblue" stroke="midnightblue" points="969.78,-199.71 978.08,-193.13 967.49,-193.09 969.78,-199.71"/>
</g>
<!-- Node22&#45;&gt;Node13 -->
<g id="edge37" class="edge">
<title>Node22&#45;&gt;Node13</title>
<path fill="none" stroke="midnightblue" d="M468.01,-236.09C471.05,-235.69 474.06,-235.32 477,-235 757.59,-204.57 835.56,-260.54 1111,-199 1113.84,-198.37 1116.74,-197.53 1119.6,-196.59"/>
<polygon fill="midnightblue" stroke="midnightblue" points="1120.91,-199.84 1129.05,-193.06 1118.46,-193.28 1120.91,-199.84"/>
</g>
<!-- Node23 -->
<g id="node23" class="node">
<title>Node23</title>
<g id="a_node23"><a xlink:title=" ">
<polygon fill="none" stroke="#bfbfbf" points="198.5,-174 198.5,-193 303.5,-193 303.5,-174 198.5,-174"/>
<text text-anchor="middle" x="251" y="-181" font-family="Helvetica,sans-Serif" font-size="10.00">Adafruit_INA260.h</text>
</a>
</g>
</g>
<!-- Node22&#45;&gt;Node23 -->
<g id="edge38" class="edge">
<title>Node22&#45;&gt;Node23</title>
<path fill="none" stroke="midnightblue" d="M396.64,-235.48C367.36,-225.22 318.03,-207.96 285,-196.4"/>
<polygon fill="midnightblue" stroke="midnightblue" points="285.91,-193.01 275.31,-193.01 283.59,-199.62 285.91,-193.01"/>
</g>
<!-- Node24&#45;&gt;Node2 -->
<g id="edge41" class="edge">
<title>Node24&#45;&gt;Node2</title>
<path fill="none" stroke="midnightblue" d="M857.79,-235.41C841.15,-228.44 820.94,-216.81 811,-199 804.28,-186.97 804.89,-180.35 811,-168 847.78,-93.73 938.37,-45.03 986.23,-23.57"/>
<polygon fill="midnightblue" stroke="midnightblue" points="987.72,-26.74 995.48,-19.52 984.92,-20.32 987.72,-26.74"/>
</g>
<!-- Node24&#45;&gt;Node4 -->
<g id="edge44" class="edge">
<title>Node24&#45;&gt;Node4</title>
<path fill="none" stroke="midnightblue" d="M936.11,-238.71C951.22,-237.33 967.76,-235.96 983,-235 1440.15,-206.25 1559.55,-263.83 2013,-199 2019.02,-198.14 2025.33,-196.89 2031.46,-195.49"/>
<polygon fill="midnightblue" stroke="midnightblue" points="2032.66,-198.8 2041.54,-193.01 2030.99,-192 2032.66,-198.8"/>
</g>
<!-- Node24&#45;&gt;Node8 -->
<g id="edge45" class="edge">
<title>Node24&#45;&gt;Node8</title>
<path fill="none" stroke="midnightblue" d="M900.33,-235.48C919.21,-225.62 950.51,-209.29 972.58,-197.77"/>
<polygon fill="midnightblue" stroke="midnightblue" points="974.45,-200.74 981.7,-193.01 971.21,-194.53 974.45,-200.74"/>
</g>
<!-- Node24&#45;&gt;Node12 -->
<g id="edge43" class="edge">
<title>Node24&#45;&gt;Node12</title>
<path fill="none" stroke="midnightblue" d="M831.96,-235.81C771.58,-226.05 675.86,-209.73 641,-199 639.07,-198.41 637.1,-197.73 635.14,-197.01"/>
<polygon fill="midnightblue" stroke="midnightblue" points="636.11,-193.62 625.52,-193.1 633.47,-200.11 636.11,-193.62"/>
</g>
<!-- Node25 -->
<g id="node25" class="node">
<title>Node25</title>
<g id="a_node25"><a xlink:title=" ">
<polygon fill="none" stroke="#bfbfbf" points="820,-168.5 820,-198.5 950,-198.5 950,-168.5 820,-168.5"/>
<text text-anchor="start" x="828" y="-186.5" font-family="Helvetica,sans-Serif" font-size="10.00">SparkFun_u&#45;blox_GNSS</text>
<text text-anchor="middle" x="885" y="-175.5" font-family="Helvetica,sans-Serif" font-size="10.00">_Arduino_Library.h</text>
</a>
</g>
</g>
<!-- Node24&#45;&gt;Node25 -->
<g id="edge42" class="edge">
<title>Node24&#45;&gt;Node25</title>
<path fill="none" stroke="midnightblue" d="M884.14,-235.48C884.26,-228.47 884.43,-218.19 884.59,-208.7"/>
<polygon fill="midnightblue" stroke="midnightblue" points="888.1,-208.58 884.76,-198.52 881.1,-208.46 888.1,-208.58"/>
</g>
<!-- Node26&#45;&gt;Node4 -->
<g id="edge48" class="edge">
<title>Node26&#45;&gt;Node4</title>
<path fill="none" stroke="midnightblue" d="M1944.06,-235.48C1969.06,-225.36 2010.94,-208.4 2039.49,-196.85"/>
<polygon fill="midnightblue" stroke="midnightblue" points="2041.02,-200.01 2048.98,-193.01 2038.39,-193.52 2041.02,-200.01"/>
</g>
<!-- Node26&#45;&gt;Node8 -->
<g id="edge49" class="edge">
<title>Node26&#45;&gt;Node8</title>
<path fill="none" stroke="midnightblue" d="M1878.29,-242.53C1709.94,-236.88 1119.63,-216.04 1037,-199 1033.75,-198.33 1030.4,-197.43 1027.11,-196.41"/>
<polygon fill="midnightblue" stroke="midnightblue" points="1028.09,-193.05 1017.5,-193.08 1025.8,-199.66 1028.09,-193.05"/>
</g>
<!-- Node27 -->
<g id="node27" class="node">
<title>Node27</title>
<g id="a_node27"><a xlink:title=" ">
<polygon fill="none" stroke="#bfbfbf" points="1866.5,-174 1866.5,-193 2003.5,-193 2003.5,-174 1866.5,-174"/>
<text text-anchor="middle" x="1935" y="-181" font-family="Helvetica,sans-Serif" font-size="10.00">DFRobot_OzoneSensor.h</text>
</a>
</g>
</g>
<!-- Node26&#45;&gt;Node27 -->
<g id="edge47" class="edge">
<title>Node26&#45;&gt;Node27</title>
<path fill="none" stroke="midnightblue" d="M1924.72,-235.48C1926.43,-226.99 1929.11,-213.7 1931.3,-202.82"/>
<polygon fill="midnightblue" stroke="midnightblue" points="1934.74,-203.5 1933.28,-193.01 1927.88,-202.12 1934.74,-203.5"/>
</g>
<!-- Node28&#45;&gt;Node8 -->
<g id="edge52" class="edge">
<title>Node28&#45;&gt;Node8</title>
<path fill="none" stroke="midnightblue" d="M1124.8,-235.48C1099.63,-225.36 1057.46,-208.4 1028.72,-196.85"/>
<polygon fill="midnightblue" stroke="midnightblue" points="1029.75,-193.49 1019.17,-193.01 1027.14,-199.99 1029.75,-193.49"/>
</g>
<!-- Node29 -->
<g id="node29" class="node">
<title>Node29</title>
<g id="a_node29"><a xlink:title=" ">
<polygon fill="none" stroke="#bfbfbf" points="1046,-174 1046,-193 1102,-193 1102,-174 1046,-174"/>
<text text-anchor="middle" x="1074" y="-181" font-family="Helvetica,sans-Serif" font-size="10.00">RTClib.h</text>
</a>
</g>
</g>
<!-- Node28&#45;&gt;Node29 -->
<g id="edge51" class="edge">
<title>Node28&#45;&gt;Node29</title>
<path fill="none" stroke="midnightblue" d="M1135.68,-235.48C1124.35,-226.11 1105.93,-210.88 1092.16,-199.51"/>
<polygon fill="midnightblue" stroke="midnightblue" points="1094.23,-196.68 1084.3,-193.01 1089.78,-202.08 1094.23,-196.68"/>
</g>
<!-- Node30&#45;&gt;Node4 -->
<g id="edge58" class="edge">
<title>Node30&#45;&gt;Node4</title>
<path fill="none" stroke="midnightblue" d="M1414.76,-237.22C1421.21,-236.4 1427.77,-235.62 1434,-235 1690.55,-209.3 1758.28,-238.96 2013,-199 2018.88,-198.08 2025.04,-196.82 2031.04,-195.44"/>
<polygon fill="midnightblue" stroke="midnightblue" points="2032.05,-198.79 2040.93,-193.01 2030.38,-191.99 2032.05,-198.79"/>
</g>
<!-- Node30&#45;&gt;Node8 -->
<g id="edge59" class="edge">
<title>Node30&#45;&gt;Node8</title>
<path fill="none" stroke="midnightblue" d="M1323.35,-236.27C1320.53,-235.83 1317.73,-235.4 1315,-235 1191.76,-216.76 1157.95,-228.9 1037,-199 1034.01,-198.26 1030.94,-197.37 1027.89,-196.39"/>
<polygon fill="midnightblue" stroke="midnightblue" points="1028.96,-193.06 1018.37,-193.07 1026.66,-199.67 1028.96,-193.06"/>
</g>
<!-- Node30&#45;&gt;Node12 -->
<g id="edge56" class="edge">
<title>Node30&#45;&gt;Node12</title>
<path fill="none" stroke="midnightblue" d="M1323.38,-236.03C1320.55,-235.65 1317.74,-235.3 1315,-235 1016.81,-202.29 932.83,-268.46 641,-199 638.64,-198.44 636.23,-197.71 633.85,-196.89"/>
<polygon fill="midnightblue" stroke="midnightblue" points="634.97,-193.56 624.38,-193.09 632.36,-200.06 634.97,-193.56"/>
</g>
<!-- Node30&#45;&gt;Node13 -->
<g id="edge57" class="edge">
<title>Node30&#45;&gt;Node13</title>
<path fill="none" stroke="midnightblue" d="M1326.03,-235.46C1288.02,-227.47 1231.25,-214.46 1183,-199 1180.73,-198.27 1178.39,-197.47 1176.06,-196.62"/>
<polygon fill="midnightblue" stroke="midnightblue" points="1177.21,-193.31 1166.62,-193 1174.7,-199.85 1177.21,-193.31"/>
</g>
<!-- Node30&#45;&gt;Node21 -->
<g id="edge54" class="edge">
<title>Node30&#45;&gt;Node21</title>
<path fill="none" stroke="midnightblue" d="M1387.2,-235.48C1408.51,-225.49 1444.03,-208.85 1468.66,-197.31"/>
<polygon fill="midnightblue" stroke="midnightblue" points="1470.27,-200.42 1477.84,-193.01 1467.3,-194.08 1470.27,-200.42"/>
</g>
<!-- Node31 -->
<g id="node31" class="node">
<title>Node31</title>
<g id="a_node31"><a xlink:title=" ">
<polygon fill="none" stroke="#bfbfbf" points="1312,-174 1312,-193 1426,-193 1426,-174 1312,-174"/>
<text text-anchor="middle" x="1369" y="-181" font-family="Helvetica,sans-Serif" font-size="10.00">SensirionI2cScd4x.h</text>
</a>
</g>
</g>
<!-- Node30&#45;&gt;Node31 -->
<g id="edge55" class="edge">
<title>Node30&#45;&gt;Node31</title>
<path fill="none" stroke="midnightblue" d="M1369,-235.48C1369,-227.08 1369,-213.98 1369,-203.16"/>
<polygon fill="midnightblue" stroke="midnightblue" points="1372.5,-203.01 1369,-193.01 1365.5,-203.01 1372.5,-203.01"/>
</g>
<!-- Node32&#45;&gt;Node8 -->
<g id="edge62" class="edge">
<title>Node32&#45;&gt;Node8</title>
<path fill="none" stroke="midnightblue" d="M1214.28,-235.65C1159.1,-225.42 1069.67,-208.31 1037,-199 1034.36,-198.25 1031.64,-197.4 1028.92,-196.5"/>
<polygon fill="midnightblue" stroke="midnightblue" points="1029.85,-193.11 1019.26,-193.09 1027.52,-199.71 1029.85,-193.11"/>
</g>
<!-- Node33 -->
<g id="node33" class="node">
<title>Node33</title>
<g id="a_node33"><a xlink:title=" ">
<polygon fill="none" stroke="#bfbfbf" points="1192,-174 1192,-193 1294,-193 1294,-174 1192,-174"/>
<text text-anchor="middle" x="1243" y="-181" font-family="Helvetica,sans-Serif" font-size="10.00">Adafruit_SHTC3.h</text>
</a>
</g>
</g>
<!-- Node32&#45;&gt;Node33 -->
<g id="edge61" class="edge">
<title>Node32&#45;&gt;Node33</title>
<path fill="none" stroke="midnightblue" d="M1257.56,-235.48C1255.14,-226.99 1251.34,-213.7 1248.23,-202.82"/>
<polygon fill="midnightblue" stroke="midnightblue" points="1251.54,-201.66 1245.43,-193.01 1244.81,-203.59 1251.54,-201.66"/>
</g>
<!-- Node34&#45;&gt;Node8 -->
<g id="edge66" class="edge">
<title>Node34&#45;&gt;Node8</title>
<path fill="none" stroke="midnightblue" d="M700.04,-236.35C703.07,-235.89 706.08,-235.44 709,-235 820.02,-218.39 850.22,-226.72 959,-199 961.98,-198.24 965.06,-197.33 968.1,-196.34"/>
<polygon fill="midnightblue" stroke="midnightblue" points="969.34,-199.62 977.62,-193.01 967.02,-193.01 969.34,-199.62"/>
</g>
<!-- Node34&#45;&gt;Node12 -->
<g id="edge65" class="edge">
<title>Node34&#45;&gt;Node12</title>
<path fill="none" stroke="midnightblue" d="M644.84,-235.48C638.39,-226.55 628.1,-212.31 620.03,-201.14"/>
<polygon fill="midnightblue" stroke="midnightblue" points="622.84,-199.06 614.15,-193.01 617.17,-203.16 622.84,-199.06"/>
</g>
<!-- Node35 -->
<g id="node35" class="node">
<title>Node35</title>
<g id="a_node35"><a xlink:title=" ">
<polygon fill="none" stroke="#bfbfbf" points="450.5,-174 450.5,-193 565.5,-193 565.5,-174 450.5,-174"/>
<text text-anchor="middle" x="508" y="-181" font-family="Helvetica,sans-Serif" font-size="10.00">SparkFun_TMP117.h</text>
</a>
</g>
</g>
<!-- Node34&#45;&gt;Node35 -->
<g id="edge64" class="edge">
<title>Node34&#45;&gt;Node35</title>
<path fill="none" stroke="midnightblue" d="M630.51,-235.48C606.19,-225.36 565.45,-208.4 537.68,-196.85"/>
<polygon fill="midnightblue" stroke="midnightblue" points="539.03,-193.62 528.45,-193.01 536.34,-200.08 539.03,-193.62"/>
</g>
<!-- Node36&#45;&gt;Node8 -->
<g id="edge68" class="edge">
<title>Node36&#45;&gt;Node8</title>
<path fill="none" stroke="midnightblue" d="M1029.7,-235.48C1024.26,-226.73 1015.64,-212.87 1008.76,-201.81"/>
<polygon fill="midnightblue" stroke="midnightblue" points="1011.54,-199.65 1003.29,-193.01 1005.6,-203.35 1011.54,-199.65"/>
</g>
<!-- Node37&#45;&gt;Node4 -->
<g id="edge72" class="edge">
<title>Node37&#45;&gt;Node4</title>
<path fill="none" stroke="midnightblue" d="M2243.92,-235.48C2208.42,-225.07 2148.25,-207.44 2108.83,-195.88"/>
<polygon fill="midnightblue" stroke="midnightblue" points="2109.61,-192.46 2099.03,-193.01 2107.64,-199.18 2109.61,-192.46"/>
</g>
<!-- Node38 -->
<g id="node38" class="node">
<title>Node38</title>
<g id="a_node38"><a xlink:title=" ">
<polygon fill="none" stroke="#bfbfbf" points="2384.5,-174 2384.5,-193 2425.5,-193 2425.5,-174 2384.5,-174"/>
<text text-anchor="middle" x="2405" y="-181" font-family="Helvetica,sans-Serif" font-size="10.00">SPI.h</text>
</a>
</g>
</g>
<!-- Node37&#45;&gt;Node38 -->
<g id="edge70" class="edge">
<title>Node37&#45;&gt;Node38</title>
<path fill="none" stroke="midnightblue" d="M2293.66,-235.35C2314.56,-226.51 2347.72,-212.24 2376,-199 2376.99,-198.53 2378.01,-198.06 2379.02,-197.57"/>
<polygon fill="midnightblue" stroke="midnightblue" points="2380.76,-200.62 2388.2,-193.08 2377.68,-194.33 2380.76,-200.62"/>
</g>
<!-- Node39 -->
<g id="node39" class="node">
<title>Node39</title>
<g id="a_node39"><a xlink:title=" ">
<polygon fill="none" stroke="#bfbfbf" points="2443.5,-174 2443.5,-193 2490.5,-193 2490.5,-174 2443.5,-174"/>
<text text-anchor="middle" x="2467" y="-181" font-family="Helvetica,sans-Serif" font-size="10.00">vector</text>
</a>
</g>
</g>
<!-- Node37&#45;&gt;Node39 -->
<g id="edge71" class="edge">
<title>Node37&#45;&gt;Node39</title>
<path fill="none" stroke="midnightblue" d="M2309.86,-235.49C2343.03,-227.42 2392.88,-214.29 2435,-199 2436.62,-198.41 2438.26,-197.78 2439.92,-197.12"/>
<polygon fill="midnightblue" stroke="midnightblue" points="2441.44,-200.27 2449.26,-193.12 2438.69,-193.84 2441.44,-200.27"/>
</g>
<!-- Node40 -->
<g id="node40" class="node">
<title>Node40</title>
<g id="a_node40"><a xlink:title=" ">
<polygon fill="none" stroke="#bfbfbf" points="2136,-174 2136,-193 2286,-193 2286,-174 2136,-174"/>
<text text-anchor="middle" x="2211" y="-181" font-family="Helvetica,sans-Serif" font-size="10.00">SparkFun_SPI_SerialFlash.h</text>
</a>
</g>
</g>
<!-- Node37&#45;&gt;Node40 -->
<g id="edge73" class="edge">
<title>Node37&#45;&gt;Node40</title>
<path fill="none" stroke="midnightblue" d="M2264.12,-235.48C2254.54,-226.28 2239.09,-211.46 2227.31,-200.16"/>
<polygon fill="midnightblue" stroke="midnightblue" points="2229.51,-197.41 2219.87,-193.01 2224.66,-202.46 2229.51,-197.41"/>
</g>
<!-- Node41 -->
<g id="node41" class="node">
<title>Node41</title>
<g id="a_node41"><a xlink:href="Storage_8h.html" target="_top" xlink:title=" ">
<polygon fill="none" stroke="black" points="2303.5,-174 2303.5,-193 2366.5,-193 2366.5,-174 2303.5,-174"/>
<text text-anchor="middle" x="2335" y="-181" font-family="Helvetica,sans-Serif" font-size="10.00">Storage.h</text>
</a>
</g>
</g>
<!-- Node37&#45;&gt;Node41 -->
<g id="edge74" class="edge">
<title>Node37&#45;&gt;Node41</title>
<path fill="none" stroke="midnightblue" d="M2281.88,-235.48C2291.46,-226.28 2306.91,-211.46 2318.69,-200.16"/>
<polygon fill="midnightblue" stroke="midnightblue" points="2321.34,-202.46 2326.13,-193.01 2316.49,-197.41 2321.34,-202.46"/>
</g>
<!-- Node41&#45;&gt;Node2 -->
<g id="edge75" class="edge">
<title>Node41&#45;&gt;Node2</title>
<path fill="none" stroke="midnightblue" d="M2313.21,-173.85C2307.36,-171.74 2300.99,-169.62 2295,-168 2161.11,-131.8 2125.3,-131.63 1988,-112 1629.84,-60.78 1193.83,-24.75 1058.84,-14.2"/>
<polygon fill="midnightblue" stroke="midnightblue" points="1058.79,-10.68 1048.54,-13.39 1058.24,-17.66 1058.79,-10.68"/>
</g>
<!-- Node41&#45;&gt;Node7 -->
<g id="edge77" class="edge">
<title>Node41&#45;&gt;Node7</title>
<path fill="none" stroke="midnightblue" d="M2314.09,-173.93C2308.02,-171.71 2301.32,-169.52 2295,-168 2102.08,-121.45 2049.61,-130.34 1852,-112 1577.96,-86.57 1246.79,-72.69 1133.91,-68.43"/>
<polygon fill="midnightblue" stroke="midnightblue" points="1133.8,-64.93 1123.67,-68.05 1133.53,-71.92 1133.8,-64.93"/>
</g>
<!-- Node41&#45;&gt;Node9 -->
<g id="edge76" class="edge">
<title>Node41&#45;&gt;Node9</title>
<path fill="none" stroke="midnightblue" d="M2315,-173.87C2308.71,-171.54 2301.67,-169.3 2295,-168 2065.22,-123.19 1315.44,-122.36 1133.87,-122.84"/>
<polygon fill="midnightblue" stroke="midnightblue" points="1133.69,-119.34 1123.7,-122.87 1133.71,-126.34 1133.69,-119.34"/>
</g>
</g>
</svg>
        <g id="navigator" transform="translate(0 0)" fill="#404254">
                <rect fill="#f2f5e9" fill-opacity="0.5" stroke="#606060" stroke-width=".5" x="0" y="0" width="60" height="60"/>
                <use id="zoomplus" xlink:href="#zoomPlus" x="17" y="9" onmousedown="handleZoom(evt,'in')"/>
                <use id="zoomminus" xlink:href="#zoomMin" x="42" y="9" onmousedown="handleZoom(evt,'out')"/>
                <use id="reset" xlink:href="#resetDef" x="30" y="36" onmousedown="handleReset()"/>
                <g id="arrowUp" xlink:href="#dirArrow" transform="translate(30 24)" onmousedown="handlePan(0,-1)">
                  <use xlink:href="#rim" fill="#404040">
                        <set attributeName="fill" to="#808080" begin="arrowUp.mouseover" end="arrowUp.mouseout"/>
                  </use>
                  <path fill="none" stroke="white" stroke-width="1.5" d="M0,-3.0v7 M-2.5,-0.5L0,-3.0L2.5,-0.5"/>
                </g>
                <g id="arrowRight" xlink:href="#dirArrow" transform="rotate(90) translate(36 -43)" onmousedown="handlePan(1,0)">
                  <use xlink:href="#rim" fill="#404040">
                        <set attributeName="fill" to="#808080" begin="arrowRight.mouseover" end="arrowRight.mouseout"/>
                  </use>
                  <path fill="none" stroke="white" stroke-width="1.5" d="M0,-3.0v7 M-2.5,-0.5L0,-3.0L2.5,-0.5"/>
                </g>
                <g id="arrowDown" xlink:href="#dirArrow" transform="rotate(180) translate(-30 -48)" onmousedown="handlePan(0,1)">
                  <use xlink:href="#rim" fill="#404040">
                        <set attributeName="fill" to="#808080" begin="arrowDown.mouseover" end="arrowDown.mouseout"/>
                  </use>
                  <path fill="none" stroke="white" stroke-width="1.5" d="M0,-3.0v7 M-2.5,-0.5L0,-3.0L2.5,-0.5"/>
                </g>
                <g id="arrowLeft" xlink:href="#dirArrow" transform="rotate(270) translate(-36 17)" onmousedown="handlePan(-1,0)">
                  <use xlink:href="#rim" fill="#404040">
                        <set attributeName="fill" to="#808080" begin="arrowLeft.mouseover" end="arrowLeft.mouseout"/>
                  </use>
                  <path fill="none" stroke="white" stroke-width="1.5" d="M0,-3.0v7 M-2.5,-0.5L0,-3.0L2.5,-0.5"/>
                </g>
        </g>
        <svg viewBox="0 0 15 15" width="100%" height="30px" preserveAspectRatio="xMaxYMin meet">
         <g id="arrow_out" transform="scale(0.3 0.3)">
          <a xlink:href="main_8cpp__incl_org.svg" target="_base">
           <rect id="button" ry="5" rx="5" y="6" x="6" height="38" width="38"
                fill="#f2f5e9" fill-opacity="0.5" stroke="#606060" stroke-width="1.0"/>
           <path id="arrow"
             d="M 11.500037,31.436501 C 11.940474,20.09759 22.043105,11.32322 32.158766,21.979434 L 37.068811,17.246167 C 37.068811,17.246167 37.088388,32 37.088388,32 L 22.160133,31.978069 C 22.160133,31.978069 26.997745,27.140456 26.997745,27.140456 C 18.528582,18.264221 13.291696,25.230495 11.500037,31.436501 z"
             style="fill:#404040;"/>
          </a>
         </g>
        </svg>
</svg>
