<?xml version="1.0" encoding="UTF-8" standalone="no"?>
<!DOCTYPE svg PUBLIC "-//W3C//DTD SVG 1.1//EN"
 "http://www.w3.org/Graphics/SVG/1.1/DTD/svg11.dtd">
<!-- Generated by graphviz version 2.43.0 (0)
 -->
<!-- Title: loop Pages: 1 -->
<svg width="500pt" height="175pt"
 viewBox="0.00 0.00 500.00 175.00" xmlns="http://www.w3.org/2000/svg" xmlns:xlink="http://www.w3.org/1999/xlink">

<svg id="main" version="1.1" xmlns="http://www.w3.org/2000/svg" xmlns:xlink="http://www.w3.org/1999/xlink" xml:space="preserve" onload="init(evt)">
<style type="text/css"><![CDATA[
.node, .edge {opacity: 0.7;}
.node.selected, .edge.selected {opacity: 1;}
.edge:hover path { stroke: red; }
.edge:hover polygon { stroke: red; fill: red; }
]]></style>
<script type="application/ecmascript" xlink:href="svg.min.js"/>
<svg id="graph" class="graph">
<g id="graph0" class="graph" transform="scale(1 1) rotate(0) translate(4 171)">
<title>loop</title>
<!-- Node1 -->
<g id="Node000001" class="node">
<title>Node1</title>
<g id="a_Node000001"><a xlink:title="Loop for core 0, handling sensor reads.">
<polygon fill="#999999" stroke="#666666" points="38,-93 0,-93 0,-74 38,-74 38,-93"/>
<text text-anchor="middle" x="19" y="-81" font-family="Helvetica,sans-Serif" font-size="10.00">loop</text>
</a>
</g>
</g>
<!-- Node2 -->
<g id="Node000002" class="node">
<title>Node2</title>
<g id="a_Node000002"><a xlink:href="classFlashStorage.html#ac2dd4e8b7b4a85d5820f4277d0fb6727" target="_top" xlink:title="Erases all data stored in flash memory.">
<polygon fill="white" stroke="#666666" points="192,-167 79,-167 79,-148 192,-148 192,-167"/>
<text text-anchor="middle" x="135.5" y="-155" font-family="Helvetica,sans-Serif" font-size="10.00">FlashStorage::erase</text>
</a>
</g>
</g>
<!-- Node1&#45;&gt;Node2 -->
<g id="edge1_Node000001_Node000002" class="edge">
<title>Node1&#45;&gt;Node2</title>
<g id="a_edge1_Node000001_Node000002"><a xlink:title=" ">
<path fill="none" stroke="#63b8ff" d="M26.89,-93.3C36.19,-105.81 53.92,-127.29 74,-139.5 76.76,-141.18 79.69,-142.71 82.71,-144.11"/>
<polygon fill="#63b8ff" stroke="#63b8ff" points="81.39,-147.35 91.97,-147.9 84.04,-140.87 81.39,-147.35"/>
</a>
</g>
</g>
<!-- Node3 -->
<g id="Node000003" class="node">
<title>Node3</title>
<g id="a_Node000003"><a xlink:href="classErrorDisplay.html#a4f9e7e64ffc64711653b539bf3d8d24f" target="_top" xlink:title="Accesses the only instance of ErrorDisplay (Singleton)">
<polygon fill="white" stroke="#666666" points="197,-130 74,-130 74,-111 197,-111 197,-130"/>
<text text-anchor="middle" x="135.5" y="-118" font-family="Helvetica,sans-Serif" font-size="10.00">ErrorDisplay::instance</text>
</a>
</g>
</g>
<!-- Node1&#45;&gt;Node3 -->
<g id="edge2_Node000001_Node000003" class="edge">
<title>Node1&#45;&gt;Node3</title>
<g id="a_edge2_Node000001_Node000003"><a xlink:title=" ">
<path fill="none" stroke="#63b8ff" d="M38.42,-90.23C48.82,-93.97 62.09,-98.64 74,-102.5 79.68,-104.34 85.67,-106.21 91.6,-108.02"/>
<polygon fill="#63b8ff" stroke="#63b8ff" points="90.86,-111.45 101.44,-110.98 92.87,-104.75 90.86,-111.45"/>
</a>
</g>
</g>
<!-- Node4 -->
<g id="Node000004" class="node">
<title>Node4</title>
<g id="a_Node000004"><a xlink:href="main_8cpp.html#a9db5e6113d9a0bd03a1b044059ae787b" target="_top" xlink:title="Read data from each verified Sensor.">
<polygon fill="white" stroke="#666666" points="183,-93 88,-93 88,-74 183,-74 183,-93"/>
<text text-anchor="middle" x="135.5" y="-81" font-family="Helvetica,sans-Serif" font-size="10.00">readSensorData</text>
</a>
</g>
</g>
<!-- Node1&#45;&gt;Node4 -->
<g id="edge3_Node000001_Node000004" class="edge">
<title>Node1&#45;&gt;Node4</title>
<g id="a_edge3_Node000001_Node000004"><a xlink:title=" ">
<path fill="none" stroke="#63b8ff" d="M38.14,-83.5C48.9,-83.5 63.19,-83.5 77.46,-83.5"/>
<polygon fill="#63b8ff" stroke="#63b8ff" points="77.79,-87 87.79,-83.5 77.79,-80 77.79,-87"/>
</a>
</g>
</g>
<!-- Node8 -->
<g id="Node000008" class="node">
<title>Node8</title>
<g id="a_Node000008"><a xlink:href="classFlashStorage.html#a4890571487bb855dd72c050dc37a73f1" target="_top" xlink:title="Stores a string in flash memory, appending a newline at the end.">
<polygon fill="white" stroke="#666666" points="191,-56 80,-56 80,-37 191,-37 191,-56"/>
<text text-anchor="middle" x="135.5" y="-44" font-family="Helvetica,sans-Serif" font-size="10.00">FlashStorage::store</text>
</a>
</g>
</g>
<!-- Node1&#45;&gt;Node8 -->
<g id="edge7_Node000001_Node000008" class="edge">
<title>Node1&#45;&gt;Node8</title>
<g id="a_edge7_Node000001_Node000008"><a xlink:title=" ">
<path fill="none" stroke="#63b8ff" d="M38.47,-77.26C48.89,-73.75 62.15,-69.33 74,-65.5 80.47,-63.4 87.35,-61.21 94.05,-59.09"/>
<polygon fill="#63b8ff" stroke="#63b8ff" points="95.2,-62.4 103.69,-56.06 93.1,-55.73 95.2,-62.4"/>
</a>
</g>
</g>
<!-- Node9 -->
<g id="Node000009" class="node">
<title>Node9</title>
<g id="a_Node000009"><a xlink:href="classErrorDisplay.html#a493bde338b369414abffe90e0d49e93b" target="_top" xlink:title="Toggles the level of the error display.">
<polygon fill="white" stroke="#666666" points="192,-19 79,-19 79,0 192,0 192,-19"/>
<text text-anchor="middle" x="135.5" y="-7" font-family="Helvetica,sans-Serif" font-size="10.00">ErrorDisplay::toggle</text>
</a>
</g>
</g>
<!-- Node1&#45;&gt;Node9 -->
<g id="edge8_Node000001_Node000009" class="edge">
<title>Node1&#45;&gt;Node9</title>
<g id="a_edge8_Node000001_Node000009"><a xlink:title=" ">
<path fill="none" stroke="#63b8ff" d="M26.96,-73.93C36.33,-61.7 54.14,-40.66 74,-28.5 77.39,-26.42 81.02,-24.56 84.77,-22.88"/>
<polygon fill="#63b8ff" stroke="#63b8ff" points="86.25,-26.06 94.23,-19.09 83.65,-19.56 86.25,-26.06"/>
</a>
</g>
</g>
<!-- Node5 -->
<g id="Node000005" class="node">
<title>Node5</title>
<g id="a_Node000005"><a xlink:href="classSensor.html#a2d5ecda6a046ddba40d0e37921226d2f" target="_top" xlink:title="Uses readData and readEmpty to get the data&#45;filled or empty&#45;celled CSV line for the sensor.">
<polygon fill="white" stroke="#666666" points="347,-93 233,-93 233,-74 347,-74 347,-93"/>
<text text-anchor="middle" x="290" y="-81" font-family="Helvetica,sans-Serif" font-size="10.00">Sensor::getDataCSV</text>
</a>
</g>
</g>
<!-- Node4&#45;&gt;Node5 -->
<g id="edge4_Node000004_Node000005" class="edge">
<title>Node4&#45;&gt;Node5</title>
<g id="a_edge4_Node000004_Node000005"><a xlink:title=" ">
<path fill="none" stroke="#63b8ff" d="M183.08,-83.5C195.58,-83.5 209.33,-83.5 222.67,-83.5"/>
<polygon fill="#63b8ff" stroke="#63b8ff" points="222.77,-87 232.77,-83.5 222.77,-80 222.77,-87"/>
</a>
</g>
</g>
<!-- Node6 -->
<g id="Node000006" class="node">
<title>Node6</title>
<g id="a_Node000006"><a xlink:href="classSensor.html#a56153cab066abc01692301d11965f9b8" target="_top" xlink:title="Returns the collected data from the sensor in CSV format.">
<polygon fill="white" stroke="#666666" points="488,-112 387,-112 387,-93 488,-93 488,-112"/>
<text text-anchor="middle" x="437.5" y="-100" font-family="Helvetica,sans-Serif" font-size="10.00">Sensor::readData</text>
</a>
</g>
</g>
<!-- Node5&#45;&gt;Node6 -->
<g id="edge5_Node000005_Node000006" class="edge">
<title>Node5&#45;&gt;Node6</title>
<g id="a_edge5_Node000005_Node000006"><a xlink:title=" ">
<path fill="none" stroke="#63b8ff" d="M347.25,-90.85C356.87,-92.1 366.89,-93.41 376.6,-94.68"/>
<polygon fill="#63b8ff" stroke="#63b8ff" points="376.2,-98.15 386.57,-95.98 377.1,-91.21 376.2,-98.15"/>
</a>
</g>
</g>
<!-- Node7 -->
<g id="Node000007" class="node">
<title>Node7</title>
<g id="a_Node000007"><a xlink:href="classSensor.html#a62d72a2f81422ac2d2fa8ae86ba08571" target="_top" xlink:title="Returns CSV line in the same format as readData() but with &quot;&#45;&quot; instead of data.">
<polygon fill="white" stroke="#666666" points="492,-75 383,-75 383,-56 492,-56 492,-75"/>
<text text-anchor="middle" x="437.5" y="-63" font-family="Helvetica,sans-Serif" font-size="10.00">Sensor::readEmpty</text>
</a>
</g>
</g>
<!-- Node5&#45;&gt;Node7 -->
<g id="edge6_Node000005_Node000007" class="edge">
<title>Node5&#45;&gt;Node7</title>
<g id="a_edge6_Node000005_Node000007"><a xlink:title=" ">
<path fill="none" stroke="#63b8ff" d="M347.25,-76.54C355.55,-75.51 364.16,-74.45 372.6,-73.41"/>
<polygon fill="#63b8ff" stroke="#63b8ff" points="373.29,-76.85 382.78,-72.15 372.43,-69.9 373.29,-76.85"/>
</a>
</g>
</g>
</g>
</svg>
</svg>

<style type='text/css'>
<![CDATA[
[data-mouse-over-selected='false'] { opacity: 0.7; }
[data-mouse-over-selected='true']  { opacity: 1.0; }
]]>
</style>
<script type="application/ecmascript"><![CDATA[
document.addEventListener('DOMContentLoaded', (event) => {
  highlightEdges();
  highlightAdjacentNodes();
});
]]></script>
</svg>
