<?xml version="1.0" encoding="UTF-8" standalone="no"?>
<!DOCTYPE svg PUBLIC "-//W3C//DTD SVG 1.1//EN"
 "http://www.w3.org/Graphics/SVG/1.1/DTD/svg11.dtd">
<!-- Generated by graphviz version 2.43.0 (0)
 -->
<!-- Title: setup Pages: 1 -->
<svg width="420pt" height="249pt"
 viewBox="0.00 0.00 420.00 249.00" xmlns="http://www.w3.org/2000/svg" xmlns:xlink="http://www.w3.org/1999/xlink">

<svg id="main" version="1.1" xmlns="http://www.w3.org/2000/svg" xmlns:xlink="http://www.w3.org/1999/xlink" xml:space="preserve" onload="init(evt)">
<style type="text/css"><![CDATA[
.node, .edge {opacity: 0.7;}
.node.selected, .edge.selected {opacity: 1;}
.edge:hover path { stroke: red; }
.edge:hover polygon { stroke: red; fill: red; }
]]></style>
<script type="application/ecmascript" xlink:href="svg.min.js"/>
<svg id="graph" class="graph">
<g id="graph0" class="graph" transform="scale(1 1) rotate(0) translate(4 245)">
<title>setup</title>
<!-- Node1 -->
<g id="Node000001" class="node">
<title>Node1</title>
<g id="a_Node000001"><a xlink:title="Setup for core 0.">
<polygon fill="#999999" stroke="#666666" points="44,-130 0,-130 0,-111 44,-111 44,-130"/>
<text text-anchor="middle" x="22" y="-118" font-family="Helvetica,sans-Serif" font-size="10.00">setup</text>
</a>
</g>
</g>
<!-- Node2 -->
<g id="Node000002" class="node">
<title>Node2</title>
<g id="a_Node000002"><a xlink:href="classErrorDisplay.html#a25018c85cd6b4055a5e796153b997d13" target="_top" xlink:title="Sets the error code to the given value if the given error is of a higher priority then the current er...">
<polygon fill="white" stroke="#666666" points="222,-241 97,-241 97,-222 222,-222 222,-241"/>
<text text-anchor="middle" x="159.5" y="-229" font-family="Helvetica,sans-Serif" font-size="10.00">ErrorDisplay::addCode</text>
</a>
</g>
</g>
<!-- Node1&#45;&gt;Node2 -->
<g id="edge1_Node000001_Node000002" class="edge">
<title>Node1&#45;&gt;Node2</title>
<g id="a_edge1_Node000001_Node000002"><a xlink:title=" ">
<path fill="none" stroke="#63b8ff" d="M26.06,-130.15C32.64,-149.27 50.01,-191.95 80,-213.5 82.39,-215.22 84.93,-216.78 87.56,-218.19"/>
<polygon fill="#63b8ff" stroke="#63b8ff" points="86.29,-221.46 96.84,-222.46 89.21,-215.1 86.29,-221.46"/>
</a>
</g>
</g>
<!-- Node3 -->
<g id="Node000003" class="node">
<title>Node3</title>
<g id="a_Node000003"><a xlink:href="classSensor.html#a7a1b80d366c585dd9c85992f0ca96d39" target="_top" xlink:title="Get the csv header string associated with this sensor.">
<polygon fill="white" stroke="#666666" points="239,-204 80,-204 80,-185 239,-185 239,-204"/>
<text text-anchor="middle" x="159.5" y="-192" font-family="Helvetica,sans-Serif" font-size="10.00">Sensor::getSensorCSVHeader</text>
</a>
</g>
</g>
<!-- Node1&#45;&gt;Node3 -->
<g id="edge2_Node000001_Node000003" class="edge">
<title>Node1&#45;&gt;Node3</title>
<g id="a_edge2_Node000001_Node000003"><a xlink:title=" ">
<path fill="none" stroke="#63b8ff" d="M29.95,-130.05C39.67,-142.7 58.58,-164.77 80,-176.5 83.32,-178.32 86.82,-179.96 90.42,-181.43"/>
<polygon fill="#63b8ff" stroke="#63b8ff" points="89.54,-184.83 100.14,-184.95 91.93,-178.25 89.54,-184.83"/>
</a>
</g>
</g>
<!-- Node4 -->
<g id="Node000004" class="node">
<title>Node4</title>
<g id="a_Node000004"><a xlink:href="classErrorDisplay.html#a4f9e7e64ffc64711653b539bf3d8d24f" target="_top" xlink:title="Accesses the only instance of ErrorDisplay (Singleton)">
<polygon fill="white" stroke="#666666" points="221,-167 98,-167 98,-148 221,-148 221,-167"/>
<text text-anchor="middle" x="159.5" y="-155" font-family="Helvetica,sans-Serif" font-size="10.00">ErrorDisplay::instance</text>
</a>
</g>
</g>
<!-- Node1&#45;&gt;Node4 -->
<g id="edge3_Node000001_Node000004" class="edge">
<title>Node1&#45;&gt;Node4</title>
<g id="a_edge3_Node000001_Node000004"><a xlink:title=" ">
<path fill="none" stroke="#63b8ff" d="M44.23,-128.12C54.89,-131.8 68.05,-136.15 80,-139.5 87.57,-141.62 95.61,-143.69 103.54,-145.61"/>
<polygon fill="#63b8ff" stroke="#63b8ff" points="102.94,-149.06 113.48,-147.96 104.55,-142.25 102.94,-149.06"/>
</a>
</g>
</g>
<!-- Node5 -->
<g id="Node000005" class="node">
<title>Node5</title>
<g id="a_Node000005"><a xlink:href="classDevice.html#af64c14c9b8d2c9001f81c1ce6776a565" target="_top" xlink:title="Set recovery config (used keep default constructor)">
<polygon fill="white" stroke="#666666" points="224.5,-130 94.5,-130 94.5,-111 224.5,-111 224.5,-130"/>
<text text-anchor="middle" x="159.5" y="-118" font-family="Helvetica,sans-Serif" font-size="10.00">Device::recoveryConfig</text>
</a>
</g>
</g>
<!-- Node1&#45;&gt;Node5 -->
<g id="edge4_Node000001_Node000005" class="edge">
<title>Node1&#45;&gt;Node5</title>
<g id="a_edge4_Node000001_Node000005"><a xlink:title=" ">
<path fill="none" stroke="#63b8ff" d="M44.17,-120.5C55.24,-120.5 69.52,-120.5 84.22,-120.5"/>
<polygon fill="#63b8ff" stroke="#63b8ff" points="84.42,-124 94.42,-120.5 84.42,-117 84.42,-124"/>
</a>
</g>
</g>
<!-- Node8 -->
<g id="Node000008" class="node">
<title>Node8</title>
<g id="a_Node000008"><a xlink:href="classFlashStorage.html#a4890571487bb855dd72c050dc37a73f1" target="_top" xlink:title="Stores a string in flash memory, appending a newline at the end.">
<polygon fill="white" stroke="#666666" points="215,-93 104,-93 104,-74 215,-74 215,-93"/>
<text text-anchor="middle" x="159.5" y="-81" font-family="Helvetica,sans-Serif" font-size="10.00">FlashStorage::store</text>
</a>
</g>
</g>
<!-- Node1&#45;&gt;Node8 -->
<g id="edge7_Node000001_Node000008" class="edge">
<title>Node1&#45;&gt;Node8</title>
<g id="a_edge7_Node000001_Node000008"><a xlink:title=" ">
<path fill="none" stroke="#63b8ff" d="M44.01,-113.49C54.73,-110.01 68,-105.84 80,-102.5 88.64,-100.09 97.86,-97.7 106.83,-95.47"/>
<polygon fill="#63b8ff" stroke="#63b8ff" points="107.93,-98.81 116.81,-93.03 106.26,-92.01 107.93,-98.81"/>
</a>
</g>
</g>
<!-- Node9 -->
<g id="Node000009" class="node">
<title>Node9</title>
<g id="a_Node000009"><a xlink:href="classErrorDisplay.html#a493bde338b369414abffe90e0d49e93b" target="_top" xlink:title="Toggles the level of the error display.">
<polygon fill="white" stroke="#666666" points="216,-56 103,-56 103,-37 216,-37 216,-56"/>
<text text-anchor="middle" x="159.5" y="-44" font-family="Helvetica,sans-Serif" font-size="10.00">ErrorDisplay::toggle</text>
</a>
</g>
</g>
<!-- Node1&#45;&gt;Node9 -->
<g id="edge8_Node000001_Node000009" class="edge">
<title>Node1&#45;&gt;Node9</title>
<g id="a_edge8_Node000001_Node000009"><a xlink:title=" ">
<path fill="none" stroke="#63b8ff" d="M30.34,-110.73C40.23,-98.29 59.03,-77.02 80,-65.5 84.16,-63.21 88.59,-61.2 93.15,-59.43"/>
<polygon fill="#63b8ff" stroke="#63b8ff" points="94.35,-62.72 102.64,-56.12 92.04,-56.11 94.35,-62.72"/>
</a>
</g>
</g>
<!-- Node10 -->
<g id="Node000010" class="node">
<title>Node10</title>
<g id="a_Node000010"><a xlink:href="main_8cpp.html#aa425d367210d5186b9622823077556fb" target="_top" xlink:title="Uses Device abstraction to verify sensors Incompatible with initial header generation.">
<polygon fill="white" stroke="#666666" points="221,-19 98,-19 98,0 221,0 221,-19"/>
<text text-anchor="middle" x="159.5" y="-7" font-family="Helvetica,sans-Serif" font-size="10.00">verifySensorRecovery</text>
</a>
</g>
</g>
<!-- Node1&#45;&gt;Node10 -->
<g id="edge9_Node000001_Node000010" class="edge">
<title>Node1&#45;&gt;Node10</title>
<g id="a_edge9_Node000001_Node000010"><a xlink:title=" ">
<path fill="none" stroke="#63b8ff" d="M26.11,-110.98C32.79,-92.12 50.33,-49.99 80,-28.5 82.67,-26.57 85.51,-24.83 88.47,-23.27"/>
<polygon fill="#63b8ff" stroke="#63b8ff" points="89.99,-26.42 97.64,-19.08 87.09,-20.05 89.99,-26.42"/>
</a>
</g>
</g>
<!-- Node6 -->
<g id="Node000006" class="node">
<title>Node6</title>
<g id="a_Node000006"><a xlink:href="classDevice.html#a55cbddb95f3d79876d10e8d5bc85ba5d" target="_top" xlink:title="Set max_attempts.">
<polygon fill="white" stroke="#666666" points="412,-148 275,-148 275,-129 412,-129 412,-148"/>
<text text-anchor="middle" x="343.5" y="-136" font-family="Helvetica,sans-Serif" font-size="10.00">Device::setMaxAttempts</text>
</a>
</g>
</g>
<!-- Node5&#45;&gt;Node6 -->
<g id="edge5_Node000005_Node000006" class="edge">
<title>Node5&#45;&gt;Node6</title>
<g id="a_edge5_Node000005_Node000006"><a xlink:title=" ">
<path fill="none" stroke="#63b8ff" d="M224.67,-126.85C237.63,-128.13 251.4,-129.49 264.77,-130.81"/>
<polygon fill="#63b8ff" stroke="#63b8ff" points="264.61,-134.31 274.9,-131.81 265.3,-127.35 264.61,-134.31"/>
</a>
</g>
</g>
<!-- Node7 -->
<g id="Node000007" class="node">
<title>Node7</title>
<g id="a_Node000007"><a xlink:href="classDevice.html#ae71d2f19c89f1ebfcd756c030458f3b5" target="_top" xlink:title="Set wait_factor.">
<polygon fill="white" stroke="#666666" points="404.5,-111 282.5,-111 282.5,-92 404.5,-92 404.5,-111"/>
<text text-anchor="middle" x="343.5" y="-99" font-family="Helvetica,sans-Serif" font-size="10.00">Device::setWaitFactor</text>
</a>
</g>
</g>
<!-- Node5&#45;&gt;Node7 -->
<g id="edge6_Node000005_Node000007" class="edge">
<title>Node5&#45;&gt;Node7</title>
<g id="a_edge6_Node000005_Node000007"><a xlink:title=" ">
<path fill="none" stroke="#63b8ff" d="M224.67,-113.8C240.03,-112.2 256.51,-110.48 272.14,-108.85"/>
<polygon fill="#63b8ff" stroke="#63b8ff" points="272.68,-112.31 282.26,-107.79 271.96,-105.35 272.68,-112.31"/>
</a>
</g>
</g>
</g>
</svg>
</svg>

<style type='text/css'>
<![CDATA[
[data-mouse-over-selected='false'] { opacity: 0.7; }
[data-mouse-over-selected='true']  { opacity: 1.0; }
]]>
</style>
<script type="application/ecmascript"><![CDATA[
document.addEventListener('DOMContentLoaded', (event) => {
  highlightEdges();
  highlightAdjacentNodes();
});
]]></script>
</svg>
