<?xml version="1.0" encoding="UTF-8" standalone="no"?>
<!DOCTYPE svg PUBLIC "-//W3C//DTD SVG 1.1//EN"
 "http://www.w3.org/Graphics/SVG/1.1/DTD/svg11.dtd">
<!-- Generated by graphviz version 2.43.0 (0)
 -->
<!-- Title: main.cpp Pages: 1 -->
<svg width="2603pt" height="313pt"
 viewBox="0.00 0.00 2603.26 313.00" xmlns="http://www.w3.org/2000/svg" xmlns:xlink="http://www.w3.org/1999/xlink">
<g id="graph0" class="graph" transform="scale(1 1) rotate(0) translate(4 309)">
<title>main.cpp</title>
<!-- Node1 -->
<g id="Node000001" class="node">
<title>Node1</title>
<g id="a_Node000001"><a xlink:title="Main functions for Core 0, responsible for reading data from sensor peripherals.">
<polygon fill="#999999" stroke="#666666" points="1047,-305 985,-305 985,-286 1047,-286 1047,-305"/>
<text text-anchor="middle" x="1016" y="-293" font-family="Helvetica,sans-Serif" font-size="10.00">main.cpp</text>
</a>
</g>
</g>
<!-- Node2 -->
<g id="Node000002" class="node">
<title>Node2</title>
<g id="a_Node000002"><a xlink:title=" ">
<polygon fill="#e0e0e0" stroke="#999999" points="968.5,-19 905.5,-19 905.5,0 968.5,0 968.5,-19"/>
<text text-anchor="middle" x="937" y="-7" font-family="Helvetica,sans-Serif" font-size="10.00">Arduino.h</text>
</a>
</g>
</g>
<!-- Node1&#45;&gt;Node2 -->
<g id="edge1_Node000001_Node000002" class="edge">
<title>Node1&#45;&gt;Node2</title>
<g id="a_edge1_Node000001_Node000002"><a xlink:title=" ">
<path fill="none" stroke="#63b8ff" d="M984.59,-294.5C848.74,-294.23 311.27,-290.6 148,-250 77.57,-232.49 0,-253.58 0,-181 0,-181 0,-181 0,-118.5 0,-27.09 712.93,-12.97 895.05,-10.86"/>
<polygon fill="#63b8ff" stroke="#63b8ff" points="895.33,-14.36 905.29,-10.75 895.25,-7.36 895.33,-14.36"/>
</a>
</g>
</g>
<!-- Node3 -->
<g id="Node000003" class="node">
<title>Node3</title>
<g id="a_Node000003"><a xlink:href="ErrorDisplay_8h.html" target="_top" xlink:title=" ">
<polygon fill="white" stroke="#666666" points="2478,-250 2394,-250 2394,-231 2478,-231 2478,-250"/>
<text text-anchor="middle" x="2436" y="-238" font-family="Helvetica,sans-Serif" font-size="10.00">ErrorDisplay.h</text>
</a>
</g>
</g>
<!-- Node1&#45;&gt;Node3 -->
<g id="edge2_Node000001_Node000003" class="edge">
<title>Node1&#45;&gt;Node3</title>
<g id="a_edge2_Node000001_Node000003"><a xlink:title=" ">
<path fill="none" stroke="#63b8ff" d="M1047.31,-293.33C1229.48,-286.53 2152.55,-252.08 2383.54,-243.46"/>
<polygon fill="#63b8ff" stroke="#63b8ff" points="2383.83,-246.95 2393.7,-243.08 2383.57,-239.95 2383.83,-246.95"/>
</a>
</g>
</g>
<!-- Node4 -->
<g id="Node000004" class="node">
<title>Node4</title>
<g id="a_Node000004"><a xlink:href="PayloadConfig_8h.html" target="_top" xlink:title="Central location for pinout and config defines.">
<polygon fill="white" stroke="#666666" points="1633.5,-189.5 1538.5,-189.5 1538.5,-170.5 1633.5,-170.5 1633.5,-189.5"/>
<text text-anchor="middle" x="1586" y="-177.5" font-family="Helvetica,sans-Serif" font-size="10.00">PayloadConfig.h</text>
</a>
</g>
</g>
<!-- Node1&#45;&gt;Node4 -->
<g id="edge9_Node000001_Node000004" class="edge">
<title>Node1&#45;&gt;Node4</title>
<g id="a_edge9_Node000001_Node000004"><a xlink:title=" ">
<path fill="none" stroke="#63b8ff" d="M1047.15,-294.39C1113.2,-293.39 1271.6,-286.98 1398,-250 1416.51,-244.59 1419.16,-238.3 1437,-231 1473.64,-216 1516.61,-201.94 1546.97,-192.58"/>
<polygon fill="#63b8ff" stroke="#63b8ff" points="1548.21,-195.86 1556.75,-189.59 1546.16,-189.16 1548.21,-195.86"/>
</a>
</g>
</g>
<!-- Node7 -->
<g id="Node000007" class="node">
<title>Node7</title>
<g id="a_Node000007"><a xlink:href="Logger_8h.html" target="_top" xlink:title=" ">
<polygon fill="white" stroke="#666666" points="966,-74 908,-74 908,-55 966,-55 966,-74"/>
<text text-anchor="middle" x="937" y="-62" font-family="Helvetica,sans-Serif" font-size="10.00">Logger.h</text>
</a>
</g>
</g>
<!-- Node1&#45;&gt;Node7 -->
<g id="edge7_Node000001_Node000007" class="edge">
<title>Node1&#45;&gt;Node7</title>
<g id="a_edge7_Node000001_Node000007"><a xlink:title=" ">
<path fill="none" stroke="#63b8ff" d="M984.96,-293.82C826.94,-290.01 116.97,-268.87 57,-195 48.6,-184.65 48.12,-174.94 57,-165 113.88,-101.33 734.56,-73.24 897.84,-66.92"/>
<polygon fill="#63b8ff" stroke="#63b8ff" points="898.06,-70.42 907.92,-66.54 897.79,-63.42 898.06,-70.42"/>
</a>
</g>
</g>
<!-- Node8 -->
<g id="Node000008" class="node">
<title>Node8</title>
<g id="a_Node000008"><a xlink:href="Sensor_8h.html" target="_top" xlink:title=" ">
<polygon fill="white" stroke="#666666" points="929,-189.5 871,-189.5 871,-170.5 929,-170.5 929,-189.5"/>
<text text-anchor="middle" x="900" y="-177.5" font-family="Helvetica,sans-Serif" font-size="10.00">Sensor.h</text>
</a>
</g>
</g>
<!-- Node1&#45;&gt;Node8 -->
<g id="edge10_Node000001_Node000008" class="edge">
<title>Node1&#45;&gt;Node8</title>
<g id="a_edge10_Node000001_Node000008"><a xlink:title=" ">
<path fill="none" stroke="#63b8ff" d="M1015.51,-285.69C1014.34,-272.41 1010.38,-247.12 997,-231 987.81,-219.93 955.4,-204.4 930.54,-193.6"/>
<polygon fill="#63b8ff" stroke="#63b8ff" points="931.69,-190.28 921.12,-189.57 928.93,-196.72 931.69,-190.28"/>
</a>
</g>
</g>
<!-- Node10 -->
<g id="Node000010" class="node">
<title>Node10</title>
<g id="a_Node000010"><a xlink:href="AS7331Sensor_8h.html" target="_top" xlink:title=" ">
<polygon fill="white" stroke="#666666" points="763.5,-250 668.5,-250 668.5,-231 763.5,-231 763.5,-250"/>
<text text-anchor="middle" x="716" y="-238" font-family="Helvetica,sans-Serif" font-size="10.00">AS7331Sensor.h</text>
</a>
</g>
</g>
<!-- Node1&#45;&gt;Node10 -->
<g id="edge16_Node000001_Node000010" class="edge">
<title>Node1&#45;&gt;Node10</title>
<g id="a_edge16_Node000001_Node000010"><a xlink:title=" ">
<path fill="none" stroke="#63b8ff" d="M984.74,-288.98C934.92,-280.18 836.7,-262.82 773.81,-251.71"/>
<polygon fill="#63b8ff" stroke="#63b8ff" points="774.1,-248.21 763.65,-249.92 772.89,-255.1 774.1,-248.21"/>
</a>
</g>
</g>
<!-- Node14 -->
<g id="Node000014" class="node">
<title>Node14</title>
<g id="a_Node000014"><a xlink:href="BME280Sensor_8h.html" target="_top" xlink:title=" ">
<polygon fill="white" stroke="#666666" points="426,-250 328,-250 328,-231 426,-231 426,-250"/>
<text text-anchor="middle" x="377" y="-238" font-family="Helvetica,sans-Serif" font-size="10.00">BME280Sensor.h</text>
</a>
</g>
</g>
<!-- Node1&#45;&gt;Node14 -->
<g id="edge21_Node000001_Node000014" class="edge">
<title>Node1&#45;&gt;Node14</title>
<g id="a_edge21_Node000001_Node000014"><a xlink:title=" ">
<path fill="none" stroke="#63b8ff" d="M984.75,-292.87C898.94,-288.23 652.25,-273.79 436.28,-250.06"/>
<polygon fill="#63b8ff" stroke="#63b8ff" points="436.34,-246.55 426.02,-248.93 435.57,-253.51 436.34,-246.55"/>
</a>
</g>
</g>
<!-- Node16 -->
<g id="Node000016" class="node">
<title>Node16</title>
<g id="a_Node000016"><a xlink:href="BME680Sensor_8h.html" target="_top" xlink:title=" ">
<polygon fill="white" stroke="#666666" points="1264,-250 1166,-250 1166,-231 1264,-231 1264,-250"/>
<text text-anchor="middle" x="1215" y="-238" font-family="Helvetica,sans-Serif" font-size="10.00">BME680Sensor.h</text>
</a>
</g>
</g>
<!-- Node1&#45;&gt;Node16 -->
<g id="edge24_Node000001_Node000016" class="edge">
<title>Node1&#45;&gt;Node16</title>
<g id="a_edge24_Node000001_Node000016"><a xlink:title=" ">
<path fill="none" stroke="#63b8ff" d="M1047.09,-286.22C1081.01,-277.19 1135.48,-262.68 1173.14,-252.65"/>
<polygon fill="#63b8ff" stroke="#63b8ff" points="1174.04,-256.03 1182.81,-250.07 1172.24,-249.27 1174.04,-256.03"/>
</a>
</g>
</g>
<!-- Node20 -->
<g id="Node000020" class="node">
<title>Node20</title>
<g id="a_Node000020"><a xlink:href="ENS160Sensor_8h.html" target="_top" xlink:title=" ">
<polygon fill="white" stroke="#666666" points="539.5,-250 444.5,-250 444.5,-231 539.5,-231 539.5,-250"/>
<text text-anchor="middle" x="492" y="-238" font-family="Helvetica,sans-Serif" font-size="10.00">ENS160Sensor.h</text>
</a>
</g>
</g>
<!-- Node1&#45;&gt;Node20 -->
<g id="edge32_Node000001_Node000020" class="edge">
<title>Node1&#45;&gt;Node20</title>
<g id="a_edge32_Node000001_Node000020"><a xlink:title=" ">
<path fill="none" stroke="#63b8ff" d="M984.99,-292.15C911.34,-286.45 719.91,-270.88 549.77,-250.16"/>
<polygon fill="#63b8ff" stroke="#63b8ff" points="549.99,-246.66 539.63,-248.92 549.13,-253.61 549.99,-246.66"/>
</a>
</g>
</g>
<!-- Node22 -->
<g id="Node000022" class="node">
<title>Node22</title>
<g id="a_Node000022"><a xlink:href="ICM20948Sensor_8h.html" target="_top" xlink:title=" ">
<polygon fill="white" stroke="#666666" points="1389.5,-250 1282.5,-250 1282.5,-231 1389.5,-231 1389.5,-250"/>
<text text-anchor="middle" x="1336" y="-238" font-family="Helvetica,sans-Serif" font-size="10.00">ICM20948Sensor.h</text>
</a>
</g>
</g>
<!-- Node1&#45;&gt;Node22 -->
<g id="edge36_Node000001_Node000022" class="edge">
<title>Node1&#45;&gt;Node22</title>
<g id="a_edge36_Node000001_Node000022"><a xlink:title=" ">
<path fill="none" stroke="#63b8ff" d="M1047.27,-289.32C1099.7,-280.64 1206.27,-262.99 1274.24,-251.73"/>
<polygon fill="#63b8ff" stroke="#63b8ff" points="1275.1,-255.13 1284.39,-250.05 1273.96,-248.23 1275.1,-255.13"/>
</a>
</g>
</g>
<!-- Node25 -->
<g id="Node000025" class="node">
<title>Node25</title>
<g id="a_Node000025"><a xlink:href="INA260Sensor_8h.html" target="_top" xlink:title=" ">
<polygon fill="white" stroke="#666666" points="650.5,-250 557.5,-250 557.5,-231 650.5,-231 650.5,-250"/>
<text text-anchor="middle" x="604" y="-238" font-family="Helvetica,sans-Serif" font-size="10.00">INA260Sensor.h</text>
</a>
</g>
</g>
<!-- Node1&#45;&gt;Node25 -->
<g id="edge43_Node000001_Node000025" class="edge">
<title>Node1&#45;&gt;Node25</title>
<g id="a_edge43_Node000001_Node000025"><a xlink:title=" ">
<path fill="none" stroke="#63b8ff" d="M984.92,-290.94C924.52,-283.94 786.83,-267.68 660.99,-250.25"/>
<polygon fill="#63b8ff" stroke="#63b8ff" points="661.18,-246.74 650.79,-248.83 660.22,-253.67 661.18,-246.74"/>
</a>
</g>
</g>
<!-- Node27 -->
<g id="Node000027" class="node">
<title>Node27</title>
<g id="a_Node000027"><a xlink:href="LSM9DS1Sensor_8h.html" target="_top" xlink:title=" ">
<polygon fill="white" stroke="#666666" points="1148,-250 1044,-250 1044,-231 1148,-231 1148,-250"/>
<text text-anchor="middle" x="1096" y="-238" font-family="Helvetica,sans-Serif" font-size="10.00">LSM9DS1Sensor.h</text>
</a>
</g>
</g>
<!-- Node1&#45;&gt;Node27 -->
<g id="edge48_Node000001_Node000027" class="edge">
<title>Node1&#45;&gt;Node27</title>
<g id="a_edge48_Node000001_Node000027"><a xlink:title=" ">
<path fill="none" stroke="#63b8ff" d="M1028.85,-285.98C1041.14,-277.84 1059.91,-265.41 1074.48,-255.76"/>
<polygon fill="#63b8ff" stroke="#63b8ff" points="1076.51,-258.61 1082.91,-250.17 1072.64,-252.78 1076.51,-258.61"/>
</a>
</g>
</g>
<!-- Node29 -->
<g id="Node000029" class="node">
<title>Node29</title>
<g id="a_Node000029"><a xlink:href="MTK3339Sensor_8h.html" target="_top" xlink:title=" ">
<polygon fill="white" stroke="#666666" points="886,-250 782,-250 782,-231 886,-231 886,-250"/>
<text text-anchor="middle" x="834" y="-238" font-family="Helvetica,sans-Serif" font-size="10.00">MTK3339Sensor.h</text>
</a>
</g>
</g>
<!-- Node1&#45;&gt;Node29 -->
<g id="edge54_Node000001_Node000029" class="edge">
<title>Node1&#45;&gt;Node29</title>
<g id="a_edge54_Node000001_Node000029"><a xlink:title=" ">
<path fill="none" stroke="#63b8ff" d="M986.76,-285.98C955.94,-277.01 907.22,-262.82 873.11,-252.89"/>
<polygon fill="#63b8ff" stroke="#63b8ff" points="874.05,-249.52 863.47,-250.08 872.09,-256.24 874.05,-249.52"/>
</a>
</g>
</g>
<!-- Node31 -->
<g id="Node000031" class="node">
<title>Node31</title>
<g id="a_Node000031"><a xlink:href="PCF8523Sensor_8h.html" target="_top" xlink:title=" ">
<polygon fill="white" stroke="#666666" points="1547.5,-250 1446.5,-250 1446.5,-231 1547.5,-231 1547.5,-250"/>
<text text-anchor="middle" x="1497" y="-238" font-family="Helvetica,sans-Serif" font-size="10.00">PCF8523Sensor.h</text>
</a>
</g>
</g>
<!-- Node1&#45;&gt;Node31 -->
<g id="edge60_Node000001_Node000031" class="edge">
<title>Node1&#45;&gt;Node31</title>
<g id="a_edge60_Node000001_Node000031"><a xlink:title=" ">
<path fill="none" stroke="#63b8ff" d="M1047.08,-291.43C1116.28,-284.53 1288.29,-267.08 1432,-250 1433.3,-249.85 1434.62,-249.69 1435.95,-249.53"/>
<polygon fill="#63b8ff" stroke="#63b8ff" points="1436.78,-252.95 1446.27,-248.25 1435.92,-246 1436.78,-252.95"/>
</a>
</g>
</g>
<!-- Node33 -->
<g id="Node000033" class="node">
<title>Node33</title>
<g id="a_Node000033"><a xlink:href="SGP30Sensor_8h.html" target="_top" xlink:title=" ">
<polygon fill="white" stroke="#666666" points="2101.5,-250 2012.5,-250 2012.5,-231 2101.5,-231 2101.5,-250"/>
<text text-anchor="middle" x="2057" y="-238" font-family="Helvetica,sans-Serif" font-size="10.00">SGP30Sensor.h</text>
</a>
</g>
</g>
<!-- Node1&#45;&gt;Node33 -->
<g id="edge63_Node000001_Node000033" class="edge">
<title>Node1&#45;&gt;Node33</title>
<g id="a_edge63_Node000001_Node000033"><a xlink:title=" ">
<path fill="none" stroke="#63b8ff" d="M1047.16,-292.91C1193.49,-285.46 1813.39,-253.9 2002.2,-244.29"/>
<polygon fill="#63b8ff" stroke="#63b8ff" points="2002.63,-247.77 2012.44,-243.77 2002.27,-240.78 2002.63,-247.77"/>
</a>
</g>
</g>
<!-- Node36 -->
<g id="Node000036" class="node">
<title>Node36</title>
<g id="a_Node000036"><a xlink:href="TempSensor_8h.html" target="_top" xlink:title=" ">
<polygon fill="white" stroke="#666666" points="988,-250 904,-250 904,-231 988,-231 988,-250"/>
<text text-anchor="middle" x="946" y="-238" font-family="Helvetica,sans-Serif" font-size="10.00">TempSensor.h</text>
</a>
</g>
</g>
<!-- Node1&#45;&gt;Node36 -->
<g id="edge69_Node000001_Node000036" class="edge">
<title>Node1&#45;&gt;Node36</title>
<g id="a_edge69_Node000001_Node000036"><a xlink:title=" ">
<path fill="none" stroke="#63b8ff" d="M1004.75,-285.98C994.2,-278 978.2,-265.88 965.56,-256.31"/>
<polygon fill="#63b8ff" stroke="#63b8ff" points="967.54,-253.42 957.45,-250.17 963.31,-259 967.54,-253.42"/>
</a>
</g>
</g>
<!-- Node37 -->
<g id="Node000037" class="node">
<title>Node37</title>
<g id="a_Node000037"><a xlink:href="FlashStorage_8h.html" target="_top" xlink:title=" ">
<polygon fill="white" stroke="#666666" points="1841.5,-250 1752.5,-250 1752.5,-231 1841.5,-231 1841.5,-250"/>
<text text-anchor="middle" x="1797" y="-238" font-family="Helvetica,sans-Serif" font-size="10.00">FlashStorage.h</text>
</a>
</g>
</g>
<!-- Node1&#45;&gt;Node37 -->
<g id="edge71_Node000001_Node000037" class="edge">
<title>Node1&#45;&gt;Node37</title>
<g id="a_edge71_Node000001_Node000037"><a xlink:title=" ">
<path fill="none" stroke="#63b8ff" d="M1047.1,-292.39C1165.66,-284.34 1590.26,-255.53 1742.33,-245.21"/>
<polygon fill="#63b8ff" stroke="#63b8ff" points="1742.64,-248.7 1752.38,-244.53 1742.16,-241.71 1742.64,-248.7"/>
</a>
</g>
</g>
<!-- Node3&#45;&gt;Node2 -->
<g id="edge3_Node000003_Node000002" class="edge">
<title>Node3&#45;&gt;Node2</title>
<g id="a_edge3_Node000003_Node000002"><a xlink:title=" ">
<path fill="none" stroke="#63b8ff" d="M2478.09,-234.04C2533.85,-225.16 2621.37,-204.45 2587,-165 2477.99,-39.89 1225.52,-14.8 978.98,-11.06"/>
<polygon fill="#63b8ff" stroke="#63b8ff" points="978.71,-7.56 968.66,-10.91 978.61,-14.56 978.71,-7.56"/>
</a>
</g>
</g>
<!-- Node3&#45;&gt;Node4 -->
<g id="edge4_Node000003_Node000004" class="edge">
<title>Node3&#45;&gt;Node4</title>
<g id="a_edge4_Node000003_Node000004"><a xlink:title=" ">
<path fill="none" stroke="#63b8ff" d="M2393.77,-238.16C2251.43,-233.49 1789.94,-216.98 1643,-195 1637.52,-194.18 1631.8,-193.08 1626.18,-191.85"/>
<polygon fill="#63b8ff" stroke="#63b8ff" points="1626.8,-188.4 1616.26,-189.53 1625.2,-195.21 1626.8,-188.4"/>
</a>
</g>
</g>
<!-- Node5 -->
<g id="Node000005" class="node">
<title>Node5</title>
<g id="a_Node000005"><a xlink:title=" ">
<polygon fill="#e0e0e0" stroke="#999999" points="2483.5,-189.5 2388.5,-189.5 2388.5,-170.5 2483.5,-170.5 2483.5,-189.5"/>
<text text-anchor="middle" x="2436" y="-177.5" font-family="Helvetica,sans-Serif" font-size="10.00">pico/multicore.h</text>
</a>
</g>
</g>
<!-- Node3&#45;&gt;Node5 -->
<g id="edge5_Node000003_Node000005" class="edge">
<title>Node3&#45;&gt;Node5</title>
<g id="a_edge5_Node000003_Node000005"><a xlink:title=" ">
<path fill="none" stroke="#63b8ff" d="M2436,-230.87C2436,-222.75 2436,-210.31 2436,-199.89"/>
<polygon fill="#63b8ff" stroke="#63b8ff" points="2439.5,-199.67 2436,-189.67 2432.5,-199.67 2439.5,-199.67"/>
</a>
</g>
</g>
<!-- Node6 -->
<g id="Node000006" class="node">
<title>Node6</title>
<g id="a_Node000006"><a xlink:title=" ">
<polygon fill="#e0e0e0" stroke="#999999" points="2578,-189.5 2502,-189.5 2502,-170.5 2578,-170.5 2578,-189.5"/>
<text text-anchor="middle" x="2540" y="-177.5" font-family="Helvetica,sans-Serif" font-size="10.00">pico/stdlib.h</text>
</a>
</g>
</g>
<!-- Node3&#45;&gt;Node6 -->
<g id="edge6_Node000003_Node000006" class="edge">
<title>Node3&#45;&gt;Node6</title>
<g id="a_edge6_Node000003_Node000006"><a xlink:title=" ">
<path fill="none" stroke="#63b8ff" d="M2451.35,-230.87C2468.32,-221.32 2495.9,-205.81 2515.79,-194.62"/>
<polygon fill="#63b8ff" stroke="#63b8ff" points="2517.59,-197.62 2524.59,-189.67 2514.16,-191.52 2517.59,-197.62"/>
</a>
</g>
</g>
<!-- Node7&#45;&gt;Node2 -->
<g id="edge8_Node000007_Node000002" class="edge">
<title>Node7&#45;&gt;Node2</title>
<g id="a_edge8_Node000007_Node000002"><a xlink:title=" ">
<path fill="none" stroke="#63b8ff" d="M937,-54.75C937,-47.8 937,-37.85 937,-29.13"/>
<polygon fill="#63b8ff" stroke="#63b8ff" points="940.5,-29.09 937,-19.09 933.5,-29.09 940.5,-29.09"/>
</a>
</g>
</g>
<!-- Node8&#45;&gt;Node2 -->
<g id="edge11_Node000008_Node000002" class="edge">
<title>Node8&#45;&gt;Node2</title>
<g id="a_edge11_Node000008_Node000002"><a xlink:title=" ">
<path fill="none" stroke="#63b8ff" d="M897.88,-170.22C893.27,-149.42 883.95,-95.8 899,-55 903.06,-43.99 911.19,-33.86 918.9,-26.05"/>
<polygon fill="#63b8ff" stroke="#63b8ff" points="921.42,-28.48 926.29,-19.07 916.61,-23.39 921.42,-28.48"/>
</a>
</g>
</g>
<!-- Node8&#45;&gt;Node7 -->
<g id="edge15_Node000008_Node000007" class="edge">
<title>Node8&#45;&gt;Node7</title>
<g id="a_edge15_Node000008_Node000007"><a xlink:title=" ">
<path fill="none" stroke="#63b8ff" d="M902.78,-170.47C908.75,-152.15 922.92,-108.68 931.03,-83.81"/>
<polygon fill="#63b8ff" stroke="#63b8ff" points="934.41,-84.72 934.19,-74.13 927.76,-82.55 934.41,-84.72"/>
</a>
</g>
</g>
<!-- Node9 -->
<g id="Node000009" class="node">
<title>Node9</title>
<g id="a_Node000009"><a xlink:href="Device_8h.html" target="_top" xlink:title=" ">
<polygon fill="white" stroke="#666666" points="1019.5,-129 960.5,-129 960.5,-110 1019.5,-110 1019.5,-129"/>
<text text-anchor="middle" x="990" y="-117" font-family="Helvetica,sans-Serif" font-size="10.00">Device.h</text>
</a>
</g>
</g>
<!-- Node8&#45;&gt;Node9 -->
<g id="edge12_Node000008_Node000009" class="edge">
<title>Node8&#45;&gt;Node9</title>
<g id="a_edge12_Node000008_Node000009"><a xlink:title=" ">
<path fill="none" stroke="#63b8ff" d="M913.28,-170.37C927.64,-161.04 950.76,-146.01 967.87,-134.88"/>
<polygon fill="#63b8ff" stroke="#63b8ff" points="970.19,-137.55 976.67,-129.17 966.37,-131.68 970.19,-137.55"/>
</a>
</g>
</g>
<!-- Node9&#45;&gt;Node2 -->
<g id="edge13_Node000009_Node000002" class="edge">
<title>Node9&#45;&gt;Node2</title>
<g id="a_edge13_Node000009_Node000002"><a xlink:title=" ">
<path fill="none" stroke="#63b8ff" d="M989.26,-109.84C987.89,-97.19 984.22,-73.18 975,-55 969.62,-44.4 961.22,-34.19 953.69,-26.24"/>
<polygon fill="#63b8ff" stroke="#63b8ff" points="956.12,-23.72 946.58,-19.1 951.16,-28.65 956.12,-23.72"/>
</a>
</g>
</g>
<!-- Node9&#45;&gt;Node7 -->
<g id="edge14_Node000009_Node000007" class="edge">
<title>Node9&#45;&gt;Node7</title>
<g id="a_edge14_Node000009_Node000007"><a xlink:title=" ">
<path fill="none" stroke="#63b8ff" d="M981.25,-109.75C973.53,-102.03 962.1,-90.6 952.78,-81.28"/>
<polygon fill="#63b8ff" stroke="#63b8ff" points="955.14,-78.69 945.59,-74.09 950.19,-83.64 955.14,-78.69"/>
</a>
</g>
</g>
<!-- Node10&#45;&gt;Node8 -->
<g id="edge20_Node000010_Node000008" class="edge">
<title>Node10&#45;&gt;Node8</title>
<g id="a_edge20_Node000010_Node000008"><a xlink:title=" ">
<path fill="none" stroke="#63b8ff" d="M745.8,-230.96C775.42,-222.34 822.07,-208.43 862,-195 863.9,-194.36 865.85,-193.69 867.81,-193"/>
<polygon fill="#63b8ff" stroke="#63b8ff" points="869.34,-196.17 877.57,-189.5 866.98,-189.58 869.34,-196.17"/>
</a>
</g>
</g>
<!-- Node11 -->
<g id="Node000011" class="node">
<title>Node11</title>
<g id="a_Node000011"><a xlink:title=" ">
<polygon fill="#e0e0e0" stroke="#999999" points="600.5,-189.5 487.5,-189.5 487.5,-170.5 600.5,-170.5 600.5,-189.5"/>
<text text-anchor="middle" x="544" y="-177.5" font-family="Helvetica,sans-Serif" font-size="10.00">SparkFun_AS7331.h</text>
</a>
</g>
</g>
<!-- Node10&#45;&gt;Node11 -->
<g id="edge17_Node000010_Node000011" class="edge">
<title>Node10&#45;&gt;Node11</title>
<g id="a_edge17_Node000010_Node000011"><a xlink:title=" ">
<path fill="none" stroke="#63b8ff" d="M690.99,-230.99C661.44,-220.94 612.09,-204.16 578.81,-192.84"/>
<polygon fill="#63b8ff" stroke="#63b8ff" points="579.63,-189.42 569.04,-189.52 577.38,-196.05 579.63,-189.42"/>
</a>
</g>
</g>
<!-- Node12 -->
<g id="Node000012" class="node">
<title>Node12</title>
<g id="a_Node000012"><a xlink:title=" ">
<polygon fill="#e0e0e0" stroke="#999999" points="667,-189.5 619,-189.5 619,-170.5 667,-170.5 667,-189.5"/>
<text text-anchor="middle" x="643" y="-177.5" font-family="Helvetica,sans-Serif" font-size="10.00">Wire.h</text>
</a>
</g>
</g>
<!-- Node10&#45;&gt;Node12 -->
<g id="edge18_Node000010_Node000012" class="edge">
<title>Node10&#45;&gt;Node12</title>
<g id="a_edge18_Node000010_Node000012"><a xlink:title=" ">
<path fill="none" stroke="#63b8ff" d="M705.23,-230.87C693.8,-221.71 675.52,-207.06 661.72,-196.01"/>
<polygon fill="#63b8ff" stroke="#63b8ff" points="663.81,-193.19 653.82,-189.67 659.43,-198.65 663.81,-193.19"/>
</a>
</g>
</g>
<!-- Node13 -->
<g id="Node000013" class="node">
<title>Node13</title>
<g id="a_Node000013"><a xlink:title=" ">
<polygon fill="#e0e0e0" stroke="#999999" points="1134.5,-189.5 1081.5,-189.5 1081.5,-170.5 1134.5,-170.5 1134.5,-189.5"/>
<text text-anchor="middle" x="1108" y="-177.5" font-family="Helvetica,sans-Serif" font-size="10.00">string.h</text>
</a>
</g>
</g>
<!-- Node10&#45;&gt;Node13 -->
<g id="edge19_Node000010_Node000013" class="edge">
<title>Node10&#45;&gt;Node13</title>
<g id="a_edge19_Node000010_Node000013"><a xlink:title=" ">
<path fill="none" stroke="#63b8ff" d="M763.57,-232.3C766.76,-231.85 769.93,-231.41 773,-231 905.65,-213.13 942.16,-227.51 1072,-195 1074.31,-194.42 1076.66,-193.74 1079.01,-192.98"/>
<polygon fill="#63b8ff" stroke="#63b8ff" points="1080.24,-196.26 1088.48,-189.61 1077.89,-189.67 1080.24,-196.26"/>
</a>
</g>
</g>
<!-- Node14&#45;&gt;Node8 -->
<g id="edge22_Node000014_Node000008" class="edge">
<title>Node14&#45;&gt;Node8</title>
<g id="a_edge22_Node000014_Node000008"><a xlink:title=" ">
<path fill="none" stroke="#63b8ff" d="M426.02,-232.1C429.06,-231.71 432.07,-231.34 435,-231 624.2,-209.18 676.08,-236.29 862,-195 864.67,-194.41 867.42,-193.67 870.14,-192.84"/>
<polygon fill="#63b8ff" stroke="#63b8ff" points="871.44,-196.1 879.79,-189.59 869.2,-189.47 871.44,-196.1"/>
</a>
</g>
</g>
<!-- Node15 -->
<g id="Node000015" class="node">
<title>Node15</title>
<g id="a_Node000015"><a xlink:title=" ">
<polygon fill="#e0e0e0" stroke="#999999" points="176,-189.5 66,-189.5 66,-170.5 176,-170.5 176,-189.5"/>
<text text-anchor="middle" x="121" y="-177.5" font-family="Helvetica,sans-Serif" font-size="10.00">SparkFunBME280.h</text>
</a>
</g>
</g>
<!-- Node14&#45;&gt;Node15 -->
<g id="edge23_Node000014_Node000015" class="edge">
<title>Node14&#45;&gt;Node15</title>
<g id="a_edge23_Node000014_Node000015"><a xlink:title=" ">
<path fill="none" stroke="#63b8ff" d="M339.78,-230.99C294.37,-220.62 217.56,-203.07 168.09,-191.76"/>
<polygon fill="#63b8ff" stroke="#63b8ff" points="168.8,-188.33 158.27,-189.52 167.24,-195.16 168.8,-188.33"/>
</a>
</g>
</g>
<!-- Node16&#45;&gt;Node4 -->
<g id="edge30_Node000016_Node000004" class="edge">
<title>Node16&#45;&gt;Node4</title>
<g id="a_edge30_Node000016_Node000004"><a xlink:title=" ">
<path fill="none" stroke="#63b8ff" d="M1264.04,-232.29C1267.07,-231.85 1270.08,-231.42 1273,-231 1387.17,-214.64 1416.78,-217.02 1530,-195 1534.73,-194.08 1539.66,-193.01 1544.55,-191.88"/>
<polygon fill="#63b8ff" stroke="#63b8ff" points="1545.53,-195.25 1554.44,-189.51 1543.9,-188.44 1545.53,-195.25"/>
</a>
</g>
</g>
<!-- Node16&#45;&gt;Node8 -->
<g id="edge31_Node000016_Node000008" class="edge">
<title>Node16&#45;&gt;Node8</title>
<g id="a_edge31_Node000016_Node000008"><a xlink:title=" ">
<path fill="none" stroke="#63b8ff" d="M1165.83,-232.13C1092.2,-221.01 959.59,-200.65 938,-195 935.56,-194.36 933.06,-193.63 930.56,-192.83"/>
<polygon fill="#63b8ff" stroke="#63b8ff" points="931.67,-189.51 921.07,-189.59 929.4,-196.14 931.67,-189.51"/>
</a>
</g>
</g>
<!-- Node16&#45;&gt;Node12 -->
<g id="edge28_Node000016_Node000012" class="edge">
<title>Node16&#45;&gt;Node12</title>
<g id="a_edge28_Node000016_Node000012"><a xlink:title=" ">
<path fill="none" stroke="#63b8ff" d="M1165.98,-232.09C1162.94,-231.7 1159.93,-231.33 1157,-231 960.73,-208.67 909.66,-222.15 714,-195 701.87,-193.32 688.69,-190.89 677.01,-188.52"/>
<polygon fill="#63b8ff" stroke="#63b8ff" points="677.7,-185.09 667.2,-186.48 676.28,-191.94 677.7,-185.09"/>
</a>
</g>
</g>
<!-- Node16&#45;&gt;Node13 -->
<g id="edge29_Node000016_Node000013" class="edge">
<title>Node16&#45;&gt;Node13</title>
<g id="a_edge29_Node000016_Node000013"><a xlink:title=" ">
<path fill="none" stroke="#63b8ff" d="M1199.21,-230.87C1181.67,-221.28 1153.12,-205.67 1132.63,-194.47"/>
<polygon fill="#63b8ff" stroke="#63b8ff" points="1134.31,-191.39 1123.85,-189.67 1130.95,-197.54 1134.31,-191.39"/>
</a>
</g>
</g>
<!-- Node17 -->
<g id="Node000017" class="node">
<title>Node17</title>
<g id="a_Node000017"><a xlink:title=" ">
<polygon fill="#e0e0e0" stroke="#999999" points="1383,-189.5 1273,-189.5 1273,-170.5 1383,-170.5 1383,-189.5"/>
<text text-anchor="middle" x="1328" y="-177.5" font-family="Helvetica,sans-Serif" font-size="10.00">Adafruit_BME680.h</text>
</a>
</g>
</g>
<!-- Node16&#45;&gt;Node17 -->
<g id="edge25_Node000016_Node000017" class="edge">
<title>Node16&#45;&gt;Node17</title>
<g id="a_edge25_Node000016_Node000017"><a xlink:title=" ">
<path fill="none" stroke="#63b8ff" d="M1231.67,-230.87C1250.28,-221.23 1280.62,-205.53 1302.28,-194.31"/>
<polygon fill="#63b8ff" stroke="#63b8ff" points="1303.99,-197.37 1311.26,-189.67 1300.77,-191.16 1303.99,-197.37"/>
</a>
</g>
</g>
<!-- Node18 -->
<g id="Node000018" class="node">
<title>Node18</title>
<g id="a_Node000018"><a xlink:title=" ">
<polygon fill="#e0e0e0" stroke="#999999" points="1255,-189.5 1153,-189.5 1153,-170.5 1255,-170.5 1255,-189.5"/>
<text text-anchor="middle" x="1204" y="-177.5" font-family="Helvetica,sans-Serif" font-size="10.00">Adafruit_Sensor.h</text>
</a>
</g>
</g>
<!-- Node16&#45;&gt;Node18 -->
<g id="edge26_Node000016_Node000018" class="edge">
<title>Node16&#45;&gt;Node18</title>
<g id="a_edge26_Node000016_Node000018"><a xlink:title=" ">
<path fill="none" stroke="#63b8ff" d="M1213.38,-230.87C1211.83,-222.66 1209.46,-210.04 1207.49,-199.55"/>
<polygon fill="#63b8ff" stroke="#63b8ff" points="1210.92,-198.85 1205.63,-189.67 1204.04,-200.14 1210.92,-198.85"/>
</a>
</g>
</g>
<!-- Node19 -->
<g id="Node000019" class="node">
<title>Node19</title>
<g id="a_Node000019"><a xlink:title=" ">
<polygon fill="#e0e0e0" stroke="#999999" points="1817.5,-189.5 1776.5,-189.5 1776.5,-170.5 1817.5,-170.5 1817.5,-189.5"/>
<text text-anchor="middle" x="1797" y="-177.5" font-family="Helvetica,sans-Serif" font-size="10.00">SPI.h</text>
</a>
</g>
</g>
<!-- Node16&#45;&gt;Node19 -->
<g id="edge27_Node000016_Node000019" class="edge">
<title>Node16&#45;&gt;Node19</title>
<g id="a_edge27_Node000016_Node000019"><a xlink:title=" ">
<path fill="none" stroke="#63b8ff" d="M1264.02,-232.06C1267.05,-231.68 1270.07,-231.32 1273,-231 1492.27,-206.99 1554.9,-251.96 1768,-195 1769.49,-194.6 1770.99,-194.13 1772.48,-193.6"/>
<polygon fill="#63b8ff" stroke="#63b8ff" points="1774.23,-196.66 1782.07,-189.53 1771.49,-190.22 1774.23,-196.66"/>
</a>
</g>
</g>
<!-- Node20&#45;&gt;Node8 -->
<g id="edge34_Node000020_Node000008" class="edge">
<title>Node20&#45;&gt;Node8</title>
<g id="a_edge34_Node000020_Node000008"><a xlink:title=" ">
<path fill="none" stroke="#63b8ff" d="M539.64,-232.15C542.47,-231.75 545.27,-231.36 548,-231 687.24,-212.46 725.34,-227.51 862,-195 864.51,-194.4 867.09,-193.69 869.66,-192.9"/>
<polygon fill="#63b8ff" stroke="#63b8ff" points="871.02,-196.14 879.37,-189.62 868.78,-189.5 871.02,-196.14"/>
</a>
</g>
</g>
<!-- Node20&#45;&gt;Node12 -->
<g id="edge33_Node000020_Node000012" class="edge">
<title>Node20&#45;&gt;Node12</title>
<g id="a_edge33_Node000020_Node000012"><a xlink:title=" ">
<path fill="none" stroke="#63b8ff" d="M514.94,-230.99C538.58,-222.16 576.47,-207.88 609,-195 610.37,-194.46 611.77,-193.9 613.19,-193.33"/>
<polygon fill="#63b8ff" stroke="#63b8ff" points="614.59,-196.54 622.54,-189.53 611.96,-190.05 614.59,-196.54"/>
</a>
</g>
</g>
<!-- Node21 -->
<g id="Node000021" class="node">
<title>Node21</title>
<g id="a_Node000021"><a xlink:title=" ">
<polygon fill="#e0e0e0" stroke="#999999" points="307.5,-189.5 194.5,-189.5 194.5,-170.5 307.5,-170.5 307.5,-189.5"/>
<text text-anchor="middle" x="251" y="-177.5" font-family="Helvetica,sans-Serif" font-size="10.00">SparkFun_ENS160.h</text>
</a>
</g>
</g>
<!-- Node20&#45;&gt;Node21 -->
<g id="edge35_Node000020_Node000021" class="edge">
<title>Node20&#45;&gt;Node21</title>
<g id="a_edge35_Node000020_Node000021"><a xlink:title=" ">
<path fill="none" stroke="#63b8ff" d="M456.96,-230.99C414.39,-220.66 342.51,-203.21 295.91,-191.9"/>
<polygon fill="#63b8ff" stroke="#63b8ff" points="296.63,-188.47 286.09,-189.52 294.98,-195.28 296.63,-188.47"/>
</a>
</g>
</g>
<!-- Node22&#45;&gt;Node4 -->
<g id="edge41_Node000022_Node000004" class="edge">
<title>Node22&#45;&gt;Node4</title>
<g id="a_edge41_Node000022_Node000004"><a xlink:title=" ">
<path fill="none" stroke="#63b8ff" d="M1374.33,-230.94C1413.5,-222.14 1476.07,-207.93 1530,-195 1534.06,-194.03 1538.27,-193 1542.49,-191.96"/>
<polygon fill="#63b8ff" stroke="#63b8ff" points="1543.4,-195.35 1552.27,-189.55 1541.72,-188.55 1543.4,-195.35"/>
</a>
</g>
</g>
<!-- Node22&#45;&gt;Node8 -->
<g id="edge42_Node000022_Node000008" class="edge">
<title>Node22&#45;&gt;Node8</title>
<g id="a_edge42_Node000022_Node000008"><a xlink:title=" ">
<path fill="none" stroke="#63b8ff" d="M1282.4,-232.17C1279.22,-231.76 1276.07,-231.37 1273,-231 1124.34,-212.99 1083.8,-229.14 938,-195 935.48,-194.41 932.91,-193.7 930.34,-192.92"/>
<polygon fill="#63b8ff" stroke="#63b8ff" points="931.22,-189.52 920.62,-189.64 928.98,-196.16 931.22,-189.52"/>
</a>
</g>
</g>
<!-- Node22&#45;&gt;Node13 -->
<g id="edge40_Node000022_Node000013" class="edge">
<title>Node22&#45;&gt;Node13</title>
<g id="a_edge40_Node000022_Node000013"><a xlink:title=" ">
<path fill="none" stroke="#63b8ff" d="M1290.9,-230.95C1251.68,-223.06 1193.53,-210.29 1144,-195 1142.08,-194.41 1140.11,-193.76 1138.14,-193.08"/>
<polygon fill="#63b8ff" stroke="#63b8ff" points="1138.98,-189.66 1128.38,-189.51 1136.57,-196.23 1138.98,-189.66"/>
</a>
</g>
</g>
<!-- Node22&#45;&gt;Node18 -->
<g id="edge39_Node000022_Node000018" class="edge">
<title>Node22&#45;&gt;Node18</title>
<g id="a_edge39_Node000022_Node000018"><a xlink:title=" ">
<path fill="none" stroke="#63b8ff" d="M1316.81,-230.99C1294.61,-221.16 1257.88,-204.88 1232.38,-193.58"/>
<polygon fill="#63b8ff" stroke="#63b8ff" points="1233.78,-190.37 1223.22,-189.52 1230.94,-196.77 1233.78,-190.37"/>
</a>
</g>
</g>
<!-- Node23 -->
<g id="Node000023" class="node">
<title>Node23</title>
<g id="a_Node000023"><a xlink:title=" ">
<polygon fill="#e0e0e0" stroke="#999999" points="1520.5,-189.5 1401.5,-189.5 1401.5,-170.5 1520.5,-170.5 1520.5,-189.5"/>
<text text-anchor="middle" x="1461" y="-177.5" font-family="Helvetica,sans-Serif" font-size="10.00">Adafruit_ICM20948.h</text>
</a>
</g>
</g>
<!-- Node22&#45;&gt;Node23 -->
<g id="edge37_Node000022_Node000023" class="edge">
<title>Node22&#45;&gt;Node23</title>
<g id="a_edge37_Node000022_Node000023"><a xlink:title=" ">
<path fill="none" stroke="#63b8ff" d="M1354.18,-230.99C1375.01,-221.25 1409.37,-205.16 1433.48,-193.88"/>
<polygon fill="#63b8ff" stroke="#63b8ff" points="1435.23,-196.93 1442.8,-189.52 1432.26,-190.59 1435.23,-196.93"/>
</a>
</g>
</g>
<!-- Node24 -->
<g id="Node000024" class="node">
<title>Node24</title>
<g id="a_Node000024"><a xlink:title=" ">
<polygon fill="#e0e0e0" stroke="#999999" points="1758.5,-189.5 1651.5,-189.5 1651.5,-170.5 1758.5,-170.5 1758.5,-189.5"/>
<text text-anchor="middle" x="1705" y="-177.5" font-family="Helvetica,sans-Serif" font-size="10.00">Adafruit_ICM20X.h</text>
</a>
</g>
</g>
<!-- Node22&#45;&gt;Node24 -->
<g id="edge38_Node000022_Node000024" class="edge">
<title>Node22&#45;&gt;Node24</title>
<g id="a_edge38_Node000022_Node000024"><a xlink:title=" ">
<path fill="none" stroke="#63b8ff" d="M1389.73,-233C1451.17,-225.28 1554.7,-211.34 1643,-195 1648.36,-194.01 1653.95,-192.88 1659.5,-191.7"/>
<polygon fill="#63b8ff" stroke="#63b8ff" points="1660.34,-195.1 1669.36,-189.55 1658.85,-188.26 1660.34,-195.1"/>
</a>
</g>
</g>
<!-- Node25&#45;&gt;Node2 -->
<g id="edge44_Node000025_Node000002" class="edge">
<title>Node25&#45;&gt;Node2</title>
<g id="a_edge44_Node000025_Node000002"><a xlink:title=" ">
<path fill="none" stroke="#63b8ff" d="M557.34,-231.93C486.15,-220.28 358.25,-198.88 355,-195 346.44,-184.78 346.87,-175.57 355,-165 422.2,-77.64 773.53,-29.37 895.35,-15.07"/>
<polygon fill="#63b8ff" stroke="#63b8ff" points="895.88,-18.53 905.41,-13.9 895.07,-11.58 895.88,-18.53"/>
</a>
</g>
</g>
<!-- Node25&#45;&gt;Node8 -->
<g id="edge47_Node000025_Node000008" class="edge">
<title>Node25&#45;&gt;Node8</title>
<g id="a_edge47_Node000025_Node000008"><a xlink:title=" ">
<path fill="none" stroke="#63b8ff" d="M650.64,-231.93C719.38,-220.7 841.97,-200.37 862,-195 864.44,-194.35 866.94,-193.6 869.43,-192.8"/>
<polygon fill="#63b8ff" stroke="#63b8ff" points="870.6,-196.1 878.92,-189.54 868.32,-189.48 870.6,-196.1"/>
</a>
</g>
</g>
<!-- Node25&#45;&gt;Node13 -->
<g id="edge45_Node000025_Node000013" class="edge">
<title>Node25&#45;&gt;Node13</title>
<g id="a_edge45_Node000025_Node000013"><a xlink:title=" ">
<path fill="none" stroke="#63b8ff" d="M650.78,-232.05C653.56,-231.68 656.31,-231.32 659,-231 841.92,-208.92 892.56,-236.81 1072,-195 1074.37,-194.45 1076.79,-193.77 1079.2,-193.02"/>
<polygon fill="#63b8ff" stroke="#63b8ff" points="1080.63,-196.22 1088.89,-189.59 1078.29,-189.62 1080.63,-196.22"/>
</a>
</g>
</g>
<!-- Node26 -->
<g id="Node000026" class="node">
<title>Node26</title>
<g id="a_Node000026"><a xlink:title=" ">
<polygon fill="#e0e0e0" stroke="#999999" points="469.5,-189.5 364.5,-189.5 364.5,-170.5 469.5,-170.5 469.5,-189.5"/>
<text text-anchor="middle" x="417" y="-177.5" font-family="Helvetica,sans-Serif" font-size="10.00">Adafruit_INA260.h</text>
</a>
</g>
</g>
<!-- Node25&#45;&gt;Node26 -->
<g id="edge46_Node000025_Node000026" class="edge">
<title>Node25&#45;&gt;Node26</title>
<g id="a_edge46_Node000025_Node000026"><a xlink:title=" ">
<path fill="none" stroke="#63b8ff" d="M576.81,-230.99C544.4,-220.86 490.1,-203.87 453.92,-192.55"/>
<polygon fill="#63b8ff" stroke="#63b8ff" points="454.81,-189.16 444.22,-189.52 452.72,-195.84 454.81,-189.16"/>
</a>
</g>
</g>
<!-- Node27&#45;&gt;Node4 -->
<g id="edge52_Node000027_Node000004" class="edge">
<title>Node27&#45;&gt;Node4</title>
<g id="a_edge52_Node000027_Node000004"><a xlink:title=" ">
<path fill="none" stroke="#63b8ff" d="M1148.22,-232.08C1151.19,-231.7 1154.13,-231.34 1157,-231 1322.4,-211.5 1365.87,-223.28 1530,-195 1535.06,-194.13 1540.33,-193.05 1545.53,-191.87"/>
<polygon fill="#63b8ff" stroke="#63b8ff" points="1546.45,-195.25 1555.37,-189.53 1544.83,-188.44 1546.45,-195.25"/>
</a>
</g>
</g>
<!-- Node27&#45;&gt;Node8 -->
<g id="edge53_Node000027_Node000008" class="edge">
<title>Node27&#45;&gt;Node8</title>
<g id="a_edge53_Node000027_Node000008"><a xlink:title=" ">
<path fill="none" stroke="#63b8ff" d="M1062.79,-230.96C1030.66,-222.5 980.69,-208.85 938,-195 936.09,-194.38 934.14,-193.73 932.18,-193.05"/>
<polygon fill="#63b8ff" stroke="#63b8ff" points="933,-189.63 922.4,-189.58 930.66,-196.23 933,-189.63"/>
</a>
</g>
</g>
<!-- Node27&#45;&gt;Node13 -->
<g id="edge51_Node000027_Node000013" class="edge">
<title>Node27&#45;&gt;Node13</title>
<g id="a_edge51_Node000027_Node000013"><a xlink:title=" ">
<path fill="none" stroke="#63b8ff" d="M1097.77,-230.87C1099.45,-222.66 1102.04,-210.04 1104.19,-199.55"/>
<polygon fill="#63b8ff" stroke="#63b8ff" points="1107.64,-200.17 1106.22,-189.67 1100.78,-198.76 1107.64,-200.17"/>
</a>
</g>
</g>
<!-- Node27&#45;&gt;Node18 -->
<g id="edge50_Node000027_Node000018" class="edge">
<title>Node27&#45;&gt;Node18</title>
<g id="a_edge50_Node000027_Node000018"><a xlink:title=" ">
<path fill="none" stroke="#63b8ff" d="M1111.94,-230.87C1129.64,-221.28 1158.46,-205.67 1179.14,-194.47"/>
<polygon fill="#63b8ff" stroke="#63b8ff" points="1180.87,-197.51 1188,-189.67 1177.54,-191.35 1180.87,-197.51"/>
</a>
</g>
</g>
<!-- Node28 -->
<g id="Node000028" class="node">
<title>Node28</title>
<g id="a_Node000028"><a xlink:title=" ">
<polygon fill="#e0e0e0" stroke="#999999" points="1063,-189.5 947,-189.5 947,-170.5 1063,-170.5 1063,-189.5"/>
<text text-anchor="middle" x="1005" y="-177.5" font-family="Helvetica,sans-Serif" font-size="10.00">Adafruit_LSM9DS1.h</text>
</a>
</g>
</g>
<!-- Node27&#45;&gt;Node28 -->
<g id="edge49_Node000027_Node000028" class="edge">
<title>Node27&#45;&gt;Node28</title>
<g id="a_edge49_Node000027_Node000028"><a xlink:title=" ">
<path fill="none" stroke="#63b8ff" d="M1082.57,-230.87C1067.92,-221.45 1044.24,-206.23 1026.9,-195.08"/>
<polygon fill="#63b8ff" stroke="#63b8ff" points="1028.79,-192.13 1018.48,-189.67 1025,-198.02 1028.79,-192.13"/>
</a>
</g>
</g>
<!-- Node29&#45;&gt;Node2 -->
<g id="edge55_Node000029_Node000002" class="edge">
<title>Node29&#45;&gt;Node2</title>
<g id="a_edge55_Node000029_Node000002"><a xlink:title=" ">
<path fill="none" stroke="#63b8ff" d="M797.9,-230.95C766.29,-222.64 723.9,-209.23 714,-195 706.39,-184.05 707.81,-176.81 714,-165 753.83,-88.96 849.97,-42.88 902.06,-22.65"/>
<polygon fill="#63b8ff" stroke="#63b8ff" points="903.44,-25.87 911.56,-19.05 900.96,-19.32 903.44,-25.87"/>
</a>
</g>
</g>
<!-- Node29&#45;&gt;Node4 -->
<g id="edge58_Node000029_Node000004" class="edge">
<title>Node29&#45;&gt;Node4</title>
<g id="a_edge58_Node000029_Node000004"><a xlink:title=" ">
<path fill="none" stroke="#63b8ff" d="M886.21,-231.94C889.18,-231.6 892.13,-231.28 895,-231 1176.33,-203.47 1250.53,-237.47 1530,-195 1535.39,-194.18 1541.01,-193.08 1546.53,-191.85"/>
<polygon fill="#63b8ff" stroke="#63b8ff" points="1547.36,-195.25 1556.28,-189.54 1545.74,-188.44 1547.36,-195.25"/>
</a>
</g>
</g>
<!-- Node29&#45;&gt;Node8 -->
<g id="edge59_Node000029_Node000008" class="edge">
<title>Node29&#45;&gt;Node8</title>
<g id="a_edge59_Node000029_Node000008"><a xlink:title=" ">
<path fill="none" stroke="#63b8ff" d="M843.74,-230.87C853.97,-221.8 870.29,-207.34 882.72,-196.32"/>
<polygon fill="#63b8ff" stroke="#63b8ff" points="885.06,-198.92 890.22,-189.67 880.42,-193.68 885.06,-198.92"/>
</a>
</g>
</g>
<!-- Node29&#45;&gt;Node12 -->
<g id="edge57_Node000029_Node000012" class="edge">
<title>Node29&#45;&gt;Node12</title>
<g id="a_edge57_Node000029_Node000012"><a xlink:title=" ">
<path fill="none" stroke="#63b8ff" d="M802.15,-230.94C771.07,-222.41 722.52,-208.67 681,-195 679.1,-194.37 677.15,-193.71 675.18,-193.03"/>
<polygon fill="#63b8ff" stroke="#63b8ff" points="676.01,-189.61 665.41,-189.55 673.66,-196.21 676.01,-189.61"/>
</a>
</g>
</g>
<!-- Node30 -->
<g id="Node000030" class="node">
<title>Node30</title>
<g id="a_Node000030"><a xlink:title=" ">
<polygon fill="#e0e0e0" stroke="#999999" points="853,-195 723,-195 723,-165 853,-165 853,-195"/>
<text text-anchor="start" x="731" y="-183" font-family="Helvetica,sans-Serif" font-size="10.00">SparkFun_u&#45;blox_GNSS</text>
<text text-anchor="middle" x="788" y="-172" font-family="Helvetica,sans-Serif" font-size="10.00">_Arduino_Library.h</text>
</a>
</g>
</g>
<!-- Node29&#45;&gt;Node30 -->
<g id="edge56_Node000029_Node000030" class="edge">
<title>Node29&#45;&gt;Node30</title>
<g id="a_edge56_Node000029_Node000030"><a xlink:title=" ">
<path fill="none" stroke="#63b8ff" d="M827.21,-230.87C821.49,-223.59 813.05,-212.85 805.46,-203.2"/>
<polygon fill="#63b8ff" stroke="#63b8ff" points="808.03,-200.81 799.1,-195.11 802.53,-205.14 808.03,-200.81"/>
</a>
</g>
</g>
<!-- Node31&#45;&gt;Node8 -->
<g id="edge62_Node000031_Node000008" class="edge">
<title>Node31&#45;&gt;Node8</title>
<g id="a_edge62_Node000031_Node000008"><a xlink:title=" ">
<path fill="none" stroke="#63b8ff" d="M1446.39,-235.08C1430.86,-233.74 1413.73,-232.29 1398,-231 1193.62,-214.23 1138.32,-238.86 938,-195 935.32,-194.41 932.58,-193.68 929.86,-192.86"/>
<polygon fill="#63b8ff" stroke="#63b8ff" points="930.8,-189.49 920.2,-189.61 928.56,-196.12 930.8,-189.49"/>
</a>
</g>
</g>
<!-- Node32 -->
<g id="Node000032" class="node">
<title>Node32</title>
<g id="a_Node000032"><a xlink:title=" ">
<polygon fill="#e0e0e0" stroke="#999999" points="1892,-189.5 1836,-189.5 1836,-170.5 1892,-170.5 1892,-189.5"/>
<text text-anchor="middle" x="1864" y="-177.5" font-family="Helvetica,sans-Serif" font-size="10.00">RTClib.h</text>
</a>
</g>
</g>
<!-- Node31&#45;&gt;Node32 -->
<g id="edge61_Node000031_Node000032" class="edge">
<title>Node31&#45;&gt;Node32</title>
<g id="a_edge61_Node000031_Node000032"><a xlink:title=" ">
<path fill="none" stroke="#63b8ff" d="M1547.71,-236.26C1613.09,-231.27 1729.91,-219.57 1827,-195 1829.45,-194.38 1831.95,-193.65 1834.45,-192.85"/>
<polygon fill="#63b8ff" stroke="#63b8ff" points="1835.62,-196.15 1843.91,-189.55 1833.32,-189.54 1835.62,-196.15"/>
</a>
</g>
</g>
<!-- Node33&#45;&gt;Node2 -->
<g id="edge64_Node000033_Node000002" class="edge">
<title>Node33&#45;&gt;Node2</title>
<g id="a_edge64_Node000033_Node000002"><a xlink:title=" ">
<path fill="none" stroke="#63b8ff" d="M2101.7,-238.34C2177.7,-234.84 2319.34,-220.86 2270,-165 2182.18,-65.56 1195.33,-20.76 978.82,-12.09"/>
<polygon fill="#63b8ff" stroke="#63b8ff" points="978.66,-8.58 968.52,-11.69 978.38,-15.58 978.66,-8.58"/>
</a>
</g>
</g>
<!-- Node33&#45;&gt;Node8 -->
<g id="edge68_Node000033_Node000008" class="edge">
<title>Node33&#45;&gt;Node8</title>
<g id="a_edge68_Node000033_Node000008"><a xlink:title=" ">
<path fill="none" stroke="#63b8ff" d="M2012.4,-237.64C1970.67,-235.9 1906.61,-233.24 1851,-231 1648.12,-222.81 1137.15,-234.58 938,-195 935.16,-194.43 932.24,-193.69 929.35,-192.83"/>
<polygon fill="#63b8ff" stroke="#63b8ff" points="930.37,-189.48 919.78,-189.62 928.14,-196.12 930.37,-189.48"/>
</a>
</g>
</g>
<!-- Node33&#45;&gt;Node13 -->
<g id="edge66_Node000033_Node000013" class="edge">
<title>Node33&#45;&gt;Node13</title>
<g id="a_edge66_Node000033_Node000013"><a xlink:title=" ">
<path fill="none" stroke="#63b8ff" d="M2012.28,-237.52C1831.78,-229.48 1165.46,-199.57 1144,-195 1141.47,-194.46 1138.89,-193.77 1136.33,-192.98"/>
<polygon fill="#63b8ff" stroke="#63b8ff" points="1137.3,-189.61 1126.71,-189.59 1134.97,-196.21 1137.3,-189.61"/>
</a>
</g>
</g>
<!-- Node34 -->
<g id="Node000034" class="node">
<title>Node34</title>
<g id="a_Node000034"><a xlink:title=" ">
<polygon fill="#e0e0e0" stroke="#999999" points="2370.5,-189.5 2317.5,-189.5 2317.5,-170.5 2370.5,-170.5 2370.5,-189.5"/>
<text text-anchor="middle" x="2344" y="-177.5" font-family="Helvetica,sans-Serif" font-size="10.00">stdint.h</text>
</a>
</g>
</g>
<!-- Node33&#45;&gt;Node34 -->
<g id="edge65_Node000033_Node000034" class="edge">
<title>Node33&#45;&gt;Node34</title>
<g id="a_edge65_Node000033_Node000034"><a xlink:title=" ">
<path fill="none" stroke="#63b8ff" d="M2101.88,-233.45C2151.53,-226.28 2233.69,-212.99 2303,-195 2305.64,-194.31 2308.35,-193.54 2311.07,-192.72"/>
<polygon fill="#63b8ff" stroke="#63b8ff" points="2312.32,-196 2320.77,-189.61 2310.18,-189.33 2312.32,-196"/>
</a>
</g>
</g>
<!-- Node35 -->
<g id="Node000035" class="node">
<title>Node35</title>
<g id="a_Node000035"><a xlink:title=" ">
<polygon fill="#e0e0e0" stroke="#999999" points="2260.5,-189.5 2159.5,-189.5 2159.5,-170.5 2260.5,-170.5 2260.5,-189.5"/>
<text text-anchor="middle" x="2210" y="-177.5" font-family="Helvetica,sans-Serif" font-size="10.00">Adafruit_SGP30.h</text>
</a>
</g>
</g>
<!-- Node33&#45;&gt;Node35 -->
<g id="edge67_Node000033_Node000035" class="edge">
<title>Node33&#45;&gt;Node35</title>
<g id="a_edge67_Node000033_Node000035"><a xlink:title=" ">
<path fill="none" stroke="#63b8ff" d="M2079.25,-230.99C2105.31,-221.03 2148.68,-204.45 2178.27,-193.13"/>
<polygon fill="#63b8ff" stroke="#63b8ff" points="2179.64,-196.36 2187.73,-189.52 2177.14,-189.82 2179.64,-196.36"/>
</a>
</g>
</g>
<!-- Node36&#45;&gt;Node8 -->
<g id="edge70_Node000036_Node000008" class="edge">
<title>Node36&#45;&gt;Node8</title>
<g id="a_edge70_Node000036_Node000008"><a xlink:title=" ">
<path fill="none" stroke="#63b8ff" d="M939.21,-230.87C932.35,-222.14 921.57,-208.43 913.05,-197.59"/>
<polygon fill="#63b8ff" stroke="#63b8ff" points="915.75,-195.36 906.82,-189.67 910.25,-199.69 915.75,-195.36"/>
</a>
</g>
</g>
<!-- Node37&#45;&gt;Node4 -->
<g id="edge73_Node000037_Node000004" class="edge">
<title>Node37&#45;&gt;Node4</title>
<g id="a_edge73_Node000037_Node000004"><a xlink:title=" ">
<path fill="none" stroke="#63b8ff" d="M1766.32,-230.99C1729.44,-220.77 1667.43,-203.58 1626.61,-192.26"/>
<polygon fill="#63b8ff" stroke="#63b8ff" points="1627.29,-188.82 1616.72,-189.52 1625.42,-195.56 1627.29,-188.82"/>
</a>
</g>
</g>
<!-- Node37&#45;&gt;Node19 -->
<g id="edge72_Node000037_Node000019" class="edge">
<title>Node37&#45;&gt;Node19</title>
<g id="a_edge72_Node000037_Node000019"><a xlink:title=" ">
<path fill="none" stroke="#63b8ff" d="M1797,-230.87C1797,-222.75 1797,-210.31 1797,-199.89"/>
<polygon fill="#63b8ff" stroke="#63b8ff" points="1800.5,-199.67 1797,-189.67 1793.5,-199.67 1800.5,-199.67"/>
</a>
</g>
</g>
<!-- Node38 -->
<g id="Node000038" class="node">
<title>Node38</title>
<g id="a_Node000038"><a xlink:title=" ">
<polygon fill="#e0e0e0" stroke="#999999" points="2141,-189.5 1991,-189.5 1991,-170.5 2141,-170.5 2141,-189.5"/>
<text text-anchor="middle" x="2066" y="-177.5" font-family="Helvetica,sans-Serif" font-size="10.00">SparkFun_SPI_SerialFlash.h</text>
</a>
</g>
</g>
<!-- Node37&#45;&gt;Node38 -->
<g id="edge74_Node000037_Node000038" class="edge">
<title>Node37&#45;&gt;Node38</title>
<g id="a_edge74_Node000037_Node000038"><a xlink:title=" ">
<path fill="none" stroke="#63b8ff" d="M1836.11,-230.99C1883.93,-220.6 1964.87,-202.99 2016.85,-191.69"/>
<polygon fill="#63b8ff" stroke="#63b8ff" points="2017.81,-195.06 2026.84,-189.52 2016.32,-188.22 2017.81,-195.06"/>
</a>
</g>
</g>
<!-- Node39 -->
<g id="Node000039" class="node">
<title>Node39</title>
<g id="a_Node000039"><a xlink:href="Storage_8h.html" target="_top" xlink:title=" ">
<polygon fill="white" stroke="#666666" points="1973.5,-189.5 1910.5,-189.5 1910.5,-170.5 1973.5,-170.5 1973.5,-189.5"/>
<text text-anchor="middle" x="1942" y="-177.5" font-family="Helvetica,sans-Serif" font-size="10.00">Storage.h</text>
</a>
</g>
</g>
<!-- Node37&#45;&gt;Node39 -->
<g id="edge75_Node000037_Node000039" class="edge">
<title>Node37&#45;&gt;Node39</title>
<g id="a_edge75_Node000037_Node000039"><a xlink:title=" ">
<path fill="none" stroke="#63b8ff" d="M1818.08,-230.99C1842.68,-221.07 1883.53,-204.59 1911.56,-193.28"/>
<polygon fill="#63b8ff" stroke="#63b8ff" points="1912.93,-196.5 1920.89,-189.52 1910.31,-190.01 1912.93,-196.5"/>
</a>
</g>
</g>
<!-- Node39&#45;&gt;Node2 -->
<g id="edge76_Node000039_Node000002" class="edge">
<title>Node39&#45;&gt;Node2</title>
<g id="a_edge76_Node000039_Node000002"><a xlink:title=" ">
<path fill="none" stroke="#63b8ff" d="M1919.22,-170.45C1913.34,-168.46 1906.99,-166.49 1901,-165 1549.89,-77.59 1114.04,-28.53 978.91,-14.64"/>
<polygon fill="#63b8ff" stroke="#63b8ff" points="978.9,-11.12 968.6,-13.59 978.19,-18.08 978.9,-11.12"/>
</a>
</g>
</g>
<!-- Node39&#45;&gt;Node7 -->
<g id="edge78_Node000039_Node000007" class="edge">
<title>Node39&#45;&gt;Node7</title>
<g id="a_edge78_Node000039_Node000007"><a xlink:title=" ">
<path fill="none" stroke="#63b8ff" d="M1920.15,-170.45C1914.03,-168.35 1907.33,-166.34 1901,-165 1721.16,-127.02 1671.87,-147.5 1489,-129 1296.51,-109.52 1066.83,-81.59 976.37,-70.4"/>
<polygon fill="#63b8ff" stroke="#63b8ff" points="976.65,-66.91 966.29,-69.16 975.79,-73.86 976.65,-66.91"/>
</a>
</g>
</g>
<!-- Node39&#45;&gt;Node9 -->
<g id="edge77_Node000039_Node000009" class="edge">
<title>Node39&#45;&gt;Node9</title>
<g id="a_edge77_Node000039_Node000009"><a xlink:title=" ">
<path fill="none" stroke="#63b8ff" d="M1920.6,-170.43C1914.38,-168.29 1907.5,-166.24 1901,-165 1857.68,-156.72 1199.53,-129.14 1029.73,-122.13"/>
<polygon fill="#63b8ff" stroke="#63b8ff" points="1029.85,-118.63 1019.71,-121.72 1029.56,-125.63 1029.85,-118.63"/>
</a>
</g>
</g>
</g>
</svg>
