<?xml version="1.0" encoding="UTF-8" standalone="no"?>
<!DOCTYPE svg PUBLIC "-//W3C//DTD SVG 1.1//EN"
 "http://www.w3.org/Graphics/SVG/1.1/DTD/svg11.dtd">
<!-- Generated by graphviz version 2.43.0 (0)
 -->
<!-- Title: main.cpp Pages: 1 -->
<svg width="2364pt" height="313pt"
 viewBox="0.00 0.00 2363.50 313.00" xmlns="http://www.w3.org/2000/svg" xmlns:xlink="http://www.w3.org/1999/xlink">
<g id="graph0" class="graph" transform="scale(1 1) rotate(0) translate(4 309)">
<title>main.cpp</title>
<!-- Node1 -->
<g id="Node000001" class="node">
<title>Node1</title>
<g id="a_Node000001"><a xlink:title="Main functions for Core 0, responsible for reading data from sensor peripherals.">
<polygon fill="#999999" stroke="#666666" points="1200,-305 1138,-305 1138,-286 1200,-286 1200,-305"/>
<text text-anchor="middle" x="1169" y="-293" font-family="Helvetica,sans-Serif" font-size="10.00">main.cpp</text>
</a>
</g>
</g>
<!-- Node2 -->
<g id="Node000002" class="node">
<title>Node2</title>
<g id="a_Node000002"><a xlink:title=" ">
<polygon fill="#e0e0e0" stroke="#999999" points="1047.5,-19 984.5,-19 984.5,0 1047.5,0 1047.5,-19"/>
<text text-anchor="middle" x="1016" y="-7" font-family="Helvetica,sans-Serif" font-size="10.00">Arduino.h</text>
</a>
</g>
</g>
<!-- Node1&#45;&gt;Node2 -->
<g id="edge1_Node000001_Node000002" class="edge">
<title>Node1&#45;&gt;Node2</title>
<g id="a_edge1_Node000001_Node000002"><a xlink:title=" ">
<path fill="none" stroke="#63b8ff" d="M1137.73,-294.83C951.83,-296.41 0,-298.76 0,-181 0,-181 0,-181 0,-118.5 0,-18.83 783.1,-10.93 974.28,-10.48"/>
<polygon fill="#63b8ff" stroke="#63b8ff" points="974.49,-13.98 984.48,-10.46 974.47,-6.98 974.49,-13.98"/>
</a>
</g>
</g>
<!-- Node3 -->
<g id="Node000003" class="node">
<title>Node3</title>
<g id="a_Node000003"><a xlink:href="ErrorDisplay_8h.html" target="_top" xlink:title=" ">
<polygon fill="white" stroke="#666666" points="2153,-250 2069,-250 2069,-231 2153,-231 2153,-250"/>
<text text-anchor="middle" x="2111" y="-238" font-family="Helvetica,sans-Serif" font-size="10.00">ErrorDisplay.h</text>
</a>
</g>
</g>
<!-- Node1&#45;&gt;Node3 -->
<g id="edge2_Node000001_Node000003" class="edge">
<title>Node1&#45;&gt;Node3</title>
<g id="a_edge2_Node000001_Node000003"><a xlink:title=" ">
<path fill="none" stroke="#63b8ff" d="M1200.07,-292.75C1336.87,-285.05 1886.32,-254.14 2058.88,-244.43"/>
<polygon fill="#63b8ff" stroke="#63b8ff" points="2059.18,-247.92 2068.97,-243.86 2058.79,-240.93 2059.18,-247.92"/>
</a>
</g>
</g>
<!-- Node4 -->
<g id="Node000004" class="node">
<title>Node4</title>
<g id="a_Node000004"><a xlink:href="PayloadConfig_8h.html" target="_top" xlink:title="Central location for pinout and config defines.">
<polygon fill="white" stroke="#666666" points="1702.5,-189.5 1607.5,-189.5 1607.5,-170.5 1702.5,-170.5 1702.5,-189.5"/>
<text text-anchor="middle" x="1655" y="-177.5" font-family="Helvetica,sans-Serif" font-size="10.00">PayloadConfig.h</text>
</a>
</g>
</g>
<!-- Node1&#45;&gt;Node4 -->
<g id="edge9_Node000001_Node000004" class="edge">
<title>Node1&#45;&gt;Node4</title>
<g id="a_edge9_Node000001_Node000004"><a xlink:title=" ">
<path fill="none" stroke="#63b8ff" d="M1200.09,-293.4C1298.1,-289.68 1596.09,-276.3 1630,-250 1645.23,-238.19 1651.19,-216.24 1653.52,-200.26"/>
<polygon fill="#63b8ff" stroke="#63b8ff" points="1657.04,-200.23 1654.65,-189.91 1650.08,-199.47 1657.04,-200.23"/>
</a>
</g>
</g>
<!-- Node7 -->
<g id="Node000007" class="node">
<title>Node7</title>
<g id="a_Node000007"><a xlink:href="Logger_8h.html" target="_top" xlink:title=" ">
<polygon fill="white" stroke="#666666" points="988,-74 930,-74 930,-55 988,-55 988,-74"/>
<text text-anchor="middle" x="959" y="-62" font-family="Helvetica,sans-Serif" font-size="10.00">Logger.h</text>
</a>
</g>
</g>
<!-- Node1&#45;&gt;Node7 -->
<g id="edge7_Node000001_Node000007" class="edge">
<title>Node1&#45;&gt;Node7</title>
<g id="a_edge7_Node000001_Node000007"><a xlink:title=" ">
<path fill="none" stroke="#63b8ff" d="M1137.73,-294.13C968.21,-291.79 164.62,-276.45 95,-195 -15.94,-65.21 736.5,-63.55 919.53,-65.03"/>
<polygon fill="#63b8ff" stroke="#63b8ff" points="919.74,-68.54 929.77,-65.13 919.81,-61.54 919.74,-68.54"/>
</a>
</g>
</g>
<!-- Node8 -->
<g id="Node000008" class="node">
<title>Node8</title>
<g id="a_Node000008"><a xlink:href="CommandMessage_8h.html" target="_top" xlink:title=" ">
<polygon fill="white" stroke="#666666" points="2290.5,-250 2171.5,-250 2171.5,-231 2290.5,-231 2290.5,-250"/>
<text text-anchor="middle" x="2231" y="-238" font-family="Helvetica,sans-Serif" font-size="10.00">CommandMessage.h</text>
</a>
</g>
</g>
<!-- Node1&#45;&gt;Node8 -->
<g id="edge10_Node000001_Node000008" class="edge">
<title>Node1&#45;&gt;Node8</title>
<g id="a_edge10_Node000001_Node000008"><a xlink:title=" ">
<path fill="none" stroke="#63b8ff" d="M1200.36,-293.98C1322.21,-291.79 1776.03,-281.87 2160.97,-250.01"/>
<polygon fill="#63b8ff" stroke="#63b8ff" points="2161.52,-253.48 2171.19,-249.16 2160.93,-246.5 2161.52,-253.48"/>
</a>
</g>
</g>
<!-- Node9 -->
<g id="Node000009" class="node">
<title>Node9</title>
<g id="a_Node000009"><a xlink:href="Sensor_8h.html" target="_top" xlink:title=" ">
<polygon fill="white" stroke="#666666" points="1074,-189.5 1016,-189.5 1016,-170.5 1074,-170.5 1074,-189.5"/>
<text text-anchor="middle" x="1045" y="-177.5" font-family="Helvetica,sans-Serif" font-size="10.00">Sensor.h</text>
</a>
</g>
</g>
<!-- Node1&#45;&gt;Node9 -->
<g id="edge13_Node000001_Node000009" class="edge">
<title>Node1&#45;&gt;Node9</title>
<g id="a_edge13_Node000001_Node000009"><a xlink:title=" ">
<path fill="none" stroke="#63b8ff" d="M1137.57,-288.84C1114.09,-283 1082.91,-271.6 1064,-250 1051.87,-236.15 1047.41,-215.2 1045.82,-200.03"/>
<polygon fill="#63b8ff" stroke="#63b8ff" points="1049.28,-199.48 1045.07,-189.76 1042.3,-199.98 1049.28,-199.48"/>
</a>
</g>
</g>
<!-- Node11 -->
<g id="Node000011" class="node">
<title>Node11</title>
<g id="a_Node000011"><a xlink:href="AS7331Sensor_8h.html" target="_top" xlink:title=" ">
<polygon fill="white" stroke="#666666" points="1270.5,-250 1175.5,-250 1175.5,-231 1270.5,-231 1270.5,-250"/>
<text text-anchor="middle" x="1223" y="-238" font-family="Helvetica,sans-Serif" font-size="10.00">AS7331Sensor.h</text>
</a>
</g>
</g>
<!-- Node1&#45;&gt;Node11 -->
<g id="edge19_Node000001_Node000011" class="edge">
<title>Node1&#45;&gt;Node11</title>
<g id="a_edge19_Node000001_Node000011"><a xlink:title=" ">
<path fill="none" stroke="#63b8ff" d="M1177.92,-285.75C1185.78,-278.03 1197.43,-266.6 1206.92,-257.28"/>
<polygon fill="#63b8ff" stroke="#63b8ff" points="1209.56,-259.59 1214.25,-250.09 1204.66,-254.6 1209.56,-259.59"/>
</a>
</g>
</g>
<!-- Node15 -->
<g id="Node000015" class="node">
<title>Node15</title>
<g id="a_Node000015"><a xlink:href="BMP390Sensor_8h.html" target="_top" xlink:title=" ">
<polygon fill="white" stroke="#666666" points="663,-250 565,-250 565,-231 663,-231 663,-250"/>
<text text-anchor="middle" x="614" y="-238" font-family="Helvetica,sans-Serif" font-size="10.00">BMP390Sensor.h</text>
</a>
</g>
</g>
<!-- Node1&#45;&gt;Node15 -->
<g id="edge25_Node000001_Node000015" class="edge">
<title>Node1&#45;&gt;Node15</title>
<g id="a_edge25_Node000001_Node000015"><a xlink:title=" ">
<path fill="none" stroke="#63b8ff" d="M1137.83,-292.32C1060.83,-286.81 855.33,-271.3 673.06,-250.06"/>
<polygon fill="#63b8ff" stroke="#63b8ff" points="673.36,-246.57 663.02,-248.88 672.55,-253.52 673.36,-246.57"/>
</a>
</g>
</g>
<!-- Node17 -->
<g id="Node000017" class="node">
<title>Node17</title>
<g id="a_Node000017"><a xlink:href="ENS160Sensor_8h.html" target="_top" xlink:title=" ">
<polygon fill="white" stroke="#666666" points="1506.5,-250 1411.5,-250 1411.5,-231 1506.5,-231 1506.5,-250"/>
<text text-anchor="middle" x="1459" y="-238" font-family="Helvetica,sans-Serif" font-size="10.00">ENS160Sensor.h</text>
</a>
</g>
</g>
<!-- Node1&#45;&gt;Node17 -->
<g id="edge28_Node000001_Node000017" class="edge">
<title>Node1&#45;&gt;Node17</title>
<g id="a_edge28_Node000001_Node000017"><a xlink:title=" ">
<path fill="none" stroke="#63b8ff" d="M1200.04,-288.83C1248.24,-280.02 1341.85,-262.91 1402.33,-251.86"/>
<polygon fill="#63b8ff" stroke="#63b8ff" points="1403.27,-255.24 1412.48,-250 1402.01,-248.36 1403.27,-255.24"/>
</a>
</g>
</g>
<!-- Node19 -->
<g id="Node000019" class="node">
<title>Node19</title>
<g id="a_Node000019"><a xlink:href="ICM20948Sensor_8h.html" target="_top" xlink:title=" ">
<polygon fill="white" stroke="#666666" points="788.5,-250 681.5,-250 681.5,-231 788.5,-231 788.5,-250"/>
<text text-anchor="middle" x="735" y="-238" font-family="Helvetica,sans-Serif" font-size="10.00">ICM20948Sensor.h</text>
</a>
</g>
</g>
<!-- Node1&#45;&gt;Node19 -->
<g id="edge33_Node000001_Node000019" class="edge">
<title>Node1&#45;&gt;Node19</title>
<g id="a_edge33_Node000001_Node000019"><a xlink:title=" ">
<path fill="none" stroke="#63b8ff" d="M1137.71,-290.9C1075.39,-283.71 931.08,-266.88 798.54,-250.05"/>
<polygon fill="#63b8ff" stroke="#63b8ff" points="798.97,-246.58 788.61,-248.79 798.09,-253.52 798.97,-246.58"/>
</a>
</g>
</g>
<!-- Node23 -->
<g id="Node000023" class="node">
<title>Node23</title>
<g id="a_Node000023"><a xlink:href="INA260Sensor_8h.html" target="_top" xlink:title=" ">
<polygon fill="white" stroke="#666666" points="546.5,-250 453.5,-250 453.5,-231 546.5,-231 546.5,-250"/>
<text text-anchor="middle" x="500" y="-238" font-family="Helvetica,sans-Serif" font-size="10.00">INA260Sensor.h</text>
</a>
</g>
</g>
<!-- Node1&#45;&gt;Node23 -->
<g id="edge40_Node000001_Node000023" class="edge">
<title>Node1&#45;&gt;Node23</title>
<g id="a_edge40_Node000001_Node000023"><a xlink:title=" ">
<path fill="none" stroke="#63b8ff" d="M1137.98,-293.11C1049.2,-288.94 786.28,-275.32 556.92,-250.01"/>
<polygon fill="#63b8ff" stroke="#63b8ff" points="557.04,-246.5 546.71,-248.87 556.27,-253.46 557.04,-246.5"/>
</a>
</g>
</g>
<!-- Node25 -->
<g id="Node000025" class="node">
<title>Node25</title>
<g id="a_Node000025"><a xlink:href="MTK3339Sensor_8h.html" target="_top" xlink:title=" ">
<polygon fill="white" stroke="#666666" points="1393,-250 1289,-250 1289,-231 1393,-231 1393,-250"/>
<text text-anchor="middle" x="1341" y="-238" font-family="Helvetica,sans-Serif" font-size="10.00">MTK3339Sensor.h</text>
</a>
</g>
</g>
<!-- Node1&#45;&gt;Node25 -->
<g id="edge45_Node000001_Node000025" class="edge">
<title>Node1&#45;&gt;Node25</title>
<g id="a_edge45_Node000001_Node000025"><a xlink:title=" ">
<path fill="none" stroke="#63b8ff" d="M1196.63,-285.98C1225.51,-277.09 1271.01,-263.07 1303.2,-253.15"/>
<polygon fill="#63b8ff" stroke="#63b8ff" points="1304.62,-256.37 1313.15,-250.08 1302.56,-249.68 1304.62,-256.37"/>
</a>
</g>
</g>
<!-- Node27 -->
<g id="Node000027" class="node">
<title>Node27</title>
<g id="a_Node000027"><a xlink:href="OzoneSensor_8h.html" target="_top" xlink:title=" ">
<polygon fill="white" stroke="#666666" points="1767.5,-250 1678.5,-250 1678.5,-231 1767.5,-231 1767.5,-250"/>
<text text-anchor="middle" x="1723" y="-238" font-family="Helvetica,sans-Serif" font-size="10.00">OzoneSensor.h</text>
</a>
</g>
</g>
<!-- Node1&#45;&gt;Node27 -->
<g id="edge51_Node000001_Node000027" class="edge">
<title>Node1&#45;&gt;Node27</title>
<g id="a_edge51_Node000001_Node000027"><a xlink:title=" ">
<path fill="none" stroke="#63b8ff" d="M1200.05,-292.29C1278.13,-286.6 1488.96,-270.46 1664,-250 1665.3,-249.85 1666.62,-249.69 1667.94,-249.53"/>
<polygon fill="#63b8ff" stroke="#63b8ff" points="1668.78,-252.95 1678.25,-248.2 1667.89,-246.01 1668.78,-252.95"/>
</a>
</g>
</g>
<!-- Node29 -->
<g id="Node000029" class="node">
<title>Node29</title>
<g id="a_Node000029"><a xlink:href="PCF8523Sensor_8h.html" target="_top" xlink:title=" ">
<polygon fill="white" stroke="#666666" points="1016.5,-250 915.5,-250 915.5,-231 1016.5,-231 1016.5,-250"/>
<text text-anchor="middle" x="966" y="-238" font-family="Helvetica,sans-Serif" font-size="10.00">PCF8523Sensor.h</text>
</a>
</g>
</g>
<!-- Node1&#45;&gt;Node29 -->
<g id="edge55_Node000001_Node000029" class="edge">
<title>Node1&#45;&gt;Node29</title>
<g id="a_edge55_Node000001_Node000029"><a xlink:title=" ">
<path fill="none" stroke="#63b8ff" d="M1137.73,-286.33C1103.12,-277.3 1047.14,-262.68 1008.55,-252.61"/>
<polygon fill="#63b8ff" stroke="#63b8ff" points="1009.21,-249.17 998.66,-250.03 1007.45,-255.94 1009.21,-249.17"/>
</a>
</g>
</g>
<!-- Node31 -->
<g id="Node000031" class="node">
<title>Node31</title>
<g id="a_Node000031"><a xlink:href="SCD40Sensor_8h.html" target="_top" xlink:title=" ">
<polygon fill="white" stroke="#666666" points="897,-250 807,-250 807,-231 897,-231 897,-250"/>
<text text-anchor="middle" x="852" y="-238" font-family="Helvetica,sans-Serif" font-size="10.00">SCD40Sensor.h</text>
</a>
</g>
</g>
<!-- Node1&#45;&gt;Node31 -->
<g id="edge58_Node000001_Node000031" class="edge">
<title>Node1&#45;&gt;Node31</title>
<g id="a_edge58_Node000001_Node000031"><a xlink:title=" ">
<path fill="none" stroke="#63b8ff" d="M1137.74,-289.27C1084.1,-280.31 973.89,-261.88 907.11,-250.71"/>
<polygon fill="#63b8ff" stroke="#63b8ff" points="907.63,-247.25 897.19,-249.05 906.47,-254.16 907.63,-247.25"/>
</a>
</g>
</g>
<!-- Node33 -->
<g id="Node000033" class="node">
<title>Node33</title>
<g id="a_Node000033"><a xlink:href="SHTC3Sensor_8h.html" target="_top" xlink:title=" ">
<polygon fill="white" stroke="#666666" points="1874.5,-250 1785.5,-250 1785.5,-231 1874.5,-231 1874.5,-250"/>
<text text-anchor="middle" x="1830" y="-238" font-family="Helvetica,sans-Serif" font-size="10.00">SHTC3Sensor.h</text>
</a>
</g>
</g>
<!-- Node1&#45;&gt;Node33 -->
<g id="edge65_Node000001_Node000033" class="edge">
<title>Node1&#45;&gt;Node33</title>
<g id="a_edge65_Node000001_Node000033"><a xlink:title=" ">
<path fill="none" stroke="#63b8ff" d="M1200.04,-293.14C1288.28,-289.06 1548.32,-275.72 1775.16,-249.99"/>
<polygon fill="#63b8ff" stroke="#63b8ff" points="1775.71,-253.45 1785.25,-248.84 1774.92,-246.5 1775.71,-253.45"/>
</a>
</g>
</g>
<!-- Node35 -->
<g id="Node000035" class="node">
<title>Node35</title>
<g id="a_Node000035"><a xlink:href="TMP117Sensor_8h.html" target="_top" xlink:title=" ">
<polygon fill="white" stroke="#666666" points="1621.5,-250 1524.5,-250 1524.5,-231 1621.5,-231 1621.5,-250"/>
<text text-anchor="middle" x="1573" y="-238" font-family="Helvetica,sans-Serif" font-size="10.00">TMP117Sensor.h</text>
</a>
</g>
</g>
<!-- Node1&#45;&gt;Node35 -->
<g id="edge69_Node000001_Node000035" class="edge">
<title>Node1&#45;&gt;Node35</title>
<g id="a_edge69_Node000001_Node000035"><a xlink:title=" ">
<path fill="none" stroke="#63b8ff" d="M1200.04,-290.69C1259.04,-283.42 1391.66,-266.87 1514.33,-250.07"/>
<polygon fill="#63b8ff" stroke="#63b8ff" points="1514.84,-253.53 1524.27,-248.7 1513.89,-246.6 1514.84,-253.53"/>
</a>
</g>
</g>
<!-- Node37 -->
<g id="Node000037" class="node">
<title>Node37</title>
<g id="a_Node000037"><a xlink:href="TempSensor_8h.html" target="_top" xlink:title=" ">
<polygon fill="white" stroke="#666666" points="1157,-250 1073,-250 1073,-231 1157,-231 1157,-250"/>
<text text-anchor="middle" x="1115" y="-238" font-family="Helvetica,sans-Serif" font-size="10.00">TempSensor.h</text>
</a>
</g>
</g>
<!-- Node1&#45;&gt;Node37 -->
<g id="edge74_Node000001_Node000037" class="edge">
<title>Node1&#45;&gt;Node37</title>
<g id="a_edge74_Node000001_Node000037"><a xlink:title=" ">
<path fill="none" stroke="#63b8ff" d="M1160.08,-285.75C1152.22,-278.03 1140.57,-266.6 1131.08,-257.28"/>
<polygon fill="#63b8ff" stroke="#63b8ff" points="1133.34,-254.6 1123.75,-250.09 1128.44,-259.59 1133.34,-254.6"/>
</a>
</g>
</g>
<!-- Node3&#45;&gt;Node2 -->
<g id="edge3_Node000003_Node000002" class="edge">
<title>Node3&#45;&gt;Node2</title>
<g id="a_edge3_Node000003_Node000002"><a xlink:title=" ">
<path fill="none" stroke="#63b8ff" d="M2115.39,-230.91C2122.5,-215.64 2134.2,-183.63 2118,-165 2046.74,-83.05 1250.43,-25.86 1057.78,-13.16"/>
<polygon fill="#63b8ff" stroke="#63b8ff" points="1057.97,-9.67 1047.77,-12.51 1057.52,-16.65 1057.97,-9.67"/>
</a>
</g>
</g>
<!-- Node3&#45;&gt;Node4 -->
<g id="edge4_Node000003_Node000004" class="edge">
<title>Node3&#45;&gt;Node4</title>
<g id="a_edge4_Node000003_Node000004"><a xlink:title=" ">
<path fill="none" stroke="#63b8ff" d="M2068.98,-236.69C1995.82,-231.38 1840.46,-218.28 1711,-195 1706.01,-194.1 1700.81,-193.01 1695.67,-191.84"/>
<polygon fill="#63b8ff" stroke="#63b8ff" points="1696.48,-188.44 1685.94,-189.52 1694.86,-195.25 1696.48,-188.44"/>
</a>
</g>
</g>
<!-- Node5 -->
<g id="Node000005" class="node">
<title>Node5</title>
<g id="a_Node000005"><a xlink:title=" ">
<polygon fill="#e0e0e0" stroke="#999999" points="2355.5,-189.5 2260.5,-189.5 2260.5,-170.5 2355.5,-170.5 2355.5,-189.5"/>
<text text-anchor="middle" x="2308" y="-177.5" font-family="Helvetica,sans-Serif" font-size="10.00">pico/multicore.h</text>
</a>
</g>
</g>
<!-- Node3&#45;&gt;Node5 -->
<g id="edge5_Node000003_Node000005" class="edge">
<title>Node3&#45;&gt;Node5</title>
<g id="a_edge5_Node000003_Node000005"><a xlink:title=" ">
<path fill="none" stroke="#63b8ff" d="M2139.65,-230.99C2173.93,-220.81 2231.48,-203.72 2269.6,-192.4"/>
<polygon fill="#63b8ff" stroke="#63b8ff" points="2270.73,-195.72 2279.32,-189.52 2268.74,-189.01 2270.73,-195.72"/>
</a>
</g>
</g>
<!-- Node6 -->
<g id="Node000006" class="node">
<title>Node6</title>
<g id="a_Node000006"><a xlink:title=" ">
<polygon fill="#e0e0e0" stroke="#999999" points="2242,-189.5 2166,-189.5 2166,-170.5 2242,-170.5 2242,-189.5"/>
<text text-anchor="middle" x="2204" y="-177.5" font-family="Helvetica,sans-Serif" font-size="10.00">pico/stdlib.h</text>
</a>
</g>
</g>
<!-- Node3&#45;&gt;Node6 -->
<g id="edge6_Node000003_Node000006" class="edge">
<title>Node3&#45;&gt;Node6</title>
<g id="a_edge6_Node000003_Node000006"><a xlink:title=" ">
<path fill="none" stroke="#63b8ff" d="M2124.72,-230.87C2139.7,-221.45 2163.89,-206.23 2181.62,-195.08"/>
<polygon fill="#63b8ff" stroke="#63b8ff" points="2183.62,-197.95 2190.22,-189.67 2179.89,-192.03 2183.62,-197.95"/>
</a>
</g>
</g>
<!-- Node7&#45;&gt;Node2 -->
<g id="edge8_Node000007_Node000002" class="edge">
<title>Node7&#45;&gt;Node2</title>
<g id="a_edge8_Node000007_Node000002"><a xlink:title=" ">
<path fill="none" stroke="#63b8ff" d="M968.16,-54.98C976.5,-47.23 989.03,-35.58 999.18,-26.14"/>
<polygon fill="#63b8ff" stroke="#63b8ff" points="1001.74,-28.54 1006.68,-19.17 996.97,-23.42 1001.74,-28.54"/>
</a>
</g>
</g>
<!-- Node8&#45;&gt;Node5 -->
<g id="edge11_Node000008_Node000005" class="edge">
<title>Node8&#45;&gt;Node5</title>
<g id="a_edge11_Node000008_Node000005"><a xlink:title=" ">
<path fill="none" stroke="#63b8ff" d="M2242.36,-230.87C2254.42,-221.71 2273.7,-207.06 2288.25,-196.01"/>
<polygon fill="#63b8ff" stroke="#63b8ff" points="2290.75,-198.5 2296.59,-189.67 2286.51,-192.93 2290.75,-198.5"/>
</a>
</g>
</g>
<!-- Node8&#45;&gt;Node6 -->
<g id="edge12_Node000008_Node000006" class="edge">
<title>Node8&#45;&gt;Node6</title>
<g id="a_edge12_Node000008_Node000006"><a xlink:title=" ">
<path fill="none" stroke="#63b8ff" d="M2227.02,-230.87C2223.15,-222.49 2217.16,-209.51 2212.26,-198.89"/>
<polygon fill="#63b8ff" stroke="#63b8ff" points="2215.37,-197.28 2208,-189.67 2209.01,-200.21 2215.37,-197.28"/>
</a>
</g>
</g>
<!-- Node9&#45;&gt;Node2 -->
<g id="edge14_Node000009_Node000002" class="edge">
<title>Node9&#45;&gt;Node2</title>
<g id="a_edge14_Node000009_Node000002"><a xlink:title=" ">
<path fill="none" stroke="#63b8ff" d="M1047.07,-170.21C1049.3,-160.28 1052.7,-143.58 1054,-129 1054.75,-120.59 1055.53,-118.3 1054,-110 1048.51,-80.25 1034.52,-47.89 1025.13,-28.4"/>
<polygon fill="#63b8ff" stroke="#63b8ff" points="1028.17,-26.64 1020.6,-19.24 1021.89,-29.75 1028.17,-26.64"/>
</a>
</g>
</g>
<!-- Node9&#45;&gt;Node7 -->
<g id="edge18_Node000009_Node000007" class="edge">
<title>Node9&#45;&gt;Node7</title>
<g id="a_edge18_Node000009_Node000007"><a xlink:title=" ">
<path fill="none" stroke="#63b8ff" d="M1027.34,-170.34C1011.86,-161.87 989.86,-147.54 977,-129 967.71,-115.61 963.19,-97.51 961,-84.06"/>
<polygon fill="#63b8ff" stroke="#63b8ff" points="964.46,-83.5 959.66,-74.05 957.52,-84.43 964.46,-83.5"/>
</a>
</g>
</g>
<!-- Node10 -->
<g id="Node000010" class="node">
<title>Node10</title>
<g id="a_Node000010"><a xlink:href="Device_8h.html" target="_top" xlink:title=" ">
<polygon fill="white" stroke="#666666" points="1045.5,-129 986.5,-129 986.5,-110 1045.5,-110 1045.5,-129"/>
<text text-anchor="middle" x="1016" y="-117" font-family="Helvetica,sans-Serif" font-size="10.00">Device.h</text>
</a>
</g>
</g>
<!-- Node9&#45;&gt;Node10 -->
<g id="edge15_Node000009_Node000010" class="edge">
<title>Node9&#45;&gt;Node10</title>
<g id="a_edge15_Node000009_Node000010"><a xlink:title=" ">
<path fill="none" stroke="#63b8ff" d="M1040.72,-170.37C1036.57,-161.99 1030.13,-149.01 1024.87,-138.39"/>
<polygon fill="#63b8ff" stroke="#63b8ff" points="1027.87,-136.57 1020.3,-129.17 1021.6,-139.68 1027.87,-136.57"/>
</a>
</g>
</g>
<!-- Node10&#45;&gt;Node2 -->
<g id="edge16_Node000010_Node000002" class="edge">
<title>Node10&#45;&gt;Node2</title>
<g id="a_edge16_Node000010_Node000002"><a xlink:title=" ">
<path fill="none" stroke="#63b8ff" d="M1016,-109.66C1016,-92.17 1016,-52.8 1016,-29.27"/>
<polygon fill="#63b8ff" stroke="#63b8ff" points="1019.5,-29.16 1016,-19.16 1012.5,-29.16 1019.5,-29.16"/>
</a>
</g>
</g>
<!-- Node10&#45;&gt;Node7 -->
<g id="edge17_Node000010_Node000007" class="edge">
<title>Node10&#45;&gt;Node7</title>
<g id="a_edge17_Node000010_Node000007"><a xlink:title=" ">
<path fill="none" stroke="#63b8ff" d="M1006.84,-109.98C998.5,-102.23 985.97,-90.58 975.82,-81.14"/>
<polygon fill="#63b8ff" stroke="#63b8ff" points="978.03,-78.42 968.32,-74.17 973.26,-83.54 978.03,-78.42"/>
</a>
</g>
</g>
<!-- Node11&#45;&gt;Node4 -->
<g id="edge23_Node000011_Node000004" class="edge">
<title>Node11&#45;&gt;Node4</title>
<g id="a_edge23_Node000011_Node000004"><a xlink:title=" ">
<path fill="none" stroke="#63b8ff" d="M1270.57,-232.28C1273.76,-231.83 1276.92,-231.4 1280,-231 1421.03,-212.51 1457.98,-220.01 1598,-195 1603.07,-194.09 1608.37,-193 1613.6,-191.83"/>
<polygon fill="#63b8ff" stroke="#63b8ff" points="1614.56,-195.19 1623.5,-189.5 1612.96,-188.38 1614.56,-195.19"/>
</a>
</g>
</g>
<!-- Node11&#45;&gt;Node9 -->
<g id="edge24_Node000011_Node000009" class="edge">
<title>Node11&#45;&gt;Node9</title>
<g id="a_edge24_Node000011_Node000009"><a xlink:title=" ">
<path fill="none" stroke="#63b8ff" d="M1194.72,-230.92C1166.36,-222.22 1121.48,-208.2 1083,-195 1081.15,-194.37 1079.26,-193.71 1077.36,-193.03"/>
<polygon fill="#63b8ff" stroke="#63b8ff" points="1078.44,-189.7 1067.85,-189.61 1076.07,-196.29 1078.44,-189.7"/>
</a>
</g>
</g>
<!-- Node12 -->
<g id="Node000012" class="node">
<title>Node12</title>
<g id="a_Node000012"><a xlink:title=" ">
<polygon fill="#e0e0e0" stroke="#999999" points="1205.5,-189.5 1092.5,-189.5 1092.5,-170.5 1205.5,-170.5 1205.5,-189.5"/>
<text text-anchor="middle" x="1149" y="-177.5" font-family="Helvetica,sans-Serif" font-size="10.00">SparkFun_AS7331.h</text>
</a>
</g>
</g>
<!-- Node11&#45;&gt;Node12 -->
<g id="edge20_Node000011_Node000012" class="edge">
<title>Node11&#45;&gt;Node12</title>
<g id="a_edge20_Node000011_Node000012"><a xlink:title=" ">
<path fill="none" stroke="#63b8ff" d="M1212.08,-230.87C1200.49,-221.71 1181.97,-207.06 1167.98,-196.01"/>
<polygon fill="#63b8ff" stroke="#63b8ff" points="1169.98,-193.12 1159.96,-189.67 1165.64,-198.61 1169.98,-193.12"/>
</a>
</g>
</g>
<!-- Node13 -->
<g id="Node000013" class="node">
<title>Node13</title>
<g id="a_Node000013"><a xlink:title=" ">
<polygon fill="#e0e0e0" stroke="#999999" points="1272,-189.5 1224,-189.5 1224,-170.5 1272,-170.5 1272,-189.5"/>
<text text-anchor="middle" x="1248" y="-177.5" font-family="Helvetica,sans-Serif" font-size="10.00">Wire.h</text>
</a>
</g>
</g>
<!-- Node11&#45;&gt;Node13 -->
<g id="edge21_Node000011_Node000013" class="edge">
<title>Node11&#45;&gt;Node13</title>
<g id="a_edge21_Node000011_Node000013"><a xlink:title=" ">
<path fill="none" stroke="#63b8ff" d="M1226.69,-230.87C1230.27,-222.49 1235.82,-209.51 1240.35,-198.89"/>
<polygon fill="#63b8ff" stroke="#63b8ff" points="1243.58,-200.24 1244.3,-189.67 1237.15,-197.49 1243.58,-200.24"/>
</a>
</g>
</g>
<!-- Node14 -->
<g id="Node000014" class="node">
<title>Node14</title>
<g id="a_Node000014"><a xlink:title=" ">
<polygon fill="#e0e0e0" stroke="#999999" points="671.5,-189.5 618.5,-189.5 618.5,-170.5 671.5,-170.5 671.5,-189.5"/>
<text text-anchor="middle" x="645" y="-177.5" font-family="Helvetica,sans-Serif" font-size="10.00">string.h</text>
</a>
</g>
</g>
<!-- Node11&#45;&gt;Node14 -->
<g id="edge22_Node000011_Node000014" class="edge">
<title>Node11&#45;&gt;Node14</title>
<g id="a_edge22_Node000011_Node000014"><a xlink:title=" ">
<path fill="none" stroke="#63b8ff" d="M1175.45,-232.14C1172.25,-231.73 1169.08,-231.34 1166,-231 951.18,-207.04 891.82,-242.7 681,-195 678.63,-194.46 676.2,-193.8 673.79,-193.05"/>
<polygon fill="#63b8ff" stroke="#63b8ff" points="674.69,-189.66 664.1,-189.64 672.37,-196.26 674.69,-189.66"/>
</a>
</g>
</g>
<!-- Node15&#45;&gt;Node9 -->
<g id="edge27_Node000015_Node000009" class="edge">
<title>Node15&#45;&gt;Node9</title>
<g id="a_edge27_Node000015_Node000009"><a xlink:title=" ">
<path fill="none" stroke="#63b8ff" d="M663.03,-232.18C666.06,-231.77 669.07,-231.37 672,-231 820.55,-212.14 861.2,-229.14 1007,-195 1009.52,-194.41 1012.09,-193.7 1014.66,-192.92"/>
<polygon fill="#63b8ff" stroke="#63b8ff" points="1016.02,-196.16 1024.38,-189.64 1013.78,-189.52 1016.02,-196.16"/>
</a>
</g>
</g>
<!-- Node16 -->
<g id="Node000016" class="node">
<title>Node16</title>
<g id="a_Node000016"><a xlink:title=" ">
<polygon fill="#e0e0e0" stroke="#999999" points="338.5,-189.5 227.5,-189.5 227.5,-170.5 338.5,-170.5 338.5,-189.5"/>
<text text-anchor="middle" x="283" y="-177.5" font-family="Helvetica,sans-Serif" font-size="10.00">Adafruit_BMP3XX.h</text>
</a>
</g>
</g>
<!-- Node15&#45;&gt;Node16 -->
<g id="edge26_Node000015_Node000016" class="edge">
<title>Node15&#45;&gt;Node16</title>
<g id="a_edge26_Node000015_Node000016"><a xlink:title=" ">
<path fill="none" stroke="#63b8ff" d="M564.66,-232.04C510.97,-223.74 422.68,-209.57 347,-195 341.63,-193.96 336.01,-192.82 330.43,-191.65"/>
<polygon fill="#63b8ff" stroke="#63b8ff" points="331.01,-188.2 320.5,-189.53 329.55,-195.04 331.01,-188.2"/>
</a>
</g>
</g>
<!-- Node17&#45;&gt;Node4 -->
<g id="edge30_Node000017_Node000004" class="edge">
<title>Node17&#45;&gt;Node4</title>
<g id="a_edge30_Node000017_Node000004"><a xlink:title=" ">
<path fill="none" stroke="#63b8ff" d="M1487.5,-230.99C1521.61,-220.81 1578.87,-203.72 1616.79,-192.4"/>
<polygon fill="#63b8ff" stroke="#63b8ff" points="1617.88,-195.73 1626.47,-189.52 1615.88,-189.02 1617.88,-195.73"/>
</a>
</g>
</g>
<!-- Node17&#45;&gt;Node9 -->
<g id="edge31_Node000017_Node000009" class="edge">
<title>Node17&#45;&gt;Node9</title>
<g id="a_edge31_Node000017_Node000009"><a xlink:title=" ">
<path fill="none" stroke="#63b8ff" d="M1411.43,-232.28C1408.24,-231.83 1405.08,-231.4 1402,-231 1260.53,-212.48 1221.83,-227.9 1083,-195 1080.49,-194.4 1077.91,-193.69 1075.34,-192.91"/>
<polygon fill="#63b8ff" stroke="#63b8ff" points="1076.22,-189.51 1065.63,-189.62 1073.98,-196.14 1076.22,-189.51"/>
</a>
</g>
</g>
<!-- Node17&#45;&gt;Node13 -->
<g id="edge29_Node000017_Node000013" class="edge">
<title>Node17&#45;&gt;Node13</title>
<g id="a_edge29_Node000017_Node000013"><a xlink:title=" ">
<path fill="none" stroke="#63b8ff" d="M1428.32,-230.99C1389.33,-220.18 1322.26,-201.59 1281.83,-190.38"/>
<polygon fill="#63b8ff" stroke="#63b8ff" points="1282.73,-187 1272.16,-187.7 1280.86,-193.74 1282.73,-187"/>
</a>
</g>
</g>
<!-- Node18 -->
<g id="Node000018" class="node">
<title>Node18</title>
<g id="a_Node000018"><a xlink:title=" ">
<polygon fill="#e0e0e0" stroke="#999999" points="1589.5,-189.5 1476.5,-189.5 1476.5,-170.5 1589.5,-170.5 1589.5,-189.5"/>
<text text-anchor="middle" x="1533" y="-177.5" font-family="Helvetica,sans-Serif" font-size="10.00">SparkFun_ENS160.h</text>
</a>
</g>
</g>
<!-- Node17&#45;&gt;Node18 -->
<g id="edge32_Node000017_Node000018" class="edge">
<title>Node17&#45;&gt;Node18</title>
<g id="a_edge32_Node000017_Node000018"><a xlink:title=" ">
<path fill="none" stroke="#63b8ff" d="M1469.92,-230.87C1481.51,-221.71 1500.03,-207.06 1514.02,-196.01"/>
<polygon fill="#63b8ff" stroke="#63b8ff" points="1516.36,-198.61 1522.04,-189.67 1512.02,-193.12 1516.36,-198.61"/>
</a>
</g>
</g>
<!-- Node19&#45;&gt;Node4 -->
<g id="edge38_Node000019_Node000004" class="edge">
<title>Node19&#45;&gt;Node4</title>
<g id="a_edge38_Node000019_Node000004"><a xlink:title=" ">
<path fill="none" stroke="#63b8ff" d="M788.58,-231.94C791.76,-231.59 794.92,-231.28 798,-231 1152.49,-199.17 1245.71,-245.69 1598,-195 1603.55,-194.2 1609.34,-193.1 1615.02,-191.86"/>
<polygon fill="#63b8ff" stroke="#63b8ff" points="1616.1,-195.21 1625.04,-189.52 1614.51,-188.39 1616.1,-195.21"/>
</a>
</g>
</g>
<!-- Node19&#45;&gt;Node9 -->
<g id="edge39_Node000019_Node000009" class="edge">
<title>Node19&#45;&gt;Node9</title>
<g id="a_edge39_Node000019_Node000009"><a xlink:title=" ">
<path fill="none" stroke="#63b8ff" d="M788.74,-231.95C855.87,-222.3 966.8,-205.59 1007,-195 1009.44,-194.36 1011.94,-193.62 1014.44,-192.83"/>
<polygon fill="#63b8ff" stroke="#63b8ff" points="1015.6,-196.13 1023.93,-189.58 1013.33,-189.51 1015.6,-196.13"/>
</a>
</g>
</g>
<!-- Node19&#45;&gt;Node14 -->
<g id="edge37_Node000019_Node000014" class="edge">
<title>Node19&#45;&gt;Node14</title>
<g id="a_edge37_Node000019_Node000014"><a xlink:title=" ">
<path fill="none" stroke="#63b8ff" d="M721.72,-230.87C707.36,-221.54 684.24,-206.51 667.13,-195.38"/>
<polygon fill="#63b8ff" stroke="#63b8ff" points="668.63,-192.18 658.33,-189.67 664.81,-198.05 668.63,-192.18"/>
</a>
</g>
</g>
<!-- Node20 -->
<g id="Node000020" class="node">
<title>Node20</title>
<g id="a_Node000020"><a xlink:title=" ">
<polygon fill="#e0e0e0" stroke="#999999" points="600.5,-189.5 481.5,-189.5 481.5,-170.5 600.5,-170.5 600.5,-189.5"/>
<text text-anchor="middle" x="541" y="-177.5" font-family="Helvetica,sans-Serif" font-size="10.00">Adafruit_ICM20948.h</text>
</a>
</g>
</g>
<!-- Node19&#45;&gt;Node20 -->
<g id="edge34_Node000019_Node000020" class="edge">
<title>Node19&#45;&gt;Node20</title>
<g id="a_edge34_Node000019_Node000020"><a xlink:title=" ">
<path fill="none" stroke="#63b8ff" d="M706.79,-230.99C673.03,-220.81 616.35,-203.72 578.82,-192.4"/>
<polygon fill="#63b8ff" stroke="#63b8ff" points="579.83,-189.05 569.24,-189.52 577.81,-195.75 579.83,-189.05"/>
</a>
</g>
</g>
<!-- Node21 -->
<g id="Node000021" class="node">
<title>Node21</title>
<g id="a_Node000021"><a xlink:title=" ">
<polygon fill="#e0e0e0" stroke="#999999" points="463.5,-189.5 356.5,-189.5 356.5,-170.5 463.5,-170.5 463.5,-189.5"/>
<text text-anchor="middle" x="410" y="-177.5" font-family="Helvetica,sans-Serif" font-size="10.00">Adafruit_ICM20X.h</text>
</a>
</g>
</g>
<!-- Node19&#45;&gt;Node21 -->
<g id="edge35_Node000019_Node000021" class="edge">
<title>Node19&#45;&gt;Node21</title>
<g id="a_edge35_Node000019_Node000021"><a xlink:title=" ">
<path fill="none" stroke="#63b8ff" d="M681.45,-231.32C628.2,-222.97 544.24,-209.26 472,-195 466.92,-194 461.62,-192.89 456.35,-191.76"/>
<polygon fill="#63b8ff" stroke="#63b8ff" points="456.84,-188.28 446.32,-189.55 455.33,-195.12 456.84,-188.28"/>
</a>
</g>
</g>
<!-- Node22 -->
<g id="Node000022" class="node">
<title>Node22</title>
<g id="a_Node000022"><a xlink:title=" ">
<polygon fill="#e0e0e0" stroke="#999999" points="792,-189.5 690,-189.5 690,-170.5 792,-170.5 792,-189.5"/>
<text text-anchor="middle" x="741" y="-177.5" font-family="Helvetica,sans-Serif" font-size="10.00">Adafruit_Sensor.h</text>
</a>
</g>
</g>
<!-- Node19&#45;&gt;Node22 -->
<g id="edge36_Node000019_Node000022" class="edge">
<title>Node19&#45;&gt;Node22</title>
<g id="a_edge36_Node000019_Node000022"><a xlink:title=" ">
<path fill="none" stroke="#63b8ff" d="M735.89,-230.87C736.72,-222.75 737.99,-210.31 739.06,-199.89"/>
<polygon fill="#63b8ff" stroke="#63b8ff" points="742.57,-199.97 740.11,-189.67 735.61,-199.26 742.57,-199.97"/>
</a>
</g>
</g>
<!-- Node23&#45;&gt;Node2 -->
<g id="edge41_Node000023_Node000002" class="edge">
<title>Node23&#45;&gt;Node2</title>
<g id="a_edge41_Node000023_Node000002"><a xlink:title=" ">
<path fill="none" stroke="#63b8ff" d="M453.35,-237.81C351.93,-233.65 118.57,-221.31 95,-195 86.1,-185.07 86.39,-175.18 95,-165 210.42,-28.61 809.81,-12.55 974.24,-10.72"/>
<polygon fill="#63b8ff" stroke="#63b8ff" points="974.47,-14.22 984.43,-10.62 974.4,-7.22 974.47,-14.22"/>
</a>
</g>
</g>
<!-- Node23&#45;&gt;Node9 -->
<g id="edge44_Node000023_Node000009" class="edge">
<title>Node23&#45;&gt;Node9</title>
<g id="a_edge44_Node000023_Node000009"><a xlink:title=" ">
<path fill="none" stroke="#63b8ff" d="M546.72,-232.16C549.86,-231.74 552.97,-231.35 556,-231 755.75,-207.9 810.6,-238.16 1007,-195 1009.68,-194.41 1012.42,-193.68 1015.14,-192.86"/>
<polygon fill="#63b8ff" stroke="#63b8ff" points="1016.44,-196.11 1024.8,-189.6 1014.2,-189.48 1016.44,-196.11"/>
</a>
</g>
</g>
<!-- Node23&#45;&gt;Node14 -->
<g id="edge42_Node000023_Node000014" class="edge">
<title>Node23&#45;&gt;Node14</title>
<g id="a_edge42_Node000023_Node000014"><a xlink:title=" ">
<path fill="none" stroke="#63b8ff" d="M521.08,-230.99C545.68,-221.07 586.53,-204.59 614.56,-193.28"/>
<polygon fill="#63b8ff" stroke="#63b8ff" points="615.93,-196.5 623.89,-189.52 613.31,-190.01 615.93,-196.5"/>
</a>
</g>
</g>
<!-- Node24 -->
<g id="Node000024" class="node">
<title>Node24</title>
<g id="a_Node000024"><a xlink:title=" ">
<polygon fill="#e0e0e0" stroke="#999999" points="209.5,-189.5 104.5,-189.5 104.5,-170.5 209.5,-170.5 209.5,-189.5"/>
<text text-anchor="middle" x="157" y="-177.5" font-family="Helvetica,sans-Serif" font-size="10.00">Adafruit_INA260.h</text>
</a>
</g>
</g>
<!-- Node23&#45;&gt;Node24 -->
<g id="edge43_Node000023_Node000024" class="edge">
<title>Node23&#45;&gt;Node24</title>
<g id="a_edge43_Node000023_Node000024"><a xlink:title=" ">
<path fill="none" stroke="#63b8ff" d="M453.42,-233.16C397.37,-225.29 300.48,-210.95 218,-195 212.93,-194.02 207.64,-192.92 202.38,-191.78"/>
<polygon fill="#63b8ff" stroke="#63b8ff" points="202.91,-188.31 192.39,-189.56 201.4,-195.15 202.91,-188.31"/>
</a>
</g>
</g>
<!-- Node25&#45;&gt;Node2 -->
<g id="edge46_Node000025_Node000002" class="edge">
<title>Node25&#45;&gt;Node2</title>
<g id="a_edge46_Node000025_Node000002"><a xlink:title=" ">
<path fill="none" stroke="#63b8ff" d="M1335.56,-230.83C1325.93,-215.99 1304.67,-185.36 1281,-165 1204.57,-99.26 1096.27,-46.27 1045.03,-23.11"/>
<polygon fill="#63b8ff" stroke="#63b8ff" points="1046.41,-19.9 1035.86,-19.01 1043.56,-26.29 1046.41,-19.9"/>
</a>
</g>
</g>
<!-- Node25&#45;&gt;Node4 -->
<g id="edge49_Node000025_Node000004" class="edge">
<title>Node25&#45;&gt;Node4</title>
<g id="a_edge49_Node000025_Node000004"><a xlink:title=" ">
<path fill="none" stroke="#63b8ff" d="M1393.38,-231.52C1445.45,-223.33 1527.53,-209.74 1598,-195 1602.5,-194.06 1607.18,-193.02 1611.84,-191.93"/>
<polygon fill="#63b8ff" stroke="#63b8ff" points="1613.02,-195.25 1621.93,-189.53 1611.4,-188.44 1613.02,-195.25"/>
</a>
</g>
</g>
<!-- Node25&#45;&gt;Node9 -->
<g id="edge50_Node000025_Node000009" class="edge">
<title>Node25&#45;&gt;Node9</title>
<g id="a_edge50_Node000025_Node000009"><a xlink:title=" ">
<path fill="none" stroke="#63b8ff" d="M1288.92,-231.67C1225.15,-221.87 1120.92,-205.16 1083,-195 1080.56,-194.35 1078.06,-193.6 1075.57,-192.8"/>
<polygon fill="#63b8ff" stroke="#63b8ff" points="1076.68,-189.48 1066.08,-189.54 1074.4,-196.1 1076.68,-189.48"/>
</a>
</g>
</g>
<!-- Node25&#45;&gt;Node13 -->
<g id="edge48_Node000025_Node000013" class="edge">
<title>Node25&#45;&gt;Node13</title>
<g id="a_edge48_Node000025_Node000013"><a xlink:title=" ">
<path fill="none" stroke="#63b8ff" d="M1327.28,-230.87C1312.3,-221.45 1288.11,-206.23 1270.38,-195.08"/>
<polygon fill="#63b8ff" stroke="#63b8ff" points="1272.11,-192.03 1261.78,-189.67 1268.38,-197.95 1272.11,-192.03"/>
</a>
</g>
</g>
<!-- Node26 -->
<g id="Node000026" class="node">
<title>Node26</title>
<g id="a_Node000026"><a xlink:title=" ">
<polygon fill="#e0e0e0" stroke="#999999" points="1458,-195 1328,-195 1328,-165 1458,-165 1458,-195"/>
<text text-anchor="start" x="1336" y="-183" font-family="Helvetica,sans-Serif" font-size="10.00">SparkFun_u&#45;blox_GNSS</text>
<text text-anchor="middle" x="1393" y="-172" font-family="Helvetica,sans-Serif" font-size="10.00">_Arduino_Library.h</text>
</a>
</g>
</g>
<!-- Node25&#45;&gt;Node26 -->
<g id="edge47_Node000025_Node000026" class="edge">
<title>Node25&#45;&gt;Node26</title>
<g id="a_edge47_Node000025_Node000026"><a xlink:title=" ">
<path fill="none" stroke="#63b8ff" d="M1348.67,-230.87C1355.27,-223.44 1365.07,-212.42 1373.78,-202.62"/>
<polygon fill="#63b8ff" stroke="#63b8ff" points="1376.43,-204.91 1380.45,-195.11 1371.19,-200.26 1376.43,-204.91"/>
</a>
</g>
</g>
<!-- Node27&#45;&gt;Node4 -->
<g id="edge53_Node000027_Node000004" class="edge">
<title>Node27&#45;&gt;Node4</title>
<g id="a_edge53_Node000027_Node000004"><a xlink:title=" ">
<path fill="none" stroke="#63b8ff" d="M1712.97,-230.87C1702.42,-221.8 1685.61,-207.34 1672.81,-196.32"/>
<polygon fill="#63b8ff" stroke="#63b8ff" points="1674.94,-193.54 1665.07,-189.67 1670.37,-198.84 1674.94,-193.54"/>
</a>
</g>
</g>
<!-- Node27&#45;&gt;Node9 -->
<g id="edge54_Node000027_Node000009" class="edge">
<title>Node27&#45;&gt;Node9</title>
<g id="a_edge54_Node000027_Node000009"><a xlink:title=" ">
<path fill="none" stroke="#63b8ff" d="M1678.08,-235.16C1662.83,-233.75 1645.68,-232.23 1630,-231 1387.11,-211.91 1321.32,-245.63 1083,-195 1080.16,-194.4 1077.25,-193.63 1074.37,-192.75"/>
<polygon fill="#63b8ff" stroke="#63b8ff" points="1075.39,-189.41 1064.8,-189.51 1073.15,-196.04 1075.39,-189.41"/>
</a>
</g>
</g>
<!-- Node28 -->
<g id="Node000028" class="node">
<title>Node28</title>
<g id="a_Node000028"><a xlink:title=" ">
<polygon fill="#e0e0e0" stroke="#999999" points="1990,-189.5 1854,-189.5 1854,-170.5 1990,-170.5 1990,-189.5"/>
<text text-anchor="middle" x="1922" y="-177.5" font-family="Helvetica,sans-Serif" font-size="10.00">DFRobot_OzoneSensor.h</text>
</a>
</g>
</g>
<!-- Node27&#45;&gt;Node28 -->
<g id="edge52_Node000027_Node000028" class="edge">
<title>Node27&#45;&gt;Node28</title>
<g id="a_edge52_Node000027_Node000028"><a xlink:title=" ">
<path fill="none" stroke="#63b8ff" d="M1751.94,-230.99C1786.57,-220.81 1844.7,-203.72 1883.21,-192.4"/>
<polygon fill="#63b8ff" stroke="#63b8ff" points="1884.42,-195.7 1893.03,-189.52 1882.45,-188.98 1884.42,-195.7"/>
</a>
</g>
</g>
<!-- Node29&#45;&gt;Node9 -->
<g id="edge57_Node000029_Node000009" class="edge">
<title>Node29&#45;&gt;Node9</title>
<g id="a_edge57_Node000029_Node000009"><a xlink:title=" ">
<path fill="none" stroke="#63b8ff" d="M977.66,-230.87C990.14,-221.62 1010.18,-206.78 1025.16,-195.69"/>
<polygon fill="#63b8ff" stroke="#63b8ff" points="1027.34,-198.43 1033.3,-189.67 1023.18,-192.81 1027.34,-198.43"/>
</a>
</g>
</g>
<!-- Node30 -->
<g id="Node000030" class="node">
<title>Node30</title>
<g id="a_Node000030"><a xlink:title=" ">
<polygon fill="#e0e0e0" stroke="#999999" points="998,-189.5 942,-189.5 942,-170.5 998,-170.5 998,-189.5"/>
<text text-anchor="middle" x="970" y="-177.5" font-family="Helvetica,sans-Serif" font-size="10.00">RTClib.h</text>
</a>
</g>
</g>
<!-- Node29&#45;&gt;Node30 -->
<g id="edge56_Node000029_Node000030" class="edge">
<title>Node29&#45;&gt;Node30</title>
<g id="a_edge56_Node000029_Node000030"><a xlink:title=" ">
<path fill="none" stroke="#63b8ff" d="M966.59,-230.87C967.15,-222.75 968,-210.31 968.71,-199.89"/>
<polygon fill="#63b8ff" stroke="#63b8ff" points="972.22,-199.88 969.41,-189.67 965.23,-199.41 972.22,-199.88"/>
</a>
</g>
</g>
<!-- Node31&#45;&gt;Node4 -->
<g id="edge63_Node000031_Node000004" class="edge">
<title>Node31&#45;&gt;Node4</title>
<g id="a_edge63_Node000031_Node000004"><a xlink:title=" ">
<path fill="none" stroke="#63b8ff" d="M897.04,-232.05C900.06,-231.66 903.07,-231.31 906,-231 1212.31,-199.01 1293.32,-239.93 1598,-195 1603.48,-194.19 1609.21,-193.1 1614.82,-191.87"/>
<polygon fill="#63b8ff" stroke="#63b8ff" points="1615.8,-195.24 1624.74,-189.56 1614.21,-188.42 1615.8,-195.24"/>
</a>
</g>
</g>
<!-- Node31&#45;&gt;Node9 -->
<g id="edge64_Node000031_Node000009" class="edge">
<title>Node31&#45;&gt;Node9</title>
<g id="a_edge64_Node000031_Node000009"><a xlink:title=" ">
<path fill="none" stroke="#63b8ff" d="M884.27,-230.98C915.77,-222.48 964.96,-208.76 1007,-195 1008.9,-194.38 1010.86,-193.72 1012.82,-193.04"/>
<polygon fill="#63b8ff" stroke="#63b8ff" points="1014.34,-196.21 1022.59,-189.57 1012,-189.62 1014.34,-196.21"/>
</a>
</g>
</g>
<!-- Node31&#45;&gt;Node13 -->
<g id="edge61_Node000031_Node000013" class="edge">
<title>Node31&#45;&gt;Node13</title>
<g id="a_edge61_Node000031_Node000013"><a xlink:title=" ">
<path fill="none" stroke="#63b8ff" d="M897.06,-232.27C900.08,-231.83 903.09,-231.4 906,-231 1042.54,-212.28 1080.58,-229.56 1214,-195 1216.16,-194.44 1218.36,-193.77 1220.56,-193.04"/>
<polygon fill="#63b8ff" stroke="#63b8ff" points="1221.84,-196.3 1229.96,-189.5 1219.37,-189.74 1221.84,-196.3"/>
</a>
</g>
</g>
<!-- Node31&#45;&gt;Node14 -->
<g id="edge62_Node000031_Node000014" class="edge">
<title>Node31&#45;&gt;Node14</title>
<g id="a_edge62_Node000031_Node000014"><a xlink:title=" ">
<path fill="none" stroke="#63b8ff" d="M813.94,-230.94C779.04,-222.77 726.1,-209.58 681,-195 679.13,-194.4 677.22,-193.75 675.3,-193.07"/>
<polygon fill="#63b8ff" stroke="#63b8ff" points="676.39,-189.74 665.79,-189.56 673.96,-196.31 676.39,-189.74"/>
</a>
</g>
</g>
<!-- Node31&#45;&gt;Node22 -->
<g id="edge59_Node000031_Node000022" class="edge">
<title>Node31&#45;&gt;Node22</title>
<g id="a_edge59_Node000031_Node000022"><a xlink:title=" ">
<path fill="none" stroke="#63b8ff" d="M835.62,-230.87C817.42,-221.28 787.8,-205.67 766.55,-194.47"/>
<polygon fill="#63b8ff" stroke="#63b8ff" points="767.92,-191.23 757.45,-189.67 764.66,-197.43 767.92,-191.23"/>
</a>
</g>
</g>
<!-- Node32 -->
<g id="Node000032" class="node">
<title>Node32</title>
<g id="a_Node000032"><a xlink:title=" ">
<polygon fill="#e0e0e0" stroke="#999999" points="924,-189.5 810,-189.5 810,-170.5 924,-170.5 924,-189.5"/>
<text text-anchor="middle" x="867" y="-177.5" font-family="Helvetica,sans-Serif" font-size="10.00">SensirionI2cScd4x.h</text>
</a>
</g>
</g>
<!-- Node31&#45;&gt;Node32 -->
<g id="edge60_Node000031_Node000032" class="edge">
<title>Node31&#45;&gt;Node32</title>
<g id="a_edge60_Node000031_Node000032"><a xlink:title=" ">
<path fill="none" stroke="#63b8ff" d="M854.21,-230.87C856.32,-222.66 859.55,-210.04 862.24,-199.55"/>
<polygon fill="#63b8ff" stroke="#63b8ff" points="865.68,-200.22 864.78,-189.67 858.9,-198.48 865.68,-200.22"/>
</a>
</g>
</g>
<!-- Node33&#45;&gt;Node4 -->
<g id="edge67_Node000033_Node000004" class="edge">
<title>Node33&#45;&gt;Node4</title>
<g id="a_edge67_Node000033_Node000004"><a xlink:title=" ">
<path fill="none" stroke="#63b8ff" d="M1804.55,-230.99C1774.36,-220.9 1723.84,-204.01 1689.98,-192.69"/>
<polygon fill="#63b8ff" stroke="#63b8ff" points="1691.07,-189.37 1680.48,-189.52 1688.85,-196.01 1691.07,-189.37"/>
</a>
</g>
</g>
<!-- Node33&#45;&gt;Node9 -->
<g id="edge68_Node000033_Node000009" class="edge">
<title>Node33&#45;&gt;Node9</title>
<g id="a_edge68_Node000033_Node000009"><a xlink:title=" ">
<path fill="none" stroke="#63b8ff" d="M1785.26,-232.09C1782.13,-231.68 1779.02,-231.32 1776,-231 1469.25,-198.98 1385.12,-257.01 1083,-195 1080.16,-194.42 1077.25,-193.66 1074.36,-192.8"/>
<polygon fill="#63b8ff" stroke="#63b8ff" points="1075.38,-189.45 1064.79,-189.57 1073.14,-196.08 1075.38,-189.45"/>
</a>
</g>
</g>
<!-- Node34 -->
<g id="Node000034" class="node">
<title>Node34</title>
<g id="a_Node000034"><a xlink:title=" ">
<polygon fill="#e0e0e0" stroke="#999999" points="2109.5,-189.5 2008.5,-189.5 2008.5,-170.5 2109.5,-170.5 2109.5,-189.5"/>
<text text-anchor="middle" x="2059" y="-177.5" font-family="Helvetica,sans-Serif" font-size="10.00">Adafruit_SHTC3.h</text>
</a>
</g>
</g>
<!-- Node33&#45;&gt;Node34 -->
<g id="edge66_Node000033_Node000034" class="edge">
<title>Node33&#45;&gt;Node34</title>
<g id="a_edge66_Node000033_Node000034"><a xlink:title=" ">
<path fill="none" stroke="#63b8ff" d="M1863.3,-230.99C1903.58,-220.7 1971.48,-203.36 2015.77,-192.04"/>
<polygon fill="#63b8ff" stroke="#63b8ff" points="2016.84,-195.38 2025.66,-189.52 2015.11,-188.6 2016.84,-195.38"/>
</a>
</g>
</g>
<!-- Node35&#45;&gt;Node4 -->
<g id="edge72_Node000035_Node000004" class="edge">
<title>Node35&#45;&gt;Node4</title>
<g id="a_edge72_Node000035_Node000004"><a xlink:title=" ">
<path fill="none" stroke="#63b8ff" d="M1585.1,-230.87C1598.06,-221.62 1618.86,-206.78 1634.4,-195.69"/>
<polygon fill="#63b8ff" stroke="#63b8ff" points="1636.74,-198.32 1642.85,-189.67 1632.68,-192.63 1636.74,-198.32"/>
</a>
</g>
</g>
<!-- Node35&#45;&gt;Node9 -->
<g id="edge73_Node000035_Node000009" class="edge">
<title>Node35&#45;&gt;Node9</title>
<g id="a_edge73_Node000035_Node000009"><a xlink:title=" ">
<path fill="none" stroke="#63b8ff" d="M1524.29,-232.14C1521.15,-231.73 1518.03,-231.35 1515,-231 1323.59,-209.02 1271.1,-236.68 1083,-195 1080.33,-194.41 1077.58,-193.67 1074.86,-192.85"/>
<polygon fill="#63b8ff" stroke="#63b8ff" points="1075.8,-189.47 1065.21,-189.59 1073.56,-196.1 1075.8,-189.47"/>
</a>
</g>
</g>
<!-- Node35&#45;&gt;Node13 -->
<g id="edge71_Node000035_Node000013" class="edge">
<title>Node35&#45;&gt;Node13</title>
<g id="a_edge71_Node000035_Node000013"><a xlink:title=" ">
<path fill="none" stroke="#63b8ff" d="M1524.25,-231.28C1473.08,-222.57 1390.3,-208.27 1319,-195 1306.96,-192.76 1293.8,-190.2 1282.12,-187.88"/>
<polygon fill="#63b8ff" stroke="#63b8ff" points="1282.78,-184.44 1272.29,-185.92 1281.42,-191.31 1282.78,-184.44"/>
</a>
</g>
</g>
<!-- Node36 -->
<g id="Node000036" class="node">
<title>Node36</title>
<g id="a_Node000036"><a xlink:title=" ">
<polygon fill="#e0e0e0" stroke="#999999" points="1835.5,-189.5 1720.5,-189.5 1720.5,-170.5 1835.5,-170.5 1835.5,-189.5"/>
<text text-anchor="middle" x="1778" y="-177.5" font-family="Helvetica,sans-Serif" font-size="10.00">SparkFun_TMP117.h</text>
</a>
</g>
</g>
<!-- Node35&#45;&gt;Node36 -->
<g id="edge70_Node000035_Node000036" class="edge">
<title>Node35&#45;&gt;Node36</title>
<g id="a_edge70_Node000035_Node000036"><a xlink:title=" ">
<path fill="none" stroke="#63b8ff" d="M1602.81,-230.99C1638.56,-220.79 1698.63,-203.65 1738.29,-192.33"/>
<polygon fill="#63b8ff" stroke="#63b8ff" points="1739.5,-195.63 1748.16,-189.52 1737.58,-188.9 1739.5,-195.63"/>
</a>
</g>
</g>
<!-- Node37&#45;&gt;Node9 -->
<g id="edge75_Node000037_Node000009" class="edge">
<title>Node37&#45;&gt;Node9</title>
<g id="a_edge75_Node000037_Node000009"><a xlink:title=" ">
<path fill="none" stroke="#63b8ff" d="M1104.67,-230.87C1093.81,-221.8 1076.51,-207.34 1063.33,-196.32"/>
<polygon fill="#63b8ff" stroke="#63b8ff" points="1065.29,-193.39 1055.37,-189.67 1060.8,-198.77 1065.29,-193.39"/>
</a>
</g>
</g>
</g>
</svg>
