<?xml version="1.0" encoding="UTF-8" standalone="no"?>
<!DOCTYPE svg PUBLIC "-//W3C//DTD SVG 1.1//EN"
 "http://www.w3.org/Graphics/SVG/1.1/DTD/svg11.dtd">
<!-- Generated by graphviz version 2.43.0 (0)
 -->
<!-- Title: main.cpp Pages: 1 -->
<svg width="2454pt" height="313pt"
 viewBox="0.00 0.00 2453.50 313.00" xmlns="http://www.w3.org/2000/svg" xmlns:xlink="http://www.w3.org/1999/xlink">
<g id="graph0" class="graph" transform="scale(1 1) rotate(0) translate(4 309)">
<title>main.cpp</title>
<!-- Node1 -->
<g id="Node000001" class="node">
<title>Node1</title>
<g id="a_Node000001"><a xlink:title="Main functions for Core 0, responsible for reading data from sensor peripherals.">
<polygon fill="#999999" stroke="#666666" points="847,-305 785,-305 785,-286 847,-286 847,-305"/>
<text text-anchor="middle" x="816" y="-293" font-family="Helvetica,sans-Serif" font-size="10.00">main.cpp</text>
</a>
</g>
</g>
<!-- Node2 -->
<g id="Node000002" class="node">
<title>Node2</title>
<g id="a_Node000002"><a xlink:title=" ">
<polygon fill="#e0e0e0" stroke="#999999" points="1073.5,-19 1010.5,-19 1010.5,0 1073.5,0 1073.5,-19"/>
<text text-anchor="middle" x="1042" y="-7" font-family="Helvetica,sans-Serif" font-size="10.00">Arduino.h</text>
</a>
</g>
</g>
<!-- Node1&#45;&gt;Node2 -->
<g id="edge1_Node000001_Node000002" class="edge">
<title>Node1&#45;&gt;Node2</title>
<g id="a_edge1_Node000001_Node000002"><a xlink:title=" ">
<path fill="none" stroke="#63b8ff" d="M784.92,-294.7C664.93,-295.16 232.08,-293.68 103,-250 50.81,-232.34 0,-236.1 0,-181 0,-181 0,-181 0,-118.5 0,-16.15 805.7,-10.29 1000.14,-10.37"/>
<polygon fill="#63b8ff" stroke="#63b8ff" points="1000.24,-13.87 1010.25,-10.38 1000.25,-6.87 1000.24,-13.87"/>
</a>
</g>
</g>
<!-- Node3 -->
<g id="Node000003" class="node">
<title>Node3</title>
<g id="a_Node000003"><a xlink:href="ErrorDisplay_8h.html" target="_top" xlink:title=" ">
<polygon fill="white" stroke="#666666" points="2298,-250 2214,-250 2214,-231 2298,-231 2298,-250"/>
<text text-anchor="middle" x="2256" y="-238" font-family="Helvetica,sans-Serif" font-size="10.00">ErrorDisplay.h</text>
</a>
</g>
</g>
<!-- Node1&#45;&gt;Node3 -->
<g id="edge2_Node000001_Node000003" class="edge">
<title>Node1&#45;&gt;Node3</title>
<g id="a_edge2_Node000001_Node000003"><a xlink:title=" ">
<path fill="none" stroke="#63b8ff" d="M847.08,-293.36C1030.36,-286.61 1970.05,-252.02 2203.47,-243.43"/>
<polygon fill="#63b8ff" stroke="#63b8ff" points="2203.86,-246.92 2213.72,-243.06 2203.6,-239.93 2203.86,-246.92"/>
</a>
</g>
</g>
<!-- Node4 -->
<g id="Node000004" class="node">
<title>Node4</title>
<g id="a_Node000004"><a xlink:href="PayloadConfig_8h.html" target="_top" xlink:title="Central location for pinout and config defines.">
<polygon fill="white" stroke="#666666" points="1816.5,-189.5 1721.5,-189.5 1721.5,-170.5 1816.5,-170.5 1816.5,-189.5"/>
<text text-anchor="middle" x="1769" y="-177.5" font-family="Helvetica,sans-Serif" font-size="10.00">PayloadConfig.h</text>
</a>
</g>
</g>
<!-- Node1&#45;&gt;Node4 -->
<g id="edge9_Node000001_Node000004" class="edge">
<title>Node1&#45;&gt;Node4</title>
<g id="a_edge9_Node000001_Node000004"><a xlink:title=" ">
<path fill="none" stroke="#63b8ff" d="M847.13,-295.06C947.6,-296.32 1272.03,-296.3 1535,-250 1608.68,-237.03 1692.09,-209.11 1736.72,-193.04"/>
<polygon fill="#63b8ff" stroke="#63b8ff" points="1737.96,-196.32 1746.16,-189.61 1735.57,-189.74 1737.96,-196.32"/>
</a>
</g>
</g>
<!-- Node7 -->
<g id="Node000007" class="node">
<title>Node7</title>
<g id="a_Node000007"><a xlink:href="Logger_8h.html" target="_top" xlink:title=" ">
<polygon fill="white" stroke="#666666" points="974,-74 916,-74 916,-55 974,-55 974,-74"/>
<text text-anchor="middle" x="945" y="-62" font-family="Helvetica,sans-Serif" font-size="10.00">Logger.h</text>
</a>
</g>
</g>
<!-- Node1&#45;&gt;Node7 -->
<g id="edge7_Node000001_Node000007" class="edge">
<title>Node1&#45;&gt;Node7</title>
<g id="a_edge7_Node000001_Node000007"><a xlink:title=" ">
<path fill="none" stroke="#63b8ff" d="M784.84,-294.24C630.12,-292.43 -44.08,-278.04 57,-165 114.42,-100.78 740.73,-73.1 905.48,-66.89"/>
<polygon fill="#63b8ff" stroke="#63b8ff" points="905.79,-70.38 915.65,-66.51 905.53,-63.39 905.79,-70.38"/>
</a>
</g>
</g>
<!-- Node8 -->
<g id="Node000008" class="node">
<title>Node8</title>
<g id="a_Node000008"><a xlink:href="Sensor_8h.html" target="_top" xlink:title=" ">
<polygon fill="white" stroke="#666666" points="790,-189.5 732,-189.5 732,-170.5 790,-170.5 790,-189.5"/>
<text text-anchor="middle" x="761" y="-177.5" font-family="Helvetica,sans-Serif" font-size="10.00">Sensor.h</text>
</a>
</g>
</g>
<!-- Node1&#45;&gt;Node8 -->
<g id="edge10_Node000001_Node000008" class="edge">
<title>Node1&#45;&gt;Node8</title>
<g id="a_edge10_Node000001_Node000008"><a xlink:title=" ">
<path fill="none" stroke="#63b8ff" d="M811.87,-285.97C802.91,-267.48 781.55,-223.4 769.55,-198.64"/>
<polygon fill="#63b8ff" stroke="#63b8ff" points="772.69,-197.1 765.18,-189.63 766.39,-200.16 772.69,-197.1"/>
</a>
</g>
</g>
<!-- Node10 -->
<g id="Node000010" class="node">
<title>Node10</title>
<g id="a_Node000010"><a xlink:href="AS7331Sensor_8h.html" target="_top" xlink:title=" ">
<polygon fill="white" stroke="#666666" points="516.5,-250 421.5,-250 421.5,-231 516.5,-231 516.5,-250"/>
<text text-anchor="middle" x="469" y="-238" font-family="Helvetica,sans-Serif" font-size="10.00">AS7331Sensor.h</text>
</a>
</g>
</g>
<!-- Node1&#45;&gt;Node10 -->
<g id="edge16_Node000001_Node000010" class="edge">
<title>Node1&#45;&gt;Node10</title>
<g id="a_edge16_Node000001_Node000010"><a xlink:title=" ">
<path fill="none" stroke="#63b8ff" d="M784.9,-289.75C726.75,-280.87 600.75,-261.62 526.66,-250.31"/>
<polygon fill="#63b8ff" stroke="#63b8ff" points="526.97,-246.81 516.56,-248.76 525.92,-253.73 526.97,-246.81"/>
</a>
</g>
</g>
<!-- Node14 -->
<g id="Node000014" class="node">
<title>Node14</title>
<g id="a_Node000014"><a xlink:href="BMP390Sensor_8h.html" target="_top" xlink:title=" ">
<polygon fill="white" stroke="#666666" points="633,-250 535,-250 535,-231 633,-231 633,-250"/>
<text text-anchor="middle" x="584" y="-238" font-family="Helvetica,sans-Serif" font-size="10.00">BMP390Sensor.h</text>
</a>
</g>
</g>
<!-- Node1&#45;&gt;Node14 -->
<g id="edge21_Node000001_Node000014" class="edge">
<title>Node1&#45;&gt;Node14</title>
<g id="a_edge21_Node000001_Node000014"><a xlink:title=" ">
<path fill="none" stroke="#63b8ff" d="M784.71,-287.35C745.27,-278.34 677.1,-262.77 631.29,-252.3"/>
<polygon fill="#63b8ff" stroke="#63b8ff" points="631.83,-248.84 621.3,-250.02 630.27,-255.66 631.83,-248.84"/>
</a>
</g>
</g>
<!-- Node16 -->
<g id="Node000016" class="node">
<title>Node16</title>
<g id="a_Node000016"><a xlink:href="ENS160Sensor_8h.html" target="_top" xlink:title=" ">
<polygon fill="white" stroke="#666666" points="288.5,-250 193.5,-250 193.5,-231 288.5,-231 288.5,-250"/>
<text text-anchor="middle" x="241" y="-238" font-family="Helvetica,sans-Serif" font-size="10.00">ENS160Sensor.h</text>
</a>
</g>
</g>
<!-- Node1&#45;&gt;Node16 -->
<g id="edge24_Node000001_Node000016" class="edge">
<title>Node1&#45;&gt;Node16</title>
<g id="a_edge24_Node000001_Node000016"><a xlink:title=" ">
<path fill="none" stroke="#63b8ff" d="M784.92,-292.54C705.66,-287.4 489.33,-272.43 298.83,-250.15"/>
<polygon fill="#63b8ff" stroke="#63b8ff" points="298.97,-246.64 288.63,-248.95 298.15,-253.59 298.97,-246.64"/>
</a>
</g>
</g>
<!-- Node18 -->
<g id="Node000018" class="node">
<title>Node18</title>
<g id="a_Node000018"><a xlink:href="ICM20948Sensor_8h.html" target="_top" xlink:title=" ">
<polygon fill="white" stroke="#666666" points="1822.5,-250 1715.5,-250 1715.5,-231 1822.5,-231 1822.5,-250"/>
<text text-anchor="middle" x="1769" y="-238" font-family="Helvetica,sans-Serif" font-size="10.00">ICM20948Sensor.h</text>
</a>
</g>
</g>
<!-- Node1&#45;&gt;Node18 -->
<g id="edge28_Node000001_Node000018" class="edge">
<title>Node1&#45;&gt;Node18</title>
<g id="a_edge28_Node000001_Node000018"><a xlink:title=" ">
<path fill="none" stroke="#63b8ff" d="M847,-292.8C954.08,-286.91 1318.23,-266.86 1619,-250 1647.16,-248.42 1678.3,-246.66 1704.87,-245.15"/>
<polygon fill="#63b8ff" stroke="#63b8ff" points="1705.41,-248.63 1715.2,-244.57 1705.01,-241.64 1705.41,-248.63"/>
</a>
</g>
</g>
<!-- Node22 -->
<g id="Node000022" class="node">
<title>Node22</title>
<g id="a_Node000022"><a xlink:href="INA260Sensor_8h.html" target="_top" xlink:title=" ">
<polygon fill="white" stroke="#666666" points="1110.5,-250 1017.5,-250 1017.5,-231 1110.5,-231 1110.5,-250"/>
<text text-anchor="middle" x="1064" y="-238" font-family="Helvetica,sans-Serif" font-size="10.00">INA260Sensor.h</text>
</a>
</g>
</g>
<!-- Node1&#45;&gt;Node22 -->
<g id="edge35_Node000001_Node000022" class="edge">
<title>Node1&#45;&gt;Node22</title>
<g id="a_edge35_Node000001_Node000022"><a xlink:title=" ">
<path fill="none" stroke="#63b8ff" d="M847.16,-287.84C889.15,-278.87 964.37,-262.79 1014.24,-252.13"/>
<polygon fill="#63b8ff" stroke="#63b8ff" points="1015.12,-255.53 1024.17,-250.01 1013.66,-248.68 1015.12,-255.53"/>
</a>
</g>
</g>
<!-- Node24 -->
<g id="Node000024" class="node">
<title>Node24</title>
<g id="a_Node000024"><a xlink:href="MTK3339Sensor_8h.html" target="_top" xlink:title=" ">
<polygon fill="white" stroke="#666666" points="1256,-250 1152,-250 1152,-231 1256,-231 1256,-250"/>
<text text-anchor="middle" x="1204" y="-238" font-family="Helvetica,sans-Serif" font-size="10.00">MTK3339Sensor.h</text>
</a>
</g>
</g>
<!-- Node1&#45;&gt;Node24 -->
<g id="edge40_Node000001_Node000024" class="edge">
<title>Node1&#45;&gt;Node24</title>
<g id="a_edge40_Node000001_Node000024"><a xlink:title=" ">
<path fill="none" stroke="#63b8ff" d="M847.1,-290.25C910.95,-281.53 1057.88,-261.46 1141.96,-249.97"/>
<polygon fill="#63b8ff" stroke="#63b8ff" points="1142.46,-253.44 1151.89,-248.62 1141.51,-246.5 1142.46,-253.44"/>
</a>
</g>
</g>
<!-- Node26 -->
<g id="Node000026" class="node">
<title>Node26</title>
<g id="a_Node000026"><a xlink:href="PCF8523Sensor_8h.html" target="_top" xlink:title=" ">
<polygon fill="white" stroke="#666666" points="752.5,-250 651.5,-250 651.5,-231 752.5,-231 752.5,-250"/>
<text text-anchor="middle" x="702" y="-238" font-family="Helvetica,sans-Serif" font-size="10.00">PCF8523Sensor.h</text>
</a>
</g>
</g>
<!-- Node1&#45;&gt;Node26 -->
<g id="edge46_Node000001_Node000026" class="edge">
<title>Node1&#45;&gt;Node26</title>
<g id="a_edge46_Node000001_Node000026"><a xlink:title=" ">
<path fill="none" stroke="#63b8ff" d="M797.68,-285.98C779.34,-277.46 750.89,-264.23 729.77,-254.41"/>
<polygon fill="#63b8ff" stroke="#63b8ff" points="731.19,-251.21 720.65,-250.17 728.24,-257.56 731.19,-251.21"/>
</a>
</g>
</g>
<!-- Node28 -->
<g id="Node000028" class="node">
<title>Node28</title>
<g id="a_Node000028"><a xlink:href="SHTC3Sensor_8h.html" target="_top" xlink:title=" ">
<polygon fill="white" stroke="#666666" points="999.5,-250 910.5,-250 910.5,-231 999.5,-231 999.5,-250"/>
<text text-anchor="middle" x="955" y="-238" font-family="Helvetica,sans-Serif" font-size="10.00">SHTC3Sensor.h</text>
</a>
</g>
</g>
<!-- Node1&#45;&gt;Node28 -->
<g id="edge49_Node000001_Node000028" class="edge">
<title>Node1&#45;&gt;Node28</title>
<g id="a_edge49_Node000001_Node000028"><a xlink:title=" ">
<path fill="none" stroke="#63b8ff" d="M838.33,-285.98C861.2,-277.27 896.96,-263.63 922.86,-253.75"/>
<polygon fill="#63b8ff" stroke="#63b8ff" points="924.16,-257 932.26,-250.17 921.67,-250.46 924.16,-257"/>
</a>
</g>
</g>
<!-- Node30 -->
<g id="Node000030" class="node">
<title>Node30</title>
<g id="a_Node000030"><a xlink:href="TMP117Sensor_8h.html" target="_top" xlink:title=" ">
<polygon fill="white" stroke="#666666" points="403.5,-250 306.5,-250 306.5,-231 403.5,-231 403.5,-250"/>
<text text-anchor="middle" x="355" y="-238" font-family="Helvetica,sans-Serif" font-size="10.00">TMP117Sensor.h</text>
</a>
</g>
</g>
<!-- Node1&#45;&gt;Node30 -->
<g id="edge52_Node000001_Node000030" class="edge">
<title>Node1&#45;&gt;Node30</title>
<g id="a_edge52_Node000001_Node000030"><a xlink:title=" ">
<path fill="none" stroke="#63b8ff" d="M784.78,-291.47C718.4,-284.95 558.15,-268.73 413.73,-250.18"/>
<polygon fill="#63b8ff" stroke="#63b8ff" points="414.17,-246.71 403.8,-248.9 413.27,-253.65 414.17,-246.71"/>
</a>
</g>
</g>
<!-- Node32 -->
<g id="Node000032" class="node">
<title>Node32</title>
<g id="a_Node000032"><a xlink:href="TempSensor_8h.html" target="_top" xlink:title=" ">
<polygon fill="white" stroke="#666666" points="893,-250 809,-250 809,-231 893,-231 893,-250"/>
<text text-anchor="middle" x="851" y="-238" font-family="Helvetica,sans-Serif" font-size="10.00">TempSensor.h</text>
</a>
</g>
</g>
<!-- Node1&#45;&gt;Node32 -->
<g id="edge56_Node000001_Node000032" class="edge">
<title>Node1&#45;&gt;Node32</title>
<g id="a_edge56_Node000001_Node000032"><a xlink:title=" ">
<path fill="none" stroke="#63b8ff" d="M821.78,-285.75C826.62,-278.42 833.68,-267.73 839.64,-258.7"/>
<polygon fill="#63b8ff" stroke="#63b8ff" points="842.74,-260.36 845.33,-250.09 836.9,-256.5 842.74,-260.36"/>
</a>
</g>
</g>
<!-- Node33 -->
<g id="Node000033" class="node">
<title>Node33</title>
<g id="a_Node000033"><a xlink:href="FlashStorage_8h.html" target="_top" xlink:title=" ">
<polygon fill="white" stroke="#666666" points="1525.5,-250 1436.5,-250 1436.5,-231 1525.5,-231 1525.5,-250"/>
<text text-anchor="middle" x="1481" y="-238" font-family="Helvetica,sans-Serif" font-size="10.00">FlashStorage.h</text>
</a>
</g>
</g>
<!-- Node1&#45;&gt;Node33 -->
<g id="edge58_Node000001_Node000033" class="edge">
<title>Node1&#45;&gt;Node33</title>
<g id="a_edge58_Node000001_Node000033"><a xlink:title=" ">
<path fill="none" stroke="#63b8ff" d="M847.18,-292.01C951.92,-283.67 1292.01,-256.56 1426.01,-245.88"/>
<polygon fill="#63b8ff" stroke="#63b8ff" points="1426.37,-249.37 1436.06,-245.08 1425.81,-242.39 1426.37,-249.37"/>
</a>
</g>
</g>
<!-- Node3&#45;&gt;Node2 -->
<g id="edge3_Node000003_Node000002" class="edge">
<title>Node3&#45;&gt;Node2</title>
<g id="a_edge3_Node000003_Node000002"><a xlink:title=" ">
<path fill="none" stroke="#63b8ff" d="M2268.53,-230.85C2288.14,-216.3 2321.95,-186.42 2303,-165 2220.07,-71.29 1293.3,-22.31 1083.88,-12.4"/>
<polygon fill="#63b8ff" stroke="#63b8ff" points="1083.77,-8.89 1073.62,-11.92 1083.44,-15.88 1083.77,-8.89"/>
</a>
</g>
</g>
<!-- Node3&#45;&gt;Node4 -->
<g id="edge4_Node000003_Node000004" class="edge">
<title>Node3&#45;&gt;Node4</title>
<g id="a_edge4_Node000003_Node000004"><a xlink:title=" ">
<path fill="none" stroke="#63b8ff" d="M2213.92,-237.08C2136.64,-232.2 1967.05,-219.5 1826,-195 1820.92,-194.12 1815.63,-193.04 1810.4,-191.87"/>
<polygon fill="#63b8ff" stroke="#63b8ff" points="1811.03,-188.43 1800.49,-189.56 1809.43,-195.24 1811.03,-188.43"/>
</a>
</g>
</g>
<!-- Node5 -->
<g id="Node000005" class="node">
<title>Node5</title>
<g id="a_Node000005"><a xlink:title=" ">
<polygon fill="#e0e0e0" stroke="#999999" points="2445.5,-189.5 2350.5,-189.5 2350.5,-170.5 2445.5,-170.5 2445.5,-189.5"/>
<text text-anchor="middle" x="2398" y="-177.5" font-family="Helvetica,sans-Serif" font-size="10.00">pico/multicore.h</text>
</a>
</g>
</g>
<!-- Node3&#45;&gt;Node5 -->
<g id="edge5_Node000003_Node000005" class="edge">
<title>Node3&#45;&gt;Node5</title>
<g id="a_edge5_Node000003_Node000005"><a xlink:title=" ">
<path fill="none" stroke="#63b8ff" d="M2276.65,-230.99C2300.63,-221.12 2340.39,-204.73 2367.83,-193.43"/>
<polygon fill="#63b8ff" stroke="#63b8ff" points="2369.41,-196.56 2377.33,-189.52 2366.75,-190.09 2369.41,-196.56"/>
</a>
</g>
</g>
<!-- Node6 -->
<g id="Node000006" class="node">
<title>Node6</title>
<g id="a_Node000006"><a xlink:title=" ">
<polygon fill="#e0e0e0" stroke="#999999" points="2294,-189.5 2218,-189.5 2218,-170.5 2294,-170.5 2294,-189.5"/>
<text text-anchor="middle" x="2256" y="-177.5" font-family="Helvetica,sans-Serif" font-size="10.00">pico/stdlib.h</text>
</a>
</g>
</g>
<!-- Node3&#45;&gt;Node6 -->
<g id="edge6_Node000003_Node000006" class="edge">
<title>Node3&#45;&gt;Node6</title>
<g id="a_edge6_Node000003_Node000006"><a xlink:title=" ">
<path fill="none" stroke="#63b8ff" d="M2256,-230.87C2256,-222.75 2256,-210.31 2256,-199.89"/>
<polygon fill="#63b8ff" stroke="#63b8ff" points="2259.5,-199.67 2256,-189.67 2252.5,-199.67 2259.5,-199.67"/>
</a>
</g>
</g>
<!-- Node7&#45;&gt;Node2 -->
<g id="edge8_Node000007_Node000002" class="edge">
<title>Node7&#45;&gt;Node2</title>
<g id="a_edge8_Node000007_Node000002"><a xlink:title=" ">
<path fill="none" stroke="#63b8ff" d="M960.58,-54.98C975.77,-46.69 999.1,-33.94 1016.9,-24.22"/>
<polygon fill="#63b8ff" stroke="#63b8ff" points="1019.03,-27.04 1026.13,-19.17 1015.68,-20.89 1019.03,-27.04"/>
</a>
</g>
</g>
<!-- Node8&#45;&gt;Node2 -->
<g id="edge11_Node000008_Node000002" class="edge">
<title>Node8&#45;&gt;Node2</title>
<g id="a_edge11_Node000008_Node000002"><a xlink:title=" ">
<path fill="none" stroke="#63b8ff" d="M768.7,-170.49C789.12,-148.39 847.25,-88.52 907,-55 936.42,-38.49 972.92,-26.93 1000.55,-19.73"/>
<polygon fill="#63b8ff" stroke="#63b8ff" points="1001.45,-23.11 1010.29,-17.28 999.74,-16.32 1001.45,-23.11"/>
</a>
</g>
</g>
<!-- Node8&#45;&gt;Node7 -->
<g id="edge15_Node000008_Node000007" class="edge">
<title>Node8&#45;&gt;Node7</title>
<g id="a_edge15_Node000008_Node000007"><a xlink:title=" ">
<path fill="none" stroke="#63b8ff" d="M774.83,-170.47C806.27,-151.08 883.35,-103.53 922.05,-79.66"/>
<polygon fill="#63b8ff" stroke="#63b8ff" points="924.34,-82.36 931.01,-74.13 920.66,-76.4 924.34,-82.36"/>
</a>
</g>
</g>
<!-- Node9 -->
<g id="Node000009" class="node">
<title>Node9</title>
<g id="a_Node000009"><a xlink:href="Device_8h.html" target="_top" xlink:title=" ">
<polygon fill="white" stroke="#666666" points="1032.5,-129 973.5,-129 973.5,-110 1032.5,-110 1032.5,-129"/>
<text text-anchor="middle" x="1003" y="-117" font-family="Helvetica,sans-Serif" font-size="10.00">Device.h</text>
</a>
</g>
</g>
<!-- Node8&#45;&gt;Node9 -->
<g id="edge12_Node000008_Node000009" class="edge">
<title>Node8&#45;&gt;Node9</title>
<g id="a_edge12_Node000008_Node000009"><a xlink:title=" ">
<path fill="none" stroke="#63b8ff" d="M782.53,-170.48C787.86,-168.53 793.6,-166.58 799,-165 855.3,-148.57 921.92,-135.14 963.33,-127.47"/>
<polygon fill="#63b8ff" stroke="#63b8ff" points="964.08,-130.89 973.29,-125.65 962.82,-124 964.08,-130.89"/>
</a>
</g>
</g>
<!-- Node9&#45;&gt;Node2 -->
<g id="edge13_Node000009_Node000002" class="edge">
<title>Node9&#45;&gt;Node2</title>
<g id="a_edge13_Node000009_Node000002"><a xlink:title=" ">
<path fill="none" stroke="#63b8ff" d="M1006.19,-109.66C1012.57,-92.01 1026.98,-52.09 1035.45,-28.64"/>
<polygon fill="#63b8ff" stroke="#63b8ff" points="1038.77,-29.75 1038.87,-19.16 1032.18,-27.38 1038.77,-29.75"/>
</a>
</g>
</g>
<!-- Node9&#45;&gt;Node7 -->
<g id="edge14_Node000009_Node000007" class="edge">
<title>Node9&#45;&gt;Node7</title>
<g id="a_edge14_Node000009_Node000007"><a xlink:title=" ">
<path fill="none" stroke="#63b8ff" d="M993.68,-109.98C985.19,-102.23 972.44,-90.58 962.12,-81.14"/>
<polygon fill="#63b8ff" stroke="#63b8ff" points="964.23,-78.33 954.49,-74.17 959.51,-83.5 964.23,-78.33"/>
</a>
</g>
</g>
<!-- Node10&#45;&gt;Node8 -->
<g id="edge20_Node000010_Node000008" class="edge">
<title>Node10&#45;&gt;Node8</title>
<g id="a_edge20_Node000010_Node000008"><a xlink:title=" ">
<path fill="none" stroke="#63b8ff" d="M516.5,-232.22C578.87,-222.49 684.91,-205.26 723,-195 725.44,-194.34 727.93,-193.6 730.43,-192.8"/>
<polygon fill="#63b8ff" stroke="#63b8ff" points="731.6,-196.1 739.91,-189.53 729.32,-189.48 731.6,-196.1"/>
</a>
</g>
</g>
<!-- Node11 -->
<g id="Node000011" class="node">
<title>Node11</title>
<g id="a_Node000011"><a xlink:title=" ">
<polygon fill="#e0e0e0" stroke="#999999" points="510.5,-189.5 397.5,-189.5 397.5,-170.5 510.5,-170.5 510.5,-189.5"/>
<text text-anchor="middle" x="454" y="-177.5" font-family="Helvetica,sans-Serif" font-size="10.00">SparkFun_AS7331.h</text>
</a>
</g>
</g>
<!-- Node10&#45;&gt;Node11 -->
<g id="edge17_Node000010_Node000011" class="edge">
<title>Node10&#45;&gt;Node11</title>
<g id="a_edge17_Node000010_Node000011"><a xlink:title=" ">
<path fill="none" stroke="#63b8ff" d="M466.79,-230.87C464.68,-222.66 461.45,-210.04 458.76,-199.55"/>
<polygon fill="#63b8ff" stroke="#63b8ff" points="462.1,-198.48 456.22,-189.67 455.32,-200.22 462.1,-198.48"/>
</a>
</g>
</g>
<!-- Node12 -->
<g id="Node000012" class="node">
<title>Node12</title>
<g id="a_Node000012"><a xlink:title=" ">
<polygon fill="#e0e0e0" stroke="#999999" points="379,-189.5 331,-189.5 331,-170.5 379,-170.5 379,-189.5"/>
<text text-anchor="middle" x="355" y="-177.5" font-family="Helvetica,sans-Serif" font-size="10.00">Wire.h</text>
</a>
</g>
</g>
<!-- Node10&#45;&gt;Node12 -->
<g id="edge18_Node000010_Node000012" class="edge">
<title>Node10&#45;&gt;Node12</title>
<g id="a_edge18_Node000010_Node000012"><a xlink:title=" ">
<path fill="none" stroke="#63b8ff" d="M452.18,-230.87C433.4,-221.23 402.8,-205.53 380.95,-194.31"/>
<polygon fill="#63b8ff" stroke="#63b8ff" points="382.39,-191.12 371.89,-189.67 379.19,-197.35 382.39,-191.12"/>
</a>
</g>
</g>
<!-- Node13 -->
<g id="Node000013" class="node">
<title>Node13</title>
<g id="a_Node000013"><a xlink:title=" ">
<polygon fill="#e0e0e0" stroke="#999999" points="1142.5,-189.5 1089.5,-189.5 1089.5,-170.5 1142.5,-170.5 1142.5,-189.5"/>
<text text-anchor="middle" x="1116" y="-177.5" font-family="Helvetica,sans-Serif" font-size="10.00">string.h</text>
</a>
</g>
</g>
<!-- Node10&#45;&gt;Node13 -->
<g id="edge19_Node000010_Node000013" class="edge">
<title>Node10&#45;&gt;Node13</title>
<g id="a_edge19_Node000010_Node000013"><a xlink:title=" ">
<path fill="none" stroke="#63b8ff" d="M516.55,-232.12C519.74,-231.72 522.92,-231.34 526,-231 754.53,-206.03 814,-224.42 1042,-195 1054.24,-193.42 1067.51,-191.1 1079.38,-188.81"/>
<polygon fill="#63b8ff" stroke="#63b8ff" points="1080.28,-192.2 1089.4,-186.81 1078.91,-185.33 1080.28,-192.2"/>
</a>
</g>
</g>
<!-- Node14&#45;&gt;Node8 -->
<g id="edge23_Node000014_Node000008" class="edge">
<title>Node14&#45;&gt;Node8</title>
<g id="a_edge23_Node000014_Node000008"><a xlink:title=" ">
<path fill="none" stroke="#63b8ff" d="M611.81,-230.99C639.95,-222.28 684.66,-208.19 723,-195 724.84,-194.37 726.74,-193.7 728.64,-193.03"/>
<polygon fill="#63b8ff" stroke="#63b8ff" points="729.93,-196.28 738.15,-189.6 727.56,-189.7 729.93,-196.28"/>
</a>
</g>
</g>
<!-- Node15 -->
<g id="Node000015" class="node">
<title>Node15</title>
<g id="a_Node000015"><a xlink:title=" ">
<polygon fill="#e0e0e0" stroke="#999999" points="639.5,-189.5 528.5,-189.5 528.5,-170.5 639.5,-170.5 639.5,-189.5"/>
<text text-anchor="middle" x="584" y="-177.5" font-family="Helvetica,sans-Serif" font-size="10.00">Adafruit_BMP3XX.h</text>
</a>
</g>
</g>
<!-- Node14&#45;&gt;Node15 -->
<g id="edge22_Node000014_Node000015" class="edge">
<title>Node14&#45;&gt;Node15</title>
<g id="a_edge22_Node000014_Node000015"><a xlink:title=" ">
<path fill="none" stroke="#63b8ff" d="M584,-230.87C584,-222.75 584,-210.31 584,-199.89"/>
<polygon fill="#63b8ff" stroke="#63b8ff" points="587.5,-199.67 584,-189.67 580.5,-199.67 587.5,-199.67"/>
</a>
</g>
</g>
<!-- Node16&#45;&gt;Node8 -->
<g id="edge26_Node000016_Node000008" class="edge">
<title>Node16&#45;&gt;Node8</title>
<g id="a_edge26_Node000016_Node000008"><a xlink:title=" ">
<path fill="none" stroke="#63b8ff" d="M288.63,-232.05C291.46,-231.68 294.27,-231.32 297,-231 485.7,-208.73 537.52,-236.21 723,-195 725.67,-194.41 728.42,-193.67 731.14,-192.84"/>
<polygon fill="#63b8ff" stroke="#63b8ff" points="732.44,-196.1 740.79,-189.59 730.2,-189.47 732.44,-196.1"/>
</a>
</g>
</g>
<!-- Node16&#45;&gt;Node12 -->
<g id="edge25_Node000016_Node000012" class="edge">
<title>Node16&#45;&gt;Node12</title>
<g id="a_edge25_Node000016_Node000012"><a xlink:title=" ">
<path fill="none" stroke="#63b8ff" d="M257.82,-230.87C276.6,-221.23 307.2,-205.53 329.05,-194.31"/>
<polygon fill="#63b8ff" stroke="#63b8ff" points="330.81,-197.35 338.11,-189.67 327.61,-191.12 330.81,-197.35"/>
</a>
</g>
</g>
<!-- Node17 -->
<g id="Node000017" class="node">
<title>Node17</title>
<g id="a_Node000017"><a xlink:title=" ">
<polygon fill="#e0e0e0" stroke="#999999" points="179.5,-189.5 66.5,-189.5 66.5,-170.5 179.5,-170.5 179.5,-189.5"/>
<text text-anchor="middle" x="123" y="-177.5" font-family="Helvetica,sans-Serif" font-size="10.00">SparkFun_ENS160.h</text>
</a>
</g>
</g>
<!-- Node16&#45;&gt;Node17 -->
<g id="edge27_Node000016_Node000017" class="edge">
<title>Node16&#45;&gt;Node17</title>
<g id="a_edge27_Node000016_Node000017"><a xlink:title=" ">
<path fill="none" stroke="#63b8ff" d="M223.84,-230.99C204.27,-221.29 172.03,-205.31 149.28,-194.03"/>
<polygon fill="#63b8ff" stroke="#63b8ff" points="150.69,-190.82 140.18,-189.52 147.58,-197.09 150.69,-190.82"/>
</a>
</g>
</g>
<!-- Node18&#45;&gt;Node4 -->
<g id="edge33_Node000018_Node000004" class="edge">
<title>Node18&#45;&gt;Node4</title>
<g id="a_edge33_Node000018_Node000004"><a xlink:title=" ">
<path fill="none" stroke="#63b8ff" d="M1769,-230.87C1769,-222.75 1769,-210.31 1769,-199.89"/>
<polygon fill="#63b8ff" stroke="#63b8ff" points="1772.5,-199.67 1769,-189.67 1765.5,-199.67 1772.5,-199.67"/>
</a>
</g>
</g>
<!-- Node18&#45;&gt;Node8 -->
<g id="edge34_Node000018_Node000008" class="edge">
<title>Node18&#45;&gt;Node8</title>
<g id="a_edge34_Node000018_Node000008"><a xlink:title=" ">
<path fill="none" stroke="#63b8ff" d="M1715.22,-237.49C1518.08,-230.06 844.11,-204.12 799,-195 796.16,-194.43 793.24,-193.67 790.36,-192.81"/>
<polygon fill="#63b8ff" stroke="#63b8ff" points="791.38,-189.46 780.78,-189.59 789.14,-196.1 791.38,-189.46"/>
</a>
</g>
</g>
<!-- Node18&#45;&gt;Node13 -->
<g id="edge32_Node000018_Node000013" class="edge">
<title>Node18&#45;&gt;Node13</title>
<g id="a_edge32_Node000018_Node000013"><a xlink:title=" ">
<path fill="none" stroke="#63b8ff" d="M1715.25,-237.68C1585.61,-232.96 1258.61,-219 1152,-195 1149.63,-194.47 1147.2,-193.8 1144.79,-193.06"/>
<polygon fill="#63b8ff" stroke="#63b8ff" points="1145.69,-189.66 1135.1,-189.65 1143.37,-196.27 1145.69,-189.66"/>
</a>
</g>
</g>
<!-- Node19 -->
<g id="Node000019" class="node">
<title>Node19</title>
<g id="a_Node000019"><a xlink:title=" ">
<polygon fill="#e0e0e0" stroke="#999999" points="2199.5,-189.5 2080.5,-189.5 2080.5,-170.5 2199.5,-170.5 2199.5,-189.5"/>
<text text-anchor="middle" x="2140" y="-177.5" font-family="Helvetica,sans-Serif" font-size="10.00">Adafruit_ICM20948.h</text>
</a>
</g>
</g>
<!-- Node18&#45;&gt;Node19 -->
<g id="edge29_Node000018_Node000019" class="edge">
<title>Node18&#45;&gt;Node19</title>
<g id="a_edge29_Node000018_Node000019"><a xlink:title=" ">
<path fill="none" stroke="#63b8ff" d="M1822.6,-232.49C1883.09,-224.37 1984.34,-210.16 2071,-195 2077.16,-193.92 2083.62,-192.71 2090.01,-191.47"/>
<polygon fill="#63b8ff" stroke="#63b8ff" points="2090.8,-194.88 2099.93,-189.51 2089.45,-188.02 2090.8,-194.88"/>
</a>
</g>
</g>
<!-- Node20 -->
<g id="Node000020" class="node">
<title>Node20</title>
<g id="a_Node000020"><a xlink:title=" ">
<polygon fill="#e0e0e0" stroke="#999999" points="1941.5,-189.5 1834.5,-189.5 1834.5,-170.5 1941.5,-170.5 1941.5,-189.5"/>
<text text-anchor="middle" x="1888" y="-177.5" font-family="Helvetica,sans-Serif" font-size="10.00">Adafruit_ICM20X.h</text>
</a>
</g>
</g>
<!-- Node18&#45;&gt;Node20 -->
<g id="edge30_Node000018_Node000020" class="edge">
<title>Node18&#45;&gt;Node20</title>
<g id="a_edge30_Node000018_Node000020"><a xlink:title=" ">
<path fill="none" stroke="#63b8ff" d="M1786.3,-230.99C1806.05,-221.29 1838.55,-205.31 1861.49,-194.03"/>
<polygon fill="#63b8ff" stroke="#63b8ff" points="1863.25,-197.07 1870.68,-189.52 1860.16,-190.79 1863.25,-197.07"/>
</a>
</g>
</g>
<!-- Node21 -->
<g id="Node000021" class="node">
<title>Node21</title>
<g id="a_Node000021"><a xlink:title=" ">
<polygon fill="#e0e0e0" stroke="#999999" points="2062,-189.5 1960,-189.5 1960,-170.5 2062,-170.5 2062,-189.5"/>
<text text-anchor="middle" x="2011" y="-177.5" font-family="Helvetica,sans-Serif" font-size="10.00">Adafruit_Sensor.h</text>
</a>
</g>
</g>
<!-- Node18&#45;&gt;Node21 -->
<g id="edge31_Node000018_Node000021" class="edge">
<title>Node18&#45;&gt;Node21</title>
<g id="a_edge31_Node000018_Node000021"><a xlink:title=" ">
<path fill="none" stroke="#63b8ff" d="M1804.19,-230.99C1846.93,-220.66 1919.12,-203.21 1965.9,-191.9"/>
<polygon fill="#63b8ff" stroke="#63b8ff" points="1966.87,-195.27 1975.77,-189.52 1965.23,-188.46 1966.87,-195.27"/>
</a>
</g>
</g>
<!-- Node22&#45;&gt;Node2 -->
<g id="edge36_Node000022_Node000002" class="edge">
<title>Node22&#45;&gt;Node2</title>
<g id="a_edge36_Node000022_Node000002"><a xlink:title=" ">
<path fill="none" stroke="#63b8ff" d="M1063.16,-230.8C1059.95,-197.29 1048.3,-76.08 1043.8,-29.2"/>
<polygon fill="#63b8ff" stroke="#63b8ff" points="1047.28,-28.83 1042.84,-19.21 1040.31,-29.5 1047.28,-28.83"/>
</a>
</g>
</g>
<!-- Node22&#45;&gt;Node8 -->
<g id="edge39_Node000022_Node000008" class="edge">
<title>Node22&#45;&gt;Node8</title>
<g id="a_edge39_Node000022_Node000008"><a xlink:title=" ">
<path fill="none" stroke="#63b8ff" d="M1017.25,-232.14C946.87,-220.98 819.68,-200.5 799,-195 796.56,-194.35 794.06,-193.61 791.56,-192.82"/>
<polygon fill="#63b8ff" stroke="#63b8ff" points="792.67,-189.5 782.08,-189.56 790.4,-196.12 792.67,-189.5"/>
</a>
</g>
</g>
<!-- Node22&#45;&gt;Node13 -->
<g id="edge37_Node000022_Node000013" class="edge">
<title>Node22&#45;&gt;Node13</title>
<g id="a_edge37_Node000022_Node000013"><a xlink:title=" ">
<path fill="none" stroke="#63b8ff" d="M1071.67,-230.87C1079.51,-222.05 1091.86,-208.16 1101.54,-197.27"/>
<polygon fill="#63b8ff" stroke="#63b8ff" points="1104.27,-199.47 1108.3,-189.67 1099.04,-194.82 1104.27,-199.47"/>
</a>
</g>
</g>
<!-- Node23 -->
<g id="Node000023" class="node">
<title>Node23</title>
<g id="a_Node000023"><a xlink:title=" ">
<polygon fill="#e0e0e0" stroke="#999999" points="1032.5,-189.5 927.5,-189.5 927.5,-170.5 1032.5,-170.5 1032.5,-189.5"/>
<text text-anchor="middle" x="980" y="-177.5" font-family="Helvetica,sans-Serif" font-size="10.00">Adafruit_INA260.h</text>
</a>
</g>
</g>
<!-- Node22&#45;&gt;Node23 -->
<g id="edge38_Node000022_Node000023" class="edge">
<title>Node22&#45;&gt;Node23</title>
<g id="a_edge38_Node000022_Node000023"><a xlink:title=" ">
<path fill="none" stroke="#63b8ff" d="M1051.61,-230.87C1038.21,-221.54 1016.62,-206.51 1000.65,-195.38"/>
<polygon fill="#63b8ff" stroke="#63b8ff" points="1002.65,-192.51 992.45,-189.67 998.65,-198.25 1002.65,-192.51"/>
</a>
</g>
</g>
<!-- Node24&#45;&gt;Node2 -->
<g id="edge41_Node000024_Node000002" class="edge">
<title>Node24&#45;&gt;Node2</title>
<g id="a_edge41_Node000024_Node000002"><a xlink:title=" ">
<path fill="none" stroke="#63b8ff" d="M1256.11,-236.69C1319.14,-231.1 1413.17,-214.46 1382,-165 1315.89,-60.09 1158.79,-25.7 1083.56,-15.02"/>
<polygon fill="#63b8ff" stroke="#63b8ff" points="1083.88,-11.53 1073.5,-13.66 1082.94,-18.47 1083.88,-11.53"/>
</a>
</g>
</g>
<!-- Node24&#45;&gt;Node4 -->
<g id="edge44_Node000024_Node000004" class="edge">
<title>Node24&#45;&gt;Node4</title>
<g id="a_edge44_Node000024_Node000004"><a xlink:title=" ">
<path fill="none" stroke="#63b8ff" d="M1256.25,-237.57C1348.7,-233.56 1546.92,-222.34 1712,-195 1717.21,-194.14 1722.64,-193.05 1728,-191.87"/>
<polygon fill="#63b8ff" stroke="#63b8ff" points="1729.18,-195.19 1738.12,-189.5 1727.58,-188.37 1729.18,-195.19"/>
</a>
</g>
</g>
<!-- Node24&#45;&gt;Node8 -->
<g id="edge45_Node000024_Node000008" class="edge">
<title>Node24&#45;&gt;Node8</title>
<g id="a_edge45_Node000024_Node000008"><a xlink:title=" ">
<path fill="none" stroke="#63b8ff" d="M1151.68,-234.09C1046.06,-223.13 815.93,-198.99 799,-195 796.48,-194.41 793.91,-193.7 791.34,-192.91"/>
<polygon fill="#63b8ff" stroke="#63b8ff" points="792.22,-189.52 781.63,-189.63 789.98,-196.15 792.22,-189.52"/>
</a>
</g>
</g>
<!-- Node24&#45;&gt;Node12 -->
<g id="edge43_Node000024_Node000012" class="edge">
<title>Node24&#45;&gt;Node12</title>
<g id="a_edge43_Node000024_Node000012"><a xlink:title=" ">
<path fill="none" stroke="#63b8ff" d="M1151.61,-233.78C1141.15,-232.75 1130.23,-231.77 1120,-231 957.59,-218.8 546.75,-231.37 388,-195 385.83,-194.5 383.62,-193.87 381.43,-193.15"/>
<polygon fill="#63b8ff" stroke="#63b8ff" points="382.68,-189.88 372.09,-189.59 380.19,-196.42 382.68,-189.88"/>
</a>
</g>
</g>
<!-- Node25 -->
<g id="Node000025" class="node">
<title>Node25</title>
<g id="a_Node000025"><a xlink:title=" ">
<polygon fill="#e0e0e0" stroke="#999999" points="1291,-195 1161,-195 1161,-165 1291,-165 1291,-195"/>
<text text-anchor="start" x="1169" y="-183" font-family="Helvetica,sans-Serif" font-size="10.00">SparkFun_u&#45;blox_GNSS</text>
<text text-anchor="middle" x="1226" y="-172" font-family="Helvetica,sans-Serif" font-size="10.00">_Arduino_Library.h</text>
</a>
</g>
</g>
<!-- Node24&#45;&gt;Node25 -->
<g id="edge42_Node000024_Node000025" class="edge">
<title>Node24&#45;&gt;Node25</title>
<g id="a_edge42_Node000024_Node000025"><a xlink:title=" ">
<path fill="none" stroke="#63b8ff" d="M1207.25,-230.87C1209.84,-223.96 1213.62,-213.93 1217.1,-204.67"/>
<polygon fill="#63b8ff" stroke="#63b8ff" points="1220.45,-205.71 1220.69,-195.11 1213.9,-203.24 1220.45,-205.71"/>
</a>
</g>
</g>
<!-- Node26&#45;&gt;Node8 -->
<g id="edge48_Node000026_Node000008" class="edge">
<title>Node26&#45;&gt;Node8</title>
<g id="a_edge48_Node000026_Node000008"><a xlink:title=" ">
<path fill="none" stroke="#63b8ff" d="M710.71,-230.87C719.68,-221.97 733.88,-207.89 744.91,-196.95"/>
<polygon fill="#63b8ff" stroke="#63b8ff" points="747.62,-199.19 752.26,-189.67 742.69,-194.22 747.62,-199.19"/>
</a>
</g>
</g>
<!-- Node27 -->
<g id="Node000027" class="node">
<title>Node27</title>
<g id="a_Node000027"><a xlink:title=" ">
<polygon fill="#e0e0e0" stroke="#999999" points="714,-189.5 658,-189.5 658,-170.5 714,-170.5 714,-189.5"/>
<text text-anchor="middle" x="686" y="-177.5" font-family="Helvetica,sans-Serif" font-size="10.00">RTClib.h</text>
</a>
</g>
</g>
<!-- Node26&#45;&gt;Node27 -->
<g id="edge47_Node000026_Node000027" class="edge">
<title>Node26&#45;&gt;Node27</title>
<g id="a_edge47_Node000026_Node000027"><a xlink:title=" ">
<path fill="none" stroke="#63b8ff" d="M699.64,-230.87C697.39,-222.66 693.94,-210.04 691.07,-199.55"/>
<polygon fill="#63b8ff" stroke="#63b8ff" points="694.38,-198.39 688.37,-189.67 687.63,-200.24 694.38,-198.39"/>
</a>
</g>
</g>
<!-- Node28&#45;&gt;Node8 -->
<g id="edge51_Node000028_Node000008" class="edge">
<title>Node28&#45;&gt;Node8</title>
<g id="a_edge51_Node000028_Node000008"><a xlink:title=" ">
<path fill="none" stroke="#63b8ff" d="M922.52,-231C890.81,-222.52 841.3,-208.8 799,-195 797.1,-194.38 795.14,-193.72 793.18,-193.05"/>
<polygon fill="#63b8ff" stroke="#63b8ff" points="794,-189.62 783.41,-189.57 791.66,-196.22 794,-189.62"/>
</a>
</g>
</g>
<!-- Node29 -->
<g id="Node000029" class="node">
<title>Node29</title>
<g id="a_Node000029"><a xlink:title=" ">
<polygon fill="#e0e0e0" stroke="#999999" points="909.5,-189.5 808.5,-189.5 808.5,-170.5 909.5,-170.5 909.5,-189.5"/>
<text text-anchor="middle" x="859" y="-177.5" font-family="Helvetica,sans-Serif" font-size="10.00">Adafruit_SHTC3.h</text>
</a>
</g>
</g>
<!-- Node28&#45;&gt;Node29 -->
<g id="edge50_Node000028_Node000029" class="edge">
<title>Node28&#45;&gt;Node29</title>
<g id="a_edge50_Node000028_Node000029"><a xlink:title=" ">
<path fill="none" stroke="#63b8ff" d="M940.83,-230.87C925.31,-221.41 900.17,-206.09 881.85,-194.92"/>
<polygon fill="#63b8ff" stroke="#63b8ff" points="883.58,-191.88 873.22,-189.67 879.94,-197.86 883.58,-191.88"/>
</a>
</g>
</g>
<!-- Node30&#45;&gt;Node8 -->
<g id="edge55_Node000030_Node000008" class="edge">
<title>Node30&#45;&gt;Node8</title>
<g id="a_edge55_Node000030_Node000008"><a xlink:title=" ">
<path fill="none" stroke="#63b8ff" d="M403.8,-232.11C406.57,-231.73 409.32,-231.35 412,-231 549.94,-212.74 587.65,-227.28 723,-195 725.51,-194.4 728.09,-193.68 730.65,-192.9"/>
<polygon fill="#63b8ff" stroke="#63b8ff" points="732.02,-196.13 740.37,-189.61 729.77,-189.5 732.02,-196.13"/>
</a>
</g>
</g>
<!-- Node30&#45;&gt;Node12 -->
<g id="edge54_Node000030_Node000012" class="edge">
<title>Node30&#45;&gt;Node12</title>
<g id="a_edge54_Node000030_Node000012"><a xlink:title=" ">
<path fill="none" stroke="#63b8ff" d="M355,-230.87C355,-222.75 355,-210.31 355,-199.89"/>
<polygon fill="#63b8ff" stroke="#63b8ff" points="358.5,-199.67 355,-189.67 351.5,-199.67 358.5,-199.67"/>
</a>
</g>
</g>
<!-- Node31 -->
<g id="Node000031" class="node">
<title>Node31</title>
<g id="a_Node000031"><a xlink:title=" ">
<polygon fill="#e0e0e0" stroke="#999999" points="312.5,-189.5 197.5,-189.5 197.5,-170.5 312.5,-170.5 312.5,-189.5"/>
<text text-anchor="middle" x="255" y="-177.5" font-family="Helvetica,sans-Serif" font-size="10.00">SparkFun_TMP117.h</text>
</a>
</g>
</g>
<!-- Node30&#45;&gt;Node31 -->
<g id="edge53_Node000030_Node000031" class="edge">
<title>Node30&#45;&gt;Node31</title>
<g id="a_edge53_Node000030_Node000031"><a xlink:title=" ">
<path fill="none" stroke="#63b8ff" d="M340.24,-230.87C324,-221.36 297.65,-205.95 278.54,-194.77"/>
<polygon fill="#63b8ff" stroke="#63b8ff" points="280.21,-191.7 269.82,-189.67 276.68,-197.74 280.21,-191.7"/>
</a>
</g>
</g>
<!-- Node32&#45;&gt;Node8 -->
<g id="edge57_Node000032_Node000008" class="edge">
<title>Node32&#45;&gt;Node8</title>
<g id="a_edge57_Node000032_Node000008"><a xlink:title=" ">
<path fill="none" stroke="#63b8ff" d="M837.72,-230.87C823.36,-221.54 800.24,-206.51 783.13,-195.38"/>
<polygon fill="#63b8ff" stroke="#63b8ff" points="784.63,-192.18 774.33,-189.67 780.81,-198.05 784.63,-192.18"/>
</a>
</g>
</g>
<!-- Node33&#45;&gt;Node4 -->
<g id="edge61_Node000033_Node000004" class="edge">
<title>Node33&#45;&gt;Node4</title>
<g id="a_edge61_Node000033_Node000004"><a xlink:title=" ">
<path fill="none" stroke="#63b8ff" d="M1525.85,-231.55C1572.5,-223.13 1647.57,-209.11 1712,-195 1716.43,-194.03 1721.04,-192.97 1725.64,-191.89"/>
<polygon fill="#63b8ff" stroke="#63b8ff" points="1726.7,-195.24 1735.61,-189.5 1725.07,-188.43 1726.7,-195.24"/>
</a>
</g>
</g>
<!-- Node34 -->
<g id="Node000034" class="node">
<title>Node34</title>
<g id="a_Node000034"><a xlink:title=" ">
<polygon fill="#e0e0e0" stroke="#999999" points="1470.5,-189.5 1429.5,-189.5 1429.5,-170.5 1470.5,-170.5 1470.5,-189.5"/>
<text text-anchor="middle" x="1450" y="-177.5" font-family="Helvetica,sans-Serif" font-size="10.00">SPI.h</text>
</a>
</g>
</g>
<!-- Node33&#45;&gt;Node34 -->
<g id="edge59_Node000033_Node000034" class="edge">
<title>Node33&#45;&gt;Node34</title>
<g id="a_edge59_Node000033_Node000034"><a xlink:title=" ">
<path fill="none" stroke="#63b8ff" d="M1476.43,-230.87C1471.94,-222.4 1464.97,-209.24 1459.31,-198.57"/>
<polygon fill="#63b8ff" stroke="#63b8ff" points="1462.37,-196.86 1454.59,-189.67 1456.18,-200.14 1462.37,-196.86"/>
</a>
</g>
</g>
<!-- Node35 -->
<g id="Node000035" class="node">
<title>Node35</title>
<g id="a_Node000035"><a xlink:title=" ">
<polygon fill="#e0e0e0" stroke="#999999" points="1535.5,-189.5 1488.5,-189.5 1488.5,-170.5 1535.5,-170.5 1535.5,-189.5"/>
<text text-anchor="middle" x="1512" y="-177.5" font-family="Helvetica,sans-Serif" font-size="10.00">vector</text>
</a>
</g>
</g>
<!-- Node33&#45;&gt;Node35 -->
<g id="edge60_Node000033_Node000035" class="edge">
<title>Node33&#45;&gt;Node35</title>
<g id="a_edge60_Node000033_Node000035"><a xlink:title=" ">
<path fill="none" stroke="#63b8ff" d="M1485.57,-230.87C1490.06,-222.4 1497.03,-209.24 1502.69,-198.57"/>
<polygon fill="#63b8ff" stroke="#63b8ff" points="1505.82,-200.14 1507.41,-189.67 1499.63,-196.86 1505.82,-200.14"/>
</a>
</g>
</g>
<!-- Node36 -->
<g id="Node000036" class="node">
<title>Node36</title>
<g id="a_Node000036"><a xlink:title=" ">
<polygon fill="#e0e0e0" stroke="#999999" points="1703,-189.5 1553,-189.5 1553,-170.5 1703,-170.5 1703,-189.5"/>
<text text-anchor="middle" x="1628" y="-177.5" font-family="Helvetica,sans-Serif" font-size="10.00">SparkFun_SPI_SerialFlash.h</text>
</a>
</g>
</g>
<!-- Node33&#45;&gt;Node36 -->
<g id="edge62_Node000033_Node000036" class="edge">
<title>Node33&#45;&gt;Node36</title>
<g id="a_edge62_Node000033_Node000036"><a xlink:title=" ">
<path fill="none" stroke="#63b8ff" d="M1502.38,-230.99C1527.31,-221.07 1568.72,-204.59 1597.14,-193.28"/>
<polygon fill="#63b8ff" stroke="#63b8ff" points="1598.6,-196.47 1606.6,-189.52 1596.01,-189.96 1598.6,-196.47"/>
</a>
</g>
</g>
<!-- Node37 -->
<g id="Node000037" class="node">
<title>Node37</title>
<g id="a_Node000037"><a xlink:href="Storage_8h.html" target="_top" xlink:title=" ">
<polygon fill="white" stroke="#666666" points="1372.5,-189.5 1309.5,-189.5 1309.5,-170.5 1372.5,-170.5 1372.5,-189.5"/>
<text text-anchor="middle" x="1341" y="-177.5" font-family="Helvetica,sans-Serif" font-size="10.00">Storage.h</text>
</a>
</g>
</g>
<!-- Node33&#45;&gt;Node37 -->
<g id="edge63_Node000033_Node000037" class="edge">
<title>Node33&#45;&gt;Node37</title>
<g id="a_edge63_Node000033_Node000037"><a xlink:title=" ">
<path fill="none" stroke="#63b8ff" d="M1460.64,-230.99C1437,-221.12 1397.8,-204.73 1370.75,-193.43"/>
<polygon fill="#63b8ff" stroke="#63b8ff" points="1371.96,-190.14 1361.38,-189.52 1369.26,-196.6 1371.96,-190.14"/>
</a>
</g>
</g>
<!-- Node37&#45;&gt;Node2 -->
<g id="edge64_Node000037_Node000002" class="edge">
<title>Node37&#45;&gt;Node2</title>
<g id="a_edge64_Node000037_Node000002"><a xlink:title=" ">
<path fill="none" stroke="#63b8ff" d="M1325.76,-170.41C1277.18,-143.03 1125.64,-57.64 1066.24,-24.16"/>
<polygon fill="#63b8ff" stroke="#63b8ff" points="1067.64,-20.93 1057.21,-19.07 1064.2,-27.03 1067.64,-20.93"/>
</a>
</g>
</g>
<!-- Node37&#45;&gt;Node7 -->
<g id="edge66_Node000037_Node000007" class="edge">
<title>Node37&#45;&gt;Node7</title>
<g id="a_edge66_Node000037_Node000007"><a xlink:title=" ">
<path fill="none" stroke="#63b8ff" d="M1318.7,-170.38C1312.7,-168.34 1306.17,-166.37 1300,-165 1226.9,-148.8 1022.92,-176.45 965,-129 951.88,-118.25 947.23,-98.95 945.65,-84.45"/>
<polygon fill="#63b8ff" stroke="#63b8ff" points="949.12,-83.83 944.94,-74.09 942.13,-84.31 949.12,-83.83"/>
</a>
</g>
</g>
<!-- Node37&#45;&gt;Node9 -->
<g id="edge65_Node000037_Node000009" class="edge">
<title>Node37&#45;&gt;Node9</title>
<g id="a_edge65_Node000037_Node000009"><a xlink:title=" ">
<path fill="none" stroke="#63b8ff" d="M1318.23,-170.41C1312.35,-168.42 1305.99,-166.46 1300,-165 1209.39,-142.93 1100.41,-129.98 1042.96,-124.18"/>
<polygon fill="#63b8ff" stroke="#63b8ff" points="1043.15,-120.68 1032.85,-123.17 1042.46,-127.64 1043.15,-120.68"/>
</a>
</g>
</g>
</g>
</svg>
