<?xml version="1.0" encoding="UTF-8" standalone="no"?>
<!DOCTYPE svg PUBLIC "-//W3C//DTD SVG 1.1//EN"
 "http://www.w3.org/Graphics/SVG/1.1/DTD/svg11.dtd">
<!-- Generated by graphviz version 2.43.0 (0)
 -->
<!-- Title: loop Pages: 1 -->
<!--zoomable 177 -->

<svg id="main" version="1.1" xmlns="http://www.w3.org/2000/svg" xmlns:xlink="http://www.w3.org/1999/xlink" xml:space="preserve" onload="init(evt)">
<style type="text/css"><![CDATA[
.node, .edge {opacity: 0.7;}
.node.selected, .edge.selected {opacity: 1;}
.edge:hover path { stroke: red; }
.edge:hover polygon { stroke: red; fill: red; }
]]></style>

<defs>
  <circle id="rim" cx="0" cy="0" r="7"/>
  <circle id="rim2" cx="0" cy="0" r="3.5"/>
  <g id="zoomPlus">
    <use xlink:href="#rim" fill="#404040"><set attributeName="fill" to="#808080" begin="zoomplus.mouseover" end="zoomplus.mouseout"/></use>
    <path d="M-4,0h8M0,-4v8" fill="none" stroke="white" stroke-width="1.5" pointer-events="none"/>
  </g>
  <g id="zoomMin">
    <use xlink:href="#rim" fill="#404040"><set attributeName="fill" to="#808080" begin="zoomminus.mouseover" end="zoomminus.mouseout"/></use>
    <path d="M-4,0h8" fill="none" stroke="white" stroke-width="1.5" pointer-events="none"/>
  </g>
  <g id="arrowUp" transform="translate(30 24)">
    <use xlink:href="#rim"/>
    <path pointer-events="none" fill="none" stroke="white" stroke-width="1.5" d="M0,-3.0v7 M-2.5,-0.5L0,-3.0L2.5,-0.5"/>
  </g>
  <g id="arrowRight" transform="rotate(90) translate(36 -43)">
    <use xlink:href="#rim"/>
    <path pointer-events="none" fill="none" stroke="white" stroke-width="1.5" d="M0,-3.0v7 M-2.5,-0.5L0,-3.0L2.5,-0.5"/>
  </g>
  <g id="arrowDown" transform="rotate(180) translate(-30 -48)">
    <use xlink:href="#rim"/>
    <path pointer-events="none" fill="none" stroke="white" stroke-width="1.5" d="M0,-3.0v7 M-2.5,-0.5L0,-3.0L2.5,-0.5"/>
  </g>
  <g id="arrowLeft" transform="rotate(270) translate(-36 17)">
    <use xlink:href="#rim"/>
    <path pointer-events="none" fill="none" stroke="white" stroke-width="1.5" d="M0,-3.0v7 M-2.5,-0.5L0,-3.0L2.5,-0.5"/>
  </g>
  <g id="resetDef">
    <use xlink:href="#rim2" fill="#404040"><set attributeName="fill" to="#808080" begin="reset.mouseover" end="reset.mouseout"/></use>
  </g>
</defs>
<script type="application/ecmascript">
var viewWidth = 540;
var viewHeight = 177;
var sectionId = 'dynsection-4';
</script>
<script type="application/ecmascript" xlink:href="svg.min.js"/>
<svg id="graph" class="graph">
<g id="viewport">
<title>loop</title>
<!-- Node1 -->
<g id="Node000001" class="node">
<title>Node1</title>
<g id="a_Node000001"><a xlink:title="Loop for core 0, handling sensor reads.">
<polygon fill="#999999" stroke="#666666" points="38,-93 0,-93 0,-74 38,-74 38,-93"/>
<text text-anchor="middle" x="19" y="-81" font-family="Helvetica,sans-Serif" font-size="10.00">loop</text>
</a>
</g>
</g>
<!-- Node2 -->
<g id="Node000002" class="node">
<title>Node2</title>
<g id="a_Node000002"><a xlink:href="main_8cpp.html#a9163644b089001958496a71b73b9091a" target="_top" xlink:title="Decodes the packet to a CSV row.">
<polygon fill="white" stroke="#666666" points="178.5,-167 95.5,-167 95.5,-148 178.5,-148 178.5,-167"/>
<text text-anchor="middle" x="137" y="-155" font-family="Helvetica,sans-Serif" font-size="10.00">decodePacket</text>
</a>
</g>
</g>
<!-- Node1&#45;&gt;Node2 -->
<g id="edge1_Node000001_Node000002" class="edge">
<title>Node1&#45;&gt;Node2</title>
<g id="a_edge1_Node000001_Node000002"><a xlink:title=" ">
<path fill="none" stroke="#63b8ff" d="M26.88,-93.32C36.16,-105.85 53.88,-127.36 74,-139.5 77.67,-141.72 81.63,-143.67 85.71,-145.39"/>
<polygon fill="#63b8ff" stroke="#63b8ff" points="84.76,-148.78 95.36,-149.01 87.22,-142.22 84.76,-148.78"/>
</a>
</g>
</g>
<!-- Node6 -->
<g id="Node000006" class="node">
<title>Node6</title>
<g id="a_Node000006"><a xlink:href="classErrorDisplay.html#a4f9e7e64ffc64711653b539bf3d8d24f" target="_top" xlink:title="Accesses the only instance of ErrorDisplay (Singleton)">
<polygon fill="white" stroke="#666666" points="198.5,-130 75.5,-130 75.5,-111 198.5,-111 198.5,-130"/>
<text text-anchor="middle" x="137" y="-118" font-family="Helvetica,sans-Serif" font-size="10.00">ErrorDisplay::instance</text>
</a>
</g>
</g>
<!-- Node1&#45;&gt;Node6 -->
<g id="edge5_Node000001_Node000006" class="edge">
<title>Node1&#45;&gt;Node6</title>
<g id="a_edge5_Node000001_Node000006"><a xlink:title=" ">
<path fill="none" stroke="#63b8ff" d="M38.46,-89.78C48.87,-93.29 62.14,-97.71 74,-101.5 80.63,-103.62 87.67,-105.82 94.54,-107.95"/>
<polygon fill="#63b8ff" stroke="#63b8ff" points="93.83,-111.39 104.41,-110.98 95.88,-104.7 93.83,-111.39"/>
</a>
</g>
</g>
<!-- Node7 -->
<g id="Node000007" class="node">
<title>Node7</title>
<g id="a_Node000007"><a xlink:href="main_8cpp.html#a9db5e6113d9a0bd03a1b044059ae787b" target="_top" xlink:title="Read data from each verified Sensor.">
<polygon fill="white" stroke="#666666" points="184.5,-93 89.5,-93 89.5,-74 184.5,-74 184.5,-93"/>
<text text-anchor="middle" x="137" y="-81" font-family="Helvetica,sans-Serif" font-size="10.00">readSensorData</text>
</a>
</g>
</g>
<!-- Node1&#45;&gt;Node7 -->
<g id="edge6_Node000001_Node000007" class="edge">
<title>Node1&#45;&gt;Node7</title>
<g id="a_edge6_Node000001_Node000007"><a xlink:title=" ">
<path fill="none" stroke="#63b8ff" d="M38.12,-83.5C49.31,-83.5 64.32,-83.5 79.23,-83.5"/>
<polygon fill="#63b8ff" stroke="#63b8ff" points="79.49,-87 89.49,-83.5 79.49,-80 79.49,-87"/>
</a>
</g>
</g>
<!-- Node10 -->
<g id="Node000010" class="node">
<title>Node10</title>
<g id="a_Node000010"><a xlink:href="main_8cpp.html#a2720be1478ba44e12c6b983bfffab7b2" target="_top" xlink:title="Reads sensor data into a packet byte array.">
<polygon fill="white" stroke="#666666" points="200,-56 74,-56 74,-37 200,-37 200,-56"/>
<text text-anchor="middle" x="137" y="-44" font-family="Helvetica,sans-Serif" font-size="10.00">readSensorDataPacket</text>
</a>
</g>
</g>
<!-- Node1&#45;&gt;Node10 -->
<g id="edge10_Node000001_Node000010" class="edge">
<title>Node1&#45;&gt;Node10</title>
<g id="a_edge10_Node000001_Node000010"><a xlink:title=" ">
<path fill="none" stroke="#63b8ff" d="M38.41,-76.74C48.81,-72.99 62.08,-68.33 74,-64.5 79.74,-62.66 85.81,-60.79 91.81,-59"/>
<polygon fill="#63b8ff" stroke="#63b8ff" points="93.18,-62.25 101.79,-56.06 91.2,-55.53 93.18,-62.25"/>
</a>
</g>
</g>
<!-- Node13 -->
<g id="Node000013" class="node">
<title>Node13</title>
<g id="a_Node000013"><a xlink:href="classErrorDisplay.html#a493bde338b369414abffe90e0d49e93b" target="_top" xlink:title="Toggles the level of the error display.">
<polygon fill="white" stroke="#666666" points="193.5,-19 80.5,-19 80.5,0 193.5,0 193.5,-19"/>
<text text-anchor="middle" x="137" y="-7" font-family="Helvetica,sans-Serif" font-size="10.00">ErrorDisplay::toggle</text>
</a>
</g>
</g>
<!-- Node1&#45;&gt;Node13 -->
<g id="edge13_Node000001_Node000013" class="edge">
<title>Node1&#45;&gt;Node13</title>
<g id="a_edge13_Node000001_Node000013"><a xlink:title=" ">
<path fill="none" stroke="#63b8ff" d="M26.88,-73.68C36.16,-61.15 53.88,-39.64 74,-27.5 76.83,-25.79 79.83,-24.24 82.93,-22.83"/>
<polygon fill="#63b8ff" stroke="#63b8ff" points="84.45,-25.98 92.42,-19 81.84,-19.49 84.45,-25.98"/>
</a>
</g>
</g>
<!-- Node3 -->
<g id="Node000003" class="node">
<title>Node3</title>
<g id="a_Node000003"><a xlink:href="classSensor.html#ab344e7fbc9acdc5dcc7ae59d0a3fb5f6" target="_top" xlink:title="Used for onboard decoding of packets.">
<polygon fill="white" stroke="#666666" points="359.5,-169 238.5,-169 238.5,-150 359.5,-150 359.5,-169"/>
<text text-anchor="middle" x="299" y="-157" font-family="Helvetica,sans-Serif" font-size="10.00">Sensor::decodeToCSV</text>
</a>
</g>
</g>
<!-- Node2&#45;&gt;Node3 -->
<g id="edge2_Node000002_Node000003" class="edge">
<title>Node2&#45;&gt;Node3</title>
<g id="a_edge2_Node000002_Node000003"><a xlink:title=" ">
<path fill="none" stroke="#63b8ff" d="M178.79,-158.01C193.74,-158.2 211.12,-158.41 227.91,-158.62"/>
<polygon fill="#63b8ff" stroke="#63b8ff" points="228.21,-162.13 238.26,-158.75 228.3,-155.13 228.21,-162.13"/>
</a>
</g>
</g>
<!-- Node5 -->
<g id="Node000005" class="node">
<title>Node5</title>
<g id="a_Node000005"><a xlink:href="classSensor.html#a62d72a2f81422ac2d2fa8ae86ba08571" target="_top" xlink:title="Returns CSV line in the same format as readData() but with &quot;&#45;&quot; instead of data.">
<polygon fill="white" stroke="#666666" points="519.5,-131 410.5,-131 410.5,-112 519.5,-112 519.5,-131"/>
<text text-anchor="middle" x="465" y="-119" font-family="Helvetica,sans-Serif" font-size="10.00">Sensor::readEmpty</text>
</a>
</g>
</g>
<!-- Node2&#45;&gt;Node5 -->
<g id="edge4_Node000002_Node000005" class="edge">
<title>Node2&#45;&gt;Node5</title>
<g id="a_edge4_Node000002_Node000005"><a xlink:title=" ">
<path fill="none" stroke="#63b8ff" d="M178.91,-150.12C196.44,-147.14 217.18,-143.86 236,-141.5 291.35,-134.56 354.56,-129.22 400.36,-125.81"/>
<polygon fill="#63b8ff" stroke="#63b8ff" points="400.73,-129.29 410.44,-125.07 400.21,-122.31 400.73,-129.29"/>
</a>
</g>
</g>
<!-- Node4 -->
<g id="Node000004" class="node">
<title>Node4</title>
<g id="a_Node000004"><a xlink:href="classSensor.html#ac2fad054e890947b02322eb31e7967bf" target="_top" xlink:title="Get the Sensor Name as an Arduino string.">
<polygon fill="white" stroke="#666666" points="532,-169 398,-169 398,-150 532,-150 532,-169"/>
<text text-anchor="middle" x="465" y="-157" font-family="Helvetica,sans-Serif" font-size="10.00">Sensor::getSensorName</text>
</a>
</g>
</g>
<!-- Node3&#45;&gt;Node4 -->
<g id="edge3_Node000003_Node000004" class="edge">
<title>Node3&#45;&gt;Node4</title>
<g id="a_edge3_Node000003_Node000004"><a xlink:title=" ">
<path fill="none" stroke="#63b8ff" d="M359.67,-159.5C368.82,-159.5 378.37,-159.5 387.81,-159.5"/>
<polygon fill="#63b8ff" stroke="#63b8ff" points="388,-163 398,-159.5 388,-156 388,-163"/>
</a>
</g>
</g>
<!-- Node8 -->
<g id="Node000008" class="node">
<title>Node8</title>
<g id="a_Node000008"><a xlink:href="classSensor.html#a2d5ecda6a046ddba40d0e37921226d2f" target="_top" xlink:title="Uses readData and readEmpty to get the data&#45;filled or empty&#45;celled CSV line for the sensor.">
<polygon fill="white" stroke="#666666" points="356,-93 242,-93 242,-74 356,-74 356,-93"/>
<text text-anchor="middle" x="299" y="-81" font-family="Helvetica,sans-Serif" font-size="10.00">Sensor::getDataCSV</text>
</a>
</g>
</g>
<!-- Node7&#45;&gt;Node8 -->
<g id="edge7_Node000007_Node000008" class="edge">
<title>Node7&#45;&gt;Node8</title>
<g id="a_edge7_Node000007_Node000008"><a xlink:title=" ">
<path fill="none" stroke="#63b8ff" d="M184.71,-83.5C199.39,-83.5 215.89,-83.5 231.66,-83.5"/>
<polygon fill="#63b8ff" stroke="#63b8ff" points="231.89,-87 241.89,-83.5 231.89,-80 231.89,-87"/>
</a>
</g>
</g>
<!-- Node8&#45;&gt;Node5 -->
<g id="edge9_Node000008_Node000005" class="edge">
<title>Node8&#45;&gt;Node5</title>
<g id="a_edge9_Node000008_Node000005"><a xlink:title=" ">
<path fill="none" stroke="#63b8ff" d="M341.38,-93.09C363.12,-98.13 389.96,-104.34 412.97,-109.68"/>
<polygon fill="#63b8ff" stroke="#63b8ff" points="412.38,-113.13 422.91,-111.98 413.96,-106.31 412.38,-113.13"/>
</a>
</g>
</g>
<!-- Node9 -->
<g id="Node000009" class="node">
<title>Node9</title>
<g id="a_Node000009"><a xlink:href="classSensor.html#a56153cab066abc01692301d11965f9b8" target="_top" xlink:title="Returns the collected data from the sensor in CSV format.">
<polygon fill="white" stroke="#666666" points="515.5,-93 414.5,-93 414.5,-74 515.5,-74 515.5,-93"/>
<text text-anchor="middle" x="465" y="-81" font-family="Helvetica,sans-Serif" font-size="10.00">Sensor::readData</text>
</a>
</g>
</g>
<!-- Node8&#45;&gt;Node9 -->
<g id="edge8_Node000008_Node000009" class="edge">
<title>Node8&#45;&gt;Node9</title>
<g id="a_edge8_Node000008_Node000009"><a xlink:title=" ">
<path fill="none" stroke="#63b8ff" d="M356.44,-83.5C371.87,-83.5 388.64,-83.5 404.25,-83.5"/>
<polygon fill="#63b8ff" stroke="#63b8ff" points="404.31,-87 414.31,-83.5 404.31,-80 404.31,-87"/>
</a>
</g>
</g>
<!-- Node11 -->
<g id="Node000011" class="node">
<title>Node11</title>
<g id="a_Node000011"><a xlink:href="classSensor.html#a1d128dc295e634de6506da5cbb716b64" target="_top" xlink:title="Append the data from a sensor to the packet if the minium period is satisfied.">
<polygon fill="white" stroke="#666666" points="362,-56 236,-56 236,-37 362,-37 362,-56"/>
<text text-anchor="middle" x="299" y="-44" font-family="Helvetica,sans-Serif" font-size="10.00">Sensor::getDataPacket</text>
</a>
</g>
</g>
<!-- Node10&#45;&gt;Node11 -->
<g id="edge11_Node000010_Node000011" class="edge">
<title>Node10&#45;&gt;Node11</title>
<g id="a_edge11_Node000010_Node000011"><a xlink:title=" ">
<path fill="none" stroke="#63b8ff" d="M200.32,-46.5C208.62,-46.5 217.18,-46.5 225.63,-46.5"/>
<polygon fill="#63b8ff" stroke="#63b8ff" points="225.85,-50 235.85,-46.5 225.85,-43 225.85,-50"/>
</a>
</g>
</g>
<!-- Node12 -->
<g id="Node000012" class="node">
<title>Node12</title>
<g id="a_Node000012"><a xlink:href="classSensor.html#ae835436cbb1fd60580e72a4ee7014c48" target="_top" xlink:title="Used for creating packets, reads data from the sensor and appends it to the passed uint8_t array poin...">
<polygon fill="white" stroke="#666666" points="531,-56 399,-56 399,-37 531,-37 531,-56"/>
<text text-anchor="middle" x="465" y="-44" font-family="Helvetica,sans-Serif" font-size="10.00">Sensor::readDataPacket</text>
</a>
</g>
</g>
<!-- Node11&#45;&gt;Node12 -->
<g id="edge12_Node000011_Node000012" class="edge">
<title>Node11&#45;&gt;Node12</title>
<g id="a_edge12_Node000011_Node000012"><a xlink:title=" ">
<path fill="none" stroke="#63b8ff" d="M362,-46.5C370.77,-46.5 379.86,-46.5 388.84,-46.5"/>
<polygon fill="#63b8ff" stroke="#63b8ff" points="388.91,-50 398.9,-46.5 388.9,-43 388.91,-50"/>
</a>
</g>
</g>
</g>
</svg>

<g id="navigator" transform="translate(0 0)" fill="#404254">
  <rect fill="#f2f5e9" fill-opacity="0.5" stroke="#606060" stroke-width=".5" x="0" y="0" width="60" height="60"/>
  <use id="zoomplus" xlink:href="#zoomPlus" x="17" y="9" onmousedown="handleZoom(evt,'in')"/>
  <use id="zoomminus" xlink:href="#zoomMin" x="42" y="9" onmousedown="handleZoom(evt,'out')"/>
  <use id="reset" xlink:href="#resetDef" x="30" y="36" onmousedown="handleReset()"/>
   <use id="arrowup" xlink:href="#arrowUp" x="0" y="0" onmousedown="handlePan(0,-1)"/>
  <use id="arrowright" xlink:href="#arrowRight" x="0" y="0" onmousedown="handlePan(1,0)"/>
  <use id="arrowdown" xlink:href="#arrowDown" x="0" y="0" onmousedown="handlePan(0,1)"/>
  <use id="arrowleft" xlink:href="#arrowLeft" x="0" y="0" onmousedown="handlePan(-1,0)"/>
</g>
<svg viewBox="0 0 15 15" width="100%" height="30px" preserveAspectRatio="xMaxYMin meet">
 <g id="arrow_out" transform="scale(0.3 0.3)">
  <a xlink:href="main_8cpp_afe461d27b9c48d5921c00d521181f12f_cgraph_org.svg" target="_base">
   <rect id="button" ry="5" rx="5" y="6" x="6" height="38" width="38"
        fill="#f2f5e9" fill-opacity="0.5" stroke="#606060" stroke-width="1.0"/>
   <path id="arrow"
     d="M 11.500037,31.436501 C 11.940474,20.09759 22.043105,11.32322 32.158766,21.979434 L 37.068811,17.246167 C 37.068811,17.246167 37.088388,32 37.088388,32 L 22.160133,31.978069 C 22.160133,31.978069 26.997745,27.140456 26.997745,27.140456 C 18.528582,18.264221 13.291696,25.230495 11.500037,31.436501 z"
     style="fill:#404040;"/>
  </a>
 </g>
</svg>

<style type='text/css'>
<![CDATA[
[data-mouse-over-selected='false'] { opacity: 0.7; }
[data-mouse-over-selected='true']  { opacity: 1.0; }
]]>
</style>
<script type="application/ecmascript"><![CDATA[
document.addEventListener('DOMContentLoaded', (event) => {
  highlightEdges();
  highlightAdjacentNodes();
});
]]></script>
</svg>
