<?xml version="1.0" encoding="UTF-8" standalone="no"?>
<!DOCTYPE svg PUBLIC "-//W3C//DTD SVG 1.1//EN"
 "http://www.w3.org/Graphics/SVG/1.1/DTD/svg11.dtd">
<!-- Generated by graphviz version 2.43.0 (0)
 -->
<!-- Title: MTK3339Sensor.h Pages: 1 -->
<svg width="417pt" height="258pt"
 viewBox="0.00 0.00 417.16 258.00" xmlns="http://www.w3.org/2000/svg" xmlns:xlink="http://www.w3.org/1999/xlink">

<svg id="main" version="1.1" xmlns="http://www.w3.org/2000/svg" xmlns:xlink="http://www.w3.org/1999/xlink" xml:space="preserve" onload="init(evt)">
<style type="text/css"><![CDATA[
.node, .edge {opacity: 0.7;}
.node.selected, .edge.selected {opacity: 1;}
.edge:hover path { stroke: red; }
.edge:hover polygon { stroke: red; fill: red; }
]]></style>
<script type="application/ecmascript" xlink:href="svg.min.js"/>
<svg id="graph" class="graph">
<g id="graph0" class="graph" transform="scale(1 1) rotate(0) translate(4 254)">
<title>MTK3339Sensor.h</title>
<!-- Node1 -->
<g id="Node000001" class="node">
<title>Node1</title>
<g id="a_Node000001"><a xlink:title=" ">
<polygon fill="#999999" stroke="#666666" points="239.16,-250 135.16,-250 135.16,-231 239.16,-231 239.16,-250"/>
<text text-anchor="middle" x="187.16" y="-238" font-family="Helvetica,sans-Serif" font-size="10.00">MTK3339Sensor.h</text>
</a>
</g>
</g>
<!-- Node2 -->
<g id="Node000002" class="node">
<title>Node2</title>
<g id="a_Node000002"><a xlink:title=" ">
<polygon fill="#e0e0e0" stroke="#999999" points="335.66,-19 272.66,-19 272.66,0 335.66,0 335.66,-19"/>
<text text-anchor="middle" x="304.16" y="-7" font-family="Helvetica,sans-Serif" font-size="10.00">Arduino.h</text>
</a>
</g>
</g>
<!-- Node1&#45;&gt;Node2 -->
<g id="edge1_Node000001_Node000002" class="edge">
<title>Node1&#45;&gt;Node2</title>
<g id="a_edge1_Node000001_Node000002"><a xlink:title=" ">
<path fill="none" stroke="#63b8ff" d="M134.99,-237.11C71.19,-231.97 -24.73,-215.81 6.16,-165 62.6,-72.17 194.87,-32.61 262.6,-17.96"/>
<polygon fill="#63b8ff" stroke="#63b8ff" points="263.43,-21.36 272.5,-15.9 262,-14.51 263.43,-21.36"/>
</a>
</g>
</g>
<!-- Node3 -->
<g id="Node000003" class="node">
<title>Node3</title>
<g id="a_Node000003"><a xlink:title=" ">
<polygon fill="#e0e0e0" stroke="#999999" points="145.16,-195 15.16,-195 15.16,-165 145.16,-165 145.16,-195"/>
<text text-anchor="start" x="23.16" y="-183" font-family="Helvetica,sans-Serif" font-size="10.00">SparkFun_u&#45;blox_GNSS</text>
<text text-anchor="middle" x="80.16" y="-172" font-family="Helvetica,sans-Serif" font-size="10.00">_Arduino_Library.h</text>
</a>
</g>
</g>
<!-- Node1&#45;&gt;Node3 -->
<g id="edge2_Node000001_Node000003" class="edge">
<title>Node1&#45;&gt;Node3</title>
<g id="a_edge2_Node000001_Node000003"><a xlink:title=" ">
<path fill="none" stroke="#63b8ff" d="M171.37,-230.87C156.58,-222.78 133.98,-210.42 114.97,-200.03"/>
<polygon fill="#63b8ff" stroke="#63b8ff" points="116.43,-196.84 105.98,-195.11 113.07,-202.98 116.43,-196.84"/>
</a>
</g>
</g>
<!-- Node4 -->
<g id="Node000004" class="node">
<title>Node4</title>
<g id="a_Node000004"><a xlink:title=" ">
<polygon fill="#e0e0e0" stroke="#999999" points="211.16,-189.5 163.16,-189.5 163.16,-170.5 211.16,-170.5 211.16,-189.5"/>
<text text-anchor="middle" x="187.16" y="-177.5" font-family="Helvetica,sans-Serif" font-size="10.00">Wire.h</text>
</a>
</g>
</g>
<!-- Node1&#45;&gt;Node4 -->
<g id="edge3_Node000001_Node000004" class="edge">
<title>Node1&#45;&gt;Node4</title>
<g id="a_edge3_Node000001_Node000004"><a xlink:title=" ">
<path fill="none" stroke="#63b8ff" d="M187.16,-230.87C187.16,-222.75 187.16,-210.31 187.16,-199.89"/>
<polygon fill="#63b8ff" stroke="#63b8ff" points="190.66,-199.67 187.16,-189.67 183.66,-199.67 190.66,-199.67"/>
</a>
</g>
</g>
<!-- Node5 -->
<g id="Node000005" class="node">
<title>Node5</title>
<g id="a_Node000005"><a xlink:href="PayloadConfig_8h.html" target="_top" xlink:title="Central location for pinout and config defines.">
<polygon fill="white" stroke="#666666" points="324.66,-189.5 229.66,-189.5 229.66,-170.5 324.66,-170.5 324.66,-189.5"/>
<text text-anchor="middle" x="277.16" y="-177.5" font-family="Helvetica,sans-Serif" font-size="10.00">PayloadConfig.h</text>
</a>
</g>
</g>
<!-- Node1&#45;&gt;Node5 -->
<g id="edge4_Node000001_Node000005" class="edge">
<title>Node1&#45;&gt;Node5</title>
<g id="a_edge4_Node000001_Node000005"><a xlink:title=" ">
<path fill="none" stroke="#63b8ff" d="M200.44,-230.87C214.8,-221.54 237.92,-206.51 255.03,-195.38"/>
<polygon fill="#63b8ff" stroke="#63b8ff" points="257.35,-198.05 263.83,-189.67 253.53,-192.18 257.35,-198.05"/>
</a>
</g>
</g>
<!-- Node6 -->
<g id="Node000006" class="node">
<title>Node6</title>
<g id="a_Node000006"><a xlink:href="Sensor_8h.html" target="_top" xlink:title=" ">
<polygon fill="white" stroke="#666666" points="401.16,-189.5 343.16,-189.5 343.16,-170.5 401.16,-170.5 401.16,-189.5"/>
<text text-anchor="middle" x="372.16" y="-177.5" font-family="Helvetica,sans-Serif" font-size="10.00">Sensor.h</text>
</a>
</g>
</g>
<!-- Node1&#45;&gt;Node6 -->
<g id="edge5_Node000001_Node000006" class="edge">
<title>Node1&#45;&gt;Node6</title>
<g id="a_edge5_Node000001_Node000006"><a xlink:title=" ">
<path fill="none" stroke="#63b8ff" d="M217.17,-230.98C246.99,-222.38 293.96,-208.48 334.16,-195 336.06,-194.36 338.01,-193.69 339.97,-193.01"/>
<polygon fill="#63b8ff" stroke="#63b8ff" points="341.5,-196.18 349.73,-189.51 339.14,-189.59 341.5,-196.18"/>
</a>
</g>
</g>
<!-- Node6&#45;&gt;Node2 -->
<g id="edge6_Node000006_Node000002" class="edge">
<title>Node6&#45;&gt;Node2</title>
<g id="a_edge6_Node000006_Node000002"><a xlink:title=" ">
<path fill="none" stroke="#63b8ff" d="M352.27,-170.37C336.31,-162.25 315,-148.42 305.16,-129 288.94,-97 294.35,-53.61 299.45,-29.2"/>
<polygon fill="#63b8ff" stroke="#63b8ff" points="302.94,-29.68 301.77,-19.15 296.11,-28.11 302.94,-29.68"/>
</a>
</g>
</g>
<!-- Node7 -->
<g id="Node000007" class="node">
<title>Node7</title>
<g id="a_Node000007"><a xlink:href="Device_8h.html" target="_top" xlink:title=" ">
<polygon fill="white" stroke="#666666" points="372.66,-129 313.66,-129 313.66,-110 372.66,-110 372.66,-129"/>
<text text-anchor="middle" x="343.16" y="-117" font-family="Helvetica,sans-Serif" font-size="10.00">Device.h</text>
</a>
</g>
</g>
<!-- Node6&#45;&gt;Node7 -->
<g id="edge7_Node000006_Node000007" class="edge">
<title>Node6&#45;&gt;Node7</title>
<g id="a_edge7_Node000006_Node000007"><a xlink:title=" ">
<path fill="none" stroke="#63b8ff" d="M367.88,-170.37C363.73,-161.99 357.29,-149.01 352.03,-138.39"/>
<polygon fill="#63b8ff" stroke="#63b8ff" points="355.03,-136.57 347.46,-129.17 348.76,-139.68 355.03,-136.57"/>
</a>
</g>
</g>
<!-- Node8 -->
<g id="Node000008" class="node">
<title>Node8</title>
<g id="a_Node000008"><a xlink:href="Logger_8h.html" target="_top" xlink:title=" ">
<polygon fill="white" stroke="#666666" points="409.16,-74 351.16,-74 351.16,-55 409.16,-55 409.16,-74"/>
<text text-anchor="middle" x="380.16" y="-62" font-family="Helvetica,sans-Serif" font-size="10.00">Logger.h</text>
</a>
</g>
</g>
<!-- Node6&#45;&gt;Node8 -->
<g id="edge11_Node000006_Node000008" class="edge">
<title>Node6&#45;&gt;Node8</title>
<g id="a_edge11_Node000006_Node000008"><a xlink:title=" ">
<path fill="none" stroke="#63b8ff" d="M374.46,-170.23C376.94,-160.31 380.71,-143.62 382.16,-129 382.99,-120.6 382.35,-118.44 382.16,-110 381.97,-101.49 381.57,-92.06 381.18,-84.09"/>
<polygon fill="#63b8ff" stroke="#63b8ff" points="384.67,-83.83 380.66,-74.03 377.68,-84.2 384.67,-83.83"/>
</a>
</g>
</g>
<!-- Node7&#45;&gt;Node2 -->
<g id="edge8_Node000007_Node000002" class="edge">
<title>Node7&#45;&gt;Node2</title>
<g id="a_edge8_Node000007_Node000002"><a xlink:title=" ">
<path fill="none" stroke="#63b8ff" d="M339.97,-109.66C333.59,-92.01 319.18,-52.09 310.71,-28.64"/>
<polygon fill="#63b8ff" stroke="#63b8ff" points="313.97,-27.38 307.29,-19.16 307.39,-29.75 313.97,-27.38"/>
</a>
</g>
</g>
<!-- Node7&#45;&gt;Node8 -->
<g id="edge9_Node000007_Node000008" class="edge">
<title>Node7&#45;&gt;Node8</title>
<g id="a_edge9_Node000007_Node000008"><a xlink:title=" ">
<path fill="none" stroke="#63b8ff" d="M349.27,-109.75C354.44,-102.34 362.01,-91.5 368.35,-82.41"/>
<polygon fill="#63b8ff" stroke="#63b8ff" points="371.31,-84.29 374.16,-74.09 365.57,-80.29 371.31,-84.29"/>
</a>
</g>
</g>
<!-- Node8&#45;&gt;Node2 -->
<g id="edge10_Node000008_Node000002" class="edge">
<title>Node8&#45;&gt;Node2</title>
<g id="a_edge10_Node000008_Node000002"><a xlink:title=" ">
<path fill="none" stroke="#63b8ff" d="M367.95,-54.98C356.38,-46.92 338.78,-34.65 325,-25.03"/>
<polygon fill="#63b8ff" stroke="#63b8ff" points="326.8,-22.02 316.59,-19.17 322.79,-27.76 326.8,-22.02"/>
</a>
</g>
</g>
</g>
</svg>
</svg>

<style type='text/css'>
<![CDATA[
[data-mouse-over-selected='false'] { opacity: 0.7; }
[data-mouse-over-selected='true']  { opacity: 1.0; }
]]>
</style>
<script type="application/ecmascript"><![CDATA[
document.addEventListener('DOMContentLoaded', (event) => {
  highlightEdges();
  highlightAdjacentNodes();
});
]]></script>
</svg>
