<?xml version="1.0" encoding="UTF-8" standalone="no"?>
<!DOCTYPE svg PUBLIC "-//W3C//DTD SVG 1.1//EN"
 "http://www.w3.org/Graphics/SVG/1.1/DTD/svg11.dtd">
<!-- Generated by graphviz version 2.43.0 (0)
 -->
<!-- Title: OzoneSensor.h Pages: 1 -->
<svg width="385pt" height="252pt"
 viewBox="0.00 0.00 385.00 252.00" xmlns="http://www.w3.org/2000/svg" xmlns:xlink="http://www.w3.org/1999/xlink">
<g id="graph0" class="graph" transform="scale(1 1) rotate(0) translate(4 248)">
<title>OzoneSensor.h</title>
<!-- Node1 -->
<g id="node1" class="node">
<title>Node1</title>
<g id="a_node1"><a xlink:title=" ">
<polygon fill="#bfbfbf" stroke="black" points="159,-224.5 159,-243.5 248,-243.5 248,-224.5 159,-224.5"/>
<text text-anchor="middle" x="203.5" y="-231.5" font-family="Helvetica,sans-Serif" font-size="10.00">OzoneSensor.h</text>
</a>
</g>
</g>
<!-- Node2 -->
<g id="node2" class="node">
<title>Node2</title>
<g id="a_node2"><a xlink:title=" ">
<polygon fill="none" stroke="#bfbfbf" points="0,-168.5 0,-187.5 137,-187.5 137,-168.5 0,-168.5"/>
<text text-anchor="middle" x="68.5" y="-175.5" font-family="Helvetica,sans-Serif" font-size="10.00">DFRobot_OzoneSensor.h</text>
</a>
</g>
</g>
<!-- Node1&#45;&gt;Node2 -->
<g id="edge1" class="edge">
<title>Node1&#45;&gt;Node2</title>
<path fill="none" stroke="midnightblue" d="M182.11,-224.44C159.79,-215.52 124.6,-201.44 99.29,-191.32"/>
<polygon fill="midnightblue" stroke="midnightblue" points="100.38,-187.98 89.79,-187.52 97.78,-194.48 100.38,-187.98"/>
</g>
<!-- Node3 -->
<g id="node3" class="node">
<title>Node3</title>
<g id="a_node3"><a xlink:href="PayloadConfig_8h.html" target="_top" xlink:title="Central location for pinout and config defines.">
<polygon fill="none" stroke="black" points="155.5,-168.5 155.5,-187.5 251.5,-187.5 251.5,-168.5 155.5,-168.5"/>
<text text-anchor="middle" x="203.5" y="-175.5" font-family="Helvetica,sans-Serif" font-size="10.00">PayloadConfig.h</text>
</a>
</g>
</g>
<!-- Node1&#45;&gt;Node3 -->
<g id="edge2" class="edge">
<title>Node1&#45;&gt;Node3</title>
<path fill="none" stroke="midnightblue" d="M203.5,-224.08C203.5,-217.01 203.5,-206.86 203.5,-197.99"/>
<polygon fill="midnightblue" stroke="midnightblue" points="207,-197.75 203.5,-187.75 200,-197.75 207,-197.75"/>
</g>
<!-- Node4 -->
<g id="node4" class="node">
<title>Node4</title>
<g id="a_node4"><a xlink:href="Sensor_8h.html" target="_top" xlink:title=" ">
<polygon fill="none" stroke="black" points="270,-168.5 270,-187.5 329,-187.5 329,-168.5 270,-168.5"/>
<text text-anchor="middle" x="299.5" y="-175.5" font-family="Helvetica,sans-Serif" font-size="10.00">Sensor.h</text>
</a>
</g>
</g>
<!-- Node1&#45;&gt;Node4 -->
<g id="edge3" class="edge">
<title>Node1&#45;&gt;Node4</title>
<path fill="none" stroke="midnightblue" d="M218.92,-224.32C234.04,-215.82 257.32,-202.73 274.97,-192.8"/>
<polygon fill="midnightblue" stroke="midnightblue" points="277.11,-195.61 284.11,-187.65 273.68,-189.51 277.11,-195.61"/>
</g>
<!-- Node5 -->
<g id="node5" class="node">
<title>Node5</title>
<g id="a_node5"><a xlink:title=" ">
<polygon fill="none" stroke="#bfbfbf" points="258,-0.5 258,-19.5 321,-19.5 321,-0.5 258,-0.5"/>
<text text-anchor="middle" x="289.5" y="-7.5" font-family="Helvetica,sans-Serif" font-size="10.00">Arduino.h</text>
</a>
</g>
</g>
<!-- Node4&#45;&gt;Node5 -->
<g id="edge4" class="edge">
<title>Node4&#45;&gt;Node5</title>
<path fill="none" stroke="midnightblue" d="M288.79,-168.3C279.56,-160.07 266.91,-146.79 261.5,-132 248.47,-96.39 266.56,-52.6 279.16,-28.67"/>
<polygon fill="midnightblue" stroke="midnightblue" points="282.34,-30.16 284.12,-19.72 276.21,-26.77 282.34,-30.16"/>
</g>
<!-- Node6 -->
<g id="node6" class="node">
<title>Node6</title>
<g id="a_node6"><a xlink:href="Device_8h.html" target="_top" xlink:title=" ">
<polygon fill="none" stroke="black" points="270,-112.5 270,-131.5 329,-131.5 329,-112.5 270,-112.5"/>
<text text-anchor="middle" x="299.5" y="-119.5" font-family="Helvetica,sans-Serif" font-size="10.00">Device.h</text>
</a>
</g>
</g>
<!-- Node4&#45;&gt;Node6 -->
<g id="edge5" class="edge">
<title>Node4&#45;&gt;Node6</title>
<path fill="none" stroke="midnightblue" d="M299.5,-168.08C299.5,-161.01 299.5,-150.86 299.5,-141.99"/>
<polygon fill="midnightblue" stroke="midnightblue" points="303,-141.75 299.5,-131.75 296,-141.75 303,-141.75"/>
</g>
<!-- Node7 -->
<g id="node7" class="node">
<title>Node7</title>
<g id="a_node7"><a xlink:href="Logger_8h.html" target="_top" xlink:title=" ">
<polygon fill="none" stroke="black" points="318,-56.5 318,-75.5 377,-75.5 377,-56.5 318,-56.5"/>
<text text-anchor="middle" x="347.5" y="-63.5" font-family="Helvetica,sans-Serif" font-size="10.00">Logger.h</text>
</a>
</g>
</g>
<!-- Node4&#45;&gt;Node7 -->
<g id="edge9" class="edge">
<title>Node4&#45;&gt;Node7</title>
<path fill="none" stroke="midnightblue" d="M309.65,-168.49C318.81,-160.18 331.84,-146.69 338.5,-132 345.05,-117.56 347.14,-99.6 347.68,-86.22"/>
<polygon fill="midnightblue" stroke="midnightblue" points="351.19,-85.9 347.83,-75.85 344.19,-85.8 351.19,-85.9"/>
</g>
<!-- Node6&#45;&gt;Node5 -->
<g id="edge6" class="edge">
<title>Node6&#45;&gt;Node5</title>
<path fill="none" stroke="midnightblue" d="M298.72,-112.37C297.1,-94.62 293.38,-53.67 291.19,-29.6"/>
<polygon fill="midnightblue" stroke="midnightblue" points="294.67,-29.23 290.28,-19.59 287.7,-29.87 294.67,-29.23"/>
</g>
<!-- Node6&#45;&gt;Node7 -->
<g id="edge7" class="edge">
<title>Node6&#45;&gt;Node7</title>
<path fill="none" stroke="midnightblue" d="M307.43,-112.08C314.35,-104.3 324.57,-92.8 332.95,-83.37"/>
<polygon fill="midnightblue" stroke="midnightblue" points="335.69,-85.55 339.72,-75.75 330.46,-80.9 335.69,-85.55"/>
</g>
<!-- Node7&#45;&gt;Node5 -->
<g id="edge8" class="edge">
<title>Node7&#45;&gt;Node5</title>
<path fill="none" stroke="midnightblue" d="M338.18,-56.32C329.61,-48.34 316.69,-36.31 306.31,-26.65"/>
<polygon fill="midnightblue" stroke="midnightblue" points="308.69,-24.09 298.99,-19.83 303.92,-29.21 308.69,-24.09"/>
</g>
</g>
</svg>
