<?xml version="1.0" encoding="UTF-8" standalone="no"?>
<!DOCTYPE svg PUBLIC "-//W3C//DTD SVG 1.1//EN"
 "http://www.w3.org/Graphics/SVG/1.1/DTD/svg11.dtd">
<!-- Generated by graphviz version 2.43.0 (0)
 -->
<!-- Title: RadioStorage.cpp Pages: 1 -->
<svg width="204pt" height="308pt"
 viewBox="0.00 0.00 203.99 308.00" xmlns="http://www.w3.org/2000/svg" xmlns:xlink="http://www.w3.org/1999/xlink">
<g id="graph0" class="graph" transform="scale(1 1) rotate(0) translate(4 304)">
<title>RadioStorage.cpp</title>
<!-- Node1 -->
<g id="node1" class="node">
<title>Node1</title>
<g id="a_node1"><a xlink:title=" ">
<polygon fill="#bfbfbf" stroke="black" points="8.49,-280.5 8.49,-299.5 110.49,-299.5 110.49,-280.5 8.49,-280.5"/>
<text text-anchor="middle" x="59.49" y="-287.5" font-family="Helvetica,sans-Serif" font-size="10.00">RadioStorage.cpp</text>
</a>
</g>
</g>
<!-- Node2 -->
<g id="node2" class="node">
<title>Node2</title>
<g id="a_node2"><a xlink:href="RadioStorage_8h.html" target="_top" xlink:title=" ">
<polygon fill="none" stroke="black" points="13.99,-224.5 13.99,-243.5 104.99,-243.5 104.99,-224.5 13.99,-224.5"/>
<text text-anchor="middle" x="59.49" y="-231.5" font-family="Helvetica,sans-Serif" font-size="10.00">RadioStorage.h</text>
</a>
</g>
</g>
<!-- Node1&#45;&gt;Node2 -->
<g id="edge1" class="edge">
<title>Node1&#45;&gt;Node2</title>
<path fill="none" stroke="midnightblue" d="M59.49,-280.08C59.49,-273.01 59.49,-262.86 59.49,-253.99"/>
<polygon fill="midnightblue" stroke="midnightblue" points="62.99,-253.75 59.49,-243.75 55.99,-253.75 62.99,-253.75"/>
</g>
<!-- Node3 -->
<g id="node3" class="node">
<title>Node3</title>
<g id="a_node3"><a xlink:title=" ">
<polygon fill="none" stroke="#bfbfbf" points="57.99,-0.5 57.99,-19.5 120.99,-19.5 120.99,-0.5 57.99,-0.5"/>
<text text-anchor="middle" x="89.49" y="-7.5" font-family="Helvetica,sans-Serif" font-size="10.00">Arduino.h</text>
</a>
</g>
</g>
<!-- Node2&#45;&gt;Node3 -->
<g id="edge2" class="edge">
<title>Node2&#45;&gt;Node3</title>
<path fill="none" stroke="midnightblue" d="M41.41,-224.39C27.93,-216.87 10.52,-204.57 2.49,-188 -1.38,-180 0.27,-176.61 2.49,-168 16.93,-112.16 55.97,-55 76.49,-27.62"/>
<polygon fill="midnightblue" stroke="midnightblue" points="79.39,-29.59 82.67,-19.52 73.82,-25.34 79.39,-29.59"/>
</g>
<!-- Node4 -->
<g id="node4" class="node">
<title>Node4</title>
<g id="a_node4"><a xlink:href="PayloadConfig_8h.html" target="_top" xlink:title="Central location for pinout and config defines.">
<polygon fill="none" stroke="black" points="11.49,-168.5 11.49,-187.5 107.49,-187.5 107.49,-168.5 11.49,-168.5"/>
<text text-anchor="middle" x="59.49" y="-175.5" font-family="Helvetica,sans-Serif" font-size="10.00">PayloadConfig.h</text>
</a>
</g>
</g>
<!-- Node2&#45;&gt;Node4 -->
<g id="edge3" class="edge">
<title>Node2&#45;&gt;Node4</title>
<path fill="none" stroke="midnightblue" d="M59.49,-224.08C59.49,-217.01 59.49,-206.86 59.49,-197.99"/>
<polygon fill="midnightblue" stroke="midnightblue" points="62.99,-197.75 59.49,-187.75 55.99,-197.75 62.99,-197.75"/>
</g>
<!-- Node5 -->
<g id="node5" class="node">
<title>Node5</title>
<g id="a_node5"><a xlink:href="Storage_8h.html" target="_top" xlink:title=" ">
<polygon fill="none" stroke="black" points="125.99,-168.5 125.99,-187.5 188.99,-187.5 188.99,-168.5 125.99,-168.5"/>
<text text-anchor="middle" x="157.49" y="-175.5" font-family="Helvetica,sans-Serif" font-size="10.00">Storage.h</text>
</a>
</g>
</g>
<!-- Node2&#45;&gt;Node5 -->
<g id="edge4" class="edge">
<title>Node2&#45;&gt;Node5</title>
<path fill="none" stroke="midnightblue" d="M75.24,-224.32C90.81,-215.74 114.87,-202.49 132.95,-192.52"/>
<polygon fill="midnightblue" stroke="midnightblue" points="134.72,-195.55 141.79,-187.65 131.34,-189.42 134.72,-195.55"/>
</g>
<!-- Node5&#45;&gt;Node3 -->
<g id="edge5" class="edge">
<title>Node5&#45;&gt;Node3</title>
<path fill="none" stroke="midnightblue" d="M134.75,-168.45C119.23,-161.28 99.86,-149.4 90.49,-132 72.97,-99.44 79.07,-54.44 84.6,-29.51"/>
<polygon fill="midnightblue" stroke="midnightblue" points="88.05,-30.13 87.01,-19.58 81.25,-28.47 88.05,-30.13"/>
</g>
<!-- Node6 -->
<g id="node6" class="node">
<title>Node6</title>
<g id="a_node6"><a xlink:href="Device_8h.html" target="_top" xlink:title=" ">
<polygon fill="none" stroke="black" points="98.99,-112.5 98.99,-131.5 157.99,-131.5 157.99,-112.5 98.99,-112.5"/>
<text text-anchor="middle" x="128.49" y="-119.5" font-family="Helvetica,sans-Serif" font-size="10.00">Device.h</text>
</a>
</g>
</g>
<!-- Node5&#45;&gt;Node6 -->
<g id="edge6" class="edge">
<title>Node5&#45;&gt;Node6</title>
<path fill="none" stroke="midnightblue" d="M152.71,-168.08C148.74,-160.69 142.97,-149.95 138.06,-140.81"/>
<polygon fill="midnightblue" stroke="midnightblue" points="141.01,-138.91 133.19,-131.75 134.84,-142.22 141.01,-138.91"/>
</g>
<!-- Node7 -->
<g id="node7" class="node">
<title>Node7</title>
<g id="a_node7"><a xlink:href="Logger_8h.html" target="_top" xlink:title=" ">
<polygon fill="none" stroke="black" points="136.99,-56.5 136.99,-75.5 195.99,-75.5 195.99,-56.5 136.99,-56.5"/>
<text text-anchor="middle" x="166.49" y="-63.5" font-family="Helvetica,sans-Serif" font-size="10.00">Logger.h</text>
</a>
</g>
</g>
<!-- Node5&#45;&gt;Node7 -->
<g id="edge10" class="edge">
<title>Node5&#45;&gt;Node7</title>
<path fill="none" stroke="midnightblue" d="M159.98,-168.47C162.45,-159.48 166.08,-144.89 167.49,-132 169.19,-116.56 168.77,-98.92 168.02,-85.92"/>
<polygon fill="midnightblue" stroke="midnightblue" points="171.51,-85.6 167.33,-75.86 164.53,-86.08 171.51,-85.6"/>
</g>
<!-- Node6&#45;&gt;Node3 -->
<g id="edge7" class="edge">
<title>Node6&#45;&gt;Node3</title>
<path fill="none" stroke="midnightblue" d="M125.43,-112.37C119.11,-94.54 104.49,-53.3 95.97,-29.27"/>
<polygon fill="midnightblue" stroke="midnightblue" points="99.18,-27.85 92.54,-19.59 92.58,-30.19 99.18,-27.85"/>
</g>
<!-- Node6&#45;&gt;Node7 -->
<g id="edge8" class="edge">
<title>Node6&#45;&gt;Node7</title>
<path fill="none" stroke="midnightblue" d="M134.77,-112.08C140.14,-104.46 148.01,-93.26 154.57,-83.94"/>
<polygon fill="midnightblue" stroke="midnightblue" points="157.44,-85.94 160.34,-75.75 151.72,-81.91 157.44,-85.94"/>
</g>
<!-- Node7&#45;&gt;Node3 -->
<g id="edge9" class="edge">
<title>Node7&#45;&gt;Node3</title>
<path fill="none" stroke="midnightblue" d="M154.12,-56.32C142.34,-48.06 124.36,-35.45 110.36,-25.63"/>
<polygon fill="midnightblue" stroke="midnightblue" points="112.03,-22.53 101.84,-19.65 108.01,-28.26 112.03,-22.53"/>
</g>
</g>
</svg>
