<?xml version="1.0" encoding="UTF-8" standalone="no"?>
<!DOCTYPE svg PUBLIC "-//W3C//DTD SVG 1.1//EN"
 "http://www.w3.org/Graphics/SVG/1.1/DTD/svg11.dtd">
<!-- Generated by graphviz version 2.43.0 (0)
 -->
<!-- Title: RadioStorage.h Pages: 1 -->
<svg width="201pt" height="247pt"
 viewBox="0.00 0.00 201.38 247.00" xmlns="http://www.w3.org/2000/svg" xmlns:xlink="http://www.w3.org/1999/xlink">
<g id="graph0" class="graph" transform="scale(1 1) rotate(0) translate(4 243)">
<title>RadioStorage.h</title>
<!-- Node1 -->
<g id="Node000001" class="node">
<title>Node1</title>
<g id="a_Node000001"><a xlink:title=" ">
<polygon fill="#999999" stroke="#666666" points="104.88,-239 13.88,-239 13.88,-220 104.88,-220 104.88,-239"/>
<text text-anchor="middle" x="59.38" y="-227" font-family="Helvetica,sans-Serif" font-size="10.00">RadioStorage.h</text>
</a>
</g>
</g>
<!-- Node2 -->
<g id="Node000002" class="node">
<title>Node2</title>
<g id="a_Node000002"><a xlink:title=" ">
<polygon fill="#e0e0e0" stroke="#999999" points="119.88,-19 56.88,-19 56.88,0 119.88,0 119.88,-19"/>
<text text-anchor="middle" x="88.38" y="-7" font-family="Helvetica,sans-Serif" font-size="10.00">Arduino.h</text>
</a>
</g>
</g>
<!-- Node1&#45;&gt;Node2 -->
<g id="edge1_Node000001_Node000002" class="edge">
<title>Node1&#45;&gt;Node2</title>
<g id="a_edge1_Node000001_Node000002"><a xlink:title=" ">
<path fill="none" stroke="#63b8ff" d="M41.03,-219.88C27.59,-212.46 10.37,-200.36 2.38,-184 -1.32,-176.41 0.26,-173.17 2.38,-165 16.59,-110.27 54.87,-54.32 75.23,-27.24"/>
<polygon fill="#63b8ff" stroke="#63b8ff" points="78.08,-29.27 81.38,-19.2 72.52,-25.01 78.08,-29.27"/>
</a>
</g>
</g>
<!-- Node3 -->
<g id="Node000003" class="node">
<title>Node3</title>
<g id="a_Node000003"><a xlink:href="PayloadConfig_8h.html" target="_top" xlink:title="Central location for pinout and config defines.">
<polygon fill="white" stroke="#666666" points="106.88,-184 11.88,-184 11.88,-165 106.88,-165 106.88,-184"/>
<text text-anchor="middle" x="59.38" y="-172" font-family="Helvetica,sans-Serif" font-size="10.00">PayloadConfig.h</text>
</a>
</g>
</g>
<!-- Node1&#45;&gt;Node3 -->
<g id="edge2_Node000001_Node000003" class="edge">
<title>Node1&#45;&gt;Node3</title>
<g id="a_edge2_Node000001_Node000003"><a xlink:title=" ">
<path fill="none" stroke="#63b8ff" d="M59.38,-219.75C59.38,-212.8 59.38,-202.85 59.38,-194.13"/>
<polygon fill="#63b8ff" stroke="#63b8ff" points="62.88,-194.09 59.38,-184.09 55.88,-194.09 62.88,-194.09"/>
</a>
</g>
</g>
<!-- Node4 -->
<g id="Node000004" class="node">
<title>Node4</title>
<g id="a_Node000004"><a xlink:href="Storage_8h.html" target="_top" xlink:title=" ">
<polygon fill="white" stroke="#666666" points="187.88,-184 124.88,-184 124.88,-165 187.88,-165 187.88,-184"/>
<text text-anchor="middle" x="156.38" y="-172" font-family="Helvetica,sans-Serif" font-size="10.00">Storage.h</text>
</a>
</g>
</g>
<!-- Node1&#45;&gt;Node4 -->
<g id="edge3_Node000001_Node000004" class="edge">
<title>Node1&#45;&gt;Node4</title>
<g id="a_edge3_Node000001_Node000004"><a xlink:title=" ">
<path fill="none" stroke="#63b8ff" d="M74.97,-219.98C90.15,-211.69 113.48,-198.94 131.28,-189.22"/>
<polygon fill="#63b8ff" stroke="#63b8ff" points="133.42,-192.04 140.51,-184.17 130.06,-185.89 133.42,-192.04"/>
</a>
</g>
</g>
<!-- Node4&#45;&gt;Node2 -->
<g id="edge4_Node000004_Node000002" class="edge">
<title>Node4&#45;&gt;Node2</title>
<g id="a_edge4_Node000004_Node000002"><a xlink:title=" ">
<path fill="none" stroke="#63b8ff" d="M133.31,-164.96C117.86,-157.89 98.69,-146.19 89.38,-129 72.22,-97.31 78.07,-53.51 83.48,-29"/>
<polygon fill="#63b8ff" stroke="#63b8ff" points="86.9,-29.76 85.85,-19.22 80.1,-28.11 86.9,-29.76"/>
</a>
</g>
</g>
<!-- Node5 -->
<g id="Node000005" class="node">
<title>Node5</title>
<g id="a_Node000005"><a xlink:href="Device_8h.html" target="_top" xlink:title=" ">
<polygon fill="white" stroke="#666666" points="156.88,-129 97.88,-129 97.88,-110 156.88,-110 156.88,-129"/>
<text text-anchor="middle" x="127.38" y="-117" font-family="Helvetica,sans-Serif" font-size="10.00">Device.h</text>
</a>
</g>
</g>
<!-- Node4&#45;&gt;Node5 -->
<g id="edge5_Node000004_Node000005" class="edge">
<title>Node4&#45;&gt;Node5</title>
<g id="a_edge5_Node000004_Node000005"><a xlink:title=" ">
<path fill="none" stroke="#63b8ff" d="M151.59,-164.75C147.62,-157.49 141.86,-146.95 136.95,-137.98"/>
<polygon fill="#63b8ff" stroke="#63b8ff" points="139.95,-136.18 132.08,-129.09 133.81,-139.54 139.95,-136.18"/>
</a>
</g>
</g>
<!-- Node6 -->
<g id="Node000006" class="node">
<title>Node6</title>
<g id="a_Node000006"><a xlink:href="Logger_8h.html" target="_top" xlink:title=" ">
<polygon fill="white" stroke="#666666" points="193.38,-74 135.38,-74 135.38,-55 193.38,-55 193.38,-74"/>
<text text-anchor="middle" x="164.38" y="-62" font-family="Helvetica,sans-Serif" font-size="10.00">Logger.h</text>
</a>
</g>
</g>
<!-- Node4&#45;&gt;Node6 -->
<g id="edge9_Node000004_Node000006" class="edge">
<title>Node4&#45;&gt;Node6</title>
<g id="a_edge9_Node000004_Node000006"><a xlink:title=" ">
<path fill="none" stroke="#63b8ff" d="M158.96,-164.73C161.43,-155.83 164.98,-141.59 166.38,-129 168.04,-114.06 167.37,-97.03 166.37,-84.37"/>
<polygon fill="#63b8ff" stroke="#63b8ff" points="169.83,-83.79 165.43,-74.16 162.86,-84.44 169.83,-83.79"/>
</a>
</g>
</g>
<!-- Node5&#45;&gt;Node2 -->
<g id="edge6_Node000005_Node000002" class="edge">
<title>Node5&#45;&gt;Node2</title>
<g id="a_edge6_Node000005_Node000002"><a xlink:title=" ">
<path fill="none" stroke="#63b8ff" d="M124.19,-109.66C117.82,-92.01 103.4,-52.09 94.93,-28.64"/>
<polygon fill="#63b8ff" stroke="#63b8ff" points="98.2,-27.38 91.51,-19.16 91.61,-29.75 98.2,-27.38"/>
</a>
</g>
</g>
<!-- Node5&#45;&gt;Node6 -->
<g id="edge7_Node000005_Node000006" class="edge">
<title>Node5&#45;&gt;Node6</title>
<g id="a_edge7_Node000005_Node000006"><a xlink:title=" ">
<path fill="none" stroke="#63b8ff" d="M133.49,-109.75C138.66,-102.34 146.23,-91.5 152.58,-82.41"/>
<polygon fill="#63b8ff" stroke="#63b8ff" points="155.53,-84.29 158.39,-74.09 149.79,-80.29 155.53,-84.29"/>
</a>
</g>
</g>
<!-- Node6&#45;&gt;Node2 -->
<g id="edge8_Node000006_Node000002" class="edge">
<title>Node6&#45;&gt;Node2</title>
<g id="a_edge8_Node000006_Node000002"><a xlink:title=" ">
<path fill="none" stroke="#63b8ff" d="M152.17,-54.98C140.61,-46.92 123.01,-34.65 109.22,-25.03"/>
<polygon fill="#63b8ff" stroke="#63b8ff" points="111.02,-22.02 100.81,-19.17 107.02,-27.76 111.02,-22.02"/>
</a>
</g>
</g>
</g>
</svg>
