<?xml version="1.0" encoding="UTF-8" standalone="no"?>
<!DOCTYPE svg PUBLIC "-//W3C//DTD SVG 1.1//EN"
 "http://www.w3.org/Graphics/SVG/1.1/DTD/svg11.dtd">
<!-- Generated by graphviz version 2.43.0 (0)
 -->
<!-- Title: SCD40Sensor.cpp Pages: 1 -->
<svg width="621pt" height="308pt"
 viewBox="0.00 0.00 621.00 308.00" xmlns="http://www.w3.org/2000/svg" xmlns:xlink="http://www.w3.org/1999/xlink">
<g id="graph0" class="graph" transform="scale(1 1) rotate(0) translate(4 304)">
<title>SCD40Sensor.cpp</title>
<!-- Node1 -->
<g id="node1" class="node">
<title>Node1</title>
<g id="a_node1"><a xlink:title=" ">
<polygon fill="#bfbfbf" stroke="black" points="260.5,-280.5 260.5,-299.5 362.5,-299.5 362.5,-280.5 260.5,-280.5"/>
<text text-anchor="middle" x="311.5" y="-287.5" font-family="Helvetica,sans-Serif" font-size="10.00">SCD40Sensor.cpp</text>
</a>
</g>
</g>
<!-- Node2 -->
<g id="node2" class="node">
<title>Node2</title>
<g id="a_node2"><a xlink:href="SCD40Sensor_8h.html" target="_top" xlink:title=" ">
<polygon fill="none" stroke="black" points="266,-224.5 266,-243.5 357,-243.5 357,-224.5 266,-224.5"/>
<text text-anchor="middle" x="311.5" y="-231.5" font-family="Helvetica,sans-Serif" font-size="10.00">SCD40Sensor.h</text>
</a>
</g>
</g>
<!-- Node1&#45;&gt;Node2 -->
<g id="edge1" class="edge">
<title>Node1&#45;&gt;Node2</title>
<path fill="none" stroke="midnightblue" d="M311.5,-280.08C311.5,-273.01 311.5,-262.86 311.5,-253.99"/>
<polygon fill="midnightblue" stroke="midnightblue" points="315,-253.75 311.5,-243.75 308,-253.75 315,-253.75"/>
</g>
<!-- Node3 -->
<g id="node3" class="node">
<title>Node3</title>
<g id="a_node3"><a xlink:title=" ">
<polygon fill="none" stroke="#bfbfbf" points="0,-168.5 0,-187.5 103,-187.5 103,-168.5 0,-168.5"/>
<text text-anchor="middle" x="51.5" y="-175.5" font-family="Helvetica,sans-Serif" font-size="10.00">Adafruit_Sensor.h</text>
</a>
</g>
</g>
<!-- Node2&#45;&gt;Node3 -->
<g id="edge2" class="edge">
<title>Node2&#45;&gt;Node3</title>
<path fill="none" stroke="midnightblue" d="M270.3,-224.44C224.85,-215 151.66,-199.8 102.59,-189.61"/>
<polygon fill="midnightblue" stroke="midnightblue" points="103.01,-186.12 92.51,-187.52 101.58,-192.98 103.01,-186.12"/>
</g>
<!-- Node4 -->
<g id="node4" class="node">
<title>Node4</title>
<g id="a_node4"><a xlink:title=" ">
<polygon fill="none" stroke="#bfbfbf" points="121.5,-168.5 121.5,-187.5 235.5,-187.5 235.5,-168.5 121.5,-168.5"/>
<text text-anchor="middle" x="178.5" y="-175.5" font-family="Helvetica,sans-Serif" font-size="10.00">SensirionI2cScd4x.h</text>
</a>
</g>
</g>
<!-- Node2&#45;&gt;Node4 -->
<g id="edge3" class="edge">
<title>Node2&#45;&gt;Node4</title>
<path fill="none" stroke="midnightblue" d="M290.43,-224.44C268.44,-215.52 233.77,-201.44 208.84,-191.32"/>
<polygon fill="midnightblue" stroke="midnightblue" points="210.06,-188.04 199.48,-187.52 207.42,-194.52 210.06,-188.04"/>
</g>
<!-- Node5 -->
<g id="node5" class="node">
<title>Node5</title>
<g id="a_node5"><a xlink:title=" ">
<polygon fill="none" stroke="#bfbfbf" points="253.5,-168.5 253.5,-187.5 301.5,-187.5 301.5,-168.5 253.5,-168.5"/>
<text text-anchor="middle" x="277.5" y="-175.5" font-family="Helvetica,sans-Serif" font-size="10.00">Wire.h</text>
</a>
</g>
</g>
<!-- Node2&#45;&gt;Node5 -->
<g id="edge4" class="edge">
<title>Node2&#45;&gt;Node5</title>
<path fill="none" stroke="midnightblue" d="M305.89,-224.08C301.13,-216.53 294.18,-205.49 288.35,-196.23"/>
<polygon fill="midnightblue" stroke="midnightblue" points="291.3,-194.35 283.01,-187.75 285.38,-198.08 291.3,-194.35"/>
</g>
<!-- Node6 -->
<g id="node6" class="node">
<title>Node6</title>
<g id="a_node6"><a xlink:title=" ">
<polygon fill="none" stroke="#bfbfbf" points="320,-168.5 320,-187.5 373,-187.5 373,-168.5 320,-168.5"/>
<text text-anchor="middle" x="346.5" y="-175.5" font-family="Helvetica,sans-Serif" font-size="10.00">string.h</text>
</a>
</g>
</g>
<!-- Node2&#45;&gt;Node6 -->
<g id="edge5" class="edge">
<title>Node2&#45;&gt;Node6</title>
<path fill="none" stroke="midnightblue" d="M317.28,-224.08C322.17,-216.53 329.33,-205.49 335.33,-196.23"/>
<polygon fill="midnightblue" stroke="midnightblue" points="338.33,-198.05 340.83,-187.75 332.45,-194.24 338.33,-198.05"/>
</g>
<!-- Node7 -->
<g id="node7" class="node">
<title>Node7</title>
<g id="a_node7"><a xlink:href="PayloadConfig_8h.html" target="_top" xlink:title="Central location for pinout and config defines.">
<polygon fill="none" stroke="black" points="391.5,-168.5 391.5,-187.5 487.5,-187.5 487.5,-168.5 391.5,-168.5"/>
<text text-anchor="middle" x="439.5" y="-175.5" font-family="Helvetica,sans-Serif" font-size="10.00">PayloadConfig.h</text>
</a>
</g>
</g>
<!-- Node2&#45;&gt;Node7 -->
<g id="edge6" class="edge">
<title>Node2&#45;&gt;Node7</title>
<path fill="none" stroke="midnightblue" d="M331.78,-224.44C352.85,-215.56 386.02,-201.56 409.99,-191.45"/>
<polygon fill="midnightblue" stroke="midnightblue" points="411.46,-194.63 419.31,-187.52 408.74,-188.18 411.46,-194.63"/>
</g>
<!-- Node8 -->
<g id="node8" class="node">
<title>Node8</title>
<g id="a_node8"><a xlink:href="Sensor_8h.html" target="_top" xlink:title=" ">
<polygon fill="none" stroke="black" points="506,-168.5 506,-187.5 565,-187.5 565,-168.5 506,-168.5"/>
<text text-anchor="middle" x="535.5" y="-175.5" font-family="Helvetica,sans-Serif" font-size="10.00">Sensor.h</text>
</a>
</g>
</g>
<!-- Node2&#45;&gt;Node8 -->
<g id="edge7" class="edge">
<title>Node2&#45;&gt;Node8</title>
<path fill="none" stroke="midnightblue" d="M346.99,-224.44C387.57,-214.66 453.79,-198.7 495.98,-188.53"/>
<polygon fill="midnightblue" stroke="midnightblue" points="496.99,-191.88 505.9,-186.14 495.35,-185.08 496.99,-191.88"/>
</g>
<!-- Node9 -->
<g id="node9" class="node">
<title>Node9</title>
<g id="a_node9"><a xlink:title=" ">
<polygon fill="none" stroke="#bfbfbf" points="494,-0.5 494,-19.5 557,-19.5 557,-0.5 494,-0.5"/>
<text text-anchor="middle" x="525.5" y="-7.5" font-family="Helvetica,sans-Serif" font-size="10.00">Arduino.h</text>
</a>
</g>
</g>
<!-- Node8&#45;&gt;Node9 -->
<g id="edge8" class="edge">
<title>Node8&#45;&gt;Node9</title>
<path fill="none" stroke="midnightblue" d="M524.79,-168.3C515.56,-160.07 502.91,-146.79 497.5,-132 484.47,-96.39 502.56,-52.6 515.16,-28.67"/>
<polygon fill="midnightblue" stroke="midnightblue" points="518.34,-30.16 520.12,-19.72 512.21,-26.77 518.34,-30.16"/>
</g>
<!-- Node10 -->
<g id="node10" class="node">
<title>Node10</title>
<g id="a_node10"><a xlink:href="Device_8h.html" target="_top" xlink:title=" ">
<polygon fill="none" stroke="black" points="506,-112.5 506,-131.5 565,-131.5 565,-112.5 506,-112.5"/>
<text text-anchor="middle" x="535.5" y="-119.5" font-family="Helvetica,sans-Serif" font-size="10.00">Device.h</text>
</a>
</g>
</g>
<!-- Node8&#45;&gt;Node10 -->
<g id="edge9" class="edge">
<title>Node8&#45;&gt;Node10</title>
<path fill="none" stroke="midnightblue" d="M535.5,-168.08C535.5,-161.01 535.5,-150.86 535.5,-141.99"/>
<polygon fill="midnightblue" stroke="midnightblue" points="539,-141.75 535.5,-131.75 532,-141.75 539,-141.75"/>
</g>
<!-- Node11 -->
<g id="node11" class="node">
<title>Node11</title>
<g id="a_node11"><a xlink:href="Logger_8h.html" target="_top" xlink:title=" ">
<polygon fill="none" stroke="black" points="554,-56.5 554,-75.5 613,-75.5 613,-56.5 554,-56.5"/>
<text text-anchor="middle" x="583.5" y="-63.5" font-family="Helvetica,sans-Serif" font-size="10.00">Logger.h</text>
</a>
</g>
</g>
<!-- Node8&#45;&gt;Node11 -->
<g id="edge13" class="edge">
<title>Node8&#45;&gt;Node11</title>
<path fill="none" stroke="midnightblue" d="M545.65,-168.49C554.81,-160.18 567.84,-146.69 574.5,-132 581.05,-117.56 583.14,-99.6 583.68,-86.22"/>
<polygon fill="midnightblue" stroke="midnightblue" points="587.19,-85.9 583.83,-75.85 580.19,-85.8 587.19,-85.9"/>
</g>
<!-- Node10&#45;&gt;Node9 -->
<g id="edge10" class="edge">
<title>Node10&#45;&gt;Node9</title>
<path fill="none" stroke="midnightblue" d="M534.72,-112.37C533.1,-94.62 529.38,-53.67 527.19,-29.6"/>
<polygon fill="midnightblue" stroke="midnightblue" points="530.67,-29.23 526.28,-19.59 523.7,-29.87 530.67,-29.23"/>
</g>
<!-- Node10&#45;&gt;Node11 -->
<g id="edge11" class="edge">
<title>Node10&#45;&gt;Node11</title>
<path fill="none" stroke="midnightblue" d="M543.43,-112.08C550.35,-104.3 560.57,-92.8 568.95,-83.37"/>
<polygon fill="midnightblue" stroke="midnightblue" points="571.69,-85.55 575.72,-75.75 566.46,-80.9 571.69,-85.55"/>
</g>
<!-- Node11&#45;&gt;Node9 -->
<g id="edge12" class="edge">
<title>Node11&#45;&gt;Node9</title>
<path fill="none" stroke="midnightblue" d="M574.18,-56.32C565.61,-48.34 552.69,-36.31 542.31,-26.65"/>
<polygon fill="midnightblue" stroke="midnightblue" points="544.69,-24.09 534.99,-19.83 539.92,-29.21 544.69,-24.09"/>
</g>
</g>
</svg>
