<?xml version="1.0" encoding="UTF-8" standalone="no"?>
<!DOCTYPE svg PUBLIC "-//W3C//DTD SVG 1.1//EN"
 "http://www.w3.org/Graphics/SVG/1.1/DTD/svg11.dtd">
<!-- Generated by graphviz version 2.43.0 (0)
 -->
<!-- Title: SDStorage.cpp Pages: 1 -->
<svg width="504pt" height="308pt"
 viewBox="0.00 0.00 503.50 308.00" xmlns="http://www.w3.org/2000/svg" xmlns:xlink="http://www.w3.org/1999/xlink">
<g id="graph0" class="graph" transform="scale(1 1) rotate(0) translate(4 304)">
<title>SDStorage.cpp</title>
<!-- Node1 -->
<g id="node1" class="node">
<title>Node1</title>
<g id="a_node1"><a xlink:title=" ">
<polygon fill="#bfbfbf" stroke="black" points="158,-280.5 158,-299.5 246,-299.5 246,-280.5 158,-280.5"/>
<text text-anchor="middle" x="202" y="-287.5" font-family="Helvetica,sans-Serif" font-size="10.00">SDStorage.cpp</text>
</a>
</g>
</g>
<!-- Node2 -->
<g id="node2" class="node">
<title>Node2</title>
<g id="a_node2"><a xlink:href="SDStorage_8h.html" target="_top" xlink:title=" ">
<polygon fill="none" stroke="black" points="163.5,-224.5 163.5,-243.5 240.5,-243.5 240.5,-224.5 163.5,-224.5"/>
<text text-anchor="middle" x="202" y="-231.5" font-family="Helvetica,sans-Serif" font-size="10.00">SDStorage.h</text>
</a>
</g>
</g>
<!-- Node1&#45;&gt;Node2 -->
<g id="edge1" class="edge">
<title>Node1&#45;&gt;Node2</title>
<path fill="none" stroke="midnightblue" d="M202,-280.08C202,-273.01 202,-262.86 202,-253.99"/>
<polygon fill="midnightblue" stroke="midnightblue" points="205.5,-253.75 202,-243.75 198.5,-253.75 205.5,-253.75"/>
</g>
<!-- Node3 -->
<g id="node3" class="node">
<title>Node3</title>
<g id="a_node3"><a xlink:href="ErrorDisplay_8h.html" target="_top" xlink:title=" ">
<polygon fill="none" stroke="black" points="120,-168.5 120,-187.5 204,-187.5 204,-168.5 120,-168.5"/>
<text text-anchor="middle" x="162" y="-175.5" font-family="Helvetica,sans-Serif" font-size="10.00">ErrorDisplay.h</text>
</a>
</g>
</g>
<!-- Node2&#45;&gt;Node3 -->
<g id="edge2" class="edge">
<title>Node2&#45;&gt;Node3</title>
<path fill="none" stroke="midnightblue" d="M195.39,-224.08C189.74,-216.46 181.46,-205.26 174.55,-195.94"/>
<polygon fill="midnightblue" stroke="midnightblue" points="177.25,-193.7 168.48,-187.75 171.62,-197.87 177.25,-193.7"/>
</g>
<!-- Node5 -->
<g id="node5" class="node">
<title>Node5</title>
<g id="a_node5"><a xlink:href="PayloadConfig_8h.html" target="_top" xlink:title="Central location for pinout and config defines.">
<polygon fill="none" stroke="black" points="0,-112.5 0,-131.5 96,-131.5 96,-112.5 0,-112.5"/>
<text text-anchor="middle" x="48" y="-119.5" font-family="Helvetica,sans-Serif" font-size="10.00">PayloadConfig.h</text>
</a>
</g>
</g>
<!-- Node2&#45;&gt;Node5 -->
<g id="edge7" class="edge">
<title>Node2&#45;&gt;Node5</title>
<path fill="none" stroke="midnightblue" d="M179.48,-224.41C160.3,-216.52 132.5,-203.68 111,-188 91.86,-174.04 73.42,-153.99 61.49,-139.86"/>
<polygon fill="midnightblue" stroke="midnightblue" points="64.02,-137.42 54.96,-131.93 58.62,-141.87 64.02,-137.42"/>
</g>
<!-- Node8 -->
<g id="node8" class="node">
<title>Node8</title>
<g id="a_node8"><a xlink:title=" ">
<polygon fill="none" stroke="#bfbfbf" points="222.5,-168.5 222.5,-187.5 261.5,-187.5 261.5,-168.5 222.5,-168.5"/>
<text text-anchor="middle" x="242" y="-175.5" font-family="Helvetica,sans-Serif" font-size="10.00">SD.h</text>
</a>
</g>
</g>
<!-- Node2&#45;&gt;Node8 -->
<g id="edge8" class="edge">
<title>Node2&#45;&gt;Node8</title>
<path fill="none" stroke="midnightblue" d="M208.61,-224.08C214.26,-216.46 222.54,-205.26 229.45,-195.94"/>
<polygon fill="midnightblue" stroke="midnightblue" points="232.38,-197.87 235.52,-187.75 226.75,-193.7 232.38,-197.87"/>
</g>
<!-- Node9 -->
<g id="node9" class="node">
<title>Node9</title>
<g id="a_node9"><a xlink:href="Storage_8h.html" target="_top" xlink:title=" ">
<polygon fill="none" stroke="black" points="367.5,-168.5 367.5,-187.5 430.5,-187.5 430.5,-168.5 367.5,-168.5"/>
<text text-anchor="middle" x="399" y="-175.5" font-family="Helvetica,sans-Serif" font-size="10.00">Storage.h</text>
</a>
</g>
</g>
<!-- Node2&#45;&gt;Node9 -->
<g id="edge9" class="edge">
<title>Node2&#45;&gt;Node9</title>
<path fill="none" stroke="midnightblue" d="M233.22,-224.44C266.93,-215.2 320.8,-200.44 357.93,-190.26"/>
<polygon fill="midnightblue" stroke="midnightblue" points="359.21,-193.54 367.93,-187.52 357.36,-186.78 359.21,-193.54"/>
</g>
<!-- Node4 -->
<g id="node4" class="node">
<title>Node4</title>
<g id="a_node4"><a xlink:title=" ">
<polygon fill="none" stroke="#bfbfbf" points="357.5,-0.5 357.5,-19.5 420.5,-19.5 420.5,-0.5 357.5,-0.5"/>
<text text-anchor="middle" x="389" y="-7.5" font-family="Helvetica,sans-Serif" font-size="10.00">Arduino.h</text>
</a>
</g>
</g>
<!-- Node3&#45;&gt;Node4 -->
<g id="edge3" class="edge">
<title>Node3&#45;&gt;Node4</title>
<path fill="none" stroke="midnightblue" d="M155.17,-168.3C145.71,-155.13 131.08,-129.77 143,-112 188.74,-43.77 289.73,-21.59 347.08,-14.41"/>
<polygon fill="midnightblue" stroke="midnightblue" points="347.72,-17.86 357.25,-13.24 346.92,-10.91 347.72,-17.86"/>
</g>
<!-- Node3&#45;&gt;Node5 -->
<g id="edge4" class="edge">
<title>Node3&#45;&gt;Node5</title>
<path fill="none" stroke="midnightblue" d="M143.94,-168.44C125.43,-159.68 96.42,-145.94 75.14,-135.86"/>
<polygon fill="midnightblue" stroke="midnightblue" points="76.51,-132.63 65.98,-131.52 73.52,-138.96 76.51,-132.63"/>
</g>
<!-- Node6 -->
<g id="node6" class="node">
<title>Node6</title>
<g id="a_node6"><a xlink:title=" ">
<polygon fill="none" stroke="#bfbfbf" points="152.5,-112.5 152.5,-131.5 247.5,-131.5 247.5,-112.5 152.5,-112.5"/>
<text text-anchor="middle" x="200" y="-119.5" font-family="Helvetica,sans-Serif" font-size="10.00">pico/multicore.h</text>
</a>
</g>
</g>
<!-- Node3&#45;&gt;Node6 -->
<g id="edge5" class="edge">
<title>Node3&#45;&gt;Node6</title>
<path fill="none" stroke="midnightblue" d="M168.27,-168.08C173.64,-160.46 181.52,-149.26 188.08,-139.94"/>
<polygon fill="midnightblue" stroke="midnightblue" points="190.95,-141.94 193.84,-131.75 185.22,-137.91 190.95,-141.94"/>
</g>
<!-- Node7 -->
<g id="node7" class="node">
<title>Node7</title>
<g id="a_node7"><a xlink:title=" ">
<polygon fill="none" stroke="#bfbfbf" points="266,-112.5 266,-131.5 342,-131.5 342,-112.5 266,-112.5"/>
<text text-anchor="middle" x="304" y="-119.5" font-family="Helvetica,sans-Serif" font-size="10.00">pico/stdlib.h</text>
</a>
</g>
</g>
<!-- Node3&#45;&gt;Node7 -->
<g id="edge6" class="edge">
<title>Node3&#45;&gt;Node7</title>
<path fill="none" stroke="midnightblue" d="M184.5,-168.44C208.08,-159.48 245.32,-145.31 271.96,-135.18"/>
<polygon fill="midnightblue" stroke="midnightblue" points="273.5,-138.34 281.6,-131.52 271.01,-131.8 273.5,-138.34"/>
</g>
<!-- Node9&#45;&gt;Node4 -->
<g id="edge10" class="edge">
<title>Node9&#45;&gt;Node4</title>
<path fill="none" stroke="midnightblue" d="M396.79,-168.45C394.58,-159.45 391.32,-144.84 390,-132 386.28,-95.9 387.12,-53.43 388.07,-29.62"/>
<polygon fill="midnightblue" stroke="midnightblue" points="391.57,-29.69 388.52,-19.54 384.57,-29.37 391.57,-29.69"/>
</g>
<!-- Node10 -->
<g id="node10" class="node">
<title>Node10</title>
<g id="a_node10"><a xlink:href="Device_8h.html" target="_top" xlink:title=" ">
<polygon fill="none" stroke="black" points="398.5,-112.5 398.5,-131.5 457.5,-131.5 457.5,-112.5 398.5,-112.5"/>
<text text-anchor="middle" x="428" y="-119.5" font-family="Helvetica,sans-Serif" font-size="10.00">Device.h</text>
</a>
</g>
</g>
<!-- Node9&#45;&gt;Node10 -->
<g id="edge11" class="edge">
<title>Node9&#45;&gt;Node10</title>
<path fill="none" stroke="midnightblue" d="M403.79,-168.08C407.76,-160.69 413.53,-149.95 418.43,-140.81"/>
<polygon fill="midnightblue" stroke="midnightblue" points="421.65,-142.22 423.3,-131.75 415.49,-138.91 421.65,-142.22"/>
</g>
<!-- Node11 -->
<g id="node11" class="node">
<title>Node11</title>
<g id="a_node11"><a xlink:href="Logger_8h.html" target="_top" xlink:title=" ">
<polygon fill="none" stroke="black" points="436.5,-56.5 436.5,-75.5 495.5,-75.5 495.5,-56.5 436.5,-56.5"/>
<text text-anchor="middle" x="466" y="-63.5" font-family="Helvetica,sans-Serif" font-size="10.00">Logger.h</text>
</a>
</g>
</g>
<!-- Node9&#45;&gt;Node11 -->
<g id="edge15" class="edge">
<title>Node9&#45;&gt;Node11</title>
<path fill="none" stroke="midnightblue" d="M422.45,-168.41C438.16,-161.28 457.62,-149.46 467,-132 474.6,-117.86 473.45,-99.38 470.92,-85.74"/>
<polygon fill="midnightblue" stroke="midnightblue" points="474.25,-84.6 468.64,-75.62 467.43,-86.14 474.25,-84.6"/>
</g>
<!-- Node10&#45;&gt;Node4 -->
<g id="edge12" class="edge">
<title>Node10&#45;&gt;Node4</title>
<path fill="none" stroke="midnightblue" d="M424.94,-112.37C418.62,-94.54 404,-53.3 395.48,-29.27"/>
<polygon fill="midnightblue" stroke="midnightblue" points="398.69,-27.85 392.05,-19.59 392.09,-30.19 398.69,-27.85"/>
</g>
<!-- Node10&#45;&gt;Node11 -->
<g id="edge13" class="edge">
<title>Node10&#45;&gt;Node11</title>
<path fill="none" stroke="midnightblue" d="M434.27,-112.08C439.64,-104.46 447.52,-93.26 454.08,-83.94"/>
<polygon fill="midnightblue" stroke="midnightblue" points="456.95,-85.94 459.84,-75.75 451.22,-81.91 456.95,-85.94"/>
</g>
<!-- Node11&#45;&gt;Node4 -->
<g id="edge14" class="edge">
<title>Node11&#45;&gt;Node4</title>
<path fill="none" stroke="midnightblue" d="M453.63,-56.32C441.84,-48.06 423.87,-35.45 409.86,-25.63"/>
<polygon fill="midnightblue" stroke="midnightblue" points="411.54,-22.53 401.34,-19.65 407.52,-28.26 411.54,-22.53"/>
</g>
</g>
</svg>
