<?xml version="1.0" encoding="UTF-8" standalone="no"?>
<!DOCTYPE svg PUBLIC "-//W3C//DTD SVG 1.1//EN"
 "http://www.w3.org/Graphics/SVG/1.1/DTD/svg11.dtd">
<!-- Generated by graphviz version 2.43.0 (0)
 -->
<!-- Title: SDStorage.cpp Pages: 1 -->
<svg width="502pt" height="302pt"
 viewBox="0.00 0.00 501.50 302.00" xmlns="http://www.w3.org/2000/svg" xmlns:xlink="http://www.w3.org/1999/xlink">
<g id="graph0" class="graph" transform="scale(1 1) rotate(0) translate(4 298)">
<title>SDStorage.cpp</title>
<!-- Node1 -->
<g id="Node000001" class="node">
<title>Node1</title>
<g id="a_Node000001"><a xlink:title=" ">
<polygon fill="#999999" stroke="#666666" points="245.5,-294 157.5,-294 157.5,-275 245.5,-275 245.5,-294"/>
<text text-anchor="middle" x="201.5" y="-282" font-family="Helvetica,sans-Serif" font-size="10.00">SDStorage.cpp</text>
</a>
</g>
</g>
<!-- Node2 -->
<g id="Node000002" class="node">
<title>Node2</title>
<g id="a_Node000002"><a xlink:href="SDStorage_8h.html" target="_top" xlink:title=" ">
<polygon fill="white" stroke="#666666" points="240,-239 163,-239 163,-220 240,-220 240,-239"/>
<text text-anchor="middle" x="201.5" y="-227" font-family="Helvetica,sans-Serif" font-size="10.00">SDStorage.h</text>
</a>
</g>
</g>
<!-- Node1&#45;&gt;Node2 -->
<g id="edge1_Node000001_Node000002" class="edge">
<title>Node1&#45;&gt;Node2</title>
<g id="a_edge1_Node000001_Node000002"><a xlink:title=" ">
<path fill="none" stroke="#63b8ff" d="M201.5,-274.75C201.5,-267.8 201.5,-257.85 201.5,-249.13"/>
<polygon fill="#63b8ff" stroke="#63b8ff" points="205,-249.09 201.5,-239.09 198,-249.09 205,-249.09"/>
</a>
</g>
</g>
<!-- Node3 -->
<g id="Node000003" class="node">
<title>Node3</title>
<g id="a_Node000003"><a xlink:href="ErrorDisplay_8h.html" target="_top" xlink:title=" ">
<polygon fill="white" stroke="#666666" points="203.5,-184 119.5,-184 119.5,-165 203.5,-165 203.5,-184"/>
<text text-anchor="middle" x="161.5" y="-172" font-family="Helvetica,sans-Serif" font-size="10.00">ErrorDisplay.h</text>
</a>
</g>
</g>
<!-- Node2&#45;&gt;Node3 -->
<g id="edge2_Node000002_Node000003" class="edge">
<title>Node2&#45;&gt;Node3</title>
<g id="a_edge2_Node000002_Node000003"><a xlink:title=" ">
<path fill="none" stroke="#63b8ff" d="M194.89,-219.75C189.24,-212.26 180.96,-201.28 174.05,-192.13"/>
<polygon fill="#63b8ff" stroke="#63b8ff" points="176.8,-189.96 167.98,-184.09 171.21,-194.18 176.8,-189.96"/>
</a>
</g>
</g>
<!-- Node5 -->
<g id="Node000005" class="node">
<title>Node5</title>
<g id="a_Node000005"><a xlink:href="PayloadConfig_8h.html" target="_top" xlink:title="Central location for pinout and config defines.">
<polygon fill="white" stroke="#666666" points="95,-129 0,-129 0,-110 95,-110 95,-129"/>
<text text-anchor="middle" x="47.5" y="-117" font-family="Helvetica,sans-Serif" font-size="10.00">PayloadConfig.h</text>
</a>
</g>
</g>
<!-- Node2&#45;&gt;Node5 -->
<g id="edge7_Node000002_Node000005" class="edge">
<title>Node2&#45;&gt;Node5</title>
<g id="a_edge7_Node000002_Node000005"><a xlink:title=" ">
<path fill="none" stroke="#63b8ff" d="M179.02,-219.99C159.86,-212.18 132.08,-199.47 110.5,-184 91.48,-170.36 73.02,-150.77 61.05,-136.97"/>
<polygon fill="#63b8ff" stroke="#63b8ff" points="63.63,-134.59 54.49,-129.22 58.28,-139.11 63.63,-134.59"/>
</a>
</g>
</g>
<!-- Node8 -->
<g id="Node000008" class="node">
<title>Node8</title>
<g id="a_Node000008"><a xlink:title=" ">
<polygon fill="#e0e0e0" stroke="#999999" points="261,-184 222,-184 222,-165 261,-165 261,-184"/>
<text text-anchor="middle" x="241.5" y="-172" font-family="Helvetica,sans-Serif" font-size="10.00">SD.h</text>
</a>
</g>
</g>
<!-- Node2&#45;&gt;Node8 -->
<g id="edge8_Node000002_Node000008" class="edge">
<title>Node2&#45;&gt;Node8</title>
<g id="a_edge8_Node000002_Node000008"><a xlink:title=" ">
<path fill="none" stroke="#63b8ff" d="M208.11,-219.75C213.76,-212.26 222.04,-201.28 228.95,-192.13"/>
<polygon fill="#63b8ff" stroke="#63b8ff" points="231.79,-194.18 235.02,-184.09 226.2,-189.96 231.79,-194.18"/>
</a>
</g>
</g>
<!-- Node9 -->
<g id="Node000009" class="node">
<title>Node9</title>
<g id="a_Node000009"><a xlink:href="Storage_8h.html" target="_top" xlink:title=" ">
<polygon fill="white" stroke="#666666" points="430,-184 367,-184 367,-165 430,-165 430,-184"/>
<text text-anchor="middle" x="398.5" y="-172" font-family="Helvetica,sans-Serif" font-size="10.00">Storage.h</text>
</a>
</g>
</g>
<!-- Node2&#45;&gt;Node9 -->
<g id="edge9_Node000002_Node000009" class="edge">
<title>Node2&#45;&gt;Node9</title>
<g id="a_edge9_Node000002_Node000009"><a xlink:title=" ">
<path fill="none" stroke="#63b8ff" d="M233.15,-219.98C266.75,-210.94 320.01,-196.62 356.97,-186.67"/>
<polygon fill="#63b8ff" stroke="#63b8ff" points="358.18,-189.97 366.93,-183.99 356.36,-183.21 358.18,-189.97"/>
</a>
</g>
</g>
<!-- Node4 -->
<g id="Node000004" class="node">
<title>Node4</title>
<g id="a_Node000004"><a xlink:title=" ">
<polygon fill="#e0e0e0" stroke="#999999" points="420,-19 357,-19 357,0 420,0 420,-19"/>
<text text-anchor="middle" x="388.5" y="-7" font-family="Helvetica,sans-Serif" font-size="10.00">Arduino.h</text>
</a>
</g>
</g>
<!-- Node3&#45;&gt;Node4 -->
<g id="edge3_Node000003_Node000004" class="edge">
<title>Node3&#45;&gt;Node4</title>
<g id="a_edge3_Node000003_Node000004"><a xlink:title=" ">
<path fill="none" stroke="#63b8ff" d="M154.41,-164.57C145.02,-151.59 130.92,-127.17 142.5,-110 188.32,-42.04 289.28,-20.48 346.6,-13.65"/>
<polygon fill="#63b8ff" stroke="#63b8ff" points="347.21,-17.11 356.77,-12.54 346.45,-10.15 347.21,-17.11"/>
</a>
</g>
</g>
<!-- Node3&#45;&gt;Node5 -->
<g id="edge4_Node000003_Node000005" class="edge">
<title>Node3&#45;&gt;Node5</title>
<g id="a_edge4_Node000003_Node000005"><a xlink:title=" ">
<path fill="none" stroke="#63b8ff" d="M143.18,-164.98C124.84,-156.46 96.39,-143.23 75.27,-133.41"/>
<polygon fill="#63b8ff" stroke="#63b8ff" points="76.69,-130.21 66.15,-129.17 73.74,-136.56 76.69,-130.21"/>
</a>
</g>
</g>
<!-- Node6 -->
<g id="Node000006" class="node">
<title>Node6</title>
<g id="a_Node000006"><a xlink:title=" ">
<polygon fill="#e0e0e0" stroke="#999999" points="247,-129 152,-129 152,-110 247,-110 247,-129"/>
<text text-anchor="middle" x="199.5" y="-117" font-family="Helvetica,sans-Serif" font-size="10.00">pico/multicore.h</text>
</a>
</g>
</g>
<!-- Node3&#45;&gt;Node6 -->
<g id="edge5_Node000003_Node000006" class="edge">
<title>Node3&#45;&gt;Node6</title>
<g id="a_edge5_Node000003_Node000006"><a xlink:title=" ">
<path fill="none" stroke="#63b8ff" d="M167.77,-164.75C173.09,-157.34 180.86,-146.5 187.38,-137.41"/>
<polygon fill="#63b8ff" stroke="#63b8ff" points="190.36,-139.26 193.34,-129.09 184.67,-135.18 190.36,-139.26"/>
</a>
</g>
</g>
<!-- Node7 -->
<g id="Node000007" class="node">
<title>Node7</title>
<g id="a_Node000007"><a xlink:title=" ">
<polygon fill="#e0e0e0" stroke="#999999" points="341.5,-129 265.5,-129 265.5,-110 341.5,-110 341.5,-129"/>
<text text-anchor="middle" x="303.5" y="-117" font-family="Helvetica,sans-Serif" font-size="10.00">pico/stdlib.h</text>
</a>
</g>
</g>
<!-- Node3&#45;&gt;Node7 -->
<g id="edge6_Node000003_Node000007" class="edge">
<title>Node3&#45;&gt;Node7</title>
<g id="a_edge6_Node000003_Node000007"><a xlink:title=" ">
<path fill="none" stroke="#63b8ff" d="M184.31,-164.98C207.67,-156.27 244.2,-142.63 270.67,-132.75"/>
<polygon fill="#63b8ff" stroke="#63b8ff" points="272.13,-135.95 280.27,-129.17 269.68,-129.39 272.13,-135.95"/>
</a>
</g>
</g>
<!-- Node9&#45;&gt;Node4 -->
<g id="edge10_Node000009_Node000004" class="edge">
<title>Node9&#45;&gt;Node4</title>
<g id="a_edge10_Node000009_Node000004"><a xlink:title=" ">
<path fill="none" stroke="#63b8ff" d="M396.2,-164.71C394,-155.79 390.81,-141.54 389.5,-129 385.85,-93.99 386.63,-52.85 387.55,-29.41"/>
<polygon fill="#63b8ff" stroke="#63b8ff" points="391.06,-29.3 388.01,-19.16 384.07,-28.99 391.06,-29.3"/>
</a>
</g>
</g>
<!-- Node10 -->
<g id="Node000010" class="node">
<title>Node10</title>
<g id="a_Node000010"><a xlink:href="Device_8h.html" target="_top" xlink:title=" ">
<polygon fill="white" stroke="#666666" points="457,-129 398,-129 398,-110 457,-110 457,-129"/>
<text text-anchor="middle" x="427.5" y="-117" font-family="Helvetica,sans-Serif" font-size="10.00">Device.h</text>
</a>
</g>
</g>
<!-- Node9&#45;&gt;Node10 -->
<g id="edge11_Node000009_Node000010" class="edge">
<title>Node9&#45;&gt;Node10</title>
<g id="a_edge11_Node000009_Node000010"><a xlink:title=" ">
<path fill="none" stroke="#63b8ff" d="M403.29,-164.75C407.26,-157.49 413.03,-146.95 417.93,-137.98"/>
<polygon fill="#63b8ff" stroke="#63b8ff" points="421.07,-139.54 422.8,-129.09 414.93,-136.18 421.07,-139.54"/>
</a>
</g>
</g>
<!-- Node11 -->
<g id="Node000011" class="node">
<title>Node11</title>
<g id="a_Node000011"><a xlink:href="Logger_8h.html" target="_top" xlink:title=" ">
<polygon fill="white" stroke="#666666" points="493.5,-74 435.5,-74 435.5,-55 493.5,-55 493.5,-74"/>
<text text-anchor="middle" x="464.5" y="-62" font-family="Helvetica,sans-Serif" font-size="10.00">Logger.h</text>
</a>
</g>
</g>
<!-- Node9&#45;&gt;Node11 -->
<g id="edge15_Node000009_Node000011" class="edge">
<title>Node9&#45;&gt;Node11</title>
<g id="a_edge15_Node000009_Node000011"><a xlink:title=" ">
<path fill="none" stroke="#63b8ff" d="M422.28,-164.92C437.93,-157.89 457.17,-146.25 466.5,-129 473.88,-115.36 472.55,-97.54 469.85,-84.25"/>
<polygon fill="#63b8ff" stroke="#63b8ff" points="473.2,-83.23 467.42,-74.35 466.4,-84.89 473.2,-83.23"/>
</a>
</g>
</g>
<!-- Node10&#45;&gt;Node4 -->
<g id="edge12_Node000010_Node000004" class="edge">
<title>Node10&#45;&gt;Node4</title>
<g id="a_edge12_Node000010_Node000004"><a xlink:title=" ">
<path fill="none" stroke="#63b8ff" d="M424.31,-109.66C417.93,-92.01 403.52,-52.09 395.05,-28.64"/>
<polygon fill="#63b8ff" stroke="#63b8ff" points="398.32,-27.38 391.63,-19.16 391.73,-29.75 398.32,-27.38"/>
</a>
</g>
</g>
<!-- Node10&#45;&gt;Node11 -->
<g id="edge13_Node000010_Node000011" class="edge">
<title>Node10&#45;&gt;Node11</title>
<g id="a_edge13_Node000010_Node000011"><a xlink:title=" ">
<path fill="none" stroke="#63b8ff" d="M433.61,-109.75C438.78,-102.34 446.35,-91.5 452.69,-82.41"/>
<polygon fill="#63b8ff" stroke="#63b8ff" points="455.65,-84.29 458.5,-74.09 449.91,-80.29 455.65,-84.29"/>
</a>
</g>
</g>
<!-- Node11&#45;&gt;Node4 -->
<g id="edge14_Node000011_Node000004" class="edge">
<title>Node11&#45;&gt;Node4</title>
<g id="a_edge14_Node000011_Node000004"><a xlink:title=" ">
<path fill="none" stroke="#63b8ff" d="M452.29,-54.98C440.72,-46.92 423.12,-34.65 409.34,-25.03"/>
<polygon fill="#63b8ff" stroke="#63b8ff" points="411.14,-22.02 400.93,-19.17 407.13,-27.76 411.14,-22.02"/>
</a>
</g>
</g>
</g>
</svg>
