<?xml version="1.0" encoding="UTF-8" standalone="no"?>
<!DOCTYPE svg PUBLIC "-//W3C//DTD SVG 1.1//EN"
 "http://www.w3.org/Graphics/SVG/1.1/DTD/svg11.dtd">
<!-- Generated by graphviz version 2.43.0 (0)
 -->
<!-- Title: Sensor.h Pages: 1 -->
<svg width="2079pt" height="137pt"
 viewBox="0.00 0.00 2078.50 137.00" xmlns="http://www.w3.org/2000/svg" xmlns:xlink="http://www.w3.org/1999/xlink">
<g id="graph0" class="graph" transform="scale(1 1) rotate(0) translate(4 133)">
<title>Sensor.h</title>
<!-- Node1 -->
<g id="Node000001" class="node">
<title>Node1</title>
<g id="a_Node000001"><a xlink:title=" ">
<polygon fill="#999999" stroke="#666666" points="1059,-129 1001,-129 1001,-110 1059,-110 1059,-129"/>
<text text-anchor="middle" x="1030" y="-117" font-family="Helvetica,sans-Serif" font-size="10.00">Sensor.h</text>
</a>
</g>
</g>
<!-- Node2 -->
<g id="Node000002" class="node">
<title>Node2</title>
<g id="a_Node000002"><a xlink:href="AS7331Sensor_8h.html" target="_top" xlink:title=" ">
<polygon fill="white" stroke="#666666" points="221.5,-74 126.5,-74 126.5,-55 221.5,-55 221.5,-74"/>
<text text-anchor="middle" x="174" y="-62" font-family="Helvetica,sans-Serif" font-size="10.00">AS7331Sensor.h</text>
</a>
</g>
</g>
<!-- Node1&#45;&gt;Node2 -->
<g id="edge1_Node000001_Node000002" class="edge">
<title>Node1&#45;&gt;Node2</title>
<g id="a_edge1_Node000001_Node000002"><a xlink:title=" ">
<path fill="none" stroke="#63b8ff" d="M990.71,-117.6C874.41,-114.65 521.84,-103.72 231,-74 227.91,-73.68 224.74,-73.32 221.54,-72.93"/>
<polygon fill="#63b8ff" stroke="#63b8ff" points="990.82,-121.1 1000.9,-117.85 990.99,-114.1 990.82,-121.1"/>
</a>
</g>
</g>
<!-- Node4 -->
<g id="Node000004" class="node">
<title>Node4</title>
<g id="a_Node000004"><a xlink:href="main_8cpp.html" target="_top" xlink:title="Main functions for Core 0, responsible for reading data from sensor peripherals.">
<polygon fill="white" stroke="#666666" points="697,-19 635,-19 635,0 697,0 697,-19"/>
<text text-anchor="middle" x="666" y="-7" font-family="Helvetica,sans-Serif" font-size="10.00">main.cpp</text>
</a>
</g>
</g>
<!-- Node1&#45;&gt;Node4 -->
<g id="edge43_Node000001_Node000004" class="edge">
<title>Node1&#45;&gt;Node4</title>
<g id="a_edge43_Node000001_Node000004"><a xlink:title=" ">
<path fill="none" stroke="#63b8ff" d="M990.39,-115.41C920.73,-109.51 779.43,-95.29 735,-74 707.69,-60.92 683.64,-33.32 672.53,-19.21"/>
<polygon fill="#63b8ff" stroke="#63b8ff" points="990.28,-118.92 1000.53,-116.26 990.86,-111.94 990.28,-118.92"/>
</a>
</g>
</g>
<!-- Node5 -->
<g id="Node000005" class="node">
<title>Node5</title>
<g id="a_Node000005"><a xlink:href="BME280Sensor_8h.html" target="_top" xlink:title=" ">
<polygon fill="white" stroke="#666666" points="1425,-74 1327,-74 1327,-55 1425,-55 1425,-74"/>
<text text-anchor="middle" x="1376" y="-62" font-family="Helvetica,sans-Serif" font-size="10.00">BME280Sensor.h</text>
</a>
</g>
</g>
<!-- Node1&#45;&gt;Node5 -->
<g id="edge4_Node000001_Node000005" class="edge">
<title>Node1&#45;&gt;Node5</title>
<g id="a_edge4_Node000001_Node000005"><a xlink:title=" ">
<path fill="none" stroke="#63b8ff" d="M1069.2,-112.5C1132.58,-102.79 1257.46,-83.66 1326.76,-73.04"/>
<polygon fill="#63b8ff" stroke="#63b8ff" points="1068.56,-109.05 1059.2,-114.03 1069.62,-115.97 1068.56,-109.05"/>
</a>
</g>
</g>
<!-- Node7 -->
<g id="Node000007" class="node">
<title>Node7</title>
<g id="a_Node000007"><a xlink:href="BME680Sensor_8h.html" target="_top" xlink:title=" ">
<polygon fill="white" stroke="#666666" points="1555,-74 1457,-74 1457,-55 1555,-55 1555,-74"/>
<text text-anchor="middle" x="1506" y="-62" font-family="Helvetica,sans-Serif" font-size="10.00">BME680Sensor.h</text>
</a>
</g>
</g>
<!-- Node1&#45;&gt;Node7 -->
<g id="edge6_Node000001_Node000007" class="edge">
<title>Node1&#45;&gt;Node7</title>
<g id="a_edge6_Node000001_Node000007"><a xlink:title=" ">
<path fill="none" stroke="#63b8ff" d="M1069.44,-114.26C1141.74,-106.46 1300.36,-89.25 1434,-74 1441.38,-73.16 1449.18,-72.25 1456.82,-71.36"/>
<polygon fill="#63b8ff" stroke="#63b8ff" points="1068.98,-110.79 1059.41,-115.34 1069.73,-117.75 1068.98,-110.79"/>
</a>
</g>
</g>
<!-- Node9 -->
<g id="Node000009" class="node">
<title>Node9</title>
<g id="a_Node000009"><a xlink:href="BMP390Sensor_8h.html" target="_top" xlink:title=" ">
<polygon fill="white" stroke="#666666" points="338,-74 240,-74 240,-55 338,-55 338,-74"/>
<text text-anchor="middle" x="289" y="-62" font-family="Helvetica,sans-Serif" font-size="10.00">BMP390Sensor.h</text>
</a>
</g>
</g>
<!-- Node1&#45;&gt;Node9 -->
<g id="edge8_Node000001_Node000009" class="edge">
<title>Node1&#45;&gt;Node9</title>
<g id="a_edge8_Node000001_Node000009"><a xlink:title=" ">
<path fill="none" stroke="#63b8ff" d="M990.87,-117.05C886.21,-112.95 591.2,-99.81 347,-74 344.07,-73.69 341.05,-73.34 338.01,-72.97"/>
<polygon fill="#63b8ff" stroke="#63b8ff" points="990.84,-120.56 1000.97,-117.45 991.11,-113.56 990.84,-120.56"/>
</a>
</g>
</g>
<!-- Node11 -->
<g id="Node000011" class="node">
<title>Node11</title>
<g id="a_Node000011"><a xlink:href="DS3231Sensor_8h.html" target="_top" xlink:title=" ">
<polygon fill="white" stroke="#666666" points="1680.5,-74 1585.5,-74 1585.5,-55 1680.5,-55 1680.5,-74"/>
<text text-anchor="middle" x="1633" y="-62" font-family="Helvetica,sans-Serif" font-size="10.00">DS3231Sensor.h</text>
</a>
</g>
</g>
<!-- Node1&#45;&gt;Node11 -->
<g id="edge11_Node000001_Node000011" class="edge">
<title>Node1&#45;&gt;Node11</title>
<g id="a_edge11_Node000001_Node000011"><a xlink:title=" ">
<path fill="none" stroke="#63b8ff" d="M1069.39,-115.75C1157.91,-109.46 1379.26,-93.07 1564,-74 1570.84,-73.29 1578.06,-72.48 1585.14,-71.64"/>
<polygon fill="#63b8ff" stroke="#63b8ff" points="1069,-112.27 1059.27,-116.47 1069.49,-119.25 1069,-112.27"/>
</a>
</g>
</g>
<!-- Node13 -->
<g id="Node000013" class="node">
<title>Node13</title>
<g id="a_Node000013"><a xlink:href="ENS160Sensor_8h.html" target="_top" xlink:title=" ">
<polygon fill="white" stroke="#666666" points="451.5,-74 356.5,-74 356.5,-55 451.5,-55 451.5,-74"/>
<text text-anchor="middle" x="404" y="-62" font-family="Helvetica,sans-Serif" font-size="10.00">ENS160Sensor.h</text>
</a>
</g>
</g>
<!-- Node1&#45;&gt;Node13 -->
<g id="edge13_Node000001_Node000013" class="edge">
<title>Node1&#45;&gt;Node13</title>
<g id="a_edge13_Node000001_Node000013"><a xlink:title=" ">
<path fill="none" stroke="#63b8ff" d="M990.83,-116.43C898.28,-111.31 658.93,-96.83 460,-74 457.26,-73.69 454.46,-73.34 451.63,-72.97"/>
<polygon fill="#63b8ff" stroke="#63b8ff" points="990.69,-119.92 1000.86,-116.98 991.07,-112.93 990.69,-119.92"/>
</a>
</g>
</g>
<!-- Node15 -->
<g id="Node000015" class="node">
<title>Node15</title>
<g id="a_Node000015"><a xlink:href="ICM20948Sensor_8h.html" target="_top" xlink:title=" ">
<polygon fill="white" stroke="#666666" points="576.5,-74 469.5,-74 469.5,-55 576.5,-55 576.5,-74"/>
<text text-anchor="middle" x="523" y="-62" font-family="Helvetica,sans-Serif" font-size="10.00">ICM20948Sensor.h</text>
</a>
</g>
</g>
<!-- Node1&#45;&gt;Node15 -->
<g id="edge16_Node000001_Node000015" class="edge">
<title>Node1&#45;&gt;Node15</title>
<g id="a_edge16_Node000001_Node000015"><a xlink:title=" ">
<path fill="none" stroke="#63b8ff" d="M990.52,-115.04C912.79,-108.12 734.49,-91.72 585,-74 582.3,-73.68 579.54,-73.34 576.75,-72.99"/>
<polygon fill="#63b8ff" stroke="#63b8ff" points="990.53,-118.56 1000.8,-115.95 991.15,-111.58 990.53,-118.56"/>
</a>
</g>
</g>
<!-- Node17 -->
<g id="Node000017" class="node">
<title>Node17</title>
<g id="a_Node000017"><a xlink:href="INA260Sensor_8h.html" target="_top" xlink:title=" ">
<polygon fill="white" stroke="#666666" points="687.5,-74 594.5,-74 594.5,-55 687.5,-55 687.5,-74"/>
<text text-anchor="middle" x="641" y="-62" font-family="Helvetica,sans-Serif" font-size="10.00">INA260Sensor.h</text>
</a>
</g>
</g>
<!-- Node1&#45;&gt;Node17 -->
<g id="edge19_Node000001_Node000017" class="edge">
<title>Node1&#45;&gt;Node17</title>
<g id="a_edge19_Node000001_Node000017"><a xlink:title=" ">
<path fill="none" stroke="#63b8ff" d="M990.53,-113.19C928.92,-104.89 806.14,-88.32 702,-74 697.34,-73.36 692.48,-72.69 687.62,-72.01"/>
<polygon fill="#63b8ff" stroke="#63b8ff" points="990.22,-116.68 1000.59,-114.55 991.15,-109.74 990.22,-116.68"/>
</a>
</g>
</g>
<!-- Node19 -->
<g id="Node000019" class="node">
<title>Node19</title>
<g id="a_Node000019"><a xlink:href="LSM9DS1Sensor_8h.html" target="_top" xlink:title=" ">
<polygon fill="white" stroke="#666666" points="1815,-74 1711,-74 1711,-55 1815,-55 1815,-74"/>
<text text-anchor="middle" x="1763" y="-62" font-family="Helvetica,sans-Serif" font-size="10.00">LSM9DS1Sensor.h</text>
</a>
</g>
</g>
<!-- Node1&#45;&gt;Node19 -->
<g id="edge22_Node000001_Node000019" class="edge">
<title>Node1&#45;&gt;Node19</title>
<g id="a_edge22_Node000001_Node000019"><a xlink:title=" ">
<path fill="none" stroke="#63b8ff" d="M1069.45,-116.48C1171.83,-111.11 1454.35,-95.39 1689,-74 1696.08,-73.35 1703.54,-72.59 1710.88,-71.8"/>
<polygon fill="#63b8ff" stroke="#63b8ff" points="1069.07,-113 1059.27,-117.01 1069.44,-119.99 1069.07,-113"/>
</a>
</g>
</g>
<!-- Node21 -->
<g id="Node000021" class="node">
<title>Node21</title>
<g id="a_Node000021"><a xlink:href="MTK3339Sensor_8h.html" target="_top" xlink:title=" ">
<polygon fill="white" stroke="#666666" points="848,-74 744,-74 744,-55 848,-55 848,-74"/>
<text text-anchor="middle" x="796" y="-62" font-family="Helvetica,sans-Serif" font-size="10.00">MTK3339Sensor.h</text>
</a>
</g>
</g>
<!-- Node1&#45;&gt;Node21 -->
<g id="edge24_Node000001_Node000021" class="edge">
<title>Node1&#45;&gt;Node21</title>
<g id="a_edge24_Node000001_Node000021"><a xlink:title=" ">
<path fill="none" stroke="#63b8ff" d="M990.86,-109.63C947.12,-99.73 876.8,-83.8 833.67,-74.03"/>
<polygon fill="#63b8ff" stroke="#63b8ff" points="990.31,-113.1 1000.84,-111.89 991.86,-106.27 990.31,-113.1"/>
</a>
</g>
</g>
<!-- Node23 -->
<g id="Node000023" class="node">
<title>Node23</title>
<g id="a_Node000023"><a xlink:href="PCF8523Sensor_8h.html" target="_top" xlink:title=" ">
<polygon fill="white" stroke="#666666" points="967.5,-74 866.5,-74 866.5,-55 967.5,-55 967.5,-74"/>
<text text-anchor="middle" x="917" y="-62" font-family="Helvetica,sans-Serif" font-size="10.00">PCF8523Sensor.h</text>
</a>
</g>
</g>
<!-- Node1&#45;&gt;Node23 -->
<g id="edge27_Node000001_Node000023" class="edge">
<title>Node1&#45;&gt;Node23</title>
<g id="a_edge27_Node000001_Node000023"><a xlink:title=" ">
<path fill="none" stroke="#63b8ff" d="M1002.57,-105.63C981.75,-95.87 953.7,-82.71 935.49,-74.17"/>
<polygon fill="#63b8ff" stroke="#63b8ff" points="1001.3,-108.91 1011.84,-109.98 1004.28,-102.57 1001.3,-108.91"/>
</a>
</g>
</g>
<!-- Node25 -->
<g id="Node000025" class="node">
<title>Node25</title>
<g id="a_Node000025"><a xlink:href="SCD40Sensor_8h.html" target="_top" xlink:title=" ">
<polygon fill="white" stroke="#666666" points="1934,-74 1844,-74 1844,-55 1934,-55 1934,-74"/>
<text text-anchor="middle" x="1889" y="-62" font-family="Helvetica,sans-Serif" font-size="10.00">SCD40Sensor.h</text>
</a>
</g>
</g>
<!-- Node1&#45;&gt;Node25 -->
<g id="edge30_Node000001_Node000025" class="edge">
<title>Node1&#45;&gt;Node25</title>
<g id="a_edge30_Node000001_Node000025"><a xlink:title=" ">
<path fill="none" stroke="#63b8ff" d="M1069.42,-117.32C1185.34,-113.64 1535.06,-100.95 1824,-74 1830.46,-73.4 1837.26,-72.64 1843.94,-71.83"/>
<polygon fill="#63b8ff" stroke="#63b8ff" points="1069.14,-113.83 1059.26,-117.64 1069.36,-120.83 1069.14,-113.83"/>
</a>
</g>
</g>
<!-- Node27 -->
<g id="Node000027" class="node">
<title>Node27</title>
<g id="a_Node000027"><a xlink:href="SGP30Sensor_8h.html" target="_top" xlink:title=" ">
<polygon fill="white" stroke="#666666" points="2052.5,-74 1963.5,-74 1963.5,-55 2052.5,-55 2052.5,-74"/>
<text text-anchor="middle" x="2008" y="-62" font-family="Helvetica,sans-Serif" font-size="10.00">SGP30Sensor.h</text>
</a>
</g>
</g>
<!-- Node1&#45;&gt;Node27 -->
<g id="edge32_Node000001_Node000027" class="edge">
<title>Node1&#45;&gt;Node27</title>
<g id="a_edge32_Node000001_Node000027"><a xlink:title=" ">
<path fill="none" stroke="#63b8ff" d="M1069.24,-117.73C1195.94,-114.99 1605.54,-104.24 1943,-74 1949.57,-73.41 1956.51,-72.65 1963.3,-71.83"/>
<polygon fill="#63b8ff" stroke="#63b8ff" points="1069.15,-114.23 1059.23,-117.94 1069.3,-121.23 1069.15,-114.23"/>
</a>
</g>
</g>
<!-- Node29 -->
<g id="Node000029" class="node">
<title>Node29</title>
<g id="a_Node000029"><a xlink:href="SHTC3Sensor_8h.html" target="_top" xlink:title=" ">
<polygon fill="white" stroke="#666666" points="1074.5,-74 985.5,-74 985.5,-55 1074.5,-55 1074.5,-74"/>
<text text-anchor="middle" x="1030" y="-62" font-family="Helvetica,sans-Serif" font-size="10.00">SHTC3Sensor.h</text>
</a>
</g>
</g>
<!-- Node1&#45;&gt;Node29 -->
<g id="edge34_Node000001_Node000029" class="edge">
<title>Node1&#45;&gt;Node29</title>
<g id="a_edge34_Node000001_Node000029"><a xlink:title=" ">
<path fill="none" stroke="#63b8ff" d="M1030,-99.66C1030,-90.93 1030,-80.99 1030,-74.09"/>
<polygon fill="#63b8ff" stroke="#63b8ff" points="1026.5,-99.75 1030,-109.75 1033.5,-99.75 1026.5,-99.75"/>
</a>
</g>
</g>
<!-- Node31 -->
<g id="Node000031" class="node">
<title>Node31</title>
<g id="a_Node000031"><a xlink:href="TMP117Sensor_8h.html" target="_top" xlink:title=" ">
<polygon fill="white" stroke="#666666" points="1189.5,-74 1092.5,-74 1092.5,-55 1189.5,-55 1189.5,-74"/>
<text text-anchor="middle" x="1141" y="-62" font-family="Helvetica,sans-Serif" font-size="10.00">TMP117Sensor.h</text>
</a>
</g>
</g>
<!-- Node1&#45;&gt;Node31 -->
<g id="edge37_Node000001_Node000031" class="edge">
<title>Node1&#45;&gt;Node31</title>
<g id="a_edge37_Node000001_Node000031"><a xlink:title=" ">
<path fill="none" stroke="#63b8ff" d="M1056.95,-105.63C1077.39,-95.87 1104.95,-82.71 1122.84,-74.17"/>
<polygon fill="#63b8ff" stroke="#63b8ff" points="1055.35,-102.52 1047.83,-109.98 1058.37,-108.83 1055.35,-102.52"/>
</a>
</g>
</g>
<!-- Node33 -->
<g id="Node000033" class="node">
<title>Node33</title>
<g id="a_Node000033"><a xlink:href="TempSensor_8h.html" target="_top" xlink:title=" ">
<polygon fill="white" stroke="#666666" points="1292,-74 1208,-74 1208,-55 1292,-55 1292,-74"/>
<text text-anchor="middle" x="1250" y="-62" font-family="Helvetica,sans-Serif" font-size="10.00">TempSensor.h</text>
</a>
</g>
</g>
<!-- Node1&#45;&gt;Node33 -->
<g id="edge40_Node000001_Node000033" class="edge">
<title>Node1&#45;&gt;Node33</title>
<g id="a_edge40_Node000001_Node000033"><a xlink:title=" ">
<path fill="none" stroke="#63b8ff" d="M1069.17,-109.06C1110.38,-99.14 1174.68,-83.65 1214.47,-74.06"/>
<polygon fill="#63b8ff" stroke="#63b8ff" points="1068.12,-105.72 1059.21,-111.46 1069.76,-112.52 1068.12,-105.72"/>
</a>
</g>
</g>
<!-- Node3 -->
<g id="Node000003" class="node">
<title>Node3</title>
<g id="a_Node000003"><a xlink:href="AS7331Sensor_8cpp.html" target="_top" xlink:title=" ">
<polygon fill="white" stroke="#666666" points="106,-19 0,-19 0,0 106,0 106,-19"/>
<text text-anchor="middle" x="53" y="-7" font-family="Helvetica,sans-Serif" font-size="10.00">AS7331Sensor.cpp</text>
</a>
</g>
</g>
<!-- Node2&#45;&gt;Node3 -->
<g id="edge2_Node000002_Node000003" class="edge">
<title>Node2&#45;&gt;Node3</title>
<g id="a_edge2_Node000002_Node000003"><a xlink:title=" ">
<path fill="none" stroke="#63b8ff" d="M145.23,-50.9C122.88,-41.11 92.48,-27.79 72.79,-19.17"/>
<polygon fill="#63b8ff" stroke="#63b8ff" points="144,-54.18 154.56,-54.98 146.8,-47.77 144,-54.18"/>
</a>
</g>
</g>
<!-- Node2&#45;&gt;Node4 -->
<g id="edge3_Node000002_Node000004" class="edge">
<title>Node2&#45;&gt;Node4</title>
<g id="a_edge3_Node000002_Node000004"><a xlink:title=" ">
<path fill="none" stroke="#63b8ff" d="M231.68,-55C407.77,-34.4 454.93,-44.88 626,-19 628.81,-18.58 631.71,-18.08 634.62,-17.54"/>
<polygon fill="#63b8ff" stroke="#63b8ff" points="231.08,-51.55 221.56,-56.2 231.9,-58.5 231.08,-51.55"/>
</a>
</g>
</g>
<!-- Node6 -->
<g id="Node000006" class="node">
<title>Node6</title>
<g id="a_Node000006"><a xlink:href="BME280Sensor_8cpp.html" target="_top" xlink:title=" ">
<polygon fill="white" stroke="#666666" points="1447.5,-19 1338.5,-19 1338.5,0 1447.5,0 1447.5,-19"/>
<text text-anchor="middle" x="1393" y="-7" font-family="Helvetica,sans-Serif" font-size="10.00">BME280Sensor.cpp</text>
</a>
</g>
</g>
<!-- Node5&#45;&gt;Node6 -->
<g id="edge5_Node000005_Node000006" class="edge">
<title>Node5&#45;&gt;Node6</title>
<g id="a_edge5_Node000005_Node000006"><a xlink:title=" ">
<path fill="none" stroke="#63b8ff" d="M1381.95,-44.95C1384.77,-36.15 1388.01,-26.06 1390.25,-19.09"/>
<polygon fill="#63b8ff" stroke="#63b8ff" points="1378.53,-44.16 1378.81,-54.75 1385.19,-46.29 1378.53,-44.16"/>
</a>
</g>
</g>
<!-- Node8 -->
<g id="Node000008" class="node">
<title>Node8</title>
<g id="a_Node000008"><a xlink:href="BME680Sensor_8cpp.html" target="_top" xlink:title=" ">
<polygon fill="white" stroke="#666666" points="1574.5,-19 1465.5,-19 1465.5,0 1574.5,0 1574.5,-19"/>
<text text-anchor="middle" x="1520" y="-7" font-family="Helvetica,sans-Serif" font-size="10.00">BME680Sensor.cpp</text>
</a>
</g>
</g>
<!-- Node7&#45;&gt;Node8 -->
<g id="edge7_Node000007_Node000008" class="edge">
<title>Node7&#45;&gt;Node8</title>
<g id="a_edge7_Node000007_Node000008"><a xlink:title=" ">
<path fill="none" stroke="#63b8ff" d="M1510.9,-44.95C1513.22,-36.15 1515.89,-26.06 1517.73,-19.09"/>
<polygon fill="#63b8ff" stroke="#63b8ff" points="1507.48,-44.19 1508.31,-54.75 1514.25,-45.97 1507.48,-44.19"/>
</a>
</g>
</g>
<!-- Node9&#45;&gt;Node4 -->
<g id="edge10_Node000009_Node000004" class="edge">
<title>Node9&#45;&gt;Node4</title>
<g id="a_edge10_Node000009_Node000004"><a xlink:title=" ">
<path fill="none" stroke="#63b8ff" d="M347.96,-54.9C472.54,-38.03 505.88,-39.48 626,-19 628.8,-18.52 631.7,-17.99 634.6,-17.42"/>
<polygon fill="#63b8ff" stroke="#63b8ff" points="347.47,-51.43 338.04,-56.25 348.42,-58.37 347.47,-51.43"/>
</a>
</g>
</g>
<!-- Node10 -->
<g id="Node000010" class="node">
<title>Node10</title>
<g id="a_Node000010"><a xlink:href="BMP390Sensor_8cpp.html" target="_top" xlink:title=" ">
<polygon fill="white" stroke="#666666" points="233.5,-19 124.5,-19 124.5,0 233.5,0 233.5,-19"/>
<text text-anchor="middle" x="179" y="-7" font-family="Helvetica,sans-Serif" font-size="10.00">BMP390Sensor.cpp</text>
</a>
</g>
</g>
<!-- Node9&#45;&gt;Node10 -->
<g id="edge9_Node000009_Node000010" class="edge">
<title>Node9&#45;&gt;Node10</title>
<g id="a_edge9_Node000009_Node000010"><a xlink:title=" ">
<path fill="none" stroke="#63b8ff" d="M262.3,-50.63C242.03,-40.87 214.73,-27.71 196.99,-19.17"/>
<polygon fill="#63b8ff" stroke="#63b8ff" points="260.8,-53.8 271.33,-54.98 263.84,-47.49 260.8,-53.8"/>
</a>
</g>
</g>
<!-- Node12 -->
<g id="Node000012" class="node">
<title>Node12</title>
<g id="a_Node000012"><a xlink:href="DS3231Sensor_8cpp.html" target="_top" xlink:title=" ">
<polygon fill="white" stroke="#666666" points="1699.5,-19 1592.5,-19 1592.5,0 1699.5,0 1699.5,-19"/>
<text text-anchor="middle" x="1646" y="-7" font-family="Helvetica,sans-Serif" font-size="10.00">DS3231Sensor.cpp</text>
</a>
</g>
</g>
<!-- Node11&#45;&gt;Node12 -->
<g id="edge12_Node000011_Node000012" class="edge">
<title>Node11&#45;&gt;Node12</title>
<g id="a_edge12_Node000011_Node000012"><a xlink:title=" ">
<path fill="none" stroke="#63b8ff" d="M1637.55,-44.95C1639.71,-36.15 1642.18,-26.06 1643.89,-19.09"/>
<polygon fill="#63b8ff" stroke="#63b8ff" points="1634.13,-44.2 1635.15,-54.75 1640.93,-45.87 1634.13,-44.2"/>
</a>
</g>
</g>
<!-- Node13&#45;&gt;Node4 -->
<g id="edge15_Node000013_Node000004" class="edge">
<title>Node13&#45;&gt;Node4</title>
<g id="a_edge15_Node000013_Node000004"><a xlink:title=" ">
<path fill="none" stroke="#63b8ff" d="M457.25,-53C502.25,-44.09 568.38,-30.9 626,-19 628.92,-18.4 631.96,-17.76 635,-17.12"/>
<polygon fill="#63b8ff" stroke="#63b8ff" points="456.55,-49.58 447.42,-54.95 457.91,-56.44 456.55,-49.58"/>
</a>
</g>
</g>
<!-- Node14 -->
<g id="Node000014" class="node">
<title>Node14</title>
<g id="a_Node000014"><a xlink:href="ENS160Sensor_8cpp.html" target="_top" xlink:title=" ">
<polygon fill="white" stroke="#666666" points="358.5,-19 251.5,-19 251.5,0 358.5,0 358.5,-19"/>
<text text-anchor="middle" x="305" y="-7" font-family="Helvetica,sans-Serif" font-size="10.00">ENS160Sensor.cpp</text>
</a>
</g>
</g>
<!-- Node13&#45;&gt;Node14 -->
<g id="edge14_Node000013_Node000014" class="edge">
<title>Node13&#45;&gt;Node14</title>
<g id="a_edge14_Node000013_Node000014"><a xlink:title=" ">
<path fill="none" stroke="#63b8ff" d="M379.22,-50.23C361.06,-40.51 336.94,-27.6 321.2,-19.17"/>
<polygon fill="#63b8ff" stroke="#63b8ff" points="377.63,-53.35 388.09,-54.98 380.93,-47.18 377.63,-53.35"/>
</a>
</g>
</g>
<!-- Node15&#45;&gt;Node4 -->
<g id="edge18_Node000015_Node000004" class="edge">
<title>Node15&#45;&gt;Node4</title>
<g id="a_edge18_Node000015_Node000004"><a xlink:title=" ">
<path fill="none" stroke="#63b8ff" d="M555.59,-51.42C582.12,-41.59 618.93,-27.95 642.61,-19.17"/>
<polygon fill="#63b8ff" stroke="#63b8ff" points="554.14,-48.23 545.98,-54.98 556.57,-54.79 554.14,-48.23"/>
</a>
</g>
</g>
<!-- Node16 -->
<g id="Node000016" class="node">
<title>Node16</title>
<g id="a_Node000016"><a xlink:href="ICM20948Sensor_8cpp.html" target="_top" xlink:title=" ">
<polygon fill="white" stroke="#666666" points="495,-19 377,-19 377,0 495,0 495,-19"/>
<text text-anchor="middle" x="436" y="-7" font-family="Helvetica,sans-Serif" font-size="10.00">ICM20948Sensor.cpp</text>
</a>
</g>
</g>
<!-- Node15&#45;&gt;Node16 -->
<g id="edge17_Node000015_Node000016" class="edge">
<title>Node15&#45;&gt;Node16</title>
<g id="a_edge17_Node000015_Node000016"><a xlink:title=" ">
<path fill="none" stroke="#63b8ff" d="M500.34,-49.7C484.49,-40.04 463.81,-27.44 450.23,-19.17"/>
<polygon fill="#63b8ff" stroke="#63b8ff" points="498.66,-52.77 509.02,-54.98 502.3,-46.79 498.66,-52.77"/>
</a>
</g>
</g>
<!-- Node17&#45;&gt;Node4 -->
<g id="edge21_Node000017_Node000004" class="edge">
<title>Node17&#45;&gt;Node4</title>
<g id="a_edge21_Node000017_Node000004"><a xlink:title=" ">
<path fill="none" stroke="#63b8ff" d="M649.48,-45.53C653.69,-36.6 658.59,-26.22 661.95,-19.09"/>
<polygon fill="#63b8ff" stroke="#63b8ff" points="646.23,-44.21 645.13,-54.75 652.56,-47.2 646.23,-44.21"/>
</a>
</g>
</g>
<!-- Node18 -->
<g id="Node000018" class="node">
<title>Node18</title>
<g id="a_Node000018"><a xlink:href="INA260Sensor_8cpp.html" target="_top" xlink:title=" ">
<polygon fill="white" stroke="#666666" points="617,-19 513,-19 513,0 617,0 617,-19"/>
<text text-anchor="middle" x="565" y="-7" font-family="Helvetica,sans-Serif" font-size="10.00">INA260Sensor.cpp</text>
</a>
</g>
</g>
<!-- Node17&#45;&gt;Node18 -->
<g id="edge20_Node000017_Node000018" class="edge">
<title>Node17&#45;&gt;Node18</title>
<g id="a_edge20_Node000017_Node000018"><a xlink:title=" ">
<path fill="none" stroke="#63b8ff" d="M620.42,-49.15C606.69,-39.57 589.07,-27.29 577.43,-19.17"/>
<polygon fill="#63b8ff" stroke="#63b8ff" points="618.58,-52.14 628.79,-54.98 622.59,-46.39 618.58,-52.14"/>
</a>
</g>
</g>
<!-- Node20 -->
<g id="Node000020" class="node">
<title>Node20</title>
<g id="a_Node000020"><a xlink:href="LSM9DS1Sensor_8cpp.html" target="_top" xlink:title=" ">
<polygon fill="white" stroke="#666666" points="1832.5,-19 1717.5,-19 1717.5,0 1832.5,0 1832.5,-19"/>
<text text-anchor="middle" x="1775" y="-7" font-family="Helvetica,sans-Serif" font-size="10.00">LSM9DS1Sensor.cpp</text>
</a>
</g>
</g>
<!-- Node19&#45;&gt;Node20 -->
<g id="edge23_Node000019_Node000020" class="edge">
<title>Node19&#45;&gt;Node20</title>
<g id="a_edge23_Node000019_Node000020"><a xlink:title=" ">
<path fill="none" stroke="#63b8ff" d="M1767.2,-44.95C1769.19,-36.15 1771.48,-26.06 1773.06,-19.09"/>
<polygon fill="#63b8ff" stroke="#63b8ff" points="1763.78,-44.22 1764.98,-54.75 1770.6,-45.77 1763.78,-44.22"/>
</a>
</g>
</g>
<!-- Node21&#45;&gt;Node4 -->
<g id="edge26_Node000021_Node000004" class="edge">
<title>Node21&#45;&gt;Node4</title>
<g id="a_edge26_Node000021_Node000004"><a xlink:title=" ">
<path fill="none" stroke="#63b8ff" d="M765.73,-51.16C741.66,-41.35 708.6,-27.87 687.27,-19.17"/>
<polygon fill="#63b8ff" stroke="#63b8ff" points="764.53,-54.45 775.11,-54.98 767.17,-47.97 764.53,-54.45"/>
</a>
</g>
</g>
<!-- Node22 -->
<g id="Node000022" class="node">
<title>Node22</title>
<g id="a_Node000022"><a xlink:href="MTK3339Sensor_8cpp.html" target="_top" xlink:title=" ">
<polygon fill="white" stroke="#666666" points="830.5,-19 715.5,-19 715.5,0 830.5,0 830.5,-19"/>
<text text-anchor="middle" x="773" y="-7" font-family="Helvetica,sans-Serif" font-size="10.00">MTK3339Sensor.cpp</text>
</a>
</g>
</g>
<!-- Node21&#45;&gt;Node22 -->
<g id="edge25_Node000021_Node000022" class="edge">
<title>Node21&#45;&gt;Node22</title>
<g id="a_edge25_Node000021_Node000022"><a xlink:title=" ">
<path fill="none" stroke="#63b8ff" d="M788.2,-45.53C784.32,-36.6 779.82,-26.22 776.73,-19.09"/>
<polygon fill="#63b8ff" stroke="#63b8ff" points="785.01,-46.97 792.2,-54.75 791.43,-44.18 785.01,-46.97"/>
</a>
</g>
</g>
<!-- Node23&#45;&gt;Node4 -->
<g id="edge29_Node000023_Node000004" class="edge">
<title>Node23&#45;&gt;Node4</title>
<g id="a_edge29_Node000023_Node000004"><a xlink:title=" ">
<path fill="none" stroke="#63b8ff" d="M866.67,-52.91C823.92,-43.91 760.93,-30.63 706,-19 703.08,-18.38 700.05,-17.74 697.01,-17.09"/>
<polygon fill="#63b8ff" stroke="#63b8ff" points="866.04,-56.35 876.55,-54.99 867.48,-49.5 866.04,-56.35"/>
</a>
</g>
</g>
<!-- Node24 -->
<g id="Node000024" class="node">
<title>Node24</title>
<g id="a_Node000024"><a xlink:href="PCF8523Sensor_8cpp.html" target="_top" xlink:title=" ">
<polygon fill="white" stroke="#666666" points="961,-19 849,-19 849,0 961,0 961,-19"/>
<text text-anchor="middle" x="905" y="-7" font-family="Helvetica,sans-Serif" font-size="10.00">PCF8523Sensor.cpp</text>
</a>
</g>
</g>
<!-- Node23&#45;&gt;Node24 -->
<g id="edge28_Node000023_Node000024" class="edge">
<title>Node23&#45;&gt;Node24</title>
<g id="a_edge28_Node000023_Node000024"><a xlink:title=" ">
<path fill="none" stroke="#63b8ff" d="M912.8,-44.95C910.81,-36.15 908.52,-26.06 906.94,-19.09"/>
<polygon fill="#63b8ff" stroke="#63b8ff" points="909.4,-45.77 915.02,-54.75 916.22,-44.22 909.4,-45.77"/>
</a>
</g>
</g>
<!-- Node26 -->
<g id="Node000026" class="node">
<title>Node26</title>
<g id="a_Node000026"><a xlink:href="SCD40Sensor_8cpp.html" target="_top" xlink:title=" ">
<polygon fill="white" stroke="#666666" points="1951.5,-19 1850.5,-19 1850.5,0 1951.5,0 1951.5,-19"/>
<text text-anchor="middle" x="1901" y="-7" font-family="Helvetica,sans-Serif" font-size="10.00">SCD40Sensor.cpp</text>
</a>
</g>
</g>
<!-- Node25&#45;&gt;Node26 -->
<g id="edge31_Node000025_Node000026" class="edge">
<title>Node25&#45;&gt;Node26</title>
<g id="a_edge31_Node000025_Node000026"><a xlink:title=" ">
<path fill="none" stroke="#63b8ff" d="M1893.2,-44.95C1895.19,-36.15 1897.48,-26.06 1899.06,-19.09"/>
<polygon fill="#63b8ff" stroke="#63b8ff" points="1889.78,-44.22 1890.98,-54.75 1896.6,-45.77 1889.78,-44.22"/>
</a>
</g>
</g>
<!-- Node28 -->
<g id="Node000028" class="node">
<title>Node28</title>
<g id="a_Node000028"><a xlink:href="SGP30Sensor_8cpp.html" target="_top" xlink:title=" ">
<polygon fill="white" stroke="#666666" points="2070.5,-19 1969.5,-19 1969.5,0 2070.5,0 2070.5,-19"/>
<text text-anchor="middle" x="2020" y="-7" font-family="Helvetica,sans-Serif" font-size="10.00">SGP30Sensor.cpp</text>
</a>
</g>
</g>
<!-- Node27&#45;&gt;Node28 -->
<g id="edge33_Node000027_Node000028" class="edge">
<title>Node27&#45;&gt;Node28</title>
<g id="a_edge33_Node000027_Node000028"><a xlink:title=" ">
<path fill="none" stroke="#63b8ff" d="M2012.2,-44.95C2014.19,-36.15 2016.48,-26.06 2018.06,-19.09"/>
<polygon fill="#63b8ff" stroke="#63b8ff" points="2008.78,-44.22 2009.98,-54.75 2015.6,-45.77 2008.78,-44.22"/>
</a>
</g>
</g>
<!-- Node29&#45;&gt;Node4 -->
<g id="edge36_Node000029_Node000004" class="edge">
<title>Node29&#45;&gt;Node4</title>
<g id="a_edge36_Node000029_Node000004"><a xlink:title=" ">
<path fill="none" stroke="#63b8ff" d="M975.22,-54.93C854.51,-37.68 822.15,-39.05 706,-19 703.2,-18.52 700.3,-17.98 697.4,-17.41"/>
<polygon fill="#63b8ff" stroke="#63b8ff" points="974.83,-58.41 985.22,-56.37 975.83,-51.48 974.83,-58.41"/>
</a>
</g>
</g>
<!-- Node30 -->
<g id="Node000030" class="node">
<title>Node30</title>
<g id="a_Node000030"><a xlink:href="SHTC3Sensor_8cpp.html" target="_top" xlink:title=" ">
<polygon fill="white" stroke="#666666" points="1080.5,-19 979.5,-19 979.5,0 1080.5,0 1080.5,-19"/>
<text text-anchor="middle" x="1030" y="-7" font-family="Helvetica,sans-Serif" font-size="10.00">SHTC3Sensor.cpp</text>
</a>
</g>
</g>
<!-- Node29&#45;&gt;Node30 -->
<g id="edge35_Node000029_Node000030" class="edge">
<title>Node29&#45;&gt;Node30</title>
<g id="a_edge35_Node000029_Node000030"><a xlink:title=" ">
<path fill="none" stroke="#63b8ff" d="M1030,-44.66C1030,-35.93 1030,-25.99 1030,-19.09"/>
<polygon fill="#63b8ff" stroke="#63b8ff" points="1026.5,-44.75 1030,-54.75 1033.5,-44.75 1026.5,-44.75"/>
</a>
</g>
</g>
<!-- Node31&#45;&gt;Node4 -->
<g id="edge39_Node000031_Node000004" class="edge">
<title>Node31&#45;&gt;Node4</title>
<g id="a_edge39_Node000031_Node000004"><a xlink:title=" ">
<path fill="none" stroke="#63b8ff" d="M1082.36,-54.99C914.2,-35.15 869.2,-44.05 706,-19 703.19,-18.57 700.29,-18.07 697.38,-17.52"/>
<polygon fill="#63b8ff" stroke="#63b8ff" points="1081.94,-58.47 1092.29,-56.18 1082.78,-51.52 1081.94,-58.47"/>
</a>
</g>
</g>
<!-- Node32 -->
<g id="Node000032" class="node">
<title>Node32</title>
<g id="a_Node000032"><a xlink:href="TMP117Sensor_8cpp.html" target="_top" xlink:title=" ">
<polygon fill="white" stroke="#666666" points="1207,-19 1099,-19 1099,0 1207,0 1207,-19"/>
<text text-anchor="middle" x="1153" y="-7" font-family="Helvetica,sans-Serif" font-size="10.00">TMP117Sensor.cpp</text>
</a>
</g>
</g>
<!-- Node31&#45;&gt;Node32 -->
<g id="edge38_Node000031_Node000032" class="edge">
<title>Node31&#45;&gt;Node32</title>
<g id="a_edge38_Node000031_Node000032"><a xlink:title=" ">
<path fill="none" stroke="#63b8ff" d="M1145.2,-44.95C1147.19,-36.15 1149.48,-26.06 1151.06,-19.09"/>
<polygon fill="#63b8ff" stroke="#63b8ff" points="1141.78,-44.22 1142.98,-54.75 1148.6,-45.77 1141.78,-44.22"/>
</a>
</g>
</g>
<!-- Node33&#45;&gt;Node4 -->
<g id="edge42_Node000033_Node000004" class="edge">
<title>Node33&#45;&gt;Node4</title>
<g id="a_edge42_Node000033_Node000004"><a xlink:title=" ">
<path fill="none" stroke="#63b8ff" d="M1197.54,-55.08C978.49,-29.9 919.78,-49.39 706,-19 703.19,-18.6 700.28,-18.12 697.37,-17.59"/>
<polygon fill="#63b8ff" stroke="#63b8ff" points="1197.42,-58.59 1207.76,-56.27 1198.23,-51.64 1197.42,-58.59"/>
</a>
</g>
</g>
<!-- Node34 -->
<g id="Node000034" class="node">
<title>Node34</title>
<g id="a_Node000034"><a xlink:href="TempSensor_8cpp.html" target="_top" xlink:title=" ">
<polygon fill="white" stroke="#666666" points="1320.5,-19 1225.5,-19 1225.5,0 1320.5,0 1320.5,-19"/>
<text text-anchor="middle" x="1273" y="-7" font-family="Helvetica,sans-Serif" font-size="10.00">TempSensor.cpp</text>
</a>
</g>
</g>
<!-- Node33&#45;&gt;Node34 -->
<g id="edge41_Node000033_Node000034" class="edge">
<title>Node33&#45;&gt;Node34</title>
<g id="a_edge41_Node000033_Node000034"><a xlink:title=" ">
<path fill="none" stroke="#63b8ff" d="M1257.8,-45.53C1261.68,-36.6 1266.18,-26.22 1269.27,-19.09"/>
<polygon fill="#63b8ff" stroke="#63b8ff" points="1254.57,-44.18 1253.8,-54.75 1260.99,-46.97 1254.57,-44.18"/>
</a>
</g>
</g>
</g>
</svg>
