<?xml version="1.0" encoding="UTF-8" standalone="no"?>
<!DOCTYPE svg PUBLIC "-//W3C//DTD SVG 1.1//EN"
 "http://www.w3.org/Graphics/SVG/1.1/DTD/svg11.dtd">
<!-- Generated by graphviz version 2.43.0 (0)
 -->
<!-- Title: Sensor.h Pages: 1 -->
<!--zoomable 137 -->

<svg id="main" version="1.1" xmlns="http://www.w3.org/2000/svg" xmlns:xlink="http://www.w3.org/1999/xlink" xml:space="preserve" onload="init(evt)">
<style type="text/css"><![CDATA[
.node, .edge {opacity: 0.7;}
.node.selected, .edge.selected {opacity: 1;}
.edge:hover path { stroke: red; }
.edge:hover polygon { stroke: red; fill: red; }
]]></style>

<defs>
  <circle id="rim" cx="0" cy="0" r="7"/>
  <circle id="rim2" cx="0" cy="0" r="3.5"/>
  <g id="zoomPlus">
    <use xlink:href="#rim" fill="#404040"><set attributeName="fill" to="#808080" begin="zoomplus.mouseover" end="zoomplus.mouseout"/></use>
    <path d="M-4,0h8M0,-4v8" fill="none" stroke="white" stroke-width="1.5" pointer-events="none"/>
  </g>
  <g id="zoomMin">
    <use xlink:href="#rim" fill="#404040"><set attributeName="fill" to="#808080" begin="zoomminus.mouseover" end="zoomminus.mouseout"/></use>
    <path d="M-4,0h8" fill="none" stroke="white" stroke-width="1.5" pointer-events="none"/>
  </g>
  <g id="arrowUp" transform="translate(30 24)">
    <use xlink:href="#rim"/>
    <path pointer-events="none" fill="none" stroke="white" stroke-width="1.5" d="M0,-3.0v7 M-2.5,-0.5L0,-3.0L2.5,-0.5"/>
  </g>
  <g id="arrowRight" transform="rotate(90) translate(36 -43)">
    <use xlink:href="#rim"/>
    <path pointer-events="none" fill="none" stroke="white" stroke-width="1.5" d="M0,-3.0v7 M-2.5,-0.5L0,-3.0L2.5,-0.5"/>
  </g>
  <g id="arrowDown" transform="rotate(180) translate(-30 -48)">
    <use xlink:href="#rim"/>
    <path pointer-events="none" fill="none" stroke="white" stroke-width="1.5" d="M0,-3.0v7 M-2.5,-0.5L0,-3.0L2.5,-0.5"/>
  </g>
  <g id="arrowLeft" transform="rotate(270) translate(-36 17)">
    <use xlink:href="#rim"/>
    <path pointer-events="none" fill="none" stroke="white" stroke-width="1.5" d="M0,-3.0v7 M-2.5,-0.5L0,-3.0L2.5,-0.5"/>
  </g>
  <g id="resetDef">
    <use xlink:href="#rim2" fill="#404040"><set attributeName="fill" to="#808080" begin="reset.mouseover" end="reset.mouseout"/></use>
  </g>
</defs>
<script type="application/ecmascript">
var viewWidth = 2197;
var viewHeight = 137;
var sectionId = 'dynsection-1';
</script>
<script type="application/ecmascript" xlink:href="svg.min.js"/>
<svg id="graph" class="graph">
<g id="viewport">
<title>Sensor.h</title>
<!-- Node1 -->
<g id="Node000001" class="node">
<title>Node1</title>
<g id="a_Node000001"><a xlink:title=" ">
<polygon fill="#999999" stroke="#666666" points="1114,-129 1056,-129 1056,-110 1114,-110 1114,-129"/>
<text text-anchor="middle" x="1085" y="-117" font-family="Helvetica,sans-Serif" font-size="10.00">Sensor.h</text>
</a>
</g>
</g>
<!-- Node2 -->
<g id="Node000002" class="node">
<title>Node2</title>
<g id="a_Node000002"><a xlink:href="AS7331Sensor_8h.html" target="_top" xlink:title=" ">
<polygon fill="white" stroke="#666666" points="225.5,-74 130.5,-74 130.5,-55 225.5,-55 225.5,-74"/>
<text text-anchor="middle" x="178" y="-62" font-family="Helvetica,sans-Serif" font-size="10.00">AS7331Sensor.h</text>
</a>
</g>
</g>
<!-- Node1&#45;&gt;Node2 -->
<g id="edge1_Node000001_Node000002" class="edge">
<title>Node1&#45;&gt;Node2</title>
<g id="a_edge1_Node000001_Node000002"><a xlink:title=" ">
<path fill="none" stroke="#63b8ff" d="M1045.68,-117.78C924.56,-115.27 546.49,-105.31 235,-74 231.91,-73.69 228.74,-73.33 225.54,-72.94"/>
<polygon fill="#63b8ff" stroke="#63b8ff" points="1045.87,-121.28 1055.94,-117.99 1046.01,-114.29 1045.87,-121.28"/>
</a>
</g>
</g>
<!-- Node4 -->
<g id="Node000004" class="node">
<title>Node4</title>
<g id="a_Node000004"><a xlink:href="main_8cpp.html" target="_top" xlink:title="Main functions for Core 0, responsible for reading data from sensor peripherals.">
<polygon fill="white" stroke="#666666" points="831,-19 769,-19 769,0 831,0 831,-19"/>
<text text-anchor="middle" x="800" y="-7" font-family="Helvetica,sans-Serif" font-size="10.00">main.cpp</text>
</a>
</g>
</g>
<!-- Node1&#45;&gt;Node4 -->
<g id="edge47_Node000001_Node000004" class="edge">
<title>Node1&#45;&gt;Node4</title>
<g id="a_edge47_Node000001_Node000004"><a xlink:title=" ">
<path fill="none" stroke="#63b8ff" d="M1045.89,-117.75C999.19,-115.33 920.01,-106.3 861,-74 836.06,-60.35 815.16,-33.01 805.59,-19.08"/>
<polygon fill="#63b8ff" stroke="#63b8ff" points="1045.76,-121.25 1055.91,-118.19 1046.07,-114.25 1045.76,-121.25"/>
</a>
</g>
</g>
<!-- Node5 -->
<g id="Node000005" class="node">
<title>Node5</title>
<g id="a_Node000005"><a xlink:href="BME280Sensor_8h.html" target="_top" xlink:title=" ">
<polygon fill="white" stroke="#666666" points="1656,-74 1558,-74 1558,-55 1656,-55 1656,-74"/>
<text text-anchor="middle" x="1607" y="-62" font-family="Helvetica,sans-Serif" font-size="10.00">BME280Sensor.h</text>
</a>
</g>
</g>
<!-- Node1&#45;&gt;Node5 -->
<g id="edge4_Node000001_Node000005" class="edge">
<title>Node1&#45;&gt;Node5</title>
<g id="a_edge4_Node000001_Node000005"><a xlink:title=" ">
<path fill="none" stroke="#63b8ff" d="M1124.38,-114.5C1218.17,-104.98 1454.63,-80.97 1557.7,-70.51"/>
<polygon fill="#63b8ff" stroke="#63b8ff" points="1123.78,-111.04 1114.18,-115.54 1124.49,-118.01 1123.78,-111.04"/>
</a>
</g>
</g>
<!-- Node7 -->
<g id="Node000007" class="node">
<title>Node7</title>
<g id="a_Node000007"><a xlink:href="BME680Sensor_8h.html" target="_top" xlink:title=" ">
<polygon fill="white" stroke="#666666" points="1791,-74 1693,-74 1693,-55 1791,-55 1791,-74"/>
<text text-anchor="middle" x="1742" y="-62" font-family="Helvetica,sans-Serif" font-size="10.00">BME680Sensor.h</text>
</a>
</g>
</g>
<!-- Node1&#45;&gt;Node7 -->
<g id="edge6_Node000001_Node000007" class="edge">
<title>Node1&#45;&gt;Node7</title>
<g id="a_edge6_Node000001_Node000007"><a xlink:title=" ">
<path fill="none" stroke="#63b8ff" d="M1124.47,-115.93C1218.27,-109.72 1461.92,-92.99 1665,-74 1673.97,-73.16 1683.52,-72.18 1692.73,-71.19"/>
<polygon fill="#63b8ff" stroke="#63b8ff" points="1124.05,-112.45 1114.3,-116.6 1124.51,-119.43 1124.05,-112.45"/>
</a>
</g>
</g>
<!-- Node9 -->
<g id="Node000009" class="node">
<title>Node9</title>
<g id="a_Node000009"><a xlink:href="BMP390Sensor_8h.html" target="_top" xlink:title=" ">
<polygon fill="white" stroke="#666666" points="342,-74 244,-74 244,-55 342,-55 342,-74"/>
<text text-anchor="middle" x="293" y="-62" font-family="Helvetica,sans-Serif" font-size="10.00">BMP390Sensor.h</text>
</a>
</g>
</g>
<!-- Node1&#45;&gt;Node9 -->
<g id="edge8_Node000001_Node000009" class="edge">
<title>Node1&#45;&gt;Node9</title>
<g id="a_edge8_Node000001_Node000009"><a xlink:title=" ">
<path fill="none" stroke="#63b8ff" d="M1045.62,-117.29C935.57,-113.66 615.53,-101.35 351,-74 348.06,-73.7 345.05,-73.35 342.01,-72.98"/>
<polygon fill="#63b8ff" stroke="#63b8ff" points="1045.8,-120.8 1055.9,-117.62 1046.02,-113.8 1045.8,-120.8"/>
</a>
</g>
</g>
<!-- Node11 -->
<g id="Node000011" class="node">
<title>Node11</title>
<g id="a_Node000011"><a xlink:href="DS3231Sensor_8h.html" target="_top" xlink:title=" ">
<polygon fill="white" stroke="#666666" points="1919.5,-74 1824.5,-74 1824.5,-55 1919.5,-55 1919.5,-74"/>
<text text-anchor="middle" x="1872" y="-62" font-family="Helvetica,sans-Serif" font-size="10.00">DS3231Sensor.h</text>
</a>
</g>
</g>
<!-- Node1&#45;&gt;Node11 -->
<g id="edge11_Node000001_Node000011" class="edge">
<title>Node1&#45;&gt;Node11</title>
<g id="a_edge11_Node000001_Node000011"><a xlink:title=" ">
<path fill="none" stroke="#63b8ff" d="M1124.45,-116.81C1232.6,-112.02 1542.86,-97.16 1800,-74 1807.9,-73.29 1816.27,-72.41 1824.4,-71.5"/>
<polygon fill="#63b8ff" stroke="#63b8ff" points="1124.17,-113.32 1114.33,-117.26 1124.47,-120.31 1124.17,-113.32"/>
</a>
</g>
</g>
<!-- Node13 -->
<g id="Node000013" class="node">
<title>Node13</title>
<g id="a_Node000013"><a xlink:href="ENS160Sensor_8h.html" target="_top" xlink:title=" ">
<polygon fill="white" stroke="#666666" points="455.5,-74 360.5,-74 360.5,-55 455.5,-55 455.5,-74"/>
<text text-anchor="middle" x="408" y="-62" font-family="Helvetica,sans-Serif" font-size="10.00">ENS160Sensor.h</text>
</a>
</g>
</g>
<!-- Node1&#45;&gt;Node13 -->
<g id="edge13_Node000001_Node000013" class="edge">
<title>Node1&#45;&gt;Node13</title>
<g id="a_edge13_Node000001_Node000013"><a xlink:title=" ">
<path fill="none" stroke="#63b8ff" d="M1045.76,-116.77C947.53,-112.2 683.21,-98.45 464,-74 461.26,-73.69 458.46,-73.35 455.63,-72.99"/>
<polygon fill="#63b8ff" stroke="#63b8ff" points="1045.68,-120.27 1055.83,-117.23 1046,-113.27 1045.68,-120.27"/>
</a>
</g>
</g>
<!-- Node15 -->
<g id="Node000015" class="node">
<title>Node15</title>
<g id="a_Node000015"><a xlink:href="ICM20948Sensor_8h.html" target="_top" xlink:title=" ">
<polygon fill="white" stroke="#666666" points="580.5,-74 473.5,-74 473.5,-55 580.5,-55 580.5,-74"/>
<text text-anchor="middle" x="527" y="-62" font-family="Helvetica,sans-Serif" font-size="10.00">ICM20948Sensor.h</text>
</a>
</g>
</g>
<!-- Node1&#45;&gt;Node15 -->
<g id="edge16_Node000001_Node000015" class="edge">
<title>Node1&#45;&gt;Node15</title>
<g id="a_edge16_Node000001_Node000015"><a xlink:title=" ">
<path fill="none" stroke="#63b8ff" d="M1045.78,-115.61C961.86,-109.28 758.71,-93.24 589,-74 586.3,-73.69 583.54,-73.37 580.75,-73.03"/>
<polygon fill="#63b8ff" stroke="#63b8ff" points="1045.65,-119.11 1055.88,-116.37 1046.17,-112.13 1045.65,-119.11"/>
</a>
</g>
</g>
<!-- Node17 -->
<g id="Node000017" class="node">
<title>Node17</title>
<g id="a_Node000017"><a xlink:href="INA260Sensor_8h.html" target="_top" xlink:title=" ">
<polygon fill="white" stroke="#666666" points="691.5,-74 598.5,-74 598.5,-55 691.5,-55 691.5,-74"/>
<text text-anchor="middle" x="645" y="-62" font-family="Helvetica,sans-Serif" font-size="10.00">INA260Sensor.h</text>
</a>
</g>
</g>
<!-- Node1&#45;&gt;Node17 -->
<g id="edge19_Node000001_Node000017" class="edge">
<title>Node1&#45;&gt;Node17</title>
<g id="a_edge19_Node000001_Node000017"><a xlink:title=" ">
<path fill="none" stroke="#63b8ff" d="M1045.48,-114.39C975.81,-107.03 826.59,-90.8 701,-74 697.98,-73.6 694.87,-73.16 691.73,-72.72"/>
<polygon fill="#63b8ff" stroke="#63b8ff" points="1045.26,-117.88 1055.57,-115.45 1045.99,-110.92 1045.26,-117.88"/>
</a>
</g>
</g>
<!-- Node19 -->
<g id="Node000019" class="node">
<title>Node19</title>
<g id="a_Node000019"><a xlink:href="LSM9DS1Sensor_8h.html" target="_top" xlink:title=" ">
<polygon fill="white" stroke="#666666" points="2055,-74 1951,-74 1951,-55 2055,-55 2055,-74"/>
<text text-anchor="middle" x="2003" y="-62" font-family="Helvetica,sans-Serif" font-size="10.00">LSM9DS1Sensor.h</text>
</a>
</g>
</g>
<!-- Node1&#45;&gt;Node19 -->
<g id="edge22_Node000001_Node000019" class="edge">
<title>Node1&#45;&gt;Node19</title>
<g id="a_edge22_Node000001_Node000019"><a xlink:title=" ">
<path fill="none" stroke="#63b8ff" d="M1124.37,-117.26C1244.81,-113.3 1618.93,-99.65 1928,-74 1935.44,-73.38 1943.29,-72.62 1950.99,-71.8"/>
<polygon fill="#63b8ff" stroke="#63b8ff" points="1124.04,-113.77 1114.16,-117.6 1124.27,-120.77 1124.04,-113.77"/>
</a>
</g>
</g>
<!-- Node21 -->
<g id="Node000021" class="node">
<title>Node21</title>
<g id="a_Node000021"><a xlink:href="MTK3339Sensor_8h.html" target="_top" xlink:title=" ">
<polygon fill="white" stroke="#666666" points="814,-74 710,-74 710,-55 814,-55 814,-74"/>
<text text-anchor="middle" x="762" y="-62" font-family="Helvetica,sans-Serif" font-size="10.00">MTK3339Sensor.h</text>
</a>
</g>
</g>
<!-- Node1&#45;&gt;Node21 -->
<g id="edge24_Node000001_Node000021" class="edge">
<title>Node1&#45;&gt;Node21</title>
<g id="a_edge24_Node000001_Node000021"><a xlink:title=" ">
<path fill="none" stroke="#63b8ff" d="M1045.87,-112.08C987.75,-102.54 878.53,-84.62 813.83,-74"/>
<polygon fill="#63b8ff" stroke="#63b8ff" points="1045.33,-115.54 1055.77,-113.7 1046.46,-108.63 1045.33,-115.54"/>
</a>
</g>
</g>
<!-- Node23 -->
<g id="Node000023" class="node">
<title>Node23</title>
<g id="a_Node000023"><a xlink:href="OzoneSensor_8h.html" target="_top" xlink:title=" ">
<polygon fill="white" stroke="#666666" points="959.5,-74 870.5,-74 870.5,-55 959.5,-55 959.5,-74"/>
<text text-anchor="middle" x="915" y="-62" font-family="Helvetica,sans-Serif" font-size="10.00">OzoneSensor.h</text>
</a>
</g>
</g>
<!-- Node1&#45;&gt;Node23 -->
<g id="edge27_Node000001_Node000023" class="edge">
<title>Node1&#45;&gt;Node23</title>
<g id="a_edge27_Node000001_Node000023"><a xlink:title=" ">
<path fill="none" stroke="#63b8ff" d="M1047.88,-106.93C1016.13,-97.03 971.15,-83.01 942.53,-74.08"/>
<polygon fill="#63b8ff" stroke="#63b8ff" points="1047.1,-110.35 1057.69,-109.98 1049.18,-103.67 1047.1,-110.35"/>
</a>
</g>
</g>
<!-- Node25 -->
<g id="Node000025" class="node">
<title>Node25</title>
<g id="a_Node000025"><a xlink:href="PCF8523Sensor_8h.html" target="_top" xlink:title=" ">
<polygon fill="white" stroke="#666666" points="1078.5,-74 977.5,-74 977.5,-55 1078.5,-55 1078.5,-74"/>
<text text-anchor="middle" x="1028" y="-62" font-family="Helvetica,sans-Serif" font-size="10.00">PCF8523Sensor.h</text>
</a>
</g>
</g>
<!-- Node1&#45;&gt;Node25 -->
<g id="edge30_Node000001_Node000025" class="edge">
<title>Node1&#45;&gt;Node25</title>
<g id="a_edge30_Node000001_Node000025"><a xlink:title=" ">
<path fill="none" stroke="#63b8ff" d="M1068.38,-103.04C1058.27,-93.64 1045.72,-81.98 1037.32,-74.17"/>
<polygon fill="#63b8ff" stroke="#63b8ff" points="1066.14,-105.74 1075.84,-109.98 1070.9,-100.61 1066.14,-105.74"/>
</a>
</g>
</g>
<!-- Node27 -->
<g id="Node000027" class="node">
<title>Node27</title>
<g id="a_Node000027"><a xlink:href="SCD40Sensor_8h.html" target="_top" xlink:title=" ">
<polygon fill="white" stroke="#666666" points="1187,-74 1097,-74 1097,-55 1187,-55 1187,-74"/>
<text text-anchor="middle" x="1142" y="-62" font-family="Helvetica,sans-Serif" font-size="10.00">SCD40Sensor.h</text>
</a>
</g>
</g>
<!-- Node1&#45;&gt;Node27 -->
<g id="edge33_Node000001_Node000027" class="edge">
<title>Node1&#45;&gt;Node27</title>
<g id="a_edge33_Node000001_Node000027"><a xlink:title=" ">
<path fill="none" stroke="#63b8ff" d="M1101.62,-103.04C1111.73,-93.64 1124.28,-81.98 1132.68,-74.17"/>
<polygon fill="#63b8ff" stroke="#63b8ff" points="1099.1,-100.61 1094.16,-109.98 1103.86,-105.74 1099.1,-100.61"/>
</a>
</g>
</g>
<!-- Node29 -->
<g id="Node000029" class="node">
<title>Node29</title>
<g id="a_Node000029"><a xlink:href="SGP30Sensor_8h.html" target="_top" xlink:title=" ">
<polygon fill="white" stroke="#666666" points="2174.5,-74 2085.5,-74 2085.5,-55 2174.5,-55 2174.5,-74"/>
<text text-anchor="middle" x="2130" y="-62" font-family="Helvetica,sans-Serif" font-size="10.00">SGP30Sensor.h</text>
</a>
</g>
</g>
<!-- Node1&#45;&gt;Node29 -->
<g id="edge36_Node000001_Node000029" class="edge">
<title>Node1&#45;&gt;Node29</title>
<g id="a_edge36_Node000001_Node000029"><a xlink:title=" ">
<path fill="none" stroke="#63b8ff" d="M1124.38,-117.88C1257.03,-115.53 1699.69,-105.68 2064,-74 2070.91,-73.4 2078.2,-72.61 2085.32,-71.76"/>
<polygon fill="#63b8ff" stroke="#63b8ff" points="1124.23,-114.38 1114.29,-118.05 1124.35,-121.38 1124.23,-114.38"/>
</a>
</g>
</g>
<!-- Node31 -->
<g id="Node000031" class="node">
<title>Node31</title>
<g id="a_Node000031"><a xlink:href="SHTC3Sensor_8h.html" target="_top" xlink:title=" ">
<polygon fill="white" stroke="#666666" points="1294.5,-74 1205.5,-74 1205.5,-55 1294.5,-55 1294.5,-74"/>
<text text-anchor="middle" x="1250" y="-62" font-family="Helvetica,sans-Serif" font-size="10.00">SHTC3Sensor.h</text>
</a>
</g>
</g>
<!-- Node1&#45;&gt;Node31 -->
<g id="edge38_Node000001_Node000031" class="edge">
<title>Node1&#45;&gt;Node31</title>
<g id="a_edge38_Node000001_Node000031"><a xlink:title=" ">
<path fill="none" stroke="#63b8ff" d="M1121.43,-106.8C1152.22,-96.91 1195.62,-82.97 1223.28,-74.08"/>
<polygon fill="#63b8ff" stroke="#63b8ff" points="1119.96,-103.59 1111.51,-109.98 1122.1,-110.26 1119.96,-103.59"/>
</a>
</g>
</g>
<!-- Node33 -->
<g id="Node000033" class="node">
<title>Node33</title>
<g id="a_Node000033"><a xlink:href="TMP117Sensor_8h.html" target="_top" xlink:title=" ">
<polygon fill="white" stroke="#666666" points="1409.5,-74 1312.5,-74 1312.5,-55 1409.5,-55 1409.5,-74"/>
<text text-anchor="middle" x="1361" y="-62" font-family="Helvetica,sans-Serif" font-size="10.00">TMP117Sensor.h</text>
</a>
</g>
</g>
<!-- Node1&#45;&gt;Node33 -->
<g id="edge41_Node000001_Node000033" class="edge">
<title>Node1&#45;&gt;Node33</title>
<g id="a_edge41_Node000001_Node000033"><a xlink:title=" ">
<path fill="none" stroke="#63b8ff" d="M1123.94,-111.02C1174.68,-101.28 1263.2,-84.28 1316.53,-74.04"/>
<polygon fill="#63b8ff" stroke="#63b8ff" points="1123.18,-107.61 1114.02,-112.93 1124.5,-114.48 1123.18,-107.61"/>
</a>
</g>
</g>
<!-- Node35 -->
<g id="Node000035" class="node">
<title>Node35</title>
<g id="a_Node000035"><a xlink:href="TempSensor_8h.html" target="_top" xlink:title=" ">
<polygon fill="white" stroke="#666666" points="1512,-74 1428,-74 1428,-55 1512,-55 1512,-74"/>
<text text-anchor="middle" x="1470" y="-62" font-family="Helvetica,sans-Serif" font-size="10.00">TempSensor.h</text>
</a>
</g>
</g>
<!-- Node1&#45;&gt;Node35 -->
<g id="edge44_Node000001_Node000035" class="edge">
<title>Node1&#45;&gt;Node35</title>
<g id="a_edge44_Node000001_Node000035"><a xlink:title=" ">
<path fill="none" stroke="#63b8ff" d="M1124.63,-113.58C1187.09,-105.75 1312.2,-89.71 1418,-74 1421.17,-73.53 1424.44,-73.03 1427.73,-72.52"/>
<polygon fill="#63b8ff" stroke="#63b8ff" points="1123.93,-110.14 1114.44,-114.86 1124.8,-117.09 1123.93,-110.14"/>
</a>
</g>
</g>
<!-- Node3 -->
<g id="Node000003" class="node">
<title>Node3</title>
<g id="a_Node000003"><a xlink:href="AS7331Sensor_8cpp.html" target="_top" xlink:title=" ">
<polygon fill="white" stroke="#666666" points="106,-19 0,-19 0,0 106,0 106,-19"/>
<text text-anchor="middle" x="53" y="-7" font-family="Helvetica,sans-Serif" font-size="10.00">AS7331Sensor.cpp</text>
</a>
</g>
</g>
<!-- Node2&#45;&gt;Node3 -->
<g id="edge2_Node000002_Node000003" class="edge">
<title>Node2&#45;&gt;Node3</title>
<g id="a_edge2_Node000002_Node000003"><a xlink:title=" ">
<path fill="none" stroke="#63b8ff" d="M148.59,-51.03C125.47,-41.23 93.87,-27.83 73.45,-19.17"/>
<polygon fill="#63b8ff" stroke="#63b8ff" points="147.34,-54.3 157.92,-54.98 150.08,-47.86 147.34,-54.3"/>
</a>
</g>
</g>
<!-- Node2&#45;&gt;Node4 -->
<g id="edge3_Node000002_Node000004" class="edge">
<title>Node2&#45;&gt;Node4</title>
<g id="a_edge3_Node000002_Node000004"><a xlink:title=" ">
<path fill="none" stroke="#63b8ff" d="M235.7,-55.03C468.82,-30.35 531.01,-50.32 759,-19 762.17,-18.56 765.46,-18.03 768.74,-17.44"/>
<polygon fill="#63b8ff" stroke="#63b8ff" points="235.12,-51.57 225.55,-56.12 235.87,-58.53 235.12,-51.57"/>
</a>
</g>
</g>
<!-- Node6 -->
<g id="Node000006" class="node">
<title>Node6</title>
<g id="a_Node000006"><a xlink:href="BME280Sensor_8cpp.html" target="_top" xlink:title=" ">
<polygon fill="white" stroke="#666666" points="1684.5,-19 1575.5,-19 1575.5,0 1684.5,0 1684.5,-19"/>
<text text-anchor="middle" x="1630" y="-7" font-family="Helvetica,sans-Serif" font-size="10.00">BME280Sensor.cpp</text>
</a>
</g>
</g>
<!-- Node5&#45;&gt;Node6 -->
<g id="edge5_Node000005_Node000006" class="edge">
<title>Node5&#45;&gt;Node6</title>
<g id="a_edge5_Node000005_Node000006"><a xlink:title=" ">
<path fill="none" stroke="#63b8ff" d="M1614.8,-45.53C1618.68,-36.6 1623.18,-26.22 1626.27,-19.09"/>
<polygon fill="#63b8ff" stroke="#63b8ff" points="1611.57,-44.18 1610.8,-54.75 1617.99,-46.97 1611.57,-44.18"/>
</a>
</g>
</g>
<!-- Node8 -->
<g id="Node000008" class="node">
<title>Node8</title>
<g id="a_Node000008"><a xlink:href="BME680Sensor_8cpp.html" target="_top" xlink:title=" ">
<polygon fill="white" stroke="#666666" points="1811.5,-19 1702.5,-19 1702.5,0 1811.5,0 1811.5,-19"/>
<text text-anchor="middle" x="1757" y="-7" font-family="Helvetica,sans-Serif" font-size="10.00">BME680Sensor.cpp</text>
</a>
</g>
</g>
<!-- Node7&#45;&gt;Node8 -->
<g id="edge7_Node000007_Node000008" class="edge">
<title>Node7&#45;&gt;Node8</title>
<g id="a_edge7_Node000007_Node000008"><a xlink:title=" ">
<path fill="none" stroke="#63b8ff" d="M1747.25,-44.95C1749.74,-36.15 1752.6,-26.06 1754.57,-19.09"/>
<polygon fill="#63b8ff" stroke="#63b8ff" points="1743.83,-44.17 1744.48,-54.75 1750.57,-46.08 1743.83,-44.17"/>
</a>
</g>
</g>
<!-- Node9&#45;&gt;Node4 -->
<g id="edge10_Node000009_Node000004" class="edge">
<title>Node9&#45;&gt;Node4</title>
<g id="a_edge10_Node000009_Node000004"><a xlink:title=" ">
<path fill="none" stroke="#63b8ff" d="M352.17,-54.94C533.54,-34.2 582.16,-45.04 759,-19 762.16,-18.53 765.45,-17.98 768.73,-17.37"/>
<polygon fill="#63b8ff" stroke="#63b8ff" points="351.55,-51.48 342.02,-56.11 352.36,-58.44 351.55,-51.48"/>
</a>
</g>
</g>
<!-- Node10 -->
<g id="Node000010" class="node">
<title>Node10</title>
<g id="a_Node000010"><a xlink:href="BMP390Sensor_8cpp.html" target="_top" xlink:title=" ">
<polygon fill="white" stroke="#666666" points="233.5,-19 124.5,-19 124.5,0 233.5,0 233.5,-19"/>
<text text-anchor="middle" x="179" y="-7" font-family="Helvetica,sans-Serif" font-size="10.00">BMP390Sensor.cpp</text>
</a>
</g>
</g>
<!-- Node9&#45;&gt;Node10 -->
<g id="edge9_Node000009_Node000010" class="edge">
<title>Node9&#45;&gt;Node10</title>
<g id="a_edge9_Node000009_Node000010"><a xlink:title=" ">
<path fill="none" stroke="#63b8ff" d="M265.61,-50.77C244.58,-40.99 216.11,-27.75 197.65,-19.17"/>
<polygon fill="#63b8ff" stroke="#63b8ff" points="264.14,-53.94 274.68,-54.98 267.09,-47.6 264.14,-53.94"/>
</a>
</g>
</g>
<!-- Node12 -->
<g id="Node000012" class="node">
<title>Node12</title>
<g id="a_Node000012"><a xlink:href="DS3231Sensor_8cpp.html" target="_top" xlink:title=" ">
<polygon fill="white" stroke="#666666" points="1936.5,-19 1829.5,-19 1829.5,0 1936.5,0 1936.5,-19"/>
<text text-anchor="middle" x="1883" y="-7" font-family="Helvetica,sans-Serif" font-size="10.00">DS3231Sensor.cpp</text>
</a>
</g>
</g>
<!-- Node11&#45;&gt;Node12 -->
<g id="edge12_Node000011_Node000012" class="edge">
<title>Node11&#45;&gt;Node12</title>
<g id="a_edge12_Node000011_Node000012"><a xlink:title=" ">
<path fill="none" stroke="#63b8ff" d="M1875.85,-44.95C1877.68,-36.15 1879.77,-26.06 1881.22,-19.09"/>
<polygon fill="#63b8ff" stroke="#63b8ff" points="1872.42,-44.25 1873.82,-54.75 1879.28,-45.67 1872.42,-44.25"/>
</a>
</g>
</g>
<!-- Node13&#45;&gt;Node4 -->
<g id="edge15_Node000013_Node000004" class="edge">
<title>Node13&#45;&gt;Node4</title>
<g id="a_edge15_Node000013_Node000004"><a xlink:title=" ">
<path fill="none" stroke="#63b8ff" d="M465.66,-54.81C596.57,-37.24 631.85,-39.9 759,-19 762.16,-18.48 765.44,-17.89 768.71,-17.27"/>
<polygon fill="#63b8ff" stroke="#63b8ff" points="465.08,-51.36 455.65,-56.17 466.03,-58.29 465.08,-51.36"/>
</a>
</g>
</g>
<!-- Node14 -->
<g id="Node000014" class="node">
<title>Node14</title>
<g id="a_Node000014"><a xlink:href="ENS160Sensor_8cpp.html" target="_top" xlink:title=" ">
<polygon fill="white" stroke="#666666" points="358.5,-19 251.5,-19 251.5,0 358.5,0 358.5,-19"/>
<text text-anchor="middle" x="305" y="-7" font-family="Helvetica,sans-Serif" font-size="10.00">ENS160Sensor.cpp</text>
</a>
</g>
</g>
<!-- Node13&#45;&gt;Node14 -->
<g id="edge14_Node000013_Node000014" class="edge">
<title>Node13&#45;&gt;Node14</title>
<g id="a_edge14_Node000013_Node000014"><a xlink:title=" ">
<path fill="none" stroke="#63b8ff" d="M382.48,-50.37C363.56,-40.63 338.3,-27.64 321.85,-19.17"/>
<polygon fill="#63b8ff" stroke="#63b8ff" points="380.96,-53.52 391.45,-54.98 384.16,-47.3 380.96,-53.52"/>
</a>
</g>
</g>
<!-- Node15&#45;&gt;Node4 -->
<g id="edge18_Node000015_Node000004" class="edge">
<title>Node15&#45;&gt;Node4</title>
<g id="a_edge18_Node000015_Node000004"><a xlink:title=" ">
<path fill="none" stroke="#63b8ff" d="M582.8,-53.04C629.83,-44.16 698.86,-31 759,-19 762.14,-18.37 765.41,-17.71 768.67,-17.05"/>
<polygon fill="#63b8ff" stroke="#63b8ff" points="582,-49.63 572.82,-54.92 583.3,-56.51 582,-49.63"/>
</a>
</g>
</g>
<!-- Node16 -->
<g id="Node000016" class="node">
<title>Node16</title>
<g id="a_Node000016"><a xlink:href="ICM20948Sensor_8cpp.html" target="_top" xlink:title=" ">
<polygon fill="white" stroke="#666666" points="495,-19 377,-19 377,0 495,0 495,-19"/>
<text text-anchor="middle" x="436" y="-7" font-family="Helvetica,sans-Serif" font-size="10.00">ICM20948Sensor.cpp</text>
</a>
</g>
</g>
<!-- Node15&#45;&gt;Node16 -->
<g id="edge17_Node000015_Node000016" class="edge">
<title>Node15&#45;&gt;Node16</title>
<g id="a_edge17_Node000015_Node000016"><a xlink:title=" ">
<path fill="none" stroke="#63b8ff" d="M503.3,-49.7C486.72,-40.04 465.09,-27.44 450.89,-19.17"/>
<polygon fill="#63b8ff" stroke="#63b8ff" points="501.98,-52.98 512.38,-54.98 505.5,-46.93 501.98,-52.98"/>
</a>
</g>
</g>
<!-- Node17&#45;&gt;Node4 -->
<g id="edge21_Node000017_Node000004" class="edge">
<title>Node17&#45;&gt;Node4</title>
<g id="a_edge21_Node000017_Node000004"><a xlink:title=" ">
<path fill="none" stroke="#63b8ff" d="M679.6,-51.67C708.5,-41.79 749.03,-27.93 774.9,-19.08"/>
<polygon fill="#63b8ff" stroke="#63b8ff" points="678.23,-48.44 669.9,-54.98 680.5,-55.06 678.23,-48.44"/>
</a>
</g>
</g>
<!-- Node18 -->
<g id="Node000018" class="node">
<title>Node18</title>
<g id="a_Node000018"><a xlink:href="INA260Sensor_8cpp.html" target="_top" xlink:title=" ">
<polygon fill="white" stroke="#666666" points="617,-19 513,-19 513,0 617,0 617,-19"/>
<text text-anchor="middle" x="565" y="-7" font-family="Helvetica,sans-Serif" font-size="10.00">INA260Sensor.cpp</text>
</a>
</g>
</g>
<!-- Node17&#45;&gt;Node18 -->
<g id="edge20_Node000017_Node000018" class="edge">
<title>Node17&#45;&gt;Node18</title>
<g id="a_edge20_Node000017_Node000018"><a xlink:title=" ">
<path fill="none" stroke="#63b8ff" d="M623.75,-49.42C609.24,-39.81 590.46,-27.37 578.09,-19.17"/>
<polygon fill="#63b8ff" stroke="#63b8ff" points="621.88,-52.38 632.15,-54.98 625.74,-46.54 621.88,-52.38"/>
</a>
</g>
</g>
<!-- Node20 -->
<g id="Node000020" class="node">
<title>Node20</title>
<g id="a_Node000020"><a xlink:href="LSM9DS1Sensor_8cpp.html" target="_top" xlink:title=" ">
<polygon fill="white" stroke="#666666" points="2069.5,-19 1954.5,-19 1954.5,0 2069.5,0 2069.5,-19"/>
<text text-anchor="middle" x="2012" y="-7" font-family="Helvetica,sans-Serif" font-size="10.00">LSM9DS1Sensor.cpp</text>
</a>
</g>
</g>
<!-- Node19&#45;&gt;Node20 -->
<g id="edge23_Node000019_Node000020" class="edge">
<title>Node19&#45;&gt;Node20</title>
<g id="a_edge23_Node000019_Node000020"><a xlink:title=" ">
<path fill="none" stroke="#63b8ff" d="M2006.2,-44.66C2007.68,-35.93 2009.37,-25.99 2010.54,-19.09"/>
<polygon fill="#63b8ff" stroke="#63b8ff" points="2002.71,-44.3 2004.49,-54.75 2009.61,-45.48 2002.71,-44.3"/>
</a>
</g>
</g>
<!-- Node21&#45;&gt;Node4 -->
<g id="edge26_Node000021_Node000004" class="edge">
<title>Node21&#45;&gt;Node4</title>
<g id="a_edge26_Node000021_Node000004"><a xlink:title=" ">
<path fill="none" stroke="#63b8ff" d="M774.27,-46.39C780.81,-37.27 788.57,-26.45 793.84,-19.09"/>
<polygon fill="#63b8ff" stroke="#63b8ff" points="771.26,-44.58 768.27,-54.75 776.95,-48.66 771.26,-44.58"/>
</a>
</g>
</g>
<!-- Node22 -->
<g id="Node000022" class="node">
<title>Node22</title>
<g id="a_Node000022"><a xlink:href="MTK3339Sensor_8cpp.html" target="_top" xlink:title=" ">
<polygon fill="white" stroke="#666666" points="750.5,-19 635.5,-19 635.5,0 750.5,0 750.5,-19"/>
<text text-anchor="middle" x="693" y="-7" font-family="Helvetica,sans-Serif" font-size="10.00">MTK3339Sensor.cpp</text>
</a>
</g>
</g>
<!-- Node21&#45;&gt;Node22 -->
<g id="edge25_Node000021_Node000022" class="edge">
<title>Node21&#45;&gt;Node22</title>
<g id="a_edge25_Node000021_Node000022"><a xlink:title=" ">
<path fill="none" stroke="#63b8ff" d="M742.96,-48.88C730.54,-39.34 714.76,-27.21 704.29,-19.17"/>
<polygon fill="#63b8ff" stroke="#63b8ff" points="740.85,-51.67 750.91,-54.98 745.12,-46.12 740.85,-51.67"/>
</a>
</g>
</g>
<!-- Node23&#45;&gt;Node4 -->
<g id="edge29_Node000023_Node000004" class="edge">
<title>Node23&#45;&gt;Node4</title>
<g id="a_edge29_Node000023_Node000004"><a xlink:title=" ">
<path fill="none" stroke="#63b8ff" d="M887.37,-50.77C866.16,-40.99 837.44,-27.75 818.81,-19.17"/>
<polygon fill="#63b8ff" stroke="#63b8ff" points="885.98,-53.98 896.52,-54.98 888.91,-47.62 885.98,-53.98"/>
</a>
</g>
</g>
<!-- Node24 -->
<g id="Node000024" class="node">
<title>Node24</title>
<g id="a_Node000024"><a xlink:href="OzoneSensor_8cpp.html" target="_top" xlink:title=" ">
<polygon fill="white" stroke="#666666" points="949,-19 849,-19 849,0 949,0 949,-19"/>
<text text-anchor="middle" x="899" y="-7" font-family="Helvetica,sans-Serif" font-size="10.00">OzoneSensor.cpp</text>
</a>
</g>
</g>
<!-- Node23&#45;&gt;Node24 -->
<g id="edge28_Node000023_Node000024" class="edge">
<title>Node23&#45;&gt;Node24</title>
<g id="a_edge28_Node000023_Node000024"><a xlink:title=" ">
<path fill="none" stroke="#63b8ff" d="M909.4,-44.95C906.74,-36.15 903.7,-26.06 901.59,-19.09"/>
<polygon fill="#63b8ff" stroke="#63b8ff" points="906.12,-46.19 912.36,-54.75 912.82,-44.16 906.12,-46.19"/>
</a>
</g>
</g>
<!-- Node25&#45;&gt;Node4 -->
<g id="edge32_Node000025_Node000004" class="edge">
<title>Node25&#45;&gt;Node4</title>
<g id="a_edge32_Node000025_Node000004"><a xlink:title=" ">
<path fill="none" stroke="#63b8ff" d="M981.58,-52.71C936.67,-42.27 869.87,-26.74 831.05,-17.72"/>
<polygon fill="#63b8ff" stroke="#63b8ff" points="980.84,-56.13 991.37,-54.98 982.42,-49.31 980.84,-56.13"/>
</a>
</g>
</g>
<!-- Node26 -->
<g id="Node000026" class="node">
<title>Node26</title>
<g id="a_Node000026"><a xlink:href="PCF8523Sensor_8cpp.html" target="_top" xlink:title=" ">
<polygon fill="white" stroke="#666666" points="1079,-19 967,-19 967,0 1079,0 1079,-19"/>
<text text-anchor="middle" x="1023" y="-7" font-family="Helvetica,sans-Serif" font-size="10.00">PCF8523Sensor.cpp</text>
</a>
</g>
</g>
<!-- Node25&#45;&gt;Node26 -->
<g id="edge31_Node000025_Node000026" class="edge">
<title>Node25&#45;&gt;Node26</title>
<g id="a_edge31_Node000025_Node000026"><a xlink:title=" ">
<path fill="none" stroke="#63b8ff" d="M1026.22,-44.66C1025.4,-35.93 1024.46,-25.99 1023.81,-19.09"/>
<polygon fill="#63b8ff" stroke="#63b8ff" points="1022.75,-45.12 1027.17,-54.75 1029.72,-44.46 1022.75,-45.12"/>
</a>
</g>
</g>
<!-- Node27&#45;&gt;Node4 -->
<g id="edge35_Node000027_Node000004" class="edge">
<title>Node27&#45;&gt;Node4</title>
<g id="a_edge35_Node000027_Node000004"><a xlink:title=" ">
<path fill="none" stroke="#63b8ff" d="M1087.3,-55.05C1087.2,-55.03 1087.1,-55.02 1087,-55 977.29,-38.53 949.2,-38.54 840,-19 837.2,-18.5 834.31,-17.95 831.41,-17.37"/>
<polygon fill="#63b8ff" stroke="#63b8ff" points="1086.57,-58.47 1096.98,-56.51 1087.62,-51.55 1086.57,-58.47"/>
</a>
</g>
</g>
<!-- Node28 -->
<g id="Node000028" class="node">
<title>Node28</title>
<g id="a_Node000028"><a xlink:href="SCD40Sensor_8cpp.html" target="_top" xlink:title=" ">
<polygon fill="white" stroke="#666666" points="1198.5,-19 1097.5,-19 1097.5,0 1198.5,0 1198.5,-19"/>
<text text-anchor="middle" x="1148" y="-7" font-family="Helvetica,sans-Serif" font-size="10.00">SCD40Sensor.cpp</text>
</a>
</g>
</g>
<!-- Node27&#45;&gt;Node28 -->
<g id="edge34_Node000027_Node000028" class="edge">
<title>Node27&#45;&gt;Node28</title>
<g id="a_edge34_Node000027_Node000028"><a xlink:title=" ">
<path fill="none" stroke="#63b8ff" d="M1144.13,-44.66C1145.12,-35.93 1146.25,-25.99 1147.03,-19.09"/>
<polygon fill="#63b8ff" stroke="#63b8ff" points="1140.64,-44.42 1142.99,-54.75 1147.59,-45.21 1140.64,-44.42"/>
</a>
</g>
</g>
<!-- Node30 -->
<g id="Node000030" class="node">
<title>Node30</title>
<g id="a_Node000030"><a xlink:href="SGP30Sensor_8cpp.html" target="_top" xlink:title=" ">
<polygon fill="white" stroke="#666666" points="2188.5,-19 2087.5,-19 2087.5,0 2188.5,0 2188.5,-19"/>
<text text-anchor="middle" x="2138" y="-7" font-family="Helvetica,sans-Serif" font-size="10.00">SGP30Sensor.cpp</text>
</a>
</g>
</g>
<!-- Node29&#45;&gt;Node30 -->
<g id="edge37_Node000029_Node000030" class="edge">
<title>Node29&#45;&gt;Node30</title>
<g id="a_edge37_Node000029_Node000030"><a xlink:title=" ">
<path fill="none" stroke="#63b8ff" d="M2132.84,-44.66C2134.16,-35.93 2135.66,-25.99 2136.7,-19.09"/>
<polygon fill="#63b8ff" stroke="#63b8ff" points="2129.35,-44.34 2131.32,-54.75 2136.27,-45.38 2129.35,-44.34"/>
</a>
</g>
</g>
<!-- Node31&#45;&gt;Node4 -->
<g id="edge40_Node000031_Node000004" class="edge">
<title>Node31&#45;&gt;Node4</title>
<g id="a_edge40_Node000031_Node000004"><a xlink:title=" ">
<path fill="none" stroke="#63b8ff" d="M1195.12,-54.97C1036.54,-34.98 993.9,-43.06 840,-19 837.19,-18.56 834.29,-18.05 831.38,-17.51"/>
<polygon fill="#63b8ff" stroke="#63b8ff" points="1194.88,-58.46 1205.24,-56.26 1195.76,-51.52 1194.88,-58.46"/>
</a>
</g>
</g>
<!-- Node32 -->
<g id="Node000032" class="node">
<title>Node32</title>
<g id="a_Node000032"><a xlink:href="SHTC3Sensor_8cpp.html" target="_top" xlink:title=" ">
<polygon fill="white" stroke="#666666" points="1317.5,-19 1216.5,-19 1216.5,0 1317.5,0 1317.5,-19"/>
<text text-anchor="middle" x="1267" y="-7" font-family="Helvetica,sans-Serif" font-size="10.00">SHTC3Sensor.cpp</text>
</a>
</g>
</g>
<!-- Node31&#45;&gt;Node32 -->
<g id="edge39_Node000031_Node000032" class="edge">
<title>Node31&#45;&gt;Node32</title>
<g id="a_edge39_Node000031_Node000032"><a xlink:title=" ">
<path fill="none" stroke="#63b8ff" d="M1255.95,-44.95C1258.77,-36.15 1262.01,-26.06 1264.25,-19.09"/>
<polygon fill="#63b8ff" stroke="#63b8ff" points="1252.53,-44.16 1252.81,-54.75 1259.19,-46.29 1252.53,-44.16"/>
</a>
</g>
</g>
<!-- Node33&#45;&gt;Node4 -->
<g id="edge43_Node000033_Node000004" class="edge">
<title>Node33&#45;&gt;Node4</title>
<g id="a_edge43_Node000033_Node000004"><a xlink:title=" ">
<path fill="none" stroke="#63b8ff" d="M1302.06,-54.98C1096.12,-32.54 1040.99,-48.04 840,-19 837.19,-18.59 834.28,-18.11 831.37,-17.57"/>
<polygon fill="#63b8ff" stroke="#63b8ff" points="1301.97,-58.5 1312.3,-56.12 1302.74,-51.54 1301.97,-58.5"/>
</a>
</g>
</g>
<!-- Node34 -->
<g id="Node000034" class="node">
<title>Node34</title>
<g id="a_Node000034"><a xlink:href="TMP117Sensor_8cpp.html" target="_top" xlink:title=" ">
<polygon fill="white" stroke="#666666" points="1444,-19 1336,-19 1336,0 1444,0 1444,-19"/>
<text text-anchor="middle" x="1390" y="-7" font-family="Helvetica,sans-Serif" font-size="10.00">TMP117Sensor.cpp</text>
</a>
</g>
</g>
<!-- Node33&#45;&gt;Node34 -->
<g id="edge42_Node000033_Node000034" class="edge">
<title>Node33&#45;&gt;Node34</title>
<g id="a_edge42_Node000033_Node000034"><a xlink:title=" ">
<path fill="none" stroke="#63b8ff" d="M1370.68,-45.82C1375.6,-36.82 1381.36,-26.29 1385.3,-19.09"/>
<polygon fill="#63b8ff" stroke="#63b8ff" points="1367.52,-44.3 1365.79,-54.75 1373.66,-47.66 1367.52,-44.3"/>
</a>
</g>
</g>
<!-- Node35&#45;&gt;Node4 -->
<g id="edge46_Node000035_Node000004" class="edge">
<title>Node35&#45;&gt;Node4</title>
<g id="a_edge46_Node000035_Node000004"><a xlink:title=" ">
<path fill="none" stroke="#63b8ff" d="M1417.75,-55.12C1160.49,-26.9 1091.78,-53.4 840,-19 837.19,-18.62 834.28,-18.14 831.37,-17.62"/>
<polygon fill="#63b8ff" stroke="#63b8ff" points="1417.44,-58.61 1427.76,-56.23 1418.21,-51.65 1417.44,-58.61"/>
</a>
</g>
</g>
<!-- Node36 -->
<g id="Node000036" class="node">
<title>Node36</title>
<g id="a_Node000036"><a xlink:href="TempSensor_8cpp.html" target="_top" xlink:title=" ">
<polygon fill="white" stroke="#666666" points="1557.5,-19 1462.5,-19 1462.5,0 1557.5,0 1557.5,-19"/>
<text text-anchor="middle" x="1510" y="-7" font-family="Helvetica,sans-Serif" font-size="10.00">TempSensor.cpp</text>
</a>
</g>
</g>
<!-- Node35&#45;&gt;Node36 -->
<g id="edge45_Node000035_Node000036" class="edge">
<title>Node35&#45;&gt;Node36</title>
<g id="a_edge45_Node000035_Node000036"><a xlink:title=" ">
<path fill="none" stroke="#63b8ff" d="M1482.7,-46.67C1489.63,-37.5 1497.91,-26.52 1503.52,-19.09"/>
<polygon fill="#63b8ff" stroke="#63b8ff" points="1479.84,-44.66 1476.61,-54.75 1485.42,-48.87 1479.84,-44.66"/>
</a>
</g>
</g>
</g>
</svg>

<g id="navigator" transform="translate(0 0)" fill="#404254">
  <rect fill="#f2f5e9" fill-opacity="0.5" stroke="#606060" stroke-width=".5" x="0" y="0" width="60" height="60"/>
  <use id="zoomplus" xlink:href="#zoomPlus" x="17" y="9" onmousedown="handleZoom(evt,'in')"/>
  <use id="zoomminus" xlink:href="#zoomMin" x="42" y="9" onmousedown="handleZoom(evt,'out')"/>
  <use id="reset" xlink:href="#resetDef" x="30" y="36" onmousedown="handleReset()"/>
   <use id="arrowup" xlink:href="#arrowUp" x="0" y="0" onmousedown="handlePan(0,-1)"/>
  <use id="arrowright" xlink:href="#arrowRight" x="0" y="0" onmousedown="handlePan(1,0)"/>
  <use id="arrowdown" xlink:href="#arrowDown" x="0" y="0" onmousedown="handlePan(0,1)"/>
  <use id="arrowleft" xlink:href="#arrowLeft" x="0" y="0" onmousedown="handlePan(-1,0)"/>
</g>
<svg viewBox="0 0 15 15" width="100%" height="30px" preserveAspectRatio="xMaxYMin meet">
 <g id="arrow_out" transform="scale(0.3 0.3)">
  <a xlink:href="Sensor_8h__dep__incl_org.svg" target="_base">
   <rect id="button" ry="5" rx="5" y="6" x="6" height="38" width="38"
        fill="#f2f5e9" fill-opacity="0.5" stroke="#606060" stroke-width="1.0"/>
   <path id="arrow"
     d="M 11.500037,31.436501 C 11.940474,20.09759 22.043105,11.32322 32.158766,21.979434 L 37.068811,17.246167 C 37.068811,17.246167 37.088388,32 37.088388,32 L 22.160133,31.978069 C 22.160133,31.978069 26.997745,27.140456 26.997745,27.140456 C 18.528582,18.264221 13.291696,25.230495 11.500037,31.436501 z"
     style="fill:#404040;"/>
  </a>
 </g>
</svg>

<style type='text/css'>
<![CDATA[
[data-mouse-over-selected='false'] { opacity: 0.7; }
[data-mouse-over-selected='true']  { opacity: 1.0; }
]]>
</style>
<script type="application/ecmascript"><![CDATA[
document.addEventListener('DOMContentLoaded', (event) => {
  highlightEdges();
  highlightAdjacentNodes();
});
]]></script>
</svg>
