<?xml version="1.0" encoding="UTF-8" standalone="no"?>
<!DOCTYPE svg PUBLIC "-//W3C//DTD SVG 1.1//EN"
 "http://www.w3.org/Graphics/SVG/1.1/DTD/svg11.dtd">
<!-- Generated by graphviz version 2.43.0 (0)
 -->
<!-- Title: Sensor.h Pages: 1 -->
<svg width="1587pt" height="137pt"
 viewBox="0.00 0.00 1586.50 137.00" xmlns="http://www.w3.org/2000/svg" xmlns:xlink="http://www.w3.org/1999/xlink">
<g id="graph0" class="graph" transform="scale(1 1) rotate(0) translate(4 133)">
<title>Sensor.h</title>
<!-- Node1 -->
<g id="Node000001" class="node">
<title>Node1</title>
<g id="a_Node000001"><a xlink:title=" ">
<polygon fill="#999999" stroke="#666666" points="788,-129 730,-129 730,-110 788,-110 788,-129"/>
<text text-anchor="middle" x="759" y="-117" font-family="Helvetica,sans-Serif" font-size="10.00">Sensor.h</text>
</a>
</g>
</g>
<!-- Node2 -->
<g id="Node000002" class="node">
<title>Node2</title>
<g id="a_Node000002"><a xlink:href="AS7331Sensor_8h.html" target="_top" xlink:title=" ">
<polygon fill="white" stroke="#666666" points="184.5,-74 89.5,-74 89.5,-55 184.5,-55 184.5,-74"/>
<text text-anchor="middle" x="137" y="-62" font-family="Helvetica,sans-Serif" font-size="10.00">AS7331Sensor.h</text>
</a>
</g>
</g>
<!-- Node1&#45;&gt;Node2 -->
<g id="edge1_Node000001_Node000002" class="edge">
<title>Node1&#45;&gt;Node2</title>
<g id="a_edge1_Node000001_Node000002"><a xlink:title=" ">
<path fill="none" stroke="#63b8ff" d="M719.57,-116.34C627.4,-111.08 390.78,-96.39 194,-74 190.92,-73.65 187.75,-73.26 184.55,-72.84"/>
<polygon fill="#63b8ff" stroke="#63b8ff" points="719.64,-119.85 729.82,-116.92 720.04,-112.86 719.64,-119.85"/>
</a>
</g>
</g>
<!-- Node4 -->
<g id="Node000004" class="node">
<title>Node4</title>
<g id="a_Node000004"><a xlink:href="main_8cpp.html" target="_top" xlink:title="Main functions for Core 0, responsible for reading data from sensor peripherals.">
<polygon fill="white" stroke="#666666" points="702,-19 640,-19 640,0 702,0 702,-19"/>
<text text-anchor="middle" x="671" y="-7" font-family="Helvetica,sans-Serif" font-size="10.00">main.cpp</text>
</a>
</g>
</g>
<!-- Node1&#45;&gt;Node4 -->
<g id="edge36_Node000001_Node000004" class="edge">
<title>Node1&#45;&gt;Node4</title>
<g id="a_edge36_Node000001_Node000004"><a xlink:title=" ">
<path fill="none" stroke="#63b8ff" d="M736.32,-103.94C725.28,-96.05 712.4,-85.55 703,-74 688.97,-56.76 678.85,-32.37 674.08,-19.41"/>
<polygon fill="#63b8ff" stroke="#63b8ff" points="734.46,-106.9 744.68,-109.68 738.42,-101.14 734.46,-106.9"/>
</a>
</g>
</g>
<!-- Node5 -->
<g id="Node000005" class="node">
<title>Node5</title>
<g id="a_Node000005"><a xlink:href="BME280Sensor_8h.html" target="_top" xlink:title=" ">
<polygon fill="white" stroke="#666666" points="301,-74 203,-74 203,-55 301,-55 301,-74"/>
<text text-anchor="middle" x="252" y="-62" font-family="Helvetica,sans-Serif" font-size="10.00">BME280Sensor.h</text>
</a>
</g>
</g>
<!-- Node1&#45;&gt;Node5 -->
<g id="edge4_Node000001_Node000005" class="edge">
<title>Node1&#45;&gt;Node5</title>
<g id="a_edge4_Node000001_Node000005"><a xlink:title=" ">
<path fill="none" stroke="#63b8ff" d="M719.43,-115.2C641.13,-108.54 460.93,-92.53 310,-74 307.07,-73.64 304.06,-73.25 301.03,-72.85"/>
<polygon fill="#63b8ff" stroke="#63b8ff" points="719.53,-118.73 729.79,-116.08 720.12,-111.75 719.53,-118.73"/>
</a>
</g>
</g>
<!-- Node7 -->
<g id="Node000007" class="node">
<title>Node7</title>
<g id="a_Node000007"><a xlink:href="BME680Sensor_8h.html" target="_top" xlink:title=" ">
<polygon fill="white" stroke="#666666" points="417,-74 319,-74 319,-55 417,-55 417,-74"/>
<text text-anchor="middle" x="368" y="-62" font-family="Helvetica,sans-Serif" font-size="10.00">BME680Sensor.h</text>
</a>
</g>
</g>
<!-- Node1&#45;&gt;Node7 -->
<g id="edge7_Node000001_Node000007" class="edge">
<title>Node1&#45;&gt;Node7</title>
<g id="a_edge7_Node000001_Node000007"><a xlink:title=" ">
<path fill="none" stroke="#63b8ff" d="M719.4,-113.37C656.98,-105.25 531.93,-88.84 426,-74 423.08,-73.59 420.07,-73.16 417.04,-72.73"/>
<polygon fill="#63b8ff" stroke="#63b8ff" points="719.22,-116.88 729.58,-114.7 720.12,-109.94 719.22,-116.88"/>
</a>
</g>
</g>
<!-- Node9 -->
<g id="Node000009" class="node">
<title>Node9</title>
<g id="a_Node000009"><a xlink:href="DS3231Sensor_8h.html" target="_top" xlink:title=" ">
<polygon fill="white" stroke="#666666" points="1538.5,-74 1443.5,-74 1443.5,-55 1538.5,-55 1538.5,-74"/>
<text text-anchor="middle" x="1491" y="-62" font-family="Helvetica,sans-Serif" font-size="10.00">DS3231Sensor.h</text>
</a>
</g>
</g>
<!-- Node1&#45;&gt;Node9 -->
<g id="edge10_Node000001_Node000009" class="edge">
<title>Node1&#45;&gt;Node9</title>
<g id="a_edge10_Node000001_Node000009"><a xlink:title=" ">
<path fill="none" stroke="#63b8ff" d="M798.24,-115.87C897.09,-109.2 1164.34,-90.99 1387,-74 1405.42,-72.59 1425.68,-70.96 1443.38,-69.5"/>
<polygon fill="#63b8ff" stroke="#63b8ff" points="797.86,-112.38 788.12,-116.55 798.33,-119.37 797.86,-112.38"/>
</a>
</g>
</g>
<!-- Node11 -->
<g id="Node000011" class="node">
<title>Node11</title>
<g id="a_Node000011"><a xlink:href="ENS160Sensor_8h.html" target="_top" xlink:title=" ">
<polygon fill="white" stroke="#666666" points="530.5,-74 435.5,-74 435.5,-55 530.5,-55 530.5,-74"/>
<text text-anchor="middle" x="483" y="-62" font-family="Helvetica,sans-Serif" font-size="10.00">ENS160Sensor.h</text>
</a>
</g>
</g>
<!-- Node1&#45;&gt;Node11 -->
<g id="edge12_Node000001_Node000011" class="edge">
<title>Node1&#45;&gt;Node11</title>
<g id="a_edge12_Node000001_Node000011"><a xlink:title=" ">
<path fill="none" stroke="#63b8ff" d="M720.06,-111.02C669.32,-101.28 580.8,-84.28 527.47,-74.04"/>
<polygon fill="#63b8ff" stroke="#63b8ff" points="719.5,-114.48 729.98,-112.93 720.82,-107.61 719.5,-114.48"/>
</a>
</g>
</g>
<!-- Node13 -->
<g id="Node000013" class="node">
<title>Node13</title>
<g id="a_Node000013"><a xlink:href="ICM20948Sensor_8h.html" target="_top" xlink:title=" ">
<polygon fill="white" stroke="#666666" points="655.5,-74 548.5,-74 548.5,-55 655.5,-55 655.5,-74"/>
<text text-anchor="middle" x="602" y="-62" font-family="Helvetica,sans-Serif" font-size="10.00">ICM20948Sensor.h</text>
</a>
</g>
</g>
<!-- Node1&#45;&gt;Node13 -->
<g id="edge15_Node000001_Node000013" class="edge">
<title>Node1&#45;&gt;Node13</title>
<g id="a_edge15_Node000001_Node000013"><a xlink:title=" ">
<path fill="none" stroke="#63b8ff" d="M723.95,-106.67C694.68,-96.79 653.63,-82.93 627.42,-74.08"/>
<polygon fill="#63b8ff" stroke="#63b8ff" points="723.18,-110.1 733.78,-109.98 725.42,-103.47 723.18,-110.1"/>
</a>
</g>
</g>
<!-- Node15 -->
<g id="Node000015" class="node">
<title>Node15</title>
<g id="a_Node000015"><a xlink:href="INA260Sensor_8h.html" target="_top" xlink:title=" ">
<polygon fill="white" stroke="#666666" points="805.5,-74 712.5,-74 712.5,-55 805.5,-55 805.5,-74"/>
<text text-anchor="middle" x="759" y="-62" font-family="Helvetica,sans-Serif" font-size="10.00">INA260Sensor.h</text>
</a>
</g>
</g>
<!-- Node1&#45;&gt;Node15 -->
<g id="edge18_Node000001_Node000015" class="edge">
<title>Node1&#45;&gt;Node15</title>
<g id="a_edge18_Node000001_Node000015"><a xlink:title=" ">
<path fill="none" stroke="#63b8ff" d="M759,-99.66C759,-90.93 759,-80.99 759,-74.09"/>
<polygon fill="#63b8ff" stroke="#63b8ff" points="755.5,-99.75 759,-109.75 762.5,-99.75 755.5,-99.75"/>
</a>
</g>
</g>
<!-- Node17 -->
<g id="Node000017" class="node">
<title>Node17</title>
<g id="a_Node000017"><a xlink:href="LSM9DS1Sensor_8h.html" target="_top" xlink:title=" ">
<polygon fill="white" stroke="#666666" points="928,-74 824,-74 824,-55 928,-55 928,-74"/>
<text text-anchor="middle" x="876" y="-62" font-family="Helvetica,sans-Serif" font-size="10.00">LSM9DS1Sensor.h</text>
</a>
</g>
</g>
<!-- Node1&#45;&gt;Node17 -->
<g id="edge21_Node000001_Node000017" class="edge">
<title>Node1&#45;&gt;Node17</title>
<g id="a_edge21_Node000001_Node000017"><a xlink:title=" ">
<path fill="none" stroke="#63b8ff" d="M787.11,-105.77C808.69,-95.99 837.91,-82.75 856.86,-74.17"/>
<polygon fill="#63b8ff" stroke="#63b8ff" points="785.46,-102.67 777.8,-109.98 788.35,-109.05 785.46,-102.67"/>
</a>
</g>
</g>
<!-- Node19 -->
<g id="Node000019" class="node">
<title>Node19</title>
<g id="a_Node000019"><a xlink:href="MTK3339Sensor_8h.html" target="_top" xlink:title=" ">
<polygon fill="white" stroke="#666666" points="1050,-74 946,-74 946,-55 1050,-55 1050,-74"/>
<text text-anchor="middle" x="998" y="-62" font-family="Helvetica,sans-Serif" font-size="10.00">MTK3339Sensor.h</text>
</a>
</g>
</g>
<!-- Node1&#45;&gt;Node19 -->
<g id="edge24_Node000001_Node000019" class="edge">
<title>Node1&#45;&gt;Node19</title>
<g id="a_edge24_Node000001_Node000019"><a xlink:title=" ">
<path fill="none" stroke="#63b8ff" d="M798.19,-109.81C842.74,-99.93 915.02,-83.9 959.35,-74.07"/>
<polygon fill="#63b8ff" stroke="#63b8ff" points="797.31,-106.42 788.31,-112 798.83,-113.25 797.31,-106.42"/>
</a>
</g>
</g>
<!-- Node21 -->
<g id="Node000021" class="node">
<title>Node21</title>
<g id="a_Node000021"><a xlink:href="PCF8523Sensor_8h.html" target="_top" xlink:title=" ">
<polygon fill="white" stroke="#666666" points="1169.5,-74 1068.5,-74 1068.5,-55 1169.5,-55 1169.5,-74"/>
<text text-anchor="middle" x="1119" y="-62" font-family="Helvetica,sans-Serif" font-size="10.00">PCF8523Sensor.h</text>
</a>
</g>
</g>
<!-- Node1&#45;&gt;Node21 -->
<g id="edge27_Node000001_Node000021" class="edge">
<title>Node1&#45;&gt;Node21</title>
<g id="a_edge27_Node000001_Node000021"><a xlink:title=" ">
<path fill="none" stroke="#63b8ff" d="M798.09,-112.75C863.63,-103.1 995.65,-83.66 1068.27,-72.97"/>
<polygon fill="#63b8ff" stroke="#63b8ff" points="797.54,-109.29 788.16,-114.21 798.56,-116.21 797.54,-109.29"/>
</a>
</g>
</g>
<!-- Node23 -->
<g id="Node000023" class="node">
<title>Node23</title>
<g id="a_Node000023"><a xlink:href="SGP30Sensor_8h.html" target="_top" xlink:title=" ">
<polygon fill="white" stroke="#666666" points="1276.5,-74 1187.5,-74 1187.5,-55 1276.5,-55 1276.5,-74"/>
<text text-anchor="middle" x="1232" y="-62" font-family="Helvetica,sans-Serif" font-size="10.00">SGP30Sensor.h</text>
</a>
</g>
</g>
<!-- Node1&#45;&gt;Node23 -->
<g id="edge30_Node000001_Node000023" class="edge">
<title>Node1&#45;&gt;Node23</title>
<g id="a_edge30_Node000001_Node000023"><a xlink:title=" ">
<path fill="none" stroke="#63b8ff" d="M798.3,-114.99C872.59,-108.21 1038.71,-92.35 1178,-74 1181.01,-73.6 1184.11,-73.17 1187.24,-72.72"/>
<polygon fill="#63b8ff" stroke="#63b8ff" points="797.66,-111.54 788.01,-115.93 798.29,-118.51 797.66,-111.54"/>
</a>
</g>
</g>
<!-- Node25 -->
<g id="Node000025" class="node">
<title>Node25</title>
<g id="a_Node000025"><a xlink:href="TempSensor_8h.html" target="_top" xlink:title=" ">
<polygon fill="white" stroke="#666666" points="1378,-74 1294,-74 1294,-55 1378,-55 1378,-74"/>
<text text-anchor="middle" x="1336" y="-62" font-family="Helvetica,sans-Serif" font-size="10.00">TempSensor.h</text>
</a>
</g>
</g>
<!-- Node1&#45;&gt;Node25 -->
<g id="edge33_Node000001_Node000025" class="edge">
<title>Node1&#45;&gt;Node25</title>
<g id="a_edge33_Node000001_Node000025"><a xlink:title=" ">
<path fill="none" stroke="#63b8ff" d="M798.18,-116.27C885.71,-111.05 1103.68,-96.74 1285,-74 1287.85,-73.64 1290.78,-73.24 1293.74,-72.81"/>
<polygon fill="#63b8ff" stroke="#63b8ff" points="797.94,-112.78 788.17,-116.86 798.36,-119.77 797.94,-112.78"/>
</a>
</g>
</g>
<!-- Node3 -->
<g id="Node000003" class="node">
<title>Node3</title>
<g id="a_Node000003"><a xlink:href="AS7331Sensor_8cpp.html" target="_top" xlink:title=" ">
<polygon fill="white" stroke="#666666" points="106,-19 0,-19 0,0 106,0 106,-19"/>
<text text-anchor="middle" x="53" y="-7" font-family="Helvetica,sans-Serif" font-size="10.00">AS7331Sensor.cpp</text>
</a>
</g>
</g>
<!-- Node2&#45;&gt;Node3 -->
<g id="edge2_Node000002_Node000003" class="edge">
<title>Node2&#45;&gt;Node3</title>
<g id="a_edge2_Node000002_Node000003"><a xlink:title=" ">
<path fill="none" stroke="#63b8ff" d="M114.69,-49.42C99.45,-39.81 79.73,-27.37 66.74,-19.17"/>
<polygon fill="#63b8ff" stroke="#63b8ff" points="113.18,-52.61 123.5,-54.98 116.91,-46.69 113.18,-52.61"/>
</a>
</g>
</g>
<!-- Node2&#45;&gt;Node4 -->
<g id="edge3_Node000002_Node000004" class="edge">
<title>Node2&#45;&gt;Node4</title>
<g id="a_edge3_Node000002_Node000004"><a xlink:title=" ">
<path fill="none" stroke="#63b8ff" d="M194.54,-55.03C389.31,-33.09 441.39,-46.84 631,-19 633.81,-18.59 636.72,-18.1 639.63,-17.56"/>
<polygon fill="#63b8ff" stroke="#63b8ff" points="194.09,-51.56 184.55,-56.17 194.89,-58.51 194.09,-51.56"/>
</a>
</g>
</g>
<!-- Node5&#45;&gt;Node4 -->
<g id="edge6_Node000005_Node000004" class="edge">
<title>Node5&#45;&gt;Node4</title>
<g id="a_edge6_Node000005_Node000004"><a xlink:title=" ">
<path fill="none" stroke="#63b8ff" d="M311.06,-54.91C454.09,-36.82 492.47,-41.43 631,-19 633.8,-18.55 636.71,-18.03 639.61,-17.47"/>
<polygon fill="#63b8ff" stroke="#63b8ff" points="310.51,-51.45 301.03,-56.2 311.4,-58.4 310.51,-51.45"/>
</a>
</g>
</g>
<!-- Node6 -->
<g id="Node000006" class="node">
<title>Node6</title>
<g id="a_Node000006"><a xlink:href="BME280Sensor_8cpp.html" target="_top" xlink:title=" ">
<polygon fill="white" stroke="#666666" points="233.5,-19 124.5,-19 124.5,0 233.5,0 233.5,-19"/>
<text text-anchor="middle" x="179" y="-7" font-family="Helvetica,sans-Serif" font-size="10.00">BME280Sensor.cpp</text>
</a>
</g>
</g>
<!-- Node5&#45;&gt;Node6 -->
<g id="edge5_Node000005_Node000006" class="edge">
<title>Node5&#45;&gt;Node6</title>
<g id="a_edge5_Node000005_Node000006"><a xlink:title=" ">
<path fill="none" stroke="#63b8ff" d="M231.86,-48.88C218.72,-39.34 202.02,-27.21 190.94,-19.17"/>
<polygon fill="#63b8ff" stroke="#63b8ff" points="230.12,-51.94 240.27,-54.98 234.24,-46.28 230.12,-51.94"/>
</a>
</g>
</g>
<!-- Node7&#45;&gt;Node4 -->
<g id="edge9_Node000007_Node000004" class="edge">
<title>Node7&#45;&gt;Node4</title>
<g id="a_edge9_Node000007_Node000004"><a xlink:title=" ">
<path fill="none" stroke="#63b8ff" d="M427.04,-54.23C480.42,-45.68 561.13,-32.33 631,-19 633.79,-18.47 636.68,-17.89 639.58,-17.31"/>
<polygon fill="#63b8ff" stroke="#63b8ff" points="426.39,-50.79 417.07,-55.83 427.49,-57.71 426.39,-50.79"/>
</a>
</g>
</g>
<!-- Node8 -->
<g id="Node000008" class="node">
<title>Node8</title>
<g id="a_Node000008"><a xlink:href="BME680Sensor_8cpp.html" target="_top" xlink:title=" ">
<polygon fill="white" stroke="#666666" points="360.5,-19 251.5,-19 251.5,0 360.5,0 360.5,-19"/>
<text text-anchor="middle" x="306" y="-7" font-family="Helvetica,sans-Serif" font-size="10.00">BME680Sensor.cpp</text>
</a>
</g>
</g>
<!-- Node7&#45;&gt;Node8 -->
<g id="edge8_Node000007_Node000008" class="edge">
<title>Node7&#45;&gt;Node8</title>
<g id="a_edge8_Node000007_Node000008"><a xlink:title=" ">
<path fill="none" stroke="#63b8ff" d="M350.25,-48.32C339.19,-38.87 325.37,-27.06 316.14,-19.17"/>
<polygon fill="#63b8ff" stroke="#63b8ff" points="348.16,-51.15 358.04,-54.98 352.71,-45.83 348.16,-51.15"/>
</a>
</g>
</g>
<!-- Node10 -->
<g id="Node000010" class="node">
<title>Node10</title>
<g id="a_Node000010"><a xlink:href="DS3231Sensor_8cpp.html" target="_top" xlink:title=" ">
<polygon fill="white" stroke="#666666" points="1578.5,-19 1471.5,-19 1471.5,0 1578.5,0 1578.5,-19"/>
<text text-anchor="middle" x="1525" y="-7" font-family="Helvetica,sans-Serif" font-size="10.00">DS3231Sensor.cpp</text>
</a>
</g>
</g>
<!-- Node9&#45;&gt;Node10 -->
<g id="edge11_Node000009_Node000010" class="edge">
<title>Node9&#45;&gt;Node10</title>
<g id="a_edge11_Node000009_Node000010"><a xlink:title=" ">
<path fill="none" stroke="#63b8ff" d="M1502.16,-46.1C1507.97,-37.04 1514.82,-26.37 1519.49,-19.09"/>
<polygon fill="#63b8ff" stroke="#63b8ff" points="1499.07,-44.44 1496.61,-54.75 1504.96,-48.22 1499.07,-44.44"/>
</a>
</g>
</g>
<!-- Node11&#45;&gt;Node4 -->
<g id="edge14_Node000011_Node000004" class="edge">
<title>Node11&#45;&gt;Node4</title>
<g id="a_edge14_Node000011_Node000004"><a xlink:title=" ">
<path fill="none" stroke="#63b8ff" d="M523.14,-52.18C558.3,-42.27 608.63,-28.08 640.56,-19.08"/>
<polygon fill="#63b8ff" stroke="#63b8ff" points="521.88,-48.9 513.21,-54.98 523.78,-55.64 521.88,-48.9"/>
</a>
</g>
</g>
<!-- Node12 -->
<g id="Node000012" class="node">
<title>Node12</title>
<g id="a_Node000012"><a xlink:href="ENS160Sensor_8cpp.html" target="_top" xlink:title=" ">
<polygon fill="white" stroke="#666666" points="485.5,-19 378.5,-19 378.5,0 485.5,0 485.5,-19"/>
<text text-anchor="middle" x="432" y="-7" font-family="Helvetica,sans-Serif" font-size="10.00">ENS160Sensor.cpp</text>
</a>
</g>
</g>
<!-- Node11&#45;&gt;Node12 -->
<g id="edge13_Node000011_Node000012" class="edge">
<title>Node11&#45;&gt;Node12</title>
<g id="a_edge13_Node000011_Node000012"><a xlink:title=" ">
<path fill="none" stroke="#63b8ff" d="M467.62,-47.52C458.63,-38.18 447.64,-26.75 440.26,-19.09"/>
<polygon fill="#63b8ff" stroke="#63b8ff" points="465.12,-49.97 474.58,-54.75 470.17,-45.12 465.12,-49.97"/>
</a>
</g>
</g>
<!-- Node13&#45;&gt;Node4 -->
<g id="edge17_Node000013_Node000004" class="edge">
<title>Node13&#45;&gt;Node4</title>
<g id="a_edge17_Node000013_Node000004"><a xlink:title=" ">
<path fill="none" stroke="#63b8ff" d="M621.04,-48.88C633.46,-39.34 649.24,-27.21 659.71,-19.17"/>
<polygon fill="#63b8ff" stroke="#63b8ff" points="618.88,-46.12 613.09,-54.98 623.15,-51.67 618.88,-46.12"/>
</a>
</g>
</g>
<!-- Node14 -->
<g id="Node000014" class="node">
<title>Node14</title>
<g id="a_Node000014"><a xlink:href="ICM20948Sensor_8cpp.html" target="_top" xlink:title=" ">
<polygon fill="white" stroke="#666666" points="622,-19 504,-19 504,0 622,0 622,-19"/>
<text text-anchor="middle" x="563" y="-7" font-family="Helvetica,sans-Serif" font-size="10.00">ICM20948Sensor.cpp</text>
</a>
</g>
</g>
<!-- Node13&#45;&gt;Node14 -->
<g id="edge16_Node000013_Node000014" class="edge">
<title>Node13&#45;&gt;Node14</title>
<g id="a_edge16_Node000013_Node000014"><a xlink:title=" ">
<path fill="none" stroke="#63b8ff" d="M589.62,-46.67C582.86,-37.5 574.79,-26.52 569.32,-19.09"/>
<polygon fill="#63b8ff" stroke="#63b8ff" points="586.81,-48.77 595.56,-54.75 592.45,-44.62 586.81,-48.77"/>
</a>
</g>
</g>
<!-- Node15&#45;&gt;Node4 -->
<g id="edge20_Node000015_Node000004" class="edge">
<title>Node15&#45;&gt;Node4</title>
<g id="a_edge20_Node000015_Node000004"><a xlink:title=" ">
<path fill="none" stroke="#63b8ff" d="M736.08,-49.7C720.05,-40.04 699.13,-27.44 685.4,-19.17"/>
<polygon fill="#63b8ff" stroke="#63b8ff" points="734.49,-52.82 744.86,-54.98 738.1,-46.83 734.49,-52.82"/>
</a>
</g>
</g>
<!-- Node16 -->
<g id="Node000016" class="node">
<title>Node16</title>
<g id="a_Node000016"><a xlink:href="INA260Sensor_8cpp.html" target="_top" xlink:title=" ">
<polygon fill="white" stroke="#666666" points="824,-19 720,-19 720,0 824,0 824,-19"/>
<text text-anchor="middle" x="772" y="-7" font-family="Helvetica,sans-Serif" font-size="10.00">INA260Sensor.cpp</text>
</a>
</g>
</g>
<!-- Node15&#45;&gt;Node16 -->
<g id="edge19_Node000015_Node000016" class="edge">
<title>Node15&#45;&gt;Node16</title>
<g id="a_edge19_Node000015_Node000016"><a xlink:title=" ">
<path fill="none" stroke="#63b8ff" d="M763.55,-44.95C765.71,-36.15 768.18,-26.06 769.89,-19.09"/>
<polygon fill="#63b8ff" stroke="#63b8ff" points="760.13,-44.2 761.15,-54.75 766.93,-45.87 760.13,-44.2"/>
</a>
</g>
</g>
<!-- Node17&#45;&gt;Node4 -->
<g id="edge23_Node000017_Node000004" class="edge">
<title>Node17&#45;&gt;Node4</title>
<g id="a_edge23_Node000017_Node000004"><a xlink:title=" ">
<path fill="none" stroke="#63b8ff" d="M833.28,-52.45C794.15,-42.34 737.17,-27.61 702.18,-18.56"/>
<polygon fill="#63b8ff" stroke="#63b8ff" points="832.51,-55.87 843.06,-54.98 834.26,-49.09 832.51,-55.87"/>
</a>
</g>
</g>
<!-- Node18 -->
<g id="Node000018" class="node">
<title>Node18</title>
<g id="a_Node000018"><a xlink:href="LSM9DS1Sensor_8cpp.html" target="_top" xlink:title=" ">
<polygon fill="white" stroke="#666666" points="957.5,-19 842.5,-19 842.5,0 957.5,0 957.5,-19"/>
<text text-anchor="middle" x="900" y="-7" font-family="Helvetica,sans-Serif" font-size="10.00">LSM9DS1Sensor.cpp</text>
</a>
</g>
</g>
<!-- Node17&#45;&gt;Node18 -->
<g id="edge22_Node000017_Node000018" class="edge">
<title>Node17&#45;&gt;Node18</title>
<g id="a_edge22_Node000017_Node000018"><a xlink:title=" ">
<path fill="none" stroke="#63b8ff" d="M884.14,-45.53C888.18,-36.6 892.88,-26.22 896.11,-19.09"/>
<polygon fill="#63b8ff" stroke="#63b8ff" points="880.9,-44.19 879.96,-54.75 887.28,-47.08 880.9,-44.19"/>
</a>
</g>
</g>
<!-- Node19&#45;&gt;Node4 -->
<g id="edge26_Node000019_Node000004" class="edge">
<title>Node19&#45;&gt;Node4</title>
<g id="a_edge26_Node000019_Node000004"><a xlink:title=" ">
<path fill="none" stroke="#63b8ff" d="M935.53,-54.23C864.48,-43.61 752.89,-26.69 711,-19 708.21,-18.49 705.31,-17.93 702.41,-17.35"/>
<polygon fill="#63b8ff" stroke="#63b8ff" points="935.3,-57.73 945.71,-55.75 936.34,-50.81 935.3,-57.73"/>
</a>
</g>
</g>
<!-- Node20 -->
<g id="Node000020" class="node">
<title>Node20</title>
<g id="a_Node000020"><a xlink:href="MTK3339Sensor_8cpp.html" target="_top" xlink:title=" ">
<polygon fill="white" stroke="#666666" points="1090.5,-19 975.5,-19 975.5,0 1090.5,0 1090.5,-19"/>
<text text-anchor="middle" x="1033" y="-7" font-family="Helvetica,sans-Serif" font-size="10.00">MTK3339Sensor.cpp</text>
</a>
</g>
</g>
<!-- Node19&#45;&gt;Node20 -->
<g id="edge25_Node000019_Node000020" class="edge">
<title>Node19&#45;&gt;Node20</title>
<g id="a_edge25_Node000019_Node000020"><a xlink:title=" ">
<path fill="none" stroke="#63b8ff" d="M1009.3,-46.39C1015.32,-37.27 1022.47,-26.45 1027.33,-19.09"/>
<polygon fill="#63b8ff" stroke="#63b8ff" points="1006.37,-44.47 1003.78,-54.75 1012.21,-48.33 1006.37,-44.47"/>
</a>
</g>
</g>
<!-- Node21&#45;&gt;Node4 -->
<g id="edge29_Node000021_Node000004" class="edge">
<title>Node21&#45;&gt;Node4</title>
<g id="a_edge29_Node000021_Node000004"><a xlink:title=" ">
<path fill="none" stroke="#63b8ff" d="M1057.9,-54.92C902.89,-36.38 861.3,-42.67 711,-19 708.19,-18.56 705.29,-18.05 702.38,-17.5"/>
<polygon fill="#63b8ff" stroke="#63b8ff" points="1057.93,-58.45 1068.28,-56.18 1058.77,-51.5 1057.93,-58.45"/>
</a>
</g>
</g>
<!-- Node22 -->
<g id="Node000022" class="node">
<title>Node22</title>
<g id="a_Node000022"><a xlink:href="PCF8523Sensor_8cpp.html" target="_top" xlink:title=" ">
<polygon fill="white" stroke="#666666" points="1221,-19 1109,-19 1109,0 1221,0 1221,-19"/>
<text text-anchor="middle" x="1165" y="-7" font-family="Helvetica,sans-Serif" font-size="10.00">PCF8523Sensor.cpp</text>
</a>
</g>
</g>
<!-- Node21&#45;&gt;Node22 -->
<g id="edge28_Node000021_Node000022" class="edge">
<title>Node21&#45;&gt;Node22</title>
<g id="a_edge28_Node000021_Node000022"><a xlink:title=" ">
<path fill="none" stroke="#63b8ff" d="M1133.36,-46.96C1141.37,-37.72 1151.03,-26.6 1157.55,-19.09"/>
<polygon fill="#63b8ff" stroke="#63b8ff" points="1130.51,-44.9 1126.6,-54.75 1135.79,-49.49 1130.51,-44.9"/>
</a>
</g>
</g>
<!-- Node23&#45;&gt;Node4 -->
<g id="edge32_Node000023_Node000004" class="edge">
<title>Node23&#45;&gt;Node4</title>
<g id="a_edge32_Node000023_Node000004"><a xlink:title=" ">
<path fill="none" stroke="#63b8ff" d="M1177.24,-55.02C969.51,-31.34 913.82,-48.24 711,-19 708.19,-18.59 705.28,-18.11 702.37,-17.58"/>
<polygon fill="#63b8ff" stroke="#63b8ff" points="1176.91,-58.5 1187.25,-56.18 1177.72,-51.55 1176.91,-58.5"/>
</a>
</g>
</g>
<!-- Node24 -->
<g id="Node000024" class="node">
<title>Node24</title>
<g id="a_Node000024"><a xlink:href="SGP30Sensor_8cpp.html" target="_top" xlink:title=" ">
<polygon fill="white" stroke="#666666" points="1340.5,-19 1239.5,-19 1239.5,0 1340.5,0 1340.5,-19"/>
<text text-anchor="middle" x="1290" y="-7" font-family="Helvetica,sans-Serif" font-size="10.00">SGP30Sensor.cpp</text>
</a>
</g>
</g>
<!-- Node23&#45;&gt;Node24 -->
<g id="edge31_Node000023_Node000024" class="edge">
<title>Node23&#45;&gt;Node24</title>
<g id="a_edge31_Node000023_Node000024"><a xlink:title=" ">
<path fill="none" stroke="#63b8ff" d="M1248.91,-48.04C1259.2,-38.64 1271.97,-26.98 1280.51,-19.17"/>
<polygon fill="#63b8ff" stroke="#63b8ff" points="1246.34,-45.66 1241.32,-54.98 1251.06,-50.82 1246.34,-45.66"/>
</a>
</g>
</g>
<!-- Node25&#45;&gt;Node4 -->
<g id="edge35_Node000025_Node000004" class="edge">
<title>Node25&#45;&gt;Node4</title>
<g id="a_edge35_Node000025_Node000004"><a xlink:title=" ">
<path fill="none" stroke="#63b8ff" d="M1283.46,-54.95C1029.25,-26.67 960.91,-53.2 711,-19 708.19,-18.61 705.28,-18.14 702.37,-17.62"/>
<polygon fill="#63b8ff" stroke="#63b8ff" points="1283.42,-58.47 1293.75,-56.12 1284.2,-51.51 1283.42,-58.47"/>
</a>
</g>
</g>
<!-- Node26 -->
<g id="Node000026" class="node">
<title>Node26</title>
<g id="a_Node000026"><a xlink:href="TempSensor_8cpp.html" target="_top" xlink:title=" ">
<polygon fill="white" stroke="#666666" points="1453.5,-19 1358.5,-19 1358.5,0 1453.5,0 1453.5,-19"/>
<text text-anchor="middle" x="1406" y="-7" font-family="Helvetica,sans-Serif" font-size="10.00">TempSensor.cpp</text>
</a>
</g>
</g>
<!-- Node25&#45;&gt;Node26 -->
<g id="edge34_Node000025_Node000026" class="edge">
<title>Node25&#45;&gt;Node26</title>
<g id="a_edge34_Node000025_Node000026"><a xlink:title=" ">
<path fill="none" stroke="#63b8ff" d="M1355.31,-48.88C1367.91,-39.34 1383.93,-27.21 1394.55,-19.17"/>
<polygon fill="#63b8ff" stroke="#63b8ff" points="1353.11,-46.16 1347.25,-54.98 1357.33,-51.74 1353.11,-46.16"/>
</a>
</g>
</g>
</g>
</svg>
