<?xml version="1.0" encoding="UTF-8" standalone="no"?>
<!DOCTYPE svg PUBLIC "-//W3C//DTD SVG 1.1//EN"
 "http://www.w3.org/Graphics/SVG/1.1/DTD/svg11.dtd">
<!-- Generated by graphviz version 2.43.0 (0)
 -->
<!-- Title: Sensor.h Pages: 1 -->
<svg width="2079pt" height="137pt"
 viewBox="0.00 0.00 2078.50 137.00" xmlns="http://www.w3.org/2000/svg" xmlns:xlink="http://www.w3.org/1999/xlink">
<g id="graph0" class="graph" transform="scale(1 1) rotate(0) translate(4 133)">
<title>Sensor.h</title>
<!-- Node1 -->
<g id="Node000001" class="node">
<title>Node1</title>
<g id="a_Node000001"><a xlink:title=" ">
<polygon fill="#999999" stroke="#666666" points="1053,-129 995,-129 995,-110 1053,-110 1053,-129"/>
<text text-anchor="middle" x="1024" y="-117" font-family="Helvetica,sans-Serif" font-size="10.00">Sensor.h</text>
</a>
</g>
</g>
<!-- Node2 -->
<g id="Node000002" class="node">
<title>Node2</title>
<g id="a_Node000002"><a xlink:href="AS7331Sensor_8h.html" target="_top" xlink:title=" ">
<polygon fill="white" stroke="#666666" points="214.5,-74 119.5,-74 119.5,-55 214.5,-55 214.5,-74"/>
<text text-anchor="middle" x="167" y="-62" font-family="Helvetica,sans-Serif" font-size="10.00">AS7331Sensor.h</text>
</a>
</g>
</g>
<!-- Node1&#45;&gt;Node2 -->
<g id="edge1_Node000001_Node000002" class="edge">
<title>Node1&#45;&gt;Node2</title>
<g id="a_edge1_Node000001_Node000002"><a xlink:title=" ">
<path fill="none" stroke="#63b8ff" d="M984.66,-117.6C868.21,-114.66 515.2,-103.75 224,-74 220.91,-73.68 217.74,-73.32 214.54,-72.93"/>
<polygon fill="#63b8ff" stroke="#63b8ff" points="984.78,-121.1 994.86,-117.85 984.95,-114.11 984.78,-121.1"/>
</a>
</g>
</g>
<!-- Node4 -->
<g id="Node000004" class="node">
<title>Node4</title>
<g id="a_Node000004"><a xlink:href="main_8cpp.html" target="_top" xlink:title="Main functions for Core 0, responsible for reading data from sensor peripherals.">
<polygon fill="white" stroke="#666666" points="697,-19 635,-19 635,0 697,0 697,-19"/>
<text text-anchor="middle" x="666" y="-7" font-family="Helvetica,sans-Serif" font-size="10.00">main.cpp</text>
</a>
</g>
</g>
<!-- Node1&#45;&gt;Node4 -->
<g id="edge44_Node000001_Node000004" class="edge">
<title>Node1&#45;&gt;Node4</title>
<g id="a_edge44_Node000001_Node000004"><a xlink:title=" ">
<path fill="none" stroke="#63b8ff" d="M984.67,-115.7C914.77,-110.22 772.11,-96.59 728,-74 702.49,-60.94 681.32,-33.34 671.65,-19.22"/>
<polygon fill="#63b8ff" stroke="#63b8ff" points="984.6,-119.21 994.83,-116.48 985.13,-112.23 984.6,-119.21"/>
</a>
</g>
</g>
<!-- Node5 -->
<g id="Node000005" class="node">
<title>Node5</title>
<g id="a_Node000005"><a xlink:href="BME280Sensor_8h.html" target="_top" xlink:title=" ">
<polygon fill="white" stroke="#666666" points="1538,-74 1440,-74 1440,-55 1538,-55 1538,-74"/>
<text text-anchor="middle" x="1489" y="-62" font-family="Helvetica,sans-Serif" font-size="10.00">BME280Sensor.h</text>
</a>
</g>
</g>
<!-- Node1&#45;&gt;Node5 -->
<g id="edge4_Node000001_Node000005" class="edge">
<title>Node1&#45;&gt;Node5</title>
<g id="a_edge4_Node000001_Node000005"><a xlink:title=" ">
<path fill="none" stroke="#63b8ff" d="M1063.03,-114.05C1147.45,-104.43 1346.84,-81.7 1439.75,-71.11"/>
<polygon fill="#63b8ff" stroke="#63b8ff" points="1062.63,-110.57 1053.09,-115.18 1063.42,-117.53 1062.63,-110.57"/>
</a>
</g>
</g>
<!-- Node7 -->
<g id="Node000007" class="node">
<title>Node7</title>
<g id="a_Node000007"><a xlink:href="BME680Sensor_8h.html" target="_top" xlink:title=" ">
<polygon fill="white" stroke="#666666" points="1673,-74 1575,-74 1575,-55 1673,-55 1673,-74"/>
<text text-anchor="middle" x="1624" y="-62" font-family="Helvetica,sans-Serif" font-size="10.00">BME680Sensor.h</text>
</a>
</g>
</g>
<!-- Node1&#45;&gt;Node7 -->
<g id="edge6_Node000001_Node000007" class="edge">
<title>Node1&#45;&gt;Node7</title>
<g id="a_edge6_Node000001_Node000007"><a xlink:title=" ">
<path fill="none" stroke="#63b8ff" d="M1063.46,-115.48C1150.7,-108.74 1366.56,-91.63 1547,-74 1555.97,-73.12 1565.52,-72.12 1574.73,-71.13"/>
<polygon fill="#63b8ff" stroke="#63b8ff" points="1062.93,-112.01 1053.23,-116.27 1063.46,-118.99 1062.93,-112.01"/>
</a>
</g>
</g>
<!-- Node9 -->
<g id="Node000009" class="node">
<title>Node9</title>
<g id="a_Node000009"><a xlink:href="BMP390Sensor_8h.html" target="_top" xlink:title=" ">
<polygon fill="white" stroke="#666666" points="331,-74 233,-74 233,-55 331,-55 331,-74"/>
<text text-anchor="middle" x="282" y="-62" font-family="Helvetica,sans-Serif" font-size="10.00">BMP390Sensor.h</text>
</a>
</g>
</g>
<!-- Node1&#45;&gt;Node9 -->
<g id="edge8_Node000001_Node000009" class="edge">
<title>Node1&#45;&gt;Node9</title>
<g id="a_edge8_Node000001_Node000009"><a xlink:title=" ">
<path fill="none" stroke="#63b8ff" d="M984.81,-117.06C880,-112.96 584.56,-99.83 340,-74 337.06,-73.69 334.05,-73.34 331.01,-72.97"/>
<polygon fill="#63b8ff" stroke="#63b8ff" points="984.8,-120.56 994.93,-117.45 985.07,-113.56 984.8,-120.56"/>
</a>
</g>
</g>
<!-- Node11 -->
<g id="Node000011" class="node">
<title>Node11</title>
<g id="a_Node000011"><a xlink:href="DS3231Sensor_8h.html" target="_top" xlink:title=" ">
<polygon fill="white" stroke="#666666" points="1801.5,-74 1706.5,-74 1706.5,-55 1801.5,-55 1801.5,-74"/>
<text text-anchor="middle" x="1754" y="-62" font-family="Helvetica,sans-Serif" font-size="10.00">DS3231Sensor.h</text>
</a>
</g>
</g>
<!-- Node1&#45;&gt;Node11 -->
<g id="edge11_Node000001_Node000011" class="edge">
<title>Node1&#45;&gt;Node11</title>
<g id="a_edge11_Node000001_Node000011"><a xlink:title=" ">
<path fill="none" stroke="#63b8ff" d="M1063.4,-116.52C1165.62,-111.25 1447.74,-95.74 1682,-74 1689.9,-73.27 1698.27,-72.38 1706.4,-71.46"/>
<polygon fill="#63b8ff" stroke="#63b8ff" points="1063.04,-113.04 1053.23,-117.05 1063.39,-120.03 1063.04,-113.04"/>
</a>
</g>
</g>
<!-- Node13 -->
<g id="Node000013" class="node">
<title>Node13</title>
<g id="a_Node000013"><a xlink:href="ENS160Sensor_8h.html" target="_top" xlink:title=" ">
<polygon fill="white" stroke="#666666" points="444.5,-74 349.5,-74 349.5,-55 444.5,-55 444.5,-74"/>
<text text-anchor="middle" x="397" y="-62" font-family="Helvetica,sans-Serif" font-size="10.00">ENS160Sensor.h</text>
</a>
</g>
</g>
<!-- Node1&#45;&gt;Node13 -->
<g id="edge13_Node000001_Node000013" class="edge">
<title>Node1&#45;&gt;Node13</title>
<g id="a_edge13_Node000001_Node000013"><a xlink:title=" ">
<path fill="none" stroke="#63b8ff" d="M984.76,-116.43C892.05,-111.32 652.27,-96.86 453,-74 450.26,-73.69 447.46,-73.34 444.63,-72.97"/>
<polygon fill="#63b8ff" stroke="#63b8ff" points="984.63,-119.93 994.81,-116.98 985.02,-112.94 984.63,-119.93"/>
</a>
</g>
</g>
<!-- Node15 -->
<g id="Node000015" class="node">
<title>Node15</title>
<g id="a_Node000015"><a xlink:href="ICM20948Sensor_8h.html" target="_top" xlink:title=" ">
<polygon fill="white" stroke="#666666" points="569.5,-74 462.5,-74 462.5,-55 569.5,-55 569.5,-74"/>
<text text-anchor="middle" x="516" y="-62" font-family="Helvetica,sans-Serif" font-size="10.00">ICM20948Sensor.h</text>
</a>
</g>
</g>
<!-- Node1&#45;&gt;Node15 -->
<g id="edge16_Node000001_Node000015" class="edge">
<title>Node1&#45;&gt;Node15</title>
<g id="a_edge16_Node000001_Node000015"><a xlink:title=" ">
<path fill="none" stroke="#63b8ff" d="M984.43,-115.04C906.52,-108.13 727.82,-91.74 578,-74 575.3,-73.68 572.54,-73.34 569.75,-72.99"/>
<polygon fill="#63b8ff" stroke="#63b8ff" points="984.47,-118.56 994.74,-115.96 985.08,-111.59 984.47,-118.56"/>
</a>
</g>
</g>
<!-- Node17 -->
<g id="Node000017" class="node">
<title>Node17</title>
<g id="a_Node000017"><a xlink:href="INA260Sensor_8h.html" target="_top" xlink:title=" ">
<polygon fill="white" stroke="#666666" points="680.5,-74 587.5,-74 587.5,-55 680.5,-55 680.5,-74"/>
<text text-anchor="middle" x="634" y="-62" font-family="Helvetica,sans-Serif" font-size="10.00">INA260Sensor.h</text>
</a>
</g>
</g>
<!-- Node1&#45;&gt;Node17 -->
<g id="edge19_Node000001_Node000017" class="edge">
<title>Node1&#45;&gt;Node17</title>
<g id="a_edge19_Node000001_Node000017"><a xlink:title=" ">
<path fill="none" stroke="#63b8ff" d="M984.89,-113.26C923.24,-104.99 799.72,-88.38 695,-74 690.34,-73.36 685.48,-72.69 680.62,-72.02"/>
<polygon fill="#63b8ff" stroke="#63b8ff" points="984.57,-116.75 994.95,-114.61 985.5,-109.81 984.57,-116.75"/>
</a>
</g>
</g>
<!-- Node19 -->
<g id="Node000019" class="node">
<title>Node19</title>
<g id="a_Node000019"><a xlink:href="LSM9DS1Sensor_8h.html" target="_top" xlink:title=" ">
<polygon fill="white" stroke="#666666" points="1937,-74 1833,-74 1833,-55 1937,-55 1937,-74"/>
<text text-anchor="middle" x="1885" y="-62" font-family="Helvetica,sans-Serif" font-size="10.00">LSM9DS1Sensor.h</text>
</a>
</g>
</g>
<!-- Node1&#45;&gt;Node19 -->
<g id="edge22_Node000001_Node000019" class="edge">
<title>Node1&#45;&gt;Node19</title>
<g id="a_edge22_Node000001_Node000019"><a xlink:title=" ">
<path fill="none" stroke="#63b8ff" d="M1063.4,-117.05C1178.49,-112.66 1524.08,-98.28 1810,-74 1817.44,-73.37 1825.29,-72.6 1832.99,-71.78"/>
<polygon fill="#63b8ff" stroke="#63b8ff" points="1063.17,-113.56 1053.3,-117.44 1063.43,-120.56 1063.17,-113.56"/>
</a>
</g>
</g>
<!-- Node21 -->
<g id="Node000021" class="node">
<title>Node21</title>
<g id="a_Node000021"><a xlink:href="MTK3339Sensor_8h.html" target="_top" xlink:title=" ">
<polygon fill="white" stroke="#666666" points="841,-74 737,-74 737,-55 841,-55 841,-74"/>
<text text-anchor="middle" x="789" y="-62" font-family="Helvetica,sans-Serif" font-size="10.00">MTK3339Sensor.h</text>
</a>
</g>
</g>
<!-- Node1&#45;&gt;Node21 -->
<g id="edge24_Node000001_Node000021" class="edge">
<title>Node1&#45;&gt;Node21</title>
<g id="a_edge24_Node000001_Node000021"><a xlink:title=" ">
<path fill="none" stroke="#63b8ff" d="M984.69,-109.63C940.77,-99.73 870.15,-83.8 826.83,-74.03"/>
<polygon fill="#63b8ff" stroke="#63b8ff" points="984.19,-113.11 994.71,-111.89 985.73,-106.28 984.19,-113.11"/>
</a>
</g>
</g>
<!-- Node23 -->
<g id="Node000023" class="node">
<title>Node23</title>
<g id="a_Node000023"><a xlink:href="PCF8523Sensor_8h.html" target="_top" xlink:title=" ">
<polygon fill="white" stroke="#666666" points="960.5,-74 859.5,-74 859.5,-55 960.5,-55 960.5,-74"/>
<text text-anchor="middle" x="910" y="-62" font-family="Helvetica,sans-Serif" font-size="10.00">PCF8523Sensor.h</text>
</a>
</g>
</g>
<!-- Node1&#45;&gt;Node23 -->
<g id="edge27_Node000001_Node000023" class="edge">
<title>Node1&#45;&gt;Node23</title>
<g id="a_edge27_Node000001_Node000023"><a xlink:title=" ">
<path fill="none" stroke="#63b8ff" d="M996.61,-105.77C975.58,-95.99 947.11,-82.75 928.65,-74.17"/>
<polygon fill="#63b8ff" stroke="#63b8ff" points="995.14,-108.94 1005.68,-109.98 998.09,-102.6 995.14,-108.94"/>
</a>
</g>
</g>
<!-- Node25 -->
<g id="Node000025" class="node">
<title>Node25</title>
<g id="a_Node000025"><a xlink:href="SCD40Sensor_8h.html" target="_top" xlink:title=" ">
<polygon fill="white" stroke="#666666" points="1069,-74 979,-74 979,-55 1069,-55 1069,-74"/>
<text text-anchor="middle" x="1024" y="-62" font-family="Helvetica,sans-Serif" font-size="10.00">SCD40Sensor.h</text>
</a>
</g>
</g>
<!-- Node1&#45;&gt;Node25 -->
<g id="edge30_Node000001_Node000025" class="edge">
<title>Node1&#45;&gt;Node25</title>
<g id="a_edge30_Node000001_Node000025"><a xlink:title=" ">
<path fill="none" stroke="#63b8ff" d="M1024,-99.66C1024,-90.93 1024,-80.99 1024,-74.09"/>
<polygon fill="#63b8ff" stroke="#63b8ff" points="1020.5,-99.75 1024,-109.75 1027.5,-99.75 1020.5,-99.75"/>
</a>
</g>
</g>
<!-- Node27 -->
<g id="Node000027" class="node">
<title>Node27</title>
<g id="a_Node000027"><a xlink:href="SGP30Sensor_8h.html" target="_top" xlink:title=" ">
<polygon fill="white" stroke="#666666" points="2056.5,-74 1967.5,-74 1967.5,-55 2056.5,-55 2056.5,-74"/>
<text text-anchor="middle" x="2012" y="-62" font-family="Helvetica,sans-Serif" font-size="10.00">SGP30Sensor.h</text>
</a>
</g>
</g>
<!-- Node1&#45;&gt;Node27 -->
<g id="edge33_Node000001_Node000027" class="edge">
<title>Node1&#45;&gt;Node27</title>
<g id="a_edge33_Node000001_Node000027"><a xlink:title=" ">
<path fill="none" stroke="#63b8ff" d="M1063.18,-117.73C1190.62,-114.98 1604.8,-104.16 1946,-74 1952.9,-73.39 1960.2,-72.6 1967.32,-71.74"/>
<polygon fill="#63b8ff" stroke="#63b8ff" points="1063.05,-114.23 1053.12,-117.94 1063.2,-121.23 1063.05,-114.23"/>
</a>
</g>
</g>
<!-- Node29 -->
<g id="Node000029" class="node">
<title>Node29</title>
<g id="a_Node000029"><a xlink:href="SHTC3Sensor_8h.html" target="_top" xlink:title=" ">
<polygon fill="white" stroke="#666666" points="1176.5,-74 1087.5,-74 1087.5,-55 1176.5,-55 1176.5,-74"/>
<text text-anchor="middle" x="1132" y="-62" font-family="Helvetica,sans-Serif" font-size="10.00">SHTC3Sensor.h</text>
</a>
</g>
</g>
<!-- Node1&#45;&gt;Node29 -->
<g id="edge35_Node000001_Node000029" class="edge">
<title>Node1&#45;&gt;Node29</title>
<g id="a_edge35_Node000001_Node000029"><a xlink:title=" ">
<path fill="none" stroke="#63b8ff" d="M1050.49,-105.5C1070.36,-95.75 1097,-82.68 1114.33,-74.17"/>
<polygon fill="#63b8ff" stroke="#63b8ff" points="1048.79,-102.44 1041.35,-109.98 1051.87,-108.72 1048.79,-102.44"/>
</a>
</g>
</g>
<!-- Node31 -->
<g id="Node000031" class="node">
<title>Node31</title>
<g id="a_Node000031"><a xlink:href="TMP117Sensor_8h.html" target="_top" xlink:title=" ">
<polygon fill="white" stroke="#666666" points="1291.5,-74 1194.5,-74 1194.5,-55 1291.5,-55 1291.5,-74"/>
<text text-anchor="middle" x="1243" y="-62" font-family="Helvetica,sans-Serif" font-size="10.00">TMP117Sensor.h</text>
</a>
</g>
</g>
<!-- Node1&#45;&gt;Node31 -->
<g id="edge38_Node000001_Node000031" class="edge">
<title>Node1&#45;&gt;Node31</title>
<g id="a_edge38_Node000001_Node000031"><a xlink:title=" ">
<path fill="none" stroke="#63b8ff" d="M1062.99,-109.06C1104.01,-99.14 1168.02,-83.65 1207.63,-74.06"/>
<polygon fill="#63b8ff" stroke="#63b8ff" points="1061.98,-105.71 1053.08,-111.46 1063.62,-112.51 1061.98,-105.71"/>
</a>
</g>
</g>
<!-- Node33 -->
<g id="Node000033" class="node">
<title>Node33</title>
<g id="a_Node000033"><a xlink:href="TempSensor_8h.html" target="_top" xlink:title=" ">
<polygon fill="white" stroke="#666666" points="1394,-74 1310,-74 1310,-55 1394,-55 1394,-74"/>
<text text-anchor="middle" x="1352" y="-62" font-family="Helvetica,sans-Serif" font-size="10.00">TempSensor.h</text>
</a>
</g>
</g>
<!-- Node1&#45;&gt;Node33 -->
<g id="edge41_Node000001_Node000033" class="edge">
<title>Node1&#45;&gt;Node33</title>
<g id="a_edge41_Node000001_Node000033"><a xlink:title=" ">
<path fill="none" stroke="#63b8ff" d="M1063.08,-112.23C1116.57,-103.63 1215.56,-87.71 1300,-74 1303.25,-73.47 1306.62,-72.92 1310,-72.37"/>
<polygon fill="#63b8ff" stroke="#63b8ff" points="1062.33,-108.8 1053.01,-113.84 1063.44,-115.71 1062.33,-108.8"/>
</a>
</g>
</g>
<!-- Node3 -->
<g id="Node000003" class="node">
<title>Node3</title>
<g id="a_Node000003"><a xlink:href="AS7331Sensor_8cpp.html" target="_top" xlink:title=" ">
<polygon fill="white" stroke="#666666" points="106,-19 0,-19 0,0 106,0 106,-19"/>
<text text-anchor="middle" x="53" y="-7" font-family="Helvetica,sans-Serif" font-size="10.00">AS7331Sensor.cpp</text>
</a>
</g>
</g>
<!-- Node2&#45;&gt;Node3 -->
<g id="edge2_Node000002_Node000003" class="edge">
<title>Node2&#45;&gt;Node3</title>
<g id="a_edge2_Node000002_Node000003"><a xlink:title=" ">
<path fill="none" stroke="#63b8ff" d="M139.61,-50.77C118.58,-40.99 90.11,-27.75 71.65,-19.17"/>
<polygon fill="#63b8ff" stroke="#63b8ff" points="138.14,-53.94 148.68,-54.98 141.09,-47.6 138.14,-53.94"/>
</a>
</g>
</g>
<!-- Node2&#45;&gt;Node4 -->
<g id="edge3_Node000002_Node000004" class="edge">
<title>Node2&#45;&gt;Node4</title>
<g id="a_edge3_Node000002_Node000004"><a xlink:title=" ">
<path fill="none" stroke="#63b8ff" d="M224.59,-55.01C403.84,-34.18 451.82,-45.21 626,-19 628.81,-18.58 631.72,-18.08 634.62,-17.54"/>
<polygon fill="#63b8ff" stroke="#63b8ff" points="224.08,-51.55 214.56,-56.19 224.9,-58.5 224.08,-51.55"/>
</a>
</g>
</g>
<!-- Node6 -->
<g id="Node000006" class="node">
<title>Node6</title>
<g id="a_Node000006"><a xlink:href="BME280Sensor_8cpp.html" target="_top" xlink:title=" ">
<polygon fill="white" stroke="#666666" points="1566.5,-19 1457.5,-19 1457.5,0 1566.5,0 1566.5,-19"/>
<text text-anchor="middle" x="1512" y="-7" font-family="Helvetica,sans-Serif" font-size="10.00">BME280Sensor.cpp</text>
</a>
</g>
</g>
<!-- Node5&#45;&gt;Node6 -->
<g id="edge5_Node000005_Node000006" class="edge">
<title>Node5&#45;&gt;Node6</title>
<g id="a_edge5_Node000005_Node000006"><a xlink:title=" ">
<path fill="none" stroke="#63b8ff" d="M1496.8,-45.53C1500.68,-36.6 1505.18,-26.22 1508.27,-19.09"/>
<polygon fill="#63b8ff" stroke="#63b8ff" points="1493.57,-44.18 1492.8,-54.75 1499.99,-46.97 1493.57,-44.18"/>
</a>
</g>
</g>
<!-- Node8 -->
<g id="Node000008" class="node">
<title>Node8</title>
<g id="a_Node000008"><a xlink:href="BME680Sensor_8cpp.html" target="_top" xlink:title=" ">
<polygon fill="white" stroke="#666666" points="1693.5,-19 1584.5,-19 1584.5,0 1693.5,0 1693.5,-19"/>
<text text-anchor="middle" x="1639" y="-7" font-family="Helvetica,sans-Serif" font-size="10.00">BME680Sensor.cpp</text>
</a>
</g>
</g>
<!-- Node7&#45;&gt;Node8 -->
<g id="edge7_Node000007_Node000008" class="edge">
<title>Node7&#45;&gt;Node8</title>
<g id="a_edge7_Node000007_Node000008"><a xlink:title=" ">
<path fill="none" stroke="#63b8ff" d="M1629.25,-44.95C1631.74,-36.15 1634.6,-26.06 1636.57,-19.09"/>
<polygon fill="#63b8ff" stroke="#63b8ff" points="1625.83,-44.17 1626.48,-54.75 1632.57,-46.08 1625.83,-44.17"/>
</a>
</g>
</g>
<!-- Node9&#45;&gt;Node4 -->
<g id="edge10_Node000009_Node000004" class="edge">
<title>Node9&#45;&gt;Node4</title>
<g id="a_edge10_Node000009_Node000004"><a xlink:title=" ">
<path fill="none" stroke="#63b8ff" d="M341.19,-54.87C468.66,-37.83 502.88,-39.79 626,-19 628.8,-18.53 631.7,-17.99 634.6,-17.43"/>
<polygon fill="#63b8ff" stroke="#63b8ff" points="340.48,-51.44 331.04,-56.24 341.42,-58.37 340.48,-51.44"/>
</a>
</g>
</g>
<!-- Node10 -->
<g id="Node000010" class="node">
<title>Node10</title>
<g id="a_Node000010"><a xlink:href="BMP390Sensor_8cpp.html" target="_top" xlink:title=" ">
<polygon fill="white" stroke="#666666" points="233.5,-19 124.5,-19 124.5,0 233.5,0 233.5,-19"/>
<text text-anchor="middle" x="179" y="-7" font-family="Helvetica,sans-Serif" font-size="10.00">BMP390Sensor.cpp</text>
</a>
</g>
</g>
<!-- Node9&#45;&gt;Node10 -->
<g id="edge9_Node000009_Node000010" class="edge">
<title>Node9&#45;&gt;Node10</title>
<g id="a_edge9_Node000009_Node000010"><a xlink:title=" ">
<path fill="none" stroke="#63b8ff" d="M256.48,-50.37C237.56,-40.63 212.3,-27.64 195.85,-19.17"/>
<polygon fill="#63b8ff" stroke="#63b8ff" points="254.96,-53.52 265.45,-54.98 258.16,-47.3 254.96,-53.52"/>
</a>
</g>
</g>
<!-- Node12 -->
<g id="Node000012" class="node">
<title>Node12</title>
<g id="a_Node000012"><a xlink:href="DS3231Sensor_8cpp.html" target="_top" xlink:title=" ">
<polygon fill="white" stroke="#666666" points="1818.5,-19 1711.5,-19 1711.5,0 1818.5,0 1818.5,-19"/>
<text text-anchor="middle" x="1765" y="-7" font-family="Helvetica,sans-Serif" font-size="10.00">DS3231Sensor.cpp</text>
</a>
</g>
</g>
<!-- Node11&#45;&gt;Node12 -->
<g id="edge12_Node000011_Node000012" class="edge">
<title>Node11&#45;&gt;Node12</title>
<g id="a_edge12_Node000011_Node000012"><a xlink:title=" ">
<path fill="none" stroke="#63b8ff" d="M1757.85,-44.95C1759.68,-36.15 1761.77,-26.06 1763.22,-19.09"/>
<polygon fill="#63b8ff" stroke="#63b8ff" points="1754.42,-44.25 1755.82,-54.75 1761.28,-45.67 1754.42,-44.25"/>
</a>
</g>
</g>
<!-- Node13&#45;&gt;Node4 -->
<g id="edge15_Node000013_Node000004" class="edge">
<title>Node13&#45;&gt;Node4</title>
<g id="a_edge15_Node000013_Node000004"><a xlink:title=" ">
<path fill="none" stroke="#63b8ff" d="M452.09,-53.07C498.51,-44.22 566.66,-31.07 626,-19 628.78,-18.43 631.67,-17.84 634.57,-17.23"/>
<polygon fill="#63b8ff" stroke="#63b8ff" points="451.4,-49.64 442.23,-54.95 452.71,-56.52 451.4,-49.64"/>
</a>
</g>
</g>
<!-- Node14 -->
<g id="Node000014" class="node">
<title>Node14</title>
<g id="a_Node000014"><a xlink:href="ENS160Sensor_8cpp.html" target="_top" xlink:title=" ">
<polygon fill="white" stroke="#666666" points="358.5,-19 251.5,-19 251.5,0 358.5,0 358.5,-19"/>
<text text-anchor="middle" x="305" y="-7" font-family="Helvetica,sans-Serif" font-size="10.00">ENS160Sensor.cpp</text>
</a>
</g>
</g>
<!-- Node13&#45;&gt;Node14 -->
<g id="edge14_Node000013_Node000014" class="edge">
<title>Node13&#45;&gt;Node14</title>
<g id="a_edge14_Node000013_Node000014"><a xlink:title=" ">
<path fill="none" stroke="#63b8ff" d="M373.51,-49.97C356.69,-40.28 334.55,-27.52 320.05,-19.17"/>
<polygon fill="#63b8ff" stroke="#63b8ff" points="371.81,-53.03 382.22,-54.98 375.3,-46.96 371.81,-53.03"/>
</a>
</g>
</g>
<!-- Node15&#45;&gt;Node4 -->
<g id="edge18_Node000015_Node000004" class="edge">
<title>Node15&#45;&gt;Node4</title>
<g id="a_edge18_Node000015_Node000004"><a xlink:title=" ">
<path fill="none" stroke="#63b8ff" d="M549.82,-51.55C577.68,-41.71 616.51,-27.98 641.46,-19.17"/>
<polygon fill="#63b8ff" stroke="#63b8ff" points="548.36,-48.35 540.1,-54.98 550.69,-54.95 548.36,-48.35"/>
</a>
</g>
</g>
<!-- Node16 -->
<g id="Node000016" class="node">
<title>Node16</title>
<g id="a_Node000016"><a xlink:href="ICM20948Sensor_8cpp.html" target="_top" xlink:title=" ">
<polygon fill="white" stroke="#666666" points="495,-19 377,-19 377,0 495,0 495,-19"/>
<text text-anchor="middle" x="436" y="-7" font-family="Helvetica,sans-Serif" font-size="10.00">ICM20948Sensor.cpp</text>
</a>
</g>
</g>
<!-- Node15&#45;&gt;Node16 -->
<g id="edge17_Node000015_Node000016" class="edge">
<title>Node15&#45;&gt;Node16</title>
<g id="a_edge17_Node000015_Node000016"><a xlink:title=" ">
<path fill="none" stroke="#63b8ff" d="M494.75,-49.42C480.24,-39.81 461.46,-27.37 449.09,-19.17"/>
<polygon fill="#63b8ff" stroke="#63b8ff" points="492.88,-52.38 503.15,-54.98 496.74,-46.54 492.88,-52.38"/>
</a>
</g>
</g>
<!-- Node17&#45;&gt;Node4 -->
<g id="edge21_Node000017_Node000004" class="edge">
<title>Node17&#45;&gt;Node4</title>
<g id="a_edge21_Node000017_Node000004"><a xlink:title=" ">
<path fill="none" stroke="#63b8ff" d="M644.5,-46.1C649.97,-37.04 656.42,-26.37 660.81,-19.09"/>
<polygon fill="#63b8ff" stroke="#63b8ff" points="641.46,-44.38 639.28,-54.75 647.45,-48 641.46,-44.38"/>
</a>
</g>
</g>
<!-- Node18 -->
<g id="Node000018" class="node">
<title>Node18</title>
<g id="a_Node000018"><a xlink:href="INA260Sensor_8cpp.html" target="_top" xlink:title=" ">
<polygon fill="white" stroke="#666666" points="617,-19 513,-19 513,0 617,0 617,-19"/>
<text text-anchor="middle" x="565" y="-7" font-family="Helvetica,sans-Serif" font-size="10.00">INA260Sensor.cpp</text>
</a>
</g>
</g>
<!-- Node17&#45;&gt;Node18 -->
<g id="edge20_Node000017_Node000018" class="edge">
<title>Node17&#45;&gt;Node18</title>
<g id="a_edge20_Node000017_Node000018"><a xlink:title=" ">
<path fill="none" stroke="#63b8ff" d="M614.96,-48.88C602.54,-39.34 586.76,-27.21 576.29,-19.17"/>
<polygon fill="#63b8ff" stroke="#63b8ff" points="612.85,-51.67 622.91,-54.98 617.12,-46.12 612.85,-51.67"/>
</a>
</g>
</g>
<!-- Node20 -->
<g id="Node000020" class="node">
<title>Node20</title>
<g id="a_Node000020"><a xlink:href="LSM9DS1Sensor_8cpp.html" target="_top" xlink:title=" ">
<polygon fill="white" stroke="#666666" points="1951.5,-19 1836.5,-19 1836.5,0 1951.5,0 1951.5,-19"/>
<text text-anchor="middle" x="1894" y="-7" font-family="Helvetica,sans-Serif" font-size="10.00">LSM9DS1Sensor.cpp</text>
</a>
</g>
</g>
<!-- Node19&#45;&gt;Node20 -->
<g id="edge23_Node000019_Node000020" class="edge">
<title>Node19&#45;&gt;Node20</title>
<g id="a_edge23_Node000019_Node000020"><a xlink:title=" ">
<path fill="none" stroke="#63b8ff" d="M1888.2,-44.66C1889.68,-35.93 1891.37,-25.99 1892.54,-19.09"/>
<polygon fill="#63b8ff" stroke="#63b8ff" points="1884.71,-44.3 1886.49,-54.75 1891.61,-45.48 1884.71,-44.3"/>
</a>
</g>
</g>
<!-- Node21&#45;&gt;Node4 -->
<g id="edge26_Node000021_Node000004" class="edge">
<title>Node21&#45;&gt;Node4</title>
<g id="a_edge26_Node000021_Node000004"><a xlink:title=" ">
<path fill="none" stroke="#63b8ff" d="M759.75,-50.9C737.03,-41.11 706.13,-27.79 686.12,-19.17"/>
<polygon fill="#63b8ff" stroke="#63b8ff" points="758.67,-54.24 769.24,-54.98 761.44,-47.81 758.67,-54.24"/>
</a>
</g>
</g>
<!-- Node22 -->
<g id="Node000022" class="node">
<title>Node22</title>
<g id="a_Node000022"><a xlink:href="MTK3339Sensor_8cpp.html" target="_top" xlink:title=" ">
<polygon fill="white" stroke="#666666" points="830.5,-19 715.5,-19 715.5,0 830.5,0 830.5,-19"/>
<text text-anchor="middle" x="773" y="-7" font-family="Helvetica,sans-Serif" font-size="10.00">MTK3339Sensor.cpp</text>
</a>
</g>
</g>
<!-- Node21&#45;&gt;Node22 -->
<g id="edge25_Node000021_Node000022" class="edge">
<title>Node21&#45;&gt;Node22</title>
<g id="a_edge25_Node000021_Node000022"><a xlink:title=" ">
<path fill="none" stroke="#63b8ff" d="M783.4,-44.95C780.74,-36.15 777.7,-26.06 775.59,-19.09"/>
<polygon fill="#63b8ff" stroke="#63b8ff" points="780.12,-46.19 786.36,-54.75 786.82,-44.16 780.12,-46.19"/>
</a>
</g>
</g>
<!-- Node23&#45;&gt;Node4 -->
<g id="edge29_Node000023_Node000004" class="edge">
<title>Node23&#45;&gt;Node4</title>
<g id="a_edge29_Node000023_Node000004"><a xlink:title=" ">
<path fill="none" stroke="#63b8ff" d="M860.78,-52.81C811.99,-42.21 738.72,-26.29 697.35,-17.31"/>
<polygon fill="#63b8ff" stroke="#63b8ff" points="860.28,-56.28 870.8,-54.98 861.77,-49.44 860.28,-56.28"/>
</a>
</g>
</g>
<!-- Node24 -->
<g id="Node000024" class="node">
<title>Node24</title>
<g id="a_Node000024"><a xlink:href="PCF8523Sensor_8cpp.html" target="_top" xlink:title=" ">
<polygon fill="white" stroke="#666666" points="961,-19 849,-19 849,0 961,0 961,-19"/>
<text text-anchor="middle" x="905" y="-7" font-family="Helvetica,sans-Serif" font-size="10.00">PCF8523Sensor.cpp</text>
</a>
</g>
</g>
<!-- Node23&#45;&gt;Node24 -->
<g id="edge28_Node000023_Node000024" class="edge">
<title>Node23&#45;&gt;Node24</title>
<g id="a_edge28_Node000023_Node000024"><a xlink:title=" ">
<path fill="none" stroke="#63b8ff" d="M908.22,-44.66C907.4,-35.93 906.46,-25.99 905.81,-19.09"/>
<polygon fill="#63b8ff" stroke="#63b8ff" points="904.75,-45.12 909.17,-54.75 911.72,-44.46 904.75,-45.12"/>
</a>
</g>
</g>
<!-- Node25&#45;&gt;Node4 -->
<g id="edge32_Node000025_Node000004" class="edge">
<title>Node25&#45;&gt;Node4</title>
<g id="a_edge32_Node000025_Node000004"><a xlink:title=" ">
<path fill="none" stroke="#63b8ff" d="M969.31,-55.04C969.2,-55.03 969.1,-55.01 969,-55 852.25,-37.99 822.22,-39.28 706,-19 703.2,-18.51 700.3,-17.97 697.4,-17.4"/>
<polygon fill="#63b8ff" stroke="#63b8ff" points="968.58,-58.48 978.99,-56.48 969.61,-51.55 968.58,-58.48"/>
</a>
</g>
</g>
<!-- Node26 -->
<g id="Node000026" class="node">
<title>Node26</title>
<g id="a_Node000026"><a xlink:href="SCD40Sensor_8cpp.html" target="_top" xlink:title=" ">
<polygon fill="white" stroke="#666666" points="1080.5,-19 979.5,-19 979.5,0 1080.5,0 1080.5,-19"/>
<text text-anchor="middle" x="1030" y="-7" font-family="Helvetica,sans-Serif" font-size="10.00">SCD40Sensor.cpp</text>
</a>
</g>
</g>
<!-- Node25&#45;&gt;Node26 -->
<g id="edge31_Node000025_Node000026" class="edge">
<title>Node25&#45;&gt;Node26</title>
<g id="a_edge31_Node000025_Node000026"><a xlink:title=" ">
<path fill="none" stroke="#63b8ff" d="M1026.13,-44.66C1027.12,-35.93 1028.25,-25.99 1029.03,-19.09"/>
<polygon fill="#63b8ff" stroke="#63b8ff" points="1022.64,-44.42 1024.99,-54.75 1029.59,-45.21 1022.64,-44.42"/>
</a>
</g>
</g>
<!-- Node28 -->
<g id="Node000028" class="node">
<title>Node28</title>
<g id="a_Node000028"><a xlink:href="SGP30Sensor_8cpp.html" target="_top" xlink:title=" ">
<polygon fill="white" stroke="#666666" points="2070.5,-19 1969.5,-19 1969.5,0 2070.5,0 2070.5,-19"/>
<text text-anchor="middle" x="2020" y="-7" font-family="Helvetica,sans-Serif" font-size="10.00">SGP30Sensor.cpp</text>
</a>
</g>
</g>
<!-- Node27&#45;&gt;Node28 -->
<g id="edge34_Node000027_Node000028" class="edge">
<title>Node27&#45;&gt;Node28</title>
<g id="a_edge34_Node000027_Node000028"><a xlink:title=" ">
<path fill="none" stroke="#63b8ff" d="M2014.84,-44.66C2016.16,-35.93 2017.66,-25.99 2018.7,-19.09"/>
<polygon fill="#63b8ff" stroke="#63b8ff" points="2011.35,-44.34 2013.32,-54.75 2018.27,-45.38 2011.35,-44.34"/>
</a>
</g>
</g>
<!-- Node29&#45;&gt;Node4 -->
<g id="edge37_Node000029_Node000004" class="edge">
<title>Node29&#45;&gt;Node4</title>
<g id="a_edge37_Node000029_Node000004"><a xlink:title=" ">
<path fill="none" stroke="#63b8ff" d="M1077.19,-54.98C911.49,-34.46 866.96,-43.81 706,-19 703.19,-18.57 700.29,-18.06 697.38,-17.52"/>
<polygon fill="#63b8ff" stroke="#63b8ff" points="1076.88,-58.47 1087.24,-56.24 1077.75,-51.52 1076.88,-58.47"/>
</a>
</g>
</g>
<!-- Node30 -->
<g id="Node000030" class="node">
<title>Node30</title>
<g id="a_Node000030"><a xlink:href="SHTC3Sensor_8cpp.html" target="_top" xlink:title=" ">
<polygon fill="white" stroke="#666666" points="1199.5,-19 1098.5,-19 1098.5,0 1199.5,0 1199.5,-19"/>
<text text-anchor="middle" x="1149" y="-7" font-family="Helvetica,sans-Serif" font-size="10.00">SHTC3Sensor.cpp</text>
</a>
</g>
</g>
<!-- Node29&#45;&gt;Node30 -->
<g id="edge36_Node000029_Node000030" class="edge">
<title>Node29&#45;&gt;Node30</title>
<g id="a_edge36_Node000029_Node000030"><a xlink:title=" ">
<path fill="none" stroke="#63b8ff" d="M1137.95,-44.95C1140.77,-36.15 1144.01,-26.06 1146.25,-19.09"/>
<polygon fill="#63b8ff" stroke="#63b8ff" points="1134.53,-44.16 1134.81,-54.75 1141.19,-46.29 1134.53,-44.16"/>
</a>
</g>
</g>
<!-- Node31&#45;&gt;Node4 -->
<g id="edge40_Node000031_Node000004" class="edge">
<title>Node31&#45;&gt;Node4</title>
<g id="a_edge40_Node000031_Node000004"><a xlink:title=" ">
<path fill="none" stroke="#63b8ff" d="M1184.35,-55.02C971.09,-32.03 914.14,-48.8 706,-19 703.19,-18.6 700.28,-18.11 697.37,-17.58"/>
<polygon fill="#63b8ff" stroke="#63b8ff" points="1183.98,-58.5 1194.3,-56.11 1184.74,-51.54 1183.98,-58.5"/>
</a>
</g>
</g>
<!-- Node32 -->
<g id="Node000032" class="node">
<title>Node32</title>
<g id="a_Node000032"><a xlink:href="TMP117Sensor_8cpp.html" target="_top" xlink:title=" ">
<polygon fill="white" stroke="#666666" points="1326,-19 1218,-19 1218,0 1326,0 1326,-19"/>
<text text-anchor="middle" x="1272" y="-7" font-family="Helvetica,sans-Serif" font-size="10.00">TMP117Sensor.cpp</text>
</a>
</g>
</g>
<!-- Node31&#45;&gt;Node32 -->
<g id="edge39_Node000031_Node000032" class="edge">
<title>Node31&#45;&gt;Node32</title>
<g id="a_edge39_Node000031_Node000032"><a xlink:title=" ">
<path fill="none" stroke="#63b8ff" d="M1252.68,-45.82C1257.6,-36.82 1263.36,-26.29 1267.3,-19.09"/>
<polygon fill="#63b8ff" stroke="#63b8ff" points="1249.52,-44.3 1247.79,-54.75 1255.66,-47.66 1249.52,-44.3"/>
</a>
</g>
</g>
<!-- Node33&#45;&gt;Node4 -->
<g id="edge43_Node000033_Node000004" class="edge">
<title>Node33&#45;&gt;Node4</title>
<g id="a_edge43_Node000033_Node000004"><a xlink:title=" ">
<path fill="none" stroke="#63b8ff" d="M1299.48,-55.09C1035.37,-26.35 964.75,-54.13 706,-19 703.19,-18.62 700.27,-18.15 697.37,-17.63"/>
<polygon fill="#63b8ff" stroke="#63b8ff" points="1299.44,-58.61 1309.76,-56.23 1300.21,-51.65 1299.44,-58.61"/>
</a>
</g>
</g>
<!-- Node34 -->
<g id="Node000034" class="node">
<title>Node34</title>
<g id="a_Node000034"><a xlink:href="TempSensor_8cpp.html" target="_top" xlink:title=" ">
<polygon fill="white" stroke="#666666" points="1439.5,-19 1344.5,-19 1344.5,0 1439.5,0 1439.5,-19"/>
<text text-anchor="middle" x="1392" y="-7" font-family="Helvetica,sans-Serif" font-size="10.00">TempSensor.cpp</text>
</a>
</g>
</g>
<!-- Node33&#45;&gt;Node34 -->
<g id="edge42_Node000033_Node000034" class="edge">
<title>Node33&#45;&gt;Node34</title>
<g id="a_edge42_Node000033_Node000034"><a xlink:title=" ">
<path fill="none" stroke="#63b8ff" d="M1364.7,-46.67C1371.63,-37.5 1379.91,-26.52 1385.52,-19.09"/>
<polygon fill="#63b8ff" stroke="#63b8ff" points="1361.84,-44.66 1358.61,-54.75 1367.42,-48.87 1361.84,-44.66"/>
</a>
</g>
</g>
</g>
</svg>
