<?xml version="1.0" encoding="UTF-8" standalone="no"?>
<!DOCTYPE svg PUBLIC "-//W3C//DTD SVG 1.1//EN"
 "http://www.w3.org/Graphics/SVG/1.1/DTD/svg11.dtd">
<!-- Generated by graphviz version 2.43.0 (0)
 -->
<!-- Title: SGP30Sensor.h Pages: 1 -->
<svg width="342pt" height="192pt"
 viewBox="0.00 0.00 341.77 192.00" xmlns="http://www.w3.org/2000/svg" xmlns:xlink="http://www.w3.org/1999/xlink">
<g id="graph0" class="graph" transform="scale(1 1) rotate(0) translate(4 188)">
<title>SGP30Sensor.h</title>
<!-- Node1 -->
<g id="Node000001" class="node">
<title>Node1</title>
<g id="a_Node000001"><a xlink:title=" ">
<polygon fill="#999999" stroke="#666666" points="156.27,-184 67.27,-184 67.27,-165 156.27,-165 156.27,-184"/>
<text text-anchor="middle" x="111.77" y="-172" font-family="Helvetica,sans-Serif" font-size="10.00">SGP30Sensor.h</text>
</a>
</g>
</g>
<!-- Node2 -->
<g id="Node000002" class="node">
<title>Node2</title>
<g id="a_Node000002"><a xlink:title=" ">
<polygon fill="#e0e0e0" stroke="#999999" points="279.27,-19 216.27,-19 216.27,0 279.27,0 279.27,-19"/>
<text text-anchor="middle" x="247.77" y="-7" font-family="Helvetica,sans-Serif" font-size="10.00">Arduino.h</text>
</a>
</g>
</g>
<!-- Node1&#45;&gt;Node2 -->
<g id="edge1_Node000001_Node000002" class="edge">
<title>Node1&#45;&gt;Node2</title>
<g id="a_edge1_Node000001_Node000002"><a xlink:title=" ">
<path fill="none" stroke="#63b8ff" d="M67.66,-164.99C30.4,-155.66 -14.13,-138.16 4.77,-110 49.85,-42.83 149.2,-20.97 205.91,-13.88"/>
<polygon fill="#63b8ff" stroke="#63b8ff" points="206.45,-17.34 215.98,-12.72 205.65,-10.39 206.45,-17.34"/>
</a>
</g>
</g>
<!-- Node3 -->
<g id="Node000003" class="node">
<title>Node3</title>
<g id="a_Node000003"><a xlink:title=" ">
<polygon fill="#e0e0e0" stroke="#999999" points="67.27,-129 14.27,-129 14.27,-110 67.27,-110 67.27,-129"/>
<text text-anchor="middle" x="40.77" y="-117" font-family="Helvetica,sans-Serif" font-size="10.00">stdint.h</text>
</a>
</g>
</g>
<!-- Node1&#45;&gt;Node3 -->
<g id="edge2_Node000001_Node000003" class="edge">
<title>Node1&#45;&gt;Node3</title>
<g id="a_edge2_Node000001_Node000003"><a xlink:title=" ">
<path fill="none" stroke="#63b8ff" d="M100.36,-164.98C89.66,-157 73.43,-144.88 60.61,-135.31"/>
<polygon fill="#63b8ff" stroke="#63b8ff" points="62.49,-132.35 52.39,-129.17 58.31,-137.96 62.49,-132.35"/>
</a>
</g>
</g>
<!-- Node4 -->
<g id="Node000004" class="node">
<title>Node4</title>
<g id="a_Node000004"><a xlink:title=" ">
<polygon fill="#e0e0e0" stroke="#999999" points="138.27,-129 85.27,-129 85.27,-110 138.27,-110 138.27,-129"/>
<text text-anchor="middle" x="111.77" y="-117" font-family="Helvetica,sans-Serif" font-size="10.00">string.h</text>
</a>
</g>
</g>
<!-- Node1&#45;&gt;Node4 -->
<g id="edge3_Node000001_Node000004" class="edge">
<title>Node1&#45;&gt;Node4</title>
<g id="a_edge3_Node000001_Node000004"><a xlink:title=" ">
<path fill="none" stroke="#63b8ff" d="M111.77,-164.75C111.77,-157.8 111.77,-147.85 111.77,-139.13"/>
<polygon fill="#63b8ff" stroke="#63b8ff" points="115.27,-139.09 111.77,-129.09 108.27,-139.09 115.27,-139.09"/>
</a>
</g>
</g>
<!-- Node5 -->
<g id="Node000005" class="node">
<title>Node5</title>
<g id="a_Node000005"><a xlink:title=" ">
<polygon fill="#e0e0e0" stroke="#999999" points="257.27,-129 156.27,-129 156.27,-110 257.27,-110 257.27,-129"/>
<text text-anchor="middle" x="206.77" y="-117" font-family="Helvetica,sans-Serif" font-size="10.00">Adafruit_SGP30.h</text>
</a>
</g>
</g>
<!-- Node1&#45;&gt;Node5 -->
<g id="edge4_Node000001_Node000005" class="edge">
<title>Node1&#45;&gt;Node5</title>
<g id="a_edge4_Node000001_Node000005"><a xlink:title=" ">
<path fill="none" stroke="#63b8ff" d="M127.03,-164.98C141.9,-156.69 164.75,-143.94 182.19,-134.22"/>
<polygon fill="#63b8ff" stroke="#63b8ff" points="184.2,-137.1 191.23,-129.17 180.79,-130.99 184.2,-137.1"/>
</a>
</g>
</g>
<!-- Node6 -->
<g id="Node000006" class="node">
<title>Node6</title>
<g id="a_Node000006"><a xlink:href="Sensor_8h.html" target="_top" xlink:title=" ">
<polygon fill="white" stroke="#666666" points="333.77,-129 275.77,-129 275.77,-110 333.77,-110 333.77,-129"/>
<text text-anchor="middle" x="304.77" y="-117" font-family="Helvetica,sans-Serif" font-size="10.00">Sensor.h</text>
</a>
</g>
</g>
<!-- Node1&#45;&gt;Node6 -->
<g id="edge5_Node000001_Node000006" class="edge">
<title>Node1&#45;&gt;Node6</title>
<g id="a_edge5_Node000001_Node000006"><a xlink:title=" ">
<path fill="none" stroke="#63b8ff" d="M142.78,-164.98C176.28,-155.78 229.73,-141.11 265.99,-131.15"/>
<polygon fill="#63b8ff" stroke="#63b8ff" points="267.02,-134.5 275.73,-128.47 265.16,-127.75 267.02,-134.5"/>
</a>
</g>
</g>
<!-- Node6&#45;&gt;Node2 -->
<g id="edge6_Node000006_Node000002" class="edge">
<title>Node6&#45;&gt;Node2</title>
<g id="a_edge6_Node000006_Node000002"><a xlink:title=" ">
<path fill="none" stroke="#63b8ff" d="M295.38,-109.81C286.8,-101.4 274.35,-87.92 266.77,-74 259.11,-59.93 254.16,-42.38 251.24,-29.3"/>
<polygon fill="#63b8ff" stroke="#63b8ff" points="254.6,-28.26 249.18,-19.16 247.74,-29.65 254.6,-28.26"/>
</a>
</g>
</g>
<!-- Node7 -->
<g id="Node000007" class="node">
<title>Node7</title>
<g id="a_Node000007"><a xlink:href="Logger_8h.html" target="_top" xlink:title=" ">
<polygon fill="white" stroke="#666666" points="333.77,-74 275.77,-74 275.77,-55 333.77,-55 333.77,-74"/>
<text text-anchor="middle" x="304.77" y="-62" font-family="Helvetica,sans-Serif" font-size="10.00">Logger.h</text>
</a>
</g>
</g>
<!-- Node6&#45;&gt;Node7 -->
<g id="edge7_Node000006_Node000007" class="edge">
<title>Node6&#45;&gt;Node7</title>
<g id="a_edge7_Node000006_Node000007"><a xlink:title=" ">
<path fill="none" stroke="#63b8ff" d="M304.77,-109.75C304.77,-102.8 304.77,-92.85 304.77,-84.13"/>
<polygon fill="#63b8ff" stroke="#63b8ff" points="308.27,-84.09 304.77,-74.09 301.27,-84.09 308.27,-84.09"/>
</a>
</g>
</g>
<!-- Node7&#45;&gt;Node2 -->
<g id="edge8_Node000007_Node000002" class="edge">
<title>Node7&#45;&gt;Node2</title>
<g id="a_edge8_Node000007_Node000002"><a xlink:title=" ">
<path fill="none" stroke="#63b8ff" d="M295.61,-54.98C287.27,-47.23 274.74,-35.58 264.59,-26.14"/>
<polygon fill="#63b8ff" stroke="#63b8ff" points="266.8,-23.42 257.1,-19.17 262.04,-28.54 266.8,-23.42"/>
</a>
</g>
</g>
</g>
</svg>
