<?xml version="1.0" encoding="UTF-8" standalone="no"?>
<!DOCTYPE svg PUBLIC "-//W3C//DTD SVG 1.1//EN"
 "http://www.w3.org/Graphics/SVG/1.1/DTD/svg11.dtd">
<!-- Generated by graphviz version 2.43.0 (0)
 -->
<!-- Title: FileHeader Pages: 1 -->
<svg width="120pt" height="193pt"
 viewBox="0.00 0.00 120.00 193.00" xmlns="http://www.w3.org/2000/svg" xmlns:xlink="http://www.w3.org/1999/xlink">
<g id="graph0" class="graph" transform="scale(1 1) rotate(0) translate(4 189)">
<title>FileHeader</title>
<!-- Node1 -->
<g id="node1" class="node">
<title>Node1</title>
<g id="a_node1"><a xlink:title=" ">
<polygon fill="#bfbfbf" stroke="black" points="0,-0.5 0,-57.5 68,-57.5 68,-0.5 0,-0.5"/>
<text text-anchor="middle" x="34" y="-45.5" font-family="Helvetica,sans-Serif" font-size="10.00">FileHeader</text>
<polyline fill="none" stroke="black" points="0,-38.5 68,-38.5 "/>
<text text-anchor="middle" x="34" y="-26.5" font-family="Helvetica,sans-Serif" font-size="10.00"> </text>
<polyline fill="none" stroke="black" points="0,-19.5 68,-19.5 "/>
<text text-anchor="middle" x="34" y="-7.5" font-family="Helvetica,sans-Serif" font-size="10.00"> </text>
</a>
</g>
</g>
<!-- Node2 -->
<g id="node2" class="node">
<title>Node2</title>
<g id="a_node2"><a xlink:title=" ">
<polygon fill="none" stroke="#bfbfbf" points="6,-127.5 6,-184.5 62,-184.5 62,-127.5 6,-127.5"/>
<text text-anchor="middle" x="34" y="-172.5" font-family="Helvetica,sans-Serif" font-size="10.00">uint32_t</text>
<polyline fill="none" stroke="#bfbfbf" points="6,-165.5 62,-165.5 "/>
<text text-anchor="middle" x="34" y="-153.5" font-family="Helvetica,sans-Serif" font-size="10.00"> </text>
<polyline fill="none" stroke="#bfbfbf" points="6,-146.5 62,-146.5 "/>
<text text-anchor="middle" x="34" y="-134.5" font-family="Helvetica,sans-Serif" font-size="10.00"> </text>
</a>
</g>
</g>
<!-- Node2&#45;&gt;Node1 -->
<g id="edge1" class="edge">
<title>Node2&#45;&gt;Node1</title>
<path fill="none" stroke="#404040" d="M34,-127.26C34,-110.35 34,-88.46 34,-69.73"/>
<polygon fill="none" stroke="#404040" points="34,-69.66 30,-63.66 34,-57.66 38,-63.66 34,-69.66"/>
<text text-anchor="middle" x="73" y="-101" font-family="Helvetica,sans-Serif" font-size="10.00"> +start_address</text>
<text text-anchor="middle" x="73" y="-90" font-family="Helvetica,sans-Serif" font-size="10.00">+file_number</text>
<text text-anchor="middle" x="73" y="-79" font-family="Helvetica,sans-Serif" font-size="10.00">+end_address</text>
</g>
</g>
</svg>
