<?xml version="1.0" encoding="UTF-8" standalone="no"?>
<!DOCTYPE svg PUBLIC "-//W3C//DTD SVG 1.1//EN"
 "http://www.w3.org/Graphics/SVG/1.1/DTD/svg11.dtd">
<!-- Generated by graphviz version 2.43.0 (0)
 -->
<!-- Title: TempSensor.cpp Pages: 1 -->
<svg width="132pt" height="302pt"
 viewBox="0.00 0.00 131.50 302.00" xmlns="http://www.w3.org/2000/svg" xmlns:xlink="http://www.w3.org/1999/xlink">
<g id="graph0" class="graph" transform="scale(1 1) rotate(0) translate(4 298)">
<title>TempSensor.cpp</title>
<!-- Node1 -->
<g id="Node000001" class="node">
<title>Node1</title>
<g id="a_Node000001"><a xlink:title=" ">
<polygon fill="#999999" stroke="#666666" points="95,-294 0,-294 0,-275 95,-275 95,-294"/>
<text text-anchor="middle" x="47.5" y="-282" font-family="Helvetica,sans-Serif" font-size="10.00">TempSensor.cpp</text>
</a>
</g>
</g>
<!-- Node2 -->
<g id="Node000002" class="node">
<title>Node2</title>
<g id="a_Node000002"><a xlink:href="TempSensor_8h.html" target="_top" xlink:title=" ">
<polygon fill="white" stroke="#666666" points="89.5,-239 5.5,-239 5.5,-220 89.5,-220 89.5,-239"/>
<text text-anchor="middle" x="47.5" y="-227" font-family="Helvetica,sans-Serif" font-size="10.00">TempSensor.h</text>
</a>
</g>
</g>
<!-- Node1&#45;&gt;Node2 -->
<g id="edge1_Node000001_Node000002" class="edge">
<title>Node1&#45;&gt;Node2</title>
<g id="a_edge1_Node000001_Node000002"><a xlink:title=" ">
<path fill="none" stroke="#63b8ff" d="M47.5,-274.75C47.5,-267.8 47.5,-257.85 47.5,-249.13"/>
<polygon fill="#63b8ff" stroke="#63b8ff" points="51,-249.09 47.5,-239.09 44,-249.09 51,-249.09"/>
</a>
</g>
</g>
<!-- Node3 -->
<g id="Node000003" class="node">
<title>Node3</title>
<g id="a_Node000003"><a xlink:href="Sensor_8h.html" target="_top" xlink:title=" ">
<polygon fill="white" stroke="#666666" points="76.5,-184 18.5,-184 18.5,-165 76.5,-165 76.5,-184"/>
<text text-anchor="middle" x="47.5" y="-172" font-family="Helvetica,sans-Serif" font-size="10.00">Sensor.h</text>
</a>
</g>
</g>
<!-- Node2&#45;&gt;Node3 -->
<g id="edge2_Node000002_Node000003" class="edge">
<title>Node2&#45;&gt;Node3</title>
<g id="a_edge2_Node000002_Node000003"><a xlink:title=" ">
<path fill="none" stroke="#63b8ff" d="M47.5,-219.75C47.5,-212.8 47.5,-202.85 47.5,-194.13"/>
<polygon fill="#63b8ff" stroke="#63b8ff" points="51,-194.09 47.5,-184.09 44,-194.09 51,-194.09"/>
</a>
</g>
</g>
<!-- Node4 -->
<g id="Node000004" class="node">
<title>Node4</title>
<g id="a_Node000004"><a xlink:title=" ">
<polygon fill="#e0e0e0" stroke="#999999" points="69,-19 6,-19 6,0 69,0 69,-19"/>
<text text-anchor="middle" x="37.5" y="-7" font-family="Helvetica,sans-Serif" font-size="10.00">Arduino.h</text>
</a>
</g>
</g>
<!-- Node3&#45;&gt;Node4 -->
<g id="edge3_Node000003_Node000004" class="edge">
<title>Node3&#45;&gt;Node4</title>
<g id="a_edge3_Node000003_Node000004"><a xlink:title=" ">
<path fill="none" stroke="#63b8ff" d="M36.79,-164.93C27.57,-156.8 14.91,-143.68 9.5,-129 -3.37,-94.12 14.66,-51.23 27.21,-27.81"/>
<polygon fill="#63b8ff" stroke="#63b8ff" points="30.29,-29.47 32.14,-19.04 24.19,-26.04 30.29,-29.47"/>
</a>
</g>
</g>
<!-- Node5 -->
<g id="Node000005" class="node">
<title>Node5</title>
<g id="a_Node000005"><a xlink:href="Device_8h.html" target="_top" xlink:title=" ">
<polygon fill="white" stroke="#666666" points="77,-129 18,-129 18,-110 77,-110 77,-129"/>
<text text-anchor="middle" x="47.5" y="-117" font-family="Helvetica,sans-Serif" font-size="10.00">Device.h</text>
</a>
</g>
</g>
<!-- Node3&#45;&gt;Node5 -->
<g id="edge4_Node000003_Node000005" class="edge">
<title>Node3&#45;&gt;Node5</title>
<g id="a_edge4_Node000003_Node000005"><a xlink:title=" ">
<path fill="none" stroke="#63b8ff" d="M47.5,-164.75C47.5,-157.8 47.5,-147.85 47.5,-139.13"/>
<polygon fill="#63b8ff" stroke="#63b8ff" points="51,-139.09 47.5,-129.09 44,-139.09 51,-139.09"/>
</a>
</g>
</g>
<!-- Node6 -->
<g id="Node000006" class="node">
<title>Node6</title>
<g id="a_Node000006"><a xlink:href="Logger_8h.html" target="_top" xlink:title=" ">
<polygon fill="white" stroke="#666666" points="123.5,-74 65.5,-74 65.5,-55 123.5,-55 123.5,-74"/>
<text text-anchor="middle" x="94.5" y="-62" font-family="Helvetica,sans-Serif" font-size="10.00">Logger.h</text>
</a>
</g>
</g>
<!-- Node3&#45;&gt;Node6 -->
<g id="edge8_Node000003_Node000006" class="edge">
<title>Node3&#45;&gt;Node6</title>
<g id="a_edge8_Node000003_Node000006"><a xlink:title=" ">
<path fill="none" stroke="#63b8ff" d="M58.05,-164.81C67.22,-156.6 80.01,-143.43 86.5,-129 92.84,-114.89 94.65,-97.35 94.98,-84.28"/>
<polygon fill="#63b8ff" stroke="#63b8ff" points="98.48,-84.14 94.97,-74.14 91.48,-84.15 98.48,-84.14"/>
</a>
</g>
</g>
<!-- Node5&#45;&gt;Node4 -->
<g id="edge5_Node000005_Node000004" class="edge">
<title>Node5&#45;&gt;Node4</title>
<g id="a_edge5_Node000005_Node000004"><a xlink:title=" ">
<path fill="none" stroke="#63b8ff" d="M46.68,-109.66C45.06,-92.17 41.42,-52.8 39.24,-29.27"/>
<polygon fill="#63b8ff" stroke="#63b8ff" points="42.71,-28.79 38.3,-19.16 35.74,-29.44 42.71,-28.79"/>
</a>
</g>
</g>
<!-- Node5&#45;&gt;Node6 -->
<g id="edge6_Node000005_Node000006" class="edge">
<title>Node5&#45;&gt;Node6</title>
<g id="a_edge6_Node000005_Node000006"><a xlink:title=" ">
<path fill="none" stroke="#63b8ff" d="M55.26,-109.75C61.97,-102.18 71.84,-91.05 80.01,-81.84"/>
<polygon fill="#63b8ff" stroke="#63b8ff" points="82.87,-83.89 86.88,-74.09 77.63,-79.25 82.87,-83.89"/>
</a>
</g>
</g>
<!-- Node6&#45;&gt;Node4 -->
<g id="edge7_Node000006_Node000004" class="edge">
<title>Node6&#45;&gt;Node4</title>
<g id="a_edge7_Node000006_Node000004"><a xlink:title=" ">
<path fill="none" stroke="#63b8ff" d="M85.34,-54.98C77,-47.23 64.47,-35.58 54.32,-26.14"/>
<polygon fill="#63b8ff" stroke="#63b8ff" points="56.53,-23.42 46.82,-19.17 51.76,-28.54 56.53,-23.42"/>
</a>
</g>
</g>
</g>
</svg>
