<?xml version="1.0" encoding="UTF-8" standalone="no"?>
<!DOCTYPE svg PUBLIC "-//W3C//DTD SVG 1.1//EN"
 "http://www.w3.org/Graphics/SVG/1.1/DTD/svg11.dtd">
<!-- Generated by graphviz version 2.43.0 (0)
 -->
<!-- Title: TempSensor.cpp Pages: 1 -->
<svg width="134pt" height="308pt"
 viewBox="0.00 0.00 133.50 308.00" xmlns="http://www.w3.org/2000/svg" xmlns:xlink="http://www.w3.org/1999/xlink">
<g id="graph0" class="graph" transform="scale(1 1) rotate(0) translate(4 304)">
<title>TempSensor.cpp</title>
<!-- Node1 -->
<g id="node1" class="node">
<title>Node1</title>
<g id="a_node1"><a xlink:title=" ">
<polygon fill="#bfbfbf" stroke="black" points="0,-280.5 0,-299.5 96,-299.5 96,-280.5 0,-280.5"/>
<text text-anchor="middle" x="48" y="-287.5" font-family="Helvetica,sans-Serif" font-size="10.00">TempSensor.cpp</text>
</a>
</g>
</g>
<!-- Node2 -->
<g id="node2" class="node">
<title>Node2</title>
<g id="a_node2"><a xlink:href="TempSensor_8h.html" target="_top" xlink:title=" ">
<polygon fill="none" stroke="black" points="5.5,-224.5 5.5,-243.5 90.5,-243.5 90.5,-224.5 5.5,-224.5"/>
<text text-anchor="middle" x="48" y="-231.5" font-family="Helvetica,sans-Serif" font-size="10.00">TempSensor.h</text>
</a>
</g>
</g>
<!-- Node1&#45;&gt;Node2 -->
<g id="edge1" class="edge">
<title>Node1&#45;&gt;Node2</title>
<path fill="none" stroke="midnightblue" d="M48,-280.08C48,-273.01 48,-262.86 48,-253.99"/>
<polygon fill="midnightblue" stroke="midnightblue" points="51.5,-253.75 48,-243.75 44.5,-253.75 51.5,-253.75"/>
</g>
<!-- Node3 -->
<g id="node3" class="node">
<title>Node3</title>
<g id="a_node3"><a xlink:href="Sensor_8h.html" target="_top" xlink:title=" ">
<polygon fill="none" stroke="black" points="18.5,-168.5 18.5,-187.5 77.5,-187.5 77.5,-168.5 18.5,-168.5"/>
<text text-anchor="middle" x="48" y="-175.5" font-family="Helvetica,sans-Serif" font-size="10.00">Sensor.h</text>
</a>
</g>
</g>
<!-- Node2&#45;&gt;Node3 -->
<g id="edge2" class="edge">
<title>Node2&#45;&gt;Node3</title>
<path fill="none" stroke="midnightblue" d="M48,-224.08C48,-217.01 48,-206.86 48,-197.99"/>
<polygon fill="midnightblue" stroke="midnightblue" points="51.5,-197.75 48,-187.75 44.5,-197.75 51.5,-197.75"/>
</g>
<!-- Node4 -->
<g id="node4" class="node">
<title>Node4</title>
<g id="a_node4"><a xlink:title=" ">
<polygon fill="none" stroke="#bfbfbf" points="6.5,-0.5 6.5,-19.5 69.5,-19.5 69.5,-0.5 6.5,-0.5"/>
<text text-anchor="middle" x="38" y="-7.5" font-family="Helvetica,sans-Serif" font-size="10.00">Arduino.h</text>
</a>
</g>
</g>
<!-- Node3&#45;&gt;Node4 -->
<g id="edge3" class="edge">
<title>Node3&#45;&gt;Node4</title>
<path fill="none" stroke="midnightblue" d="M37.29,-168.3C28.06,-160.07 15.41,-146.79 10,-132 -3.03,-96.39 15.06,-52.6 27.66,-28.67"/>
<polygon fill="midnightblue" stroke="midnightblue" points="30.84,-30.16 32.62,-19.72 24.71,-26.77 30.84,-30.16"/>
</g>
<!-- Node5 -->
<g id="node5" class="node">
<title>Node5</title>
<g id="a_node5"><a xlink:href="Device_8h.html" target="_top" xlink:title=" ">
<polygon fill="none" stroke="black" points="18.5,-112.5 18.5,-131.5 77.5,-131.5 77.5,-112.5 18.5,-112.5"/>
<text text-anchor="middle" x="48" y="-119.5" font-family="Helvetica,sans-Serif" font-size="10.00">Device.h</text>
</a>
</g>
</g>
<!-- Node3&#45;&gt;Node5 -->
<g id="edge4" class="edge">
<title>Node3&#45;&gt;Node5</title>
<path fill="none" stroke="midnightblue" d="M48,-168.08C48,-161.01 48,-150.86 48,-141.99"/>
<polygon fill="midnightblue" stroke="midnightblue" points="51.5,-141.75 48,-131.75 44.5,-141.75 51.5,-141.75"/>
</g>
<!-- Node6 -->
<g id="node6" class="node">
<title>Node6</title>
<g id="a_node6"><a xlink:href="Logger_8h.html" target="_top" xlink:title=" ">
<polygon fill="none" stroke="black" points="66.5,-56.5 66.5,-75.5 125.5,-75.5 125.5,-56.5 66.5,-56.5"/>
<text text-anchor="middle" x="96" y="-63.5" font-family="Helvetica,sans-Serif" font-size="10.00">Logger.h</text>
</a>
</g>
</g>
<!-- Node3&#45;&gt;Node6 -->
<g id="edge8" class="edge">
<title>Node3&#45;&gt;Node6</title>
<path fill="none" stroke="midnightblue" d="M58.15,-168.49C67.31,-160.18 80.34,-146.69 87,-132 93.55,-117.56 95.64,-99.6 96.18,-86.22"/>
<polygon fill="midnightblue" stroke="midnightblue" points="99.69,-85.9 96.33,-75.85 92.69,-85.8 99.69,-85.9"/>
</g>
<!-- Node5&#45;&gt;Node4 -->
<g id="edge5" class="edge">
<title>Node5&#45;&gt;Node4</title>
<path fill="none" stroke="midnightblue" d="M47.22,-112.37C45.6,-94.62 41.88,-53.67 39.69,-29.6"/>
<polygon fill="midnightblue" stroke="midnightblue" points="43.17,-29.23 38.78,-19.59 36.2,-29.87 43.17,-29.23"/>
</g>
<!-- Node5&#45;&gt;Node6 -->
<g id="edge6" class="edge">
<title>Node5&#45;&gt;Node6</title>
<path fill="none" stroke="midnightblue" d="M55.93,-112.08C62.85,-104.3 73.07,-92.8 81.45,-83.37"/>
<polygon fill="midnightblue" stroke="midnightblue" points="84.19,-85.55 88.22,-75.75 78.96,-80.9 84.19,-85.55"/>
</g>
<!-- Node6&#45;&gt;Node4 -->
<g id="edge7" class="edge">
<title>Node6&#45;&gt;Node4</title>
<path fill="none" stroke="midnightblue" d="M86.68,-56.32C78.11,-48.34 65.19,-36.31 54.81,-26.65"/>
<polygon fill="midnightblue" stroke="midnightblue" points="57.19,-24.09 47.49,-19.83 52.42,-29.21 57.19,-24.09"/>
</g>
</g>
</svg>
