<?xml version="1.0" encoding="UTF-8" standalone="no"?>
<!DOCTYPE svg PUBLIC "-//W3C//DTD SVG 1.1//EN"
 "http://www.w3.org/Graphics/SVG/1.1/DTD/svg11.dtd">
<!-- Generated by graphviz version 2.43.0 (0)
 -->
<!-- Title: TMP117Sensor.cpp Pages: 1 -->
<svg width="315pt" height="308pt"
 viewBox="0.00 0.00 315.00 308.00" xmlns="http://www.w3.org/2000/svg" xmlns:xlink="http://www.w3.org/1999/xlink">
<g id="graph0" class="graph" transform="scale(1 1) rotate(0) translate(4 304)">
<title>TMP117Sensor.cpp</title>
<!-- Node1 -->
<g id="node1" class="node">
<title>Node1</title>
<g id="a_node1"><a xlink:title=" ">
<polygon fill="#bfbfbf" stroke="black" points="103,-280.5 103,-299.5 212,-299.5 212,-280.5 103,-280.5"/>
<text text-anchor="middle" x="157.5" y="-287.5" font-family="Helvetica,sans-Serif" font-size="10.00">TMP117Sensor.cpp</text>
</a>
</g>
</g>
<!-- Node2 -->
<g id="node2" class="node">
<title>Node2</title>
<g id="a_node2"><a xlink:href="TMP117Sensor_8h.html" target="_top" xlink:title=" ">
<polygon fill="none" stroke="black" points="108.5,-224.5 108.5,-243.5 206.5,-243.5 206.5,-224.5 108.5,-224.5"/>
<text text-anchor="middle" x="157.5" y="-231.5" font-family="Helvetica,sans-Serif" font-size="10.00">TMP117Sensor.h</text>
</a>
</g>
</g>
<!-- Node1&#45;&gt;Node2 -->
<g id="edge1" class="edge">
<title>Node1&#45;&gt;Node2</title>
<path fill="none" stroke="midnightblue" d="M157.5,-280.08C157.5,-273.01 157.5,-262.86 157.5,-253.99"/>
<polygon fill="midnightblue" stroke="midnightblue" points="161,-253.75 157.5,-243.75 154,-253.75 161,-253.75"/>
</g>
<!-- Node3 -->
<g id="node3" class="node">
<title>Node3</title>
<g id="a_node3"><a xlink:title=" ">
<polygon fill="none" stroke="#bfbfbf" points="0,-168.5 0,-187.5 115,-187.5 115,-168.5 0,-168.5"/>
<text text-anchor="middle" x="57.5" y="-175.5" font-family="Helvetica,sans-Serif" font-size="10.00">SparkFun_TMP117.h</text>
</a>
</g>
</g>
<!-- Node2&#45;&gt;Node3 -->
<g id="edge2" class="edge">
<title>Node2&#45;&gt;Node3</title>
<path fill="none" stroke="midnightblue" d="M141.43,-224.32C125.54,-215.74 100.99,-202.49 82.54,-192.52"/>
<polygon fill="midnightblue" stroke="midnightblue" points="83.99,-189.33 73.53,-187.65 80.66,-195.49 83.99,-189.33"/>
</g>
<!-- Node4 -->
<g id="node4" class="node">
<title>Node4</title>
<g id="a_node4"><a xlink:title=" ">
<polygon fill="none" stroke="#bfbfbf" points="133.5,-168.5 133.5,-187.5 181.5,-187.5 181.5,-168.5 133.5,-168.5"/>
<text text-anchor="middle" x="157.5" y="-175.5" font-family="Helvetica,sans-Serif" font-size="10.00">Wire.h</text>
</a>
</g>
</g>
<!-- Node2&#45;&gt;Node4 -->
<g id="edge3" class="edge">
<title>Node2&#45;&gt;Node4</title>
<path fill="none" stroke="midnightblue" d="M157.5,-224.08C157.5,-217.01 157.5,-206.86 157.5,-197.99"/>
<polygon fill="midnightblue" stroke="midnightblue" points="161,-197.75 157.5,-187.75 154,-197.75 161,-197.75"/>
</g>
<!-- Node5 -->
<g id="node5" class="node">
<title>Node5</title>
<g id="a_node5"><a xlink:href="Sensor_8h.html" target="_top" xlink:title=" ">
<polygon fill="none" stroke="black" points="200,-168.5 200,-187.5 259,-187.5 259,-168.5 200,-168.5"/>
<text text-anchor="middle" x="229.5" y="-175.5" font-family="Helvetica,sans-Serif" font-size="10.00">Sensor.h</text>
</a>
</g>
</g>
<!-- Node2&#45;&gt;Node5 -->
<g id="edge4" class="edge">
<title>Node2&#45;&gt;Node5</title>
<path fill="none" stroke="midnightblue" d="M169.07,-224.32C179.92,-216.18 196.38,-203.84 209.38,-194.09"/>
<polygon fill="midnightblue" stroke="midnightblue" points="211.82,-196.63 217.72,-187.83 207.62,-191.03 211.82,-196.63"/>
</g>
<!-- Node6 -->
<g id="node6" class="node">
<title>Node6</title>
<g id="a_node6"><a xlink:title=" ">
<polygon fill="none" stroke="#bfbfbf" points="188,-0.5 188,-19.5 251,-19.5 251,-0.5 188,-0.5"/>
<text text-anchor="middle" x="219.5" y="-7.5" font-family="Helvetica,sans-Serif" font-size="10.00">Arduino.h</text>
</a>
</g>
</g>
<!-- Node5&#45;&gt;Node6 -->
<g id="edge5" class="edge">
<title>Node5&#45;&gt;Node6</title>
<path fill="none" stroke="midnightblue" d="M218.79,-168.3C209.56,-160.07 196.91,-146.79 191.5,-132 178.47,-96.39 196.56,-52.6 209.16,-28.67"/>
<polygon fill="midnightblue" stroke="midnightblue" points="212.34,-30.16 214.12,-19.72 206.21,-26.77 212.34,-30.16"/>
</g>
<!-- Node7 -->
<g id="node7" class="node">
<title>Node7</title>
<g id="a_node7"><a xlink:href="Device_8h.html" target="_top" xlink:title=" ">
<polygon fill="none" stroke="black" points="200,-112.5 200,-131.5 259,-131.5 259,-112.5 200,-112.5"/>
<text text-anchor="middle" x="229.5" y="-119.5" font-family="Helvetica,sans-Serif" font-size="10.00">Device.h</text>
</a>
</g>
</g>
<!-- Node5&#45;&gt;Node7 -->
<g id="edge6" class="edge">
<title>Node5&#45;&gt;Node7</title>
<path fill="none" stroke="midnightblue" d="M229.5,-168.08C229.5,-161.01 229.5,-150.86 229.5,-141.99"/>
<polygon fill="midnightblue" stroke="midnightblue" points="233,-141.75 229.5,-131.75 226,-141.75 233,-141.75"/>
</g>
<!-- Node8 -->
<g id="node8" class="node">
<title>Node8</title>
<g id="a_node8"><a xlink:href="Logger_8h.html" target="_top" xlink:title=" ">
<polygon fill="none" stroke="black" points="248,-56.5 248,-75.5 307,-75.5 307,-56.5 248,-56.5"/>
<text text-anchor="middle" x="277.5" y="-63.5" font-family="Helvetica,sans-Serif" font-size="10.00">Logger.h</text>
</a>
</g>
</g>
<!-- Node5&#45;&gt;Node8 -->
<g id="edge10" class="edge">
<title>Node5&#45;&gt;Node8</title>
<path fill="none" stroke="midnightblue" d="M239.65,-168.49C248.81,-160.18 261.84,-146.69 268.5,-132 275.05,-117.56 277.14,-99.6 277.68,-86.22"/>
<polygon fill="midnightblue" stroke="midnightblue" points="281.19,-85.9 277.83,-75.85 274.19,-85.8 281.19,-85.9"/>
</g>
<!-- Node7&#45;&gt;Node6 -->
<g id="edge7" class="edge">
<title>Node7&#45;&gt;Node6</title>
<path fill="none" stroke="midnightblue" d="M228.72,-112.37C227.1,-94.62 223.38,-53.67 221.19,-29.6"/>
<polygon fill="midnightblue" stroke="midnightblue" points="224.67,-29.23 220.28,-19.59 217.7,-29.87 224.67,-29.23"/>
</g>
<!-- Node7&#45;&gt;Node8 -->
<g id="edge8" class="edge">
<title>Node7&#45;&gt;Node8</title>
<path fill="none" stroke="midnightblue" d="M237.43,-112.08C244.35,-104.3 254.57,-92.8 262.95,-83.37"/>
<polygon fill="midnightblue" stroke="midnightblue" points="265.69,-85.55 269.72,-75.75 260.46,-80.9 265.69,-85.55"/>
</g>
<!-- Node8&#45;&gt;Node6 -->
<g id="edge9" class="edge">
<title>Node8&#45;&gt;Node6</title>
<path fill="none" stroke="midnightblue" d="M268.18,-56.32C259.61,-48.34 246.69,-36.31 236.31,-26.65"/>
<polygon fill="midnightblue" stroke="midnightblue" points="238.69,-24.09 228.99,-19.83 233.92,-29.21 238.69,-24.09"/>
</g>
</g>
</svg>
